ISO-10303-21;
HEADER;
FILE_DESCRIPTION(('KiCad electronic assembly'),'2;1');
FILE_NAME('Mezzanine jumper.step','2026-01-13T21:48:54',('Pcbnew'),(
    'Kicad'),'Open CASCADE STEP processor 7.7','KiCad to STEP converter'
  ,'Unknown');
FILE_SCHEMA(('AUTOMOTIVE_DESIGN { 1 0 10303 214 1 1 1 1 }'));
ENDSEC;
DATA;
#1 = APPLICATION_PROTOCOL_DEFINITION('international standard',
  'automotive_design',2000,#2);
#2 = APPLICATION_CONTEXT(
  'core data for automotive mechanical design processes');
#3 = SHAPE_DEFINITION_REPRESENTATION(#4,#10);
#4 = PRODUCT_DEFINITION_SHAPE('','',#5);
#5 = PRODUCT_DEFINITION('design','',#6,#9);
#6 = PRODUCT_DEFINITION_FORMATION('','',#7);
#7 = PRODUCT('Mezzanine jumper 1','Mezzanine jumper 1','',(#8));
#8 = PRODUCT_CONTEXT('',#2,'mechanical');
#9 = PRODUCT_DEFINITION_CONTEXT('part definition',#2,'design');
#10 = SHAPE_REPRESENTATION('',(#11,#15,#19,#23),#27);
#11 = AXIS2_PLACEMENT_3D('',#12,#13,#14);
#12 = CARTESIAN_POINT('',(0.,0.,0.));
#13 = DIRECTION('',(0.,0.,1.));
#14 = DIRECTION('',(1.,0.,-0.));
#15 = AXIS2_PLACEMENT_3D('',#16,#17,#18);
#16 = CARTESIAN_POINT('',(124.,-66.15,1.65));
#17 = DIRECTION('',(0.,-1.,1.110223024625E-16));
#18 = DIRECTION('',(1.,0.,0.));
#19 = AXIS2_PLACEMENT_3D('',#20,#21,#22);
#20 = CARTESIAN_POINT('',(100.,-66.15,1.65));
#21 = DIRECTION('',(0.,-1.,1.110223024625E-16));
#22 = DIRECTION('',(1.,0.,0.));
#23 = AXIS2_PLACEMENT_3D('',#24,#25,#26);
#24 = CARTESIAN_POINT('',(0.,0.,0.));
#25 = DIRECTION('',(0.,0.,1.));
#26 = DIRECTION('',(1.,0.,-0.));
#27 = ( GEOMETRIC_REPRESENTATION_CONTEXT(3) 
GLOBAL_UNCERTAINTY_ASSIGNED_CONTEXT((#31)) GLOBAL_UNIT_ASSIGNED_CONTEXT(
(#28,#29,#30)) REPRESENTATION_CONTEXT('Context #1',
  '3D Context with UNIT and UNCERTAINTY') );
#28 = ( LENGTH_UNIT() NAMED_UNIT(*) SI_UNIT(.MILLI.,.METRE.) );
#29 = ( NAMED_UNIT(*) PLANE_ANGLE_UNIT() SI_UNIT($,.RADIAN.) );
#30 = ( NAMED_UNIT(*) SI_UNIT($,.STERADIAN.) SOLID_ANGLE_UNIT() );
#31 = UNCERTAINTY_MEASURE_WITH_UNIT(LENGTH_MEASURE(1.E-07),#28,
  'distance_accuracy_value','confusion accuracy');
#32 = PRODUCT_RELATED_PRODUCT_CATEGORY('part',$,(#7));
#33 = SHAPE_DEFINITION_REPRESENTATION(#34,#40);
#34 = PRODUCT_DEFINITION_SHAPE('','',#35);
#35 = PRODUCT_DEFINITION('design','',#36,#39);
#36 = PRODUCT_DEFINITION_FORMATION('','',#37);
#37 = PRODUCT('BB0500100M-1002C-001','BB0500100M-1002C-001','',(#38));
#38 = PRODUCT_CONTEXT('',#2,'mechanical');
#39 = PRODUCT_DEFINITION_CONTEXT('part definition',#2,'design');
#40 = SHAPE_REPRESENTATION('',(#11,#41),#45);
#41 = AXIS2_PLACEMENT_3D('',#42,#43,#44);
#42 = CARTESIAN_POINT('',(0.,0.,0.));
#43 = DIRECTION('',(0.,0.,1.));
#44 = DIRECTION('',(1.,0.,-0.));
#45 = ( GEOMETRIC_REPRESENTATION_CONTEXT(3) 
GLOBAL_UNCERTAINTY_ASSIGNED_CONTEXT((#49)) GLOBAL_UNIT_ASSIGNED_CONTEXT(
(#46,#47,#48)) REPRESENTATION_CONTEXT('Context #1',
  '3D Context with UNIT and UNCERTAINTY') );
#46 = ( LENGTH_UNIT() NAMED_UNIT(*) SI_UNIT(.MILLI.,.METRE.) );
#47 = ( NAMED_UNIT(*) PLANE_ANGLE_UNIT() SI_UNIT($,.RADIAN.) );
#48 = ( NAMED_UNIT(*) SI_UNIT($,.STERADIAN.) SOLID_ANGLE_UNIT() );
#49 = UNCERTAINTY_MEASURE_WITH_UNIT(LENGTH_MEASURE(1.E-07),#46,
  'distance_accuracy_value','confusion accuracy');
#50 = CONTEXT_DEPENDENT_SHAPE_REPRESENTATION(#51,#53);
#51 = ( REPRESENTATION_RELATIONSHIP('','',#40,#10) 
REPRESENTATION_RELATIONSHIP_WITH_TRANSFORMATION(#52) 
SHAPE_REPRESENTATION_RELATIONSHIP() );
#52 = ITEM_DEFINED_TRANSFORMATION('','',#11,#15);
#53 = PRODUCT_DEFINITION_SHAPE('Placement','Placement of an item',#54);
#54 = NEXT_ASSEMBLY_USAGE_OCCURRENCE('2','J2','',#5,#35,$);
#55 = PRODUCT_RELATED_PRODUCT_CATEGORY('part',$,(#37));
#56 = SHAPE_DEFINITION_REPRESENTATION(#57,#63);
#57 = PRODUCT_DEFINITION_SHAPE('','',#58);
#58 = PRODUCT_DEFINITION('design','',#59,#62);
#59 = PRODUCT_DEFINITION_FORMATION('','',#60);
#60 = PRODUCT('BB0500100M-1002C-001','BB0500100M-1002C-001','',(#61));
#61 = PRODUCT_CONTEXT('',#2,'mechanical');
#62 = PRODUCT_DEFINITION_CONTEXT('part definition',#2,'design');
#63 = ADVANCED_BREP_SHAPE_REPRESENTATION('',(#11,#64),#658);
#64 = MANIFOLD_SOLID_BREP('',#65);
#65 = CLOSED_SHELL('',(#66,#106,#137,#168,#190,#202,#242,#282,#313,#344,
    #366,#378,#420,#446,#455,#497,#523,#532,#569,#612,#634,#646));
#66 = ADVANCED_FACE('',(#67),#101,.F.);
#67 = FACE_BOUND('',#68,.T.);
#68 = EDGE_LOOP('',(#69,#79,#87,#95));
#69 = ORIENTED_EDGE('',*,*,#70,.T.);
#70 = EDGE_CURVE('',#71,#73,#75,.T.);
#71 = VERTEX_POINT('',#72);
#72 = CARTESIAN_POINT('',(-1.45,1.,1.075));
#73 = VERTEX_POINT('',#74);
#74 = CARTESIAN_POINT('',(-1.45,1.,26.625));
#75 = LINE('',#76,#77);
#76 = CARTESIAN_POINT('',(-1.45,1.,13.3125));
#77 = VECTOR('',#78,1.);
#78 = DIRECTION('',(-6.517943393103E-17,-2.736911063134E-48,1.));
#79 = ORIENTED_EDGE('',*,*,#80,.T.);
#80 = EDGE_CURVE('',#73,#81,#83,.T.);
#81 = VERTEX_POINT('',#82);
#82 = CARTESIAN_POINT('',(-1.45,2.9,26.625));
#83 = LINE('',#84,#85);
#84 = CARTESIAN_POINT('',(-1.45,1.,26.625));
#85 = VECTOR('',#86,1.);
#86 = DIRECTION('',(1.460819769244E-17,1.,0.));
#87 = ORIENTED_EDGE('',*,*,#88,.T.);
#88 = EDGE_CURVE('',#81,#89,#91,.T.);
#89 = VERTEX_POINT('',#90);
#90 = CARTESIAN_POINT('',(-1.45,2.9,1.075));
#91 = LINE('',#92,#93);
#92 = CARTESIAN_POINT('',(-1.45,2.9,26.625));
#93 = VECTOR('',#94,1.);
#94 = DIRECTION('',(6.517943393103E-17,2.736911063134E-48,-1.));
#95 = ORIENTED_EDGE('',*,*,#96,.F.);
#96 = EDGE_CURVE('',#71,#89,#97,.T.);
#97 = LINE('',#98,#99);
#98 = CARTESIAN_POINT('',(-1.45,1.,1.075));
#99 = VECTOR('',#100,1.);
#100 = DIRECTION('',(1.460819769244E-17,1.,0.));
#101 = PLANE('',#102);
#102 = AXIS2_PLACEMENT_3D('',#103,#104,#105);
#103 = CARTESIAN_POINT('',(-1.45,1.,26.625));
#104 = DIRECTION('',(1.,-1.460819769244E-17,6.517943393103E-17));
#105 = DIRECTION('',(6.517943393103E-17,2.736911063134E-48,-1.));
#106 = ADVANCED_FACE('',(#107),#132,.F.);
#107 = FACE_BOUND('',#108,.T.);
#108 = EDGE_LOOP('',(#109,#117,#125,#131));
#109 = ORIENTED_EDGE('',*,*,#110,.T.);
#110 = EDGE_CURVE('',#73,#111,#113,.T.);
#111 = VERTEX_POINT('',#112);
#112 = CARTESIAN_POINT('',(-0.45,1.,26.625));
#113 = LINE('',#114,#115);
#114 = CARTESIAN_POINT('',(-1.225,1.,26.625));
#115 = VECTOR('',#116,1.);
#116 = DIRECTION('',(1.,4.930380657631E-32,0.));
#117 = ORIENTED_EDGE('',*,*,#118,.T.);
#118 = EDGE_CURVE('',#111,#119,#121,.T.);
#119 = VERTEX_POINT('',#120);
#120 = CARTESIAN_POINT('',(-0.45,2.9,26.625));
#121 = LINE('',#122,#123);
#122 = CARTESIAN_POINT('',(-0.45,1.,26.625));
#123 = VECTOR('',#124,1.);
#124 = DIRECTION('',(1.460819769244E-17,1.,0.));
#125 = ORIENTED_EDGE('',*,*,#126,.T.);
#126 = EDGE_CURVE('',#119,#81,#127,.T.);
#127 = LINE('',#128,#129);
#128 = CARTESIAN_POINT('',(-0.45,2.9,26.625));
#129 = VECTOR('',#130,1.);
#130 = DIRECTION('',(-1.,-4.930380657631E-32,0.));
#131 = ORIENTED_EDGE('',*,*,#80,.F.);
#132 = PLANE('',#133);
#133 = AXIS2_PLACEMENT_3D('',#134,#135,#136);
#134 = CARTESIAN_POINT('',(-0.45,1.,26.625));
#135 = DIRECTION('',(0.,0.,-1.));
#136 = DIRECTION('',(-1.,-4.930380657631E-32,-0.));
#137 = ADVANCED_FACE('',(#138),#163,.F.);
#138 = FACE_BOUND('',#139,.T.);
#139 = EDGE_LOOP('',(#140,#148,#156,#162));
#140 = ORIENTED_EDGE('',*,*,#141,.T.);
#141 = EDGE_CURVE('',#111,#142,#144,.T.);
#142 = VERTEX_POINT('',#143);
#143 = CARTESIAN_POINT('',(-0.45,1.,1.075));
#144 = LINE('',#145,#146);
#145 = CARTESIAN_POINT('',(-0.45,1.,0.5375));
#146 = VECTOR('',#147,1.);
#147 = DIRECTION('',(-5.974781443677E-17,-5.473822126269E-48,-1.));
#148 = ORIENTED_EDGE('',*,*,#149,.T.);
#149 = EDGE_CURVE('',#142,#150,#152,.T.);
#150 = VERTEX_POINT('',#151);
#151 = CARTESIAN_POINT('',(-0.45,2.9,1.075));
#152 = LINE('',#153,#154);
#153 = CARTESIAN_POINT('',(-0.45,1.,1.075));
#154 = VECTOR('',#155,1.);
#155 = DIRECTION('',(1.460819769244E-17,1.,0.));
#156 = ORIENTED_EDGE('',*,*,#157,.T.);
#157 = EDGE_CURVE('',#150,#119,#158,.T.);
#158 = LINE('',#159,#160);
#159 = CARTESIAN_POINT('',(-0.45,2.9,1.075));
#160 = VECTOR('',#161,1.);
#161 = DIRECTION('',(5.974781443677E-17,5.473822126269E-48,1.));
#162 = ORIENTED_EDGE('',*,*,#118,.F.);
#163 = PLANE('',#164);
#164 = AXIS2_PLACEMENT_3D('',#165,#166,#167);
#165 = CARTESIAN_POINT('',(-0.45,1.,1.075));
#166 = DIRECTION('',(-1.,1.460819769244E-17,5.974781443677E-17));
#167 = DIRECTION('',(5.974781443677E-17,5.473822126269E-48,1.));
#168 = ADVANCED_FACE('',(#169),#185,.F.);
#169 = FACE_BOUND('',#170,.T.);
#170 = EDGE_LOOP('',(#171,#177,#178,#184));
#171 = ORIENTED_EDGE('',*,*,#172,.T.);
#172 = EDGE_CURVE('',#142,#71,#173,.T.);
#173 = LINE('',#174,#175);
#174 = CARTESIAN_POINT('',(-1.725,1.,1.075));
#175 = VECTOR('',#176,1.);
#176 = DIRECTION('',(-1.,-4.930380657631E-32,-1.387778780781E-16));
#177 = ORIENTED_EDGE('',*,*,#96,.T.);
#178 = ORIENTED_EDGE('',*,*,#179,.T.);
#179 = EDGE_CURVE('',#89,#150,#180,.T.);
#180 = LINE('',#181,#182);
#181 = CARTESIAN_POINT('',(-1.45,2.9,1.075));
#182 = VECTOR('',#183,1.);
#183 = DIRECTION('',(1.,4.930380657631E-32,1.387778780781E-16));
#184 = ORIENTED_EDGE('',*,*,#149,.F.);
#185 = PLANE('',#186);
#186 = AXIS2_PLACEMENT_3D('',#187,#188,#189);
#187 = CARTESIAN_POINT('',(-1.45,1.,1.075));
#188 = DIRECTION('',(-1.387778780781E-16,2.027294678302E-33,1.));
#189 = DIRECTION('',(1.,4.930380657631E-32,1.387778780781E-16));
#190 = ADVANCED_FACE('',(#191),#197,.F.);
#191 = FACE_BOUND('',#192,.T.);
#192 = EDGE_LOOP('',(#193,#194,#195,#196));
#193 = ORIENTED_EDGE('',*,*,#179,.F.);
#194 = ORIENTED_EDGE('',*,*,#88,.F.);
#195 = ORIENTED_EDGE('',*,*,#126,.F.);
#196 = ORIENTED_EDGE('',*,*,#157,.F.);
#197 = PLANE('',#198);
#198 = AXIS2_PLACEMENT_3D('',#199,#200,#201);
#199 = CARTESIAN_POINT('',(-0.95,2.9,13.85));
#200 = DIRECTION('',(-1.460819769244E-17,-1.,0.));
#201 = DIRECTION('',(0.,0.,1.));
#202 = ADVANCED_FACE('',(#203),#237,.F.);
#203 = FACE_BOUND('',#204,.T.);
#204 = EDGE_LOOP('',(#205,#215,#223,#231));
#205 = ORIENTED_EDGE('',*,*,#206,.F.);
#206 = EDGE_CURVE('',#207,#209,#211,.T.);
#207 = VERTEX_POINT('',#208);
#208 = CARTESIAN_POINT('',(-2.,-5.551115123126E-16,0.));
#209 = VERTEX_POINT('',#210);
#210 = CARTESIAN_POINT('',(-2.,1.,0.));
#211 = LINE('',#212,#213);
#212 = CARTESIAN_POINT('',(-2.,-5.551115123126E-16,0.));
#213 = VECTOR('',#214,1.);
#214 = DIRECTION('',(-2.775557561563E-16,1.,0.));
#215 = ORIENTED_EDGE('',*,*,#216,.T.);
#216 = EDGE_CURVE('',#207,#217,#219,.T.);
#217 = VERTEX_POINT('',#218);
#218 = CARTESIAN_POINT('',(-2.,-5.551115123126E-16,27.7));
#219 = LINE('',#220,#221);
#220 = CARTESIAN_POINT('',(-2.,-5.551115123126E-16,0.));
#221 = VECTOR('',#222,1.);
#222 = DIRECTION('',(0.,0.,1.));
#223 = ORIENTED_EDGE('',*,*,#224,.T.);
#224 = EDGE_CURVE('',#217,#225,#227,.T.);
#225 = VERTEX_POINT('',#226);
#226 = CARTESIAN_POINT('',(-2.,1.,27.7));
#227 = LINE('',#228,#229);
#228 = CARTESIAN_POINT('',(-2.,-5.551115123126E-16,27.7));
#229 = VECTOR('',#230,1.);
#230 = DIRECTION('',(-2.775557561563E-16,1.,0.));
#231 = ORIENTED_EDGE('',*,*,#232,.F.);
#232 = EDGE_CURVE('',#209,#225,#233,.T.);
#233 = LINE('',#234,#235);
#234 = CARTESIAN_POINT('',(-2.,1.,0.));
#235 = VECTOR('',#236,1.);
#236 = DIRECTION('',(0.,0.,1.));
#237 = PLANE('',#238);
#238 = AXIS2_PLACEMENT_3D('',#239,#240,#241);
#239 = CARTESIAN_POINT('',(-2.,-5.551115123126E-16,0.));
#240 = DIRECTION('',(1.,2.775557561563E-16,0.));
#241 = DIRECTION('',(-2.775557561563E-16,1.,0.));
#242 = ADVANCED_FACE('',(#243),#277,.T.);
#243 = FACE_BOUND('',#244,.T.);
#244 = EDGE_LOOP('',(#245,#255,#263,#271));
#245 = ORIENTED_EDGE('',*,*,#246,.F.);
#246 = EDGE_CURVE('',#247,#249,#251,.T.);
#247 = VERTEX_POINT('',#248);
#248 = CARTESIAN_POINT('',(1.45,1.,1.075));
#249 = VERTEX_POINT('',#250);
#250 = CARTESIAN_POINT('',(1.45,1.,26.625));
#251 = LINE('',#252,#253);
#252 = CARTESIAN_POINT('',(1.45,1.,13.3125));
#253 = VECTOR('',#254,1.);
#254 = DIRECTION('',(6.517943393103E-17,1.809092707057E-32,1.));
#255 = ORIENTED_EDGE('',*,*,#256,.T.);
#256 = EDGE_CURVE('',#247,#257,#259,.T.);
#257 = VERTEX_POINT('',#258);
#258 = CARTESIAN_POINT('',(1.45,2.9,1.075));
#259 = LINE('',#260,#261);
#260 = CARTESIAN_POINT('',(1.45,1.,1.075));
#261 = VECTOR('',#262,1.);
#262 = DIRECTION('',(-2.921639538487E-16,1.,0.));
#263 = ORIENTED_EDGE('',*,*,#264,.F.);
#264 = EDGE_CURVE('',#265,#257,#267,.T.);
#265 = VERTEX_POINT('',#266);
#266 = CARTESIAN_POINT('',(1.45,2.9,26.625));
#267 = LINE('',#268,#269);
#268 = CARTESIAN_POINT('',(1.45,2.9,26.625));
#269 = VECTOR('',#270,1.);
#270 = DIRECTION('',(-6.517943393103E-17,-1.809092707057E-32,-1.));
#271 = ORIENTED_EDGE('',*,*,#272,.F.);
#272 = EDGE_CURVE('',#249,#265,#273,.T.);
#273 = LINE('',#274,#275);
#274 = CARTESIAN_POINT('',(1.45,1.,26.625));
#275 = VECTOR('',#276,1.);
#276 = DIRECTION('',(-2.921639538487E-16,1.,0.));
#277 = PLANE('',#278);
#278 = AXIS2_PLACEMENT_3D('',#279,#280,#281);
#279 = CARTESIAN_POINT('',(1.45,1.,26.625));
#280 = DIRECTION('',(1.,2.921639538487E-16,-6.517943393103E-17));
#281 = DIRECTION('',(-6.517943393103E-17,-1.809092707057E-32,-1.));
#282 = ADVANCED_FACE('',(#283),#308,.T.);
#283 = FACE_BOUND('',#284,.T.);
#284 = EDGE_LOOP('',(#285,#293,#294,#302));
#285 = ORIENTED_EDGE('',*,*,#286,.F.);
#286 = EDGE_CURVE('',#249,#287,#289,.T.);
#287 = VERTEX_POINT('',#288);
#288 = CARTESIAN_POINT('',(0.45,1.,26.625));
#289 = LINE('',#290,#291);
#290 = CARTESIAN_POINT('',(1.225,1.,26.625));
#291 = VECTOR('',#292,1.);
#292 = DIRECTION('',(-1.,-2.775557561563E-16,0.));
#293 = ORIENTED_EDGE('',*,*,#272,.T.);
#294 = ORIENTED_EDGE('',*,*,#295,.F.);
#295 = EDGE_CURVE('',#296,#265,#298,.T.);
#296 = VERTEX_POINT('',#297);
#297 = CARTESIAN_POINT('',(0.45,2.9,26.625));
#298 = LINE('',#299,#300);
#299 = CARTESIAN_POINT('',(0.45,2.9,26.625));
#300 = VECTOR('',#301,1.);
#301 = DIRECTION('',(1.,2.775557561563E-16,0.));
#302 = ORIENTED_EDGE('',*,*,#303,.F.);
#303 = EDGE_CURVE('',#287,#296,#304,.T.);
#304 = LINE('',#305,#306);
#305 = CARTESIAN_POINT('',(0.45,1.,26.625));
#306 = VECTOR('',#307,1.);
#307 = DIRECTION('',(-2.921639538487E-16,1.,0.));
#308 = PLANE('',#309);
#309 = AXIS2_PLACEMENT_3D('',#310,#311,#312);
#310 = CARTESIAN_POINT('',(0.45,1.,26.625));
#311 = DIRECTION('',(0.,0.,1.));
#312 = DIRECTION('',(1.,2.775557561563E-16,-0.));
#313 = ADVANCED_FACE('',(#314),#339,.T.);
#314 = FACE_BOUND('',#315,.T.);
#315 = EDGE_LOOP('',(#316,#324,#325,#333));
#316 = ORIENTED_EDGE('',*,*,#317,.F.);
#317 = EDGE_CURVE('',#287,#318,#320,.T.);
#318 = VERTEX_POINT('',#319);
#319 = CARTESIAN_POINT('',(0.45,1.,1.075));
#320 = LINE('',#321,#322);
#321 = CARTESIAN_POINT('',(0.45,1.,0.5375));
#322 = VECTOR('',#323,1.);
#323 = DIRECTION('',(5.974781443677E-17,1.658334981468E-32,-1.));
#324 = ORIENTED_EDGE('',*,*,#303,.T.);
#325 = ORIENTED_EDGE('',*,*,#326,.F.);
#326 = EDGE_CURVE('',#327,#296,#329,.T.);
#327 = VERTEX_POINT('',#328);
#328 = CARTESIAN_POINT('',(0.45,2.9,1.075));
#329 = LINE('',#330,#331);
#330 = CARTESIAN_POINT('',(0.45,2.9,1.075));
#331 = VECTOR('',#332,1.);
#332 = DIRECTION('',(-5.974781443677E-17,-1.658334981468E-32,1.));
#333 = ORIENTED_EDGE('',*,*,#334,.F.);
#334 = EDGE_CURVE('',#318,#327,#335,.T.);
#335 = LINE('',#336,#337);
#336 = CARTESIAN_POINT('',(0.45,1.,1.075));
#337 = VECTOR('',#338,1.);
#338 = DIRECTION('',(-2.921639538487E-16,1.,0.));
#339 = PLANE('',#340);
#340 = AXIS2_PLACEMENT_3D('',#341,#342,#343);
#341 = CARTESIAN_POINT('',(0.45,1.,1.075));
#342 = DIRECTION('',(-1.,-2.921639538487E-16,-5.974781443677E-17));
#343 = DIRECTION('',(-5.974781443677E-17,-1.658334981468E-32,1.));
#344 = ADVANCED_FACE('',(#345),#361,.T.);
#345 = FACE_BOUND('',#346,.T.);
#346 = EDGE_LOOP('',(#347,#353,#354,#360));
#347 = ORIENTED_EDGE('',*,*,#348,.F.);
#348 = EDGE_CURVE('',#318,#247,#349,.T.);
#349 = LINE('',#350,#351);
#350 = CARTESIAN_POINT('',(1.725,1.,1.075));
#351 = VECTOR('',#352,1.);
#352 = DIRECTION('',(1.,2.775557561563E-16,-1.387778780781E-16));
#353 = ORIENTED_EDGE('',*,*,#334,.T.);
#354 = ORIENTED_EDGE('',*,*,#355,.F.);
#355 = EDGE_CURVE('',#257,#327,#356,.T.);
#356 = LINE('',#357,#358);
#357 = CARTESIAN_POINT('',(1.45,2.9,1.075));
#358 = VECTOR('',#359,1.);
#359 = DIRECTION('',(-1.,-2.775557561563E-16,1.387778780781E-16));
#360 = ORIENTED_EDGE('',*,*,#256,.F.);
#361 = PLANE('',#362);
#362 = AXIS2_PLACEMENT_3D('',#363,#364,#365);
#363 = CARTESIAN_POINT('',(1.45,1.,1.075));
#364 = DIRECTION('',(-1.387778780781E-16,-4.054589356605E-32,-1.));
#365 = DIRECTION('',(-1.,-2.775557561563E-16,1.387778780781E-16));
#366 = ADVANCED_FACE('',(#367),#373,.T.);
#367 = FACE_BOUND('',#368,.T.);
#368 = EDGE_LOOP('',(#369,#370,#371,#372));
#369 = ORIENTED_EDGE('',*,*,#355,.T.);
#370 = ORIENTED_EDGE('',*,*,#326,.T.);
#371 = ORIENTED_EDGE('',*,*,#295,.T.);
#372 = ORIENTED_EDGE('',*,*,#264,.T.);
#373 = PLANE('',#374);
#374 = AXIS2_PLACEMENT_3D('',#375,#376,#377);
#375 = CARTESIAN_POINT('',(0.95,2.9,13.85));
#376 = DIRECTION('',(-2.921639538487E-16,1.,0.));
#377 = DIRECTION('',(0.,0.,1.));
#378 = ADVANCED_FACE('',(#379),#415,.T.);
#379 = FACE_BOUND('',#380,.T.);
#380 = EDGE_LOOP('',(#381,#390,#398,#407,#414));
#381 = ORIENTED_EDGE('',*,*,#382,.T.);
#382 = EDGE_CURVE('',#383,#383,#385,.T.);
#383 = VERTEX_POINT('',#384);
#384 = CARTESIAN_POINT('',(1.425,-0.6,27.05));
#385 = CIRCLE('',#386,0.175);
#386 = AXIS2_PLACEMENT_3D('',#387,#388,#389);
#387 = CARTESIAN_POINT('',(1.25,-0.6,27.05));
#388 = DIRECTION('',(0.,1.,0.));
#389 = DIRECTION('',(-1.,0.,0.));
#390 = ORIENTED_EDGE('',*,*,#391,.T.);
#391 = EDGE_CURVE('',#383,#392,#394,.T.);
#392 = VERTEX_POINT('',#393);
#393 = CARTESIAN_POINT('',(1.525,-0.5,27.05));
#394 = LINE('',#395,#396);
#395 = CARTESIAN_POINT('',(1.475,-0.55,27.05));
#396 = VECTOR('',#397,1.);
#397 = DIRECTION('',(0.707106781187,0.707106781187,8.659560562355E-17));
#398 = ORIENTED_EDGE('',*,*,#399,.T.);
#399 = EDGE_CURVE('',#392,#400,#402,.T.);
#400 = VERTEX_POINT('',#401);
#401 = CARTESIAN_POINT('',(0.975,-0.5,27.05));
#402 = CIRCLE('',#403,0.275);
#403 = AXIS2_PLACEMENT_3D('',#404,#405,#406);
#404 = CARTESIAN_POINT('',(1.25,-0.5,27.05));
#405 = DIRECTION('',(0.,-1.,0.));
#406 = DIRECTION('',(-1.,0.,0.));
#407 = ORIENTED_EDGE('',*,*,#408,.T.);
#408 = EDGE_CURVE('',#400,#392,#409,.T.);
#409 = CIRCLE('',#410,0.275);
#410 = AXIS2_PLACEMENT_3D('',#411,#412,#413);
#411 = CARTESIAN_POINT('',(1.25,-0.5,27.05));
#412 = DIRECTION('',(0.,-1.,0.));
#413 = DIRECTION('',(-1.,0.,0.));
#414 = ORIENTED_EDGE('',*,*,#391,.F.);
#415 = CONICAL_SURFACE('',#416,0.225,0.785398163397);
#416 = AXIS2_PLACEMENT_3D('',#417,#418,#419);
#417 = CARTESIAN_POINT('',(1.25,-0.55,27.05));
#418 = DIRECTION('',(0.,1.,0.));
#419 = DIRECTION('',(-1.,0.,0.));
#420 = ADVANCED_FACE('',(#421),#441,.T.);
#421 = FACE_BOUND('',#422,.T.);
#422 = EDGE_LOOP('',(#423,#424,#425,#433,#440));
#423 = ORIENTED_EDGE('',*,*,#399,.F.);
#424 = ORIENTED_EDGE('',*,*,#408,.F.);
#425 = ORIENTED_EDGE('',*,*,#426,.T.);
#426 = EDGE_CURVE('',#400,#427,#429,.T.);
#427 = VERTEX_POINT('',#428);
#428 = CARTESIAN_POINT('',(0.975,0.,27.05));
#429 = LINE('',#430,#431);
#430 = CARTESIAN_POINT('',(0.975,0.,27.05));
#431 = VECTOR('',#432,1.);
#432 = DIRECTION('',(0.,1.,0.));
#433 = ORIENTED_EDGE('',*,*,#434,.F.);
#434 = EDGE_CURVE('',#427,#427,#435,.T.);
#435 = CIRCLE('',#436,0.275);
#436 = AXIS2_PLACEMENT_3D('',#437,#438,#439);
#437 = CARTESIAN_POINT('',(1.25,0.,27.05));
#438 = DIRECTION('',(-0.,1.,0.));
#439 = DIRECTION('',(1.,0.,0.));
#440 = ORIENTED_EDGE('',*,*,#426,.F.);
#441 = CYLINDRICAL_SURFACE('',#442,0.275);
#442 = AXIS2_PLACEMENT_3D('',#443,#444,#445);
#443 = CARTESIAN_POINT('',(1.25,0.,27.05));
#444 = DIRECTION('',(0.,-1.,0.));
#445 = DIRECTION('',(1.,0.,0.));
#446 = ADVANCED_FACE('',(#447),#450,.T.);
#447 = FACE_BOUND('',#448,.T.);
#448 = EDGE_LOOP('',(#449));
#449 = ORIENTED_EDGE('',*,*,#382,.F.);
#450 = PLANE('',#451);
#451 = AXIS2_PLACEMENT_3D('',#452,#453,#454);
#452 = CARTESIAN_POINT('',(1.25,-0.6,27.05));
#453 = DIRECTION('',(0.,-1.,0.));
#454 = DIRECTION('',(0.,0.,-1.));
#455 = ADVANCED_FACE('',(#456),#492,.T.);
#456 = FACE_BOUND('',#457,.T.);
#457 = EDGE_LOOP('',(#458,#467,#475,#484,#491));
#458 = ORIENTED_EDGE('',*,*,#459,.T.);
#459 = EDGE_CURVE('',#460,#460,#462,.T.);
#460 = VERTEX_POINT('',#461);
#461 = CARTESIAN_POINT('',(1.425,-0.6,0.65));
#462 = CIRCLE('',#463,0.175);
#463 = AXIS2_PLACEMENT_3D('',#464,#465,#466);
#464 = CARTESIAN_POINT('',(1.25,-0.6,0.65));
#465 = DIRECTION('',(0.,1.,0.));
#466 = DIRECTION('',(-1.,0.,0.));
#467 = ORIENTED_EDGE('',*,*,#468,.T.);
#468 = EDGE_CURVE('',#460,#469,#471,.T.);
#469 = VERTEX_POINT('',#470);
#470 = CARTESIAN_POINT('',(1.525,-0.5,0.65));
#471 = LINE('',#472,#473);
#472 = CARTESIAN_POINT('',(1.475,-0.55,0.65));
#473 = VECTOR('',#474,1.);
#474 = DIRECTION('',(0.707106781187,0.707106781187,8.659560562355E-17));
#475 = ORIENTED_EDGE('',*,*,#476,.T.);
#476 = EDGE_CURVE('',#469,#477,#479,.T.);
#477 = VERTEX_POINT('',#478);
#478 = CARTESIAN_POINT('',(0.975,-0.5,0.65));
#479 = CIRCLE('',#480,0.275);
#480 = AXIS2_PLACEMENT_3D('',#481,#482,#483);
#481 = CARTESIAN_POINT('',(1.25,-0.5,0.65));
#482 = DIRECTION('',(0.,-1.,0.));
#483 = DIRECTION('',(-1.,0.,0.));
#484 = ORIENTED_EDGE('',*,*,#485,.T.);
#485 = EDGE_CURVE('',#477,#469,#486,.T.);
#486 = CIRCLE('',#487,0.275);
#487 = AXIS2_PLACEMENT_3D('',#488,#489,#490);
#488 = CARTESIAN_POINT('',(1.25,-0.5,0.65));
#489 = DIRECTION('',(0.,-1.,0.));
#490 = DIRECTION('',(-1.,0.,0.));
#491 = ORIENTED_EDGE('',*,*,#468,.F.);
#492 = CONICAL_SURFACE('',#493,0.225,0.785398163397);
#493 = AXIS2_PLACEMENT_3D('',#494,#495,#496);
#494 = CARTESIAN_POINT('',(1.25,-0.55,0.65));
#495 = DIRECTION('',(0.,1.,0.));
#496 = DIRECTION('',(-1.,0.,0.));
#497 = ADVANCED_FACE('',(#498),#518,.T.);
#498 = FACE_BOUND('',#499,.T.);
#499 = EDGE_LOOP('',(#500,#501,#502,#510,#517));
#500 = ORIENTED_EDGE('',*,*,#476,.F.);
#501 = ORIENTED_EDGE('',*,*,#485,.F.);
#502 = ORIENTED_EDGE('',*,*,#503,.T.);
#503 = EDGE_CURVE('',#477,#504,#506,.T.);
#504 = VERTEX_POINT('',#505);
#505 = CARTESIAN_POINT('',(0.975,0.,0.65));
#506 = LINE('',#507,#508);
#507 = CARTESIAN_POINT('',(0.975,0.,0.65));
#508 = VECTOR('',#509,1.);
#509 = DIRECTION('',(0.,1.,0.));
#510 = ORIENTED_EDGE('',*,*,#511,.F.);
#511 = EDGE_CURVE('',#504,#504,#512,.T.);
#512 = CIRCLE('',#513,0.275);
#513 = AXIS2_PLACEMENT_3D('',#514,#515,#516);
#514 = CARTESIAN_POINT('',(1.25,0.,0.65));
#515 = DIRECTION('',(-0.,1.,0.));
#516 = DIRECTION('',(1.,0.,0.));
#517 = ORIENTED_EDGE('',*,*,#503,.F.);
#518 = CYLINDRICAL_SURFACE('',#519,0.275);
#519 = AXIS2_PLACEMENT_3D('',#520,#521,#522);
#520 = CARTESIAN_POINT('',(1.25,0.,0.65));
#521 = DIRECTION('',(0.,-1.,0.));
#522 = DIRECTION('',(1.,0.,0.));
#523 = ADVANCED_FACE('',(#524),#527,.T.);
#524 = FACE_BOUND('',#525,.T.);
#525 = EDGE_LOOP('',(#526));
#526 = ORIENTED_EDGE('',*,*,#459,.F.);
#527 = PLANE('',#528);
#528 = AXIS2_PLACEMENT_3D('',#529,#530,#531);
#529 = CARTESIAN_POINT('',(1.25,-0.6,0.65));
#530 = DIRECTION('',(0.,-1.,0.));
#531 = DIRECTION('',(0.,0.,-1.));
#532 = ADVANCED_FACE('',(#533,#558,#561),#564,.T.);
#533 = FACE_BOUND('',#534,.T.);
#534 = EDGE_LOOP('',(#535,#543,#551,#557));
#535 = ORIENTED_EDGE('',*,*,#536,.F.);
#536 = EDGE_CURVE('',#537,#207,#539,.T.);
#537 = VERTEX_POINT('',#538);
#538 = CARTESIAN_POINT('',(2.,0.,0.));
#539 = LINE('',#540,#541);
#540 = CARTESIAN_POINT('',(0.,0.,0.));
#541 = VECTOR('',#542,1.);
#542 = DIRECTION('',(-1.,-2.775557561563E-16,0.));
#543 = ORIENTED_EDGE('',*,*,#544,.T.);
#544 = EDGE_CURVE('',#537,#545,#547,.T.);
#545 = VERTEX_POINT('',#546);
#546 = CARTESIAN_POINT('',(2.,0.,27.7));
#547 = LINE('',#548,#549);
#548 = CARTESIAN_POINT('',(2.,0.,0.));
#549 = VECTOR('',#550,1.);
#550 = DIRECTION('',(0.,0.,1.));
#551 = ORIENTED_EDGE('',*,*,#552,.T.);
#552 = EDGE_CURVE('',#545,#217,#553,.T.);
#553 = LINE('',#554,#555);
#554 = CARTESIAN_POINT('',(0.,0.,27.7));
#555 = VECTOR('',#556,1.);
#556 = DIRECTION('',(-1.,-2.775557561563E-16,0.));
#557 = ORIENTED_EDGE('',*,*,#216,.F.);
#558 = FACE_BOUND('',#559,.T.);
#559 = EDGE_LOOP('',(#560));
#560 = ORIENTED_EDGE('',*,*,#511,.T.);
#561 = FACE_BOUND('',#562,.T.);
#562 = EDGE_LOOP('',(#563));
#563 = ORIENTED_EDGE('',*,*,#434,.T.);
#564 = PLANE('',#565);
#565 = AXIS2_PLACEMENT_3D('',#566,#567,#568);
#566 = CARTESIAN_POINT('',(0.,0.,0.));
#567 = DIRECTION('',(0.,-1.,0.));
#568 = DIRECTION('',(1.,0.,0.));
#569 = ADVANCED_FACE('',(#570,#595,#601),#607,.T.);
#570 = FACE_BOUND('',#571,.T.);
#571 = EDGE_LOOP('',(#572,#580,#581,#589));
#572 = ORIENTED_EDGE('',*,*,#573,.T.);
#573 = EDGE_CURVE('',#574,#209,#576,.T.);
#574 = VERTEX_POINT('',#575);
#575 = CARTESIAN_POINT('',(2.,1.,0.));
#576 = LINE('',#577,#578);
#577 = CARTESIAN_POINT('',(2.,1.,0.));
#578 = VECTOR('',#579,1.);
#579 = DIRECTION('',(-1.,-2.775557561563E-16,0.));
#580 = ORIENTED_EDGE('',*,*,#232,.T.);
#581 = ORIENTED_EDGE('',*,*,#582,.F.);
#582 = EDGE_CURVE('',#583,#225,#585,.T.);
#583 = VERTEX_POINT('',#584);
#584 = CARTESIAN_POINT('',(2.,1.,27.7));
#585 = LINE('',#586,#587);
#586 = CARTESIAN_POINT('',(2.,1.,27.7));
#587 = VECTOR('',#588,1.);
#588 = DIRECTION('',(-1.,-2.775557561563E-16,0.));
#589 = ORIENTED_EDGE('',*,*,#590,.F.);
#590 = EDGE_CURVE('',#574,#583,#591,.T.);
#591 = LINE('',#592,#593);
#592 = CARTESIAN_POINT('',(2.,1.,0.));
#593 = VECTOR('',#594,1.);
#594 = DIRECTION('',(0.,0.,1.));
#595 = FACE_BOUND('',#596,.T.);
#596 = EDGE_LOOP('',(#597,#598,#599,#600));
#597 = ORIENTED_EDGE('',*,*,#70,.F.);
#598 = ORIENTED_EDGE('',*,*,#172,.F.);
#599 = ORIENTED_EDGE('',*,*,#141,.F.);
#600 = ORIENTED_EDGE('',*,*,#110,.F.);
#601 = FACE_BOUND('',#602,.T.);
#602 = EDGE_LOOP('',(#603,#604,#605,#606));
#603 = ORIENTED_EDGE('',*,*,#246,.T.);
#604 = ORIENTED_EDGE('',*,*,#286,.T.);
#605 = ORIENTED_EDGE('',*,*,#317,.T.);
#606 = ORIENTED_EDGE('',*,*,#348,.T.);
#607 = PLANE('',#608);
#608 = AXIS2_PLACEMENT_3D('',#609,#610,#611);
#609 = CARTESIAN_POINT('',(2.,1.,0.));
#610 = DIRECTION('',(-2.775557561563E-16,1.,0.));
#611 = DIRECTION('',(-1.,-2.775557561563E-16,0.));
#612 = ADVANCED_FACE('',(#613),#629,.T.);
#613 = FACE_BOUND('',#614,.T.);
#614 = EDGE_LOOP('',(#615,#621,#622,#628));
#615 = ORIENTED_EDGE('',*,*,#616,.T.);
#616 = EDGE_CURVE('',#537,#574,#617,.T.);
#617 = LINE('',#618,#619);
#618 = CARTESIAN_POINT('',(2.,0.,0.));
#619 = VECTOR('',#620,1.);
#620 = DIRECTION('',(0.,1.,0.));
#621 = ORIENTED_EDGE('',*,*,#590,.T.);
#622 = ORIENTED_EDGE('',*,*,#623,.F.);
#623 = EDGE_CURVE('',#545,#583,#624,.T.);
#624 = LINE('',#625,#626);
#625 = CARTESIAN_POINT('',(2.,0.,27.7));
#626 = VECTOR('',#627,1.);
#627 = DIRECTION('',(0.,1.,0.));
#628 = ORIENTED_EDGE('',*,*,#544,.F.);
#629 = PLANE('',#630);
#630 = AXIS2_PLACEMENT_3D('',#631,#632,#633);
#631 = CARTESIAN_POINT('',(2.,0.,0.));
#632 = DIRECTION('',(1.,0.,0.));
#633 = DIRECTION('',(-0.,1.,0.));
#634 = ADVANCED_FACE('',(#635),#641,.T.);
#635 = FACE_BOUND('',#636,.T.);
#636 = EDGE_LOOP('',(#637,#638,#639,#640));
#637 = ORIENTED_EDGE('',*,*,#623,.T.);
#638 = ORIENTED_EDGE('',*,*,#582,.T.);
#639 = ORIENTED_EDGE('',*,*,#224,.F.);
#640 = ORIENTED_EDGE('',*,*,#552,.F.);
#641 = PLANE('',#642);
#642 = AXIS2_PLACEMENT_3D('',#643,#644,#645);
#643 = CARTESIAN_POINT('',(1.,0.5,27.7));
#644 = DIRECTION('',(0.,0.,1.));
#645 = DIRECTION('',(1.,0.,-0.));
#646 = ADVANCED_FACE('',(#647),#653,.F.);
#647 = FACE_BOUND('',#648,.T.);
#648 = EDGE_LOOP('',(#649,#650,#651,#652));
#649 = ORIENTED_EDGE('',*,*,#616,.F.);
#650 = ORIENTED_EDGE('',*,*,#536,.T.);
#651 = ORIENTED_EDGE('',*,*,#206,.T.);
#652 = ORIENTED_EDGE('',*,*,#573,.F.);
#653 = PLANE('',#654);
#654 = AXIS2_PLACEMENT_3D('',#655,#656,#657);
#655 = CARTESIAN_POINT('',(1.,0.5,0.));
#656 = DIRECTION('',(0.,0.,1.));
#657 = DIRECTION('',(1.,0.,-0.));
#658 = ( GEOMETRIC_REPRESENTATION_CONTEXT(3) 
GLOBAL_UNCERTAINTY_ASSIGNED_CONTEXT((#662)) GLOBAL_UNIT_ASSIGNED_CONTEXT
((#659,#660,#661)) REPRESENTATION_CONTEXT('Context #1',
  '3D Context with UNIT and UNCERTAINTY') );
#659 = ( LENGTH_UNIT() NAMED_UNIT(*) SI_UNIT(.MILLI.,.METRE.) );
#660 = ( NAMED_UNIT(*) PLANE_ANGLE_UNIT() SI_UNIT($,.RADIAN.) );
#661 = ( NAMED_UNIT(*) SI_UNIT($,.STERADIAN.) SOLID_ANGLE_UNIT() );
#662 = UNCERTAINTY_MEASURE_WITH_UNIT(LENGTH_MEASURE(1.E-07),#659,
  'distance_accuracy_value','confusion accuracy');
#663 = CONTEXT_DEPENDENT_SHAPE_REPRESENTATION(#664,#666);
#664 = ( REPRESENTATION_RELATIONSHIP('','',#63,#40) 
REPRESENTATION_RELATIONSHIP_WITH_TRANSFORMATION(#665) 
SHAPE_REPRESENTATION_RELATIONSHIP() );
#665 = ITEM_DEFINED_TRANSFORMATION('','',#11,#41);
#666 = PRODUCT_DEFINITION_SHAPE('Placement','Placement of an item',#667
  );
#667 = NEXT_ASSEMBLY_USAGE_OCCURRENCE('1','=>[0:1:1:3]','',#35,#58,$);
#668 = PRODUCT_RELATED_PRODUCT_CATEGORY('part',$,(#60));
#669 = CONTEXT_DEPENDENT_SHAPE_REPRESENTATION(#670,#672);
#670 = ( REPRESENTATION_RELATIONSHIP('','',#40,#10) 
REPRESENTATION_RELATIONSHIP_WITH_TRANSFORMATION(#671) 
SHAPE_REPRESENTATION_RELATIONSHIP() );
#671 = ITEM_DEFINED_TRANSFORMATION('','',#11,#19);
#672 = PRODUCT_DEFINITION_SHAPE('Placement','Placement of an item',#673
  );
#673 = NEXT_ASSEMBLY_USAGE_OCCURRENCE('3','J1','',#5,#35,$);
#674 = SHAPE_DEFINITION_REPRESENTATION(#675,#681);
#675 = PRODUCT_DEFINITION_SHAPE('','',#676);
#676 = PRODUCT_DEFINITION('design','',#677,#680);
#677 = PRODUCT_DEFINITION_FORMATION('','',#678);
#678 = PRODUCT('Mezzanine jumper_PCB','Mezzanine jumper_PCB','',(#679));
#679 = PRODUCT_CONTEXT('',#2,'mechanical');
#680 = PRODUCT_DEFINITION_CONTEXT('part definition',#2,'design');
#681 = ADVANCED_BREP_SHAPE_REPRESENTATION('',(#11,#682),#1128);
#682 = MANIFOLD_SOLID_BREP('',#683);
#683 = CLOSED_SHELL('',(#684,#726,#757,#788,#884,#980,#997,#1014,#1031,
    #1048,#1060,#1077,#1094,#1111));
#684 = ADVANCED_FACE('',(#685),#721,.T.);
#685 = FACE_BOUND('',#686,.T.);
#686 = EDGE_LOOP('',(#687,#697,#706,#714));
#687 = ORIENTED_EDGE('',*,*,#688,.T.);
#688 = EDGE_CURVE('',#689,#691,#693,.T.);
#689 = VERTEX_POINT('',#690);
#690 = CARTESIAN_POINT('',(126.5,-61.5,0.));
#691 = VERTEX_POINT('',#692);
#692 = CARTESIAN_POINT('',(126.5,-61.5,1.6));
#693 = LINE('',#694,#695);
#694 = CARTESIAN_POINT('',(126.5,-61.5,0.));
#695 = VECTOR('',#696,1.);
#696 = DIRECTION('',(0.,0.,1.));
#697 = ORIENTED_EDGE('',*,*,#698,.T.);
#698 = EDGE_CURVE('',#691,#699,#701,.T.);
#699 = VERTEX_POINT('',#700);
#700 = CARTESIAN_POINT('',(128.5,-63.5,1.6));
#701 = CIRCLE('',#702,1.99999850585);
#702 = AXIS2_PLACEMENT_3D('',#703,#704,#705);
#703 = CARTESIAN_POINT('',(126.50000149415,-63.49999850585,1.6));
#704 = DIRECTION('',(0.,0.,-1.));
#705 = DIRECTION('',(-7.470757491648E-07,1.,0.));
#706 = ORIENTED_EDGE('',*,*,#707,.F.);
#707 = EDGE_CURVE('',#708,#699,#710,.T.);
#708 = VERTEX_POINT('',#709);
#709 = CARTESIAN_POINT('',(128.5,-63.5,0.));
#710 = LINE('',#711,#712);
#711 = CARTESIAN_POINT('',(128.5,-63.5,0.));
#712 = VECTOR('',#713,1.);
#713 = DIRECTION('',(0.,0.,1.));
#714 = ORIENTED_EDGE('',*,*,#715,.F.);
#715 = EDGE_CURVE('',#689,#708,#716,.T.);
#716 = CIRCLE('',#717,1.99999850585);
#717 = AXIS2_PLACEMENT_3D('',#718,#719,#720);
#718 = CARTESIAN_POINT('',(126.50000149415,-63.49999850585,0.));
#719 = DIRECTION('',(0.,0.,-1.));
#720 = DIRECTION('',(-7.470757491648E-07,1.,0.));
#721 = CYLINDRICAL_SURFACE('',#722,1.99999850585);
#722 = AXIS2_PLACEMENT_3D('',#723,#724,#725);
#723 = CARTESIAN_POINT('',(126.50000149415,-63.49999850585,0.));
#724 = DIRECTION('',(0.,0.,-1.));
#725 = DIRECTION('',(-7.470757491648E-07,1.,0.));
#726 = ADVANCED_FACE('',(#727),#752,.T.);
#727 = FACE_BOUND('',#728,.T.);
#728 = EDGE_LOOP('',(#729,#739,#745,#746));
#729 = ORIENTED_EDGE('',*,*,#730,.T.);
#730 = EDGE_CURVE('',#731,#733,#735,.T.);
#731 = VERTEX_POINT('',#732);
#732 = CARTESIAN_POINT('',(97.5,-61.5,0.));
#733 = VERTEX_POINT('',#734);
#734 = CARTESIAN_POINT('',(97.5,-61.5,1.6));
#735 = LINE('',#736,#737);
#736 = CARTESIAN_POINT('',(97.5,-61.5,0.));
#737 = VECTOR('',#738,1.);
#738 = DIRECTION('',(0.,0.,1.));
#739 = ORIENTED_EDGE('',*,*,#740,.T.);
#740 = EDGE_CURVE('',#733,#691,#741,.T.);
#741 = LINE('',#742,#743);
#742 = CARTESIAN_POINT('',(97.5,-61.5,1.6));
#743 = VECTOR('',#744,1.);
#744 = DIRECTION('',(1.,0.,0.));
#745 = ORIENTED_EDGE('',*,*,#688,.F.);
#746 = ORIENTED_EDGE('',*,*,#747,.F.);
#747 = EDGE_CURVE('',#731,#689,#748,.T.);
#748 = LINE('',#749,#750);
#749 = CARTESIAN_POINT('',(97.5,-61.5,0.));
#750 = VECTOR('',#751,1.);
#751 = DIRECTION('',(1.,0.,0.));
#752 = PLANE('',#753);
#753 = AXIS2_PLACEMENT_3D('',#754,#755,#756);
#754 = CARTESIAN_POINT('',(97.5,-61.5,0.));
#755 = DIRECTION('',(0.,1.,0.));
#756 = DIRECTION('',(1.,0.,0.));
#757 = ADVANCED_FACE('',(#758),#783,.T.);
#758 = FACE_BOUND('',#759,.T.);
#759 = EDGE_LOOP('',(#760,#761,#769,#777));
#760 = ORIENTED_EDGE('',*,*,#707,.T.);
#761 = ORIENTED_EDGE('',*,*,#762,.T.);
#762 = EDGE_CURVE('',#699,#763,#765,.T.);
#763 = VERTEX_POINT('',#764);
#764 = CARTESIAN_POINT('',(128.5,-94.,1.6));
#765 = LINE('',#766,#767);
#766 = CARTESIAN_POINT('',(128.5,-63.5,1.6));
#767 = VECTOR('',#768,1.);
#768 = DIRECTION('',(0.,-1.,0.));
#769 = ORIENTED_EDGE('',*,*,#770,.F.);
#770 = EDGE_CURVE('',#771,#763,#773,.T.);
#771 = VERTEX_POINT('',#772);
#772 = CARTESIAN_POINT('',(128.5,-94.,0.));
#773 = LINE('',#774,#775);
#774 = CARTESIAN_POINT('',(128.5,-94.,0.));
#775 = VECTOR('',#776,1.);
#776 = DIRECTION('',(0.,0.,1.));
#777 = ORIENTED_EDGE('',*,*,#778,.F.);
#778 = EDGE_CURVE('',#708,#771,#779,.T.);
#779 = LINE('',#780,#781);
#780 = CARTESIAN_POINT('',(128.5,-63.5,0.));
#781 = VECTOR('',#782,1.);
#782 = DIRECTION('',(0.,-1.,0.));
#783 = PLANE('',#784);
#784 = AXIS2_PLACEMENT_3D('',#785,#786,#787);
#785 = CARTESIAN_POINT('',(128.5,-63.5,0.));
#786 = DIRECTION('',(1.,0.,-0.));
#787 = DIRECTION('',(0.,-1.,0.));
#788 = ADVANCED_FACE('',(#789,#835,#846,#857,#868),#879,.T.);
#789 = FACE_BOUND('',#790,.T.);
#790 = EDGE_LOOP('',(#791,#792,#793,#802,#810,#819,#827,#834));
#791 = ORIENTED_EDGE('',*,*,#715,.T.);
#792 = ORIENTED_EDGE('',*,*,#778,.T.);
#793 = ORIENTED_EDGE('',*,*,#794,.T.);
#794 = EDGE_CURVE('',#771,#795,#797,.T.);
#795 = VERTEX_POINT('',#796);
#796 = CARTESIAN_POINT('',(126.5,-96.,0.));
#797 = CIRCLE('',#798,1.99999850585);
#798 = AXIS2_PLACEMENT_3D('',#799,#800,#801);
#799 = CARTESIAN_POINT('',(126.50000149415,-94.00000149415,0.));
#800 = DIRECTION('',(0.,0.,-1.));
#801 = DIRECTION('',(1.,7.470757491648E-07,0.));
#802 = ORIENTED_EDGE('',*,*,#803,.T.);
#803 = EDGE_CURVE('',#795,#804,#806,.T.);
#804 = VERTEX_POINT('',#805);
#805 = CARTESIAN_POINT('',(97.5,-96.,0.));
#806 = LINE('',#807,#808);
#807 = CARTESIAN_POINT('',(126.5,-96.,0.));
#808 = VECTOR('',#809,1.);
#809 = DIRECTION('',(-1.,0.,0.));
#810 = ORIENTED_EDGE('',*,*,#811,.T.);
#811 = EDGE_CURVE('',#804,#812,#814,.T.);
#812 = VERTEX_POINT('',#813);
#813 = CARTESIAN_POINT('',(95.5,-94.,0.));
#814 = CIRCLE('',#815,1.99999850585);
#815 = AXIS2_PLACEMENT_3D('',#816,#817,#818);
#816 = CARTESIAN_POINT('',(97.49999850585,-94.00000149415,0.));
#817 = DIRECTION('',(0.,0.,-1.));
#818 = DIRECTION('',(7.470757491648E-07,-1.,0.));
#819 = ORIENTED_EDGE('',*,*,#820,.T.);
#820 = EDGE_CURVE('',#812,#821,#823,.T.);
#821 = VERTEX_POINT('',#822);
#822 = CARTESIAN_POINT('',(95.5,-63.5,0.));
#823 = LINE('',#824,#825);
#824 = CARTESIAN_POINT('',(95.5,-94.,0.));
#825 = VECTOR('',#826,1.);
#826 = DIRECTION('',(0.,1.,0.));
#827 = ORIENTED_EDGE('',*,*,#828,.T.);
#828 = EDGE_CURVE('',#821,#731,#829,.T.);
#829 = CIRCLE('',#830,1.99999850585);
#830 = AXIS2_PLACEMENT_3D('',#831,#832,#833);
#831 = CARTESIAN_POINT('',(97.49999850585,-63.49999850585,0.));
#832 = DIRECTION('',(0.,0.,-1.));
#833 = DIRECTION('',(-1.,-7.470757420593E-07,-0.));
#834 = ORIENTED_EDGE('',*,*,#747,.T.);
#835 = FACE_BOUND('',#836,.T.);
#836 = EDGE_LOOP('',(#837));
#837 = ORIENTED_EDGE('',*,*,#838,.F.);
#838 = EDGE_CURVE('',#839,#839,#841,.T.);
#839 = VERTEX_POINT('',#840);
#840 = CARTESIAN_POINT('',(125.25,-93.475,0.));
#841 = CIRCLE('',#842,0.275);
#842 = AXIS2_PLACEMENT_3D('',#843,#844,#845);
#843 = CARTESIAN_POINT('',(125.25,-93.2,0.));
#844 = DIRECTION('',(-0.,0.,-1.));
#845 = DIRECTION('',(-0.,-1.,0.));
#846 = FACE_BOUND('',#847,.T.);
#847 = EDGE_LOOP('',(#848));
#848 = ORIENTED_EDGE('',*,*,#849,.F.);
#849 = EDGE_CURVE('',#850,#850,#852,.T.);
#850 = VERTEX_POINT('',#851);
#851 = CARTESIAN_POINT('',(101.25,-93.475,0.));
#852 = CIRCLE('',#853,0.275);
#853 = AXIS2_PLACEMENT_3D('',#854,#855,#856);
#854 = CARTESIAN_POINT('',(101.25,-93.2,0.));
#855 = DIRECTION('',(-0.,0.,-1.));
#856 = DIRECTION('',(-0.,-1.,0.));
#857 = FACE_BOUND('',#858,.T.);
#858 = EDGE_LOOP('',(#859));
#859 = ORIENTED_EDGE('',*,*,#860,.F.);
#860 = EDGE_CURVE('',#861,#861,#863,.T.);
#861 = VERTEX_POINT('',#862);
#862 = CARTESIAN_POINT('',(125.25,-67.075,0.));
#863 = CIRCLE('',#864,0.275);
#864 = AXIS2_PLACEMENT_3D('',#865,#866,#867);
#865 = CARTESIAN_POINT('',(125.25,-66.8,0.));
#866 = DIRECTION('',(-0.,0.,-1.));
#867 = DIRECTION('',(-0.,-1.,0.));
#868 = FACE_BOUND('',#869,.T.);
#869 = EDGE_LOOP('',(#870));
#870 = ORIENTED_EDGE('',*,*,#871,.F.);
#871 = EDGE_CURVE('',#872,#872,#874,.T.);
#872 = VERTEX_POINT('',#873);
#873 = CARTESIAN_POINT('',(101.25,-67.075,0.));
#874 = CIRCLE('',#875,0.275);
#875 = AXIS2_PLACEMENT_3D('',#876,#877,#878);
#876 = CARTESIAN_POINT('',(101.25,-66.8,0.));
#877 = DIRECTION('',(-0.,0.,-1.));
#878 = DIRECTION('',(-0.,-1.,0.));
#879 = PLANE('',#880);
#880 = AXIS2_PLACEMENT_3D('',#881,#882,#883);
#881 = CARTESIAN_POINT('',(112.,-78.75,0.));
#882 = DIRECTION('',(-0.,-0.,-1.));
#883 = DIRECTION('',(-1.,0.,0.));
#884 = ADVANCED_FACE('',(#885,#931,#942,#953,#964),#975,.F.);
#885 = FACE_BOUND('',#886,.F.);
#886 = EDGE_LOOP('',(#887,#888,#889,#898,#906,#915,#923,#930));
#887 = ORIENTED_EDGE('',*,*,#698,.T.);
#888 = ORIENTED_EDGE('',*,*,#762,.T.);
#889 = ORIENTED_EDGE('',*,*,#890,.T.);
#890 = EDGE_CURVE('',#763,#891,#893,.T.);
#891 = VERTEX_POINT('',#892);
#892 = CARTESIAN_POINT('',(126.5,-96.,1.6));
#893 = CIRCLE('',#894,1.99999850585);
#894 = AXIS2_PLACEMENT_3D('',#895,#896,#897);
#895 = CARTESIAN_POINT('',(126.50000149415,-94.00000149415,1.6));
#896 = DIRECTION('',(0.,0.,-1.));
#897 = DIRECTION('',(1.,7.470757491648E-07,0.));
#898 = ORIENTED_EDGE('',*,*,#899,.T.);
#899 = EDGE_CURVE('',#891,#900,#902,.T.);
#900 = VERTEX_POINT('',#901);
#901 = CARTESIAN_POINT('',(97.5,-96.,1.6));
#902 = LINE('',#903,#904);
#903 = CARTESIAN_POINT('',(126.5,-96.,1.6));
#904 = VECTOR('',#905,1.);
#905 = DIRECTION('',(-1.,0.,0.));
#906 = ORIENTED_EDGE('',*,*,#907,.T.);
#907 = EDGE_CURVE('',#900,#908,#910,.T.);
#908 = VERTEX_POINT('',#909);
#909 = CARTESIAN_POINT('',(95.5,-94.,1.6));
#910 = CIRCLE('',#911,1.99999850585);
#911 = AXIS2_PLACEMENT_3D('',#912,#913,#914);
#912 = CARTESIAN_POINT('',(97.49999850585,-94.00000149415,1.6));
#913 = DIRECTION('',(0.,0.,-1.));
#914 = DIRECTION('',(7.470757491648E-07,-1.,0.));
#915 = ORIENTED_EDGE('',*,*,#916,.T.);
#916 = EDGE_CURVE('',#908,#917,#919,.T.);
#917 = VERTEX_POINT('',#918);
#918 = CARTESIAN_POINT('',(95.5,-63.5,1.6));
#919 = LINE('',#920,#921);
#920 = CARTESIAN_POINT('',(95.5,-94.,1.6));
#921 = VECTOR('',#922,1.);
#922 = DIRECTION('',(0.,1.,0.));
#923 = ORIENTED_EDGE('',*,*,#924,.T.);
#924 = EDGE_CURVE('',#917,#733,#925,.T.);
#925 = CIRCLE('',#926,1.99999850585);
#926 = AXIS2_PLACEMENT_3D('',#927,#928,#929);
#927 = CARTESIAN_POINT('',(97.49999850585,-63.49999850585,1.6));
#928 = DIRECTION('',(0.,0.,-1.));
#929 = DIRECTION('',(-1.,-7.470757420593E-07,-0.));
#930 = ORIENTED_EDGE('',*,*,#740,.T.);
#931 = FACE_BOUND('',#932,.F.);
#932 = EDGE_LOOP('',(#933));
#933 = ORIENTED_EDGE('',*,*,#934,.F.);
#934 = EDGE_CURVE('',#935,#935,#937,.T.);
#935 = VERTEX_POINT('',#936);
#936 = CARTESIAN_POINT('',(125.25,-93.475,1.6));
#937 = CIRCLE('',#938,0.275);
#938 = AXIS2_PLACEMENT_3D('',#939,#940,#941);
#939 = CARTESIAN_POINT('',(125.25,-93.2,1.6));
#940 = DIRECTION('',(-0.,0.,-1.));
#941 = DIRECTION('',(-0.,-1.,0.));
#942 = FACE_BOUND('',#943,.F.);
#943 = EDGE_LOOP('',(#944));
#944 = ORIENTED_EDGE('',*,*,#945,.F.);
#945 = EDGE_CURVE('',#946,#946,#948,.T.);
#946 = VERTEX_POINT('',#947);
#947 = CARTESIAN_POINT('',(101.25,-93.475,1.6));
#948 = CIRCLE('',#949,0.275);
#949 = AXIS2_PLACEMENT_3D('',#950,#951,#952);
#950 = CARTESIAN_POINT('',(101.25,-93.2,1.6));
#951 = DIRECTION('',(-0.,0.,-1.));
#952 = DIRECTION('',(-0.,-1.,0.));
#953 = FACE_BOUND('',#954,.F.);
#954 = EDGE_LOOP('',(#955));
#955 = ORIENTED_EDGE('',*,*,#956,.F.);
#956 = EDGE_CURVE('',#957,#957,#959,.T.);
#957 = VERTEX_POINT('',#958);
#958 = CARTESIAN_POINT('',(125.25,-67.075,1.6));
#959 = CIRCLE('',#960,0.275);
#960 = AXIS2_PLACEMENT_3D('',#961,#962,#963);
#961 = CARTESIAN_POINT('',(125.25,-66.8,1.6));
#962 = DIRECTION('',(-0.,0.,-1.));
#963 = DIRECTION('',(-0.,-1.,0.));
#964 = FACE_BOUND('',#965,.F.);
#965 = EDGE_LOOP('',(#966));
#966 = ORIENTED_EDGE('',*,*,#967,.F.);
#967 = EDGE_CURVE('',#968,#968,#970,.T.);
#968 = VERTEX_POINT('',#969);
#969 = CARTESIAN_POINT('',(101.25,-67.075,1.6));
#970 = CIRCLE('',#971,0.275);
#971 = AXIS2_PLACEMENT_3D('',#972,#973,#974);
#972 = CARTESIAN_POINT('',(101.25,-66.8,1.6));
#973 = DIRECTION('',(-0.,0.,-1.));
#974 = DIRECTION('',(-0.,-1.,0.));
#975 = PLANE('',#976);
#976 = AXIS2_PLACEMENT_3D('',#977,#978,#979);
#977 = CARTESIAN_POINT('',(112.,-78.75,1.6));
#978 = DIRECTION('',(-0.,-0.,-1.));
#979 = DIRECTION('',(-1.,0.,0.));
#980 = ADVANCED_FACE('',(#981),#992,.T.);
#981 = FACE_BOUND('',#982,.T.);
#982 = EDGE_LOOP('',(#983,#989,#990,#991));
#983 = ORIENTED_EDGE('',*,*,#984,.T.);
#984 = EDGE_CURVE('',#821,#917,#985,.T.);
#985 = LINE('',#986,#987);
#986 = CARTESIAN_POINT('',(95.5,-63.5,0.));
#987 = VECTOR('',#988,1.);
#988 = DIRECTION('',(0.,0.,1.));
#989 = ORIENTED_EDGE('',*,*,#924,.T.);
#990 = ORIENTED_EDGE('',*,*,#730,.F.);
#991 = ORIENTED_EDGE('',*,*,#828,.F.);
#992 = CYLINDRICAL_SURFACE('',#993,1.99999850585);
#993 = AXIS2_PLACEMENT_3D('',#994,#995,#996);
#994 = CARTESIAN_POINT('',(97.49999850585,-63.49999850585,0.));
#995 = DIRECTION('',(0.,0.,-1.));
#996 = DIRECTION('',(-1.,-7.470757420593E-07,-0.));
#997 = ADVANCED_FACE('',(#998),#1009,.T.);
#998 = FACE_BOUND('',#999,.T.);
#999 = EDGE_LOOP('',(#1000,#1001,#1002,#1008));
#1000 = ORIENTED_EDGE('',*,*,#770,.T.);
#1001 = ORIENTED_EDGE('',*,*,#890,.T.);
#1002 = ORIENTED_EDGE('',*,*,#1003,.F.);
#1003 = EDGE_CURVE('',#795,#891,#1004,.T.);
#1004 = LINE('',#1005,#1006);
#1005 = CARTESIAN_POINT('',(126.5,-96.,0.));
#1006 = VECTOR('',#1007,1.);
#1007 = DIRECTION('',(0.,0.,1.));
#1008 = ORIENTED_EDGE('',*,*,#794,.F.);
#1009 = CYLINDRICAL_SURFACE('',#1010,1.99999850585);
#1010 = AXIS2_PLACEMENT_3D('',#1011,#1012,#1013);
#1011 = CARTESIAN_POINT('',(126.50000149415,-94.00000149415,0.));
#1012 = DIRECTION('',(0.,0.,-1.));
#1013 = DIRECTION('',(1.,7.470757491648E-07,0.));
#1014 = ADVANCED_FACE('',(#1015),#1026,.T.);
#1015 = FACE_BOUND('',#1016,.T.);
#1016 = EDGE_LOOP('',(#1017,#1023,#1024,#1025));
#1017 = ORIENTED_EDGE('',*,*,#1018,.T.);
#1018 = EDGE_CURVE('',#812,#908,#1019,.T.);
#1019 = LINE('',#1020,#1021);
#1020 = CARTESIAN_POINT('',(95.5,-94.,0.));
#1021 = VECTOR('',#1022,1.);
#1022 = DIRECTION('',(0.,0.,1.));
#1023 = ORIENTED_EDGE('',*,*,#916,.T.);
#1024 = ORIENTED_EDGE('',*,*,#984,.F.);
#1025 = ORIENTED_EDGE('',*,*,#820,.F.);
#1026 = PLANE('',#1027);
#1027 = AXIS2_PLACEMENT_3D('',#1028,#1029,#1030);
#1028 = CARTESIAN_POINT('',(95.5,-94.,0.));
#1029 = DIRECTION('',(-1.,0.,0.));
#1030 = DIRECTION('',(0.,1.,0.));
#1031 = ADVANCED_FACE('',(#1032),#1043,.T.);
#1032 = FACE_BOUND('',#1033,.T.);
#1033 = EDGE_LOOP('',(#1034,#1035,#1036,#1042));
#1034 = ORIENTED_EDGE('',*,*,#1003,.T.);
#1035 = ORIENTED_EDGE('',*,*,#899,.T.);
#1036 = ORIENTED_EDGE('',*,*,#1037,.F.);
#1037 = EDGE_CURVE('',#804,#900,#1038,.T.);
#1038 = LINE('',#1039,#1040);
#1039 = CARTESIAN_POINT('',(97.5,-96.,0.));
#1040 = VECTOR('',#1041,1.);
#1041 = DIRECTION('',(0.,0.,1.));
#1042 = ORIENTED_EDGE('',*,*,#803,.F.);
#1043 = PLANE('',#1044);
#1044 = AXIS2_PLACEMENT_3D('',#1045,#1046,#1047);
#1045 = CARTESIAN_POINT('',(126.5,-96.,0.));
#1046 = DIRECTION('',(0.,-1.,0.));
#1047 = DIRECTION('',(-1.,0.,0.));
#1048 = ADVANCED_FACE('',(#1049),#1055,.T.);
#1049 = FACE_BOUND('',#1050,.T.);
#1050 = EDGE_LOOP('',(#1051,#1052,#1053,#1054));
#1051 = ORIENTED_EDGE('',*,*,#1037,.T.);
#1052 = ORIENTED_EDGE('',*,*,#907,.T.);
#1053 = ORIENTED_EDGE('',*,*,#1018,.F.);
#1054 = ORIENTED_EDGE('',*,*,#811,.F.);
#1055 = CYLINDRICAL_SURFACE('',#1056,1.99999850585);
#1056 = AXIS2_PLACEMENT_3D('',#1057,#1058,#1059);
#1057 = CARTESIAN_POINT('',(97.49999850585,-94.00000149415,0.));
#1058 = DIRECTION('',(0.,0.,-1.));
#1059 = DIRECTION('',(7.470757491648E-07,-1.,0.));
#1060 = ADVANCED_FACE('',(#1061),#1072,.F.);
#1061 = FACE_BOUND('',#1062,.T.);
#1062 = EDGE_LOOP('',(#1063,#1064,#1070,#1071));
#1063 = ORIENTED_EDGE('',*,*,#838,.T.);
#1064 = ORIENTED_EDGE('',*,*,#1065,.T.);
#1065 = EDGE_CURVE('',#839,#935,#1066,.T.);
#1066 = LINE('',#1067,#1068);
#1067 = CARTESIAN_POINT('',(125.25,-93.475,-4.5E-02));
#1068 = VECTOR('',#1069,1.);
#1069 = DIRECTION('',(0.,0.,1.));
#1070 = ORIENTED_EDGE('',*,*,#934,.F.);
#1071 = ORIENTED_EDGE('',*,*,#1065,.F.);
#1072 = CYLINDRICAL_SURFACE('',#1073,0.275);
#1073 = AXIS2_PLACEMENT_3D('',#1074,#1075,#1076);
#1074 = CARTESIAN_POINT('',(125.25,-93.2,-4.5E-02));
#1075 = DIRECTION('',(-0.,-0.,-1.));
#1076 = DIRECTION('',(-0.,-1.,0.));
#1077 = ADVANCED_FACE('',(#1078),#1089,.F.);
#1078 = FACE_BOUND('',#1079,.T.);
#1079 = EDGE_LOOP('',(#1080,#1081,#1087,#1088));
#1080 = ORIENTED_EDGE('',*,*,#849,.T.);
#1081 = ORIENTED_EDGE('',*,*,#1082,.T.);
#1082 = EDGE_CURVE('',#850,#946,#1083,.T.);
#1083 = LINE('',#1084,#1085);
#1084 = CARTESIAN_POINT('',(101.25,-93.475,-4.5E-02));
#1085 = VECTOR('',#1086,1.);
#1086 = DIRECTION('',(0.,0.,1.));
#1087 = ORIENTED_EDGE('',*,*,#945,.F.);
#1088 = ORIENTED_EDGE('',*,*,#1082,.F.);
#1089 = CYLINDRICAL_SURFACE('',#1090,0.275);
#1090 = AXIS2_PLACEMENT_3D('',#1091,#1092,#1093);
#1091 = CARTESIAN_POINT('',(101.25,-93.2,-4.5E-02));
#1092 = DIRECTION('',(-0.,-0.,-1.));
#1093 = DIRECTION('',(-0.,-1.,0.));
#1094 = ADVANCED_FACE('',(#1095),#1106,.F.);
#1095 = FACE_BOUND('',#1096,.T.);
#1096 = EDGE_LOOP('',(#1097,#1098,#1104,#1105));
#1097 = ORIENTED_EDGE('',*,*,#860,.T.);
#1098 = ORIENTED_EDGE('',*,*,#1099,.T.);
#1099 = EDGE_CURVE('',#861,#957,#1100,.T.);
#1100 = LINE('',#1101,#1102);
#1101 = CARTESIAN_POINT('',(125.25,-67.075,-4.5E-02));
#1102 = VECTOR('',#1103,1.);
#1103 = DIRECTION('',(0.,0.,1.));
#1104 = ORIENTED_EDGE('',*,*,#956,.F.);
#1105 = ORIENTED_EDGE('',*,*,#1099,.F.);
#1106 = CYLINDRICAL_SURFACE('',#1107,0.275);
#1107 = AXIS2_PLACEMENT_3D('',#1108,#1109,#1110);
#1108 = CARTESIAN_POINT('',(125.25,-66.8,-4.5E-02));
#1109 = DIRECTION('',(-0.,-0.,-1.));
#1110 = DIRECTION('',(-0.,-1.,0.));
#1111 = ADVANCED_FACE('',(#1112),#1123,.F.);
#1112 = FACE_BOUND('',#1113,.T.);
#1113 = EDGE_LOOP('',(#1114,#1115,#1121,#1122));
#1114 = ORIENTED_EDGE('',*,*,#871,.T.);
#1115 = ORIENTED_EDGE('',*,*,#1116,.T.);
#1116 = EDGE_CURVE('',#872,#968,#1117,.T.);
#1117 = LINE('',#1118,#1119);
#1118 = CARTESIAN_POINT('',(101.25,-67.075,-4.5E-02));
#1119 = VECTOR('',#1120,1.);
#1120 = DIRECTION('',(0.,0.,1.));
#1121 = ORIENTED_EDGE('',*,*,#967,.F.);
#1122 = ORIENTED_EDGE('',*,*,#1116,.F.);
#1123 = CYLINDRICAL_SURFACE('',#1124,0.275);
#1124 = AXIS2_PLACEMENT_3D('',#1125,#1126,#1127);
#1125 = CARTESIAN_POINT('',(101.25,-66.8,-4.5E-02));
#1126 = DIRECTION('',(-0.,-0.,-1.));
#1127 = DIRECTION('',(-0.,-1.,0.));
#1128 = ( GEOMETRIC_REPRESENTATION_CONTEXT(3) 
GLOBAL_UNCERTAINTY_ASSIGNED_CONTEXT((#1132)) 
GLOBAL_UNIT_ASSIGNED_CONTEXT((#1129,#1130,#1131)) REPRESENTATION_CONTEXT
('Context #1','3D Context with UNIT and UNCERTAINTY') );
#1129 = ( LENGTH_UNIT() NAMED_UNIT(*) SI_UNIT(.MILLI.,.METRE.) );
#1130 = ( NAMED_UNIT(*) PLANE_ANGLE_UNIT() SI_UNIT($,.RADIAN.) );
#1131 = ( NAMED_UNIT(*) SI_UNIT($,.STERADIAN.) SOLID_ANGLE_UNIT() );
#1132 = UNCERTAINTY_MEASURE_WITH_UNIT(LENGTH_MEASURE(1.E-07),#1129,
  'distance_accuracy_value','confusion accuracy');
#1133 = CONTEXT_DEPENDENT_SHAPE_REPRESENTATION(#1134,#1136);
#1134 = ( REPRESENTATION_RELATIONSHIP('','',#681,#10) 
REPRESENTATION_RELATIONSHIP_WITH_TRANSFORMATION(#1135) 
SHAPE_REPRESENTATION_RELATIONSHIP() );
#1135 = ITEM_DEFINED_TRANSFORMATION('','',#11,#23);
#1136 = PRODUCT_DEFINITION_SHAPE('Placement','Placement of an item',
  #1137);
#1137 = NEXT_ASSEMBLY_USAGE_OCCURRENCE('4','=>[0:1:1:4]','',#5,#676,$);
#1138 = PRODUCT_RELATED_PRODUCT_CATEGORY('part',$,(#678));
#1139 = MECHANICAL_DESIGN_GEOMETRIC_PRESENTATION_REPRESENTATION('',(
    #1140),#658);
#1140 = STYLED_ITEM('color',(#1141),#64);
#1141 = PRESENTATION_STYLE_ASSIGNMENT((#1142,#1148));
#1142 = SURFACE_STYLE_USAGE(.BOTH.,#1143);
#1143 = SURFACE_SIDE_STYLE('',(#1144));
#1144 = SURFACE_STYLE_FILL_AREA(#1145);
#1145 = FILL_AREA_STYLE('',(#1146));
#1146 = FILL_AREA_STYLE_COLOUR('',#1147);
#1147 = COLOUR_RGB('',0.199999998682,0.199999998682,0.199999998682);
#1148 = CURVE_STYLE('',#1149,POSITIVE_LENGTH_MEASURE(0.1),#1147);
#1149 = DRAUGHTING_PRE_DEFINED_CURVE_FONT('continuous');
#1150 = MECHANICAL_DESIGN_GEOMETRIC_PRESENTATION_REPRESENTATION('',(
    #1151),#1128);
#1151 = STYLED_ITEM('color',(#1152),#682);
#1152 = PRESENTATION_STYLE_ASSIGNMENT((#1153));
#1153 = SURFACE_STYLE_USAGE(.BOTH.,#1154);
#1154 = SURFACE_SIDE_STYLE('',(#1155));
#1155 = SURFACE_STYLE_FILL_AREA(#1156);
#1156 = FILL_AREA_STYLE('',(#1157));
#1157 = FILL_AREA_STYLE_COLOUR('',#1158);
#1158 = COLOUR_RGB('',0.313304153717,0.484529207832,0.410020903123);
ENDSEC;
END-ISO-10303-21;
