%TF.GenerationSoftware,KiCad,Pcbnew,8.0.1*%
%TF.CreationDate,2026-01-16T21:20:55-05:00*%
%TF.ProjectId,16x Card Module,31367820-4361-4726-9420-4d6f64756c65,rev?*%
%TF.SameCoordinates,Original*%
%TF.FileFunction,Soldermask,Bot*%
%TF.FilePolarity,Negative*%
%FSLAX46Y46*%
G04 Gerber Fmt 4.6, Leading zero omitted, Abs format (unit mm)*
G04 Created by KiCad (PCBNEW 8.0.1) date 2026-01-16 21:20:55*
%MOMM*%
%LPD*%
G01*
G04 APERTURE LIST*
G04 APERTURE END LIST*
G36*
X106837543Y-127529922D02*
G01*
X106881362Y-127529922D01*
X106918261Y-127539016D01*
X106950046Y-127542598D01*
X106991160Y-127556984D01*
X107039358Y-127568864D01*
X107067858Y-127583822D01*
X107092567Y-127592468D01*
X107134325Y-127618706D01*
X107183444Y-127644486D01*
X107203181Y-127661972D01*
X107220427Y-127672808D01*
X107259364Y-127711745D01*
X107305245Y-127752392D01*
X107316908Y-127769289D01*
X107327191Y-127779572D01*
X107359520Y-127831023D01*
X107397683Y-127886312D01*
X107402894Y-127900052D01*
X107407531Y-127907432D01*
X107429455Y-127970090D01*
X107455386Y-128038462D01*
X107456451Y-128047240D01*
X107457401Y-128049953D01*
X107465382Y-128120790D01*
X107475000Y-128200000D01*
X107465381Y-128279215D01*
X107457401Y-128350046D01*
X107456452Y-128352757D01*
X107455386Y-128361538D01*
X107429451Y-128429921D01*
X107407531Y-128492567D01*
X107402894Y-128499945D01*
X107397683Y-128513688D01*
X107359513Y-128568986D01*
X107327191Y-128620427D01*
X107316910Y-128630707D01*
X107305245Y-128647608D01*
X107259355Y-128688262D01*
X107220427Y-128727191D01*
X107203185Y-128738024D01*
X107183444Y-128755514D01*
X107134315Y-128781298D01*
X107092567Y-128807531D01*
X107067864Y-128816174D01*
X107039358Y-128831136D01*
X106991151Y-128843017D01*
X106950046Y-128857401D01*
X106918268Y-128860981D01*
X106881362Y-128870078D01*
X106837534Y-128870078D01*
X106800000Y-128874307D01*
X106762466Y-128870078D01*
X106718638Y-128870078D01*
X106681731Y-128860981D01*
X106649953Y-128857401D01*
X106608845Y-128843016D01*
X106560642Y-128831136D01*
X106532137Y-128816175D01*
X106507432Y-128807531D01*
X106465678Y-128781295D01*
X106416556Y-128755514D01*
X106396816Y-128738026D01*
X106379572Y-128727191D01*
X106340635Y-128688254D01*
X106294755Y-128647608D01*
X106283091Y-128630710D01*
X106272808Y-128620427D01*
X106240475Y-128568970D01*
X106202317Y-128513688D01*
X106197106Y-128499949D01*
X106192468Y-128492567D01*
X106170535Y-128429887D01*
X106144614Y-128361538D01*
X106143548Y-128352762D01*
X106142598Y-128350046D01*
X106134604Y-128279101D01*
X106125000Y-128200000D01*
X106134603Y-128120905D01*
X106142598Y-128049953D01*
X106143548Y-128047236D01*
X106144614Y-128038462D01*
X106170531Y-127970124D01*
X106192468Y-127907432D01*
X106197107Y-127900048D01*
X106202317Y-127886312D01*
X106240468Y-127831039D01*
X106272808Y-127779572D01*
X106283093Y-127769286D01*
X106294755Y-127752392D01*
X106340626Y-127711753D01*
X106379572Y-127672808D01*
X106396820Y-127661969D01*
X106416556Y-127644486D01*
X106465668Y-127618709D01*
X106507432Y-127592468D01*
X106532143Y-127583821D01*
X106560642Y-127568864D01*
X106608835Y-127556985D01*
X106649953Y-127542598D01*
X106681739Y-127539016D01*
X106718638Y-127529922D01*
X106762457Y-127529922D01*
X106800000Y-127525692D01*
X106837543Y-127529922D01*
G37*
G36*
X108837543Y-127529922D02*
G01*
X108881362Y-127529922D01*
X108918261Y-127539016D01*
X108950046Y-127542598D01*
X108991160Y-127556984D01*
X109039358Y-127568864D01*
X109067858Y-127583822D01*
X109092567Y-127592468D01*
X109134325Y-127618706D01*
X109183444Y-127644486D01*
X109203181Y-127661972D01*
X109220427Y-127672808D01*
X109259364Y-127711745D01*
X109305245Y-127752392D01*
X109316908Y-127769289D01*
X109327191Y-127779572D01*
X109359520Y-127831023D01*
X109397683Y-127886312D01*
X109402894Y-127900052D01*
X109407531Y-127907432D01*
X109429455Y-127970090D01*
X109455386Y-128038462D01*
X109456451Y-128047240D01*
X109457401Y-128049953D01*
X109465382Y-128120790D01*
X109475000Y-128200000D01*
X109465381Y-128279215D01*
X109457401Y-128350046D01*
X109456452Y-128352757D01*
X109455386Y-128361538D01*
X109429451Y-128429921D01*
X109407531Y-128492567D01*
X109402894Y-128499945D01*
X109397683Y-128513688D01*
X109359513Y-128568986D01*
X109327191Y-128620427D01*
X109316910Y-128630707D01*
X109305245Y-128647608D01*
X109259355Y-128688262D01*
X109220427Y-128727191D01*
X109203185Y-128738024D01*
X109183444Y-128755514D01*
X109134315Y-128781298D01*
X109092567Y-128807531D01*
X109067864Y-128816174D01*
X109039358Y-128831136D01*
X108991151Y-128843017D01*
X108950046Y-128857401D01*
X108918268Y-128860981D01*
X108881362Y-128870078D01*
X108837534Y-128870078D01*
X108800000Y-128874307D01*
X108762466Y-128870078D01*
X108718638Y-128870078D01*
X108681731Y-128860981D01*
X108649953Y-128857401D01*
X108608845Y-128843016D01*
X108560642Y-128831136D01*
X108532137Y-128816175D01*
X108507432Y-128807531D01*
X108465678Y-128781295D01*
X108416556Y-128755514D01*
X108396816Y-128738026D01*
X108379572Y-128727191D01*
X108340635Y-128688254D01*
X108294755Y-128647608D01*
X108283091Y-128630710D01*
X108272808Y-128620427D01*
X108240475Y-128568970D01*
X108202317Y-128513688D01*
X108197106Y-128499949D01*
X108192468Y-128492567D01*
X108170535Y-128429887D01*
X108144614Y-128361538D01*
X108143548Y-128352762D01*
X108142598Y-128350046D01*
X108134604Y-128279101D01*
X108125000Y-128200000D01*
X108134603Y-128120905D01*
X108142598Y-128049953D01*
X108143548Y-128047236D01*
X108144614Y-128038462D01*
X108170531Y-127970124D01*
X108192468Y-127907432D01*
X108197107Y-127900048D01*
X108202317Y-127886312D01*
X108240468Y-127831039D01*
X108272808Y-127779572D01*
X108283093Y-127769286D01*
X108294755Y-127752392D01*
X108340626Y-127711753D01*
X108379572Y-127672808D01*
X108396820Y-127661969D01*
X108416556Y-127644486D01*
X108465668Y-127618709D01*
X108507432Y-127592468D01*
X108532143Y-127583821D01*
X108560642Y-127568864D01*
X108608835Y-127556985D01*
X108649953Y-127542598D01*
X108681739Y-127539016D01*
X108718638Y-127529922D01*
X108762457Y-127529922D01*
X108800000Y-127525692D01*
X108837543Y-127529922D01*
G37*
G36*
X106837543Y-125529922D02*
G01*
X106881362Y-125529922D01*
X106918261Y-125539016D01*
X106950046Y-125542598D01*
X106991160Y-125556984D01*
X107039358Y-125568864D01*
X107067858Y-125583822D01*
X107092567Y-125592468D01*
X107134325Y-125618706D01*
X107183444Y-125644486D01*
X107203181Y-125661972D01*
X107220427Y-125672808D01*
X107259364Y-125711745D01*
X107305245Y-125752392D01*
X107316908Y-125769289D01*
X107327191Y-125779572D01*
X107359520Y-125831023D01*
X107397683Y-125886312D01*
X107402894Y-125900052D01*
X107407531Y-125907432D01*
X107429455Y-125970090D01*
X107455386Y-126038462D01*
X107456451Y-126047240D01*
X107457401Y-126049953D01*
X107465382Y-126120790D01*
X107475000Y-126200000D01*
X107465381Y-126279215D01*
X107457401Y-126350046D01*
X107456452Y-126352757D01*
X107455386Y-126361538D01*
X107429451Y-126429921D01*
X107407531Y-126492567D01*
X107402894Y-126499945D01*
X107397683Y-126513688D01*
X107359513Y-126568986D01*
X107327191Y-126620427D01*
X107316910Y-126630707D01*
X107305245Y-126647608D01*
X107259355Y-126688262D01*
X107220427Y-126727191D01*
X107203185Y-126738024D01*
X107183444Y-126755514D01*
X107134315Y-126781298D01*
X107092567Y-126807531D01*
X107067864Y-126816174D01*
X107039358Y-126831136D01*
X106991151Y-126843017D01*
X106950046Y-126857401D01*
X106918268Y-126860981D01*
X106881362Y-126870078D01*
X106837534Y-126870078D01*
X106800000Y-126874307D01*
X106762466Y-126870078D01*
X106718638Y-126870078D01*
X106681731Y-126860981D01*
X106649953Y-126857401D01*
X106608845Y-126843016D01*
X106560642Y-126831136D01*
X106532137Y-126816175D01*
X106507432Y-126807531D01*
X106465678Y-126781295D01*
X106416556Y-126755514D01*
X106396816Y-126738026D01*
X106379572Y-126727191D01*
X106340635Y-126688254D01*
X106294755Y-126647608D01*
X106283091Y-126630710D01*
X106272808Y-126620427D01*
X106240475Y-126568970D01*
X106202317Y-126513688D01*
X106197106Y-126499949D01*
X106192468Y-126492567D01*
X106170535Y-126429887D01*
X106144614Y-126361538D01*
X106143548Y-126352762D01*
X106142598Y-126350046D01*
X106134604Y-126279101D01*
X106125000Y-126200000D01*
X106134603Y-126120905D01*
X106142598Y-126049953D01*
X106143548Y-126047236D01*
X106144614Y-126038462D01*
X106170531Y-125970124D01*
X106192468Y-125907432D01*
X106197107Y-125900048D01*
X106202317Y-125886312D01*
X106240468Y-125831039D01*
X106272808Y-125779572D01*
X106283093Y-125769286D01*
X106294755Y-125752392D01*
X106340626Y-125711753D01*
X106379572Y-125672808D01*
X106396820Y-125661969D01*
X106416556Y-125644486D01*
X106465668Y-125618709D01*
X106507432Y-125592468D01*
X106532143Y-125583821D01*
X106560642Y-125568864D01*
X106608835Y-125556985D01*
X106649953Y-125542598D01*
X106681739Y-125539016D01*
X106718638Y-125529922D01*
X106762457Y-125529922D01*
X106800000Y-125525692D01*
X106837543Y-125529922D01*
G37*
G36*
X108837543Y-125529922D02*
G01*
X108881362Y-125529922D01*
X108918261Y-125539016D01*
X108950046Y-125542598D01*
X108991160Y-125556984D01*
X109039358Y-125568864D01*
X109067858Y-125583822D01*
X109092567Y-125592468D01*
X109134325Y-125618706D01*
X109183444Y-125644486D01*
X109203181Y-125661972D01*
X109220427Y-125672808D01*
X109259364Y-125711745D01*
X109305245Y-125752392D01*
X109316908Y-125769289D01*
X109327191Y-125779572D01*
X109359520Y-125831023D01*
X109397683Y-125886312D01*
X109402894Y-125900052D01*
X109407531Y-125907432D01*
X109429455Y-125970090D01*
X109455386Y-126038462D01*
X109456451Y-126047240D01*
X109457401Y-126049953D01*
X109465382Y-126120790D01*
X109475000Y-126200000D01*
X109465381Y-126279215D01*
X109457401Y-126350046D01*
X109456452Y-126352757D01*
X109455386Y-126361538D01*
X109429451Y-126429921D01*
X109407531Y-126492567D01*
X109402894Y-126499945D01*
X109397683Y-126513688D01*
X109359513Y-126568986D01*
X109327191Y-126620427D01*
X109316910Y-126630707D01*
X109305245Y-126647608D01*
X109259355Y-126688262D01*
X109220427Y-126727191D01*
X109203185Y-126738024D01*
X109183444Y-126755514D01*
X109134315Y-126781298D01*
X109092567Y-126807531D01*
X109067864Y-126816174D01*
X109039358Y-126831136D01*
X108991151Y-126843017D01*
X108950046Y-126857401D01*
X108918268Y-126860981D01*
X108881362Y-126870078D01*
X108837534Y-126870078D01*
X108800000Y-126874307D01*
X108762466Y-126870078D01*
X108718638Y-126870078D01*
X108681731Y-126860981D01*
X108649953Y-126857401D01*
X108608845Y-126843016D01*
X108560642Y-126831136D01*
X108532137Y-126816175D01*
X108507432Y-126807531D01*
X108465678Y-126781295D01*
X108416556Y-126755514D01*
X108396816Y-126738026D01*
X108379572Y-126727191D01*
X108340635Y-126688254D01*
X108294755Y-126647608D01*
X108283091Y-126630710D01*
X108272808Y-126620427D01*
X108240475Y-126568970D01*
X108202317Y-126513688D01*
X108197106Y-126499949D01*
X108192468Y-126492567D01*
X108170535Y-126429887D01*
X108144614Y-126361538D01*
X108143548Y-126352762D01*
X108142598Y-126350046D01*
X108134604Y-126279101D01*
X108125000Y-126200000D01*
X108134603Y-126120905D01*
X108142598Y-126049953D01*
X108143548Y-126047236D01*
X108144614Y-126038462D01*
X108170531Y-125970124D01*
X108192468Y-125907432D01*
X108197107Y-125900048D01*
X108202317Y-125886312D01*
X108240468Y-125831039D01*
X108272808Y-125779572D01*
X108283093Y-125769286D01*
X108294755Y-125752392D01*
X108340626Y-125711753D01*
X108379572Y-125672808D01*
X108396820Y-125661969D01*
X108416556Y-125644486D01*
X108465668Y-125618709D01*
X108507432Y-125592468D01*
X108532143Y-125583821D01*
X108560642Y-125568864D01*
X108608835Y-125556985D01*
X108649953Y-125542598D01*
X108681739Y-125539016D01*
X108718638Y-125529922D01*
X108762457Y-125529922D01*
X108800000Y-125525692D01*
X108837543Y-125529922D01*
G37*
G36*
X106837543Y-123529922D02*
G01*
X106881362Y-123529922D01*
X106918261Y-123539016D01*
X106950046Y-123542598D01*
X106991160Y-123556984D01*
X107039358Y-123568864D01*
X107067858Y-123583822D01*
X107092567Y-123592468D01*
X107134325Y-123618706D01*
X107183444Y-123644486D01*
X107203181Y-123661972D01*
X107220427Y-123672808D01*
X107259364Y-123711745D01*
X107305245Y-123752392D01*
X107316908Y-123769289D01*
X107327191Y-123779572D01*
X107359520Y-123831023D01*
X107397683Y-123886312D01*
X107402894Y-123900052D01*
X107407531Y-123907432D01*
X107429455Y-123970090D01*
X107455386Y-124038462D01*
X107456451Y-124047240D01*
X107457401Y-124049953D01*
X107465382Y-124120790D01*
X107475000Y-124200000D01*
X107465381Y-124279215D01*
X107457401Y-124350046D01*
X107456452Y-124352757D01*
X107455386Y-124361538D01*
X107429451Y-124429921D01*
X107407531Y-124492567D01*
X107402894Y-124499945D01*
X107397683Y-124513688D01*
X107359513Y-124568986D01*
X107327191Y-124620427D01*
X107316910Y-124630707D01*
X107305245Y-124647608D01*
X107259355Y-124688262D01*
X107220427Y-124727191D01*
X107203185Y-124738024D01*
X107183444Y-124755514D01*
X107134315Y-124781298D01*
X107092567Y-124807531D01*
X107067864Y-124816174D01*
X107039358Y-124831136D01*
X106991151Y-124843017D01*
X106950046Y-124857401D01*
X106918268Y-124860981D01*
X106881362Y-124870078D01*
X106837534Y-124870078D01*
X106800000Y-124874307D01*
X106762466Y-124870078D01*
X106718638Y-124870078D01*
X106681731Y-124860981D01*
X106649953Y-124857401D01*
X106608845Y-124843016D01*
X106560642Y-124831136D01*
X106532137Y-124816175D01*
X106507432Y-124807531D01*
X106465678Y-124781295D01*
X106416556Y-124755514D01*
X106396816Y-124738026D01*
X106379572Y-124727191D01*
X106340635Y-124688254D01*
X106294755Y-124647608D01*
X106283091Y-124630710D01*
X106272808Y-124620427D01*
X106240475Y-124568970D01*
X106202317Y-124513688D01*
X106197106Y-124499949D01*
X106192468Y-124492567D01*
X106170535Y-124429887D01*
X106144614Y-124361538D01*
X106143548Y-124352762D01*
X106142598Y-124350046D01*
X106134604Y-124279101D01*
X106125000Y-124200000D01*
X106134603Y-124120905D01*
X106142598Y-124049953D01*
X106143548Y-124047236D01*
X106144614Y-124038462D01*
X106170531Y-123970124D01*
X106192468Y-123907432D01*
X106197107Y-123900048D01*
X106202317Y-123886312D01*
X106240468Y-123831039D01*
X106272808Y-123779572D01*
X106283093Y-123769286D01*
X106294755Y-123752392D01*
X106340626Y-123711753D01*
X106379572Y-123672808D01*
X106396820Y-123661969D01*
X106416556Y-123644486D01*
X106465668Y-123618709D01*
X106507432Y-123592468D01*
X106532143Y-123583821D01*
X106560642Y-123568864D01*
X106608835Y-123556985D01*
X106649953Y-123542598D01*
X106681739Y-123539016D01*
X106718638Y-123529922D01*
X106762457Y-123529922D01*
X106800000Y-123525692D01*
X106837543Y-123529922D01*
G37*
G36*
X108837543Y-123529922D02*
G01*
X108881362Y-123529922D01*
X108918261Y-123539016D01*
X108950046Y-123542598D01*
X108991160Y-123556984D01*
X109039358Y-123568864D01*
X109067858Y-123583822D01*
X109092567Y-123592468D01*
X109134325Y-123618706D01*
X109183444Y-123644486D01*
X109203181Y-123661972D01*
X109220427Y-123672808D01*
X109259364Y-123711745D01*
X109305245Y-123752392D01*
X109316908Y-123769289D01*
X109327191Y-123779572D01*
X109359520Y-123831023D01*
X109397683Y-123886312D01*
X109402894Y-123900052D01*
X109407531Y-123907432D01*
X109429455Y-123970090D01*
X109455386Y-124038462D01*
X109456451Y-124047240D01*
X109457401Y-124049953D01*
X109465382Y-124120790D01*
X109475000Y-124200000D01*
X109465381Y-124279215D01*
X109457401Y-124350046D01*
X109456452Y-124352757D01*
X109455386Y-124361538D01*
X109429451Y-124429921D01*
X109407531Y-124492567D01*
X109402894Y-124499945D01*
X109397683Y-124513688D01*
X109359513Y-124568986D01*
X109327191Y-124620427D01*
X109316910Y-124630707D01*
X109305245Y-124647608D01*
X109259355Y-124688262D01*
X109220427Y-124727191D01*
X109203185Y-124738024D01*
X109183444Y-124755514D01*
X109134315Y-124781298D01*
X109092567Y-124807531D01*
X109067864Y-124816174D01*
X109039358Y-124831136D01*
X108991151Y-124843017D01*
X108950046Y-124857401D01*
X108918268Y-124860981D01*
X108881362Y-124870078D01*
X108837534Y-124870078D01*
X108800000Y-124874307D01*
X108762466Y-124870078D01*
X108718638Y-124870078D01*
X108681731Y-124860981D01*
X108649953Y-124857401D01*
X108608845Y-124843016D01*
X108560642Y-124831136D01*
X108532137Y-124816175D01*
X108507432Y-124807531D01*
X108465678Y-124781295D01*
X108416556Y-124755514D01*
X108396816Y-124738026D01*
X108379572Y-124727191D01*
X108340635Y-124688254D01*
X108294755Y-124647608D01*
X108283091Y-124630710D01*
X108272808Y-124620427D01*
X108240475Y-124568970D01*
X108202317Y-124513688D01*
X108197106Y-124499949D01*
X108192468Y-124492567D01*
X108170535Y-124429887D01*
X108144614Y-124361538D01*
X108143548Y-124352762D01*
X108142598Y-124350046D01*
X108134604Y-124279101D01*
X108125000Y-124200000D01*
X108134603Y-124120905D01*
X108142598Y-124049953D01*
X108143548Y-124047236D01*
X108144614Y-124038462D01*
X108170531Y-123970124D01*
X108192468Y-123907432D01*
X108197107Y-123900048D01*
X108202317Y-123886312D01*
X108240468Y-123831039D01*
X108272808Y-123779572D01*
X108283093Y-123769286D01*
X108294755Y-123752392D01*
X108340626Y-123711753D01*
X108379572Y-123672808D01*
X108396820Y-123661969D01*
X108416556Y-123644486D01*
X108465668Y-123618709D01*
X108507432Y-123592468D01*
X108532143Y-123583821D01*
X108560642Y-123568864D01*
X108608835Y-123556985D01*
X108649953Y-123542598D01*
X108681739Y-123539016D01*
X108718638Y-123529922D01*
X108762457Y-123529922D01*
X108800000Y-123525692D01*
X108837543Y-123529922D01*
G37*
G36*
X106837543Y-121529922D02*
G01*
X106881362Y-121529922D01*
X106918261Y-121539016D01*
X106950046Y-121542598D01*
X106991160Y-121556984D01*
X107039358Y-121568864D01*
X107067858Y-121583822D01*
X107092567Y-121592468D01*
X107134325Y-121618706D01*
X107183444Y-121644486D01*
X107203181Y-121661972D01*
X107220427Y-121672808D01*
X107259364Y-121711745D01*
X107305245Y-121752392D01*
X107316908Y-121769289D01*
X107327191Y-121779572D01*
X107359520Y-121831023D01*
X107397683Y-121886312D01*
X107402894Y-121900052D01*
X107407531Y-121907432D01*
X107429455Y-121970090D01*
X107455386Y-122038462D01*
X107456451Y-122047240D01*
X107457401Y-122049953D01*
X107465382Y-122120790D01*
X107475000Y-122200000D01*
X107465381Y-122279215D01*
X107457401Y-122350046D01*
X107456452Y-122352757D01*
X107455386Y-122361538D01*
X107429451Y-122429921D01*
X107407531Y-122492567D01*
X107402894Y-122499945D01*
X107397683Y-122513688D01*
X107359513Y-122568986D01*
X107327191Y-122620427D01*
X107316910Y-122630707D01*
X107305245Y-122647608D01*
X107259355Y-122688262D01*
X107220427Y-122727191D01*
X107203185Y-122738024D01*
X107183444Y-122755514D01*
X107134315Y-122781298D01*
X107092567Y-122807531D01*
X107067864Y-122816174D01*
X107039358Y-122831136D01*
X106991151Y-122843017D01*
X106950046Y-122857401D01*
X106918268Y-122860981D01*
X106881362Y-122870078D01*
X106837534Y-122870078D01*
X106800000Y-122874307D01*
X106762466Y-122870078D01*
X106718638Y-122870078D01*
X106681731Y-122860981D01*
X106649953Y-122857401D01*
X106608845Y-122843016D01*
X106560642Y-122831136D01*
X106532137Y-122816175D01*
X106507432Y-122807531D01*
X106465678Y-122781295D01*
X106416556Y-122755514D01*
X106396816Y-122738026D01*
X106379572Y-122727191D01*
X106340635Y-122688254D01*
X106294755Y-122647608D01*
X106283091Y-122630710D01*
X106272808Y-122620427D01*
X106240475Y-122568970D01*
X106202317Y-122513688D01*
X106197106Y-122499949D01*
X106192468Y-122492567D01*
X106170535Y-122429887D01*
X106144614Y-122361538D01*
X106143548Y-122352762D01*
X106142598Y-122350046D01*
X106134604Y-122279101D01*
X106125000Y-122200000D01*
X106134603Y-122120905D01*
X106142598Y-122049953D01*
X106143548Y-122047236D01*
X106144614Y-122038462D01*
X106170531Y-121970124D01*
X106192468Y-121907432D01*
X106197107Y-121900048D01*
X106202317Y-121886312D01*
X106240468Y-121831039D01*
X106272808Y-121779572D01*
X106283093Y-121769286D01*
X106294755Y-121752392D01*
X106340626Y-121711753D01*
X106379572Y-121672808D01*
X106396820Y-121661969D01*
X106416556Y-121644486D01*
X106465668Y-121618709D01*
X106507432Y-121592468D01*
X106532143Y-121583821D01*
X106560642Y-121568864D01*
X106608835Y-121556985D01*
X106649953Y-121542598D01*
X106681739Y-121539016D01*
X106718638Y-121529922D01*
X106762457Y-121529922D01*
X106800000Y-121525692D01*
X106837543Y-121529922D01*
G37*
G36*
X108837543Y-121529922D02*
G01*
X108881362Y-121529922D01*
X108918261Y-121539016D01*
X108950046Y-121542598D01*
X108991160Y-121556984D01*
X109039358Y-121568864D01*
X109067858Y-121583822D01*
X109092567Y-121592468D01*
X109134325Y-121618706D01*
X109183444Y-121644486D01*
X109203181Y-121661972D01*
X109220427Y-121672808D01*
X109259364Y-121711745D01*
X109305245Y-121752392D01*
X109316908Y-121769289D01*
X109327191Y-121779572D01*
X109359520Y-121831023D01*
X109397683Y-121886312D01*
X109402894Y-121900052D01*
X109407531Y-121907432D01*
X109429455Y-121970090D01*
X109455386Y-122038462D01*
X109456451Y-122047240D01*
X109457401Y-122049953D01*
X109465382Y-122120790D01*
X109475000Y-122200000D01*
X109465381Y-122279215D01*
X109457401Y-122350046D01*
X109456452Y-122352757D01*
X109455386Y-122361538D01*
X109429451Y-122429921D01*
X109407531Y-122492567D01*
X109402894Y-122499945D01*
X109397683Y-122513688D01*
X109359513Y-122568986D01*
X109327191Y-122620427D01*
X109316910Y-122630707D01*
X109305245Y-122647608D01*
X109259355Y-122688262D01*
X109220427Y-122727191D01*
X109203185Y-122738024D01*
X109183444Y-122755514D01*
X109134315Y-122781298D01*
X109092567Y-122807531D01*
X109067864Y-122816174D01*
X109039358Y-122831136D01*
X108991151Y-122843017D01*
X108950046Y-122857401D01*
X108918268Y-122860981D01*
X108881362Y-122870078D01*
X108837534Y-122870078D01*
X108800000Y-122874307D01*
X108762466Y-122870078D01*
X108718638Y-122870078D01*
X108681731Y-122860981D01*
X108649953Y-122857401D01*
X108608845Y-122843016D01*
X108560642Y-122831136D01*
X108532137Y-122816175D01*
X108507432Y-122807531D01*
X108465678Y-122781295D01*
X108416556Y-122755514D01*
X108396816Y-122738026D01*
X108379572Y-122727191D01*
X108340635Y-122688254D01*
X108294755Y-122647608D01*
X108283091Y-122630710D01*
X108272808Y-122620427D01*
X108240475Y-122568970D01*
X108202317Y-122513688D01*
X108197106Y-122499949D01*
X108192468Y-122492567D01*
X108170535Y-122429887D01*
X108144614Y-122361538D01*
X108143548Y-122352762D01*
X108142598Y-122350046D01*
X108134604Y-122279101D01*
X108125000Y-122200000D01*
X108134603Y-122120905D01*
X108142598Y-122049953D01*
X108143548Y-122047236D01*
X108144614Y-122038462D01*
X108170531Y-121970124D01*
X108192468Y-121907432D01*
X108197107Y-121900048D01*
X108202317Y-121886312D01*
X108240468Y-121831039D01*
X108272808Y-121779572D01*
X108283093Y-121769286D01*
X108294755Y-121752392D01*
X108340626Y-121711753D01*
X108379572Y-121672808D01*
X108396820Y-121661969D01*
X108416556Y-121644486D01*
X108465668Y-121618709D01*
X108507432Y-121592468D01*
X108532143Y-121583821D01*
X108560642Y-121568864D01*
X108608835Y-121556985D01*
X108649953Y-121542598D01*
X108681739Y-121539016D01*
X108718638Y-121529922D01*
X108762457Y-121529922D01*
X108800000Y-121525692D01*
X108837543Y-121529922D01*
G37*
G36*
X106837543Y-119529922D02*
G01*
X106881362Y-119529922D01*
X106918261Y-119539016D01*
X106950046Y-119542598D01*
X106991160Y-119556984D01*
X107039358Y-119568864D01*
X107067858Y-119583822D01*
X107092567Y-119592468D01*
X107134325Y-119618706D01*
X107183444Y-119644486D01*
X107203181Y-119661972D01*
X107220427Y-119672808D01*
X107259364Y-119711745D01*
X107305245Y-119752392D01*
X107316908Y-119769289D01*
X107327191Y-119779572D01*
X107359520Y-119831023D01*
X107397683Y-119886312D01*
X107402894Y-119900052D01*
X107407531Y-119907432D01*
X107429455Y-119970090D01*
X107455386Y-120038462D01*
X107456451Y-120047240D01*
X107457401Y-120049953D01*
X107465382Y-120120790D01*
X107475000Y-120200000D01*
X107465381Y-120279215D01*
X107457401Y-120350046D01*
X107456452Y-120352757D01*
X107455386Y-120361538D01*
X107429451Y-120429921D01*
X107407531Y-120492567D01*
X107402894Y-120499945D01*
X107397683Y-120513688D01*
X107359513Y-120568986D01*
X107327191Y-120620427D01*
X107316910Y-120630707D01*
X107305245Y-120647608D01*
X107259355Y-120688262D01*
X107220427Y-120727191D01*
X107203185Y-120738024D01*
X107183444Y-120755514D01*
X107134315Y-120781298D01*
X107092567Y-120807531D01*
X107067864Y-120816174D01*
X107039358Y-120831136D01*
X106991151Y-120843017D01*
X106950046Y-120857401D01*
X106918268Y-120860981D01*
X106881362Y-120870078D01*
X106837534Y-120870078D01*
X106800000Y-120874307D01*
X106762466Y-120870078D01*
X106718638Y-120870078D01*
X106681731Y-120860981D01*
X106649953Y-120857401D01*
X106608845Y-120843016D01*
X106560642Y-120831136D01*
X106532137Y-120816175D01*
X106507432Y-120807531D01*
X106465678Y-120781295D01*
X106416556Y-120755514D01*
X106396816Y-120738026D01*
X106379572Y-120727191D01*
X106340635Y-120688254D01*
X106294755Y-120647608D01*
X106283091Y-120630710D01*
X106272808Y-120620427D01*
X106240475Y-120568970D01*
X106202317Y-120513688D01*
X106197106Y-120499949D01*
X106192468Y-120492567D01*
X106170535Y-120429887D01*
X106144614Y-120361538D01*
X106143548Y-120352762D01*
X106142598Y-120350046D01*
X106134604Y-120279101D01*
X106125000Y-120200000D01*
X106134603Y-120120905D01*
X106142598Y-120049953D01*
X106143548Y-120047236D01*
X106144614Y-120038462D01*
X106170531Y-119970124D01*
X106192468Y-119907432D01*
X106197107Y-119900048D01*
X106202317Y-119886312D01*
X106240468Y-119831039D01*
X106272808Y-119779572D01*
X106283093Y-119769286D01*
X106294755Y-119752392D01*
X106340626Y-119711753D01*
X106379572Y-119672808D01*
X106396820Y-119661969D01*
X106416556Y-119644486D01*
X106465668Y-119618709D01*
X106507432Y-119592468D01*
X106532143Y-119583821D01*
X106560642Y-119568864D01*
X106608835Y-119556985D01*
X106649953Y-119542598D01*
X106681739Y-119539016D01*
X106718638Y-119529922D01*
X106762457Y-119529922D01*
X106800000Y-119525692D01*
X106837543Y-119529922D01*
G37*
G36*
X108837543Y-119529922D02*
G01*
X108881362Y-119529922D01*
X108918261Y-119539016D01*
X108950046Y-119542598D01*
X108991160Y-119556984D01*
X109039358Y-119568864D01*
X109067858Y-119583822D01*
X109092567Y-119592468D01*
X109134325Y-119618706D01*
X109183444Y-119644486D01*
X109203181Y-119661972D01*
X109220427Y-119672808D01*
X109259364Y-119711745D01*
X109305245Y-119752392D01*
X109316908Y-119769289D01*
X109327191Y-119779572D01*
X109359520Y-119831023D01*
X109397683Y-119886312D01*
X109402894Y-119900052D01*
X109407531Y-119907432D01*
X109429455Y-119970090D01*
X109455386Y-120038462D01*
X109456451Y-120047240D01*
X109457401Y-120049953D01*
X109465382Y-120120790D01*
X109475000Y-120200000D01*
X109465381Y-120279215D01*
X109457401Y-120350046D01*
X109456452Y-120352757D01*
X109455386Y-120361538D01*
X109429451Y-120429921D01*
X109407531Y-120492567D01*
X109402894Y-120499945D01*
X109397683Y-120513688D01*
X109359513Y-120568986D01*
X109327191Y-120620427D01*
X109316910Y-120630707D01*
X109305245Y-120647608D01*
X109259355Y-120688262D01*
X109220427Y-120727191D01*
X109203185Y-120738024D01*
X109183444Y-120755514D01*
X109134315Y-120781298D01*
X109092567Y-120807531D01*
X109067864Y-120816174D01*
X109039358Y-120831136D01*
X108991151Y-120843017D01*
X108950046Y-120857401D01*
X108918268Y-120860981D01*
X108881362Y-120870078D01*
X108837534Y-120870078D01*
X108800000Y-120874307D01*
X108762466Y-120870078D01*
X108718638Y-120870078D01*
X108681731Y-120860981D01*
X108649953Y-120857401D01*
X108608845Y-120843016D01*
X108560642Y-120831136D01*
X108532137Y-120816175D01*
X108507432Y-120807531D01*
X108465678Y-120781295D01*
X108416556Y-120755514D01*
X108396816Y-120738026D01*
X108379572Y-120727191D01*
X108340635Y-120688254D01*
X108294755Y-120647608D01*
X108283091Y-120630710D01*
X108272808Y-120620427D01*
X108240475Y-120568970D01*
X108202317Y-120513688D01*
X108197106Y-120499949D01*
X108192468Y-120492567D01*
X108170535Y-120429887D01*
X108144614Y-120361538D01*
X108143548Y-120352762D01*
X108142598Y-120350046D01*
X108134604Y-120279101D01*
X108125000Y-120200000D01*
X108134603Y-120120905D01*
X108142598Y-120049953D01*
X108143548Y-120047236D01*
X108144614Y-120038462D01*
X108170531Y-119970124D01*
X108192468Y-119907432D01*
X108197107Y-119900048D01*
X108202317Y-119886312D01*
X108240468Y-119831039D01*
X108272808Y-119779572D01*
X108283093Y-119769286D01*
X108294755Y-119752392D01*
X108340626Y-119711753D01*
X108379572Y-119672808D01*
X108396820Y-119661969D01*
X108416556Y-119644486D01*
X108465668Y-119618709D01*
X108507432Y-119592468D01*
X108532143Y-119583821D01*
X108560642Y-119568864D01*
X108608835Y-119556985D01*
X108649953Y-119542598D01*
X108681739Y-119539016D01*
X108718638Y-119529922D01*
X108762457Y-119529922D01*
X108800000Y-119525692D01*
X108837543Y-119529922D01*
G37*
G36*
X106837543Y-117529922D02*
G01*
X106881362Y-117529922D01*
X106918261Y-117539016D01*
X106950046Y-117542598D01*
X106991160Y-117556984D01*
X107039358Y-117568864D01*
X107067858Y-117583822D01*
X107092567Y-117592468D01*
X107134325Y-117618706D01*
X107183444Y-117644486D01*
X107203181Y-117661972D01*
X107220427Y-117672808D01*
X107259364Y-117711745D01*
X107305245Y-117752392D01*
X107316908Y-117769289D01*
X107327191Y-117779572D01*
X107359520Y-117831023D01*
X107397683Y-117886312D01*
X107402894Y-117900052D01*
X107407531Y-117907432D01*
X107429455Y-117970090D01*
X107455386Y-118038462D01*
X107456451Y-118047240D01*
X107457401Y-118049953D01*
X107465382Y-118120790D01*
X107475000Y-118200000D01*
X107465381Y-118279215D01*
X107457401Y-118350046D01*
X107456452Y-118352757D01*
X107455386Y-118361538D01*
X107429451Y-118429921D01*
X107407531Y-118492567D01*
X107402894Y-118499945D01*
X107397683Y-118513688D01*
X107359513Y-118568986D01*
X107327191Y-118620427D01*
X107316910Y-118630707D01*
X107305245Y-118647608D01*
X107259355Y-118688262D01*
X107220427Y-118727191D01*
X107203185Y-118738024D01*
X107183444Y-118755514D01*
X107134315Y-118781298D01*
X107092567Y-118807531D01*
X107067864Y-118816174D01*
X107039358Y-118831136D01*
X106991151Y-118843017D01*
X106950046Y-118857401D01*
X106918268Y-118860981D01*
X106881362Y-118870078D01*
X106837534Y-118870078D01*
X106800000Y-118874307D01*
X106762466Y-118870078D01*
X106718638Y-118870078D01*
X106681731Y-118860981D01*
X106649953Y-118857401D01*
X106608845Y-118843016D01*
X106560642Y-118831136D01*
X106532137Y-118816175D01*
X106507432Y-118807531D01*
X106465678Y-118781295D01*
X106416556Y-118755514D01*
X106396816Y-118738026D01*
X106379572Y-118727191D01*
X106340635Y-118688254D01*
X106294755Y-118647608D01*
X106283091Y-118630710D01*
X106272808Y-118620427D01*
X106240475Y-118568970D01*
X106202317Y-118513688D01*
X106197106Y-118499949D01*
X106192468Y-118492567D01*
X106170535Y-118429887D01*
X106144614Y-118361538D01*
X106143548Y-118352762D01*
X106142598Y-118350046D01*
X106134604Y-118279101D01*
X106125000Y-118200000D01*
X106134603Y-118120905D01*
X106142598Y-118049953D01*
X106143548Y-118047236D01*
X106144614Y-118038462D01*
X106170531Y-117970124D01*
X106192468Y-117907432D01*
X106197107Y-117900048D01*
X106202317Y-117886312D01*
X106240468Y-117831039D01*
X106272808Y-117779572D01*
X106283093Y-117769286D01*
X106294755Y-117752392D01*
X106340626Y-117711753D01*
X106379572Y-117672808D01*
X106396820Y-117661969D01*
X106416556Y-117644486D01*
X106465668Y-117618709D01*
X106507432Y-117592468D01*
X106532143Y-117583821D01*
X106560642Y-117568864D01*
X106608835Y-117556985D01*
X106649953Y-117542598D01*
X106681739Y-117539016D01*
X106718638Y-117529922D01*
X106762457Y-117529922D01*
X106800000Y-117525692D01*
X106837543Y-117529922D01*
G37*
G36*
X108837543Y-117529922D02*
G01*
X108881362Y-117529922D01*
X108918261Y-117539016D01*
X108950046Y-117542598D01*
X108991160Y-117556984D01*
X109039358Y-117568864D01*
X109067858Y-117583822D01*
X109092567Y-117592468D01*
X109134325Y-117618706D01*
X109183444Y-117644486D01*
X109203181Y-117661972D01*
X109220427Y-117672808D01*
X109259364Y-117711745D01*
X109305245Y-117752392D01*
X109316908Y-117769289D01*
X109327191Y-117779572D01*
X109359520Y-117831023D01*
X109397683Y-117886312D01*
X109402894Y-117900052D01*
X109407531Y-117907432D01*
X109429455Y-117970090D01*
X109455386Y-118038462D01*
X109456451Y-118047240D01*
X109457401Y-118049953D01*
X109465382Y-118120790D01*
X109475000Y-118200000D01*
X109465381Y-118279215D01*
X109457401Y-118350046D01*
X109456452Y-118352757D01*
X109455386Y-118361538D01*
X109429451Y-118429921D01*
X109407531Y-118492567D01*
X109402894Y-118499945D01*
X109397683Y-118513688D01*
X109359513Y-118568986D01*
X109327191Y-118620427D01*
X109316910Y-118630707D01*
X109305245Y-118647608D01*
X109259355Y-118688262D01*
X109220427Y-118727191D01*
X109203185Y-118738024D01*
X109183444Y-118755514D01*
X109134315Y-118781298D01*
X109092567Y-118807531D01*
X109067864Y-118816174D01*
X109039358Y-118831136D01*
X108991151Y-118843017D01*
X108950046Y-118857401D01*
X108918268Y-118860981D01*
X108881362Y-118870078D01*
X108837534Y-118870078D01*
X108800000Y-118874307D01*
X108762466Y-118870078D01*
X108718638Y-118870078D01*
X108681731Y-118860981D01*
X108649953Y-118857401D01*
X108608845Y-118843016D01*
X108560642Y-118831136D01*
X108532137Y-118816175D01*
X108507432Y-118807531D01*
X108465678Y-118781295D01*
X108416556Y-118755514D01*
X108396816Y-118738026D01*
X108379572Y-118727191D01*
X108340635Y-118688254D01*
X108294755Y-118647608D01*
X108283091Y-118630710D01*
X108272808Y-118620427D01*
X108240475Y-118568970D01*
X108202317Y-118513688D01*
X108197106Y-118499949D01*
X108192468Y-118492567D01*
X108170535Y-118429887D01*
X108144614Y-118361538D01*
X108143548Y-118352762D01*
X108142598Y-118350046D01*
X108134604Y-118279101D01*
X108125000Y-118200000D01*
X108134603Y-118120905D01*
X108142598Y-118049953D01*
X108143548Y-118047236D01*
X108144614Y-118038462D01*
X108170531Y-117970124D01*
X108192468Y-117907432D01*
X108197107Y-117900048D01*
X108202317Y-117886312D01*
X108240468Y-117831039D01*
X108272808Y-117779572D01*
X108283093Y-117769286D01*
X108294755Y-117752392D01*
X108340626Y-117711753D01*
X108379572Y-117672808D01*
X108396820Y-117661969D01*
X108416556Y-117644486D01*
X108465668Y-117618709D01*
X108507432Y-117592468D01*
X108532143Y-117583821D01*
X108560642Y-117568864D01*
X108608835Y-117556985D01*
X108649953Y-117542598D01*
X108681739Y-117539016D01*
X108718638Y-117529922D01*
X108762457Y-117529922D01*
X108800000Y-117525692D01*
X108837543Y-117529922D01*
G37*
G36*
X106837543Y-115529922D02*
G01*
X106881362Y-115529922D01*
X106918261Y-115539016D01*
X106950046Y-115542598D01*
X106991160Y-115556984D01*
X107039358Y-115568864D01*
X107067858Y-115583822D01*
X107092567Y-115592468D01*
X107134325Y-115618706D01*
X107183444Y-115644486D01*
X107203181Y-115661972D01*
X107220427Y-115672808D01*
X107259364Y-115711745D01*
X107305245Y-115752392D01*
X107316908Y-115769289D01*
X107327191Y-115779572D01*
X107359520Y-115831023D01*
X107397683Y-115886312D01*
X107402894Y-115900052D01*
X107407531Y-115907432D01*
X107429455Y-115970090D01*
X107455386Y-116038462D01*
X107456451Y-116047240D01*
X107457401Y-116049953D01*
X107465382Y-116120790D01*
X107475000Y-116200000D01*
X107465381Y-116279215D01*
X107457401Y-116350046D01*
X107456452Y-116352757D01*
X107455386Y-116361538D01*
X107429451Y-116429921D01*
X107407531Y-116492567D01*
X107402894Y-116499945D01*
X107397683Y-116513688D01*
X107359513Y-116568986D01*
X107327191Y-116620427D01*
X107316910Y-116630707D01*
X107305245Y-116647608D01*
X107259355Y-116688262D01*
X107220427Y-116727191D01*
X107203185Y-116738024D01*
X107183444Y-116755514D01*
X107134315Y-116781298D01*
X107092567Y-116807531D01*
X107067864Y-116816174D01*
X107039358Y-116831136D01*
X106991151Y-116843017D01*
X106950046Y-116857401D01*
X106918268Y-116860981D01*
X106881362Y-116870078D01*
X106837534Y-116870078D01*
X106800000Y-116874307D01*
X106762466Y-116870078D01*
X106718638Y-116870078D01*
X106681731Y-116860981D01*
X106649953Y-116857401D01*
X106608845Y-116843016D01*
X106560642Y-116831136D01*
X106532137Y-116816175D01*
X106507432Y-116807531D01*
X106465678Y-116781295D01*
X106416556Y-116755514D01*
X106396816Y-116738026D01*
X106379572Y-116727191D01*
X106340635Y-116688254D01*
X106294755Y-116647608D01*
X106283091Y-116630710D01*
X106272808Y-116620427D01*
X106240475Y-116568970D01*
X106202317Y-116513688D01*
X106197106Y-116499949D01*
X106192468Y-116492567D01*
X106170535Y-116429887D01*
X106144614Y-116361538D01*
X106143548Y-116352762D01*
X106142598Y-116350046D01*
X106134604Y-116279101D01*
X106125000Y-116200000D01*
X106134603Y-116120905D01*
X106142598Y-116049953D01*
X106143548Y-116047236D01*
X106144614Y-116038462D01*
X106170531Y-115970124D01*
X106192468Y-115907432D01*
X106197107Y-115900048D01*
X106202317Y-115886312D01*
X106240468Y-115831039D01*
X106272808Y-115779572D01*
X106283093Y-115769286D01*
X106294755Y-115752392D01*
X106340626Y-115711753D01*
X106379572Y-115672808D01*
X106396820Y-115661969D01*
X106416556Y-115644486D01*
X106465668Y-115618709D01*
X106507432Y-115592468D01*
X106532143Y-115583821D01*
X106560642Y-115568864D01*
X106608835Y-115556985D01*
X106649953Y-115542598D01*
X106681739Y-115539016D01*
X106718638Y-115529922D01*
X106762457Y-115529922D01*
X106800000Y-115525692D01*
X106837543Y-115529922D01*
G37*
G36*
X108837543Y-115529922D02*
G01*
X108881362Y-115529922D01*
X108918261Y-115539016D01*
X108950046Y-115542598D01*
X108991160Y-115556984D01*
X109039358Y-115568864D01*
X109067858Y-115583822D01*
X109092567Y-115592468D01*
X109134325Y-115618706D01*
X109183444Y-115644486D01*
X109203181Y-115661972D01*
X109220427Y-115672808D01*
X109259364Y-115711745D01*
X109305245Y-115752392D01*
X109316908Y-115769289D01*
X109327191Y-115779572D01*
X109359520Y-115831023D01*
X109397683Y-115886312D01*
X109402894Y-115900052D01*
X109407531Y-115907432D01*
X109429455Y-115970090D01*
X109455386Y-116038462D01*
X109456451Y-116047240D01*
X109457401Y-116049953D01*
X109465382Y-116120790D01*
X109475000Y-116200000D01*
X109465381Y-116279215D01*
X109457401Y-116350046D01*
X109456452Y-116352757D01*
X109455386Y-116361538D01*
X109429451Y-116429921D01*
X109407531Y-116492567D01*
X109402894Y-116499945D01*
X109397683Y-116513688D01*
X109359513Y-116568986D01*
X109327191Y-116620427D01*
X109316910Y-116630707D01*
X109305245Y-116647608D01*
X109259355Y-116688262D01*
X109220427Y-116727191D01*
X109203185Y-116738024D01*
X109183444Y-116755514D01*
X109134315Y-116781298D01*
X109092567Y-116807531D01*
X109067864Y-116816174D01*
X109039358Y-116831136D01*
X108991151Y-116843017D01*
X108950046Y-116857401D01*
X108918268Y-116860981D01*
X108881362Y-116870078D01*
X108837534Y-116870078D01*
X108800000Y-116874307D01*
X108762466Y-116870078D01*
X108718638Y-116870078D01*
X108681731Y-116860981D01*
X108649953Y-116857401D01*
X108608845Y-116843016D01*
X108560642Y-116831136D01*
X108532137Y-116816175D01*
X108507432Y-116807531D01*
X108465678Y-116781295D01*
X108416556Y-116755514D01*
X108396816Y-116738026D01*
X108379572Y-116727191D01*
X108340635Y-116688254D01*
X108294755Y-116647608D01*
X108283091Y-116630710D01*
X108272808Y-116620427D01*
X108240475Y-116568970D01*
X108202317Y-116513688D01*
X108197106Y-116499949D01*
X108192468Y-116492567D01*
X108170535Y-116429887D01*
X108144614Y-116361538D01*
X108143548Y-116352762D01*
X108142598Y-116350046D01*
X108134604Y-116279101D01*
X108125000Y-116200000D01*
X108134603Y-116120905D01*
X108142598Y-116049953D01*
X108143548Y-116047236D01*
X108144614Y-116038462D01*
X108170531Y-115970124D01*
X108192468Y-115907432D01*
X108197107Y-115900048D01*
X108202317Y-115886312D01*
X108240468Y-115831039D01*
X108272808Y-115779572D01*
X108283093Y-115769286D01*
X108294755Y-115752392D01*
X108340626Y-115711753D01*
X108379572Y-115672808D01*
X108396820Y-115661969D01*
X108416556Y-115644486D01*
X108465668Y-115618709D01*
X108507432Y-115592468D01*
X108532143Y-115583821D01*
X108560642Y-115568864D01*
X108608835Y-115556985D01*
X108649953Y-115542598D01*
X108681739Y-115539016D01*
X108718638Y-115529922D01*
X108762457Y-115529922D01*
X108800000Y-115525692D01*
X108837543Y-115529922D01*
G37*
G36*
X106837543Y-113529922D02*
G01*
X106881362Y-113529922D01*
X106918261Y-113539016D01*
X106950046Y-113542598D01*
X106991160Y-113556984D01*
X107039358Y-113568864D01*
X107067858Y-113583822D01*
X107092567Y-113592468D01*
X107134325Y-113618706D01*
X107183444Y-113644486D01*
X107203181Y-113661972D01*
X107220427Y-113672808D01*
X107259364Y-113711745D01*
X107305245Y-113752392D01*
X107316908Y-113769289D01*
X107327191Y-113779572D01*
X107359520Y-113831023D01*
X107397683Y-113886312D01*
X107402894Y-113900052D01*
X107407531Y-113907432D01*
X107429455Y-113970090D01*
X107455386Y-114038462D01*
X107456451Y-114047240D01*
X107457401Y-114049953D01*
X107465382Y-114120790D01*
X107475000Y-114200000D01*
X107465381Y-114279215D01*
X107457401Y-114350046D01*
X107456452Y-114352757D01*
X107455386Y-114361538D01*
X107429451Y-114429921D01*
X107407531Y-114492567D01*
X107402894Y-114499945D01*
X107397683Y-114513688D01*
X107359513Y-114568986D01*
X107327191Y-114620427D01*
X107316910Y-114630707D01*
X107305245Y-114647608D01*
X107259355Y-114688262D01*
X107220427Y-114727191D01*
X107203185Y-114738024D01*
X107183444Y-114755514D01*
X107134315Y-114781298D01*
X107092567Y-114807531D01*
X107067864Y-114816174D01*
X107039358Y-114831136D01*
X106991151Y-114843017D01*
X106950046Y-114857401D01*
X106918268Y-114860981D01*
X106881362Y-114870078D01*
X106837534Y-114870078D01*
X106800000Y-114874307D01*
X106762466Y-114870078D01*
X106718638Y-114870078D01*
X106681731Y-114860981D01*
X106649953Y-114857401D01*
X106608845Y-114843016D01*
X106560642Y-114831136D01*
X106532137Y-114816175D01*
X106507432Y-114807531D01*
X106465678Y-114781295D01*
X106416556Y-114755514D01*
X106396816Y-114738026D01*
X106379572Y-114727191D01*
X106340635Y-114688254D01*
X106294755Y-114647608D01*
X106283091Y-114630710D01*
X106272808Y-114620427D01*
X106240475Y-114568970D01*
X106202317Y-114513688D01*
X106197106Y-114499949D01*
X106192468Y-114492567D01*
X106170535Y-114429887D01*
X106144614Y-114361538D01*
X106143548Y-114352762D01*
X106142598Y-114350046D01*
X106134604Y-114279101D01*
X106125000Y-114200000D01*
X106134603Y-114120905D01*
X106142598Y-114049953D01*
X106143548Y-114047236D01*
X106144614Y-114038462D01*
X106170531Y-113970124D01*
X106192468Y-113907432D01*
X106197107Y-113900048D01*
X106202317Y-113886312D01*
X106240468Y-113831039D01*
X106272808Y-113779572D01*
X106283093Y-113769286D01*
X106294755Y-113752392D01*
X106340626Y-113711753D01*
X106379572Y-113672808D01*
X106396820Y-113661969D01*
X106416556Y-113644486D01*
X106465668Y-113618709D01*
X106507432Y-113592468D01*
X106532143Y-113583821D01*
X106560642Y-113568864D01*
X106608835Y-113556985D01*
X106649953Y-113542598D01*
X106681739Y-113539016D01*
X106718638Y-113529922D01*
X106762457Y-113529922D01*
X106800000Y-113525692D01*
X106837543Y-113529922D01*
G37*
G36*
X108837543Y-113529922D02*
G01*
X108881362Y-113529922D01*
X108918261Y-113539016D01*
X108950046Y-113542598D01*
X108991160Y-113556984D01*
X109039358Y-113568864D01*
X109067858Y-113583822D01*
X109092567Y-113592468D01*
X109134325Y-113618706D01*
X109183444Y-113644486D01*
X109203181Y-113661972D01*
X109220427Y-113672808D01*
X109259364Y-113711745D01*
X109305245Y-113752392D01*
X109316908Y-113769289D01*
X109327191Y-113779572D01*
X109359520Y-113831023D01*
X109397683Y-113886312D01*
X109402894Y-113900052D01*
X109407531Y-113907432D01*
X109429455Y-113970090D01*
X109455386Y-114038462D01*
X109456451Y-114047240D01*
X109457401Y-114049953D01*
X109465382Y-114120790D01*
X109475000Y-114200000D01*
X109465381Y-114279215D01*
X109457401Y-114350046D01*
X109456452Y-114352757D01*
X109455386Y-114361538D01*
X109429451Y-114429921D01*
X109407531Y-114492567D01*
X109402894Y-114499945D01*
X109397683Y-114513688D01*
X109359513Y-114568986D01*
X109327191Y-114620427D01*
X109316910Y-114630707D01*
X109305245Y-114647608D01*
X109259355Y-114688262D01*
X109220427Y-114727191D01*
X109203185Y-114738024D01*
X109183444Y-114755514D01*
X109134315Y-114781298D01*
X109092567Y-114807531D01*
X109067864Y-114816174D01*
X109039358Y-114831136D01*
X108991151Y-114843017D01*
X108950046Y-114857401D01*
X108918268Y-114860981D01*
X108881362Y-114870078D01*
X108837534Y-114870078D01*
X108800000Y-114874307D01*
X108762466Y-114870078D01*
X108718638Y-114870078D01*
X108681731Y-114860981D01*
X108649953Y-114857401D01*
X108608845Y-114843016D01*
X108560642Y-114831136D01*
X108532137Y-114816175D01*
X108507432Y-114807531D01*
X108465678Y-114781295D01*
X108416556Y-114755514D01*
X108396816Y-114738026D01*
X108379572Y-114727191D01*
X108340635Y-114688254D01*
X108294755Y-114647608D01*
X108283091Y-114630710D01*
X108272808Y-114620427D01*
X108240475Y-114568970D01*
X108202317Y-114513688D01*
X108197106Y-114499949D01*
X108192468Y-114492567D01*
X108170535Y-114429887D01*
X108144614Y-114361538D01*
X108143548Y-114352762D01*
X108142598Y-114350046D01*
X108134604Y-114279101D01*
X108125000Y-114200000D01*
X108134603Y-114120905D01*
X108142598Y-114049953D01*
X108143548Y-114047236D01*
X108144614Y-114038462D01*
X108170531Y-113970124D01*
X108192468Y-113907432D01*
X108197107Y-113900048D01*
X108202317Y-113886312D01*
X108240468Y-113831039D01*
X108272808Y-113779572D01*
X108283093Y-113769286D01*
X108294755Y-113752392D01*
X108340626Y-113711753D01*
X108379572Y-113672808D01*
X108396820Y-113661969D01*
X108416556Y-113644486D01*
X108465668Y-113618709D01*
X108507432Y-113592468D01*
X108532143Y-113583821D01*
X108560642Y-113568864D01*
X108608835Y-113556985D01*
X108649953Y-113542598D01*
X108681739Y-113539016D01*
X108718638Y-113529922D01*
X108762457Y-113529922D01*
X108800000Y-113525692D01*
X108837543Y-113529922D01*
G37*
G36*
X106837543Y-111529922D02*
G01*
X106881362Y-111529922D01*
X106918261Y-111539016D01*
X106950046Y-111542598D01*
X106991160Y-111556984D01*
X107039358Y-111568864D01*
X107067858Y-111583822D01*
X107092567Y-111592468D01*
X107134325Y-111618706D01*
X107183444Y-111644486D01*
X107203181Y-111661972D01*
X107220427Y-111672808D01*
X107259364Y-111711745D01*
X107305245Y-111752392D01*
X107316908Y-111769289D01*
X107327191Y-111779572D01*
X107359520Y-111831023D01*
X107397683Y-111886312D01*
X107402894Y-111900052D01*
X107407531Y-111907432D01*
X107429455Y-111970090D01*
X107455386Y-112038462D01*
X107456451Y-112047240D01*
X107457401Y-112049953D01*
X107465382Y-112120790D01*
X107475000Y-112200000D01*
X107465381Y-112279215D01*
X107457401Y-112350046D01*
X107456452Y-112352757D01*
X107455386Y-112361538D01*
X107429451Y-112429921D01*
X107407531Y-112492567D01*
X107402894Y-112499945D01*
X107397683Y-112513688D01*
X107359513Y-112568986D01*
X107327191Y-112620427D01*
X107316910Y-112630707D01*
X107305245Y-112647608D01*
X107259355Y-112688262D01*
X107220427Y-112727191D01*
X107203185Y-112738024D01*
X107183444Y-112755514D01*
X107134315Y-112781298D01*
X107092567Y-112807531D01*
X107067864Y-112816174D01*
X107039358Y-112831136D01*
X106991151Y-112843017D01*
X106950046Y-112857401D01*
X106918268Y-112860981D01*
X106881362Y-112870078D01*
X106837534Y-112870078D01*
X106800000Y-112874307D01*
X106762466Y-112870078D01*
X106718638Y-112870078D01*
X106681731Y-112860981D01*
X106649953Y-112857401D01*
X106608845Y-112843016D01*
X106560642Y-112831136D01*
X106532137Y-112816175D01*
X106507432Y-112807531D01*
X106465678Y-112781295D01*
X106416556Y-112755514D01*
X106396816Y-112738026D01*
X106379572Y-112727191D01*
X106340635Y-112688254D01*
X106294755Y-112647608D01*
X106283091Y-112630710D01*
X106272808Y-112620427D01*
X106240475Y-112568970D01*
X106202317Y-112513688D01*
X106197106Y-112499949D01*
X106192468Y-112492567D01*
X106170535Y-112429887D01*
X106144614Y-112361538D01*
X106143548Y-112352762D01*
X106142598Y-112350046D01*
X106134604Y-112279101D01*
X106125000Y-112200000D01*
X106134603Y-112120905D01*
X106142598Y-112049953D01*
X106143548Y-112047236D01*
X106144614Y-112038462D01*
X106170531Y-111970124D01*
X106192468Y-111907432D01*
X106197107Y-111900048D01*
X106202317Y-111886312D01*
X106240468Y-111831039D01*
X106272808Y-111779572D01*
X106283093Y-111769286D01*
X106294755Y-111752392D01*
X106340626Y-111711753D01*
X106379572Y-111672808D01*
X106396820Y-111661969D01*
X106416556Y-111644486D01*
X106465668Y-111618709D01*
X106507432Y-111592468D01*
X106532143Y-111583821D01*
X106560642Y-111568864D01*
X106608835Y-111556985D01*
X106649953Y-111542598D01*
X106681739Y-111539016D01*
X106718638Y-111529922D01*
X106762457Y-111529922D01*
X106800000Y-111525692D01*
X106837543Y-111529922D01*
G37*
G36*
X108837543Y-111529922D02*
G01*
X108881362Y-111529922D01*
X108918261Y-111539016D01*
X108950046Y-111542598D01*
X108991160Y-111556984D01*
X109039358Y-111568864D01*
X109067858Y-111583822D01*
X109092567Y-111592468D01*
X109134325Y-111618706D01*
X109183444Y-111644486D01*
X109203181Y-111661972D01*
X109220427Y-111672808D01*
X109259364Y-111711745D01*
X109305245Y-111752392D01*
X109316908Y-111769289D01*
X109327191Y-111779572D01*
X109359520Y-111831023D01*
X109397683Y-111886312D01*
X109402894Y-111900052D01*
X109407531Y-111907432D01*
X109429455Y-111970090D01*
X109455386Y-112038462D01*
X109456451Y-112047240D01*
X109457401Y-112049953D01*
X109465382Y-112120790D01*
X109475000Y-112200000D01*
X109465381Y-112279215D01*
X109457401Y-112350046D01*
X109456452Y-112352757D01*
X109455386Y-112361538D01*
X109429451Y-112429921D01*
X109407531Y-112492567D01*
X109402894Y-112499945D01*
X109397683Y-112513688D01*
X109359513Y-112568986D01*
X109327191Y-112620427D01*
X109316910Y-112630707D01*
X109305245Y-112647608D01*
X109259355Y-112688262D01*
X109220427Y-112727191D01*
X109203185Y-112738024D01*
X109183444Y-112755514D01*
X109134315Y-112781298D01*
X109092567Y-112807531D01*
X109067864Y-112816174D01*
X109039358Y-112831136D01*
X108991151Y-112843017D01*
X108950046Y-112857401D01*
X108918268Y-112860981D01*
X108881362Y-112870078D01*
X108837534Y-112870078D01*
X108800000Y-112874307D01*
X108762466Y-112870078D01*
X108718638Y-112870078D01*
X108681731Y-112860981D01*
X108649953Y-112857401D01*
X108608845Y-112843016D01*
X108560642Y-112831136D01*
X108532137Y-112816175D01*
X108507432Y-112807531D01*
X108465678Y-112781295D01*
X108416556Y-112755514D01*
X108396816Y-112738026D01*
X108379572Y-112727191D01*
X108340635Y-112688254D01*
X108294755Y-112647608D01*
X108283091Y-112630710D01*
X108272808Y-112620427D01*
X108240475Y-112568970D01*
X108202317Y-112513688D01*
X108197106Y-112499949D01*
X108192468Y-112492567D01*
X108170535Y-112429887D01*
X108144614Y-112361538D01*
X108143548Y-112352762D01*
X108142598Y-112350046D01*
X108134604Y-112279101D01*
X108125000Y-112200000D01*
X108134603Y-112120905D01*
X108142598Y-112049953D01*
X108143548Y-112047236D01*
X108144614Y-112038462D01*
X108170531Y-111970124D01*
X108192468Y-111907432D01*
X108197107Y-111900048D01*
X108202317Y-111886312D01*
X108240468Y-111831039D01*
X108272808Y-111779572D01*
X108283093Y-111769286D01*
X108294755Y-111752392D01*
X108340626Y-111711753D01*
X108379572Y-111672808D01*
X108396820Y-111661969D01*
X108416556Y-111644486D01*
X108465668Y-111618709D01*
X108507432Y-111592468D01*
X108532143Y-111583821D01*
X108560642Y-111568864D01*
X108608835Y-111556985D01*
X108649953Y-111542598D01*
X108681739Y-111539016D01*
X108718638Y-111529922D01*
X108762457Y-111529922D01*
X108800000Y-111525692D01*
X108837543Y-111529922D01*
G37*
G36*
X106837543Y-109529922D02*
G01*
X106881362Y-109529922D01*
X106918261Y-109539016D01*
X106950046Y-109542598D01*
X106991160Y-109556984D01*
X107039358Y-109568864D01*
X107067858Y-109583822D01*
X107092567Y-109592468D01*
X107134325Y-109618706D01*
X107183444Y-109644486D01*
X107203181Y-109661972D01*
X107220427Y-109672808D01*
X107259364Y-109711745D01*
X107305245Y-109752392D01*
X107316908Y-109769289D01*
X107327191Y-109779572D01*
X107359520Y-109831023D01*
X107397683Y-109886312D01*
X107402894Y-109900052D01*
X107407531Y-109907432D01*
X107429455Y-109970090D01*
X107455386Y-110038462D01*
X107456451Y-110047240D01*
X107457401Y-110049953D01*
X107465382Y-110120790D01*
X107475000Y-110200000D01*
X107465381Y-110279215D01*
X107457401Y-110350046D01*
X107456452Y-110352757D01*
X107455386Y-110361538D01*
X107429451Y-110429921D01*
X107407531Y-110492567D01*
X107402894Y-110499945D01*
X107397683Y-110513688D01*
X107359513Y-110568986D01*
X107327191Y-110620427D01*
X107316910Y-110630707D01*
X107305245Y-110647608D01*
X107259355Y-110688262D01*
X107220427Y-110727191D01*
X107203185Y-110738024D01*
X107183444Y-110755514D01*
X107134315Y-110781298D01*
X107092567Y-110807531D01*
X107067864Y-110816174D01*
X107039358Y-110831136D01*
X106991151Y-110843017D01*
X106950046Y-110857401D01*
X106918268Y-110860981D01*
X106881362Y-110870078D01*
X106837534Y-110870078D01*
X106800000Y-110874307D01*
X106762466Y-110870078D01*
X106718638Y-110870078D01*
X106681731Y-110860981D01*
X106649953Y-110857401D01*
X106608845Y-110843016D01*
X106560642Y-110831136D01*
X106532137Y-110816175D01*
X106507432Y-110807531D01*
X106465678Y-110781295D01*
X106416556Y-110755514D01*
X106396816Y-110738026D01*
X106379572Y-110727191D01*
X106340635Y-110688254D01*
X106294755Y-110647608D01*
X106283091Y-110630710D01*
X106272808Y-110620427D01*
X106240475Y-110568970D01*
X106202317Y-110513688D01*
X106197106Y-110499949D01*
X106192468Y-110492567D01*
X106170535Y-110429887D01*
X106144614Y-110361538D01*
X106143548Y-110352762D01*
X106142598Y-110350046D01*
X106134604Y-110279101D01*
X106125000Y-110200000D01*
X106134603Y-110120905D01*
X106142598Y-110049953D01*
X106143548Y-110047236D01*
X106144614Y-110038462D01*
X106170531Y-109970124D01*
X106192468Y-109907432D01*
X106197107Y-109900048D01*
X106202317Y-109886312D01*
X106240468Y-109831039D01*
X106272808Y-109779572D01*
X106283093Y-109769286D01*
X106294755Y-109752392D01*
X106340626Y-109711753D01*
X106379572Y-109672808D01*
X106396820Y-109661969D01*
X106416556Y-109644486D01*
X106465668Y-109618709D01*
X106507432Y-109592468D01*
X106532143Y-109583821D01*
X106560642Y-109568864D01*
X106608835Y-109556985D01*
X106649953Y-109542598D01*
X106681739Y-109539016D01*
X106718638Y-109529922D01*
X106762457Y-109529922D01*
X106800000Y-109525692D01*
X106837543Y-109529922D01*
G37*
G36*
X108837543Y-109529922D02*
G01*
X108881362Y-109529922D01*
X108918261Y-109539016D01*
X108950046Y-109542598D01*
X108991160Y-109556984D01*
X109039358Y-109568864D01*
X109067858Y-109583822D01*
X109092567Y-109592468D01*
X109134325Y-109618706D01*
X109183444Y-109644486D01*
X109203181Y-109661972D01*
X109220427Y-109672808D01*
X109259364Y-109711745D01*
X109305245Y-109752392D01*
X109316908Y-109769289D01*
X109327191Y-109779572D01*
X109359520Y-109831023D01*
X109397683Y-109886312D01*
X109402894Y-109900052D01*
X109407531Y-109907432D01*
X109429455Y-109970090D01*
X109455386Y-110038462D01*
X109456451Y-110047240D01*
X109457401Y-110049953D01*
X109465382Y-110120790D01*
X109475000Y-110200000D01*
X109465381Y-110279215D01*
X109457401Y-110350046D01*
X109456452Y-110352757D01*
X109455386Y-110361538D01*
X109429451Y-110429921D01*
X109407531Y-110492567D01*
X109402894Y-110499945D01*
X109397683Y-110513688D01*
X109359513Y-110568986D01*
X109327191Y-110620427D01*
X109316910Y-110630707D01*
X109305245Y-110647608D01*
X109259355Y-110688262D01*
X109220427Y-110727191D01*
X109203185Y-110738024D01*
X109183444Y-110755514D01*
X109134315Y-110781298D01*
X109092567Y-110807531D01*
X109067864Y-110816174D01*
X109039358Y-110831136D01*
X108991151Y-110843017D01*
X108950046Y-110857401D01*
X108918268Y-110860981D01*
X108881362Y-110870078D01*
X108837534Y-110870078D01*
X108800000Y-110874307D01*
X108762466Y-110870078D01*
X108718638Y-110870078D01*
X108681731Y-110860981D01*
X108649953Y-110857401D01*
X108608845Y-110843016D01*
X108560642Y-110831136D01*
X108532137Y-110816175D01*
X108507432Y-110807531D01*
X108465678Y-110781295D01*
X108416556Y-110755514D01*
X108396816Y-110738026D01*
X108379572Y-110727191D01*
X108340635Y-110688254D01*
X108294755Y-110647608D01*
X108283091Y-110630710D01*
X108272808Y-110620427D01*
X108240475Y-110568970D01*
X108202317Y-110513688D01*
X108197106Y-110499949D01*
X108192468Y-110492567D01*
X108170535Y-110429887D01*
X108144614Y-110361538D01*
X108143548Y-110352762D01*
X108142598Y-110350046D01*
X108134604Y-110279101D01*
X108125000Y-110200000D01*
X108134603Y-110120905D01*
X108142598Y-110049953D01*
X108143548Y-110047236D01*
X108144614Y-110038462D01*
X108170531Y-109970124D01*
X108192468Y-109907432D01*
X108197107Y-109900048D01*
X108202317Y-109886312D01*
X108240468Y-109831039D01*
X108272808Y-109779572D01*
X108283093Y-109769286D01*
X108294755Y-109752392D01*
X108340626Y-109711753D01*
X108379572Y-109672808D01*
X108396820Y-109661969D01*
X108416556Y-109644486D01*
X108465668Y-109618709D01*
X108507432Y-109592468D01*
X108532143Y-109583821D01*
X108560642Y-109568864D01*
X108608835Y-109556985D01*
X108649953Y-109542598D01*
X108681739Y-109539016D01*
X108718638Y-109529922D01*
X108762457Y-109529922D01*
X108800000Y-109525692D01*
X108837543Y-109529922D01*
G37*
G36*
X106837543Y-107529922D02*
G01*
X106881362Y-107529922D01*
X106918261Y-107539016D01*
X106950046Y-107542598D01*
X106991160Y-107556984D01*
X107039358Y-107568864D01*
X107067858Y-107583822D01*
X107092567Y-107592468D01*
X107134325Y-107618706D01*
X107183444Y-107644486D01*
X107203181Y-107661972D01*
X107220427Y-107672808D01*
X107259364Y-107711745D01*
X107305245Y-107752392D01*
X107316908Y-107769289D01*
X107327191Y-107779572D01*
X107359520Y-107831023D01*
X107397683Y-107886312D01*
X107402894Y-107900052D01*
X107407531Y-107907432D01*
X107429455Y-107970090D01*
X107455386Y-108038462D01*
X107456451Y-108047240D01*
X107457401Y-108049953D01*
X107465382Y-108120790D01*
X107475000Y-108200000D01*
X107465381Y-108279215D01*
X107457401Y-108350046D01*
X107456452Y-108352757D01*
X107455386Y-108361538D01*
X107429451Y-108429921D01*
X107407531Y-108492567D01*
X107402894Y-108499945D01*
X107397683Y-108513688D01*
X107359513Y-108568986D01*
X107327191Y-108620427D01*
X107316910Y-108630707D01*
X107305245Y-108647608D01*
X107259355Y-108688262D01*
X107220427Y-108727191D01*
X107203185Y-108738024D01*
X107183444Y-108755514D01*
X107134315Y-108781298D01*
X107092567Y-108807531D01*
X107067864Y-108816174D01*
X107039358Y-108831136D01*
X106991151Y-108843017D01*
X106950046Y-108857401D01*
X106918268Y-108860981D01*
X106881362Y-108870078D01*
X106837534Y-108870078D01*
X106800000Y-108874307D01*
X106762466Y-108870078D01*
X106718638Y-108870078D01*
X106681731Y-108860981D01*
X106649953Y-108857401D01*
X106608845Y-108843016D01*
X106560642Y-108831136D01*
X106532137Y-108816175D01*
X106507432Y-108807531D01*
X106465678Y-108781295D01*
X106416556Y-108755514D01*
X106396816Y-108738026D01*
X106379572Y-108727191D01*
X106340635Y-108688254D01*
X106294755Y-108647608D01*
X106283091Y-108630710D01*
X106272808Y-108620427D01*
X106240475Y-108568970D01*
X106202317Y-108513688D01*
X106197106Y-108499949D01*
X106192468Y-108492567D01*
X106170535Y-108429887D01*
X106144614Y-108361538D01*
X106143548Y-108352762D01*
X106142598Y-108350046D01*
X106134604Y-108279101D01*
X106125000Y-108200000D01*
X106134603Y-108120905D01*
X106142598Y-108049953D01*
X106143548Y-108047236D01*
X106144614Y-108038462D01*
X106170531Y-107970124D01*
X106192468Y-107907432D01*
X106197107Y-107900048D01*
X106202317Y-107886312D01*
X106240468Y-107831039D01*
X106272808Y-107779572D01*
X106283093Y-107769286D01*
X106294755Y-107752392D01*
X106340626Y-107711753D01*
X106379572Y-107672808D01*
X106396820Y-107661969D01*
X106416556Y-107644486D01*
X106465668Y-107618709D01*
X106507432Y-107592468D01*
X106532143Y-107583821D01*
X106560642Y-107568864D01*
X106608835Y-107556985D01*
X106649953Y-107542598D01*
X106681739Y-107539016D01*
X106718638Y-107529922D01*
X106762457Y-107529922D01*
X106800000Y-107525692D01*
X106837543Y-107529922D01*
G37*
G36*
X108837543Y-107529922D02*
G01*
X108881362Y-107529922D01*
X108918261Y-107539016D01*
X108950046Y-107542598D01*
X108991160Y-107556984D01*
X109039358Y-107568864D01*
X109067858Y-107583822D01*
X109092567Y-107592468D01*
X109134325Y-107618706D01*
X109183444Y-107644486D01*
X109203181Y-107661972D01*
X109220427Y-107672808D01*
X109259364Y-107711745D01*
X109305245Y-107752392D01*
X109316908Y-107769289D01*
X109327191Y-107779572D01*
X109359520Y-107831023D01*
X109397683Y-107886312D01*
X109402894Y-107900052D01*
X109407531Y-107907432D01*
X109429455Y-107970090D01*
X109455386Y-108038462D01*
X109456451Y-108047240D01*
X109457401Y-108049953D01*
X109465382Y-108120790D01*
X109475000Y-108200000D01*
X109465381Y-108279215D01*
X109457401Y-108350046D01*
X109456452Y-108352757D01*
X109455386Y-108361538D01*
X109429451Y-108429921D01*
X109407531Y-108492567D01*
X109402894Y-108499945D01*
X109397683Y-108513688D01*
X109359513Y-108568986D01*
X109327191Y-108620427D01*
X109316910Y-108630707D01*
X109305245Y-108647608D01*
X109259355Y-108688262D01*
X109220427Y-108727191D01*
X109203185Y-108738024D01*
X109183444Y-108755514D01*
X109134315Y-108781298D01*
X109092567Y-108807531D01*
X109067864Y-108816174D01*
X109039358Y-108831136D01*
X108991151Y-108843017D01*
X108950046Y-108857401D01*
X108918268Y-108860981D01*
X108881362Y-108870078D01*
X108837534Y-108870078D01*
X108800000Y-108874307D01*
X108762466Y-108870078D01*
X108718638Y-108870078D01*
X108681731Y-108860981D01*
X108649953Y-108857401D01*
X108608845Y-108843016D01*
X108560642Y-108831136D01*
X108532137Y-108816175D01*
X108507432Y-108807531D01*
X108465678Y-108781295D01*
X108416556Y-108755514D01*
X108396816Y-108738026D01*
X108379572Y-108727191D01*
X108340635Y-108688254D01*
X108294755Y-108647608D01*
X108283091Y-108630710D01*
X108272808Y-108620427D01*
X108240475Y-108568970D01*
X108202317Y-108513688D01*
X108197106Y-108499949D01*
X108192468Y-108492567D01*
X108170535Y-108429887D01*
X108144614Y-108361538D01*
X108143548Y-108352762D01*
X108142598Y-108350046D01*
X108134604Y-108279101D01*
X108125000Y-108200000D01*
X108134603Y-108120905D01*
X108142598Y-108049953D01*
X108143548Y-108047236D01*
X108144614Y-108038462D01*
X108170531Y-107970124D01*
X108192468Y-107907432D01*
X108197107Y-107900048D01*
X108202317Y-107886312D01*
X108240468Y-107831039D01*
X108272808Y-107779572D01*
X108283093Y-107769286D01*
X108294755Y-107752392D01*
X108340626Y-107711753D01*
X108379572Y-107672808D01*
X108396820Y-107661969D01*
X108416556Y-107644486D01*
X108465668Y-107618709D01*
X108507432Y-107592468D01*
X108532143Y-107583821D01*
X108560642Y-107568864D01*
X108608835Y-107556985D01*
X108649953Y-107542598D01*
X108681739Y-107539016D01*
X108718638Y-107529922D01*
X108762457Y-107529922D01*
X108800000Y-107525692D01*
X108837543Y-107529922D01*
G37*
G36*
X106837543Y-105529922D02*
G01*
X106881362Y-105529922D01*
X106918261Y-105539016D01*
X106950046Y-105542598D01*
X106991160Y-105556984D01*
X107039358Y-105568864D01*
X107067858Y-105583822D01*
X107092567Y-105592468D01*
X107134325Y-105618706D01*
X107183444Y-105644486D01*
X107203181Y-105661972D01*
X107220427Y-105672808D01*
X107259364Y-105711745D01*
X107305245Y-105752392D01*
X107316908Y-105769289D01*
X107327191Y-105779572D01*
X107359520Y-105831023D01*
X107397683Y-105886312D01*
X107402894Y-105900052D01*
X107407531Y-105907432D01*
X107429455Y-105970090D01*
X107455386Y-106038462D01*
X107456451Y-106047240D01*
X107457401Y-106049953D01*
X107465382Y-106120790D01*
X107475000Y-106200000D01*
X107465381Y-106279215D01*
X107457401Y-106350046D01*
X107456452Y-106352757D01*
X107455386Y-106361538D01*
X107429451Y-106429921D01*
X107407531Y-106492567D01*
X107402894Y-106499945D01*
X107397683Y-106513688D01*
X107359513Y-106568986D01*
X107327191Y-106620427D01*
X107316910Y-106630707D01*
X107305245Y-106647608D01*
X107259355Y-106688262D01*
X107220427Y-106727191D01*
X107203185Y-106738024D01*
X107183444Y-106755514D01*
X107134315Y-106781298D01*
X107092567Y-106807531D01*
X107067864Y-106816174D01*
X107039358Y-106831136D01*
X106991151Y-106843017D01*
X106950046Y-106857401D01*
X106918268Y-106860981D01*
X106881362Y-106870078D01*
X106837534Y-106870078D01*
X106800000Y-106874307D01*
X106762466Y-106870078D01*
X106718638Y-106870078D01*
X106681731Y-106860981D01*
X106649953Y-106857401D01*
X106608845Y-106843016D01*
X106560642Y-106831136D01*
X106532137Y-106816175D01*
X106507432Y-106807531D01*
X106465678Y-106781295D01*
X106416556Y-106755514D01*
X106396816Y-106738026D01*
X106379572Y-106727191D01*
X106340635Y-106688254D01*
X106294755Y-106647608D01*
X106283091Y-106630710D01*
X106272808Y-106620427D01*
X106240475Y-106568970D01*
X106202317Y-106513688D01*
X106197106Y-106499949D01*
X106192468Y-106492567D01*
X106170535Y-106429887D01*
X106144614Y-106361538D01*
X106143548Y-106352762D01*
X106142598Y-106350046D01*
X106134604Y-106279101D01*
X106125000Y-106200000D01*
X106134603Y-106120905D01*
X106142598Y-106049953D01*
X106143548Y-106047236D01*
X106144614Y-106038462D01*
X106170531Y-105970124D01*
X106192468Y-105907432D01*
X106197107Y-105900048D01*
X106202317Y-105886312D01*
X106240468Y-105831039D01*
X106272808Y-105779572D01*
X106283093Y-105769286D01*
X106294755Y-105752392D01*
X106340626Y-105711753D01*
X106379572Y-105672808D01*
X106396820Y-105661969D01*
X106416556Y-105644486D01*
X106465668Y-105618709D01*
X106507432Y-105592468D01*
X106532143Y-105583821D01*
X106560642Y-105568864D01*
X106608835Y-105556985D01*
X106649953Y-105542598D01*
X106681739Y-105539016D01*
X106718638Y-105529922D01*
X106762457Y-105529922D01*
X106800000Y-105525692D01*
X106837543Y-105529922D01*
G37*
G36*
X108837543Y-105529922D02*
G01*
X108881362Y-105529922D01*
X108918261Y-105539016D01*
X108950046Y-105542598D01*
X108991160Y-105556984D01*
X109039358Y-105568864D01*
X109067858Y-105583822D01*
X109092567Y-105592468D01*
X109134325Y-105618706D01*
X109183444Y-105644486D01*
X109203181Y-105661972D01*
X109220427Y-105672808D01*
X109259364Y-105711745D01*
X109305245Y-105752392D01*
X109316908Y-105769289D01*
X109327191Y-105779572D01*
X109359520Y-105831023D01*
X109397683Y-105886312D01*
X109402894Y-105900052D01*
X109407531Y-105907432D01*
X109429455Y-105970090D01*
X109455386Y-106038462D01*
X109456451Y-106047240D01*
X109457401Y-106049953D01*
X109465382Y-106120790D01*
X109475000Y-106200000D01*
X109465381Y-106279215D01*
X109457401Y-106350046D01*
X109456452Y-106352757D01*
X109455386Y-106361538D01*
X109429451Y-106429921D01*
X109407531Y-106492567D01*
X109402894Y-106499945D01*
X109397683Y-106513688D01*
X109359513Y-106568986D01*
X109327191Y-106620427D01*
X109316910Y-106630707D01*
X109305245Y-106647608D01*
X109259355Y-106688262D01*
X109220427Y-106727191D01*
X109203185Y-106738024D01*
X109183444Y-106755514D01*
X109134315Y-106781298D01*
X109092567Y-106807531D01*
X109067864Y-106816174D01*
X109039358Y-106831136D01*
X108991151Y-106843017D01*
X108950046Y-106857401D01*
X108918268Y-106860981D01*
X108881362Y-106870078D01*
X108837534Y-106870078D01*
X108800000Y-106874307D01*
X108762466Y-106870078D01*
X108718638Y-106870078D01*
X108681731Y-106860981D01*
X108649953Y-106857401D01*
X108608845Y-106843016D01*
X108560642Y-106831136D01*
X108532137Y-106816175D01*
X108507432Y-106807531D01*
X108465678Y-106781295D01*
X108416556Y-106755514D01*
X108396816Y-106738026D01*
X108379572Y-106727191D01*
X108340635Y-106688254D01*
X108294755Y-106647608D01*
X108283091Y-106630710D01*
X108272808Y-106620427D01*
X108240475Y-106568970D01*
X108202317Y-106513688D01*
X108197106Y-106499949D01*
X108192468Y-106492567D01*
X108170535Y-106429887D01*
X108144614Y-106361538D01*
X108143548Y-106352762D01*
X108142598Y-106350046D01*
X108134604Y-106279101D01*
X108125000Y-106200000D01*
X108134603Y-106120905D01*
X108142598Y-106049953D01*
X108143548Y-106047236D01*
X108144614Y-106038462D01*
X108170531Y-105970124D01*
X108192468Y-105907432D01*
X108197107Y-105900048D01*
X108202317Y-105886312D01*
X108240468Y-105831039D01*
X108272808Y-105779572D01*
X108283093Y-105769286D01*
X108294755Y-105752392D01*
X108340626Y-105711753D01*
X108379572Y-105672808D01*
X108396820Y-105661969D01*
X108416556Y-105644486D01*
X108465668Y-105618709D01*
X108507432Y-105592468D01*
X108532143Y-105583821D01*
X108560642Y-105568864D01*
X108608835Y-105556985D01*
X108649953Y-105542598D01*
X108681739Y-105539016D01*
X108718638Y-105529922D01*
X108762457Y-105529922D01*
X108800000Y-105525692D01*
X108837543Y-105529922D01*
G37*
G36*
X106837543Y-103529922D02*
G01*
X106881362Y-103529922D01*
X106918261Y-103539016D01*
X106950046Y-103542598D01*
X106991160Y-103556984D01*
X107039358Y-103568864D01*
X107067858Y-103583822D01*
X107092567Y-103592468D01*
X107134325Y-103618706D01*
X107183444Y-103644486D01*
X107203181Y-103661972D01*
X107220427Y-103672808D01*
X107259364Y-103711745D01*
X107305245Y-103752392D01*
X107316908Y-103769289D01*
X107327191Y-103779572D01*
X107359520Y-103831023D01*
X107397683Y-103886312D01*
X107402894Y-103900052D01*
X107407531Y-103907432D01*
X107429455Y-103970090D01*
X107455386Y-104038462D01*
X107456451Y-104047240D01*
X107457401Y-104049953D01*
X107465382Y-104120790D01*
X107475000Y-104200000D01*
X107465381Y-104279215D01*
X107457401Y-104350046D01*
X107456452Y-104352757D01*
X107455386Y-104361538D01*
X107429451Y-104429921D01*
X107407531Y-104492567D01*
X107402894Y-104499945D01*
X107397683Y-104513688D01*
X107359513Y-104568986D01*
X107327191Y-104620427D01*
X107316910Y-104630707D01*
X107305245Y-104647608D01*
X107259355Y-104688262D01*
X107220427Y-104727191D01*
X107203185Y-104738024D01*
X107183444Y-104755514D01*
X107134315Y-104781298D01*
X107092567Y-104807531D01*
X107067864Y-104816174D01*
X107039358Y-104831136D01*
X106991151Y-104843017D01*
X106950046Y-104857401D01*
X106918268Y-104860981D01*
X106881362Y-104870078D01*
X106837534Y-104870078D01*
X106800000Y-104874307D01*
X106762466Y-104870078D01*
X106718638Y-104870078D01*
X106681731Y-104860981D01*
X106649953Y-104857401D01*
X106608845Y-104843016D01*
X106560642Y-104831136D01*
X106532137Y-104816175D01*
X106507432Y-104807531D01*
X106465678Y-104781295D01*
X106416556Y-104755514D01*
X106396816Y-104738026D01*
X106379572Y-104727191D01*
X106340635Y-104688254D01*
X106294755Y-104647608D01*
X106283091Y-104630710D01*
X106272808Y-104620427D01*
X106240475Y-104568970D01*
X106202317Y-104513688D01*
X106197106Y-104499949D01*
X106192468Y-104492567D01*
X106170535Y-104429887D01*
X106144614Y-104361538D01*
X106143548Y-104352762D01*
X106142598Y-104350046D01*
X106134604Y-104279101D01*
X106125000Y-104200000D01*
X106134603Y-104120905D01*
X106142598Y-104049953D01*
X106143548Y-104047236D01*
X106144614Y-104038462D01*
X106170531Y-103970124D01*
X106192468Y-103907432D01*
X106197107Y-103900048D01*
X106202317Y-103886312D01*
X106240468Y-103831039D01*
X106272808Y-103779572D01*
X106283093Y-103769286D01*
X106294755Y-103752392D01*
X106340626Y-103711753D01*
X106379572Y-103672808D01*
X106396820Y-103661969D01*
X106416556Y-103644486D01*
X106465668Y-103618709D01*
X106507432Y-103592468D01*
X106532143Y-103583821D01*
X106560642Y-103568864D01*
X106608835Y-103556985D01*
X106649953Y-103542598D01*
X106681739Y-103539016D01*
X106718638Y-103529922D01*
X106762457Y-103529922D01*
X106800000Y-103525692D01*
X106837543Y-103529922D01*
G37*
G36*
X108837543Y-103529922D02*
G01*
X108881362Y-103529922D01*
X108918261Y-103539016D01*
X108950046Y-103542598D01*
X108991160Y-103556984D01*
X109039358Y-103568864D01*
X109067858Y-103583822D01*
X109092567Y-103592468D01*
X109134325Y-103618706D01*
X109183444Y-103644486D01*
X109203181Y-103661972D01*
X109220427Y-103672808D01*
X109259364Y-103711745D01*
X109305245Y-103752392D01*
X109316908Y-103769289D01*
X109327191Y-103779572D01*
X109359520Y-103831023D01*
X109397683Y-103886312D01*
X109402894Y-103900052D01*
X109407531Y-103907432D01*
X109429455Y-103970090D01*
X109455386Y-104038462D01*
X109456451Y-104047240D01*
X109457401Y-104049953D01*
X109465382Y-104120790D01*
X109475000Y-104200000D01*
X109465381Y-104279215D01*
X109457401Y-104350046D01*
X109456452Y-104352757D01*
X109455386Y-104361538D01*
X109429451Y-104429921D01*
X109407531Y-104492567D01*
X109402894Y-104499945D01*
X109397683Y-104513688D01*
X109359513Y-104568986D01*
X109327191Y-104620427D01*
X109316910Y-104630707D01*
X109305245Y-104647608D01*
X109259355Y-104688262D01*
X109220427Y-104727191D01*
X109203185Y-104738024D01*
X109183444Y-104755514D01*
X109134315Y-104781298D01*
X109092567Y-104807531D01*
X109067864Y-104816174D01*
X109039358Y-104831136D01*
X108991151Y-104843017D01*
X108950046Y-104857401D01*
X108918268Y-104860981D01*
X108881362Y-104870078D01*
X108837534Y-104870078D01*
X108800000Y-104874307D01*
X108762466Y-104870078D01*
X108718638Y-104870078D01*
X108681731Y-104860981D01*
X108649953Y-104857401D01*
X108608845Y-104843016D01*
X108560642Y-104831136D01*
X108532137Y-104816175D01*
X108507432Y-104807531D01*
X108465678Y-104781295D01*
X108416556Y-104755514D01*
X108396816Y-104738026D01*
X108379572Y-104727191D01*
X108340635Y-104688254D01*
X108294755Y-104647608D01*
X108283091Y-104630710D01*
X108272808Y-104620427D01*
X108240475Y-104568970D01*
X108202317Y-104513688D01*
X108197106Y-104499949D01*
X108192468Y-104492567D01*
X108170535Y-104429887D01*
X108144614Y-104361538D01*
X108143548Y-104352762D01*
X108142598Y-104350046D01*
X108134604Y-104279101D01*
X108125000Y-104200000D01*
X108134603Y-104120905D01*
X108142598Y-104049953D01*
X108143548Y-104047236D01*
X108144614Y-104038462D01*
X108170531Y-103970124D01*
X108192468Y-103907432D01*
X108197107Y-103900048D01*
X108202317Y-103886312D01*
X108240468Y-103831039D01*
X108272808Y-103779572D01*
X108283093Y-103769286D01*
X108294755Y-103752392D01*
X108340626Y-103711753D01*
X108379572Y-103672808D01*
X108396820Y-103661969D01*
X108416556Y-103644486D01*
X108465668Y-103618709D01*
X108507432Y-103592468D01*
X108532143Y-103583821D01*
X108560642Y-103568864D01*
X108608835Y-103556985D01*
X108649953Y-103542598D01*
X108681739Y-103539016D01*
X108718638Y-103529922D01*
X108762457Y-103529922D01*
X108800000Y-103525692D01*
X108837543Y-103529922D01*
G37*
G36*
X106837543Y-101529922D02*
G01*
X106881362Y-101529922D01*
X106918261Y-101539016D01*
X106950046Y-101542598D01*
X106991160Y-101556984D01*
X107039358Y-101568864D01*
X107067858Y-101583822D01*
X107092567Y-101592468D01*
X107134325Y-101618706D01*
X107183444Y-101644486D01*
X107203181Y-101661972D01*
X107220427Y-101672808D01*
X107259364Y-101711745D01*
X107305245Y-101752392D01*
X107316908Y-101769289D01*
X107327191Y-101779572D01*
X107359520Y-101831023D01*
X107397683Y-101886312D01*
X107402894Y-101900052D01*
X107407531Y-101907432D01*
X107429455Y-101970090D01*
X107455386Y-102038462D01*
X107456451Y-102047240D01*
X107457401Y-102049953D01*
X107465382Y-102120790D01*
X107475000Y-102200000D01*
X107465381Y-102279215D01*
X107457401Y-102350046D01*
X107456452Y-102352757D01*
X107455386Y-102361538D01*
X107429451Y-102429921D01*
X107407531Y-102492567D01*
X107402894Y-102499945D01*
X107397683Y-102513688D01*
X107359513Y-102568986D01*
X107327191Y-102620427D01*
X107316910Y-102630707D01*
X107305245Y-102647608D01*
X107259355Y-102688262D01*
X107220427Y-102727191D01*
X107203185Y-102738024D01*
X107183444Y-102755514D01*
X107134315Y-102781298D01*
X107092567Y-102807531D01*
X107067864Y-102816174D01*
X107039358Y-102831136D01*
X106991151Y-102843017D01*
X106950046Y-102857401D01*
X106918268Y-102860981D01*
X106881362Y-102870078D01*
X106837534Y-102870078D01*
X106800000Y-102874307D01*
X106762466Y-102870078D01*
X106718638Y-102870078D01*
X106681731Y-102860981D01*
X106649953Y-102857401D01*
X106608845Y-102843016D01*
X106560642Y-102831136D01*
X106532137Y-102816175D01*
X106507432Y-102807531D01*
X106465678Y-102781295D01*
X106416556Y-102755514D01*
X106396816Y-102738026D01*
X106379572Y-102727191D01*
X106340635Y-102688254D01*
X106294755Y-102647608D01*
X106283091Y-102630710D01*
X106272808Y-102620427D01*
X106240475Y-102568970D01*
X106202317Y-102513688D01*
X106197106Y-102499949D01*
X106192468Y-102492567D01*
X106170535Y-102429887D01*
X106144614Y-102361538D01*
X106143548Y-102352762D01*
X106142598Y-102350046D01*
X106134604Y-102279101D01*
X106125000Y-102200000D01*
X106134603Y-102120905D01*
X106142598Y-102049953D01*
X106143548Y-102047236D01*
X106144614Y-102038462D01*
X106170531Y-101970124D01*
X106192468Y-101907432D01*
X106197107Y-101900048D01*
X106202317Y-101886312D01*
X106240468Y-101831039D01*
X106272808Y-101779572D01*
X106283093Y-101769286D01*
X106294755Y-101752392D01*
X106340626Y-101711753D01*
X106379572Y-101672808D01*
X106396820Y-101661969D01*
X106416556Y-101644486D01*
X106465668Y-101618709D01*
X106507432Y-101592468D01*
X106532143Y-101583821D01*
X106560642Y-101568864D01*
X106608835Y-101556985D01*
X106649953Y-101542598D01*
X106681739Y-101539016D01*
X106718638Y-101529922D01*
X106762457Y-101529922D01*
X106800000Y-101525692D01*
X106837543Y-101529922D01*
G37*
G36*
X108837543Y-101529922D02*
G01*
X108881362Y-101529922D01*
X108918261Y-101539016D01*
X108950046Y-101542598D01*
X108991160Y-101556984D01*
X109039358Y-101568864D01*
X109067858Y-101583822D01*
X109092567Y-101592468D01*
X109134325Y-101618706D01*
X109183444Y-101644486D01*
X109203181Y-101661972D01*
X109220427Y-101672808D01*
X109259364Y-101711745D01*
X109305245Y-101752392D01*
X109316908Y-101769289D01*
X109327191Y-101779572D01*
X109359520Y-101831023D01*
X109397683Y-101886312D01*
X109402894Y-101900052D01*
X109407531Y-101907432D01*
X109429455Y-101970090D01*
X109455386Y-102038462D01*
X109456451Y-102047240D01*
X109457401Y-102049953D01*
X109465382Y-102120790D01*
X109475000Y-102200000D01*
X109465381Y-102279215D01*
X109457401Y-102350046D01*
X109456452Y-102352757D01*
X109455386Y-102361538D01*
X109429451Y-102429921D01*
X109407531Y-102492567D01*
X109402894Y-102499945D01*
X109397683Y-102513688D01*
X109359513Y-102568986D01*
X109327191Y-102620427D01*
X109316910Y-102630707D01*
X109305245Y-102647608D01*
X109259355Y-102688262D01*
X109220427Y-102727191D01*
X109203185Y-102738024D01*
X109183444Y-102755514D01*
X109134315Y-102781298D01*
X109092567Y-102807531D01*
X109067864Y-102816174D01*
X109039358Y-102831136D01*
X108991151Y-102843017D01*
X108950046Y-102857401D01*
X108918268Y-102860981D01*
X108881362Y-102870078D01*
X108837534Y-102870078D01*
X108800000Y-102874307D01*
X108762466Y-102870078D01*
X108718638Y-102870078D01*
X108681731Y-102860981D01*
X108649953Y-102857401D01*
X108608845Y-102843016D01*
X108560642Y-102831136D01*
X108532137Y-102816175D01*
X108507432Y-102807531D01*
X108465678Y-102781295D01*
X108416556Y-102755514D01*
X108396816Y-102738026D01*
X108379572Y-102727191D01*
X108340635Y-102688254D01*
X108294755Y-102647608D01*
X108283091Y-102630710D01*
X108272808Y-102620427D01*
X108240475Y-102568970D01*
X108202317Y-102513688D01*
X108197106Y-102499949D01*
X108192468Y-102492567D01*
X108170535Y-102429887D01*
X108144614Y-102361538D01*
X108143548Y-102352762D01*
X108142598Y-102350046D01*
X108134604Y-102279101D01*
X108125000Y-102200000D01*
X108134603Y-102120905D01*
X108142598Y-102049953D01*
X108143548Y-102047236D01*
X108144614Y-102038462D01*
X108170531Y-101970124D01*
X108192468Y-101907432D01*
X108197107Y-101900048D01*
X108202317Y-101886312D01*
X108240468Y-101831039D01*
X108272808Y-101779572D01*
X108283093Y-101769286D01*
X108294755Y-101752392D01*
X108340626Y-101711753D01*
X108379572Y-101672808D01*
X108396820Y-101661969D01*
X108416556Y-101644486D01*
X108465668Y-101618709D01*
X108507432Y-101592468D01*
X108532143Y-101583821D01*
X108560642Y-101568864D01*
X108608835Y-101556985D01*
X108649953Y-101542598D01*
X108681739Y-101539016D01*
X108718638Y-101529922D01*
X108762457Y-101529922D01*
X108800000Y-101525692D01*
X108837543Y-101529922D01*
G37*
G36*
X106837543Y-99529922D02*
G01*
X106881362Y-99529922D01*
X106918261Y-99539016D01*
X106950046Y-99542598D01*
X106991160Y-99556984D01*
X107039358Y-99568864D01*
X107067858Y-99583822D01*
X107092567Y-99592468D01*
X107134325Y-99618706D01*
X107183444Y-99644486D01*
X107203181Y-99661972D01*
X107220427Y-99672808D01*
X107259364Y-99711745D01*
X107305245Y-99752392D01*
X107316908Y-99769289D01*
X107327191Y-99779572D01*
X107359520Y-99831023D01*
X107397683Y-99886312D01*
X107402894Y-99900052D01*
X107407531Y-99907432D01*
X107429455Y-99970090D01*
X107455386Y-100038462D01*
X107456451Y-100047240D01*
X107457401Y-100049953D01*
X107465382Y-100120790D01*
X107475000Y-100200000D01*
X107465381Y-100279215D01*
X107457401Y-100350046D01*
X107456452Y-100352757D01*
X107455386Y-100361538D01*
X107429451Y-100429921D01*
X107407531Y-100492567D01*
X107402894Y-100499945D01*
X107397683Y-100513688D01*
X107359513Y-100568986D01*
X107327191Y-100620427D01*
X107316910Y-100630707D01*
X107305245Y-100647608D01*
X107259355Y-100688262D01*
X107220427Y-100727191D01*
X107203185Y-100738024D01*
X107183444Y-100755514D01*
X107134315Y-100781298D01*
X107092567Y-100807531D01*
X107067864Y-100816174D01*
X107039358Y-100831136D01*
X106991151Y-100843017D01*
X106950046Y-100857401D01*
X106918268Y-100860981D01*
X106881362Y-100870078D01*
X106837534Y-100870078D01*
X106800000Y-100874307D01*
X106762466Y-100870078D01*
X106718638Y-100870078D01*
X106681731Y-100860981D01*
X106649953Y-100857401D01*
X106608845Y-100843016D01*
X106560642Y-100831136D01*
X106532137Y-100816175D01*
X106507432Y-100807531D01*
X106465678Y-100781295D01*
X106416556Y-100755514D01*
X106396816Y-100738026D01*
X106379572Y-100727191D01*
X106340635Y-100688254D01*
X106294755Y-100647608D01*
X106283091Y-100630710D01*
X106272808Y-100620427D01*
X106240475Y-100568970D01*
X106202317Y-100513688D01*
X106197106Y-100499949D01*
X106192468Y-100492567D01*
X106170535Y-100429887D01*
X106144614Y-100361538D01*
X106143548Y-100352762D01*
X106142598Y-100350046D01*
X106134604Y-100279101D01*
X106125000Y-100200000D01*
X106134603Y-100120905D01*
X106142598Y-100049953D01*
X106143548Y-100047236D01*
X106144614Y-100038462D01*
X106170531Y-99970124D01*
X106192468Y-99907432D01*
X106197107Y-99900048D01*
X106202317Y-99886312D01*
X106240468Y-99831039D01*
X106272808Y-99779572D01*
X106283093Y-99769286D01*
X106294755Y-99752392D01*
X106340626Y-99711753D01*
X106379572Y-99672808D01*
X106396820Y-99661969D01*
X106416556Y-99644486D01*
X106465668Y-99618709D01*
X106507432Y-99592468D01*
X106532143Y-99583821D01*
X106560642Y-99568864D01*
X106608835Y-99556985D01*
X106649953Y-99542598D01*
X106681739Y-99539016D01*
X106718638Y-99529922D01*
X106762457Y-99529922D01*
X106800000Y-99525692D01*
X106837543Y-99529922D01*
G37*
G36*
X108837543Y-99529922D02*
G01*
X108881362Y-99529922D01*
X108918261Y-99539016D01*
X108950046Y-99542598D01*
X108991160Y-99556984D01*
X109039358Y-99568864D01*
X109067858Y-99583822D01*
X109092567Y-99592468D01*
X109134325Y-99618706D01*
X109183444Y-99644486D01*
X109203181Y-99661972D01*
X109220427Y-99672808D01*
X109259364Y-99711745D01*
X109305245Y-99752392D01*
X109316908Y-99769289D01*
X109327191Y-99779572D01*
X109359520Y-99831023D01*
X109397683Y-99886312D01*
X109402894Y-99900052D01*
X109407531Y-99907432D01*
X109429455Y-99970090D01*
X109455386Y-100038462D01*
X109456451Y-100047240D01*
X109457401Y-100049953D01*
X109465382Y-100120790D01*
X109475000Y-100200000D01*
X109465381Y-100279215D01*
X109457401Y-100350046D01*
X109456452Y-100352757D01*
X109455386Y-100361538D01*
X109429451Y-100429921D01*
X109407531Y-100492567D01*
X109402894Y-100499945D01*
X109397683Y-100513688D01*
X109359513Y-100568986D01*
X109327191Y-100620427D01*
X109316910Y-100630707D01*
X109305245Y-100647608D01*
X109259355Y-100688262D01*
X109220427Y-100727191D01*
X109203185Y-100738024D01*
X109183444Y-100755514D01*
X109134315Y-100781298D01*
X109092567Y-100807531D01*
X109067864Y-100816174D01*
X109039358Y-100831136D01*
X108991151Y-100843017D01*
X108950046Y-100857401D01*
X108918268Y-100860981D01*
X108881362Y-100870078D01*
X108837534Y-100870078D01*
X108800000Y-100874307D01*
X108762466Y-100870078D01*
X108718638Y-100870078D01*
X108681731Y-100860981D01*
X108649953Y-100857401D01*
X108608845Y-100843016D01*
X108560642Y-100831136D01*
X108532137Y-100816175D01*
X108507432Y-100807531D01*
X108465678Y-100781295D01*
X108416556Y-100755514D01*
X108396816Y-100738026D01*
X108379572Y-100727191D01*
X108340635Y-100688254D01*
X108294755Y-100647608D01*
X108283091Y-100630710D01*
X108272808Y-100620427D01*
X108240475Y-100568970D01*
X108202317Y-100513688D01*
X108197106Y-100499949D01*
X108192468Y-100492567D01*
X108170535Y-100429887D01*
X108144614Y-100361538D01*
X108143548Y-100352762D01*
X108142598Y-100350046D01*
X108134604Y-100279101D01*
X108125000Y-100200000D01*
X108134603Y-100120905D01*
X108142598Y-100049953D01*
X108143548Y-100047236D01*
X108144614Y-100038462D01*
X108170531Y-99970124D01*
X108192468Y-99907432D01*
X108197107Y-99900048D01*
X108202317Y-99886312D01*
X108240468Y-99831039D01*
X108272808Y-99779572D01*
X108283093Y-99769286D01*
X108294755Y-99752392D01*
X108340626Y-99711753D01*
X108379572Y-99672808D01*
X108396820Y-99661969D01*
X108416556Y-99644486D01*
X108465668Y-99618709D01*
X108507432Y-99592468D01*
X108532143Y-99583821D01*
X108560642Y-99568864D01*
X108608835Y-99556985D01*
X108649953Y-99542598D01*
X108681739Y-99539016D01*
X108718638Y-99529922D01*
X108762457Y-99529922D01*
X108800000Y-99525692D01*
X108837543Y-99529922D01*
G37*
G36*
X106837543Y-97529922D02*
G01*
X106881362Y-97529922D01*
X106918261Y-97539016D01*
X106950046Y-97542598D01*
X106991160Y-97556984D01*
X107039358Y-97568864D01*
X107067858Y-97583822D01*
X107092567Y-97592468D01*
X107134325Y-97618706D01*
X107183444Y-97644486D01*
X107203181Y-97661972D01*
X107220427Y-97672808D01*
X107259364Y-97711745D01*
X107305245Y-97752392D01*
X107316908Y-97769289D01*
X107327191Y-97779572D01*
X107359520Y-97831023D01*
X107397683Y-97886312D01*
X107402894Y-97900052D01*
X107407531Y-97907432D01*
X107429455Y-97970090D01*
X107455386Y-98038462D01*
X107456451Y-98047240D01*
X107457401Y-98049953D01*
X107465382Y-98120790D01*
X107475000Y-98200000D01*
X107465381Y-98279215D01*
X107457401Y-98350046D01*
X107456452Y-98352757D01*
X107455386Y-98361538D01*
X107429451Y-98429921D01*
X107407531Y-98492567D01*
X107402894Y-98499945D01*
X107397683Y-98513688D01*
X107359513Y-98568986D01*
X107327191Y-98620427D01*
X107316910Y-98630707D01*
X107305245Y-98647608D01*
X107259355Y-98688262D01*
X107220427Y-98727191D01*
X107203185Y-98738024D01*
X107183444Y-98755514D01*
X107134315Y-98781298D01*
X107092567Y-98807531D01*
X107067864Y-98816174D01*
X107039358Y-98831136D01*
X106991151Y-98843017D01*
X106950046Y-98857401D01*
X106918268Y-98860981D01*
X106881362Y-98870078D01*
X106837534Y-98870078D01*
X106800000Y-98874307D01*
X106762466Y-98870078D01*
X106718638Y-98870078D01*
X106681731Y-98860981D01*
X106649953Y-98857401D01*
X106608845Y-98843016D01*
X106560642Y-98831136D01*
X106532137Y-98816175D01*
X106507432Y-98807531D01*
X106465678Y-98781295D01*
X106416556Y-98755514D01*
X106396816Y-98738026D01*
X106379572Y-98727191D01*
X106340635Y-98688254D01*
X106294755Y-98647608D01*
X106283091Y-98630710D01*
X106272808Y-98620427D01*
X106240475Y-98568970D01*
X106202317Y-98513688D01*
X106197106Y-98499949D01*
X106192468Y-98492567D01*
X106170535Y-98429887D01*
X106144614Y-98361538D01*
X106143548Y-98352762D01*
X106142598Y-98350046D01*
X106134604Y-98279101D01*
X106125000Y-98200000D01*
X106134603Y-98120905D01*
X106142598Y-98049953D01*
X106143548Y-98047236D01*
X106144614Y-98038462D01*
X106170531Y-97970124D01*
X106192468Y-97907432D01*
X106197107Y-97900048D01*
X106202317Y-97886312D01*
X106240468Y-97831039D01*
X106272808Y-97779572D01*
X106283093Y-97769286D01*
X106294755Y-97752392D01*
X106340626Y-97711753D01*
X106379572Y-97672808D01*
X106396820Y-97661969D01*
X106416556Y-97644486D01*
X106465668Y-97618709D01*
X106507432Y-97592468D01*
X106532143Y-97583821D01*
X106560642Y-97568864D01*
X106608835Y-97556985D01*
X106649953Y-97542598D01*
X106681739Y-97539016D01*
X106718638Y-97529922D01*
X106762457Y-97529922D01*
X106800000Y-97525692D01*
X106837543Y-97529922D01*
G37*
G36*
X108837543Y-97529922D02*
G01*
X108881362Y-97529922D01*
X108918261Y-97539016D01*
X108950046Y-97542598D01*
X108991160Y-97556984D01*
X109039358Y-97568864D01*
X109067858Y-97583822D01*
X109092567Y-97592468D01*
X109134325Y-97618706D01*
X109183444Y-97644486D01*
X109203181Y-97661972D01*
X109220427Y-97672808D01*
X109259364Y-97711745D01*
X109305245Y-97752392D01*
X109316908Y-97769289D01*
X109327191Y-97779572D01*
X109359520Y-97831023D01*
X109397683Y-97886312D01*
X109402894Y-97900052D01*
X109407531Y-97907432D01*
X109429455Y-97970090D01*
X109455386Y-98038462D01*
X109456451Y-98047240D01*
X109457401Y-98049953D01*
X109465382Y-98120790D01*
X109475000Y-98200000D01*
X109465381Y-98279215D01*
X109457401Y-98350046D01*
X109456452Y-98352757D01*
X109455386Y-98361538D01*
X109429451Y-98429921D01*
X109407531Y-98492567D01*
X109402894Y-98499945D01*
X109397683Y-98513688D01*
X109359513Y-98568986D01*
X109327191Y-98620427D01*
X109316910Y-98630707D01*
X109305245Y-98647608D01*
X109259355Y-98688262D01*
X109220427Y-98727191D01*
X109203185Y-98738024D01*
X109183444Y-98755514D01*
X109134315Y-98781298D01*
X109092567Y-98807531D01*
X109067864Y-98816174D01*
X109039358Y-98831136D01*
X108991151Y-98843017D01*
X108950046Y-98857401D01*
X108918268Y-98860981D01*
X108881362Y-98870078D01*
X108837534Y-98870078D01*
X108800000Y-98874307D01*
X108762466Y-98870078D01*
X108718638Y-98870078D01*
X108681731Y-98860981D01*
X108649953Y-98857401D01*
X108608845Y-98843016D01*
X108560642Y-98831136D01*
X108532137Y-98816175D01*
X108507432Y-98807531D01*
X108465678Y-98781295D01*
X108416556Y-98755514D01*
X108396816Y-98738026D01*
X108379572Y-98727191D01*
X108340635Y-98688254D01*
X108294755Y-98647608D01*
X108283091Y-98630710D01*
X108272808Y-98620427D01*
X108240475Y-98568970D01*
X108202317Y-98513688D01*
X108197106Y-98499949D01*
X108192468Y-98492567D01*
X108170535Y-98429887D01*
X108144614Y-98361538D01*
X108143548Y-98352762D01*
X108142598Y-98350046D01*
X108134604Y-98279101D01*
X108125000Y-98200000D01*
X108134603Y-98120905D01*
X108142598Y-98049953D01*
X108143548Y-98047236D01*
X108144614Y-98038462D01*
X108170531Y-97970124D01*
X108192468Y-97907432D01*
X108197107Y-97900048D01*
X108202317Y-97886312D01*
X108240468Y-97831039D01*
X108272808Y-97779572D01*
X108283093Y-97769286D01*
X108294755Y-97752392D01*
X108340626Y-97711753D01*
X108379572Y-97672808D01*
X108396820Y-97661969D01*
X108416556Y-97644486D01*
X108465668Y-97618709D01*
X108507432Y-97592468D01*
X108532143Y-97583821D01*
X108560642Y-97568864D01*
X108608835Y-97556985D01*
X108649953Y-97542598D01*
X108681739Y-97539016D01*
X108718638Y-97529922D01*
X108762457Y-97529922D01*
X108800000Y-97525692D01*
X108837543Y-97529922D01*
G37*
G36*
X106837543Y-95529922D02*
G01*
X106881362Y-95529922D01*
X106918261Y-95539016D01*
X106950046Y-95542598D01*
X106991160Y-95556984D01*
X107039358Y-95568864D01*
X107067858Y-95583822D01*
X107092567Y-95592468D01*
X107134325Y-95618706D01*
X107183444Y-95644486D01*
X107203181Y-95661972D01*
X107220427Y-95672808D01*
X107259364Y-95711745D01*
X107305245Y-95752392D01*
X107316908Y-95769289D01*
X107327191Y-95779572D01*
X107359520Y-95831023D01*
X107397683Y-95886312D01*
X107402894Y-95900052D01*
X107407531Y-95907432D01*
X107429455Y-95970090D01*
X107455386Y-96038462D01*
X107456451Y-96047240D01*
X107457401Y-96049953D01*
X107465382Y-96120790D01*
X107475000Y-96200000D01*
X107465381Y-96279215D01*
X107457401Y-96350046D01*
X107456452Y-96352757D01*
X107455386Y-96361538D01*
X107429451Y-96429921D01*
X107407531Y-96492567D01*
X107402894Y-96499945D01*
X107397683Y-96513688D01*
X107359513Y-96568986D01*
X107327191Y-96620427D01*
X107316910Y-96630707D01*
X107305245Y-96647608D01*
X107259355Y-96688262D01*
X107220427Y-96727191D01*
X107203185Y-96738024D01*
X107183444Y-96755514D01*
X107134315Y-96781298D01*
X107092567Y-96807531D01*
X107067864Y-96816174D01*
X107039358Y-96831136D01*
X106991151Y-96843017D01*
X106950046Y-96857401D01*
X106918268Y-96860981D01*
X106881362Y-96870078D01*
X106837534Y-96870078D01*
X106800000Y-96874307D01*
X106762466Y-96870078D01*
X106718638Y-96870078D01*
X106681731Y-96860981D01*
X106649953Y-96857401D01*
X106608845Y-96843016D01*
X106560642Y-96831136D01*
X106532137Y-96816175D01*
X106507432Y-96807531D01*
X106465678Y-96781295D01*
X106416556Y-96755514D01*
X106396816Y-96738026D01*
X106379572Y-96727191D01*
X106340635Y-96688254D01*
X106294755Y-96647608D01*
X106283091Y-96630710D01*
X106272808Y-96620427D01*
X106240475Y-96568970D01*
X106202317Y-96513688D01*
X106197106Y-96499949D01*
X106192468Y-96492567D01*
X106170535Y-96429887D01*
X106144614Y-96361538D01*
X106143548Y-96352762D01*
X106142598Y-96350046D01*
X106134604Y-96279101D01*
X106125000Y-96200000D01*
X106134603Y-96120905D01*
X106142598Y-96049953D01*
X106143548Y-96047236D01*
X106144614Y-96038462D01*
X106170531Y-95970124D01*
X106192468Y-95907432D01*
X106197107Y-95900048D01*
X106202317Y-95886312D01*
X106240468Y-95831039D01*
X106272808Y-95779572D01*
X106283093Y-95769286D01*
X106294755Y-95752392D01*
X106340626Y-95711753D01*
X106379572Y-95672808D01*
X106396820Y-95661969D01*
X106416556Y-95644486D01*
X106465668Y-95618709D01*
X106507432Y-95592468D01*
X106532143Y-95583821D01*
X106560642Y-95568864D01*
X106608835Y-95556985D01*
X106649953Y-95542598D01*
X106681739Y-95539016D01*
X106718638Y-95529922D01*
X106762457Y-95529922D01*
X106800000Y-95525692D01*
X106837543Y-95529922D01*
G37*
G36*
X108837543Y-95529922D02*
G01*
X108881362Y-95529922D01*
X108918261Y-95539016D01*
X108950046Y-95542598D01*
X108991160Y-95556984D01*
X109039358Y-95568864D01*
X109067858Y-95583822D01*
X109092567Y-95592468D01*
X109134325Y-95618706D01*
X109183444Y-95644486D01*
X109203181Y-95661972D01*
X109220427Y-95672808D01*
X109259364Y-95711745D01*
X109305245Y-95752392D01*
X109316908Y-95769289D01*
X109327191Y-95779572D01*
X109359520Y-95831023D01*
X109397683Y-95886312D01*
X109402894Y-95900052D01*
X109407531Y-95907432D01*
X109429455Y-95970090D01*
X109455386Y-96038462D01*
X109456451Y-96047240D01*
X109457401Y-96049953D01*
X109465382Y-96120790D01*
X109475000Y-96200000D01*
X109465381Y-96279215D01*
X109457401Y-96350046D01*
X109456452Y-96352757D01*
X109455386Y-96361538D01*
X109429451Y-96429921D01*
X109407531Y-96492567D01*
X109402894Y-96499945D01*
X109397683Y-96513688D01*
X109359513Y-96568986D01*
X109327191Y-96620427D01*
X109316910Y-96630707D01*
X109305245Y-96647608D01*
X109259355Y-96688262D01*
X109220427Y-96727191D01*
X109203185Y-96738024D01*
X109183444Y-96755514D01*
X109134315Y-96781298D01*
X109092567Y-96807531D01*
X109067864Y-96816174D01*
X109039358Y-96831136D01*
X108991151Y-96843017D01*
X108950046Y-96857401D01*
X108918268Y-96860981D01*
X108881362Y-96870078D01*
X108837534Y-96870078D01*
X108800000Y-96874307D01*
X108762466Y-96870078D01*
X108718638Y-96870078D01*
X108681731Y-96860981D01*
X108649953Y-96857401D01*
X108608845Y-96843016D01*
X108560642Y-96831136D01*
X108532137Y-96816175D01*
X108507432Y-96807531D01*
X108465678Y-96781295D01*
X108416556Y-96755514D01*
X108396816Y-96738026D01*
X108379572Y-96727191D01*
X108340635Y-96688254D01*
X108294755Y-96647608D01*
X108283091Y-96630710D01*
X108272808Y-96620427D01*
X108240475Y-96568970D01*
X108202317Y-96513688D01*
X108197106Y-96499949D01*
X108192468Y-96492567D01*
X108170535Y-96429887D01*
X108144614Y-96361538D01*
X108143548Y-96352762D01*
X108142598Y-96350046D01*
X108134604Y-96279101D01*
X108125000Y-96200000D01*
X108134603Y-96120905D01*
X108142598Y-96049953D01*
X108143548Y-96047236D01*
X108144614Y-96038462D01*
X108170531Y-95970124D01*
X108192468Y-95907432D01*
X108197107Y-95900048D01*
X108202317Y-95886312D01*
X108240468Y-95831039D01*
X108272808Y-95779572D01*
X108283093Y-95769286D01*
X108294755Y-95752392D01*
X108340626Y-95711753D01*
X108379572Y-95672808D01*
X108396820Y-95661969D01*
X108416556Y-95644486D01*
X108465668Y-95618709D01*
X108507432Y-95592468D01*
X108532143Y-95583821D01*
X108560642Y-95568864D01*
X108608835Y-95556985D01*
X108649953Y-95542598D01*
X108681739Y-95539016D01*
X108718638Y-95529922D01*
X108762457Y-95529922D01*
X108800000Y-95525692D01*
X108837543Y-95529922D01*
G37*
G36*
X106837543Y-93529922D02*
G01*
X106881362Y-93529922D01*
X106918261Y-93539016D01*
X106950046Y-93542598D01*
X106991160Y-93556984D01*
X107039358Y-93568864D01*
X107067858Y-93583822D01*
X107092567Y-93592468D01*
X107134325Y-93618706D01*
X107183444Y-93644486D01*
X107203181Y-93661972D01*
X107220427Y-93672808D01*
X107259364Y-93711745D01*
X107305245Y-93752392D01*
X107316908Y-93769289D01*
X107327191Y-93779572D01*
X107359520Y-93831023D01*
X107397683Y-93886312D01*
X107402894Y-93900052D01*
X107407531Y-93907432D01*
X107429455Y-93970090D01*
X107455386Y-94038462D01*
X107456451Y-94047240D01*
X107457401Y-94049953D01*
X107465382Y-94120790D01*
X107475000Y-94200000D01*
X107465381Y-94279215D01*
X107457401Y-94350046D01*
X107456452Y-94352757D01*
X107455386Y-94361538D01*
X107429451Y-94429921D01*
X107407531Y-94492567D01*
X107402894Y-94499945D01*
X107397683Y-94513688D01*
X107359513Y-94568986D01*
X107327191Y-94620427D01*
X107316910Y-94630707D01*
X107305245Y-94647608D01*
X107259355Y-94688262D01*
X107220427Y-94727191D01*
X107203185Y-94738024D01*
X107183444Y-94755514D01*
X107134315Y-94781298D01*
X107092567Y-94807531D01*
X107067864Y-94816174D01*
X107039358Y-94831136D01*
X106991151Y-94843017D01*
X106950046Y-94857401D01*
X106918268Y-94860981D01*
X106881362Y-94870078D01*
X106837534Y-94870078D01*
X106800000Y-94874307D01*
X106762466Y-94870078D01*
X106718638Y-94870078D01*
X106681731Y-94860981D01*
X106649953Y-94857401D01*
X106608845Y-94843016D01*
X106560642Y-94831136D01*
X106532137Y-94816175D01*
X106507432Y-94807531D01*
X106465678Y-94781295D01*
X106416556Y-94755514D01*
X106396816Y-94738026D01*
X106379572Y-94727191D01*
X106340635Y-94688254D01*
X106294755Y-94647608D01*
X106283091Y-94630710D01*
X106272808Y-94620427D01*
X106240475Y-94568970D01*
X106202317Y-94513688D01*
X106197106Y-94499949D01*
X106192468Y-94492567D01*
X106170535Y-94429887D01*
X106144614Y-94361538D01*
X106143548Y-94352762D01*
X106142598Y-94350046D01*
X106134604Y-94279101D01*
X106125000Y-94200000D01*
X106134603Y-94120905D01*
X106142598Y-94049953D01*
X106143548Y-94047236D01*
X106144614Y-94038462D01*
X106170531Y-93970124D01*
X106192468Y-93907432D01*
X106197107Y-93900048D01*
X106202317Y-93886312D01*
X106240468Y-93831039D01*
X106272808Y-93779572D01*
X106283093Y-93769286D01*
X106294755Y-93752392D01*
X106340626Y-93711753D01*
X106379572Y-93672808D01*
X106396820Y-93661969D01*
X106416556Y-93644486D01*
X106465668Y-93618709D01*
X106507432Y-93592468D01*
X106532143Y-93583821D01*
X106560642Y-93568864D01*
X106608835Y-93556985D01*
X106649953Y-93542598D01*
X106681739Y-93539016D01*
X106718638Y-93529922D01*
X106762457Y-93529922D01*
X106800000Y-93525692D01*
X106837543Y-93529922D01*
G37*
G36*
X108837543Y-93529922D02*
G01*
X108881362Y-93529922D01*
X108918261Y-93539016D01*
X108950046Y-93542598D01*
X108991160Y-93556984D01*
X109039358Y-93568864D01*
X109067858Y-93583822D01*
X109092567Y-93592468D01*
X109134325Y-93618706D01*
X109183444Y-93644486D01*
X109203181Y-93661972D01*
X109220427Y-93672808D01*
X109259364Y-93711745D01*
X109305245Y-93752392D01*
X109316908Y-93769289D01*
X109327191Y-93779572D01*
X109359520Y-93831023D01*
X109397683Y-93886312D01*
X109402894Y-93900052D01*
X109407531Y-93907432D01*
X109429455Y-93970090D01*
X109455386Y-94038462D01*
X109456451Y-94047240D01*
X109457401Y-94049953D01*
X109465382Y-94120790D01*
X109475000Y-94200000D01*
X109465381Y-94279215D01*
X109457401Y-94350046D01*
X109456452Y-94352757D01*
X109455386Y-94361538D01*
X109429451Y-94429921D01*
X109407531Y-94492567D01*
X109402894Y-94499945D01*
X109397683Y-94513688D01*
X109359513Y-94568986D01*
X109327191Y-94620427D01*
X109316910Y-94630707D01*
X109305245Y-94647608D01*
X109259355Y-94688262D01*
X109220427Y-94727191D01*
X109203185Y-94738024D01*
X109183444Y-94755514D01*
X109134315Y-94781298D01*
X109092567Y-94807531D01*
X109067864Y-94816174D01*
X109039358Y-94831136D01*
X108991151Y-94843017D01*
X108950046Y-94857401D01*
X108918268Y-94860981D01*
X108881362Y-94870078D01*
X108837534Y-94870078D01*
X108800000Y-94874307D01*
X108762466Y-94870078D01*
X108718638Y-94870078D01*
X108681731Y-94860981D01*
X108649953Y-94857401D01*
X108608845Y-94843016D01*
X108560642Y-94831136D01*
X108532137Y-94816175D01*
X108507432Y-94807531D01*
X108465678Y-94781295D01*
X108416556Y-94755514D01*
X108396816Y-94738026D01*
X108379572Y-94727191D01*
X108340635Y-94688254D01*
X108294755Y-94647608D01*
X108283091Y-94630710D01*
X108272808Y-94620427D01*
X108240475Y-94568970D01*
X108202317Y-94513688D01*
X108197106Y-94499949D01*
X108192468Y-94492567D01*
X108170535Y-94429887D01*
X108144614Y-94361538D01*
X108143548Y-94352762D01*
X108142598Y-94350046D01*
X108134604Y-94279101D01*
X108125000Y-94200000D01*
X108134603Y-94120905D01*
X108142598Y-94049953D01*
X108143548Y-94047236D01*
X108144614Y-94038462D01*
X108170531Y-93970124D01*
X108192468Y-93907432D01*
X108197107Y-93900048D01*
X108202317Y-93886312D01*
X108240468Y-93831039D01*
X108272808Y-93779572D01*
X108283093Y-93769286D01*
X108294755Y-93752392D01*
X108340626Y-93711753D01*
X108379572Y-93672808D01*
X108396820Y-93661969D01*
X108416556Y-93644486D01*
X108465668Y-93618709D01*
X108507432Y-93592468D01*
X108532143Y-93583821D01*
X108560642Y-93568864D01*
X108608835Y-93556985D01*
X108649953Y-93542598D01*
X108681739Y-93539016D01*
X108718638Y-93529922D01*
X108762457Y-93529922D01*
X108800000Y-93525692D01*
X108837543Y-93529922D01*
G37*
G36*
X106837543Y-91529922D02*
G01*
X106881362Y-91529922D01*
X106918261Y-91539016D01*
X106950046Y-91542598D01*
X106991160Y-91556984D01*
X107039358Y-91568864D01*
X107067858Y-91583822D01*
X107092567Y-91592468D01*
X107134325Y-91618706D01*
X107183444Y-91644486D01*
X107203181Y-91661972D01*
X107220427Y-91672808D01*
X107259364Y-91711745D01*
X107305245Y-91752392D01*
X107316908Y-91769289D01*
X107327191Y-91779572D01*
X107359520Y-91831023D01*
X107397683Y-91886312D01*
X107402894Y-91900052D01*
X107407531Y-91907432D01*
X107429455Y-91970090D01*
X107455386Y-92038462D01*
X107456451Y-92047240D01*
X107457401Y-92049953D01*
X107465382Y-92120790D01*
X107475000Y-92200000D01*
X107465381Y-92279215D01*
X107457401Y-92350046D01*
X107456452Y-92352757D01*
X107455386Y-92361538D01*
X107429451Y-92429921D01*
X107407531Y-92492567D01*
X107402894Y-92499945D01*
X107397683Y-92513688D01*
X107359513Y-92568986D01*
X107327191Y-92620427D01*
X107316910Y-92630707D01*
X107305245Y-92647608D01*
X107259355Y-92688262D01*
X107220427Y-92727191D01*
X107203185Y-92738024D01*
X107183444Y-92755514D01*
X107134315Y-92781298D01*
X107092567Y-92807531D01*
X107067864Y-92816174D01*
X107039358Y-92831136D01*
X106991151Y-92843017D01*
X106950046Y-92857401D01*
X106918268Y-92860981D01*
X106881362Y-92870078D01*
X106837534Y-92870078D01*
X106800000Y-92874307D01*
X106762466Y-92870078D01*
X106718638Y-92870078D01*
X106681731Y-92860981D01*
X106649953Y-92857401D01*
X106608845Y-92843016D01*
X106560642Y-92831136D01*
X106532137Y-92816175D01*
X106507432Y-92807531D01*
X106465678Y-92781295D01*
X106416556Y-92755514D01*
X106396816Y-92738026D01*
X106379572Y-92727191D01*
X106340635Y-92688254D01*
X106294755Y-92647608D01*
X106283091Y-92630710D01*
X106272808Y-92620427D01*
X106240475Y-92568970D01*
X106202317Y-92513688D01*
X106197106Y-92499949D01*
X106192468Y-92492567D01*
X106170535Y-92429887D01*
X106144614Y-92361538D01*
X106143548Y-92352762D01*
X106142598Y-92350046D01*
X106134604Y-92279101D01*
X106125000Y-92200000D01*
X106134603Y-92120905D01*
X106142598Y-92049953D01*
X106143548Y-92047236D01*
X106144614Y-92038462D01*
X106170531Y-91970124D01*
X106192468Y-91907432D01*
X106197107Y-91900048D01*
X106202317Y-91886312D01*
X106240468Y-91831039D01*
X106272808Y-91779572D01*
X106283093Y-91769286D01*
X106294755Y-91752392D01*
X106340626Y-91711753D01*
X106379572Y-91672808D01*
X106396820Y-91661969D01*
X106416556Y-91644486D01*
X106465668Y-91618709D01*
X106507432Y-91592468D01*
X106532143Y-91583821D01*
X106560642Y-91568864D01*
X106608835Y-91556985D01*
X106649953Y-91542598D01*
X106681739Y-91539016D01*
X106718638Y-91529922D01*
X106762457Y-91529922D01*
X106800000Y-91525692D01*
X106837543Y-91529922D01*
G37*
G36*
X108837543Y-91529922D02*
G01*
X108881362Y-91529922D01*
X108918261Y-91539016D01*
X108950046Y-91542598D01*
X108991160Y-91556984D01*
X109039358Y-91568864D01*
X109067858Y-91583822D01*
X109092567Y-91592468D01*
X109134325Y-91618706D01*
X109183444Y-91644486D01*
X109203181Y-91661972D01*
X109220427Y-91672808D01*
X109259364Y-91711745D01*
X109305245Y-91752392D01*
X109316908Y-91769289D01*
X109327191Y-91779572D01*
X109359520Y-91831023D01*
X109397683Y-91886312D01*
X109402894Y-91900052D01*
X109407531Y-91907432D01*
X109429455Y-91970090D01*
X109455386Y-92038462D01*
X109456451Y-92047240D01*
X109457401Y-92049953D01*
X109465382Y-92120790D01*
X109475000Y-92200000D01*
X109465381Y-92279215D01*
X109457401Y-92350046D01*
X109456452Y-92352757D01*
X109455386Y-92361538D01*
X109429451Y-92429921D01*
X109407531Y-92492567D01*
X109402894Y-92499945D01*
X109397683Y-92513688D01*
X109359513Y-92568986D01*
X109327191Y-92620427D01*
X109316910Y-92630707D01*
X109305245Y-92647608D01*
X109259355Y-92688262D01*
X109220427Y-92727191D01*
X109203185Y-92738024D01*
X109183444Y-92755514D01*
X109134315Y-92781298D01*
X109092567Y-92807531D01*
X109067864Y-92816174D01*
X109039358Y-92831136D01*
X108991151Y-92843017D01*
X108950046Y-92857401D01*
X108918268Y-92860981D01*
X108881362Y-92870078D01*
X108837534Y-92870078D01*
X108800000Y-92874307D01*
X108762466Y-92870078D01*
X108718638Y-92870078D01*
X108681731Y-92860981D01*
X108649953Y-92857401D01*
X108608845Y-92843016D01*
X108560642Y-92831136D01*
X108532137Y-92816175D01*
X108507432Y-92807531D01*
X108465678Y-92781295D01*
X108416556Y-92755514D01*
X108396816Y-92738026D01*
X108379572Y-92727191D01*
X108340635Y-92688254D01*
X108294755Y-92647608D01*
X108283091Y-92630710D01*
X108272808Y-92620427D01*
X108240475Y-92568970D01*
X108202317Y-92513688D01*
X108197106Y-92499949D01*
X108192468Y-92492567D01*
X108170535Y-92429887D01*
X108144614Y-92361538D01*
X108143548Y-92352762D01*
X108142598Y-92350046D01*
X108134604Y-92279101D01*
X108125000Y-92200000D01*
X108134603Y-92120905D01*
X108142598Y-92049953D01*
X108143548Y-92047236D01*
X108144614Y-92038462D01*
X108170531Y-91970124D01*
X108192468Y-91907432D01*
X108197107Y-91900048D01*
X108202317Y-91886312D01*
X108240468Y-91831039D01*
X108272808Y-91779572D01*
X108283093Y-91769286D01*
X108294755Y-91752392D01*
X108340626Y-91711753D01*
X108379572Y-91672808D01*
X108396820Y-91661969D01*
X108416556Y-91644486D01*
X108465668Y-91618709D01*
X108507432Y-91592468D01*
X108532143Y-91583821D01*
X108560642Y-91568864D01*
X108608835Y-91556985D01*
X108649953Y-91542598D01*
X108681739Y-91539016D01*
X108718638Y-91529922D01*
X108762457Y-91529922D01*
X108800000Y-91525692D01*
X108837543Y-91529922D01*
G37*
G36*
X106837543Y-89529922D02*
G01*
X106881362Y-89529922D01*
X106918261Y-89539016D01*
X106950046Y-89542598D01*
X106991160Y-89556984D01*
X107039358Y-89568864D01*
X107067858Y-89583822D01*
X107092567Y-89592468D01*
X107134325Y-89618706D01*
X107183444Y-89644486D01*
X107203181Y-89661972D01*
X107220427Y-89672808D01*
X107259364Y-89711745D01*
X107305245Y-89752392D01*
X107316908Y-89769289D01*
X107327191Y-89779572D01*
X107359520Y-89831023D01*
X107397683Y-89886312D01*
X107402894Y-89900052D01*
X107407531Y-89907432D01*
X107429455Y-89970090D01*
X107455386Y-90038462D01*
X107456451Y-90047240D01*
X107457401Y-90049953D01*
X107465382Y-90120790D01*
X107475000Y-90200000D01*
X107465381Y-90279215D01*
X107457401Y-90350046D01*
X107456452Y-90352757D01*
X107455386Y-90361538D01*
X107429451Y-90429921D01*
X107407531Y-90492567D01*
X107402894Y-90499945D01*
X107397683Y-90513688D01*
X107359513Y-90568986D01*
X107327191Y-90620427D01*
X107316910Y-90630707D01*
X107305245Y-90647608D01*
X107259355Y-90688262D01*
X107220427Y-90727191D01*
X107203185Y-90738024D01*
X107183444Y-90755514D01*
X107134315Y-90781298D01*
X107092567Y-90807531D01*
X107067864Y-90816174D01*
X107039358Y-90831136D01*
X106991151Y-90843017D01*
X106950046Y-90857401D01*
X106918268Y-90860981D01*
X106881362Y-90870078D01*
X106837534Y-90870078D01*
X106800000Y-90874307D01*
X106762466Y-90870078D01*
X106718638Y-90870078D01*
X106681731Y-90860981D01*
X106649953Y-90857401D01*
X106608845Y-90843016D01*
X106560642Y-90831136D01*
X106532137Y-90816175D01*
X106507432Y-90807531D01*
X106465678Y-90781295D01*
X106416556Y-90755514D01*
X106396816Y-90738026D01*
X106379572Y-90727191D01*
X106340635Y-90688254D01*
X106294755Y-90647608D01*
X106283091Y-90630710D01*
X106272808Y-90620427D01*
X106240475Y-90568970D01*
X106202317Y-90513688D01*
X106197106Y-90499949D01*
X106192468Y-90492567D01*
X106170535Y-90429887D01*
X106144614Y-90361538D01*
X106143548Y-90352762D01*
X106142598Y-90350046D01*
X106134604Y-90279101D01*
X106125000Y-90200000D01*
X106134603Y-90120905D01*
X106142598Y-90049953D01*
X106143548Y-90047236D01*
X106144614Y-90038462D01*
X106170531Y-89970124D01*
X106192468Y-89907432D01*
X106197107Y-89900048D01*
X106202317Y-89886312D01*
X106240468Y-89831039D01*
X106272808Y-89779572D01*
X106283093Y-89769286D01*
X106294755Y-89752392D01*
X106340626Y-89711753D01*
X106379572Y-89672808D01*
X106396820Y-89661969D01*
X106416556Y-89644486D01*
X106465668Y-89618709D01*
X106507432Y-89592468D01*
X106532143Y-89583821D01*
X106560642Y-89568864D01*
X106608835Y-89556985D01*
X106649953Y-89542598D01*
X106681739Y-89539016D01*
X106718638Y-89529922D01*
X106762457Y-89529922D01*
X106800000Y-89525692D01*
X106837543Y-89529922D01*
G37*
G36*
X108837543Y-89529922D02*
G01*
X108881362Y-89529922D01*
X108918261Y-89539016D01*
X108950046Y-89542598D01*
X108991160Y-89556984D01*
X109039358Y-89568864D01*
X109067858Y-89583822D01*
X109092567Y-89592468D01*
X109134325Y-89618706D01*
X109183444Y-89644486D01*
X109203181Y-89661972D01*
X109220427Y-89672808D01*
X109259364Y-89711745D01*
X109305245Y-89752392D01*
X109316908Y-89769289D01*
X109327191Y-89779572D01*
X109359520Y-89831023D01*
X109397683Y-89886312D01*
X109402894Y-89900052D01*
X109407531Y-89907432D01*
X109429455Y-89970090D01*
X109455386Y-90038462D01*
X109456451Y-90047240D01*
X109457401Y-90049953D01*
X109465382Y-90120790D01*
X109475000Y-90200000D01*
X109465381Y-90279215D01*
X109457401Y-90350046D01*
X109456452Y-90352757D01*
X109455386Y-90361538D01*
X109429451Y-90429921D01*
X109407531Y-90492567D01*
X109402894Y-90499945D01*
X109397683Y-90513688D01*
X109359513Y-90568986D01*
X109327191Y-90620427D01*
X109316910Y-90630707D01*
X109305245Y-90647608D01*
X109259355Y-90688262D01*
X109220427Y-90727191D01*
X109203185Y-90738024D01*
X109183444Y-90755514D01*
X109134315Y-90781298D01*
X109092567Y-90807531D01*
X109067864Y-90816174D01*
X109039358Y-90831136D01*
X108991151Y-90843017D01*
X108950046Y-90857401D01*
X108918268Y-90860981D01*
X108881362Y-90870078D01*
X108837534Y-90870078D01*
X108800000Y-90874307D01*
X108762466Y-90870078D01*
X108718638Y-90870078D01*
X108681731Y-90860981D01*
X108649953Y-90857401D01*
X108608845Y-90843016D01*
X108560642Y-90831136D01*
X108532137Y-90816175D01*
X108507432Y-90807531D01*
X108465678Y-90781295D01*
X108416556Y-90755514D01*
X108396816Y-90738026D01*
X108379572Y-90727191D01*
X108340635Y-90688254D01*
X108294755Y-90647608D01*
X108283091Y-90630710D01*
X108272808Y-90620427D01*
X108240475Y-90568970D01*
X108202317Y-90513688D01*
X108197106Y-90499949D01*
X108192468Y-90492567D01*
X108170535Y-90429887D01*
X108144614Y-90361538D01*
X108143548Y-90352762D01*
X108142598Y-90350046D01*
X108134604Y-90279101D01*
X108125000Y-90200000D01*
X108134603Y-90120905D01*
X108142598Y-90049953D01*
X108143548Y-90047236D01*
X108144614Y-90038462D01*
X108170531Y-89970124D01*
X108192468Y-89907432D01*
X108197107Y-89900048D01*
X108202317Y-89886312D01*
X108240468Y-89831039D01*
X108272808Y-89779572D01*
X108283093Y-89769286D01*
X108294755Y-89752392D01*
X108340626Y-89711753D01*
X108379572Y-89672808D01*
X108396820Y-89661969D01*
X108416556Y-89644486D01*
X108465668Y-89618709D01*
X108507432Y-89592468D01*
X108532143Y-89583821D01*
X108560642Y-89568864D01*
X108608835Y-89556985D01*
X108649953Y-89542598D01*
X108681739Y-89539016D01*
X108718638Y-89529922D01*
X108762457Y-89529922D01*
X108800000Y-89525692D01*
X108837543Y-89529922D01*
G37*
G36*
X106837543Y-87529922D02*
G01*
X106881362Y-87529922D01*
X106918261Y-87539016D01*
X106950046Y-87542598D01*
X106991160Y-87556984D01*
X107039358Y-87568864D01*
X107067858Y-87583822D01*
X107092567Y-87592468D01*
X107134325Y-87618706D01*
X107183444Y-87644486D01*
X107203181Y-87661972D01*
X107220427Y-87672808D01*
X107259364Y-87711745D01*
X107305245Y-87752392D01*
X107316908Y-87769289D01*
X107327191Y-87779572D01*
X107359520Y-87831023D01*
X107397683Y-87886312D01*
X107402894Y-87900052D01*
X107407531Y-87907432D01*
X107429455Y-87970090D01*
X107455386Y-88038462D01*
X107456451Y-88047240D01*
X107457401Y-88049953D01*
X107465382Y-88120790D01*
X107475000Y-88200000D01*
X107465381Y-88279215D01*
X107457401Y-88350046D01*
X107456452Y-88352757D01*
X107455386Y-88361538D01*
X107429451Y-88429921D01*
X107407531Y-88492567D01*
X107402894Y-88499945D01*
X107397683Y-88513688D01*
X107359513Y-88568986D01*
X107327191Y-88620427D01*
X107316910Y-88630707D01*
X107305245Y-88647608D01*
X107259355Y-88688262D01*
X107220427Y-88727191D01*
X107203185Y-88738024D01*
X107183444Y-88755514D01*
X107134315Y-88781298D01*
X107092567Y-88807531D01*
X107067864Y-88816174D01*
X107039358Y-88831136D01*
X106991151Y-88843017D01*
X106950046Y-88857401D01*
X106918268Y-88860981D01*
X106881362Y-88870078D01*
X106837534Y-88870078D01*
X106800000Y-88874307D01*
X106762466Y-88870078D01*
X106718638Y-88870078D01*
X106681731Y-88860981D01*
X106649953Y-88857401D01*
X106608845Y-88843016D01*
X106560642Y-88831136D01*
X106532137Y-88816175D01*
X106507432Y-88807531D01*
X106465678Y-88781295D01*
X106416556Y-88755514D01*
X106396816Y-88738026D01*
X106379572Y-88727191D01*
X106340635Y-88688254D01*
X106294755Y-88647608D01*
X106283091Y-88630710D01*
X106272808Y-88620427D01*
X106240475Y-88568970D01*
X106202317Y-88513688D01*
X106197106Y-88499949D01*
X106192468Y-88492567D01*
X106170535Y-88429887D01*
X106144614Y-88361538D01*
X106143548Y-88352762D01*
X106142598Y-88350046D01*
X106134604Y-88279101D01*
X106125000Y-88200000D01*
X106134603Y-88120905D01*
X106142598Y-88049953D01*
X106143548Y-88047236D01*
X106144614Y-88038462D01*
X106170531Y-87970124D01*
X106192468Y-87907432D01*
X106197107Y-87900048D01*
X106202317Y-87886312D01*
X106240468Y-87831039D01*
X106272808Y-87779572D01*
X106283093Y-87769286D01*
X106294755Y-87752392D01*
X106340626Y-87711753D01*
X106379572Y-87672808D01*
X106396820Y-87661969D01*
X106416556Y-87644486D01*
X106465668Y-87618709D01*
X106507432Y-87592468D01*
X106532143Y-87583821D01*
X106560642Y-87568864D01*
X106608835Y-87556985D01*
X106649953Y-87542598D01*
X106681739Y-87539016D01*
X106718638Y-87529922D01*
X106762457Y-87529922D01*
X106800000Y-87525692D01*
X106837543Y-87529922D01*
G37*
G36*
X108837543Y-87529922D02*
G01*
X108881362Y-87529922D01*
X108918261Y-87539016D01*
X108950046Y-87542598D01*
X108991160Y-87556984D01*
X109039358Y-87568864D01*
X109067858Y-87583822D01*
X109092567Y-87592468D01*
X109134325Y-87618706D01*
X109183444Y-87644486D01*
X109203181Y-87661972D01*
X109220427Y-87672808D01*
X109259364Y-87711745D01*
X109305245Y-87752392D01*
X109316908Y-87769289D01*
X109327191Y-87779572D01*
X109359520Y-87831023D01*
X109397683Y-87886312D01*
X109402894Y-87900052D01*
X109407531Y-87907432D01*
X109429455Y-87970090D01*
X109455386Y-88038462D01*
X109456451Y-88047240D01*
X109457401Y-88049953D01*
X109465382Y-88120790D01*
X109475000Y-88200000D01*
X109465381Y-88279215D01*
X109457401Y-88350046D01*
X109456452Y-88352757D01*
X109455386Y-88361538D01*
X109429451Y-88429921D01*
X109407531Y-88492567D01*
X109402894Y-88499945D01*
X109397683Y-88513688D01*
X109359513Y-88568986D01*
X109327191Y-88620427D01*
X109316910Y-88630707D01*
X109305245Y-88647608D01*
X109259355Y-88688262D01*
X109220427Y-88727191D01*
X109203185Y-88738024D01*
X109183444Y-88755514D01*
X109134315Y-88781298D01*
X109092567Y-88807531D01*
X109067864Y-88816174D01*
X109039358Y-88831136D01*
X108991151Y-88843017D01*
X108950046Y-88857401D01*
X108918268Y-88860981D01*
X108881362Y-88870078D01*
X108837534Y-88870078D01*
X108800000Y-88874307D01*
X108762466Y-88870078D01*
X108718638Y-88870078D01*
X108681731Y-88860981D01*
X108649953Y-88857401D01*
X108608845Y-88843016D01*
X108560642Y-88831136D01*
X108532137Y-88816175D01*
X108507432Y-88807531D01*
X108465678Y-88781295D01*
X108416556Y-88755514D01*
X108396816Y-88738026D01*
X108379572Y-88727191D01*
X108340635Y-88688254D01*
X108294755Y-88647608D01*
X108283091Y-88630710D01*
X108272808Y-88620427D01*
X108240475Y-88568970D01*
X108202317Y-88513688D01*
X108197106Y-88499949D01*
X108192468Y-88492567D01*
X108170535Y-88429887D01*
X108144614Y-88361538D01*
X108143548Y-88352762D01*
X108142598Y-88350046D01*
X108134604Y-88279101D01*
X108125000Y-88200000D01*
X108134603Y-88120905D01*
X108142598Y-88049953D01*
X108143548Y-88047236D01*
X108144614Y-88038462D01*
X108170531Y-87970124D01*
X108192468Y-87907432D01*
X108197107Y-87900048D01*
X108202317Y-87886312D01*
X108240468Y-87831039D01*
X108272808Y-87779572D01*
X108283093Y-87769286D01*
X108294755Y-87752392D01*
X108340626Y-87711753D01*
X108379572Y-87672808D01*
X108396820Y-87661969D01*
X108416556Y-87644486D01*
X108465668Y-87618709D01*
X108507432Y-87592468D01*
X108532143Y-87583821D01*
X108560642Y-87568864D01*
X108608835Y-87556985D01*
X108649953Y-87542598D01*
X108681739Y-87539016D01*
X108718638Y-87529922D01*
X108762457Y-87529922D01*
X108800000Y-87525692D01*
X108837543Y-87529922D01*
G37*
G36*
X106837543Y-85529922D02*
G01*
X106881362Y-85529922D01*
X106918261Y-85539016D01*
X106950046Y-85542598D01*
X106991160Y-85556984D01*
X107039358Y-85568864D01*
X107067858Y-85583822D01*
X107092567Y-85592468D01*
X107134325Y-85618706D01*
X107183444Y-85644486D01*
X107203181Y-85661972D01*
X107220427Y-85672808D01*
X107259364Y-85711745D01*
X107305245Y-85752392D01*
X107316908Y-85769289D01*
X107327191Y-85779572D01*
X107359520Y-85831023D01*
X107397683Y-85886312D01*
X107402894Y-85900052D01*
X107407531Y-85907432D01*
X107429455Y-85970090D01*
X107455386Y-86038462D01*
X107456451Y-86047240D01*
X107457401Y-86049953D01*
X107465382Y-86120790D01*
X107475000Y-86200000D01*
X107465381Y-86279215D01*
X107457401Y-86350046D01*
X107456452Y-86352757D01*
X107455386Y-86361538D01*
X107429451Y-86429921D01*
X107407531Y-86492567D01*
X107402894Y-86499945D01*
X107397683Y-86513688D01*
X107359513Y-86568986D01*
X107327191Y-86620427D01*
X107316910Y-86630707D01*
X107305245Y-86647608D01*
X107259355Y-86688262D01*
X107220427Y-86727191D01*
X107203185Y-86738024D01*
X107183444Y-86755514D01*
X107134315Y-86781298D01*
X107092567Y-86807531D01*
X107067864Y-86816174D01*
X107039358Y-86831136D01*
X106991151Y-86843017D01*
X106950046Y-86857401D01*
X106918268Y-86860981D01*
X106881362Y-86870078D01*
X106837534Y-86870078D01*
X106800000Y-86874307D01*
X106762466Y-86870078D01*
X106718638Y-86870078D01*
X106681731Y-86860981D01*
X106649953Y-86857401D01*
X106608845Y-86843016D01*
X106560642Y-86831136D01*
X106532137Y-86816175D01*
X106507432Y-86807531D01*
X106465678Y-86781295D01*
X106416556Y-86755514D01*
X106396816Y-86738026D01*
X106379572Y-86727191D01*
X106340635Y-86688254D01*
X106294755Y-86647608D01*
X106283091Y-86630710D01*
X106272808Y-86620427D01*
X106240475Y-86568970D01*
X106202317Y-86513688D01*
X106197106Y-86499949D01*
X106192468Y-86492567D01*
X106170535Y-86429887D01*
X106144614Y-86361538D01*
X106143548Y-86352762D01*
X106142598Y-86350046D01*
X106134604Y-86279101D01*
X106125000Y-86200000D01*
X106134603Y-86120905D01*
X106142598Y-86049953D01*
X106143548Y-86047236D01*
X106144614Y-86038462D01*
X106170531Y-85970124D01*
X106192468Y-85907432D01*
X106197107Y-85900048D01*
X106202317Y-85886312D01*
X106240468Y-85831039D01*
X106272808Y-85779572D01*
X106283093Y-85769286D01*
X106294755Y-85752392D01*
X106340626Y-85711753D01*
X106379572Y-85672808D01*
X106396820Y-85661969D01*
X106416556Y-85644486D01*
X106465668Y-85618709D01*
X106507432Y-85592468D01*
X106532143Y-85583821D01*
X106560642Y-85568864D01*
X106608835Y-85556985D01*
X106649953Y-85542598D01*
X106681739Y-85539016D01*
X106718638Y-85529922D01*
X106762457Y-85529922D01*
X106800000Y-85525692D01*
X106837543Y-85529922D01*
G37*
G36*
X108837543Y-85529922D02*
G01*
X108881362Y-85529922D01*
X108918261Y-85539016D01*
X108950046Y-85542598D01*
X108991160Y-85556984D01*
X109039358Y-85568864D01*
X109067858Y-85583822D01*
X109092567Y-85592468D01*
X109134325Y-85618706D01*
X109183444Y-85644486D01*
X109203181Y-85661972D01*
X109220427Y-85672808D01*
X109259364Y-85711745D01*
X109305245Y-85752392D01*
X109316908Y-85769289D01*
X109327191Y-85779572D01*
X109359520Y-85831023D01*
X109397683Y-85886312D01*
X109402894Y-85900052D01*
X109407531Y-85907432D01*
X109429455Y-85970090D01*
X109455386Y-86038462D01*
X109456451Y-86047240D01*
X109457401Y-86049953D01*
X109465382Y-86120790D01*
X109475000Y-86200000D01*
X109465381Y-86279215D01*
X109457401Y-86350046D01*
X109456452Y-86352757D01*
X109455386Y-86361538D01*
X109429451Y-86429921D01*
X109407531Y-86492567D01*
X109402894Y-86499945D01*
X109397683Y-86513688D01*
X109359513Y-86568986D01*
X109327191Y-86620427D01*
X109316910Y-86630707D01*
X109305245Y-86647608D01*
X109259355Y-86688262D01*
X109220427Y-86727191D01*
X109203185Y-86738024D01*
X109183444Y-86755514D01*
X109134315Y-86781298D01*
X109092567Y-86807531D01*
X109067864Y-86816174D01*
X109039358Y-86831136D01*
X108991151Y-86843017D01*
X108950046Y-86857401D01*
X108918268Y-86860981D01*
X108881362Y-86870078D01*
X108837534Y-86870078D01*
X108800000Y-86874307D01*
X108762466Y-86870078D01*
X108718638Y-86870078D01*
X108681731Y-86860981D01*
X108649953Y-86857401D01*
X108608845Y-86843016D01*
X108560642Y-86831136D01*
X108532137Y-86816175D01*
X108507432Y-86807531D01*
X108465678Y-86781295D01*
X108416556Y-86755514D01*
X108396816Y-86738026D01*
X108379572Y-86727191D01*
X108340635Y-86688254D01*
X108294755Y-86647608D01*
X108283091Y-86630710D01*
X108272808Y-86620427D01*
X108240475Y-86568970D01*
X108202317Y-86513688D01*
X108197106Y-86499949D01*
X108192468Y-86492567D01*
X108170535Y-86429887D01*
X108144614Y-86361538D01*
X108143548Y-86352762D01*
X108142598Y-86350046D01*
X108134604Y-86279101D01*
X108125000Y-86200000D01*
X108134603Y-86120905D01*
X108142598Y-86049953D01*
X108143548Y-86047236D01*
X108144614Y-86038462D01*
X108170531Y-85970124D01*
X108192468Y-85907432D01*
X108197107Y-85900048D01*
X108202317Y-85886312D01*
X108240468Y-85831039D01*
X108272808Y-85779572D01*
X108283093Y-85769286D01*
X108294755Y-85752392D01*
X108340626Y-85711753D01*
X108379572Y-85672808D01*
X108396820Y-85661969D01*
X108416556Y-85644486D01*
X108465668Y-85618709D01*
X108507432Y-85592468D01*
X108532143Y-85583821D01*
X108560642Y-85568864D01*
X108608835Y-85556985D01*
X108649953Y-85542598D01*
X108681739Y-85539016D01*
X108718638Y-85529922D01*
X108762457Y-85529922D01*
X108800000Y-85525692D01*
X108837543Y-85529922D01*
G37*
G36*
X106837543Y-83529922D02*
G01*
X106881362Y-83529922D01*
X106918261Y-83539016D01*
X106950046Y-83542598D01*
X106991160Y-83556984D01*
X107039358Y-83568864D01*
X107067858Y-83583822D01*
X107092567Y-83592468D01*
X107134325Y-83618706D01*
X107183444Y-83644486D01*
X107203181Y-83661972D01*
X107220427Y-83672808D01*
X107259364Y-83711745D01*
X107305245Y-83752392D01*
X107316908Y-83769289D01*
X107327191Y-83779572D01*
X107359520Y-83831023D01*
X107397683Y-83886312D01*
X107402894Y-83900052D01*
X107407531Y-83907432D01*
X107429455Y-83970090D01*
X107455386Y-84038462D01*
X107456451Y-84047240D01*
X107457401Y-84049953D01*
X107465382Y-84120790D01*
X107475000Y-84200000D01*
X107465381Y-84279215D01*
X107457401Y-84350046D01*
X107456452Y-84352757D01*
X107455386Y-84361538D01*
X107429451Y-84429921D01*
X107407531Y-84492567D01*
X107402894Y-84499945D01*
X107397683Y-84513688D01*
X107359513Y-84568986D01*
X107327191Y-84620427D01*
X107316910Y-84630707D01*
X107305245Y-84647608D01*
X107259355Y-84688262D01*
X107220427Y-84727191D01*
X107203185Y-84738024D01*
X107183444Y-84755514D01*
X107134315Y-84781298D01*
X107092567Y-84807531D01*
X107067864Y-84816174D01*
X107039358Y-84831136D01*
X106991151Y-84843017D01*
X106950046Y-84857401D01*
X106918268Y-84860981D01*
X106881362Y-84870078D01*
X106837534Y-84870078D01*
X106800000Y-84874307D01*
X106762466Y-84870078D01*
X106718638Y-84870078D01*
X106681731Y-84860981D01*
X106649953Y-84857401D01*
X106608845Y-84843016D01*
X106560642Y-84831136D01*
X106532137Y-84816175D01*
X106507432Y-84807531D01*
X106465678Y-84781295D01*
X106416556Y-84755514D01*
X106396816Y-84738026D01*
X106379572Y-84727191D01*
X106340635Y-84688254D01*
X106294755Y-84647608D01*
X106283091Y-84630710D01*
X106272808Y-84620427D01*
X106240475Y-84568970D01*
X106202317Y-84513688D01*
X106197106Y-84499949D01*
X106192468Y-84492567D01*
X106170535Y-84429887D01*
X106144614Y-84361538D01*
X106143548Y-84352762D01*
X106142598Y-84350046D01*
X106134604Y-84279101D01*
X106125000Y-84200000D01*
X106134603Y-84120905D01*
X106142598Y-84049953D01*
X106143548Y-84047236D01*
X106144614Y-84038462D01*
X106170531Y-83970124D01*
X106192468Y-83907432D01*
X106197107Y-83900048D01*
X106202317Y-83886312D01*
X106240468Y-83831039D01*
X106272808Y-83779572D01*
X106283093Y-83769286D01*
X106294755Y-83752392D01*
X106340626Y-83711753D01*
X106379572Y-83672808D01*
X106396820Y-83661969D01*
X106416556Y-83644486D01*
X106465668Y-83618709D01*
X106507432Y-83592468D01*
X106532143Y-83583821D01*
X106560642Y-83568864D01*
X106608835Y-83556985D01*
X106649953Y-83542598D01*
X106681739Y-83539016D01*
X106718638Y-83529922D01*
X106762457Y-83529922D01*
X106800000Y-83525692D01*
X106837543Y-83529922D01*
G37*
G36*
X108837543Y-83529922D02*
G01*
X108881362Y-83529922D01*
X108918261Y-83539016D01*
X108950046Y-83542598D01*
X108991160Y-83556984D01*
X109039358Y-83568864D01*
X109067858Y-83583822D01*
X109092567Y-83592468D01*
X109134325Y-83618706D01*
X109183444Y-83644486D01*
X109203181Y-83661972D01*
X109220427Y-83672808D01*
X109259364Y-83711745D01*
X109305245Y-83752392D01*
X109316908Y-83769289D01*
X109327191Y-83779572D01*
X109359520Y-83831023D01*
X109397683Y-83886312D01*
X109402894Y-83900052D01*
X109407531Y-83907432D01*
X109429455Y-83970090D01*
X109455386Y-84038462D01*
X109456451Y-84047240D01*
X109457401Y-84049953D01*
X109465382Y-84120790D01*
X109475000Y-84200000D01*
X109465381Y-84279215D01*
X109457401Y-84350046D01*
X109456452Y-84352757D01*
X109455386Y-84361538D01*
X109429451Y-84429921D01*
X109407531Y-84492567D01*
X109402894Y-84499945D01*
X109397683Y-84513688D01*
X109359513Y-84568986D01*
X109327191Y-84620427D01*
X109316910Y-84630707D01*
X109305245Y-84647608D01*
X109259355Y-84688262D01*
X109220427Y-84727191D01*
X109203185Y-84738024D01*
X109183444Y-84755514D01*
X109134315Y-84781298D01*
X109092567Y-84807531D01*
X109067864Y-84816174D01*
X109039358Y-84831136D01*
X108991151Y-84843017D01*
X108950046Y-84857401D01*
X108918268Y-84860981D01*
X108881362Y-84870078D01*
X108837534Y-84870078D01*
X108800000Y-84874307D01*
X108762466Y-84870078D01*
X108718638Y-84870078D01*
X108681731Y-84860981D01*
X108649953Y-84857401D01*
X108608845Y-84843016D01*
X108560642Y-84831136D01*
X108532137Y-84816175D01*
X108507432Y-84807531D01*
X108465678Y-84781295D01*
X108416556Y-84755514D01*
X108396816Y-84738026D01*
X108379572Y-84727191D01*
X108340635Y-84688254D01*
X108294755Y-84647608D01*
X108283091Y-84630710D01*
X108272808Y-84620427D01*
X108240475Y-84568970D01*
X108202317Y-84513688D01*
X108197106Y-84499949D01*
X108192468Y-84492567D01*
X108170535Y-84429887D01*
X108144614Y-84361538D01*
X108143548Y-84352762D01*
X108142598Y-84350046D01*
X108134604Y-84279101D01*
X108125000Y-84200000D01*
X108134603Y-84120905D01*
X108142598Y-84049953D01*
X108143548Y-84047236D01*
X108144614Y-84038462D01*
X108170531Y-83970124D01*
X108192468Y-83907432D01*
X108197107Y-83900048D01*
X108202317Y-83886312D01*
X108240468Y-83831039D01*
X108272808Y-83779572D01*
X108283093Y-83769286D01*
X108294755Y-83752392D01*
X108340626Y-83711753D01*
X108379572Y-83672808D01*
X108396820Y-83661969D01*
X108416556Y-83644486D01*
X108465668Y-83618709D01*
X108507432Y-83592468D01*
X108532143Y-83583821D01*
X108560642Y-83568864D01*
X108608835Y-83556985D01*
X108649953Y-83542598D01*
X108681739Y-83539016D01*
X108718638Y-83529922D01*
X108762457Y-83529922D01*
X108800000Y-83525692D01*
X108837543Y-83529922D01*
G37*
G36*
X106837543Y-81529922D02*
G01*
X106881362Y-81529922D01*
X106918261Y-81539016D01*
X106950046Y-81542598D01*
X106991160Y-81556984D01*
X107039358Y-81568864D01*
X107067858Y-81583822D01*
X107092567Y-81592468D01*
X107134325Y-81618706D01*
X107183444Y-81644486D01*
X107203181Y-81661972D01*
X107220427Y-81672808D01*
X107259364Y-81711745D01*
X107305245Y-81752392D01*
X107316908Y-81769289D01*
X107327191Y-81779572D01*
X107359520Y-81831023D01*
X107397683Y-81886312D01*
X107402894Y-81900052D01*
X107407531Y-81907432D01*
X107429455Y-81970090D01*
X107455386Y-82038462D01*
X107456451Y-82047240D01*
X107457401Y-82049953D01*
X107465382Y-82120790D01*
X107475000Y-82200000D01*
X107465381Y-82279215D01*
X107457401Y-82350046D01*
X107456452Y-82352757D01*
X107455386Y-82361538D01*
X107429451Y-82429921D01*
X107407531Y-82492567D01*
X107402894Y-82499945D01*
X107397683Y-82513688D01*
X107359513Y-82568986D01*
X107327191Y-82620427D01*
X107316910Y-82630707D01*
X107305245Y-82647608D01*
X107259355Y-82688262D01*
X107220427Y-82727191D01*
X107203185Y-82738024D01*
X107183444Y-82755514D01*
X107134315Y-82781298D01*
X107092567Y-82807531D01*
X107067864Y-82816174D01*
X107039358Y-82831136D01*
X106991151Y-82843017D01*
X106950046Y-82857401D01*
X106918268Y-82860981D01*
X106881362Y-82870078D01*
X106837534Y-82870078D01*
X106800000Y-82874307D01*
X106762466Y-82870078D01*
X106718638Y-82870078D01*
X106681731Y-82860981D01*
X106649953Y-82857401D01*
X106608845Y-82843016D01*
X106560642Y-82831136D01*
X106532137Y-82816175D01*
X106507432Y-82807531D01*
X106465678Y-82781295D01*
X106416556Y-82755514D01*
X106396816Y-82738026D01*
X106379572Y-82727191D01*
X106340635Y-82688254D01*
X106294755Y-82647608D01*
X106283091Y-82630710D01*
X106272808Y-82620427D01*
X106240475Y-82568970D01*
X106202317Y-82513688D01*
X106197106Y-82499949D01*
X106192468Y-82492567D01*
X106170535Y-82429887D01*
X106144614Y-82361538D01*
X106143548Y-82352762D01*
X106142598Y-82350046D01*
X106134604Y-82279101D01*
X106125000Y-82200000D01*
X106134603Y-82120905D01*
X106142598Y-82049953D01*
X106143548Y-82047236D01*
X106144614Y-82038462D01*
X106170531Y-81970124D01*
X106192468Y-81907432D01*
X106197107Y-81900048D01*
X106202317Y-81886312D01*
X106240468Y-81831039D01*
X106272808Y-81779572D01*
X106283093Y-81769286D01*
X106294755Y-81752392D01*
X106340626Y-81711753D01*
X106379572Y-81672808D01*
X106396820Y-81661969D01*
X106416556Y-81644486D01*
X106465668Y-81618709D01*
X106507432Y-81592468D01*
X106532143Y-81583821D01*
X106560642Y-81568864D01*
X106608835Y-81556985D01*
X106649953Y-81542598D01*
X106681739Y-81539016D01*
X106718638Y-81529922D01*
X106762457Y-81529922D01*
X106800000Y-81525692D01*
X106837543Y-81529922D01*
G37*
G36*
X108837543Y-81529922D02*
G01*
X108881362Y-81529922D01*
X108918261Y-81539016D01*
X108950046Y-81542598D01*
X108991160Y-81556984D01*
X109039358Y-81568864D01*
X109067858Y-81583822D01*
X109092567Y-81592468D01*
X109134325Y-81618706D01*
X109183444Y-81644486D01*
X109203181Y-81661972D01*
X109220427Y-81672808D01*
X109259364Y-81711745D01*
X109305245Y-81752392D01*
X109316908Y-81769289D01*
X109327191Y-81779572D01*
X109359520Y-81831023D01*
X109397683Y-81886312D01*
X109402894Y-81900052D01*
X109407531Y-81907432D01*
X109429455Y-81970090D01*
X109455386Y-82038462D01*
X109456451Y-82047240D01*
X109457401Y-82049953D01*
X109465382Y-82120790D01*
X109475000Y-82200000D01*
X109465381Y-82279215D01*
X109457401Y-82350046D01*
X109456452Y-82352757D01*
X109455386Y-82361538D01*
X109429451Y-82429921D01*
X109407531Y-82492567D01*
X109402894Y-82499945D01*
X109397683Y-82513688D01*
X109359513Y-82568986D01*
X109327191Y-82620427D01*
X109316910Y-82630707D01*
X109305245Y-82647608D01*
X109259355Y-82688262D01*
X109220427Y-82727191D01*
X109203185Y-82738024D01*
X109183444Y-82755514D01*
X109134315Y-82781298D01*
X109092567Y-82807531D01*
X109067864Y-82816174D01*
X109039358Y-82831136D01*
X108991151Y-82843017D01*
X108950046Y-82857401D01*
X108918268Y-82860981D01*
X108881362Y-82870078D01*
X108837534Y-82870078D01*
X108800000Y-82874307D01*
X108762466Y-82870078D01*
X108718638Y-82870078D01*
X108681731Y-82860981D01*
X108649953Y-82857401D01*
X108608845Y-82843016D01*
X108560642Y-82831136D01*
X108532137Y-82816175D01*
X108507432Y-82807531D01*
X108465678Y-82781295D01*
X108416556Y-82755514D01*
X108396816Y-82738026D01*
X108379572Y-82727191D01*
X108340635Y-82688254D01*
X108294755Y-82647608D01*
X108283091Y-82630710D01*
X108272808Y-82620427D01*
X108240475Y-82568970D01*
X108202317Y-82513688D01*
X108197106Y-82499949D01*
X108192468Y-82492567D01*
X108170535Y-82429887D01*
X108144614Y-82361538D01*
X108143548Y-82352762D01*
X108142598Y-82350046D01*
X108134604Y-82279101D01*
X108125000Y-82200000D01*
X108134603Y-82120905D01*
X108142598Y-82049953D01*
X108143548Y-82047236D01*
X108144614Y-82038462D01*
X108170531Y-81970124D01*
X108192468Y-81907432D01*
X108197107Y-81900048D01*
X108202317Y-81886312D01*
X108240468Y-81831039D01*
X108272808Y-81779572D01*
X108283093Y-81769286D01*
X108294755Y-81752392D01*
X108340626Y-81711753D01*
X108379572Y-81672808D01*
X108396820Y-81661969D01*
X108416556Y-81644486D01*
X108465668Y-81618709D01*
X108507432Y-81592468D01*
X108532143Y-81583821D01*
X108560642Y-81568864D01*
X108608835Y-81556985D01*
X108649953Y-81542598D01*
X108681739Y-81539016D01*
X108718638Y-81529922D01*
X108762457Y-81529922D01*
X108800000Y-81525692D01*
X108837543Y-81529922D01*
G37*
G36*
X107475000Y-80875000D02*
G01*
X106125000Y-80875000D01*
X106125000Y-79525000D01*
X107475000Y-79525000D01*
X107475000Y-80875000D01*
G37*
G36*
X108837543Y-79529922D02*
G01*
X108881362Y-79529922D01*
X108918261Y-79539016D01*
X108950046Y-79542598D01*
X108991160Y-79556984D01*
X109039358Y-79568864D01*
X109067858Y-79583822D01*
X109092567Y-79592468D01*
X109134325Y-79618706D01*
X109183444Y-79644486D01*
X109203181Y-79661972D01*
X109220427Y-79672808D01*
X109259364Y-79711745D01*
X109305245Y-79752392D01*
X109316908Y-79769289D01*
X109327191Y-79779572D01*
X109359520Y-79831023D01*
X109397683Y-79886312D01*
X109402894Y-79900052D01*
X109407531Y-79907432D01*
X109429455Y-79970090D01*
X109455386Y-80038462D01*
X109456451Y-80047240D01*
X109457401Y-80049953D01*
X109465382Y-80120790D01*
X109475000Y-80200000D01*
X109465381Y-80279215D01*
X109457401Y-80350046D01*
X109456452Y-80352757D01*
X109455386Y-80361538D01*
X109429451Y-80429921D01*
X109407531Y-80492567D01*
X109402894Y-80499945D01*
X109397683Y-80513688D01*
X109359513Y-80568986D01*
X109327191Y-80620427D01*
X109316910Y-80630707D01*
X109305245Y-80647608D01*
X109259355Y-80688262D01*
X109220427Y-80727191D01*
X109203185Y-80738024D01*
X109183444Y-80755514D01*
X109134315Y-80781298D01*
X109092567Y-80807531D01*
X109067864Y-80816174D01*
X109039358Y-80831136D01*
X108991151Y-80843017D01*
X108950046Y-80857401D01*
X108918268Y-80860981D01*
X108881362Y-80870078D01*
X108837534Y-80870078D01*
X108800000Y-80874307D01*
X108762466Y-80870078D01*
X108718638Y-80870078D01*
X108681731Y-80860981D01*
X108649953Y-80857401D01*
X108608845Y-80843016D01*
X108560642Y-80831136D01*
X108532137Y-80816175D01*
X108507432Y-80807531D01*
X108465678Y-80781295D01*
X108416556Y-80755514D01*
X108396816Y-80738026D01*
X108379572Y-80727191D01*
X108340635Y-80688254D01*
X108294755Y-80647608D01*
X108283091Y-80630710D01*
X108272808Y-80620427D01*
X108240475Y-80568970D01*
X108202317Y-80513688D01*
X108197106Y-80499949D01*
X108192468Y-80492567D01*
X108170535Y-80429887D01*
X108144614Y-80361538D01*
X108143548Y-80352762D01*
X108142598Y-80350046D01*
X108134604Y-80279101D01*
X108125000Y-80200000D01*
X108134603Y-80120905D01*
X108142598Y-80049953D01*
X108143548Y-80047236D01*
X108144614Y-80038462D01*
X108170531Y-79970124D01*
X108192468Y-79907432D01*
X108197107Y-79900048D01*
X108202317Y-79886312D01*
X108240468Y-79831039D01*
X108272808Y-79779572D01*
X108283093Y-79769286D01*
X108294755Y-79752392D01*
X108340626Y-79711753D01*
X108379572Y-79672808D01*
X108396820Y-79661969D01*
X108416556Y-79644486D01*
X108465668Y-79618709D01*
X108507432Y-79592468D01*
X108532143Y-79583821D01*
X108560642Y-79568864D01*
X108608835Y-79556985D01*
X108649953Y-79542598D01*
X108681739Y-79539016D01*
X108718638Y-79529922D01*
X108762457Y-79529922D01*
X108800000Y-79525692D01*
X108837543Y-79529922D01*
G37*
G36*
X107677786Y-54148207D02*
G01*
X107734233Y-54148207D01*
X107783890Y-54157489D01*
X107830793Y-54161593D01*
X107888364Y-54177019D01*
X107949630Y-54188472D01*
X107991184Y-54204570D01*
X108030657Y-54215147D01*
X108090412Y-54243011D01*
X108153961Y-54267630D01*
X108186760Y-54287938D01*
X108218187Y-54302593D01*
X108277474Y-54344106D01*
X108340267Y-54382986D01*
X108364334Y-54404926D01*
X108387680Y-54421273D01*
X108443526Y-54477119D01*
X108502205Y-54530612D01*
X108518200Y-54551793D01*
X108533987Y-54567580D01*
X108583227Y-54637903D01*
X108634259Y-54705480D01*
X108643402Y-54723843D01*
X108652667Y-54737074D01*
X108692114Y-54821669D01*
X108731933Y-54901636D01*
X108735892Y-54915551D01*
X108740113Y-54924603D01*
X108766717Y-55023893D01*
X108791900Y-55112399D01*
X108792675Y-55120766D01*
X108793667Y-55124467D01*
X108804623Y-55249702D01*
X108812119Y-55330592D01*
X108804622Y-55411487D01*
X108793667Y-55536716D01*
X108792675Y-55540416D01*
X108791900Y-55548785D01*
X108766713Y-55637307D01*
X108740113Y-55736580D01*
X108735893Y-55745629D01*
X108731933Y-55759548D01*
X108692110Y-55839521D01*
X108652667Y-55924110D01*
X108643402Y-55937340D01*
X108634259Y-55955704D01*
X108583221Y-56023288D01*
X108533987Y-56093603D01*
X108518203Y-56109386D01*
X108502205Y-56130572D01*
X108443514Y-56184075D01*
X108387680Y-56239910D01*
X108364338Y-56256253D01*
X108340267Y-56278198D01*
X108277462Y-56317085D01*
X108218187Y-56358590D01*
X108186767Y-56373241D01*
X108153961Y-56393554D01*
X108090400Y-56418177D01*
X108030657Y-56446036D01*
X107991192Y-56456610D01*
X107949630Y-56472712D01*
X107888352Y-56484166D01*
X107830793Y-56499590D01*
X107783900Y-56503692D01*
X107734233Y-56512977D01*
X107677775Y-56512977D01*
X107624669Y-56517623D01*
X107571563Y-56512977D01*
X107515105Y-56512977D01*
X107465438Y-56503692D01*
X107418544Y-56499590D01*
X107360982Y-56484166D01*
X107299708Y-56472712D01*
X107258147Y-56456611D01*
X107218680Y-56446036D01*
X107158931Y-56418175D01*
X107095377Y-56393554D01*
X107062573Y-56373242D01*
X107031150Y-56358590D01*
X106971867Y-56317079D01*
X106909071Y-56278198D01*
X106885002Y-56256256D01*
X106861657Y-56239910D01*
X106805811Y-56184064D01*
X106747133Y-56130572D01*
X106731137Y-56109390D01*
X106715350Y-56093603D01*
X106666102Y-56023270D01*
X106615079Y-55955704D01*
X106605937Y-55937345D01*
X106596670Y-55924110D01*
X106557211Y-55839489D01*
X106517405Y-55759548D01*
X106513446Y-55745635D01*
X106509224Y-55736580D01*
X106482607Y-55637246D01*
X106457438Y-55548785D01*
X106456663Y-55540422D01*
X106455670Y-55536716D01*
X106444697Y-55411294D01*
X106437219Y-55330592D01*
X106444696Y-55249895D01*
X106455670Y-55124467D01*
X106456663Y-55120760D01*
X106457438Y-55112399D01*
X106482602Y-55023953D01*
X106509224Y-54924603D01*
X106513447Y-54915546D01*
X106517405Y-54901636D01*
X106557208Y-54821700D01*
X106596670Y-54737074D01*
X106605937Y-54723838D01*
X106615079Y-54705480D01*
X106666096Y-54637921D01*
X106715350Y-54567580D01*
X106731140Y-54551789D01*
X106747133Y-54530612D01*
X106805800Y-54477129D01*
X106861657Y-54421273D01*
X106885006Y-54404923D01*
X106909071Y-54382986D01*
X106971860Y-54344108D01*
X107031151Y-54302593D01*
X107062577Y-54287938D01*
X107095377Y-54267630D01*
X107158921Y-54243012D01*
X107218680Y-54215147D01*
X107258155Y-54204569D01*
X107299708Y-54188472D01*
X107360970Y-54177019D01*
X107418544Y-54161593D01*
X107465448Y-54157489D01*
X107515105Y-54148207D01*
X107571552Y-54148207D01*
X107624669Y-54143560D01*
X107677786Y-54148207D01*
G37*
G36*
X105231119Y-55109741D02*
G01*
X105270489Y-55109741D01*
X105302490Y-55119137D01*
X105327947Y-55122489D01*
X105362141Y-55136652D01*
X105405755Y-55149459D01*
X105428776Y-55164253D01*
X105447178Y-55171876D01*
X105480896Y-55197749D01*
X105524353Y-55225677D01*
X105538362Y-55241845D01*
X105549561Y-55250438D01*
X105578596Y-55288278D01*
X105616673Y-55332221D01*
X105623079Y-55346249D01*
X105628122Y-55352821D01*
X105648031Y-55400887D01*
X105675237Y-55460458D01*
X105676581Y-55469812D01*
X105677510Y-55472053D01*
X105684090Y-55522038D01*
X105695300Y-55600000D01*
X105684090Y-55677961D01*
X105677510Y-55727947D01*
X105676581Y-55730187D01*
X105675237Y-55739542D01*
X105648035Y-55799104D01*
X105628123Y-55847178D01*
X105623079Y-55853750D01*
X105616673Y-55867779D01*
X105578593Y-55911725D01*
X105549561Y-55949561D01*
X105538365Y-55958151D01*
X105524353Y-55974323D01*
X105480888Y-56002256D01*
X105447178Y-56028123D01*
X105428780Y-56035743D01*
X105405755Y-56050541D01*
X105362133Y-56063349D01*
X105327947Y-56077510D01*
X105302496Y-56080860D01*
X105270489Y-56090259D01*
X105231111Y-56090259D01*
X105200000Y-56094355D01*
X105168888Y-56090259D01*
X105129511Y-56090259D01*
X105097504Y-56080860D01*
X105072052Y-56077510D01*
X105037863Y-56063348D01*
X104994245Y-56050541D01*
X104971221Y-56035744D01*
X104952821Y-56028123D01*
X104919105Y-56002252D01*
X104875647Y-55974323D01*
X104861636Y-55958154D01*
X104850438Y-55949561D01*
X104821398Y-55911715D01*
X104783327Y-55867779D01*
X104776921Y-55853753D01*
X104771876Y-55847178D01*
X104751953Y-55799081D01*
X104724763Y-55739542D01*
X104723418Y-55730191D01*
X104722489Y-55727947D01*
X104715897Y-55677878D01*
X104704700Y-55600000D01*
X104715897Y-55522121D01*
X104722489Y-55472053D01*
X104723418Y-55469808D01*
X104724763Y-55460458D01*
X104751957Y-55400910D01*
X104771877Y-55352821D01*
X104776921Y-55346246D01*
X104783327Y-55332221D01*
X104821394Y-55288288D01*
X104850438Y-55250438D01*
X104861639Y-55241843D01*
X104875647Y-55225677D01*
X104919103Y-55197749D01*
X104952821Y-55171877D01*
X104971221Y-55164255D01*
X104994245Y-55149459D01*
X105037859Y-55136652D01*
X105072053Y-55122489D01*
X105097509Y-55119137D01*
X105129511Y-55109741D01*
X105168881Y-55109741D01*
X105200000Y-55105644D01*
X105231119Y-55109741D01*
G37*
G36*
X103794278Y-53672900D02*
G01*
X103833648Y-53672900D01*
X103865649Y-53682296D01*
X103891106Y-53685648D01*
X103925300Y-53699811D01*
X103968914Y-53712618D01*
X103991935Y-53727412D01*
X104010337Y-53735035D01*
X104044055Y-53760908D01*
X104087512Y-53788836D01*
X104101521Y-53805004D01*
X104112720Y-53813597D01*
X104141755Y-53851437D01*
X104179832Y-53895380D01*
X104186238Y-53909408D01*
X104191281Y-53915980D01*
X104211190Y-53964046D01*
X104238396Y-54023617D01*
X104239740Y-54032971D01*
X104240669Y-54035212D01*
X104247249Y-54085197D01*
X104258459Y-54163159D01*
X104247249Y-54241120D01*
X104240669Y-54291106D01*
X104239740Y-54293346D01*
X104238396Y-54302701D01*
X104211194Y-54362263D01*
X104191282Y-54410337D01*
X104186238Y-54416909D01*
X104179832Y-54430938D01*
X104141752Y-54474884D01*
X104112720Y-54512720D01*
X104101524Y-54521310D01*
X104087512Y-54537482D01*
X104044047Y-54565415D01*
X104010337Y-54591282D01*
X103991939Y-54598902D01*
X103968914Y-54613700D01*
X103925292Y-54626508D01*
X103891106Y-54640669D01*
X103865655Y-54644019D01*
X103833648Y-54653418D01*
X103794270Y-54653418D01*
X103763159Y-54657514D01*
X103732047Y-54653418D01*
X103692670Y-54653418D01*
X103660663Y-54644019D01*
X103635211Y-54640669D01*
X103601022Y-54626507D01*
X103557404Y-54613700D01*
X103534380Y-54598903D01*
X103515980Y-54591282D01*
X103482264Y-54565411D01*
X103438806Y-54537482D01*
X103424795Y-54521313D01*
X103413597Y-54512720D01*
X103384557Y-54474874D01*
X103346486Y-54430938D01*
X103340080Y-54416912D01*
X103335035Y-54410337D01*
X103315112Y-54362240D01*
X103287922Y-54302701D01*
X103286577Y-54293350D01*
X103285648Y-54291106D01*
X103279056Y-54241037D01*
X103267859Y-54163159D01*
X103279056Y-54085280D01*
X103285648Y-54035212D01*
X103286577Y-54032967D01*
X103287922Y-54023617D01*
X103315116Y-53964069D01*
X103335036Y-53915980D01*
X103340080Y-53909405D01*
X103346486Y-53895380D01*
X103384553Y-53851447D01*
X103413597Y-53813597D01*
X103424798Y-53805002D01*
X103438806Y-53788836D01*
X103482262Y-53760908D01*
X103515980Y-53735036D01*
X103534380Y-53727414D01*
X103557404Y-53712618D01*
X103601018Y-53699811D01*
X103635212Y-53685648D01*
X103660668Y-53682296D01*
X103692670Y-53672900D01*
X103732040Y-53672900D01*
X103763159Y-53668803D01*
X103794278Y-53672900D01*
G37*
G36*
X109922850Y-51903143D02*
G01*
X109979297Y-51903143D01*
X110028954Y-51912425D01*
X110075857Y-51916529D01*
X110133428Y-51931955D01*
X110194694Y-51943408D01*
X110236248Y-51959506D01*
X110275721Y-51970083D01*
X110335476Y-51997947D01*
X110399025Y-52022566D01*
X110431824Y-52042874D01*
X110463251Y-52057529D01*
X110522538Y-52099042D01*
X110585331Y-52137922D01*
X110609398Y-52159862D01*
X110632744Y-52176209D01*
X110688590Y-52232055D01*
X110747269Y-52285548D01*
X110763264Y-52306729D01*
X110779051Y-52322516D01*
X110828291Y-52392839D01*
X110879323Y-52460416D01*
X110888466Y-52478779D01*
X110897731Y-52492010D01*
X110937178Y-52576605D01*
X110976997Y-52656572D01*
X110980956Y-52670487D01*
X110985177Y-52679539D01*
X111011781Y-52778829D01*
X111036964Y-52867335D01*
X111037739Y-52875702D01*
X111038731Y-52879403D01*
X111049687Y-53004638D01*
X111057183Y-53085528D01*
X111049686Y-53166423D01*
X111038731Y-53291652D01*
X111037739Y-53295352D01*
X111036964Y-53303721D01*
X111011777Y-53392243D01*
X110985177Y-53491516D01*
X110980957Y-53500565D01*
X110976997Y-53514484D01*
X110937174Y-53594457D01*
X110897731Y-53679046D01*
X110888466Y-53692276D01*
X110879323Y-53710640D01*
X110828285Y-53778224D01*
X110779051Y-53848539D01*
X110763267Y-53864322D01*
X110747269Y-53885508D01*
X110688578Y-53939011D01*
X110632744Y-53994846D01*
X110609402Y-54011189D01*
X110585331Y-54033134D01*
X110522526Y-54072021D01*
X110463251Y-54113526D01*
X110431831Y-54128177D01*
X110399025Y-54148490D01*
X110335464Y-54173113D01*
X110275721Y-54200972D01*
X110236256Y-54211546D01*
X110194694Y-54227648D01*
X110133416Y-54239102D01*
X110075857Y-54254526D01*
X110028964Y-54258628D01*
X109979297Y-54267913D01*
X109922839Y-54267913D01*
X109869733Y-54272559D01*
X109816627Y-54267913D01*
X109760169Y-54267913D01*
X109710502Y-54258628D01*
X109663608Y-54254526D01*
X109606046Y-54239102D01*
X109544772Y-54227648D01*
X109503211Y-54211547D01*
X109463744Y-54200972D01*
X109403995Y-54173111D01*
X109340441Y-54148490D01*
X109307637Y-54128178D01*
X109276214Y-54113526D01*
X109216931Y-54072015D01*
X109154135Y-54033134D01*
X109130066Y-54011192D01*
X109106721Y-53994846D01*
X109050875Y-53939000D01*
X108992197Y-53885508D01*
X108976201Y-53864326D01*
X108960414Y-53848539D01*
X108911166Y-53778206D01*
X108860143Y-53710640D01*
X108851001Y-53692281D01*
X108841734Y-53679046D01*
X108802275Y-53594425D01*
X108762469Y-53514484D01*
X108758510Y-53500571D01*
X108754288Y-53491516D01*
X108727671Y-53392182D01*
X108702502Y-53303721D01*
X108701727Y-53295358D01*
X108700734Y-53291652D01*
X108689761Y-53166230D01*
X108682283Y-53085528D01*
X108689760Y-53004831D01*
X108700734Y-52879403D01*
X108701727Y-52875696D01*
X108702502Y-52867335D01*
X108727666Y-52778889D01*
X108754288Y-52679539D01*
X108758511Y-52670482D01*
X108762469Y-52656572D01*
X108802272Y-52576636D01*
X108841734Y-52492010D01*
X108851001Y-52478774D01*
X108860143Y-52460416D01*
X108911160Y-52392857D01*
X108960414Y-52322516D01*
X108976204Y-52306725D01*
X108992197Y-52285548D01*
X109050864Y-52232065D01*
X109106721Y-52176209D01*
X109130070Y-52159859D01*
X109154135Y-52137922D01*
X109216924Y-52099044D01*
X109276215Y-52057529D01*
X109307641Y-52042874D01*
X109340441Y-52022566D01*
X109403985Y-51997948D01*
X109463744Y-51970083D01*
X109503219Y-51959505D01*
X109544772Y-51943408D01*
X109606034Y-51931955D01*
X109663608Y-51916529D01*
X109710512Y-51912425D01*
X109760169Y-51903143D01*
X109816616Y-51903143D01*
X109869733Y-51898496D01*
X109922850Y-51903143D01*
G37*
G36*
X104085684Y-50556105D02*
G01*
X104142131Y-50556105D01*
X104191788Y-50565387D01*
X104238691Y-50569491D01*
X104296262Y-50584917D01*
X104357528Y-50596370D01*
X104399082Y-50612468D01*
X104438555Y-50623045D01*
X104498310Y-50650909D01*
X104561859Y-50675528D01*
X104594658Y-50695836D01*
X104626085Y-50710491D01*
X104685372Y-50752004D01*
X104748165Y-50790884D01*
X104772232Y-50812824D01*
X104795578Y-50829171D01*
X104851424Y-50885017D01*
X104910103Y-50938510D01*
X104926098Y-50959691D01*
X104941885Y-50975478D01*
X104991125Y-51045801D01*
X105042157Y-51113378D01*
X105051300Y-51131741D01*
X105060565Y-51144972D01*
X105100012Y-51229567D01*
X105139831Y-51309534D01*
X105143790Y-51323449D01*
X105148011Y-51332501D01*
X105174615Y-51431791D01*
X105199798Y-51520297D01*
X105200573Y-51528664D01*
X105201565Y-51532365D01*
X105212521Y-51657600D01*
X105220017Y-51738490D01*
X105212520Y-51819385D01*
X105201565Y-51944614D01*
X105200573Y-51948314D01*
X105199798Y-51956683D01*
X105174611Y-52045205D01*
X105148011Y-52144478D01*
X105143791Y-52153527D01*
X105139831Y-52167446D01*
X105100008Y-52247419D01*
X105060565Y-52332008D01*
X105051300Y-52345238D01*
X105042157Y-52363602D01*
X104991119Y-52431186D01*
X104941885Y-52501501D01*
X104926101Y-52517284D01*
X104910103Y-52538470D01*
X104851412Y-52591973D01*
X104795578Y-52647808D01*
X104772236Y-52664151D01*
X104748165Y-52686096D01*
X104685360Y-52724983D01*
X104626085Y-52766488D01*
X104594665Y-52781139D01*
X104561859Y-52801452D01*
X104498298Y-52826075D01*
X104438555Y-52853934D01*
X104399090Y-52864508D01*
X104357528Y-52880610D01*
X104296250Y-52892064D01*
X104238691Y-52907488D01*
X104191798Y-52911590D01*
X104142131Y-52920875D01*
X104085673Y-52920875D01*
X104032567Y-52925521D01*
X103979461Y-52920875D01*
X103923003Y-52920875D01*
X103873336Y-52911590D01*
X103826442Y-52907488D01*
X103768880Y-52892064D01*
X103707606Y-52880610D01*
X103666045Y-52864509D01*
X103626578Y-52853934D01*
X103566829Y-52826073D01*
X103503275Y-52801452D01*
X103470471Y-52781140D01*
X103439048Y-52766488D01*
X103379765Y-52724977D01*
X103316969Y-52686096D01*
X103292900Y-52664154D01*
X103269555Y-52647808D01*
X103213709Y-52591962D01*
X103155031Y-52538470D01*
X103139035Y-52517288D01*
X103123248Y-52501501D01*
X103074000Y-52431168D01*
X103022977Y-52363602D01*
X103013835Y-52345243D01*
X103004568Y-52332008D01*
X102965109Y-52247387D01*
X102925303Y-52167446D01*
X102921344Y-52153533D01*
X102917122Y-52144478D01*
X102890505Y-52045144D01*
X102865336Y-51956683D01*
X102864561Y-51948320D01*
X102863568Y-51944614D01*
X102852595Y-51819192D01*
X102845117Y-51738490D01*
X102852594Y-51657793D01*
X102863568Y-51532365D01*
X102864561Y-51528658D01*
X102865336Y-51520297D01*
X102890500Y-51431851D01*
X102917122Y-51332501D01*
X102921345Y-51323444D01*
X102925303Y-51309534D01*
X102965106Y-51229598D01*
X103004568Y-51144972D01*
X103013835Y-51131736D01*
X103022977Y-51113378D01*
X103073994Y-51045819D01*
X103123248Y-50975478D01*
X103139038Y-50959687D01*
X103155031Y-50938510D01*
X103213698Y-50885027D01*
X103269555Y-50829171D01*
X103292904Y-50812821D01*
X103316969Y-50790884D01*
X103379758Y-50752006D01*
X103439049Y-50710491D01*
X103470475Y-50695836D01*
X103503275Y-50675528D01*
X103566819Y-50650910D01*
X103626578Y-50623045D01*
X103666053Y-50612467D01*
X103707606Y-50596370D01*
X103768868Y-50584917D01*
X103826442Y-50569491D01*
X103873346Y-50565387D01*
X103923003Y-50556105D01*
X103979450Y-50556105D01*
X104032567Y-50551458D01*
X104085684Y-50556105D01*
G37*
G36*
X108104801Y-50799218D02*
G01*
X108144171Y-50799218D01*
X108176172Y-50808614D01*
X108201629Y-50811966D01*
X108235823Y-50826129D01*
X108279437Y-50838936D01*
X108302458Y-50853730D01*
X108320860Y-50861353D01*
X108354578Y-50887226D01*
X108398035Y-50915154D01*
X108412044Y-50931322D01*
X108423243Y-50939915D01*
X108452278Y-50977755D01*
X108490355Y-51021698D01*
X108496761Y-51035726D01*
X108501804Y-51042298D01*
X108521713Y-51090364D01*
X108548919Y-51149935D01*
X108550263Y-51159289D01*
X108551192Y-51161530D01*
X108557772Y-51211515D01*
X108568982Y-51289477D01*
X108557772Y-51367438D01*
X108551192Y-51417424D01*
X108550263Y-51419664D01*
X108548919Y-51429019D01*
X108521717Y-51488581D01*
X108501805Y-51536655D01*
X108496761Y-51543227D01*
X108490355Y-51557256D01*
X108452275Y-51601202D01*
X108423243Y-51639038D01*
X108412047Y-51647628D01*
X108398035Y-51663800D01*
X108354570Y-51691733D01*
X108320860Y-51717600D01*
X108302462Y-51725220D01*
X108279437Y-51740018D01*
X108235815Y-51752826D01*
X108201629Y-51766987D01*
X108176178Y-51770337D01*
X108144171Y-51779736D01*
X108104793Y-51779736D01*
X108073682Y-51783832D01*
X108042570Y-51779736D01*
X108003193Y-51779736D01*
X107971186Y-51770337D01*
X107945734Y-51766987D01*
X107911545Y-51752825D01*
X107867927Y-51740018D01*
X107844903Y-51725221D01*
X107826503Y-51717600D01*
X107792787Y-51691729D01*
X107749329Y-51663800D01*
X107735318Y-51647631D01*
X107724120Y-51639038D01*
X107695080Y-51601192D01*
X107657009Y-51557256D01*
X107650603Y-51543230D01*
X107645558Y-51536655D01*
X107625635Y-51488558D01*
X107598445Y-51429019D01*
X107597100Y-51419668D01*
X107596171Y-51417424D01*
X107589579Y-51367355D01*
X107578382Y-51289477D01*
X107589579Y-51211598D01*
X107596171Y-51161530D01*
X107597100Y-51159285D01*
X107598445Y-51149935D01*
X107625639Y-51090387D01*
X107645559Y-51042298D01*
X107650603Y-51035723D01*
X107657009Y-51021698D01*
X107695076Y-50977765D01*
X107724120Y-50939915D01*
X107735321Y-50931320D01*
X107749329Y-50915154D01*
X107792785Y-50887226D01*
X107826503Y-50861354D01*
X107844903Y-50853732D01*
X107867927Y-50838936D01*
X107911541Y-50826129D01*
X107945735Y-50811966D01*
X107971191Y-50808614D01*
X108003193Y-50799218D01*
X108042563Y-50799218D01*
X108073682Y-50795121D01*
X108104801Y-50799218D01*
G37*
G36*
X106330748Y-48311041D02*
G01*
X106387195Y-48311041D01*
X106436852Y-48320323D01*
X106483755Y-48324427D01*
X106541326Y-48339853D01*
X106602592Y-48351306D01*
X106644146Y-48367404D01*
X106683619Y-48377981D01*
X106743374Y-48405845D01*
X106806923Y-48430464D01*
X106839722Y-48450772D01*
X106871149Y-48465427D01*
X106930436Y-48506940D01*
X106993229Y-48545820D01*
X107017296Y-48567760D01*
X107040642Y-48584107D01*
X107096488Y-48639953D01*
X107155167Y-48693446D01*
X107171162Y-48714627D01*
X107186949Y-48730414D01*
X107236189Y-48800737D01*
X107287221Y-48868314D01*
X107296364Y-48886677D01*
X107305629Y-48899908D01*
X107345076Y-48984503D01*
X107384895Y-49064470D01*
X107388854Y-49078385D01*
X107393075Y-49087437D01*
X107419679Y-49186727D01*
X107444862Y-49275233D01*
X107445637Y-49283600D01*
X107446629Y-49287301D01*
X107457585Y-49412536D01*
X107465081Y-49493426D01*
X107457584Y-49574321D01*
X107446629Y-49699550D01*
X107445637Y-49703250D01*
X107444862Y-49711619D01*
X107419675Y-49800141D01*
X107393075Y-49899414D01*
X107388855Y-49908463D01*
X107384895Y-49922382D01*
X107345072Y-50002355D01*
X107305629Y-50086944D01*
X107296364Y-50100174D01*
X107287221Y-50118538D01*
X107236183Y-50186122D01*
X107186949Y-50256437D01*
X107171165Y-50272220D01*
X107155167Y-50293406D01*
X107096476Y-50346909D01*
X107040642Y-50402744D01*
X107017300Y-50419087D01*
X106993229Y-50441032D01*
X106930424Y-50479919D01*
X106871149Y-50521424D01*
X106839729Y-50536075D01*
X106806923Y-50556388D01*
X106743362Y-50581011D01*
X106683619Y-50608870D01*
X106644154Y-50619444D01*
X106602592Y-50635546D01*
X106541314Y-50647000D01*
X106483755Y-50662424D01*
X106436862Y-50666526D01*
X106387195Y-50675811D01*
X106330737Y-50675811D01*
X106277631Y-50680457D01*
X106224525Y-50675811D01*
X106168067Y-50675811D01*
X106118400Y-50666526D01*
X106071506Y-50662424D01*
X106013944Y-50647000D01*
X105952670Y-50635546D01*
X105911109Y-50619445D01*
X105871642Y-50608870D01*
X105811893Y-50581009D01*
X105748339Y-50556388D01*
X105715535Y-50536076D01*
X105684112Y-50521424D01*
X105624829Y-50479913D01*
X105562033Y-50441032D01*
X105537964Y-50419090D01*
X105514619Y-50402744D01*
X105458773Y-50346898D01*
X105400095Y-50293406D01*
X105384099Y-50272224D01*
X105368312Y-50256437D01*
X105319064Y-50186104D01*
X105268041Y-50118538D01*
X105258899Y-50100179D01*
X105249632Y-50086944D01*
X105210173Y-50002323D01*
X105170367Y-49922382D01*
X105166408Y-49908469D01*
X105162186Y-49899414D01*
X105135569Y-49800080D01*
X105110400Y-49711619D01*
X105109625Y-49703256D01*
X105108632Y-49699550D01*
X105097659Y-49574128D01*
X105090181Y-49493426D01*
X105097658Y-49412729D01*
X105108632Y-49287301D01*
X105109625Y-49283594D01*
X105110400Y-49275233D01*
X105135564Y-49186787D01*
X105162186Y-49087437D01*
X105166409Y-49078380D01*
X105170367Y-49064470D01*
X105210170Y-48984534D01*
X105249632Y-48899908D01*
X105258899Y-48886672D01*
X105268041Y-48868314D01*
X105319058Y-48800755D01*
X105368312Y-48730414D01*
X105384102Y-48714623D01*
X105400095Y-48693446D01*
X105458762Y-48639963D01*
X105514619Y-48584107D01*
X105537968Y-48567757D01*
X105562033Y-48545820D01*
X105624822Y-48506942D01*
X105684113Y-48465427D01*
X105715539Y-48450772D01*
X105748339Y-48430464D01*
X105811883Y-48405846D01*
X105871642Y-48377981D01*
X105911117Y-48367403D01*
X105952670Y-48351306D01*
X106013932Y-48339853D01*
X106071506Y-48324427D01*
X106118410Y-48320323D01*
X106168067Y-48311041D01*
X106224514Y-48311041D01*
X106277631Y-48306394D01*
X106330748Y-48311041D01*
G37*
M02*
