M48
; DRILL file {KiCad 8.0.1} date 2026-01-16T21:20:59-0500
; FORMAT={-:-/ absolute / inch / decimal}
; #@! TF.CreationDate,2026-01-16T21:20:59-05:00
; #@! TF.GenerationSoftware,Kicad,Pcbnew,8.0.1
; #@! TF.FileFunction,Plated,1,4,PTH
FMAT,2
INCH
; #@! TA.AperFunction,Plated,PTH,ViaDrill
T1C0.0118
; #@! TA.AperFunction,Plated,PTH,ComponentDrill
T2C0.0315
%
G90
G05
T1
X3.9803Y-2.0157
X3.9961Y-2.2717
X3.9961Y-2.9606
X4.0042Y-3.0244
X4.0079Y-2.3425
X4.0315Y-3.1929
X4.0433Y-2.4882
X4.0472Y-2.5512
X4.0551Y-2.3583
X4.0669Y-3.1575
X4.0709Y-3.0394
X4.0787Y-2.9764
X4.0866Y-2.3346
X4.1299Y-2.1417
X4.1339Y-2.2756
X4.1417Y-2.9567
X4.1811Y-2.7717
X4.1969Y-3.063
X4.2139Y-2.0107
X4.2167Y-2.9884
X4.2205Y-2.2992
X4.2244Y-2.5079
X4.2362Y-3.0197
X4.2402Y-2.7717
X4.2483Y-2.2793
X4.2559Y-2.5315
X4.2638Y-2.7953
X4.2953Y-2.8228
X4.2992Y-2.8725
X4.3071Y-2.3622
X4.3189Y-2.0
X4.3386Y-4.6929
X4.3543Y-3.0906
X4.4173Y-4.6929
X4.4449Y-3.6496
X4.4449Y-4.0039
X4.4449Y-4.3976
X4.4488Y-3.2953
X4.4488Y-3.3386
X4.4488Y-3.6929
X4.4488Y-4.437
X4.4528Y-4.0433
X4.4567Y-2.0315
X4.4685Y-2.689
X4.4843Y-2.8307
X4.4872Y-2.0239
X4.5394Y-4.8071
X4.5394Y-4.8307
X4.5394Y-4.8543
X4.5394Y-4.8976
X4.5394Y-4.9213
X4.5394Y-4.9449
X4.5394Y-5.0157
X4.5394Y-5.0394
X4.5394Y-5.063
X4.5669Y-2.8858
X4.5669Y-2.9606
X4.5669Y-3.0197
X4.5669Y-3.0945
X4.5748Y-2.1181
X4.5827Y-2.5787
X4.5866Y-2.815
X4.6024Y-2.1457
X4.6102Y-2.7913
X4.6181Y-2.0236
X4.7913Y-2.6142
X4.8071Y-2.5039
X6.7953Y-1.2087
T2
X4.2047Y-3.1575
X4.2047Y-3.2362
X4.2047Y-3.315
X4.2047Y-3.3937
X4.2047Y-3.4724
X4.2047Y-3.5512
X4.2047Y-3.6299
X4.2047Y-3.7087
X4.2047Y-3.7874
X4.2047Y-3.8661
X4.2047Y-3.9449
X4.2047Y-4.0236
X4.2047Y-4.1024
X4.2047Y-4.1811
X4.2047Y-4.2598
X4.2047Y-4.3386
X4.2047Y-4.4173
X4.2047Y-4.4961
X4.2047Y-4.5748
X4.2047Y-4.6535
X4.2047Y-4.7323
X4.2047Y-4.811
X4.2047Y-4.8898
X4.2047Y-4.9685
X4.2047Y-5.0472
X4.2835Y-3.1575
X4.2835Y-3.2362
X4.2835Y-3.315
X4.2835Y-3.3937
X4.2835Y-3.4724
X4.2835Y-3.5512
X4.2835Y-3.6299
X4.2835Y-3.7087
X4.2835Y-3.7874
X4.2835Y-3.8661
X4.2835Y-3.9449
X4.2835Y-4.0236
X4.2835Y-4.1024
X4.2835Y-4.1811
X4.2835Y-4.2598
X4.2835Y-4.3386
X4.2835Y-4.4173
X4.2835Y-4.4961
X4.2835Y-4.5748
X4.2835Y-4.6535
X4.2835Y-4.7323
X4.2835Y-4.811
X4.2835Y-4.8898
X4.2835Y-4.9685
X4.2835Y-5.0472
M30
