%TF.GenerationSoftware,KiCad,Pcbnew,8.0.1*%
%TF.CreationDate,2026-01-16T21:20:55-05:00*%
%TF.ProjectId,16x Card Module,31367820-4361-4726-9420-4d6f64756c65,rev?*%
%TF.SameCoordinates,Original*%
%TF.FileFunction,Legend,Top*%
%TF.FilePolarity,Positive*%
%FSLAX46Y46*%
G04 Gerber Fmt 4.6, Leading zero omitted, Abs format (unit mm)*
G04 Created by KiCad (PCBNEW 8.0.1) date 2026-01-16 21:20:55*
%MOMM*%
%LPD*%
G01*
G04 APERTURE LIST*
%ADD10C,0.150000*%
%ADD11C,0.120000*%
%ADD12C,0.152400*%
%ADD13C,0.200000*%
%ADD14C,0.006250*%
%ADD15C,0.010000*%
G04 APERTURE END LIST*
D10*
X117446753Y-56475750D02*
X116874333Y-57048170D01*
X116874333Y-57048170D02*
X116840661Y-57149185D01*
X116840661Y-57149185D02*
X116840661Y-57216529D01*
X116840661Y-57216529D02*
X116874333Y-57317544D01*
X116874333Y-57317544D02*
X117009020Y-57452231D01*
X117009020Y-57452231D02*
X117110035Y-57485903D01*
X117110035Y-57485903D02*
X117177379Y-57485903D01*
X117177379Y-57485903D02*
X117278394Y-57452231D01*
X117278394Y-57452231D02*
X117850814Y-56879811D01*
X117850814Y-58294025D02*
X117446753Y-57889964D01*
X117648783Y-58091994D02*
X118355890Y-57384888D01*
X118355890Y-57384888D02*
X118187531Y-57418559D01*
X118187531Y-57418559D02*
X118052844Y-57418559D01*
X118052844Y-57418559D02*
X117951829Y-57384888D01*
X109133333Y-78489580D02*
X109085714Y-78537200D01*
X109085714Y-78537200D02*
X108942857Y-78584819D01*
X108942857Y-78584819D02*
X108847619Y-78584819D01*
X108847619Y-78584819D02*
X108704762Y-78537200D01*
X108704762Y-78537200D02*
X108609524Y-78441961D01*
X108609524Y-78441961D02*
X108561905Y-78346723D01*
X108561905Y-78346723D02*
X108514286Y-78156247D01*
X108514286Y-78156247D02*
X108514286Y-78013390D01*
X108514286Y-78013390D02*
X108561905Y-77822914D01*
X108561905Y-77822914D02*
X108609524Y-77727676D01*
X108609524Y-77727676D02*
X108704762Y-77632438D01*
X108704762Y-77632438D02*
X108847619Y-77584819D01*
X108847619Y-77584819D02*
X108942857Y-77584819D01*
X108942857Y-77584819D02*
X109085714Y-77632438D01*
X109085714Y-77632438D02*
X109133333Y-77680057D01*
X109609524Y-78584819D02*
X109800000Y-78584819D01*
X109800000Y-78584819D02*
X109895238Y-78537200D01*
X109895238Y-78537200D02*
X109942857Y-78489580D01*
X109942857Y-78489580D02*
X110038095Y-78346723D01*
X110038095Y-78346723D02*
X110085714Y-78156247D01*
X110085714Y-78156247D02*
X110085714Y-77775295D01*
X110085714Y-77775295D02*
X110038095Y-77680057D01*
X110038095Y-77680057D02*
X109990476Y-77632438D01*
X109990476Y-77632438D02*
X109895238Y-77584819D01*
X109895238Y-77584819D02*
X109704762Y-77584819D01*
X109704762Y-77584819D02*
X109609524Y-77632438D01*
X109609524Y-77632438D02*
X109561905Y-77680057D01*
X109561905Y-77680057D02*
X109514286Y-77775295D01*
X109514286Y-77775295D02*
X109514286Y-78013390D01*
X109514286Y-78013390D02*
X109561905Y-78108628D01*
X109561905Y-78108628D02*
X109609524Y-78156247D01*
X109609524Y-78156247D02*
X109704762Y-78203866D01*
X109704762Y-78203866D02*
X109895238Y-78203866D01*
X109895238Y-78203866D02*
X109990476Y-78156247D01*
X109990476Y-78156247D02*
X110038095Y-78108628D01*
X110038095Y-78108628D02*
X110085714Y-78013390D01*
X115757142Y-128359580D02*
X115709523Y-128407200D01*
X115709523Y-128407200D02*
X115566666Y-128454819D01*
X115566666Y-128454819D02*
X115471428Y-128454819D01*
X115471428Y-128454819D02*
X115328571Y-128407200D01*
X115328571Y-128407200D02*
X115233333Y-128311961D01*
X115233333Y-128311961D02*
X115185714Y-128216723D01*
X115185714Y-128216723D02*
X115138095Y-128026247D01*
X115138095Y-128026247D02*
X115138095Y-127883390D01*
X115138095Y-127883390D02*
X115185714Y-127692914D01*
X115185714Y-127692914D02*
X115233333Y-127597676D01*
X115233333Y-127597676D02*
X115328571Y-127502438D01*
X115328571Y-127502438D02*
X115471428Y-127454819D01*
X115471428Y-127454819D02*
X115566666Y-127454819D01*
X115566666Y-127454819D02*
X115709523Y-127502438D01*
X115709523Y-127502438D02*
X115757142Y-127550057D01*
X116709523Y-128454819D02*
X116138095Y-128454819D01*
X116423809Y-128454819D02*
X116423809Y-127454819D01*
X116423809Y-127454819D02*
X116328571Y-127597676D01*
X116328571Y-127597676D02*
X116233333Y-127692914D01*
X116233333Y-127692914D02*
X116138095Y-127740533D01*
X117042857Y-127454819D02*
X117661904Y-127454819D01*
X117661904Y-127454819D02*
X117328571Y-127835771D01*
X117328571Y-127835771D02*
X117471428Y-127835771D01*
X117471428Y-127835771D02*
X117566666Y-127883390D01*
X117566666Y-127883390D02*
X117614285Y-127931009D01*
X117614285Y-127931009D02*
X117661904Y-128026247D01*
X117661904Y-128026247D02*
X117661904Y-128264342D01*
X117661904Y-128264342D02*
X117614285Y-128359580D01*
X117614285Y-128359580D02*
X117566666Y-128407200D01*
X117566666Y-128407200D02*
X117471428Y-128454819D01*
X117471428Y-128454819D02*
X117185714Y-128454819D01*
X117185714Y-128454819D02*
X117090476Y-128407200D01*
X117090476Y-128407200D02*
X117042857Y-128359580D01*
X170861905Y-35654819D02*
X170861905Y-34654819D01*
X170861905Y-34654819D02*
X171100000Y-34654819D01*
X171100000Y-34654819D02*
X171242857Y-34702438D01*
X171242857Y-34702438D02*
X171338095Y-34797676D01*
X171338095Y-34797676D02*
X171385714Y-34892914D01*
X171385714Y-34892914D02*
X171433333Y-35083390D01*
X171433333Y-35083390D02*
X171433333Y-35226247D01*
X171433333Y-35226247D02*
X171385714Y-35416723D01*
X171385714Y-35416723D02*
X171338095Y-35511961D01*
X171338095Y-35511961D02*
X171242857Y-35607200D01*
X171242857Y-35607200D02*
X171100000Y-35654819D01*
X171100000Y-35654819D02*
X170861905Y-35654819D01*
X172385714Y-35654819D02*
X171814286Y-35654819D01*
X172100000Y-35654819D02*
X172100000Y-34654819D01*
X172100000Y-34654819D02*
X172004762Y-34797676D01*
X172004762Y-34797676D02*
X171909524Y-34892914D01*
X171909524Y-34892914D02*
X171814286Y-34940533D01*
X103078796Y-48850201D02*
X103583872Y-49355277D01*
X103583872Y-49355277D02*
X103651216Y-49489964D01*
X103651216Y-49489964D02*
X103651216Y-49624651D01*
X103651216Y-49624651D02*
X103583872Y-49759338D01*
X103583872Y-49759338D02*
X103516529Y-49826682D01*
X103449185Y-48614498D02*
X103449185Y-48547155D01*
X103449185Y-48547155D02*
X103482857Y-48446140D01*
X103482857Y-48446140D02*
X103651216Y-48277781D01*
X103651216Y-48277781D02*
X103752231Y-48244109D01*
X103752231Y-48244109D02*
X103819575Y-48244109D01*
X103819575Y-48244109D02*
X103920590Y-48277781D01*
X103920590Y-48277781D02*
X103987933Y-48345124D01*
X103987933Y-48345124D02*
X104055277Y-48479811D01*
X104055277Y-48479811D02*
X104055277Y-49287933D01*
X104055277Y-49287933D02*
X104493010Y-48850201D01*
X109633333Y-73554819D02*
X109300000Y-73078628D01*
X109061905Y-73554819D02*
X109061905Y-72554819D01*
X109061905Y-72554819D02*
X109442857Y-72554819D01*
X109442857Y-72554819D02*
X109538095Y-72602438D01*
X109538095Y-72602438D02*
X109585714Y-72650057D01*
X109585714Y-72650057D02*
X109633333Y-72745295D01*
X109633333Y-72745295D02*
X109633333Y-72888152D01*
X109633333Y-72888152D02*
X109585714Y-72983390D01*
X109585714Y-72983390D02*
X109538095Y-73031009D01*
X109538095Y-73031009D02*
X109442857Y-73078628D01*
X109442857Y-73078628D02*
X109061905Y-73078628D01*
X110490476Y-72888152D02*
X110490476Y-73554819D01*
X110252381Y-72507200D02*
X110014286Y-73221485D01*
X110014286Y-73221485D02*
X110633333Y-73221485D01*
X112188096Y-109704820D02*
X112188096Y-110514343D01*
X112188096Y-110514343D02*
X112235715Y-110609581D01*
X112235715Y-110609581D02*
X112283334Y-110657201D01*
X112283334Y-110657201D02*
X112378572Y-110704820D01*
X112378572Y-110704820D02*
X112569048Y-110704820D01*
X112569048Y-110704820D02*
X112664286Y-110657201D01*
X112664286Y-110657201D02*
X112711905Y-110609581D01*
X112711905Y-110609581D02*
X112759524Y-110514343D01*
X112759524Y-110514343D02*
X112759524Y-109704820D01*
X113711905Y-109704820D02*
X113235715Y-109704820D01*
X113235715Y-109704820D02*
X113188096Y-110181010D01*
X113188096Y-110181010D02*
X113235715Y-110133391D01*
X113235715Y-110133391D02*
X113330953Y-110085772D01*
X113330953Y-110085772D02*
X113569048Y-110085772D01*
X113569048Y-110085772D02*
X113664286Y-110133391D01*
X113664286Y-110133391D02*
X113711905Y-110181010D01*
X113711905Y-110181010D02*
X113759524Y-110276248D01*
X113759524Y-110276248D02*
X113759524Y-110514343D01*
X113759524Y-110514343D02*
X113711905Y-110609581D01*
X113711905Y-110609581D02*
X113664286Y-110657201D01*
X113664286Y-110657201D02*
X113569048Y-110704820D01*
X113569048Y-110704820D02*
X113330953Y-110704820D01*
X113330953Y-110704820D02*
X113235715Y-110657201D01*
X113235715Y-110657201D02*
X113188096Y-110609581D01*
X112188096Y-99704820D02*
X112188096Y-100514343D01*
X112188096Y-100514343D02*
X112235715Y-100609581D01*
X112235715Y-100609581D02*
X112283334Y-100657201D01*
X112283334Y-100657201D02*
X112378572Y-100704820D01*
X112378572Y-100704820D02*
X112569048Y-100704820D01*
X112569048Y-100704820D02*
X112664286Y-100657201D01*
X112664286Y-100657201D02*
X112711905Y-100609581D01*
X112711905Y-100609581D02*
X112759524Y-100514343D01*
X112759524Y-100514343D02*
X112759524Y-99704820D01*
X113664286Y-100038153D02*
X113664286Y-100704820D01*
X113426191Y-99657201D02*
X113188096Y-100371486D01*
X113188096Y-100371486D02*
X113807143Y-100371486D01*
X122195563Y-63315718D02*
X122128219Y-63315718D01*
X122128219Y-63315718D02*
X121993532Y-63248374D01*
X121993532Y-63248374D02*
X121926189Y-63181031D01*
X121926189Y-63181031D02*
X121858845Y-63046344D01*
X121858845Y-63046344D02*
X121858845Y-62911657D01*
X121858845Y-62911657D02*
X121892517Y-62810642D01*
X121892517Y-62810642D02*
X121993532Y-62642283D01*
X121993532Y-62642283D02*
X122094547Y-62541268D01*
X122094547Y-62541268D02*
X122262906Y-62440252D01*
X122262906Y-62440252D02*
X122363921Y-62406581D01*
X122363921Y-62406581D02*
X122498608Y-62406581D01*
X122498608Y-62406581D02*
X122633295Y-62473924D01*
X122633295Y-62473924D02*
X122700639Y-62541268D01*
X122700639Y-62541268D02*
X122767982Y-62675955D01*
X122767982Y-62675955D02*
X122767982Y-62743298D01*
X123037356Y-63012672D02*
X123104700Y-63012672D01*
X123104700Y-63012672D02*
X123205715Y-63046344D01*
X123205715Y-63046344D02*
X123374074Y-63214703D01*
X123374074Y-63214703D02*
X123407746Y-63315718D01*
X123407746Y-63315718D02*
X123407746Y-63383061D01*
X123407746Y-63383061D02*
X123374074Y-63484077D01*
X123374074Y-63484077D02*
X123306730Y-63551420D01*
X123306730Y-63551420D02*
X123172043Y-63618764D01*
X123172043Y-63618764D02*
X122363921Y-63618764D01*
X122363921Y-63618764D02*
X122801654Y-64056496D01*
X109633333Y-74754819D02*
X109300000Y-74278628D01*
X109061905Y-74754819D02*
X109061905Y-73754819D01*
X109061905Y-73754819D02*
X109442857Y-73754819D01*
X109442857Y-73754819D02*
X109538095Y-73802438D01*
X109538095Y-73802438D02*
X109585714Y-73850057D01*
X109585714Y-73850057D02*
X109633333Y-73945295D01*
X109633333Y-73945295D02*
X109633333Y-74088152D01*
X109633333Y-74088152D02*
X109585714Y-74183390D01*
X109585714Y-74183390D02*
X109538095Y-74231009D01*
X109538095Y-74231009D02*
X109442857Y-74278628D01*
X109442857Y-74278628D02*
X109061905Y-74278628D01*
X109966667Y-73754819D02*
X110585714Y-73754819D01*
X110585714Y-73754819D02*
X110252381Y-74135771D01*
X110252381Y-74135771D02*
X110395238Y-74135771D01*
X110395238Y-74135771D02*
X110490476Y-74183390D01*
X110490476Y-74183390D02*
X110538095Y-74231009D01*
X110538095Y-74231009D02*
X110585714Y-74326247D01*
X110585714Y-74326247D02*
X110585714Y-74564342D01*
X110585714Y-74564342D02*
X110538095Y-74659580D01*
X110538095Y-74659580D02*
X110490476Y-74707200D01*
X110490476Y-74707200D02*
X110395238Y-74754819D01*
X110395238Y-74754819D02*
X110109524Y-74754819D01*
X110109524Y-74754819D02*
X110014286Y-74707200D01*
X110014286Y-74707200D02*
X109966667Y-74659580D01*
X102757142Y-64759580D02*
X102709523Y-64807200D01*
X102709523Y-64807200D02*
X102566666Y-64854819D01*
X102566666Y-64854819D02*
X102471428Y-64854819D01*
X102471428Y-64854819D02*
X102328571Y-64807200D01*
X102328571Y-64807200D02*
X102233333Y-64711961D01*
X102233333Y-64711961D02*
X102185714Y-64616723D01*
X102185714Y-64616723D02*
X102138095Y-64426247D01*
X102138095Y-64426247D02*
X102138095Y-64283390D01*
X102138095Y-64283390D02*
X102185714Y-64092914D01*
X102185714Y-64092914D02*
X102233333Y-63997676D01*
X102233333Y-63997676D02*
X102328571Y-63902438D01*
X102328571Y-63902438D02*
X102471428Y-63854819D01*
X102471428Y-63854819D02*
X102566666Y-63854819D01*
X102566666Y-63854819D02*
X102709523Y-63902438D01*
X102709523Y-63902438D02*
X102757142Y-63950057D01*
X103709523Y-64854819D02*
X103138095Y-64854819D01*
X103423809Y-64854819D02*
X103423809Y-63854819D01*
X103423809Y-63854819D02*
X103328571Y-63997676D01*
X103328571Y-63997676D02*
X103233333Y-64092914D01*
X103233333Y-64092914D02*
X103138095Y-64140533D01*
X104614285Y-63854819D02*
X104138095Y-63854819D01*
X104138095Y-63854819D02*
X104090476Y-64331009D01*
X104090476Y-64331009D02*
X104138095Y-64283390D01*
X104138095Y-64283390D02*
X104233333Y-64235771D01*
X104233333Y-64235771D02*
X104471428Y-64235771D01*
X104471428Y-64235771D02*
X104566666Y-64283390D01*
X104566666Y-64283390D02*
X104614285Y-64331009D01*
X104614285Y-64331009D02*
X104661904Y-64426247D01*
X104661904Y-64426247D02*
X104661904Y-64664342D01*
X104661904Y-64664342D02*
X104614285Y-64759580D01*
X104614285Y-64759580D02*
X104566666Y-64807200D01*
X104566666Y-64807200D02*
X104471428Y-64854819D01*
X104471428Y-64854819D02*
X104233333Y-64854819D01*
X104233333Y-64854819D02*
X104138095Y-64807200D01*
X104138095Y-64807200D02*
X104090476Y-64759580D01*
X106738095Y-74754819D02*
X106738095Y-75564342D01*
X106738095Y-75564342D02*
X106785714Y-75659580D01*
X106785714Y-75659580D02*
X106833333Y-75707200D01*
X106833333Y-75707200D02*
X106928571Y-75754819D01*
X106928571Y-75754819D02*
X107119047Y-75754819D01*
X107119047Y-75754819D02*
X107214285Y-75707200D01*
X107214285Y-75707200D02*
X107261904Y-75659580D01*
X107261904Y-75659580D02*
X107309523Y-75564342D01*
X107309523Y-75564342D02*
X107309523Y-74754819D01*
X107690476Y-74754819D02*
X108357142Y-74754819D01*
X108357142Y-74754819D02*
X107928571Y-75754819D01*
X102457142Y-56759580D02*
X102409523Y-56807200D01*
X102409523Y-56807200D02*
X102266666Y-56854819D01*
X102266666Y-56854819D02*
X102171428Y-56854819D01*
X102171428Y-56854819D02*
X102028571Y-56807200D01*
X102028571Y-56807200D02*
X101933333Y-56711961D01*
X101933333Y-56711961D02*
X101885714Y-56616723D01*
X101885714Y-56616723D02*
X101838095Y-56426247D01*
X101838095Y-56426247D02*
X101838095Y-56283390D01*
X101838095Y-56283390D02*
X101885714Y-56092914D01*
X101885714Y-56092914D02*
X101933333Y-55997676D01*
X101933333Y-55997676D02*
X102028571Y-55902438D01*
X102028571Y-55902438D02*
X102171428Y-55854819D01*
X102171428Y-55854819D02*
X102266666Y-55854819D01*
X102266666Y-55854819D02*
X102409523Y-55902438D01*
X102409523Y-55902438D02*
X102457142Y-55950057D01*
X103409523Y-56854819D02*
X102838095Y-56854819D01*
X103123809Y-56854819D02*
X103123809Y-55854819D01*
X103123809Y-55854819D02*
X103028571Y-55997676D01*
X103028571Y-55997676D02*
X102933333Y-56092914D01*
X102933333Y-56092914D02*
X102838095Y-56140533D01*
X104028571Y-55854819D02*
X104123809Y-55854819D01*
X104123809Y-55854819D02*
X104219047Y-55902438D01*
X104219047Y-55902438D02*
X104266666Y-55950057D01*
X104266666Y-55950057D02*
X104314285Y-56045295D01*
X104314285Y-56045295D02*
X104361904Y-56235771D01*
X104361904Y-56235771D02*
X104361904Y-56473866D01*
X104361904Y-56473866D02*
X104314285Y-56664342D01*
X104314285Y-56664342D02*
X104266666Y-56759580D01*
X104266666Y-56759580D02*
X104219047Y-56807200D01*
X104219047Y-56807200D02*
X104123809Y-56854819D01*
X104123809Y-56854819D02*
X104028571Y-56854819D01*
X104028571Y-56854819D02*
X103933333Y-56807200D01*
X103933333Y-56807200D02*
X103885714Y-56759580D01*
X103885714Y-56759580D02*
X103838095Y-56664342D01*
X103838095Y-56664342D02*
X103790476Y-56473866D01*
X103790476Y-56473866D02*
X103790476Y-56235771D01*
X103790476Y-56235771D02*
X103838095Y-56045295D01*
X103838095Y-56045295D02*
X103885714Y-55950057D01*
X103885714Y-55950057D02*
X103933333Y-55902438D01*
X103933333Y-55902438D02*
X104028571Y-55854819D01*
X117861905Y-74754819D02*
X117861905Y-73754819D01*
X117861905Y-73754819D02*
X118100000Y-73754819D01*
X118100000Y-73754819D02*
X118242857Y-73802438D01*
X118242857Y-73802438D02*
X118338095Y-73897676D01*
X118338095Y-73897676D02*
X118385714Y-73992914D01*
X118385714Y-73992914D02*
X118433333Y-74183390D01*
X118433333Y-74183390D02*
X118433333Y-74326247D01*
X118433333Y-74326247D02*
X118385714Y-74516723D01*
X118385714Y-74516723D02*
X118338095Y-74611961D01*
X118338095Y-74611961D02*
X118242857Y-74707200D01*
X118242857Y-74707200D02*
X118100000Y-74754819D01*
X118100000Y-74754819D02*
X117861905Y-74754819D01*
X119290476Y-74088152D02*
X119290476Y-74754819D01*
X119052381Y-73707200D02*
X118814286Y-74421485D01*
X118814286Y-74421485D02*
X119433333Y-74421485D01*
X117330075Y-71937706D02*
X117330075Y-72005050D01*
X117330075Y-72005050D02*
X117262731Y-72139737D01*
X117262731Y-72139737D02*
X117195388Y-72207080D01*
X117195388Y-72207080D02*
X117060701Y-72274424D01*
X117060701Y-72274424D02*
X116926014Y-72274424D01*
X116926014Y-72274424D02*
X116824999Y-72240752D01*
X116824999Y-72240752D02*
X116656640Y-72139737D01*
X116656640Y-72139737D02*
X116555625Y-72038722D01*
X116555625Y-72038722D02*
X116454609Y-71870363D01*
X116454609Y-71870363D02*
X116420938Y-71769348D01*
X116420938Y-71769348D02*
X116420938Y-71634661D01*
X116420938Y-71634661D02*
X116488281Y-71499974D01*
X116488281Y-71499974D02*
X116555625Y-71432630D01*
X116555625Y-71432630D02*
X116690312Y-71365287D01*
X116690312Y-71365287D02*
X116757655Y-71365287D01*
X117330075Y-70658180D02*
X116993357Y-70994897D01*
X116993357Y-70994897D02*
X117296403Y-71365287D01*
X117296403Y-71365287D02*
X117296403Y-71297943D01*
X117296403Y-71297943D02*
X117330075Y-71196928D01*
X117330075Y-71196928D02*
X117498434Y-71028569D01*
X117498434Y-71028569D02*
X117599449Y-70994897D01*
X117599449Y-70994897D02*
X117666792Y-70994897D01*
X117666792Y-70994897D02*
X117767808Y-71028569D01*
X117767808Y-71028569D02*
X117936166Y-71196928D01*
X117936166Y-71196928D02*
X117969838Y-71297943D01*
X117969838Y-71297943D02*
X117969838Y-71365287D01*
X117969838Y-71365287D02*
X117936166Y-71466302D01*
X117936166Y-71466302D02*
X117767808Y-71634661D01*
X117767808Y-71634661D02*
X117666792Y-71668332D01*
X117666792Y-71668332D02*
X117599449Y-71668332D01*
X115433333Y-50629580D02*
X115385714Y-50677200D01*
X115385714Y-50677200D02*
X115242857Y-50724819D01*
X115242857Y-50724819D02*
X115147619Y-50724819D01*
X115147619Y-50724819D02*
X115004762Y-50677200D01*
X115004762Y-50677200D02*
X114909524Y-50581961D01*
X114909524Y-50581961D02*
X114861905Y-50486723D01*
X114861905Y-50486723D02*
X114814286Y-50296247D01*
X114814286Y-50296247D02*
X114814286Y-50153390D01*
X114814286Y-50153390D02*
X114861905Y-49962914D01*
X114861905Y-49962914D02*
X114909524Y-49867676D01*
X114909524Y-49867676D02*
X115004762Y-49772438D01*
X115004762Y-49772438D02*
X115147619Y-49724819D01*
X115147619Y-49724819D02*
X115242857Y-49724819D01*
X115242857Y-49724819D02*
X115385714Y-49772438D01*
X115385714Y-49772438D02*
X115433333Y-49820057D01*
X115766667Y-49724819D02*
X116385714Y-49724819D01*
X116385714Y-49724819D02*
X116052381Y-50105771D01*
X116052381Y-50105771D02*
X116195238Y-50105771D01*
X116195238Y-50105771D02*
X116290476Y-50153390D01*
X116290476Y-50153390D02*
X116338095Y-50201009D01*
X116338095Y-50201009D02*
X116385714Y-50296247D01*
X116385714Y-50296247D02*
X116385714Y-50534342D01*
X116385714Y-50534342D02*
X116338095Y-50629580D01*
X116338095Y-50629580D02*
X116290476Y-50677200D01*
X116290476Y-50677200D02*
X116195238Y-50724819D01*
X116195238Y-50724819D02*
X115909524Y-50724819D01*
X115909524Y-50724819D02*
X115814286Y-50677200D01*
X115814286Y-50677200D02*
X115766667Y-50629580D01*
X121636410Y-67672112D02*
X121636410Y-67739456D01*
X121636410Y-67739456D02*
X121569066Y-67874143D01*
X121569066Y-67874143D02*
X121501723Y-67941486D01*
X121501723Y-67941486D02*
X121367036Y-68008830D01*
X121367036Y-68008830D02*
X121232349Y-68008830D01*
X121232349Y-68008830D02*
X121131334Y-67975158D01*
X121131334Y-67975158D02*
X120962975Y-67874143D01*
X120962975Y-67874143D02*
X120861960Y-67773128D01*
X120861960Y-67773128D02*
X120760944Y-67604769D01*
X120760944Y-67604769D02*
X120727273Y-67503754D01*
X120727273Y-67503754D02*
X120727273Y-67369067D01*
X120727273Y-67369067D02*
X120794616Y-67234380D01*
X120794616Y-67234380D02*
X120861960Y-67167036D01*
X120861960Y-67167036D02*
X120996647Y-67099693D01*
X120996647Y-67099693D02*
X121063990Y-67099693D01*
X122377188Y-67066021D02*
X121973127Y-67470082D01*
X122175158Y-67268051D02*
X121468051Y-66560945D01*
X121468051Y-66560945D02*
X121501723Y-66729303D01*
X121501723Y-66729303D02*
X121501723Y-66863990D01*
X121501723Y-66863990D02*
X121468051Y-66965006D01*
X101866666Y-102654819D02*
X101866666Y-103369104D01*
X101866666Y-103369104D02*
X101819047Y-103511961D01*
X101819047Y-103511961D02*
X101723809Y-103607200D01*
X101723809Y-103607200D02*
X101580952Y-103654819D01*
X101580952Y-103654819D02*
X101485714Y-103654819D01*
X102866666Y-103654819D02*
X102295238Y-103654819D01*
X102580952Y-103654819D02*
X102580952Y-102654819D01*
X102580952Y-102654819D02*
X102485714Y-102797676D01*
X102485714Y-102797676D02*
X102390476Y-102892914D01*
X102390476Y-102892914D02*
X102295238Y-102940533D01*
X170861905Y-38654819D02*
X170861905Y-37654819D01*
X170861905Y-37654819D02*
X171100000Y-37654819D01*
X171100000Y-37654819D02*
X171242857Y-37702438D01*
X171242857Y-37702438D02*
X171338095Y-37797676D01*
X171338095Y-37797676D02*
X171385714Y-37892914D01*
X171385714Y-37892914D02*
X171433333Y-38083390D01*
X171433333Y-38083390D02*
X171433333Y-38226247D01*
X171433333Y-38226247D02*
X171385714Y-38416723D01*
X171385714Y-38416723D02*
X171338095Y-38511961D01*
X171338095Y-38511961D02*
X171242857Y-38607200D01*
X171242857Y-38607200D02*
X171100000Y-38654819D01*
X171100000Y-38654819D02*
X170861905Y-38654819D01*
X171814286Y-37750057D02*
X171861905Y-37702438D01*
X171861905Y-37702438D02*
X171957143Y-37654819D01*
X171957143Y-37654819D02*
X172195238Y-37654819D01*
X172195238Y-37654819D02*
X172290476Y-37702438D01*
X172290476Y-37702438D02*
X172338095Y-37750057D01*
X172338095Y-37750057D02*
X172385714Y-37845295D01*
X172385714Y-37845295D02*
X172385714Y-37940533D01*
X172385714Y-37940533D02*
X172338095Y-38083390D01*
X172338095Y-38083390D02*
X171766667Y-38654819D01*
X171766667Y-38654819D02*
X172385714Y-38654819D01*
X107233183Y-71207030D02*
X107165839Y-71207030D01*
X107165839Y-71207030D02*
X107031152Y-71139686D01*
X107031152Y-71139686D02*
X106963809Y-71072343D01*
X106963809Y-71072343D02*
X106896465Y-70937656D01*
X106896465Y-70937656D02*
X106896465Y-70802969D01*
X106896465Y-70802969D02*
X106930137Y-70701954D01*
X106930137Y-70701954D02*
X107031152Y-70533595D01*
X107031152Y-70533595D02*
X107132167Y-70432580D01*
X107132167Y-70432580D02*
X107300526Y-70331564D01*
X107300526Y-70331564D02*
X107401541Y-70297893D01*
X107401541Y-70297893D02*
X107536228Y-70297893D01*
X107536228Y-70297893D02*
X107670915Y-70365236D01*
X107670915Y-70365236D02*
X107738259Y-70432580D01*
X107738259Y-70432580D02*
X107805602Y-70567267D01*
X107805602Y-70567267D02*
X107805602Y-70634610D01*
X108108648Y-70802969D02*
X108580053Y-71274373D01*
X108580053Y-71274373D02*
X107569900Y-71678434D01*
X101533333Y-47054819D02*
X101200000Y-46578628D01*
X100961905Y-47054819D02*
X100961905Y-46054819D01*
X100961905Y-46054819D02*
X101342857Y-46054819D01*
X101342857Y-46054819D02*
X101438095Y-46102438D01*
X101438095Y-46102438D02*
X101485714Y-46150057D01*
X101485714Y-46150057D02*
X101533333Y-46245295D01*
X101533333Y-46245295D02*
X101533333Y-46388152D01*
X101533333Y-46388152D02*
X101485714Y-46483390D01*
X101485714Y-46483390D02*
X101438095Y-46531009D01*
X101438095Y-46531009D02*
X101342857Y-46578628D01*
X101342857Y-46578628D02*
X100961905Y-46578628D01*
X102009524Y-47054819D02*
X102200000Y-47054819D01*
X102200000Y-47054819D02*
X102295238Y-47007200D01*
X102295238Y-47007200D02*
X102342857Y-46959580D01*
X102342857Y-46959580D02*
X102438095Y-46816723D01*
X102438095Y-46816723D02*
X102485714Y-46626247D01*
X102485714Y-46626247D02*
X102485714Y-46245295D01*
X102485714Y-46245295D02*
X102438095Y-46150057D01*
X102438095Y-46150057D02*
X102390476Y-46102438D01*
X102390476Y-46102438D02*
X102295238Y-46054819D01*
X102295238Y-46054819D02*
X102104762Y-46054819D01*
X102104762Y-46054819D02*
X102009524Y-46102438D01*
X102009524Y-46102438D02*
X101961905Y-46150057D01*
X101961905Y-46150057D02*
X101914286Y-46245295D01*
X101914286Y-46245295D02*
X101914286Y-46483390D01*
X101914286Y-46483390D02*
X101961905Y-46578628D01*
X101961905Y-46578628D02*
X102009524Y-46626247D01*
X102009524Y-46626247D02*
X102104762Y-46673866D01*
X102104762Y-46673866D02*
X102295238Y-46673866D01*
X102295238Y-46673866D02*
X102390476Y-46626247D01*
X102390476Y-46626247D02*
X102438095Y-46578628D01*
X102438095Y-46578628D02*
X102485714Y-46483390D01*
X112233333Y-80054819D02*
X111900000Y-79578628D01*
X111661905Y-80054819D02*
X111661905Y-79054819D01*
X111661905Y-79054819D02*
X112042857Y-79054819D01*
X112042857Y-79054819D02*
X112138095Y-79102438D01*
X112138095Y-79102438D02*
X112185714Y-79150057D01*
X112185714Y-79150057D02*
X112233333Y-79245295D01*
X112233333Y-79245295D02*
X112233333Y-79388152D01*
X112233333Y-79388152D02*
X112185714Y-79483390D01*
X112185714Y-79483390D02*
X112138095Y-79531009D01*
X112138095Y-79531009D02*
X112042857Y-79578628D01*
X112042857Y-79578628D02*
X111661905Y-79578628D01*
X113138095Y-79054819D02*
X112661905Y-79054819D01*
X112661905Y-79054819D02*
X112614286Y-79531009D01*
X112614286Y-79531009D02*
X112661905Y-79483390D01*
X112661905Y-79483390D02*
X112757143Y-79435771D01*
X112757143Y-79435771D02*
X112995238Y-79435771D01*
X112995238Y-79435771D02*
X113090476Y-79483390D01*
X113090476Y-79483390D02*
X113138095Y-79531009D01*
X113138095Y-79531009D02*
X113185714Y-79626247D01*
X113185714Y-79626247D02*
X113185714Y-79864342D01*
X113185714Y-79864342D02*
X113138095Y-79959580D01*
X113138095Y-79959580D02*
X113090476Y-80007200D01*
X113090476Y-80007200D02*
X112995238Y-80054819D01*
X112995238Y-80054819D02*
X112757143Y-80054819D01*
X112757143Y-80054819D02*
X112661905Y-80007200D01*
X112661905Y-80007200D02*
X112614286Y-79959580D01*
X110760543Y-49203754D02*
X110861558Y-48631335D01*
X110356482Y-48799693D02*
X111063589Y-48092587D01*
X111063589Y-48092587D02*
X111332963Y-48361961D01*
X111332963Y-48361961D02*
X111366635Y-48462976D01*
X111366635Y-48462976D02*
X111366635Y-48530319D01*
X111366635Y-48530319D02*
X111332963Y-48631335D01*
X111332963Y-48631335D02*
X111231948Y-48732350D01*
X111231948Y-48732350D02*
X111130932Y-48766022D01*
X111130932Y-48766022D02*
X111063589Y-48766022D01*
X111063589Y-48766022D02*
X110962574Y-48732350D01*
X110962574Y-48732350D02*
X110693200Y-48462976D01*
X111433978Y-49877189D02*
X111029917Y-49473128D01*
X111231948Y-49675159D02*
X111939054Y-48968052D01*
X111939054Y-48968052D02*
X111770696Y-49001724D01*
X111770696Y-49001724D02*
X111636009Y-49001724D01*
X111636009Y-49001724D02*
X111534993Y-48968052D01*
X102433333Y-61554819D02*
X102100000Y-61078628D01*
X101861905Y-61554819D02*
X101861905Y-60554819D01*
X101861905Y-60554819D02*
X102242857Y-60554819D01*
X102242857Y-60554819D02*
X102338095Y-60602438D01*
X102338095Y-60602438D02*
X102385714Y-60650057D01*
X102385714Y-60650057D02*
X102433333Y-60745295D01*
X102433333Y-60745295D02*
X102433333Y-60888152D01*
X102433333Y-60888152D02*
X102385714Y-60983390D01*
X102385714Y-60983390D02*
X102338095Y-61031009D01*
X102338095Y-61031009D02*
X102242857Y-61078628D01*
X102242857Y-61078628D02*
X101861905Y-61078628D01*
X102766667Y-60554819D02*
X103433333Y-60554819D01*
X103433333Y-60554819D02*
X103004762Y-61554819D01*
X107559580Y-78542857D02*
X107607200Y-78590476D01*
X107607200Y-78590476D02*
X107654819Y-78733333D01*
X107654819Y-78733333D02*
X107654819Y-78828571D01*
X107654819Y-78828571D02*
X107607200Y-78971428D01*
X107607200Y-78971428D02*
X107511961Y-79066666D01*
X107511961Y-79066666D02*
X107416723Y-79114285D01*
X107416723Y-79114285D02*
X107226247Y-79161904D01*
X107226247Y-79161904D02*
X107083390Y-79161904D01*
X107083390Y-79161904D02*
X106892914Y-79114285D01*
X106892914Y-79114285D02*
X106797676Y-79066666D01*
X106797676Y-79066666D02*
X106702438Y-78971428D01*
X106702438Y-78971428D02*
X106654819Y-78828571D01*
X106654819Y-78828571D02*
X106654819Y-78733333D01*
X106654819Y-78733333D02*
X106702438Y-78590476D01*
X106702438Y-78590476D02*
X106750057Y-78542857D01*
X107654819Y-77590476D02*
X107654819Y-78161904D01*
X107654819Y-77876190D02*
X106654819Y-77876190D01*
X106654819Y-77876190D02*
X106797676Y-77971428D01*
X106797676Y-77971428D02*
X106892914Y-78066666D01*
X106892914Y-78066666D02*
X106940533Y-78161904D01*
X107083390Y-77019047D02*
X107035771Y-77114285D01*
X107035771Y-77114285D02*
X106988152Y-77161904D01*
X106988152Y-77161904D02*
X106892914Y-77209523D01*
X106892914Y-77209523D02*
X106845295Y-77209523D01*
X106845295Y-77209523D02*
X106750057Y-77161904D01*
X106750057Y-77161904D02*
X106702438Y-77114285D01*
X106702438Y-77114285D02*
X106654819Y-77019047D01*
X106654819Y-77019047D02*
X106654819Y-76828571D01*
X106654819Y-76828571D02*
X106702438Y-76733333D01*
X106702438Y-76733333D02*
X106750057Y-76685714D01*
X106750057Y-76685714D02*
X106845295Y-76638095D01*
X106845295Y-76638095D02*
X106892914Y-76638095D01*
X106892914Y-76638095D02*
X106988152Y-76685714D01*
X106988152Y-76685714D02*
X107035771Y-76733333D01*
X107035771Y-76733333D02*
X107083390Y-76828571D01*
X107083390Y-76828571D02*
X107083390Y-77019047D01*
X107083390Y-77019047D02*
X107131009Y-77114285D01*
X107131009Y-77114285D02*
X107178628Y-77161904D01*
X107178628Y-77161904D02*
X107273866Y-77209523D01*
X107273866Y-77209523D02*
X107464342Y-77209523D01*
X107464342Y-77209523D02*
X107559580Y-77161904D01*
X107559580Y-77161904D02*
X107607200Y-77114285D01*
X107607200Y-77114285D02*
X107654819Y-77019047D01*
X107654819Y-77019047D02*
X107654819Y-76828571D01*
X107654819Y-76828571D02*
X107607200Y-76733333D01*
X107607200Y-76733333D02*
X107559580Y-76685714D01*
X107559580Y-76685714D02*
X107464342Y-76638095D01*
X107464342Y-76638095D02*
X107273866Y-76638095D01*
X107273866Y-76638095D02*
X107178628Y-76685714D01*
X107178628Y-76685714D02*
X107131009Y-76733333D01*
X107131009Y-76733333D02*
X107083390Y-76828571D01*
X115757142Y-125359580D02*
X115709523Y-125407200D01*
X115709523Y-125407200D02*
X115566666Y-125454819D01*
X115566666Y-125454819D02*
X115471428Y-125454819D01*
X115471428Y-125454819D02*
X115328571Y-125407200D01*
X115328571Y-125407200D02*
X115233333Y-125311961D01*
X115233333Y-125311961D02*
X115185714Y-125216723D01*
X115185714Y-125216723D02*
X115138095Y-125026247D01*
X115138095Y-125026247D02*
X115138095Y-124883390D01*
X115138095Y-124883390D02*
X115185714Y-124692914D01*
X115185714Y-124692914D02*
X115233333Y-124597676D01*
X115233333Y-124597676D02*
X115328571Y-124502438D01*
X115328571Y-124502438D02*
X115471428Y-124454819D01*
X115471428Y-124454819D02*
X115566666Y-124454819D01*
X115566666Y-124454819D02*
X115709523Y-124502438D01*
X115709523Y-124502438D02*
X115757142Y-124550057D01*
X116709523Y-125454819D02*
X116138095Y-125454819D01*
X116423809Y-125454819D02*
X116423809Y-124454819D01*
X116423809Y-124454819D02*
X116328571Y-124597676D01*
X116328571Y-124597676D02*
X116233333Y-124692914D01*
X116233333Y-124692914D02*
X116138095Y-124740533D01*
X117090476Y-124550057D02*
X117138095Y-124502438D01*
X117138095Y-124502438D02*
X117233333Y-124454819D01*
X117233333Y-124454819D02*
X117471428Y-124454819D01*
X117471428Y-124454819D02*
X117566666Y-124502438D01*
X117566666Y-124502438D02*
X117614285Y-124550057D01*
X117614285Y-124550057D02*
X117661904Y-124645295D01*
X117661904Y-124645295D02*
X117661904Y-124740533D01*
X117661904Y-124740533D02*
X117614285Y-124883390D01*
X117614285Y-124883390D02*
X117042857Y-125454819D01*
X117042857Y-125454819D02*
X117661904Y-125454819D01*
X111238095Y-116654819D02*
X111238095Y-117464342D01*
X111238095Y-117464342D02*
X111285714Y-117559580D01*
X111285714Y-117559580D02*
X111333333Y-117607200D01*
X111333333Y-117607200D02*
X111428571Y-117654819D01*
X111428571Y-117654819D02*
X111619047Y-117654819D01*
X111619047Y-117654819D02*
X111714285Y-117607200D01*
X111714285Y-117607200D02*
X111761904Y-117559580D01*
X111761904Y-117559580D02*
X111809523Y-117464342D01*
X111809523Y-117464342D02*
X111809523Y-116654819D01*
X112714285Y-116654819D02*
X112523809Y-116654819D01*
X112523809Y-116654819D02*
X112428571Y-116702438D01*
X112428571Y-116702438D02*
X112380952Y-116750057D01*
X112380952Y-116750057D02*
X112285714Y-116892914D01*
X112285714Y-116892914D02*
X112238095Y-117083390D01*
X112238095Y-117083390D02*
X112238095Y-117464342D01*
X112238095Y-117464342D02*
X112285714Y-117559580D01*
X112285714Y-117559580D02*
X112333333Y-117607200D01*
X112333333Y-117607200D02*
X112428571Y-117654819D01*
X112428571Y-117654819D02*
X112619047Y-117654819D01*
X112619047Y-117654819D02*
X112714285Y-117607200D01*
X112714285Y-117607200D02*
X112761904Y-117559580D01*
X112761904Y-117559580D02*
X112809523Y-117464342D01*
X112809523Y-117464342D02*
X112809523Y-117226247D01*
X112809523Y-117226247D02*
X112761904Y-117131009D01*
X112761904Y-117131009D02*
X112714285Y-117083390D01*
X112714285Y-117083390D02*
X112619047Y-117035771D01*
X112619047Y-117035771D02*
X112428571Y-117035771D01*
X112428571Y-117035771D02*
X112333333Y-117083390D01*
X112333333Y-117083390D02*
X112285714Y-117131009D01*
X112285714Y-117131009D02*
X112238095Y-117226247D01*
X112460543Y-51003754D02*
X112561558Y-50431335D01*
X112056482Y-50599693D02*
X112763589Y-49892587D01*
X112763589Y-49892587D02*
X113032963Y-50161961D01*
X113032963Y-50161961D02*
X113066635Y-50262976D01*
X113066635Y-50262976D02*
X113066635Y-50330319D01*
X113066635Y-50330319D02*
X113032963Y-50431335D01*
X113032963Y-50431335D02*
X112931948Y-50532350D01*
X112931948Y-50532350D02*
X112830932Y-50566022D01*
X112830932Y-50566022D02*
X112763589Y-50566022D01*
X112763589Y-50566022D02*
X112662574Y-50532350D01*
X112662574Y-50532350D02*
X112393200Y-50262976D01*
X113369680Y-50633365D02*
X113437024Y-50633365D01*
X113437024Y-50633365D02*
X113538039Y-50667037D01*
X113538039Y-50667037D02*
X113706398Y-50835396D01*
X113706398Y-50835396D02*
X113740070Y-50936411D01*
X113740070Y-50936411D02*
X113740070Y-51003754D01*
X113740070Y-51003754D02*
X113706398Y-51104770D01*
X113706398Y-51104770D02*
X113639054Y-51172113D01*
X113639054Y-51172113D02*
X113504367Y-51239457D01*
X113504367Y-51239457D02*
X112696245Y-51239457D01*
X112696245Y-51239457D02*
X113133978Y-51677189D01*
X103757142Y-74289580D02*
X103709523Y-74337200D01*
X103709523Y-74337200D02*
X103566666Y-74384819D01*
X103566666Y-74384819D02*
X103471428Y-74384819D01*
X103471428Y-74384819D02*
X103328571Y-74337200D01*
X103328571Y-74337200D02*
X103233333Y-74241961D01*
X103233333Y-74241961D02*
X103185714Y-74146723D01*
X103185714Y-74146723D02*
X103138095Y-73956247D01*
X103138095Y-73956247D02*
X103138095Y-73813390D01*
X103138095Y-73813390D02*
X103185714Y-73622914D01*
X103185714Y-73622914D02*
X103233333Y-73527676D01*
X103233333Y-73527676D02*
X103328571Y-73432438D01*
X103328571Y-73432438D02*
X103471428Y-73384819D01*
X103471428Y-73384819D02*
X103566666Y-73384819D01*
X103566666Y-73384819D02*
X103709523Y-73432438D01*
X103709523Y-73432438D02*
X103757142Y-73480057D01*
X104709523Y-74384819D02*
X104138095Y-74384819D01*
X104423809Y-74384819D02*
X104423809Y-73384819D01*
X104423809Y-73384819D02*
X104328571Y-73527676D01*
X104328571Y-73527676D02*
X104233333Y-73622914D01*
X104233333Y-73622914D02*
X104138095Y-73670533D01*
X105566666Y-73718152D02*
X105566666Y-74384819D01*
X105328571Y-73337200D02*
X105090476Y-74051485D01*
X105090476Y-74051485D02*
X105709523Y-74051485D01*
X102259580Y-72242857D02*
X102307200Y-72290476D01*
X102307200Y-72290476D02*
X102354819Y-72433333D01*
X102354819Y-72433333D02*
X102354819Y-72528571D01*
X102354819Y-72528571D02*
X102307200Y-72671428D01*
X102307200Y-72671428D02*
X102211961Y-72766666D01*
X102211961Y-72766666D02*
X102116723Y-72814285D01*
X102116723Y-72814285D02*
X101926247Y-72861904D01*
X101926247Y-72861904D02*
X101783390Y-72861904D01*
X101783390Y-72861904D02*
X101592914Y-72814285D01*
X101592914Y-72814285D02*
X101497676Y-72766666D01*
X101497676Y-72766666D02*
X101402438Y-72671428D01*
X101402438Y-72671428D02*
X101354819Y-72528571D01*
X101354819Y-72528571D02*
X101354819Y-72433333D01*
X101354819Y-72433333D02*
X101402438Y-72290476D01*
X101402438Y-72290476D02*
X101450057Y-72242857D01*
X102354819Y-71290476D02*
X102354819Y-71861904D01*
X102354819Y-71576190D02*
X101354819Y-71576190D01*
X101354819Y-71576190D02*
X101497676Y-71671428D01*
X101497676Y-71671428D02*
X101592914Y-71766666D01*
X101592914Y-71766666D02*
X101640533Y-71861904D01*
X101354819Y-70433333D02*
X101354819Y-70623809D01*
X101354819Y-70623809D02*
X101402438Y-70719047D01*
X101402438Y-70719047D02*
X101450057Y-70766666D01*
X101450057Y-70766666D02*
X101592914Y-70861904D01*
X101592914Y-70861904D02*
X101783390Y-70909523D01*
X101783390Y-70909523D02*
X102164342Y-70909523D01*
X102164342Y-70909523D02*
X102259580Y-70861904D01*
X102259580Y-70861904D02*
X102307200Y-70814285D01*
X102307200Y-70814285D02*
X102354819Y-70719047D01*
X102354819Y-70719047D02*
X102354819Y-70528571D01*
X102354819Y-70528571D02*
X102307200Y-70433333D01*
X102307200Y-70433333D02*
X102259580Y-70385714D01*
X102259580Y-70385714D02*
X102164342Y-70338095D01*
X102164342Y-70338095D02*
X101926247Y-70338095D01*
X101926247Y-70338095D02*
X101831009Y-70385714D01*
X101831009Y-70385714D02*
X101783390Y-70433333D01*
X101783390Y-70433333D02*
X101735771Y-70528571D01*
X101735771Y-70528571D02*
X101735771Y-70719047D01*
X101735771Y-70719047D02*
X101783390Y-70814285D01*
X101783390Y-70814285D02*
X101831009Y-70861904D01*
X101831009Y-70861904D02*
X101926247Y-70909523D01*
X101138095Y-74254819D02*
X101138095Y-75064342D01*
X101138095Y-75064342D02*
X101185714Y-75159580D01*
X101185714Y-75159580D02*
X101233333Y-75207200D01*
X101233333Y-75207200D02*
X101328571Y-75254819D01*
X101328571Y-75254819D02*
X101519047Y-75254819D01*
X101519047Y-75254819D02*
X101614285Y-75207200D01*
X101614285Y-75207200D02*
X101661904Y-75159580D01*
X101661904Y-75159580D02*
X101709523Y-75064342D01*
X101709523Y-75064342D02*
X101709523Y-74254819D01*
X102328571Y-74683390D02*
X102233333Y-74635771D01*
X102233333Y-74635771D02*
X102185714Y-74588152D01*
X102185714Y-74588152D02*
X102138095Y-74492914D01*
X102138095Y-74492914D02*
X102138095Y-74445295D01*
X102138095Y-74445295D02*
X102185714Y-74350057D01*
X102185714Y-74350057D02*
X102233333Y-74302438D01*
X102233333Y-74302438D02*
X102328571Y-74254819D01*
X102328571Y-74254819D02*
X102519047Y-74254819D01*
X102519047Y-74254819D02*
X102614285Y-74302438D01*
X102614285Y-74302438D02*
X102661904Y-74350057D01*
X102661904Y-74350057D02*
X102709523Y-74445295D01*
X102709523Y-74445295D02*
X102709523Y-74492914D01*
X102709523Y-74492914D02*
X102661904Y-74588152D01*
X102661904Y-74588152D02*
X102614285Y-74635771D01*
X102614285Y-74635771D02*
X102519047Y-74683390D01*
X102519047Y-74683390D02*
X102328571Y-74683390D01*
X102328571Y-74683390D02*
X102233333Y-74731009D01*
X102233333Y-74731009D02*
X102185714Y-74778628D01*
X102185714Y-74778628D02*
X102138095Y-74873866D01*
X102138095Y-74873866D02*
X102138095Y-75064342D01*
X102138095Y-75064342D02*
X102185714Y-75159580D01*
X102185714Y-75159580D02*
X102233333Y-75207200D01*
X102233333Y-75207200D02*
X102328571Y-75254819D01*
X102328571Y-75254819D02*
X102519047Y-75254819D01*
X102519047Y-75254819D02*
X102614285Y-75207200D01*
X102614285Y-75207200D02*
X102661904Y-75159580D01*
X102661904Y-75159580D02*
X102709523Y-75064342D01*
X102709523Y-75064342D02*
X102709523Y-74873866D01*
X102709523Y-74873866D02*
X102661904Y-74778628D01*
X102661904Y-74778628D02*
X102614285Y-74731009D01*
X102614285Y-74731009D02*
X102519047Y-74683390D01*
X107233333Y-74384819D02*
X106900000Y-73908628D01*
X106661905Y-74384819D02*
X106661905Y-73384819D01*
X106661905Y-73384819D02*
X107042857Y-73384819D01*
X107042857Y-73384819D02*
X107138095Y-73432438D01*
X107138095Y-73432438D02*
X107185714Y-73480057D01*
X107185714Y-73480057D02*
X107233333Y-73575295D01*
X107233333Y-73575295D02*
X107233333Y-73718152D01*
X107233333Y-73718152D02*
X107185714Y-73813390D01*
X107185714Y-73813390D02*
X107138095Y-73861009D01*
X107138095Y-73861009D02*
X107042857Y-73908628D01*
X107042857Y-73908628D02*
X106661905Y-73908628D01*
X107804762Y-73813390D02*
X107709524Y-73765771D01*
X107709524Y-73765771D02*
X107661905Y-73718152D01*
X107661905Y-73718152D02*
X107614286Y-73622914D01*
X107614286Y-73622914D02*
X107614286Y-73575295D01*
X107614286Y-73575295D02*
X107661905Y-73480057D01*
X107661905Y-73480057D02*
X107709524Y-73432438D01*
X107709524Y-73432438D02*
X107804762Y-73384819D01*
X107804762Y-73384819D02*
X107995238Y-73384819D01*
X107995238Y-73384819D02*
X108090476Y-73432438D01*
X108090476Y-73432438D02*
X108138095Y-73480057D01*
X108138095Y-73480057D02*
X108185714Y-73575295D01*
X108185714Y-73575295D02*
X108185714Y-73622914D01*
X108185714Y-73622914D02*
X108138095Y-73718152D01*
X108138095Y-73718152D02*
X108090476Y-73765771D01*
X108090476Y-73765771D02*
X107995238Y-73813390D01*
X107995238Y-73813390D02*
X107804762Y-73813390D01*
X107804762Y-73813390D02*
X107709524Y-73861009D01*
X107709524Y-73861009D02*
X107661905Y-73908628D01*
X107661905Y-73908628D02*
X107614286Y-74003866D01*
X107614286Y-74003866D02*
X107614286Y-74194342D01*
X107614286Y-74194342D02*
X107661905Y-74289580D01*
X107661905Y-74289580D02*
X107709524Y-74337200D01*
X107709524Y-74337200D02*
X107804762Y-74384819D01*
X107804762Y-74384819D02*
X107995238Y-74384819D01*
X107995238Y-74384819D02*
X108090476Y-74337200D01*
X108090476Y-74337200D02*
X108138095Y-74289580D01*
X108138095Y-74289580D02*
X108185714Y-74194342D01*
X108185714Y-74194342D02*
X108185714Y-74003866D01*
X108185714Y-74003866D02*
X108138095Y-73908628D01*
X108138095Y-73908628D02*
X108090476Y-73861009D01*
X108090476Y-73861009D02*
X107995238Y-73813390D01*
X116467998Y-53911198D02*
X116400654Y-53911198D01*
X116400654Y-53911198D02*
X116265967Y-53843854D01*
X116265967Y-53843854D02*
X116198624Y-53776511D01*
X116198624Y-53776511D02*
X116131280Y-53641824D01*
X116131280Y-53641824D02*
X116131280Y-53507137D01*
X116131280Y-53507137D02*
X116164952Y-53406122D01*
X116164952Y-53406122D02*
X116265967Y-53237763D01*
X116265967Y-53237763D02*
X116366982Y-53136748D01*
X116366982Y-53136748D02*
X116535341Y-53035732D01*
X116535341Y-53035732D02*
X116636356Y-53002061D01*
X116636356Y-53002061D02*
X116771043Y-53002061D01*
X116771043Y-53002061D02*
X116905730Y-53069404D01*
X116905730Y-53069404D02*
X116973074Y-53136748D01*
X116973074Y-53136748D02*
X117040417Y-53271435D01*
X117040417Y-53271435D02*
X117040417Y-53338778D01*
X117478150Y-54113228D02*
X117006746Y-54584633D01*
X117579165Y-53675496D02*
X116905730Y-54012213D01*
X116905730Y-54012213D02*
X117343463Y-54449946D01*
X112188096Y-81654819D02*
X112188096Y-82464342D01*
X112188096Y-82464342D02*
X112235715Y-82559580D01*
X112235715Y-82559580D02*
X112283334Y-82607200D01*
X112283334Y-82607200D02*
X112378572Y-82654819D01*
X112378572Y-82654819D02*
X112569048Y-82654819D01*
X112569048Y-82654819D02*
X112664286Y-82607200D01*
X112664286Y-82607200D02*
X112711905Y-82559580D01*
X112711905Y-82559580D02*
X112759524Y-82464342D01*
X112759524Y-82464342D02*
X112759524Y-81654819D01*
X113188096Y-81750057D02*
X113235715Y-81702438D01*
X113235715Y-81702438D02*
X113330953Y-81654819D01*
X113330953Y-81654819D02*
X113569048Y-81654819D01*
X113569048Y-81654819D02*
X113664286Y-81702438D01*
X113664286Y-81702438D02*
X113711905Y-81750057D01*
X113711905Y-81750057D02*
X113759524Y-81845295D01*
X113759524Y-81845295D02*
X113759524Y-81940533D01*
X113759524Y-81940533D02*
X113711905Y-82083390D01*
X113711905Y-82083390D02*
X113140477Y-82654819D01*
X113140477Y-82654819D02*
X113759524Y-82654819D01*
X112188096Y-90654819D02*
X112188096Y-91464342D01*
X112188096Y-91464342D02*
X112235715Y-91559580D01*
X112235715Y-91559580D02*
X112283334Y-91607200D01*
X112283334Y-91607200D02*
X112378572Y-91654819D01*
X112378572Y-91654819D02*
X112569048Y-91654819D01*
X112569048Y-91654819D02*
X112664286Y-91607200D01*
X112664286Y-91607200D02*
X112711905Y-91559580D01*
X112711905Y-91559580D02*
X112759524Y-91464342D01*
X112759524Y-91464342D02*
X112759524Y-90654819D01*
X113140477Y-90654819D02*
X113759524Y-90654819D01*
X113759524Y-90654819D02*
X113426191Y-91035771D01*
X113426191Y-91035771D02*
X113569048Y-91035771D01*
X113569048Y-91035771D02*
X113664286Y-91083390D01*
X113664286Y-91083390D02*
X113711905Y-91131009D01*
X113711905Y-91131009D02*
X113759524Y-91226247D01*
X113759524Y-91226247D02*
X113759524Y-91464342D01*
X113759524Y-91464342D02*
X113711905Y-91559580D01*
X113711905Y-91559580D02*
X113664286Y-91607200D01*
X113664286Y-91607200D02*
X113569048Y-91654819D01*
X113569048Y-91654819D02*
X113283334Y-91654819D01*
X113283334Y-91654819D02*
X113188096Y-91607200D01*
X113188096Y-91607200D02*
X113140477Y-91559580D01*
X113333333Y-71159580D02*
X113285714Y-71207200D01*
X113285714Y-71207200D02*
X113142857Y-71254819D01*
X113142857Y-71254819D02*
X113047619Y-71254819D01*
X113047619Y-71254819D02*
X112904762Y-71207200D01*
X112904762Y-71207200D02*
X112809524Y-71111961D01*
X112809524Y-71111961D02*
X112761905Y-71016723D01*
X112761905Y-71016723D02*
X112714286Y-70826247D01*
X112714286Y-70826247D02*
X112714286Y-70683390D01*
X112714286Y-70683390D02*
X112761905Y-70492914D01*
X112761905Y-70492914D02*
X112809524Y-70397676D01*
X112809524Y-70397676D02*
X112904762Y-70302438D01*
X112904762Y-70302438D02*
X113047619Y-70254819D01*
X113047619Y-70254819D02*
X113142857Y-70254819D01*
X113142857Y-70254819D02*
X113285714Y-70302438D01*
X113285714Y-70302438D02*
X113333333Y-70350057D01*
X113904762Y-70683390D02*
X113809524Y-70635771D01*
X113809524Y-70635771D02*
X113761905Y-70588152D01*
X113761905Y-70588152D02*
X113714286Y-70492914D01*
X113714286Y-70492914D02*
X113714286Y-70445295D01*
X113714286Y-70445295D02*
X113761905Y-70350057D01*
X113761905Y-70350057D02*
X113809524Y-70302438D01*
X113809524Y-70302438D02*
X113904762Y-70254819D01*
X113904762Y-70254819D02*
X114095238Y-70254819D01*
X114095238Y-70254819D02*
X114190476Y-70302438D01*
X114190476Y-70302438D02*
X114238095Y-70350057D01*
X114238095Y-70350057D02*
X114285714Y-70445295D01*
X114285714Y-70445295D02*
X114285714Y-70492914D01*
X114285714Y-70492914D02*
X114238095Y-70588152D01*
X114238095Y-70588152D02*
X114190476Y-70635771D01*
X114190476Y-70635771D02*
X114095238Y-70683390D01*
X114095238Y-70683390D02*
X113904762Y-70683390D01*
X113904762Y-70683390D02*
X113809524Y-70731009D01*
X113809524Y-70731009D02*
X113761905Y-70778628D01*
X113761905Y-70778628D02*
X113714286Y-70873866D01*
X113714286Y-70873866D02*
X113714286Y-71064342D01*
X113714286Y-71064342D02*
X113761905Y-71159580D01*
X113761905Y-71159580D02*
X113809524Y-71207200D01*
X113809524Y-71207200D02*
X113904762Y-71254819D01*
X113904762Y-71254819D02*
X114095238Y-71254819D01*
X114095238Y-71254819D02*
X114190476Y-71207200D01*
X114190476Y-71207200D02*
X114238095Y-71159580D01*
X114238095Y-71159580D02*
X114285714Y-71064342D01*
X114285714Y-71064342D02*
X114285714Y-70873866D01*
X114285714Y-70873866D02*
X114238095Y-70778628D01*
X114238095Y-70778628D02*
X114190476Y-70731009D01*
X114190476Y-70731009D02*
X114095238Y-70683390D01*
X101054819Y-69109523D02*
X102054819Y-68442857D01*
X101054819Y-68442857D02*
X102054819Y-69109523D01*
X102054819Y-67538095D02*
X102054819Y-68109523D01*
X102054819Y-67823809D02*
X101054819Y-67823809D01*
X101054819Y-67823809D02*
X101197676Y-67919047D01*
X101197676Y-67919047D02*
X101292914Y-68014285D01*
X101292914Y-68014285D02*
X101340533Y-68109523D01*
X106636411Y-58072112D02*
X106636411Y-58139456D01*
X106636411Y-58139456D02*
X106569067Y-58274143D01*
X106569067Y-58274143D02*
X106501724Y-58341486D01*
X106501724Y-58341486D02*
X106367037Y-58408830D01*
X106367037Y-58408830D02*
X106232350Y-58408830D01*
X106232350Y-58408830D02*
X106131335Y-58375158D01*
X106131335Y-58375158D02*
X105962976Y-58274143D01*
X105962976Y-58274143D02*
X105861961Y-58173128D01*
X105861961Y-58173128D02*
X105760945Y-58004769D01*
X105760945Y-58004769D02*
X105727274Y-57903754D01*
X105727274Y-57903754D02*
X105727274Y-57769067D01*
X105727274Y-57769067D02*
X105794617Y-57634380D01*
X105794617Y-57634380D02*
X105861961Y-57567036D01*
X105861961Y-57567036D02*
X105996648Y-57499693D01*
X105996648Y-57499693D02*
X106063991Y-57499693D01*
X106602739Y-56826258D02*
X106468052Y-56960945D01*
X106468052Y-56960945D02*
X106434380Y-57061960D01*
X106434380Y-57061960D02*
X106434380Y-57129303D01*
X106434380Y-57129303D02*
X106468052Y-57297662D01*
X106468052Y-57297662D02*
X106569067Y-57466021D01*
X106569067Y-57466021D02*
X106838441Y-57735395D01*
X106838441Y-57735395D02*
X106939457Y-57769067D01*
X106939457Y-57769067D02*
X107006800Y-57769067D01*
X107006800Y-57769067D02*
X107107815Y-57735395D01*
X107107815Y-57735395D02*
X107242502Y-57600708D01*
X107242502Y-57600708D02*
X107276174Y-57499693D01*
X107276174Y-57499693D02*
X107276174Y-57432349D01*
X107276174Y-57432349D02*
X107242502Y-57331334D01*
X107242502Y-57331334D02*
X107074144Y-57162975D01*
X107074144Y-57162975D02*
X106973128Y-57129303D01*
X106973128Y-57129303D02*
X106905785Y-57129303D01*
X106905785Y-57129303D02*
X106804770Y-57162975D01*
X106804770Y-57162975D02*
X106670083Y-57297662D01*
X106670083Y-57297662D02*
X106636411Y-57398677D01*
X106636411Y-57398677D02*
X106636411Y-57466021D01*
X106636411Y-57466021D02*
X106670083Y-57567036D01*
X117861905Y-78154819D02*
X117861905Y-77154819D01*
X117861905Y-77154819D02*
X118100000Y-77154819D01*
X118100000Y-77154819D02*
X118242857Y-77202438D01*
X118242857Y-77202438D02*
X118338095Y-77297676D01*
X118338095Y-77297676D02*
X118385714Y-77392914D01*
X118385714Y-77392914D02*
X118433333Y-77583390D01*
X118433333Y-77583390D02*
X118433333Y-77726247D01*
X118433333Y-77726247D02*
X118385714Y-77916723D01*
X118385714Y-77916723D02*
X118338095Y-78011961D01*
X118338095Y-78011961D02*
X118242857Y-78107200D01*
X118242857Y-78107200D02*
X118100000Y-78154819D01*
X118100000Y-78154819D02*
X117861905Y-78154819D01*
X118766667Y-77154819D02*
X119385714Y-77154819D01*
X119385714Y-77154819D02*
X119052381Y-77535771D01*
X119052381Y-77535771D02*
X119195238Y-77535771D01*
X119195238Y-77535771D02*
X119290476Y-77583390D01*
X119290476Y-77583390D02*
X119338095Y-77631009D01*
X119338095Y-77631009D02*
X119385714Y-77726247D01*
X119385714Y-77726247D02*
X119385714Y-77964342D01*
X119385714Y-77964342D02*
X119338095Y-78059580D01*
X119338095Y-78059580D02*
X119290476Y-78107200D01*
X119290476Y-78107200D02*
X119195238Y-78154819D01*
X119195238Y-78154819D02*
X118909524Y-78154819D01*
X118909524Y-78154819D02*
X118814286Y-78107200D01*
X118814286Y-78107200D02*
X118766667Y-78059580D01*
X170861905Y-32654819D02*
X170861905Y-31654819D01*
X170861905Y-31654819D02*
X171100000Y-31654819D01*
X171100000Y-31654819D02*
X171242857Y-31702438D01*
X171242857Y-31702438D02*
X171338095Y-31797676D01*
X171338095Y-31797676D02*
X171385714Y-31892914D01*
X171385714Y-31892914D02*
X171433333Y-32083390D01*
X171433333Y-32083390D02*
X171433333Y-32226247D01*
X171433333Y-32226247D02*
X171385714Y-32416723D01*
X171385714Y-32416723D02*
X171338095Y-32511961D01*
X171338095Y-32511961D02*
X171242857Y-32607200D01*
X171242857Y-32607200D02*
X171100000Y-32654819D01*
X171100000Y-32654819D02*
X170861905Y-32654819D01*
X172338095Y-31654819D02*
X171861905Y-31654819D01*
X171861905Y-31654819D02*
X171814286Y-32131009D01*
X171814286Y-32131009D02*
X171861905Y-32083390D01*
X171861905Y-32083390D02*
X171957143Y-32035771D01*
X171957143Y-32035771D02*
X172195238Y-32035771D01*
X172195238Y-32035771D02*
X172290476Y-32083390D01*
X172290476Y-32083390D02*
X172338095Y-32131009D01*
X172338095Y-32131009D02*
X172385714Y-32226247D01*
X172385714Y-32226247D02*
X172385714Y-32464342D01*
X172385714Y-32464342D02*
X172338095Y-32559580D01*
X172338095Y-32559580D02*
X172290476Y-32607200D01*
X172290476Y-32607200D02*
X172195238Y-32654819D01*
X172195238Y-32654819D02*
X171957143Y-32654819D01*
X171957143Y-32654819D02*
X171861905Y-32607200D01*
X171861905Y-32607200D02*
X171814286Y-32559580D01*
X109433333Y-75954819D02*
X109100000Y-75478628D01*
X108861905Y-75954819D02*
X108861905Y-74954819D01*
X108861905Y-74954819D02*
X109242857Y-74954819D01*
X109242857Y-74954819D02*
X109338095Y-75002438D01*
X109338095Y-75002438D02*
X109385714Y-75050057D01*
X109385714Y-75050057D02*
X109433333Y-75145295D01*
X109433333Y-75145295D02*
X109433333Y-75288152D01*
X109433333Y-75288152D02*
X109385714Y-75383390D01*
X109385714Y-75383390D02*
X109338095Y-75431009D01*
X109338095Y-75431009D02*
X109242857Y-75478628D01*
X109242857Y-75478628D02*
X108861905Y-75478628D01*
X110290476Y-74954819D02*
X110100000Y-74954819D01*
X110100000Y-74954819D02*
X110004762Y-75002438D01*
X110004762Y-75002438D02*
X109957143Y-75050057D01*
X109957143Y-75050057D02*
X109861905Y-75192914D01*
X109861905Y-75192914D02*
X109814286Y-75383390D01*
X109814286Y-75383390D02*
X109814286Y-75764342D01*
X109814286Y-75764342D02*
X109861905Y-75859580D01*
X109861905Y-75859580D02*
X109909524Y-75907200D01*
X109909524Y-75907200D02*
X110004762Y-75954819D01*
X110004762Y-75954819D02*
X110195238Y-75954819D01*
X110195238Y-75954819D02*
X110290476Y-75907200D01*
X110290476Y-75907200D02*
X110338095Y-75859580D01*
X110338095Y-75859580D02*
X110385714Y-75764342D01*
X110385714Y-75764342D02*
X110385714Y-75526247D01*
X110385714Y-75526247D02*
X110338095Y-75431009D01*
X110338095Y-75431009D02*
X110290476Y-75383390D01*
X110290476Y-75383390D02*
X110195238Y-75335771D01*
X110195238Y-75335771D02*
X110004762Y-75335771D01*
X110004762Y-75335771D02*
X109909524Y-75383390D01*
X109909524Y-75383390D02*
X109861905Y-75431009D01*
X109861905Y-75431009D02*
X109814286Y-75526247D01*
X115757142Y-123059580D02*
X115709523Y-123107200D01*
X115709523Y-123107200D02*
X115566666Y-123154819D01*
X115566666Y-123154819D02*
X115471428Y-123154819D01*
X115471428Y-123154819D02*
X115328571Y-123107200D01*
X115328571Y-123107200D02*
X115233333Y-123011961D01*
X115233333Y-123011961D02*
X115185714Y-122916723D01*
X115185714Y-122916723D02*
X115138095Y-122726247D01*
X115138095Y-122726247D02*
X115138095Y-122583390D01*
X115138095Y-122583390D02*
X115185714Y-122392914D01*
X115185714Y-122392914D02*
X115233333Y-122297676D01*
X115233333Y-122297676D02*
X115328571Y-122202438D01*
X115328571Y-122202438D02*
X115471428Y-122154819D01*
X115471428Y-122154819D02*
X115566666Y-122154819D01*
X115566666Y-122154819D02*
X115709523Y-122202438D01*
X115709523Y-122202438D02*
X115757142Y-122250057D01*
X116709523Y-123154819D02*
X116138095Y-123154819D01*
X116423809Y-123154819D02*
X116423809Y-122154819D01*
X116423809Y-122154819D02*
X116328571Y-122297676D01*
X116328571Y-122297676D02*
X116233333Y-122392914D01*
X116233333Y-122392914D02*
X116138095Y-122440533D01*
X117661904Y-123154819D02*
X117090476Y-123154819D01*
X117376190Y-123154819D02*
X117376190Y-122154819D01*
X117376190Y-122154819D02*
X117280952Y-122297676D01*
X117280952Y-122297676D02*
X117185714Y-122392914D01*
X117185714Y-122392914D02*
X117090476Y-122440533D01*
D11*
%TO.C,U1*%
X105473369Y-62900000D02*
X106145120Y-63571751D01*
X112700000Y-70126631D02*
X112028249Y-69454880D01*
X106145120Y-62228249D02*
X105473369Y-62900000D01*
X113371751Y-69454880D02*
X112700000Y-70126631D01*
X112028249Y-56345120D02*
X112700000Y-55673369D01*
X119254880Y-63571751D02*
X119926631Y-62900000D01*
X112700000Y-55673369D02*
X113371751Y-56345120D01*
X119926631Y-62900000D02*
X119254880Y-62228249D01*
X105710249Y-64006622D02*
X105137493Y-63914698D01*
X105618326Y-63433866D01*
X105710249Y-64006622D01*
G36*
X105710249Y-64006622D02*
G01*
X105137493Y-63914698D01*
X105618326Y-63433866D01*
X105710249Y-64006622D01*
G37*
%TO.C,C9*%
X109440580Y-76190000D02*
X109159420Y-76190000D01*
X109440580Y-77210000D02*
X109159420Y-77210000D01*
%TO.C,C13*%
X113411252Y-127090000D02*
X111988748Y-127090000D01*
X113411252Y-128910000D02*
X111988748Y-128910000D01*
%TO.C,D1*%
X172865000Y-33715000D02*
X172865000Y-36000000D01*
X174335000Y-33715000D02*
X172865000Y-33715000D01*
X174335000Y-36000000D02*
X174335000Y-33715000D01*
%TO.C,J2*%
X106277631Y-51289477D02*
X106726644Y-50840464D01*
X106726644Y-50840464D02*
X107175657Y-51289477D01*
%TO.C,R4*%
X112037742Y-72877500D02*
X112512258Y-72877500D01*
X112037742Y-73922500D02*
X112512258Y-73922500D01*
D12*
%TO.C,U5*%
X112148001Y-113477001D02*
X113752001Y-113477001D01*
X113752001Y-111023001D02*
X112148001Y-111023001D01*
D13*
%TO.C,REF\u002A\u002A*%
X105923975Y-33700000D02*
G75*
G02*
X102876025Y-33700000I-1523975J0D01*
G01*
X102876025Y-33700000D02*
G75*
G02*
X105923975Y-33700000I1523975J0D01*
G01*
D14*
X103670906Y-34483879D02*
X103343740Y-34483879D01*
X103343740Y-32939754D01*
X103670906Y-32939754D01*
X103670906Y-34483879D01*
G36*
X103670906Y-34483879D02*
G01*
X103343740Y-34483879D01*
X103343740Y-32939754D01*
X103670906Y-32939754D01*
X103670906Y-34483879D01*
G37*
X104328956Y-33200000D02*
X103768808Y-33200000D01*
X103768808Y-32939754D01*
X104316564Y-32939754D01*
X104328956Y-33200000D01*
G36*
X104328956Y-33200000D02*
G01*
X103768808Y-33200000D01*
X103768808Y-32939754D01*
X104316564Y-32939754D01*
X104328956Y-33200000D01*
G37*
X104208748Y-33830786D02*
X103768808Y-33830786D01*
X103768808Y-33591608D01*
X104208748Y-33591608D01*
X104208748Y-33830786D01*
G36*
X104208748Y-33830786D02*
G01*
X103768808Y-33830786D01*
X103768808Y-33591608D01*
X104208748Y-33591608D01*
X104208748Y-33830786D01*
G37*
X104316564Y-34483879D02*
X103768808Y-34483879D01*
X103768808Y-34222394D01*
X104328956Y-34222394D01*
X104316564Y-34483879D01*
G36*
X104316564Y-34483879D02*
G01*
X103768808Y-34483879D01*
X103768808Y-34222394D01*
X104328956Y-34222394D01*
X104316564Y-34483879D01*
G37*
X104993203Y-33200000D02*
X104923804Y-33200000D01*
X104914234Y-33200281D01*
X104905262Y-33201100D01*
X104896868Y-33202421D01*
X104889034Y-33204207D01*
X104881740Y-33206424D01*
X104874967Y-33209035D01*
X104868695Y-33212005D01*
X104862906Y-33215298D01*
X104857579Y-33218877D01*
X104848237Y-33226753D01*
X104840516Y-33235345D01*
X104834260Y-33244368D01*
X104829316Y-33253535D01*
X104825529Y-33262558D01*
X104822745Y-33271150D01*
X104820810Y-33279026D01*
X104819569Y-33285898D01*
X104818672Y-33293696D01*
X104818467Y-33297902D01*
X104818467Y-34124492D01*
X104818769Y-34133386D01*
X104819649Y-34141725D01*
X104821070Y-34149526D01*
X104822993Y-34156807D01*
X104825378Y-34163586D01*
X104828188Y-34169881D01*
X104831383Y-34175710D01*
X104834925Y-34181091D01*
X104838777Y-34186042D01*
X104847250Y-34194724D01*
X104856496Y-34201901D01*
X104866204Y-34207715D01*
X104876066Y-34212310D01*
X104885774Y-34215829D01*
X104895020Y-34218417D01*
X104903493Y-34220215D01*
X104910887Y-34221369D01*
X104919277Y-34222202D01*
X104923804Y-34222394D01*
X104993203Y-34222394D01*
X104993203Y-34483879D01*
X104864319Y-34483879D01*
X104830429Y-34482912D01*
X104798658Y-34480093D01*
X104768935Y-34475546D01*
X104741193Y-34469395D01*
X104715364Y-34461762D01*
X104691378Y-34452771D01*
X104669169Y-34442546D01*
X104648667Y-34431210D01*
X104629804Y-34418886D01*
X104612512Y-34405698D01*
X104596723Y-34391770D01*
X104582369Y-34377224D01*
X104569380Y-34362185D01*
X104557689Y-34346775D01*
X104547227Y-34331119D01*
X104537927Y-34315339D01*
X104529719Y-34299558D01*
X104522536Y-34283902D01*
X104516309Y-34268492D01*
X104510970Y-34253453D01*
X104506451Y-34238907D01*
X104502683Y-34224979D01*
X104499598Y-34211791D01*
X104497128Y-34199467D01*
X104495204Y-34188131D01*
X104493758Y-34177906D01*
X104492722Y-34168915D01*
X104492028Y-34161282D01*
X104491391Y-34150584D01*
X104491300Y-34146799D01*
X104491300Y-33276834D01*
X104492370Y-33246211D01*
X104495489Y-33217500D01*
X104500520Y-33190641D01*
X104507328Y-33165572D01*
X104515774Y-33142231D01*
X104525724Y-33120556D01*
X104537039Y-33100487D01*
X104549584Y-33081960D01*
X104563221Y-33064915D01*
X104577815Y-33049289D01*
X104593229Y-33035021D01*
X104609325Y-33022049D01*
X104625968Y-33010312D01*
X104643021Y-32999747D01*
X104660347Y-32990294D01*
X104677809Y-32981889D01*
X104695271Y-32974473D01*
X104712597Y-32967982D01*
X104729650Y-32962355D01*
X104746293Y-32957530D01*
X104762389Y-32953446D01*
X104777803Y-32950041D01*
X104792397Y-32947254D01*
X104806034Y-32945021D01*
X104818579Y-32943283D01*
X104829894Y-32941976D01*
X104839844Y-32941040D01*
X104848290Y-32940413D01*
X104855098Y-32940032D01*
X104863248Y-32939765D01*
X104864319Y-32939754D01*
X104993203Y-32939754D01*
X104993203Y-33200000D01*
G36*
X104993203Y-33200000D02*
G01*
X104923804Y-33200000D01*
X104914234Y-33200281D01*
X104905262Y-33201100D01*
X104896868Y-33202421D01*
X104889034Y-33204207D01*
X104881740Y-33206424D01*
X104874967Y-33209035D01*
X104868695Y-33212005D01*
X104862906Y-33215298D01*
X104857579Y-33218877D01*
X104848237Y-33226753D01*
X104840516Y-33235345D01*
X104834260Y-33244368D01*
X104829316Y-33253535D01*
X104825529Y-33262558D01*
X104822745Y-33271150D01*
X104820810Y-33279026D01*
X104819569Y-33285898D01*
X104818672Y-33293696D01*
X104818467Y-33297902D01*
X104818467Y-34124492D01*
X104818769Y-34133386D01*
X104819649Y-34141725D01*
X104821070Y-34149526D01*
X104822993Y-34156807D01*
X104825378Y-34163586D01*
X104828188Y-34169881D01*
X104831383Y-34175710D01*
X104834925Y-34181091D01*
X104838777Y-34186042D01*
X104847250Y-34194724D01*
X104856496Y-34201901D01*
X104866204Y-34207715D01*
X104876066Y-34212310D01*
X104885774Y-34215829D01*
X104895020Y-34218417D01*
X104903493Y-34220215D01*
X104910887Y-34221369D01*
X104919277Y-34222202D01*
X104923804Y-34222394D01*
X104993203Y-34222394D01*
X104993203Y-34483879D01*
X104864319Y-34483879D01*
X104830429Y-34482912D01*
X104798658Y-34480093D01*
X104768935Y-34475546D01*
X104741193Y-34469395D01*
X104715364Y-34461762D01*
X104691378Y-34452771D01*
X104669169Y-34442546D01*
X104648667Y-34431210D01*
X104629804Y-34418886D01*
X104612512Y-34405698D01*
X104596723Y-34391770D01*
X104582369Y-34377224D01*
X104569380Y-34362185D01*
X104557689Y-34346775D01*
X104547227Y-34331119D01*
X104537927Y-34315339D01*
X104529719Y-34299558D01*
X104522536Y-34283902D01*
X104516309Y-34268492D01*
X104510970Y-34253453D01*
X104506451Y-34238907D01*
X104502683Y-34224979D01*
X104499598Y-34211791D01*
X104497128Y-34199467D01*
X104495204Y-34188131D01*
X104493758Y-34177906D01*
X104492722Y-34168915D01*
X104492028Y-34161282D01*
X104491391Y-34150584D01*
X104491300Y-34146799D01*
X104491300Y-33276834D01*
X104492370Y-33246211D01*
X104495489Y-33217500D01*
X104500520Y-33190641D01*
X104507328Y-33165572D01*
X104515774Y-33142231D01*
X104525724Y-33120556D01*
X104537039Y-33100487D01*
X104549584Y-33081960D01*
X104563221Y-33064915D01*
X104577815Y-33049289D01*
X104593229Y-33035021D01*
X104609325Y-33022049D01*
X104625968Y-33010312D01*
X104643021Y-32999747D01*
X104660347Y-32990294D01*
X104677809Y-32981889D01*
X104695271Y-32974473D01*
X104712597Y-32967982D01*
X104729650Y-32962355D01*
X104746293Y-32957530D01*
X104762389Y-32953446D01*
X104777803Y-32950041D01*
X104792397Y-32947254D01*
X104806034Y-32945021D01*
X104818579Y-32943283D01*
X104829894Y-32941976D01*
X104839844Y-32941040D01*
X104848290Y-32940413D01*
X104855098Y-32940032D01*
X104863248Y-32939765D01*
X104864319Y-32939754D01*
X104993203Y-32939754D01*
X104993203Y-33200000D01*
G37*
X105256356Y-32940721D02*
X105288127Y-32943540D01*
X105317850Y-32948087D01*
X105345592Y-32954238D01*
X105371421Y-32961871D01*
X105395407Y-32970862D01*
X105417616Y-32981087D01*
X105438118Y-32992423D01*
X105456981Y-33004747D01*
X105474273Y-33017935D01*
X105490062Y-33031863D01*
X105504416Y-33046409D01*
X105517405Y-33061448D01*
X105529096Y-33076858D01*
X105539558Y-33092514D01*
X105548858Y-33108294D01*
X105557066Y-33124075D01*
X105564249Y-33139731D01*
X105570476Y-33155141D01*
X105575815Y-33170180D01*
X105580334Y-33184726D01*
X105584102Y-33198654D01*
X105587187Y-33211842D01*
X105589657Y-33224166D01*
X105591581Y-33235502D01*
X105593027Y-33245727D01*
X105594063Y-33254718D01*
X105594757Y-33262351D01*
X105595394Y-33273049D01*
X105595486Y-33276834D01*
X105595486Y-34146799D01*
X105594415Y-34177422D01*
X105591296Y-34206133D01*
X105586265Y-34232992D01*
X105579457Y-34258061D01*
X105571011Y-34281402D01*
X105561061Y-34303077D01*
X105549746Y-34323146D01*
X105537201Y-34341673D01*
X105523564Y-34358718D01*
X105508970Y-34374344D01*
X105493556Y-34388612D01*
X105477460Y-34401584D01*
X105460817Y-34413321D01*
X105443764Y-34423886D01*
X105426438Y-34433339D01*
X105408976Y-34441744D01*
X105391514Y-34449160D01*
X105374188Y-34455651D01*
X105357135Y-34461278D01*
X105340492Y-34466103D01*
X105324396Y-34470187D01*
X105308982Y-34473592D01*
X105294388Y-34476379D01*
X105280751Y-34478612D01*
X105268206Y-34480350D01*
X105256891Y-34481657D01*
X105246941Y-34482593D01*
X105238495Y-34483220D01*
X105231687Y-34483601D01*
X105223537Y-34483868D01*
X105222467Y-34483879D01*
X105089866Y-34483879D01*
X105089866Y-34222394D01*
X105162983Y-34222394D01*
X105172552Y-34222113D01*
X105181524Y-34221294D01*
X105189918Y-34219973D01*
X105197752Y-34218187D01*
X105205046Y-34215970D01*
X105211819Y-34213359D01*
X105218091Y-34210389D01*
X105223880Y-34207096D01*
X105229207Y-34203517D01*
X105238549Y-34195641D01*
X105246270Y-34187049D01*
X105252526Y-34178026D01*
X105257470Y-34168859D01*
X105261257Y-34159836D01*
X105264041Y-34151244D01*
X105265976Y-34143368D01*
X105267217Y-34136496D01*
X105268114Y-34128698D01*
X105268320Y-34124492D01*
X105268320Y-33297902D01*
X105268017Y-33289008D01*
X105267137Y-33280669D01*
X105265716Y-33272868D01*
X105263793Y-33265587D01*
X105261408Y-33258808D01*
X105258598Y-33252513D01*
X105255403Y-33246684D01*
X105251861Y-33241303D01*
X105248009Y-33236352D01*
X105239536Y-33227670D01*
X105230290Y-33220493D01*
X105220582Y-33214679D01*
X105210720Y-33210084D01*
X105201012Y-33206565D01*
X105191766Y-33203977D01*
X105183293Y-33202179D01*
X105175899Y-33201025D01*
X105167509Y-33200192D01*
X105162983Y-33200000D01*
X105089866Y-33200000D01*
X105089866Y-32939754D01*
X105222467Y-32939754D01*
X105256356Y-32940721D01*
G36*
X105256356Y-32940721D02*
G01*
X105288127Y-32943540D01*
X105317850Y-32948087D01*
X105345592Y-32954238D01*
X105371421Y-32961871D01*
X105395407Y-32970862D01*
X105417616Y-32981087D01*
X105438118Y-32992423D01*
X105456981Y-33004747D01*
X105474273Y-33017935D01*
X105490062Y-33031863D01*
X105504416Y-33046409D01*
X105517405Y-33061448D01*
X105529096Y-33076858D01*
X105539558Y-33092514D01*
X105548858Y-33108294D01*
X105557066Y-33124075D01*
X105564249Y-33139731D01*
X105570476Y-33155141D01*
X105575815Y-33170180D01*
X105580334Y-33184726D01*
X105584102Y-33198654D01*
X105587187Y-33211842D01*
X105589657Y-33224166D01*
X105591581Y-33235502D01*
X105593027Y-33245727D01*
X105594063Y-33254718D01*
X105594757Y-33262351D01*
X105595394Y-33273049D01*
X105595486Y-33276834D01*
X105595486Y-34146799D01*
X105594415Y-34177422D01*
X105591296Y-34206133D01*
X105586265Y-34232992D01*
X105579457Y-34258061D01*
X105571011Y-34281402D01*
X105561061Y-34303077D01*
X105549746Y-34323146D01*
X105537201Y-34341673D01*
X105523564Y-34358718D01*
X105508970Y-34374344D01*
X105493556Y-34388612D01*
X105477460Y-34401584D01*
X105460817Y-34413321D01*
X105443764Y-34423886D01*
X105426438Y-34433339D01*
X105408976Y-34441744D01*
X105391514Y-34449160D01*
X105374188Y-34455651D01*
X105357135Y-34461278D01*
X105340492Y-34466103D01*
X105324396Y-34470187D01*
X105308982Y-34473592D01*
X105294388Y-34476379D01*
X105280751Y-34478612D01*
X105268206Y-34480350D01*
X105256891Y-34481657D01*
X105246941Y-34482593D01*
X105238495Y-34483220D01*
X105231687Y-34483601D01*
X105223537Y-34483868D01*
X105222467Y-34483879D01*
X105089866Y-34483879D01*
X105089866Y-34222394D01*
X105162983Y-34222394D01*
X105172552Y-34222113D01*
X105181524Y-34221294D01*
X105189918Y-34219973D01*
X105197752Y-34218187D01*
X105205046Y-34215970D01*
X105211819Y-34213359D01*
X105218091Y-34210389D01*
X105223880Y-34207096D01*
X105229207Y-34203517D01*
X105238549Y-34195641D01*
X105246270Y-34187049D01*
X105252526Y-34178026D01*
X105257470Y-34168859D01*
X105261257Y-34159836D01*
X105264041Y-34151244D01*
X105265976Y-34143368D01*
X105267217Y-34136496D01*
X105268114Y-34128698D01*
X105268320Y-34124492D01*
X105268320Y-33297902D01*
X105268017Y-33289008D01*
X105267137Y-33280669D01*
X105265716Y-33272868D01*
X105263793Y-33265587D01*
X105261408Y-33258808D01*
X105258598Y-33252513D01*
X105255403Y-33246684D01*
X105251861Y-33241303D01*
X105248009Y-33236352D01*
X105239536Y-33227670D01*
X105230290Y-33220493D01*
X105220582Y-33214679D01*
X105210720Y-33210084D01*
X105201012Y-33206565D01*
X105191766Y-33203977D01*
X105183293Y-33202179D01*
X105175899Y-33201025D01*
X105167509Y-33200192D01*
X105162983Y-33200000D01*
X105089866Y-33200000D01*
X105089866Y-32939754D01*
X105222467Y-32939754D01*
X105256356Y-32940721D01*
G37*
D12*
%TO.C,U4*%
X112148001Y-103477001D02*
X113752001Y-103477001D01*
X113752001Y-101023001D02*
X112148001Y-101023001D01*
D11*
%TO.C,C2*%
X121096483Y-64451689D02*
X121295294Y-64650500D01*
X121817732Y-63730440D02*
X122016543Y-63929251D01*
%TO.C,R3*%
X112037742Y-74577500D02*
X112512258Y-74577500D01*
X112037742Y-75622500D02*
X112512258Y-75622500D01*
%TO.C,C15*%
X103740580Y-65190000D02*
X103459420Y-65190000D01*
X103740580Y-66210000D02*
X103459420Y-66210000D01*
%TO.C,U7*%
X105700000Y-74540000D02*
X104300000Y-74540000D01*
X105710000Y-76860000D02*
X104300000Y-76860000D01*
X106320000Y-77140000D02*
X105840000Y-77140000D01*
X106080000Y-76810000D01*
X106320000Y-77140000D01*
G36*
X106320000Y-77140000D02*
G01*
X105840000Y-77140000D01*
X106080000Y-76810000D01*
X106320000Y-77140000D01*
G37*
%TO.C,C10*%
X102959420Y-57190000D02*
X103240580Y-57190000D01*
X102959420Y-58210000D02*
X103240580Y-58210000D01*
%TO.C,D4*%
X115712500Y-72690000D02*
X115062500Y-72690000D01*
X115712500Y-72690000D02*
X116362500Y-72690000D01*
X115712500Y-75810000D02*
X115062500Y-75810000D01*
X115712500Y-75810000D02*
X116362500Y-75810000D01*
X114550000Y-72740000D02*
X114310000Y-72410000D01*
X114790000Y-72410000D01*
X114550000Y-72740000D01*
G36*
X114550000Y-72740000D02*
G01*
X114310000Y-72410000D01*
X114790000Y-72410000D01*
X114550000Y-72740000D01*
G37*
%TO.C,C5*%
X115921282Y-70094401D02*
X115722471Y-70293212D01*
X116642531Y-70815650D02*
X116443720Y-71014461D01*
%TO.C,C3*%
X115459420Y-51190000D02*
X115740580Y-51190000D01*
X115459420Y-52210000D02*
X115740580Y-52210000D01*
%TO.C,C1*%
X119965112Y-66050571D02*
X120163923Y-65851760D01*
X120686361Y-66771820D02*
X120885172Y-66573009D01*
%TO.C,J1*%
X99550000Y-79890000D02*
X99550000Y-80510000D01*
X99550000Y-80510000D02*
X103750000Y-80510000D01*
X99550000Y-81890000D02*
X99550000Y-82510000D01*
X99550000Y-82510000D02*
X103750000Y-82510000D01*
X99550000Y-83890000D02*
X99550000Y-84510000D01*
X99550000Y-84510000D02*
X103750000Y-84510000D01*
X99550000Y-85890000D02*
X99550000Y-86510000D01*
X99550000Y-86510000D02*
X103750000Y-86510000D01*
X99550000Y-87890000D02*
X99550000Y-88510000D01*
X99550000Y-88510000D02*
X103750000Y-88510000D01*
X99550000Y-89890000D02*
X99550000Y-90510000D01*
X99550000Y-90510000D02*
X103750000Y-90510000D01*
X99550000Y-91890000D02*
X99550000Y-92510000D01*
X99550000Y-92510000D02*
X103750000Y-92510000D01*
X99550000Y-93890000D02*
X99550000Y-94510000D01*
X99550000Y-94510000D02*
X103750000Y-94510000D01*
X99550000Y-95890000D02*
X99550000Y-96510000D01*
X99550000Y-96510000D02*
X103750000Y-96510000D01*
X99550000Y-97890000D02*
X99550000Y-98510000D01*
X99550000Y-98510000D02*
X103750000Y-98510000D01*
X99550000Y-99890000D02*
X99550000Y-100510000D01*
X99550000Y-100510000D02*
X103750000Y-100510000D01*
X99550000Y-101890000D02*
X99550000Y-102510000D01*
X99550000Y-102510000D02*
X103750000Y-102510000D01*
X99550000Y-103890000D02*
X99550000Y-104510000D01*
X99550000Y-104510000D02*
X103750000Y-104510000D01*
X99550000Y-105890000D02*
X99550000Y-106510000D01*
X99550000Y-106510000D02*
X103750000Y-106510000D01*
X99550000Y-107890000D02*
X99550000Y-108510000D01*
X99550000Y-108510000D02*
X103750000Y-108510000D01*
X99550000Y-109890000D02*
X99550000Y-110510000D01*
X99550000Y-110510000D02*
X103750000Y-110510000D01*
X99550000Y-111890000D02*
X99550000Y-112510000D01*
X99550000Y-112510000D02*
X103750000Y-112510000D01*
X99550000Y-113890000D02*
X99550000Y-114510000D01*
X99550000Y-114510000D02*
X103750000Y-114510000D01*
X99550000Y-115890000D02*
X99550000Y-116510000D01*
X99550000Y-116510000D02*
X103750000Y-116510000D01*
X99550000Y-117890000D02*
X99550000Y-118510000D01*
X99550000Y-118510000D02*
X103750000Y-118510000D01*
X99550000Y-119890000D02*
X99550000Y-120510000D01*
X99550000Y-120510000D02*
X103750000Y-120510000D01*
X99550000Y-121890000D02*
X99550000Y-122510000D01*
X99550000Y-122510000D02*
X103750000Y-122510000D01*
X99550000Y-123890000D02*
X99550000Y-124510000D01*
X99550000Y-124510000D02*
X103750000Y-124510000D01*
X99550000Y-125890000D02*
X99550000Y-126510000D01*
X99550000Y-126510000D02*
X103750000Y-126510000D01*
X99550000Y-127890000D02*
X99550000Y-128510000D01*
X99550000Y-128510000D02*
X103750000Y-128510000D01*
X103750000Y-79140000D02*
X105370000Y-79140000D01*
X103750000Y-79890000D02*
X99550000Y-79890000D01*
X103750000Y-79950000D02*
X99550000Y-79950000D01*
X103750000Y-80070000D02*
X99550000Y-80070000D01*
X103750000Y-80190000D02*
X99550000Y-80190000D01*
X103750000Y-80310000D02*
X99550000Y-80310000D01*
X103750000Y-80430000D02*
X99550000Y-80430000D01*
X103750000Y-81890000D02*
X99550000Y-81890000D01*
X103750000Y-83890000D02*
X99550000Y-83890000D01*
X103750000Y-85890000D02*
X99550000Y-85890000D01*
X103750000Y-87890000D02*
X99550000Y-87890000D01*
X103750000Y-89890000D02*
X99550000Y-89890000D01*
X103750000Y-91890000D02*
X99550000Y-91890000D01*
X103750000Y-93890000D02*
X99550000Y-93890000D01*
X103750000Y-95890000D02*
X99550000Y-95890000D01*
X103750000Y-97890000D02*
X99550000Y-97890000D01*
X103750000Y-99890000D02*
X99550000Y-99890000D01*
X103750000Y-101890000D02*
X99550000Y-101890000D01*
X103750000Y-103890000D02*
X99550000Y-103890000D01*
X103750000Y-105890000D02*
X99550000Y-105890000D01*
X103750000Y-107890000D02*
X99550000Y-107890000D01*
X103750000Y-109890000D02*
X99550000Y-109890000D01*
X103750000Y-111890000D02*
X99550000Y-111890000D01*
X103750000Y-113890000D02*
X99550000Y-113890000D01*
X103750000Y-115890000D02*
X99550000Y-115890000D01*
X103750000Y-117890000D02*
X99550000Y-117890000D01*
X103750000Y-119890000D02*
X99550000Y-119890000D01*
X103750000Y-121890000D02*
X99550000Y-121890000D01*
X103750000Y-123890000D02*
X99550000Y-123890000D01*
X103750000Y-125890000D02*
X99550000Y-125890000D01*
X103750000Y-127890000D02*
X99550000Y-127890000D01*
X103750000Y-129260000D02*
X103750000Y-79140000D01*
X105370000Y-79140000D02*
X105370000Y-129260000D01*
X105370000Y-81200000D02*
X103750000Y-81200000D01*
X105370000Y-83200000D02*
X103750000Y-83200000D01*
X105370000Y-85200000D02*
X103750000Y-85200000D01*
X105370000Y-87200000D02*
X103750000Y-87200000D01*
X105370000Y-89200000D02*
X103750000Y-89200000D01*
X105370000Y-91200000D02*
X103750000Y-91200000D01*
X105370000Y-93200000D02*
X103750000Y-93200000D01*
X105370000Y-95200000D02*
X103750000Y-95200000D01*
X105370000Y-97200000D02*
X103750000Y-97200000D01*
X105370000Y-99200000D02*
X103750000Y-99200000D01*
X105370000Y-101200000D02*
X103750000Y-101200000D01*
X105370000Y-103200000D02*
X103750000Y-103200000D01*
X105370000Y-105200000D02*
X103750000Y-105200000D01*
X105370000Y-107200000D02*
X103750000Y-107200000D01*
X105370000Y-109200000D02*
X103750000Y-109200000D01*
X105370000Y-111200000D02*
X103750000Y-111200000D01*
X105370000Y-113200000D02*
X103750000Y-113200000D01*
X105370000Y-115200000D02*
X103750000Y-115200000D01*
X105370000Y-117200000D02*
X103750000Y-117200000D01*
X105370000Y-119200000D02*
X103750000Y-119200000D01*
X105370000Y-121200000D02*
X103750000Y-121200000D01*
X105370000Y-123200000D02*
X103750000Y-123200000D01*
X105370000Y-125200000D02*
X103750000Y-125200000D01*
X105370000Y-127200000D02*
X103750000Y-127200000D01*
X105370000Y-129260000D02*
X103750000Y-129260000D01*
X105927886Y-79890000D02*
X105370000Y-79890000D01*
X105927886Y-80510000D02*
X105370000Y-80510000D01*
X105927886Y-81890000D02*
X105370000Y-81890000D01*
X105927886Y-82510000D02*
X105370000Y-82510000D01*
X105927886Y-83890000D02*
X105370000Y-83890000D01*
X105927886Y-84510000D02*
X105370000Y-84510000D01*
X105927886Y-85890000D02*
X105370000Y-85890000D01*
X105927886Y-86510000D02*
X105370000Y-86510000D01*
X105927886Y-87890000D02*
X105370000Y-87890000D01*
X105927886Y-88510000D02*
X105370000Y-88510000D01*
X105927886Y-89890000D02*
X105370000Y-89890000D01*
X105927886Y-90510000D02*
X105370000Y-90510000D01*
X105927886Y-91890000D02*
X105370000Y-91890000D01*
X105927886Y-92510000D02*
X105370000Y-92510000D01*
X105927886Y-93890000D02*
X105370000Y-93890000D01*
X105927886Y-94510000D02*
X105370000Y-94510000D01*
X105927886Y-95890000D02*
X105370000Y-95890000D01*
X105927886Y-96510000D02*
X105370000Y-96510000D01*
X105927886Y-97890000D02*
X105370000Y-97890000D01*
X105927886Y-98510000D02*
X105370000Y-98510000D01*
X105927886Y-99890000D02*
X105370000Y-99890000D01*
X105927886Y-100510000D02*
X105370000Y-100510000D01*
X105927886Y-101890000D02*
X105370000Y-101890000D01*
X105927886Y-102510000D02*
X105370000Y-102510000D01*
X105927886Y-103890000D02*
X105370000Y-103890000D01*
X105927886Y-104510000D02*
X105370000Y-104510000D01*
X105927886Y-105890000D02*
X105370000Y-105890000D01*
X105927886Y-106510000D02*
X105370000Y-106510000D01*
X105927886Y-107890000D02*
X105370000Y-107890000D01*
X105927886Y-108510000D02*
X105370000Y-108510000D01*
X105927886Y-109890000D02*
X105370000Y-109890000D01*
X105927886Y-110510000D02*
X105370000Y-110510000D01*
X105927886Y-111890000D02*
X105370000Y-111890000D01*
X105927886Y-112510000D02*
X105370000Y-112510000D01*
X105927886Y-113890000D02*
X105370000Y-113890000D01*
X105927886Y-114510000D02*
X105370000Y-114510000D01*
X105927886Y-115890000D02*
X105370000Y-115890000D01*
X105927886Y-116510000D02*
X105370000Y-116510000D01*
X105927886Y-117890000D02*
X105370000Y-117890000D01*
X105927886Y-118510000D02*
X105370000Y-118510000D01*
X105927886Y-119890000D02*
X105370000Y-119890000D01*
X105927886Y-120510000D02*
X105370000Y-120510000D01*
X105927886Y-121890000D02*
X105370000Y-121890000D01*
X105927886Y-122510000D02*
X105370000Y-122510000D01*
X105927886Y-123890000D02*
X105370000Y-123890000D01*
X105927886Y-124510000D02*
X105370000Y-124510000D01*
X105927886Y-125890000D02*
X105370000Y-125890000D01*
X105927886Y-126510000D02*
X105370000Y-126510000D01*
X105927886Y-127890000D02*
X105370000Y-127890000D01*
X105927886Y-128510000D02*
X105370000Y-128510000D01*
X107875000Y-79890000D02*
X107692114Y-79890000D01*
X107875000Y-80510000D02*
X107692114Y-80510000D01*
X107927886Y-81890000D02*
X107692114Y-81890000D01*
X107927886Y-82510000D02*
X107692114Y-82510000D01*
X107927886Y-83890000D02*
X107692114Y-83890000D01*
X107927886Y-84510000D02*
X107692114Y-84510000D01*
X107927886Y-85890000D02*
X107692114Y-85890000D01*
X107927886Y-86510000D02*
X107692114Y-86510000D01*
X107927886Y-87890000D02*
X107692114Y-87890000D01*
X107927886Y-88510000D02*
X107692114Y-88510000D01*
X107927886Y-89890000D02*
X107692114Y-89890000D01*
X107927886Y-90510000D02*
X107692114Y-90510000D01*
X107927886Y-91890000D02*
X107692114Y-91890000D01*
X107927886Y-92510000D02*
X107692114Y-92510000D01*
X107927886Y-93890000D02*
X107692114Y-93890000D01*
X107927886Y-94510000D02*
X107692114Y-94510000D01*
X107927886Y-95890000D02*
X107692114Y-95890000D01*
X107927886Y-96510000D02*
X107692114Y-96510000D01*
X107927886Y-97890000D02*
X107692114Y-97890000D01*
X107927886Y-98510000D02*
X107692114Y-98510000D01*
X107927886Y-99890000D02*
X107692114Y-99890000D01*
X107927886Y-100510000D02*
X107692114Y-100510000D01*
X107927886Y-101890000D02*
X107692114Y-101890000D01*
X107927886Y-102510000D02*
X107692114Y-102510000D01*
X107927886Y-103890000D02*
X107692114Y-103890000D01*
X107927886Y-104510000D02*
X107692114Y-104510000D01*
X107927886Y-105890000D02*
X107692114Y-105890000D01*
X107927886Y-106510000D02*
X107692114Y-106510000D01*
X107927886Y-107890000D02*
X107692114Y-107890000D01*
X107927886Y-108510000D02*
X107692114Y-108510000D01*
X107927886Y-109890000D02*
X107692114Y-109890000D01*
X107927886Y-110510000D02*
X107692114Y-110510000D01*
X107927886Y-111890000D02*
X107692114Y-111890000D01*
X107927886Y-112510000D02*
X107692114Y-112510000D01*
X107927886Y-113890000D02*
X107692114Y-113890000D01*
X107927886Y-114510000D02*
X107692114Y-114510000D01*
X107927886Y-115890000D02*
X107692114Y-115890000D01*
X107927886Y-116510000D02*
X107692114Y-116510000D01*
X107927886Y-117890000D02*
X107692114Y-117890000D01*
X107927886Y-118510000D02*
X107692114Y-118510000D01*
X107927886Y-119890000D02*
X107692114Y-119890000D01*
X107927886Y-120510000D02*
X107692114Y-120510000D01*
X107927886Y-121890000D02*
X107692114Y-121890000D01*
X107927886Y-122510000D02*
X107692114Y-122510000D01*
X107927886Y-123890000D02*
X107692114Y-123890000D01*
X107927886Y-124510000D02*
X107692114Y-124510000D01*
X107927886Y-125890000D02*
X107692114Y-125890000D01*
X107927886Y-126510000D02*
X107692114Y-126510000D01*
X107927886Y-127890000D02*
X107692114Y-127890000D01*
X107927886Y-128510000D02*
X107692114Y-128510000D01*
X109810000Y-79200000D02*
X108810000Y-79200000D01*
X109810000Y-80200000D02*
X109810000Y-79200000D01*
%TO.C,D2*%
X172865000Y-36715000D02*
X172865000Y-39000000D01*
X174335000Y-36715000D02*
X172865000Y-36715000D01*
X174335000Y-39000000D02*
X174335000Y-36715000D01*
%TO.C,C7*%
X108355240Y-70519486D02*
X108156429Y-70320675D01*
X109076489Y-69798237D02*
X108877678Y-69599426D01*
%TO.C,R9*%
X100977500Y-49137258D02*
X100977500Y-48662742D01*
X102022500Y-49137258D02*
X102022500Y-48662742D01*
%TO.C,R5*%
X112062742Y-77677500D02*
X112537258Y-77677500D01*
X112062742Y-78722500D02*
X112537258Y-78722500D01*
%TO.C,R1*%
X110098303Y-50537230D02*
X109762770Y-50201697D01*
X110837230Y-49798303D02*
X110501697Y-49462770D01*
%TO.C,R7*%
X103262742Y-61777500D02*
X103737258Y-61777500D01*
X103262742Y-62822500D02*
X103737258Y-62822500D01*
%TO.C,C18*%
X105040580Y-77390000D02*
X104759420Y-77390000D01*
X105040580Y-78410000D02*
X104759420Y-78410000D01*
%TO.C,C12*%
X113411252Y-124090000D02*
X111988748Y-124090000D01*
X113411252Y-125910000D02*
X111988748Y-125910000D01*
D12*
%TO.C,U6*%
X111198000Y-120427000D02*
X112802000Y-120427000D01*
X112802000Y-117973000D02*
X111198000Y-117973000D01*
D11*
%TO.C,R2*%
X112198303Y-52637230D02*
X111862770Y-52301697D01*
X112937230Y-51898303D02*
X112601697Y-51562770D01*
%TO.C,C14*%
X104540580Y-71990000D02*
X104259420Y-71990000D01*
X104540580Y-73010000D02*
X104259420Y-73010000D01*
%TO.C,C16*%
X104540580Y-70490000D02*
X104259420Y-70490000D01*
X104540580Y-71510000D02*
X104259420Y-71510000D01*
%TO.C,U8*%
X100840000Y-76300000D02*
X100840000Y-77700000D01*
X103160000Y-76290000D02*
X103160000Y-77700000D01*
X103440000Y-76160000D02*
X103110000Y-75920000D01*
X103440000Y-75680000D01*
X103440000Y-76160000D01*
G36*
X103440000Y-76160000D02*
G01*
X103110000Y-75920000D01*
X103440000Y-75680000D01*
X103440000Y-76160000D01*
G37*
%TO.C,R8*%
X107637258Y-71977500D02*
X107162742Y-71977500D01*
X107637258Y-73022500D02*
X107162742Y-73022500D01*
%TO.C,C4*%
X115368918Y-55047169D02*
X115567729Y-55245980D01*
X116090167Y-54325920D02*
X116288978Y-54524731D01*
D12*
%TO.C,U2*%
X112148001Y-85427000D02*
X113752001Y-85427000D01*
X113752001Y-82973000D02*
X112148001Y-82973000D01*
%TO.C,U3*%
X112148001Y-94427000D02*
X113752001Y-94427000D01*
X113752001Y-91973000D02*
X112148001Y-91973000D01*
D11*
%TO.C,C8*%
X112059420Y-71390000D02*
X112340580Y-71390000D01*
X112059420Y-72410000D02*
X112340580Y-72410000D01*
D15*
%TO.C,REF\u002A\u002A*%
X107052600Y-40958752D02*
X107069948Y-40966334D01*
X107111356Y-40999128D01*
X107146765Y-41046547D01*
X107168664Y-41097151D01*
X107172229Y-41122098D01*
X107160279Y-41156927D01*
X107134067Y-41175357D01*
X107105964Y-41186516D01*
X107093095Y-41188572D01*
X107086829Y-41173649D01*
X107074456Y-41141175D01*
X107069028Y-41126502D01*
X107038590Y-41075744D01*
X106994520Y-41050427D01*
X106938010Y-41051206D01*
X106933825Y-41052203D01*
X106903655Y-41066507D01*
X106881476Y-41094393D01*
X106866327Y-41139287D01*
X106857250Y-41204615D01*
X106853286Y-41293804D01*
X106852914Y-41341261D01*
X106852730Y-41416071D01*
X106851522Y-41467069D01*
X106848309Y-41499471D01*
X106842109Y-41518495D01*
X106831940Y-41529356D01*
X106816819Y-41537272D01*
X106815946Y-41537670D01*
X106786828Y-41549981D01*
X106772403Y-41554514D01*
X106770186Y-41540809D01*
X106768289Y-41502925D01*
X106766847Y-41445715D01*
X106765998Y-41374027D01*
X106765829Y-41321565D01*
X106766692Y-41220047D01*
X106770070Y-41143032D01*
X106777142Y-41086023D01*
X106789088Y-41044526D01*
X106807090Y-41014043D01*
X106832327Y-40990080D01*
X106857247Y-40973355D01*
X106917171Y-40951097D01*
X106986911Y-40946076D01*
X107052600Y-40958752D01*
G36*
X107052600Y-40958752D02*
G01*
X107069948Y-40966334D01*
X107111356Y-40999128D01*
X107146765Y-41046547D01*
X107168664Y-41097151D01*
X107172229Y-41122098D01*
X107160279Y-41156927D01*
X107134067Y-41175357D01*
X107105964Y-41186516D01*
X107093095Y-41188572D01*
X107086829Y-41173649D01*
X107074456Y-41141175D01*
X107069028Y-41126502D01*
X107038590Y-41075744D01*
X106994520Y-41050427D01*
X106938010Y-41051206D01*
X106933825Y-41052203D01*
X106903655Y-41066507D01*
X106881476Y-41094393D01*
X106866327Y-41139287D01*
X106857250Y-41204615D01*
X106853286Y-41293804D01*
X106852914Y-41341261D01*
X106852730Y-41416071D01*
X106851522Y-41467069D01*
X106848309Y-41499471D01*
X106842109Y-41518495D01*
X106831940Y-41529356D01*
X106816819Y-41537272D01*
X106815946Y-41537670D01*
X106786828Y-41549981D01*
X106772403Y-41554514D01*
X106770186Y-41540809D01*
X106768289Y-41502925D01*
X106766847Y-41445715D01*
X106765998Y-41374027D01*
X106765829Y-41321565D01*
X106766692Y-41220047D01*
X106770070Y-41143032D01*
X106777142Y-41086023D01*
X106789088Y-41044526D01*
X106807090Y-41014043D01*
X106832327Y-40990080D01*
X106857247Y-40973355D01*
X106917171Y-40951097D01*
X106986911Y-40946076D01*
X107052600Y-40958752D01*
G37*
X103116093Y-40927780D02*
X103162672Y-40954723D01*
X103195057Y-40981466D01*
X103218742Y-41009484D01*
X103235059Y-41043748D01*
X103245339Y-41089227D01*
X103250914Y-41150892D01*
X103253116Y-41233711D01*
X103253371Y-41293246D01*
X103253371Y-41512391D01*
X103191686Y-41540044D01*
X103130000Y-41567697D01*
X103122743Y-41327670D01*
X103119744Y-41238028D01*
X103116598Y-41172962D01*
X103112701Y-41128026D01*
X103107447Y-41098770D01*
X103100231Y-41080748D01*
X103090450Y-41069511D01*
X103087312Y-41067079D01*
X103039761Y-41048083D01*
X102991697Y-41055600D01*
X102963086Y-41075543D01*
X102951447Y-41089675D01*
X102943391Y-41108220D01*
X102938271Y-41136334D01*
X102935441Y-41179173D01*
X102934256Y-41241895D01*
X102934057Y-41307261D01*
X102934018Y-41389268D01*
X102932614Y-41447316D01*
X102927914Y-41486465D01*
X102917987Y-41511780D01*
X102900903Y-41528323D01*
X102874732Y-41541156D01*
X102839775Y-41554491D01*
X102801596Y-41569007D01*
X102806141Y-41311389D01*
X102807971Y-41218519D01*
X102810112Y-41149889D01*
X102813181Y-41100711D01*
X102817794Y-41066198D01*
X102824568Y-41041562D01*
X102834119Y-41022016D01*
X102845634Y-41004770D01*
X102901190Y-40949680D01*
X102968980Y-40917822D01*
X103042713Y-40910191D01*
X103116093Y-40927780D01*
G36*
X103116093Y-40927780D02*
G01*
X103162672Y-40954723D01*
X103195057Y-40981466D01*
X103218742Y-41009484D01*
X103235059Y-41043748D01*
X103245339Y-41089227D01*
X103250914Y-41150892D01*
X103253116Y-41233711D01*
X103253371Y-41293246D01*
X103253371Y-41512391D01*
X103191686Y-41540044D01*
X103130000Y-41567697D01*
X103122743Y-41327670D01*
X103119744Y-41238028D01*
X103116598Y-41172962D01*
X103112701Y-41128026D01*
X103107447Y-41098770D01*
X103100231Y-41080748D01*
X103090450Y-41069511D01*
X103087312Y-41067079D01*
X103039761Y-41048083D01*
X102991697Y-41055600D01*
X102963086Y-41075543D01*
X102951447Y-41089675D01*
X102943391Y-41108220D01*
X102938271Y-41136334D01*
X102935441Y-41179173D01*
X102934256Y-41241895D01*
X102934057Y-41307261D01*
X102934018Y-41389268D01*
X102932614Y-41447316D01*
X102927914Y-41486465D01*
X102917987Y-41511780D01*
X102900903Y-41528323D01*
X102874732Y-41541156D01*
X102839775Y-41554491D01*
X102801596Y-41569007D01*
X102806141Y-41311389D01*
X102807971Y-41218519D01*
X102810112Y-41149889D01*
X102813181Y-41100711D01*
X102817794Y-41066198D01*
X102824568Y-41041562D01*
X102834119Y-41022016D01*
X102845634Y-41004770D01*
X102901190Y-40949680D01*
X102968980Y-40917822D01*
X103042713Y-40910191D01*
X103116093Y-40927780D01*
G37*
X104929926Y-40949755D02*
X104995858Y-40974084D01*
X105049273Y-41017117D01*
X105070164Y-41047409D01*
X105092939Y-41102994D01*
X105092466Y-41143186D01*
X105068562Y-41170217D01*
X105059717Y-41174813D01*
X105021530Y-41189144D01*
X105002028Y-41185472D01*
X104995422Y-41161407D01*
X104995086Y-41148114D01*
X104982992Y-41099210D01*
X104951471Y-41064999D01*
X104907659Y-41048476D01*
X104858695Y-41052634D01*
X104818894Y-41074227D01*
X104805450Y-41086544D01*
X104795921Y-41101487D01*
X104789485Y-41124075D01*
X104785317Y-41159328D01*
X104782597Y-41212266D01*
X104780502Y-41287907D01*
X104779960Y-41311857D01*
X104777981Y-41393790D01*
X104775731Y-41451455D01*
X104772357Y-41489608D01*
X104767006Y-41513004D01*
X104758824Y-41526398D01*
X104746959Y-41534545D01*
X104739362Y-41538144D01*
X104707102Y-41550452D01*
X104688111Y-41554514D01*
X104681836Y-41540948D01*
X104678006Y-41499934D01*
X104676600Y-41430999D01*
X104677598Y-41333669D01*
X104677908Y-41318657D01*
X104680101Y-41229859D01*
X104682693Y-41165019D01*
X104686382Y-41119067D01*
X104691864Y-41086935D01*
X104699835Y-41063553D01*
X104710993Y-41043852D01*
X104716830Y-41035410D01*
X104750296Y-40998057D01*
X104787727Y-40969003D01*
X104792309Y-40966467D01*
X104859426Y-40946443D01*
X104929926Y-40949755D01*
G36*
X104929926Y-40949755D02*
G01*
X104995858Y-40974084D01*
X105049273Y-41017117D01*
X105070164Y-41047409D01*
X105092939Y-41102994D01*
X105092466Y-41143186D01*
X105068562Y-41170217D01*
X105059717Y-41174813D01*
X105021530Y-41189144D01*
X105002028Y-41185472D01*
X104995422Y-41161407D01*
X104995086Y-41148114D01*
X104982992Y-41099210D01*
X104951471Y-41064999D01*
X104907659Y-41048476D01*
X104858695Y-41052634D01*
X104818894Y-41074227D01*
X104805450Y-41086544D01*
X104795921Y-41101487D01*
X104789485Y-41124075D01*
X104785317Y-41159328D01*
X104782597Y-41212266D01*
X104780502Y-41287907D01*
X104779960Y-41311857D01*
X104777981Y-41393790D01*
X104775731Y-41451455D01*
X104772357Y-41489608D01*
X104767006Y-41513004D01*
X104758824Y-41526398D01*
X104746959Y-41534545D01*
X104739362Y-41538144D01*
X104707102Y-41550452D01*
X104688111Y-41554514D01*
X104681836Y-41540948D01*
X104678006Y-41499934D01*
X104676600Y-41430999D01*
X104677598Y-41333669D01*
X104677908Y-41318657D01*
X104680101Y-41229859D01*
X104682693Y-41165019D01*
X104686382Y-41119067D01*
X104691864Y-41086935D01*
X104699835Y-41063553D01*
X104710993Y-41043852D01*
X104716830Y-41035410D01*
X104750296Y-40998057D01*
X104787727Y-40969003D01*
X104792309Y-40966467D01*
X104859426Y-40946443D01*
X104929926Y-40949755D01*
G37*
X103775886Y-40851289D02*
X103780139Y-40910613D01*
X103785025Y-40945572D01*
X103791795Y-40960820D01*
X103801702Y-40961015D01*
X103804914Y-40959195D01*
X103847644Y-40946015D01*
X103903227Y-40946785D01*
X103959737Y-40960333D01*
X103995082Y-40977861D01*
X104031321Y-41005861D01*
X104057813Y-41037549D01*
X104075999Y-41077813D01*
X104087322Y-41131543D01*
X104093222Y-41203626D01*
X104095143Y-41298951D01*
X104095177Y-41317237D01*
X104095200Y-41522646D01*
X104049491Y-41538580D01*
X104017027Y-41549420D01*
X103999215Y-41554468D01*
X103998691Y-41554514D01*
X103996937Y-41540828D01*
X103995444Y-41503076D01*
X103994326Y-41446224D01*
X103993697Y-41375234D01*
X103993600Y-41332073D01*
X103993398Y-41246973D01*
X103992358Y-41185981D01*
X103989831Y-41144177D01*
X103985164Y-41116642D01*
X103977707Y-41098456D01*
X103966811Y-41084698D01*
X103960007Y-41078073D01*
X103913272Y-41051375D01*
X103862272Y-41049375D01*
X103816001Y-41071955D01*
X103807444Y-41080107D01*
X103794893Y-41095436D01*
X103786188Y-41113618D01*
X103780631Y-41139909D01*
X103777526Y-41179562D01*
X103776176Y-41237832D01*
X103775886Y-41318173D01*
X103775886Y-41522646D01*
X103730177Y-41538580D01*
X103697713Y-41549420D01*
X103679901Y-41554468D01*
X103679377Y-41554514D01*
X103678037Y-41540623D01*
X103676828Y-41501439D01*
X103675801Y-41440700D01*
X103675002Y-41362141D01*
X103674481Y-41269498D01*
X103674286Y-41166509D01*
X103674286Y-40769342D01*
X103721457Y-40749444D01*
X103768629Y-40729547D01*
X103775886Y-40851289D01*
G36*
X103775886Y-40851289D02*
G01*
X103780139Y-40910613D01*
X103785025Y-40945572D01*
X103791795Y-40960820D01*
X103801702Y-40961015D01*
X103804914Y-40959195D01*
X103847644Y-40946015D01*
X103903227Y-40946785D01*
X103959737Y-40960333D01*
X103995082Y-40977861D01*
X104031321Y-41005861D01*
X104057813Y-41037549D01*
X104075999Y-41077813D01*
X104087322Y-41131543D01*
X104093222Y-41203626D01*
X104095143Y-41298951D01*
X104095177Y-41317237D01*
X104095200Y-41522646D01*
X104049491Y-41538580D01*
X104017027Y-41549420D01*
X103999215Y-41554468D01*
X103998691Y-41554514D01*
X103996937Y-41540828D01*
X103995444Y-41503076D01*
X103994326Y-41446224D01*
X103993697Y-41375234D01*
X103993600Y-41332073D01*
X103993398Y-41246973D01*
X103992358Y-41185981D01*
X103989831Y-41144177D01*
X103985164Y-41116642D01*
X103977707Y-41098456D01*
X103966811Y-41084698D01*
X103960007Y-41078073D01*
X103913272Y-41051375D01*
X103862272Y-41049375D01*
X103816001Y-41071955D01*
X103807444Y-41080107D01*
X103794893Y-41095436D01*
X103786188Y-41113618D01*
X103780631Y-41139909D01*
X103777526Y-41179562D01*
X103776176Y-41237832D01*
X103775886Y-41318173D01*
X103775886Y-41522646D01*
X103730177Y-41538580D01*
X103697713Y-41549420D01*
X103679901Y-41554468D01*
X103679377Y-41554514D01*
X103678037Y-41540623D01*
X103676828Y-41501439D01*
X103675801Y-41440700D01*
X103675002Y-41362141D01*
X103674481Y-41269498D01*
X103674286Y-41166509D01*
X103674286Y-40769342D01*
X103721457Y-40749444D01*
X103768629Y-40729547D01*
X103775886Y-40851289D01*
G37*
X106179833Y-40958663D02*
X106182048Y-40996850D01*
X106183784Y-41054886D01*
X106184899Y-41128180D01*
X106185257Y-41205055D01*
X106185257Y-41465196D01*
X106139326Y-41511127D01*
X106107675Y-41539429D01*
X106079890Y-41550893D01*
X106041915Y-41550168D01*
X106026840Y-41548321D01*
X105979726Y-41542948D01*
X105940756Y-41539869D01*
X105931257Y-41539585D01*
X105899233Y-41541445D01*
X105853432Y-41546114D01*
X105835674Y-41548321D01*
X105792057Y-41551735D01*
X105762745Y-41544320D01*
X105733680Y-41521427D01*
X105723188Y-41511127D01*
X105677257Y-41465196D01*
X105677257Y-40978602D01*
X105714226Y-40961758D01*
X105746059Y-40949282D01*
X105764683Y-40944914D01*
X105769458Y-40958718D01*
X105773921Y-40997286D01*
X105777775Y-41056356D01*
X105780722Y-41131663D01*
X105782143Y-41195286D01*
X105786114Y-41445657D01*
X105820759Y-41450556D01*
X105852268Y-41447131D01*
X105867708Y-41436041D01*
X105872023Y-41415308D01*
X105875708Y-41371145D01*
X105878469Y-41309146D01*
X105880012Y-41234909D01*
X105880235Y-41196706D01*
X105880457Y-40976783D01*
X105926166Y-40960849D01*
X105958518Y-40950015D01*
X105976115Y-40944962D01*
X105976623Y-40944914D01*
X105978388Y-40958648D01*
X105980329Y-40996730D01*
X105982282Y-41054482D01*
X105984084Y-41127227D01*
X105985343Y-41195286D01*
X105989314Y-41445657D01*
X106076400Y-41445657D01*
X106080396Y-41217240D01*
X106084392Y-40988822D01*
X106126847Y-40966868D01*
X106158192Y-40951793D01*
X106176744Y-40944951D01*
X106177279Y-40944914D01*
X106179833Y-40958663D01*
G36*
X106179833Y-40958663D02*
G01*
X106182048Y-40996850D01*
X106183784Y-41054886D01*
X106184899Y-41128180D01*
X106185257Y-41205055D01*
X106185257Y-41465196D01*
X106139326Y-41511127D01*
X106107675Y-41539429D01*
X106079890Y-41550893D01*
X106041915Y-41550168D01*
X106026840Y-41548321D01*
X105979726Y-41542948D01*
X105940756Y-41539869D01*
X105931257Y-41539585D01*
X105899233Y-41541445D01*
X105853432Y-41546114D01*
X105835674Y-41548321D01*
X105792057Y-41551735D01*
X105762745Y-41544320D01*
X105733680Y-41521427D01*
X105723188Y-41511127D01*
X105677257Y-41465196D01*
X105677257Y-40978602D01*
X105714226Y-40961758D01*
X105746059Y-40949282D01*
X105764683Y-40944914D01*
X105769458Y-40958718D01*
X105773921Y-40997286D01*
X105777775Y-41056356D01*
X105780722Y-41131663D01*
X105782143Y-41195286D01*
X105786114Y-41445657D01*
X105820759Y-41450556D01*
X105852268Y-41447131D01*
X105867708Y-41436041D01*
X105872023Y-41415308D01*
X105875708Y-41371145D01*
X105878469Y-41309146D01*
X105880012Y-41234909D01*
X105880235Y-41196706D01*
X105880457Y-40976783D01*
X105926166Y-40960849D01*
X105958518Y-40950015D01*
X105976115Y-40944962D01*
X105976623Y-40944914D01*
X105978388Y-40958648D01*
X105980329Y-40996730D01*
X105982282Y-41054482D01*
X105984084Y-41127227D01*
X105985343Y-41195286D01*
X105989314Y-41445657D01*
X106076400Y-41445657D01*
X106080396Y-41217240D01*
X106084392Y-40988822D01*
X106126847Y-40966868D01*
X106158192Y-40951793D01*
X106176744Y-40944951D01*
X106177279Y-40944914D01*
X106179833Y-40958663D01*
G37*
X101441115Y-40921962D02*
X101509145Y-40957733D01*
X101559351Y-41015301D01*
X101577185Y-41052312D01*
X101591063Y-41107882D01*
X101598167Y-41178096D01*
X101598840Y-41254727D01*
X101593427Y-41329552D01*
X101582270Y-41394342D01*
X101565714Y-41440873D01*
X101560626Y-41448887D01*
X101500355Y-41508707D01*
X101428769Y-41544535D01*
X101351092Y-41555020D01*
X101272548Y-41538810D01*
X101250689Y-41529092D01*
X101208122Y-41499143D01*
X101170763Y-41459433D01*
X101167232Y-41454397D01*
X101152881Y-41430124D01*
X101143394Y-41404178D01*
X101137790Y-41370022D01*
X101135086Y-41321119D01*
X101134299Y-41250935D01*
X101134286Y-41235200D01*
X101134322Y-41230192D01*
X101279429Y-41230192D01*
X101280273Y-41296430D01*
X101283596Y-41340386D01*
X101290583Y-41368779D01*
X101302416Y-41388325D01*
X101308457Y-41394857D01*
X101343186Y-41419680D01*
X101376903Y-41418548D01*
X101410995Y-41397016D01*
X101431329Y-41374029D01*
X101443371Y-41340478D01*
X101450134Y-41287569D01*
X101450598Y-41281399D01*
X101451752Y-41185513D01*
X101439688Y-41114299D01*
X101414570Y-41068194D01*
X101376560Y-41047635D01*
X101362992Y-41046514D01*
X101327364Y-41052152D01*
X101302994Y-41071686D01*
X101288093Y-41109042D01*
X101280875Y-41168150D01*
X101279429Y-41230192D01*
X101134322Y-41230192D01*
X101134826Y-41160413D01*
X101137096Y-41108159D01*
X101142068Y-41071949D01*
X101150713Y-41045299D01*
X101164005Y-41021722D01*
X101166943Y-41017338D01*
X101216313Y-40958249D01*
X101270109Y-40923947D01*
X101335602Y-40910331D01*
X101357842Y-40909665D01*
X101441115Y-40921962D01*
G36*
X101441115Y-40921962D02*
G01*
X101509145Y-40957733D01*
X101559351Y-41015301D01*
X101577185Y-41052312D01*
X101591063Y-41107882D01*
X101598167Y-41178096D01*
X101598840Y-41254727D01*
X101593427Y-41329552D01*
X101582270Y-41394342D01*
X101565714Y-41440873D01*
X101560626Y-41448887D01*
X101500355Y-41508707D01*
X101428769Y-41544535D01*
X101351092Y-41555020D01*
X101272548Y-41538810D01*
X101250689Y-41529092D01*
X101208122Y-41499143D01*
X101170763Y-41459433D01*
X101167232Y-41454397D01*
X101152881Y-41430124D01*
X101143394Y-41404178D01*
X101137790Y-41370022D01*
X101135086Y-41321119D01*
X101134299Y-41250935D01*
X101134286Y-41235200D01*
X101134322Y-41230192D01*
X101279429Y-41230192D01*
X101280273Y-41296430D01*
X101283596Y-41340386D01*
X101290583Y-41368779D01*
X101302416Y-41388325D01*
X101308457Y-41394857D01*
X101343186Y-41419680D01*
X101376903Y-41418548D01*
X101410995Y-41397016D01*
X101431329Y-41374029D01*
X101443371Y-41340478D01*
X101450134Y-41287569D01*
X101450598Y-41281399D01*
X101451752Y-41185513D01*
X101439688Y-41114299D01*
X101414570Y-41068194D01*
X101376560Y-41047635D01*
X101362992Y-41046514D01*
X101327364Y-41052152D01*
X101302994Y-41071686D01*
X101288093Y-41109042D01*
X101280875Y-41168150D01*
X101279429Y-41230192D01*
X101134322Y-41230192D01*
X101134826Y-41160413D01*
X101137096Y-41108159D01*
X101142068Y-41071949D01*
X101150713Y-41045299D01*
X101164005Y-41021722D01*
X101166943Y-41017338D01*
X101216313Y-40958249D01*
X101270109Y-40923947D01*
X101335602Y-40910331D01*
X101357842Y-40909665D01*
X101441115Y-40921962D01*
G37*
X107553595Y-40966966D02*
X107611021Y-41004497D01*
X107638719Y-41038096D01*
X107660662Y-41099064D01*
X107662405Y-41147308D01*
X107658457Y-41211816D01*
X107509686Y-41276934D01*
X107437349Y-41310202D01*
X107390084Y-41336964D01*
X107365507Y-41360144D01*
X107361237Y-41382667D01*
X107374889Y-41407455D01*
X107389943Y-41423886D01*
X107433746Y-41450235D01*
X107481389Y-41452081D01*
X107525145Y-41431546D01*
X107557289Y-41390752D01*
X107563038Y-41376347D01*
X107590576Y-41331356D01*
X107622258Y-41312182D01*
X107665714Y-41295779D01*
X107665714Y-41357966D01*
X107661872Y-41400283D01*
X107646823Y-41435969D01*
X107615280Y-41476943D01*
X107610592Y-41482267D01*
X107575506Y-41518720D01*
X107545347Y-41538283D01*
X107507615Y-41547283D01*
X107476335Y-41550230D01*
X107420385Y-41550965D01*
X107380555Y-41541660D01*
X107355708Y-41527846D01*
X107316656Y-41497467D01*
X107289625Y-41464613D01*
X107272517Y-41423294D01*
X107263238Y-41367521D01*
X107259693Y-41291305D01*
X107259410Y-41252622D01*
X107260372Y-41206247D01*
X107348007Y-41206247D01*
X107349023Y-41231126D01*
X107351556Y-41235200D01*
X107368274Y-41229665D01*
X107404249Y-41215017D01*
X107452331Y-41194190D01*
X107462386Y-41189714D01*
X107523152Y-41158814D01*
X107556632Y-41131657D01*
X107563990Y-41106220D01*
X107546391Y-41080481D01*
X107531856Y-41069109D01*
X107479410Y-41046364D01*
X107430322Y-41050122D01*
X107389227Y-41077884D01*
X107360758Y-41127152D01*
X107351631Y-41166257D01*
X107348007Y-41206247D01*
X107260372Y-41206247D01*
X107261285Y-41162249D01*
X107268196Y-41095384D01*
X107281884Y-41046695D01*
X107304096Y-41010849D01*
X107336574Y-40982513D01*
X107350733Y-40973355D01*
X107415053Y-40949507D01*
X107485473Y-40948006D01*
X107553595Y-40966966D01*
G36*
X107553595Y-40966966D02*
G01*
X107611021Y-41004497D01*
X107638719Y-41038096D01*
X107660662Y-41099064D01*
X107662405Y-41147308D01*
X107658457Y-41211816D01*
X107509686Y-41276934D01*
X107437349Y-41310202D01*
X107390084Y-41336964D01*
X107365507Y-41360144D01*
X107361237Y-41382667D01*
X107374889Y-41407455D01*
X107389943Y-41423886D01*
X107433746Y-41450235D01*
X107481389Y-41452081D01*
X107525145Y-41431546D01*
X107557289Y-41390752D01*
X107563038Y-41376347D01*
X107590576Y-41331356D01*
X107622258Y-41312182D01*
X107665714Y-41295779D01*
X107665714Y-41357966D01*
X107661872Y-41400283D01*
X107646823Y-41435969D01*
X107615280Y-41476943D01*
X107610592Y-41482267D01*
X107575506Y-41518720D01*
X107545347Y-41538283D01*
X107507615Y-41547283D01*
X107476335Y-41550230D01*
X107420385Y-41550965D01*
X107380555Y-41541660D01*
X107355708Y-41527846D01*
X107316656Y-41497467D01*
X107289625Y-41464613D01*
X107272517Y-41423294D01*
X107263238Y-41367521D01*
X107259693Y-41291305D01*
X107259410Y-41252622D01*
X107260372Y-41206247D01*
X107348007Y-41206247D01*
X107349023Y-41231126D01*
X107351556Y-41235200D01*
X107368274Y-41229665D01*
X107404249Y-41215017D01*
X107452331Y-41194190D01*
X107462386Y-41189714D01*
X107523152Y-41158814D01*
X107556632Y-41131657D01*
X107563990Y-41106220D01*
X107546391Y-41080481D01*
X107531856Y-41069109D01*
X107479410Y-41046364D01*
X107430322Y-41050122D01*
X107389227Y-41077884D01*
X107360758Y-41127152D01*
X107351631Y-41166257D01*
X107348007Y-41206247D01*
X107260372Y-41206247D01*
X107261285Y-41162249D01*
X107268196Y-41095384D01*
X107281884Y-41046695D01*
X107304096Y-41010849D01*
X107336574Y-40982513D01*
X107350733Y-40973355D01*
X107415053Y-40949507D01*
X107485473Y-40948006D01*
X107553595Y-40966966D01*
G37*
X105590117Y-41065358D02*
X105589933Y-41173837D01*
X105589219Y-41257287D01*
X105587675Y-41319704D01*
X105585001Y-41365085D01*
X105580894Y-41397429D01*
X105575055Y-41420733D01*
X105567182Y-41438995D01*
X105561221Y-41449418D01*
X105511855Y-41505945D01*
X105449264Y-41541377D01*
X105380013Y-41554090D01*
X105310668Y-41542463D01*
X105269375Y-41521568D01*
X105226025Y-41485422D01*
X105196481Y-41441276D01*
X105178655Y-41383462D01*
X105170463Y-41306313D01*
X105169302Y-41249714D01*
X105169458Y-41245647D01*
X105270857Y-41245647D01*
X105271476Y-41310550D01*
X105274314Y-41353514D01*
X105280840Y-41381622D01*
X105292523Y-41401953D01*
X105306483Y-41417288D01*
X105353365Y-41446890D01*
X105403701Y-41449419D01*
X105451276Y-41424705D01*
X105454979Y-41421356D01*
X105470783Y-41403935D01*
X105480693Y-41383209D01*
X105486058Y-41352362D01*
X105488228Y-41304577D01*
X105488571Y-41251748D01*
X105487827Y-41185381D01*
X105484748Y-41141106D01*
X105478061Y-41112009D01*
X105466496Y-41091173D01*
X105457013Y-41080107D01*
X105412960Y-41052198D01*
X105362224Y-41048843D01*
X105313796Y-41070159D01*
X105304450Y-41078073D01*
X105288540Y-41095647D01*
X105278610Y-41116587D01*
X105273278Y-41147782D01*
X105271163Y-41196122D01*
X105270857Y-41245647D01*
X105169458Y-41245647D01*
X105172810Y-41158568D01*
X105184726Y-41090086D01*
X105207135Y-41038600D01*
X105242124Y-40998443D01*
X105269375Y-40977861D01*
X105318907Y-40955625D01*
X105376316Y-40945304D01*
X105429682Y-40948067D01*
X105459543Y-40959212D01*
X105471261Y-40962383D01*
X105479037Y-40950557D01*
X105484465Y-40918866D01*
X105488571Y-40870593D01*
X105493067Y-40816829D01*
X105499313Y-40784482D01*
X105510676Y-40765985D01*
X105530528Y-40753770D01*
X105543000Y-40748362D01*
X105590171Y-40728601D01*
X105590117Y-41065358D01*
G36*
X105590117Y-41065358D02*
G01*
X105589933Y-41173837D01*
X105589219Y-41257287D01*
X105587675Y-41319704D01*
X105585001Y-41365085D01*
X105580894Y-41397429D01*
X105575055Y-41420733D01*
X105567182Y-41438995D01*
X105561221Y-41449418D01*
X105511855Y-41505945D01*
X105449264Y-41541377D01*
X105380013Y-41554090D01*
X105310668Y-41542463D01*
X105269375Y-41521568D01*
X105226025Y-41485422D01*
X105196481Y-41441276D01*
X105178655Y-41383462D01*
X105170463Y-41306313D01*
X105169302Y-41249714D01*
X105169458Y-41245647D01*
X105270857Y-41245647D01*
X105271476Y-41310550D01*
X105274314Y-41353514D01*
X105280840Y-41381622D01*
X105292523Y-41401953D01*
X105306483Y-41417288D01*
X105353365Y-41446890D01*
X105403701Y-41449419D01*
X105451276Y-41424705D01*
X105454979Y-41421356D01*
X105470783Y-41403935D01*
X105480693Y-41383209D01*
X105486058Y-41352362D01*
X105488228Y-41304577D01*
X105488571Y-41251748D01*
X105487827Y-41185381D01*
X105484748Y-41141106D01*
X105478061Y-41112009D01*
X105466496Y-41091173D01*
X105457013Y-41080107D01*
X105412960Y-41052198D01*
X105362224Y-41048843D01*
X105313796Y-41070159D01*
X105304450Y-41078073D01*
X105288540Y-41095647D01*
X105278610Y-41116587D01*
X105273278Y-41147782D01*
X105271163Y-41196122D01*
X105270857Y-41245647D01*
X105169458Y-41245647D01*
X105172810Y-41158568D01*
X105184726Y-41090086D01*
X105207135Y-41038600D01*
X105242124Y-40998443D01*
X105269375Y-40977861D01*
X105318907Y-40955625D01*
X105376316Y-40945304D01*
X105429682Y-40948067D01*
X105459543Y-40959212D01*
X105471261Y-40962383D01*
X105479037Y-40950557D01*
X105484465Y-40918866D01*
X105488571Y-40870593D01*
X105493067Y-40816829D01*
X105499313Y-40784482D01*
X105510676Y-40765985D01*
X105530528Y-40753770D01*
X105543000Y-40748362D01*
X105590171Y-40728601D01*
X105590117Y-41065358D01*
G37*
X102568303Y-40931239D02*
X102625527Y-40969735D01*
X102669749Y-41025335D01*
X102696167Y-41096086D01*
X102701510Y-41148162D01*
X102700903Y-41169893D01*
X102695822Y-41186531D01*
X102681855Y-41201437D01*
X102654589Y-41217973D01*
X102609612Y-41239498D01*
X102542511Y-41269374D01*
X102542171Y-41269524D01*
X102480407Y-41297813D01*
X102429759Y-41322933D01*
X102395404Y-41342179D01*
X102382518Y-41352848D01*
X102382514Y-41352934D01*
X102393872Y-41376166D01*
X102420431Y-41401774D01*
X102450923Y-41420221D01*
X102466370Y-41423886D01*
X102508515Y-41411212D01*
X102544808Y-41379471D01*
X102562517Y-41344572D01*
X102579552Y-41318845D01*
X102612922Y-41289546D01*
X102652149Y-41264235D01*
X102686756Y-41250471D01*
X102693993Y-41249714D01*
X102702139Y-41262160D01*
X102702630Y-41293972D01*
X102696643Y-41336866D01*
X102685357Y-41382558D01*
X102669950Y-41422761D01*
X102669171Y-41424322D01*
X102622804Y-41489062D01*
X102562711Y-41533097D01*
X102494465Y-41554711D01*
X102423638Y-41552185D01*
X102355804Y-41523804D01*
X102352788Y-41521808D01*
X102299427Y-41473448D01*
X102264340Y-41410352D01*
X102244922Y-41327387D01*
X102242316Y-41304078D01*
X102237701Y-41194055D01*
X102243233Y-41142748D01*
X102382514Y-41142748D01*
X102384324Y-41174753D01*
X102394222Y-41184093D01*
X102418898Y-41177105D01*
X102457795Y-41160587D01*
X102501275Y-41139881D01*
X102502356Y-41139333D01*
X102539209Y-41119949D01*
X102554000Y-41107013D01*
X102550353Y-41093451D01*
X102534995Y-41075632D01*
X102495923Y-41049845D01*
X102453846Y-41047950D01*
X102416103Y-41066717D01*
X102390034Y-41102915D01*
X102382514Y-41142748D01*
X102243233Y-41142748D01*
X102247194Y-41106027D01*
X102271550Y-41036212D01*
X102305456Y-40987302D01*
X102366653Y-40937878D01*
X102434063Y-40913359D01*
X102502880Y-40911797D01*
X102568303Y-40931239D01*
G36*
X102568303Y-40931239D02*
G01*
X102625527Y-40969735D01*
X102669749Y-41025335D01*
X102696167Y-41096086D01*
X102701510Y-41148162D01*
X102700903Y-41169893D01*
X102695822Y-41186531D01*
X102681855Y-41201437D01*
X102654589Y-41217973D01*
X102609612Y-41239498D01*
X102542511Y-41269374D01*
X102542171Y-41269524D01*
X102480407Y-41297813D01*
X102429759Y-41322933D01*
X102395404Y-41342179D01*
X102382518Y-41352848D01*
X102382514Y-41352934D01*
X102393872Y-41376166D01*
X102420431Y-41401774D01*
X102450923Y-41420221D01*
X102466370Y-41423886D01*
X102508515Y-41411212D01*
X102544808Y-41379471D01*
X102562517Y-41344572D01*
X102579552Y-41318845D01*
X102612922Y-41289546D01*
X102652149Y-41264235D01*
X102686756Y-41250471D01*
X102693993Y-41249714D01*
X102702139Y-41262160D01*
X102702630Y-41293972D01*
X102696643Y-41336866D01*
X102685357Y-41382558D01*
X102669950Y-41422761D01*
X102669171Y-41424322D01*
X102622804Y-41489062D01*
X102562711Y-41533097D01*
X102494465Y-41554711D01*
X102423638Y-41552185D01*
X102355804Y-41523804D01*
X102352788Y-41521808D01*
X102299427Y-41473448D01*
X102264340Y-41410352D01*
X102244922Y-41327387D01*
X102242316Y-41304078D01*
X102237701Y-41194055D01*
X102243233Y-41142748D01*
X102382514Y-41142748D01*
X102384324Y-41174753D01*
X102394222Y-41184093D01*
X102418898Y-41177105D01*
X102457795Y-41160587D01*
X102501275Y-41139881D01*
X102502356Y-41139333D01*
X102539209Y-41119949D01*
X102554000Y-41107013D01*
X102550353Y-41093451D01*
X102534995Y-41075632D01*
X102495923Y-41049845D01*
X102453846Y-41047950D01*
X102416103Y-41066717D01*
X102390034Y-41102915D01*
X102382514Y-41142748D01*
X102243233Y-41142748D01*
X102247194Y-41106027D01*
X102271550Y-41036212D01*
X102305456Y-40987302D01*
X102366653Y-40937878D01*
X102434063Y-40913359D01*
X102502880Y-40911797D01*
X102568303Y-40931239D01*
G37*
X104439744Y-40950968D02*
X104496616Y-40972087D01*
X104497267Y-40972493D01*
X104532440Y-40998380D01*
X104558407Y-41028633D01*
X104576670Y-41068058D01*
X104588732Y-41121462D01*
X104596096Y-41193651D01*
X104600264Y-41289432D01*
X104600629Y-41303078D01*
X104605876Y-41508842D01*
X104561716Y-41531678D01*
X104529763Y-41547110D01*
X104510470Y-41554423D01*
X104509578Y-41554514D01*
X104506239Y-41541022D01*
X104503587Y-41504626D01*
X104501956Y-41451452D01*
X104501600Y-41408393D01*
X104501592Y-41338641D01*
X104498403Y-41294837D01*
X104487288Y-41273944D01*
X104463501Y-41272925D01*
X104422296Y-41288741D01*
X104360086Y-41317815D01*
X104314341Y-41341963D01*
X104290813Y-41362913D01*
X104283896Y-41385747D01*
X104283886Y-41386877D01*
X104295299Y-41426212D01*
X104329092Y-41447462D01*
X104380809Y-41450539D01*
X104418061Y-41450006D01*
X104437703Y-41460735D01*
X104449952Y-41486505D01*
X104457002Y-41519337D01*
X104446842Y-41537966D01*
X104443017Y-41540632D01*
X104407001Y-41551340D01*
X104356566Y-41552856D01*
X104304626Y-41545759D01*
X104267822Y-41532788D01*
X104216938Y-41489585D01*
X104188014Y-41429446D01*
X104182286Y-41382462D01*
X104186657Y-41340082D01*
X104202475Y-41305488D01*
X104233797Y-41274763D01*
X104284678Y-41243990D01*
X104359176Y-41209252D01*
X104363714Y-41207288D01*
X104430821Y-41176287D01*
X104472232Y-41150862D01*
X104489981Y-41128014D01*
X104486107Y-41104745D01*
X104462643Y-41078056D01*
X104455627Y-41071914D01*
X104408630Y-41048100D01*
X104359933Y-41049103D01*
X104317522Y-41072451D01*
X104289384Y-41115675D01*
X104286769Y-41124160D01*
X104261308Y-41165308D01*
X104229001Y-41185128D01*
X104182286Y-41204770D01*
X104182286Y-41153950D01*
X104196496Y-41080082D01*
X104238675Y-41012327D01*
X104260624Y-40989661D01*
X104310517Y-40960569D01*
X104373967Y-40947400D01*
X104439744Y-40950968D01*
G36*
X104439744Y-40950968D02*
G01*
X104496616Y-40972087D01*
X104497267Y-40972493D01*
X104532440Y-40998380D01*
X104558407Y-41028633D01*
X104576670Y-41068058D01*
X104588732Y-41121462D01*
X104596096Y-41193651D01*
X104600264Y-41289432D01*
X104600629Y-41303078D01*
X104605876Y-41508842D01*
X104561716Y-41531678D01*
X104529763Y-41547110D01*
X104510470Y-41554423D01*
X104509578Y-41554514D01*
X104506239Y-41541022D01*
X104503587Y-41504626D01*
X104501956Y-41451452D01*
X104501600Y-41408393D01*
X104501592Y-41338641D01*
X104498403Y-41294837D01*
X104487288Y-41273944D01*
X104463501Y-41272925D01*
X104422296Y-41288741D01*
X104360086Y-41317815D01*
X104314341Y-41341963D01*
X104290813Y-41362913D01*
X104283896Y-41385747D01*
X104283886Y-41386877D01*
X104295299Y-41426212D01*
X104329092Y-41447462D01*
X104380809Y-41450539D01*
X104418061Y-41450006D01*
X104437703Y-41460735D01*
X104449952Y-41486505D01*
X104457002Y-41519337D01*
X104446842Y-41537966D01*
X104443017Y-41540632D01*
X104407001Y-41551340D01*
X104356566Y-41552856D01*
X104304626Y-41545759D01*
X104267822Y-41532788D01*
X104216938Y-41489585D01*
X104188014Y-41429446D01*
X104182286Y-41382462D01*
X104186657Y-41340082D01*
X104202475Y-41305488D01*
X104233797Y-41274763D01*
X104284678Y-41243990D01*
X104359176Y-41209252D01*
X104363714Y-41207288D01*
X104430821Y-41176287D01*
X104472232Y-41150862D01*
X104489981Y-41128014D01*
X104486107Y-41104745D01*
X104462643Y-41078056D01*
X104455627Y-41071914D01*
X104408630Y-41048100D01*
X104359933Y-41049103D01*
X104317522Y-41072451D01*
X104289384Y-41115675D01*
X104286769Y-41124160D01*
X104261308Y-41165308D01*
X104229001Y-41185128D01*
X104182286Y-41204770D01*
X104182286Y-41153950D01*
X104196496Y-41080082D01*
X104238675Y-41012327D01*
X104260624Y-40989661D01*
X104310517Y-40960569D01*
X104373967Y-40947400D01*
X104439744Y-40950968D01*
G37*
X101999744Y-40919918D02*
X102055201Y-40947568D01*
X102104148Y-40998480D01*
X102117629Y-41017338D01*
X102132314Y-41042015D01*
X102141842Y-41068816D01*
X102147293Y-41104587D01*
X102149747Y-41156169D01*
X102150286Y-41224267D01*
X102147852Y-41317588D01*
X102139394Y-41387657D01*
X102123174Y-41439931D01*
X102097454Y-41479869D01*
X102060497Y-41512929D01*
X102057782Y-41514886D01*
X102021360Y-41534908D01*
X101977502Y-41544815D01*
X101921724Y-41547257D01*
X101831048Y-41547257D01*
X101831010Y-41635283D01*
X101830166Y-41684308D01*
X101825024Y-41713065D01*
X101811587Y-41730311D01*
X101785858Y-41744808D01*
X101779679Y-41747769D01*
X101750764Y-41761648D01*
X101728376Y-41770414D01*
X101711729Y-41771171D01*
X101700036Y-41761023D01*
X101692510Y-41737073D01*
X101688366Y-41696426D01*
X101686815Y-41636186D01*
X101687071Y-41553455D01*
X101688349Y-41445339D01*
X101688748Y-41413000D01*
X101690185Y-41301524D01*
X101691472Y-41228603D01*
X101830971Y-41228603D01*
X101831755Y-41290499D01*
X101835240Y-41330997D01*
X101843124Y-41357708D01*
X101857105Y-41378244D01*
X101866597Y-41388260D01*
X101905404Y-41417567D01*
X101939763Y-41419952D01*
X101975216Y-41395750D01*
X101976114Y-41394857D01*
X101990539Y-41376153D01*
X101999313Y-41350732D01*
X102003739Y-41311584D01*
X102005118Y-41251697D01*
X102005143Y-41238430D01*
X102001812Y-41155901D01*
X101990969Y-41098691D01*
X101971340Y-41063766D01*
X101941650Y-41048094D01*
X101924491Y-41046514D01*
X101883766Y-41053926D01*
X101855832Y-41078330D01*
X101839017Y-41122980D01*
X101831650Y-41191130D01*
X101830971Y-41228603D01*
X101691472Y-41228603D01*
X101691708Y-41215245D01*
X101693677Y-41150333D01*
X101696450Y-41102958D01*
X101700388Y-41069290D01*
X101705849Y-41045498D01*
X101713192Y-41027753D01*
X101722777Y-41012224D01*
X101726887Y-41006381D01*
X101781405Y-40951185D01*
X101850336Y-40919890D01*
X101930072Y-40911165D01*
X101999744Y-40919918D01*
G36*
X101999744Y-40919918D02*
G01*
X102055201Y-40947568D01*
X102104148Y-40998480D01*
X102117629Y-41017338D01*
X102132314Y-41042015D01*
X102141842Y-41068816D01*
X102147293Y-41104587D01*
X102149747Y-41156169D01*
X102150286Y-41224267D01*
X102147852Y-41317588D01*
X102139394Y-41387657D01*
X102123174Y-41439931D01*
X102097454Y-41479869D01*
X102060497Y-41512929D01*
X102057782Y-41514886D01*
X102021360Y-41534908D01*
X101977502Y-41544815D01*
X101921724Y-41547257D01*
X101831048Y-41547257D01*
X101831010Y-41635283D01*
X101830166Y-41684308D01*
X101825024Y-41713065D01*
X101811587Y-41730311D01*
X101785858Y-41744808D01*
X101779679Y-41747769D01*
X101750764Y-41761648D01*
X101728376Y-41770414D01*
X101711729Y-41771171D01*
X101700036Y-41761023D01*
X101692510Y-41737073D01*
X101688366Y-41696426D01*
X101686815Y-41636186D01*
X101687071Y-41553455D01*
X101688349Y-41445339D01*
X101688748Y-41413000D01*
X101690185Y-41301524D01*
X101691472Y-41228603D01*
X101830971Y-41228603D01*
X101831755Y-41290499D01*
X101835240Y-41330997D01*
X101843124Y-41357708D01*
X101857105Y-41378244D01*
X101866597Y-41388260D01*
X101905404Y-41417567D01*
X101939763Y-41419952D01*
X101975216Y-41395750D01*
X101976114Y-41394857D01*
X101990539Y-41376153D01*
X101999313Y-41350732D01*
X102003739Y-41311584D01*
X102005118Y-41251697D01*
X102005143Y-41238430D01*
X102001812Y-41155901D01*
X101990969Y-41098691D01*
X101971340Y-41063766D01*
X101941650Y-41048094D01*
X101924491Y-41046514D01*
X101883766Y-41053926D01*
X101855832Y-41078330D01*
X101839017Y-41122980D01*
X101831650Y-41191130D01*
X101830971Y-41228603D01*
X101691472Y-41228603D01*
X101691708Y-41215245D01*
X101693677Y-41150333D01*
X101696450Y-41102958D01*
X101700388Y-41069290D01*
X101705849Y-41045498D01*
X101713192Y-41027753D01*
X101722777Y-41012224D01*
X101726887Y-41006381D01*
X101781405Y-40951185D01*
X101850336Y-40919890D01*
X101930072Y-40911165D01*
X101999744Y-40919918D01*
G37*
X106544876Y-40956335D02*
X106586667Y-40975344D01*
X106619469Y-40998378D01*
X106643503Y-41024133D01*
X106660097Y-41057358D01*
X106670577Y-41102800D01*
X106676271Y-41165207D01*
X106678507Y-41249327D01*
X106678743Y-41304721D01*
X106678743Y-41520826D01*
X106641774Y-41537670D01*
X106612656Y-41549981D01*
X106598231Y-41554514D01*
X106595472Y-41541025D01*
X106593282Y-41504653D01*
X106591942Y-41451542D01*
X106591657Y-41409372D01*
X106590434Y-41348447D01*
X106587136Y-41300115D01*
X106582321Y-41270518D01*
X106578496Y-41264229D01*
X106552783Y-41270652D01*
X106512418Y-41287125D01*
X106465679Y-41309458D01*
X106420845Y-41333457D01*
X106386193Y-41354930D01*
X106370002Y-41369685D01*
X106369938Y-41369845D01*
X106371330Y-41397152D01*
X106383818Y-41423219D01*
X106405743Y-41444392D01*
X106437743Y-41451474D01*
X106465092Y-41450649D01*
X106503826Y-41450042D01*
X106524158Y-41459116D01*
X106536369Y-41483092D01*
X106537909Y-41487613D01*
X106543203Y-41521806D01*
X106529047Y-41542568D01*
X106492148Y-41552462D01*
X106452289Y-41554292D01*
X106380562Y-41540727D01*
X106343432Y-41521355D01*
X106297576Y-41475845D01*
X106273256Y-41419983D01*
X106271073Y-41360957D01*
X106291629Y-41305953D01*
X106322549Y-41271486D01*
X106353420Y-41252189D01*
X106401942Y-41227759D01*
X106458485Y-41202985D01*
X106467910Y-41199199D01*
X106530019Y-41171791D01*
X106565822Y-41147634D01*
X106577337Y-41123619D01*
X106566580Y-41096635D01*
X106548114Y-41075543D01*
X106504469Y-41049572D01*
X106456446Y-41047624D01*
X106412406Y-41067637D01*
X106380709Y-41107551D01*
X106376549Y-41117848D01*
X106352327Y-41155724D01*
X106316965Y-41183842D01*
X106272343Y-41206917D01*
X106272343Y-41141485D01*
X106274969Y-41101506D01*
X106286230Y-41069997D01*
X106311199Y-41036378D01*
X106335169Y-41010484D01*
X106372441Y-40973817D01*
X106401401Y-40954121D01*
X106432505Y-40946220D01*
X106467713Y-40944914D01*
X106544876Y-40956335D01*
G36*
X106544876Y-40956335D02*
G01*
X106586667Y-40975344D01*
X106619469Y-40998378D01*
X106643503Y-41024133D01*
X106660097Y-41057358D01*
X106670577Y-41102800D01*
X106676271Y-41165207D01*
X106678507Y-41249327D01*
X106678743Y-41304721D01*
X106678743Y-41520826D01*
X106641774Y-41537670D01*
X106612656Y-41549981D01*
X106598231Y-41554514D01*
X106595472Y-41541025D01*
X106593282Y-41504653D01*
X106591942Y-41451542D01*
X106591657Y-41409372D01*
X106590434Y-41348447D01*
X106587136Y-41300115D01*
X106582321Y-41270518D01*
X106578496Y-41264229D01*
X106552783Y-41270652D01*
X106512418Y-41287125D01*
X106465679Y-41309458D01*
X106420845Y-41333457D01*
X106386193Y-41354930D01*
X106370002Y-41369685D01*
X106369938Y-41369845D01*
X106371330Y-41397152D01*
X106383818Y-41423219D01*
X106405743Y-41444392D01*
X106437743Y-41451474D01*
X106465092Y-41450649D01*
X106503826Y-41450042D01*
X106524158Y-41459116D01*
X106536369Y-41483092D01*
X106537909Y-41487613D01*
X106543203Y-41521806D01*
X106529047Y-41542568D01*
X106492148Y-41552462D01*
X106452289Y-41554292D01*
X106380562Y-41540727D01*
X106343432Y-41521355D01*
X106297576Y-41475845D01*
X106273256Y-41419983D01*
X106271073Y-41360957D01*
X106291629Y-41305953D01*
X106322549Y-41271486D01*
X106353420Y-41252189D01*
X106401942Y-41227759D01*
X106458485Y-41202985D01*
X106467910Y-41199199D01*
X106530019Y-41171791D01*
X106565822Y-41147634D01*
X106577337Y-41123619D01*
X106566580Y-41096635D01*
X106548114Y-41075543D01*
X106504469Y-41049572D01*
X106456446Y-41047624D01*
X106412406Y-41067637D01*
X106380709Y-41107551D01*
X106376549Y-41117848D01*
X106352327Y-41155724D01*
X106316965Y-41183842D01*
X106272343Y-41206917D01*
X106272343Y-41141485D01*
X106274969Y-41101506D01*
X106286230Y-41069997D01*
X106311199Y-41036378D01*
X106335169Y-41010484D01*
X106372441Y-40973817D01*
X106401401Y-40954121D01*
X106432505Y-40946220D01*
X106467713Y-40944914D01*
X106544876Y-40956335D01*
G37*
X104503910Y-36242348D02*
X104582454Y-36242778D01*
X104639298Y-36243942D01*
X104678105Y-36246207D01*
X104702538Y-36249940D01*
X104716262Y-36255506D01*
X104722940Y-36263273D01*
X104726236Y-36273605D01*
X104726556Y-36274943D01*
X104731562Y-36299079D01*
X104740829Y-36346701D01*
X104753392Y-36412741D01*
X104768287Y-36492128D01*
X104784551Y-36579796D01*
X104785119Y-36582875D01*
X104801410Y-36668789D01*
X104816652Y-36744696D01*
X104829861Y-36806045D01*
X104840054Y-36848282D01*
X104846248Y-36866855D01*
X104846543Y-36867184D01*
X104864788Y-36876253D01*
X104902405Y-36891367D01*
X104951271Y-36909262D01*
X104951543Y-36909358D01*
X105013093Y-36932493D01*
X105085657Y-36961965D01*
X105154057Y-36991597D01*
X105157294Y-36993062D01*
X105268702Y-37043626D01*
X105515399Y-36875160D01*
X105591077Y-36823803D01*
X105659631Y-36777889D01*
X105717088Y-36740030D01*
X105759476Y-36712837D01*
X105782825Y-36698921D01*
X105785042Y-36697889D01*
X105802010Y-36702484D01*
X105833701Y-36724655D01*
X105881352Y-36765447D01*
X105946198Y-36825905D01*
X106012397Y-36890227D01*
X106076214Y-36953612D01*
X106133329Y-37011451D01*
X106180305Y-37060175D01*
X106213703Y-37096210D01*
X106230085Y-37115984D01*
X106230694Y-37117002D01*
X106232505Y-37130572D01*
X106225683Y-37152733D01*
X106208540Y-37186478D01*
X106179393Y-37234800D01*
X106136555Y-37300692D01*
X106079448Y-37385517D01*
X106028766Y-37460177D01*
X105983461Y-37527140D01*
X105946150Y-37582516D01*
X105919452Y-37622420D01*
X105905985Y-37642962D01*
X105905137Y-37644356D01*
X105906781Y-37664038D01*
X105919245Y-37702293D01*
X105940048Y-37751889D01*
X105947462Y-37767728D01*
X105979814Y-37838290D01*
X106014328Y-37918353D01*
X106042365Y-37987629D01*
X106062568Y-38039045D01*
X106078615Y-38078119D01*
X106087888Y-38098541D01*
X106089041Y-38100114D01*
X106106096Y-38102721D01*
X106146298Y-38109863D01*
X106204302Y-38120523D01*
X106274763Y-38133685D01*
X106352335Y-38148333D01*
X106431672Y-38163449D01*
X106507431Y-38178018D01*
X106574264Y-38191022D01*
X106626828Y-38201445D01*
X106659776Y-38208270D01*
X106667857Y-38210199D01*
X106676205Y-38214962D01*
X106682506Y-38225718D01*
X106687045Y-38246098D01*
X106690104Y-38279734D01*
X106691967Y-38330255D01*
X106692918Y-38401292D01*
X106693240Y-38496476D01*
X106693257Y-38535492D01*
X106693257Y-38852799D01*
X106617057Y-38867839D01*
X106574663Y-38875995D01*
X106511400Y-38887899D01*
X106434962Y-38902116D01*
X106353043Y-38917210D01*
X106330400Y-38921355D01*
X106254806Y-38936053D01*
X106188953Y-38950505D01*
X106138366Y-38963375D01*
X106108574Y-38973322D01*
X106103612Y-38976287D01*
X106091426Y-38997283D01*
X106073953Y-39037967D01*
X106054577Y-39090322D01*
X106050734Y-39101600D01*
X106025339Y-39171523D01*
X105993817Y-39250418D01*
X105962969Y-39321266D01*
X105962817Y-39321595D01*
X105911447Y-39432733D01*
X106080399Y-39681253D01*
X106249352Y-39929772D01*
X106032429Y-40147058D01*
X105966819Y-40211726D01*
X105906979Y-40268733D01*
X105856267Y-40315033D01*
X105818046Y-40347584D01*
X105795675Y-40363343D01*
X105792466Y-40364343D01*
X105773626Y-40356469D01*
X105735180Y-40334578D01*
X105681330Y-40301267D01*
X105616276Y-40259131D01*
X105545940Y-40211943D01*
X105474555Y-40163810D01*
X105410908Y-40121928D01*
X105359041Y-40088871D01*
X105322995Y-40067218D01*
X105306867Y-40059543D01*
X105287189Y-40066037D01*
X105249875Y-40083150D01*
X105202621Y-40107326D01*
X105197612Y-40110013D01*
X105133977Y-40141927D01*
X105090341Y-40157579D01*
X105063202Y-40157745D01*
X105049057Y-40143204D01*
X105048975Y-40143000D01*
X105041905Y-40125779D01*
X105025042Y-40084899D01*
X104999695Y-40023525D01*
X104967171Y-39944819D01*
X104928778Y-39851947D01*
X104885822Y-39748072D01*
X104844222Y-39647502D01*
X104798504Y-39536516D01*
X104756526Y-39433703D01*
X104719548Y-39342215D01*
X104688827Y-39265201D01*
X104665622Y-39205815D01*
X104651190Y-39167209D01*
X104646743Y-39152800D01*
X104657896Y-39136272D01*
X104687069Y-39109930D01*
X104725971Y-39080887D01*
X104836757Y-38989039D01*
X104923351Y-38883759D01*
X104984716Y-38767266D01*
X105019815Y-38641776D01*
X105027608Y-38509507D01*
X105021943Y-38448457D01*
X104991078Y-38321795D01*
X104937920Y-38209941D01*
X104865767Y-38114001D01*
X104777917Y-38035076D01*
X104677665Y-37974270D01*
X104568310Y-37932687D01*
X104453147Y-37911428D01*
X104335475Y-37911599D01*
X104218590Y-37934301D01*
X104105789Y-37980638D01*
X104000369Y-38051713D01*
X103956368Y-38091911D01*
X103871979Y-38195129D01*
X103813222Y-38307925D01*
X103779704Y-38427010D01*
X103771035Y-38549095D01*
X103786823Y-38670893D01*
X103826678Y-38789116D01*
X103890207Y-38900475D01*
X103977021Y-39001684D01*
X104074029Y-39080887D01*
X104114437Y-39111162D01*
X104142982Y-39137219D01*
X104153257Y-39152825D01*
X104147877Y-39169843D01*
X104132575Y-39210500D01*
X104108612Y-39271642D01*
X104077244Y-39350119D01*
X104039732Y-39442780D01*
X103997333Y-39546472D01*
X103955663Y-39647526D01*
X103909690Y-39758607D01*
X103867107Y-39861541D01*
X103829221Y-39953165D01*
X103797340Y-40030316D01*
X103772771Y-40089831D01*
X103756820Y-40128544D01*
X103750910Y-40143000D01*
X103736948Y-40157685D01*
X103709940Y-40157642D01*
X103666413Y-40142099D01*
X103602890Y-40110284D01*
X103602388Y-40110013D01*
X103554560Y-40085323D01*
X103515897Y-40067338D01*
X103494095Y-40059614D01*
X103493133Y-40059543D01*
X103476721Y-40067378D01*
X103440487Y-40089165D01*
X103388474Y-40122328D01*
X103324725Y-40164291D01*
X103254060Y-40211943D01*
X103182116Y-40260191D01*
X103117274Y-40302151D01*
X103063735Y-40335227D01*
X103025697Y-40356821D01*
X103007533Y-40364343D01*
X102990808Y-40354457D01*
X102957180Y-40326826D01*
X102910010Y-40284495D01*
X102852658Y-40230505D01*
X102788484Y-40167899D01*
X102767497Y-40146983D01*
X102550499Y-39929623D01*
X102715668Y-39687220D01*
X102765864Y-39612781D01*
X102809919Y-39545972D01*
X102845362Y-39490665D01*
X102869719Y-39450729D01*
X102880522Y-39430036D01*
X102880838Y-39428563D01*
X102875143Y-39409058D01*
X102859826Y-39369822D01*
X102837537Y-39317430D01*
X102821893Y-39282355D01*
X102792641Y-39215201D01*
X102765094Y-39147358D01*
X102743737Y-39090034D01*
X102737935Y-39072572D01*
X102721452Y-39025938D01*
X102705340Y-38989905D01*
X102696490Y-38976287D01*
X102676960Y-38967952D01*
X102634334Y-38956137D01*
X102574145Y-38942181D01*
X102501922Y-38927422D01*
X102469600Y-38921355D01*
X102387522Y-38906273D01*
X102308795Y-38891669D01*
X102241109Y-38878980D01*
X102192160Y-38869642D01*
X102182943Y-38867839D01*
X102106743Y-38852799D01*
X102106743Y-38535492D01*
X102106914Y-38431154D01*
X102107616Y-38352213D01*
X102109134Y-38295038D01*
X102111749Y-38255999D01*
X102115746Y-38231465D01*
X102121409Y-38217805D01*
X102129020Y-38211389D01*
X102132143Y-38210199D01*
X102150978Y-38205980D01*
X102192588Y-38197562D01*
X102251630Y-38185961D01*
X102322757Y-38172195D01*
X102400625Y-38157280D01*
X102479887Y-38142232D01*
X102555198Y-38128069D01*
X102621213Y-38115806D01*
X102672587Y-38106461D01*
X102703975Y-38101050D01*
X102710959Y-38100114D01*
X102717285Y-38087596D01*
X102731290Y-38054246D01*
X102750355Y-38006377D01*
X102757634Y-37987629D01*
X102786996Y-37915195D01*
X102821571Y-37835170D01*
X102852537Y-37767728D01*
X102875323Y-37716159D01*
X102890482Y-37673785D01*
X102895542Y-37647834D01*
X102894736Y-37644356D01*
X102884041Y-37627936D01*
X102859620Y-37591417D01*
X102824095Y-37538687D01*
X102780087Y-37473635D01*
X102730217Y-37400151D01*
X102720356Y-37385645D01*
X102662492Y-37299704D01*
X102619956Y-37234261D01*
X102591054Y-37186304D01*
X102574090Y-37152820D01*
X102567367Y-37130795D01*
X102569190Y-37117217D01*
X102569236Y-37117131D01*
X102583586Y-37099297D01*
X102615323Y-37064817D01*
X102661010Y-37017268D01*
X102717204Y-36960222D01*
X102780468Y-36897255D01*
X102787602Y-36890227D01*
X102867330Y-36813020D01*
X102928857Y-36756330D01*
X102973421Y-36719110D01*
X103002257Y-36700315D01*
X103014958Y-36697889D01*
X103033494Y-36708471D01*
X103071961Y-36732916D01*
X103126386Y-36768612D01*
X103192798Y-36812947D01*
X103267225Y-36863311D01*
X103284601Y-36875160D01*
X103531297Y-37043626D01*
X103642706Y-36993062D01*
X103710457Y-36963595D01*
X103783183Y-36933959D01*
X103845703Y-36910330D01*
X103848457Y-36909358D01*
X103897360Y-36891457D01*
X103935057Y-36876320D01*
X103953425Y-36867210D01*
X103953456Y-36867184D01*
X103959285Y-36850717D01*
X103969192Y-36810219D01*
X103982195Y-36750242D01*
X103997309Y-36675340D01*
X104013552Y-36590064D01*
X104014881Y-36582875D01*
X104031175Y-36495014D01*
X104046133Y-36415260D01*
X104058791Y-36348681D01*
X104068186Y-36300347D01*
X104073354Y-36275325D01*
X104073444Y-36274943D01*
X104076589Y-36264299D01*
X104082704Y-36256262D01*
X104095453Y-36250467D01*
X104118500Y-36246547D01*
X104155509Y-36244135D01*
X104210144Y-36242865D01*
X104286067Y-36242371D01*
X104386944Y-36242286D01*
X104400000Y-36242286D01*
X104503910Y-36242348D01*
G36*
X104503910Y-36242348D02*
G01*
X104582454Y-36242778D01*
X104639298Y-36243942D01*
X104678105Y-36246207D01*
X104702538Y-36249940D01*
X104716262Y-36255506D01*
X104722940Y-36263273D01*
X104726236Y-36273605D01*
X104726556Y-36274943D01*
X104731562Y-36299079D01*
X104740829Y-36346701D01*
X104753392Y-36412741D01*
X104768287Y-36492128D01*
X104784551Y-36579796D01*
X104785119Y-36582875D01*
X104801410Y-36668789D01*
X104816652Y-36744696D01*
X104829861Y-36806045D01*
X104840054Y-36848282D01*
X104846248Y-36866855D01*
X104846543Y-36867184D01*
X104864788Y-36876253D01*
X104902405Y-36891367D01*
X104951271Y-36909262D01*
X104951543Y-36909358D01*
X105013093Y-36932493D01*
X105085657Y-36961965D01*
X105154057Y-36991597D01*
X105157294Y-36993062D01*
X105268702Y-37043626D01*
X105515399Y-36875160D01*
X105591077Y-36823803D01*
X105659631Y-36777889D01*
X105717088Y-36740030D01*
X105759476Y-36712837D01*
X105782825Y-36698921D01*
X105785042Y-36697889D01*
X105802010Y-36702484D01*
X105833701Y-36724655D01*
X105881352Y-36765447D01*
X105946198Y-36825905D01*
X106012397Y-36890227D01*
X106076214Y-36953612D01*
X106133329Y-37011451D01*
X106180305Y-37060175D01*
X106213703Y-37096210D01*
X106230085Y-37115984D01*
X106230694Y-37117002D01*
X106232505Y-37130572D01*
X106225683Y-37152733D01*
X106208540Y-37186478D01*
X106179393Y-37234800D01*
X106136555Y-37300692D01*
X106079448Y-37385517D01*
X106028766Y-37460177D01*
X105983461Y-37527140D01*
X105946150Y-37582516D01*
X105919452Y-37622420D01*
X105905985Y-37642962D01*
X105905137Y-37644356D01*
X105906781Y-37664038D01*
X105919245Y-37702293D01*
X105940048Y-37751889D01*
X105947462Y-37767728D01*
X105979814Y-37838290D01*
X106014328Y-37918353D01*
X106042365Y-37987629D01*
X106062568Y-38039045D01*
X106078615Y-38078119D01*
X106087888Y-38098541D01*
X106089041Y-38100114D01*
X106106096Y-38102721D01*
X106146298Y-38109863D01*
X106204302Y-38120523D01*
X106274763Y-38133685D01*
X106352335Y-38148333D01*
X106431672Y-38163449D01*
X106507431Y-38178018D01*
X106574264Y-38191022D01*
X106626828Y-38201445D01*
X106659776Y-38208270D01*
X106667857Y-38210199D01*
X106676205Y-38214962D01*
X106682506Y-38225718D01*
X106687045Y-38246098D01*
X106690104Y-38279734D01*
X106691967Y-38330255D01*
X106692918Y-38401292D01*
X106693240Y-38496476D01*
X106693257Y-38535492D01*
X106693257Y-38852799D01*
X106617057Y-38867839D01*
X106574663Y-38875995D01*
X106511400Y-38887899D01*
X106434962Y-38902116D01*
X106353043Y-38917210D01*
X106330400Y-38921355D01*
X106254806Y-38936053D01*
X106188953Y-38950505D01*
X106138366Y-38963375D01*
X106108574Y-38973322D01*
X106103612Y-38976287D01*
X106091426Y-38997283D01*
X106073953Y-39037967D01*
X106054577Y-39090322D01*
X106050734Y-39101600D01*
X106025339Y-39171523D01*
X105993817Y-39250418D01*
X105962969Y-39321266D01*
X105962817Y-39321595D01*
X105911447Y-39432733D01*
X106080399Y-39681253D01*
X106249352Y-39929772D01*
X106032429Y-40147058D01*
X105966819Y-40211726D01*
X105906979Y-40268733D01*
X105856267Y-40315033D01*
X105818046Y-40347584D01*
X105795675Y-40363343D01*
X105792466Y-40364343D01*
X105773626Y-40356469D01*
X105735180Y-40334578D01*
X105681330Y-40301267D01*
X105616276Y-40259131D01*
X105545940Y-40211943D01*
X105474555Y-40163810D01*
X105410908Y-40121928D01*
X105359041Y-40088871D01*
X105322995Y-40067218D01*
X105306867Y-40059543D01*
X105287189Y-40066037D01*
X105249875Y-40083150D01*
X105202621Y-40107326D01*
X105197612Y-40110013D01*
X105133977Y-40141927D01*
X105090341Y-40157579D01*
X105063202Y-40157745D01*
X105049057Y-40143204D01*
X105048975Y-40143000D01*
X105041905Y-40125779D01*
X105025042Y-40084899D01*
X104999695Y-40023525D01*
X104967171Y-39944819D01*
X104928778Y-39851947D01*
X104885822Y-39748072D01*
X104844222Y-39647502D01*
X104798504Y-39536516D01*
X104756526Y-39433703D01*
X104719548Y-39342215D01*
X104688827Y-39265201D01*
X104665622Y-39205815D01*
X104651190Y-39167209D01*
X104646743Y-39152800D01*
X104657896Y-39136272D01*
X104687069Y-39109930D01*
X104725971Y-39080887D01*
X104836757Y-38989039D01*
X104923351Y-38883759D01*
X104984716Y-38767266D01*
X105019815Y-38641776D01*
X105027608Y-38509507D01*
X105021943Y-38448457D01*
X104991078Y-38321795D01*
X104937920Y-38209941D01*
X104865767Y-38114001D01*
X104777917Y-38035076D01*
X104677665Y-37974270D01*
X104568310Y-37932687D01*
X104453147Y-37911428D01*
X104335475Y-37911599D01*
X104218590Y-37934301D01*
X104105789Y-37980638D01*
X104000369Y-38051713D01*
X103956368Y-38091911D01*
X103871979Y-38195129D01*
X103813222Y-38307925D01*
X103779704Y-38427010D01*
X103771035Y-38549095D01*
X103786823Y-38670893D01*
X103826678Y-38789116D01*
X103890207Y-38900475D01*
X103977021Y-39001684D01*
X104074029Y-39080887D01*
X104114437Y-39111162D01*
X104142982Y-39137219D01*
X104153257Y-39152825D01*
X104147877Y-39169843D01*
X104132575Y-39210500D01*
X104108612Y-39271642D01*
X104077244Y-39350119D01*
X104039732Y-39442780D01*
X103997333Y-39546472D01*
X103955663Y-39647526D01*
X103909690Y-39758607D01*
X103867107Y-39861541D01*
X103829221Y-39953165D01*
X103797340Y-40030316D01*
X103772771Y-40089831D01*
X103756820Y-40128544D01*
X103750910Y-40143000D01*
X103736948Y-40157685D01*
X103709940Y-40157642D01*
X103666413Y-40142099D01*
X103602890Y-40110284D01*
X103602388Y-40110013D01*
X103554560Y-40085323D01*
X103515897Y-40067338D01*
X103494095Y-40059614D01*
X103493133Y-40059543D01*
X103476721Y-40067378D01*
X103440487Y-40089165D01*
X103388474Y-40122328D01*
X103324725Y-40164291D01*
X103254060Y-40211943D01*
X103182116Y-40260191D01*
X103117274Y-40302151D01*
X103063735Y-40335227D01*
X103025697Y-40356821D01*
X103007533Y-40364343D01*
X102990808Y-40354457D01*
X102957180Y-40326826D01*
X102910010Y-40284495D01*
X102852658Y-40230505D01*
X102788484Y-40167899D01*
X102767497Y-40146983D01*
X102550499Y-39929623D01*
X102715668Y-39687220D01*
X102765864Y-39612781D01*
X102809919Y-39545972D01*
X102845362Y-39490665D01*
X102869719Y-39450729D01*
X102880522Y-39430036D01*
X102880838Y-39428563D01*
X102875143Y-39409058D01*
X102859826Y-39369822D01*
X102837537Y-39317430D01*
X102821893Y-39282355D01*
X102792641Y-39215201D01*
X102765094Y-39147358D01*
X102743737Y-39090034D01*
X102737935Y-39072572D01*
X102721452Y-39025938D01*
X102705340Y-38989905D01*
X102696490Y-38976287D01*
X102676960Y-38967952D01*
X102634334Y-38956137D01*
X102574145Y-38942181D01*
X102501922Y-38927422D01*
X102469600Y-38921355D01*
X102387522Y-38906273D01*
X102308795Y-38891669D01*
X102241109Y-38878980D01*
X102192160Y-38869642D01*
X102182943Y-38867839D01*
X102106743Y-38852799D01*
X102106743Y-38535492D01*
X102106914Y-38431154D01*
X102107616Y-38352213D01*
X102109134Y-38295038D01*
X102111749Y-38255999D01*
X102115746Y-38231465D01*
X102121409Y-38217805D01*
X102129020Y-38211389D01*
X102132143Y-38210199D01*
X102150978Y-38205980D01*
X102192588Y-38197562D01*
X102251630Y-38185961D01*
X102322757Y-38172195D01*
X102400625Y-38157280D01*
X102479887Y-38142232D01*
X102555198Y-38128069D01*
X102621213Y-38115806D01*
X102672587Y-38106461D01*
X102703975Y-38101050D01*
X102710959Y-38100114D01*
X102717285Y-38087596D01*
X102731290Y-38054246D01*
X102750355Y-38006377D01*
X102757634Y-37987629D01*
X102786996Y-37915195D01*
X102821571Y-37835170D01*
X102852537Y-37767728D01*
X102875323Y-37716159D01*
X102890482Y-37673785D01*
X102895542Y-37647834D01*
X102894736Y-37644356D01*
X102884041Y-37627936D01*
X102859620Y-37591417D01*
X102824095Y-37538687D01*
X102780087Y-37473635D01*
X102730217Y-37400151D01*
X102720356Y-37385645D01*
X102662492Y-37299704D01*
X102619956Y-37234261D01*
X102591054Y-37186304D01*
X102574090Y-37152820D01*
X102567367Y-37130795D01*
X102569190Y-37117217D01*
X102569236Y-37117131D01*
X102583586Y-37099297D01*
X102615323Y-37064817D01*
X102661010Y-37017268D01*
X102717204Y-36960222D01*
X102780468Y-36897255D01*
X102787602Y-36890227D01*
X102867330Y-36813020D01*
X102928857Y-36756330D01*
X102973421Y-36719110D01*
X103002257Y-36700315D01*
X103014958Y-36697889D01*
X103033494Y-36708471D01*
X103071961Y-36732916D01*
X103126386Y-36768612D01*
X103192798Y-36812947D01*
X103267225Y-36863311D01*
X103284601Y-36875160D01*
X103531297Y-37043626D01*
X103642706Y-36993062D01*
X103710457Y-36963595D01*
X103783183Y-36933959D01*
X103845703Y-36910330D01*
X103848457Y-36909358D01*
X103897360Y-36891457D01*
X103935057Y-36876320D01*
X103953425Y-36867210D01*
X103953456Y-36867184D01*
X103959285Y-36850717D01*
X103969192Y-36810219D01*
X103982195Y-36750242D01*
X103997309Y-36675340D01*
X104013552Y-36590064D01*
X104014881Y-36582875D01*
X104031175Y-36495014D01*
X104046133Y-36415260D01*
X104058791Y-36348681D01*
X104068186Y-36300347D01*
X104073354Y-36275325D01*
X104073444Y-36274943D01*
X104076589Y-36264299D01*
X104082704Y-36256262D01*
X104095453Y-36250467D01*
X104118500Y-36246547D01*
X104155509Y-36244135D01*
X104210144Y-36242865D01*
X104286067Y-36242371D01*
X104386944Y-36242286D01*
X104400000Y-36242286D01*
X104503910Y-36242348D01*
G37*
D11*
%TO.C,X1*%
X102300000Y-66550000D02*
X102300000Y-70050000D01*
X102300000Y-70050000D02*
X106500000Y-70050000D01*
%TO.C,C6*%
X104539970Y-59138781D02*
X104738781Y-58939970D01*
X105261219Y-59860030D02*
X105460030Y-59661219D01*
%TO.C,D3*%
X115700000Y-76140000D02*
X115050000Y-76140000D01*
X115700000Y-76140000D02*
X116350000Y-76140000D01*
X115700000Y-79260000D02*
X115050000Y-79260000D01*
X115700000Y-79260000D02*
X116350000Y-79260000D01*
X114537500Y-76190000D02*
X114297500Y-75860000D01*
X114777500Y-75860000D01*
X114537500Y-76190000D01*
G36*
X114537500Y-76190000D02*
G01*
X114297500Y-75860000D01*
X114777500Y-75860000D01*
X114537500Y-76190000D01*
G37*
%TO.C,D5*%
X172865000Y-30715000D02*
X172865000Y-33000000D01*
X174335000Y-30715000D02*
X172865000Y-30715000D01*
X174335000Y-33000000D02*
X174335000Y-30715000D01*
%TO.C,R6*%
X112062742Y-76177500D02*
X112537258Y-76177500D01*
X112062742Y-77222500D02*
X112537258Y-77222500D01*
%TO.C,C11*%
X113411252Y-121790000D02*
X111988748Y-121790000D01*
X113411252Y-123610000D02*
X111988748Y-123610000D01*
%TD*%
M02*
