%TF.GenerationSoftware,KiCad,Pcbnew,8.0.1*%
%TF.CreationDate,2026-01-16T21:20:55-05:00*%
%TF.ProjectId,16x Card Module,31367820-4361-4726-9420-4d6f64756c65,rev?*%
%TF.SameCoordinates,Original*%
%TF.FileFunction,Legend,Bot*%
%TF.FilePolarity,Positive*%
%FSLAX46Y46*%
G04 Gerber Fmt 4.6, Leading zero omitted, Abs format (unit mm)*
G04 Created by KiCad (PCBNEW 8.0.1) date 2026-01-16 21:20:55*
%MOMM*%
%LPD*%
G01*
G04 APERTURE LIST*
%ADD10C,0.010000*%
%ADD11C,0.200000*%
%ADD12C,0.006250*%
G04 APERTURE END LIST*
D10*
%TO.C,REF\u002A\u002A*%
X103382829Y-72751097D02*
X103442753Y-72773355D01*
X103467673Y-72790080D01*
X103492910Y-72814043D01*
X103510912Y-72844526D01*
X103522858Y-72886023D01*
X103529930Y-72943032D01*
X103533308Y-73020047D01*
X103534171Y-73121565D01*
X103534002Y-73174027D01*
X103533153Y-73245715D01*
X103531711Y-73302925D01*
X103529814Y-73340809D01*
X103527597Y-73354514D01*
X103513172Y-73349981D01*
X103484054Y-73337670D01*
X103483181Y-73337272D01*
X103468060Y-73329356D01*
X103457891Y-73318495D01*
X103451691Y-73299471D01*
X103448478Y-73267069D01*
X103447270Y-73216071D01*
X103447086Y-73141261D01*
X103446714Y-73093804D01*
X103442750Y-73004615D01*
X103433673Y-72939287D01*
X103418524Y-72894393D01*
X103396345Y-72866507D01*
X103366175Y-72852203D01*
X103361990Y-72851206D01*
X103305480Y-72850427D01*
X103261410Y-72875744D01*
X103230972Y-72926502D01*
X103225544Y-72941175D01*
X103213171Y-72973649D01*
X103206905Y-72988572D01*
X103194036Y-72986516D01*
X103165933Y-72975357D01*
X103139721Y-72956927D01*
X103127771Y-72922098D01*
X103131336Y-72897151D01*
X103153235Y-72846547D01*
X103188644Y-72799128D01*
X103230052Y-72766334D01*
X103247400Y-72758752D01*
X103313089Y-72746076D01*
X103382829Y-72751097D01*
G36*
X103382829Y-72751097D02*
G01*
X103442753Y-72773355D01*
X103467673Y-72790080D01*
X103492910Y-72814043D01*
X103510912Y-72844526D01*
X103522858Y-72886023D01*
X103529930Y-72943032D01*
X103533308Y-73020047D01*
X103534171Y-73121565D01*
X103534002Y-73174027D01*
X103533153Y-73245715D01*
X103531711Y-73302925D01*
X103529814Y-73340809D01*
X103527597Y-73354514D01*
X103513172Y-73349981D01*
X103484054Y-73337670D01*
X103483181Y-73337272D01*
X103468060Y-73329356D01*
X103457891Y-73318495D01*
X103451691Y-73299471D01*
X103448478Y-73267069D01*
X103447270Y-73216071D01*
X103447086Y-73141261D01*
X103446714Y-73093804D01*
X103442750Y-73004615D01*
X103433673Y-72939287D01*
X103418524Y-72894393D01*
X103396345Y-72866507D01*
X103366175Y-72852203D01*
X103361990Y-72851206D01*
X103305480Y-72850427D01*
X103261410Y-72875744D01*
X103230972Y-72926502D01*
X103225544Y-72941175D01*
X103213171Y-72973649D01*
X103206905Y-72988572D01*
X103194036Y-72986516D01*
X103165933Y-72975357D01*
X103139721Y-72956927D01*
X103127771Y-72922098D01*
X103131336Y-72897151D01*
X103153235Y-72846547D01*
X103188644Y-72799128D01*
X103230052Y-72766334D01*
X103247400Y-72758752D01*
X103313089Y-72746076D01*
X103382829Y-72751097D01*
G37*
X107331020Y-72717822D02*
X107398810Y-72749680D01*
X107454366Y-72804770D01*
X107465881Y-72822016D01*
X107475432Y-72841562D01*
X107482206Y-72866198D01*
X107486819Y-72900711D01*
X107489888Y-72949889D01*
X107492029Y-73018519D01*
X107493859Y-73111389D01*
X107498404Y-73369007D01*
X107460225Y-73354491D01*
X107425268Y-73341156D01*
X107399097Y-73328323D01*
X107382013Y-73311780D01*
X107372086Y-73286465D01*
X107367386Y-73247316D01*
X107365982Y-73189268D01*
X107365943Y-73107261D01*
X107365744Y-73041895D01*
X107364559Y-72979173D01*
X107361729Y-72936334D01*
X107356609Y-72908220D01*
X107348553Y-72889675D01*
X107336914Y-72875543D01*
X107308303Y-72855600D01*
X107260239Y-72848083D01*
X107212688Y-72867079D01*
X107209550Y-72869511D01*
X107199769Y-72880748D01*
X107192553Y-72898770D01*
X107187299Y-72928026D01*
X107183402Y-72972962D01*
X107180256Y-73038028D01*
X107177257Y-73127670D01*
X107170000Y-73367697D01*
X107108314Y-73340044D01*
X107046629Y-73312391D01*
X107046629Y-73093246D01*
X107046884Y-73033711D01*
X107049086Y-72950892D01*
X107054661Y-72889227D01*
X107064941Y-72843748D01*
X107081258Y-72809484D01*
X107104943Y-72781466D01*
X107137328Y-72754723D01*
X107183907Y-72727780D01*
X107257287Y-72710191D01*
X107331020Y-72717822D01*
G36*
X107331020Y-72717822D02*
G01*
X107398810Y-72749680D01*
X107454366Y-72804770D01*
X107465881Y-72822016D01*
X107475432Y-72841562D01*
X107482206Y-72866198D01*
X107486819Y-72900711D01*
X107489888Y-72949889D01*
X107492029Y-73018519D01*
X107493859Y-73111389D01*
X107498404Y-73369007D01*
X107460225Y-73354491D01*
X107425268Y-73341156D01*
X107399097Y-73328323D01*
X107382013Y-73311780D01*
X107372086Y-73286465D01*
X107367386Y-73247316D01*
X107365982Y-73189268D01*
X107365943Y-73107261D01*
X107365744Y-73041895D01*
X107364559Y-72979173D01*
X107361729Y-72936334D01*
X107356609Y-72908220D01*
X107348553Y-72889675D01*
X107336914Y-72875543D01*
X107308303Y-72855600D01*
X107260239Y-72848083D01*
X107212688Y-72867079D01*
X107209550Y-72869511D01*
X107199769Y-72880748D01*
X107192553Y-72898770D01*
X107187299Y-72928026D01*
X107183402Y-72972962D01*
X107180256Y-73038028D01*
X107177257Y-73127670D01*
X107170000Y-73367697D01*
X107108314Y-73340044D01*
X107046629Y-73312391D01*
X107046629Y-73093246D01*
X107046884Y-73033711D01*
X107049086Y-72950892D01*
X107054661Y-72889227D01*
X107064941Y-72843748D01*
X107081258Y-72809484D01*
X107104943Y-72781466D01*
X107137328Y-72754723D01*
X107183907Y-72727780D01*
X107257287Y-72710191D01*
X107331020Y-72717822D01*
G37*
X105507691Y-72766467D02*
X105512273Y-72769003D01*
X105549704Y-72798057D01*
X105583170Y-72835410D01*
X105589007Y-72843852D01*
X105600165Y-72863553D01*
X105608136Y-72886935D01*
X105613618Y-72919067D01*
X105617307Y-72965019D01*
X105619899Y-73029859D01*
X105622092Y-73118657D01*
X105622402Y-73133669D01*
X105623400Y-73230999D01*
X105621994Y-73299934D01*
X105618164Y-73340948D01*
X105611889Y-73354514D01*
X105592898Y-73350452D01*
X105560638Y-73338144D01*
X105553041Y-73334545D01*
X105541176Y-73326398D01*
X105532994Y-73313004D01*
X105527643Y-73289608D01*
X105524269Y-73251455D01*
X105522019Y-73193790D01*
X105520040Y-73111857D01*
X105519498Y-73087907D01*
X105517403Y-73012266D01*
X105514683Y-72959328D01*
X105510515Y-72924075D01*
X105504079Y-72901487D01*
X105494550Y-72886544D01*
X105481106Y-72874227D01*
X105441305Y-72852634D01*
X105392341Y-72848476D01*
X105348529Y-72864999D01*
X105317008Y-72899210D01*
X105304914Y-72948114D01*
X105304578Y-72961407D01*
X105297972Y-72985472D01*
X105278470Y-72989144D01*
X105240283Y-72974813D01*
X105231438Y-72970217D01*
X105207534Y-72943186D01*
X105207061Y-72902994D01*
X105229836Y-72847409D01*
X105250727Y-72817117D01*
X105304142Y-72774084D01*
X105370074Y-72749755D01*
X105440574Y-72746443D01*
X105507691Y-72766467D01*
G36*
X105507691Y-72766467D02*
G01*
X105512273Y-72769003D01*
X105549704Y-72798057D01*
X105583170Y-72835410D01*
X105589007Y-72843852D01*
X105600165Y-72863553D01*
X105608136Y-72886935D01*
X105613618Y-72919067D01*
X105617307Y-72965019D01*
X105619899Y-73029859D01*
X105622092Y-73118657D01*
X105622402Y-73133669D01*
X105623400Y-73230999D01*
X105621994Y-73299934D01*
X105618164Y-73340948D01*
X105611889Y-73354514D01*
X105592898Y-73350452D01*
X105560638Y-73338144D01*
X105553041Y-73334545D01*
X105541176Y-73326398D01*
X105532994Y-73313004D01*
X105527643Y-73289608D01*
X105524269Y-73251455D01*
X105522019Y-73193790D01*
X105520040Y-73111857D01*
X105519498Y-73087907D01*
X105517403Y-73012266D01*
X105514683Y-72959328D01*
X105510515Y-72924075D01*
X105504079Y-72901487D01*
X105494550Y-72886544D01*
X105481106Y-72874227D01*
X105441305Y-72852634D01*
X105392341Y-72848476D01*
X105348529Y-72864999D01*
X105317008Y-72899210D01*
X105304914Y-72948114D01*
X105304578Y-72961407D01*
X105297972Y-72985472D01*
X105278470Y-72989144D01*
X105240283Y-72974813D01*
X105231438Y-72970217D01*
X105207534Y-72943186D01*
X105207061Y-72902994D01*
X105229836Y-72847409D01*
X105250727Y-72817117D01*
X105304142Y-72774084D01*
X105370074Y-72749755D01*
X105440574Y-72746443D01*
X105507691Y-72766467D01*
G37*
X104553941Y-72749282D02*
X104585774Y-72761758D01*
X104622743Y-72778602D01*
X104622743Y-73265196D01*
X104576812Y-73311127D01*
X104566320Y-73321427D01*
X104537255Y-73344320D01*
X104507943Y-73351735D01*
X104464326Y-73348321D01*
X104446568Y-73346114D01*
X104400767Y-73341445D01*
X104368743Y-73339585D01*
X104359244Y-73339869D01*
X104320274Y-73342948D01*
X104273160Y-73348321D01*
X104258085Y-73350168D01*
X104220110Y-73350893D01*
X104192325Y-73339429D01*
X104160674Y-73311127D01*
X104114743Y-73265196D01*
X104114743Y-73005055D01*
X104115101Y-72928180D01*
X104116216Y-72854886D01*
X104117952Y-72796850D01*
X104120167Y-72758663D01*
X104122721Y-72744914D01*
X104123256Y-72744951D01*
X104141808Y-72751793D01*
X104173153Y-72766868D01*
X104215608Y-72788822D01*
X104219604Y-73017240D01*
X104223600Y-73245657D01*
X104310686Y-73245657D01*
X104314657Y-72995286D01*
X104315916Y-72927227D01*
X104317718Y-72854482D01*
X104319671Y-72796730D01*
X104321612Y-72758648D01*
X104323377Y-72744914D01*
X104323885Y-72744962D01*
X104341482Y-72750015D01*
X104373834Y-72760849D01*
X104419543Y-72776783D01*
X104419765Y-72996706D01*
X104419988Y-73034909D01*
X104421531Y-73109146D01*
X104424292Y-73171145D01*
X104427977Y-73215308D01*
X104432292Y-73236041D01*
X104447732Y-73247131D01*
X104479241Y-73250556D01*
X104513886Y-73245657D01*
X104517857Y-72995286D01*
X104519278Y-72931663D01*
X104522225Y-72856356D01*
X104526079Y-72797286D01*
X104530542Y-72758718D01*
X104535317Y-72744914D01*
X104553941Y-72749282D01*
G36*
X104553941Y-72749282D02*
G01*
X104585774Y-72761758D01*
X104622743Y-72778602D01*
X104622743Y-73265196D01*
X104576812Y-73311127D01*
X104566320Y-73321427D01*
X104537255Y-73344320D01*
X104507943Y-73351735D01*
X104464326Y-73348321D01*
X104446568Y-73346114D01*
X104400767Y-73341445D01*
X104368743Y-73339585D01*
X104359244Y-73339869D01*
X104320274Y-73342948D01*
X104273160Y-73348321D01*
X104258085Y-73350168D01*
X104220110Y-73350893D01*
X104192325Y-73339429D01*
X104160674Y-73311127D01*
X104114743Y-73265196D01*
X104114743Y-73005055D01*
X104115101Y-72928180D01*
X104116216Y-72854886D01*
X104117952Y-72796850D01*
X104120167Y-72758663D01*
X104122721Y-72744914D01*
X104123256Y-72744951D01*
X104141808Y-72751793D01*
X104173153Y-72766868D01*
X104215608Y-72788822D01*
X104219604Y-73017240D01*
X104223600Y-73245657D01*
X104310686Y-73245657D01*
X104314657Y-72995286D01*
X104315916Y-72927227D01*
X104317718Y-72854482D01*
X104319671Y-72796730D01*
X104321612Y-72758648D01*
X104323377Y-72744914D01*
X104323885Y-72744962D01*
X104341482Y-72750015D01*
X104373834Y-72760849D01*
X104419543Y-72776783D01*
X104419765Y-72996706D01*
X104419988Y-73034909D01*
X104421531Y-73109146D01*
X104424292Y-73171145D01*
X104427977Y-73215308D01*
X104432292Y-73236041D01*
X104447732Y-73247131D01*
X104479241Y-73250556D01*
X104513886Y-73245657D01*
X104517857Y-72995286D01*
X104519278Y-72931663D01*
X104522225Y-72856356D01*
X104526079Y-72797286D01*
X104530542Y-72758718D01*
X104535317Y-72744914D01*
X104553941Y-72749282D01*
G37*
X106578543Y-72549444D02*
X106625714Y-72569342D01*
X106625714Y-72966509D01*
X106625519Y-73069498D01*
X106624998Y-73162141D01*
X106624199Y-73240700D01*
X106623172Y-73301439D01*
X106621963Y-73340623D01*
X106620623Y-73354514D01*
X106620099Y-73354468D01*
X106602287Y-73349420D01*
X106569823Y-73338580D01*
X106524114Y-73322646D01*
X106524114Y-73118173D01*
X106523824Y-73037832D01*
X106522474Y-72979562D01*
X106519369Y-72939909D01*
X106513812Y-72913618D01*
X106505107Y-72895436D01*
X106492556Y-72880107D01*
X106483999Y-72871955D01*
X106437728Y-72849375D01*
X106386728Y-72851375D01*
X106339993Y-72878073D01*
X106333189Y-72884698D01*
X106322293Y-72898456D01*
X106314836Y-72916642D01*
X106310169Y-72944177D01*
X106307642Y-72985981D01*
X106306602Y-73046973D01*
X106306400Y-73132073D01*
X106306303Y-73175234D01*
X106305674Y-73246224D01*
X106304556Y-73303076D01*
X106303063Y-73340828D01*
X106301309Y-73354514D01*
X106300785Y-73354468D01*
X106282973Y-73349420D01*
X106250509Y-73338580D01*
X106204800Y-73322646D01*
X106204823Y-73117237D01*
X106204857Y-73098951D01*
X106206778Y-73003626D01*
X106212678Y-72931543D01*
X106224001Y-72877813D01*
X106242187Y-72837549D01*
X106268679Y-72805861D01*
X106304918Y-72777861D01*
X106340263Y-72760333D01*
X106396773Y-72746785D01*
X106452356Y-72746015D01*
X106495086Y-72759195D01*
X106498298Y-72761015D01*
X106508205Y-72760820D01*
X106514975Y-72745572D01*
X106519861Y-72710613D01*
X106524114Y-72651289D01*
X106531371Y-72529547D01*
X106578543Y-72549444D01*
G36*
X106578543Y-72549444D02*
G01*
X106625714Y-72569342D01*
X106625714Y-72966509D01*
X106625519Y-73069498D01*
X106624998Y-73162141D01*
X106624199Y-73240700D01*
X106623172Y-73301439D01*
X106621963Y-73340623D01*
X106620623Y-73354514D01*
X106620099Y-73354468D01*
X106602287Y-73349420D01*
X106569823Y-73338580D01*
X106524114Y-73322646D01*
X106524114Y-73118173D01*
X106523824Y-73037832D01*
X106522474Y-72979562D01*
X106519369Y-72939909D01*
X106513812Y-72913618D01*
X106505107Y-72895436D01*
X106492556Y-72880107D01*
X106483999Y-72871955D01*
X106437728Y-72849375D01*
X106386728Y-72851375D01*
X106339993Y-72878073D01*
X106333189Y-72884698D01*
X106322293Y-72898456D01*
X106314836Y-72916642D01*
X106310169Y-72944177D01*
X106307642Y-72985981D01*
X106306602Y-73046973D01*
X106306400Y-73132073D01*
X106306303Y-73175234D01*
X106305674Y-73246224D01*
X106304556Y-73303076D01*
X106303063Y-73340828D01*
X106301309Y-73354514D01*
X106300785Y-73354468D01*
X106282973Y-73349420D01*
X106250509Y-73338580D01*
X106204800Y-73322646D01*
X106204823Y-73117237D01*
X106204857Y-73098951D01*
X106206778Y-73003626D01*
X106212678Y-72931543D01*
X106224001Y-72877813D01*
X106242187Y-72837549D01*
X106268679Y-72805861D01*
X106304918Y-72777861D01*
X106340263Y-72760333D01*
X106396773Y-72746785D01*
X106452356Y-72746015D01*
X106495086Y-72759195D01*
X106498298Y-72761015D01*
X106508205Y-72760820D01*
X106514975Y-72745572D01*
X106519861Y-72710613D01*
X106524114Y-72651289D01*
X106531371Y-72529547D01*
X106578543Y-72549444D01*
G37*
X109165714Y-73035200D02*
X109165701Y-73050935D01*
X109164914Y-73121119D01*
X109162210Y-73170022D01*
X109156606Y-73204178D01*
X109147119Y-73230124D01*
X109132768Y-73254397D01*
X109129237Y-73259433D01*
X109091878Y-73299143D01*
X109049311Y-73329092D01*
X109027452Y-73338810D01*
X108948908Y-73355020D01*
X108871231Y-73344535D01*
X108799645Y-73308707D01*
X108739374Y-73248887D01*
X108734286Y-73240873D01*
X108717730Y-73194342D01*
X108706573Y-73129552D01*
X108701160Y-73054727D01*
X108701768Y-72985513D01*
X108848248Y-72985513D01*
X108849402Y-73081399D01*
X108849866Y-73087569D01*
X108856629Y-73140478D01*
X108868671Y-73174029D01*
X108889005Y-73197016D01*
X108923097Y-73218548D01*
X108956814Y-73219680D01*
X108991543Y-73194857D01*
X108997584Y-73188325D01*
X109009417Y-73168779D01*
X109016404Y-73140386D01*
X109019727Y-73096430D01*
X109020571Y-73030192D01*
X109019125Y-72968150D01*
X109011907Y-72909042D01*
X108997006Y-72871686D01*
X108972636Y-72852152D01*
X108937008Y-72846514D01*
X108923440Y-72847635D01*
X108885430Y-72868194D01*
X108860312Y-72914299D01*
X108848248Y-72985513D01*
X108701768Y-72985513D01*
X108701833Y-72978096D01*
X108708937Y-72907882D01*
X108722815Y-72852312D01*
X108740649Y-72815301D01*
X108790855Y-72757733D01*
X108858885Y-72721962D01*
X108942158Y-72709665D01*
X108964398Y-72710331D01*
X109029891Y-72723947D01*
X109083687Y-72758249D01*
X109133057Y-72817338D01*
X109135995Y-72821722D01*
X109149287Y-72845299D01*
X109157932Y-72871949D01*
X109162904Y-72908159D01*
X109165174Y-72960413D01*
X109165678Y-73030192D01*
X109165714Y-73035200D01*
G36*
X109165714Y-73035200D02*
G01*
X109165701Y-73050935D01*
X109164914Y-73121119D01*
X109162210Y-73170022D01*
X109156606Y-73204178D01*
X109147119Y-73230124D01*
X109132768Y-73254397D01*
X109129237Y-73259433D01*
X109091878Y-73299143D01*
X109049311Y-73329092D01*
X109027452Y-73338810D01*
X108948908Y-73355020D01*
X108871231Y-73344535D01*
X108799645Y-73308707D01*
X108739374Y-73248887D01*
X108734286Y-73240873D01*
X108717730Y-73194342D01*
X108706573Y-73129552D01*
X108701160Y-73054727D01*
X108701768Y-72985513D01*
X108848248Y-72985513D01*
X108849402Y-73081399D01*
X108849866Y-73087569D01*
X108856629Y-73140478D01*
X108868671Y-73174029D01*
X108889005Y-73197016D01*
X108923097Y-73218548D01*
X108956814Y-73219680D01*
X108991543Y-73194857D01*
X108997584Y-73188325D01*
X109009417Y-73168779D01*
X109016404Y-73140386D01*
X109019727Y-73096430D01*
X109020571Y-73030192D01*
X109019125Y-72968150D01*
X109011907Y-72909042D01*
X108997006Y-72871686D01*
X108972636Y-72852152D01*
X108937008Y-72846514D01*
X108923440Y-72847635D01*
X108885430Y-72868194D01*
X108860312Y-72914299D01*
X108848248Y-72985513D01*
X108701768Y-72985513D01*
X108701833Y-72978096D01*
X108708937Y-72907882D01*
X108722815Y-72852312D01*
X108740649Y-72815301D01*
X108790855Y-72757733D01*
X108858885Y-72721962D01*
X108942158Y-72709665D01*
X108964398Y-72710331D01*
X109029891Y-72723947D01*
X109083687Y-72758249D01*
X109133057Y-72817338D01*
X109135995Y-72821722D01*
X109149287Y-72845299D01*
X109157932Y-72871949D01*
X109162904Y-72908159D01*
X109165174Y-72960413D01*
X109165678Y-73030192D01*
X109165714Y-73035200D01*
G37*
X103040590Y-73052622D02*
X103040307Y-73091305D01*
X103036762Y-73167521D01*
X103027483Y-73223294D01*
X103010375Y-73264613D01*
X102983344Y-73297467D01*
X102944292Y-73327846D01*
X102919445Y-73341660D01*
X102879615Y-73350965D01*
X102823665Y-73350230D01*
X102792385Y-73347283D01*
X102754653Y-73338283D01*
X102724494Y-73318720D01*
X102689408Y-73282267D01*
X102684720Y-73276943D01*
X102653177Y-73235969D01*
X102638128Y-73200283D01*
X102634286Y-73157966D01*
X102634286Y-73095779D01*
X102677742Y-73112182D01*
X102709424Y-73131356D01*
X102736962Y-73176347D01*
X102742711Y-73190752D01*
X102774855Y-73231546D01*
X102818611Y-73252081D01*
X102866254Y-73250235D01*
X102910057Y-73223886D01*
X102925111Y-73207455D01*
X102938763Y-73182667D01*
X102934493Y-73160144D01*
X102909916Y-73136964D01*
X102862651Y-73110202D01*
X102790314Y-73076934D01*
X102641543Y-73011816D01*
X102637595Y-72947308D01*
X102639079Y-72906220D01*
X102736010Y-72906220D01*
X102743368Y-72931657D01*
X102776848Y-72958814D01*
X102837614Y-72989714D01*
X102847669Y-72994190D01*
X102895751Y-73015017D01*
X102931726Y-73029665D01*
X102948444Y-73035200D01*
X102950977Y-73031126D01*
X102951993Y-73006247D01*
X102948369Y-72966257D01*
X102939242Y-72927152D01*
X102910773Y-72877884D01*
X102869678Y-72850122D01*
X102820590Y-72846364D01*
X102768144Y-72869109D01*
X102753609Y-72880481D01*
X102736010Y-72906220D01*
X102639079Y-72906220D01*
X102639338Y-72899064D01*
X102661281Y-72838096D01*
X102688979Y-72804497D01*
X102746405Y-72766966D01*
X102814527Y-72748006D01*
X102884947Y-72749507D01*
X102949267Y-72773355D01*
X102963426Y-72782513D01*
X102995904Y-72810849D01*
X103018116Y-72846695D01*
X103031804Y-72895384D01*
X103038715Y-72962249D01*
X103039628Y-73006247D01*
X103040590Y-73052622D01*
G36*
X103040590Y-73052622D02*
G01*
X103040307Y-73091305D01*
X103036762Y-73167521D01*
X103027483Y-73223294D01*
X103010375Y-73264613D01*
X102983344Y-73297467D01*
X102944292Y-73327846D01*
X102919445Y-73341660D01*
X102879615Y-73350965D01*
X102823665Y-73350230D01*
X102792385Y-73347283D01*
X102754653Y-73338283D01*
X102724494Y-73318720D01*
X102689408Y-73282267D01*
X102684720Y-73276943D01*
X102653177Y-73235969D01*
X102638128Y-73200283D01*
X102634286Y-73157966D01*
X102634286Y-73095779D01*
X102677742Y-73112182D01*
X102709424Y-73131356D01*
X102736962Y-73176347D01*
X102742711Y-73190752D01*
X102774855Y-73231546D01*
X102818611Y-73252081D01*
X102866254Y-73250235D01*
X102910057Y-73223886D01*
X102925111Y-73207455D01*
X102938763Y-73182667D01*
X102934493Y-73160144D01*
X102909916Y-73136964D01*
X102862651Y-73110202D01*
X102790314Y-73076934D01*
X102641543Y-73011816D01*
X102637595Y-72947308D01*
X102639079Y-72906220D01*
X102736010Y-72906220D01*
X102743368Y-72931657D01*
X102776848Y-72958814D01*
X102837614Y-72989714D01*
X102847669Y-72994190D01*
X102895751Y-73015017D01*
X102931726Y-73029665D01*
X102948444Y-73035200D01*
X102950977Y-73031126D01*
X102951993Y-73006247D01*
X102948369Y-72966257D01*
X102939242Y-72927152D01*
X102910773Y-72877884D01*
X102869678Y-72850122D01*
X102820590Y-72846364D01*
X102768144Y-72869109D01*
X102753609Y-72880481D01*
X102736010Y-72906220D01*
X102639079Y-72906220D01*
X102639338Y-72899064D01*
X102661281Y-72838096D01*
X102688979Y-72804497D01*
X102746405Y-72766966D01*
X102814527Y-72748006D01*
X102884947Y-72749507D01*
X102949267Y-72773355D01*
X102963426Y-72782513D01*
X102995904Y-72810849D01*
X103018116Y-72846695D01*
X103031804Y-72895384D01*
X103038715Y-72962249D01*
X103039628Y-73006247D01*
X103040590Y-73052622D01*
G37*
X105130698Y-73049714D02*
X105129537Y-73106313D01*
X105121345Y-73183462D01*
X105103519Y-73241276D01*
X105073975Y-73285422D01*
X105030625Y-73321568D01*
X104989332Y-73342463D01*
X104919987Y-73354090D01*
X104850736Y-73341377D01*
X104788145Y-73305945D01*
X104738779Y-73249418D01*
X104732818Y-73238995D01*
X104724945Y-73220733D01*
X104719106Y-73197429D01*
X104714999Y-73165085D01*
X104712325Y-73119704D01*
X104710781Y-73057287D01*
X104710734Y-73051748D01*
X104811429Y-73051748D01*
X104811772Y-73104577D01*
X104813942Y-73152362D01*
X104819307Y-73183209D01*
X104829217Y-73203935D01*
X104845021Y-73221356D01*
X104848724Y-73224705D01*
X104896299Y-73249419D01*
X104946635Y-73246890D01*
X104993517Y-73217288D01*
X105007477Y-73201953D01*
X105019160Y-73181622D01*
X105025686Y-73153514D01*
X105028524Y-73110550D01*
X105029143Y-73045647D01*
X105028837Y-72996122D01*
X105026722Y-72947782D01*
X105021390Y-72916587D01*
X105011460Y-72895647D01*
X104995550Y-72878073D01*
X104986204Y-72870159D01*
X104937776Y-72848843D01*
X104887040Y-72852198D01*
X104842987Y-72880107D01*
X104833504Y-72891173D01*
X104821939Y-72912009D01*
X104815252Y-72941106D01*
X104812173Y-72985381D01*
X104811429Y-73051748D01*
X104710734Y-73051748D01*
X104710067Y-72973837D01*
X104709883Y-72865358D01*
X104709829Y-72528601D01*
X104757000Y-72548362D01*
X104769472Y-72553770D01*
X104789324Y-72565985D01*
X104800687Y-72584482D01*
X104806933Y-72616829D01*
X104811429Y-72670593D01*
X104815535Y-72718866D01*
X104820963Y-72750557D01*
X104828739Y-72762383D01*
X104840457Y-72759212D01*
X104870318Y-72748067D01*
X104923684Y-72745304D01*
X104981093Y-72755625D01*
X105030625Y-72777861D01*
X105057876Y-72798443D01*
X105092865Y-72838600D01*
X105115274Y-72890086D01*
X105127190Y-72958568D01*
X105130542Y-73045647D01*
X105130698Y-73049714D01*
G36*
X105130698Y-73049714D02*
G01*
X105129537Y-73106313D01*
X105121345Y-73183462D01*
X105103519Y-73241276D01*
X105073975Y-73285422D01*
X105030625Y-73321568D01*
X104989332Y-73342463D01*
X104919987Y-73354090D01*
X104850736Y-73341377D01*
X104788145Y-73305945D01*
X104738779Y-73249418D01*
X104732818Y-73238995D01*
X104724945Y-73220733D01*
X104719106Y-73197429D01*
X104714999Y-73165085D01*
X104712325Y-73119704D01*
X104710781Y-73057287D01*
X104710734Y-73051748D01*
X104811429Y-73051748D01*
X104811772Y-73104577D01*
X104813942Y-73152362D01*
X104819307Y-73183209D01*
X104829217Y-73203935D01*
X104845021Y-73221356D01*
X104848724Y-73224705D01*
X104896299Y-73249419D01*
X104946635Y-73246890D01*
X104993517Y-73217288D01*
X105007477Y-73201953D01*
X105019160Y-73181622D01*
X105025686Y-73153514D01*
X105028524Y-73110550D01*
X105029143Y-73045647D01*
X105028837Y-72996122D01*
X105026722Y-72947782D01*
X105021390Y-72916587D01*
X105011460Y-72895647D01*
X104995550Y-72878073D01*
X104986204Y-72870159D01*
X104937776Y-72848843D01*
X104887040Y-72852198D01*
X104842987Y-72880107D01*
X104833504Y-72891173D01*
X104821939Y-72912009D01*
X104815252Y-72941106D01*
X104812173Y-72985381D01*
X104811429Y-73051748D01*
X104710734Y-73051748D01*
X104710067Y-72973837D01*
X104709883Y-72865358D01*
X104709829Y-72528601D01*
X104757000Y-72548362D01*
X104769472Y-72553770D01*
X104789324Y-72565985D01*
X104800687Y-72584482D01*
X104806933Y-72616829D01*
X104811429Y-72670593D01*
X104815535Y-72718866D01*
X104820963Y-72750557D01*
X104828739Y-72762383D01*
X104840457Y-72759212D01*
X104870318Y-72748067D01*
X104923684Y-72745304D01*
X104981093Y-72755625D01*
X105030625Y-72777861D01*
X105057876Y-72798443D01*
X105092865Y-72838600D01*
X105115274Y-72890086D01*
X105127190Y-72958568D01*
X105130542Y-73045647D01*
X105130698Y-73049714D01*
G37*
X108062299Y-72994055D02*
X108057684Y-73104078D01*
X108055078Y-73127387D01*
X108035660Y-73210352D01*
X108000573Y-73273448D01*
X107947212Y-73321808D01*
X107944196Y-73323804D01*
X107876362Y-73352185D01*
X107805535Y-73354711D01*
X107737289Y-73333097D01*
X107677196Y-73289062D01*
X107630829Y-73224322D01*
X107630050Y-73222761D01*
X107614643Y-73182558D01*
X107603357Y-73136866D01*
X107597370Y-73093972D01*
X107597861Y-73062160D01*
X107606007Y-73049714D01*
X107613244Y-73050471D01*
X107647851Y-73064235D01*
X107687078Y-73089546D01*
X107720448Y-73118845D01*
X107737483Y-73144572D01*
X107755192Y-73179471D01*
X107791485Y-73211212D01*
X107833630Y-73223886D01*
X107849077Y-73220221D01*
X107879569Y-73201774D01*
X107906128Y-73176166D01*
X107917486Y-73152934D01*
X107917482Y-73152848D01*
X107904596Y-73142179D01*
X107870241Y-73122933D01*
X107819593Y-73097813D01*
X107757829Y-73069524D01*
X107757489Y-73069374D01*
X107690388Y-73039498D01*
X107645411Y-73017973D01*
X107618145Y-73001437D01*
X107604178Y-72986531D01*
X107599097Y-72969893D01*
X107598490Y-72948162D01*
X107602712Y-72907013D01*
X107746000Y-72907013D01*
X107760791Y-72919949D01*
X107797644Y-72939333D01*
X107798725Y-72939881D01*
X107842205Y-72960587D01*
X107881102Y-72977105D01*
X107905778Y-72984093D01*
X107915676Y-72974753D01*
X107917486Y-72942748D01*
X107909966Y-72902915D01*
X107883897Y-72866717D01*
X107846154Y-72847950D01*
X107804077Y-72849845D01*
X107765005Y-72875632D01*
X107749647Y-72893451D01*
X107746000Y-72907013D01*
X107602712Y-72907013D01*
X107603833Y-72896086D01*
X107630251Y-72825335D01*
X107674473Y-72769735D01*
X107731697Y-72731239D01*
X107797120Y-72711797D01*
X107865937Y-72713359D01*
X107933347Y-72737878D01*
X107994544Y-72787302D01*
X108028450Y-72836212D01*
X108052806Y-72906027D01*
X108056767Y-72942748D01*
X108062299Y-72994055D01*
G36*
X108062299Y-72994055D02*
G01*
X108057684Y-73104078D01*
X108055078Y-73127387D01*
X108035660Y-73210352D01*
X108000573Y-73273448D01*
X107947212Y-73321808D01*
X107944196Y-73323804D01*
X107876362Y-73352185D01*
X107805535Y-73354711D01*
X107737289Y-73333097D01*
X107677196Y-73289062D01*
X107630829Y-73224322D01*
X107630050Y-73222761D01*
X107614643Y-73182558D01*
X107603357Y-73136866D01*
X107597370Y-73093972D01*
X107597861Y-73062160D01*
X107606007Y-73049714D01*
X107613244Y-73050471D01*
X107647851Y-73064235D01*
X107687078Y-73089546D01*
X107720448Y-73118845D01*
X107737483Y-73144572D01*
X107755192Y-73179471D01*
X107791485Y-73211212D01*
X107833630Y-73223886D01*
X107849077Y-73220221D01*
X107879569Y-73201774D01*
X107906128Y-73176166D01*
X107917486Y-73152934D01*
X107917482Y-73152848D01*
X107904596Y-73142179D01*
X107870241Y-73122933D01*
X107819593Y-73097813D01*
X107757829Y-73069524D01*
X107757489Y-73069374D01*
X107690388Y-73039498D01*
X107645411Y-73017973D01*
X107618145Y-73001437D01*
X107604178Y-72986531D01*
X107599097Y-72969893D01*
X107598490Y-72948162D01*
X107602712Y-72907013D01*
X107746000Y-72907013D01*
X107760791Y-72919949D01*
X107797644Y-72939333D01*
X107798725Y-72939881D01*
X107842205Y-72960587D01*
X107881102Y-72977105D01*
X107905778Y-72984093D01*
X107915676Y-72974753D01*
X107917486Y-72942748D01*
X107909966Y-72902915D01*
X107883897Y-72866717D01*
X107846154Y-72847950D01*
X107804077Y-72849845D01*
X107765005Y-72875632D01*
X107749647Y-72893451D01*
X107746000Y-72907013D01*
X107602712Y-72907013D01*
X107603833Y-72896086D01*
X107630251Y-72825335D01*
X107674473Y-72769735D01*
X107731697Y-72731239D01*
X107797120Y-72711797D01*
X107865937Y-72713359D01*
X107933347Y-72737878D01*
X107994544Y-72787302D01*
X108028450Y-72836212D01*
X108052806Y-72906027D01*
X108056767Y-72942748D01*
X108062299Y-72994055D01*
G37*
X105989483Y-72760569D02*
X106039376Y-72789661D01*
X106061325Y-72812327D01*
X106103504Y-72880082D01*
X106117714Y-72953950D01*
X106117714Y-73004770D01*
X106070999Y-72985128D01*
X106038692Y-72965308D01*
X106013231Y-72924160D01*
X106010616Y-72915675D01*
X105982478Y-72872451D01*
X105940067Y-72849103D01*
X105891370Y-72848100D01*
X105844373Y-72871914D01*
X105837357Y-72878056D01*
X105813893Y-72904745D01*
X105810019Y-72928014D01*
X105827768Y-72950862D01*
X105869179Y-72976287D01*
X105936286Y-73007288D01*
X105940824Y-73009252D01*
X106015322Y-73043990D01*
X106066203Y-73074763D01*
X106097525Y-73105488D01*
X106113343Y-73140082D01*
X106117714Y-73182462D01*
X106111986Y-73229446D01*
X106083062Y-73289585D01*
X106032178Y-73332788D01*
X105995374Y-73345759D01*
X105943434Y-73352856D01*
X105892999Y-73351340D01*
X105856983Y-73340632D01*
X105853158Y-73337966D01*
X105842998Y-73319337D01*
X105850048Y-73286505D01*
X105862297Y-73260735D01*
X105881939Y-73250006D01*
X105919191Y-73250539D01*
X105970908Y-73247462D01*
X106004701Y-73226212D01*
X106016114Y-73186877D01*
X106016104Y-73185747D01*
X106009187Y-73162913D01*
X105985659Y-73141963D01*
X105939914Y-73117815D01*
X105877704Y-73088741D01*
X105836499Y-73072925D01*
X105812712Y-73073944D01*
X105801597Y-73094837D01*
X105798408Y-73138641D01*
X105798400Y-73208393D01*
X105798044Y-73251452D01*
X105796413Y-73304626D01*
X105793761Y-73341022D01*
X105790422Y-73354514D01*
X105789530Y-73354423D01*
X105770237Y-73347110D01*
X105738284Y-73331678D01*
X105694124Y-73308842D01*
X105699371Y-73103078D01*
X105699736Y-73089432D01*
X105703904Y-72993651D01*
X105711268Y-72921462D01*
X105723330Y-72868058D01*
X105741593Y-72828633D01*
X105767560Y-72798380D01*
X105802733Y-72772493D01*
X105803384Y-72772087D01*
X105860256Y-72750968D01*
X105926033Y-72747400D01*
X105989483Y-72760569D01*
G36*
X105989483Y-72760569D02*
G01*
X106039376Y-72789661D01*
X106061325Y-72812327D01*
X106103504Y-72880082D01*
X106117714Y-72953950D01*
X106117714Y-73004770D01*
X106070999Y-72985128D01*
X106038692Y-72965308D01*
X106013231Y-72924160D01*
X106010616Y-72915675D01*
X105982478Y-72872451D01*
X105940067Y-72849103D01*
X105891370Y-72848100D01*
X105844373Y-72871914D01*
X105837357Y-72878056D01*
X105813893Y-72904745D01*
X105810019Y-72928014D01*
X105827768Y-72950862D01*
X105869179Y-72976287D01*
X105936286Y-73007288D01*
X105940824Y-73009252D01*
X106015322Y-73043990D01*
X106066203Y-73074763D01*
X106097525Y-73105488D01*
X106113343Y-73140082D01*
X106117714Y-73182462D01*
X106111986Y-73229446D01*
X106083062Y-73289585D01*
X106032178Y-73332788D01*
X105995374Y-73345759D01*
X105943434Y-73352856D01*
X105892999Y-73351340D01*
X105856983Y-73340632D01*
X105853158Y-73337966D01*
X105842998Y-73319337D01*
X105850048Y-73286505D01*
X105862297Y-73260735D01*
X105881939Y-73250006D01*
X105919191Y-73250539D01*
X105970908Y-73247462D01*
X106004701Y-73226212D01*
X106016114Y-73186877D01*
X106016104Y-73185747D01*
X106009187Y-73162913D01*
X105985659Y-73141963D01*
X105939914Y-73117815D01*
X105877704Y-73088741D01*
X105836499Y-73072925D01*
X105812712Y-73073944D01*
X105801597Y-73094837D01*
X105798408Y-73138641D01*
X105798400Y-73208393D01*
X105798044Y-73251452D01*
X105796413Y-73304626D01*
X105793761Y-73341022D01*
X105790422Y-73354514D01*
X105789530Y-73354423D01*
X105770237Y-73347110D01*
X105738284Y-73331678D01*
X105694124Y-73308842D01*
X105699371Y-73103078D01*
X105699736Y-73089432D01*
X105703904Y-72993651D01*
X105711268Y-72921462D01*
X105723330Y-72868058D01*
X105741593Y-72828633D01*
X105767560Y-72798380D01*
X105802733Y-72772493D01*
X105803384Y-72772087D01*
X105860256Y-72750968D01*
X105926033Y-72747400D01*
X105989483Y-72760569D01*
G37*
X103867495Y-72746220D02*
X103898599Y-72754121D01*
X103927559Y-72773817D01*
X103964831Y-72810484D01*
X103988801Y-72836378D01*
X104013770Y-72869997D01*
X104025031Y-72901506D01*
X104027657Y-72941485D01*
X104027657Y-73006917D01*
X103983035Y-72983842D01*
X103947673Y-72955724D01*
X103923451Y-72917848D01*
X103919291Y-72907551D01*
X103887594Y-72867637D01*
X103843554Y-72847624D01*
X103795531Y-72849572D01*
X103751886Y-72875543D01*
X103733420Y-72896635D01*
X103722663Y-72923619D01*
X103734178Y-72947634D01*
X103769981Y-72971791D01*
X103832090Y-72999199D01*
X103841515Y-73002985D01*
X103898058Y-73027759D01*
X103946580Y-73052189D01*
X103977451Y-73071486D01*
X104008371Y-73105953D01*
X104028927Y-73160957D01*
X104026744Y-73219983D01*
X104002424Y-73275845D01*
X103956568Y-73321355D01*
X103919438Y-73340727D01*
X103847711Y-73354292D01*
X103807852Y-73352462D01*
X103770953Y-73342568D01*
X103756797Y-73321806D01*
X103762091Y-73287613D01*
X103763631Y-73283092D01*
X103775842Y-73259116D01*
X103796174Y-73250042D01*
X103834908Y-73250649D01*
X103862257Y-73251474D01*
X103894257Y-73244392D01*
X103916182Y-73223219D01*
X103928670Y-73197152D01*
X103930062Y-73169845D01*
X103929998Y-73169685D01*
X103913807Y-73154930D01*
X103879155Y-73133457D01*
X103834321Y-73109458D01*
X103787582Y-73087125D01*
X103747217Y-73070652D01*
X103721504Y-73064229D01*
X103717679Y-73070518D01*
X103712864Y-73100115D01*
X103709566Y-73148447D01*
X103708343Y-73209372D01*
X103708058Y-73251542D01*
X103706718Y-73304653D01*
X103704528Y-73341025D01*
X103701769Y-73354514D01*
X103687344Y-73349981D01*
X103658226Y-73337670D01*
X103621257Y-73320826D01*
X103621257Y-73104721D01*
X103621493Y-73049327D01*
X103623729Y-72965207D01*
X103629423Y-72902800D01*
X103639903Y-72857358D01*
X103656497Y-72824133D01*
X103680531Y-72798378D01*
X103713333Y-72775344D01*
X103755124Y-72756335D01*
X103832287Y-72744914D01*
X103867495Y-72746220D01*
G36*
X103867495Y-72746220D02*
G01*
X103898599Y-72754121D01*
X103927559Y-72773817D01*
X103964831Y-72810484D01*
X103988801Y-72836378D01*
X104013770Y-72869997D01*
X104025031Y-72901506D01*
X104027657Y-72941485D01*
X104027657Y-73006917D01*
X103983035Y-72983842D01*
X103947673Y-72955724D01*
X103923451Y-72917848D01*
X103919291Y-72907551D01*
X103887594Y-72867637D01*
X103843554Y-72847624D01*
X103795531Y-72849572D01*
X103751886Y-72875543D01*
X103733420Y-72896635D01*
X103722663Y-72923619D01*
X103734178Y-72947634D01*
X103769981Y-72971791D01*
X103832090Y-72999199D01*
X103841515Y-73002985D01*
X103898058Y-73027759D01*
X103946580Y-73052189D01*
X103977451Y-73071486D01*
X104008371Y-73105953D01*
X104028927Y-73160957D01*
X104026744Y-73219983D01*
X104002424Y-73275845D01*
X103956568Y-73321355D01*
X103919438Y-73340727D01*
X103847711Y-73354292D01*
X103807852Y-73352462D01*
X103770953Y-73342568D01*
X103756797Y-73321806D01*
X103762091Y-73287613D01*
X103763631Y-73283092D01*
X103775842Y-73259116D01*
X103796174Y-73250042D01*
X103834908Y-73250649D01*
X103862257Y-73251474D01*
X103894257Y-73244392D01*
X103916182Y-73223219D01*
X103928670Y-73197152D01*
X103930062Y-73169845D01*
X103929998Y-73169685D01*
X103913807Y-73154930D01*
X103879155Y-73133457D01*
X103834321Y-73109458D01*
X103787582Y-73087125D01*
X103747217Y-73070652D01*
X103721504Y-73064229D01*
X103717679Y-73070518D01*
X103712864Y-73100115D01*
X103709566Y-73148447D01*
X103708343Y-73209372D01*
X103708058Y-73251542D01*
X103706718Y-73304653D01*
X103704528Y-73341025D01*
X103701769Y-73354514D01*
X103687344Y-73349981D01*
X103658226Y-73337670D01*
X103621257Y-73320826D01*
X103621257Y-73104721D01*
X103621493Y-73049327D01*
X103623729Y-72965207D01*
X103629423Y-72902800D01*
X103639903Y-72857358D01*
X103656497Y-72824133D01*
X103680531Y-72798378D01*
X103713333Y-72775344D01*
X103755124Y-72756335D01*
X103832287Y-72744914D01*
X103867495Y-72746220D01*
G37*
X108609815Y-73101524D02*
X108611252Y-73213000D01*
X108611651Y-73245339D01*
X108612929Y-73353455D01*
X108613185Y-73436186D01*
X108611634Y-73496426D01*
X108607490Y-73537073D01*
X108599964Y-73561023D01*
X108588271Y-73571171D01*
X108571624Y-73570414D01*
X108549236Y-73561648D01*
X108520321Y-73547769D01*
X108514142Y-73544808D01*
X108488413Y-73530311D01*
X108474976Y-73513065D01*
X108469834Y-73484308D01*
X108468990Y-73435283D01*
X108468952Y-73347257D01*
X108378276Y-73347257D01*
X108322498Y-73344815D01*
X108278640Y-73334908D01*
X108242218Y-73314886D01*
X108239503Y-73312929D01*
X108202546Y-73279869D01*
X108176826Y-73239931D01*
X108160606Y-73187657D01*
X108152148Y-73117588D01*
X108150083Y-73038430D01*
X108294857Y-73038430D01*
X108294882Y-73051697D01*
X108296261Y-73111584D01*
X108300687Y-73150732D01*
X108309461Y-73176153D01*
X108323886Y-73194857D01*
X108324784Y-73195750D01*
X108360237Y-73219952D01*
X108394596Y-73217567D01*
X108433403Y-73188260D01*
X108442895Y-73178244D01*
X108456876Y-73157708D01*
X108464760Y-73130997D01*
X108468245Y-73090499D01*
X108469029Y-73028603D01*
X108468350Y-72991130D01*
X108460983Y-72922980D01*
X108444168Y-72878330D01*
X108416234Y-72853926D01*
X108375509Y-72846514D01*
X108358350Y-72848094D01*
X108328660Y-72863766D01*
X108309031Y-72898691D01*
X108298188Y-72955901D01*
X108294857Y-73038430D01*
X108150083Y-73038430D01*
X108149714Y-73024267D01*
X108150253Y-72956169D01*
X108152707Y-72904587D01*
X108158158Y-72868816D01*
X108167686Y-72842015D01*
X108182371Y-72817338D01*
X108195852Y-72798480D01*
X108244799Y-72747568D01*
X108300256Y-72719918D01*
X108369928Y-72711165D01*
X108449664Y-72719890D01*
X108518595Y-72751185D01*
X108573113Y-72806381D01*
X108577223Y-72812224D01*
X108586808Y-72827753D01*
X108594151Y-72845498D01*
X108599612Y-72869290D01*
X108603550Y-72902958D01*
X108606323Y-72950333D01*
X108608292Y-73015245D01*
X108608528Y-73028603D01*
X108609815Y-73101524D01*
G36*
X108609815Y-73101524D02*
G01*
X108611252Y-73213000D01*
X108611651Y-73245339D01*
X108612929Y-73353455D01*
X108613185Y-73436186D01*
X108611634Y-73496426D01*
X108607490Y-73537073D01*
X108599964Y-73561023D01*
X108588271Y-73571171D01*
X108571624Y-73570414D01*
X108549236Y-73561648D01*
X108520321Y-73547769D01*
X108514142Y-73544808D01*
X108488413Y-73530311D01*
X108474976Y-73513065D01*
X108469834Y-73484308D01*
X108468990Y-73435283D01*
X108468952Y-73347257D01*
X108378276Y-73347257D01*
X108322498Y-73344815D01*
X108278640Y-73334908D01*
X108242218Y-73314886D01*
X108239503Y-73312929D01*
X108202546Y-73279869D01*
X108176826Y-73239931D01*
X108160606Y-73187657D01*
X108152148Y-73117588D01*
X108150083Y-73038430D01*
X108294857Y-73038430D01*
X108294882Y-73051697D01*
X108296261Y-73111584D01*
X108300687Y-73150732D01*
X108309461Y-73176153D01*
X108323886Y-73194857D01*
X108324784Y-73195750D01*
X108360237Y-73219952D01*
X108394596Y-73217567D01*
X108433403Y-73188260D01*
X108442895Y-73178244D01*
X108456876Y-73157708D01*
X108464760Y-73130997D01*
X108468245Y-73090499D01*
X108469029Y-73028603D01*
X108468350Y-72991130D01*
X108460983Y-72922980D01*
X108444168Y-72878330D01*
X108416234Y-72853926D01*
X108375509Y-72846514D01*
X108358350Y-72848094D01*
X108328660Y-72863766D01*
X108309031Y-72898691D01*
X108298188Y-72955901D01*
X108294857Y-73038430D01*
X108150083Y-73038430D01*
X108149714Y-73024267D01*
X108150253Y-72956169D01*
X108152707Y-72904587D01*
X108158158Y-72868816D01*
X108167686Y-72842015D01*
X108182371Y-72817338D01*
X108195852Y-72798480D01*
X108244799Y-72747568D01*
X108300256Y-72719918D01*
X108369928Y-72711165D01*
X108449664Y-72719890D01*
X108518595Y-72751185D01*
X108573113Y-72806381D01*
X108577223Y-72812224D01*
X108586808Y-72827753D01*
X108594151Y-72845498D01*
X108599612Y-72869290D01*
X108603550Y-72902958D01*
X108606323Y-72950333D01*
X108608292Y-73015245D01*
X108608528Y-73028603D01*
X108609815Y-73101524D01*
G37*
X106013933Y-68042371D02*
X106089856Y-68042865D01*
X106144491Y-68044135D01*
X106181500Y-68046547D01*
X106204547Y-68050467D01*
X106217296Y-68056262D01*
X106223411Y-68064299D01*
X106226556Y-68074943D01*
X106226646Y-68075325D01*
X106231814Y-68100347D01*
X106241209Y-68148681D01*
X106253867Y-68215260D01*
X106268825Y-68295014D01*
X106285119Y-68382875D01*
X106286448Y-68390064D01*
X106302691Y-68475340D01*
X106317805Y-68550242D01*
X106330808Y-68610219D01*
X106340715Y-68650717D01*
X106346544Y-68667184D01*
X106346575Y-68667210D01*
X106364943Y-68676320D01*
X106402640Y-68691457D01*
X106451543Y-68709358D01*
X106454297Y-68710330D01*
X106516817Y-68733959D01*
X106589543Y-68763595D01*
X106657294Y-68793062D01*
X106768703Y-68843626D01*
X107015399Y-68675160D01*
X107032775Y-68663311D01*
X107107202Y-68612947D01*
X107173614Y-68568612D01*
X107228039Y-68532916D01*
X107266506Y-68508471D01*
X107285042Y-68497889D01*
X107297743Y-68500315D01*
X107326579Y-68519110D01*
X107371143Y-68556330D01*
X107432670Y-68613020D01*
X107512398Y-68690227D01*
X107519532Y-68697255D01*
X107582796Y-68760222D01*
X107638990Y-68817268D01*
X107684677Y-68864817D01*
X107716414Y-68899297D01*
X107730764Y-68917131D01*
X107730810Y-68917217D01*
X107732633Y-68930795D01*
X107725910Y-68952820D01*
X107708946Y-68986304D01*
X107680044Y-69034261D01*
X107637508Y-69099704D01*
X107579644Y-69185645D01*
X107569783Y-69200151D01*
X107519913Y-69273635D01*
X107475905Y-69338687D01*
X107440380Y-69391417D01*
X107415959Y-69427936D01*
X107405264Y-69444356D01*
X107404458Y-69447834D01*
X107409518Y-69473785D01*
X107424677Y-69516159D01*
X107447463Y-69567728D01*
X107478429Y-69635170D01*
X107513004Y-69715195D01*
X107542366Y-69787629D01*
X107549645Y-69806377D01*
X107568710Y-69854246D01*
X107582715Y-69887596D01*
X107589041Y-69900114D01*
X107596025Y-69901050D01*
X107627413Y-69906461D01*
X107678787Y-69915806D01*
X107744802Y-69928069D01*
X107820113Y-69942232D01*
X107899375Y-69957280D01*
X107977243Y-69972195D01*
X108048370Y-69985961D01*
X108107412Y-69997562D01*
X108149022Y-70005980D01*
X108167857Y-70010199D01*
X108170980Y-70011389D01*
X108178591Y-70017805D01*
X108184254Y-70031465D01*
X108188251Y-70055999D01*
X108190866Y-70095038D01*
X108192384Y-70152213D01*
X108193086Y-70231154D01*
X108193257Y-70335492D01*
X108193257Y-70652799D01*
X108117057Y-70667839D01*
X108107840Y-70669642D01*
X108058891Y-70678980D01*
X107991205Y-70691669D01*
X107912478Y-70706273D01*
X107830400Y-70721355D01*
X107798078Y-70727422D01*
X107725855Y-70742181D01*
X107665666Y-70756137D01*
X107623040Y-70767952D01*
X107603510Y-70776287D01*
X107594660Y-70789905D01*
X107578548Y-70825938D01*
X107562065Y-70872572D01*
X107556263Y-70890034D01*
X107534906Y-70947358D01*
X107507359Y-71015201D01*
X107478107Y-71082355D01*
X107462463Y-71117430D01*
X107440174Y-71169822D01*
X107424857Y-71209058D01*
X107419162Y-71228563D01*
X107419478Y-71230036D01*
X107430281Y-71250729D01*
X107454638Y-71290665D01*
X107490081Y-71345972D01*
X107534136Y-71412781D01*
X107584332Y-71487220D01*
X107749501Y-71729623D01*
X107532503Y-71946983D01*
X107511516Y-71967899D01*
X107447342Y-72030505D01*
X107389990Y-72084495D01*
X107342820Y-72126826D01*
X107309192Y-72154457D01*
X107292467Y-72164343D01*
X107274303Y-72156821D01*
X107236265Y-72135227D01*
X107182726Y-72102151D01*
X107117884Y-72060191D01*
X107045940Y-72011943D01*
X106975275Y-71964291D01*
X106911526Y-71922328D01*
X106859513Y-71889165D01*
X106823279Y-71867378D01*
X106806867Y-71859543D01*
X106805905Y-71859614D01*
X106784103Y-71867338D01*
X106745440Y-71885323D01*
X106697612Y-71910013D01*
X106697110Y-71910284D01*
X106633587Y-71942099D01*
X106590060Y-71957642D01*
X106563052Y-71957685D01*
X106549090Y-71943000D01*
X106543180Y-71928544D01*
X106527229Y-71889831D01*
X106502660Y-71830316D01*
X106470779Y-71753165D01*
X106432893Y-71661541D01*
X106390310Y-71558607D01*
X106344337Y-71447526D01*
X106302667Y-71346472D01*
X106260268Y-71242780D01*
X106222756Y-71150119D01*
X106191388Y-71071642D01*
X106167425Y-71010500D01*
X106152123Y-70969843D01*
X106146743Y-70952825D01*
X106157018Y-70937219D01*
X106185563Y-70911162D01*
X106225971Y-70880887D01*
X106322979Y-70801684D01*
X106409793Y-70700475D01*
X106473322Y-70589116D01*
X106513177Y-70470893D01*
X106528965Y-70349095D01*
X106520296Y-70227010D01*
X106486778Y-70107925D01*
X106428021Y-69995129D01*
X106343632Y-69891911D01*
X106299631Y-69851713D01*
X106194211Y-69780638D01*
X106081410Y-69734301D01*
X105964525Y-69711599D01*
X105846853Y-69711428D01*
X105731690Y-69732687D01*
X105622335Y-69774270D01*
X105522083Y-69835076D01*
X105434233Y-69914001D01*
X105362080Y-70009941D01*
X105308922Y-70121795D01*
X105278057Y-70248457D01*
X105272392Y-70309507D01*
X105280185Y-70441776D01*
X105315284Y-70567266D01*
X105376649Y-70683759D01*
X105463243Y-70789039D01*
X105574029Y-70880887D01*
X105612931Y-70909930D01*
X105642104Y-70936272D01*
X105653257Y-70952800D01*
X105648810Y-70967209D01*
X105634378Y-71005815D01*
X105611173Y-71065201D01*
X105580452Y-71142215D01*
X105543474Y-71233703D01*
X105501496Y-71336516D01*
X105455778Y-71447502D01*
X105414178Y-71548072D01*
X105371222Y-71651947D01*
X105332829Y-71744819D01*
X105300305Y-71823525D01*
X105274958Y-71884899D01*
X105258095Y-71925779D01*
X105251025Y-71943000D01*
X105250943Y-71943204D01*
X105236798Y-71957745D01*
X105209659Y-71957579D01*
X105166023Y-71941927D01*
X105102388Y-71910013D01*
X105097379Y-71907326D01*
X105050125Y-71883150D01*
X105012811Y-71866037D01*
X104993133Y-71859543D01*
X104977005Y-71867218D01*
X104940959Y-71888871D01*
X104889092Y-71921928D01*
X104825445Y-71963810D01*
X104754060Y-72011943D01*
X104683724Y-72059131D01*
X104618670Y-72101267D01*
X104564820Y-72134578D01*
X104526374Y-72156469D01*
X104507534Y-72164343D01*
X104504325Y-72163343D01*
X104481954Y-72147584D01*
X104443733Y-72115033D01*
X104393021Y-72068733D01*
X104333181Y-72011726D01*
X104267571Y-71947058D01*
X104050648Y-71729772D01*
X104219601Y-71481253D01*
X104388553Y-71232733D01*
X104337183Y-71121595D01*
X104337031Y-71121266D01*
X104306183Y-71050418D01*
X104274661Y-70971523D01*
X104249266Y-70901600D01*
X104245423Y-70890322D01*
X104226047Y-70837967D01*
X104208574Y-70797283D01*
X104196388Y-70776287D01*
X104191426Y-70773322D01*
X104161634Y-70763375D01*
X104111047Y-70750505D01*
X104045194Y-70736053D01*
X103969600Y-70721355D01*
X103946957Y-70717210D01*
X103865038Y-70702116D01*
X103788600Y-70687899D01*
X103725337Y-70675995D01*
X103682943Y-70667839D01*
X103606743Y-70652799D01*
X103606743Y-70335492D01*
X103606760Y-70296476D01*
X103607082Y-70201292D01*
X103608033Y-70130255D01*
X103609896Y-70079734D01*
X103612955Y-70046098D01*
X103617494Y-70025718D01*
X103623795Y-70014962D01*
X103632143Y-70010199D01*
X103640224Y-70008270D01*
X103673172Y-70001445D01*
X103725736Y-69991022D01*
X103792569Y-69978018D01*
X103868328Y-69963449D01*
X103947665Y-69948333D01*
X104025237Y-69933685D01*
X104095698Y-69920523D01*
X104153702Y-69909863D01*
X104193904Y-69902721D01*
X104210959Y-69900114D01*
X104212112Y-69898541D01*
X104221385Y-69878119D01*
X104237432Y-69839045D01*
X104257635Y-69787629D01*
X104285672Y-69718353D01*
X104320186Y-69638290D01*
X104352538Y-69567728D01*
X104359952Y-69551889D01*
X104380755Y-69502293D01*
X104393219Y-69464038D01*
X104394863Y-69444356D01*
X104394015Y-69442962D01*
X104380548Y-69422420D01*
X104353850Y-69382516D01*
X104316539Y-69327140D01*
X104271234Y-69260177D01*
X104220552Y-69185517D01*
X104163445Y-69100692D01*
X104120607Y-69034800D01*
X104091460Y-68986478D01*
X104074317Y-68952733D01*
X104067495Y-68930572D01*
X104069306Y-68917002D01*
X104069915Y-68915984D01*
X104086297Y-68896210D01*
X104119695Y-68860175D01*
X104166671Y-68811451D01*
X104223786Y-68753612D01*
X104287603Y-68690227D01*
X104353802Y-68625905D01*
X104418648Y-68565447D01*
X104466299Y-68524655D01*
X104497990Y-68502484D01*
X104514958Y-68497889D01*
X104517175Y-68498921D01*
X104540524Y-68512837D01*
X104582912Y-68540030D01*
X104640369Y-68577889D01*
X104708923Y-68623803D01*
X104784601Y-68675160D01*
X105031298Y-68843626D01*
X105142706Y-68793062D01*
X105145943Y-68791597D01*
X105214343Y-68761965D01*
X105286907Y-68732493D01*
X105348457Y-68709358D01*
X105348729Y-68709262D01*
X105397595Y-68691367D01*
X105435212Y-68676253D01*
X105453457Y-68667184D01*
X105453752Y-68666855D01*
X105459946Y-68648282D01*
X105470139Y-68606045D01*
X105483348Y-68544696D01*
X105498590Y-68468789D01*
X105514881Y-68382875D01*
X105515449Y-68379796D01*
X105531713Y-68292128D01*
X105546608Y-68212741D01*
X105559171Y-68146701D01*
X105568438Y-68099079D01*
X105573444Y-68074943D01*
X105573764Y-68073605D01*
X105577060Y-68063273D01*
X105583738Y-68055506D01*
X105597462Y-68049940D01*
X105621895Y-68046207D01*
X105660702Y-68043942D01*
X105717546Y-68042778D01*
X105796090Y-68042348D01*
X105900000Y-68042286D01*
X105913056Y-68042286D01*
X106013933Y-68042371D01*
G36*
X106013933Y-68042371D02*
G01*
X106089856Y-68042865D01*
X106144491Y-68044135D01*
X106181500Y-68046547D01*
X106204547Y-68050467D01*
X106217296Y-68056262D01*
X106223411Y-68064299D01*
X106226556Y-68074943D01*
X106226646Y-68075325D01*
X106231814Y-68100347D01*
X106241209Y-68148681D01*
X106253867Y-68215260D01*
X106268825Y-68295014D01*
X106285119Y-68382875D01*
X106286448Y-68390064D01*
X106302691Y-68475340D01*
X106317805Y-68550242D01*
X106330808Y-68610219D01*
X106340715Y-68650717D01*
X106346544Y-68667184D01*
X106346575Y-68667210D01*
X106364943Y-68676320D01*
X106402640Y-68691457D01*
X106451543Y-68709358D01*
X106454297Y-68710330D01*
X106516817Y-68733959D01*
X106589543Y-68763595D01*
X106657294Y-68793062D01*
X106768703Y-68843626D01*
X107015399Y-68675160D01*
X107032775Y-68663311D01*
X107107202Y-68612947D01*
X107173614Y-68568612D01*
X107228039Y-68532916D01*
X107266506Y-68508471D01*
X107285042Y-68497889D01*
X107297743Y-68500315D01*
X107326579Y-68519110D01*
X107371143Y-68556330D01*
X107432670Y-68613020D01*
X107512398Y-68690227D01*
X107519532Y-68697255D01*
X107582796Y-68760222D01*
X107638990Y-68817268D01*
X107684677Y-68864817D01*
X107716414Y-68899297D01*
X107730764Y-68917131D01*
X107730810Y-68917217D01*
X107732633Y-68930795D01*
X107725910Y-68952820D01*
X107708946Y-68986304D01*
X107680044Y-69034261D01*
X107637508Y-69099704D01*
X107579644Y-69185645D01*
X107569783Y-69200151D01*
X107519913Y-69273635D01*
X107475905Y-69338687D01*
X107440380Y-69391417D01*
X107415959Y-69427936D01*
X107405264Y-69444356D01*
X107404458Y-69447834D01*
X107409518Y-69473785D01*
X107424677Y-69516159D01*
X107447463Y-69567728D01*
X107478429Y-69635170D01*
X107513004Y-69715195D01*
X107542366Y-69787629D01*
X107549645Y-69806377D01*
X107568710Y-69854246D01*
X107582715Y-69887596D01*
X107589041Y-69900114D01*
X107596025Y-69901050D01*
X107627413Y-69906461D01*
X107678787Y-69915806D01*
X107744802Y-69928069D01*
X107820113Y-69942232D01*
X107899375Y-69957280D01*
X107977243Y-69972195D01*
X108048370Y-69985961D01*
X108107412Y-69997562D01*
X108149022Y-70005980D01*
X108167857Y-70010199D01*
X108170980Y-70011389D01*
X108178591Y-70017805D01*
X108184254Y-70031465D01*
X108188251Y-70055999D01*
X108190866Y-70095038D01*
X108192384Y-70152213D01*
X108193086Y-70231154D01*
X108193257Y-70335492D01*
X108193257Y-70652799D01*
X108117057Y-70667839D01*
X108107840Y-70669642D01*
X108058891Y-70678980D01*
X107991205Y-70691669D01*
X107912478Y-70706273D01*
X107830400Y-70721355D01*
X107798078Y-70727422D01*
X107725855Y-70742181D01*
X107665666Y-70756137D01*
X107623040Y-70767952D01*
X107603510Y-70776287D01*
X107594660Y-70789905D01*
X107578548Y-70825938D01*
X107562065Y-70872572D01*
X107556263Y-70890034D01*
X107534906Y-70947358D01*
X107507359Y-71015201D01*
X107478107Y-71082355D01*
X107462463Y-71117430D01*
X107440174Y-71169822D01*
X107424857Y-71209058D01*
X107419162Y-71228563D01*
X107419478Y-71230036D01*
X107430281Y-71250729D01*
X107454638Y-71290665D01*
X107490081Y-71345972D01*
X107534136Y-71412781D01*
X107584332Y-71487220D01*
X107749501Y-71729623D01*
X107532503Y-71946983D01*
X107511516Y-71967899D01*
X107447342Y-72030505D01*
X107389990Y-72084495D01*
X107342820Y-72126826D01*
X107309192Y-72154457D01*
X107292467Y-72164343D01*
X107274303Y-72156821D01*
X107236265Y-72135227D01*
X107182726Y-72102151D01*
X107117884Y-72060191D01*
X107045940Y-72011943D01*
X106975275Y-71964291D01*
X106911526Y-71922328D01*
X106859513Y-71889165D01*
X106823279Y-71867378D01*
X106806867Y-71859543D01*
X106805905Y-71859614D01*
X106784103Y-71867338D01*
X106745440Y-71885323D01*
X106697612Y-71910013D01*
X106697110Y-71910284D01*
X106633587Y-71942099D01*
X106590060Y-71957642D01*
X106563052Y-71957685D01*
X106549090Y-71943000D01*
X106543180Y-71928544D01*
X106527229Y-71889831D01*
X106502660Y-71830316D01*
X106470779Y-71753165D01*
X106432893Y-71661541D01*
X106390310Y-71558607D01*
X106344337Y-71447526D01*
X106302667Y-71346472D01*
X106260268Y-71242780D01*
X106222756Y-71150119D01*
X106191388Y-71071642D01*
X106167425Y-71010500D01*
X106152123Y-70969843D01*
X106146743Y-70952825D01*
X106157018Y-70937219D01*
X106185563Y-70911162D01*
X106225971Y-70880887D01*
X106322979Y-70801684D01*
X106409793Y-70700475D01*
X106473322Y-70589116D01*
X106513177Y-70470893D01*
X106528965Y-70349095D01*
X106520296Y-70227010D01*
X106486778Y-70107925D01*
X106428021Y-69995129D01*
X106343632Y-69891911D01*
X106299631Y-69851713D01*
X106194211Y-69780638D01*
X106081410Y-69734301D01*
X105964525Y-69711599D01*
X105846853Y-69711428D01*
X105731690Y-69732687D01*
X105622335Y-69774270D01*
X105522083Y-69835076D01*
X105434233Y-69914001D01*
X105362080Y-70009941D01*
X105308922Y-70121795D01*
X105278057Y-70248457D01*
X105272392Y-70309507D01*
X105280185Y-70441776D01*
X105315284Y-70567266D01*
X105376649Y-70683759D01*
X105463243Y-70789039D01*
X105574029Y-70880887D01*
X105612931Y-70909930D01*
X105642104Y-70936272D01*
X105653257Y-70952800D01*
X105648810Y-70967209D01*
X105634378Y-71005815D01*
X105611173Y-71065201D01*
X105580452Y-71142215D01*
X105543474Y-71233703D01*
X105501496Y-71336516D01*
X105455778Y-71447502D01*
X105414178Y-71548072D01*
X105371222Y-71651947D01*
X105332829Y-71744819D01*
X105300305Y-71823525D01*
X105274958Y-71884899D01*
X105258095Y-71925779D01*
X105251025Y-71943000D01*
X105250943Y-71943204D01*
X105236798Y-71957745D01*
X105209659Y-71957579D01*
X105166023Y-71941927D01*
X105102388Y-71910013D01*
X105097379Y-71907326D01*
X105050125Y-71883150D01*
X105012811Y-71866037D01*
X104993133Y-71859543D01*
X104977005Y-71867218D01*
X104940959Y-71888871D01*
X104889092Y-71921928D01*
X104825445Y-71963810D01*
X104754060Y-72011943D01*
X104683724Y-72059131D01*
X104618670Y-72101267D01*
X104564820Y-72134578D01*
X104526374Y-72156469D01*
X104507534Y-72164343D01*
X104504325Y-72163343D01*
X104481954Y-72147584D01*
X104443733Y-72115033D01*
X104393021Y-72068733D01*
X104333181Y-72011726D01*
X104267571Y-71947058D01*
X104050648Y-71729772D01*
X104219601Y-71481253D01*
X104388553Y-71232733D01*
X104337183Y-71121595D01*
X104337031Y-71121266D01*
X104306183Y-71050418D01*
X104274661Y-70971523D01*
X104249266Y-70901600D01*
X104245423Y-70890322D01*
X104226047Y-70837967D01*
X104208574Y-70797283D01*
X104196388Y-70776287D01*
X104191426Y-70773322D01*
X104161634Y-70763375D01*
X104111047Y-70750505D01*
X104045194Y-70736053D01*
X103969600Y-70721355D01*
X103946957Y-70717210D01*
X103865038Y-70702116D01*
X103788600Y-70687899D01*
X103725337Y-70675995D01*
X103682943Y-70667839D01*
X103606743Y-70652799D01*
X103606743Y-70335492D01*
X103606760Y-70296476D01*
X103607082Y-70201292D01*
X103608033Y-70130255D01*
X103609896Y-70079734D01*
X103612955Y-70046098D01*
X103617494Y-70025718D01*
X103623795Y-70014962D01*
X103632143Y-70010199D01*
X103640224Y-70008270D01*
X103673172Y-70001445D01*
X103725736Y-69991022D01*
X103792569Y-69978018D01*
X103868328Y-69963449D01*
X103947665Y-69948333D01*
X104025237Y-69933685D01*
X104095698Y-69920523D01*
X104153702Y-69909863D01*
X104193904Y-69902721D01*
X104210959Y-69900114D01*
X104212112Y-69898541D01*
X104221385Y-69878119D01*
X104237432Y-69839045D01*
X104257635Y-69787629D01*
X104285672Y-69718353D01*
X104320186Y-69638290D01*
X104352538Y-69567728D01*
X104359952Y-69551889D01*
X104380755Y-69502293D01*
X104393219Y-69464038D01*
X104394863Y-69444356D01*
X104394015Y-69442962D01*
X104380548Y-69422420D01*
X104353850Y-69382516D01*
X104316539Y-69327140D01*
X104271234Y-69260177D01*
X104220552Y-69185517D01*
X104163445Y-69100692D01*
X104120607Y-69034800D01*
X104091460Y-68986478D01*
X104074317Y-68952733D01*
X104067495Y-68930572D01*
X104069306Y-68917002D01*
X104069915Y-68915984D01*
X104086297Y-68896210D01*
X104119695Y-68860175D01*
X104166671Y-68811451D01*
X104223786Y-68753612D01*
X104287603Y-68690227D01*
X104353802Y-68625905D01*
X104418648Y-68565447D01*
X104466299Y-68524655D01*
X104497990Y-68502484D01*
X104514958Y-68497889D01*
X104517175Y-68498921D01*
X104540524Y-68512837D01*
X104582912Y-68540030D01*
X104640369Y-68577889D01*
X104708923Y-68623803D01*
X104784601Y-68675160D01*
X105031298Y-68843626D01*
X105142706Y-68793062D01*
X105145943Y-68791597D01*
X105214343Y-68761965D01*
X105286907Y-68732493D01*
X105348457Y-68709358D01*
X105348729Y-68709262D01*
X105397595Y-68691367D01*
X105435212Y-68676253D01*
X105453457Y-68667184D01*
X105453752Y-68666855D01*
X105459946Y-68648282D01*
X105470139Y-68606045D01*
X105483348Y-68544696D01*
X105498590Y-68468789D01*
X105514881Y-68382875D01*
X105515449Y-68379796D01*
X105531713Y-68292128D01*
X105546608Y-68212741D01*
X105559171Y-68146701D01*
X105568438Y-68099079D01*
X105573444Y-68074943D01*
X105573764Y-68073605D01*
X105577060Y-68063273D01*
X105583738Y-68055506D01*
X105597462Y-68049940D01*
X105621895Y-68046207D01*
X105660702Y-68043942D01*
X105717546Y-68042778D01*
X105796090Y-68042348D01*
X105900000Y-68042286D01*
X105913056Y-68042286D01*
X106013933Y-68042371D01*
G37*
D11*
X107423975Y-65500000D02*
G75*
G02*
X104376025Y-65500000I-1523975J0D01*
G01*
X104376025Y-65500000D02*
G75*
G02*
X107423975Y-65500000I1523975J0D01*
G01*
D12*
X106531192Y-66283879D02*
X105983436Y-66283879D01*
X105971044Y-66022394D01*
X106531192Y-66022394D01*
X106531192Y-66283879D01*
G36*
X106531192Y-66283879D02*
G01*
X105983436Y-66283879D01*
X105971044Y-66022394D01*
X106531192Y-66022394D01*
X106531192Y-66283879D01*
G37*
X106531192Y-65630786D02*
X106091252Y-65630786D01*
X106091252Y-65391608D01*
X106531192Y-65391608D01*
X106531192Y-65630786D01*
G36*
X106531192Y-65630786D02*
G01*
X106091252Y-65630786D01*
X106091252Y-65391608D01*
X106531192Y-65391608D01*
X106531192Y-65630786D01*
G37*
X106531192Y-65000000D02*
X105971044Y-65000000D01*
X105983436Y-64739754D01*
X106531192Y-64739754D01*
X106531192Y-65000000D01*
G36*
X106531192Y-65000000D02*
G01*
X105971044Y-65000000D01*
X105983436Y-64739754D01*
X106531192Y-64739754D01*
X106531192Y-65000000D01*
G37*
X106956260Y-66283879D02*
X106629094Y-66283879D01*
X106629094Y-64739754D01*
X106956260Y-64739754D01*
X106956260Y-66283879D01*
G36*
X106956260Y-66283879D02*
G01*
X106629094Y-66283879D01*
X106629094Y-64739754D01*
X106956260Y-64739754D01*
X106956260Y-66283879D01*
G37*
X105210134Y-65000000D02*
X105137017Y-65000000D01*
X105132491Y-65000192D01*
X105124101Y-65001025D01*
X105116707Y-65002179D01*
X105108234Y-65003977D01*
X105098988Y-65006565D01*
X105089280Y-65010084D01*
X105079418Y-65014679D01*
X105069710Y-65020493D01*
X105060464Y-65027670D01*
X105051991Y-65036352D01*
X105048139Y-65041303D01*
X105044597Y-65046684D01*
X105041402Y-65052513D01*
X105038592Y-65058808D01*
X105036207Y-65065587D01*
X105034284Y-65072868D01*
X105032863Y-65080669D01*
X105031983Y-65089008D01*
X105031680Y-65097902D01*
X105031680Y-65924492D01*
X105031886Y-65928698D01*
X105032783Y-65936496D01*
X105034024Y-65943368D01*
X105035959Y-65951244D01*
X105038743Y-65959836D01*
X105042530Y-65968859D01*
X105047474Y-65978026D01*
X105053730Y-65987049D01*
X105061451Y-65995641D01*
X105070793Y-66003517D01*
X105076120Y-66007096D01*
X105081909Y-66010389D01*
X105088181Y-66013359D01*
X105094954Y-66015970D01*
X105102248Y-66018187D01*
X105110082Y-66019973D01*
X105118476Y-66021294D01*
X105127448Y-66022113D01*
X105137017Y-66022394D01*
X105210134Y-66022394D01*
X105210134Y-66283879D01*
X105077533Y-66283879D01*
X105076463Y-66283868D01*
X105068313Y-66283601D01*
X105061505Y-66283220D01*
X105053059Y-66282593D01*
X105043109Y-66281657D01*
X105031794Y-66280350D01*
X105019249Y-66278612D01*
X105005612Y-66276379D01*
X104991018Y-66273592D01*
X104975604Y-66270187D01*
X104959508Y-66266103D01*
X104942865Y-66261278D01*
X104925812Y-66255651D01*
X104908486Y-66249160D01*
X104891024Y-66241744D01*
X104873562Y-66233339D01*
X104856236Y-66223886D01*
X104839183Y-66213321D01*
X104822540Y-66201584D01*
X104806444Y-66188612D01*
X104791030Y-66174344D01*
X104776436Y-66158718D01*
X104762799Y-66141673D01*
X104750254Y-66123146D01*
X104738939Y-66103077D01*
X104728989Y-66081402D01*
X104720543Y-66058061D01*
X104713735Y-66032992D01*
X104708704Y-66006133D01*
X104705585Y-65977422D01*
X104704514Y-65946799D01*
X104704514Y-65076834D01*
X104704606Y-65073049D01*
X104705243Y-65062351D01*
X104705937Y-65054718D01*
X104706973Y-65045727D01*
X104708419Y-65035502D01*
X104710343Y-65024166D01*
X104712813Y-65011842D01*
X104715898Y-64998654D01*
X104719666Y-64984726D01*
X104724185Y-64970180D01*
X104729524Y-64955141D01*
X104735751Y-64939731D01*
X104742934Y-64924075D01*
X104751142Y-64908294D01*
X104760442Y-64892514D01*
X104770904Y-64876858D01*
X104782595Y-64861448D01*
X104795584Y-64846409D01*
X104809938Y-64831863D01*
X104825727Y-64817935D01*
X104843019Y-64804747D01*
X104861882Y-64792423D01*
X104882384Y-64781087D01*
X104904593Y-64770862D01*
X104928579Y-64761871D01*
X104954408Y-64754238D01*
X104982150Y-64748087D01*
X105011873Y-64743540D01*
X105043644Y-64740721D01*
X105077533Y-64739754D01*
X105210134Y-64739754D01*
X105210134Y-65000000D01*
G36*
X105210134Y-65000000D02*
G01*
X105137017Y-65000000D01*
X105132491Y-65000192D01*
X105124101Y-65001025D01*
X105116707Y-65002179D01*
X105108234Y-65003977D01*
X105098988Y-65006565D01*
X105089280Y-65010084D01*
X105079418Y-65014679D01*
X105069710Y-65020493D01*
X105060464Y-65027670D01*
X105051991Y-65036352D01*
X105048139Y-65041303D01*
X105044597Y-65046684D01*
X105041402Y-65052513D01*
X105038592Y-65058808D01*
X105036207Y-65065587D01*
X105034284Y-65072868D01*
X105032863Y-65080669D01*
X105031983Y-65089008D01*
X105031680Y-65097902D01*
X105031680Y-65924492D01*
X105031886Y-65928698D01*
X105032783Y-65936496D01*
X105034024Y-65943368D01*
X105035959Y-65951244D01*
X105038743Y-65959836D01*
X105042530Y-65968859D01*
X105047474Y-65978026D01*
X105053730Y-65987049D01*
X105061451Y-65995641D01*
X105070793Y-66003517D01*
X105076120Y-66007096D01*
X105081909Y-66010389D01*
X105088181Y-66013359D01*
X105094954Y-66015970D01*
X105102248Y-66018187D01*
X105110082Y-66019973D01*
X105118476Y-66021294D01*
X105127448Y-66022113D01*
X105137017Y-66022394D01*
X105210134Y-66022394D01*
X105210134Y-66283879D01*
X105077533Y-66283879D01*
X105076463Y-66283868D01*
X105068313Y-66283601D01*
X105061505Y-66283220D01*
X105053059Y-66282593D01*
X105043109Y-66281657D01*
X105031794Y-66280350D01*
X105019249Y-66278612D01*
X105005612Y-66276379D01*
X104991018Y-66273592D01*
X104975604Y-66270187D01*
X104959508Y-66266103D01*
X104942865Y-66261278D01*
X104925812Y-66255651D01*
X104908486Y-66249160D01*
X104891024Y-66241744D01*
X104873562Y-66233339D01*
X104856236Y-66223886D01*
X104839183Y-66213321D01*
X104822540Y-66201584D01*
X104806444Y-66188612D01*
X104791030Y-66174344D01*
X104776436Y-66158718D01*
X104762799Y-66141673D01*
X104750254Y-66123146D01*
X104738939Y-66103077D01*
X104728989Y-66081402D01*
X104720543Y-66058061D01*
X104713735Y-66032992D01*
X104708704Y-66006133D01*
X104705585Y-65977422D01*
X104704514Y-65946799D01*
X104704514Y-65076834D01*
X104704606Y-65073049D01*
X104705243Y-65062351D01*
X104705937Y-65054718D01*
X104706973Y-65045727D01*
X104708419Y-65035502D01*
X104710343Y-65024166D01*
X104712813Y-65011842D01*
X104715898Y-64998654D01*
X104719666Y-64984726D01*
X104724185Y-64970180D01*
X104729524Y-64955141D01*
X104735751Y-64939731D01*
X104742934Y-64924075D01*
X104751142Y-64908294D01*
X104760442Y-64892514D01*
X104770904Y-64876858D01*
X104782595Y-64861448D01*
X104795584Y-64846409D01*
X104809938Y-64831863D01*
X104825727Y-64817935D01*
X104843019Y-64804747D01*
X104861882Y-64792423D01*
X104882384Y-64781087D01*
X104904593Y-64770862D01*
X104928579Y-64761871D01*
X104954408Y-64754238D01*
X104982150Y-64748087D01*
X105011873Y-64743540D01*
X105043644Y-64740721D01*
X105077533Y-64739754D01*
X105210134Y-64739754D01*
X105210134Y-65000000D01*
G37*
X105436752Y-64739765D02*
X105444902Y-64740032D01*
X105451710Y-64740413D01*
X105460156Y-64741040D01*
X105470106Y-64741976D01*
X105481421Y-64743283D01*
X105493966Y-64745021D01*
X105507603Y-64747254D01*
X105522197Y-64750041D01*
X105537611Y-64753446D01*
X105553707Y-64757530D01*
X105570350Y-64762355D01*
X105587403Y-64767982D01*
X105604729Y-64774473D01*
X105622191Y-64781889D01*
X105639653Y-64790294D01*
X105656979Y-64799747D01*
X105674032Y-64810312D01*
X105690675Y-64822049D01*
X105706771Y-64835021D01*
X105722185Y-64849289D01*
X105736779Y-64864915D01*
X105750416Y-64881960D01*
X105762961Y-64900487D01*
X105774276Y-64920556D01*
X105784226Y-64942231D01*
X105792672Y-64965572D01*
X105799480Y-64990641D01*
X105804511Y-65017500D01*
X105807630Y-65046211D01*
X105808700Y-65076834D01*
X105808700Y-65946799D01*
X105808609Y-65950584D01*
X105807972Y-65961282D01*
X105807278Y-65968915D01*
X105806242Y-65977906D01*
X105804796Y-65988131D01*
X105802872Y-65999467D01*
X105800402Y-66011791D01*
X105797317Y-66024979D01*
X105793549Y-66038907D01*
X105789030Y-66053453D01*
X105783691Y-66068492D01*
X105777464Y-66083902D01*
X105770281Y-66099558D01*
X105762073Y-66115339D01*
X105752773Y-66131119D01*
X105742311Y-66146775D01*
X105730620Y-66162185D01*
X105717631Y-66177224D01*
X105703277Y-66191770D01*
X105687488Y-66205698D01*
X105670196Y-66218886D01*
X105651333Y-66231210D01*
X105630831Y-66242546D01*
X105608622Y-66252771D01*
X105584636Y-66261762D01*
X105558807Y-66269395D01*
X105531065Y-66275546D01*
X105501342Y-66280093D01*
X105469571Y-66282912D01*
X105435681Y-66283879D01*
X105306797Y-66283879D01*
X105306797Y-66022394D01*
X105376196Y-66022394D01*
X105380723Y-66022202D01*
X105389113Y-66021369D01*
X105396507Y-66020215D01*
X105404980Y-66018417D01*
X105414226Y-66015829D01*
X105423934Y-66012310D01*
X105433796Y-66007715D01*
X105443504Y-66001901D01*
X105452750Y-65994724D01*
X105461223Y-65986042D01*
X105465075Y-65981091D01*
X105468617Y-65975710D01*
X105471812Y-65969881D01*
X105474622Y-65963586D01*
X105477007Y-65956807D01*
X105478930Y-65949526D01*
X105480351Y-65941725D01*
X105481231Y-65933386D01*
X105481533Y-65924492D01*
X105481533Y-65097902D01*
X105481328Y-65093696D01*
X105480431Y-65085898D01*
X105479190Y-65079026D01*
X105477255Y-65071150D01*
X105474471Y-65062558D01*
X105470684Y-65053535D01*
X105465740Y-65044368D01*
X105459484Y-65035345D01*
X105451763Y-65026753D01*
X105442421Y-65018877D01*
X105437094Y-65015298D01*
X105431305Y-65012005D01*
X105425033Y-65009035D01*
X105418260Y-65006424D01*
X105410966Y-65004207D01*
X105403132Y-65002421D01*
X105394738Y-65001100D01*
X105385766Y-65000281D01*
X105376196Y-65000000D01*
X105306797Y-65000000D01*
X105306797Y-64739754D01*
X105435681Y-64739754D01*
X105436752Y-64739765D01*
G36*
X105436752Y-64739765D02*
G01*
X105444902Y-64740032D01*
X105451710Y-64740413D01*
X105460156Y-64741040D01*
X105470106Y-64741976D01*
X105481421Y-64743283D01*
X105493966Y-64745021D01*
X105507603Y-64747254D01*
X105522197Y-64750041D01*
X105537611Y-64753446D01*
X105553707Y-64757530D01*
X105570350Y-64762355D01*
X105587403Y-64767982D01*
X105604729Y-64774473D01*
X105622191Y-64781889D01*
X105639653Y-64790294D01*
X105656979Y-64799747D01*
X105674032Y-64810312D01*
X105690675Y-64822049D01*
X105706771Y-64835021D01*
X105722185Y-64849289D01*
X105736779Y-64864915D01*
X105750416Y-64881960D01*
X105762961Y-64900487D01*
X105774276Y-64920556D01*
X105784226Y-64942231D01*
X105792672Y-64965572D01*
X105799480Y-64990641D01*
X105804511Y-65017500D01*
X105807630Y-65046211D01*
X105808700Y-65076834D01*
X105808700Y-65946799D01*
X105808609Y-65950584D01*
X105807972Y-65961282D01*
X105807278Y-65968915D01*
X105806242Y-65977906D01*
X105804796Y-65988131D01*
X105802872Y-65999467D01*
X105800402Y-66011791D01*
X105797317Y-66024979D01*
X105793549Y-66038907D01*
X105789030Y-66053453D01*
X105783691Y-66068492D01*
X105777464Y-66083902D01*
X105770281Y-66099558D01*
X105762073Y-66115339D01*
X105752773Y-66131119D01*
X105742311Y-66146775D01*
X105730620Y-66162185D01*
X105717631Y-66177224D01*
X105703277Y-66191770D01*
X105687488Y-66205698D01*
X105670196Y-66218886D01*
X105651333Y-66231210D01*
X105630831Y-66242546D01*
X105608622Y-66252771D01*
X105584636Y-66261762D01*
X105558807Y-66269395D01*
X105531065Y-66275546D01*
X105501342Y-66280093D01*
X105469571Y-66282912D01*
X105435681Y-66283879D01*
X105306797Y-66283879D01*
X105306797Y-66022394D01*
X105376196Y-66022394D01*
X105380723Y-66022202D01*
X105389113Y-66021369D01*
X105396507Y-66020215D01*
X105404980Y-66018417D01*
X105414226Y-66015829D01*
X105423934Y-66012310D01*
X105433796Y-66007715D01*
X105443504Y-66001901D01*
X105452750Y-65994724D01*
X105461223Y-65986042D01*
X105465075Y-65981091D01*
X105468617Y-65975710D01*
X105471812Y-65969881D01*
X105474622Y-65963586D01*
X105477007Y-65956807D01*
X105478930Y-65949526D01*
X105480351Y-65941725D01*
X105481231Y-65933386D01*
X105481533Y-65924492D01*
X105481533Y-65097902D01*
X105481328Y-65093696D01*
X105480431Y-65085898D01*
X105479190Y-65079026D01*
X105477255Y-65071150D01*
X105474471Y-65062558D01*
X105470684Y-65053535D01*
X105465740Y-65044368D01*
X105459484Y-65035345D01*
X105451763Y-65026753D01*
X105442421Y-65018877D01*
X105437094Y-65015298D01*
X105431305Y-65012005D01*
X105425033Y-65009035D01*
X105418260Y-65006424D01*
X105410966Y-65004207D01*
X105403132Y-65002421D01*
X105394738Y-65001100D01*
X105385766Y-65000281D01*
X105376196Y-65000000D01*
X105306797Y-65000000D01*
X105306797Y-64739754D01*
X105435681Y-64739754D01*
X105436752Y-64739765D01*
G37*
%TD*%
M02*
