%TF.GenerationSoftware,KiCad,Pcbnew,8.0.1*%
%TF.CreationDate,2026-01-16T21:20:55-05:00*%
%TF.ProjectId,16x Card Module,31367820-4361-4726-9420-4d6f64756c65,rev?*%
%TF.SameCoordinates,Original*%
%TF.FileFunction,Copper,L4,Bot*%
%TF.FilePolarity,Positive*%
%FSLAX46Y46*%
G04 Gerber Fmt 4.6, Leading zero omitted, Abs format (unit mm)*
G04 Created by KiCad (PCBNEW 8.0.1) date 2026-01-16 21:20:55*
%MOMM*%
%LPD*%
G01*
G04 APERTURE LIST*
%TA.AperFunction,ComponentPad*%
%ADD10R,1.350000X1.350000*%
%TD*%
%TA.AperFunction,ComponentPad*%
%ADD11O,1.350000X1.350000*%
%TD*%
%TA.AperFunction,ViaPad*%
%ADD12C,0.600000*%
%TD*%
%TA.AperFunction,Conductor*%
%ADD13C,0.200000*%
%TD*%
G04 APERTURE END LIST*
D10*
%TO.P,J1,1,Pin_1*%
%TO.N,GND*%
X106800000Y-80200000D03*
D11*
%TO.P,J1,2,Pin_2*%
%TO.N,/FPGA Connector/IN_0*%
X108800000Y-80200000D03*
%TO.P,J1,3,Pin_3*%
X106800000Y-82200000D03*
%TO.P,J1,4,Pin_4*%
%TO.N,/FPGA Connector/IN_1*%
X108800000Y-82200000D03*
%TO.P,J1,5,Pin_5*%
X106800000Y-84200000D03*
%TO.P,J1,6,Pin_6*%
%TO.N,/FPGA Connector/IN_2*%
X108800000Y-84200000D03*
%TO.P,J1,7,Pin_7*%
X106800000Y-86200000D03*
%TO.P,J1,8,Pin_8*%
%TO.N,GND*%
X108800000Y-86200000D03*
%TO.P,J1,9,Pin_9*%
%TO.N,/FPGA Connector/IN_3*%
X106800000Y-88200000D03*
%TO.P,J1,10,Pin_10*%
X108800000Y-88200000D03*
%TO.P,J1,11,Pin_11*%
%TO.N,/FPGA Connector/IN_4*%
X106800000Y-90200000D03*
%TO.P,J1,12,Pin_12*%
X108800000Y-90200000D03*
%TO.P,J1,13,Pin_13*%
%TO.N,/FPGA Connector/IN_5*%
X106800000Y-92200000D03*
%TO.P,J1,14,Pin_14*%
X108800000Y-92200000D03*
%TO.P,J1,15,Pin_15*%
%TO.N,GND*%
X106800000Y-94200000D03*
%TO.P,J1,16,Pin_16*%
%TO.N,/FPGA Connector/IN_6*%
X108800000Y-94200000D03*
%TO.P,J1,17,Pin_17*%
X106800000Y-96200000D03*
%TO.P,J1,18,Pin_18*%
%TO.N,/FPGA Connector/IN_7*%
X108800000Y-96200000D03*
%TO.P,J1,19,Pin_19*%
X106800000Y-98200000D03*
%TO.P,J1,20,Pin_20*%
%TO.N,/FPGA Connector/IN_8*%
X108800000Y-98200000D03*
%TO.P,J1,21,Pin_21*%
X106800000Y-100200000D03*
%TO.P,J1,22,Pin_22*%
%TO.N,GND*%
X108800000Y-100200000D03*
%TO.P,J1,23,Pin_23*%
%TO.N,/FPGA Connector/IN_9*%
X106800000Y-102200000D03*
%TO.P,J1,24,Pin_24*%
X108800000Y-102200000D03*
%TO.P,J1,25,Pin_25*%
%TO.N,/FPGA Connector/IN_10*%
X106800000Y-104200000D03*
%TO.P,J1,26,Pin_26*%
X108800000Y-104200000D03*
%TO.P,J1,27,Pin_27*%
%TO.N,/FPGA Connector/IN_11*%
X106800000Y-106200000D03*
%TO.P,J1,28,Pin_28*%
X108800000Y-106200000D03*
%TO.P,J1,29,Pin_29*%
%TO.N,GND*%
X106800000Y-108200000D03*
%TO.P,J1,30,Pin_30*%
%TO.N,/FPGA Connector/IN_12*%
X108800000Y-108200000D03*
%TO.P,J1,31,Pin_31*%
X106800000Y-110200000D03*
%TO.P,J1,32,Pin_32*%
%TO.N,/FPGA Connector/IN_13*%
X108800000Y-110200000D03*
%TO.P,J1,33,Pin_33*%
X106800000Y-112200000D03*
%TO.P,J1,34,Pin_34*%
%TO.N,/FPGA Connector/IN_14*%
X108800000Y-112200000D03*
%TO.P,J1,35,Pin_35*%
X106800000Y-114200000D03*
%TO.P,J1,36,Pin_36*%
%TO.N,GND*%
X108800000Y-114200000D03*
%TO.P,J1,37,Pin_37*%
%TO.N,/FPGA Connector/IN_15*%
X106800000Y-116200000D03*
%TO.P,J1,38,Pin_38*%
X108800000Y-116200000D03*
%TO.P,J1,39,Pin_39*%
%TO.N,/MCU/RX*%
X106800000Y-118200000D03*
%TO.P,J1,40,Pin_40*%
%TO.N,/FPGA Connector/MODULE_TX*%
X108800000Y-118200000D03*
%TO.P,J1,41,Pin_41*%
%TO.N,/MCU/TX*%
X106800000Y-120200000D03*
%TO.P,J1,42,Pin_42*%
%TO.N,/FPGA Connector/MODULE_RX*%
X108800000Y-120200000D03*
%TO.P,J1,43,Pin_43*%
%TO.N,GND*%
X106800000Y-122200000D03*
%TO.P,J1,44,Pin_44*%
X108800000Y-122200000D03*
%TO.P,J1,45,Pin_45*%
%TO.N,+5V*%
X106800000Y-124200000D03*
%TO.P,J1,46,Pin_46*%
%TO.N,+3.3V*%
X108800000Y-124200000D03*
%TO.P,J1,47,Pin_47*%
%TO.N,GND*%
X106800000Y-126200000D03*
%TO.P,J1,48,Pin_48*%
X108800000Y-126200000D03*
%TO.P,J1,49,Pin_49*%
%TO.N,+24V*%
X106800000Y-128200000D03*
%TO.P,J1,50,Pin_50*%
X108800000Y-128200000D03*
%TD*%
D12*
%TO.N,GND*%
X112900000Y-92700000D03*
X116000000Y-76700000D03*
X117300000Y-51400000D03*
X115300000Y-122100000D03*
X116900000Y-54500000D03*
X106200000Y-70400000D03*
X113000000Y-83700000D03*
X121700000Y-66400000D03*
X107700000Y-70400000D03*
X112900000Y-111700000D03*
X115300000Y-124400000D03*
X116500000Y-71500000D03*
X115300000Y-128600000D03*
X106600000Y-77800000D03*
X116000000Y-73300000D03*
X105000000Y-57800000D03*
X115300000Y-127400000D03*
X107600000Y-76700000D03*
X110200000Y-119200000D03*
X115300000Y-125000000D03*
X115300000Y-125600000D03*
X102700000Y-63200000D03*
X101500000Y-57700000D03*
X115300000Y-122700000D03*
X172600000Y-30700000D03*
X105200000Y-75100000D03*
X115300000Y-128000000D03*
X104900000Y-54400000D03*
X115300000Y-123300000D03*
X112900000Y-101700000D03*
X101500000Y-75200000D03*
X113900000Y-71900000D03*
%TO.N,+3.3V*%
X113100000Y-102700000D03*
X113000000Y-93800000D03*
X122100000Y-63600000D03*
X113000000Y-112700000D03*
X113976116Y-51405970D03*
X112200000Y-119200000D03*
X103800000Y-59300000D03*
X116200000Y-53800000D03*
X107032226Y-51071651D03*
X116000000Y-78600000D03*
X117100000Y-70900000D03*
X101100000Y-51200000D03*
X116000000Y-75200000D03*
X108300000Y-71000000D03*
X113000000Y-84800000D03*
X103400000Y-77200000D03*
X102800000Y-64800000D03*
%TO.N,/MCU/NRESET*%
X108100000Y-64300000D03*
X103000000Y-59900000D03*
%TO.N,+5V*%
X102400000Y-81100000D03*
%TO.N,+24V*%
X110600000Y-78500000D03*
X103300000Y-80200000D03*
%TO.N,/FPGA Connector/MODULE_RX*%
X101707942Y-76818723D03*
%TO.N,/FPGA Connector/MODULE_TX*%
X103600000Y-75600000D03*
%TO.N,/MCU/LED_0*%
X109700000Y-50800000D03*
X107906065Y-57893935D03*
%TO.N,/MCU/LED_1*%
X113200000Y-51600000D03*
X109400000Y-60000000D03*
%TO.N,/MCU/VCXO_TRIM*%
X109100000Y-71700000D03*
X116400000Y-65500000D03*
%TO.N,/MCU/RX*%
X109200000Y-72961802D03*
X113500000Y-68300000D03*
%TO.N,/MCU/TX*%
X107200000Y-58400000D03*
X101800000Y-59500000D03*
%TO.N,/MCU/TX_PASSTHROUGH_ENABLE*%
X107300000Y-63700000D03*
X107105166Y-75905166D03*
%TD*%
D13*
%TO.N,/MCU/NRESET*%
X108100000Y-64300000D02*
X108100000Y-63651471D01*
X108100000Y-63651471D02*
X104348529Y-59900000D01*
X104348529Y-59900000D02*
X103000000Y-59900000D01*
%TO.N,+24V*%
X103300000Y-80200000D02*
X105000000Y-78500000D01*
X105000000Y-78500000D02*
X110600000Y-78500000D01*
%TO.N,/FPGA Connector/MODULE_RX*%
X100850000Y-77750000D02*
X101707942Y-76892058D01*
X100850000Y-116450000D02*
X100850000Y-77750000D01*
X108800000Y-120200000D02*
X107825000Y-121175000D01*
X107825000Y-121175000D02*
X105575000Y-121175000D01*
X105575000Y-121175000D02*
X100850000Y-116450000D01*
X101707942Y-76892058D02*
X101707942Y-76818723D01*
%TO.N,/FPGA Connector/MODULE_TX*%
X103600000Y-76000000D02*
X103600000Y-75600000D01*
X101500000Y-115800000D02*
X101500000Y-78100000D01*
X101500000Y-78100000D02*
X103600000Y-76000000D01*
X107775000Y-119225000D02*
X104925000Y-119225000D01*
X108800000Y-118200000D02*
X107775000Y-119225000D01*
X104925000Y-119225000D02*
X101500000Y-115800000D01*
%TO.N,/MCU/LED_0*%
X109700000Y-50800000D02*
X109700000Y-51080978D01*
X109200000Y-56600000D02*
X107906065Y-57893935D01*
X108332283Y-53863923D02*
X109200000Y-54731640D01*
X109700000Y-51080978D02*
X108332283Y-52448695D01*
X109200000Y-54731640D02*
X109200000Y-56600000D01*
X108332283Y-52448695D02*
X108332283Y-53863923D01*
%TO.N,/MCU/LED_1*%
X109400000Y-60000000D02*
X108900000Y-59500000D01*
X109600000Y-56765686D02*
X109600000Y-55700000D01*
X108900000Y-57465686D02*
X109600000Y-56765686D01*
X113200000Y-52100000D02*
X113200000Y-51600000D01*
X109600000Y-55700000D02*
X113200000Y-52100000D01*
X108900000Y-59500000D02*
X108900000Y-57465686D01*
%TO.N,/MCU/VCXO_TRIM*%
X109100000Y-71700000D02*
X115300000Y-65500000D01*
X115300000Y-65500000D02*
X116400000Y-65500000D01*
%TO.N,/MCU/RX*%
X113500000Y-68300000D02*
X113500000Y-68661802D01*
X113500000Y-68661802D02*
X109200000Y-72961802D01*
%TO.N,/MCU/TX*%
X101800000Y-59500000D02*
X102900000Y-58400000D01*
X102900000Y-58400000D02*
X107200000Y-58400000D01*
%TO.N,/MCU/TX_PASSTHROUGH_ENABLE*%
X106800000Y-75600000D02*
X106800000Y-64200000D01*
X107105166Y-75905166D02*
X106800000Y-75600000D01*
X106800000Y-64200000D02*
X107300000Y-63700000D01*
%TD*%
M02*
