%TF.GenerationSoftware,KiCad,Pcbnew,8.0.1*%
%TF.CreationDate,2026-01-16T21:20:55-05:00*%
%TF.ProjectId,16x Card Module,31367820-4361-4726-9420-4d6f64756c65,rev?*%
%TF.SameCoordinates,Original*%
%TF.FileFunction,Copper,L3,Inr*%
%TF.FilePolarity,Positive*%
%FSLAX46Y46*%
G04 Gerber Fmt 4.6, Leading zero omitted, Abs format (unit mm)*
G04 Created by KiCad (PCBNEW 8.0.1) date 2026-01-16 21:20:55*
%MOMM*%
%LPD*%
G01*
G04 APERTURE LIST*
%TA.AperFunction,ComponentPad*%
%ADD10R,1.350000X1.350000*%
%TD*%
%TA.AperFunction,ComponentPad*%
%ADD11O,1.350000X1.350000*%
%TD*%
%TA.AperFunction,ViaPad*%
%ADD12C,0.600000*%
%TD*%
%TA.AperFunction,Conductor*%
%ADD13C,0.200000*%
%TD*%
G04 APERTURE END LIST*
D10*
%TO.N,GND*%
%TO.C,J1*%
X106800000Y-80200000D03*
D11*
%TO.N,/FPGA Connector/IN_0*%
X108800000Y-80200000D03*
X106800000Y-82200000D03*
%TO.N,/FPGA Connector/IN_1*%
X108800000Y-82200000D03*
X106800000Y-84200000D03*
%TO.N,/FPGA Connector/IN_2*%
X108800000Y-84200000D03*
X106800000Y-86200000D03*
%TO.N,GND*%
X108800000Y-86200000D03*
%TO.N,/FPGA Connector/IN_3*%
X106800000Y-88200000D03*
X108800000Y-88200000D03*
%TO.N,/FPGA Connector/IN_4*%
X106800000Y-90200000D03*
X108800000Y-90200000D03*
%TO.N,/FPGA Connector/IN_5*%
X106800000Y-92200000D03*
X108800000Y-92200000D03*
%TO.N,GND*%
X106800000Y-94200000D03*
%TO.N,/FPGA Connector/IN_6*%
X108800000Y-94200000D03*
X106800000Y-96200000D03*
%TO.N,/FPGA Connector/IN_7*%
X108800000Y-96200000D03*
X106800000Y-98200000D03*
%TO.N,/FPGA Connector/IN_8*%
X108800000Y-98200000D03*
X106800000Y-100200000D03*
%TO.N,GND*%
X108800000Y-100200000D03*
%TO.N,/FPGA Connector/IN_9*%
X106800000Y-102200000D03*
X108800000Y-102200000D03*
%TO.N,/FPGA Connector/IN_10*%
X106800000Y-104200000D03*
X108800000Y-104200000D03*
%TO.N,/FPGA Connector/IN_11*%
X106800000Y-106200000D03*
X108800000Y-106200000D03*
%TO.N,GND*%
X106800000Y-108200000D03*
%TO.N,/FPGA Connector/IN_12*%
X108800000Y-108200000D03*
X106800000Y-110200000D03*
%TO.N,/FPGA Connector/IN_13*%
X108800000Y-110200000D03*
X106800000Y-112200000D03*
%TO.N,/FPGA Connector/IN_14*%
X108800000Y-112200000D03*
X106800000Y-114200000D03*
%TO.N,GND*%
X108800000Y-114200000D03*
%TO.N,/FPGA Connector/IN_15*%
X106800000Y-116200000D03*
X108800000Y-116200000D03*
%TO.N,/MCU/RX*%
X106800000Y-118200000D03*
%TO.N,/FPGA Connector/MODULE_TX*%
X108800000Y-118200000D03*
%TO.N,/MCU/TX*%
X106800000Y-120200000D03*
%TO.N,/FPGA Connector/MODULE_RX*%
X108800000Y-120200000D03*
%TO.N,GND*%
X106800000Y-122200000D03*
X108800000Y-122200000D03*
%TO.N,+5V*%
X106800000Y-124200000D03*
%TO.N,+3.3V*%
X108800000Y-124200000D03*
%TO.N,GND*%
X106800000Y-126200000D03*
X108800000Y-126200000D03*
%TO.N,+24V*%
X106800000Y-128200000D03*
X108800000Y-128200000D03*
%TD*%
D12*
%TO.N,GND*%
X112900000Y-92700000D03*
X116000000Y-76700000D03*
X117300000Y-51400000D03*
X115300000Y-122100000D03*
X116900000Y-54500000D03*
X106200000Y-70400000D03*
X113000000Y-83700000D03*
X121700000Y-66400000D03*
X107700000Y-70400000D03*
X112900000Y-111700000D03*
X115300000Y-124400000D03*
X116500000Y-71500000D03*
X115300000Y-128600000D03*
X106600000Y-77800000D03*
X116000000Y-73300000D03*
X105000000Y-57800000D03*
X115300000Y-127400000D03*
X107600000Y-76700000D03*
X110200000Y-119200000D03*
X115300000Y-125000000D03*
X115300000Y-125600000D03*
X102700000Y-63200000D03*
X101500000Y-57700000D03*
X115300000Y-122700000D03*
X172600000Y-30700000D03*
X105200000Y-75100000D03*
X115300000Y-128000000D03*
X104900000Y-54400000D03*
X115300000Y-123300000D03*
X112900000Y-101700000D03*
X101500000Y-75200000D03*
X113900000Y-71900000D03*
%TO.N,+3.3V*%
X113100000Y-102700000D03*
X113000000Y-93800000D03*
X122100000Y-63600000D03*
X113000000Y-112700000D03*
X113976116Y-51405970D03*
X112200000Y-119200000D03*
X103800000Y-59300000D03*
X116200000Y-53800000D03*
X107032226Y-51071651D03*
X116000000Y-78600000D03*
X117100000Y-70900000D03*
X101100000Y-51200000D03*
X116000000Y-75200000D03*
X108300000Y-71000000D03*
X113000000Y-84800000D03*
X103400000Y-77200000D03*
X102800000Y-64800000D03*
%TO.N,/MCU/NRESET*%
X108100000Y-64300000D03*
X103000000Y-59900000D03*
%TO.N,+5V*%
X102400000Y-81100000D03*
%TO.N,+24V*%
X110600000Y-78500000D03*
X103300000Y-80200000D03*
%TO.N,/FPGA Connector/MODULE_RX*%
X101707942Y-76818723D03*
%TO.N,/FPGA Connector/MODULE_TX*%
X103600000Y-75600000D03*
%TO.N,/MCU/LED_0*%
X109700000Y-50800000D03*
X107906065Y-57893935D03*
%TO.N,/MCU/LED_1*%
X113200000Y-51600000D03*
X109400000Y-60000000D03*
%TO.N,/MCU/VCXO_TRIM*%
X109100000Y-71700000D03*
X116400000Y-65500000D03*
%TO.N,/MCU/RX*%
X109200000Y-72961802D03*
X113500000Y-68300000D03*
%TO.N,/MCU/TX*%
X107200000Y-58400000D03*
X101800000Y-59500000D03*
%TO.N,/MCU/TX_PASSTHROUGH_ENABLE*%
X107300000Y-63700000D03*
X107105166Y-75905166D03*
%TD*%
D13*
%TO.N,+5V*%
X101600000Y-119000000D02*
X101600000Y-82000000D01*
X102400000Y-81200000D02*
X102400000Y-81100000D01*
X101600000Y-82000000D02*
X102400000Y-81200000D01*
X106800000Y-124200000D02*
X101600000Y-119000000D01*
%TO.N,+24V*%
X106800000Y-128200000D02*
X101000000Y-122400000D01*
X101000000Y-122400000D02*
X101000000Y-119100000D01*
X101000000Y-81200000D02*
X102000000Y-80200000D01*
X101000000Y-119100000D02*
X101000000Y-81600000D01*
X101000000Y-81600000D02*
X101000000Y-81200000D01*
X102000000Y-80200000D02*
X103300000Y-80200000D01*
%TD*%
%TA.AperFunction,Conductor*%
%TO.N,+3.3V*%
G36*
X102710639Y-50919685D02*
G01*
X102756394Y-50972489D01*
X102766338Y-51041647D01*
X102754085Y-51080294D01*
X102699969Y-51186503D01*
X102699965Y-51186511D01*
X102630025Y-51401764D01*
X102630025Y-51401767D01*
X102613354Y-51507021D01*
X102594617Y-51625321D01*
X102594617Y-51851659D01*
X102598056Y-51873371D01*
X102630025Y-52075212D01*
X102630025Y-52075215D01*
X102699965Y-52290468D01*
X102699967Y-52290471D01*
X102802722Y-52492140D01*
X102935760Y-52675251D01*
X103095806Y-52835297D01*
X103278917Y-52968335D01*
X103480586Y-53071090D01*
X103480588Y-53071091D01*
X103681368Y-53136327D01*
X103695846Y-53141032D01*
X103919398Y-53176440D01*
X103919399Y-53176440D01*
X104145735Y-53176440D01*
X104145736Y-53176440D01*
X104369288Y-53141032D01*
X104369291Y-53141031D01*
X104369292Y-53141031D01*
X104584545Y-53071091D01*
X104584545Y-53071090D01*
X104584548Y-53071090D01*
X104786217Y-52968335D01*
X104969328Y-52835297D01*
X105129374Y-52675251D01*
X105262412Y-52492140D01*
X105365167Y-52290471D01*
X105426892Y-52100500D01*
X105435108Y-52075215D01*
X105435108Y-52075214D01*
X105435109Y-52075211D01*
X105470517Y-51851659D01*
X105470517Y-51625321D01*
X105435109Y-51401769D01*
X105435108Y-51401765D01*
X105435108Y-51401764D01*
X105365168Y-51186511D01*
X105365164Y-51186503D01*
X105311049Y-51080294D01*
X105298153Y-51011625D01*
X105324430Y-50946885D01*
X105381536Y-50906628D01*
X105421534Y-50900000D01*
X105956609Y-50900000D01*
X105976007Y-50901527D01*
X106164462Y-50931376D01*
X106164463Y-50931376D01*
X106390799Y-50931376D01*
X106390800Y-50931376D01*
X106579255Y-50901527D01*
X106598653Y-50900000D01*
X107242181Y-50900000D01*
X107309220Y-50919685D01*
X107354975Y-50972489D01*
X107364919Y-51041647D01*
X107358216Y-51066076D01*
X107358311Y-51066105D01*
X107357241Y-51069630D01*
X107356741Y-51071455D01*
X107356543Y-51071931D01*
X107356540Y-51071942D01*
X107327882Y-51216017D01*
X107327882Y-51362936D01*
X107356540Y-51507011D01*
X107356543Y-51507021D01*
X107412760Y-51642743D01*
X107412765Y-51642752D01*
X107494380Y-51764896D01*
X107494383Y-51764900D01*
X107598258Y-51868775D01*
X107598262Y-51868778D01*
X107720406Y-51950393D01*
X107720412Y-51950396D01*
X107720413Y-51950397D01*
X107856140Y-52006617D01*
X108000222Y-52035276D01*
X108000226Y-52035277D01*
X108000227Y-52035277D01*
X108147138Y-52035277D01*
X108147139Y-52035276D01*
X108291224Y-52006617D01*
X108426951Y-51950397D01*
X108549102Y-51868778D01*
X108652983Y-51764897D01*
X108734602Y-51642746D01*
X108790822Y-51507019D01*
X108819482Y-51362932D01*
X108819482Y-51216022D01*
X108790822Y-51071935D01*
X108790622Y-51071454D01*
X108790593Y-51071184D01*
X108789053Y-51066105D01*
X108790016Y-51065812D01*
X108783153Y-51001986D01*
X108814426Y-50939506D01*
X108874514Y-50903852D01*
X108905183Y-50900000D01*
X109115756Y-50900000D01*
X109182795Y-50919685D01*
X109228549Y-50972487D01*
X109252075Y-51024000D01*
X109271290Y-51066076D01*
X109274623Y-51073373D01*
X109368872Y-51182143D01*
X109489947Y-51259953D01*
X109489950Y-51259954D01*
X109489949Y-51259954D01*
X109628036Y-51300499D01*
X109628038Y-51300500D01*
X109628039Y-51300500D01*
X109771962Y-51300500D01*
X109771962Y-51300499D01*
X109910053Y-51259953D01*
X110031128Y-51182143D01*
X110125377Y-51073373D01*
X110171450Y-50972487D01*
X110217205Y-50919684D01*
X110284244Y-50900000D01*
X112945557Y-50900000D01*
X113012596Y-50919685D01*
X113058351Y-50972489D01*
X113068295Y-51041647D01*
X113039270Y-51105203D01*
X112997071Y-51136793D01*
X112989950Y-51140045D01*
X112868873Y-51217856D01*
X112774623Y-51326626D01*
X112774622Y-51326628D01*
X112714834Y-51457543D01*
X112694353Y-51600000D01*
X112714834Y-51742456D01*
X112774622Y-51873371D01*
X112774623Y-51873373D01*
X112868872Y-51982143D01*
X112989947Y-52059953D01*
X112989950Y-52059954D01*
X112989949Y-52059954D01*
X113128036Y-52100499D01*
X113128038Y-52100500D01*
X113128039Y-52100500D01*
X113271962Y-52100500D01*
X113271962Y-52100499D01*
X113410053Y-52059953D01*
X113531128Y-51982143D01*
X113625377Y-51873373D01*
X113685165Y-51742457D01*
X113705647Y-51600000D01*
X113685165Y-51457543D01*
X113625377Y-51326627D01*
X113531128Y-51217857D01*
X113410053Y-51140047D01*
X113410051Y-51140046D01*
X113410049Y-51140045D01*
X113402929Y-51136793D01*
X113350126Y-51091037D01*
X113330443Y-51023997D01*
X113350129Y-50956958D01*
X113402934Y-50911204D01*
X113454443Y-50900000D01*
X116799474Y-50900000D01*
X116866513Y-50919685D01*
X116912268Y-50972489D01*
X116922212Y-51041647D01*
X116893187Y-51105202D01*
X116874625Y-51126622D01*
X116874622Y-51126628D01*
X116814834Y-51257543D01*
X116794353Y-51400000D01*
X116814834Y-51542456D01*
X116860636Y-51642746D01*
X116874623Y-51673373D01*
X116968872Y-51782143D01*
X117089947Y-51859953D01*
X117089950Y-51859954D01*
X117089949Y-51859954D01*
X117228036Y-51900499D01*
X117228038Y-51900500D01*
X117228039Y-51900500D01*
X117371962Y-51900500D01*
X117371962Y-51900499D01*
X117510053Y-51859953D01*
X117631128Y-51782143D01*
X117725377Y-51673373D01*
X117785165Y-51542457D01*
X117805647Y-51400000D01*
X117785165Y-51257543D01*
X117725377Y-51126627D01*
X117725375Y-51126625D01*
X117725374Y-51126622D01*
X117706813Y-51105202D01*
X117677788Y-51041647D01*
X117687732Y-50972488D01*
X117733487Y-50919684D01*
X117800526Y-50900000D01*
X117976000Y-50900000D01*
X118043039Y-50919685D01*
X118088794Y-50972489D01*
X118100000Y-51024000D01*
X118100000Y-57700000D01*
X123763681Y-63363681D01*
X123797166Y-63425004D01*
X123800000Y-63451362D01*
X123800000Y-65348638D01*
X123780315Y-65415677D01*
X123763681Y-65436319D01*
X117800000Y-71399999D01*
X117799999Y-71400000D01*
X117789182Y-77438285D01*
X117769377Y-77505289D01*
X117753259Y-77525347D01*
X115400000Y-79900000D01*
X115400000Y-121475500D01*
X115380315Y-121542539D01*
X115327511Y-121588294D01*
X115276000Y-121599500D01*
X115228036Y-121599500D01*
X115089949Y-121640045D01*
X114968873Y-121717856D01*
X114874623Y-121826626D01*
X114874622Y-121826628D01*
X114814834Y-121957543D01*
X114794353Y-122100000D01*
X114814834Y-122242456D01*
X114863258Y-122348488D01*
X114873202Y-122417647D01*
X114863258Y-122451512D01*
X114814834Y-122557543D01*
X114794353Y-122700000D01*
X114814834Y-122842456D01*
X114863258Y-122948488D01*
X114873202Y-123017647D01*
X114863258Y-123051512D01*
X114814834Y-123157543D01*
X114794353Y-123300000D01*
X114814834Y-123442456D01*
X114862027Y-123545793D01*
X114874623Y-123573373D01*
X114968872Y-123682143D01*
X114968874Y-123682144D01*
X114968876Y-123682146D01*
X115067744Y-123745685D01*
X115113499Y-123798488D01*
X115123443Y-123867647D01*
X115094418Y-123931203D01*
X115067744Y-123954315D01*
X114968876Y-124017853D01*
X114968874Y-124017855D01*
X114874623Y-124126626D01*
X114874622Y-124126628D01*
X114814834Y-124257543D01*
X114794353Y-124400000D01*
X114814834Y-124542456D01*
X114863258Y-124648488D01*
X114873202Y-124717647D01*
X114863258Y-124751512D01*
X114814834Y-124857543D01*
X114794353Y-125000000D01*
X114814834Y-125142456D01*
X114863258Y-125248488D01*
X114873202Y-125317647D01*
X114863258Y-125351512D01*
X114814834Y-125457543D01*
X114794353Y-125600000D01*
X114814834Y-125742456D01*
X114874622Y-125873371D01*
X114874623Y-125873373D01*
X114968872Y-125982143D01*
X115089947Y-126059953D01*
X115089950Y-126059954D01*
X115089949Y-126059954D01*
X115228036Y-126100499D01*
X115228038Y-126100500D01*
X115276000Y-126100500D01*
X115343039Y-126120185D01*
X115388794Y-126172989D01*
X115400000Y-126224500D01*
X115400000Y-126775500D01*
X115380315Y-126842539D01*
X115327511Y-126888294D01*
X115276000Y-126899500D01*
X115228036Y-126899500D01*
X115089949Y-126940045D01*
X114968873Y-127017856D01*
X114874623Y-127126626D01*
X114874622Y-127126628D01*
X114814834Y-127257543D01*
X114794353Y-127400000D01*
X114814834Y-127542456D01*
X114863258Y-127648488D01*
X114873202Y-127717647D01*
X114863258Y-127751512D01*
X114814834Y-127857543D01*
X114794353Y-128000000D01*
X114814834Y-128142456D01*
X114863258Y-128248488D01*
X114873202Y-128317647D01*
X114863258Y-128351512D01*
X114814834Y-128457543D01*
X114794353Y-128600000D01*
X114814834Y-128742456D01*
X114874622Y-128873371D01*
X114874623Y-128873373D01*
X114968872Y-128982143D01*
X114968873Y-128982143D01*
X114974680Y-128988845D01*
X114973598Y-128989781D01*
X115006236Y-129040565D01*
X115006236Y-129110434D01*
X114968462Y-129169213D01*
X114904907Y-129198238D01*
X114887259Y-129199500D01*
X109290956Y-129199500D01*
X109223917Y-129179815D01*
X109178162Y-129127011D01*
X109168218Y-129057853D01*
X109197243Y-128994297D01*
X109234953Y-128966346D01*
X109234538Y-128965627D01*
X109240155Y-128962383D01*
X109240161Y-128962381D01*
X109389050Y-128854207D01*
X109512195Y-128717440D01*
X109604214Y-128558059D01*
X109661085Y-128383029D01*
X109680322Y-128200000D01*
X109661085Y-128016971D01*
X109622500Y-127898218D01*
X109604216Y-127841946D01*
X109604213Y-127841940D01*
X109599365Y-127833543D01*
X109512195Y-127682560D01*
X109389050Y-127545793D01*
X109389048Y-127545791D01*
X109240165Y-127437621D01*
X109240162Y-127437619D01*
X109240161Y-127437619D01*
X109169063Y-127405964D01*
X109072038Y-127362765D01*
X109072033Y-127362763D01*
X108892019Y-127324500D01*
X108707981Y-127324500D01*
X108527966Y-127362763D01*
X108527961Y-127362765D01*
X108359839Y-127437619D01*
X108359834Y-127437621D01*
X108210951Y-127545791D01*
X108210949Y-127545793D01*
X108087804Y-127682561D01*
X107995786Y-127841940D01*
X107995783Y-127841946D01*
X107944429Y-128000000D01*
X107938915Y-128016971D01*
X107923321Y-128165342D01*
X107909137Y-128199814D01*
X107921977Y-128225312D01*
X107923319Y-128234646D01*
X107938915Y-128383029D01*
X107938916Y-128383032D01*
X107995783Y-128558053D01*
X107995786Y-128558059D01*
X108087805Y-128717440D01*
X108186428Y-128826972D01*
X108210949Y-128854206D01*
X108210951Y-128854208D01*
X108359834Y-128962378D01*
X108365462Y-128965627D01*
X108364812Y-128966752D01*
X108412716Y-129007470D01*
X108433038Y-129074319D01*
X108413993Y-129141543D01*
X108361628Y-129187799D01*
X108309044Y-129199500D01*
X107290956Y-129199500D01*
X107223917Y-129179815D01*
X107178162Y-129127011D01*
X107168218Y-129057853D01*
X107197243Y-128994297D01*
X107234953Y-128966346D01*
X107234538Y-128965627D01*
X107240155Y-128962383D01*
X107240161Y-128962381D01*
X107389050Y-128854207D01*
X107512195Y-128717440D01*
X107604214Y-128558059D01*
X107661085Y-128383029D01*
X107676679Y-128234655D01*
X107690862Y-128200184D01*
X107678023Y-128174687D01*
X107676679Y-128165342D01*
X107661085Y-128016971D01*
X107622500Y-127898218D01*
X107604216Y-127841946D01*
X107604213Y-127841940D01*
X107599365Y-127833543D01*
X107512195Y-127682560D01*
X107389050Y-127545793D01*
X107389048Y-127545791D01*
X107240165Y-127437621D01*
X107240162Y-127437619D01*
X107240161Y-127437619D01*
X107169063Y-127405964D01*
X107072038Y-127362765D01*
X107072033Y-127362763D01*
X106892019Y-127324500D01*
X106707981Y-127324500D01*
X106527968Y-127362763D01*
X106527963Y-127362764D01*
X106508784Y-127371303D01*
X106439533Y-127380584D01*
X106376258Y-127350953D01*
X106370673Y-127345702D01*
X106111794Y-127086823D01*
X106078309Y-127025500D01*
X106083293Y-126955808D01*
X106125165Y-126899875D01*
X106190629Y-126875458D01*
X106258902Y-126890310D01*
X106272354Y-126898819D01*
X106329096Y-126940045D01*
X106359839Y-126962381D01*
X106527961Y-127037234D01*
X106527966Y-127037236D01*
X106707981Y-127075500D01*
X106892019Y-127075500D01*
X107072034Y-127037236D01*
X107240161Y-126962381D01*
X107389050Y-126854207D01*
X107512195Y-126717440D01*
X107604214Y-126558059D01*
X107661085Y-126383029D01*
X107676679Y-126234655D01*
X107690862Y-126200184D01*
X107690676Y-126199814D01*
X107909137Y-126199814D01*
X107921977Y-126225312D01*
X107923319Y-126234646D01*
X107938915Y-126383029D01*
X107938916Y-126383032D01*
X107995783Y-126558053D01*
X107995786Y-126558059D01*
X108087805Y-126717440D01*
X108197327Y-126839077D01*
X108210949Y-126854206D01*
X108210951Y-126854208D01*
X108359834Y-126962378D01*
X108359835Y-126962378D01*
X108359839Y-126962381D01*
X108484438Y-127017856D01*
X108527961Y-127037234D01*
X108527966Y-127037236D01*
X108707981Y-127075500D01*
X108892019Y-127075500D01*
X109072034Y-127037236D01*
X109240161Y-126962381D01*
X109389050Y-126854207D01*
X109512195Y-126717440D01*
X109604214Y-126558059D01*
X109661085Y-126383029D01*
X109680322Y-126200000D01*
X109661085Y-126016971D01*
X109604214Y-125841941D01*
X109512195Y-125682560D01*
X109389050Y-125545793D01*
X109389048Y-125545791D01*
X109240165Y-125437621D01*
X109240162Y-125437619D01*
X109240161Y-125437619D01*
X109179112Y-125410438D01*
X109072038Y-125362765D01*
X109072033Y-125362763D01*
X108892019Y-125324500D01*
X108707981Y-125324500D01*
X108527966Y-125362763D01*
X108527961Y-125362765D01*
X108359839Y-125437619D01*
X108359834Y-125437621D01*
X108210951Y-125545791D01*
X108210949Y-125545793D01*
X108087804Y-125682561D01*
X107995786Y-125841940D01*
X107995783Y-125841946D01*
X107950231Y-125982143D01*
X107938915Y-126016971D01*
X107930136Y-126100499D01*
X107923321Y-126165342D01*
X107909137Y-126199814D01*
X107690676Y-126199814D01*
X107678023Y-126174687D01*
X107676679Y-126165342D01*
X107661085Y-126016971D01*
X107604214Y-125841941D01*
X107512195Y-125682560D01*
X107389050Y-125545793D01*
X107389048Y-125545791D01*
X107240165Y-125437621D01*
X107240162Y-125437619D01*
X107240161Y-125437619D01*
X107179112Y-125410438D01*
X107072038Y-125362765D01*
X107072033Y-125362763D01*
X106892019Y-125324500D01*
X106707981Y-125324500D01*
X106527966Y-125362763D01*
X106527961Y-125362765D01*
X106359839Y-125437619D01*
X106359834Y-125437621D01*
X106210951Y-125545791D01*
X106210949Y-125545793D01*
X106087804Y-125682561D01*
X105995786Y-125841940D01*
X105995783Y-125841946D01*
X105950231Y-125982143D01*
X105938915Y-126016971D01*
X105919678Y-126200000D01*
X105938915Y-126383029D01*
X105938916Y-126383032D01*
X105995783Y-126558053D01*
X105995786Y-126558059D01*
X106088685Y-126718965D01*
X106105158Y-126786865D01*
X106082305Y-126852892D01*
X106027384Y-126896083D01*
X105957831Y-126902724D01*
X105895728Y-126870708D01*
X105893617Y-126868646D01*
X101336819Y-122311848D01*
X101303334Y-122250525D01*
X101300500Y-122224167D01*
X101300500Y-119424833D01*
X101320185Y-119357794D01*
X101372989Y-119312039D01*
X101442147Y-119302095D01*
X101505703Y-119331120D01*
X101512181Y-119337152D01*
X105947249Y-123772220D01*
X105980734Y-123833543D01*
X105977499Y-123898218D01*
X105938916Y-124016965D01*
X105938916Y-124016967D01*
X105938915Y-124016971D01*
X105919678Y-124200000D01*
X105938915Y-124383029D01*
X105938916Y-124383032D01*
X105995783Y-124558053D01*
X105995786Y-124558059D01*
X106087805Y-124717440D01*
X106197327Y-124839077D01*
X106210949Y-124854206D01*
X106210951Y-124854208D01*
X106359834Y-124962378D01*
X106359835Y-124962378D01*
X106359839Y-124962381D01*
X106444333Y-125000000D01*
X106527961Y-125037234D01*
X106527966Y-125037236D01*
X106707981Y-125075500D01*
X106892019Y-125075500D01*
X107072034Y-125037236D01*
X107240161Y-124962381D01*
X107389050Y-124854207D01*
X107512195Y-124717440D01*
X107604214Y-124558059D01*
X107661085Y-124383029D01*
X107680322Y-124200000D01*
X107661085Y-124016971D01*
X107622500Y-123898218D01*
X107604216Y-123841946D01*
X107604213Y-123841940D01*
X107599365Y-123833543D01*
X107512195Y-123682560D01*
X107389050Y-123545793D01*
X107389048Y-123545791D01*
X107240165Y-123437621D01*
X107240162Y-123437619D01*
X107240161Y-123437619D01*
X107169063Y-123405964D01*
X107072038Y-123362765D01*
X107072033Y-123362763D01*
X106892019Y-123324500D01*
X106707981Y-123324500D01*
X106527968Y-123362763D01*
X106527963Y-123362764D01*
X106508784Y-123371303D01*
X106439533Y-123380584D01*
X106376258Y-123350953D01*
X106370673Y-123345702D01*
X106111794Y-123086823D01*
X106078309Y-123025500D01*
X106083293Y-122955808D01*
X106125165Y-122899875D01*
X106190629Y-122875458D01*
X106258902Y-122890310D01*
X106272354Y-122898819D01*
X106340717Y-122948488D01*
X106359839Y-122962381D01*
X106527961Y-123037234D01*
X106527966Y-123037236D01*
X106707981Y-123075500D01*
X106892019Y-123075500D01*
X107072034Y-123037236D01*
X107240161Y-122962381D01*
X107389050Y-122854207D01*
X107512195Y-122717440D01*
X107604214Y-122558059D01*
X107661085Y-122383029D01*
X107676679Y-122234655D01*
X107690862Y-122200184D01*
X107690676Y-122199814D01*
X107909137Y-122199814D01*
X107921977Y-122225312D01*
X107923319Y-122234646D01*
X107938915Y-122383029D01*
X107938916Y-122383032D01*
X107995783Y-122558053D01*
X107995786Y-122558059D01*
X108087805Y-122717440D01*
X108150574Y-122787152D01*
X108210949Y-122854206D01*
X108210951Y-122854208D01*
X108359834Y-122962378D01*
X108359835Y-122962378D01*
X108359839Y-122962381D01*
X108496953Y-123023428D01*
X108527961Y-123037234D01*
X108527966Y-123037236D01*
X108707981Y-123075500D01*
X108892019Y-123075500D01*
X109072034Y-123037236D01*
X109240161Y-122962381D01*
X109389050Y-122854207D01*
X109512195Y-122717440D01*
X109604214Y-122558059D01*
X109661085Y-122383029D01*
X109680322Y-122200000D01*
X109661085Y-122016971D01*
X109604214Y-121841941D01*
X109512195Y-121682560D01*
X109389050Y-121545793D01*
X109389048Y-121545791D01*
X109240165Y-121437621D01*
X109240162Y-121437619D01*
X109240161Y-121437619D01*
X109179112Y-121410438D01*
X109072038Y-121362765D01*
X109072033Y-121362763D01*
X108892019Y-121324500D01*
X108707981Y-121324500D01*
X108527966Y-121362763D01*
X108527961Y-121362765D01*
X108359839Y-121437619D01*
X108359834Y-121437621D01*
X108210951Y-121545791D01*
X108210949Y-121545793D01*
X108087804Y-121682561D01*
X107995786Y-121841940D01*
X107995783Y-121841946D01*
X107958224Y-121957543D01*
X107938915Y-122016971D01*
X107923321Y-122165342D01*
X107909137Y-122199814D01*
X107690676Y-122199814D01*
X107678023Y-122174687D01*
X107676679Y-122165342D01*
X107661085Y-122016971D01*
X107604214Y-121841941D01*
X107512195Y-121682560D01*
X107389050Y-121545793D01*
X107389048Y-121545791D01*
X107240165Y-121437621D01*
X107240162Y-121437619D01*
X107240161Y-121437619D01*
X107179112Y-121410438D01*
X107072038Y-121362765D01*
X107072033Y-121362763D01*
X106892019Y-121324500D01*
X106707981Y-121324500D01*
X106527966Y-121362763D01*
X106527961Y-121362765D01*
X106359839Y-121437619D01*
X106359834Y-121437621D01*
X106210951Y-121545791D01*
X106210949Y-121545793D01*
X106087804Y-121682561D01*
X105995786Y-121841940D01*
X105995783Y-121841946D01*
X105958224Y-121957543D01*
X105938915Y-122016971D01*
X105919678Y-122200000D01*
X105938915Y-122383029D01*
X105938916Y-122383032D01*
X105995783Y-122558053D01*
X105995786Y-122558059D01*
X106088685Y-122718965D01*
X106105158Y-122786865D01*
X106082305Y-122852892D01*
X106027384Y-122896083D01*
X105957831Y-122902724D01*
X105895728Y-122870708D01*
X105893617Y-122868646D01*
X103224971Y-120200000D01*
X105919678Y-120200000D01*
X105938915Y-120383029D01*
X105938916Y-120383032D01*
X105995783Y-120558053D01*
X105995786Y-120558059D01*
X106087805Y-120717440D01*
X106197327Y-120839077D01*
X106210949Y-120854206D01*
X106210951Y-120854208D01*
X106359834Y-120962378D01*
X106359835Y-120962378D01*
X106359839Y-120962381D01*
X106496953Y-121023428D01*
X106527961Y-121037234D01*
X106527966Y-121037236D01*
X106707981Y-121075500D01*
X106892019Y-121075500D01*
X107072034Y-121037236D01*
X107240161Y-120962381D01*
X107389050Y-120854207D01*
X107512195Y-120717440D01*
X107604214Y-120558059D01*
X107661085Y-120383029D01*
X107676679Y-120234655D01*
X107690862Y-120200184D01*
X107690676Y-120199814D01*
X107909137Y-120199814D01*
X107921977Y-120225312D01*
X107923319Y-120234646D01*
X107938915Y-120383029D01*
X107938916Y-120383032D01*
X107995783Y-120558053D01*
X107995786Y-120558059D01*
X108087805Y-120717440D01*
X108197327Y-120839077D01*
X108210949Y-120854206D01*
X108210951Y-120854208D01*
X108359834Y-120962378D01*
X108359835Y-120962378D01*
X108359839Y-120962381D01*
X108496953Y-121023428D01*
X108527961Y-121037234D01*
X108527966Y-121037236D01*
X108707981Y-121075500D01*
X108892019Y-121075500D01*
X109072034Y-121037236D01*
X109240161Y-120962381D01*
X109389050Y-120854207D01*
X109512195Y-120717440D01*
X109604214Y-120558059D01*
X109661085Y-120383029D01*
X109680322Y-120200000D01*
X109661085Y-120016971D01*
X109604214Y-119841941D01*
X109512195Y-119682560D01*
X109389050Y-119545793D01*
X109389048Y-119545791D01*
X109240165Y-119437621D01*
X109240162Y-119437619D01*
X109240161Y-119437619D01*
X109179112Y-119410438D01*
X109072038Y-119362765D01*
X109072033Y-119362763D01*
X108892019Y-119324500D01*
X108707981Y-119324500D01*
X108527966Y-119362763D01*
X108527961Y-119362765D01*
X108359839Y-119437619D01*
X108359834Y-119437621D01*
X108210951Y-119545791D01*
X108210949Y-119545793D01*
X108087804Y-119682561D01*
X107995786Y-119841940D01*
X107995783Y-119841946D01*
X107938916Y-120016967D01*
X107938915Y-120016971D01*
X107923321Y-120165342D01*
X107909137Y-120199814D01*
X107690676Y-120199814D01*
X107678023Y-120174687D01*
X107676679Y-120165342D01*
X107661085Y-120016971D01*
X107604214Y-119841941D01*
X107512195Y-119682560D01*
X107389050Y-119545793D01*
X107389048Y-119545791D01*
X107240165Y-119437621D01*
X107240162Y-119437619D01*
X107240161Y-119437619D01*
X107179112Y-119410438D01*
X107072038Y-119362765D01*
X107072033Y-119362763D01*
X106892019Y-119324500D01*
X106707981Y-119324500D01*
X106527966Y-119362763D01*
X106527961Y-119362765D01*
X106359839Y-119437619D01*
X106359834Y-119437621D01*
X106210951Y-119545791D01*
X106210949Y-119545793D01*
X106087804Y-119682561D01*
X105995786Y-119841940D01*
X105995783Y-119841946D01*
X105938916Y-120016967D01*
X105938915Y-120016971D01*
X105919678Y-120200000D01*
X103224971Y-120200000D01*
X102224971Y-119200000D01*
X109694353Y-119200000D01*
X109714834Y-119342456D01*
X109758295Y-119437621D01*
X109774623Y-119473373D01*
X109868872Y-119582143D01*
X109989947Y-119659953D01*
X109989950Y-119659954D01*
X109989949Y-119659954D01*
X110128036Y-119700499D01*
X110128038Y-119700500D01*
X110128039Y-119700500D01*
X110271962Y-119700500D01*
X110271962Y-119700499D01*
X110410053Y-119659953D01*
X110531128Y-119582143D01*
X110625377Y-119473373D01*
X110685165Y-119342457D01*
X110705647Y-119200000D01*
X110685165Y-119057543D01*
X110625377Y-118926627D01*
X110531128Y-118817857D01*
X110410053Y-118740047D01*
X110410051Y-118740046D01*
X110410049Y-118740045D01*
X110410050Y-118740045D01*
X110271963Y-118699500D01*
X110271961Y-118699500D01*
X110128039Y-118699500D01*
X110128036Y-118699500D01*
X109989949Y-118740045D01*
X109868873Y-118817856D01*
X109774623Y-118926626D01*
X109774622Y-118926628D01*
X109714834Y-119057543D01*
X109694353Y-119200000D01*
X102224971Y-119200000D01*
X101936819Y-118911848D01*
X101903334Y-118850525D01*
X101900500Y-118824167D01*
X101900500Y-118200000D01*
X105919678Y-118200000D01*
X105938915Y-118383029D01*
X105938916Y-118383032D01*
X105995783Y-118558053D01*
X105995786Y-118558059D01*
X106087805Y-118717440D01*
X106183902Y-118824167D01*
X106210949Y-118854206D01*
X106210951Y-118854208D01*
X106359834Y-118962378D01*
X106359835Y-118962378D01*
X106359839Y-118962381D01*
X106496953Y-119023428D01*
X106527961Y-119037234D01*
X106527966Y-119037236D01*
X106707981Y-119075500D01*
X106892019Y-119075500D01*
X107072034Y-119037236D01*
X107240161Y-118962381D01*
X107389050Y-118854207D01*
X107512195Y-118717440D01*
X107604214Y-118558059D01*
X107661085Y-118383029D01*
X107676679Y-118234655D01*
X107690862Y-118200184D01*
X107690676Y-118199814D01*
X107909137Y-118199814D01*
X107921977Y-118225312D01*
X107923319Y-118234646D01*
X107938915Y-118383029D01*
X107938916Y-118383032D01*
X107995783Y-118558053D01*
X107995786Y-118558059D01*
X108087805Y-118717440D01*
X108183902Y-118824167D01*
X108210949Y-118854206D01*
X108210951Y-118854208D01*
X108359834Y-118962378D01*
X108359835Y-118962378D01*
X108359839Y-118962381D01*
X108496953Y-119023428D01*
X108527961Y-119037234D01*
X108527966Y-119037236D01*
X108707981Y-119075500D01*
X108892019Y-119075500D01*
X109072034Y-119037236D01*
X109240161Y-118962381D01*
X109389050Y-118854207D01*
X109512195Y-118717440D01*
X109604214Y-118558059D01*
X109661085Y-118383029D01*
X109680322Y-118200000D01*
X109661085Y-118016971D01*
X109604214Y-117841941D01*
X109512195Y-117682560D01*
X109389050Y-117545793D01*
X109389048Y-117545791D01*
X109240165Y-117437621D01*
X109240162Y-117437619D01*
X109240161Y-117437619D01*
X109179112Y-117410438D01*
X109072038Y-117362765D01*
X109072033Y-117362763D01*
X108892019Y-117324500D01*
X108707981Y-117324500D01*
X108527966Y-117362763D01*
X108527961Y-117362765D01*
X108359839Y-117437619D01*
X108359834Y-117437621D01*
X108210951Y-117545791D01*
X108210949Y-117545793D01*
X108087804Y-117682561D01*
X107995786Y-117841940D01*
X107995783Y-117841946D01*
X107938916Y-118016967D01*
X107938915Y-118016971D01*
X107923321Y-118165342D01*
X107909137Y-118199814D01*
X107690676Y-118199814D01*
X107678023Y-118174687D01*
X107676679Y-118165342D01*
X107661085Y-118016971D01*
X107604214Y-117841941D01*
X107512195Y-117682560D01*
X107389050Y-117545793D01*
X107389048Y-117545791D01*
X107240165Y-117437621D01*
X107240162Y-117437619D01*
X107240161Y-117437619D01*
X107179112Y-117410438D01*
X107072038Y-117362765D01*
X107072033Y-117362763D01*
X106892019Y-117324500D01*
X106707981Y-117324500D01*
X106527966Y-117362763D01*
X106527961Y-117362765D01*
X106359839Y-117437619D01*
X106359834Y-117437621D01*
X106210951Y-117545791D01*
X106210949Y-117545793D01*
X106087804Y-117682561D01*
X105995786Y-117841940D01*
X105995783Y-117841946D01*
X105938916Y-118016967D01*
X105938915Y-118016971D01*
X105919678Y-118200000D01*
X101900500Y-118200000D01*
X101900500Y-116200000D01*
X105919678Y-116200000D01*
X105938915Y-116383029D01*
X105938916Y-116383032D01*
X105995783Y-116558053D01*
X105995786Y-116558059D01*
X106087805Y-116717440D01*
X106197327Y-116839077D01*
X106210949Y-116854206D01*
X106210951Y-116854208D01*
X106359834Y-116962378D01*
X106359835Y-116962378D01*
X106359839Y-116962381D01*
X106496953Y-117023428D01*
X106527961Y-117037234D01*
X106527966Y-117037236D01*
X106707981Y-117075500D01*
X106892019Y-117075500D01*
X107072034Y-117037236D01*
X107240161Y-116962381D01*
X107389050Y-116854207D01*
X107512195Y-116717440D01*
X107604214Y-116558059D01*
X107661085Y-116383029D01*
X107676679Y-116234655D01*
X107690862Y-116200184D01*
X107690676Y-116199814D01*
X107909137Y-116199814D01*
X107921977Y-116225312D01*
X107923319Y-116234646D01*
X107938915Y-116383029D01*
X107938916Y-116383032D01*
X107995783Y-116558053D01*
X107995786Y-116558059D01*
X108087805Y-116717440D01*
X108197327Y-116839077D01*
X108210949Y-116854206D01*
X108210951Y-116854208D01*
X108359834Y-116962378D01*
X108359835Y-116962378D01*
X108359839Y-116962381D01*
X108496953Y-117023428D01*
X108527961Y-117037234D01*
X108527966Y-117037236D01*
X108707981Y-117075500D01*
X108892019Y-117075500D01*
X109072034Y-117037236D01*
X109240161Y-116962381D01*
X109389050Y-116854207D01*
X109512195Y-116717440D01*
X109604214Y-116558059D01*
X109661085Y-116383029D01*
X109680322Y-116200000D01*
X109661085Y-116016971D01*
X109604214Y-115841941D01*
X109512195Y-115682560D01*
X109389050Y-115545793D01*
X109389048Y-115545791D01*
X109240165Y-115437621D01*
X109240162Y-115437619D01*
X109240161Y-115437619D01*
X109179112Y-115410438D01*
X109072038Y-115362765D01*
X109072033Y-115362763D01*
X108892019Y-115324500D01*
X108707981Y-115324500D01*
X108527966Y-115362763D01*
X108527961Y-115362765D01*
X108359839Y-115437619D01*
X108359834Y-115437621D01*
X108210951Y-115545791D01*
X108210949Y-115545793D01*
X108087804Y-115682561D01*
X107995786Y-115841940D01*
X107995783Y-115841946D01*
X107938916Y-116016967D01*
X107938915Y-116016971D01*
X107923321Y-116165342D01*
X107909137Y-116199814D01*
X107690676Y-116199814D01*
X107678023Y-116174687D01*
X107676679Y-116165342D01*
X107661085Y-116016971D01*
X107604214Y-115841941D01*
X107512195Y-115682560D01*
X107389050Y-115545793D01*
X107389048Y-115545791D01*
X107240165Y-115437621D01*
X107240162Y-115437619D01*
X107240161Y-115437619D01*
X107179112Y-115410438D01*
X107072038Y-115362765D01*
X107072033Y-115362763D01*
X106892019Y-115324500D01*
X106707981Y-115324500D01*
X106527966Y-115362763D01*
X106527961Y-115362765D01*
X106359839Y-115437619D01*
X106359834Y-115437621D01*
X106210951Y-115545791D01*
X106210949Y-115545793D01*
X106087804Y-115682561D01*
X105995786Y-115841940D01*
X105995783Y-115841946D01*
X105938916Y-116016967D01*
X105938915Y-116016971D01*
X105919678Y-116200000D01*
X101900500Y-116200000D01*
X101900500Y-114200000D01*
X105919678Y-114200000D01*
X105938915Y-114383029D01*
X105938916Y-114383032D01*
X105995783Y-114558053D01*
X105995786Y-114558059D01*
X106087805Y-114717440D01*
X106197327Y-114839077D01*
X106210949Y-114854206D01*
X106210951Y-114854208D01*
X106359834Y-114962378D01*
X106359835Y-114962378D01*
X106359839Y-114962381D01*
X106496953Y-115023428D01*
X106527961Y-115037234D01*
X106527966Y-115037236D01*
X106707981Y-115075500D01*
X106892019Y-115075500D01*
X107072034Y-115037236D01*
X107240161Y-114962381D01*
X107389050Y-114854207D01*
X107512195Y-114717440D01*
X107604214Y-114558059D01*
X107661085Y-114383029D01*
X107676679Y-114234655D01*
X107690862Y-114200184D01*
X107690676Y-114199814D01*
X107909137Y-114199814D01*
X107921977Y-114225312D01*
X107923319Y-114234646D01*
X107938915Y-114383029D01*
X107938916Y-114383032D01*
X107995783Y-114558053D01*
X107995786Y-114558059D01*
X108087805Y-114717440D01*
X108197327Y-114839077D01*
X108210949Y-114854206D01*
X108210951Y-114854208D01*
X108359834Y-114962378D01*
X108359835Y-114962378D01*
X108359839Y-114962381D01*
X108496953Y-115023428D01*
X108527961Y-115037234D01*
X108527966Y-115037236D01*
X108707981Y-115075500D01*
X108892019Y-115075500D01*
X109072034Y-115037236D01*
X109240161Y-114962381D01*
X109389050Y-114854207D01*
X109512195Y-114717440D01*
X109604214Y-114558059D01*
X109661085Y-114383029D01*
X109680322Y-114200000D01*
X109661085Y-114016971D01*
X109604214Y-113841941D01*
X109512195Y-113682560D01*
X109389050Y-113545793D01*
X109389048Y-113545791D01*
X109240165Y-113437621D01*
X109240162Y-113437619D01*
X109240161Y-113437619D01*
X109179112Y-113410438D01*
X109072038Y-113362765D01*
X109072033Y-113362763D01*
X108892019Y-113324500D01*
X108707981Y-113324500D01*
X108527966Y-113362763D01*
X108527961Y-113362765D01*
X108359839Y-113437619D01*
X108359834Y-113437621D01*
X108210951Y-113545791D01*
X108210949Y-113545793D01*
X108087804Y-113682561D01*
X107995786Y-113841940D01*
X107995783Y-113841946D01*
X107938916Y-114016967D01*
X107938915Y-114016971D01*
X107923321Y-114165342D01*
X107909137Y-114199814D01*
X107690676Y-114199814D01*
X107678023Y-114174687D01*
X107676679Y-114165342D01*
X107661085Y-114016971D01*
X107604214Y-113841941D01*
X107512195Y-113682560D01*
X107389050Y-113545793D01*
X107389048Y-113545791D01*
X107240165Y-113437621D01*
X107240162Y-113437619D01*
X107240161Y-113437619D01*
X107179112Y-113410438D01*
X107072038Y-113362765D01*
X107072033Y-113362763D01*
X106892019Y-113324500D01*
X106707981Y-113324500D01*
X106527966Y-113362763D01*
X106527961Y-113362765D01*
X106359839Y-113437619D01*
X106359834Y-113437621D01*
X106210951Y-113545791D01*
X106210949Y-113545793D01*
X106087804Y-113682561D01*
X105995786Y-113841940D01*
X105995783Y-113841946D01*
X105938916Y-114016967D01*
X105938915Y-114016971D01*
X105919678Y-114200000D01*
X101900500Y-114200000D01*
X101900500Y-112200000D01*
X105919678Y-112200000D01*
X105938915Y-112383029D01*
X105938916Y-112383032D01*
X105995783Y-112558053D01*
X105995786Y-112558059D01*
X106087805Y-112717440D01*
X106197327Y-112839077D01*
X106210949Y-112854206D01*
X106210951Y-112854208D01*
X106359834Y-112962378D01*
X106359835Y-112962378D01*
X106359839Y-112962381D01*
X106496953Y-113023428D01*
X106527961Y-113037234D01*
X106527966Y-113037236D01*
X106707981Y-113075500D01*
X106892019Y-113075500D01*
X107072034Y-113037236D01*
X107240161Y-112962381D01*
X107389050Y-112854207D01*
X107512195Y-112717440D01*
X107604214Y-112558059D01*
X107661085Y-112383029D01*
X107676679Y-112234655D01*
X107690862Y-112200184D01*
X107690676Y-112199814D01*
X107909137Y-112199814D01*
X107921977Y-112225312D01*
X107923319Y-112234646D01*
X107938915Y-112383029D01*
X107938916Y-112383032D01*
X107995783Y-112558053D01*
X107995786Y-112558059D01*
X108087805Y-112717440D01*
X108197327Y-112839077D01*
X108210949Y-112854206D01*
X108210951Y-112854208D01*
X108359834Y-112962378D01*
X108359835Y-112962378D01*
X108359839Y-112962381D01*
X108496953Y-113023428D01*
X108527961Y-113037234D01*
X108527966Y-113037236D01*
X108707981Y-113075500D01*
X108892019Y-113075500D01*
X109072034Y-113037236D01*
X109240161Y-112962381D01*
X109389050Y-112854207D01*
X109512195Y-112717440D01*
X109604214Y-112558059D01*
X109661085Y-112383029D01*
X109680322Y-112200000D01*
X109661085Y-112016971D01*
X109604382Y-111842457D01*
X109604216Y-111841946D01*
X109604213Y-111841940D01*
X109522264Y-111700000D01*
X112394353Y-111700000D01*
X112414834Y-111842456D01*
X112474622Y-111973371D01*
X112474623Y-111973373D01*
X112568872Y-112082143D01*
X112689947Y-112159953D01*
X112689950Y-112159954D01*
X112689949Y-112159954D01*
X112797107Y-112191417D01*
X112826336Y-112200000D01*
X112828036Y-112200499D01*
X112828038Y-112200500D01*
X112828039Y-112200500D01*
X112971962Y-112200500D01*
X112971962Y-112200499D01*
X113110053Y-112159953D01*
X113231128Y-112082143D01*
X113325377Y-111973373D01*
X113385165Y-111842457D01*
X113405647Y-111700000D01*
X113385165Y-111557543D01*
X113325377Y-111426627D01*
X113231128Y-111317857D01*
X113110053Y-111240047D01*
X113110051Y-111240046D01*
X113110049Y-111240045D01*
X113110050Y-111240045D01*
X112971963Y-111199500D01*
X112971961Y-111199500D01*
X112828039Y-111199500D01*
X112828036Y-111199500D01*
X112689949Y-111240045D01*
X112568873Y-111317856D01*
X112474623Y-111426626D01*
X112474622Y-111426628D01*
X112414834Y-111557543D01*
X112394353Y-111700000D01*
X109522264Y-111700000D01*
X109512195Y-111682560D01*
X109389050Y-111545793D01*
X109389048Y-111545791D01*
X109240165Y-111437621D01*
X109240162Y-111437619D01*
X109240161Y-111437619D01*
X109179112Y-111410438D01*
X109072038Y-111362765D01*
X109072033Y-111362763D01*
X108892019Y-111324500D01*
X108707981Y-111324500D01*
X108527966Y-111362763D01*
X108527961Y-111362765D01*
X108359839Y-111437619D01*
X108359834Y-111437621D01*
X108210951Y-111545791D01*
X108210949Y-111545793D01*
X108087804Y-111682561D01*
X107995786Y-111841940D01*
X107995783Y-111841946D01*
X107938916Y-112016967D01*
X107938915Y-112016971D01*
X107923887Y-112159953D01*
X107923321Y-112165342D01*
X107909137Y-112199814D01*
X107690676Y-112199814D01*
X107678023Y-112174687D01*
X107676679Y-112165342D01*
X107676113Y-112159953D01*
X107661085Y-112016971D01*
X107604382Y-111842457D01*
X107604216Y-111841946D01*
X107604213Y-111841940D01*
X107512195Y-111682560D01*
X107389050Y-111545793D01*
X107389048Y-111545791D01*
X107240165Y-111437621D01*
X107240162Y-111437619D01*
X107240161Y-111437619D01*
X107179112Y-111410438D01*
X107072038Y-111362765D01*
X107072033Y-111362763D01*
X106892019Y-111324500D01*
X106707981Y-111324500D01*
X106527966Y-111362763D01*
X106527961Y-111362765D01*
X106359839Y-111437619D01*
X106359834Y-111437621D01*
X106210951Y-111545791D01*
X106210949Y-111545793D01*
X106087804Y-111682561D01*
X105995786Y-111841940D01*
X105995783Y-111841946D01*
X105938916Y-112016967D01*
X105938915Y-112016971D01*
X105919678Y-112200000D01*
X101900500Y-112200000D01*
X101900500Y-110200000D01*
X105919678Y-110200000D01*
X105938915Y-110383029D01*
X105938916Y-110383032D01*
X105995783Y-110558053D01*
X105995786Y-110558059D01*
X106087805Y-110717440D01*
X106197327Y-110839077D01*
X106210949Y-110854206D01*
X106210951Y-110854208D01*
X106359834Y-110962378D01*
X106359835Y-110962378D01*
X106359839Y-110962381D01*
X106496953Y-111023428D01*
X106527961Y-111037234D01*
X106527966Y-111037236D01*
X106707981Y-111075500D01*
X106892019Y-111075500D01*
X107072034Y-111037236D01*
X107240161Y-110962381D01*
X107389050Y-110854207D01*
X107512195Y-110717440D01*
X107604214Y-110558059D01*
X107661085Y-110383029D01*
X107676679Y-110234655D01*
X107690862Y-110200184D01*
X107690676Y-110199814D01*
X107909137Y-110199814D01*
X107921977Y-110225312D01*
X107923319Y-110234646D01*
X107938915Y-110383029D01*
X107938916Y-110383032D01*
X107995783Y-110558053D01*
X107995786Y-110558059D01*
X108087805Y-110717440D01*
X108197327Y-110839077D01*
X108210949Y-110854206D01*
X108210951Y-110854208D01*
X108359834Y-110962378D01*
X108359835Y-110962378D01*
X108359839Y-110962381D01*
X108496953Y-111023428D01*
X108527961Y-111037234D01*
X108527966Y-111037236D01*
X108707981Y-111075500D01*
X108892019Y-111075500D01*
X109072034Y-111037236D01*
X109240161Y-110962381D01*
X109389050Y-110854207D01*
X109512195Y-110717440D01*
X109604214Y-110558059D01*
X109661085Y-110383029D01*
X109680322Y-110200000D01*
X109661085Y-110016971D01*
X109604214Y-109841941D01*
X109512195Y-109682560D01*
X109389050Y-109545793D01*
X109389048Y-109545791D01*
X109240165Y-109437621D01*
X109240162Y-109437619D01*
X109240161Y-109437619D01*
X109179112Y-109410438D01*
X109072038Y-109362765D01*
X109072033Y-109362763D01*
X108892019Y-109324500D01*
X108707981Y-109324500D01*
X108527966Y-109362763D01*
X108527961Y-109362765D01*
X108359839Y-109437619D01*
X108359834Y-109437621D01*
X108210951Y-109545791D01*
X108210949Y-109545793D01*
X108087804Y-109682561D01*
X107995786Y-109841940D01*
X107995783Y-109841946D01*
X107938916Y-110016967D01*
X107938915Y-110016971D01*
X107923321Y-110165342D01*
X107909137Y-110199814D01*
X107690676Y-110199814D01*
X107678023Y-110174687D01*
X107676679Y-110165342D01*
X107661085Y-110016971D01*
X107604214Y-109841941D01*
X107512195Y-109682560D01*
X107389050Y-109545793D01*
X107389048Y-109545791D01*
X107240165Y-109437621D01*
X107240162Y-109437619D01*
X107240161Y-109437619D01*
X107179112Y-109410438D01*
X107072038Y-109362765D01*
X107072033Y-109362763D01*
X106892019Y-109324500D01*
X106707981Y-109324500D01*
X106527966Y-109362763D01*
X106527961Y-109362765D01*
X106359839Y-109437619D01*
X106359834Y-109437621D01*
X106210951Y-109545791D01*
X106210949Y-109545793D01*
X106087804Y-109682561D01*
X105995786Y-109841940D01*
X105995783Y-109841946D01*
X105938916Y-110016967D01*
X105938915Y-110016971D01*
X105919678Y-110200000D01*
X101900500Y-110200000D01*
X101900500Y-108200000D01*
X105919678Y-108200000D01*
X105938915Y-108383029D01*
X105938916Y-108383032D01*
X105995783Y-108558053D01*
X105995786Y-108558059D01*
X106087805Y-108717440D01*
X106197327Y-108839077D01*
X106210949Y-108854206D01*
X106210951Y-108854208D01*
X106359834Y-108962378D01*
X106359835Y-108962378D01*
X106359839Y-108962381D01*
X106496953Y-109023428D01*
X106527961Y-109037234D01*
X106527966Y-109037236D01*
X106707981Y-109075500D01*
X106892019Y-109075500D01*
X107072034Y-109037236D01*
X107240161Y-108962381D01*
X107389050Y-108854207D01*
X107512195Y-108717440D01*
X107604214Y-108558059D01*
X107661085Y-108383029D01*
X107676679Y-108234655D01*
X107690862Y-108200184D01*
X107690676Y-108199814D01*
X107909137Y-108199814D01*
X107921977Y-108225312D01*
X107923319Y-108234646D01*
X107938915Y-108383029D01*
X107938916Y-108383032D01*
X107995783Y-108558053D01*
X107995786Y-108558059D01*
X108087805Y-108717440D01*
X108197327Y-108839077D01*
X108210949Y-108854206D01*
X108210951Y-108854208D01*
X108359834Y-108962378D01*
X108359835Y-108962378D01*
X108359839Y-108962381D01*
X108496953Y-109023428D01*
X108527961Y-109037234D01*
X108527966Y-109037236D01*
X108707981Y-109075500D01*
X108892019Y-109075500D01*
X109072034Y-109037236D01*
X109240161Y-108962381D01*
X109389050Y-108854207D01*
X109512195Y-108717440D01*
X109604214Y-108558059D01*
X109661085Y-108383029D01*
X109680322Y-108200000D01*
X109661085Y-108016971D01*
X109604214Y-107841941D01*
X109512195Y-107682560D01*
X109389050Y-107545793D01*
X109389048Y-107545791D01*
X109240165Y-107437621D01*
X109240162Y-107437619D01*
X109240161Y-107437619D01*
X109179112Y-107410438D01*
X109072038Y-107362765D01*
X109072033Y-107362763D01*
X108892019Y-107324500D01*
X108707981Y-107324500D01*
X108527966Y-107362763D01*
X108527961Y-107362765D01*
X108359839Y-107437619D01*
X108359834Y-107437621D01*
X108210951Y-107545791D01*
X108210949Y-107545793D01*
X108087804Y-107682561D01*
X107995786Y-107841940D01*
X107995783Y-107841946D01*
X107938916Y-108016967D01*
X107938915Y-108016971D01*
X107923321Y-108165342D01*
X107909137Y-108199814D01*
X107690676Y-108199814D01*
X107678023Y-108174687D01*
X107676679Y-108165342D01*
X107661085Y-108016971D01*
X107604214Y-107841941D01*
X107512195Y-107682560D01*
X107389050Y-107545793D01*
X107389048Y-107545791D01*
X107240165Y-107437621D01*
X107240162Y-107437619D01*
X107240161Y-107437619D01*
X107179112Y-107410438D01*
X107072038Y-107362765D01*
X107072033Y-107362763D01*
X106892019Y-107324500D01*
X106707981Y-107324500D01*
X106527966Y-107362763D01*
X106527961Y-107362765D01*
X106359839Y-107437619D01*
X106359834Y-107437621D01*
X106210951Y-107545791D01*
X106210949Y-107545793D01*
X106087804Y-107682561D01*
X105995786Y-107841940D01*
X105995783Y-107841946D01*
X105938916Y-108016967D01*
X105938915Y-108016971D01*
X105919678Y-108200000D01*
X101900500Y-108200000D01*
X101900500Y-106200000D01*
X105919678Y-106200000D01*
X105938915Y-106383029D01*
X105938916Y-106383032D01*
X105995783Y-106558053D01*
X105995786Y-106558059D01*
X106087805Y-106717440D01*
X106197327Y-106839077D01*
X106210949Y-106854206D01*
X106210951Y-106854208D01*
X106359834Y-106962378D01*
X106359835Y-106962378D01*
X106359839Y-106962381D01*
X106496953Y-107023428D01*
X106527961Y-107037234D01*
X106527966Y-107037236D01*
X106707981Y-107075500D01*
X106892019Y-107075500D01*
X107072034Y-107037236D01*
X107240161Y-106962381D01*
X107389050Y-106854207D01*
X107512195Y-106717440D01*
X107604214Y-106558059D01*
X107661085Y-106383029D01*
X107676679Y-106234655D01*
X107690862Y-106200184D01*
X107690676Y-106199814D01*
X107909137Y-106199814D01*
X107921977Y-106225312D01*
X107923319Y-106234646D01*
X107938915Y-106383029D01*
X107938916Y-106383032D01*
X107995783Y-106558053D01*
X107995786Y-106558059D01*
X108087805Y-106717440D01*
X108197327Y-106839077D01*
X108210949Y-106854206D01*
X108210951Y-106854208D01*
X108359834Y-106962378D01*
X108359835Y-106962378D01*
X108359839Y-106962381D01*
X108496953Y-107023428D01*
X108527961Y-107037234D01*
X108527966Y-107037236D01*
X108707981Y-107075500D01*
X108892019Y-107075500D01*
X109072034Y-107037236D01*
X109240161Y-106962381D01*
X109389050Y-106854207D01*
X109512195Y-106717440D01*
X109604214Y-106558059D01*
X109661085Y-106383029D01*
X109680322Y-106200000D01*
X109661085Y-106016971D01*
X109604214Y-105841941D01*
X109512195Y-105682560D01*
X109389050Y-105545793D01*
X109389048Y-105545791D01*
X109240165Y-105437621D01*
X109240162Y-105437619D01*
X109240161Y-105437619D01*
X109179112Y-105410438D01*
X109072038Y-105362765D01*
X109072033Y-105362763D01*
X108892019Y-105324500D01*
X108707981Y-105324500D01*
X108527966Y-105362763D01*
X108527961Y-105362765D01*
X108359839Y-105437619D01*
X108359834Y-105437621D01*
X108210951Y-105545791D01*
X108210949Y-105545793D01*
X108087804Y-105682561D01*
X107995786Y-105841940D01*
X107995783Y-105841946D01*
X107938916Y-106016967D01*
X107938915Y-106016971D01*
X107923321Y-106165342D01*
X107909137Y-106199814D01*
X107690676Y-106199814D01*
X107678023Y-106174687D01*
X107676679Y-106165342D01*
X107661085Y-106016971D01*
X107604214Y-105841941D01*
X107512195Y-105682560D01*
X107389050Y-105545793D01*
X107389048Y-105545791D01*
X107240165Y-105437621D01*
X107240162Y-105437619D01*
X107240161Y-105437619D01*
X107179112Y-105410438D01*
X107072038Y-105362765D01*
X107072033Y-105362763D01*
X106892019Y-105324500D01*
X106707981Y-105324500D01*
X106527966Y-105362763D01*
X106527961Y-105362765D01*
X106359839Y-105437619D01*
X106359834Y-105437621D01*
X106210951Y-105545791D01*
X106210949Y-105545793D01*
X106087804Y-105682561D01*
X105995786Y-105841940D01*
X105995783Y-105841946D01*
X105938916Y-106016967D01*
X105938915Y-106016971D01*
X105919678Y-106200000D01*
X101900500Y-106200000D01*
X101900500Y-104200000D01*
X105919678Y-104200000D01*
X105938915Y-104383029D01*
X105938916Y-104383032D01*
X105995783Y-104558053D01*
X105995786Y-104558059D01*
X106087805Y-104717440D01*
X106197327Y-104839077D01*
X106210949Y-104854206D01*
X106210951Y-104854208D01*
X106359834Y-104962378D01*
X106359835Y-104962378D01*
X106359839Y-104962381D01*
X106496953Y-105023428D01*
X106527961Y-105037234D01*
X106527966Y-105037236D01*
X106707981Y-105075500D01*
X106892019Y-105075500D01*
X107072034Y-105037236D01*
X107240161Y-104962381D01*
X107389050Y-104854207D01*
X107512195Y-104717440D01*
X107604214Y-104558059D01*
X107661085Y-104383029D01*
X107676679Y-104234655D01*
X107690862Y-104200184D01*
X107690676Y-104199814D01*
X107909137Y-104199814D01*
X107921977Y-104225312D01*
X107923319Y-104234646D01*
X107938915Y-104383029D01*
X107938916Y-104383032D01*
X107995783Y-104558053D01*
X107995786Y-104558059D01*
X108087805Y-104717440D01*
X108197327Y-104839077D01*
X108210949Y-104854206D01*
X108210951Y-104854208D01*
X108359834Y-104962378D01*
X108359835Y-104962378D01*
X108359839Y-104962381D01*
X108496953Y-105023428D01*
X108527961Y-105037234D01*
X108527966Y-105037236D01*
X108707981Y-105075500D01*
X108892019Y-105075500D01*
X109072034Y-105037236D01*
X109240161Y-104962381D01*
X109389050Y-104854207D01*
X109512195Y-104717440D01*
X109604214Y-104558059D01*
X109661085Y-104383029D01*
X109680322Y-104200000D01*
X109661085Y-104016971D01*
X109604214Y-103841941D01*
X109512195Y-103682560D01*
X109389050Y-103545793D01*
X109389048Y-103545791D01*
X109240165Y-103437621D01*
X109240162Y-103437619D01*
X109240161Y-103437619D01*
X109179112Y-103410438D01*
X109072038Y-103362765D01*
X109072033Y-103362763D01*
X108892019Y-103324500D01*
X108707981Y-103324500D01*
X108527966Y-103362763D01*
X108527961Y-103362765D01*
X108359839Y-103437619D01*
X108359834Y-103437621D01*
X108210951Y-103545791D01*
X108210949Y-103545793D01*
X108087804Y-103682561D01*
X107995786Y-103841940D01*
X107995783Y-103841946D01*
X107938916Y-104016967D01*
X107938915Y-104016971D01*
X107923321Y-104165342D01*
X107909137Y-104199814D01*
X107690676Y-104199814D01*
X107678023Y-104174687D01*
X107676679Y-104165342D01*
X107661085Y-104016971D01*
X107604214Y-103841941D01*
X107512195Y-103682560D01*
X107389050Y-103545793D01*
X107389048Y-103545791D01*
X107240165Y-103437621D01*
X107240162Y-103437619D01*
X107240161Y-103437619D01*
X107179112Y-103410438D01*
X107072038Y-103362765D01*
X107072033Y-103362763D01*
X106892019Y-103324500D01*
X106707981Y-103324500D01*
X106527966Y-103362763D01*
X106527961Y-103362765D01*
X106359839Y-103437619D01*
X106359834Y-103437621D01*
X106210951Y-103545791D01*
X106210949Y-103545793D01*
X106087804Y-103682561D01*
X105995786Y-103841940D01*
X105995783Y-103841946D01*
X105938916Y-104016967D01*
X105938915Y-104016971D01*
X105919678Y-104200000D01*
X101900500Y-104200000D01*
X101900500Y-102200000D01*
X105919678Y-102200000D01*
X105938915Y-102383029D01*
X105938916Y-102383032D01*
X105995783Y-102558053D01*
X105995786Y-102558059D01*
X106087805Y-102717440D01*
X106197327Y-102839077D01*
X106210949Y-102854206D01*
X106210951Y-102854208D01*
X106359834Y-102962378D01*
X106359835Y-102962378D01*
X106359839Y-102962381D01*
X106496953Y-103023428D01*
X106527961Y-103037234D01*
X106527966Y-103037236D01*
X106707981Y-103075500D01*
X106892019Y-103075500D01*
X107072034Y-103037236D01*
X107240161Y-102962381D01*
X107389050Y-102854207D01*
X107512195Y-102717440D01*
X107604214Y-102558059D01*
X107661085Y-102383029D01*
X107676679Y-102234655D01*
X107690862Y-102200184D01*
X107690676Y-102199814D01*
X107909137Y-102199814D01*
X107921977Y-102225312D01*
X107923319Y-102234646D01*
X107938915Y-102383029D01*
X107938916Y-102383032D01*
X107995783Y-102558053D01*
X107995786Y-102558059D01*
X108087805Y-102717440D01*
X108197327Y-102839077D01*
X108210949Y-102854206D01*
X108210951Y-102854208D01*
X108359834Y-102962378D01*
X108359835Y-102962378D01*
X108359839Y-102962381D01*
X108496953Y-103023428D01*
X108527961Y-103037234D01*
X108527966Y-103037236D01*
X108707981Y-103075500D01*
X108892019Y-103075500D01*
X109072034Y-103037236D01*
X109240161Y-102962381D01*
X109389050Y-102854207D01*
X109512195Y-102717440D01*
X109604214Y-102558059D01*
X109661085Y-102383029D01*
X109680322Y-102200000D01*
X109661085Y-102016971D01*
X109604382Y-101842457D01*
X109604216Y-101841946D01*
X109604213Y-101841940D01*
X109522264Y-101700000D01*
X112394353Y-101700000D01*
X112414834Y-101842456D01*
X112474622Y-101973371D01*
X112474623Y-101973373D01*
X112568872Y-102082143D01*
X112689947Y-102159953D01*
X112689950Y-102159954D01*
X112689949Y-102159954D01*
X112797107Y-102191417D01*
X112826336Y-102200000D01*
X112828036Y-102200499D01*
X112828038Y-102200500D01*
X112828039Y-102200500D01*
X112971962Y-102200500D01*
X112971962Y-102200499D01*
X113110053Y-102159953D01*
X113231128Y-102082143D01*
X113325377Y-101973373D01*
X113385165Y-101842457D01*
X113405647Y-101700000D01*
X113385165Y-101557543D01*
X113325377Y-101426627D01*
X113231128Y-101317857D01*
X113110053Y-101240047D01*
X113110051Y-101240046D01*
X113110049Y-101240045D01*
X113110050Y-101240045D01*
X112971963Y-101199500D01*
X112971961Y-101199500D01*
X112828039Y-101199500D01*
X112828036Y-101199500D01*
X112689949Y-101240045D01*
X112568873Y-101317856D01*
X112474623Y-101426626D01*
X112474622Y-101426628D01*
X112414834Y-101557543D01*
X112394353Y-101700000D01*
X109522264Y-101700000D01*
X109512195Y-101682560D01*
X109389050Y-101545793D01*
X109389048Y-101545791D01*
X109240165Y-101437621D01*
X109240162Y-101437619D01*
X109240161Y-101437619D01*
X109179112Y-101410438D01*
X109072038Y-101362765D01*
X109072033Y-101362763D01*
X108892019Y-101324500D01*
X108707981Y-101324500D01*
X108527966Y-101362763D01*
X108527961Y-101362765D01*
X108359839Y-101437619D01*
X108359834Y-101437621D01*
X108210951Y-101545791D01*
X108210949Y-101545793D01*
X108087804Y-101682561D01*
X107995786Y-101841940D01*
X107995783Y-101841946D01*
X107938916Y-102016967D01*
X107938915Y-102016971D01*
X107923887Y-102159953D01*
X107923321Y-102165342D01*
X107909137Y-102199814D01*
X107690676Y-102199814D01*
X107678023Y-102174687D01*
X107676679Y-102165342D01*
X107676113Y-102159953D01*
X107661085Y-102016971D01*
X107604382Y-101842457D01*
X107604216Y-101841946D01*
X107604213Y-101841940D01*
X107512195Y-101682560D01*
X107389050Y-101545793D01*
X107389048Y-101545791D01*
X107240165Y-101437621D01*
X107240162Y-101437619D01*
X107240161Y-101437619D01*
X107179112Y-101410438D01*
X107072038Y-101362765D01*
X107072033Y-101362763D01*
X106892019Y-101324500D01*
X106707981Y-101324500D01*
X106527966Y-101362763D01*
X106527961Y-101362765D01*
X106359839Y-101437619D01*
X106359834Y-101437621D01*
X106210951Y-101545791D01*
X106210949Y-101545793D01*
X106087804Y-101682561D01*
X105995786Y-101841940D01*
X105995783Y-101841946D01*
X105938916Y-102016967D01*
X105938915Y-102016971D01*
X105919678Y-102200000D01*
X101900500Y-102200000D01*
X101900500Y-100200000D01*
X105919678Y-100200000D01*
X105938915Y-100383029D01*
X105938916Y-100383032D01*
X105995783Y-100558053D01*
X105995786Y-100558059D01*
X106087805Y-100717440D01*
X106197327Y-100839077D01*
X106210949Y-100854206D01*
X106210951Y-100854208D01*
X106359834Y-100962378D01*
X106359835Y-100962378D01*
X106359839Y-100962381D01*
X106496953Y-101023428D01*
X106527961Y-101037234D01*
X106527966Y-101037236D01*
X106707981Y-101075500D01*
X106892019Y-101075500D01*
X107072034Y-101037236D01*
X107240161Y-100962381D01*
X107389050Y-100854207D01*
X107512195Y-100717440D01*
X107604214Y-100558059D01*
X107661085Y-100383029D01*
X107676679Y-100234655D01*
X107690862Y-100200184D01*
X107690676Y-100199814D01*
X107909137Y-100199814D01*
X107921977Y-100225312D01*
X107923319Y-100234646D01*
X107938915Y-100383029D01*
X107938916Y-100383032D01*
X107995783Y-100558053D01*
X107995786Y-100558059D01*
X108087805Y-100717440D01*
X108197327Y-100839077D01*
X108210949Y-100854206D01*
X108210951Y-100854208D01*
X108359834Y-100962378D01*
X108359835Y-100962378D01*
X108359839Y-100962381D01*
X108496953Y-101023428D01*
X108527961Y-101037234D01*
X108527966Y-101037236D01*
X108707981Y-101075500D01*
X108892019Y-101075500D01*
X109072034Y-101037236D01*
X109240161Y-100962381D01*
X109389050Y-100854207D01*
X109512195Y-100717440D01*
X109604214Y-100558059D01*
X109661085Y-100383029D01*
X109680322Y-100200000D01*
X109661085Y-100016971D01*
X109604214Y-99841941D01*
X109512195Y-99682560D01*
X109389050Y-99545793D01*
X109389048Y-99545791D01*
X109240165Y-99437621D01*
X109240162Y-99437619D01*
X109240161Y-99437619D01*
X109179112Y-99410438D01*
X109072038Y-99362765D01*
X109072033Y-99362763D01*
X108892019Y-99324500D01*
X108707981Y-99324500D01*
X108527966Y-99362763D01*
X108527961Y-99362765D01*
X108359839Y-99437619D01*
X108359834Y-99437621D01*
X108210951Y-99545791D01*
X108210949Y-99545793D01*
X108087804Y-99682561D01*
X107995786Y-99841940D01*
X107995783Y-99841946D01*
X107938916Y-100016967D01*
X107938915Y-100016971D01*
X107923321Y-100165342D01*
X107909137Y-100199814D01*
X107690676Y-100199814D01*
X107678023Y-100174687D01*
X107676679Y-100165342D01*
X107661085Y-100016971D01*
X107604214Y-99841941D01*
X107512195Y-99682560D01*
X107389050Y-99545793D01*
X107389048Y-99545791D01*
X107240165Y-99437621D01*
X107240162Y-99437619D01*
X107240161Y-99437619D01*
X107179112Y-99410438D01*
X107072038Y-99362765D01*
X107072033Y-99362763D01*
X106892019Y-99324500D01*
X106707981Y-99324500D01*
X106527966Y-99362763D01*
X106527961Y-99362765D01*
X106359839Y-99437619D01*
X106359834Y-99437621D01*
X106210951Y-99545791D01*
X106210949Y-99545793D01*
X106087804Y-99682561D01*
X105995786Y-99841940D01*
X105995783Y-99841946D01*
X105938916Y-100016967D01*
X105938915Y-100016971D01*
X105919678Y-100200000D01*
X101900500Y-100200000D01*
X101900500Y-98200000D01*
X105919678Y-98200000D01*
X105938915Y-98383029D01*
X105938916Y-98383032D01*
X105995783Y-98558053D01*
X105995786Y-98558059D01*
X106087805Y-98717440D01*
X106197327Y-98839077D01*
X106210949Y-98854206D01*
X106210951Y-98854208D01*
X106359834Y-98962378D01*
X106359835Y-98962378D01*
X106359839Y-98962381D01*
X106496953Y-99023428D01*
X106527961Y-99037234D01*
X106527966Y-99037236D01*
X106707981Y-99075500D01*
X106892019Y-99075500D01*
X107072034Y-99037236D01*
X107240161Y-98962381D01*
X107389050Y-98854207D01*
X107512195Y-98717440D01*
X107604214Y-98558059D01*
X107661085Y-98383029D01*
X107676679Y-98234655D01*
X107690862Y-98200184D01*
X107690676Y-98199814D01*
X107909137Y-98199814D01*
X107921977Y-98225312D01*
X107923319Y-98234646D01*
X107938915Y-98383029D01*
X107938916Y-98383032D01*
X107995783Y-98558053D01*
X107995786Y-98558059D01*
X108087805Y-98717440D01*
X108197327Y-98839077D01*
X108210949Y-98854206D01*
X108210951Y-98854208D01*
X108359834Y-98962378D01*
X108359835Y-98962378D01*
X108359839Y-98962381D01*
X108496953Y-99023428D01*
X108527961Y-99037234D01*
X108527966Y-99037236D01*
X108707981Y-99075500D01*
X108892019Y-99075500D01*
X109072034Y-99037236D01*
X109240161Y-98962381D01*
X109389050Y-98854207D01*
X109512195Y-98717440D01*
X109604214Y-98558059D01*
X109661085Y-98383029D01*
X109680322Y-98200000D01*
X109661085Y-98016971D01*
X109604214Y-97841941D01*
X109512195Y-97682560D01*
X109389050Y-97545793D01*
X109389048Y-97545791D01*
X109240165Y-97437621D01*
X109240162Y-97437619D01*
X109240161Y-97437619D01*
X109179112Y-97410438D01*
X109072038Y-97362765D01*
X109072033Y-97362763D01*
X108892019Y-97324500D01*
X108707981Y-97324500D01*
X108527966Y-97362763D01*
X108527961Y-97362765D01*
X108359839Y-97437619D01*
X108359834Y-97437621D01*
X108210951Y-97545791D01*
X108210949Y-97545793D01*
X108087804Y-97682561D01*
X107995786Y-97841940D01*
X107995783Y-97841946D01*
X107938916Y-98016967D01*
X107938915Y-98016971D01*
X107923321Y-98165342D01*
X107909137Y-98199814D01*
X107690676Y-98199814D01*
X107678023Y-98174687D01*
X107676679Y-98165342D01*
X107661085Y-98016971D01*
X107604214Y-97841941D01*
X107512195Y-97682560D01*
X107389050Y-97545793D01*
X107389048Y-97545791D01*
X107240165Y-97437621D01*
X107240162Y-97437619D01*
X107240161Y-97437619D01*
X107179112Y-97410438D01*
X107072038Y-97362765D01*
X107072033Y-97362763D01*
X106892019Y-97324500D01*
X106707981Y-97324500D01*
X106527966Y-97362763D01*
X106527961Y-97362765D01*
X106359839Y-97437619D01*
X106359834Y-97437621D01*
X106210951Y-97545791D01*
X106210949Y-97545793D01*
X106087804Y-97682561D01*
X105995786Y-97841940D01*
X105995783Y-97841946D01*
X105938916Y-98016967D01*
X105938915Y-98016971D01*
X105919678Y-98200000D01*
X101900500Y-98200000D01*
X101900500Y-96200000D01*
X105919678Y-96200000D01*
X105938915Y-96383029D01*
X105938916Y-96383032D01*
X105995783Y-96558053D01*
X105995786Y-96558059D01*
X106087805Y-96717440D01*
X106197327Y-96839077D01*
X106210949Y-96854206D01*
X106210951Y-96854208D01*
X106359834Y-96962378D01*
X106359835Y-96962378D01*
X106359839Y-96962381D01*
X106496953Y-97023428D01*
X106527961Y-97037234D01*
X106527966Y-97037236D01*
X106707981Y-97075500D01*
X106892019Y-97075500D01*
X107072034Y-97037236D01*
X107240161Y-96962381D01*
X107389050Y-96854207D01*
X107512195Y-96717440D01*
X107604214Y-96558059D01*
X107661085Y-96383029D01*
X107676679Y-96234655D01*
X107690862Y-96200184D01*
X107690676Y-96199814D01*
X107909137Y-96199814D01*
X107921977Y-96225312D01*
X107923319Y-96234646D01*
X107938915Y-96383029D01*
X107938916Y-96383032D01*
X107995783Y-96558053D01*
X107995786Y-96558059D01*
X108087805Y-96717440D01*
X108197327Y-96839077D01*
X108210949Y-96854206D01*
X108210951Y-96854208D01*
X108359834Y-96962378D01*
X108359835Y-96962378D01*
X108359839Y-96962381D01*
X108496953Y-97023428D01*
X108527961Y-97037234D01*
X108527966Y-97037236D01*
X108707981Y-97075500D01*
X108892019Y-97075500D01*
X109072034Y-97037236D01*
X109240161Y-96962381D01*
X109389050Y-96854207D01*
X109512195Y-96717440D01*
X109604214Y-96558059D01*
X109661085Y-96383029D01*
X109680322Y-96200000D01*
X109661085Y-96016971D01*
X109604214Y-95841941D01*
X109512195Y-95682560D01*
X109389050Y-95545793D01*
X109389048Y-95545791D01*
X109240165Y-95437621D01*
X109240162Y-95437619D01*
X109240161Y-95437619D01*
X109179112Y-95410438D01*
X109072038Y-95362765D01*
X109072033Y-95362763D01*
X108892019Y-95324500D01*
X108707981Y-95324500D01*
X108527966Y-95362763D01*
X108527961Y-95362765D01*
X108359839Y-95437619D01*
X108359834Y-95437621D01*
X108210951Y-95545791D01*
X108210949Y-95545793D01*
X108087804Y-95682561D01*
X107995786Y-95841940D01*
X107995783Y-95841946D01*
X107938916Y-96016967D01*
X107938915Y-96016971D01*
X107923321Y-96165342D01*
X107909137Y-96199814D01*
X107690676Y-96199814D01*
X107678023Y-96174687D01*
X107676679Y-96165342D01*
X107661085Y-96016971D01*
X107604214Y-95841941D01*
X107512195Y-95682560D01*
X107389050Y-95545793D01*
X107389048Y-95545791D01*
X107240165Y-95437621D01*
X107240162Y-95437619D01*
X107240161Y-95437619D01*
X107179112Y-95410438D01*
X107072038Y-95362765D01*
X107072033Y-95362763D01*
X106892019Y-95324500D01*
X106707981Y-95324500D01*
X106527966Y-95362763D01*
X106527961Y-95362765D01*
X106359839Y-95437619D01*
X106359834Y-95437621D01*
X106210951Y-95545791D01*
X106210949Y-95545793D01*
X106087804Y-95682561D01*
X105995786Y-95841940D01*
X105995783Y-95841946D01*
X105938916Y-96016967D01*
X105938915Y-96016971D01*
X105919678Y-96200000D01*
X101900500Y-96200000D01*
X101900500Y-94200000D01*
X105919678Y-94200000D01*
X105938915Y-94383029D01*
X105938916Y-94383032D01*
X105995783Y-94558053D01*
X105995786Y-94558059D01*
X106087805Y-94717440D01*
X106197327Y-94839077D01*
X106210949Y-94854206D01*
X106210951Y-94854208D01*
X106359834Y-94962378D01*
X106359835Y-94962378D01*
X106359839Y-94962381D01*
X106496953Y-95023428D01*
X106527961Y-95037234D01*
X106527966Y-95037236D01*
X106707981Y-95075500D01*
X106892019Y-95075500D01*
X107072034Y-95037236D01*
X107240161Y-94962381D01*
X107389050Y-94854207D01*
X107512195Y-94717440D01*
X107604214Y-94558059D01*
X107661085Y-94383029D01*
X107676679Y-94234655D01*
X107690862Y-94200184D01*
X107690676Y-94199814D01*
X107909137Y-94199814D01*
X107921977Y-94225312D01*
X107923319Y-94234646D01*
X107938915Y-94383029D01*
X107938916Y-94383032D01*
X107995783Y-94558053D01*
X107995786Y-94558059D01*
X108087805Y-94717440D01*
X108197327Y-94839077D01*
X108210949Y-94854206D01*
X108210951Y-94854208D01*
X108359834Y-94962378D01*
X108359835Y-94962378D01*
X108359839Y-94962381D01*
X108496953Y-95023428D01*
X108527961Y-95037234D01*
X108527966Y-95037236D01*
X108707981Y-95075500D01*
X108892019Y-95075500D01*
X109072034Y-95037236D01*
X109240161Y-94962381D01*
X109389050Y-94854207D01*
X109512195Y-94717440D01*
X109604214Y-94558059D01*
X109661085Y-94383029D01*
X109680322Y-94200000D01*
X109661085Y-94016971D01*
X109604214Y-93841941D01*
X109512195Y-93682560D01*
X109389050Y-93545793D01*
X109389048Y-93545791D01*
X109240165Y-93437621D01*
X109240162Y-93437619D01*
X109240161Y-93437619D01*
X109179112Y-93410438D01*
X109072038Y-93362765D01*
X109072033Y-93362763D01*
X108892019Y-93324500D01*
X108707981Y-93324500D01*
X108527966Y-93362763D01*
X108527961Y-93362765D01*
X108359839Y-93437619D01*
X108359834Y-93437621D01*
X108210951Y-93545791D01*
X108210949Y-93545793D01*
X108087804Y-93682561D01*
X107995786Y-93841940D01*
X107995783Y-93841946D01*
X107938916Y-94016967D01*
X107938915Y-94016971D01*
X107923321Y-94165342D01*
X107909137Y-94199814D01*
X107690676Y-94199814D01*
X107678023Y-94174687D01*
X107676679Y-94165342D01*
X107661085Y-94016971D01*
X107604214Y-93841941D01*
X107512195Y-93682560D01*
X107389050Y-93545793D01*
X107389048Y-93545791D01*
X107240165Y-93437621D01*
X107240162Y-93437619D01*
X107240161Y-93437619D01*
X107179112Y-93410438D01*
X107072038Y-93362765D01*
X107072033Y-93362763D01*
X106892019Y-93324500D01*
X106707981Y-93324500D01*
X106527966Y-93362763D01*
X106527961Y-93362765D01*
X106359839Y-93437619D01*
X106359834Y-93437621D01*
X106210951Y-93545791D01*
X106210949Y-93545793D01*
X106087804Y-93682561D01*
X105995786Y-93841940D01*
X105995783Y-93841946D01*
X105938916Y-94016967D01*
X105938915Y-94016971D01*
X105919678Y-94200000D01*
X101900500Y-94200000D01*
X101900500Y-92200000D01*
X105919678Y-92200000D01*
X105938915Y-92383029D01*
X105938916Y-92383032D01*
X105995783Y-92558053D01*
X105995786Y-92558059D01*
X106087805Y-92717440D01*
X106197327Y-92839077D01*
X106210949Y-92854206D01*
X106210951Y-92854208D01*
X106359834Y-92962378D01*
X106359835Y-92962378D01*
X106359839Y-92962381D01*
X106496953Y-93023428D01*
X106527961Y-93037234D01*
X106527966Y-93037236D01*
X106707981Y-93075500D01*
X106892019Y-93075500D01*
X107072034Y-93037236D01*
X107240161Y-92962381D01*
X107389050Y-92854207D01*
X107512195Y-92717440D01*
X107604214Y-92558059D01*
X107661085Y-92383029D01*
X107676679Y-92234655D01*
X107690862Y-92200184D01*
X107690676Y-92199814D01*
X107909137Y-92199814D01*
X107921977Y-92225312D01*
X107923319Y-92234646D01*
X107938915Y-92383029D01*
X107938916Y-92383032D01*
X107995783Y-92558053D01*
X107995786Y-92558059D01*
X108087805Y-92717440D01*
X108197327Y-92839077D01*
X108210949Y-92854206D01*
X108210951Y-92854208D01*
X108359834Y-92962378D01*
X108359835Y-92962378D01*
X108359839Y-92962381D01*
X108496953Y-93023428D01*
X108527961Y-93037234D01*
X108527966Y-93037236D01*
X108707981Y-93075500D01*
X108892019Y-93075500D01*
X109072034Y-93037236D01*
X109240161Y-92962381D01*
X109389050Y-92854207D01*
X109512195Y-92717440D01*
X109522264Y-92700000D01*
X112394353Y-92700000D01*
X112414834Y-92842456D01*
X112469603Y-92962381D01*
X112474623Y-92973373D01*
X112568872Y-93082143D01*
X112689947Y-93159953D01*
X112689950Y-93159954D01*
X112689949Y-93159954D01*
X112828036Y-93200499D01*
X112828038Y-93200500D01*
X112828039Y-93200500D01*
X112971962Y-93200500D01*
X112971962Y-93200499D01*
X113110053Y-93159953D01*
X113231128Y-93082143D01*
X113325377Y-92973373D01*
X113385165Y-92842457D01*
X113405647Y-92700000D01*
X113385165Y-92557543D01*
X113325377Y-92426627D01*
X113231128Y-92317857D01*
X113110053Y-92240047D01*
X113110051Y-92240046D01*
X113110049Y-92240045D01*
X113110050Y-92240045D01*
X112971963Y-92199500D01*
X112971961Y-92199500D01*
X112828039Y-92199500D01*
X112828036Y-92199500D01*
X112689949Y-92240045D01*
X112568873Y-92317856D01*
X112474623Y-92426626D01*
X112474622Y-92426628D01*
X112414834Y-92557543D01*
X112394353Y-92700000D01*
X109522264Y-92700000D01*
X109604214Y-92558059D01*
X109661085Y-92383029D01*
X109680322Y-92200000D01*
X109661085Y-92016971D01*
X109604214Y-91841941D01*
X109512195Y-91682560D01*
X109389050Y-91545793D01*
X109389048Y-91545791D01*
X109240165Y-91437621D01*
X109240162Y-91437619D01*
X109240161Y-91437619D01*
X109179112Y-91410438D01*
X109072038Y-91362765D01*
X109072033Y-91362763D01*
X108892019Y-91324500D01*
X108707981Y-91324500D01*
X108527966Y-91362763D01*
X108527961Y-91362765D01*
X108359839Y-91437619D01*
X108359834Y-91437621D01*
X108210951Y-91545791D01*
X108210949Y-91545793D01*
X108087804Y-91682561D01*
X107995786Y-91841940D01*
X107995783Y-91841946D01*
X107938916Y-92016967D01*
X107938915Y-92016971D01*
X107923321Y-92165342D01*
X107909137Y-92199814D01*
X107690676Y-92199814D01*
X107678023Y-92174687D01*
X107676679Y-92165342D01*
X107661085Y-92016971D01*
X107604214Y-91841941D01*
X107512195Y-91682560D01*
X107389050Y-91545793D01*
X107389048Y-91545791D01*
X107240165Y-91437621D01*
X107240162Y-91437619D01*
X107240161Y-91437619D01*
X107179112Y-91410438D01*
X107072038Y-91362765D01*
X107072033Y-91362763D01*
X106892019Y-91324500D01*
X106707981Y-91324500D01*
X106527966Y-91362763D01*
X106527961Y-91362765D01*
X106359839Y-91437619D01*
X106359834Y-91437621D01*
X106210951Y-91545791D01*
X106210949Y-91545793D01*
X106087804Y-91682561D01*
X105995786Y-91841940D01*
X105995783Y-91841946D01*
X105938916Y-92016967D01*
X105938915Y-92016971D01*
X105919678Y-92200000D01*
X101900500Y-92200000D01*
X101900500Y-90200000D01*
X105919678Y-90200000D01*
X105938915Y-90383029D01*
X105938916Y-90383032D01*
X105995783Y-90558053D01*
X105995786Y-90558059D01*
X106087805Y-90717440D01*
X106197327Y-90839077D01*
X106210949Y-90854206D01*
X106210951Y-90854208D01*
X106359834Y-90962378D01*
X106359835Y-90962378D01*
X106359839Y-90962381D01*
X106496953Y-91023428D01*
X106527961Y-91037234D01*
X106527966Y-91037236D01*
X106707981Y-91075500D01*
X106892019Y-91075500D01*
X107072034Y-91037236D01*
X107240161Y-90962381D01*
X107389050Y-90854207D01*
X107512195Y-90717440D01*
X107604214Y-90558059D01*
X107661085Y-90383029D01*
X107676679Y-90234655D01*
X107690862Y-90200184D01*
X107690676Y-90199814D01*
X107909137Y-90199814D01*
X107921977Y-90225312D01*
X107923319Y-90234646D01*
X107938915Y-90383029D01*
X107938916Y-90383032D01*
X107995783Y-90558053D01*
X107995786Y-90558059D01*
X108087805Y-90717440D01*
X108197327Y-90839077D01*
X108210949Y-90854206D01*
X108210951Y-90854208D01*
X108359834Y-90962378D01*
X108359835Y-90962378D01*
X108359839Y-90962381D01*
X108496953Y-91023428D01*
X108527961Y-91037234D01*
X108527966Y-91037236D01*
X108707981Y-91075500D01*
X108892019Y-91075500D01*
X109072034Y-91037236D01*
X109240161Y-90962381D01*
X109389050Y-90854207D01*
X109512195Y-90717440D01*
X109604214Y-90558059D01*
X109661085Y-90383029D01*
X109680322Y-90200000D01*
X109661085Y-90016971D01*
X109604214Y-89841941D01*
X109512195Y-89682560D01*
X109389050Y-89545793D01*
X109389048Y-89545791D01*
X109240165Y-89437621D01*
X109240162Y-89437619D01*
X109240161Y-89437619D01*
X109179112Y-89410438D01*
X109072038Y-89362765D01*
X109072033Y-89362763D01*
X108892019Y-89324500D01*
X108707981Y-89324500D01*
X108527966Y-89362763D01*
X108527961Y-89362765D01*
X108359839Y-89437619D01*
X108359834Y-89437621D01*
X108210951Y-89545791D01*
X108210949Y-89545793D01*
X108087804Y-89682561D01*
X107995786Y-89841940D01*
X107995783Y-89841946D01*
X107938916Y-90016967D01*
X107938915Y-90016971D01*
X107923321Y-90165342D01*
X107909137Y-90199814D01*
X107690676Y-90199814D01*
X107678023Y-90174687D01*
X107676679Y-90165342D01*
X107661085Y-90016971D01*
X107604214Y-89841941D01*
X107512195Y-89682560D01*
X107389050Y-89545793D01*
X107389048Y-89545791D01*
X107240165Y-89437621D01*
X107240162Y-89437619D01*
X107240161Y-89437619D01*
X107179112Y-89410438D01*
X107072038Y-89362765D01*
X107072033Y-89362763D01*
X106892019Y-89324500D01*
X106707981Y-89324500D01*
X106527966Y-89362763D01*
X106527961Y-89362765D01*
X106359839Y-89437619D01*
X106359834Y-89437621D01*
X106210951Y-89545791D01*
X106210949Y-89545793D01*
X106087804Y-89682561D01*
X105995786Y-89841940D01*
X105995783Y-89841946D01*
X105938916Y-90016967D01*
X105938915Y-90016971D01*
X105919678Y-90200000D01*
X101900500Y-90200000D01*
X101900500Y-88200000D01*
X105919678Y-88200000D01*
X105938915Y-88383029D01*
X105938916Y-88383032D01*
X105995783Y-88558053D01*
X105995786Y-88558059D01*
X106087805Y-88717440D01*
X106197327Y-88839077D01*
X106210949Y-88854206D01*
X106210951Y-88854208D01*
X106359834Y-88962378D01*
X106359835Y-88962378D01*
X106359839Y-88962381D01*
X106496953Y-89023428D01*
X106527961Y-89037234D01*
X106527966Y-89037236D01*
X106707981Y-89075500D01*
X106892019Y-89075500D01*
X107072034Y-89037236D01*
X107240161Y-88962381D01*
X107389050Y-88854207D01*
X107512195Y-88717440D01*
X107604214Y-88558059D01*
X107661085Y-88383029D01*
X107676679Y-88234655D01*
X107690862Y-88200184D01*
X107690676Y-88199814D01*
X107909137Y-88199814D01*
X107921977Y-88225312D01*
X107923319Y-88234646D01*
X107938915Y-88383029D01*
X107938916Y-88383032D01*
X107995783Y-88558053D01*
X107995786Y-88558059D01*
X108087805Y-88717440D01*
X108197327Y-88839077D01*
X108210949Y-88854206D01*
X108210951Y-88854208D01*
X108359834Y-88962378D01*
X108359835Y-88962378D01*
X108359839Y-88962381D01*
X108496953Y-89023428D01*
X108527961Y-89037234D01*
X108527966Y-89037236D01*
X108707981Y-89075500D01*
X108892019Y-89075500D01*
X109072034Y-89037236D01*
X109240161Y-88962381D01*
X109389050Y-88854207D01*
X109512195Y-88717440D01*
X109604214Y-88558059D01*
X109661085Y-88383029D01*
X109680322Y-88200000D01*
X109661085Y-88016971D01*
X109604214Y-87841941D01*
X109512195Y-87682560D01*
X109389050Y-87545793D01*
X109389048Y-87545791D01*
X109240165Y-87437621D01*
X109240162Y-87437619D01*
X109240161Y-87437619D01*
X109179112Y-87410438D01*
X109072038Y-87362765D01*
X109072033Y-87362763D01*
X108892019Y-87324500D01*
X108707981Y-87324500D01*
X108527966Y-87362763D01*
X108527961Y-87362765D01*
X108359839Y-87437619D01*
X108359834Y-87437621D01*
X108210951Y-87545791D01*
X108210949Y-87545793D01*
X108087804Y-87682561D01*
X107995786Y-87841940D01*
X107995783Y-87841946D01*
X107938916Y-88016967D01*
X107938915Y-88016971D01*
X107923321Y-88165342D01*
X107909137Y-88199814D01*
X107690676Y-88199814D01*
X107678023Y-88174687D01*
X107676679Y-88165342D01*
X107661085Y-88016971D01*
X107604214Y-87841941D01*
X107512195Y-87682560D01*
X107389050Y-87545793D01*
X107389048Y-87545791D01*
X107240165Y-87437621D01*
X107240162Y-87437619D01*
X107240161Y-87437619D01*
X107179112Y-87410438D01*
X107072038Y-87362765D01*
X107072033Y-87362763D01*
X106892019Y-87324500D01*
X106707981Y-87324500D01*
X106527966Y-87362763D01*
X106527961Y-87362765D01*
X106359839Y-87437619D01*
X106359834Y-87437621D01*
X106210951Y-87545791D01*
X106210949Y-87545793D01*
X106087804Y-87682561D01*
X105995786Y-87841940D01*
X105995783Y-87841946D01*
X105938916Y-88016967D01*
X105938915Y-88016971D01*
X105919678Y-88200000D01*
X101900500Y-88200000D01*
X101900500Y-86200000D01*
X105919678Y-86200000D01*
X105938915Y-86383029D01*
X105938916Y-86383032D01*
X105995783Y-86558053D01*
X105995786Y-86558059D01*
X106087805Y-86717440D01*
X106197327Y-86839077D01*
X106210949Y-86854206D01*
X106210951Y-86854208D01*
X106359834Y-86962378D01*
X106359835Y-86962378D01*
X106359839Y-86962381D01*
X106496953Y-87023428D01*
X106527961Y-87037234D01*
X106527966Y-87037236D01*
X106707981Y-87075500D01*
X106892019Y-87075500D01*
X107072034Y-87037236D01*
X107240161Y-86962381D01*
X107389050Y-86854207D01*
X107512195Y-86717440D01*
X107604214Y-86558059D01*
X107661085Y-86383029D01*
X107676679Y-86234655D01*
X107690862Y-86200184D01*
X107690676Y-86199814D01*
X107909137Y-86199814D01*
X107921977Y-86225312D01*
X107923319Y-86234646D01*
X107938915Y-86383029D01*
X107938916Y-86383032D01*
X107995783Y-86558053D01*
X107995786Y-86558059D01*
X108087805Y-86717440D01*
X108197327Y-86839077D01*
X108210949Y-86854206D01*
X108210951Y-86854208D01*
X108359834Y-86962378D01*
X108359835Y-86962378D01*
X108359839Y-86962381D01*
X108496953Y-87023428D01*
X108527961Y-87037234D01*
X108527966Y-87037236D01*
X108707981Y-87075500D01*
X108892019Y-87075500D01*
X109072034Y-87037236D01*
X109240161Y-86962381D01*
X109389050Y-86854207D01*
X109512195Y-86717440D01*
X109604214Y-86558059D01*
X109661085Y-86383029D01*
X109680322Y-86200000D01*
X109661085Y-86016971D01*
X109604214Y-85841941D01*
X109512195Y-85682560D01*
X109389050Y-85545793D01*
X109389048Y-85545791D01*
X109240165Y-85437621D01*
X109240162Y-85437619D01*
X109240161Y-85437619D01*
X109179112Y-85410438D01*
X109072038Y-85362765D01*
X109072033Y-85362763D01*
X108892019Y-85324500D01*
X108707981Y-85324500D01*
X108527966Y-85362763D01*
X108527961Y-85362765D01*
X108359839Y-85437619D01*
X108359834Y-85437621D01*
X108210951Y-85545791D01*
X108210949Y-85545793D01*
X108087804Y-85682561D01*
X107995786Y-85841940D01*
X107995783Y-85841946D01*
X107938916Y-86016967D01*
X107938915Y-86016971D01*
X107923321Y-86165342D01*
X107909137Y-86199814D01*
X107690676Y-86199814D01*
X107678023Y-86174687D01*
X107676679Y-86165342D01*
X107661085Y-86016971D01*
X107604214Y-85841941D01*
X107512195Y-85682560D01*
X107389050Y-85545793D01*
X107389048Y-85545791D01*
X107240165Y-85437621D01*
X107240162Y-85437619D01*
X107240161Y-85437619D01*
X107179112Y-85410438D01*
X107072038Y-85362765D01*
X107072033Y-85362763D01*
X106892019Y-85324500D01*
X106707981Y-85324500D01*
X106527966Y-85362763D01*
X106527961Y-85362765D01*
X106359839Y-85437619D01*
X106359834Y-85437621D01*
X106210951Y-85545791D01*
X106210949Y-85545793D01*
X106087804Y-85682561D01*
X105995786Y-85841940D01*
X105995783Y-85841946D01*
X105938916Y-86016967D01*
X105938915Y-86016971D01*
X105919678Y-86200000D01*
X101900500Y-86200000D01*
X101900500Y-84200000D01*
X105919678Y-84200000D01*
X105938915Y-84383029D01*
X105938916Y-84383032D01*
X105995783Y-84558053D01*
X105995786Y-84558059D01*
X106087805Y-84717440D01*
X106197327Y-84839077D01*
X106210949Y-84854206D01*
X106210951Y-84854208D01*
X106359834Y-84962378D01*
X106359835Y-84962378D01*
X106359839Y-84962381D01*
X106496953Y-85023428D01*
X106527961Y-85037234D01*
X106527966Y-85037236D01*
X106707981Y-85075500D01*
X106892019Y-85075500D01*
X107072034Y-85037236D01*
X107240161Y-84962381D01*
X107389050Y-84854207D01*
X107512195Y-84717440D01*
X107604214Y-84558059D01*
X107661085Y-84383029D01*
X107676679Y-84234655D01*
X107690862Y-84200184D01*
X107690676Y-84199814D01*
X107909137Y-84199814D01*
X107921977Y-84225312D01*
X107923319Y-84234646D01*
X107938915Y-84383029D01*
X107938916Y-84383032D01*
X107995783Y-84558053D01*
X107995786Y-84558059D01*
X108087805Y-84717440D01*
X108197327Y-84839077D01*
X108210949Y-84854206D01*
X108210951Y-84854208D01*
X108359834Y-84962378D01*
X108359835Y-84962378D01*
X108359839Y-84962381D01*
X108496953Y-85023428D01*
X108527961Y-85037234D01*
X108527966Y-85037236D01*
X108707981Y-85075500D01*
X108892019Y-85075500D01*
X109072034Y-85037236D01*
X109240161Y-84962381D01*
X109389050Y-84854207D01*
X109512195Y-84717440D01*
X109604214Y-84558059D01*
X109661085Y-84383029D01*
X109680322Y-84200000D01*
X109661085Y-84016971D01*
X109604382Y-83842457D01*
X109604216Y-83841946D01*
X109604213Y-83841940D01*
X109522264Y-83700000D01*
X112494353Y-83700000D01*
X112514834Y-83842456D01*
X112574622Y-83973371D01*
X112574623Y-83973373D01*
X112668872Y-84082143D01*
X112789947Y-84159953D01*
X112789950Y-84159954D01*
X112789949Y-84159954D01*
X112897107Y-84191417D01*
X112926336Y-84200000D01*
X112928036Y-84200499D01*
X112928038Y-84200500D01*
X112928039Y-84200500D01*
X113071962Y-84200500D01*
X113071962Y-84200499D01*
X113210053Y-84159953D01*
X113331128Y-84082143D01*
X113425377Y-83973373D01*
X113485165Y-83842457D01*
X113505647Y-83700000D01*
X113485165Y-83557543D01*
X113425377Y-83426627D01*
X113331128Y-83317857D01*
X113210053Y-83240047D01*
X113210051Y-83240046D01*
X113210049Y-83240045D01*
X113210050Y-83240045D01*
X113071963Y-83199500D01*
X113071961Y-83199500D01*
X112928039Y-83199500D01*
X112928036Y-83199500D01*
X112789949Y-83240045D01*
X112668873Y-83317856D01*
X112574623Y-83426626D01*
X112574622Y-83426628D01*
X112514834Y-83557543D01*
X112494353Y-83700000D01*
X109522264Y-83700000D01*
X109512195Y-83682560D01*
X109389050Y-83545793D01*
X109389048Y-83545791D01*
X109240165Y-83437621D01*
X109240162Y-83437619D01*
X109240161Y-83437619D01*
X109179112Y-83410438D01*
X109072038Y-83362765D01*
X109072033Y-83362763D01*
X108892019Y-83324500D01*
X108707981Y-83324500D01*
X108527966Y-83362763D01*
X108527961Y-83362765D01*
X108359839Y-83437619D01*
X108359834Y-83437621D01*
X108210951Y-83545791D01*
X108210949Y-83545793D01*
X108087804Y-83682561D01*
X107995786Y-83841940D01*
X107995783Y-83841946D01*
X107938916Y-84016967D01*
X107938915Y-84016971D01*
X107923887Y-84159953D01*
X107923321Y-84165342D01*
X107909137Y-84199814D01*
X107690676Y-84199814D01*
X107678023Y-84174687D01*
X107676679Y-84165342D01*
X107676113Y-84159953D01*
X107661085Y-84016971D01*
X107604382Y-83842457D01*
X107604216Y-83841946D01*
X107604213Y-83841940D01*
X107512195Y-83682560D01*
X107389050Y-83545793D01*
X107389048Y-83545791D01*
X107240165Y-83437621D01*
X107240162Y-83437619D01*
X107240161Y-83437619D01*
X107179112Y-83410438D01*
X107072038Y-83362765D01*
X107072033Y-83362763D01*
X106892019Y-83324500D01*
X106707981Y-83324500D01*
X106527966Y-83362763D01*
X106527961Y-83362765D01*
X106359839Y-83437619D01*
X106359834Y-83437621D01*
X106210951Y-83545791D01*
X106210949Y-83545793D01*
X106087804Y-83682561D01*
X105995786Y-83841940D01*
X105995783Y-83841946D01*
X105938916Y-84016967D01*
X105938915Y-84016971D01*
X105919678Y-84200000D01*
X101900500Y-84200000D01*
X101900500Y-82200000D01*
X105919678Y-82200000D01*
X105938915Y-82383029D01*
X105938916Y-82383032D01*
X105995783Y-82558053D01*
X105995786Y-82558059D01*
X106087805Y-82717440D01*
X106197327Y-82839077D01*
X106210949Y-82854206D01*
X106210951Y-82854208D01*
X106359834Y-82962378D01*
X106359835Y-82962378D01*
X106359839Y-82962381D01*
X106496953Y-83023428D01*
X106527961Y-83037234D01*
X106527966Y-83037236D01*
X106707981Y-83075500D01*
X106892019Y-83075500D01*
X107072034Y-83037236D01*
X107240161Y-82962381D01*
X107389050Y-82854207D01*
X107512195Y-82717440D01*
X107604214Y-82558059D01*
X107661085Y-82383029D01*
X107676679Y-82234655D01*
X107690862Y-82200184D01*
X107690676Y-82199814D01*
X107909137Y-82199814D01*
X107921977Y-82225312D01*
X107923319Y-82234646D01*
X107938915Y-82383029D01*
X107938916Y-82383032D01*
X107995783Y-82558053D01*
X107995786Y-82558059D01*
X108087805Y-82717440D01*
X108197327Y-82839077D01*
X108210949Y-82854206D01*
X108210951Y-82854208D01*
X108359834Y-82962378D01*
X108359835Y-82962378D01*
X108359839Y-82962381D01*
X108496953Y-83023428D01*
X108527961Y-83037234D01*
X108527966Y-83037236D01*
X108707981Y-83075500D01*
X108892019Y-83075500D01*
X109072034Y-83037236D01*
X109240161Y-82962381D01*
X109389050Y-82854207D01*
X109512195Y-82717440D01*
X109604214Y-82558059D01*
X109661085Y-82383029D01*
X109680322Y-82200000D01*
X109661085Y-82016971D01*
X109624061Y-81903023D01*
X109604216Y-81841946D01*
X109604213Y-81841940D01*
X109512195Y-81682560D01*
X109389050Y-81545793D01*
X109389048Y-81545791D01*
X109240165Y-81437621D01*
X109240162Y-81437619D01*
X109240161Y-81437619D01*
X109179112Y-81410438D01*
X109072038Y-81362765D01*
X109072033Y-81362763D01*
X108892019Y-81324500D01*
X108707981Y-81324500D01*
X108527966Y-81362763D01*
X108527961Y-81362765D01*
X108359839Y-81437619D01*
X108359834Y-81437621D01*
X108210951Y-81545791D01*
X108210949Y-81545793D01*
X108087804Y-81682561D01*
X107995786Y-81841940D01*
X107995783Y-81841946D01*
X107958496Y-81956706D01*
X107938915Y-82016971D01*
X107923321Y-82165342D01*
X107909137Y-82199814D01*
X107690676Y-82199814D01*
X107678023Y-82174687D01*
X107676679Y-82165342D01*
X107661085Y-82016971D01*
X107624061Y-81903023D01*
X107604216Y-81841946D01*
X107604213Y-81841940D01*
X107512195Y-81682560D01*
X107389050Y-81545793D01*
X107389048Y-81545791D01*
X107240165Y-81437621D01*
X107240162Y-81437619D01*
X107240161Y-81437619D01*
X107179112Y-81410438D01*
X107072038Y-81362765D01*
X107072033Y-81362763D01*
X106892019Y-81324500D01*
X106707981Y-81324500D01*
X106527966Y-81362763D01*
X106527961Y-81362765D01*
X106359839Y-81437619D01*
X106359834Y-81437621D01*
X106210951Y-81545791D01*
X106210949Y-81545793D01*
X106087804Y-81682561D01*
X105995786Y-81841940D01*
X105995783Y-81841946D01*
X105958496Y-81956706D01*
X105938915Y-82016971D01*
X105919678Y-82200000D01*
X101900500Y-82200000D01*
X101900500Y-82175833D01*
X101920185Y-82108794D01*
X101936819Y-82088152D01*
X102388152Y-81636819D01*
X102449475Y-81603334D01*
X102463197Y-81601858D01*
X102463184Y-81601762D01*
X102471956Y-81600500D01*
X102471961Y-81600500D01*
X102579121Y-81569035D01*
X102610050Y-81559954D01*
X102610050Y-81559953D01*
X102610053Y-81559953D01*
X102731128Y-81482143D01*
X102825377Y-81373373D01*
X102885165Y-81242457D01*
X102905647Y-81100000D01*
X102885165Y-80957543D01*
X102856489Y-80894752D01*
X105924500Y-80894752D01*
X105936131Y-80953229D01*
X105936132Y-80953230D01*
X105980447Y-81019552D01*
X106046769Y-81063867D01*
X106046770Y-81063868D01*
X106105247Y-81075499D01*
X106105250Y-81075500D01*
X106105252Y-81075500D01*
X107494750Y-81075500D01*
X107494751Y-81075499D01*
X107509568Y-81072552D01*
X107553229Y-81063868D01*
X107553229Y-81063867D01*
X107553231Y-81063867D01*
X107619552Y-81019552D01*
X107663867Y-80953231D01*
X107663867Y-80953229D01*
X107663868Y-80953229D01*
X107675499Y-80894752D01*
X107675500Y-80894750D01*
X107675500Y-80242862D01*
X107688007Y-80200265D01*
X107686505Y-80197282D01*
X107911636Y-80197282D01*
X107918477Y-80207927D01*
X107922820Y-80229895D01*
X107938915Y-80383029D01*
X107938916Y-80383032D01*
X107995783Y-80558053D01*
X107995786Y-80558059D01*
X108087805Y-80717440D01*
X108186116Y-80826626D01*
X108210949Y-80854206D01*
X108210951Y-80854208D01*
X108359834Y-80962378D01*
X108359835Y-80962378D01*
X108359839Y-80962381D01*
X108488247Y-81019552D01*
X108527961Y-81037234D01*
X108527966Y-81037236D01*
X108707981Y-81075500D01*
X108892019Y-81075500D01*
X109072034Y-81037236D01*
X109240161Y-80962381D01*
X109389050Y-80854207D01*
X109512195Y-80717440D01*
X109604214Y-80558059D01*
X109661085Y-80383029D01*
X109680322Y-80200000D01*
X109661085Y-80016971D01*
X109621284Y-79894477D01*
X109604216Y-79841946D01*
X109604213Y-79841940D01*
X109521975Y-79699500D01*
X109512195Y-79682560D01*
X109389050Y-79545793D01*
X109389048Y-79545791D01*
X109240165Y-79437621D01*
X109240162Y-79437619D01*
X109240161Y-79437619D01*
X109179112Y-79410438D01*
X109072038Y-79362765D01*
X109072033Y-79362763D01*
X108892019Y-79324500D01*
X108707981Y-79324500D01*
X108527966Y-79362763D01*
X108527961Y-79362765D01*
X108359839Y-79437619D01*
X108359834Y-79437621D01*
X108210951Y-79545791D01*
X108210949Y-79545793D01*
X108087804Y-79682561D01*
X107995786Y-79841940D01*
X107995783Y-79841946D01*
X107938916Y-80016967D01*
X107938915Y-80016971D01*
X107934651Y-80057543D01*
X107922821Y-80170099D01*
X107911636Y-80197282D01*
X107686505Y-80197282D01*
X107677523Y-80179444D01*
X107675500Y-80157137D01*
X107675500Y-79505249D01*
X107675499Y-79505247D01*
X107663868Y-79446770D01*
X107663867Y-79446769D01*
X107619552Y-79380447D01*
X107553230Y-79336132D01*
X107553229Y-79336131D01*
X107494752Y-79324500D01*
X107494748Y-79324500D01*
X106105252Y-79324500D01*
X106105247Y-79324500D01*
X106046770Y-79336131D01*
X106046769Y-79336132D01*
X105980447Y-79380447D01*
X105936132Y-79446769D01*
X105936131Y-79446770D01*
X105924500Y-79505247D01*
X105924500Y-80894752D01*
X102856489Y-80894752D01*
X102825377Y-80826627D01*
X102731128Y-80717857D01*
X102731126Y-80717855D01*
X102725320Y-80711155D01*
X102726401Y-80710218D01*
X102693764Y-80659435D01*
X102693764Y-80589566D01*
X102731538Y-80530787D01*
X102795093Y-80501762D01*
X102812741Y-80500500D01*
X102841499Y-80500500D01*
X102908538Y-80520185D01*
X102935211Y-80543296D01*
X102968872Y-80582143D01*
X103089947Y-80659953D01*
X103089950Y-80659954D01*
X103089949Y-80659954D01*
X103228036Y-80700499D01*
X103228038Y-80700500D01*
X103228039Y-80700500D01*
X103371962Y-80700500D01*
X103371962Y-80700499D01*
X103510053Y-80659953D01*
X103631128Y-80582143D01*
X103725377Y-80473373D01*
X103785165Y-80342457D01*
X103805647Y-80200000D01*
X103785165Y-80057543D01*
X103725377Y-79926627D01*
X103631128Y-79817857D01*
X103510053Y-79740047D01*
X103510051Y-79740046D01*
X103510049Y-79740045D01*
X103510050Y-79740045D01*
X103371963Y-79699500D01*
X103371961Y-79699500D01*
X103228039Y-79699500D01*
X103228036Y-79699500D01*
X103089949Y-79740045D01*
X102968873Y-79817856D01*
X102935212Y-79856703D01*
X102876433Y-79894477D01*
X102841499Y-79899500D01*
X101960438Y-79899500D01*
X101884010Y-79919978D01*
X101815489Y-79959540D01*
X101815486Y-79959542D01*
X100962181Y-80812848D01*
X100900858Y-80846333D01*
X100831166Y-80841349D01*
X100775233Y-80799477D01*
X100750816Y-80734013D01*
X100750500Y-80725167D01*
X100750500Y-78500000D01*
X110094353Y-78500000D01*
X110114834Y-78642456D01*
X110174622Y-78773371D01*
X110174623Y-78773373D01*
X110268872Y-78882143D01*
X110389947Y-78959953D01*
X110389950Y-78959954D01*
X110389949Y-78959954D01*
X110528036Y-79000499D01*
X110528038Y-79000500D01*
X110528039Y-79000500D01*
X110671962Y-79000500D01*
X110671962Y-79000499D01*
X110810053Y-78959953D01*
X110931128Y-78882143D01*
X111025377Y-78773373D01*
X111085165Y-78642457D01*
X111105647Y-78500000D01*
X111085165Y-78357543D01*
X111025377Y-78226627D01*
X110931128Y-78117857D01*
X110810053Y-78040047D01*
X110810051Y-78040046D01*
X110810049Y-78040045D01*
X110810050Y-78040045D01*
X110671963Y-77999500D01*
X110671961Y-77999500D01*
X110528039Y-77999500D01*
X110528036Y-77999500D01*
X110389949Y-78040045D01*
X110268873Y-78117856D01*
X110174623Y-78226626D01*
X110174622Y-78226628D01*
X110114834Y-78357543D01*
X110094353Y-78500000D01*
X100750500Y-78500000D01*
X100750500Y-77800000D01*
X106094353Y-77800000D01*
X106114834Y-77942456D01*
X106140886Y-77999500D01*
X106174623Y-78073373D01*
X106268872Y-78182143D01*
X106389947Y-78259953D01*
X106389950Y-78259954D01*
X106389949Y-78259954D01*
X106528036Y-78300499D01*
X106528038Y-78300500D01*
X106528039Y-78300500D01*
X106671962Y-78300500D01*
X106671962Y-78300499D01*
X106810053Y-78259953D01*
X106931128Y-78182143D01*
X107025377Y-78073373D01*
X107085165Y-77942457D01*
X107105647Y-77800000D01*
X107085165Y-77657543D01*
X107025377Y-77526627D01*
X106931128Y-77417857D01*
X106810053Y-77340047D01*
X106810051Y-77340046D01*
X106810049Y-77340045D01*
X106810050Y-77340045D01*
X106671963Y-77299500D01*
X106671961Y-77299500D01*
X106528039Y-77299500D01*
X106528036Y-77299500D01*
X106389949Y-77340045D01*
X106268873Y-77417856D01*
X106174623Y-77526626D01*
X106174622Y-77526628D01*
X106114834Y-77657543D01*
X106094353Y-77800000D01*
X100750500Y-77800000D01*
X100750500Y-76818723D01*
X101202295Y-76818723D01*
X101222776Y-76961179D01*
X101282564Y-77092094D01*
X101282565Y-77092096D01*
X101376814Y-77200866D01*
X101497889Y-77278676D01*
X101497892Y-77278677D01*
X101497891Y-77278677D01*
X101635978Y-77319222D01*
X101635980Y-77319223D01*
X101635981Y-77319223D01*
X101779904Y-77319223D01*
X101779904Y-77319222D01*
X101917995Y-77278676D01*
X102039070Y-77200866D01*
X102133319Y-77092096D01*
X102193107Y-76961180D01*
X102213589Y-76818723D01*
X102193107Y-76676266D01*
X102133319Y-76545350D01*
X102039070Y-76436580D01*
X101917995Y-76358770D01*
X101917993Y-76358769D01*
X101917991Y-76358768D01*
X101917992Y-76358768D01*
X101779905Y-76318223D01*
X101779903Y-76318223D01*
X101635981Y-76318223D01*
X101635978Y-76318223D01*
X101497891Y-76358768D01*
X101376815Y-76436579D01*
X101282565Y-76545349D01*
X101282564Y-76545351D01*
X101222776Y-76676266D01*
X101202295Y-76818723D01*
X100750500Y-76818723D01*
X100750500Y-75237712D01*
X100761320Y-75200863D01*
X100759422Y-75196708D01*
X100989577Y-75196708D01*
X100993477Y-75202777D01*
X100997238Y-75220065D01*
X101014834Y-75342456D01*
X101074622Y-75473371D01*
X101074623Y-75473373D01*
X101168872Y-75582143D01*
X101289947Y-75659953D01*
X101289950Y-75659954D01*
X101289949Y-75659954D01*
X101428036Y-75700499D01*
X101428038Y-75700500D01*
X101428039Y-75700500D01*
X101571962Y-75700500D01*
X101571962Y-75700499D01*
X101710053Y-75659953D01*
X101803342Y-75600000D01*
X103094353Y-75600000D01*
X103114834Y-75742456D01*
X103174622Y-75873371D01*
X103174623Y-75873373D01*
X103268872Y-75982143D01*
X103389947Y-76059953D01*
X103389950Y-76059954D01*
X103389949Y-76059954D01*
X103528036Y-76100499D01*
X103528038Y-76100500D01*
X103528039Y-76100500D01*
X103671962Y-76100500D01*
X103671962Y-76100499D01*
X103810053Y-76059953D01*
X103931128Y-75982143D01*
X103997828Y-75905166D01*
X106599519Y-75905166D01*
X106620000Y-76047622D01*
X106625632Y-76059954D01*
X106679789Y-76178539D01*
X106774038Y-76287309D01*
X106895113Y-76365119D01*
X106895116Y-76365120D01*
X106895115Y-76365120D01*
X107030433Y-76404852D01*
X107089211Y-76442625D01*
X107118237Y-76506181D01*
X107115200Y-76548636D01*
X107116097Y-76548765D01*
X107094353Y-76700000D01*
X107114834Y-76842456D01*
X107174622Y-76973371D01*
X107174623Y-76973373D01*
X107268872Y-77082143D01*
X107389947Y-77159953D01*
X107389950Y-77159954D01*
X107389949Y-77159954D01*
X107528036Y-77200499D01*
X107528038Y-77200500D01*
X107528039Y-77200500D01*
X107671962Y-77200500D01*
X107671962Y-77200499D01*
X107810053Y-77159953D01*
X107931128Y-77082143D01*
X108025377Y-76973373D01*
X108085165Y-76842457D01*
X108105647Y-76700000D01*
X115494353Y-76700000D01*
X115514834Y-76842456D01*
X115574622Y-76973371D01*
X115574623Y-76973373D01*
X115668872Y-77082143D01*
X115789947Y-77159953D01*
X115789950Y-77159954D01*
X115789949Y-77159954D01*
X115928036Y-77200499D01*
X115928038Y-77200500D01*
X115928039Y-77200500D01*
X116071962Y-77200500D01*
X116071962Y-77200499D01*
X116210053Y-77159953D01*
X116331128Y-77082143D01*
X116425377Y-76973373D01*
X116485165Y-76842457D01*
X116505647Y-76700000D01*
X116485165Y-76557543D01*
X116425377Y-76426627D01*
X116331128Y-76317857D01*
X116210053Y-76240047D01*
X116210051Y-76240046D01*
X116210049Y-76240045D01*
X116210050Y-76240045D01*
X116071963Y-76199500D01*
X116071961Y-76199500D01*
X115928039Y-76199500D01*
X115928036Y-76199500D01*
X115789949Y-76240045D01*
X115668873Y-76317856D01*
X115574623Y-76426626D01*
X115574622Y-76426628D01*
X115514834Y-76557543D01*
X115494353Y-76700000D01*
X108105647Y-76700000D01*
X108085165Y-76557543D01*
X108025377Y-76426627D01*
X107931128Y-76317857D01*
X107810053Y-76240047D01*
X107810051Y-76240046D01*
X107810049Y-76240045D01*
X107810050Y-76240045D01*
X107674732Y-76200313D01*
X107615953Y-76162539D01*
X107586928Y-76098984D01*
X107589967Y-76056530D01*
X107589069Y-76056401D01*
X107599745Y-75982143D01*
X107610813Y-75905166D01*
X107590331Y-75762709D01*
X107530543Y-75631793D01*
X107436294Y-75523023D01*
X107315219Y-75445213D01*
X107315217Y-75445212D01*
X107315215Y-75445211D01*
X107315216Y-75445211D01*
X107177129Y-75404666D01*
X107177127Y-75404666D01*
X107033205Y-75404666D01*
X107033202Y-75404666D01*
X106895115Y-75445211D01*
X106774039Y-75523022D01*
X106679789Y-75631792D01*
X106679788Y-75631794D01*
X106620000Y-75762709D01*
X106599519Y-75905166D01*
X103997828Y-75905166D01*
X104025377Y-75873373D01*
X104085165Y-75742457D01*
X104105647Y-75600000D01*
X104085165Y-75457543D01*
X104025377Y-75326627D01*
X103931128Y-75217857D01*
X103810053Y-75140047D01*
X103810051Y-75140046D01*
X103810049Y-75140045D01*
X103810050Y-75140045D01*
X103673666Y-75100000D01*
X104694353Y-75100000D01*
X104714834Y-75242456D01*
X104760504Y-75342457D01*
X104774623Y-75373373D01*
X104868872Y-75482143D01*
X104989947Y-75559953D01*
X104989950Y-75559954D01*
X104989949Y-75559954D01*
X105065520Y-75582143D01*
X105126336Y-75600000D01*
X105128036Y-75600499D01*
X105128038Y-75600500D01*
X105128039Y-75600500D01*
X105271962Y-75600500D01*
X105271962Y-75600499D01*
X105410053Y-75559953D01*
X105531128Y-75482143D01*
X105625377Y-75373373D01*
X105685165Y-75242457D01*
X105705647Y-75100000D01*
X105685165Y-74957543D01*
X105625377Y-74826627D01*
X105531128Y-74717857D01*
X105410053Y-74640047D01*
X105410051Y-74640046D01*
X105410049Y-74640045D01*
X105410050Y-74640045D01*
X105271963Y-74599500D01*
X105271961Y-74599500D01*
X105128039Y-74599500D01*
X105128036Y-74599500D01*
X104989949Y-74640045D01*
X104868873Y-74717856D01*
X104774623Y-74826626D01*
X104774622Y-74826628D01*
X104714834Y-74957543D01*
X104694353Y-75100000D01*
X103673666Y-75100000D01*
X103671963Y-75099500D01*
X103671961Y-75099500D01*
X103528039Y-75099500D01*
X103528036Y-75099500D01*
X103389949Y-75140045D01*
X103268873Y-75217856D01*
X103174623Y-75326626D01*
X103174622Y-75326628D01*
X103114834Y-75457543D01*
X103094353Y-75600000D01*
X101803342Y-75600000D01*
X101831128Y-75582143D01*
X101925377Y-75473373D01*
X101985165Y-75342457D01*
X102005647Y-75200000D01*
X101985165Y-75057543D01*
X101925377Y-74926627D01*
X101831128Y-74817857D01*
X101710053Y-74740047D01*
X101710051Y-74740046D01*
X101710049Y-74740045D01*
X101710050Y-74740045D01*
X101571963Y-74699500D01*
X101571961Y-74699500D01*
X101428039Y-74699500D01*
X101428036Y-74699500D01*
X101289949Y-74740045D01*
X101168873Y-74817856D01*
X101074623Y-74926626D01*
X101074622Y-74926628D01*
X101014834Y-75057543D01*
X100997238Y-75179934D01*
X100989577Y-75196708D01*
X100759422Y-75196708D01*
X100751762Y-75179934D01*
X100750500Y-75162287D01*
X100750500Y-72961802D01*
X108694353Y-72961802D01*
X108714834Y-73104258D01*
X108739169Y-73157543D01*
X108774623Y-73235175D01*
X108868872Y-73343945D01*
X108989947Y-73421755D01*
X108989950Y-73421756D01*
X108989949Y-73421756D01*
X109128036Y-73462301D01*
X109128038Y-73462302D01*
X109128039Y-73462302D01*
X109271962Y-73462302D01*
X109271962Y-73462301D01*
X109410053Y-73421755D01*
X109531128Y-73343945D01*
X109569206Y-73300000D01*
X115494353Y-73300000D01*
X115514834Y-73442456D01*
X115523898Y-73462302D01*
X115574623Y-73573373D01*
X115668872Y-73682143D01*
X115789947Y-73759953D01*
X115789950Y-73759954D01*
X115789949Y-73759954D01*
X115928036Y-73800499D01*
X115928038Y-73800500D01*
X115928039Y-73800500D01*
X116071962Y-73800500D01*
X116071962Y-73800499D01*
X116210053Y-73759953D01*
X116331128Y-73682143D01*
X116425377Y-73573373D01*
X116485165Y-73442457D01*
X116505647Y-73300000D01*
X116485165Y-73157543D01*
X116425377Y-73026627D01*
X116331128Y-72917857D01*
X116210053Y-72840047D01*
X116210051Y-72840046D01*
X116210049Y-72840045D01*
X116210050Y-72840045D01*
X116071963Y-72799500D01*
X116071961Y-72799500D01*
X115928039Y-72799500D01*
X115928036Y-72799500D01*
X115789949Y-72840045D01*
X115668873Y-72917856D01*
X115574623Y-73026626D01*
X115574622Y-73026628D01*
X115514834Y-73157543D01*
X115494353Y-73300000D01*
X109569206Y-73300000D01*
X109625377Y-73235175D01*
X109685165Y-73104259D01*
X109705647Y-72961802D01*
X109685165Y-72819345D01*
X109625377Y-72688429D01*
X109531128Y-72579659D01*
X109410053Y-72501849D01*
X109410051Y-72501848D01*
X109410049Y-72501847D01*
X109410050Y-72501847D01*
X109271963Y-72461302D01*
X109271961Y-72461302D01*
X109128039Y-72461302D01*
X109128036Y-72461302D01*
X108989949Y-72501847D01*
X108868873Y-72579658D01*
X108774623Y-72688428D01*
X108774622Y-72688430D01*
X108714834Y-72819345D01*
X108694353Y-72961802D01*
X100750500Y-72961802D01*
X100750500Y-71700000D01*
X108594353Y-71700000D01*
X108614834Y-71842456D01*
X108632959Y-71882143D01*
X108674623Y-71973373D01*
X108768872Y-72082143D01*
X108889947Y-72159953D01*
X108889950Y-72159954D01*
X108889949Y-72159954D01*
X109028036Y-72200499D01*
X109028038Y-72200500D01*
X109028039Y-72200500D01*
X109171962Y-72200500D01*
X109171962Y-72200499D01*
X109310053Y-72159953D01*
X109431128Y-72082143D01*
X109525377Y-71973373D01*
X109558886Y-71900000D01*
X113394353Y-71900000D01*
X113414834Y-72042456D01*
X113432959Y-72082143D01*
X113474623Y-72173373D01*
X113568872Y-72282143D01*
X113689947Y-72359953D01*
X113689950Y-72359954D01*
X113689949Y-72359954D01*
X113828036Y-72400499D01*
X113828038Y-72400500D01*
X113828039Y-72400500D01*
X113971962Y-72400500D01*
X113971962Y-72400499D01*
X114110053Y-72359953D01*
X114231128Y-72282143D01*
X114325377Y-72173373D01*
X114385165Y-72042457D01*
X114405647Y-71900000D01*
X114385165Y-71757543D01*
X114325377Y-71626627D01*
X114231128Y-71517857D01*
X114203342Y-71500000D01*
X115994353Y-71500000D01*
X116014834Y-71642456D01*
X116074622Y-71773371D01*
X116074623Y-71773373D01*
X116168872Y-71882143D01*
X116289947Y-71959953D01*
X116289950Y-71959954D01*
X116289949Y-71959954D01*
X116428036Y-72000499D01*
X116428038Y-72000500D01*
X116428039Y-72000500D01*
X116571962Y-72000500D01*
X116571962Y-72000499D01*
X116710053Y-71959953D01*
X116831128Y-71882143D01*
X116925377Y-71773373D01*
X116985165Y-71642457D01*
X117005647Y-71500000D01*
X116985165Y-71357543D01*
X116925377Y-71226627D01*
X116831128Y-71117857D01*
X116710053Y-71040047D01*
X116710051Y-71040046D01*
X116710049Y-71040045D01*
X116710050Y-71040045D01*
X116571963Y-70999500D01*
X116571961Y-70999500D01*
X116428039Y-70999500D01*
X116428036Y-70999500D01*
X116289949Y-71040045D01*
X116168873Y-71117856D01*
X116074623Y-71226626D01*
X116074622Y-71226628D01*
X116014834Y-71357543D01*
X115994353Y-71500000D01*
X114203342Y-71500000D01*
X114110053Y-71440047D01*
X114110051Y-71440046D01*
X114110049Y-71440045D01*
X114110050Y-71440045D01*
X113971963Y-71399500D01*
X113971961Y-71399500D01*
X113828039Y-71399500D01*
X113828036Y-71399500D01*
X113689949Y-71440045D01*
X113568873Y-71517856D01*
X113474623Y-71626626D01*
X113474622Y-71626628D01*
X113414834Y-71757543D01*
X113394353Y-71900000D01*
X109558886Y-71900000D01*
X109585165Y-71842457D01*
X109605647Y-71700000D01*
X109585165Y-71557543D01*
X109525377Y-71426627D01*
X109431128Y-71317857D01*
X109310053Y-71240047D01*
X109310051Y-71240046D01*
X109310049Y-71240045D01*
X109310050Y-71240045D01*
X109171963Y-71199500D01*
X109171961Y-71199500D01*
X109028039Y-71199500D01*
X109028036Y-71199500D01*
X108889949Y-71240045D01*
X108768873Y-71317856D01*
X108674623Y-71426626D01*
X108674622Y-71426628D01*
X108614834Y-71557543D01*
X108594353Y-71700000D01*
X100750500Y-71700000D01*
X100750500Y-70400000D01*
X105694353Y-70400000D01*
X105714834Y-70542456D01*
X105774622Y-70673371D01*
X105774623Y-70673373D01*
X105868872Y-70782143D01*
X105989947Y-70859953D01*
X105989950Y-70859954D01*
X105989949Y-70859954D01*
X106128036Y-70900499D01*
X106128038Y-70900500D01*
X106128039Y-70900500D01*
X106271962Y-70900500D01*
X106271962Y-70900499D01*
X106410053Y-70859953D01*
X106531128Y-70782143D01*
X106625377Y-70673373D01*
X106685165Y-70542457D01*
X106705647Y-70400000D01*
X107194353Y-70400000D01*
X107214834Y-70542456D01*
X107274622Y-70673371D01*
X107274623Y-70673373D01*
X107368872Y-70782143D01*
X107489947Y-70859953D01*
X107489950Y-70859954D01*
X107489949Y-70859954D01*
X107628036Y-70900499D01*
X107628038Y-70900500D01*
X107628039Y-70900500D01*
X107771962Y-70900500D01*
X107771962Y-70900499D01*
X107910053Y-70859953D01*
X108031128Y-70782143D01*
X108125377Y-70673373D01*
X108185165Y-70542457D01*
X108205647Y-70400000D01*
X108185165Y-70257543D01*
X108125377Y-70126627D01*
X108031128Y-70017857D01*
X107910053Y-69940047D01*
X107910051Y-69940046D01*
X107910049Y-69940045D01*
X107910050Y-69940045D01*
X107771963Y-69899500D01*
X107771961Y-69899500D01*
X107628039Y-69899500D01*
X107628036Y-69899500D01*
X107489949Y-69940045D01*
X107368873Y-70017856D01*
X107274623Y-70126626D01*
X107274622Y-70126628D01*
X107214834Y-70257543D01*
X107194353Y-70400000D01*
X106705647Y-70400000D01*
X106685165Y-70257543D01*
X106625377Y-70126627D01*
X106531128Y-70017857D01*
X106410053Y-69940047D01*
X106410051Y-69940046D01*
X106410049Y-69940045D01*
X106410050Y-69940045D01*
X106271963Y-69899500D01*
X106271961Y-69899500D01*
X106128039Y-69899500D01*
X106128036Y-69899500D01*
X105989949Y-69940045D01*
X105868873Y-70017856D01*
X105774623Y-70126626D01*
X105774622Y-70126628D01*
X105714834Y-70257543D01*
X105694353Y-70400000D01*
X100750500Y-70400000D01*
X100750500Y-68300000D01*
X112994353Y-68300000D01*
X113014834Y-68442456D01*
X113074622Y-68573371D01*
X113074623Y-68573373D01*
X113168872Y-68682143D01*
X113289947Y-68759953D01*
X113289950Y-68759954D01*
X113289949Y-68759954D01*
X113428036Y-68800499D01*
X113428038Y-68800500D01*
X113428039Y-68800500D01*
X113571962Y-68800500D01*
X113571962Y-68800499D01*
X113710053Y-68759953D01*
X113831128Y-68682143D01*
X113925377Y-68573373D01*
X113985165Y-68442457D01*
X114005647Y-68300000D01*
X113985165Y-68157543D01*
X113925377Y-68026627D01*
X113831128Y-67917857D01*
X113710053Y-67840047D01*
X113710051Y-67840046D01*
X113710049Y-67840045D01*
X113710050Y-67840045D01*
X113571963Y-67799500D01*
X113571961Y-67799500D01*
X113428039Y-67799500D01*
X113428036Y-67799500D01*
X113289949Y-67840045D01*
X113168873Y-67917856D01*
X113074623Y-68026626D01*
X113074622Y-68026628D01*
X113014834Y-68157543D01*
X112994353Y-68300000D01*
X100750500Y-68300000D01*
X100750500Y-66400000D01*
X121194353Y-66400000D01*
X121214834Y-66542456D01*
X121274622Y-66673371D01*
X121274623Y-66673373D01*
X121368872Y-66782143D01*
X121489947Y-66859953D01*
X121489950Y-66859954D01*
X121489949Y-66859954D01*
X121628036Y-66900499D01*
X121628038Y-66900500D01*
X121628039Y-66900500D01*
X121771962Y-66900500D01*
X121771962Y-66900499D01*
X121910053Y-66859953D01*
X122031128Y-66782143D01*
X122125377Y-66673373D01*
X122185165Y-66542457D01*
X122205647Y-66400000D01*
X122185165Y-66257543D01*
X122125377Y-66126627D01*
X122031128Y-66017857D01*
X121910053Y-65940047D01*
X121910051Y-65940046D01*
X121910049Y-65940045D01*
X121910050Y-65940045D01*
X121771963Y-65899500D01*
X121771961Y-65899500D01*
X121628039Y-65899500D01*
X121628036Y-65899500D01*
X121489949Y-65940045D01*
X121368873Y-66017856D01*
X121274623Y-66126626D01*
X121274622Y-66126628D01*
X121214834Y-66257543D01*
X121194353Y-66400000D01*
X100750500Y-66400000D01*
X100750500Y-65500000D01*
X115894353Y-65500000D01*
X115914834Y-65642456D01*
X115974622Y-65773371D01*
X115974623Y-65773373D01*
X116068872Y-65882143D01*
X116189947Y-65959953D01*
X116189950Y-65959954D01*
X116189949Y-65959954D01*
X116328036Y-66000499D01*
X116328038Y-66000500D01*
X116328039Y-66000500D01*
X116471962Y-66000500D01*
X116471962Y-66000499D01*
X116610053Y-65959953D01*
X116731128Y-65882143D01*
X116825377Y-65773373D01*
X116885165Y-65642457D01*
X116905647Y-65500000D01*
X116885165Y-65357543D01*
X116825377Y-65226627D01*
X116731128Y-65117857D01*
X116610053Y-65040047D01*
X116610051Y-65040046D01*
X116610049Y-65040045D01*
X116610050Y-65040045D01*
X116471963Y-64999500D01*
X116471961Y-64999500D01*
X116328039Y-64999500D01*
X116328036Y-64999500D01*
X116189949Y-65040045D01*
X116068873Y-65117856D01*
X115974623Y-65226626D01*
X115974622Y-65226628D01*
X115914834Y-65357543D01*
X115894353Y-65500000D01*
X100750500Y-65500000D01*
X100750500Y-63200000D01*
X102194353Y-63200000D01*
X102214834Y-63342456D01*
X102253275Y-63426628D01*
X102274623Y-63473373D01*
X102368872Y-63582143D01*
X102489947Y-63659953D01*
X102489950Y-63659954D01*
X102489949Y-63659954D01*
X102597107Y-63691417D01*
X102626336Y-63700000D01*
X102628036Y-63700499D01*
X102628038Y-63700500D01*
X102628039Y-63700500D01*
X102771962Y-63700500D01*
X102771962Y-63700499D01*
X102773661Y-63700000D01*
X106794353Y-63700000D01*
X106814834Y-63842456D01*
X106849269Y-63917856D01*
X106874623Y-63973373D01*
X106968872Y-64082143D01*
X107089947Y-64159953D01*
X107089950Y-64159954D01*
X107089949Y-64159954D01*
X107228036Y-64200499D01*
X107228038Y-64200500D01*
X107228039Y-64200500D01*
X107371961Y-64200500D01*
X107435420Y-64181867D01*
X107505287Y-64181867D01*
X107564065Y-64219641D01*
X107593091Y-64283196D01*
X107594232Y-64299163D01*
X107614834Y-64442456D01*
X107674622Y-64573371D01*
X107674623Y-64573373D01*
X107768872Y-64682143D01*
X107889947Y-64759953D01*
X107889950Y-64759954D01*
X107889949Y-64759954D01*
X108028036Y-64800499D01*
X108028038Y-64800500D01*
X108028039Y-64800500D01*
X108171962Y-64800500D01*
X108171962Y-64800499D01*
X108310053Y-64759953D01*
X108431128Y-64682143D01*
X108525377Y-64573373D01*
X108585165Y-64442457D01*
X108605647Y-64300000D01*
X108585165Y-64157543D01*
X108525377Y-64026627D01*
X108431128Y-63917857D01*
X108310053Y-63840047D01*
X108310051Y-63840046D01*
X108310049Y-63840045D01*
X108310050Y-63840045D01*
X108171963Y-63799500D01*
X108171961Y-63799500D01*
X108028039Y-63799500D01*
X108028036Y-63799500D01*
X107964581Y-63818132D01*
X107894712Y-63818132D01*
X107835934Y-63780357D01*
X107806909Y-63716801D01*
X107805767Y-63700837D01*
X107785165Y-63557543D01*
X107746725Y-63473373D01*
X107725377Y-63426627D01*
X107631128Y-63317857D01*
X107510053Y-63240047D01*
X107510051Y-63240046D01*
X107510049Y-63240045D01*
X107510050Y-63240045D01*
X107371963Y-63199500D01*
X107371961Y-63199500D01*
X107228039Y-63199500D01*
X107228036Y-63199500D01*
X107089949Y-63240045D01*
X106968873Y-63317856D01*
X106874623Y-63426626D01*
X106874622Y-63426628D01*
X106814834Y-63557543D01*
X106794353Y-63700000D01*
X102773661Y-63700000D01*
X102910053Y-63659953D01*
X103031128Y-63582143D01*
X103125377Y-63473373D01*
X103185165Y-63342457D01*
X103205647Y-63200000D01*
X103185165Y-63057543D01*
X103125377Y-62926627D01*
X103031128Y-62817857D01*
X102910053Y-62740047D01*
X102910051Y-62740046D01*
X102910049Y-62740045D01*
X102910050Y-62740045D01*
X102771963Y-62699500D01*
X102771961Y-62699500D01*
X102628039Y-62699500D01*
X102628036Y-62699500D01*
X102489949Y-62740045D01*
X102368873Y-62817856D01*
X102274623Y-62926626D01*
X102274622Y-62926628D01*
X102214834Y-63057543D01*
X102194353Y-63200000D01*
X100750500Y-63200000D01*
X100750500Y-59500000D01*
X101294353Y-59500000D01*
X101314834Y-59642456D01*
X101374622Y-59773371D01*
X101374623Y-59773373D01*
X101468872Y-59882143D01*
X101589947Y-59959953D01*
X101589950Y-59959954D01*
X101589949Y-59959954D01*
X101697107Y-59991417D01*
X101726336Y-60000000D01*
X101728036Y-60000499D01*
X101728038Y-60000500D01*
X101728039Y-60000500D01*
X101871962Y-60000500D01*
X101871962Y-60000499D01*
X102010053Y-59959953D01*
X102103342Y-59900000D01*
X102494353Y-59900000D01*
X102514834Y-60042456D01*
X102560504Y-60142457D01*
X102574623Y-60173373D01*
X102668872Y-60282143D01*
X102789947Y-60359953D01*
X102789950Y-60359954D01*
X102789949Y-60359954D01*
X102928036Y-60400499D01*
X102928038Y-60400500D01*
X102928039Y-60400500D01*
X103071962Y-60400500D01*
X103071962Y-60400499D01*
X103210053Y-60359953D01*
X103331128Y-60282143D01*
X103425377Y-60173373D01*
X103485165Y-60042457D01*
X103491269Y-60000000D01*
X108894353Y-60000000D01*
X108914834Y-60142456D01*
X108928953Y-60173371D01*
X108974623Y-60273373D01*
X109068872Y-60382143D01*
X109189947Y-60459953D01*
X109189950Y-60459954D01*
X109189949Y-60459954D01*
X109328036Y-60500499D01*
X109328038Y-60500500D01*
X109328039Y-60500500D01*
X109471962Y-60500500D01*
X109471962Y-60500499D01*
X109610053Y-60459953D01*
X109731128Y-60382143D01*
X109825377Y-60273373D01*
X109885165Y-60142457D01*
X109905647Y-60000000D01*
X109885165Y-59857543D01*
X109825377Y-59726627D01*
X109731128Y-59617857D01*
X109610053Y-59540047D01*
X109610051Y-59540046D01*
X109610049Y-59540045D01*
X109610050Y-59540045D01*
X109471963Y-59499500D01*
X109471961Y-59499500D01*
X109328039Y-59499500D01*
X109328036Y-59499500D01*
X109189949Y-59540045D01*
X109068873Y-59617856D01*
X108974623Y-59726626D01*
X108974622Y-59726628D01*
X108914834Y-59857543D01*
X108894353Y-60000000D01*
X103491269Y-60000000D01*
X103505647Y-59900000D01*
X103485165Y-59757543D01*
X103425377Y-59626627D01*
X103331128Y-59517857D01*
X103210053Y-59440047D01*
X103210051Y-59440046D01*
X103210049Y-59440045D01*
X103210050Y-59440045D01*
X103071963Y-59399500D01*
X103071961Y-59399500D01*
X102928039Y-59399500D01*
X102928036Y-59399500D01*
X102789949Y-59440045D01*
X102668873Y-59517856D01*
X102574623Y-59626626D01*
X102574622Y-59626628D01*
X102514834Y-59757543D01*
X102494353Y-59900000D01*
X102103342Y-59900000D01*
X102131128Y-59882143D01*
X102225377Y-59773373D01*
X102285165Y-59642457D01*
X102305647Y-59500000D01*
X102285165Y-59357543D01*
X102225377Y-59226627D01*
X102131128Y-59117857D01*
X102010053Y-59040047D01*
X102010051Y-59040046D01*
X102010049Y-59040045D01*
X102010050Y-59040045D01*
X101871963Y-58999500D01*
X101871961Y-58999500D01*
X101728039Y-58999500D01*
X101728036Y-58999500D01*
X101589949Y-59040045D01*
X101468873Y-59117856D01*
X101374623Y-59226626D01*
X101374622Y-59226628D01*
X101314834Y-59357543D01*
X101294353Y-59500000D01*
X100750500Y-59500000D01*
X100750500Y-58400000D01*
X106694353Y-58400000D01*
X106714834Y-58542456D01*
X106774622Y-58673371D01*
X106774623Y-58673373D01*
X106868872Y-58782143D01*
X106989947Y-58859953D01*
X106989950Y-58859954D01*
X106989949Y-58859954D01*
X107128036Y-58900499D01*
X107128038Y-58900500D01*
X107128039Y-58900500D01*
X107271962Y-58900500D01*
X107271962Y-58900499D01*
X107410053Y-58859953D01*
X107531128Y-58782143D01*
X107625377Y-58673373D01*
X107685165Y-58542457D01*
X107691385Y-58499190D01*
X107720409Y-58435636D01*
X107779186Y-58397860D01*
X107825235Y-58394567D01*
X107825235Y-58394435D01*
X107827089Y-58394435D01*
X107831774Y-58394100D01*
X107834103Y-58394435D01*
X107834104Y-58394435D01*
X107978027Y-58394435D01*
X107978027Y-58394434D01*
X108085186Y-58362970D01*
X108116115Y-58353889D01*
X108116115Y-58353888D01*
X108116118Y-58353888D01*
X108237193Y-58276078D01*
X108331442Y-58167308D01*
X108391230Y-58036392D01*
X108411712Y-57893935D01*
X108391230Y-57751478D01*
X108331442Y-57620562D01*
X108237193Y-57511792D01*
X108116118Y-57433982D01*
X108116116Y-57433981D01*
X108116114Y-57433980D01*
X108116115Y-57433980D01*
X107978028Y-57393435D01*
X107978026Y-57393435D01*
X107834104Y-57393435D01*
X107834101Y-57393435D01*
X107696014Y-57433980D01*
X107574938Y-57511791D01*
X107480688Y-57620561D01*
X107480687Y-57620563D01*
X107420899Y-57751478D01*
X107414679Y-57794745D01*
X107385654Y-57858300D01*
X107326875Y-57896074D01*
X107280829Y-57899368D01*
X107280829Y-57899500D01*
X107278997Y-57899500D01*
X107274301Y-57899836D01*
X107271963Y-57899500D01*
X107271961Y-57899500D01*
X107128039Y-57899500D01*
X107128036Y-57899500D01*
X106989949Y-57940045D01*
X106868873Y-58017856D01*
X106774623Y-58126626D01*
X106774622Y-58126628D01*
X106714834Y-58257543D01*
X106694353Y-58400000D01*
X100750500Y-58400000D01*
X100750500Y-57737712D01*
X100761320Y-57700863D01*
X100759422Y-57696708D01*
X100989577Y-57696708D01*
X100993477Y-57702777D01*
X100997238Y-57720065D01*
X101014834Y-57842456D01*
X101060504Y-57942457D01*
X101074623Y-57973373D01*
X101168872Y-58082143D01*
X101289947Y-58159953D01*
X101289950Y-58159954D01*
X101289949Y-58159954D01*
X101428036Y-58200499D01*
X101428038Y-58200500D01*
X101428039Y-58200500D01*
X101571962Y-58200500D01*
X101571962Y-58200499D01*
X101710053Y-58159953D01*
X101831128Y-58082143D01*
X101925377Y-57973373D01*
X101985165Y-57842457D01*
X101991269Y-57800000D01*
X104494353Y-57800000D01*
X104514834Y-57942456D01*
X104557734Y-58036392D01*
X104574623Y-58073373D01*
X104668872Y-58182143D01*
X104789947Y-58259953D01*
X104789950Y-58259954D01*
X104789949Y-58259954D01*
X104928036Y-58300499D01*
X104928038Y-58300500D01*
X104928039Y-58300500D01*
X105071962Y-58300500D01*
X105071962Y-58300499D01*
X105210053Y-58259953D01*
X105331128Y-58182143D01*
X105425377Y-58073373D01*
X105485165Y-57942457D01*
X105505647Y-57800000D01*
X105485165Y-57657543D01*
X105425377Y-57526627D01*
X105331128Y-57417857D01*
X105210053Y-57340047D01*
X105210051Y-57340046D01*
X105210049Y-57340045D01*
X105210050Y-57340045D01*
X105071963Y-57299500D01*
X105071961Y-57299500D01*
X104928039Y-57299500D01*
X104928036Y-57299500D01*
X104789949Y-57340045D01*
X104668873Y-57417856D01*
X104574623Y-57526626D01*
X104574622Y-57526628D01*
X104514834Y-57657543D01*
X104494353Y-57800000D01*
X101991269Y-57800000D01*
X102005647Y-57700000D01*
X101985165Y-57557543D01*
X101925377Y-57426627D01*
X101831128Y-57317857D01*
X101710053Y-57240047D01*
X101710051Y-57240046D01*
X101710049Y-57240045D01*
X101710050Y-57240045D01*
X101571963Y-57199500D01*
X101571961Y-57199500D01*
X101428039Y-57199500D01*
X101428036Y-57199500D01*
X101289949Y-57240045D01*
X101168873Y-57317856D01*
X101074623Y-57426626D01*
X101074622Y-57426628D01*
X101014834Y-57557543D01*
X100997238Y-57679934D01*
X100989577Y-57696708D01*
X100759422Y-57696708D01*
X100751762Y-57679934D01*
X100750500Y-57662287D01*
X100750500Y-54236618D01*
X103017359Y-54236618D01*
X103046017Y-54380693D01*
X103046020Y-54380703D01*
X103102237Y-54516425D01*
X103102242Y-54516434D01*
X103183857Y-54638578D01*
X103183860Y-54638582D01*
X103287735Y-54742457D01*
X103287739Y-54742460D01*
X103409883Y-54824075D01*
X103409889Y-54824078D01*
X103409890Y-54824079D01*
X103545617Y-54880299D01*
X103647177Y-54900500D01*
X103689699Y-54908958D01*
X103689703Y-54908959D01*
X103689704Y-54908959D01*
X103836615Y-54908959D01*
X103836616Y-54908958D01*
X103980701Y-54880299D01*
X104116428Y-54824079D01*
X104238579Y-54742460D01*
X104302940Y-54678098D01*
X104364261Y-54644615D01*
X104433953Y-54649599D01*
X104484333Y-54684579D01*
X104565811Y-54778611D01*
X104568872Y-54782143D01*
X104679440Y-54853201D01*
X104725194Y-54906003D01*
X104735138Y-54975161D01*
X104706113Y-55038717D01*
X104700082Y-55045196D01*
X104620698Y-55124580D01*
X104539083Y-55246724D01*
X104539078Y-55246733D01*
X104482861Y-55382455D01*
X104482858Y-55382465D01*
X104454200Y-55526540D01*
X104454200Y-55673459D01*
X104482858Y-55817534D01*
X104482861Y-55817544D01*
X104539078Y-55953266D01*
X104539083Y-55953275D01*
X104620698Y-56075419D01*
X104620701Y-56075423D01*
X104724576Y-56179298D01*
X104724580Y-56179301D01*
X104846724Y-56260916D01*
X104846733Y-56260921D01*
X104862264Y-56267354D01*
X104982458Y-56317140D01*
X105126540Y-56345799D01*
X105126544Y-56345800D01*
X105126545Y-56345800D01*
X105273456Y-56345800D01*
X105273457Y-56345799D01*
X105417542Y-56317140D01*
X105553269Y-56260920D01*
X105675420Y-56179301D01*
X105779301Y-56075420D01*
X105860920Y-55953269D01*
X105917140Y-55817542D01*
X105945800Y-55673455D01*
X105945800Y-55526545D01*
X105929333Y-55443760D01*
X106186719Y-55443760D01*
X106222127Y-55667314D01*
X106222127Y-55667317D01*
X106292067Y-55882570D01*
X106292069Y-55882573D01*
X106394824Y-56084242D01*
X106527862Y-56267353D01*
X106687908Y-56427399D01*
X106871019Y-56560437D01*
X107072688Y-56663192D01*
X107072690Y-56663193D01*
X107273470Y-56728429D01*
X107287948Y-56733134D01*
X107511500Y-56768542D01*
X107511501Y-56768542D01*
X107737837Y-56768542D01*
X107737838Y-56768542D01*
X107961390Y-56733134D01*
X107961393Y-56733133D01*
X107961394Y-56733133D01*
X108176647Y-56663193D01*
X108176647Y-56663192D01*
X108176650Y-56663192D01*
X108378319Y-56560437D01*
X108561430Y-56427399D01*
X108721476Y-56267353D01*
X108854514Y-56084242D01*
X108957269Y-55882573D01*
X109025215Y-55673456D01*
X109027210Y-55667317D01*
X109027210Y-55667316D01*
X109027211Y-55667313D01*
X109062619Y-55443761D01*
X109062619Y-55217423D01*
X109027211Y-54993871D01*
X109027210Y-54993867D01*
X109027210Y-54993866D01*
X108957270Y-54778613D01*
X108957268Y-54778610D01*
X108938850Y-54742461D01*
X108854514Y-54576942D01*
X108721476Y-54393831D01*
X108561430Y-54233785D01*
X108378319Y-54100747D01*
X108176650Y-53997992D01*
X108176647Y-53997990D01*
X107961392Y-53928050D01*
X107812355Y-53904444D01*
X107737838Y-53892642D01*
X107511500Y-53892642D01*
X107436982Y-53904444D01*
X107287946Y-53928050D01*
X107287943Y-53928050D01*
X107072690Y-53997990D01*
X107072687Y-53997992D01*
X106871018Y-54100747D01*
X106766547Y-54176650D01*
X106687908Y-54233785D01*
X106687906Y-54233787D01*
X106687905Y-54233787D01*
X106527864Y-54393828D01*
X106527864Y-54393829D01*
X106527862Y-54393831D01*
X106470727Y-54472470D01*
X106394824Y-54576941D01*
X106292069Y-54778610D01*
X106292067Y-54778613D01*
X106222127Y-54993866D01*
X106222127Y-54993869D01*
X106186719Y-55217423D01*
X106186719Y-55443760D01*
X105929333Y-55443760D01*
X105917140Y-55382458D01*
X105860920Y-55246731D01*
X105860919Y-55246730D01*
X105860916Y-55246724D01*
X105779301Y-55124580D01*
X105779298Y-55124576D01*
X105675423Y-55020701D01*
X105675419Y-55020698D01*
X105553275Y-54939083D01*
X105553266Y-54939078D01*
X105417544Y-54882861D01*
X105417546Y-54882861D01*
X105417542Y-54882860D01*
X105417539Y-54882859D01*
X105417538Y-54882859D01*
X105393297Y-54878037D01*
X105331387Y-54845650D01*
X105296814Y-54784934D01*
X105300555Y-54715165D01*
X105323780Y-54675215D01*
X105325377Y-54673373D01*
X105385165Y-54542457D01*
X105405647Y-54400000D01*
X105385165Y-54257543D01*
X105325377Y-54126627D01*
X105231128Y-54017857D01*
X105110053Y-53940047D01*
X105110051Y-53940046D01*
X105110049Y-53940045D01*
X105110050Y-53940045D01*
X104971963Y-53899500D01*
X104971961Y-53899500D01*
X104828039Y-53899500D01*
X104828036Y-53899500D01*
X104689950Y-53940045D01*
X104647370Y-53967409D01*
X104580330Y-53987092D01*
X104513291Y-53967406D01*
X104467537Y-53914602D01*
X104465771Y-53910544D01*
X104424082Y-53809896D01*
X104424075Y-53809883D01*
X104342460Y-53687739D01*
X104342457Y-53687735D01*
X104238582Y-53583860D01*
X104238578Y-53583857D01*
X104116434Y-53502242D01*
X104116425Y-53502237D01*
X103980703Y-53446020D01*
X103980704Y-53446020D01*
X103980701Y-53446019D01*
X103980697Y-53446018D01*
X103980693Y-53446017D01*
X103836618Y-53417359D01*
X103836614Y-53417359D01*
X103689704Y-53417359D01*
X103689699Y-53417359D01*
X103545624Y-53446017D01*
X103545614Y-53446020D01*
X103409892Y-53502237D01*
X103409883Y-53502242D01*
X103287739Y-53583857D01*
X103287735Y-53583860D01*
X103183860Y-53687735D01*
X103183857Y-53687739D01*
X103102242Y-53809883D01*
X103102237Y-53809892D01*
X103046020Y-53945614D01*
X103046017Y-53945624D01*
X103017359Y-54089699D01*
X103017359Y-54236618D01*
X100750500Y-54236618D01*
X100750500Y-53198696D01*
X108431783Y-53198696D01*
X108467191Y-53422250D01*
X108467191Y-53422253D01*
X108537131Y-53637506D01*
X108537133Y-53637509D01*
X108639888Y-53839178D01*
X108772926Y-54022289D01*
X108932972Y-54182335D01*
X109116083Y-54315373D01*
X109317752Y-54418128D01*
X109317754Y-54418129D01*
X109518534Y-54483365D01*
X109533012Y-54488070D01*
X109756564Y-54523478D01*
X109756565Y-54523478D01*
X109982901Y-54523478D01*
X109982902Y-54523478D01*
X110131133Y-54500000D01*
X116394353Y-54500000D01*
X116414834Y-54642456D01*
X116448040Y-54715165D01*
X116474623Y-54773373D01*
X116568872Y-54882143D01*
X116689947Y-54959953D01*
X116689950Y-54959954D01*
X116689949Y-54959954D01*
X116741741Y-54975161D01*
X116805462Y-54993871D01*
X116828036Y-55000499D01*
X116828038Y-55000500D01*
X116828039Y-55000500D01*
X116971962Y-55000500D01*
X116971962Y-55000499D01*
X117110053Y-54959953D01*
X117231128Y-54882143D01*
X117325377Y-54773373D01*
X117385165Y-54642457D01*
X117405647Y-54500000D01*
X117385165Y-54357543D01*
X117325377Y-54226627D01*
X117231128Y-54117857D01*
X117110053Y-54040047D01*
X117110051Y-54040046D01*
X117110049Y-54040045D01*
X117110050Y-54040045D01*
X116971963Y-53999500D01*
X116971961Y-53999500D01*
X116828039Y-53999500D01*
X116828036Y-53999500D01*
X116689949Y-54040045D01*
X116568873Y-54117856D01*
X116474623Y-54226626D01*
X116474622Y-54226628D01*
X116414834Y-54357543D01*
X116394353Y-54500000D01*
X110131133Y-54500000D01*
X110206454Y-54488070D01*
X110206457Y-54488069D01*
X110206458Y-54488069D01*
X110421711Y-54418129D01*
X110421711Y-54418128D01*
X110421714Y-54418128D01*
X110623383Y-54315373D01*
X110806494Y-54182335D01*
X110966540Y-54022289D01*
X111099578Y-53839178D01*
X111202333Y-53637509D01*
X111246285Y-53502239D01*
X111272274Y-53422253D01*
X111272274Y-53422252D01*
X111272275Y-53422249D01*
X111307683Y-53198697D01*
X111307683Y-52972359D01*
X111272275Y-52748807D01*
X111272274Y-52748803D01*
X111272274Y-52748802D01*
X111202334Y-52533549D01*
X111202332Y-52533546D01*
X111099577Y-52331877D01*
X110966540Y-52148767D01*
X110806494Y-51988721D01*
X110623383Y-51855683D01*
X110421714Y-51752928D01*
X110421711Y-51752926D01*
X110206456Y-51682986D01*
X110057419Y-51659380D01*
X109982902Y-51647578D01*
X109756564Y-51647578D01*
X109682046Y-51659380D01*
X109533010Y-51682986D01*
X109533007Y-51682986D01*
X109317754Y-51752926D01*
X109317751Y-51752928D01*
X109116082Y-51855683D01*
X109011611Y-51931586D01*
X108932972Y-51988721D01*
X108932970Y-51988723D01*
X108932969Y-51988723D01*
X108772928Y-52148764D01*
X108772928Y-52148765D01*
X108772926Y-52148767D01*
X108715791Y-52227406D01*
X108639888Y-52331877D01*
X108537133Y-52533546D01*
X108537131Y-52533549D01*
X108467191Y-52748802D01*
X108467191Y-52748805D01*
X108431783Y-52972359D01*
X108431783Y-53198696D01*
X100750500Y-53198696D01*
X100750500Y-51024000D01*
X100770185Y-50956961D01*
X100822989Y-50911206D01*
X100874500Y-50900000D01*
X102643600Y-50900000D01*
X102710639Y-50919685D01*
G37*
%TD.AperFunction*%
%TD*%
M02*
