%TF.GenerationSoftware,KiCad,Pcbnew,8.0.1*%
%TF.CreationDate,2026-01-16T21:20:55-05:00*%
%TF.ProjectId,16x Card Module,31367820-4361-4726-9420-4d6f64756c65,rev?*%
%TF.SameCoordinates,Original*%
%TF.FileFunction,Paste,Top*%
%TF.FilePolarity,Positive*%
%FSLAX46Y46*%
G04 Gerber Fmt 4.6, Leading zero omitted, Abs format (unit mm)*
G04 Created by KiCad (PCBNEW 8.0.1) date 2026-01-16 21:20:55*
%MOMM*%
%LPD*%
G01*
G04 APERTURE LIST*
G04 Aperture macros list*
%AMRoundRect*
0 Rectangle with rounded corners*
0 $1 Rounding radius*
0 $2 $3 $4 $5 $6 $7 $8 $9 X,Y pos of 4 corners*
0 Add a 4 corners polygon primitive as box body*
4,1,4,$2,$3,$4,$5,$6,$7,$8,$9,$2,$3,0*
0 Add four circle primitives for the rounded corners*
1,1,$1+$1,$2,$3*
1,1,$1+$1,$4,$5*
1,1,$1+$1,$6,$7*
1,1,$1+$1,$8,$9*
0 Add four rect primitives between the rounded corners*
20,1,$1+$1,$2,$3,$4,$5,0*
20,1,$1+$1,$4,$5,$6,$7,0*
20,1,$1+$1,$6,$7,$8,$9,0*
20,1,$1+$1,$8,$9,$2,$3,0*%
G04 Aperture macros list end*
%ADD10RoundRect,0.070000X-0.449013X-0.548008X0.548008X0.449013X0.449013X0.548008X-0.548008X-0.449013X0*%
%ADD11RoundRect,0.070000X0.449013X-0.548008X0.548008X-0.449013X-0.449013X0.548008X-0.548008X0.449013X0*%
%ADD12RoundRect,0.225000X0.225000X0.250000X-0.225000X0.250000X-0.225000X-0.250000X0.225000X-0.250000X0*%
%ADD13RoundRect,0.250000X0.325000X0.650000X-0.325000X0.650000X-0.325000X-0.650000X0.325000X-0.650000X0*%
%ADD14RoundRect,0.218750X-0.256250X0.218750X-0.256250X-0.218750X0.256250X-0.218750X0.256250X0.218750X0*%
%ADD15RoundRect,0.200000X-0.200000X-0.275000X0.200000X-0.275000X0.200000X0.275000X-0.200000X0.275000X0*%
%ADD16R,0.600000X0.420000*%
%ADD17O,0.600000X0.420000*%
%ADD18RoundRect,0.225000X-0.335876X-0.017678X-0.017678X-0.335876X0.335876X0.017678X0.017678X0.335876X0*%
%ADD19RoundRect,0.100000X0.225000X0.100000X-0.225000X0.100000X-0.225000X-0.100000X0.225000X-0.100000X0*%
%ADD20RoundRect,0.225000X-0.225000X-0.250000X0.225000X-0.250000X0.225000X0.250000X-0.225000X0.250000X0*%
%ADD21RoundRect,0.150000X-0.587500X-0.150000X0.587500X-0.150000X0.587500X0.150000X-0.587500X0.150000X0*%
%ADD22RoundRect,0.225000X-0.017678X0.335876X-0.335876X0.017678X0.017678X-0.335876X0.335876X-0.017678X0*%
%ADD23RoundRect,0.225000X0.017678X-0.335876X0.335876X-0.017678X-0.017678X0.335876X-0.335876X0.017678X0*%
%ADD24RoundRect,0.225000X0.335876X0.017678X0.017678X0.335876X-0.335876X-0.017678X-0.017678X-0.335876X0*%
%ADD25RoundRect,0.200000X0.275000X-0.200000X0.275000X0.200000X-0.275000X0.200000X-0.275000X-0.200000X0*%
%ADD26RoundRect,0.200000X0.335876X0.053033X0.053033X0.335876X-0.335876X-0.053033X-0.053033X-0.335876X0*%
%ADD27RoundRect,0.100000X-0.100000X0.225000X-0.100000X-0.225000X0.100000X-0.225000X0.100000X0.225000X0*%
%ADD28RoundRect,0.200000X0.200000X0.275000X-0.200000X0.275000X-0.200000X-0.275000X0.200000X-0.275000X0*%
%ADD29R,1.400000X1.200000*%
G04 APERTURE END LIST*
D10*
%TO.C,U1*%
X106035519Y-64261181D03*
X106389072Y-64614734D03*
X106742625Y-64968287D03*
X107096179Y-65321841D03*
X107449732Y-65675394D03*
X107803286Y-66028948D03*
X108156839Y-66382501D03*
X108510392Y-66736054D03*
X108863946Y-67089608D03*
X109217499Y-67443161D03*
X109571052Y-67796714D03*
X109924606Y-68150268D03*
X110278159Y-68503821D03*
X110631713Y-68857375D03*
X110985266Y-69210928D03*
X111338819Y-69564481D03*
D11*
X114061181Y-69564481D03*
X114414734Y-69210928D03*
X114768287Y-68857375D03*
X115121841Y-68503821D03*
X115475394Y-68150268D03*
X115828948Y-67796714D03*
X116182501Y-67443161D03*
X116536054Y-67089608D03*
X116889608Y-66736054D03*
X117243161Y-66382501D03*
X117596714Y-66028948D03*
X117950268Y-65675394D03*
X118303821Y-65321841D03*
X118657375Y-64968287D03*
X119010928Y-64614734D03*
X119364481Y-64261181D03*
D10*
X119364481Y-61538819D03*
X119010928Y-61185266D03*
X118657375Y-60831713D03*
X118303821Y-60478159D03*
X117950268Y-60124606D03*
X117596714Y-59771052D03*
X117243161Y-59417499D03*
X116889608Y-59063946D03*
X116536054Y-58710392D03*
X116182501Y-58356839D03*
X115828948Y-58003286D03*
X115475394Y-57649732D03*
X115121841Y-57296179D03*
X114768287Y-56942625D03*
X114414734Y-56589072D03*
X114061181Y-56235519D03*
D11*
X111338819Y-56235519D03*
X110985266Y-56589072D03*
X110631713Y-56942625D03*
X110278159Y-57296179D03*
X109924606Y-57649732D03*
X109571052Y-58003286D03*
X109217499Y-58356839D03*
X108863946Y-58710392D03*
X108510392Y-59063946D03*
X108156839Y-59417499D03*
X107803286Y-59771052D03*
X107449732Y-60124606D03*
X107096179Y-60478159D03*
X106742625Y-60831713D03*
X106389072Y-61185266D03*
X106035519Y-61538819D03*
%TD*%
D12*
%TO.C,C9*%
X110075000Y-76700000D03*
X108525000Y-76700000D03*
%TD*%
D13*
%TO.C,C13*%
X114175000Y-128000000D03*
X111225000Y-128000000D03*
%TD*%
D14*
%TO.C,D1*%
X173600000Y-34412500D03*
X173600000Y-35987500D03*
%TD*%
D15*
%TO.C,R4*%
X111450000Y-73400000D03*
X113100000Y-73400000D03*
%TD*%
D16*
%TO.C,U5*%
X112000000Y-111600002D03*
D17*
X112000000Y-112250001D03*
X112000000Y-112900000D03*
X113900002Y-112900000D03*
X113900002Y-112250001D03*
X113900002Y-111600002D03*
%TD*%
D16*
%TO.C,U4*%
X112000000Y-101600002D03*
D17*
X112000000Y-102250001D03*
X112000000Y-102900000D03*
X113900002Y-102900000D03*
X113900002Y-102250001D03*
X113900002Y-101600002D03*
%TD*%
D18*
%TO.C,C2*%
X121008505Y-63642462D03*
X122104521Y-64738478D03*
%TD*%
D15*
%TO.C,R3*%
X111450000Y-75100000D03*
X113100000Y-75100000D03*
%TD*%
D12*
%TO.C,C15*%
X104375000Y-65700000D03*
X102825000Y-65700000D03*
%TD*%
D19*
%TO.C,U7*%
X105950000Y-76350000D03*
X105950000Y-75700000D03*
X105950000Y-75050000D03*
X104050000Y-75050000D03*
X104050000Y-76350000D03*
%TD*%
D20*
%TO.C,C10*%
X102325000Y-57700000D03*
X103875000Y-57700000D03*
%TD*%
D21*
%TO.C,D4*%
X114775000Y-73300000D03*
X114775000Y-75200000D03*
X116650000Y-74250000D03*
%TD*%
D22*
%TO.C,C5*%
X116730509Y-70006423D03*
X115634493Y-71102439D03*
%TD*%
D20*
%TO.C,C3*%
X114825000Y-51700000D03*
X116375000Y-51700000D03*
%TD*%
D23*
%TO.C,C1*%
X119877134Y-66859798D03*
X120973150Y-65763782D03*
%TD*%
D14*
%TO.C,D2*%
X173600000Y-37412500D03*
X173600000Y-38987500D03*
%TD*%
D24*
%TO.C,C7*%
X109164467Y-70607464D03*
X108068451Y-69511448D03*
%TD*%
D25*
%TO.C,R9*%
X101500000Y-49725000D03*
X101500000Y-48075000D03*
%TD*%
D15*
%TO.C,R5*%
X111475000Y-78200000D03*
X113125000Y-78200000D03*
%TD*%
D26*
%TO.C,R1*%
X110883363Y-50583363D03*
X109716637Y-49416637D03*
%TD*%
D15*
%TO.C,R7*%
X102675000Y-62300000D03*
X104325000Y-62300000D03*
%TD*%
D12*
%TO.C,C18*%
X105675000Y-77900000D03*
X104125000Y-77900000D03*
%TD*%
D13*
%TO.C,C12*%
X114175000Y-125000000D03*
X111225000Y-125000000D03*
%TD*%
D16*
%TO.C,U6*%
X111049999Y-118550001D03*
D17*
X111049999Y-119200000D03*
X111049999Y-119849999D03*
X112950001Y-119849999D03*
X112950001Y-119200000D03*
X112950001Y-118550001D03*
%TD*%
D26*
%TO.C,R2*%
X112983363Y-52683363D03*
X111816637Y-51516637D03*
%TD*%
D12*
%TO.C,C14*%
X105175000Y-72500000D03*
X103625000Y-72500000D03*
%TD*%
%TO.C,C16*%
X105175000Y-71000000D03*
X103625000Y-71000000D03*
%TD*%
D27*
%TO.C,U8*%
X102650000Y-76050000D03*
X102000000Y-76050000D03*
X101350000Y-76050000D03*
X101350000Y-77950000D03*
X102650000Y-77950000D03*
%TD*%
D28*
%TO.C,R8*%
X108225000Y-72500000D03*
X106575000Y-72500000D03*
%TD*%
D18*
%TO.C,C4*%
X115280940Y-54237942D03*
X116376956Y-55333958D03*
%TD*%
D16*
%TO.C,U2*%
X112000000Y-83550001D03*
D17*
X112000000Y-84200000D03*
X112000000Y-84849999D03*
X113900002Y-84849999D03*
X113900002Y-84200000D03*
X113900002Y-83550001D03*
%TD*%
D16*
%TO.C,U3*%
X112000000Y-92550001D03*
D17*
X112000000Y-93200000D03*
X112000000Y-93849999D03*
X113900002Y-93849999D03*
X113900002Y-93200000D03*
X113900002Y-92550001D03*
%TD*%
D20*
%TO.C,C8*%
X111425000Y-71900000D03*
X112975000Y-71900000D03*
%TD*%
D29*
%TO.C,X1*%
X103200000Y-69250000D03*
X105600000Y-69250000D03*
X105600000Y-67350000D03*
X103200000Y-67350000D03*
%TD*%
D23*
%TO.C,C6*%
X104451992Y-59948008D03*
X105548008Y-58851992D03*
%TD*%
D21*
%TO.C,D3*%
X114762500Y-76750000D03*
X114762500Y-78650000D03*
X116637500Y-77700000D03*
%TD*%
D14*
%TO.C,D5*%
X173600000Y-31412500D03*
X173600000Y-32987500D03*
%TD*%
D15*
%TO.C,R6*%
X111475000Y-76700000D03*
X113125000Y-76700000D03*
%TD*%
D13*
%TO.C,C11*%
X114175000Y-122700000D03*
X111225000Y-122700000D03*
%TD*%
M02*
