%TF.GenerationSoftware,KiCad,Pcbnew,8.0.1*%
%TF.CreationDate,2026-01-16T21:20:55-05:00*%
%TF.ProjectId,16x Card Module,31367820-4361-4726-9420-4d6f64756c65,rev?*%
%TF.SameCoordinates,Original*%
%TF.FileFunction,Copper,L2,Inr*%
%TF.FilePolarity,Positive*%
%FSLAX46Y46*%
G04 Gerber Fmt 4.6, Leading zero omitted, Abs format (unit mm)*
G04 Created by KiCad (PCBNEW 8.0.1) date 2026-01-16 21:20:55*
%MOMM*%
%LPD*%
G01*
G04 APERTURE LIST*
%TA.AperFunction,ComponentPad*%
%ADD10R,1.350000X1.350000*%
%TD*%
%TA.AperFunction,ComponentPad*%
%ADD11O,1.350000X1.350000*%
%TD*%
%TA.AperFunction,ViaPad*%
%ADD12C,0.600000*%
%TD*%
G04 APERTURE END LIST*
D10*
%TO.N,GND*%
%TO.C,J1*%
X106800000Y-80200000D03*
D11*
%TO.N,/FPGA Connector/IN_0*%
X108800000Y-80200000D03*
X106800000Y-82200000D03*
%TO.N,/FPGA Connector/IN_1*%
X108800000Y-82200000D03*
X106800000Y-84200000D03*
%TO.N,/FPGA Connector/IN_2*%
X108800000Y-84200000D03*
X106800000Y-86200000D03*
%TO.N,GND*%
X108800000Y-86200000D03*
%TO.N,/FPGA Connector/IN_3*%
X106800000Y-88200000D03*
X108800000Y-88200000D03*
%TO.N,/FPGA Connector/IN_4*%
X106800000Y-90200000D03*
X108800000Y-90200000D03*
%TO.N,/FPGA Connector/IN_5*%
X106800000Y-92200000D03*
X108800000Y-92200000D03*
%TO.N,GND*%
X106800000Y-94200000D03*
%TO.N,/FPGA Connector/IN_6*%
X108800000Y-94200000D03*
X106800000Y-96200000D03*
%TO.N,/FPGA Connector/IN_7*%
X108800000Y-96200000D03*
X106800000Y-98200000D03*
%TO.N,/FPGA Connector/IN_8*%
X108800000Y-98200000D03*
X106800000Y-100200000D03*
%TO.N,GND*%
X108800000Y-100200000D03*
%TO.N,/FPGA Connector/IN_9*%
X106800000Y-102200000D03*
X108800000Y-102200000D03*
%TO.N,/FPGA Connector/IN_10*%
X106800000Y-104200000D03*
X108800000Y-104200000D03*
%TO.N,/FPGA Connector/IN_11*%
X106800000Y-106200000D03*
X108800000Y-106200000D03*
%TO.N,GND*%
X106800000Y-108200000D03*
%TO.N,/FPGA Connector/IN_12*%
X108800000Y-108200000D03*
X106800000Y-110200000D03*
%TO.N,/FPGA Connector/IN_13*%
X108800000Y-110200000D03*
X106800000Y-112200000D03*
%TO.N,/FPGA Connector/IN_14*%
X108800000Y-112200000D03*
X106800000Y-114200000D03*
%TO.N,GND*%
X108800000Y-114200000D03*
%TO.N,/FPGA Connector/IN_15*%
X106800000Y-116200000D03*
X108800000Y-116200000D03*
%TO.N,/MCU/RX*%
X106800000Y-118200000D03*
%TO.N,/FPGA Connector/MODULE_TX*%
X108800000Y-118200000D03*
%TO.N,/MCU/TX*%
X106800000Y-120200000D03*
%TO.N,/FPGA Connector/MODULE_RX*%
X108800000Y-120200000D03*
%TO.N,GND*%
X106800000Y-122200000D03*
X108800000Y-122200000D03*
%TO.N,+5V*%
X106800000Y-124200000D03*
%TO.N,+3.3V*%
X108800000Y-124200000D03*
%TO.N,GND*%
X106800000Y-126200000D03*
X108800000Y-126200000D03*
%TO.N,+24V*%
X106800000Y-128200000D03*
X108800000Y-128200000D03*
%TD*%
D12*
%TO.N,GND*%
X112900000Y-92700000D03*
X116000000Y-76700000D03*
X117300000Y-51400000D03*
X115300000Y-122100000D03*
X116900000Y-54500000D03*
X106200000Y-70400000D03*
X113000000Y-83700000D03*
X121700000Y-66400000D03*
X107700000Y-70400000D03*
X112900000Y-111700000D03*
X115300000Y-124400000D03*
X116500000Y-71500000D03*
X115300000Y-128600000D03*
X106600000Y-77800000D03*
X116000000Y-73300000D03*
X105000000Y-57800000D03*
X115300000Y-127400000D03*
X107600000Y-76700000D03*
X110200000Y-119200000D03*
X115300000Y-125000000D03*
X115300000Y-125600000D03*
X102700000Y-63200000D03*
X101500000Y-57700000D03*
X115300000Y-122700000D03*
X172600000Y-30700000D03*
X105200000Y-75100000D03*
X115300000Y-128000000D03*
X104900000Y-54400000D03*
X115300000Y-123300000D03*
X112900000Y-101700000D03*
X101500000Y-75200000D03*
X113900000Y-71900000D03*
%TO.N,+3.3V*%
X113100000Y-102700000D03*
X113000000Y-93800000D03*
X122100000Y-63600000D03*
X113000000Y-112700000D03*
X113976116Y-51405970D03*
X112200000Y-119200000D03*
X103800000Y-59300000D03*
X116200000Y-53800000D03*
X107032226Y-51071651D03*
X116000000Y-78600000D03*
X117100000Y-70900000D03*
X101100000Y-51200000D03*
X116000000Y-75200000D03*
X108300000Y-71000000D03*
X113000000Y-84800000D03*
X103400000Y-77200000D03*
X102800000Y-64800000D03*
%TO.N,/MCU/NRESET*%
X108100000Y-64300000D03*
X103000000Y-59900000D03*
%TO.N,+5V*%
X102400000Y-81100000D03*
%TO.N,+24V*%
X110600000Y-78500000D03*
X103300000Y-80200000D03*
%TO.N,/FPGA Connector/MODULE_RX*%
X101707942Y-76818723D03*
%TO.N,/FPGA Connector/MODULE_TX*%
X103600000Y-75600000D03*
%TO.N,/MCU/LED_0*%
X109700000Y-50800000D03*
X107906065Y-57893935D03*
%TO.N,/MCU/LED_1*%
X113200000Y-51600000D03*
X109400000Y-60000000D03*
%TO.N,/MCU/VCXO_TRIM*%
X109100000Y-71700000D03*
X116400000Y-65500000D03*
%TO.N,/MCU/RX*%
X109200000Y-72961802D03*
X113500000Y-68300000D03*
%TO.N,/MCU/TX*%
X107200000Y-58400000D03*
X101800000Y-59500000D03*
%TO.N,/MCU/TX_PASSTHROUGH_ENABLE*%
X107300000Y-63700000D03*
X107105166Y-75905166D03*
%TD*%
%TA.AperFunction,Conductor*%
%TO.N,GND*%
G36*
X173254418Y-30200816D02*
G01*
X173454561Y-30215130D01*
X173472063Y-30217647D01*
X173663797Y-30259355D01*
X173680755Y-30264334D01*
X173864609Y-30332909D01*
X173880701Y-30340259D01*
X174052904Y-30434288D01*
X174067784Y-30443849D01*
X174224867Y-30561441D01*
X174238237Y-30573027D01*
X174376972Y-30711762D01*
X174388558Y-30725132D01*
X174506146Y-30882210D01*
X174515711Y-30897095D01*
X174609740Y-31069298D01*
X174617090Y-31085390D01*
X174685662Y-31269236D01*
X174690646Y-31286212D01*
X174732351Y-31477931D01*
X174734869Y-31495442D01*
X174749184Y-31695580D01*
X174749500Y-31704427D01*
X174749500Y-127695572D01*
X174749184Y-127704419D01*
X174734869Y-127904557D01*
X174732351Y-127922068D01*
X174690646Y-128113787D01*
X174685662Y-128130763D01*
X174617090Y-128314609D01*
X174609740Y-128330701D01*
X174515711Y-128502904D01*
X174506146Y-128517789D01*
X174388558Y-128674867D01*
X174376972Y-128688237D01*
X174238237Y-128826972D01*
X174224867Y-128838558D01*
X174067789Y-128956146D01*
X174052904Y-128965711D01*
X173880701Y-129059740D01*
X173864609Y-129067090D01*
X173680763Y-129135662D01*
X173663787Y-129140646D01*
X173472068Y-129182351D01*
X173454557Y-129184869D01*
X173273779Y-129197799D01*
X173254417Y-129199184D01*
X173245572Y-129199500D01*
X109290956Y-129199500D01*
X109223917Y-129179815D01*
X109178162Y-129127011D01*
X109168218Y-129057853D01*
X109197243Y-128994297D01*
X109234953Y-128966346D01*
X109234538Y-128965627D01*
X109240155Y-128962383D01*
X109240161Y-128962381D01*
X109389050Y-128854207D01*
X109512195Y-128717440D01*
X109604214Y-128558059D01*
X109661085Y-128383029D01*
X109680322Y-128200000D01*
X109661085Y-128016971D01*
X109624061Y-127903023D01*
X109604216Y-127841946D01*
X109604213Y-127841940D01*
X109524815Y-127704419D01*
X109512195Y-127682560D01*
X109389050Y-127545793D01*
X109389048Y-127545791D01*
X109240165Y-127437621D01*
X109240162Y-127437619D01*
X109240161Y-127437619D01*
X109179112Y-127410438D01*
X109072038Y-127362765D01*
X109072033Y-127362763D01*
X108892019Y-127324500D01*
X108707981Y-127324500D01*
X108527966Y-127362763D01*
X108527961Y-127362765D01*
X108359839Y-127437619D01*
X108359834Y-127437621D01*
X108210951Y-127545791D01*
X108210949Y-127545793D01*
X108087804Y-127682561D01*
X107995786Y-127841940D01*
X107995783Y-127841946D01*
X107938916Y-128016967D01*
X107938915Y-128016971D01*
X107923321Y-128165342D01*
X107909137Y-128199814D01*
X107921977Y-128225312D01*
X107923319Y-128234646D01*
X107938915Y-128383029D01*
X107938916Y-128383032D01*
X107995783Y-128558053D01*
X107995786Y-128558059D01*
X108087805Y-128717440D01*
X108186428Y-128826972D01*
X108210949Y-128854206D01*
X108210951Y-128854208D01*
X108359834Y-128962378D01*
X108365462Y-128965627D01*
X108364812Y-128966752D01*
X108412716Y-129007470D01*
X108433038Y-129074319D01*
X108413993Y-129141543D01*
X108361628Y-129187799D01*
X108309044Y-129199500D01*
X107290956Y-129199500D01*
X107223917Y-129179815D01*
X107178162Y-129127011D01*
X107168218Y-129057853D01*
X107197243Y-128994297D01*
X107234953Y-128966346D01*
X107234538Y-128965627D01*
X107240155Y-128962383D01*
X107240161Y-128962381D01*
X107389050Y-128854207D01*
X107512195Y-128717440D01*
X107604214Y-128558059D01*
X107661085Y-128383029D01*
X107676679Y-128234655D01*
X107690862Y-128200184D01*
X107678023Y-128174687D01*
X107676679Y-128165342D01*
X107661085Y-128016971D01*
X107624061Y-127903023D01*
X107604216Y-127841946D01*
X107604213Y-127841940D01*
X107524815Y-127704419D01*
X107512195Y-127682560D01*
X107389050Y-127545793D01*
X107389048Y-127545791D01*
X107240165Y-127437621D01*
X107240162Y-127437619D01*
X107240161Y-127437619D01*
X107179112Y-127410438D01*
X107072038Y-127362765D01*
X107072033Y-127362763D01*
X106892019Y-127324500D01*
X106707981Y-127324500D01*
X106527966Y-127362763D01*
X106527961Y-127362765D01*
X106359839Y-127437619D01*
X106359834Y-127437621D01*
X106210951Y-127545791D01*
X106210949Y-127545793D01*
X106087804Y-127682561D01*
X105995786Y-127841940D01*
X105995783Y-127841946D01*
X105938916Y-128016967D01*
X105938915Y-128016971D01*
X105919678Y-128200000D01*
X105938915Y-128383029D01*
X105938916Y-128383032D01*
X105995783Y-128558053D01*
X105995786Y-128558059D01*
X106087805Y-128717440D01*
X106186428Y-128826972D01*
X106210949Y-128854206D01*
X106210951Y-128854208D01*
X106359834Y-128962378D01*
X106365462Y-128965627D01*
X106364812Y-128966752D01*
X106412716Y-129007470D01*
X106433038Y-129074319D01*
X106413993Y-129141543D01*
X106361628Y-129187799D01*
X106309044Y-129199500D01*
X102254428Y-129199500D01*
X102245582Y-129199184D01*
X102223622Y-129197613D01*
X102045442Y-129184869D01*
X102027931Y-129182351D01*
X101836212Y-129140646D01*
X101819236Y-129135662D01*
X101635390Y-129067090D01*
X101619298Y-129059740D01*
X101447095Y-128965711D01*
X101432210Y-128956146D01*
X101275132Y-128838558D01*
X101261762Y-128826972D01*
X101123027Y-128688237D01*
X101111441Y-128674867D01*
X101023999Y-128558059D01*
X100993849Y-128517784D01*
X100984288Y-128502904D01*
X100890259Y-128330701D01*
X100882909Y-128314609D01*
X100853088Y-128234657D01*
X100814334Y-128130755D01*
X100809355Y-128113797D01*
X100767647Y-127922063D01*
X100765130Y-127904556D01*
X100750816Y-127704418D01*
X100750500Y-127695572D01*
X100750500Y-124200000D01*
X105919678Y-124200000D01*
X105938915Y-124383029D01*
X105938916Y-124383032D01*
X105995783Y-124558053D01*
X105995786Y-124558059D01*
X106087805Y-124717440D01*
X106197327Y-124839077D01*
X106210949Y-124854206D01*
X106210951Y-124854208D01*
X106359834Y-124962378D01*
X106359835Y-124962378D01*
X106359839Y-124962381D01*
X106496953Y-125023428D01*
X106527961Y-125037234D01*
X106527966Y-125037236D01*
X106707981Y-125075500D01*
X106892019Y-125075500D01*
X107072034Y-125037236D01*
X107240161Y-124962381D01*
X107389050Y-124854207D01*
X107512195Y-124717440D01*
X107604214Y-124558059D01*
X107661085Y-124383029D01*
X107676679Y-124234655D01*
X107690862Y-124200184D01*
X107690676Y-124199814D01*
X107909137Y-124199814D01*
X107921977Y-124225312D01*
X107923319Y-124234646D01*
X107938915Y-124383029D01*
X107938916Y-124383032D01*
X107995783Y-124558053D01*
X107995786Y-124558059D01*
X108087805Y-124717440D01*
X108197327Y-124839077D01*
X108210949Y-124854206D01*
X108210951Y-124854208D01*
X108359834Y-124962378D01*
X108359835Y-124962378D01*
X108359839Y-124962381D01*
X108496953Y-125023428D01*
X108527961Y-125037234D01*
X108527966Y-125037236D01*
X108707981Y-125075500D01*
X108892019Y-125075500D01*
X109072034Y-125037236D01*
X109240161Y-124962381D01*
X109389050Y-124854207D01*
X109512195Y-124717440D01*
X109604214Y-124558059D01*
X109661085Y-124383029D01*
X109680322Y-124200000D01*
X109661085Y-124016971D01*
X109604214Y-123841941D01*
X109512195Y-123682560D01*
X109389050Y-123545793D01*
X109389048Y-123545791D01*
X109240165Y-123437621D01*
X109240162Y-123437619D01*
X109240161Y-123437619D01*
X109179112Y-123410438D01*
X109072038Y-123362765D01*
X109072033Y-123362763D01*
X108892019Y-123324500D01*
X108707981Y-123324500D01*
X108527966Y-123362763D01*
X108527961Y-123362765D01*
X108359839Y-123437619D01*
X108359834Y-123437621D01*
X108210951Y-123545791D01*
X108210949Y-123545793D01*
X108087804Y-123682561D01*
X107995786Y-123841940D01*
X107995783Y-123841946D01*
X107938916Y-124016967D01*
X107938915Y-124016971D01*
X107923321Y-124165342D01*
X107909137Y-124199814D01*
X107690676Y-124199814D01*
X107678023Y-124174687D01*
X107676679Y-124165342D01*
X107661085Y-124016971D01*
X107604214Y-123841941D01*
X107512195Y-123682560D01*
X107389050Y-123545793D01*
X107389048Y-123545791D01*
X107240165Y-123437621D01*
X107240162Y-123437619D01*
X107240161Y-123437619D01*
X107179112Y-123410438D01*
X107072038Y-123362765D01*
X107072033Y-123362763D01*
X106892019Y-123324500D01*
X106707981Y-123324500D01*
X106527966Y-123362763D01*
X106527961Y-123362765D01*
X106359839Y-123437619D01*
X106359834Y-123437621D01*
X106210951Y-123545791D01*
X106210949Y-123545793D01*
X106087804Y-123682561D01*
X105995786Y-123841940D01*
X105995783Y-123841946D01*
X105938916Y-124016967D01*
X105938915Y-124016971D01*
X105919678Y-124200000D01*
X100750500Y-124200000D01*
X100750500Y-120200000D01*
X105919678Y-120200000D01*
X105938915Y-120383029D01*
X105938916Y-120383032D01*
X105995783Y-120558053D01*
X105995786Y-120558059D01*
X106087805Y-120717440D01*
X106197327Y-120839077D01*
X106210949Y-120854206D01*
X106210951Y-120854208D01*
X106359834Y-120962378D01*
X106359835Y-120962378D01*
X106359839Y-120962381D01*
X106496953Y-121023428D01*
X106527961Y-121037234D01*
X106527966Y-121037236D01*
X106707981Y-121075500D01*
X106892019Y-121075500D01*
X107072034Y-121037236D01*
X107240161Y-120962381D01*
X107389050Y-120854207D01*
X107512195Y-120717440D01*
X107604214Y-120558059D01*
X107661085Y-120383029D01*
X107676679Y-120234655D01*
X107690862Y-120200184D01*
X107690676Y-120199814D01*
X107909137Y-120199814D01*
X107921977Y-120225312D01*
X107923319Y-120234646D01*
X107938915Y-120383029D01*
X107938916Y-120383032D01*
X107995783Y-120558053D01*
X107995786Y-120558059D01*
X108087805Y-120717440D01*
X108197327Y-120839077D01*
X108210949Y-120854206D01*
X108210951Y-120854208D01*
X108359834Y-120962378D01*
X108359835Y-120962378D01*
X108359839Y-120962381D01*
X108496953Y-121023428D01*
X108527961Y-121037234D01*
X108527966Y-121037236D01*
X108707981Y-121075500D01*
X108892019Y-121075500D01*
X109072034Y-121037236D01*
X109240161Y-120962381D01*
X109389050Y-120854207D01*
X109512195Y-120717440D01*
X109604214Y-120558059D01*
X109661085Y-120383029D01*
X109680322Y-120200000D01*
X109661085Y-120016971D01*
X109604214Y-119841941D01*
X109512195Y-119682560D01*
X109389050Y-119545793D01*
X109389048Y-119545791D01*
X109240165Y-119437621D01*
X109240162Y-119437619D01*
X109240161Y-119437619D01*
X109179112Y-119410438D01*
X109072038Y-119362765D01*
X109072033Y-119362763D01*
X108892019Y-119324500D01*
X108707981Y-119324500D01*
X108527966Y-119362763D01*
X108527961Y-119362765D01*
X108359839Y-119437619D01*
X108359834Y-119437621D01*
X108210951Y-119545791D01*
X108210949Y-119545793D01*
X108087804Y-119682561D01*
X107995786Y-119841940D01*
X107995783Y-119841946D01*
X107938916Y-120016967D01*
X107938915Y-120016971D01*
X107923321Y-120165342D01*
X107909137Y-120199814D01*
X107690676Y-120199814D01*
X107678023Y-120174687D01*
X107676679Y-120165342D01*
X107661085Y-120016971D01*
X107604214Y-119841941D01*
X107512195Y-119682560D01*
X107389050Y-119545793D01*
X107389048Y-119545791D01*
X107240165Y-119437621D01*
X107240162Y-119437619D01*
X107240161Y-119437619D01*
X107179112Y-119410438D01*
X107072038Y-119362765D01*
X107072033Y-119362763D01*
X106892019Y-119324500D01*
X106707981Y-119324500D01*
X106527966Y-119362763D01*
X106527961Y-119362765D01*
X106359839Y-119437619D01*
X106359834Y-119437621D01*
X106210951Y-119545791D01*
X106210949Y-119545793D01*
X106087804Y-119682561D01*
X105995786Y-119841940D01*
X105995783Y-119841946D01*
X105938916Y-120016967D01*
X105938915Y-120016971D01*
X105919678Y-120200000D01*
X100750500Y-120200000D01*
X100750500Y-119200000D01*
X111694353Y-119200000D01*
X111714834Y-119342456D01*
X111758295Y-119437621D01*
X111774623Y-119473373D01*
X111868872Y-119582143D01*
X111989947Y-119659953D01*
X111989950Y-119659954D01*
X111989949Y-119659954D01*
X112128036Y-119700499D01*
X112128038Y-119700500D01*
X112128039Y-119700500D01*
X112271962Y-119700500D01*
X112271962Y-119700499D01*
X112410053Y-119659953D01*
X112531128Y-119582143D01*
X112625377Y-119473373D01*
X112685165Y-119342457D01*
X112705647Y-119200000D01*
X112685165Y-119057543D01*
X112625377Y-118926627D01*
X112531128Y-118817857D01*
X112410053Y-118740047D01*
X112410051Y-118740046D01*
X112410049Y-118740045D01*
X112410050Y-118740045D01*
X112271963Y-118699500D01*
X112271961Y-118699500D01*
X112128039Y-118699500D01*
X112128036Y-118699500D01*
X111989949Y-118740045D01*
X111868873Y-118817856D01*
X111774623Y-118926626D01*
X111774622Y-118926628D01*
X111714834Y-119057543D01*
X111694353Y-119200000D01*
X100750500Y-119200000D01*
X100750500Y-118200000D01*
X105919678Y-118200000D01*
X105938915Y-118383029D01*
X105938916Y-118383032D01*
X105995783Y-118558053D01*
X105995786Y-118558059D01*
X106087805Y-118717440D01*
X106197327Y-118839077D01*
X106210949Y-118854206D01*
X106210951Y-118854208D01*
X106359834Y-118962378D01*
X106359835Y-118962378D01*
X106359839Y-118962381D01*
X106496953Y-119023428D01*
X106527961Y-119037234D01*
X106527966Y-119037236D01*
X106707981Y-119075500D01*
X106892019Y-119075500D01*
X107072034Y-119037236D01*
X107240161Y-118962381D01*
X107389050Y-118854207D01*
X107512195Y-118717440D01*
X107604214Y-118558059D01*
X107661085Y-118383029D01*
X107676679Y-118234655D01*
X107690862Y-118200184D01*
X107690676Y-118199814D01*
X107909137Y-118199814D01*
X107921977Y-118225312D01*
X107923319Y-118234646D01*
X107938915Y-118383029D01*
X107938916Y-118383032D01*
X107995783Y-118558053D01*
X107995786Y-118558059D01*
X108087805Y-118717440D01*
X108197327Y-118839077D01*
X108210949Y-118854206D01*
X108210951Y-118854208D01*
X108359834Y-118962378D01*
X108359835Y-118962378D01*
X108359839Y-118962381D01*
X108496953Y-119023428D01*
X108527961Y-119037234D01*
X108527966Y-119037236D01*
X108707981Y-119075500D01*
X108892019Y-119075500D01*
X109072034Y-119037236D01*
X109240161Y-118962381D01*
X109389050Y-118854207D01*
X109512195Y-118717440D01*
X109604214Y-118558059D01*
X109661085Y-118383029D01*
X109680322Y-118200000D01*
X109661085Y-118016971D01*
X109604214Y-117841941D01*
X109512195Y-117682560D01*
X109389050Y-117545793D01*
X109389048Y-117545791D01*
X109240165Y-117437621D01*
X109240162Y-117437619D01*
X109240161Y-117437619D01*
X109179112Y-117410438D01*
X109072038Y-117362765D01*
X109072033Y-117362763D01*
X108892019Y-117324500D01*
X108707981Y-117324500D01*
X108527966Y-117362763D01*
X108527961Y-117362765D01*
X108359839Y-117437619D01*
X108359834Y-117437621D01*
X108210951Y-117545791D01*
X108210949Y-117545793D01*
X108087804Y-117682561D01*
X107995786Y-117841940D01*
X107995783Y-117841946D01*
X107938916Y-118016967D01*
X107938915Y-118016971D01*
X107923321Y-118165342D01*
X107909137Y-118199814D01*
X107690676Y-118199814D01*
X107678023Y-118174687D01*
X107676679Y-118165342D01*
X107661085Y-118016971D01*
X107604214Y-117841941D01*
X107512195Y-117682560D01*
X107389050Y-117545793D01*
X107389048Y-117545791D01*
X107240165Y-117437621D01*
X107240162Y-117437619D01*
X107240161Y-117437619D01*
X107179112Y-117410438D01*
X107072038Y-117362765D01*
X107072033Y-117362763D01*
X106892019Y-117324500D01*
X106707981Y-117324500D01*
X106527966Y-117362763D01*
X106527961Y-117362765D01*
X106359839Y-117437619D01*
X106359834Y-117437621D01*
X106210951Y-117545791D01*
X106210949Y-117545793D01*
X106087804Y-117682561D01*
X105995786Y-117841940D01*
X105995783Y-117841946D01*
X105938916Y-118016967D01*
X105938915Y-118016971D01*
X105919678Y-118200000D01*
X100750500Y-118200000D01*
X100750500Y-116200000D01*
X105919678Y-116200000D01*
X105938915Y-116383029D01*
X105938916Y-116383032D01*
X105995783Y-116558053D01*
X105995786Y-116558059D01*
X106087805Y-116717440D01*
X106197327Y-116839077D01*
X106210949Y-116854206D01*
X106210951Y-116854208D01*
X106359834Y-116962378D01*
X106359835Y-116962378D01*
X106359839Y-116962381D01*
X106496953Y-117023428D01*
X106527961Y-117037234D01*
X106527966Y-117037236D01*
X106707981Y-117075500D01*
X106892019Y-117075500D01*
X107072034Y-117037236D01*
X107240161Y-116962381D01*
X107389050Y-116854207D01*
X107512195Y-116717440D01*
X107604214Y-116558059D01*
X107661085Y-116383029D01*
X107676679Y-116234655D01*
X107690862Y-116200184D01*
X107690676Y-116199814D01*
X107909137Y-116199814D01*
X107921977Y-116225312D01*
X107923319Y-116234646D01*
X107938915Y-116383029D01*
X107938916Y-116383032D01*
X107995783Y-116558053D01*
X107995786Y-116558059D01*
X108087805Y-116717440D01*
X108197327Y-116839077D01*
X108210949Y-116854206D01*
X108210951Y-116854208D01*
X108359834Y-116962378D01*
X108359835Y-116962378D01*
X108359839Y-116962381D01*
X108496953Y-117023428D01*
X108527961Y-117037234D01*
X108527966Y-117037236D01*
X108707981Y-117075500D01*
X108892019Y-117075500D01*
X109072034Y-117037236D01*
X109240161Y-116962381D01*
X109389050Y-116854207D01*
X109512195Y-116717440D01*
X109604214Y-116558059D01*
X109661085Y-116383029D01*
X109680322Y-116200000D01*
X109661085Y-116016971D01*
X109604214Y-115841941D01*
X109512195Y-115682560D01*
X109389050Y-115545793D01*
X109389048Y-115545791D01*
X109240165Y-115437621D01*
X109240162Y-115437619D01*
X109240161Y-115437619D01*
X109179112Y-115410438D01*
X109072038Y-115362765D01*
X109072033Y-115362763D01*
X108892019Y-115324500D01*
X108707981Y-115324500D01*
X108527966Y-115362763D01*
X108527961Y-115362765D01*
X108359839Y-115437619D01*
X108359834Y-115437621D01*
X108210951Y-115545791D01*
X108210949Y-115545793D01*
X108087804Y-115682561D01*
X107995786Y-115841940D01*
X107995783Y-115841946D01*
X107938916Y-116016967D01*
X107938915Y-116016971D01*
X107923321Y-116165342D01*
X107909137Y-116199814D01*
X107690676Y-116199814D01*
X107678023Y-116174687D01*
X107676679Y-116165342D01*
X107661085Y-116016971D01*
X107604214Y-115841941D01*
X107512195Y-115682560D01*
X107389050Y-115545793D01*
X107389048Y-115545791D01*
X107240165Y-115437621D01*
X107240162Y-115437619D01*
X107240161Y-115437619D01*
X107179112Y-115410438D01*
X107072038Y-115362765D01*
X107072033Y-115362763D01*
X106892019Y-115324500D01*
X106707981Y-115324500D01*
X106527966Y-115362763D01*
X106527961Y-115362765D01*
X106359839Y-115437619D01*
X106359834Y-115437621D01*
X106210951Y-115545791D01*
X106210949Y-115545793D01*
X106087804Y-115682561D01*
X105995786Y-115841940D01*
X105995783Y-115841946D01*
X105938916Y-116016967D01*
X105938915Y-116016971D01*
X105919678Y-116200000D01*
X100750500Y-116200000D01*
X100750500Y-114200000D01*
X105919678Y-114200000D01*
X105938915Y-114383029D01*
X105938916Y-114383032D01*
X105995783Y-114558053D01*
X105995786Y-114558059D01*
X106087805Y-114717440D01*
X106197327Y-114839077D01*
X106210949Y-114854206D01*
X106210951Y-114854208D01*
X106359834Y-114962378D01*
X106359835Y-114962378D01*
X106359839Y-114962381D01*
X106496953Y-115023428D01*
X106527961Y-115037234D01*
X106527966Y-115037236D01*
X106707981Y-115075500D01*
X106892019Y-115075500D01*
X107072034Y-115037236D01*
X107240161Y-114962381D01*
X107389050Y-114854207D01*
X107512195Y-114717440D01*
X107604214Y-114558059D01*
X107661085Y-114383029D01*
X107680322Y-114200000D01*
X107661085Y-114016971D01*
X107604214Y-113841941D01*
X107512195Y-113682560D01*
X107389050Y-113545793D01*
X107389048Y-113545791D01*
X107240165Y-113437621D01*
X107240162Y-113437619D01*
X107240161Y-113437619D01*
X107179112Y-113410438D01*
X107072038Y-113362765D01*
X107072033Y-113362763D01*
X106892019Y-113324500D01*
X106707981Y-113324500D01*
X106527966Y-113362763D01*
X106527961Y-113362765D01*
X106359839Y-113437619D01*
X106359834Y-113437621D01*
X106210951Y-113545791D01*
X106210949Y-113545793D01*
X106087804Y-113682561D01*
X105995786Y-113841940D01*
X105995783Y-113841946D01*
X105938916Y-114016967D01*
X105938915Y-114016971D01*
X105919678Y-114200000D01*
X100750500Y-114200000D01*
X100750500Y-112200000D01*
X105919678Y-112200000D01*
X105938915Y-112383029D01*
X105938916Y-112383032D01*
X105995783Y-112558053D01*
X105995786Y-112558059D01*
X106087805Y-112717440D01*
X106197327Y-112839077D01*
X106210949Y-112854206D01*
X106210951Y-112854208D01*
X106359834Y-112962378D01*
X106359835Y-112962378D01*
X106359839Y-112962381D01*
X106496953Y-113023428D01*
X106527961Y-113037234D01*
X106527966Y-113037236D01*
X106707981Y-113075500D01*
X106892019Y-113075500D01*
X107072034Y-113037236D01*
X107240161Y-112962381D01*
X107389050Y-112854207D01*
X107512195Y-112717440D01*
X107604214Y-112558059D01*
X107661085Y-112383029D01*
X107676679Y-112234655D01*
X107690862Y-112200184D01*
X107690676Y-112199814D01*
X107909137Y-112199814D01*
X107921977Y-112225312D01*
X107923319Y-112234646D01*
X107938915Y-112383029D01*
X107938916Y-112383032D01*
X107995783Y-112558053D01*
X107995786Y-112558059D01*
X108087805Y-112717440D01*
X108197327Y-112839077D01*
X108210949Y-112854206D01*
X108210951Y-112854208D01*
X108359834Y-112962378D01*
X108359835Y-112962378D01*
X108359839Y-112962381D01*
X108496953Y-113023428D01*
X108527961Y-113037234D01*
X108527966Y-113037236D01*
X108707981Y-113075500D01*
X108892019Y-113075500D01*
X109072034Y-113037236D01*
X109240161Y-112962381D01*
X109389050Y-112854207D01*
X109512195Y-112717440D01*
X109522264Y-112700000D01*
X112494353Y-112700000D01*
X112514834Y-112842456D01*
X112569603Y-112962381D01*
X112574623Y-112973373D01*
X112668872Y-113082143D01*
X112789947Y-113159953D01*
X112789950Y-113159954D01*
X112789949Y-113159954D01*
X112928036Y-113200499D01*
X112928038Y-113200500D01*
X112928039Y-113200500D01*
X113071962Y-113200500D01*
X113071962Y-113200499D01*
X113210053Y-113159953D01*
X113331128Y-113082143D01*
X113425377Y-112973373D01*
X113485165Y-112842457D01*
X113505647Y-112700000D01*
X113485165Y-112557543D01*
X113425377Y-112426627D01*
X113331128Y-112317857D01*
X113210053Y-112240047D01*
X113210051Y-112240046D01*
X113210049Y-112240045D01*
X113210050Y-112240045D01*
X113071963Y-112199500D01*
X113071961Y-112199500D01*
X112928039Y-112199500D01*
X112928036Y-112199500D01*
X112789949Y-112240045D01*
X112668873Y-112317856D01*
X112574623Y-112426626D01*
X112574622Y-112426628D01*
X112514834Y-112557543D01*
X112494353Y-112700000D01*
X109522264Y-112700000D01*
X109604214Y-112558059D01*
X109661085Y-112383029D01*
X109680322Y-112200000D01*
X109661085Y-112016971D01*
X109604214Y-111841941D01*
X109512195Y-111682560D01*
X109389050Y-111545793D01*
X109389048Y-111545791D01*
X109240165Y-111437621D01*
X109240162Y-111437619D01*
X109240161Y-111437619D01*
X109179112Y-111410438D01*
X109072038Y-111362765D01*
X109072033Y-111362763D01*
X108892019Y-111324500D01*
X108707981Y-111324500D01*
X108527966Y-111362763D01*
X108527961Y-111362765D01*
X108359839Y-111437619D01*
X108359834Y-111437621D01*
X108210951Y-111545791D01*
X108210949Y-111545793D01*
X108087804Y-111682561D01*
X107995786Y-111841940D01*
X107995783Y-111841946D01*
X107938916Y-112016967D01*
X107938915Y-112016971D01*
X107923321Y-112165342D01*
X107909137Y-112199814D01*
X107690676Y-112199814D01*
X107678023Y-112174687D01*
X107676679Y-112165342D01*
X107661085Y-112016971D01*
X107604214Y-111841941D01*
X107512195Y-111682560D01*
X107389050Y-111545793D01*
X107389048Y-111545791D01*
X107240165Y-111437621D01*
X107240162Y-111437619D01*
X107240161Y-111437619D01*
X107179112Y-111410438D01*
X107072038Y-111362765D01*
X107072033Y-111362763D01*
X106892019Y-111324500D01*
X106707981Y-111324500D01*
X106527966Y-111362763D01*
X106527961Y-111362765D01*
X106359839Y-111437619D01*
X106359834Y-111437621D01*
X106210951Y-111545791D01*
X106210949Y-111545793D01*
X106087804Y-111682561D01*
X105995786Y-111841940D01*
X105995783Y-111841946D01*
X105938916Y-112016967D01*
X105938915Y-112016971D01*
X105919678Y-112200000D01*
X100750500Y-112200000D01*
X100750500Y-110200000D01*
X105919678Y-110200000D01*
X105938915Y-110383029D01*
X105938916Y-110383032D01*
X105995783Y-110558053D01*
X105995786Y-110558059D01*
X106087805Y-110717440D01*
X106197327Y-110839077D01*
X106210949Y-110854206D01*
X106210951Y-110854208D01*
X106359834Y-110962378D01*
X106359835Y-110962378D01*
X106359839Y-110962381D01*
X106496953Y-111023428D01*
X106527961Y-111037234D01*
X106527966Y-111037236D01*
X106707981Y-111075500D01*
X106892019Y-111075500D01*
X107072034Y-111037236D01*
X107240161Y-110962381D01*
X107389050Y-110854207D01*
X107512195Y-110717440D01*
X107604214Y-110558059D01*
X107661085Y-110383029D01*
X107676679Y-110234655D01*
X107690862Y-110200184D01*
X107690676Y-110199814D01*
X107909137Y-110199814D01*
X107921977Y-110225312D01*
X107923319Y-110234646D01*
X107938915Y-110383029D01*
X107938916Y-110383032D01*
X107995783Y-110558053D01*
X107995786Y-110558059D01*
X108087805Y-110717440D01*
X108197327Y-110839077D01*
X108210949Y-110854206D01*
X108210951Y-110854208D01*
X108359834Y-110962378D01*
X108359835Y-110962378D01*
X108359839Y-110962381D01*
X108496953Y-111023428D01*
X108527961Y-111037234D01*
X108527966Y-111037236D01*
X108707981Y-111075500D01*
X108892019Y-111075500D01*
X109072034Y-111037236D01*
X109240161Y-110962381D01*
X109389050Y-110854207D01*
X109512195Y-110717440D01*
X109604214Y-110558059D01*
X109661085Y-110383029D01*
X109680322Y-110200000D01*
X109661085Y-110016971D01*
X109604214Y-109841941D01*
X109512195Y-109682560D01*
X109389050Y-109545793D01*
X109389048Y-109545791D01*
X109240165Y-109437621D01*
X109240162Y-109437619D01*
X109240161Y-109437619D01*
X109179112Y-109410438D01*
X109072038Y-109362765D01*
X109072033Y-109362763D01*
X108892019Y-109324500D01*
X108707981Y-109324500D01*
X108527966Y-109362763D01*
X108527961Y-109362765D01*
X108359839Y-109437619D01*
X108359834Y-109437621D01*
X108210951Y-109545791D01*
X108210949Y-109545793D01*
X108087804Y-109682561D01*
X107995786Y-109841940D01*
X107995783Y-109841946D01*
X107938916Y-110016967D01*
X107938915Y-110016971D01*
X107923321Y-110165342D01*
X107909137Y-110199814D01*
X107690676Y-110199814D01*
X107678023Y-110174687D01*
X107676679Y-110165342D01*
X107661085Y-110016971D01*
X107604214Y-109841941D01*
X107512195Y-109682560D01*
X107389050Y-109545793D01*
X107389048Y-109545791D01*
X107240165Y-109437621D01*
X107240162Y-109437619D01*
X107240161Y-109437619D01*
X107179112Y-109410438D01*
X107072038Y-109362765D01*
X107072033Y-109362763D01*
X106892019Y-109324500D01*
X106707981Y-109324500D01*
X106527966Y-109362763D01*
X106527961Y-109362765D01*
X106359839Y-109437619D01*
X106359834Y-109437621D01*
X106210951Y-109545791D01*
X106210949Y-109545793D01*
X106087804Y-109682561D01*
X105995786Y-109841940D01*
X105995783Y-109841946D01*
X105938916Y-110016967D01*
X105938915Y-110016971D01*
X105919678Y-110200000D01*
X100750500Y-110200000D01*
X100750500Y-108200000D01*
X107919678Y-108200000D01*
X107938915Y-108383029D01*
X107938916Y-108383032D01*
X107995783Y-108558053D01*
X107995786Y-108558059D01*
X108087805Y-108717440D01*
X108197327Y-108839077D01*
X108210949Y-108854206D01*
X108210951Y-108854208D01*
X108359834Y-108962378D01*
X108359835Y-108962378D01*
X108359839Y-108962381D01*
X108496953Y-109023428D01*
X108527961Y-109037234D01*
X108527966Y-109037236D01*
X108707981Y-109075500D01*
X108892019Y-109075500D01*
X109072034Y-109037236D01*
X109240161Y-108962381D01*
X109389050Y-108854207D01*
X109512195Y-108717440D01*
X109604214Y-108558059D01*
X109661085Y-108383029D01*
X109680322Y-108200000D01*
X109661085Y-108016971D01*
X109604214Y-107841941D01*
X109512195Y-107682560D01*
X109389050Y-107545793D01*
X109389048Y-107545791D01*
X109240165Y-107437621D01*
X109240162Y-107437619D01*
X109240161Y-107437619D01*
X109179112Y-107410438D01*
X109072038Y-107362765D01*
X109072033Y-107362763D01*
X108892019Y-107324500D01*
X108707981Y-107324500D01*
X108527966Y-107362763D01*
X108527961Y-107362765D01*
X108359839Y-107437619D01*
X108359834Y-107437621D01*
X108210951Y-107545791D01*
X108210949Y-107545793D01*
X108087804Y-107682561D01*
X107995786Y-107841940D01*
X107995783Y-107841946D01*
X107938916Y-108016967D01*
X107938915Y-108016971D01*
X107919678Y-108200000D01*
X100750500Y-108200000D01*
X100750500Y-106200000D01*
X105919678Y-106200000D01*
X105938915Y-106383029D01*
X105938916Y-106383032D01*
X105995783Y-106558053D01*
X105995786Y-106558059D01*
X106087805Y-106717440D01*
X106197327Y-106839077D01*
X106210949Y-106854206D01*
X106210951Y-106854208D01*
X106359834Y-106962378D01*
X106359835Y-106962378D01*
X106359839Y-106962381D01*
X106496953Y-107023428D01*
X106527961Y-107037234D01*
X106527966Y-107037236D01*
X106707981Y-107075500D01*
X106892019Y-107075500D01*
X107072034Y-107037236D01*
X107240161Y-106962381D01*
X107389050Y-106854207D01*
X107512195Y-106717440D01*
X107604214Y-106558059D01*
X107661085Y-106383029D01*
X107676679Y-106234655D01*
X107690862Y-106200184D01*
X107690676Y-106199814D01*
X107909137Y-106199814D01*
X107921977Y-106225312D01*
X107923319Y-106234646D01*
X107938915Y-106383029D01*
X107938916Y-106383032D01*
X107995783Y-106558053D01*
X107995786Y-106558059D01*
X108087805Y-106717440D01*
X108197327Y-106839077D01*
X108210949Y-106854206D01*
X108210951Y-106854208D01*
X108359834Y-106962378D01*
X108359835Y-106962378D01*
X108359839Y-106962381D01*
X108496953Y-107023428D01*
X108527961Y-107037234D01*
X108527966Y-107037236D01*
X108707981Y-107075500D01*
X108892019Y-107075500D01*
X109072034Y-107037236D01*
X109240161Y-106962381D01*
X109389050Y-106854207D01*
X109512195Y-106717440D01*
X109604214Y-106558059D01*
X109661085Y-106383029D01*
X109680322Y-106200000D01*
X109661085Y-106016971D01*
X109604214Y-105841941D01*
X109512195Y-105682560D01*
X109389050Y-105545793D01*
X109389048Y-105545791D01*
X109240165Y-105437621D01*
X109240162Y-105437619D01*
X109240161Y-105437619D01*
X109179112Y-105410438D01*
X109072038Y-105362765D01*
X109072033Y-105362763D01*
X108892019Y-105324500D01*
X108707981Y-105324500D01*
X108527966Y-105362763D01*
X108527961Y-105362765D01*
X108359839Y-105437619D01*
X108359834Y-105437621D01*
X108210951Y-105545791D01*
X108210949Y-105545793D01*
X108087804Y-105682561D01*
X107995786Y-105841940D01*
X107995783Y-105841946D01*
X107938916Y-106016967D01*
X107938915Y-106016971D01*
X107923321Y-106165342D01*
X107909137Y-106199814D01*
X107690676Y-106199814D01*
X107678023Y-106174687D01*
X107676679Y-106165342D01*
X107661085Y-106016971D01*
X107604214Y-105841941D01*
X107512195Y-105682560D01*
X107389050Y-105545793D01*
X107389048Y-105545791D01*
X107240165Y-105437621D01*
X107240162Y-105437619D01*
X107240161Y-105437619D01*
X107179112Y-105410438D01*
X107072038Y-105362765D01*
X107072033Y-105362763D01*
X106892019Y-105324500D01*
X106707981Y-105324500D01*
X106527966Y-105362763D01*
X106527961Y-105362765D01*
X106359839Y-105437619D01*
X106359834Y-105437621D01*
X106210951Y-105545791D01*
X106210949Y-105545793D01*
X106087804Y-105682561D01*
X105995786Y-105841940D01*
X105995783Y-105841946D01*
X105938916Y-106016967D01*
X105938915Y-106016971D01*
X105919678Y-106200000D01*
X100750500Y-106200000D01*
X100750500Y-104200000D01*
X105919678Y-104200000D01*
X105938915Y-104383029D01*
X105938916Y-104383032D01*
X105995783Y-104558053D01*
X105995786Y-104558059D01*
X106087805Y-104717440D01*
X106197327Y-104839077D01*
X106210949Y-104854206D01*
X106210951Y-104854208D01*
X106359834Y-104962378D01*
X106359835Y-104962378D01*
X106359839Y-104962381D01*
X106496953Y-105023428D01*
X106527961Y-105037234D01*
X106527966Y-105037236D01*
X106707981Y-105075500D01*
X106892019Y-105075500D01*
X107072034Y-105037236D01*
X107240161Y-104962381D01*
X107389050Y-104854207D01*
X107512195Y-104717440D01*
X107604214Y-104558059D01*
X107661085Y-104383029D01*
X107676679Y-104234655D01*
X107690862Y-104200184D01*
X107690676Y-104199814D01*
X107909137Y-104199814D01*
X107921977Y-104225312D01*
X107923319Y-104234646D01*
X107938915Y-104383029D01*
X107938916Y-104383032D01*
X107995783Y-104558053D01*
X107995786Y-104558059D01*
X108087805Y-104717440D01*
X108197327Y-104839077D01*
X108210949Y-104854206D01*
X108210951Y-104854208D01*
X108359834Y-104962378D01*
X108359835Y-104962378D01*
X108359839Y-104962381D01*
X108496953Y-105023428D01*
X108527961Y-105037234D01*
X108527966Y-105037236D01*
X108707981Y-105075500D01*
X108892019Y-105075500D01*
X109072034Y-105037236D01*
X109240161Y-104962381D01*
X109389050Y-104854207D01*
X109512195Y-104717440D01*
X109604214Y-104558059D01*
X109661085Y-104383029D01*
X109680322Y-104200000D01*
X109661085Y-104016971D01*
X109604214Y-103841941D01*
X109512195Y-103682560D01*
X109389050Y-103545793D01*
X109389048Y-103545791D01*
X109240165Y-103437621D01*
X109240162Y-103437619D01*
X109240161Y-103437619D01*
X109179112Y-103410438D01*
X109072038Y-103362765D01*
X109072033Y-103362763D01*
X108892019Y-103324500D01*
X108707981Y-103324500D01*
X108527966Y-103362763D01*
X108527961Y-103362765D01*
X108359839Y-103437619D01*
X108359834Y-103437621D01*
X108210951Y-103545791D01*
X108210949Y-103545793D01*
X108087804Y-103682561D01*
X107995786Y-103841940D01*
X107995783Y-103841946D01*
X107938916Y-104016967D01*
X107938915Y-104016971D01*
X107923321Y-104165342D01*
X107909137Y-104199814D01*
X107690676Y-104199814D01*
X107678023Y-104174687D01*
X107676679Y-104165342D01*
X107661085Y-104016971D01*
X107604214Y-103841941D01*
X107512195Y-103682560D01*
X107389050Y-103545793D01*
X107389048Y-103545791D01*
X107240165Y-103437621D01*
X107240162Y-103437619D01*
X107240161Y-103437619D01*
X107179112Y-103410438D01*
X107072038Y-103362765D01*
X107072033Y-103362763D01*
X106892019Y-103324500D01*
X106707981Y-103324500D01*
X106527966Y-103362763D01*
X106527961Y-103362765D01*
X106359839Y-103437619D01*
X106359834Y-103437621D01*
X106210951Y-103545791D01*
X106210949Y-103545793D01*
X106087804Y-103682561D01*
X105995786Y-103841940D01*
X105995783Y-103841946D01*
X105938916Y-104016967D01*
X105938915Y-104016971D01*
X105919678Y-104200000D01*
X100750500Y-104200000D01*
X100750500Y-102200000D01*
X105919678Y-102200000D01*
X105938915Y-102383029D01*
X105938916Y-102383032D01*
X105995783Y-102558053D01*
X105995786Y-102558059D01*
X106087805Y-102717440D01*
X106197327Y-102839077D01*
X106210949Y-102854206D01*
X106210951Y-102854208D01*
X106359834Y-102962378D01*
X106359835Y-102962378D01*
X106359839Y-102962381D01*
X106496953Y-103023428D01*
X106527961Y-103037234D01*
X106527966Y-103037236D01*
X106707981Y-103075500D01*
X106892019Y-103075500D01*
X107072034Y-103037236D01*
X107240161Y-102962381D01*
X107389050Y-102854207D01*
X107512195Y-102717440D01*
X107604214Y-102558059D01*
X107661085Y-102383029D01*
X107676679Y-102234655D01*
X107690862Y-102200184D01*
X107690676Y-102199814D01*
X107909137Y-102199814D01*
X107921977Y-102225312D01*
X107923319Y-102234646D01*
X107938915Y-102383029D01*
X107938916Y-102383032D01*
X107995783Y-102558053D01*
X107995786Y-102558059D01*
X108087805Y-102717440D01*
X108197327Y-102839077D01*
X108210949Y-102854206D01*
X108210951Y-102854208D01*
X108359834Y-102962378D01*
X108359835Y-102962378D01*
X108359839Y-102962381D01*
X108496953Y-103023428D01*
X108527961Y-103037234D01*
X108527966Y-103037236D01*
X108707981Y-103075500D01*
X108892019Y-103075500D01*
X109072034Y-103037236D01*
X109240161Y-102962381D01*
X109389050Y-102854207D01*
X109512195Y-102717440D01*
X109522264Y-102700000D01*
X112594353Y-102700000D01*
X112614834Y-102842456D01*
X112669603Y-102962381D01*
X112674623Y-102973373D01*
X112768872Y-103082143D01*
X112889947Y-103159953D01*
X112889950Y-103159954D01*
X112889949Y-103159954D01*
X113028036Y-103200499D01*
X113028038Y-103200500D01*
X113028039Y-103200500D01*
X113171962Y-103200500D01*
X113171962Y-103200499D01*
X113310053Y-103159953D01*
X113431128Y-103082143D01*
X113525377Y-102973373D01*
X113585165Y-102842457D01*
X113605647Y-102700000D01*
X113585165Y-102557543D01*
X113525377Y-102426627D01*
X113431128Y-102317857D01*
X113310053Y-102240047D01*
X113310051Y-102240046D01*
X113310049Y-102240045D01*
X113310050Y-102240045D01*
X113171963Y-102199500D01*
X113171961Y-102199500D01*
X113028039Y-102199500D01*
X113028036Y-102199500D01*
X112889949Y-102240045D01*
X112768873Y-102317856D01*
X112674623Y-102426626D01*
X112674622Y-102426628D01*
X112614834Y-102557543D01*
X112594353Y-102700000D01*
X109522264Y-102700000D01*
X109604214Y-102558059D01*
X109661085Y-102383029D01*
X109680322Y-102200000D01*
X109661085Y-102016971D01*
X109604214Y-101841941D01*
X109512195Y-101682560D01*
X109389050Y-101545793D01*
X109389048Y-101545791D01*
X109240165Y-101437621D01*
X109240162Y-101437619D01*
X109240161Y-101437619D01*
X109179112Y-101410438D01*
X109072038Y-101362765D01*
X109072033Y-101362763D01*
X108892019Y-101324500D01*
X108707981Y-101324500D01*
X108527966Y-101362763D01*
X108527961Y-101362765D01*
X108359839Y-101437619D01*
X108359834Y-101437621D01*
X108210951Y-101545791D01*
X108210949Y-101545793D01*
X108087804Y-101682561D01*
X107995786Y-101841940D01*
X107995783Y-101841946D01*
X107938916Y-102016967D01*
X107938915Y-102016971D01*
X107923321Y-102165342D01*
X107909137Y-102199814D01*
X107690676Y-102199814D01*
X107678023Y-102174687D01*
X107676679Y-102165342D01*
X107661085Y-102016971D01*
X107604214Y-101841941D01*
X107512195Y-101682560D01*
X107389050Y-101545793D01*
X107389048Y-101545791D01*
X107240165Y-101437621D01*
X107240162Y-101437619D01*
X107240161Y-101437619D01*
X107179112Y-101410438D01*
X107072038Y-101362765D01*
X107072033Y-101362763D01*
X106892019Y-101324500D01*
X106707981Y-101324500D01*
X106527966Y-101362763D01*
X106527961Y-101362765D01*
X106359839Y-101437619D01*
X106359834Y-101437621D01*
X106210951Y-101545791D01*
X106210949Y-101545793D01*
X106087804Y-101682561D01*
X105995786Y-101841940D01*
X105995783Y-101841946D01*
X105938916Y-102016967D01*
X105938915Y-102016971D01*
X105919678Y-102200000D01*
X100750500Y-102200000D01*
X100750500Y-100200000D01*
X105919678Y-100200000D01*
X105938915Y-100383029D01*
X105938916Y-100383032D01*
X105995783Y-100558053D01*
X105995786Y-100558059D01*
X106087805Y-100717440D01*
X106197327Y-100839077D01*
X106210949Y-100854206D01*
X106210951Y-100854208D01*
X106359834Y-100962378D01*
X106359835Y-100962378D01*
X106359839Y-100962381D01*
X106496953Y-101023428D01*
X106527961Y-101037234D01*
X106527966Y-101037236D01*
X106707981Y-101075500D01*
X106892019Y-101075500D01*
X107072034Y-101037236D01*
X107240161Y-100962381D01*
X107389050Y-100854207D01*
X107512195Y-100717440D01*
X107604214Y-100558059D01*
X107661085Y-100383029D01*
X107680322Y-100200000D01*
X107661085Y-100016971D01*
X107604214Y-99841941D01*
X107512195Y-99682560D01*
X107389050Y-99545793D01*
X107389048Y-99545791D01*
X107240165Y-99437621D01*
X107240162Y-99437619D01*
X107240161Y-99437619D01*
X107179112Y-99410438D01*
X107072038Y-99362765D01*
X107072033Y-99362763D01*
X106892019Y-99324500D01*
X106707981Y-99324500D01*
X106527966Y-99362763D01*
X106527961Y-99362765D01*
X106359839Y-99437619D01*
X106359834Y-99437621D01*
X106210951Y-99545791D01*
X106210949Y-99545793D01*
X106087804Y-99682561D01*
X105995786Y-99841940D01*
X105995783Y-99841946D01*
X105938916Y-100016967D01*
X105938915Y-100016971D01*
X105919678Y-100200000D01*
X100750500Y-100200000D01*
X100750500Y-98200000D01*
X105919678Y-98200000D01*
X105938915Y-98383029D01*
X105938916Y-98383032D01*
X105995783Y-98558053D01*
X105995786Y-98558059D01*
X106087805Y-98717440D01*
X106197327Y-98839077D01*
X106210949Y-98854206D01*
X106210951Y-98854208D01*
X106359834Y-98962378D01*
X106359835Y-98962378D01*
X106359839Y-98962381D01*
X106496953Y-99023428D01*
X106527961Y-99037234D01*
X106527966Y-99037236D01*
X106707981Y-99075500D01*
X106892019Y-99075500D01*
X107072034Y-99037236D01*
X107240161Y-98962381D01*
X107389050Y-98854207D01*
X107512195Y-98717440D01*
X107604214Y-98558059D01*
X107661085Y-98383029D01*
X107676679Y-98234655D01*
X107690862Y-98200184D01*
X107690676Y-98199814D01*
X107909137Y-98199814D01*
X107921977Y-98225312D01*
X107923319Y-98234646D01*
X107938915Y-98383029D01*
X107938916Y-98383032D01*
X107995783Y-98558053D01*
X107995786Y-98558059D01*
X108087805Y-98717440D01*
X108197327Y-98839077D01*
X108210949Y-98854206D01*
X108210951Y-98854208D01*
X108359834Y-98962378D01*
X108359835Y-98962378D01*
X108359839Y-98962381D01*
X108496953Y-99023428D01*
X108527961Y-99037234D01*
X108527966Y-99037236D01*
X108707981Y-99075500D01*
X108892019Y-99075500D01*
X109072034Y-99037236D01*
X109240161Y-98962381D01*
X109389050Y-98854207D01*
X109512195Y-98717440D01*
X109604214Y-98558059D01*
X109661085Y-98383029D01*
X109680322Y-98200000D01*
X109661085Y-98016971D01*
X109604214Y-97841941D01*
X109512195Y-97682560D01*
X109389050Y-97545793D01*
X109389048Y-97545791D01*
X109240165Y-97437621D01*
X109240162Y-97437619D01*
X109240161Y-97437619D01*
X109179112Y-97410438D01*
X109072038Y-97362765D01*
X109072033Y-97362763D01*
X108892019Y-97324500D01*
X108707981Y-97324500D01*
X108527966Y-97362763D01*
X108527961Y-97362765D01*
X108359839Y-97437619D01*
X108359834Y-97437621D01*
X108210951Y-97545791D01*
X108210949Y-97545793D01*
X108087804Y-97682561D01*
X107995786Y-97841940D01*
X107995783Y-97841946D01*
X107938916Y-98016967D01*
X107938915Y-98016971D01*
X107923321Y-98165342D01*
X107909137Y-98199814D01*
X107690676Y-98199814D01*
X107678023Y-98174687D01*
X107676679Y-98165342D01*
X107661085Y-98016971D01*
X107604214Y-97841941D01*
X107512195Y-97682560D01*
X107389050Y-97545793D01*
X107389048Y-97545791D01*
X107240165Y-97437621D01*
X107240162Y-97437619D01*
X107240161Y-97437619D01*
X107179112Y-97410438D01*
X107072038Y-97362765D01*
X107072033Y-97362763D01*
X106892019Y-97324500D01*
X106707981Y-97324500D01*
X106527966Y-97362763D01*
X106527961Y-97362765D01*
X106359839Y-97437619D01*
X106359834Y-97437621D01*
X106210951Y-97545791D01*
X106210949Y-97545793D01*
X106087804Y-97682561D01*
X105995786Y-97841940D01*
X105995783Y-97841946D01*
X105938916Y-98016967D01*
X105938915Y-98016971D01*
X105919678Y-98200000D01*
X100750500Y-98200000D01*
X100750500Y-96200000D01*
X105919678Y-96200000D01*
X105938915Y-96383029D01*
X105938916Y-96383032D01*
X105995783Y-96558053D01*
X105995786Y-96558059D01*
X106087805Y-96717440D01*
X106197327Y-96839077D01*
X106210949Y-96854206D01*
X106210951Y-96854208D01*
X106359834Y-96962378D01*
X106359835Y-96962378D01*
X106359839Y-96962381D01*
X106496953Y-97023428D01*
X106527961Y-97037234D01*
X106527966Y-97037236D01*
X106707981Y-97075500D01*
X106892019Y-97075500D01*
X107072034Y-97037236D01*
X107240161Y-96962381D01*
X107389050Y-96854207D01*
X107512195Y-96717440D01*
X107604214Y-96558059D01*
X107661085Y-96383029D01*
X107676679Y-96234655D01*
X107690862Y-96200184D01*
X107690676Y-96199814D01*
X107909137Y-96199814D01*
X107921977Y-96225312D01*
X107923319Y-96234646D01*
X107938915Y-96383029D01*
X107938916Y-96383032D01*
X107995783Y-96558053D01*
X107995786Y-96558059D01*
X108087805Y-96717440D01*
X108197327Y-96839077D01*
X108210949Y-96854206D01*
X108210951Y-96854208D01*
X108359834Y-96962378D01*
X108359835Y-96962378D01*
X108359839Y-96962381D01*
X108496953Y-97023428D01*
X108527961Y-97037234D01*
X108527966Y-97037236D01*
X108707981Y-97075500D01*
X108892019Y-97075500D01*
X109072034Y-97037236D01*
X109240161Y-96962381D01*
X109389050Y-96854207D01*
X109512195Y-96717440D01*
X109604214Y-96558059D01*
X109661085Y-96383029D01*
X109680322Y-96200000D01*
X109661085Y-96016971D01*
X109604214Y-95841941D01*
X109512195Y-95682560D01*
X109389050Y-95545793D01*
X109389048Y-95545791D01*
X109240165Y-95437621D01*
X109240162Y-95437619D01*
X109240161Y-95437619D01*
X109179112Y-95410438D01*
X109072038Y-95362765D01*
X109072033Y-95362763D01*
X108892019Y-95324500D01*
X108707981Y-95324500D01*
X108527966Y-95362763D01*
X108527961Y-95362765D01*
X108359839Y-95437619D01*
X108359834Y-95437621D01*
X108210951Y-95545791D01*
X108210949Y-95545793D01*
X108087804Y-95682561D01*
X107995786Y-95841940D01*
X107995783Y-95841946D01*
X107938916Y-96016967D01*
X107938915Y-96016971D01*
X107923321Y-96165342D01*
X107909137Y-96199814D01*
X107690676Y-96199814D01*
X107678023Y-96174687D01*
X107676679Y-96165342D01*
X107661085Y-96016971D01*
X107604214Y-95841941D01*
X107512195Y-95682560D01*
X107389050Y-95545793D01*
X107389048Y-95545791D01*
X107240165Y-95437621D01*
X107240162Y-95437619D01*
X107240161Y-95437619D01*
X107179112Y-95410438D01*
X107072038Y-95362765D01*
X107072033Y-95362763D01*
X106892019Y-95324500D01*
X106707981Y-95324500D01*
X106527966Y-95362763D01*
X106527961Y-95362765D01*
X106359839Y-95437619D01*
X106359834Y-95437621D01*
X106210951Y-95545791D01*
X106210949Y-95545793D01*
X106087804Y-95682561D01*
X105995786Y-95841940D01*
X105995783Y-95841946D01*
X105938916Y-96016967D01*
X105938915Y-96016971D01*
X105919678Y-96200000D01*
X100750500Y-96200000D01*
X100750500Y-94200000D01*
X107919678Y-94200000D01*
X107938915Y-94383029D01*
X107938916Y-94383032D01*
X107995783Y-94558053D01*
X107995786Y-94558059D01*
X108087805Y-94717440D01*
X108197327Y-94839077D01*
X108210949Y-94854206D01*
X108210951Y-94854208D01*
X108359834Y-94962378D01*
X108359835Y-94962378D01*
X108359839Y-94962381D01*
X108496953Y-95023428D01*
X108527961Y-95037234D01*
X108527966Y-95037236D01*
X108707981Y-95075500D01*
X108892019Y-95075500D01*
X109072034Y-95037236D01*
X109240161Y-94962381D01*
X109389050Y-94854207D01*
X109512195Y-94717440D01*
X109604214Y-94558059D01*
X109661085Y-94383029D01*
X109680322Y-94200000D01*
X109661085Y-94016971D01*
X109604214Y-93841941D01*
X109579999Y-93800000D01*
X112494353Y-93800000D01*
X112514834Y-93942456D01*
X112574622Y-94073371D01*
X112574623Y-94073373D01*
X112668872Y-94182143D01*
X112789947Y-94259953D01*
X112789950Y-94259954D01*
X112789949Y-94259954D01*
X112928036Y-94300499D01*
X112928038Y-94300500D01*
X112928039Y-94300500D01*
X113071962Y-94300500D01*
X113071962Y-94300499D01*
X113210053Y-94259953D01*
X113331128Y-94182143D01*
X113425377Y-94073373D01*
X113485165Y-93942457D01*
X113505647Y-93800000D01*
X113485165Y-93657543D01*
X113425377Y-93526627D01*
X113331128Y-93417857D01*
X113210053Y-93340047D01*
X113210051Y-93340046D01*
X113210049Y-93340045D01*
X113210050Y-93340045D01*
X113071963Y-93299500D01*
X113071961Y-93299500D01*
X112928039Y-93299500D01*
X112928036Y-93299500D01*
X112789949Y-93340045D01*
X112668873Y-93417856D01*
X112574623Y-93526626D01*
X112574622Y-93526628D01*
X112514834Y-93657543D01*
X112494353Y-93800000D01*
X109579999Y-93800000D01*
X109512195Y-93682560D01*
X109389050Y-93545793D01*
X109389048Y-93545791D01*
X109240165Y-93437621D01*
X109240162Y-93437619D01*
X109240161Y-93437619D01*
X109179112Y-93410438D01*
X109072038Y-93362765D01*
X109072033Y-93362763D01*
X108892019Y-93324500D01*
X108707981Y-93324500D01*
X108527966Y-93362763D01*
X108527961Y-93362765D01*
X108359839Y-93437619D01*
X108359834Y-93437621D01*
X108210951Y-93545791D01*
X108210949Y-93545793D01*
X108087804Y-93682561D01*
X107995786Y-93841940D01*
X107995783Y-93841946D01*
X107938916Y-94016967D01*
X107938915Y-94016971D01*
X107919678Y-94200000D01*
X100750500Y-94200000D01*
X100750500Y-92200000D01*
X105919678Y-92200000D01*
X105938915Y-92383029D01*
X105938916Y-92383032D01*
X105995783Y-92558053D01*
X105995786Y-92558059D01*
X106087805Y-92717440D01*
X106197327Y-92839077D01*
X106210949Y-92854206D01*
X106210951Y-92854208D01*
X106359834Y-92962378D01*
X106359835Y-92962378D01*
X106359839Y-92962381D01*
X106496953Y-93023428D01*
X106527961Y-93037234D01*
X106527966Y-93037236D01*
X106707981Y-93075500D01*
X106892019Y-93075500D01*
X107072034Y-93037236D01*
X107240161Y-92962381D01*
X107389050Y-92854207D01*
X107512195Y-92717440D01*
X107604214Y-92558059D01*
X107661085Y-92383029D01*
X107676679Y-92234655D01*
X107690862Y-92200184D01*
X107690676Y-92199814D01*
X107909137Y-92199814D01*
X107921977Y-92225312D01*
X107923319Y-92234646D01*
X107938915Y-92383029D01*
X107938916Y-92383032D01*
X107995783Y-92558053D01*
X107995786Y-92558059D01*
X108087805Y-92717440D01*
X108197327Y-92839077D01*
X108210949Y-92854206D01*
X108210951Y-92854208D01*
X108359834Y-92962378D01*
X108359835Y-92962378D01*
X108359839Y-92962381D01*
X108496953Y-93023428D01*
X108527961Y-93037234D01*
X108527966Y-93037236D01*
X108707981Y-93075500D01*
X108892019Y-93075500D01*
X109072034Y-93037236D01*
X109240161Y-92962381D01*
X109389050Y-92854207D01*
X109512195Y-92717440D01*
X109604214Y-92558059D01*
X109661085Y-92383029D01*
X109680322Y-92200000D01*
X109661085Y-92016971D01*
X109604214Y-91841941D01*
X109512195Y-91682560D01*
X109389050Y-91545793D01*
X109389048Y-91545791D01*
X109240165Y-91437621D01*
X109240162Y-91437619D01*
X109240161Y-91437619D01*
X109179112Y-91410438D01*
X109072038Y-91362765D01*
X109072033Y-91362763D01*
X108892019Y-91324500D01*
X108707981Y-91324500D01*
X108527966Y-91362763D01*
X108527961Y-91362765D01*
X108359839Y-91437619D01*
X108359834Y-91437621D01*
X108210951Y-91545791D01*
X108210949Y-91545793D01*
X108087804Y-91682561D01*
X107995786Y-91841940D01*
X107995783Y-91841946D01*
X107938916Y-92016967D01*
X107938915Y-92016971D01*
X107923321Y-92165342D01*
X107909137Y-92199814D01*
X107690676Y-92199814D01*
X107678023Y-92174687D01*
X107676679Y-92165342D01*
X107661085Y-92016971D01*
X107604214Y-91841941D01*
X107512195Y-91682560D01*
X107389050Y-91545793D01*
X107389048Y-91545791D01*
X107240165Y-91437621D01*
X107240162Y-91437619D01*
X107240161Y-91437619D01*
X107179112Y-91410438D01*
X107072038Y-91362765D01*
X107072033Y-91362763D01*
X106892019Y-91324500D01*
X106707981Y-91324500D01*
X106527966Y-91362763D01*
X106527961Y-91362765D01*
X106359839Y-91437619D01*
X106359834Y-91437621D01*
X106210951Y-91545791D01*
X106210949Y-91545793D01*
X106087804Y-91682561D01*
X105995786Y-91841940D01*
X105995783Y-91841946D01*
X105938916Y-92016967D01*
X105938915Y-92016971D01*
X105919678Y-92200000D01*
X100750500Y-92200000D01*
X100750500Y-90200000D01*
X105919678Y-90200000D01*
X105938915Y-90383029D01*
X105938916Y-90383032D01*
X105995783Y-90558053D01*
X105995786Y-90558059D01*
X106087805Y-90717440D01*
X106197327Y-90839077D01*
X106210949Y-90854206D01*
X106210951Y-90854208D01*
X106359834Y-90962378D01*
X106359835Y-90962378D01*
X106359839Y-90962381D01*
X106496953Y-91023428D01*
X106527961Y-91037234D01*
X106527966Y-91037236D01*
X106707981Y-91075500D01*
X106892019Y-91075500D01*
X107072034Y-91037236D01*
X107240161Y-90962381D01*
X107389050Y-90854207D01*
X107512195Y-90717440D01*
X107604214Y-90558059D01*
X107661085Y-90383029D01*
X107676679Y-90234655D01*
X107690862Y-90200184D01*
X107690676Y-90199814D01*
X107909137Y-90199814D01*
X107921977Y-90225312D01*
X107923319Y-90234646D01*
X107938915Y-90383029D01*
X107938916Y-90383032D01*
X107995783Y-90558053D01*
X107995786Y-90558059D01*
X108087805Y-90717440D01*
X108197327Y-90839077D01*
X108210949Y-90854206D01*
X108210951Y-90854208D01*
X108359834Y-90962378D01*
X108359835Y-90962378D01*
X108359839Y-90962381D01*
X108496953Y-91023428D01*
X108527961Y-91037234D01*
X108527966Y-91037236D01*
X108707981Y-91075500D01*
X108892019Y-91075500D01*
X109072034Y-91037236D01*
X109240161Y-90962381D01*
X109389050Y-90854207D01*
X109512195Y-90717440D01*
X109604214Y-90558059D01*
X109661085Y-90383029D01*
X109680322Y-90200000D01*
X109661085Y-90016971D01*
X109604214Y-89841941D01*
X109512195Y-89682560D01*
X109389050Y-89545793D01*
X109389048Y-89545791D01*
X109240165Y-89437621D01*
X109240162Y-89437619D01*
X109240161Y-89437619D01*
X109179112Y-89410438D01*
X109072038Y-89362765D01*
X109072033Y-89362763D01*
X108892019Y-89324500D01*
X108707981Y-89324500D01*
X108527966Y-89362763D01*
X108527961Y-89362765D01*
X108359839Y-89437619D01*
X108359834Y-89437621D01*
X108210951Y-89545791D01*
X108210949Y-89545793D01*
X108087804Y-89682561D01*
X107995786Y-89841940D01*
X107995783Y-89841946D01*
X107938916Y-90016967D01*
X107938915Y-90016971D01*
X107923321Y-90165342D01*
X107909137Y-90199814D01*
X107690676Y-90199814D01*
X107678023Y-90174687D01*
X107676679Y-90165342D01*
X107661085Y-90016971D01*
X107604214Y-89841941D01*
X107512195Y-89682560D01*
X107389050Y-89545793D01*
X107389048Y-89545791D01*
X107240165Y-89437621D01*
X107240162Y-89437619D01*
X107240161Y-89437619D01*
X107179112Y-89410438D01*
X107072038Y-89362765D01*
X107072033Y-89362763D01*
X106892019Y-89324500D01*
X106707981Y-89324500D01*
X106527966Y-89362763D01*
X106527961Y-89362765D01*
X106359839Y-89437619D01*
X106359834Y-89437621D01*
X106210951Y-89545791D01*
X106210949Y-89545793D01*
X106087804Y-89682561D01*
X105995786Y-89841940D01*
X105995783Y-89841946D01*
X105938916Y-90016967D01*
X105938915Y-90016971D01*
X105919678Y-90200000D01*
X100750500Y-90200000D01*
X100750500Y-88200000D01*
X105919678Y-88200000D01*
X105938915Y-88383029D01*
X105938916Y-88383032D01*
X105995783Y-88558053D01*
X105995786Y-88558059D01*
X106087805Y-88717440D01*
X106197327Y-88839077D01*
X106210949Y-88854206D01*
X106210951Y-88854208D01*
X106359834Y-88962378D01*
X106359835Y-88962378D01*
X106359839Y-88962381D01*
X106496953Y-89023428D01*
X106527961Y-89037234D01*
X106527966Y-89037236D01*
X106707981Y-89075500D01*
X106892019Y-89075500D01*
X107072034Y-89037236D01*
X107240161Y-88962381D01*
X107389050Y-88854207D01*
X107512195Y-88717440D01*
X107604214Y-88558059D01*
X107661085Y-88383029D01*
X107676679Y-88234655D01*
X107690862Y-88200184D01*
X107690676Y-88199814D01*
X107909137Y-88199814D01*
X107921977Y-88225312D01*
X107923319Y-88234646D01*
X107938915Y-88383029D01*
X107938916Y-88383032D01*
X107995783Y-88558053D01*
X107995786Y-88558059D01*
X108087805Y-88717440D01*
X108197327Y-88839077D01*
X108210949Y-88854206D01*
X108210951Y-88854208D01*
X108359834Y-88962378D01*
X108359835Y-88962378D01*
X108359839Y-88962381D01*
X108496953Y-89023428D01*
X108527961Y-89037234D01*
X108527966Y-89037236D01*
X108707981Y-89075500D01*
X108892019Y-89075500D01*
X109072034Y-89037236D01*
X109240161Y-88962381D01*
X109389050Y-88854207D01*
X109512195Y-88717440D01*
X109604214Y-88558059D01*
X109661085Y-88383029D01*
X109680322Y-88200000D01*
X109661085Y-88016971D01*
X109604214Y-87841941D01*
X109512195Y-87682560D01*
X109389050Y-87545793D01*
X109389048Y-87545791D01*
X109240165Y-87437621D01*
X109240162Y-87437619D01*
X109240161Y-87437619D01*
X109179112Y-87410438D01*
X109072038Y-87362765D01*
X109072033Y-87362763D01*
X108892019Y-87324500D01*
X108707981Y-87324500D01*
X108527966Y-87362763D01*
X108527961Y-87362765D01*
X108359839Y-87437619D01*
X108359834Y-87437621D01*
X108210951Y-87545791D01*
X108210949Y-87545793D01*
X108087804Y-87682561D01*
X107995786Y-87841940D01*
X107995783Y-87841946D01*
X107938916Y-88016967D01*
X107938915Y-88016971D01*
X107923321Y-88165342D01*
X107909137Y-88199814D01*
X107690676Y-88199814D01*
X107678023Y-88174687D01*
X107676679Y-88165342D01*
X107661085Y-88016971D01*
X107604214Y-87841941D01*
X107512195Y-87682560D01*
X107389050Y-87545793D01*
X107389048Y-87545791D01*
X107240165Y-87437621D01*
X107240162Y-87437619D01*
X107240161Y-87437619D01*
X107179112Y-87410438D01*
X107072038Y-87362765D01*
X107072033Y-87362763D01*
X106892019Y-87324500D01*
X106707981Y-87324500D01*
X106527966Y-87362763D01*
X106527961Y-87362765D01*
X106359839Y-87437619D01*
X106359834Y-87437621D01*
X106210951Y-87545791D01*
X106210949Y-87545793D01*
X106087804Y-87682561D01*
X105995786Y-87841940D01*
X105995783Y-87841946D01*
X105938916Y-88016967D01*
X105938915Y-88016971D01*
X105919678Y-88200000D01*
X100750500Y-88200000D01*
X100750500Y-86200000D01*
X105919678Y-86200000D01*
X105938915Y-86383029D01*
X105938916Y-86383032D01*
X105995783Y-86558053D01*
X105995786Y-86558059D01*
X106087805Y-86717440D01*
X106197327Y-86839077D01*
X106210949Y-86854206D01*
X106210951Y-86854208D01*
X106359834Y-86962378D01*
X106359835Y-86962378D01*
X106359839Y-86962381D01*
X106496953Y-87023428D01*
X106527961Y-87037234D01*
X106527966Y-87037236D01*
X106707981Y-87075500D01*
X106892019Y-87075500D01*
X107072034Y-87037236D01*
X107240161Y-86962381D01*
X107389050Y-86854207D01*
X107512195Y-86717440D01*
X107604214Y-86558059D01*
X107661085Y-86383029D01*
X107680322Y-86200000D01*
X107661085Y-86016971D01*
X107604214Y-85841941D01*
X107512195Y-85682560D01*
X107389050Y-85545793D01*
X107389048Y-85545791D01*
X107240165Y-85437621D01*
X107240162Y-85437619D01*
X107240161Y-85437619D01*
X107179112Y-85410438D01*
X107072038Y-85362765D01*
X107072033Y-85362763D01*
X106892019Y-85324500D01*
X106707981Y-85324500D01*
X106527966Y-85362763D01*
X106527961Y-85362765D01*
X106359839Y-85437619D01*
X106359834Y-85437621D01*
X106210951Y-85545791D01*
X106210949Y-85545793D01*
X106087804Y-85682561D01*
X105995786Y-85841940D01*
X105995783Y-85841946D01*
X105938916Y-86016967D01*
X105938915Y-86016971D01*
X105919678Y-86200000D01*
X100750500Y-86200000D01*
X100750500Y-84200000D01*
X105919678Y-84200000D01*
X105938915Y-84383029D01*
X105938916Y-84383032D01*
X105995783Y-84558053D01*
X105995786Y-84558059D01*
X106087805Y-84717440D01*
X106162142Y-84800000D01*
X106210949Y-84854206D01*
X106210951Y-84854208D01*
X106359834Y-84962378D01*
X106359835Y-84962378D01*
X106359839Y-84962381D01*
X106496953Y-85023428D01*
X106527961Y-85037234D01*
X106527966Y-85037236D01*
X106707981Y-85075500D01*
X106892019Y-85075500D01*
X107072034Y-85037236D01*
X107240161Y-84962381D01*
X107389050Y-84854207D01*
X107512195Y-84717440D01*
X107604214Y-84558059D01*
X107661085Y-84383029D01*
X107676679Y-84234655D01*
X107690862Y-84200184D01*
X107690676Y-84199814D01*
X107909137Y-84199814D01*
X107921977Y-84225312D01*
X107923319Y-84234646D01*
X107938915Y-84383029D01*
X107938916Y-84383032D01*
X107995783Y-84558053D01*
X107995786Y-84558059D01*
X108087805Y-84717440D01*
X108162142Y-84800000D01*
X108210949Y-84854206D01*
X108210951Y-84854208D01*
X108359834Y-84962378D01*
X108359835Y-84962378D01*
X108359839Y-84962381D01*
X108496953Y-85023428D01*
X108527961Y-85037234D01*
X108527966Y-85037236D01*
X108707981Y-85075500D01*
X108892019Y-85075500D01*
X109072034Y-85037236D01*
X109240161Y-84962381D01*
X109389050Y-84854207D01*
X109437858Y-84800000D01*
X112494353Y-84800000D01*
X112514834Y-84942456D01*
X112574622Y-85073371D01*
X112574623Y-85073373D01*
X112668872Y-85182143D01*
X112789947Y-85259953D01*
X112789950Y-85259954D01*
X112789949Y-85259954D01*
X112928036Y-85300499D01*
X112928038Y-85300500D01*
X112928039Y-85300500D01*
X113071962Y-85300500D01*
X113071962Y-85300499D01*
X113210053Y-85259953D01*
X113331128Y-85182143D01*
X113425377Y-85073373D01*
X113485165Y-84942457D01*
X113505647Y-84800000D01*
X113485165Y-84657543D01*
X113425377Y-84526627D01*
X113331128Y-84417857D01*
X113210053Y-84340047D01*
X113210051Y-84340046D01*
X113210049Y-84340045D01*
X113210050Y-84340045D01*
X113071963Y-84299500D01*
X113071961Y-84299500D01*
X112928039Y-84299500D01*
X112928036Y-84299500D01*
X112789949Y-84340045D01*
X112668873Y-84417856D01*
X112574623Y-84526626D01*
X112574622Y-84526628D01*
X112514834Y-84657543D01*
X112494353Y-84800000D01*
X109437858Y-84800000D01*
X109512195Y-84717440D01*
X109604214Y-84558059D01*
X109661085Y-84383029D01*
X109680322Y-84200000D01*
X109661085Y-84016971D01*
X109604214Y-83841941D01*
X109512195Y-83682560D01*
X109389050Y-83545793D01*
X109389048Y-83545791D01*
X109240165Y-83437621D01*
X109240162Y-83437619D01*
X109240161Y-83437619D01*
X109179112Y-83410438D01*
X109072038Y-83362765D01*
X109072033Y-83362763D01*
X108892019Y-83324500D01*
X108707981Y-83324500D01*
X108527966Y-83362763D01*
X108527961Y-83362765D01*
X108359839Y-83437619D01*
X108359834Y-83437621D01*
X108210951Y-83545791D01*
X108210949Y-83545793D01*
X108087804Y-83682561D01*
X107995786Y-83841940D01*
X107995783Y-83841946D01*
X107938916Y-84016967D01*
X107938915Y-84016971D01*
X107923321Y-84165342D01*
X107909137Y-84199814D01*
X107690676Y-84199814D01*
X107678023Y-84174687D01*
X107676679Y-84165342D01*
X107661085Y-84016971D01*
X107604214Y-83841941D01*
X107512195Y-83682560D01*
X107389050Y-83545793D01*
X107389048Y-83545791D01*
X107240165Y-83437621D01*
X107240162Y-83437619D01*
X107240161Y-83437619D01*
X107179112Y-83410438D01*
X107072038Y-83362765D01*
X107072033Y-83362763D01*
X106892019Y-83324500D01*
X106707981Y-83324500D01*
X106527966Y-83362763D01*
X106527961Y-83362765D01*
X106359839Y-83437619D01*
X106359834Y-83437621D01*
X106210951Y-83545791D01*
X106210949Y-83545793D01*
X106087804Y-83682561D01*
X105995786Y-83841940D01*
X105995783Y-83841946D01*
X105938916Y-84016967D01*
X105938915Y-84016971D01*
X105919678Y-84200000D01*
X100750500Y-84200000D01*
X100750500Y-82200000D01*
X105919678Y-82200000D01*
X105938915Y-82383029D01*
X105938916Y-82383032D01*
X105995783Y-82558053D01*
X105995786Y-82558059D01*
X106087805Y-82717440D01*
X106197327Y-82839077D01*
X106210949Y-82854206D01*
X106210951Y-82854208D01*
X106359834Y-82962378D01*
X106359835Y-82962378D01*
X106359839Y-82962381D01*
X106496953Y-83023428D01*
X106527961Y-83037234D01*
X106527966Y-83037236D01*
X106707981Y-83075500D01*
X106892019Y-83075500D01*
X107072034Y-83037236D01*
X107240161Y-82962381D01*
X107389050Y-82854207D01*
X107512195Y-82717440D01*
X107604214Y-82558059D01*
X107661085Y-82383029D01*
X107676679Y-82234655D01*
X107690862Y-82200184D01*
X107690676Y-82199814D01*
X107909137Y-82199814D01*
X107921977Y-82225312D01*
X107923319Y-82234646D01*
X107938915Y-82383029D01*
X107938916Y-82383032D01*
X107995783Y-82558053D01*
X107995786Y-82558059D01*
X108087805Y-82717440D01*
X108197327Y-82839077D01*
X108210949Y-82854206D01*
X108210951Y-82854208D01*
X108359834Y-82962378D01*
X108359835Y-82962378D01*
X108359839Y-82962381D01*
X108496953Y-83023428D01*
X108527961Y-83037234D01*
X108527966Y-83037236D01*
X108707981Y-83075500D01*
X108892019Y-83075500D01*
X109072034Y-83037236D01*
X109240161Y-82962381D01*
X109389050Y-82854207D01*
X109512195Y-82717440D01*
X109604214Y-82558059D01*
X109661085Y-82383029D01*
X109680322Y-82200000D01*
X109661085Y-82016971D01*
X109604214Y-81841941D01*
X109512195Y-81682560D01*
X109389050Y-81545793D01*
X109389048Y-81545791D01*
X109240165Y-81437621D01*
X109240162Y-81437619D01*
X109240161Y-81437619D01*
X109179112Y-81410438D01*
X109072038Y-81362765D01*
X109072033Y-81362763D01*
X108892019Y-81324500D01*
X108707981Y-81324500D01*
X108527966Y-81362763D01*
X108527961Y-81362765D01*
X108359839Y-81437619D01*
X108359834Y-81437621D01*
X108210951Y-81545791D01*
X108210949Y-81545793D01*
X108087804Y-81682561D01*
X107995786Y-81841940D01*
X107995783Y-81841946D01*
X107938916Y-82016967D01*
X107938915Y-82016971D01*
X107923321Y-82165342D01*
X107909137Y-82199814D01*
X107690676Y-82199814D01*
X107678023Y-82174687D01*
X107676679Y-82165342D01*
X107661085Y-82016971D01*
X107604214Y-81841941D01*
X107512195Y-81682560D01*
X107389050Y-81545793D01*
X107389048Y-81545791D01*
X107240165Y-81437621D01*
X107240162Y-81437619D01*
X107240161Y-81437619D01*
X107179112Y-81410438D01*
X107072038Y-81362765D01*
X107072033Y-81362763D01*
X106892019Y-81324500D01*
X106707981Y-81324500D01*
X106527966Y-81362763D01*
X106527961Y-81362765D01*
X106359839Y-81437619D01*
X106359834Y-81437621D01*
X106210951Y-81545791D01*
X106210949Y-81545793D01*
X106087804Y-81682561D01*
X105995786Y-81841940D01*
X105995783Y-81841946D01*
X105938916Y-82016967D01*
X105938915Y-82016971D01*
X105919678Y-82200000D01*
X100750500Y-82200000D01*
X100750500Y-81100000D01*
X101894353Y-81100000D01*
X101914834Y-81242456D01*
X101969778Y-81362764D01*
X101974623Y-81373373D01*
X102068872Y-81482143D01*
X102189947Y-81559953D01*
X102189950Y-81559954D01*
X102189949Y-81559954D01*
X102328036Y-81600499D01*
X102328038Y-81600500D01*
X102328039Y-81600500D01*
X102471962Y-81600500D01*
X102471962Y-81600499D01*
X102610053Y-81559953D01*
X102731128Y-81482143D01*
X102825377Y-81373373D01*
X102885165Y-81242457D01*
X102905647Y-81100000D01*
X102885165Y-80957543D01*
X102825377Y-80826627D01*
X102731128Y-80717857D01*
X102610053Y-80640047D01*
X102610051Y-80640046D01*
X102610049Y-80640045D01*
X102610050Y-80640045D01*
X102471963Y-80599500D01*
X102471961Y-80599500D01*
X102328039Y-80599500D01*
X102328036Y-80599500D01*
X102189949Y-80640045D01*
X102068873Y-80717856D01*
X101974623Y-80826626D01*
X101974622Y-80826628D01*
X101914834Y-80957543D01*
X101894353Y-81100000D01*
X100750500Y-81100000D01*
X100750500Y-80200000D01*
X102794353Y-80200000D01*
X102814834Y-80342456D01*
X102833365Y-80383032D01*
X102874623Y-80473373D01*
X102968872Y-80582143D01*
X103089947Y-80659953D01*
X103089950Y-80659954D01*
X103089949Y-80659954D01*
X103228036Y-80700499D01*
X103228038Y-80700500D01*
X103228039Y-80700500D01*
X103371962Y-80700500D01*
X103371962Y-80700499D01*
X103510053Y-80659953D01*
X103631128Y-80582143D01*
X103725377Y-80473373D01*
X103785165Y-80342457D01*
X103805647Y-80200000D01*
X107919678Y-80200000D01*
X107938915Y-80383029D01*
X107938916Y-80383032D01*
X107995783Y-80558053D01*
X107995786Y-80558059D01*
X108087805Y-80717440D01*
X108186116Y-80826626D01*
X108210949Y-80854206D01*
X108210951Y-80854208D01*
X108359834Y-80962378D01*
X108359835Y-80962378D01*
X108359839Y-80962381D01*
X108496953Y-81023428D01*
X108527961Y-81037234D01*
X108527966Y-81037236D01*
X108707981Y-81075500D01*
X108892019Y-81075500D01*
X109072034Y-81037236D01*
X109240161Y-80962381D01*
X109389050Y-80854207D01*
X109512195Y-80717440D01*
X109604214Y-80558059D01*
X109661085Y-80383029D01*
X109680322Y-80200000D01*
X109661085Y-80016971D01*
X109604214Y-79841941D01*
X109512195Y-79682560D01*
X109389050Y-79545793D01*
X109389048Y-79545791D01*
X109240165Y-79437621D01*
X109240162Y-79437619D01*
X109240161Y-79437619D01*
X109179112Y-79410438D01*
X109072038Y-79362765D01*
X109072033Y-79362763D01*
X108892019Y-79324500D01*
X108707981Y-79324500D01*
X108527966Y-79362763D01*
X108527961Y-79362765D01*
X108359839Y-79437619D01*
X108359834Y-79437621D01*
X108210951Y-79545791D01*
X108210949Y-79545793D01*
X108087804Y-79682561D01*
X107995786Y-79841940D01*
X107995783Y-79841946D01*
X107968269Y-79926628D01*
X107938915Y-80016971D01*
X107919678Y-80200000D01*
X103805647Y-80200000D01*
X103785165Y-80057543D01*
X103725377Y-79926627D01*
X103631128Y-79817857D01*
X103510053Y-79740047D01*
X103510051Y-79740046D01*
X103510049Y-79740045D01*
X103510050Y-79740045D01*
X103371963Y-79699500D01*
X103371961Y-79699500D01*
X103228039Y-79699500D01*
X103228036Y-79699500D01*
X103089949Y-79740045D01*
X102968873Y-79817856D01*
X102874623Y-79926626D01*
X102874622Y-79926628D01*
X102814834Y-80057543D01*
X102794353Y-80200000D01*
X100750500Y-80200000D01*
X100750500Y-78500000D01*
X110094353Y-78500000D01*
X110114834Y-78642456D01*
X110160504Y-78742457D01*
X110174623Y-78773373D01*
X110268872Y-78882143D01*
X110389947Y-78959953D01*
X110389950Y-78959954D01*
X110389949Y-78959954D01*
X110528036Y-79000499D01*
X110528038Y-79000500D01*
X110528039Y-79000500D01*
X110671962Y-79000500D01*
X110671962Y-79000499D01*
X110810053Y-78959953D01*
X110931128Y-78882143D01*
X111025377Y-78773373D01*
X111085165Y-78642457D01*
X111091269Y-78600000D01*
X115494353Y-78600000D01*
X115514834Y-78742456D01*
X115528953Y-78773371D01*
X115574623Y-78873373D01*
X115668872Y-78982143D01*
X115789947Y-79059953D01*
X115789950Y-79059954D01*
X115789949Y-79059954D01*
X115928036Y-79100499D01*
X115928038Y-79100500D01*
X115928039Y-79100500D01*
X116071962Y-79100500D01*
X116071962Y-79100499D01*
X116210053Y-79059953D01*
X116331128Y-78982143D01*
X116425377Y-78873373D01*
X116485165Y-78742457D01*
X116505647Y-78600000D01*
X116485165Y-78457543D01*
X116425377Y-78326627D01*
X116331128Y-78217857D01*
X116210053Y-78140047D01*
X116210051Y-78140046D01*
X116210049Y-78140045D01*
X116210050Y-78140045D01*
X116071963Y-78099500D01*
X116071961Y-78099500D01*
X115928039Y-78099500D01*
X115928036Y-78099500D01*
X115789949Y-78140045D01*
X115668873Y-78217856D01*
X115574623Y-78326626D01*
X115574622Y-78326628D01*
X115514834Y-78457543D01*
X115494353Y-78600000D01*
X111091269Y-78600000D01*
X111105647Y-78500000D01*
X111085165Y-78357543D01*
X111025377Y-78226627D01*
X110931128Y-78117857D01*
X110810053Y-78040047D01*
X110810051Y-78040046D01*
X110810049Y-78040045D01*
X110810050Y-78040045D01*
X110671963Y-77999500D01*
X110671961Y-77999500D01*
X110528039Y-77999500D01*
X110528036Y-77999500D01*
X110389949Y-78040045D01*
X110268873Y-78117856D01*
X110174623Y-78226626D01*
X110174622Y-78226628D01*
X110114834Y-78357543D01*
X110094353Y-78500000D01*
X100750500Y-78500000D01*
X100750500Y-76818723D01*
X101202295Y-76818723D01*
X101222776Y-76961179D01*
X101266785Y-77057543D01*
X101282565Y-77092096D01*
X101376814Y-77200866D01*
X101497889Y-77278676D01*
X101497892Y-77278677D01*
X101497891Y-77278677D01*
X101635978Y-77319222D01*
X101635980Y-77319223D01*
X101635981Y-77319223D01*
X101779904Y-77319223D01*
X101779904Y-77319222D01*
X101917995Y-77278676D01*
X102039070Y-77200866D01*
X102039820Y-77200000D01*
X102894353Y-77200000D01*
X102914834Y-77342456D01*
X102974622Y-77473371D01*
X102974623Y-77473373D01*
X103068872Y-77582143D01*
X103189947Y-77659953D01*
X103189950Y-77659954D01*
X103189949Y-77659954D01*
X103328036Y-77700499D01*
X103328038Y-77700500D01*
X103328039Y-77700500D01*
X103471962Y-77700500D01*
X103471962Y-77700499D01*
X103610053Y-77659953D01*
X103731128Y-77582143D01*
X103825377Y-77473373D01*
X103885165Y-77342457D01*
X103905647Y-77200000D01*
X103885165Y-77057543D01*
X103825377Y-76926627D01*
X103731128Y-76817857D01*
X103610053Y-76740047D01*
X103610051Y-76740046D01*
X103610049Y-76740045D01*
X103610050Y-76740045D01*
X103471963Y-76699500D01*
X103471961Y-76699500D01*
X103328039Y-76699500D01*
X103328036Y-76699500D01*
X103189949Y-76740045D01*
X103068873Y-76817856D01*
X102974623Y-76926626D01*
X102974622Y-76926628D01*
X102914834Y-77057543D01*
X102894353Y-77200000D01*
X102039820Y-77200000D01*
X102133319Y-77092096D01*
X102193107Y-76961180D01*
X102213589Y-76818723D01*
X102193107Y-76676266D01*
X102133319Y-76545350D01*
X102039070Y-76436580D01*
X101917995Y-76358770D01*
X101917993Y-76358769D01*
X101917991Y-76358768D01*
X101917992Y-76358768D01*
X101779905Y-76318223D01*
X101779903Y-76318223D01*
X101635981Y-76318223D01*
X101635978Y-76318223D01*
X101497891Y-76358768D01*
X101376815Y-76436579D01*
X101282565Y-76545349D01*
X101282564Y-76545351D01*
X101222776Y-76676266D01*
X101202295Y-76818723D01*
X100750500Y-76818723D01*
X100750500Y-75600000D01*
X103094353Y-75600000D01*
X103114834Y-75742456D01*
X103174622Y-75873371D01*
X103174623Y-75873373D01*
X103268872Y-75982143D01*
X103389947Y-76059953D01*
X103389950Y-76059954D01*
X103389949Y-76059954D01*
X103528036Y-76100499D01*
X103528038Y-76100500D01*
X103528039Y-76100500D01*
X103671962Y-76100500D01*
X103671962Y-76100499D01*
X103810053Y-76059953D01*
X103931128Y-75982143D01*
X103997828Y-75905166D01*
X106599519Y-75905166D01*
X106620000Y-76047622D01*
X106625632Y-76059954D01*
X106679789Y-76178539D01*
X106774038Y-76287309D01*
X106895113Y-76365119D01*
X106895116Y-76365120D01*
X106895115Y-76365120D01*
X107033202Y-76405665D01*
X107033204Y-76405666D01*
X107033205Y-76405666D01*
X107177128Y-76405666D01*
X107177128Y-76405665D01*
X107315219Y-76365119D01*
X107436294Y-76287309D01*
X107530543Y-76178539D01*
X107590331Y-76047623D01*
X107610813Y-75905166D01*
X107590331Y-75762709D01*
X107530543Y-75631793D01*
X107436294Y-75523023D01*
X107315219Y-75445213D01*
X107315217Y-75445212D01*
X107315215Y-75445211D01*
X107315216Y-75445211D01*
X107177129Y-75404666D01*
X107177127Y-75404666D01*
X107033205Y-75404666D01*
X107033202Y-75404666D01*
X106895115Y-75445211D01*
X106774039Y-75523022D01*
X106679789Y-75631792D01*
X106679788Y-75631794D01*
X106620000Y-75762709D01*
X106599519Y-75905166D01*
X103997828Y-75905166D01*
X104025377Y-75873373D01*
X104085165Y-75742457D01*
X104105647Y-75600000D01*
X104085165Y-75457543D01*
X104025377Y-75326627D01*
X103931128Y-75217857D01*
X103903342Y-75200000D01*
X115494353Y-75200000D01*
X115514834Y-75342456D01*
X115574622Y-75473371D01*
X115574623Y-75473373D01*
X115668872Y-75582143D01*
X115789947Y-75659953D01*
X115789950Y-75659954D01*
X115789949Y-75659954D01*
X115928036Y-75700499D01*
X115928038Y-75700500D01*
X115928039Y-75700500D01*
X116071962Y-75700500D01*
X116071962Y-75700499D01*
X116210053Y-75659953D01*
X116331128Y-75582143D01*
X116425377Y-75473373D01*
X116485165Y-75342457D01*
X116505647Y-75200000D01*
X116485165Y-75057543D01*
X116425377Y-74926627D01*
X116331128Y-74817857D01*
X116210053Y-74740047D01*
X116210051Y-74740046D01*
X116210049Y-74740045D01*
X116210050Y-74740045D01*
X116071963Y-74699500D01*
X116071961Y-74699500D01*
X115928039Y-74699500D01*
X115928036Y-74699500D01*
X115789949Y-74740045D01*
X115668873Y-74817856D01*
X115574623Y-74926626D01*
X115574622Y-74926628D01*
X115514834Y-75057543D01*
X115494353Y-75200000D01*
X103903342Y-75200000D01*
X103810053Y-75140047D01*
X103810051Y-75140046D01*
X103810049Y-75140045D01*
X103810050Y-75140045D01*
X103671963Y-75099500D01*
X103671961Y-75099500D01*
X103528039Y-75099500D01*
X103528036Y-75099500D01*
X103389949Y-75140045D01*
X103268873Y-75217856D01*
X103174623Y-75326626D01*
X103174622Y-75326628D01*
X103114834Y-75457543D01*
X103094353Y-75600000D01*
X100750500Y-75600000D01*
X100750500Y-72961802D01*
X108694353Y-72961802D01*
X108714834Y-73104258D01*
X108774622Y-73235173D01*
X108774623Y-73235175D01*
X108868872Y-73343945D01*
X108989947Y-73421755D01*
X108989950Y-73421756D01*
X108989949Y-73421756D01*
X109128036Y-73462301D01*
X109128038Y-73462302D01*
X109128039Y-73462302D01*
X109271962Y-73462302D01*
X109271962Y-73462301D01*
X109410053Y-73421755D01*
X109531128Y-73343945D01*
X109625377Y-73235175D01*
X109685165Y-73104259D01*
X109705647Y-72961802D01*
X109685165Y-72819345D01*
X109625377Y-72688429D01*
X109531128Y-72579659D01*
X109410053Y-72501849D01*
X109410051Y-72501848D01*
X109410049Y-72501847D01*
X109410050Y-72501847D01*
X109271963Y-72461302D01*
X109271961Y-72461302D01*
X109128039Y-72461302D01*
X109128036Y-72461302D01*
X108989949Y-72501847D01*
X108868873Y-72579658D01*
X108774623Y-72688428D01*
X108774622Y-72688430D01*
X108714834Y-72819345D01*
X108694353Y-72961802D01*
X100750500Y-72961802D01*
X100750500Y-71000000D01*
X107794353Y-71000000D01*
X107814834Y-71142456D01*
X107859402Y-71240045D01*
X107874623Y-71273373D01*
X107968872Y-71382143D01*
X108089947Y-71459953D01*
X108089950Y-71459954D01*
X108089949Y-71459954D01*
X108228036Y-71500499D01*
X108228038Y-71500500D01*
X108228039Y-71500500D01*
X108371961Y-71500500D01*
X108448971Y-71477888D01*
X108518841Y-71477888D01*
X108577619Y-71515662D01*
X108606644Y-71579218D01*
X108606644Y-71614512D01*
X108594353Y-71699999D01*
X108614834Y-71842456D01*
X108674622Y-71973371D01*
X108674623Y-71973373D01*
X108768872Y-72082143D01*
X108889947Y-72159953D01*
X108889950Y-72159954D01*
X108889949Y-72159954D01*
X109028036Y-72200499D01*
X109028038Y-72200500D01*
X109028039Y-72200500D01*
X109171962Y-72200500D01*
X109171962Y-72200499D01*
X109310053Y-72159953D01*
X109431128Y-72082143D01*
X109525377Y-71973373D01*
X109585165Y-71842457D01*
X109605647Y-71700000D01*
X109585165Y-71557543D01*
X109525377Y-71426627D01*
X109431128Y-71317857D01*
X109310053Y-71240047D01*
X109310051Y-71240046D01*
X109310049Y-71240045D01*
X109310050Y-71240045D01*
X109171963Y-71199500D01*
X109171961Y-71199500D01*
X109028039Y-71199500D01*
X108951026Y-71222112D01*
X108881157Y-71222111D01*
X108822379Y-71184335D01*
X108793355Y-71120779D01*
X108793355Y-71085493D01*
X108805647Y-71000000D01*
X108791269Y-70900000D01*
X116594353Y-70900000D01*
X116614834Y-71042456D01*
X116660504Y-71142457D01*
X116674623Y-71173373D01*
X116768872Y-71282143D01*
X116889947Y-71359953D01*
X116889950Y-71359954D01*
X116889949Y-71359954D01*
X117028036Y-71400499D01*
X117028038Y-71400500D01*
X117028039Y-71400500D01*
X117171962Y-71400500D01*
X117171962Y-71400499D01*
X117310053Y-71359953D01*
X117431128Y-71282143D01*
X117525377Y-71173373D01*
X117585165Y-71042457D01*
X117605647Y-70900000D01*
X117585165Y-70757543D01*
X117525377Y-70626627D01*
X117431128Y-70517857D01*
X117310053Y-70440047D01*
X117310051Y-70440046D01*
X117310049Y-70440045D01*
X117310050Y-70440045D01*
X117171963Y-70399500D01*
X117171961Y-70399500D01*
X117028039Y-70399500D01*
X117028036Y-70399500D01*
X116889949Y-70440045D01*
X116768873Y-70517856D01*
X116674623Y-70626626D01*
X116674622Y-70626628D01*
X116614834Y-70757543D01*
X116594353Y-70900000D01*
X108791269Y-70900000D01*
X108785165Y-70857543D01*
X108725377Y-70726627D01*
X108631128Y-70617857D01*
X108510053Y-70540047D01*
X108510051Y-70540046D01*
X108510049Y-70540045D01*
X108510050Y-70540045D01*
X108371963Y-70499500D01*
X108371961Y-70499500D01*
X108228039Y-70499500D01*
X108228036Y-70499500D01*
X108089949Y-70540045D01*
X107968873Y-70617856D01*
X107874623Y-70726626D01*
X107874622Y-70726628D01*
X107814834Y-70857543D01*
X107794353Y-71000000D01*
X100750500Y-71000000D01*
X100750500Y-68300000D01*
X112994353Y-68300000D01*
X113014834Y-68442456D01*
X113074622Y-68573371D01*
X113074623Y-68573373D01*
X113168872Y-68682143D01*
X113289947Y-68759953D01*
X113289950Y-68759954D01*
X113289949Y-68759954D01*
X113428036Y-68800499D01*
X113428038Y-68800500D01*
X113428039Y-68800500D01*
X113571962Y-68800500D01*
X113571962Y-68800499D01*
X113710053Y-68759953D01*
X113831128Y-68682143D01*
X113925377Y-68573373D01*
X113985165Y-68442457D01*
X114005647Y-68300000D01*
X113985165Y-68157543D01*
X113925377Y-68026627D01*
X113831128Y-67917857D01*
X113710053Y-67840047D01*
X113710051Y-67840046D01*
X113710049Y-67840045D01*
X113710050Y-67840045D01*
X113571963Y-67799500D01*
X113571961Y-67799500D01*
X113428039Y-67799500D01*
X113428036Y-67799500D01*
X113289949Y-67840045D01*
X113168873Y-67917856D01*
X113074623Y-68026626D01*
X113074622Y-68026628D01*
X113014834Y-68157543D01*
X112994353Y-68300000D01*
X100750500Y-68300000D01*
X100750500Y-65500000D01*
X115894353Y-65500000D01*
X115914834Y-65642456D01*
X115974622Y-65773371D01*
X115974623Y-65773373D01*
X116068872Y-65882143D01*
X116189947Y-65959953D01*
X116189950Y-65959954D01*
X116189949Y-65959954D01*
X116328036Y-66000499D01*
X116328038Y-66000500D01*
X116328039Y-66000500D01*
X116471962Y-66000500D01*
X116471962Y-66000499D01*
X116610053Y-65959953D01*
X116731128Y-65882143D01*
X116825377Y-65773373D01*
X116885165Y-65642457D01*
X116905647Y-65500000D01*
X116885165Y-65357543D01*
X116825377Y-65226627D01*
X116731128Y-65117857D01*
X116610053Y-65040047D01*
X116610051Y-65040046D01*
X116610049Y-65040045D01*
X116610050Y-65040045D01*
X116471963Y-64999500D01*
X116471961Y-64999500D01*
X116328039Y-64999500D01*
X116328036Y-64999500D01*
X116189949Y-65040045D01*
X116068873Y-65117856D01*
X115974623Y-65226626D01*
X115974622Y-65226628D01*
X115914834Y-65357543D01*
X115894353Y-65500000D01*
X100750500Y-65500000D01*
X100750500Y-64800000D01*
X102294353Y-64800000D01*
X102314834Y-64942456D01*
X102340886Y-64999500D01*
X102374623Y-65073373D01*
X102468872Y-65182143D01*
X102589947Y-65259953D01*
X102589950Y-65259954D01*
X102589949Y-65259954D01*
X102728036Y-65300499D01*
X102728038Y-65300500D01*
X102728039Y-65300500D01*
X102871962Y-65300500D01*
X102871962Y-65300499D01*
X103010053Y-65259953D01*
X103131128Y-65182143D01*
X103225377Y-65073373D01*
X103285165Y-64942457D01*
X103305647Y-64800000D01*
X103285165Y-64657543D01*
X103225377Y-64526627D01*
X103131128Y-64417857D01*
X103010053Y-64340047D01*
X103010051Y-64340046D01*
X103010049Y-64340045D01*
X103010050Y-64340045D01*
X102871963Y-64299500D01*
X102871961Y-64299500D01*
X102728039Y-64299500D01*
X102728036Y-64299500D01*
X102589949Y-64340045D01*
X102468873Y-64417856D01*
X102374623Y-64526626D01*
X102374622Y-64526628D01*
X102314834Y-64657543D01*
X102294353Y-64800000D01*
X100750500Y-64800000D01*
X100750500Y-63700000D01*
X106794353Y-63700000D01*
X106814834Y-63842456D01*
X106828953Y-63873371D01*
X106874623Y-63973373D01*
X106968872Y-64082143D01*
X107089947Y-64159953D01*
X107089950Y-64159954D01*
X107089949Y-64159954D01*
X107228036Y-64200499D01*
X107228038Y-64200500D01*
X107228039Y-64200500D01*
X107371961Y-64200500D01*
X107435420Y-64181867D01*
X107505287Y-64181867D01*
X107564065Y-64219641D01*
X107593091Y-64283196D01*
X107594232Y-64299163D01*
X107614834Y-64442456D01*
X107653275Y-64526628D01*
X107674623Y-64573373D01*
X107768872Y-64682143D01*
X107889947Y-64759953D01*
X107889950Y-64759954D01*
X107889949Y-64759954D01*
X107997107Y-64791417D01*
X108026336Y-64800000D01*
X108028036Y-64800499D01*
X108028038Y-64800500D01*
X108028039Y-64800500D01*
X108171962Y-64800500D01*
X108171962Y-64800499D01*
X108310053Y-64759953D01*
X108431128Y-64682143D01*
X108525377Y-64573373D01*
X108585165Y-64442457D01*
X108605647Y-64300000D01*
X108585165Y-64157543D01*
X108525377Y-64026627D01*
X108431128Y-63917857D01*
X108310053Y-63840047D01*
X108310051Y-63840046D01*
X108310049Y-63840045D01*
X108310050Y-63840045D01*
X108171963Y-63799500D01*
X108171961Y-63799500D01*
X108028039Y-63799500D01*
X108028036Y-63799500D01*
X107964581Y-63818132D01*
X107894712Y-63818132D01*
X107835934Y-63780357D01*
X107806909Y-63716801D01*
X107805767Y-63700837D01*
X107791269Y-63600000D01*
X121594353Y-63600000D01*
X121614834Y-63742456D01*
X121660504Y-63842457D01*
X121674623Y-63873373D01*
X121768872Y-63982143D01*
X121889947Y-64059953D01*
X121889950Y-64059954D01*
X121889949Y-64059954D01*
X122028036Y-64100499D01*
X122028038Y-64100500D01*
X122028039Y-64100500D01*
X122171962Y-64100500D01*
X122171962Y-64100499D01*
X122310053Y-64059953D01*
X122431128Y-63982143D01*
X122525377Y-63873373D01*
X122585165Y-63742457D01*
X122605647Y-63600000D01*
X122585165Y-63457543D01*
X122525377Y-63326627D01*
X122431128Y-63217857D01*
X122310053Y-63140047D01*
X122310051Y-63140046D01*
X122310049Y-63140045D01*
X122310050Y-63140045D01*
X122171963Y-63099500D01*
X122171961Y-63099500D01*
X122028039Y-63099500D01*
X122028036Y-63099500D01*
X121889949Y-63140045D01*
X121768873Y-63217856D01*
X121674623Y-63326626D01*
X121674622Y-63326628D01*
X121614834Y-63457543D01*
X121594353Y-63600000D01*
X107791269Y-63600000D01*
X107785165Y-63557543D01*
X107725377Y-63426628D01*
X107725376Y-63426626D01*
X107631128Y-63317857D01*
X107510053Y-63240047D01*
X107510051Y-63240046D01*
X107510049Y-63240045D01*
X107510050Y-63240045D01*
X107371963Y-63199500D01*
X107371961Y-63199500D01*
X107228039Y-63199500D01*
X107228036Y-63199500D01*
X107089949Y-63240045D01*
X106968873Y-63317856D01*
X106874623Y-63426626D01*
X106874622Y-63426628D01*
X106814834Y-63557543D01*
X106794353Y-63700000D01*
X100750500Y-63700000D01*
X100750500Y-59500000D01*
X101294353Y-59500000D01*
X101314834Y-59642456D01*
X101368494Y-59759953D01*
X101374623Y-59773373D01*
X101468872Y-59882143D01*
X101589947Y-59959953D01*
X101589950Y-59959954D01*
X101589949Y-59959954D01*
X101697107Y-59991417D01*
X101726336Y-60000000D01*
X101728036Y-60000499D01*
X101728038Y-60000500D01*
X101728039Y-60000500D01*
X101871962Y-60000500D01*
X101871962Y-60000499D01*
X102010053Y-59959953D01*
X102103342Y-59900000D01*
X102494353Y-59900000D01*
X102514834Y-60042456D01*
X102560504Y-60142457D01*
X102574623Y-60173373D01*
X102668872Y-60282143D01*
X102789947Y-60359953D01*
X102789950Y-60359954D01*
X102789949Y-60359954D01*
X102928036Y-60400499D01*
X102928038Y-60400500D01*
X102928039Y-60400500D01*
X103071962Y-60400500D01*
X103071962Y-60400499D01*
X103210053Y-60359953D01*
X103331128Y-60282143D01*
X103425377Y-60173373D01*
X103485165Y-60042457D01*
X103491269Y-60000000D01*
X108894353Y-60000000D01*
X108914834Y-60142456D01*
X108928953Y-60173371D01*
X108974623Y-60273373D01*
X109068872Y-60382143D01*
X109189947Y-60459953D01*
X109189950Y-60459954D01*
X109189949Y-60459954D01*
X109328036Y-60500499D01*
X109328038Y-60500500D01*
X109328039Y-60500500D01*
X109471962Y-60500500D01*
X109471962Y-60500499D01*
X109610053Y-60459953D01*
X109731128Y-60382143D01*
X109825377Y-60273373D01*
X109885165Y-60142457D01*
X109905647Y-60000000D01*
X109885165Y-59857543D01*
X109825377Y-59726627D01*
X109731128Y-59617857D01*
X109610053Y-59540047D01*
X109610051Y-59540046D01*
X109610049Y-59540045D01*
X109610050Y-59540045D01*
X109471963Y-59499500D01*
X109471961Y-59499500D01*
X109328039Y-59499500D01*
X109328036Y-59499500D01*
X109189949Y-59540045D01*
X109068873Y-59617856D01*
X108974623Y-59726626D01*
X108974622Y-59726628D01*
X108914834Y-59857543D01*
X108894353Y-60000000D01*
X103491269Y-60000000D01*
X103505647Y-59900000D01*
X103505646Y-59899999D01*
X103506909Y-59891222D01*
X103508409Y-59891437D01*
X103525332Y-59833805D01*
X103578136Y-59788050D01*
X103647294Y-59778106D01*
X103664571Y-59781864D01*
X103728039Y-59800500D01*
X103871962Y-59800500D01*
X103871962Y-59800499D01*
X104010053Y-59759953D01*
X104131128Y-59682143D01*
X104225377Y-59573373D01*
X104285165Y-59442457D01*
X104305647Y-59300000D01*
X104285165Y-59157543D01*
X104225377Y-59026627D01*
X104131128Y-58917857D01*
X104010053Y-58840047D01*
X104010051Y-58840046D01*
X104010049Y-58840045D01*
X104010050Y-58840045D01*
X103871963Y-58799500D01*
X103871961Y-58799500D01*
X103728039Y-58799500D01*
X103728036Y-58799500D01*
X103589949Y-58840045D01*
X103468873Y-58917856D01*
X103374623Y-59026626D01*
X103374622Y-59026628D01*
X103314834Y-59157543D01*
X103293091Y-59308778D01*
X103291590Y-59308562D01*
X103274668Y-59366194D01*
X103221864Y-59411949D01*
X103152706Y-59421893D01*
X103135419Y-59418132D01*
X103071963Y-59399500D01*
X103071961Y-59399500D01*
X102928039Y-59399500D01*
X102928036Y-59399500D01*
X102789949Y-59440045D01*
X102668873Y-59517856D01*
X102574623Y-59626626D01*
X102574622Y-59626628D01*
X102514834Y-59757543D01*
X102494353Y-59900000D01*
X102103342Y-59900000D01*
X102131128Y-59882143D01*
X102225377Y-59773373D01*
X102285165Y-59642457D01*
X102305647Y-59500000D01*
X102285165Y-59357543D01*
X102225377Y-59226627D01*
X102131128Y-59117857D01*
X102010053Y-59040047D01*
X102010051Y-59040046D01*
X102010049Y-59040045D01*
X102010050Y-59040045D01*
X101871963Y-58999500D01*
X101871961Y-58999500D01*
X101728039Y-58999500D01*
X101728036Y-58999500D01*
X101589949Y-59040045D01*
X101468873Y-59117856D01*
X101374623Y-59226626D01*
X101374622Y-59226628D01*
X101314834Y-59357543D01*
X101294353Y-59500000D01*
X100750500Y-59500000D01*
X100750500Y-58400000D01*
X106694353Y-58400000D01*
X106714834Y-58542456D01*
X106774622Y-58673371D01*
X106774623Y-58673373D01*
X106868872Y-58782143D01*
X106989947Y-58859953D01*
X106989950Y-58859954D01*
X106989949Y-58859954D01*
X107128036Y-58900499D01*
X107128038Y-58900500D01*
X107128039Y-58900500D01*
X107271962Y-58900500D01*
X107271962Y-58900499D01*
X107410053Y-58859953D01*
X107531128Y-58782143D01*
X107625377Y-58673373D01*
X107685165Y-58542457D01*
X107691385Y-58499190D01*
X107720409Y-58435636D01*
X107779186Y-58397860D01*
X107825235Y-58394567D01*
X107825235Y-58394435D01*
X107827089Y-58394435D01*
X107831774Y-58394100D01*
X107834103Y-58394435D01*
X107834104Y-58394435D01*
X107978027Y-58394435D01*
X107978027Y-58394434D01*
X108085186Y-58362970D01*
X108116115Y-58353889D01*
X108116115Y-58353888D01*
X108116118Y-58353888D01*
X108237193Y-58276078D01*
X108331442Y-58167308D01*
X108391230Y-58036392D01*
X108411712Y-57893935D01*
X108391230Y-57751478D01*
X108331442Y-57620562D01*
X108237193Y-57511792D01*
X108116118Y-57433982D01*
X108116116Y-57433981D01*
X108116114Y-57433980D01*
X108116115Y-57433980D01*
X107978028Y-57393435D01*
X107978026Y-57393435D01*
X107834104Y-57393435D01*
X107834101Y-57393435D01*
X107696014Y-57433980D01*
X107574938Y-57511791D01*
X107480688Y-57620561D01*
X107480687Y-57620563D01*
X107420899Y-57751478D01*
X107414679Y-57794745D01*
X107385654Y-57858300D01*
X107326875Y-57896074D01*
X107280829Y-57899368D01*
X107280829Y-57899500D01*
X107278997Y-57899500D01*
X107274301Y-57899836D01*
X107271963Y-57899500D01*
X107271961Y-57899500D01*
X107128039Y-57899500D01*
X107128036Y-57899500D01*
X106989949Y-57940045D01*
X106868873Y-58017856D01*
X106774623Y-58126626D01*
X106774622Y-58126628D01*
X106714834Y-58257543D01*
X106694353Y-58400000D01*
X100750500Y-58400000D01*
X100750500Y-55673459D01*
X104454200Y-55673459D01*
X104482858Y-55817534D01*
X104482861Y-55817544D01*
X104539078Y-55953266D01*
X104539083Y-55953275D01*
X104620698Y-56075419D01*
X104620701Y-56075423D01*
X104724576Y-56179298D01*
X104724580Y-56179301D01*
X104846724Y-56260916D01*
X104846733Y-56260921D01*
X104862264Y-56267354D01*
X104982458Y-56317140D01*
X105126540Y-56345799D01*
X105126544Y-56345800D01*
X105126545Y-56345800D01*
X105273456Y-56345800D01*
X105273457Y-56345799D01*
X105417542Y-56317140D01*
X105553269Y-56260920D01*
X105675420Y-56179301D01*
X105779301Y-56075420D01*
X105860920Y-55953269D01*
X105917140Y-55817542D01*
X105945800Y-55673455D01*
X105945800Y-55526545D01*
X105929333Y-55443760D01*
X106186719Y-55443760D01*
X106222127Y-55667314D01*
X106222127Y-55667317D01*
X106292067Y-55882570D01*
X106292069Y-55882573D01*
X106394824Y-56084242D01*
X106527862Y-56267353D01*
X106687908Y-56427399D01*
X106871019Y-56560437D01*
X107072688Y-56663192D01*
X107072690Y-56663193D01*
X107273470Y-56728429D01*
X107287948Y-56733134D01*
X107511500Y-56768542D01*
X107511501Y-56768542D01*
X107737837Y-56768542D01*
X107737838Y-56768542D01*
X107961390Y-56733134D01*
X107961393Y-56733133D01*
X107961394Y-56733133D01*
X108176647Y-56663193D01*
X108176647Y-56663192D01*
X108176650Y-56663192D01*
X108378319Y-56560437D01*
X108561430Y-56427399D01*
X108721476Y-56267353D01*
X108854514Y-56084242D01*
X108957269Y-55882573D01*
X109025215Y-55673456D01*
X109027210Y-55667317D01*
X109027210Y-55667316D01*
X109027211Y-55667313D01*
X109062619Y-55443761D01*
X109062619Y-55217423D01*
X109027211Y-54993871D01*
X109027210Y-54993867D01*
X109027210Y-54993866D01*
X108957270Y-54778613D01*
X108957268Y-54778610D01*
X108938848Y-54742457D01*
X108854514Y-54576942D01*
X108721476Y-54393831D01*
X108561430Y-54233785D01*
X108378319Y-54100747D01*
X108176650Y-53997992D01*
X108176647Y-53997990D01*
X107961392Y-53928050D01*
X107812355Y-53904444D01*
X107737838Y-53892642D01*
X107511500Y-53892642D01*
X107436982Y-53904444D01*
X107287946Y-53928050D01*
X107287943Y-53928050D01*
X107072690Y-53997990D01*
X107072687Y-53997992D01*
X106871018Y-54100747D01*
X106766547Y-54176650D01*
X106687908Y-54233785D01*
X106687906Y-54233787D01*
X106687905Y-54233787D01*
X106527864Y-54393828D01*
X106527864Y-54393829D01*
X106527862Y-54393831D01*
X106470727Y-54472470D01*
X106394824Y-54576941D01*
X106292069Y-54778610D01*
X106292067Y-54778613D01*
X106222127Y-54993866D01*
X106222127Y-54993869D01*
X106186719Y-55217423D01*
X106186719Y-55443760D01*
X105929333Y-55443760D01*
X105917140Y-55382458D01*
X105860920Y-55246731D01*
X105860919Y-55246730D01*
X105860916Y-55246724D01*
X105779301Y-55124580D01*
X105779298Y-55124576D01*
X105675423Y-55020701D01*
X105675419Y-55020698D01*
X105553275Y-54939083D01*
X105553266Y-54939078D01*
X105417544Y-54882861D01*
X105417545Y-54882861D01*
X105417542Y-54882860D01*
X105417538Y-54882859D01*
X105417534Y-54882858D01*
X105273459Y-54854200D01*
X105273455Y-54854200D01*
X105126545Y-54854200D01*
X105126540Y-54854200D01*
X104982465Y-54882858D01*
X104982455Y-54882861D01*
X104846733Y-54939078D01*
X104846724Y-54939083D01*
X104724580Y-55020698D01*
X104724576Y-55020701D01*
X104620701Y-55124576D01*
X104620698Y-55124580D01*
X104539083Y-55246724D01*
X104539078Y-55246733D01*
X104482861Y-55382455D01*
X104482858Y-55382465D01*
X104454200Y-55526540D01*
X104454200Y-55673459D01*
X100750500Y-55673459D01*
X100750500Y-54236618D01*
X103017359Y-54236618D01*
X103046017Y-54380693D01*
X103046020Y-54380703D01*
X103102237Y-54516425D01*
X103102242Y-54516434D01*
X103183857Y-54638578D01*
X103183860Y-54638582D01*
X103287735Y-54742457D01*
X103287739Y-54742460D01*
X103409883Y-54824075D01*
X103409889Y-54824078D01*
X103409890Y-54824079D01*
X103545617Y-54880299D01*
X103689699Y-54908958D01*
X103689703Y-54908959D01*
X103689704Y-54908959D01*
X103836615Y-54908959D01*
X103836616Y-54908958D01*
X103980701Y-54880299D01*
X104116428Y-54824079D01*
X104238579Y-54742460D01*
X104342460Y-54638579D01*
X104424079Y-54516428D01*
X104480299Y-54380701D01*
X104508959Y-54236614D01*
X104508959Y-54089704D01*
X104480299Y-53945617D01*
X104424079Y-53809890D01*
X104424078Y-53809889D01*
X104424075Y-53809883D01*
X104342460Y-53687739D01*
X104342457Y-53687735D01*
X104238582Y-53583860D01*
X104238578Y-53583857D01*
X104116434Y-53502242D01*
X104116425Y-53502237D01*
X103980703Y-53446020D01*
X103980704Y-53446020D01*
X103980701Y-53446019D01*
X103980697Y-53446018D01*
X103980693Y-53446017D01*
X103836618Y-53417359D01*
X103836614Y-53417359D01*
X103689704Y-53417359D01*
X103689699Y-53417359D01*
X103545624Y-53446017D01*
X103545614Y-53446020D01*
X103409892Y-53502237D01*
X103409883Y-53502242D01*
X103287739Y-53583857D01*
X103287735Y-53583860D01*
X103183860Y-53687735D01*
X103183857Y-53687739D01*
X103102242Y-53809883D01*
X103102237Y-53809892D01*
X103046020Y-53945614D01*
X103046017Y-53945624D01*
X103017359Y-54089699D01*
X103017359Y-54236618D01*
X100750500Y-54236618D01*
X100750500Y-53198696D01*
X108431783Y-53198696D01*
X108467191Y-53422250D01*
X108467191Y-53422253D01*
X108537131Y-53637506D01*
X108537133Y-53637509D01*
X108639888Y-53839178D01*
X108772926Y-54022289D01*
X108932972Y-54182335D01*
X109116083Y-54315373D01*
X109317752Y-54418128D01*
X109317754Y-54418129D01*
X109518534Y-54483365D01*
X109533012Y-54488070D01*
X109756564Y-54523478D01*
X109756565Y-54523478D01*
X109982901Y-54523478D01*
X109982902Y-54523478D01*
X110206454Y-54488070D01*
X110206457Y-54488069D01*
X110206458Y-54488069D01*
X110421711Y-54418129D01*
X110421711Y-54418128D01*
X110421714Y-54418128D01*
X110623383Y-54315373D01*
X110806494Y-54182335D01*
X110966540Y-54022289D01*
X111099578Y-53839178D01*
X111119540Y-53800000D01*
X115694353Y-53800000D01*
X115714834Y-53942456D01*
X115716278Y-53945617D01*
X115774623Y-54073373D01*
X115868872Y-54182143D01*
X115989947Y-54259953D01*
X115989950Y-54259954D01*
X115989949Y-54259954D01*
X116128036Y-54300499D01*
X116128038Y-54300500D01*
X116128039Y-54300500D01*
X116271962Y-54300500D01*
X116271962Y-54300499D01*
X116410053Y-54259953D01*
X116531128Y-54182143D01*
X116625377Y-54073373D01*
X116685165Y-53942457D01*
X116705647Y-53800000D01*
X116685165Y-53657543D01*
X116625377Y-53526627D01*
X116531128Y-53417857D01*
X116410053Y-53340047D01*
X116410051Y-53340046D01*
X116410049Y-53340045D01*
X116410050Y-53340045D01*
X116271963Y-53299500D01*
X116271961Y-53299500D01*
X116128039Y-53299500D01*
X116128036Y-53299500D01*
X115989949Y-53340045D01*
X115868873Y-53417856D01*
X115868872Y-53417856D01*
X115868872Y-53417857D01*
X115865063Y-53422253D01*
X115774623Y-53526626D01*
X115774622Y-53526628D01*
X115714834Y-53657543D01*
X115694353Y-53800000D01*
X111119540Y-53800000D01*
X111202333Y-53637509D01*
X111246285Y-53502239D01*
X111272274Y-53422253D01*
X111272274Y-53422252D01*
X111272275Y-53422249D01*
X111307683Y-53198697D01*
X111307683Y-52972359D01*
X111272275Y-52748807D01*
X111272274Y-52748803D01*
X111272274Y-52748802D01*
X111202334Y-52533549D01*
X111202332Y-52533546D01*
X111099577Y-52331877D01*
X110966540Y-52148767D01*
X110806494Y-51988721D01*
X110623383Y-51855683D01*
X110421714Y-51752928D01*
X110421711Y-51752926D01*
X110206456Y-51682986D01*
X110057419Y-51659380D01*
X109982902Y-51647578D01*
X109756564Y-51647578D01*
X109682046Y-51659380D01*
X109533010Y-51682986D01*
X109533007Y-51682986D01*
X109317754Y-51752926D01*
X109317751Y-51752928D01*
X109116082Y-51855683D01*
X109011611Y-51931586D01*
X108932972Y-51988721D01*
X108932970Y-51988723D01*
X108932969Y-51988723D01*
X108772928Y-52148764D01*
X108772928Y-52148765D01*
X108772926Y-52148767D01*
X108715791Y-52227406D01*
X108639888Y-52331877D01*
X108537133Y-52533546D01*
X108537131Y-52533549D01*
X108467191Y-52748802D01*
X108467191Y-52748805D01*
X108431783Y-52972359D01*
X108431783Y-53198696D01*
X100750500Y-53198696D01*
X100750500Y-51851659D01*
X102594617Y-51851659D01*
X102598056Y-51873371D01*
X102630025Y-52075212D01*
X102630025Y-52075215D01*
X102699965Y-52290468D01*
X102699967Y-52290471D01*
X102802722Y-52492140D01*
X102935760Y-52675251D01*
X103095806Y-52835297D01*
X103278917Y-52968335D01*
X103480586Y-53071090D01*
X103480588Y-53071091D01*
X103681368Y-53136327D01*
X103695846Y-53141032D01*
X103919398Y-53176440D01*
X103919399Y-53176440D01*
X104145735Y-53176440D01*
X104145736Y-53176440D01*
X104369288Y-53141032D01*
X104369291Y-53141031D01*
X104369292Y-53141031D01*
X104584545Y-53071091D01*
X104584545Y-53071090D01*
X104584548Y-53071090D01*
X104786217Y-52968335D01*
X104969328Y-52835297D01*
X105129374Y-52675251D01*
X105262412Y-52492140D01*
X105365167Y-52290471D01*
X105426892Y-52100500D01*
X105435108Y-52075215D01*
X105435108Y-52075214D01*
X105435109Y-52075211D01*
X105470517Y-51851659D01*
X105470517Y-51625321D01*
X105435109Y-51401769D01*
X105435108Y-51401765D01*
X105435108Y-51401764D01*
X105365168Y-51186511D01*
X105365166Y-51186508D01*
X105347598Y-51152027D01*
X105262412Y-50984840D01*
X105129374Y-50801729D01*
X104969328Y-50641683D01*
X104786217Y-50508645D01*
X104584548Y-50405890D01*
X104584545Y-50405888D01*
X104369290Y-50335948D01*
X104220253Y-50312342D01*
X104145736Y-50300540D01*
X103919398Y-50300540D01*
X103844880Y-50312342D01*
X103695844Y-50335948D01*
X103695841Y-50335948D01*
X103480588Y-50405888D01*
X103480585Y-50405890D01*
X103278916Y-50508645D01*
X103191251Y-50572338D01*
X103095806Y-50641683D01*
X103095804Y-50641685D01*
X103095803Y-50641685D01*
X102935762Y-50801726D01*
X102935762Y-50801727D01*
X102935760Y-50801729D01*
X102908638Y-50839059D01*
X102802722Y-50984839D01*
X102699967Y-51186508D01*
X102699965Y-51186511D01*
X102630025Y-51401764D01*
X102630025Y-51401767D01*
X102601456Y-51582143D01*
X102594617Y-51625321D01*
X102594617Y-51851659D01*
X100750500Y-51851659D01*
X100750500Y-51784652D01*
X100770185Y-51717613D01*
X100822989Y-51671858D01*
X100892147Y-51661914D01*
X100909435Y-51665675D01*
X101028038Y-51700500D01*
X101028039Y-51700500D01*
X101171962Y-51700500D01*
X101171962Y-51700499D01*
X101279121Y-51669035D01*
X101310050Y-51659954D01*
X101310050Y-51659953D01*
X101310053Y-51659953D01*
X101431128Y-51582143D01*
X101525377Y-51473373D01*
X101585165Y-51342457D01*
X101605647Y-51200000D01*
X101585165Y-51057543D01*
X101525377Y-50926627D01*
X101431128Y-50817857D01*
X101310053Y-50740047D01*
X101310051Y-50740046D01*
X101310049Y-50740045D01*
X101310050Y-50740045D01*
X101171963Y-50699500D01*
X101171961Y-50699500D01*
X101028039Y-50699500D01*
X101028035Y-50699500D01*
X100909434Y-50734324D01*
X100839564Y-50734324D01*
X100780786Y-50696549D01*
X100751762Y-50632993D01*
X100750500Y-50615347D01*
X100750500Y-49606594D01*
X104839681Y-49606594D01*
X104875089Y-49830148D01*
X104875089Y-49830151D01*
X104945029Y-50045404D01*
X104945031Y-50045407D01*
X105047786Y-50247076D01*
X105180824Y-50430187D01*
X105340870Y-50590233D01*
X105523981Y-50723271D01*
X105725650Y-50826026D01*
X105725652Y-50826027D01*
X105926432Y-50891263D01*
X105940910Y-50895968D01*
X106164462Y-50931376D01*
X106164463Y-50931376D01*
X106390800Y-50931376D01*
X106394000Y-50931124D01*
X106395200Y-50931376D01*
X106395672Y-50931376D01*
X106395672Y-50931475D01*
X106462378Y-50945484D01*
X106512137Y-50994533D01*
X106527479Y-51062697D01*
X106526579Y-51071365D01*
X106526579Y-51071650D01*
X106526579Y-51071651D01*
X106526620Y-51071935D01*
X106547060Y-51214107D01*
X106586515Y-51300499D01*
X106606849Y-51345024D01*
X106701098Y-51453794D01*
X106822173Y-51531604D01*
X106822176Y-51531605D01*
X106822175Y-51531605D01*
X106960262Y-51572150D01*
X106960264Y-51572151D01*
X106960265Y-51572151D01*
X107104187Y-51572151D01*
X107246359Y-51530406D01*
X107316229Y-51530406D01*
X107375007Y-51568180D01*
X107395855Y-51601930D01*
X107412760Y-51642742D01*
X107412765Y-51642752D01*
X107494380Y-51764896D01*
X107494383Y-51764900D01*
X107598258Y-51868775D01*
X107598262Y-51868778D01*
X107720406Y-51950393D01*
X107720412Y-51950396D01*
X107720413Y-51950397D01*
X107856140Y-52006617D01*
X108000222Y-52035276D01*
X108000226Y-52035277D01*
X108000227Y-52035277D01*
X108147138Y-52035277D01*
X108147139Y-52035276D01*
X108291224Y-52006617D01*
X108426951Y-51950397D01*
X108549102Y-51868778D01*
X108652983Y-51764897D01*
X108734602Y-51642746D01*
X108752308Y-51600000D01*
X112694353Y-51600000D01*
X112714834Y-51742456D01*
X112774622Y-51873371D01*
X112774623Y-51873373D01*
X112868872Y-51982143D01*
X112989947Y-52059953D01*
X112989950Y-52059954D01*
X112989949Y-52059954D01*
X113128036Y-52100499D01*
X113128038Y-52100500D01*
X113128039Y-52100500D01*
X113271962Y-52100500D01*
X113271962Y-52100499D01*
X113410053Y-52059953D01*
X113531128Y-51982143D01*
X113609482Y-51891717D01*
X113668260Y-51853942D01*
X113738129Y-51853942D01*
X113757708Y-51862881D01*
X113758001Y-51862241D01*
X113766061Y-51865921D01*
X113766063Y-51865923D01*
X113766065Y-51865923D01*
X113766066Y-51865924D01*
X113904152Y-51906469D01*
X113904154Y-51906470D01*
X113904155Y-51906470D01*
X114048078Y-51906470D01*
X114048078Y-51906469D01*
X114186169Y-51865923D01*
X114307244Y-51788113D01*
X114401493Y-51679343D01*
X114461281Y-51548427D01*
X114481763Y-51405970D01*
X114461281Y-51263513D01*
X114401493Y-51132597D01*
X114307244Y-51023827D01*
X114186169Y-50946017D01*
X114186167Y-50946016D01*
X114186165Y-50946015D01*
X114186166Y-50946015D01*
X114048079Y-50905470D01*
X114048077Y-50905470D01*
X113904155Y-50905470D01*
X113904152Y-50905470D01*
X113766065Y-50946015D01*
X113644988Y-51023827D01*
X113644985Y-51023829D01*
X113566632Y-51114253D01*
X113507854Y-51152027D01*
X113437984Y-51152027D01*
X113418407Y-51143088D01*
X113418115Y-51143729D01*
X113410049Y-51140045D01*
X113271963Y-51099500D01*
X113271961Y-51099500D01*
X113128039Y-51099500D01*
X113128036Y-51099500D01*
X112989949Y-51140045D01*
X112868873Y-51217856D01*
X112774623Y-51326626D01*
X112774622Y-51326628D01*
X112714834Y-51457543D01*
X112694353Y-51600000D01*
X108752308Y-51600000D01*
X108790822Y-51507019D01*
X108819482Y-51362932D01*
X108819482Y-51216022D01*
X108790822Y-51071935D01*
X108738444Y-50945484D01*
X108734603Y-50936210D01*
X108734598Y-50936201D01*
X108652983Y-50814057D01*
X108652980Y-50814053D01*
X108638927Y-50800000D01*
X109194353Y-50800000D01*
X109214834Y-50942456D01*
X109273965Y-51071932D01*
X109274623Y-51073373D01*
X109368872Y-51182143D01*
X109489947Y-51259953D01*
X109489950Y-51259954D01*
X109489949Y-51259954D01*
X109628036Y-51300499D01*
X109628038Y-51300500D01*
X109628039Y-51300500D01*
X109771962Y-51300500D01*
X109771962Y-51300499D01*
X109910053Y-51259953D01*
X110031128Y-51182143D01*
X110125377Y-51073373D01*
X110185165Y-50942457D01*
X110205647Y-50800000D01*
X110185165Y-50657543D01*
X110125377Y-50526627D01*
X110031128Y-50417857D01*
X109910053Y-50340047D01*
X109910051Y-50340046D01*
X109910049Y-50340045D01*
X109910050Y-50340045D01*
X109771963Y-50299500D01*
X109771961Y-50299500D01*
X109628039Y-50299500D01*
X109628036Y-50299500D01*
X109489949Y-50340045D01*
X109368873Y-50417856D01*
X109274623Y-50526626D01*
X109274622Y-50526628D01*
X109214834Y-50657543D01*
X109194353Y-50800000D01*
X108638927Y-50800000D01*
X108549105Y-50710178D01*
X108549101Y-50710175D01*
X108426957Y-50628560D01*
X108426948Y-50628555D01*
X108291226Y-50572338D01*
X108291227Y-50572338D01*
X108291224Y-50572337D01*
X108291220Y-50572336D01*
X108291216Y-50572335D01*
X108147141Y-50543677D01*
X108147137Y-50543677D01*
X108000227Y-50543677D01*
X108000222Y-50543677D01*
X107856147Y-50572335D01*
X107856137Y-50572338D01*
X107720415Y-50628555D01*
X107720406Y-50628560D01*
X107598262Y-50710175D01*
X107576176Y-50732261D01*
X107514852Y-50765745D01*
X107445160Y-50760759D01*
X107394783Y-50725780D01*
X107363354Y-50689508D01*
X107341682Y-50675580D01*
X107295927Y-50622778D01*
X107285983Y-50553620D01*
X107315007Y-50490064D01*
X107321027Y-50483597D01*
X107374438Y-50430187D01*
X107507476Y-50247076D01*
X107610231Y-50045407D01*
X107680173Y-49830147D01*
X107715581Y-49606595D01*
X107715581Y-49380257D01*
X107680173Y-49156705D01*
X107680172Y-49156701D01*
X107680172Y-49156700D01*
X107610232Y-48941447D01*
X107610230Y-48941444D01*
X107507475Y-48739775D01*
X107374438Y-48556665D01*
X107214392Y-48396619D01*
X107031281Y-48263581D01*
X106829612Y-48160826D01*
X106829609Y-48160824D01*
X106614354Y-48090884D01*
X106465317Y-48067278D01*
X106390800Y-48055476D01*
X106164462Y-48055476D01*
X106089944Y-48067278D01*
X105940908Y-48090884D01*
X105940905Y-48090884D01*
X105725652Y-48160824D01*
X105725649Y-48160826D01*
X105523980Y-48263581D01*
X105419509Y-48339484D01*
X105340870Y-48396619D01*
X105340868Y-48396621D01*
X105340867Y-48396621D01*
X105180826Y-48556662D01*
X105180826Y-48556663D01*
X105180824Y-48556665D01*
X105123689Y-48635304D01*
X105047786Y-48739775D01*
X104945031Y-48941444D01*
X104945029Y-48941447D01*
X104875089Y-49156700D01*
X104875089Y-49156703D01*
X104839681Y-49380257D01*
X104839681Y-49606594D01*
X100750500Y-49606594D01*
X100750500Y-31704427D01*
X100750816Y-31695581D01*
X100765130Y-31495443D01*
X100765131Y-31495442D01*
X100765130Y-31495436D01*
X100767646Y-31477938D01*
X100809356Y-31286199D01*
X100814333Y-31269248D01*
X100882911Y-31085385D01*
X100890259Y-31069298D01*
X100952815Y-30954734D01*
X100984291Y-30897089D01*
X100993845Y-30882221D01*
X101111448Y-30725123D01*
X101123020Y-30711769D01*
X101261769Y-30573020D01*
X101275123Y-30561448D01*
X101432221Y-30443845D01*
X101447089Y-30434291D01*
X101619298Y-30340258D01*
X101635385Y-30332911D01*
X101819248Y-30264333D01*
X101836199Y-30259356D01*
X102027938Y-30217646D01*
X102045436Y-30215130D01*
X102245582Y-30200816D01*
X102254428Y-30200500D01*
X102315892Y-30200500D01*
X173184108Y-30200500D01*
X173245572Y-30200500D01*
X173254418Y-30200816D01*
G37*
%TD.AperFunction*%
%TD*%
M02*
