M48
; DRILL file {KiCad 8.0.1} date 2026-01-15T10:06:35-0500
; FORMAT={-:-/ absolute / inch / decimal}
; #@! TF.CreationDate,2026-01-15T10:06:35-05:00
; #@! TF.GenerationSoftware,Kicad,Pcbnew,8.0.1
; #@! TF.FileFunction,Plated,1,4,PTH
FMAT,2
INCH
; #@! TA.AperFunction,Plated,PTH,ViaDrill
T1C0.0079
%
G90
G05
T1
X3.002Y-3.5138
X3.002Y-3.5531
X3.002Y-3.5925
X3.002Y-3.6319
X3.002Y-3.6713
X3.002Y-3.7106
X3.002Y-3.75
X3.002Y-3.7894
X3.002Y-3.8287
X3.002Y-3.8681
X3.002Y-3.9075
X3.002Y-3.9469
X3.002Y-3.9862
X3.002Y-4.0256
X3.002Y-4.065
X3.002Y-4.1043
X3.002Y-4.1437
X3.002Y-4.1831
X3.0059Y-4.2224
X3.0059Y-4.2421
X3.0059Y-4.2817
X3.0059Y-4.3012
X3.0072Y-3.4744
X3.0217Y-3.4547
X3.0217Y-3.4941
X3.0217Y-3.5335
X3.0217Y-3.5728
X3.0217Y-3.6122
X3.0217Y-3.6516
X3.0217Y-3.6909
X3.0217Y-3.7303
X3.0217Y-3.7697
X3.0217Y-3.8091
X3.0217Y-3.8484
X3.0217Y-3.8878
X3.0217Y-3.9272
X3.0217Y-3.9665
X3.0217Y-4.0059
X3.0217Y-4.0453
X3.0217Y-4.0846
X3.0217Y-4.124
X3.0217Y-4.1634
X3.0217Y-4.2028
X3.0217Y-4.2618
X3.0217Y-4.3209
X3.0217Y-4.3602
X3.0217Y-4.3799
X3.0217Y-4.3996
X3.0217Y-4.4193
X3.0748Y-4.6496
X3.126Y-4.4685
X3.1339Y-4.4488
X3.1457Y-4.4685
X3.1457Y-4.5709
X3.1535Y-4.4488
X3.1535Y-4.7323
X3.1535Y-4.8031
X3.1535Y-4.8858
X3.1535Y-4.9646
X3.1535Y-5.0433
X3.1535Y-5.122
X3.1535Y-5.2008
X3.1535Y-5.2795
X3.1535Y-5.3583
X3.1535Y-5.437
X3.1535Y-5.5157
X3.1535Y-5.5945
X3.1535Y-5.6732
X3.1535Y-5.752
X3.1535Y-5.8307
X3.1535Y-5.9094
X3.1535Y-5.9882
X3.1535Y-6.0669
X3.1575Y-6.1457
X3.1654Y-4.4685
X3.1732Y-4.4488
X3.2165Y-6.4213
X3.2205Y-6.2362
X3.2244Y-6.185
X3.2283Y-4.6299
X3.2402Y-4.811
X3.2402Y-6.2913
X3.2441Y-4.6693
X3.2441Y-6.4213
X3.248Y-6.2362
X3.2677Y-6.2913
X3.2717Y-6.4213
X3.2756Y-3.4547
X3.2756Y-3.5138
X3.2756Y-3.5728
X3.2756Y-3.6319
X3.2756Y-3.6909
X3.2756Y-3.75
X3.2756Y-3.8091
X3.2756Y-3.8681
X3.2756Y-3.9272
X3.2756Y-3.9862
X3.2756Y-4.0453
X3.2756Y-4.1043
X3.2756Y-4.1634
X3.2756Y-6.2362
X3.2776Y-4.2028
X3.2776Y-4.2618
X3.2776Y-4.3209
X3.2776Y-4.3602
X3.2776Y-4.3799
X3.2776Y-4.3996
X3.2776Y-4.4193
X3.2795Y-4.5118
X3.2933Y-4.2224
X3.2933Y-4.2421
X3.2933Y-4.2817
X3.2933Y-4.3012
X3.2953Y-4.8445
X3.2953Y-6.2913
X3.2992Y-6.4213
X3.3031Y-5.378
X3.3031Y-5.5354
X3.3031Y-6.2362
X3.3035Y-3.9472
X3.3041Y-3.8287
X3.3041Y-3.8878
X3.3041Y-4.0059
X3.3041Y-4.065
X3.3041Y-4.124
X3.3043Y-3.7108
X3.3071Y-4.9843
X3.3071Y-5.2205
X3.3089Y-3.7697
X3.311Y-4.6693
X3.311Y-4.7087
X3.315Y-4.4685
X3.315Y-4.8661
X3.315Y-6.185
X3.3189Y-5.6299
X3.3189Y-5.7126
X3.3189Y-5.7913
X3.3189Y-5.8701
X3.3209Y-5.3976
X3.3209Y-5.5551
X3.3228Y-4.5354
X3.3228Y-4.6299
X3.3228Y-4.748
X3.3228Y-4.9252
X3.3228Y-5.1614
X3.3228Y-5.3189
X3.3228Y-5.4764
X3.3228Y-5.9528
X3.3228Y-6.0276
X3.3228Y-6.1063
X3.3228Y-6.2913
X3.3248Y-5.0039
X3.3248Y-5.2402
X3.3268Y-3.8484
X3.3268Y-3.9075
X3.3268Y-3.9665
X3.3268Y-4.0256
X3.3268Y-4.0846
X3.3268Y-4.1437
X3.3268Y-5.0748
X3.3268Y-6.4213
X3.3329Y-3.7882
X3.333Y-3.7291
X3.3386Y-4.4606
X3.3504Y-4.1811
X3.378Y-3.5354
X3.4016Y-5.6693
X3.456Y-5.7651
X3.4606Y-5.9488
X3.4646Y-3.622
X3.4685Y-4.9252
X3.4685Y-4.9646
X3.4685Y-5.4764
X3.4685Y-5.5157
X3.4685Y-5.8701
X3.4685Y-6.0669
X3.4685Y-6.1339
X3.4685Y-6.185
X3.4693Y-5.6721
X3.4703Y-4.5668
X3.4705Y-4.6102
X3.4705Y-4.8091
X3.4705Y-5.1634
X3.4705Y-5.3583
X3.4705Y-5.5965
X3.4705Y-5.7126
X3.4705Y-5.9114
X3.4705Y-5.9921
X3.4705Y-6.0276
X3.4705Y-6.1063
X3.4706Y-4.7285
X3.4706Y-5.2817
X3.4706Y-5.1157
X3.4716Y-5.8319
X3.4724Y-4.7677
X3.4724Y-5.0236
X3.4724Y-5.0748
X3.4724Y-5.4213
X3.4724Y-5.626
X3.4764Y-5.3189
X3.4933Y-5.7521
X3.5177Y-5.439
X3.5472Y-3.5276
X3.5748Y-5.8346
X3.6043Y-4.4606
X3.6063Y-4.1811
X3.6102Y-5.2008
X3.6142Y-3.6937
X3.6142Y-6.2362
X3.6142Y-6.4213
X3.6152Y-3.7539
X3.6152Y-3.813
X3.6152Y-3.872
X3.6152Y-3.9311
X3.6152Y-3.9902
X3.6152Y-4.0492
X3.6152Y-4.1083
X3.6181Y-4.6102
X3.6181Y-4.689
X3.6181Y-4.7441
X3.6181Y-4.9252
X3.6181Y-5.0039
X3.6181Y-5.0433
X3.6181Y-5.0827
X3.6181Y-5.1654
X3.6181Y-5.2441
X3.6181Y-5.3268
X3.6181Y-5.3976
X3.6181Y-5.4764
X3.6181Y-5.5551
X3.6181Y-5.6339
X3.6181Y-5.7126
X3.6181Y-5.7913
X3.6181Y-5.8819
X3.6181Y-5.9528
X3.6181Y-6.0276
X3.6181Y-6.1063
X3.622Y-6.185
X3.626Y-4.5315
X3.626Y-4.8858
X3.6339Y-6.2913
X3.6391Y-3.7472
X3.6391Y-3.8063
X3.6391Y-3.8653
X3.6391Y-3.9244
X3.6391Y-3.9835
X3.6391Y-4.0425
X3.6391Y-4.1016
X3.6391Y-4.1606
X3.6417Y-6.2362
X3.6417Y-6.4213
X3.6457Y-4.2224
X3.6457Y-4.2421
X3.6457Y-4.2817
X3.6457Y-4.3012
X3.6457Y-4.8661
X3.6535Y-4.4685
X3.6575Y-4.7047
X3.6614Y-4.2028
X3.6614Y-4.2618
X3.6614Y-4.3209
X3.6614Y-4.3602
X3.6614Y-4.3799
X3.6614Y-4.3996
X3.6614Y-4.4193
X3.6614Y-6.2913
X3.6634Y-3.4547
X3.6634Y-3.5138
X3.6634Y-3.5728
X3.6634Y-3.6319
X3.6634Y-3.6909
X3.6634Y-3.75
X3.6634Y-3.8091
X3.6634Y-3.8681
X3.6634Y-3.9272
X3.6634Y-3.9862
X3.6634Y-4.0453
X3.6634Y-4.1043
X3.6634Y-4.1634
X3.6693Y-6.2362
X3.6693Y-6.4213
X3.6772Y-4.811
X3.689Y-4.6693
X3.689Y-6.2913
X3.6969Y-6.2362
X3.6969Y-6.4213
X3.7165Y-4.5906
X3.7165Y-4.6339
X3.7165Y-4.7717
X3.7165Y-6.185
X3.7165Y-6.2913
X3.7244Y-6.4213
X3.7598Y-4.4528
X3.7677Y-4.4724
X3.7795Y-4.4528
X3.7874Y-4.4724
X3.7874Y-4.8071
X3.7874Y-4.8858
X3.7874Y-4.9646
X3.7874Y-5.0433
X3.7874Y-5.122
X3.7874Y-5.2008
X3.7874Y-5.2795
X3.7874Y-5.3583
X3.7874Y-5.437
X3.7874Y-5.5157
X3.7874Y-5.5945
X3.7874Y-5.6732
X3.7874Y-5.752
X3.7874Y-5.8307
X3.7874Y-5.9094
X3.7874Y-5.9882
X3.7874Y-6.0669
X3.7874Y-6.1457
X3.7913Y-4.5709
X3.7913Y-4.7382
X3.7992Y-4.4528
X3.8071Y-4.4724
X3.8228Y-4.7283
X3.8583Y-4.6535
X3.878Y-4.6339
X3.9173Y-3.4547
X3.9173Y-3.4941
X3.9173Y-3.5335
X3.9173Y-3.5728
X3.9173Y-3.6122
X3.9173Y-3.6516
X3.9173Y-3.6909
X3.9173Y-3.7303
X3.9173Y-3.7697
X3.9173Y-3.8091
X3.9173Y-3.8484
X3.9173Y-3.8878
X3.9173Y-3.9272
X3.9173Y-3.9665
X3.9173Y-4.0059
X3.9173Y-4.0453
X3.9173Y-4.0846
X3.9173Y-4.124
X3.9173Y-4.1634
X3.9173Y-4.2028
X3.9173Y-4.2618
X3.9173Y-4.3209
X3.9173Y-4.3602
X3.9173Y-4.3799
X3.9173Y-4.3996
X3.9173Y-4.4193
X3.9331Y-4.2224
X3.9331Y-4.2421
X3.9331Y-4.2817
X3.9331Y-4.3012
X3.937Y-3.4744
X3.937Y-3.5138
X3.937Y-3.5531
X3.937Y-3.5925
X3.937Y-3.6319
X3.937Y-3.6713
X3.937Y-3.7106
X3.937Y-3.75
X3.937Y-3.7894
X3.937Y-3.8287
X3.937Y-3.8681
X3.937Y-3.9075
X3.937Y-3.9469
X3.937Y-3.9862
X3.937Y-4.0256
X3.937Y-4.065
X3.937Y-4.1043
X3.937Y-4.1437
X3.937Y-4.1831
M30
