%TF.GenerationSoftware,KiCad,Pcbnew,8.0.1*%
%TF.CreationDate,2026-01-16T21:36:46-05:00*%
%TF.ProjectId,Mezzanine Backplane,4d657a7a-616e-4696-9e65-204261636b70,rev?*%
%TF.SameCoordinates,Original*%
%TF.FileFunction,Legend,Top*%
%TF.FilePolarity,Positive*%
%FSLAX46Y46*%
G04 Gerber Fmt 4.6, Leading zero omitted, Abs format (unit mm)*
G04 Created by KiCad (PCBNEW 8.0.1) date 2026-01-16 21:36:46*
%MOMM*%
%LPD*%
G01*
G04 APERTURE LIST*
%ADD10C,0.150000*%
%ADD11C,0.300000*%
%ADD12C,0.200000*%
%ADD13C,0.010000*%
%ADD14C,0.120000*%
%ADD15C,0.006250*%
G04 APERTURE END LIST*
D10*
X78215350Y-93293208D02*
X78215350Y-94102732D01*
X78215350Y-94102732D02*
X78167731Y-94197970D01*
X78167731Y-94197970D02*
X78120112Y-94245589D01*
X78120112Y-94245589D02*
X78024874Y-94293208D01*
X78024874Y-94293208D02*
X77882017Y-94293208D01*
X77882017Y-94293208D02*
X77786779Y-94245589D01*
X78215350Y-93912256D02*
X78120112Y-93959875D01*
X78120112Y-93959875D02*
X77929636Y-93959875D01*
X77929636Y-93959875D02*
X77834398Y-93912256D01*
X77834398Y-93912256D02*
X77786779Y-93864636D01*
X77786779Y-93864636D02*
X77739160Y-93769398D01*
X77739160Y-93769398D02*
X77739160Y-93483684D01*
X77739160Y-93483684D02*
X77786779Y-93388446D01*
X77786779Y-93388446D02*
X77834398Y-93340827D01*
X77834398Y-93340827D02*
X77929636Y-93293208D01*
X77929636Y-93293208D02*
X78120112Y-93293208D01*
X78120112Y-93293208D02*
X78215350Y-93340827D01*
X78691541Y-93959875D02*
X78691541Y-93293208D01*
X78691541Y-92959875D02*
X78643922Y-93007494D01*
X78643922Y-93007494D02*
X78691541Y-93055113D01*
X78691541Y-93055113D02*
X78739160Y-93007494D01*
X78739160Y-93007494D02*
X78691541Y-92959875D01*
X78691541Y-92959875D02*
X78691541Y-93055113D01*
X79024874Y-93293208D02*
X79405826Y-93293208D01*
X79167731Y-92959875D02*
X79167731Y-93817017D01*
X79167731Y-93817017D02*
X79215350Y-93912256D01*
X79215350Y-93912256D02*
X79310588Y-93959875D01*
X79310588Y-93959875D02*
X79405826Y-93959875D01*
X79739160Y-93959875D02*
X79739160Y-92959875D01*
X80167731Y-93959875D02*
X80167731Y-93436065D01*
X80167731Y-93436065D02*
X80120112Y-93340827D01*
X80120112Y-93340827D02*
X80024874Y-93293208D01*
X80024874Y-93293208D02*
X79882017Y-93293208D01*
X79882017Y-93293208D02*
X79786779Y-93340827D01*
X79786779Y-93340827D02*
X79739160Y-93388446D01*
X81072493Y-93293208D02*
X81072493Y-93959875D01*
X80643922Y-93293208D02*
X80643922Y-93817017D01*
X80643922Y-93817017D02*
X80691541Y-93912256D01*
X80691541Y-93912256D02*
X80786779Y-93959875D01*
X80786779Y-93959875D02*
X80929636Y-93959875D01*
X80929636Y-93959875D02*
X81024874Y-93912256D01*
X81024874Y-93912256D02*
X81072493Y-93864636D01*
X81548684Y-93959875D02*
X81548684Y-92959875D01*
X81548684Y-93340827D02*
X81643922Y-93293208D01*
X81643922Y-93293208D02*
X81834398Y-93293208D01*
X81834398Y-93293208D02*
X81929636Y-93340827D01*
X81929636Y-93340827D02*
X81977255Y-93388446D01*
X81977255Y-93388446D02*
X82024874Y-93483684D01*
X82024874Y-93483684D02*
X82024874Y-93769398D01*
X82024874Y-93769398D02*
X81977255Y-93864636D01*
X81977255Y-93864636D02*
X81929636Y-93912256D01*
X81929636Y-93912256D02*
X81834398Y-93959875D01*
X81834398Y-93959875D02*
X81643922Y-93959875D01*
X81643922Y-93959875D02*
X81548684Y-93912256D01*
X82453446Y-93864636D02*
X82501065Y-93912256D01*
X82501065Y-93912256D02*
X82453446Y-93959875D01*
X82453446Y-93959875D02*
X82405827Y-93912256D01*
X82405827Y-93912256D02*
X82453446Y-93864636D01*
X82453446Y-93864636D02*
X82453446Y-93959875D01*
X83358207Y-93912256D02*
X83262969Y-93959875D01*
X83262969Y-93959875D02*
X83072493Y-93959875D01*
X83072493Y-93959875D02*
X82977255Y-93912256D01*
X82977255Y-93912256D02*
X82929636Y-93864636D01*
X82929636Y-93864636D02*
X82882017Y-93769398D01*
X82882017Y-93769398D02*
X82882017Y-93483684D01*
X82882017Y-93483684D02*
X82929636Y-93388446D01*
X82929636Y-93388446D02*
X82977255Y-93340827D01*
X82977255Y-93340827D02*
X83072493Y-93293208D01*
X83072493Y-93293208D02*
X83262969Y-93293208D01*
X83262969Y-93293208D02*
X83358207Y-93340827D01*
X83929636Y-93959875D02*
X83834398Y-93912256D01*
X83834398Y-93912256D02*
X83786779Y-93864636D01*
X83786779Y-93864636D02*
X83739160Y-93769398D01*
X83739160Y-93769398D02*
X83739160Y-93483684D01*
X83739160Y-93483684D02*
X83786779Y-93388446D01*
X83786779Y-93388446D02*
X83834398Y-93340827D01*
X83834398Y-93340827D02*
X83929636Y-93293208D01*
X83929636Y-93293208D02*
X84072493Y-93293208D01*
X84072493Y-93293208D02*
X84167731Y-93340827D01*
X84167731Y-93340827D02*
X84215350Y-93388446D01*
X84215350Y-93388446D02*
X84262969Y-93483684D01*
X84262969Y-93483684D02*
X84262969Y-93769398D01*
X84262969Y-93769398D02*
X84215350Y-93864636D01*
X84215350Y-93864636D02*
X84167731Y-93912256D01*
X84167731Y-93912256D02*
X84072493Y-93959875D01*
X84072493Y-93959875D02*
X83929636Y-93959875D01*
X84691541Y-93959875D02*
X84691541Y-93293208D01*
X84691541Y-93388446D02*
X84739160Y-93340827D01*
X84739160Y-93340827D02*
X84834398Y-93293208D01*
X84834398Y-93293208D02*
X84977255Y-93293208D01*
X84977255Y-93293208D02*
X85072493Y-93340827D01*
X85072493Y-93340827D02*
X85120112Y-93436065D01*
X85120112Y-93436065D02*
X85120112Y-93959875D01*
X85120112Y-93436065D02*
X85167731Y-93340827D01*
X85167731Y-93340827D02*
X85262969Y-93293208D01*
X85262969Y-93293208D02*
X85405826Y-93293208D01*
X85405826Y-93293208D02*
X85501065Y-93340827D01*
X85501065Y-93340827D02*
X85548684Y-93436065D01*
X85548684Y-93436065D02*
X85548684Y-93959875D01*
X86739159Y-92912256D02*
X85882017Y-94197970D01*
X87072493Y-93436065D02*
X87405826Y-93436065D01*
X87548683Y-93959875D02*
X87072493Y-93959875D01*
X87072493Y-93959875D02*
X87072493Y-92959875D01*
X87072493Y-92959875D02*
X87548683Y-92959875D01*
X87882017Y-93959875D02*
X88405826Y-93293208D01*
X87882017Y-93293208D02*
X88405826Y-93959875D01*
X89215350Y-93912256D02*
X89120112Y-93959875D01*
X89120112Y-93959875D02*
X88929636Y-93959875D01*
X88929636Y-93959875D02*
X88834398Y-93912256D01*
X88834398Y-93912256D02*
X88786779Y-93864636D01*
X88786779Y-93864636D02*
X88739160Y-93769398D01*
X88739160Y-93769398D02*
X88739160Y-93483684D01*
X88739160Y-93483684D02*
X88786779Y-93388446D01*
X88786779Y-93388446D02*
X88834398Y-93340827D01*
X88834398Y-93340827D02*
X88929636Y-93293208D01*
X88929636Y-93293208D02*
X89120112Y-93293208D01*
X89120112Y-93293208D02*
X89215350Y-93340827D01*
X90024874Y-93912256D02*
X89929636Y-93959875D01*
X89929636Y-93959875D02*
X89739160Y-93959875D01*
X89739160Y-93959875D02*
X89643922Y-93912256D01*
X89643922Y-93912256D02*
X89596303Y-93817017D01*
X89596303Y-93817017D02*
X89596303Y-93436065D01*
X89596303Y-93436065D02*
X89643922Y-93340827D01*
X89643922Y-93340827D02*
X89739160Y-93293208D01*
X89739160Y-93293208D02*
X89929636Y-93293208D01*
X89929636Y-93293208D02*
X90024874Y-93340827D01*
X90024874Y-93340827D02*
X90072493Y-93436065D01*
X90072493Y-93436065D02*
X90072493Y-93531303D01*
X90072493Y-93531303D02*
X89596303Y-93626541D01*
X90453446Y-93912256D02*
X90548684Y-93959875D01*
X90548684Y-93959875D02*
X90739160Y-93959875D01*
X90739160Y-93959875D02*
X90834398Y-93912256D01*
X90834398Y-93912256D02*
X90882017Y-93817017D01*
X90882017Y-93817017D02*
X90882017Y-93769398D01*
X90882017Y-93769398D02*
X90834398Y-93674160D01*
X90834398Y-93674160D02*
X90739160Y-93626541D01*
X90739160Y-93626541D02*
X90596303Y-93626541D01*
X90596303Y-93626541D02*
X90501065Y-93578922D01*
X90501065Y-93578922D02*
X90453446Y-93483684D01*
X90453446Y-93483684D02*
X90453446Y-93436065D01*
X90453446Y-93436065D02*
X90501065Y-93340827D01*
X90501065Y-93340827D02*
X90596303Y-93293208D01*
X90596303Y-93293208D02*
X90739160Y-93293208D01*
X90739160Y-93293208D02*
X90834398Y-93340827D01*
X91262970Y-93912256D02*
X91358208Y-93959875D01*
X91358208Y-93959875D02*
X91548684Y-93959875D01*
X91548684Y-93959875D02*
X91643922Y-93912256D01*
X91643922Y-93912256D02*
X91691541Y-93817017D01*
X91691541Y-93817017D02*
X91691541Y-93769398D01*
X91691541Y-93769398D02*
X91643922Y-93674160D01*
X91643922Y-93674160D02*
X91548684Y-93626541D01*
X91548684Y-93626541D02*
X91405827Y-93626541D01*
X91405827Y-93626541D02*
X91310589Y-93578922D01*
X91310589Y-93578922D02*
X91262970Y-93483684D01*
X91262970Y-93483684D02*
X91262970Y-93436065D01*
X91262970Y-93436065D02*
X91310589Y-93340827D01*
X91310589Y-93340827D02*
X91405827Y-93293208D01*
X91405827Y-93293208D02*
X91548684Y-93293208D01*
X91548684Y-93293208D02*
X91643922Y-93340827D01*
X92120113Y-93959875D02*
X92120113Y-93293208D01*
X92120113Y-92959875D02*
X92072494Y-93007494D01*
X92072494Y-93007494D02*
X92120113Y-93055113D01*
X92120113Y-93055113D02*
X92167732Y-93007494D01*
X92167732Y-93007494D02*
X92120113Y-92959875D01*
X92120113Y-92959875D02*
X92120113Y-93055113D01*
X92501065Y-93293208D02*
X92739160Y-93959875D01*
X92739160Y-93959875D02*
X92977255Y-93293208D01*
X93739160Y-93912256D02*
X93643922Y-93959875D01*
X93643922Y-93959875D02*
X93453446Y-93959875D01*
X93453446Y-93959875D02*
X93358208Y-93912256D01*
X93358208Y-93912256D02*
X93310589Y-93817017D01*
X93310589Y-93817017D02*
X93310589Y-93436065D01*
X93310589Y-93436065D02*
X93358208Y-93340827D01*
X93358208Y-93340827D02*
X93453446Y-93293208D01*
X93453446Y-93293208D02*
X93643922Y-93293208D01*
X93643922Y-93293208D02*
X93739160Y-93340827D01*
X93739160Y-93340827D02*
X93786779Y-93436065D01*
X93786779Y-93436065D02*
X93786779Y-93531303D01*
X93786779Y-93531303D02*
X93310589Y-93626541D01*
X94405827Y-92959875D02*
X94596303Y-92959875D01*
X94596303Y-92959875D02*
X94691541Y-93007494D01*
X94691541Y-93007494D02*
X94786779Y-93102732D01*
X94786779Y-93102732D02*
X94834398Y-93293208D01*
X94834398Y-93293208D02*
X94834398Y-93626541D01*
X94834398Y-93626541D02*
X94786779Y-93817017D01*
X94786779Y-93817017D02*
X94691541Y-93912256D01*
X94691541Y-93912256D02*
X94596303Y-93959875D01*
X94596303Y-93959875D02*
X94405827Y-93959875D01*
X94405827Y-93959875D02*
X94310589Y-93912256D01*
X94310589Y-93912256D02*
X94215351Y-93817017D01*
X94215351Y-93817017D02*
X94167732Y-93626541D01*
X94167732Y-93626541D02*
X94167732Y-93293208D01*
X94167732Y-93293208D02*
X94215351Y-93102732D01*
X94215351Y-93102732D02*
X94310589Y-93007494D01*
X94310589Y-93007494D02*
X94405827Y-92959875D01*
X95167732Y-93293208D02*
X95405827Y-93959875D01*
X95405827Y-93959875D02*
X95643922Y-93293208D01*
X96405827Y-93912256D02*
X96310589Y-93959875D01*
X96310589Y-93959875D02*
X96120113Y-93959875D01*
X96120113Y-93959875D02*
X96024875Y-93912256D01*
X96024875Y-93912256D02*
X95977256Y-93817017D01*
X95977256Y-93817017D02*
X95977256Y-93436065D01*
X95977256Y-93436065D02*
X96024875Y-93340827D01*
X96024875Y-93340827D02*
X96120113Y-93293208D01*
X96120113Y-93293208D02*
X96310589Y-93293208D01*
X96310589Y-93293208D02*
X96405827Y-93340827D01*
X96405827Y-93340827D02*
X96453446Y-93436065D01*
X96453446Y-93436065D02*
X96453446Y-93531303D01*
X96453446Y-93531303D02*
X95977256Y-93626541D01*
X96882018Y-93959875D02*
X96882018Y-93293208D01*
X96882018Y-93483684D02*
X96929637Y-93388446D01*
X96929637Y-93388446D02*
X96977256Y-93340827D01*
X96977256Y-93340827D02*
X97072494Y-93293208D01*
X97072494Y-93293208D02*
X97167732Y-93293208D01*
X97501066Y-93959875D02*
X97501066Y-92959875D01*
X97596304Y-93578922D02*
X97882018Y-93959875D01*
X97882018Y-93293208D02*
X97501066Y-93674160D01*
X98310590Y-93959875D02*
X98310590Y-93293208D01*
X98310590Y-92959875D02*
X98262971Y-93007494D01*
X98262971Y-93007494D02*
X98310590Y-93055113D01*
X98310590Y-93055113D02*
X98358209Y-93007494D01*
X98358209Y-93007494D02*
X98310590Y-92959875D01*
X98310590Y-92959875D02*
X98310590Y-93055113D01*
X98929637Y-93959875D02*
X98834399Y-93912256D01*
X98834399Y-93912256D02*
X98786780Y-93817017D01*
X98786780Y-93817017D02*
X98786780Y-92959875D01*
X99453447Y-93959875D02*
X99358209Y-93912256D01*
X99358209Y-93912256D02*
X99310590Y-93817017D01*
X99310590Y-93817017D02*
X99310590Y-92959875D01*
X100548685Y-92912256D02*
X99691543Y-94197970D01*
X78215350Y-95522200D02*
X78120112Y-95569819D01*
X78120112Y-95569819D02*
X77929636Y-95569819D01*
X77929636Y-95569819D02*
X77834398Y-95522200D01*
X77834398Y-95522200D02*
X77786779Y-95474580D01*
X77786779Y-95474580D02*
X77739160Y-95379342D01*
X77739160Y-95379342D02*
X77739160Y-95093628D01*
X77739160Y-95093628D02*
X77786779Y-94998390D01*
X77786779Y-94998390D02*
X77834398Y-94950771D01*
X77834398Y-94950771D02*
X77929636Y-94903152D01*
X77929636Y-94903152D02*
X78120112Y-94903152D01*
X78120112Y-94903152D02*
X78215350Y-94950771D01*
X78786779Y-95569819D02*
X78691541Y-95522200D01*
X78691541Y-95522200D02*
X78643922Y-95474580D01*
X78643922Y-95474580D02*
X78596303Y-95379342D01*
X78596303Y-95379342D02*
X78596303Y-95093628D01*
X78596303Y-95093628D02*
X78643922Y-94998390D01*
X78643922Y-94998390D02*
X78691541Y-94950771D01*
X78691541Y-94950771D02*
X78786779Y-94903152D01*
X78786779Y-94903152D02*
X78929636Y-94903152D01*
X78929636Y-94903152D02*
X79024874Y-94950771D01*
X79024874Y-94950771D02*
X79072493Y-94998390D01*
X79072493Y-94998390D02*
X79120112Y-95093628D01*
X79120112Y-95093628D02*
X79120112Y-95379342D01*
X79120112Y-95379342D02*
X79072493Y-95474580D01*
X79072493Y-95474580D02*
X79024874Y-95522200D01*
X79024874Y-95522200D02*
X78929636Y-95569819D01*
X78929636Y-95569819D02*
X78786779Y-95569819D01*
X79548684Y-94903152D02*
X79548684Y-95569819D01*
X79548684Y-94998390D02*
X79596303Y-94950771D01*
X79596303Y-94950771D02*
X79691541Y-94903152D01*
X79691541Y-94903152D02*
X79834398Y-94903152D01*
X79834398Y-94903152D02*
X79929636Y-94950771D01*
X79929636Y-94950771D02*
X79977255Y-95046009D01*
X79977255Y-95046009D02*
X79977255Y-95569819D01*
X80310589Y-94903152D02*
X80691541Y-94903152D01*
X80453446Y-94569819D02*
X80453446Y-95426961D01*
X80453446Y-95426961D02*
X80501065Y-95522200D01*
X80501065Y-95522200D02*
X80596303Y-95569819D01*
X80596303Y-95569819D02*
X80691541Y-95569819D01*
X81024875Y-95569819D02*
X81024875Y-94903152D01*
X81024875Y-95093628D02*
X81072494Y-94998390D01*
X81072494Y-94998390D02*
X81120113Y-94950771D01*
X81120113Y-94950771D02*
X81215351Y-94903152D01*
X81215351Y-94903152D02*
X81310589Y-94903152D01*
X81786780Y-95569819D02*
X81691542Y-95522200D01*
X81691542Y-95522200D02*
X81643923Y-95474580D01*
X81643923Y-95474580D02*
X81596304Y-95379342D01*
X81596304Y-95379342D02*
X81596304Y-95093628D01*
X81596304Y-95093628D02*
X81643923Y-94998390D01*
X81643923Y-94998390D02*
X81691542Y-94950771D01*
X81691542Y-94950771D02*
X81786780Y-94903152D01*
X81786780Y-94903152D02*
X81929637Y-94903152D01*
X81929637Y-94903152D02*
X82024875Y-94950771D01*
X82024875Y-94950771D02*
X82072494Y-94998390D01*
X82072494Y-94998390D02*
X82120113Y-95093628D01*
X82120113Y-95093628D02*
X82120113Y-95379342D01*
X82120113Y-95379342D02*
X82072494Y-95474580D01*
X82072494Y-95474580D02*
X82024875Y-95522200D01*
X82024875Y-95522200D02*
X81929637Y-95569819D01*
X81929637Y-95569819D02*
X81786780Y-95569819D01*
X82691542Y-95569819D02*
X82596304Y-95522200D01*
X82596304Y-95522200D02*
X82548685Y-95426961D01*
X82548685Y-95426961D02*
X82548685Y-94569819D01*
X83215352Y-95569819D02*
X83120114Y-95522200D01*
X83120114Y-95522200D02*
X83072495Y-95426961D01*
X83072495Y-95426961D02*
X83072495Y-94569819D01*
X83977257Y-95522200D02*
X83882019Y-95569819D01*
X83882019Y-95569819D02*
X83691543Y-95569819D01*
X83691543Y-95569819D02*
X83596305Y-95522200D01*
X83596305Y-95522200D02*
X83548686Y-95426961D01*
X83548686Y-95426961D02*
X83548686Y-95046009D01*
X83548686Y-95046009D02*
X83596305Y-94950771D01*
X83596305Y-94950771D02*
X83691543Y-94903152D01*
X83691543Y-94903152D02*
X83882019Y-94903152D01*
X83882019Y-94903152D02*
X83977257Y-94950771D01*
X83977257Y-94950771D02*
X84024876Y-95046009D01*
X84024876Y-95046009D02*
X84024876Y-95141247D01*
X84024876Y-95141247D02*
X83548686Y-95236485D01*
X84453448Y-95569819D02*
X84453448Y-94903152D01*
X84453448Y-95093628D02*
X84501067Y-94998390D01*
X84501067Y-94998390D02*
X84548686Y-94950771D01*
X84548686Y-94950771D02*
X84643924Y-94903152D01*
X84643924Y-94903152D02*
X84739162Y-94903152D01*
X85072496Y-95188866D02*
X85834401Y-95188866D01*
X86310591Y-95569819D02*
X86310591Y-94569819D01*
X86739162Y-95569819D02*
X86739162Y-95046009D01*
X86739162Y-95046009D02*
X86691543Y-94950771D01*
X86691543Y-94950771D02*
X86596305Y-94903152D01*
X86596305Y-94903152D02*
X86453448Y-94903152D01*
X86453448Y-94903152D02*
X86358210Y-94950771D01*
X86358210Y-94950771D02*
X86310591Y-94998390D01*
X87643924Y-95569819D02*
X87643924Y-95046009D01*
X87643924Y-95046009D02*
X87596305Y-94950771D01*
X87596305Y-94950771D02*
X87501067Y-94903152D01*
X87501067Y-94903152D02*
X87310591Y-94903152D01*
X87310591Y-94903152D02*
X87215353Y-94950771D01*
X87643924Y-95522200D02*
X87548686Y-95569819D01*
X87548686Y-95569819D02*
X87310591Y-95569819D01*
X87310591Y-95569819D02*
X87215353Y-95522200D01*
X87215353Y-95522200D02*
X87167734Y-95426961D01*
X87167734Y-95426961D02*
X87167734Y-95331723D01*
X87167734Y-95331723D02*
X87215353Y-95236485D01*
X87215353Y-95236485D02*
X87310591Y-95188866D01*
X87310591Y-95188866D02*
X87548686Y-95188866D01*
X87548686Y-95188866D02*
X87643924Y-95141247D01*
X88120115Y-95569819D02*
X88120115Y-94903152D01*
X88120115Y-95093628D02*
X88167734Y-94998390D01*
X88167734Y-94998390D02*
X88215353Y-94950771D01*
X88215353Y-94950771D02*
X88310591Y-94903152D01*
X88310591Y-94903152D02*
X88405829Y-94903152D01*
X89167734Y-95569819D02*
X89167734Y-94569819D01*
X89167734Y-95522200D02*
X89072496Y-95569819D01*
X89072496Y-95569819D02*
X88882020Y-95569819D01*
X88882020Y-95569819D02*
X88786782Y-95522200D01*
X88786782Y-95522200D02*
X88739163Y-95474580D01*
X88739163Y-95474580D02*
X88691544Y-95379342D01*
X88691544Y-95379342D02*
X88691544Y-95093628D01*
X88691544Y-95093628D02*
X88739163Y-94998390D01*
X88739163Y-94998390D02*
X88786782Y-94950771D01*
X88786782Y-94950771D02*
X88882020Y-94903152D01*
X88882020Y-94903152D02*
X89072496Y-94903152D01*
X89072496Y-94903152D02*
X89167734Y-94950771D01*
X89548687Y-94903152D02*
X89739163Y-95569819D01*
X89739163Y-95569819D02*
X89929639Y-95093628D01*
X89929639Y-95093628D02*
X90120115Y-95569819D01*
X90120115Y-95569819D02*
X90310591Y-94903152D01*
X91120115Y-95569819D02*
X91120115Y-95046009D01*
X91120115Y-95046009D02*
X91072496Y-94950771D01*
X91072496Y-94950771D02*
X90977258Y-94903152D01*
X90977258Y-94903152D02*
X90786782Y-94903152D01*
X90786782Y-94903152D02*
X90691544Y-94950771D01*
X91120115Y-95522200D02*
X91024877Y-95569819D01*
X91024877Y-95569819D02*
X90786782Y-95569819D01*
X90786782Y-95569819D02*
X90691544Y-95522200D01*
X90691544Y-95522200D02*
X90643925Y-95426961D01*
X90643925Y-95426961D02*
X90643925Y-95331723D01*
X90643925Y-95331723D02*
X90691544Y-95236485D01*
X90691544Y-95236485D02*
X90786782Y-95188866D01*
X90786782Y-95188866D02*
X91024877Y-95188866D01*
X91024877Y-95188866D02*
X91120115Y-95141247D01*
X91596306Y-95569819D02*
X91596306Y-94903152D01*
X91596306Y-95093628D02*
X91643925Y-94998390D01*
X91643925Y-94998390D02*
X91691544Y-94950771D01*
X91691544Y-94950771D02*
X91786782Y-94903152D01*
X91786782Y-94903152D02*
X91882020Y-94903152D01*
X92596306Y-95522200D02*
X92501068Y-95569819D01*
X92501068Y-95569819D02*
X92310592Y-95569819D01*
X92310592Y-95569819D02*
X92215354Y-95522200D01*
X92215354Y-95522200D02*
X92167735Y-95426961D01*
X92167735Y-95426961D02*
X92167735Y-95046009D01*
X92167735Y-95046009D02*
X92215354Y-94950771D01*
X92215354Y-94950771D02*
X92310592Y-94903152D01*
X92310592Y-94903152D02*
X92501068Y-94903152D01*
X92501068Y-94903152D02*
X92596306Y-94950771D01*
X92596306Y-94950771D02*
X92643925Y-95046009D01*
X92643925Y-95046009D02*
X92643925Y-95141247D01*
X92643925Y-95141247D02*
X92167735Y-95236485D01*
X93072497Y-95188866D02*
X93834402Y-95188866D01*
X94739163Y-95569819D02*
X94739163Y-94569819D01*
X94739163Y-95522200D02*
X94643925Y-95569819D01*
X94643925Y-95569819D02*
X94453449Y-95569819D01*
X94453449Y-95569819D02*
X94358211Y-95522200D01*
X94358211Y-95522200D02*
X94310592Y-95474580D01*
X94310592Y-95474580D02*
X94262973Y-95379342D01*
X94262973Y-95379342D02*
X94262973Y-95093628D01*
X94262973Y-95093628D02*
X94310592Y-94998390D01*
X94310592Y-94998390D02*
X94358211Y-94950771D01*
X94358211Y-94950771D02*
X94453449Y-94903152D01*
X94453449Y-94903152D02*
X94643925Y-94903152D01*
X94643925Y-94903152D02*
X94739163Y-94950771D01*
X95596306Y-95522200D02*
X95501068Y-95569819D01*
X95501068Y-95569819D02*
X95310592Y-95569819D01*
X95310592Y-95569819D02*
X95215354Y-95522200D01*
X95215354Y-95522200D02*
X95167735Y-95426961D01*
X95167735Y-95426961D02*
X95167735Y-95046009D01*
X95167735Y-95046009D02*
X95215354Y-94950771D01*
X95215354Y-94950771D02*
X95310592Y-94903152D01*
X95310592Y-94903152D02*
X95501068Y-94903152D01*
X95501068Y-94903152D02*
X95596306Y-94950771D01*
X95596306Y-94950771D02*
X95643925Y-95046009D01*
X95643925Y-95046009D02*
X95643925Y-95141247D01*
X95643925Y-95141247D02*
X95167735Y-95236485D01*
X95977259Y-94903152D02*
X96215354Y-95569819D01*
X96215354Y-95569819D02*
X96453449Y-94903152D01*
D11*
X77723558Y-89789638D02*
X77723558Y-87789638D01*
X77723558Y-87789638D02*
X78390225Y-89218209D01*
X78390225Y-89218209D02*
X79056891Y-87789638D01*
X79056891Y-87789638D02*
X79056891Y-89789638D01*
X80675939Y-88742019D02*
X80961653Y-88837257D01*
X80961653Y-88837257D02*
X81056891Y-88932495D01*
X81056891Y-88932495D02*
X81152129Y-89122971D01*
X81152129Y-89122971D02*
X81152129Y-89408685D01*
X81152129Y-89408685D02*
X81056891Y-89599161D01*
X81056891Y-89599161D02*
X80961653Y-89694400D01*
X80961653Y-89694400D02*
X80771177Y-89789638D01*
X80771177Y-89789638D02*
X80009272Y-89789638D01*
X80009272Y-89789638D02*
X80009272Y-87789638D01*
X80009272Y-87789638D02*
X80675939Y-87789638D01*
X80675939Y-87789638D02*
X80866415Y-87884876D01*
X80866415Y-87884876D02*
X80961653Y-87980114D01*
X80961653Y-87980114D02*
X81056891Y-88170590D01*
X81056891Y-88170590D02*
X81056891Y-88361066D01*
X81056891Y-88361066D02*
X80961653Y-88551542D01*
X80961653Y-88551542D02*
X80866415Y-88646780D01*
X80866415Y-88646780D02*
X80675939Y-88742019D01*
X80675939Y-88742019D02*
X80009272Y-88742019D01*
X82009272Y-89027733D02*
X83533082Y-89027733D01*
X85533081Y-89789638D02*
X84390224Y-89789638D01*
X84961652Y-89789638D02*
X84961652Y-87789638D01*
X84961652Y-87789638D02*
X84771176Y-88075352D01*
X84771176Y-88075352D02*
X84580700Y-88265828D01*
X84580700Y-88265828D02*
X84390224Y-88361066D01*
X86390224Y-89027733D02*
X87914034Y-89027733D01*
X89914033Y-89789638D02*
X88771176Y-89789638D01*
X89342604Y-89789638D02*
X89342604Y-87789638D01*
X89342604Y-87789638D02*
X89152128Y-88075352D01*
X89152128Y-88075352D02*
X88961652Y-88265828D01*
X88961652Y-88265828D02*
X88771176Y-88361066D01*
X91628319Y-87789638D02*
X91247366Y-87789638D01*
X91247366Y-87789638D02*
X91056890Y-87884876D01*
X91056890Y-87884876D02*
X90961652Y-87980114D01*
X90961652Y-87980114D02*
X90771176Y-88265828D01*
X90771176Y-88265828D02*
X90675938Y-88646780D01*
X90675938Y-88646780D02*
X90675938Y-89408685D01*
X90675938Y-89408685D02*
X90771176Y-89599161D01*
X90771176Y-89599161D02*
X90866414Y-89694400D01*
X90866414Y-89694400D02*
X91056890Y-89789638D01*
X91056890Y-89789638D02*
X91437843Y-89789638D01*
X91437843Y-89789638D02*
X91628319Y-89694400D01*
X91628319Y-89694400D02*
X91723557Y-89599161D01*
X91723557Y-89599161D02*
X91818795Y-89408685D01*
X91818795Y-89408685D02*
X91818795Y-88932495D01*
X91818795Y-88932495D02*
X91723557Y-88742019D01*
X91723557Y-88742019D02*
X91628319Y-88646780D01*
X91628319Y-88646780D02*
X91437843Y-88551542D01*
X91437843Y-88551542D02*
X91056890Y-88551542D01*
X91056890Y-88551542D02*
X90866414Y-88646780D01*
X90866414Y-88646780D02*
X90771176Y-88742019D01*
X90771176Y-88742019D02*
X90675938Y-88932495D01*
D10*
X78215350Y-97222200D02*
X78120112Y-97269819D01*
X78120112Y-97269819D02*
X77929636Y-97269819D01*
X77929636Y-97269819D02*
X77834398Y-97222200D01*
X77834398Y-97222200D02*
X77786779Y-97174580D01*
X77786779Y-97174580D02*
X77739160Y-97079342D01*
X77739160Y-97079342D02*
X77739160Y-96793628D01*
X77739160Y-96793628D02*
X77786779Y-96698390D01*
X77786779Y-96698390D02*
X77834398Y-96650771D01*
X77834398Y-96650771D02*
X77929636Y-96603152D01*
X77929636Y-96603152D02*
X78120112Y-96603152D01*
X78120112Y-96603152D02*
X78215350Y-96650771D01*
X78786779Y-97269819D02*
X78691541Y-97222200D01*
X78691541Y-97222200D02*
X78643922Y-97174580D01*
X78643922Y-97174580D02*
X78596303Y-97079342D01*
X78596303Y-97079342D02*
X78596303Y-96793628D01*
X78596303Y-96793628D02*
X78643922Y-96698390D01*
X78643922Y-96698390D02*
X78691541Y-96650771D01*
X78691541Y-96650771D02*
X78786779Y-96603152D01*
X78786779Y-96603152D02*
X78929636Y-96603152D01*
X78929636Y-96603152D02*
X79024874Y-96650771D01*
X79024874Y-96650771D02*
X79072493Y-96698390D01*
X79072493Y-96698390D02*
X79120112Y-96793628D01*
X79120112Y-96793628D02*
X79120112Y-97079342D01*
X79120112Y-97079342D02*
X79072493Y-97174580D01*
X79072493Y-97174580D02*
X79024874Y-97222200D01*
X79024874Y-97222200D02*
X78929636Y-97269819D01*
X78929636Y-97269819D02*
X78786779Y-97269819D01*
X79548684Y-97269819D02*
X79548684Y-96603152D01*
X79548684Y-96698390D02*
X79596303Y-96650771D01*
X79596303Y-96650771D02*
X79691541Y-96603152D01*
X79691541Y-96603152D02*
X79834398Y-96603152D01*
X79834398Y-96603152D02*
X79929636Y-96650771D01*
X79929636Y-96650771D02*
X79977255Y-96746009D01*
X79977255Y-96746009D02*
X79977255Y-97269819D01*
X79977255Y-96746009D02*
X80024874Y-96650771D01*
X80024874Y-96650771D02*
X80120112Y-96603152D01*
X80120112Y-96603152D02*
X80262969Y-96603152D01*
X80262969Y-96603152D02*
X80358208Y-96650771D01*
X80358208Y-96650771D02*
X80405827Y-96746009D01*
X80405827Y-96746009D02*
X80405827Y-97269819D01*
X80882017Y-97269819D02*
X80882017Y-96603152D01*
X80882017Y-96698390D02*
X80929636Y-96650771D01*
X80929636Y-96650771D02*
X81024874Y-96603152D01*
X81024874Y-96603152D02*
X81167731Y-96603152D01*
X81167731Y-96603152D02*
X81262969Y-96650771D01*
X81262969Y-96650771D02*
X81310588Y-96746009D01*
X81310588Y-96746009D02*
X81310588Y-97269819D01*
X81310588Y-96746009D02*
X81358207Y-96650771D01*
X81358207Y-96650771D02*
X81453445Y-96603152D01*
X81453445Y-96603152D02*
X81596302Y-96603152D01*
X81596302Y-96603152D02*
X81691541Y-96650771D01*
X81691541Y-96650771D02*
X81739160Y-96746009D01*
X81739160Y-96746009D02*
X81739160Y-97269819D01*
X82215350Y-97269819D02*
X82215350Y-96603152D01*
X82215350Y-96269819D02*
X82167731Y-96317438D01*
X82167731Y-96317438D02*
X82215350Y-96365057D01*
X82215350Y-96365057D02*
X82262969Y-96317438D01*
X82262969Y-96317438D02*
X82215350Y-96269819D01*
X82215350Y-96269819D02*
X82215350Y-96365057D01*
X82548683Y-96603152D02*
X82929635Y-96603152D01*
X82691540Y-96269819D02*
X82691540Y-97126961D01*
X82691540Y-97126961D02*
X82739159Y-97222200D01*
X82739159Y-97222200D02*
X82834397Y-97269819D01*
X82834397Y-97269819D02*
X82929635Y-97269819D01*
X83262969Y-97174580D02*
X83310588Y-97222200D01*
X83310588Y-97222200D02*
X83262969Y-97269819D01*
X83262969Y-97269819D02*
X83215350Y-97222200D01*
X83215350Y-97222200D02*
X83262969Y-97174580D01*
X83262969Y-97174580D02*
X83262969Y-97269819D01*
X83262969Y-96650771D02*
X83310588Y-96698390D01*
X83310588Y-96698390D02*
X83262969Y-96746009D01*
X83262969Y-96746009D02*
X83215350Y-96698390D01*
X83215350Y-96698390D02*
X83262969Y-96650771D01*
X83262969Y-96650771D02*
X83262969Y-96746009D01*
X84929635Y-97269819D02*
X84929635Y-96269819D01*
X84929635Y-97222200D02*
X84834397Y-97269819D01*
X84834397Y-97269819D02*
X84643921Y-97269819D01*
X84643921Y-97269819D02*
X84548683Y-97222200D01*
X84548683Y-97222200D02*
X84501064Y-97174580D01*
X84501064Y-97174580D02*
X84453445Y-97079342D01*
X84453445Y-97079342D02*
X84453445Y-96793628D01*
X84453445Y-96793628D02*
X84501064Y-96698390D01*
X84501064Y-96698390D02*
X84548683Y-96650771D01*
X84548683Y-96650771D02*
X84643921Y-96603152D01*
X84643921Y-96603152D02*
X84834397Y-96603152D01*
X84834397Y-96603152D02*
X84929635Y-96650771D01*
X85786778Y-97222200D02*
X85691540Y-97269819D01*
X85691540Y-97269819D02*
X85501064Y-97269819D01*
X85501064Y-97269819D02*
X85405826Y-97222200D01*
X85405826Y-97222200D02*
X85358207Y-97126961D01*
X85358207Y-97126961D02*
X85358207Y-96746009D01*
X85358207Y-96746009D02*
X85405826Y-96650771D01*
X85405826Y-96650771D02*
X85501064Y-96603152D01*
X85501064Y-96603152D02*
X85691540Y-96603152D01*
X85691540Y-96603152D02*
X85786778Y-96650771D01*
X85786778Y-96650771D02*
X85834397Y-96746009D01*
X85834397Y-96746009D02*
X85834397Y-96841247D01*
X85834397Y-96841247D02*
X85358207Y-96936485D01*
X86167731Y-96269819D02*
X86834397Y-96269819D01*
X86834397Y-96269819D02*
X86405826Y-97269819D01*
X87643921Y-96269819D02*
X87453445Y-96269819D01*
X87453445Y-96269819D02*
X87358207Y-96317438D01*
X87358207Y-96317438D02*
X87310588Y-96365057D01*
X87310588Y-96365057D02*
X87215350Y-96507914D01*
X87215350Y-96507914D02*
X87167731Y-96698390D01*
X87167731Y-96698390D02*
X87167731Y-97079342D01*
X87167731Y-97079342D02*
X87215350Y-97174580D01*
X87215350Y-97174580D02*
X87262969Y-97222200D01*
X87262969Y-97222200D02*
X87358207Y-97269819D01*
X87358207Y-97269819D02*
X87548683Y-97269819D01*
X87548683Y-97269819D02*
X87643921Y-97222200D01*
X87643921Y-97222200D02*
X87691540Y-97174580D01*
X87691540Y-97174580D02*
X87739159Y-97079342D01*
X87739159Y-97079342D02*
X87739159Y-96841247D01*
X87739159Y-96841247D02*
X87691540Y-96746009D01*
X87691540Y-96746009D02*
X87643921Y-96698390D01*
X87643921Y-96698390D02*
X87548683Y-96650771D01*
X87548683Y-96650771D02*
X87358207Y-96650771D01*
X87358207Y-96650771D02*
X87262969Y-96698390D01*
X87262969Y-96698390D02*
X87215350Y-96746009D01*
X87215350Y-96746009D02*
X87167731Y-96841247D01*
X88215350Y-97269819D02*
X88405826Y-97269819D01*
X88405826Y-97269819D02*
X88501064Y-97222200D01*
X88501064Y-97222200D02*
X88548683Y-97174580D01*
X88548683Y-97174580D02*
X88643921Y-97031723D01*
X88643921Y-97031723D02*
X88691540Y-96841247D01*
X88691540Y-96841247D02*
X88691540Y-96460295D01*
X88691540Y-96460295D02*
X88643921Y-96365057D01*
X88643921Y-96365057D02*
X88596302Y-96317438D01*
X88596302Y-96317438D02*
X88501064Y-96269819D01*
X88501064Y-96269819D02*
X88310588Y-96269819D01*
X88310588Y-96269819D02*
X88215350Y-96317438D01*
X88215350Y-96317438D02*
X88167731Y-96365057D01*
X88167731Y-96365057D02*
X88120112Y-96460295D01*
X88120112Y-96460295D02*
X88120112Y-96698390D01*
X88120112Y-96698390D02*
X88167731Y-96793628D01*
X88167731Y-96793628D02*
X88215350Y-96841247D01*
X88215350Y-96841247D02*
X88310588Y-96888866D01*
X88310588Y-96888866D02*
X88501064Y-96888866D01*
X88501064Y-96888866D02*
X88596302Y-96841247D01*
X88596302Y-96841247D02*
X88643921Y-96793628D01*
X88643921Y-96793628D02*
X88691540Y-96698390D01*
X89548683Y-97269819D02*
X89548683Y-96269819D01*
X89548683Y-97222200D02*
X89453445Y-97269819D01*
X89453445Y-97269819D02*
X89262969Y-97269819D01*
X89262969Y-97269819D02*
X89167731Y-97222200D01*
X89167731Y-97222200D02*
X89120112Y-97174580D01*
X89120112Y-97174580D02*
X89072493Y-97079342D01*
X89072493Y-97079342D02*
X89072493Y-96793628D01*
X89072493Y-96793628D02*
X89120112Y-96698390D01*
X89120112Y-96698390D02*
X89167731Y-96650771D01*
X89167731Y-96650771D02*
X89262969Y-96603152D01*
X89262969Y-96603152D02*
X89453445Y-96603152D01*
X89453445Y-96603152D02*
X89548683Y-96650771D01*
X90453445Y-97269819D02*
X90453445Y-96269819D01*
X90453445Y-97222200D02*
X90358207Y-97269819D01*
X90358207Y-97269819D02*
X90167731Y-97269819D01*
X90167731Y-97269819D02*
X90072493Y-97222200D01*
X90072493Y-97222200D02*
X90024874Y-97174580D01*
X90024874Y-97174580D02*
X89977255Y-97079342D01*
X89977255Y-97079342D02*
X89977255Y-96793628D01*
X89977255Y-96793628D02*
X90024874Y-96698390D01*
X90024874Y-96698390D02*
X90072493Y-96650771D01*
X90072493Y-96650771D02*
X90167731Y-96603152D01*
X90167731Y-96603152D02*
X90358207Y-96603152D01*
X90358207Y-96603152D02*
X90453445Y-96650771D01*
D12*
X78545863Y-92256028D02*
X78045863Y-91541742D01*
X77688720Y-92256028D02*
X77688720Y-90756028D01*
X77688720Y-90756028D02*
X78260149Y-90756028D01*
X78260149Y-90756028D02*
X78403006Y-90827457D01*
X78403006Y-90827457D02*
X78474435Y-90898885D01*
X78474435Y-90898885D02*
X78545863Y-91041742D01*
X78545863Y-91041742D02*
X78545863Y-91256028D01*
X78545863Y-91256028D02*
X78474435Y-91398885D01*
X78474435Y-91398885D02*
X78403006Y-91470314D01*
X78403006Y-91470314D02*
X78260149Y-91541742D01*
X78260149Y-91541742D02*
X77688720Y-91541742D01*
X79188720Y-91470314D02*
X79688720Y-91470314D01*
X79903006Y-92256028D02*
X79188720Y-92256028D01*
X79188720Y-92256028D02*
X79188720Y-90756028D01*
X79188720Y-90756028D02*
X79903006Y-90756028D01*
X80331578Y-90756028D02*
X80831578Y-92256028D01*
X80831578Y-92256028D02*
X81331578Y-90756028D01*
X83260149Y-90756028D02*
X83403006Y-90756028D01*
X83403006Y-90756028D02*
X83545863Y-90827457D01*
X83545863Y-90827457D02*
X83617292Y-90898885D01*
X83617292Y-90898885D02*
X83688720Y-91041742D01*
X83688720Y-91041742D02*
X83760149Y-91327457D01*
X83760149Y-91327457D02*
X83760149Y-91684600D01*
X83760149Y-91684600D02*
X83688720Y-91970314D01*
X83688720Y-91970314D02*
X83617292Y-92113171D01*
X83617292Y-92113171D02*
X83545863Y-92184600D01*
X83545863Y-92184600D02*
X83403006Y-92256028D01*
X83403006Y-92256028D02*
X83260149Y-92256028D01*
X83260149Y-92256028D02*
X83117292Y-92184600D01*
X83117292Y-92184600D02*
X83045863Y-92113171D01*
X83045863Y-92113171D02*
X82974434Y-91970314D01*
X82974434Y-91970314D02*
X82903006Y-91684600D01*
X82903006Y-91684600D02*
X82903006Y-91327457D01*
X82903006Y-91327457D02*
X82974434Y-91041742D01*
X82974434Y-91041742D02*
X83045863Y-90898885D01*
X83045863Y-90898885D02*
X83117292Y-90827457D01*
X83117292Y-90827457D02*
X83260149Y-90756028D01*
X84403005Y-92113171D02*
X84474434Y-92184600D01*
X84474434Y-92184600D02*
X84403005Y-92256028D01*
X84403005Y-92256028D02*
X84331577Y-92184600D01*
X84331577Y-92184600D02*
X84403005Y-92113171D01*
X84403005Y-92113171D02*
X84403005Y-92256028D01*
X85903006Y-92256028D02*
X85045863Y-92256028D01*
X85474434Y-92256028D02*
X85474434Y-90756028D01*
X85474434Y-90756028D02*
X85331577Y-90970314D01*
X85331577Y-90970314D02*
X85188720Y-91113171D01*
X85188720Y-91113171D02*
X85045863Y-91184600D01*
D10*
X92791666Y-112054819D02*
X92791666Y-112769104D01*
X92791666Y-112769104D02*
X92744047Y-112911961D01*
X92744047Y-112911961D02*
X92648809Y-113007200D01*
X92648809Y-113007200D02*
X92505952Y-113054819D01*
X92505952Y-113054819D02*
X92410714Y-113054819D01*
X93696428Y-112388152D02*
X93696428Y-113054819D01*
X93458333Y-112007200D02*
X93220238Y-112721485D01*
X93220238Y-112721485D02*
X93839285Y-112721485D01*
X82791666Y-112054819D02*
X82791666Y-112769104D01*
X82791666Y-112769104D02*
X82744047Y-112911961D01*
X82744047Y-112911961D02*
X82648809Y-113007200D01*
X82648809Y-113007200D02*
X82505952Y-113054819D01*
X82505952Y-113054819D02*
X82410714Y-113054819D01*
X83172619Y-112054819D02*
X83791666Y-112054819D01*
X83791666Y-112054819D02*
X83458333Y-112435771D01*
X83458333Y-112435771D02*
X83601190Y-112435771D01*
X83601190Y-112435771D02*
X83696428Y-112483390D01*
X83696428Y-112483390D02*
X83744047Y-112531009D01*
X83744047Y-112531009D02*
X83791666Y-112626247D01*
X83791666Y-112626247D02*
X83791666Y-112864342D01*
X83791666Y-112864342D02*
X83744047Y-112959580D01*
X83744047Y-112959580D02*
X83696428Y-113007200D01*
X83696428Y-113007200D02*
X83601190Y-113054819D01*
X83601190Y-113054819D02*
X83315476Y-113054819D01*
X83315476Y-113054819D02*
X83220238Y-113007200D01*
X83220238Y-113007200D02*
X83172619Y-112959580D01*
D13*
%TO.C,REF\u002A\u002A*%
X90927600Y-108483752D02*
X90944948Y-108491334D01*
X90986356Y-108524128D01*
X91021765Y-108571547D01*
X91043664Y-108622151D01*
X91047229Y-108647098D01*
X91035279Y-108681927D01*
X91009067Y-108700357D01*
X90980964Y-108711516D01*
X90968095Y-108713572D01*
X90961829Y-108698649D01*
X90949456Y-108666175D01*
X90944028Y-108651502D01*
X90913590Y-108600744D01*
X90869520Y-108575427D01*
X90813010Y-108576206D01*
X90808825Y-108577203D01*
X90778655Y-108591507D01*
X90756476Y-108619393D01*
X90741327Y-108664287D01*
X90732250Y-108729615D01*
X90728286Y-108818804D01*
X90727914Y-108866261D01*
X90727730Y-108941071D01*
X90726522Y-108992069D01*
X90723309Y-109024471D01*
X90717109Y-109043495D01*
X90706940Y-109054356D01*
X90691819Y-109062272D01*
X90690946Y-109062670D01*
X90661828Y-109074981D01*
X90647403Y-109079514D01*
X90645186Y-109065809D01*
X90643289Y-109027925D01*
X90641847Y-108970715D01*
X90640998Y-108899027D01*
X90640829Y-108846565D01*
X90641692Y-108745047D01*
X90645070Y-108668032D01*
X90652142Y-108611023D01*
X90664088Y-108569526D01*
X90682090Y-108539043D01*
X90707327Y-108515080D01*
X90732247Y-108498355D01*
X90792171Y-108476097D01*
X90861911Y-108471076D01*
X90927600Y-108483752D01*
G36*
X90927600Y-108483752D02*
G01*
X90944948Y-108491334D01*
X90986356Y-108524128D01*
X91021765Y-108571547D01*
X91043664Y-108622151D01*
X91047229Y-108647098D01*
X91035279Y-108681927D01*
X91009067Y-108700357D01*
X90980964Y-108711516D01*
X90968095Y-108713572D01*
X90961829Y-108698649D01*
X90949456Y-108666175D01*
X90944028Y-108651502D01*
X90913590Y-108600744D01*
X90869520Y-108575427D01*
X90813010Y-108576206D01*
X90808825Y-108577203D01*
X90778655Y-108591507D01*
X90756476Y-108619393D01*
X90741327Y-108664287D01*
X90732250Y-108729615D01*
X90728286Y-108818804D01*
X90727914Y-108866261D01*
X90727730Y-108941071D01*
X90726522Y-108992069D01*
X90723309Y-109024471D01*
X90717109Y-109043495D01*
X90706940Y-109054356D01*
X90691819Y-109062272D01*
X90690946Y-109062670D01*
X90661828Y-109074981D01*
X90647403Y-109079514D01*
X90645186Y-109065809D01*
X90643289Y-109027925D01*
X90641847Y-108970715D01*
X90640998Y-108899027D01*
X90640829Y-108846565D01*
X90641692Y-108745047D01*
X90645070Y-108668032D01*
X90652142Y-108611023D01*
X90664088Y-108569526D01*
X90682090Y-108539043D01*
X90707327Y-108515080D01*
X90732247Y-108498355D01*
X90792171Y-108476097D01*
X90861911Y-108471076D01*
X90927600Y-108483752D01*
G37*
X86991093Y-108452780D02*
X87037672Y-108479723D01*
X87070057Y-108506466D01*
X87093742Y-108534484D01*
X87110059Y-108568748D01*
X87120339Y-108614227D01*
X87125914Y-108675892D01*
X87128116Y-108758711D01*
X87128371Y-108818246D01*
X87128371Y-109037391D01*
X87066686Y-109065044D01*
X87005000Y-109092697D01*
X86997743Y-108852670D01*
X86994744Y-108763028D01*
X86991598Y-108697962D01*
X86987701Y-108653026D01*
X86982447Y-108623770D01*
X86975231Y-108605748D01*
X86965450Y-108594511D01*
X86962312Y-108592079D01*
X86914761Y-108573083D01*
X86866697Y-108580600D01*
X86838086Y-108600543D01*
X86826447Y-108614675D01*
X86818391Y-108633220D01*
X86813271Y-108661334D01*
X86810441Y-108704173D01*
X86809256Y-108766895D01*
X86809057Y-108832261D01*
X86809018Y-108914268D01*
X86807614Y-108972316D01*
X86802914Y-109011465D01*
X86792987Y-109036780D01*
X86775903Y-109053323D01*
X86749732Y-109066156D01*
X86714775Y-109079491D01*
X86676596Y-109094007D01*
X86681141Y-108836389D01*
X86682971Y-108743519D01*
X86685112Y-108674889D01*
X86688181Y-108625711D01*
X86692794Y-108591198D01*
X86699568Y-108566562D01*
X86709119Y-108547016D01*
X86720634Y-108529770D01*
X86776190Y-108474680D01*
X86843980Y-108442822D01*
X86917713Y-108435191D01*
X86991093Y-108452780D01*
G36*
X86991093Y-108452780D02*
G01*
X87037672Y-108479723D01*
X87070057Y-108506466D01*
X87093742Y-108534484D01*
X87110059Y-108568748D01*
X87120339Y-108614227D01*
X87125914Y-108675892D01*
X87128116Y-108758711D01*
X87128371Y-108818246D01*
X87128371Y-109037391D01*
X87066686Y-109065044D01*
X87005000Y-109092697D01*
X86997743Y-108852670D01*
X86994744Y-108763028D01*
X86991598Y-108697962D01*
X86987701Y-108653026D01*
X86982447Y-108623770D01*
X86975231Y-108605748D01*
X86965450Y-108594511D01*
X86962312Y-108592079D01*
X86914761Y-108573083D01*
X86866697Y-108580600D01*
X86838086Y-108600543D01*
X86826447Y-108614675D01*
X86818391Y-108633220D01*
X86813271Y-108661334D01*
X86810441Y-108704173D01*
X86809256Y-108766895D01*
X86809057Y-108832261D01*
X86809018Y-108914268D01*
X86807614Y-108972316D01*
X86802914Y-109011465D01*
X86792987Y-109036780D01*
X86775903Y-109053323D01*
X86749732Y-109066156D01*
X86714775Y-109079491D01*
X86676596Y-109094007D01*
X86681141Y-108836389D01*
X86682971Y-108743519D01*
X86685112Y-108674889D01*
X86688181Y-108625711D01*
X86692794Y-108591198D01*
X86699568Y-108566562D01*
X86709119Y-108547016D01*
X86720634Y-108529770D01*
X86776190Y-108474680D01*
X86843980Y-108442822D01*
X86917713Y-108435191D01*
X86991093Y-108452780D01*
G37*
X88804926Y-108474755D02*
X88870858Y-108499084D01*
X88924273Y-108542117D01*
X88945164Y-108572409D01*
X88967939Y-108627994D01*
X88967466Y-108668186D01*
X88943562Y-108695217D01*
X88934717Y-108699813D01*
X88896530Y-108714144D01*
X88877028Y-108710472D01*
X88870422Y-108686407D01*
X88870086Y-108673114D01*
X88857992Y-108624210D01*
X88826471Y-108589999D01*
X88782659Y-108573476D01*
X88733695Y-108577634D01*
X88693894Y-108599227D01*
X88680450Y-108611544D01*
X88670921Y-108626487D01*
X88664485Y-108649075D01*
X88660317Y-108684328D01*
X88657597Y-108737266D01*
X88655502Y-108812907D01*
X88654960Y-108836857D01*
X88652981Y-108918790D01*
X88650731Y-108976455D01*
X88647357Y-109014608D01*
X88642006Y-109038004D01*
X88633824Y-109051398D01*
X88621959Y-109059545D01*
X88614362Y-109063144D01*
X88582102Y-109075452D01*
X88563111Y-109079514D01*
X88556836Y-109065948D01*
X88553006Y-109024934D01*
X88551600Y-108955999D01*
X88552598Y-108858669D01*
X88552908Y-108843657D01*
X88555101Y-108754859D01*
X88557693Y-108690019D01*
X88561382Y-108644067D01*
X88566864Y-108611935D01*
X88574835Y-108588553D01*
X88585993Y-108568852D01*
X88591830Y-108560410D01*
X88625296Y-108523057D01*
X88662727Y-108494003D01*
X88667309Y-108491467D01*
X88734426Y-108471443D01*
X88804926Y-108474755D01*
G36*
X88804926Y-108474755D02*
G01*
X88870858Y-108499084D01*
X88924273Y-108542117D01*
X88945164Y-108572409D01*
X88967939Y-108627994D01*
X88967466Y-108668186D01*
X88943562Y-108695217D01*
X88934717Y-108699813D01*
X88896530Y-108714144D01*
X88877028Y-108710472D01*
X88870422Y-108686407D01*
X88870086Y-108673114D01*
X88857992Y-108624210D01*
X88826471Y-108589999D01*
X88782659Y-108573476D01*
X88733695Y-108577634D01*
X88693894Y-108599227D01*
X88680450Y-108611544D01*
X88670921Y-108626487D01*
X88664485Y-108649075D01*
X88660317Y-108684328D01*
X88657597Y-108737266D01*
X88655502Y-108812907D01*
X88654960Y-108836857D01*
X88652981Y-108918790D01*
X88650731Y-108976455D01*
X88647357Y-109014608D01*
X88642006Y-109038004D01*
X88633824Y-109051398D01*
X88621959Y-109059545D01*
X88614362Y-109063144D01*
X88582102Y-109075452D01*
X88563111Y-109079514D01*
X88556836Y-109065948D01*
X88553006Y-109024934D01*
X88551600Y-108955999D01*
X88552598Y-108858669D01*
X88552908Y-108843657D01*
X88555101Y-108754859D01*
X88557693Y-108690019D01*
X88561382Y-108644067D01*
X88566864Y-108611935D01*
X88574835Y-108588553D01*
X88585993Y-108568852D01*
X88591830Y-108560410D01*
X88625296Y-108523057D01*
X88662727Y-108494003D01*
X88667309Y-108491467D01*
X88734426Y-108471443D01*
X88804926Y-108474755D01*
G37*
X87650886Y-108376289D02*
X87655139Y-108435613D01*
X87660025Y-108470572D01*
X87666795Y-108485820D01*
X87676702Y-108486015D01*
X87679914Y-108484195D01*
X87722644Y-108471015D01*
X87778227Y-108471785D01*
X87834737Y-108485333D01*
X87870082Y-108502861D01*
X87906321Y-108530861D01*
X87932813Y-108562549D01*
X87950999Y-108602813D01*
X87962322Y-108656543D01*
X87968222Y-108728626D01*
X87970143Y-108823951D01*
X87970177Y-108842237D01*
X87970200Y-109047646D01*
X87924491Y-109063580D01*
X87892027Y-109074420D01*
X87874215Y-109079468D01*
X87873691Y-109079514D01*
X87871937Y-109065828D01*
X87870444Y-109028076D01*
X87869326Y-108971224D01*
X87868697Y-108900234D01*
X87868600Y-108857073D01*
X87868398Y-108771973D01*
X87867358Y-108710981D01*
X87864831Y-108669177D01*
X87860164Y-108641642D01*
X87852707Y-108623456D01*
X87841811Y-108609698D01*
X87835007Y-108603073D01*
X87788272Y-108576375D01*
X87737272Y-108574375D01*
X87691001Y-108596955D01*
X87682444Y-108605107D01*
X87669893Y-108620436D01*
X87661188Y-108638618D01*
X87655631Y-108664909D01*
X87652526Y-108704562D01*
X87651176Y-108762832D01*
X87650886Y-108843173D01*
X87650886Y-109047646D01*
X87605177Y-109063580D01*
X87572713Y-109074420D01*
X87554901Y-109079468D01*
X87554377Y-109079514D01*
X87553037Y-109065623D01*
X87551828Y-109026439D01*
X87550801Y-108965700D01*
X87550002Y-108887141D01*
X87549481Y-108794498D01*
X87549286Y-108691509D01*
X87549286Y-108294342D01*
X87596457Y-108274444D01*
X87643629Y-108254547D01*
X87650886Y-108376289D01*
G36*
X87650886Y-108376289D02*
G01*
X87655139Y-108435613D01*
X87660025Y-108470572D01*
X87666795Y-108485820D01*
X87676702Y-108486015D01*
X87679914Y-108484195D01*
X87722644Y-108471015D01*
X87778227Y-108471785D01*
X87834737Y-108485333D01*
X87870082Y-108502861D01*
X87906321Y-108530861D01*
X87932813Y-108562549D01*
X87950999Y-108602813D01*
X87962322Y-108656543D01*
X87968222Y-108728626D01*
X87970143Y-108823951D01*
X87970177Y-108842237D01*
X87970200Y-109047646D01*
X87924491Y-109063580D01*
X87892027Y-109074420D01*
X87874215Y-109079468D01*
X87873691Y-109079514D01*
X87871937Y-109065828D01*
X87870444Y-109028076D01*
X87869326Y-108971224D01*
X87868697Y-108900234D01*
X87868600Y-108857073D01*
X87868398Y-108771973D01*
X87867358Y-108710981D01*
X87864831Y-108669177D01*
X87860164Y-108641642D01*
X87852707Y-108623456D01*
X87841811Y-108609698D01*
X87835007Y-108603073D01*
X87788272Y-108576375D01*
X87737272Y-108574375D01*
X87691001Y-108596955D01*
X87682444Y-108605107D01*
X87669893Y-108620436D01*
X87661188Y-108638618D01*
X87655631Y-108664909D01*
X87652526Y-108704562D01*
X87651176Y-108762832D01*
X87650886Y-108843173D01*
X87650886Y-109047646D01*
X87605177Y-109063580D01*
X87572713Y-109074420D01*
X87554901Y-109079468D01*
X87554377Y-109079514D01*
X87553037Y-109065623D01*
X87551828Y-109026439D01*
X87550801Y-108965700D01*
X87550002Y-108887141D01*
X87549481Y-108794498D01*
X87549286Y-108691509D01*
X87549286Y-108294342D01*
X87596457Y-108274444D01*
X87643629Y-108254547D01*
X87650886Y-108376289D01*
G37*
X90054833Y-108483663D02*
X90057048Y-108521850D01*
X90058784Y-108579886D01*
X90059899Y-108653180D01*
X90060257Y-108730055D01*
X90060257Y-108990196D01*
X90014326Y-109036127D01*
X89982675Y-109064429D01*
X89954890Y-109075893D01*
X89916915Y-109075168D01*
X89901840Y-109073321D01*
X89854726Y-109067948D01*
X89815756Y-109064869D01*
X89806257Y-109064585D01*
X89774233Y-109066445D01*
X89728432Y-109071114D01*
X89710674Y-109073321D01*
X89667057Y-109076735D01*
X89637745Y-109069320D01*
X89608680Y-109046427D01*
X89598188Y-109036127D01*
X89552257Y-108990196D01*
X89552257Y-108503602D01*
X89589226Y-108486758D01*
X89621059Y-108474282D01*
X89639683Y-108469914D01*
X89644458Y-108483718D01*
X89648921Y-108522286D01*
X89652775Y-108581356D01*
X89655722Y-108656663D01*
X89657143Y-108720286D01*
X89661114Y-108970657D01*
X89695759Y-108975556D01*
X89727268Y-108972131D01*
X89742708Y-108961041D01*
X89747023Y-108940308D01*
X89750708Y-108896145D01*
X89753469Y-108834146D01*
X89755012Y-108759909D01*
X89755235Y-108721706D01*
X89755457Y-108501783D01*
X89801166Y-108485849D01*
X89833518Y-108475015D01*
X89851115Y-108469962D01*
X89851623Y-108469914D01*
X89853388Y-108483648D01*
X89855329Y-108521730D01*
X89857282Y-108579482D01*
X89859084Y-108652227D01*
X89860343Y-108720286D01*
X89864314Y-108970657D01*
X89951400Y-108970657D01*
X89955396Y-108742240D01*
X89959392Y-108513822D01*
X90001847Y-108491868D01*
X90033192Y-108476793D01*
X90051744Y-108469951D01*
X90052279Y-108469914D01*
X90054833Y-108483663D01*
G36*
X90054833Y-108483663D02*
G01*
X90057048Y-108521850D01*
X90058784Y-108579886D01*
X90059899Y-108653180D01*
X90060257Y-108730055D01*
X90060257Y-108990196D01*
X90014326Y-109036127D01*
X89982675Y-109064429D01*
X89954890Y-109075893D01*
X89916915Y-109075168D01*
X89901840Y-109073321D01*
X89854726Y-109067948D01*
X89815756Y-109064869D01*
X89806257Y-109064585D01*
X89774233Y-109066445D01*
X89728432Y-109071114D01*
X89710674Y-109073321D01*
X89667057Y-109076735D01*
X89637745Y-109069320D01*
X89608680Y-109046427D01*
X89598188Y-109036127D01*
X89552257Y-108990196D01*
X89552257Y-108503602D01*
X89589226Y-108486758D01*
X89621059Y-108474282D01*
X89639683Y-108469914D01*
X89644458Y-108483718D01*
X89648921Y-108522286D01*
X89652775Y-108581356D01*
X89655722Y-108656663D01*
X89657143Y-108720286D01*
X89661114Y-108970657D01*
X89695759Y-108975556D01*
X89727268Y-108972131D01*
X89742708Y-108961041D01*
X89747023Y-108940308D01*
X89750708Y-108896145D01*
X89753469Y-108834146D01*
X89755012Y-108759909D01*
X89755235Y-108721706D01*
X89755457Y-108501783D01*
X89801166Y-108485849D01*
X89833518Y-108475015D01*
X89851115Y-108469962D01*
X89851623Y-108469914D01*
X89853388Y-108483648D01*
X89855329Y-108521730D01*
X89857282Y-108579482D01*
X89859084Y-108652227D01*
X89860343Y-108720286D01*
X89864314Y-108970657D01*
X89951400Y-108970657D01*
X89955396Y-108742240D01*
X89959392Y-108513822D01*
X90001847Y-108491868D01*
X90033192Y-108476793D01*
X90051744Y-108469951D01*
X90052279Y-108469914D01*
X90054833Y-108483663D01*
G37*
X85316115Y-108446962D02*
X85384145Y-108482733D01*
X85434351Y-108540301D01*
X85452185Y-108577312D01*
X85466063Y-108632882D01*
X85473167Y-108703096D01*
X85473840Y-108779727D01*
X85468427Y-108854552D01*
X85457270Y-108919342D01*
X85440714Y-108965873D01*
X85435626Y-108973887D01*
X85375355Y-109033707D01*
X85303769Y-109069535D01*
X85226092Y-109080020D01*
X85147548Y-109063810D01*
X85125689Y-109054092D01*
X85083122Y-109024143D01*
X85045763Y-108984433D01*
X85042232Y-108979397D01*
X85027881Y-108955124D01*
X85018394Y-108929178D01*
X85012790Y-108895022D01*
X85010086Y-108846119D01*
X85009299Y-108775935D01*
X85009286Y-108760200D01*
X85009322Y-108755192D01*
X85154429Y-108755192D01*
X85155273Y-108821430D01*
X85158596Y-108865386D01*
X85165583Y-108893779D01*
X85177416Y-108913325D01*
X85183457Y-108919857D01*
X85218186Y-108944680D01*
X85251903Y-108943548D01*
X85285995Y-108922016D01*
X85306329Y-108899029D01*
X85318371Y-108865478D01*
X85325134Y-108812569D01*
X85325598Y-108806399D01*
X85326752Y-108710513D01*
X85314688Y-108639299D01*
X85289570Y-108593194D01*
X85251560Y-108572635D01*
X85237992Y-108571514D01*
X85202364Y-108577152D01*
X85177994Y-108596686D01*
X85163093Y-108634042D01*
X85155875Y-108693150D01*
X85154429Y-108755192D01*
X85009322Y-108755192D01*
X85009826Y-108685413D01*
X85012096Y-108633159D01*
X85017068Y-108596949D01*
X85025713Y-108570299D01*
X85039005Y-108546722D01*
X85041943Y-108542338D01*
X85091313Y-108483249D01*
X85145109Y-108448947D01*
X85210602Y-108435331D01*
X85232842Y-108434665D01*
X85316115Y-108446962D01*
G36*
X85316115Y-108446962D02*
G01*
X85384145Y-108482733D01*
X85434351Y-108540301D01*
X85452185Y-108577312D01*
X85466063Y-108632882D01*
X85473167Y-108703096D01*
X85473840Y-108779727D01*
X85468427Y-108854552D01*
X85457270Y-108919342D01*
X85440714Y-108965873D01*
X85435626Y-108973887D01*
X85375355Y-109033707D01*
X85303769Y-109069535D01*
X85226092Y-109080020D01*
X85147548Y-109063810D01*
X85125689Y-109054092D01*
X85083122Y-109024143D01*
X85045763Y-108984433D01*
X85042232Y-108979397D01*
X85027881Y-108955124D01*
X85018394Y-108929178D01*
X85012790Y-108895022D01*
X85010086Y-108846119D01*
X85009299Y-108775935D01*
X85009286Y-108760200D01*
X85009322Y-108755192D01*
X85154429Y-108755192D01*
X85155273Y-108821430D01*
X85158596Y-108865386D01*
X85165583Y-108893779D01*
X85177416Y-108913325D01*
X85183457Y-108919857D01*
X85218186Y-108944680D01*
X85251903Y-108943548D01*
X85285995Y-108922016D01*
X85306329Y-108899029D01*
X85318371Y-108865478D01*
X85325134Y-108812569D01*
X85325598Y-108806399D01*
X85326752Y-108710513D01*
X85314688Y-108639299D01*
X85289570Y-108593194D01*
X85251560Y-108572635D01*
X85237992Y-108571514D01*
X85202364Y-108577152D01*
X85177994Y-108596686D01*
X85163093Y-108634042D01*
X85155875Y-108693150D01*
X85154429Y-108755192D01*
X85009322Y-108755192D01*
X85009826Y-108685413D01*
X85012096Y-108633159D01*
X85017068Y-108596949D01*
X85025713Y-108570299D01*
X85039005Y-108546722D01*
X85041943Y-108542338D01*
X85091313Y-108483249D01*
X85145109Y-108448947D01*
X85210602Y-108435331D01*
X85232842Y-108434665D01*
X85316115Y-108446962D01*
G37*
X91428595Y-108491966D02*
X91486021Y-108529497D01*
X91513719Y-108563096D01*
X91535662Y-108624064D01*
X91537405Y-108672308D01*
X91533457Y-108736816D01*
X91384686Y-108801934D01*
X91312349Y-108835202D01*
X91265084Y-108861964D01*
X91240507Y-108885144D01*
X91236237Y-108907667D01*
X91249889Y-108932455D01*
X91264943Y-108948886D01*
X91308746Y-108975235D01*
X91356389Y-108977081D01*
X91400145Y-108956546D01*
X91432289Y-108915752D01*
X91438038Y-108901347D01*
X91465576Y-108856356D01*
X91497258Y-108837182D01*
X91540714Y-108820779D01*
X91540714Y-108882966D01*
X91536872Y-108925283D01*
X91521823Y-108960969D01*
X91490280Y-109001943D01*
X91485592Y-109007267D01*
X91450506Y-109043720D01*
X91420347Y-109063283D01*
X91382615Y-109072283D01*
X91351335Y-109075230D01*
X91295385Y-109075965D01*
X91255555Y-109066660D01*
X91230708Y-109052846D01*
X91191656Y-109022467D01*
X91164625Y-108989613D01*
X91147517Y-108948294D01*
X91138238Y-108892521D01*
X91134693Y-108816305D01*
X91134410Y-108777622D01*
X91135372Y-108731247D01*
X91223007Y-108731247D01*
X91224023Y-108756126D01*
X91226556Y-108760200D01*
X91243274Y-108754665D01*
X91279249Y-108740017D01*
X91327331Y-108719190D01*
X91337386Y-108714714D01*
X91398152Y-108683814D01*
X91431632Y-108656657D01*
X91438990Y-108631220D01*
X91421391Y-108605481D01*
X91406856Y-108594109D01*
X91354410Y-108571364D01*
X91305322Y-108575122D01*
X91264227Y-108602884D01*
X91235758Y-108652152D01*
X91226631Y-108691257D01*
X91223007Y-108731247D01*
X91135372Y-108731247D01*
X91136285Y-108687249D01*
X91143196Y-108620384D01*
X91156884Y-108571695D01*
X91179096Y-108535849D01*
X91211574Y-108507513D01*
X91225733Y-108498355D01*
X91290053Y-108474507D01*
X91360473Y-108473006D01*
X91428595Y-108491966D01*
G36*
X91428595Y-108491966D02*
G01*
X91486021Y-108529497D01*
X91513719Y-108563096D01*
X91535662Y-108624064D01*
X91537405Y-108672308D01*
X91533457Y-108736816D01*
X91384686Y-108801934D01*
X91312349Y-108835202D01*
X91265084Y-108861964D01*
X91240507Y-108885144D01*
X91236237Y-108907667D01*
X91249889Y-108932455D01*
X91264943Y-108948886D01*
X91308746Y-108975235D01*
X91356389Y-108977081D01*
X91400145Y-108956546D01*
X91432289Y-108915752D01*
X91438038Y-108901347D01*
X91465576Y-108856356D01*
X91497258Y-108837182D01*
X91540714Y-108820779D01*
X91540714Y-108882966D01*
X91536872Y-108925283D01*
X91521823Y-108960969D01*
X91490280Y-109001943D01*
X91485592Y-109007267D01*
X91450506Y-109043720D01*
X91420347Y-109063283D01*
X91382615Y-109072283D01*
X91351335Y-109075230D01*
X91295385Y-109075965D01*
X91255555Y-109066660D01*
X91230708Y-109052846D01*
X91191656Y-109022467D01*
X91164625Y-108989613D01*
X91147517Y-108948294D01*
X91138238Y-108892521D01*
X91134693Y-108816305D01*
X91134410Y-108777622D01*
X91135372Y-108731247D01*
X91223007Y-108731247D01*
X91224023Y-108756126D01*
X91226556Y-108760200D01*
X91243274Y-108754665D01*
X91279249Y-108740017D01*
X91327331Y-108719190D01*
X91337386Y-108714714D01*
X91398152Y-108683814D01*
X91431632Y-108656657D01*
X91438990Y-108631220D01*
X91421391Y-108605481D01*
X91406856Y-108594109D01*
X91354410Y-108571364D01*
X91305322Y-108575122D01*
X91264227Y-108602884D01*
X91235758Y-108652152D01*
X91226631Y-108691257D01*
X91223007Y-108731247D01*
X91135372Y-108731247D01*
X91136285Y-108687249D01*
X91143196Y-108620384D01*
X91156884Y-108571695D01*
X91179096Y-108535849D01*
X91211574Y-108507513D01*
X91225733Y-108498355D01*
X91290053Y-108474507D01*
X91360473Y-108473006D01*
X91428595Y-108491966D01*
G37*
X89465117Y-108590358D02*
X89464933Y-108698837D01*
X89464219Y-108782287D01*
X89462675Y-108844704D01*
X89460001Y-108890085D01*
X89455894Y-108922429D01*
X89450055Y-108945733D01*
X89442182Y-108963995D01*
X89436221Y-108974418D01*
X89386855Y-109030945D01*
X89324264Y-109066377D01*
X89255013Y-109079090D01*
X89185668Y-109067463D01*
X89144375Y-109046568D01*
X89101025Y-109010422D01*
X89071481Y-108966276D01*
X89053655Y-108908462D01*
X89045463Y-108831313D01*
X89044302Y-108774714D01*
X89044458Y-108770647D01*
X89145857Y-108770647D01*
X89146476Y-108835550D01*
X89149314Y-108878514D01*
X89155840Y-108906622D01*
X89167523Y-108926953D01*
X89181483Y-108942288D01*
X89228365Y-108971890D01*
X89278701Y-108974419D01*
X89326276Y-108949705D01*
X89329979Y-108946356D01*
X89345783Y-108928935D01*
X89355693Y-108908209D01*
X89361058Y-108877362D01*
X89363228Y-108829577D01*
X89363571Y-108776748D01*
X89362827Y-108710381D01*
X89359748Y-108666106D01*
X89353061Y-108637009D01*
X89341496Y-108616173D01*
X89332013Y-108605107D01*
X89287960Y-108577198D01*
X89237224Y-108573843D01*
X89188796Y-108595159D01*
X89179450Y-108603073D01*
X89163540Y-108620647D01*
X89153610Y-108641587D01*
X89148278Y-108672782D01*
X89146163Y-108721122D01*
X89145857Y-108770647D01*
X89044458Y-108770647D01*
X89047810Y-108683568D01*
X89059726Y-108615086D01*
X89082135Y-108563600D01*
X89117124Y-108523443D01*
X89144375Y-108502861D01*
X89193907Y-108480625D01*
X89251316Y-108470304D01*
X89304682Y-108473067D01*
X89334543Y-108484212D01*
X89346261Y-108487383D01*
X89354037Y-108475557D01*
X89359465Y-108443866D01*
X89363571Y-108395593D01*
X89368067Y-108341829D01*
X89374313Y-108309482D01*
X89385676Y-108290985D01*
X89405528Y-108278770D01*
X89418000Y-108273362D01*
X89465171Y-108253601D01*
X89465117Y-108590358D01*
G36*
X89465117Y-108590358D02*
G01*
X89464933Y-108698837D01*
X89464219Y-108782287D01*
X89462675Y-108844704D01*
X89460001Y-108890085D01*
X89455894Y-108922429D01*
X89450055Y-108945733D01*
X89442182Y-108963995D01*
X89436221Y-108974418D01*
X89386855Y-109030945D01*
X89324264Y-109066377D01*
X89255013Y-109079090D01*
X89185668Y-109067463D01*
X89144375Y-109046568D01*
X89101025Y-109010422D01*
X89071481Y-108966276D01*
X89053655Y-108908462D01*
X89045463Y-108831313D01*
X89044302Y-108774714D01*
X89044458Y-108770647D01*
X89145857Y-108770647D01*
X89146476Y-108835550D01*
X89149314Y-108878514D01*
X89155840Y-108906622D01*
X89167523Y-108926953D01*
X89181483Y-108942288D01*
X89228365Y-108971890D01*
X89278701Y-108974419D01*
X89326276Y-108949705D01*
X89329979Y-108946356D01*
X89345783Y-108928935D01*
X89355693Y-108908209D01*
X89361058Y-108877362D01*
X89363228Y-108829577D01*
X89363571Y-108776748D01*
X89362827Y-108710381D01*
X89359748Y-108666106D01*
X89353061Y-108637009D01*
X89341496Y-108616173D01*
X89332013Y-108605107D01*
X89287960Y-108577198D01*
X89237224Y-108573843D01*
X89188796Y-108595159D01*
X89179450Y-108603073D01*
X89163540Y-108620647D01*
X89153610Y-108641587D01*
X89148278Y-108672782D01*
X89146163Y-108721122D01*
X89145857Y-108770647D01*
X89044458Y-108770647D01*
X89047810Y-108683568D01*
X89059726Y-108615086D01*
X89082135Y-108563600D01*
X89117124Y-108523443D01*
X89144375Y-108502861D01*
X89193907Y-108480625D01*
X89251316Y-108470304D01*
X89304682Y-108473067D01*
X89334543Y-108484212D01*
X89346261Y-108487383D01*
X89354037Y-108475557D01*
X89359465Y-108443866D01*
X89363571Y-108395593D01*
X89368067Y-108341829D01*
X89374313Y-108309482D01*
X89385676Y-108290985D01*
X89405528Y-108278770D01*
X89418000Y-108273362D01*
X89465171Y-108253601D01*
X89465117Y-108590358D01*
G37*
X86443303Y-108456239D02*
X86500527Y-108494735D01*
X86544749Y-108550335D01*
X86571167Y-108621086D01*
X86576510Y-108673162D01*
X86575903Y-108694893D01*
X86570822Y-108711531D01*
X86556855Y-108726437D01*
X86529589Y-108742973D01*
X86484612Y-108764498D01*
X86417511Y-108794374D01*
X86417171Y-108794524D01*
X86355407Y-108822813D01*
X86304759Y-108847933D01*
X86270404Y-108867179D01*
X86257518Y-108877848D01*
X86257514Y-108877934D01*
X86268872Y-108901166D01*
X86295431Y-108926774D01*
X86325923Y-108945221D01*
X86341370Y-108948886D01*
X86383515Y-108936212D01*
X86419808Y-108904471D01*
X86437517Y-108869572D01*
X86454552Y-108843845D01*
X86487922Y-108814546D01*
X86527149Y-108789235D01*
X86561756Y-108775471D01*
X86568993Y-108774714D01*
X86577139Y-108787160D01*
X86577630Y-108818972D01*
X86571643Y-108861866D01*
X86560357Y-108907558D01*
X86544950Y-108947761D01*
X86544171Y-108949322D01*
X86497804Y-109014062D01*
X86437711Y-109058097D01*
X86369465Y-109079711D01*
X86298638Y-109077185D01*
X86230804Y-109048804D01*
X86227788Y-109046808D01*
X86174427Y-108998448D01*
X86139340Y-108935352D01*
X86119922Y-108852387D01*
X86117316Y-108829078D01*
X86112701Y-108719055D01*
X86118233Y-108667748D01*
X86257514Y-108667748D01*
X86259324Y-108699753D01*
X86269222Y-108709093D01*
X86293898Y-108702105D01*
X86332795Y-108685587D01*
X86376275Y-108664881D01*
X86377356Y-108664333D01*
X86414209Y-108644949D01*
X86429000Y-108632013D01*
X86425353Y-108618451D01*
X86409995Y-108600632D01*
X86370923Y-108574845D01*
X86328846Y-108572950D01*
X86291103Y-108591717D01*
X86265034Y-108627915D01*
X86257514Y-108667748D01*
X86118233Y-108667748D01*
X86122194Y-108631027D01*
X86146550Y-108561212D01*
X86180456Y-108512302D01*
X86241653Y-108462878D01*
X86309063Y-108438359D01*
X86377880Y-108436797D01*
X86443303Y-108456239D01*
G36*
X86443303Y-108456239D02*
G01*
X86500527Y-108494735D01*
X86544749Y-108550335D01*
X86571167Y-108621086D01*
X86576510Y-108673162D01*
X86575903Y-108694893D01*
X86570822Y-108711531D01*
X86556855Y-108726437D01*
X86529589Y-108742973D01*
X86484612Y-108764498D01*
X86417511Y-108794374D01*
X86417171Y-108794524D01*
X86355407Y-108822813D01*
X86304759Y-108847933D01*
X86270404Y-108867179D01*
X86257518Y-108877848D01*
X86257514Y-108877934D01*
X86268872Y-108901166D01*
X86295431Y-108926774D01*
X86325923Y-108945221D01*
X86341370Y-108948886D01*
X86383515Y-108936212D01*
X86419808Y-108904471D01*
X86437517Y-108869572D01*
X86454552Y-108843845D01*
X86487922Y-108814546D01*
X86527149Y-108789235D01*
X86561756Y-108775471D01*
X86568993Y-108774714D01*
X86577139Y-108787160D01*
X86577630Y-108818972D01*
X86571643Y-108861866D01*
X86560357Y-108907558D01*
X86544950Y-108947761D01*
X86544171Y-108949322D01*
X86497804Y-109014062D01*
X86437711Y-109058097D01*
X86369465Y-109079711D01*
X86298638Y-109077185D01*
X86230804Y-109048804D01*
X86227788Y-109046808D01*
X86174427Y-108998448D01*
X86139340Y-108935352D01*
X86119922Y-108852387D01*
X86117316Y-108829078D01*
X86112701Y-108719055D01*
X86118233Y-108667748D01*
X86257514Y-108667748D01*
X86259324Y-108699753D01*
X86269222Y-108709093D01*
X86293898Y-108702105D01*
X86332795Y-108685587D01*
X86376275Y-108664881D01*
X86377356Y-108664333D01*
X86414209Y-108644949D01*
X86429000Y-108632013D01*
X86425353Y-108618451D01*
X86409995Y-108600632D01*
X86370923Y-108574845D01*
X86328846Y-108572950D01*
X86291103Y-108591717D01*
X86265034Y-108627915D01*
X86257514Y-108667748D01*
X86118233Y-108667748D01*
X86122194Y-108631027D01*
X86146550Y-108561212D01*
X86180456Y-108512302D01*
X86241653Y-108462878D01*
X86309063Y-108438359D01*
X86377880Y-108436797D01*
X86443303Y-108456239D01*
G37*
X88314744Y-108475968D02*
X88371616Y-108497087D01*
X88372267Y-108497493D01*
X88407440Y-108523380D01*
X88433407Y-108553633D01*
X88451670Y-108593058D01*
X88463732Y-108646462D01*
X88471096Y-108718651D01*
X88475264Y-108814432D01*
X88475629Y-108828078D01*
X88480876Y-109033842D01*
X88436716Y-109056678D01*
X88404763Y-109072110D01*
X88385470Y-109079423D01*
X88384578Y-109079514D01*
X88381239Y-109066022D01*
X88378587Y-109029626D01*
X88376956Y-108976452D01*
X88376600Y-108933393D01*
X88376592Y-108863641D01*
X88373403Y-108819837D01*
X88362288Y-108798944D01*
X88338501Y-108797925D01*
X88297296Y-108813741D01*
X88235086Y-108842815D01*
X88189341Y-108866963D01*
X88165813Y-108887913D01*
X88158896Y-108910747D01*
X88158886Y-108911877D01*
X88170299Y-108951212D01*
X88204092Y-108972462D01*
X88255809Y-108975539D01*
X88293061Y-108975006D01*
X88312703Y-108985735D01*
X88324952Y-109011505D01*
X88332002Y-109044337D01*
X88321842Y-109062966D01*
X88318017Y-109065632D01*
X88282001Y-109076340D01*
X88231566Y-109077856D01*
X88179626Y-109070759D01*
X88142822Y-109057788D01*
X88091938Y-109014585D01*
X88063014Y-108954446D01*
X88057286Y-108907462D01*
X88061657Y-108865082D01*
X88077475Y-108830488D01*
X88108797Y-108799763D01*
X88159678Y-108768990D01*
X88234176Y-108734252D01*
X88238714Y-108732288D01*
X88305821Y-108701287D01*
X88347232Y-108675862D01*
X88364981Y-108653014D01*
X88361107Y-108629745D01*
X88337643Y-108603056D01*
X88330627Y-108596914D01*
X88283630Y-108573100D01*
X88234933Y-108574103D01*
X88192522Y-108597451D01*
X88164384Y-108640675D01*
X88161769Y-108649160D01*
X88136308Y-108690308D01*
X88104001Y-108710128D01*
X88057286Y-108729770D01*
X88057286Y-108678950D01*
X88071496Y-108605082D01*
X88113675Y-108537327D01*
X88135624Y-108514661D01*
X88185517Y-108485569D01*
X88248967Y-108472400D01*
X88314744Y-108475968D01*
G36*
X88314744Y-108475968D02*
G01*
X88371616Y-108497087D01*
X88372267Y-108497493D01*
X88407440Y-108523380D01*
X88433407Y-108553633D01*
X88451670Y-108593058D01*
X88463732Y-108646462D01*
X88471096Y-108718651D01*
X88475264Y-108814432D01*
X88475629Y-108828078D01*
X88480876Y-109033842D01*
X88436716Y-109056678D01*
X88404763Y-109072110D01*
X88385470Y-109079423D01*
X88384578Y-109079514D01*
X88381239Y-109066022D01*
X88378587Y-109029626D01*
X88376956Y-108976452D01*
X88376600Y-108933393D01*
X88376592Y-108863641D01*
X88373403Y-108819837D01*
X88362288Y-108798944D01*
X88338501Y-108797925D01*
X88297296Y-108813741D01*
X88235086Y-108842815D01*
X88189341Y-108866963D01*
X88165813Y-108887913D01*
X88158896Y-108910747D01*
X88158886Y-108911877D01*
X88170299Y-108951212D01*
X88204092Y-108972462D01*
X88255809Y-108975539D01*
X88293061Y-108975006D01*
X88312703Y-108985735D01*
X88324952Y-109011505D01*
X88332002Y-109044337D01*
X88321842Y-109062966D01*
X88318017Y-109065632D01*
X88282001Y-109076340D01*
X88231566Y-109077856D01*
X88179626Y-109070759D01*
X88142822Y-109057788D01*
X88091938Y-109014585D01*
X88063014Y-108954446D01*
X88057286Y-108907462D01*
X88061657Y-108865082D01*
X88077475Y-108830488D01*
X88108797Y-108799763D01*
X88159678Y-108768990D01*
X88234176Y-108734252D01*
X88238714Y-108732288D01*
X88305821Y-108701287D01*
X88347232Y-108675862D01*
X88364981Y-108653014D01*
X88361107Y-108629745D01*
X88337643Y-108603056D01*
X88330627Y-108596914D01*
X88283630Y-108573100D01*
X88234933Y-108574103D01*
X88192522Y-108597451D01*
X88164384Y-108640675D01*
X88161769Y-108649160D01*
X88136308Y-108690308D01*
X88104001Y-108710128D01*
X88057286Y-108729770D01*
X88057286Y-108678950D01*
X88071496Y-108605082D01*
X88113675Y-108537327D01*
X88135624Y-108514661D01*
X88185517Y-108485569D01*
X88248967Y-108472400D01*
X88314744Y-108475968D01*
G37*
X85874744Y-108444918D02*
X85930201Y-108472568D01*
X85979148Y-108523480D01*
X85992629Y-108542338D01*
X86007314Y-108567015D01*
X86016842Y-108593816D01*
X86022293Y-108629587D01*
X86024747Y-108681169D01*
X86025286Y-108749267D01*
X86022852Y-108842588D01*
X86014394Y-108912657D01*
X85998174Y-108964931D01*
X85972454Y-109004869D01*
X85935497Y-109037929D01*
X85932782Y-109039886D01*
X85896360Y-109059908D01*
X85852502Y-109069815D01*
X85796724Y-109072257D01*
X85706048Y-109072257D01*
X85706010Y-109160283D01*
X85705166Y-109209308D01*
X85700024Y-109238065D01*
X85686587Y-109255311D01*
X85660858Y-109269808D01*
X85654679Y-109272769D01*
X85625764Y-109286648D01*
X85603376Y-109295414D01*
X85586729Y-109296171D01*
X85575036Y-109286023D01*
X85567510Y-109262073D01*
X85563366Y-109221426D01*
X85561815Y-109161186D01*
X85562071Y-109078455D01*
X85563349Y-108970339D01*
X85563748Y-108938000D01*
X85565185Y-108826524D01*
X85566472Y-108753603D01*
X85705971Y-108753603D01*
X85706755Y-108815499D01*
X85710240Y-108855997D01*
X85718124Y-108882708D01*
X85732105Y-108903244D01*
X85741597Y-108913260D01*
X85780404Y-108942567D01*
X85814763Y-108944952D01*
X85850216Y-108920750D01*
X85851114Y-108919857D01*
X85865539Y-108901153D01*
X85874313Y-108875732D01*
X85878739Y-108836584D01*
X85880118Y-108776697D01*
X85880143Y-108763430D01*
X85876812Y-108680901D01*
X85865969Y-108623691D01*
X85846340Y-108588766D01*
X85816650Y-108573094D01*
X85799491Y-108571514D01*
X85758766Y-108578926D01*
X85730832Y-108603330D01*
X85714017Y-108647980D01*
X85706650Y-108716130D01*
X85705971Y-108753603D01*
X85566472Y-108753603D01*
X85566708Y-108740245D01*
X85568677Y-108675333D01*
X85571450Y-108627958D01*
X85575388Y-108594290D01*
X85580849Y-108570498D01*
X85588192Y-108552753D01*
X85597777Y-108537224D01*
X85601887Y-108531381D01*
X85656405Y-108476185D01*
X85725336Y-108444890D01*
X85805072Y-108436165D01*
X85874744Y-108444918D01*
G36*
X85874744Y-108444918D02*
G01*
X85930201Y-108472568D01*
X85979148Y-108523480D01*
X85992629Y-108542338D01*
X86007314Y-108567015D01*
X86016842Y-108593816D01*
X86022293Y-108629587D01*
X86024747Y-108681169D01*
X86025286Y-108749267D01*
X86022852Y-108842588D01*
X86014394Y-108912657D01*
X85998174Y-108964931D01*
X85972454Y-109004869D01*
X85935497Y-109037929D01*
X85932782Y-109039886D01*
X85896360Y-109059908D01*
X85852502Y-109069815D01*
X85796724Y-109072257D01*
X85706048Y-109072257D01*
X85706010Y-109160283D01*
X85705166Y-109209308D01*
X85700024Y-109238065D01*
X85686587Y-109255311D01*
X85660858Y-109269808D01*
X85654679Y-109272769D01*
X85625764Y-109286648D01*
X85603376Y-109295414D01*
X85586729Y-109296171D01*
X85575036Y-109286023D01*
X85567510Y-109262073D01*
X85563366Y-109221426D01*
X85561815Y-109161186D01*
X85562071Y-109078455D01*
X85563349Y-108970339D01*
X85563748Y-108938000D01*
X85565185Y-108826524D01*
X85566472Y-108753603D01*
X85705971Y-108753603D01*
X85706755Y-108815499D01*
X85710240Y-108855997D01*
X85718124Y-108882708D01*
X85732105Y-108903244D01*
X85741597Y-108913260D01*
X85780404Y-108942567D01*
X85814763Y-108944952D01*
X85850216Y-108920750D01*
X85851114Y-108919857D01*
X85865539Y-108901153D01*
X85874313Y-108875732D01*
X85878739Y-108836584D01*
X85880118Y-108776697D01*
X85880143Y-108763430D01*
X85876812Y-108680901D01*
X85865969Y-108623691D01*
X85846340Y-108588766D01*
X85816650Y-108573094D01*
X85799491Y-108571514D01*
X85758766Y-108578926D01*
X85730832Y-108603330D01*
X85714017Y-108647980D01*
X85706650Y-108716130D01*
X85705971Y-108753603D01*
X85566472Y-108753603D01*
X85566708Y-108740245D01*
X85568677Y-108675333D01*
X85571450Y-108627958D01*
X85575388Y-108594290D01*
X85580849Y-108570498D01*
X85588192Y-108552753D01*
X85597777Y-108537224D01*
X85601887Y-108531381D01*
X85656405Y-108476185D01*
X85725336Y-108444890D01*
X85805072Y-108436165D01*
X85874744Y-108444918D01*
G37*
X90419876Y-108481335D02*
X90461667Y-108500344D01*
X90494469Y-108523378D01*
X90518503Y-108549133D01*
X90535097Y-108582358D01*
X90545577Y-108627800D01*
X90551271Y-108690207D01*
X90553507Y-108774327D01*
X90553743Y-108829721D01*
X90553743Y-109045826D01*
X90516774Y-109062670D01*
X90487656Y-109074981D01*
X90473231Y-109079514D01*
X90470472Y-109066025D01*
X90468282Y-109029653D01*
X90466942Y-108976542D01*
X90466657Y-108934372D01*
X90465434Y-108873447D01*
X90462136Y-108825115D01*
X90457321Y-108795518D01*
X90453496Y-108789229D01*
X90427783Y-108795652D01*
X90387418Y-108812125D01*
X90340679Y-108834458D01*
X90295845Y-108858457D01*
X90261193Y-108879930D01*
X90245002Y-108894685D01*
X90244938Y-108894845D01*
X90246330Y-108922152D01*
X90258818Y-108948219D01*
X90280743Y-108969392D01*
X90312743Y-108976474D01*
X90340092Y-108975649D01*
X90378826Y-108975042D01*
X90399158Y-108984116D01*
X90411369Y-109008092D01*
X90412909Y-109012613D01*
X90418203Y-109046806D01*
X90404047Y-109067568D01*
X90367148Y-109077462D01*
X90327289Y-109079292D01*
X90255562Y-109065727D01*
X90218432Y-109046355D01*
X90172576Y-109000845D01*
X90148256Y-108944983D01*
X90146073Y-108885957D01*
X90166629Y-108830953D01*
X90197549Y-108796486D01*
X90228420Y-108777189D01*
X90276942Y-108752759D01*
X90333485Y-108727985D01*
X90342910Y-108724199D01*
X90405019Y-108696791D01*
X90440822Y-108672634D01*
X90452337Y-108648619D01*
X90441580Y-108621635D01*
X90423114Y-108600543D01*
X90379469Y-108574572D01*
X90331446Y-108572624D01*
X90287406Y-108592637D01*
X90255709Y-108632551D01*
X90251549Y-108642848D01*
X90227327Y-108680724D01*
X90191965Y-108708842D01*
X90147343Y-108731917D01*
X90147343Y-108666485D01*
X90149969Y-108626506D01*
X90161230Y-108594997D01*
X90186199Y-108561378D01*
X90210169Y-108535484D01*
X90247441Y-108498817D01*
X90276401Y-108479121D01*
X90307505Y-108471220D01*
X90342713Y-108469914D01*
X90419876Y-108481335D01*
G36*
X90419876Y-108481335D02*
G01*
X90461667Y-108500344D01*
X90494469Y-108523378D01*
X90518503Y-108549133D01*
X90535097Y-108582358D01*
X90545577Y-108627800D01*
X90551271Y-108690207D01*
X90553507Y-108774327D01*
X90553743Y-108829721D01*
X90553743Y-109045826D01*
X90516774Y-109062670D01*
X90487656Y-109074981D01*
X90473231Y-109079514D01*
X90470472Y-109066025D01*
X90468282Y-109029653D01*
X90466942Y-108976542D01*
X90466657Y-108934372D01*
X90465434Y-108873447D01*
X90462136Y-108825115D01*
X90457321Y-108795518D01*
X90453496Y-108789229D01*
X90427783Y-108795652D01*
X90387418Y-108812125D01*
X90340679Y-108834458D01*
X90295845Y-108858457D01*
X90261193Y-108879930D01*
X90245002Y-108894685D01*
X90244938Y-108894845D01*
X90246330Y-108922152D01*
X90258818Y-108948219D01*
X90280743Y-108969392D01*
X90312743Y-108976474D01*
X90340092Y-108975649D01*
X90378826Y-108975042D01*
X90399158Y-108984116D01*
X90411369Y-109008092D01*
X90412909Y-109012613D01*
X90418203Y-109046806D01*
X90404047Y-109067568D01*
X90367148Y-109077462D01*
X90327289Y-109079292D01*
X90255562Y-109065727D01*
X90218432Y-109046355D01*
X90172576Y-109000845D01*
X90148256Y-108944983D01*
X90146073Y-108885957D01*
X90166629Y-108830953D01*
X90197549Y-108796486D01*
X90228420Y-108777189D01*
X90276942Y-108752759D01*
X90333485Y-108727985D01*
X90342910Y-108724199D01*
X90405019Y-108696791D01*
X90440822Y-108672634D01*
X90452337Y-108648619D01*
X90441580Y-108621635D01*
X90423114Y-108600543D01*
X90379469Y-108574572D01*
X90331446Y-108572624D01*
X90287406Y-108592637D01*
X90255709Y-108632551D01*
X90251549Y-108642848D01*
X90227327Y-108680724D01*
X90191965Y-108708842D01*
X90147343Y-108731917D01*
X90147343Y-108666485D01*
X90149969Y-108626506D01*
X90161230Y-108594997D01*
X90186199Y-108561378D01*
X90210169Y-108535484D01*
X90247441Y-108498817D01*
X90276401Y-108479121D01*
X90307505Y-108471220D01*
X90342713Y-108469914D01*
X90419876Y-108481335D01*
G37*
X88378910Y-103767348D02*
X88457454Y-103767778D01*
X88514298Y-103768942D01*
X88553105Y-103771207D01*
X88577538Y-103774940D01*
X88591262Y-103780506D01*
X88597940Y-103788273D01*
X88601236Y-103798605D01*
X88601556Y-103799943D01*
X88606562Y-103824079D01*
X88615829Y-103871701D01*
X88628392Y-103937741D01*
X88643287Y-104017128D01*
X88659551Y-104104796D01*
X88660119Y-104107875D01*
X88676410Y-104193789D01*
X88691652Y-104269696D01*
X88704861Y-104331045D01*
X88715054Y-104373282D01*
X88721248Y-104391855D01*
X88721543Y-104392184D01*
X88739788Y-104401253D01*
X88777405Y-104416367D01*
X88826271Y-104434262D01*
X88826543Y-104434358D01*
X88888093Y-104457493D01*
X88960657Y-104486965D01*
X89029057Y-104516597D01*
X89032294Y-104518062D01*
X89143702Y-104568626D01*
X89390399Y-104400160D01*
X89466077Y-104348803D01*
X89534631Y-104302889D01*
X89592088Y-104265030D01*
X89634476Y-104237837D01*
X89657825Y-104223921D01*
X89660042Y-104222889D01*
X89677010Y-104227484D01*
X89708701Y-104249655D01*
X89756352Y-104290447D01*
X89821198Y-104350905D01*
X89887397Y-104415227D01*
X89951214Y-104478612D01*
X90008329Y-104536451D01*
X90055305Y-104585175D01*
X90088703Y-104621210D01*
X90105085Y-104640984D01*
X90105694Y-104642002D01*
X90107505Y-104655572D01*
X90100683Y-104677733D01*
X90083540Y-104711478D01*
X90054393Y-104759800D01*
X90011555Y-104825692D01*
X89954448Y-104910517D01*
X89903766Y-104985177D01*
X89858461Y-105052140D01*
X89821150Y-105107516D01*
X89794452Y-105147420D01*
X89780985Y-105167962D01*
X89780137Y-105169356D01*
X89781781Y-105189038D01*
X89794245Y-105227293D01*
X89815048Y-105276889D01*
X89822462Y-105292728D01*
X89854814Y-105363290D01*
X89889328Y-105443353D01*
X89917365Y-105512629D01*
X89937568Y-105564045D01*
X89953615Y-105603119D01*
X89962888Y-105623541D01*
X89964041Y-105625114D01*
X89981096Y-105627721D01*
X90021298Y-105634863D01*
X90079302Y-105645523D01*
X90149763Y-105658685D01*
X90227335Y-105673333D01*
X90306672Y-105688449D01*
X90382431Y-105703018D01*
X90449264Y-105716022D01*
X90501828Y-105726445D01*
X90534776Y-105733270D01*
X90542857Y-105735199D01*
X90551205Y-105739962D01*
X90557506Y-105750718D01*
X90562045Y-105771098D01*
X90565104Y-105804734D01*
X90566967Y-105855255D01*
X90567918Y-105926292D01*
X90568240Y-106021476D01*
X90568257Y-106060492D01*
X90568257Y-106377799D01*
X90492057Y-106392839D01*
X90449663Y-106400995D01*
X90386400Y-106412899D01*
X90309962Y-106427116D01*
X90228043Y-106442210D01*
X90205400Y-106446355D01*
X90129806Y-106461053D01*
X90063953Y-106475505D01*
X90013366Y-106488375D01*
X89983574Y-106498322D01*
X89978612Y-106501287D01*
X89966426Y-106522283D01*
X89948953Y-106562967D01*
X89929577Y-106615322D01*
X89925734Y-106626600D01*
X89900339Y-106696523D01*
X89868817Y-106775418D01*
X89837969Y-106846266D01*
X89837817Y-106846595D01*
X89786447Y-106957733D01*
X89955399Y-107206253D01*
X90124352Y-107454772D01*
X89907429Y-107672058D01*
X89841819Y-107736726D01*
X89781979Y-107793733D01*
X89731267Y-107840033D01*
X89693046Y-107872584D01*
X89670675Y-107888343D01*
X89667466Y-107889343D01*
X89648626Y-107881469D01*
X89610180Y-107859578D01*
X89556330Y-107826267D01*
X89491276Y-107784131D01*
X89420940Y-107736943D01*
X89349555Y-107688810D01*
X89285908Y-107646928D01*
X89234041Y-107613871D01*
X89197995Y-107592218D01*
X89181867Y-107584543D01*
X89162189Y-107591037D01*
X89124875Y-107608150D01*
X89077621Y-107632326D01*
X89072612Y-107635013D01*
X89008977Y-107666927D01*
X88965341Y-107682579D01*
X88938202Y-107682745D01*
X88924057Y-107668204D01*
X88923975Y-107668000D01*
X88916905Y-107650779D01*
X88900042Y-107609899D01*
X88874695Y-107548525D01*
X88842171Y-107469819D01*
X88803778Y-107376947D01*
X88760822Y-107273072D01*
X88719222Y-107172502D01*
X88673504Y-107061516D01*
X88631526Y-106958703D01*
X88594548Y-106867215D01*
X88563827Y-106790201D01*
X88540622Y-106730815D01*
X88526190Y-106692209D01*
X88521743Y-106677800D01*
X88532896Y-106661272D01*
X88562069Y-106634930D01*
X88600971Y-106605887D01*
X88711757Y-106514039D01*
X88798351Y-106408759D01*
X88859716Y-106292266D01*
X88894815Y-106166776D01*
X88902608Y-106034507D01*
X88896943Y-105973457D01*
X88866078Y-105846795D01*
X88812920Y-105734941D01*
X88740767Y-105639001D01*
X88652917Y-105560076D01*
X88552665Y-105499270D01*
X88443310Y-105457687D01*
X88328147Y-105436428D01*
X88210475Y-105436599D01*
X88093590Y-105459301D01*
X87980789Y-105505638D01*
X87875369Y-105576713D01*
X87831368Y-105616911D01*
X87746979Y-105720129D01*
X87688222Y-105832925D01*
X87654704Y-105952010D01*
X87646035Y-106074095D01*
X87661823Y-106195893D01*
X87701678Y-106314116D01*
X87765207Y-106425475D01*
X87852021Y-106526684D01*
X87949029Y-106605887D01*
X87989437Y-106636162D01*
X88017982Y-106662219D01*
X88028257Y-106677825D01*
X88022877Y-106694843D01*
X88007575Y-106735500D01*
X87983612Y-106796642D01*
X87952244Y-106875119D01*
X87914732Y-106967780D01*
X87872333Y-107071472D01*
X87830663Y-107172526D01*
X87784690Y-107283607D01*
X87742107Y-107386541D01*
X87704221Y-107478165D01*
X87672340Y-107555316D01*
X87647771Y-107614831D01*
X87631820Y-107653544D01*
X87625910Y-107668000D01*
X87611948Y-107682685D01*
X87584940Y-107682642D01*
X87541413Y-107667099D01*
X87477890Y-107635284D01*
X87477388Y-107635013D01*
X87429560Y-107610323D01*
X87390897Y-107592338D01*
X87369095Y-107584614D01*
X87368133Y-107584543D01*
X87351721Y-107592378D01*
X87315487Y-107614165D01*
X87263474Y-107647328D01*
X87199725Y-107689291D01*
X87129060Y-107736943D01*
X87057116Y-107785191D01*
X86992274Y-107827151D01*
X86938735Y-107860227D01*
X86900697Y-107881821D01*
X86882533Y-107889343D01*
X86865808Y-107879457D01*
X86832180Y-107851826D01*
X86785010Y-107809495D01*
X86727658Y-107755505D01*
X86663484Y-107692899D01*
X86642497Y-107671983D01*
X86425499Y-107454623D01*
X86590668Y-107212220D01*
X86640864Y-107137781D01*
X86684919Y-107070972D01*
X86720362Y-107015665D01*
X86744719Y-106975729D01*
X86755522Y-106955036D01*
X86755838Y-106953563D01*
X86750143Y-106934058D01*
X86734826Y-106894822D01*
X86712537Y-106842430D01*
X86696893Y-106807355D01*
X86667641Y-106740201D01*
X86640094Y-106672358D01*
X86618737Y-106615034D01*
X86612935Y-106597572D01*
X86596452Y-106550938D01*
X86580340Y-106514905D01*
X86571490Y-106501287D01*
X86551960Y-106492952D01*
X86509334Y-106481137D01*
X86449145Y-106467181D01*
X86376922Y-106452422D01*
X86344600Y-106446355D01*
X86262522Y-106431273D01*
X86183795Y-106416669D01*
X86116109Y-106403980D01*
X86067160Y-106394642D01*
X86057943Y-106392839D01*
X85981743Y-106377799D01*
X85981743Y-106060492D01*
X85981914Y-105956154D01*
X85982616Y-105877213D01*
X85984134Y-105820038D01*
X85986749Y-105780999D01*
X85990746Y-105756465D01*
X85996409Y-105742805D01*
X86004020Y-105736389D01*
X86007143Y-105735199D01*
X86025978Y-105730980D01*
X86067588Y-105722562D01*
X86126630Y-105710961D01*
X86197757Y-105697195D01*
X86275625Y-105682280D01*
X86354887Y-105667232D01*
X86430198Y-105653069D01*
X86496213Y-105640806D01*
X86547587Y-105631461D01*
X86578975Y-105626050D01*
X86585959Y-105625114D01*
X86592285Y-105612596D01*
X86606290Y-105579246D01*
X86625355Y-105531377D01*
X86632634Y-105512629D01*
X86661996Y-105440195D01*
X86696571Y-105360170D01*
X86727537Y-105292728D01*
X86750323Y-105241159D01*
X86765482Y-105198785D01*
X86770542Y-105172834D01*
X86769736Y-105169356D01*
X86759041Y-105152936D01*
X86734620Y-105116417D01*
X86699095Y-105063687D01*
X86655087Y-104998635D01*
X86605217Y-104925151D01*
X86595356Y-104910645D01*
X86537492Y-104824704D01*
X86494956Y-104759261D01*
X86466054Y-104711304D01*
X86449090Y-104677820D01*
X86442367Y-104655795D01*
X86444190Y-104642217D01*
X86444236Y-104642131D01*
X86458586Y-104624297D01*
X86490323Y-104589817D01*
X86536010Y-104542268D01*
X86592204Y-104485222D01*
X86655468Y-104422255D01*
X86662602Y-104415227D01*
X86742330Y-104338020D01*
X86803857Y-104281330D01*
X86848421Y-104244110D01*
X86877257Y-104225315D01*
X86889958Y-104222889D01*
X86908494Y-104233471D01*
X86946961Y-104257916D01*
X87001386Y-104293612D01*
X87067798Y-104337947D01*
X87142225Y-104388311D01*
X87159601Y-104400160D01*
X87406297Y-104568626D01*
X87517706Y-104518062D01*
X87585457Y-104488595D01*
X87658183Y-104458959D01*
X87720703Y-104435330D01*
X87723457Y-104434358D01*
X87772360Y-104416457D01*
X87810057Y-104401320D01*
X87828425Y-104392210D01*
X87828456Y-104392184D01*
X87834285Y-104375717D01*
X87844192Y-104335219D01*
X87857195Y-104275242D01*
X87872309Y-104200340D01*
X87888552Y-104115064D01*
X87889881Y-104107875D01*
X87906175Y-104020014D01*
X87921133Y-103940260D01*
X87933791Y-103873681D01*
X87943186Y-103825347D01*
X87948354Y-103800325D01*
X87948444Y-103799943D01*
X87951589Y-103789299D01*
X87957704Y-103781262D01*
X87970453Y-103775467D01*
X87993500Y-103771547D01*
X88030509Y-103769135D01*
X88085144Y-103767865D01*
X88161067Y-103767371D01*
X88261944Y-103767286D01*
X88275000Y-103767286D01*
X88378910Y-103767348D01*
G36*
X88378910Y-103767348D02*
G01*
X88457454Y-103767778D01*
X88514298Y-103768942D01*
X88553105Y-103771207D01*
X88577538Y-103774940D01*
X88591262Y-103780506D01*
X88597940Y-103788273D01*
X88601236Y-103798605D01*
X88601556Y-103799943D01*
X88606562Y-103824079D01*
X88615829Y-103871701D01*
X88628392Y-103937741D01*
X88643287Y-104017128D01*
X88659551Y-104104796D01*
X88660119Y-104107875D01*
X88676410Y-104193789D01*
X88691652Y-104269696D01*
X88704861Y-104331045D01*
X88715054Y-104373282D01*
X88721248Y-104391855D01*
X88721543Y-104392184D01*
X88739788Y-104401253D01*
X88777405Y-104416367D01*
X88826271Y-104434262D01*
X88826543Y-104434358D01*
X88888093Y-104457493D01*
X88960657Y-104486965D01*
X89029057Y-104516597D01*
X89032294Y-104518062D01*
X89143702Y-104568626D01*
X89390399Y-104400160D01*
X89466077Y-104348803D01*
X89534631Y-104302889D01*
X89592088Y-104265030D01*
X89634476Y-104237837D01*
X89657825Y-104223921D01*
X89660042Y-104222889D01*
X89677010Y-104227484D01*
X89708701Y-104249655D01*
X89756352Y-104290447D01*
X89821198Y-104350905D01*
X89887397Y-104415227D01*
X89951214Y-104478612D01*
X90008329Y-104536451D01*
X90055305Y-104585175D01*
X90088703Y-104621210D01*
X90105085Y-104640984D01*
X90105694Y-104642002D01*
X90107505Y-104655572D01*
X90100683Y-104677733D01*
X90083540Y-104711478D01*
X90054393Y-104759800D01*
X90011555Y-104825692D01*
X89954448Y-104910517D01*
X89903766Y-104985177D01*
X89858461Y-105052140D01*
X89821150Y-105107516D01*
X89794452Y-105147420D01*
X89780985Y-105167962D01*
X89780137Y-105169356D01*
X89781781Y-105189038D01*
X89794245Y-105227293D01*
X89815048Y-105276889D01*
X89822462Y-105292728D01*
X89854814Y-105363290D01*
X89889328Y-105443353D01*
X89917365Y-105512629D01*
X89937568Y-105564045D01*
X89953615Y-105603119D01*
X89962888Y-105623541D01*
X89964041Y-105625114D01*
X89981096Y-105627721D01*
X90021298Y-105634863D01*
X90079302Y-105645523D01*
X90149763Y-105658685D01*
X90227335Y-105673333D01*
X90306672Y-105688449D01*
X90382431Y-105703018D01*
X90449264Y-105716022D01*
X90501828Y-105726445D01*
X90534776Y-105733270D01*
X90542857Y-105735199D01*
X90551205Y-105739962D01*
X90557506Y-105750718D01*
X90562045Y-105771098D01*
X90565104Y-105804734D01*
X90566967Y-105855255D01*
X90567918Y-105926292D01*
X90568240Y-106021476D01*
X90568257Y-106060492D01*
X90568257Y-106377799D01*
X90492057Y-106392839D01*
X90449663Y-106400995D01*
X90386400Y-106412899D01*
X90309962Y-106427116D01*
X90228043Y-106442210D01*
X90205400Y-106446355D01*
X90129806Y-106461053D01*
X90063953Y-106475505D01*
X90013366Y-106488375D01*
X89983574Y-106498322D01*
X89978612Y-106501287D01*
X89966426Y-106522283D01*
X89948953Y-106562967D01*
X89929577Y-106615322D01*
X89925734Y-106626600D01*
X89900339Y-106696523D01*
X89868817Y-106775418D01*
X89837969Y-106846266D01*
X89837817Y-106846595D01*
X89786447Y-106957733D01*
X89955399Y-107206253D01*
X90124352Y-107454772D01*
X89907429Y-107672058D01*
X89841819Y-107736726D01*
X89781979Y-107793733D01*
X89731267Y-107840033D01*
X89693046Y-107872584D01*
X89670675Y-107888343D01*
X89667466Y-107889343D01*
X89648626Y-107881469D01*
X89610180Y-107859578D01*
X89556330Y-107826267D01*
X89491276Y-107784131D01*
X89420940Y-107736943D01*
X89349555Y-107688810D01*
X89285908Y-107646928D01*
X89234041Y-107613871D01*
X89197995Y-107592218D01*
X89181867Y-107584543D01*
X89162189Y-107591037D01*
X89124875Y-107608150D01*
X89077621Y-107632326D01*
X89072612Y-107635013D01*
X89008977Y-107666927D01*
X88965341Y-107682579D01*
X88938202Y-107682745D01*
X88924057Y-107668204D01*
X88923975Y-107668000D01*
X88916905Y-107650779D01*
X88900042Y-107609899D01*
X88874695Y-107548525D01*
X88842171Y-107469819D01*
X88803778Y-107376947D01*
X88760822Y-107273072D01*
X88719222Y-107172502D01*
X88673504Y-107061516D01*
X88631526Y-106958703D01*
X88594548Y-106867215D01*
X88563827Y-106790201D01*
X88540622Y-106730815D01*
X88526190Y-106692209D01*
X88521743Y-106677800D01*
X88532896Y-106661272D01*
X88562069Y-106634930D01*
X88600971Y-106605887D01*
X88711757Y-106514039D01*
X88798351Y-106408759D01*
X88859716Y-106292266D01*
X88894815Y-106166776D01*
X88902608Y-106034507D01*
X88896943Y-105973457D01*
X88866078Y-105846795D01*
X88812920Y-105734941D01*
X88740767Y-105639001D01*
X88652917Y-105560076D01*
X88552665Y-105499270D01*
X88443310Y-105457687D01*
X88328147Y-105436428D01*
X88210475Y-105436599D01*
X88093590Y-105459301D01*
X87980789Y-105505638D01*
X87875369Y-105576713D01*
X87831368Y-105616911D01*
X87746979Y-105720129D01*
X87688222Y-105832925D01*
X87654704Y-105952010D01*
X87646035Y-106074095D01*
X87661823Y-106195893D01*
X87701678Y-106314116D01*
X87765207Y-106425475D01*
X87852021Y-106526684D01*
X87949029Y-106605887D01*
X87989437Y-106636162D01*
X88017982Y-106662219D01*
X88028257Y-106677825D01*
X88022877Y-106694843D01*
X88007575Y-106735500D01*
X87983612Y-106796642D01*
X87952244Y-106875119D01*
X87914732Y-106967780D01*
X87872333Y-107071472D01*
X87830663Y-107172526D01*
X87784690Y-107283607D01*
X87742107Y-107386541D01*
X87704221Y-107478165D01*
X87672340Y-107555316D01*
X87647771Y-107614831D01*
X87631820Y-107653544D01*
X87625910Y-107668000D01*
X87611948Y-107682685D01*
X87584940Y-107682642D01*
X87541413Y-107667099D01*
X87477890Y-107635284D01*
X87477388Y-107635013D01*
X87429560Y-107610323D01*
X87390897Y-107592338D01*
X87369095Y-107584614D01*
X87368133Y-107584543D01*
X87351721Y-107592378D01*
X87315487Y-107614165D01*
X87263474Y-107647328D01*
X87199725Y-107689291D01*
X87129060Y-107736943D01*
X87057116Y-107785191D01*
X86992274Y-107827151D01*
X86938735Y-107860227D01*
X86900697Y-107881821D01*
X86882533Y-107889343D01*
X86865808Y-107879457D01*
X86832180Y-107851826D01*
X86785010Y-107809495D01*
X86727658Y-107755505D01*
X86663484Y-107692899D01*
X86642497Y-107671983D01*
X86425499Y-107454623D01*
X86590668Y-107212220D01*
X86640864Y-107137781D01*
X86684919Y-107070972D01*
X86720362Y-107015665D01*
X86744719Y-106975729D01*
X86755522Y-106955036D01*
X86755838Y-106953563D01*
X86750143Y-106934058D01*
X86734826Y-106894822D01*
X86712537Y-106842430D01*
X86696893Y-106807355D01*
X86667641Y-106740201D01*
X86640094Y-106672358D01*
X86618737Y-106615034D01*
X86612935Y-106597572D01*
X86596452Y-106550938D01*
X86580340Y-106514905D01*
X86571490Y-106501287D01*
X86551960Y-106492952D01*
X86509334Y-106481137D01*
X86449145Y-106467181D01*
X86376922Y-106452422D01*
X86344600Y-106446355D01*
X86262522Y-106431273D01*
X86183795Y-106416669D01*
X86116109Y-106403980D01*
X86067160Y-106394642D01*
X86057943Y-106392839D01*
X85981743Y-106377799D01*
X85981743Y-106060492D01*
X85981914Y-105956154D01*
X85982616Y-105877213D01*
X85984134Y-105820038D01*
X85986749Y-105780999D01*
X85990746Y-105756465D01*
X85996409Y-105742805D01*
X86004020Y-105736389D01*
X86007143Y-105735199D01*
X86025978Y-105730980D01*
X86067588Y-105722562D01*
X86126630Y-105710961D01*
X86197757Y-105697195D01*
X86275625Y-105682280D01*
X86354887Y-105667232D01*
X86430198Y-105653069D01*
X86496213Y-105640806D01*
X86547587Y-105631461D01*
X86578975Y-105626050D01*
X86585959Y-105625114D01*
X86592285Y-105612596D01*
X86606290Y-105579246D01*
X86625355Y-105531377D01*
X86632634Y-105512629D01*
X86661996Y-105440195D01*
X86696571Y-105360170D01*
X86727537Y-105292728D01*
X86750323Y-105241159D01*
X86765482Y-105198785D01*
X86770542Y-105172834D01*
X86769736Y-105169356D01*
X86759041Y-105152936D01*
X86734620Y-105116417D01*
X86699095Y-105063687D01*
X86655087Y-104998635D01*
X86605217Y-104925151D01*
X86595356Y-104910645D01*
X86537492Y-104824704D01*
X86494956Y-104759261D01*
X86466054Y-104711304D01*
X86449090Y-104677820D01*
X86442367Y-104655795D01*
X86444190Y-104642217D01*
X86444236Y-104642131D01*
X86458586Y-104624297D01*
X86490323Y-104589817D01*
X86536010Y-104542268D01*
X86592204Y-104485222D01*
X86655468Y-104422255D01*
X86662602Y-104415227D01*
X86742330Y-104338020D01*
X86803857Y-104281330D01*
X86848421Y-104244110D01*
X86877257Y-104225315D01*
X86889958Y-104222889D01*
X86908494Y-104233471D01*
X86946961Y-104257916D01*
X87001386Y-104293612D01*
X87067798Y-104337947D01*
X87142225Y-104388311D01*
X87159601Y-104400160D01*
X87406297Y-104568626D01*
X87517706Y-104518062D01*
X87585457Y-104488595D01*
X87658183Y-104458959D01*
X87720703Y-104435330D01*
X87723457Y-104434358D01*
X87772360Y-104416457D01*
X87810057Y-104401320D01*
X87828425Y-104392210D01*
X87828456Y-104392184D01*
X87834285Y-104375717D01*
X87844192Y-104335219D01*
X87857195Y-104275242D01*
X87872309Y-104200340D01*
X87888552Y-104115064D01*
X87889881Y-104107875D01*
X87906175Y-104020014D01*
X87921133Y-103940260D01*
X87933791Y-103873681D01*
X87943186Y-103825347D01*
X87948354Y-103800325D01*
X87948444Y-103799943D01*
X87951589Y-103789299D01*
X87957704Y-103781262D01*
X87970453Y-103775467D01*
X87993500Y-103771547D01*
X88030509Y-103769135D01*
X88085144Y-103767865D01*
X88161067Y-103767371D01*
X88261944Y-103767286D01*
X88275000Y-103767286D01*
X88378910Y-103767348D01*
G37*
D14*
%TO.C,J4*%
X91065000Y-114040000D02*
X91065000Y-114340000D01*
X91065000Y-114040000D02*
X95185000Y-114040000D01*
X91065000Y-115860000D02*
X91065000Y-116340000D01*
X91065000Y-117860000D02*
X91065000Y-118340000D01*
X91065000Y-119860000D02*
X91065000Y-120340000D01*
X91065000Y-121860000D02*
X91065000Y-122340000D01*
X91065000Y-123860000D02*
X91065000Y-124340000D01*
X91065000Y-125860000D02*
X91065000Y-126340000D01*
X91065000Y-127860000D02*
X91065000Y-128340000D01*
X91065000Y-129860000D02*
X91065000Y-130340000D01*
X91065000Y-131860000D02*
X91065000Y-132340000D01*
X91065000Y-133860000D02*
X91065000Y-134340000D01*
X91065000Y-135860000D02*
X91065000Y-136340000D01*
X91065000Y-137860000D02*
X91065000Y-138340000D01*
X91065000Y-139860000D02*
X91065000Y-140340000D01*
X91065000Y-141860000D02*
X91065000Y-142340000D01*
X91065000Y-143860000D02*
X91065000Y-144340000D01*
X91065000Y-145860000D02*
X91065000Y-146340000D01*
X91065000Y-147860000D02*
X91065000Y-148340000D01*
X91065000Y-149860000D02*
X91065000Y-150340000D01*
X91065000Y-151860000D02*
X91065000Y-152340000D01*
X91065000Y-153860000D02*
X91065000Y-154340000D01*
X91065000Y-155860000D02*
X91065000Y-156340000D01*
X91065000Y-157860000D02*
X91065000Y-158340000D01*
X91065000Y-159860000D02*
X91065000Y-160340000D01*
X91065000Y-161860000D02*
X91065000Y-162340000D01*
X91065000Y-163860000D02*
X91065000Y-164160000D01*
X91065000Y-164160000D02*
X95185000Y-164160000D01*
X95185000Y-114040000D02*
X95185000Y-114340000D01*
X95185000Y-114340000D02*
X97565000Y-114340000D01*
X95185000Y-115860000D02*
X95185000Y-116340000D01*
X95185000Y-117860000D02*
X95185000Y-118340000D01*
X95185000Y-119860000D02*
X95185000Y-120340000D01*
X95185000Y-121860000D02*
X95185000Y-122340000D01*
X95185000Y-123860000D02*
X95185000Y-124340000D01*
X95185000Y-125860000D02*
X95185000Y-126340000D01*
X95185000Y-127860000D02*
X95185000Y-128340000D01*
X95185000Y-129860000D02*
X95185000Y-130340000D01*
X95185000Y-131860000D02*
X95185000Y-132340000D01*
X95185000Y-133860000D02*
X95185000Y-134340000D01*
X95185000Y-135860000D02*
X95185000Y-136340000D01*
X95185000Y-137860000D02*
X95185000Y-138340000D01*
X95185000Y-139860000D02*
X95185000Y-140340000D01*
X95185000Y-141860000D02*
X95185000Y-142340000D01*
X95185000Y-143860000D02*
X95185000Y-144340000D01*
X95185000Y-145860000D02*
X95185000Y-146340000D01*
X95185000Y-147860000D02*
X95185000Y-148340000D01*
X95185000Y-149860000D02*
X95185000Y-150340000D01*
X95185000Y-151860000D02*
X95185000Y-152340000D01*
X95185000Y-153860000D02*
X95185000Y-154340000D01*
X95185000Y-155860000D02*
X95185000Y-156340000D01*
X95185000Y-157860000D02*
X95185000Y-158340000D01*
X95185000Y-159860000D02*
X95185000Y-160340000D01*
X95185000Y-161860000D02*
X95185000Y-162340000D01*
X95185000Y-163860000D02*
X95185000Y-164160000D01*
%TO.C,J3*%
X81065000Y-114040000D02*
X81065000Y-114340000D01*
X81065000Y-114040000D02*
X85185000Y-114040000D01*
X81065000Y-115860000D02*
X81065000Y-116340000D01*
X81065000Y-117860000D02*
X81065000Y-118340000D01*
X81065000Y-119860000D02*
X81065000Y-120340000D01*
X81065000Y-121860000D02*
X81065000Y-122340000D01*
X81065000Y-123860000D02*
X81065000Y-124340000D01*
X81065000Y-125860000D02*
X81065000Y-126340000D01*
X81065000Y-127860000D02*
X81065000Y-128340000D01*
X81065000Y-129860000D02*
X81065000Y-130340000D01*
X81065000Y-131860000D02*
X81065000Y-132340000D01*
X81065000Y-133860000D02*
X81065000Y-134340000D01*
X81065000Y-135860000D02*
X81065000Y-136340000D01*
X81065000Y-137860000D02*
X81065000Y-138340000D01*
X81065000Y-139860000D02*
X81065000Y-140340000D01*
X81065000Y-141860000D02*
X81065000Y-142340000D01*
X81065000Y-143860000D02*
X81065000Y-144340000D01*
X81065000Y-145860000D02*
X81065000Y-146340000D01*
X81065000Y-147860000D02*
X81065000Y-148340000D01*
X81065000Y-149860000D02*
X81065000Y-150340000D01*
X81065000Y-151860000D02*
X81065000Y-152340000D01*
X81065000Y-153860000D02*
X81065000Y-154340000D01*
X81065000Y-155860000D02*
X81065000Y-156340000D01*
X81065000Y-157860000D02*
X81065000Y-158340000D01*
X81065000Y-159860000D02*
X81065000Y-160340000D01*
X81065000Y-161860000D02*
X81065000Y-162340000D01*
X81065000Y-163860000D02*
X81065000Y-164160000D01*
X81065000Y-164160000D02*
X85185000Y-164160000D01*
X85185000Y-114040000D02*
X85185000Y-114340000D01*
X85185000Y-114340000D02*
X87565000Y-114340000D01*
X85185000Y-115860000D02*
X85185000Y-116340000D01*
X85185000Y-117860000D02*
X85185000Y-118340000D01*
X85185000Y-119860000D02*
X85185000Y-120340000D01*
X85185000Y-121860000D02*
X85185000Y-122340000D01*
X85185000Y-123860000D02*
X85185000Y-124340000D01*
X85185000Y-125860000D02*
X85185000Y-126340000D01*
X85185000Y-127860000D02*
X85185000Y-128340000D01*
X85185000Y-129860000D02*
X85185000Y-130340000D01*
X85185000Y-131860000D02*
X85185000Y-132340000D01*
X85185000Y-133860000D02*
X85185000Y-134340000D01*
X85185000Y-135860000D02*
X85185000Y-136340000D01*
X85185000Y-137860000D02*
X85185000Y-138340000D01*
X85185000Y-139860000D02*
X85185000Y-140340000D01*
X85185000Y-141860000D02*
X85185000Y-142340000D01*
X85185000Y-143860000D02*
X85185000Y-144340000D01*
X85185000Y-145860000D02*
X85185000Y-146340000D01*
X85185000Y-147860000D02*
X85185000Y-148340000D01*
X85185000Y-149860000D02*
X85185000Y-150340000D01*
X85185000Y-151860000D02*
X85185000Y-152340000D01*
X85185000Y-153860000D02*
X85185000Y-154340000D01*
X85185000Y-155860000D02*
X85185000Y-156340000D01*
X85185000Y-157860000D02*
X85185000Y-158340000D01*
X85185000Y-159860000D02*
X85185000Y-160340000D01*
X85185000Y-161860000D02*
X85185000Y-162340000D01*
X85185000Y-163860000D02*
X85185000Y-164160000D01*
D12*
%TO.C,REF\u002A\u002A*%
X89798975Y-100950000D02*
G75*
G02*
X86751025Y-100950000I-1523975J0D01*
G01*
X86751025Y-100950000D02*
G75*
G02*
X89798975Y-100950000I1523975J0D01*
G01*
D15*
X87545906Y-101733879D02*
X87218740Y-101733879D01*
X87218740Y-100189754D01*
X87545906Y-100189754D01*
X87545906Y-101733879D01*
G36*
X87545906Y-101733879D02*
G01*
X87218740Y-101733879D01*
X87218740Y-100189754D01*
X87545906Y-100189754D01*
X87545906Y-101733879D01*
G37*
X88203956Y-100450000D02*
X87643808Y-100450000D01*
X87643808Y-100189754D01*
X88191564Y-100189754D01*
X88203956Y-100450000D01*
G36*
X88203956Y-100450000D02*
G01*
X87643808Y-100450000D01*
X87643808Y-100189754D01*
X88191564Y-100189754D01*
X88203956Y-100450000D01*
G37*
X88083748Y-101080786D02*
X87643808Y-101080786D01*
X87643808Y-100841608D01*
X88083748Y-100841608D01*
X88083748Y-101080786D01*
G36*
X88083748Y-101080786D02*
G01*
X87643808Y-101080786D01*
X87643808Y-100841608D01*
X88083748Y-100841608D01*
X88083748Y-101080786D01*
G37*
X88191564Y-101733879D02*
X87643808Y-101733879D01*
X87643808Y-101472394D01*
X88203956Y-101472394D01*
X88191564Y-101733879D01*
G36*
X88191564Y-101733879D02*
G01*
X87643808Y-101733879D01*
X87643808Y-101472394D01*
X88203956Y-101472394D01*
X88191564Y-101733879D01*
G37*
X88868203Y-100450000D02*
X88798804Y-100450000D01*
X88789234Y-100450281D01*
X88780262Y-100451100D01*
X88771868Y-100452421D01*
X88764034Y-100454207D01*
X88756740Y-100456424D01*
X88749967Y-100459035D01*
X88743695Y-100462005D01*
X88737906Y-100465298D01*
X88732579Y-100468877D01*
X88723237Y-100476753D01*
X88715516Y-100485345D01*
X88709260Y-100494368D01*
X88704316Y-100503535D01*
X88700529Y-100512558D01*
X88697745Y-100521150D01*
X88695810Y-100529026D01*
X88694569Y-100535898D01*
X88693672Y-100543696D01*
X88693467Y-100547902D01*
X88693467Y-101374492D01*
X88693769Y-101383386D01*
X88694649Y-101391725D01*
X88696070Y-101399526D01*
X88697993Y-101406807D01*
X88700378Y-101413586D01*
X88703188Y-101419881D01*
X88706383Y-101425710D01*
X88709925Y-101431091D01*
X88713777Y-101436042D01*
X88722250Y-101444724D01*
X88731496Y-101451901D01*
X88741204Y-101457715D01*
X88751066Y-101462310D01*
X88760774Y-101465829D01*
X88770020Y-101468417D01*
X88778493Y-101470215D01*
X88785887Y-101471369D01*
X88794277Y-101472202D01*
X88798804Y-101472394D01*
X88868203Y-101472394D01*
X88868203Y-101733879D01*
X88739319Y-101733879D01*
X88705429Y-101732912D01*
X88673658Y-101730093D01*
X88643935Y-101725546D01*
X88616193Y-101719395D01*
X88590364Y-101711762D01*
X88566378Y-101702771D01*
X88544169Y-101692546D01*
X88523667Y-101681210D01*
X88504804Y-101668886D01*
X88487512Y-101655698D01*
X88471723Y-101641770D01*
X88457369Y-101627224D01*
X88444380Y-101612185D01*
X88432689Y-101596775D01*
X88422227Y-101581119D01*
X88412927Y-101565339D01*
X88404719Y-101549558D01*
X88397536Y-101533902D01*
X88391309Y-101518492D01*
X88385970Y-101503453D01*
X88381451Y-101488907D01*
X88377683Y-101474979D01*
X88374598Y-101461791D01*
X88372128Y-101449467D01*
X88370204Y-101438131D01*
X88368758Y-101427906D01*
X88367722Y-101418915D01*
X88367028Y-101411282D01*
X88366391Y-101400584D01*
X88366300Y-101396799D01*
X88366300Y-100526834D01*
X88367370Y-100496211D01*
X88370489Y-100467500D01*
X88375520Y-100440641D01*
X88382328Y-100415572D01*
X88390774Y-100392231D01*
X88400724Y-100370556D01*
X88412039Y-100350487D01*
X88424584Y-100331960D01*
X88438221Y-100314915D01*
X88452815Y-100299289D01*
X88468229Y-100285021D01*
X88484325Y-100272049D01*
X88500968Y-100260312D01*
X88518021Y-100249747D01*
X88535347Y-100240294D01*
X88552809Y-100231889D01*
X88570271Y-100224473D01*
X88587597Y-100217982D01*
X88604650Y-100212355D01*
X88621293Y-100207530D01*
X88637389Y-100203446D01*
X88652803Y-100200041D01*
X88667397Y-100197254D01*
X88681034Y-100195021D01*
X88693579Y-100193283D01*
X88704894Y-100191976D01*
X88714844Y-100191040D01*
X88723290Y-100190413D01*
X88730098Y-100190032D01*
X88738248Y-100189765D01*
X88739319Y-100189754D01*
X88868203Y-100189754D01*
X88868203Y-100450000D01*
G36*
X88868203Y-100450000D02*
G01*
X88798804Y-100450000D01*
X88789234Y-100450281D01*
X88780262Y-100451100D01*
X88771868Y-100452421D01*
X88764034Y-100454207D01*
X88756740Y-100456424D01*
X88749967Y-100459035D01*
X88743695Y-100462005D01*
X88737906Y-100465298D01*
X88732579Y-100468877D01*
X88723237Y-100476753D01*
X88715516Y-100485345D01*
X88709260Y-100494368D01*
X88704316Y-100503535D01*
X88700529Y-100512558D01*
X88697745Y-100521150D01*
X88695810Y-100529026D01*
X88694569Y-100535898D01*
X88693672Y-100543696D01*
X88693467Y-100547902D01*
X88693467Y-101374492D01*
X88693769Y-101383386D01*
X88694649Y-101391725D01*
X88696070Y-101399526D01*
X88697993Y-101406807D01*
X88700378Y-101413586D01*
X88703188Y-101419881D01*
X88706383Y-101425710D01*
X88709925Y-101431091D01*
X88713777Y-101436042D01*
X88722250Y-101444724D01*
X88731496Y-101451901D01*
X88741204Y-101457715D01*
X88751066Y-101462310D01*
X88760774Y-101465829D01*
X88770020Y-101468417D01*
X88778493Y-101470215D01*
X88785887Y-101471369D01*
X88794277Y-101472202D01*
X88798804Y-101472394D01*
X88868203Y-101472394D01*
X88868203Y-101733879D01*
X88739319Y-101733879D01*
X88705429Y-101732912D01*
X88673658Y-101730093D01*
X88643935Y-101725546D01*
X88616193Y-101719395D01*
X88590364Y-101711762D01*
X88566378Y-101702771D01*
X88544169Y-101692546D01*
X88523667Y-101681210D01*
X88504804Y-101668886D01*
X88487512Y-101655698D01*
X88471723Y-101641770D01*
X88457369Y-101627224D01*
X88444380Y-101612185D01*
X88432689Y-101596775D01*
X88422227Y-101581119D01*
X88412927Y-101565339D01*
X88404719Y-101549558D01*
X88397536Y-101533902D01*
X88391309Y-101518492D01*
X88385970Y-101503453D01*
X88381451Y-101488907D01*
X88377683Y-101474979D01*
X88374598Y-101461791D01*
X88372128Y-101449467D01*
X88370204Y-101438131D01*
X88368758Y-101427906D01*
X88367722Y-101418915D01*
X88367028Y-101411282D01*
X88366391Y-101400584D01*
X88366300Y-101396799D01*
X88366300Y-100526834D01*
X88367370Y-100496211D01*
X88370489Y-100467500D01*
X88375520Y-100440641D01*
X88382328Y-100415572D01*
X88390774Y-100392231D01*
X88400724Y-100370556D01*
X88412039Y-100350487D01*
X88424584Y-100331960D01*
X88438221Y-100314915D01*
X88452815Y-100299289D01*
X88468229Y-100285021D01*
X88484325Y-100272049D01*
X88500968Y-100260312D01*
X88518021Y-100249747D01*
X88535347Y-100240294D01*
X88552809Y-100231889D01*
X88570271Y-100224473D01*
X88587597Y-100217982D01*
X88604650Y-100212355D01*
X88621293Y-100207530D01*
X88637389Y-100203446D01*
X88652803Y-100200041D01*
X88667397Y-100197254D01*
X88681034Y-100195021D01*
X88693579Y-100193283D01*
X88704894Y-100191976D01*
X88714844Y-100191040D01*
X88723290Y-100190413D01*
X88730098Y-100190032D01*
X88738248Y-100189765D01*
X88739319Y-100189754D01*
X88868203Y-100189754D01*
X88868203Y-100450000D01*
G37*
X89131356Y-100190721D02*
X89163127Y-100193540D01*
X89192850Y-100198087D01*
X89220592Y-100204238D01*
X89246421Y-100211871D01*
X89270407Y-100220862D01*
X89292616Y-100231087D01*
X89313118Y-100242423D01*
X89331981Y-100254747D01*
X89349273Y-100267935D01*
X89365062Y-100281863D01*
X89379416Y-100296409D01*
X89392405Y-100311448D01*
X89404096Y-100326858D01*
X89414558Y-100342514D01*
X89423858Y-100358294D01*
X89432066Y-100374075D01*
X89439249Y-100389731D01*
X89445476Y-100405141D01*
X89450815Y-100420180D01*
X89455334Y-100434726D01*
X89459102Y-100448654D01*
X89462187Y-100461842D01*
X89464657Y-100474166D01*
X89466581Y-100485502D01*
X89468027Y-100495727D01*
X89469063Y-100504718D01*
X89469757Y-100512351D01*
X89470394Y-100523049D01*
X89470486Y-100526834D01*
X89470486Y-101396799D01*
X89469415Y-101427422D01*
X89466296Y-101456133D01*
X89461265Y-101482992D01*
X89454457Y-101508061D01*
X89446011Y-101531402D01*
X89436061Y-101553077D01*
X89424746Y-101573146D01*
X89412201Y-101591673D01*
X89398564Y-101608718D01*
X89383970Y-101624344D01*
X89368556Y-101638612D01*
X89352460Y-101651584D01*
X89335817Y-101663321D01*
X89318764Y-101673886D01*
X89301438Y-101683339D01*
X89283976Y-101691744D01*
X89266514Y-101699160D01*
X89249188Y-101705651D01*
X89232135Y-101711278D01*
X89215492Y-101716103D01*
X89199396Y-101720187D01*
X89183982Y-101723592D01*
X89169388Y-101726379D01*
X89155751Y-101728612D01*
X89143206Y-101730350D01*
X89131891Y-101731657D01*
X89121941Y-101732593D01*
X89113495Y-101733220D01*
X89106687Y-101733601D01*
X89098537Y-101733868D01*
X89097467Y-101733879D01*
X88964866Y-101733879D01*
X88964866Y-101472394D01*
X89037983Y-101472394D01*
X89047552Y-101472113D01*
X89056524Y-101471294D01*
X89064918Y-101469973D01*
X89072752Y-101468187D01*
X89080046Y-101465970D01*
X89086819Y-101463359D01*
X89093091Y-101460389D01*
X89098880Y-101457096D01*
X89104207Y-101453517D01*
X89113549Y-101445641D01*
X89121270Y-101437049D01*
X89127526Y-101428026D01*
X89132470Y-101418859D01*
X89136257Y-101409836D01*
X89139041Y-101401244D01*
X89140976Y-101393368D01*
X89142217Y-101386496D01*
X89143114Y-101378698D01*
X89143320Y-101374492D01*
X89143320Y-100547902D01*
X89143017Y-100539008D01*
X89142137Y-100530669D01*
X89140716Y-100522868D01*
X89138793Y-100515587D01*
X89136408Y-100508808D01*
X89133598Y-100502513D01*
X89130403Y-100496684D01*
X89126861Y-100491303D01*
X89123009Y-100486352D01*
X89114536Y-100477670D01*
X89105290Y-100470493D01*
X89095582Y-100464679D01*
X89085720Y-100460084D01*
X89076012Y-100456565D01*
X89066766Y-100453977D01*
X89058293Y-100452179D01*
X89050899Y-100451025D01*
X89042509Y-100450192D01*
X89037983Y-100450000D01*
X88964866Y-100450000D01*
X88964866Y-100189754D01*
X89097467Y-100189754D01*
X89131356Y-100190721D01*
G36*
X89131356Y-100190721D02*
G01*
X89163127Y-100193540D01*
X89192850Y-100198087D01*
X89220592Y-100204238D01*
X89246421Y-100211871D01*
X89270407Y-100220862D01*
X89292616Y-100231087D01*
X89313118Y-100242423D01*
X89331981Y-100254747D01*
X89349273Y-100267935D01*
X89365062Y-100281863D01*
X89379416Y-100296409D01*
X89392405Y-100311448D01*
X89404096Y-100326858D01*
X89414558Y-100342514D01*
X89423858Y-100358294D01*
X89432066Y-100374075D01*
X89439249Y-100389731D01*
X89445476Y-100405141D01*
X89450815Y-100420180D01*
X89455334Y-100434726D01*
X89459102Y-100448654D01*
X89462187Y-100461842D01*
X89464657Y-100474166D01*
X89466581Y-100485502D01*
X89468027Y-100495727D01*
X89469063Y-100504718D01*
X89469757Y-100512351D01*
X89470394Y-100523049D01*
X89470486Y-100526834D01*
X89470486Y-101396799D01*
X89469415Y-101427422D01*
X89466296Y-101456133D01*
X89461265Y-101482992D01*
X89454457Y-101508061D01*
X89446011Y-101531402D01*
X89436061Y-101553077D01*
X89424746Y-101573146D01*
X89412201Y-101591673D01*
X89398564Y-101608718D01*
X89383970Y-101624344D01*
X89368556Y-101638612D01*
X89352460Y-101651584D01*
X89335817Y-101663321D01*
X89318764Y-101673886D01*
X89301438Y-101683339D01*
X89283976Y-101691744D01*
X89266514Y-101699160D01*
X89249188Y-101705651D01*
X89232135Y-101711278D01*
X89215492Y-101716103D01*
X89199396Y-101720187D01*
X89183982Y-101723592D01*
X89169388Y-101726379D01*
X89155751Y-101728612D01*
X89143206Y-101730350D01*
X89131891Y-101731657D01*
X89121941Y-101732593D01*
X89113495Y-101733220D01*
X89106687Y-101733601D01*
X89098537Y-101733868D01*
X89097467Y-101733879D01*
X88964866Y-101733879D01*
X88964866Y-101472394D01*
X89037983Y-101472394D01*
X89047552Y-101472113D01*
X89056524Y-101471294D01*
X89064918Y-101469973D01*
X89072752Y-101468187D01*
X89080046Y-101465970D01*
X89086819Y-101463359D01*
X89093091Y-101460389D01*
X89098880Y-101457096D01*
X89104207Y-101453517D01*
X89113549Y-101445641D01*
X89121270Y-101437049D01*
X89127526Y-101428026D01*
X89132470Y-101418859D01*
X89136257Y-101409836D01*
X89139041Y-101401244D01*
X89140976Y-101393368D01*
X89142217Y-101386496D01*
X89143114Y-101378698D01*
X89143320Y-101374492D01*
X89143320Y-100547902D01*
X89143017Y-100539008D01*
X89142137Y-100530669D01*
X89140716Y-100522868D01*
X89138793Y-100515587D01*
X89136408Y-100508808D01*
X89133598Y-100502513D01*
X89130403Y-100496684D01*
X89126861Y-100491303D01*
X89123009Y-100486352D01*
X89114536Y-100477670D01*
X89105290Y-100470493D01*
X89095582Y-100464679D01*
X89085720Y-100460084D01*
X89076012Y-100456565D01*
X89066766Y-100453977D01*
X89058293Y-100452179D01*
X89050899Y-100451025D01*
X89042509Y-100450192D01*
X89037983Y-100450000D01*
X88964866Y-100450000D01*
X88964866Y-100189754D01*
X89097467Y-100189754D01*
X89131356Y-100190721D01*
G37*
%TD*%
M02*
