%TF.GenerationSoftware,KiCad,Pcbnew,8.0.1*%
%TF.CreationDate,2026-01-15T10:06:32-05:00*%
%TF.ProjectId,Mezzanine Backplane,4d657a7a-616e-4696-9e65-204261636b70,rev?*%
%TF.SameCoordinates,Original*%
%TF.FileFunction,Soldermask,Bot*%
%TF.FilePolarity,Negative*%
%FSLAX46Y46*%
G04 Gerber Fmt 4.6, Leading zero omitted, Abs format (unit mm)*
G04 Created by KiCad (PCBNEW 8.0.1) date 2026-01-15 10:06:32*
%MOMM*%
%LPD*%
G01*
G04 APERTURE LIST*
G04 Aperture macros list*
%AMRoundRect*
0 Rectangle with rounded corners*
0 $1 Rounding radius*
0 $2 $3 $4 $5 $6 $7 $8 $9 X,Y pos of 4 corners*
0 Add a 4 corners polygon primitive as box body*
4,1,4,$2,$3,$4,$5,$6,$7,$8,$9,$2,$3,0*
0 Add four circle primitives for the rounded corners*
1,1,$1+$1,$2,$3*
1,1,$1+$1,$4,$5*
1,1,$1+$1,$6,$7*
1,1,$1+$1,$8,$9*
0 Add four rect primitives between the rounded corners*
20,1,$1+$1,$2,$3,$4,$5,0*
20,1,$1+$1,$4,$5,$6,$7,0*
20,1,$1+$1,$6,$7,$8,$9,0*
20,1,$1+$1,$8,$9,$2,$3,0*%
G04 Aperture macros list end*
%ADD10C,0.550000*%
%ADD11RoundRect,0.085000X-0.835000X0.085000X-0.835000X-0.085000X0.835000X-0.085000X0.835000X0.085000X0*%
G04 APERTURE END LIST*
D10*
%TO.C,J1*%
X81375000Y-86800000D03*
X81375000Y-113200000D03*
D11*
X82125000Y-87750000D03*
X82125000Y-88250000D03*
X82125000Y-88750000D03*
X82125000Y-89250000D03*
X82125000Y-89750000D03*
X82125000Y-90250000D03*
X82125000Y-90750000D03*
X82125000Y-91250000D03*
X82125000Y-91750000D03*
X82125000Y-92250000D03*
X82125000Y-92750000D03*
X82125000Y-93250000D03*
X82125000Y-93750000D03*
X82125000Y-94250000D03*
X82125000Y-94750000D03*
X82125000Y-95250000D03*
X82125000Y-95750000D03*
X82125000Y-96250000D03*
X82125000Y-96750000D03*
X82125000Y-97250000D03*
X82125000Y-97750000D03*
X82125000Y-98250000D03*
X82125000Y-98750000D03*
X82125000Y-99250000D03*
X82125000Y-99750000D03*
X82125000Y-100250000D03*
X82125000Y-100750000D03*
X82125000Y-101250000D03*
X82125000Y-101750000D03*
X82125000Y-102250000D03*
X82125000Y-102750000D03*
X82125000Y-103250000D03*
X82125000Y-103750000D03*
X82125000Y-104250000D03*
X82125000Y-104750000D03*
X82125000Y-105250000D03*
X82125000Y-105750000D03*
X82125000Y-106250000D03*
X82125000Y-106750000D03*
X82125000Y-107250000D03*
X82125000Y-107750000D03*
X82125000Y-108250000D03*
X82125000Y-108750000D03*
X82125000Y-109250000D03*
X82125000Y-109750000D03*
X82125000Y-110250000D03*
X82125000Y-110750000D03*
X82125000Y-111250000D03*
X82125000Y-111750000D03*
X82125000Y-112250000D03*
X78125000Y-87750000D03*
X78125000Y-88250000D03*
X78125000Y-88750000D03*
X78125000Y-89250000D03*
X78125000Y-89750000D03*
X78125000Y-90250000D03*
X78125000Y-90750000D03*
X78125000Y-91250000D03*
X78125000Y-91750000D03*
X78125000Y-92250000D03*
X78125000Y-92750000D03*
X78125000Y-93250000D03*
X78125000Y-93750000D03*
X78125000Y-94250000D03*
X78125000Y-94750000D03*
X78125000Y-95250000D03*
X78125000Y-95750000D03*
X78125000Y-96250000D03*
X78125000Y-96750000D03*
X78125000Y-97250000D03*
X78125000Y-97750000D03*
X78125000Y-98250000D03*
X78125000Y-98750000D03*
X78125000Y-99250000D03*
X78125000Y-99750000D03*
X78125000Y-100250000D03*
X78125000Y-100750000D03*
X78125000Y-101250000D03*
X78125000Y-101750000D03*
X78125000Y-102250000D03*
X78125000Y-102750000D03*
X78125000Y-103250000D03*
X78125000Y-103750000D03*
X78125000Y-104250000D03*
X78125000Y-104750000D03*
X78125000Y-105250000D03*
X78125000Y-105750000D03*
X78125000Y-106250000D03*
X78125000Y-106750000D03*
X78125000Y-107250000D03*
X78125000Y-107750000D03*
X78125000Y-108250000D03*
X78125000Y-108750000D03*
X78125000Y-109250000D03*
X78125000Y-109750000D03*
X78125000Y-110250000D03*
X78125000Y-110750000D03*
X78125000Y-111250000D03*
X78125000Y-111750000D03*
X78125000Y-112250000D03*
%TD*%
D10*
%TO.C,J2*%
X97375000Y-86800000D03*
X97375000Y-113200000D03*
D11*
X98125000Y-87750000D03*
X98125000Y-88250000D03*
X98125000Y-88750000D03*
X98125000Y-89250000D03*
X98125000Y-89750000D03*
X98125000Y-90250000D03*
X98125000Y-90750000D03*
X98125000Y-91250000D03*
X98125000Y-91750000D03*
X98125000Y-92250000D03*
X98125000Y-92750000D03*
X98125000Y-93250000D03*
X98125000Y-93750000D03*
X98125000Y-94250000D03*
X98125000Y-94750000D03*
X98125000Y-95250000D03*
X98125000Y-95750000D03*
X98125000Y-96250000D03*
X98125000Y-96750000D03*
X98125000Y-97250000D03*
X98125000Y-97750000D03*
X98125000Y-98250000D03*
X98125000Y-98750000D03*
X98125000Y-99250000D03*
X98125000Y-99750000D03*
X98125000Y-100250000D03*
X98125000Y-100750000D03*
X98125000Y-101250000D03*
X98125000Y-101750000D03*
X98125000Y-102250000D03*
X98125000Y-102750000D03*
X98125000Y-103250000D03*
X98125000Y-103750000D03*
X98125000Y-104250000D03*
X98125000Y-104750000D03*
X98125000Y-105250000D03*
X98125000Y-105750000D03*
X98125000Y-106250000D03*
X98125000Y-106750000D03*
X98125000Y-107250000D03*
X98125000Y-107750000D03*
X98125000Y-108250000D03*
X98125000Y-108750000D03*
X98125000Y-109250000D03*
X98125000Y-109750000D03*
X98125000Y-110250000D03*
X98125000Y-110750000D03*
X98125000Y-111250000D03*
X98125000Y-111750000D03*
X98125000Y-112250000D03*
X94125000Y-87750000D03*
X94125000Y-88250000D03*
X94125000Y-88750000D03*
X94125000Y-89250000D03*
X94125000Y-89750000D03*
X94125000Y-90250000D03*
X94125000Y-90750000D03*
X94125000Y-91250000D03*
X94125000Y-91750000D03*
X94125000Y-92250000D03*
X94125000Y-92750000D03*
X94125000Y-93250000D03*
X94125000Y-93750000D03*
X94125000Y-94250000D03*
X94125000Y-94750000D03*
X94125000Y-95250000D03*
X94125000Y-95750000D03*
X94125000Y-96250000D03*
X94125000Y-96750000D03*
X94125000Y-97250000D03*
X94125000Y-97750000D03*
X94125000Y-98250000D03*
X94125000Y-98750000D03*
X94125000Y-99250000D03*
X94125000Y-99750000D03*
X94125000Y-100250000D03*
X94125000Y-100750000D03*
X94125000Y-101250000D03*
X94125000Y-101750000D03*
X94125000Y-102250000D03*
X94125000Y-102750000D03*
X94125000Y-103250000D03*
X94125000Y-103750000D03*
X94125000Y-104250000D03*
X94125000Y-104750000D03*
X94125000Y-105250000D03*
X94125000Y-105750000D03*
X94125000Y-106250000D03*
X94125000Y-106750000D03*
X94125000Y-107250000D03*
X94125000Y-107750000D03*
X94125000Y-108250000D03*
X94125000Y-108750000D03*
X94125000Y-109250000D03*
X94125000Y-109750000D03*
X94125000Y-110250000D03*
X94125000Y-110750000D03*
X94125000Y-111250000D03*
X94125000Y-111750000D03*
X94125000Y-112250000D03*
%TD*%
M02*
