%TF.GenerationSoftware,KiCad,Pcbnew,8.0.1*%
%TF.CreationDate,2026-01-16T21:36:46-05:00*%
%TF.ProjectId,Mezzanine Backplane,4d657a7a-616e-4696-9e65-204261636b70,rev?*%
%TF.SameCoordinates,Original*%
%TF.FileFunction,Profile,NP*%
%FSLAX46Y46*%
G04 Gerber Fmt 4.6, Leading zero omitted, Abs format (unit mm)*
G04 Created by KiCad (PCBNEW 8.0.1) date 2026-01-16 21:36:46*
%MOMM*%
%LPD*%
G01*
G04 APERTURE LIST*
%TA.AperFunction,Profile*%
%ADD10C,0.050000*%
%TD*%
G04 APERTURE END LIST*
D10*
X90375000Y-84100000D02*
G75*
G02*
X89625000Y-83350000I0J750000D01*
G01*
X74350000Y-165300000D02*
G75*
G02*
X73600000Y-164550000I0J750000D01*
G01*
X90375000Y-84100000D02*
X101950000Y-84100000D01*
X102700000Y-84850000D02*
X102700000Y-164550000D01*
X73600000Y-164550000D02*
X73600000Y-84850000D01*
X89625000Y-166050000D02*
G75*
G02*
X90375000Y-165300000I750000J0D01*
G01*
X86625000Y-83350000D02*
X86625000Y-82950000D01*
X73600000Y-84850000D02*
G75*
G02*
X74350000Y-84100000I750000J0D01*
G01*
X87375000Y-167200000D02*
G75*
G02*
X86625000Y-166450000I0J750000D01*
G01*
X85875000Y-165300000D02*
G75*
G02*
X86625000Y-166050000I0J-750000D01*
G01*
X102700000Y-164550000D02*
G75*
G02*
X101950000Y-165300000I-750000J0D01*
G01*
X88875000Y-82200000D02*
G75*
G02*
X89625000Y-82950000I0J-750000D01*
G01*
X89625000Y-166050000D02*
X89625000Y-166450000D01*
X101950000Y-84100000D02*
G75*
G02*
X102700000Y-84850000I0J-750000D01*
G01*
X86625000Y-83350000D02*
G75*
G02*
X85875000Y-84100000I-750000J0D01*
G01*
X86625000Y-166450000D02*
X86625000Y-166050000D01*
X86625000Y-82950000D02*
G75*
G02*
X87375000Y-82200000I750000J0D01*
G01*
X87375000Y-82200000D02*
X88875000Y-82200000D01*
X85875000Y-165300000D02*
X74350000Y-165300000D01*
X89625000Y-166450000D02*
G75*
G02*
X88875000Y-167200000I-750000J0D01*
G01*
X88875000Y-167200000D02*
X87375000Y-167200000D01*
X74350000Y-84100000D02*
X85875000Y-84100000D01*
X89625000Y-82950000D02*
X89625000Y-83350000D01*
X101950000Y-165300000D02*
X90375000Y-165300000D01*
M02*
