%TF.GenerationSoftware,KiCad,Pcbnew,8.0.1*%
%TF.CreationDate,2026-01-15T10:06:32-05:00*%
%TF.ProjectId,Mezzanine Backplane,4d657a7a-616e-4696-9e65-204261636b70,rev?*%
%TF.SameCoordinates,Original*%
%TF.FileFunction,Copper,L2,Inr*%
%TF.FilePolarity,Positive*%
%FSLAX46Y46*%
G04 Gerber Fmt 4.6, Leading zero omitted, Abs format (unit mm)*
G04 Created by KiCad (PCBNEW 8.0.1) date 2026-01-15 10:06:32*
%MOMM*%
%LPD*%
G01*
G04 APERTURE LIST*
%TA.AperFunction,ViaPad*%
%ADD10C,0.500000*%
%TD*%
%TA.AperFunction,Conductor*%
%ADD11C,0.120000*%
%TD*%
G04 APERTURE END LIST*
D10*
%TO.N,GND*%
X83200000Y-87750000D03*
X96200000Y-148100000D03*
X96200000Y-122100000D03*
X80100000Y-132100000D03*
X96200000Y-128100000D03*
X99500000Y-102750000D03*
X94400000Y-121200000D03*
X93050000Y-90750000D03*
X99500000Y-96750000D03*
X96200000Y-136100000D03*
X90100000Y-89600000D03*
X80100000Y-124100000D03*
X99500000Y-99750000D03*
X84200000Y-113500000D03*
X84300000Y-143000000D03*
X84200000Y-157100000D03*
X99500000Y-106750000D03*
X83200000Y-99750000D03*
X76250000Y-95250000D03*
X93000000Y-108250000D03*
X76750000Y-99750000D03*
X83200000Y-90750000D03*
X96200000Y-154100000D03*
X80100000Y-130100000D03*
X99500000Y-108250000D03*
X76250000Y-98250000D03*
X76750000Y-87750000D03*
X97100000Y-120100000D03*
X93000000Y-109750000D03*
X84000000Y-132600000D03*
X93050000Y-101250000D03*
X80100000Y-146100000D03*
X80100000Y-134100000D03*
X81900000Y-157100000D03*
X83250000Y-109750000D03*
X91900000Y-117100000D03*
X93050000Y-96750000D03*
X99500000Y-87750000D03*
X80200000Y-156100000D03*
X84400000Y-155100000D03*
X76250000Y-92250000D03*
X99500000Y-105750000D03*
X93700000Y-118600000D03*
X91900000Y-139100000D03*
X96300000Y-116100000D03*
X80100000Y-154100000D03*
X80100000Y-150100000D03*
X93050000Y-89250000D03*
X83200000Y-96750000D03*
X79900000Y-116100000D03*
X88300000Y-135100000D03*
X76750000Y-108250000D03*
X88000000Y-92000000D03*
X93050000Y-93750000D03*
X83200000Y-104250000D03*
X91900000Y-145100000D03*
X80100000Y-136100000D03*
X91900000Y-127100000D03*
X76750000Y-102750000D03*
X83900000Y-136600000D03*
X91900000Y-119100000D03*
X83200000Y-95250000D03*
X76250000Y-89250000D03*
X80100000Y-142100000D03*
X84400000Y-117600000D03*
X91900000Y-149400000D03*
X93400000Y-122200000D03*
X91900000Y-131200000D03*
X82300000Y-122200000D03*
X76250000Y-101250000D03*
X100000000Y-98250000D03*
X91900000Y-137100000D03*
X99500000Y-90750000D03*
X86400000Y-144000000D03*
X99500000Y-109750000D03*
X80100000Y-140100000D03*
X92000000Y-157100000D03*
X83200000Y-101250000D03*
X84400000Y-131100000D03*
X83200000Y-89250000D03*
X84400000Y-153100000D03*
X84100000Y-119600000D03*
X80100000Y-152100000D03*
X92800000Y-113500000D03*
X88200000Y-128900000D03*
X80100000Y-122000000D03*
X84300000Y-145100000D03*
X96200000Y-140100000D03*
X96200000Y-156100000D03*
X96200000Y-142100000D03*
X76750000Y-109750000D03*
X83200000Y-102750000D03*
X91900000Y-147100000D03*
X93050000Y-102750000D03*
X80100000Y-120200000D03*
X91900000Y-125100000D03*
X93050000Y-104250000D03*
X94400000Y-116600000D03*
X83200000Y-92250000D03*
X82000000Y-117600000D03*
X84500000Y-128900000D03*
X83900000Y-140600000D03*
X83200000Y-93750000D03*
X91900000Y-141100000D03*
X90800000Y-148200000D03*
X100000000Y-104250000D03*
X84100000Y-118600000D03*
X83300000Y-114600000D03*
X84200000Y-123600000D03*
X83200000Y-98250000D03*
X93050000Y-105750000D03*
X80100000Y-144100000D03*
X88100000Y-157100000D03*
X83250000Y-106750000D03*
X92100000Y-115100000D03*
X84400000Y-139100000D03*
X88100000Y-149100000D03*
X88200000Y-127600000D03*
X96200000Y-132100000D03*
X96200000Y-126100000D03*
X96200000Y-146100000D03*
X94400000Y-117700000D03*
X84300000Y-147100000D03*
X92900000Y-119500000D03*
X80100000Y-128100000D03*
X94400000Y-157100000D03*
X80100000Y-148100000D03*
X88200000Y-142900000D03*
X93050000Y-95250000D03*
X80100000Y-138100000D03*
X91900000Y-135300000D03*
X80100000Y-126100000D03*
X84400000Y-115200000D03*
X96200000Y-144100000D03*
X92600000Y-123600000D03*
X91900000Y-120500000D03*
X84000000Y-126600000D03*
X96200000Y-130100000D03*
X76250000Y-104250000D03*
X83250000Y-108250000D03*
X84400000Y-120600000D03*
X91600000Y-106200000D03*
X76750000Y-93750000D03*
X96200000Y-152100000D03*
X91900000Y-143100000D03*
X84400000Y-125100000D03*
X93050000Y-87750000D03*
X93050000Y-98250000D03*
X76750000Y-96750000D03*
X91900000Y-129100000D03*
X88200000Y-137700000D03*
X91900000Y-153100000D03*
X91900000Y-133200000D03*
X91900000Y-151200000D03*
X76750000Y-90750000D03*
X88100000Y-155800000D03*
X100000000Y-95250000D03*
X96200000Y-134100000D03*
X85100000Y-106200000D03*
X98000000Y-118200000D03*
X76750000Y-106750000D03*
X88200000Y-121100000D03*
X93000000Y-106750000D03*
X82400000Y-118600000D03*
X76750000Y-105750000D03*
X96200000Y-138100000D03*
X84300000Y-149100000D03*
X91900000Y-155100000D03*
X84400000Y-151200000D03*
X93050000Y-99750000D03*
X100000000Y-89250000D03*
X83200000Y-105750000D03*
X85800000Y-89800000D03*
X100000000Y-101250000D03*
X84400000Y-135100000D03*
X96200000Y-124100000D03*
X100000000Y-92250000D03*
X93050000Y-92250000D03*
X99500000Y-93750000D03*
X96200000Y-150100000D03*
%TO.N,/L_7*%
X84450000Y-133100000D03*
X76250000Y-90250000D03*
%TO.N,/L_15*%
X87900000Y-151100000D03*
X76250000Y-93250000D03*
%TO.N,+3.3V*%
X80100000Y-113000000D03*
X81800000Y-158400000D03*
X80400000Y-113500000D03*
X92600000Y-107250000D03*
X80600000Y-113000000D03*
X82500000Y-158400000D03*
X99900000Y-107250000D03*
X76350000Y-107250000D03*
X92600000Y-107750000D03*
X93900000Y-158400000D03*
X91800000Y-158400000D03*
X79900000Y-113500000D03*
X76350000Y-107750000D03*
X92500000Y-158400000D03*
X93200000Y-158400000D03*
X79600000Y-113000000D03*
X83650000Y-107250000D03*
X83650000Y-107750000D03*
X83900000Y-158400000D03*
X99900000Y-107750000D03*
X83200000Y-158400000D03*
X79400000Y-113500000D03*
%TO.N,/L_36*%
X99500000Y-101750000D03*
X83925000Y-101750000D03*
%TO.N,+5V*%
X96200000Y-113600000D03*
X83650000Y-109250000D03*
X99900000Y-108755810D03*
X83700000Y-159800000D03*
X83650000Y-108755810D03*
X76350000Y-109250000D03*
X93000000Y-159800000D03*
X92600000Y-108755810D03*
X92300000Y-159800000D03*
X93700000Y-159800000D03*
X96500000Y-113100000D03*
X95700000Y-113600000D03*
X84400000Y-159800000D03*
X96700000Y-113600000D03*
X95500000Y-113100000D03*
X99900000Y-109250000D03*
X92600000Y-109250000D03*
X76350000Y-108755810D03*
X96000000Y-113100000D03*
X94400000Y-159800000D03*
X82300000Y-159800000D03*
X83000000Y-159800000D03*
%TO.N,/L_41*%
X91825000Y-102850000D03*
X76250000Y-103250000D03*
%TO.N,/L_25*%
X76250000Y-97250000D03*
X91825000Y-96850000D03*
%TO.N,+24V*%
X94600000Y-163100000D03*
X83100000Y-163100000D03*
X83250000Y-110750000D03*
X93000000Y-111750000D03*
X93000000Y-111250000D03*
X91800000Y-163100000D03*
X99500000Y-111750000D03*
X92500000Y-163100000D03*
X93000000Y-110750000D03*
X82400000Y-163100000D03*
X83800000Y-163100000D03*
X99500000Y-111250000D03*
X76750000Y-112250000D03*
X83250000Y-111250000D03*
X84500000Y-163100000D03*
X76750000Y-110750000D03*
X93900000Y-163100000D03*
X99500000Y-112250000D03*
X76750000Y-111250000D03*
X81700000Y-163100000D03*
X83250000Y-111750000D03*
X83250000Y-112250000D03*
X93000000Y-112250000D03*
X93200000Y-163100000D03*
X76750000Y-111750000D03*
X99500000Y-110750000D03*
%TO.N,/L_32*%
X83908112Y-100258112D03*
X100000000Y-100250000D03*
%TO.N,/L_43*%
X92433976Y-104179878D03*
X76750000Y-103750000D03*
%TO.N,/L_33*%
X91825000Y-99850000D03*
X76250000Y-100250000D03*
%TO.N,/L_17*%
X76250000Y-94250000D03*
X91800000Y-93820000D03*
%TO.N,/L_0*%
X88145944Y-115995944D03*
%TO.N,/L_3*%
X76750000Y-88750000D03*
X83700000Y-123050000D03*
%TO.N,/L_11*%
X76750000Y-91750000D03*
X84350000Y-141100000D03*
%TO.N,/L_49*%
X76250000Y-106250000D03*
X88150000Y-155100000D03*
%TO.N,/L_47*%
X76250000Y-105250000D03*
X92433976Y-105679878D03*
%TO.N,/L_20*%
X84046738Y-95750000D03*
X99500000Y-95750000D03*
%TO.N,/L_40*%
X100000000Y-103250000D03*
X83925000Y-103250000D03*
%TO.N,/L_45*%
X76750000Y-104750000D03*
X91825000Y-104350000D03*
%TO.N,/L_6*%
X88154331Y-129937557D03*
%TO.N,/L_10*%
X88100000Y-139100000D03*
%TO.N,/L_24*%
X83925000Y-97250000D03*
X100000000Y-97250000D03*
%TO.N,/L_48*%
X84800000Y-113300000D03*
X88150000Y-153100000D03*
%TO.N,/L_31*%
X92433976Y-99679878D03*
X76250000Y-99250000D03*
%TO.N,/L_16*%
X83929056Y-94254056D03*
X100000000Y-94250000D03*
%TO.N,/L_2*%
X88154056Y-120104056D03*
%TO.N,/L_22*%
X100000000Y-96250000D03*
X84655819Y-96219181D03*
%TO.N,/L_30*%
X100000000Y-99250000D03*
X84500000Y-99250000D03*
%TO.N,/L_13*%
X87783549Y-146433865D03*
X76750000Y-92750000D03*
%TO.N,/L_44*%
X83925000Y-104750000D03*
X99500000Y-104750000D03*
%TO.N,/L_12*%
X88120944Y-144070944D03*
%TO.N,/L_42*%
X84500000Y-103750000D03*
X99500000Y-103750000D03*
%TO.N,/L_39*%
X76250000Y-102250000D03*
X92433976Y-102679878D03*
%TO.N,/L_19*%
X76750000Y-94750000D03*
X92433976Y-95179878D03*
%TO.N,/L_34*%
X84500000Y-100750000D03*
X99500000Y-100750000D03*
%TO.N,/L_38*%
X100000000Y-102250000D03*
X84500000Y-102250000D03*
%TO.N,/L_18*%
X99500000Y-94750000D03*
X84659081Y-94719181D03*
%TO.N,/L_21*%
X91825000Y-95350000D03*
X76750000Y-95750000D03*
%TO.N,/L_29*%
X76750000Y-98750000D03*
X91825000Y-98350000D03*
%TO.N,/L_35*%
X92433976Y-101179878D03*
X76750000Y-100750000D03*
%TO.N,/L_9*%
X84350000Y-137100000D03*
X76250000Y-91250000D03*
%TO.N,/L_28*%
X99500000Y-98750000D03*
X83925000Y-98750000D03*
%TO.N,/L_5*%
X84450000Y-127100000D03*
X76750000Y-89750000D03*
%TO.N,/L_37*%
X91825000Y-101350000D03*
X76750000Y-101750000D03*
%TO.N,/L_27*%
X76750000Y-97750000D03*
X92433976Y-98179878D03*
%TO.N,/L_4*%
X88100000Y-125100000D03*
%TO.N,/L_1*%
X76383713Y-88250236D03*
X78100000Y-118100000D03*
%TO.N,/L_23*%
X92433976Y-96679878D03*
X76250000Y-96250000D03*
%TO.N,/L_46*%
X84500000Y-105250000D03*
X100000000Y-105250000D03*
%TO.N,/L_14*%
X88179056Y-148129056D03*
%TO.N,/L_8*%
X88154056Y-134154056D03*
%TO.N,/L_26*%
X84500000Y-97750000D03*
X99500000Y-97750000D03*
%TO.N,/R_6*%
X100000000Y-90250000D03*
X91900000Y-128100000D03*
%TO.N,/R_48*%
X100000000Y-106250000D03*
X88150000Y-152200000D03*
%TO.N,/R_9*%
X88150000Y-136100000D03*
%TO.N,/R_3*%
X88150000Y-122150000D03*
%TO.N,/R_12*%
X88150000Y-142150000D03*
X99500000Y-92750000D03*
%TO.N,/R_1*%
X88150000Y-117100000D03*
%TO.N,/R_49*%
X88100000Y-154100000D03*
X91550000Y-113300000D03*
%TO.N,/R_0*%
X98500000Y-117700000D03*
X100000000Y-88250000D03*
%TO.N,/R_7*%
X88150000Y-131150000D03*
%TO.N,/R_10*%
X99500000Y-91750000D03*
X89350000Y-138150000D03*
%TO.N,/R_2*%
X99500000Y-88750000D03*
X96300000Y-120350000D03*
%TO.N,/R_11*%
X88100000Y-140100000D03*
%TO.N,/R_4*%
X99500000Y-89750000D03*
X92100000Y-124100000D03*
%TO.N,/R_5*%
X88100000Y-126100000D03*
%TO.N,/R_15*%
X88150000Y-150150000D03*
%TO.N,/R_8*%
X91700000Y-132100000D03*
X100000000Y-91250000D03*
%TO.N,/R_14*%
X100000000Y-93250000D03*
X88729056Y-146104056D03*
%TO.N,/R_13*%
X88150000Y-145100000D03*
%TD*%
D11*
%TO.N,/L_7*%
X74650000Y-113250000D02*
X85900000Y-124500000D01*
X74650000Y-91850000D02*
X74650000Y-113250000D01*
X85900000Y-124500000D02*
X85900000Y-131650000D01*
X76250000Y-90250000D02*
X74650000Y-91850000D01*
X85900000Y-131650000D02*
X84450000Y-133100000D01*
%TO.N,/L_15*%
X87900000Y-151100000D02*
X87000000Y-150200000D01*
X87000000Y-150200000D02*
X87000000Y-124450000D01*
X75450000Y-94050000D02*
X76250000Y-93250000D01*
X87000000Y-124450000D02*
X75450000Y-112900000D01*
X75450000Y-112900000D02*
X75450000Y-94050000D01*
%TO.N,/L_41*%
X83308112Y-103250000D02*
X83738112Y-102820000D01*
X84550000Y-103250000D02*
X91425000Y-103250000D01*
X91425000Y-103250000D02*
X91825000Y-102850000D01*
X84120000Y-102820000D02*
X84550000Y-103250000D01*
X83738112Y-102820000D02*
X84120000Y-102820000D01*
X76250000Y-103250000D02*
X83308112Y-103250000D01*
%TO.N,/L_25*%
X84580000Y-97280000D02*
X91345000Y-97280000D01*
X83308112Y-97250000D02*
X83738112Y-96820000D01*
X76250000Y-97250000D02*
X83308112Y-97250000D01*
X91345000Y-97280000D02*
X91775000Y-96850000D01*
X91775000Y-96850000D02*
X91825000Y-96850000D01*
X84120000Y-96820000D02*
X84580000Y-97280000D01*
X83738112Y-96820000D02*
X84120000Y-96820000D01*
%TO.N,/L_43*%
X84695000Y-104180000D02*
X85125000Y-103750000D01*
X83891888Y-103750000D02*
X84321888Y-104180000D01*
X92004098Y-103750000D02*
X92433976Y-104179878D01*
X85125000Y-103750000D02*
X92004098Y-103750000D01*
X76750000Y-103750000D02*
X83891888Y-103750000D01*
X84321888Y-104180000D02*
X84695000Y-104180000D01*
%TO.N,/L_33*%
X83308112Y-100250000D02*
X83738112Y-99820000D01*
X84533112Y-100250000D02*
X91425000Y-100250000D01*
X91425000Y-100250000D02*
X91825000Y-99850000D01*
X76250000Y-100250000D02*
X83308112Y-100250000D01*
X84103112Y-99820000D02*
X84533112Y-100250000D01*
X83738112Y-99820000D02*
X84103112Y-99820000D01*
%TO.N,/L_17*%
X84550000Y-94250000D02*
X84124056Y-93824056D01*
X91800000Y-93820000D02*
X91370000Y-94250000D01*
X83750944Y-93824056D02*
X83325000Y-94250000D01*
X91370000Y-94250000D02*
X84550000Y-94250000D01*
X83325000Y-94250000D02*
X76250000Y-94250000D01*
X84124056Y-93824056D02*
X83750944Y-93824056D01*
%TO.N,/L_3*%
X74200000Y-90691888D02*
X74200000Y-113400000D01*
X83700000Y-122900000D02*
X83700000Y-123050000D01*
X74200000Y-113400000D02*
X83700000Y-122900000D01*
X76141888Y-88750000D02*
X74200000Y-90691888D01*
X76750000Y-88750000D02*
X76141888Y-88750000D01*
%TO.N,/L_11*%
X86550000Y-124550000D02*
X86550000Y-138900000D01*
X76141888Y-91750000D02*
X75050000Y-92841888D01*
X75050000Y-113050000D02*
X86550000Y-124550000D01*
X86550000Y-138900000D02*
X84350000Y-141100000D01*
X76750000Y-91750000D02*
X76141888Y-91750000D01*
X75050000Y-92841888D02*
X75050000Y-113050000D01*
%TO.N,/L_49*%
X87350000Y-150100000D02*
X87920000Y-150670000D01*
X75750000Y-112600000D02*
X87350000Y-124200000D01*
X87650000Y-151958112D02*
X87650000Y-154600000D01*
X87650000Y-154600000D02*
X88150000Y-155100000D01*
X87920000Y-150670000D02*
X88078112Y-150670000D01*
X75750000Y-106750000D02*
X75750000Y-112600000D01*
X88330000Y-150921888D02*
X88330000Y-151278112D01*
X87350000Y-124200000D02*
X87350000Y-150100000D01*
X88078112Y-150670000D02*
X88330000Y-150921888D01*
X88330000Y-151278112D02*
X87650000Y-151958112D01*
X76250000Y-106250000D02*
X75750000Y-106750000D01*
%TO.N,/L_47*%
X76250000Y-105250000D02*
X83891888Y-105250000D01*
X83891888Y-105250000D02*
X84321888Y-105680000D01*
X84695000Y-105680000D02*
X85125000Y-105250000D01*
X92004098Y-105250000D02*
X92433976Y-105679878D01*
X84321888Y-105680000D02*
X84695000Y-105680000D01*
X85125000Y-105250000D02*
X92004098Y-105250000D01*
%TO.N,/L_45*%
X91425000Y-104750000D02*
X91825000Y-104350000D01*
X84533112Y-104750000D02*
X91425000Y-104750000D01*
X83308112Y-104750000D02*
X83738112Y-104320000D01*
X83738112Y-104320000D02*
X84103112Y-104320000D01*
X76750000Y-104750000D02*
X83308112Y-104750000D01*
X84103112Y-104320000D02*
X84533112Y-104750000D01*
%TO.N,/L_48*%
X84824056Y-113300000D02*
X87670000Y-116145944D01*
X88750000Y-146792204D02*
X88750000Y-152350000D01*
X84800000Y-113300000D02*
X84824056Y-113300000D01*
X87670000Y-126380000D02*
X87670000Y-145712204D01*
X87700000Y-126350000D02*
X87670000Y-126380000D01*
X87670000Y-145712204D02*
X88750000Y-146792204D01*
X88150000Y-152950000D02*
X88150000Y-153100000D01*
X88750000Y-152350000D02*
X88150000Y-152950000D01*
X87670000Y-116145944D02*
X87670000Y-126320000D01*
X87670000Y-126320000D02*
X87700000Y-126350000D01*
%TO.N,/L_31*%
X84695000Y-99680000D02*
X85125000Y-99250000D01*
X92004098Y-99250000D02*
X92433976Y-99679878D01*
X76250000Y-99250000D02*
X83891888Y-99250000D01*
X84321888Y-99680000D02*
X84695000Y-99680000D01*
X85125000Y-99250000D02*
X92004098Y-99250000D01*
X83891888Y-99250000D02*
X84321888Y-99680000D01*
%TO.N,/L_39*%
X84695000Y-102680000D02*
X85125000Y-102250000D01*
X84321888Y-102680000D02*
X84695000Y-102680000D01*
X85125000Y-102250000D02*
X92004098Y-102250000D01*
X76250000Y-102250000D02*
X83891888Y-102250000D01*
X92004098Y-102250000D02*
X92433976Y-102679878D01*
X83891888Y-102250000D02*
X84321888Y-102680000D01*
%TO.N,/L_19*%
X92433976Y-95179878D02*
X92004098Y-94750000D01*
X84850819Y-95149181D02*
X84480969Y-95149181D01*
X85250000Y-94750000D02*
X84850819Y-95149181D01*
X92004098Y-94750000D02*
X85250000Y-94750000D01*
X84480969Y-95149181D02*
X84081788Y-94750000D01*
X84081788Y-94750000D02*
X76750000Y-94750000D01*
%TO.N,/L_21*%
X76750000Y-95750000D02*
X83438626Y-95750000D01*
X84725000Y-95750000D02*
X91425000Y-95750000D01*
X84295000Y-95320000D02*
X84725000Y-95750000D01*
X83438626Y-95750000D02*
X83868626Y-95320000D01*
X83868626Y-95320000D02*
X84295000Y-95320000D01*
X91425000Y-95750000D02*
X91825000Y-95350000D01*
%TO.N,/L_29*%
X83738112Y-98320000D02*
X84120000Y-98320000D01*
X84120000Y-98320000D02*
X84550000Y-98750000D01*
X84550000Y-98750000D02*
X91425000Y-98750000D01*
X91425000Y-98750000D02*
X91825000Y-98350000D01*
X76750000Y-98750000D02*
X83308112Y-98750000D01*
X83308112Y-98750000D02*
X83738112Y-98320000D01*
%TO.N,/L_35*%
X84321888Y-101180000D02*
X84678112Y-101180000D01*
X76750000Y-100750000D02*
X83900000Y-100750000D01*
X84000000Y-100850000D02*
X84000000Y-100858112D01*
X85108112Y-100750000D02*
X92004098Y-100750000D01*
X83900000Y-100750000D02*
X84000000Y-100850000D01*
X84678112Y-101180000D02*
X85108112Y-100750000D01*
X92004098Y-100750000D02*
X92433976Y-101179878D01*
X84000000Y-100858112D02*
X84321888Y-101180000D01*
%TO.N,/L_37*%
X91425000Y-101750000D02*
X91825000Y-101350000D01*
X84120000Y-101320000D02*
X84550000Y-101750000D01*
X84550000Y-101750000D02*
X91425000Y-101750000D01*
X83738112Y-101320000D02*
X84120000Y-101320000D01*
X83308112Y-101750000D02*
X83738112Y-101320000D01*
X76750000Y-101750000D02*
X83308112Y-101750000D01*
%TO.N,/L_27*%
X76750000Y-97750000D02*
X83889411Y-97750000D01*
X85125000Y-97750000D02*
X92004098Y-97750000D01*
X84319411Y-98180000D02*
X84695000Y-98180000D01*
X84695000Y-98180000D02*
X85125000Y-97750000D01*
X83889411Y-97750000D02*
X84319411Y-98180000D01*
X92004098Y-97750000D02*
X92433976Y-98179878D01*
%TO.N,/L_23*%
X76250000Y-96250000D02*
X84078526Y-96250000D01*
X85258112Y-96225000D02*
X91990396Y-96225000D01*
X84833931Y-96649181D02*
X85258112Y-96225000D01*
X84477707Y-96649181D02*
X84833931Y-96649181D01*
X91990396Y-96225000D02*
X92435205Y-96669809D01*
X84078526Y-96250000D02*
X84477707Y-96649181D01*
%TO.N,/R_6*%
X91900000Y-128100000D02*
X90500000Y-126700000D01*
X101500000Y-91750000D02*
X100000000Y-90250000D01*
X90500000Y-124450000D02*
X101500000Y-113450000D01*
X101500000Y-113450000D02*
X101500000Y-91750000D01*
X90500000Y-126700000D02*
X90500000Y-124450000D01*
%TO.N,/R_10*%
X100108112Y-91750000D02*
X99500000Y-91750000D01*
X101050000Y-92691888D02*
X100108112Y-91750000D01*
X89350000Y-138150000D02*
X89550000Y-137950000D01*
X89550000Y-124800000D02*
X101050000Y-113300000D01*
X89550000Y-137950000D02*
X89550000Y-124800000D01*
X101050000Y-113300000D02*
X101050000Y-92691888D01*
%TO.N,/R_2*%
X99500000Y-88750000D02*
X100108112Y-88750000D01*
X101450000Y-114100000D02*
X96300000Y-119250000D01*
X101900000Y-113650000D02*
X101450000Y-114100000D01*
X101900000Y-90541888D02*
X101900000Y-92200000D01*
X100108112Y-88750000D02*
X101900000Y-90541888D01*
X96300000Y-119250000D02*
X96300000Y-120350000D01*
X101900000Y-92200000D02*
X101900000Y-113650000D01*
%TO.N,/R_14*%
X88750000Y-125000000D02*
X100650000Y-113100000D01*
X88750000Y-146083112D02*
X88750000Y-125000000D01*
X100650000Y-113100000D02*
X100650000Y-93900000D01*
X100650000Y-93900000D02*
X100000000Y-93250000D01*
X88729056Y-146104056D02*
X88750000Y-146083112D01*
%TD*%
%TA.AperFunction,Conductor*%
%TO.N,+5V*%
G36*
X76306512Y-108275185D02*
G01*
X76352267Y-108327989D01*
X76361946Y-108360101D01*
X76364354Y-108375304D01*
X76421950Y-108488342D01*
X76421952Y-108488344D01*
X76421954Y-108488347D01*
X76511652Y-108578045D01*
X76511654Y-108578046D01*
X76511658Y-108578050D01*
X76624696Y-108635646D01*
X76624697Y-108635646D01*
X76624699Y-108635647D01*
X76749997Y-108655492D01*
X76750000Y-108655492D01*
X76750003Y-108655492D01*
X76875300Y-108635647D01*
X76875301Y-108635647D01*
X76875302Y-108635646D01*
X76875304Y-108635646D01*
X76988342Y-108578050D01*
X77078050Y-108488342D01*
X77135646Y-108375304D01*
X77138053Y-108360102D01*
X77167982Y-108296969D01*
X77227293Y-108260037D01*
X77260527Y-108255500D01*
X82739473Y-108255500D01*
X82806512Y-108275185D01*
X82852267Y-108327989D01*
X82861946Y-108360101D01*
X82864354Y-108375304D01*
X82921950Y-108488342D01*
X82921952Y-108488344D01*
X82921954Y-108488347D01*
X83011652Y-108578045D01*
X83011654Y-108578046D01*
X83011658Y-108578050D01*
X83124696Y-108635646D01*
X83124697Y-108635646D01*
X83124699Y-108635647D01*
X83249997Y-108655492D01*
X83250000Y-108655492D01*
X83250003Y-108655492D01*
X83375300Y-108635647D01*
X83375301Y-108635647D01*
X83375302Y-108635646D01*
X83375304Y-108635646D01*
X83488342Y-108578050D01*
X83578050Y-108488342D01*
X83635646Y-108375304D01*
X83638053Y-108360102D01*
X83667982Y-108296969D01*
X83727293Y-108260037D01*
X83760527Y-108255500D01*
X92489473Y-108255500D01*
X92556512Y-108275185D01*
X92602267Y-108327989D01*
X92611946Y-108360101D01*
X92614354Y-108375304D01*
X92671950Y-108488342D01*
X92671952Y-108488344D01*
X92671954Y-108488347D01*
X92761652Y-108578045D01*
X92761654Y-108578046D01*
X92761658Y-108578050D01*
X92874696Y-108635646D01*
X92874697Y-108635646D01*
X92874699Y-108635647D01*
X92999997Y-108655492D01*
X93000000Y-108655492D01*
X93000003Y-108655492D01*
X93125300Y-108635647D01*
X93125301Y-108635647D01*
X93125302Y-108635646D01*
X93125304Y-108635646D01*
X93238342Y-108578050D01*
X93328050Y-108488342D01*
X93385646Y-108375304D01*
X93388053Y-108360102D01*
X93417982Y-108296969D01*
X93477293Y-108260037D01*
X93510527Y-108255500D01*
X98989473Y-108255500D01*
X99056512Y-108275185D01*
X99102267Y-108327989D01*
X99111946Y-108360101D01*
X99114354Y-108375304D01*
X99171950Y-108488342D01*
X99171952Y-108488344D01*
X99171954Y-108488347D01*
X99261652Y-108578045D01*
X99261654Y-108578046D01*
X99261658Y-108578050D01*
X99374696Y-108635646D01*
X99374697Y-108635646D01*
X99374699Y-108635647D01*
X99499997Y-108655492D01*
X99500000Y-108655492D01*
X99500003Y-108655492D01*
X99625300Y-108635647D01*
X99625301Y-108635647D01*
X99625302Y-108635646D01*
X99625304Y-108635646D01*
X99738342Y-108578050D01*
X99828050Y-108488342D01*
X99885646Y-108375304D01*
X99888053Y-108360102D01*
X99917982Y-108296969D01*
X99977293Y-108260037D01*
X100010527Y-108255500D01*
X100076000Y-108255500D01*
X100143039Y-108275185D01*
X100188794Y-108327989D01*
X100200000Y-108379500D01*
X100200000Y-109576000D01*
X100180315Y-109643039D01*
X100127511Y-109688794D01*
X100076000Y-109700000D01*
X100000003Y-109700000D01*
X99932964Y-109680315D01*
X99889519Y-109632296D01*
X99856562Y-109567616D01*
X99828050Y-109511658D01*
X99828047Y-109511655D01*
X99828045Y-109511652D01*
X99738347Y-109421954D01*
X99738344Y-109421952D01*
X99738342Y-109421950D01*
X99625304Y-109364354D01*
X99625303Y-109364353D01*
X99625300Y-109364352D01*
X99500003Y-109344508D01*
X99499997Y-109344508D01*
X99374699Y-109364352D01*
X99374698Y-109364352D01*
X99299337Y-109402751D01*
X99261658Y-109421950D01*
X99261657Y-109421951D01*
X99261652Y-109421954D01*
X99171954Y-109511652D01*
X99171949Y-109511659D01*
X99110481Y-109632296D01*
X99062507Y-109683091D01*
X98999997Y-109700000D01*
X93500003Y-109700000D01*
X93432964Y-109680315D01*
X93389519Y-109632296D01*
X93356562Y-109567616D01*
X93328050Y-109511658D01*
X93328047Y-109511655D01*
X93328045Y-109511652D01*
X93238347Y-109421954D01*
X93238344Y-109421952D01*
X93238342Y-109421950D01*
X93125304Y-109364354D01*
X93125303Y-109364353D01*
X93125300Y-109364352D01*
X93000003Y-109344508D01*
X92999997Y-109344508D01*
X92874699Y-109364352D01*
X92874698Y-109364352D01*
X92799337Y-109402751D01*
X92761658Y-109421950D01*
X92761657Y-109421951D01*
X92761652Y-109421954D01*
X92671954Y-109511652D01*
X92671949Y-109511659D01*
X92610481Y-109632296D01*
X92562507Y-109683091D01*
X92499997Y-109700000D01*
X83750003Y-109700000D01*
X83682964Y-109680315D01*
X83639519Y-109632296D01*
X83606562Y-109567616D01*
X83578050Y-109511658D01*
X83578047Y-109511655D01*
X83578045Y-109511652D01*
X83488347Y-109421954D01*
X83488344Y-109421952D01*
X83488342Y-109421950D01*
X83375304Y-109364354D01*
X83375303Y-109364353D01*
X83375300Y-109364352D01*
X83250003Y-109344508D01*
X83249997Y-109344508D01*
X83124699Y-109364352D01*
X83124698Y-109364352D01*
X83049337Y-109402751D01*
X83011658Y-109421950D01*
X83011657Y-109421951D01*
X83011652Y-109421954D01*
X82921954Y-109511652D01*
X82921949Y-109511659D01*
X82860481Y-109632296D01*
X82812507Y-109683091D01*
X82749997Y-109700000D01*
X77250003Y-109700000D01*
X77182964Y-109680315D01*
X77139519Y-109632296D01*
X77106562Y-109567616D01*
X77078050Y-109511658D01*
X77078047Y-109511655D01*
X77078045Y-109511652D01*
X76988347Y-109421954D01*
X76988344Y-109421952D01*
X76988342Y-109421950D01*
X76875304Y-109364354D01*
X76875303Y-109364353D01*
X76875300Y-109364352D01*
X76750003Y-109344508D01*
X76749997Y-109344508D01*
X76624699Y-109364352D01*
X76624698Y-109364352D01*
X76549337Y-109402751D01*
X76511658Y-109421950D01*
X76511657Y-109421951D01*
X76511652Y-109421954D01*
X76421954Y-109511652D01*
X76421949Y-109511659D01*
X76360481Y-109632296D01*
X76312507Y-109683091D01*
X76249997Y-109700000D01*
X76174000Y-109700000D01*
X76106961Y-109680315D01*
X76061206Y-109627511D01*
X76050000Y-109576000D01*
X76050000Y-108379500D01*
X76069685Y-108312461D01*
X76122489Y-108266706D01*
X76174000Y-108255500D01*
X76239473Y-108255500D01*
X76306512Y-108275185D01*
G37*
%TD.AperFunction*%
%TD*%
%TA.AperFunction,Conductor*%
%TO.N,+24V*%
G36*
X76367989Y-109919685D02*
G01*
X76411434Y-109967704D01*
X76420555Y-109985605D01*
X76421951Y-109988344D01*
X76511652Y-110078045D01*
X76511654Y-110078046D01*
X76511658Y-110078050D01*
X76624696Y-110135646D01*
X76624697Y-110135646D01*
X76624699Y-110135647D01*
X76749997Y-110155492D01*
X76750000Y-110155492D01*
X76750003Y-110155492D01*
X76875300Y-110135647D01*
X76875301Y-110135647D01*
X76875302Y-110135646D01*
X76875304Y-110135646D01*
X76988342Y-110078050D01*
X77078050Y-109988342D01*
X77088565Y-109967704D01*
X77136540Y-109916909D01*
X77199050Y-109900000D01*
X82800950Y-109900000D01*
X82867989Y-109919685D01*
X82911434Y-109967704D01*
X82920555Y-109985605D01*
X82921951Y-109988344D01*
X83011652Y-110078045D01*
X83011654Y-110078046D01*
X83011658Y-110078050D01*
X83124696Y-110135646D01*
X83124697Y-110135646D01*
X83124699Y-110135647D01*
X83249997Y-110155492D01*
X83250000Y-110155492D01*
X83250003Y-110155492D01*
X83375300Y-110135647D01*
X83375301Y-110135647D01*
X83375302Y-110135646D01*
X83375304Y-110135646D01*
X83488342Y-110078050D01*
X83578050Y-109988342D01*
X83588565Y-109967704D01*
X83636540Y-109916909D01*
X83699050Y-109900000D01*
X92550950Y-109900000D01*
X92617989Y-109919685D01*
X92661434Y-109967704D01*
X92670555Y-109985605D01*
X92671951Y-109988344D01*
X92761652Y-110078045D01*
X92761654Y-110078046D01*
X92761658Y-110078050D01*
X92874696Y-110135646D01*
X92874697Y-110135646D01*
X92874699Y-110135647D01*
X92999997Y-110155492D01*
X93000000Y-110155492D01*
X93000003Y-110155492D01*
X93125300Y-110135647D01*
X93125301Y-110135647D01*
X93125302Y-110135646D01*
X93125304Y-110135646D01*
X93238342Y-110078050D01*
X93328050Y-109988342D01*
X93338565Y-109967704D01*
X93386540Y-109916909D01*
X93449050Y-109900000D01*
X99050950Y-109900000D01*
X99117989Y-109919685D01*
X99161434Y-109967704D01*
X99170555Y-109985605D01*
X99171951Y-109988344D01*
X99261652Y-110078045D01*
X99261654Y-110078046D01*
X99261658Y-110078050D01*
X99374696Y-110135646D01*
X99374697Y-110135646D01*
X99374699Y-110135647D01*
X99499997Y-110155492D01*
X99500000Y-110155492D01*
X99500003Y-110155492D01*
X99625300Y-110135647D01*
X99625301Y-110135647D01*
X99625302Y-110135646D01*
X99625304Y-110135646D01*
X99738342Y-110078050D01*
X99828050Y-109988342D01*
X99838565Y-109967704D01*
X99886540Y-109916909D01*
X99949050Y-109900000D01*
X100076000Y-109900000D01*
X100143039Y-109919685D01*
X100188794Y-109972489D01*
X100200000Y-110024000D01*
X100200000Y-112498638D01*
X100180315Y-112565677D01*
X100163681Y-112586319D01*
X99736319Y-113013681D01*
X99674996Y-113047166D01*
X99648638Y-113050000D01*
X97966784Y-113050000D01*
X97899745Y-113030315D01*
X97859397Y-112987999D01*
X97795509Y-112877341D01*
X97795503Y-112877333D01*
X97697666Y-112779496D01*
X97697661Y-112779492D01*
X97577838Y-112710313D01*
X97577837Y-112710312D01*
X97577836Y-112710312D01*
X97444183Y-112674500D01*
X97305817Y-112674500D01*
X97172164Y-112710312D01*
X97172161Y-112710313D01*
X97052338Y-112779492D01*
X96986792Y-112845038D01*
X96925468Y-112878522D01*
X96855777Y-112873537D01*
X96811430Y-112845037D01*
X96738347Y-112771954D01*
X96738344Y-112771952D01*
X96738342Y-112771950D01*
X96625304Y-112714354D01*
X96625303Y-112714353D01*
X96625300Y-112714352D01*
X96500003Y-112694508D01*
X96499997Y-112694508D01*
X96374699Y-112714352D01*
X96374695Y-112714353D01*
X96306294Y-112749206D01*
X96237625Y-112762102D01*
X96193706Y-112749206D01*
X96125304Y-112714353D01*
X96125300Y-112714352D01*
X96000003Y-112694508D01*
X95999997Y-112694508D01*
X95874699Y-112714352D01*
X95874695Y-112714353D01*
X95806294Y-112749206D01*
X95737625Y-112762102D01*
X95693706Y-112749206D01*
X95625304Y-112714353D01*
X95625300Y-112714352D01*
X95500003Y-112694508D01*
X95499997Y-112694508D01*
X95374699Y-112714352D01*
X95374698Y-112714352D01*
X95306295Y-112749206D01*
X95261658Y-112771950D01*
X95261657Y-112771951D01*
X95261652Y-112771954D01*
X95171954Y-112861652D01*
X95171949Y-112861659D01*
X95110481Y-112982296D01*
X95062507Y-113033091D01*
X94999997Y-113050000D01*
X91917754Y-113050000D01*
X91850715Y-113030315D01*
X91830072Y-113013680D01*
X91788346Y-112971953D01*
X91788344Y-112971952D01*
X91788342Y-112971950D01*
X91675304Y-112914354D01*
X91675303Y-112914353D01*
X91675300Y-112914352D01*
X91550003Y-112894508D01*
X91549997Y-112894508D01*
X91424699Y-112914352D01*
X91424698Y-112914352D01*
X91363771Y-112945397D01*
X91311658Y-112971950D01*
X91311657Y-112971951D01*
X91311653Y-112971953D01*
X91269928Y-113013680D01*
X91208605Y-113047166D01*
X91182246Y-113050000D01*
X85167754Y-113050000D01*
X85100715Y-113030315D01*
X85080072Y-113013680D01*
X85038346Y-112971953D01*
X85038344Y-112971952D01*
X85038342Y-112971950D01*
X84925304Y-112914354D01*
X84925303Y-112914353D01*
X84925300Y-112914352D01*
X84800003Y-112894508D01*
X84799997Y-112894508D01*
X84674699Y-112914352D01*
X84674698Y-112914352D01*
X84613771Y-112945397D01*
X84561658Y-112971950D01*
X84561657Y-112971951D01*
X84561653Y-112971953D01*
X84519928Y-113013680D01*
X84458605Y-113047166D01*
X84432246Y-113050000D01*
X81966784Y-113050000D01*
X81899745Y-113030315D01*
X81859397Y-112987999D01*
X81795509Y-112877341D01*
X81795503Y-112877333D01*
X81697666Y-112779496D01*
X81697661Y-112779492D01*
X81577838Y-112710313D01*
X81577837Y-112710312D01*
X81577836Y-112710312D01*
X81444183Y-112674500D01*
X81305817Y-112674500D01*
X81172164Y-112710312D01*
X81172159Y-112710314D01*
X81067248Y-112770883D01*
X80999348Y-112787354D01*
X80933322Y-112764501D01*
X80917569Y-112751176D01*
X80838347Y-112671954D01*
X80838344Y-112671952D01*
X80838342Y-112671950D01*
X80725304Y-112614354D01*
X80725303Y-112614353D01*
X80725300Y-112614352D01*
X80600003Y-112594508D01*
X80599997Y-112594508D01*
X80474699Y-112614352D01*
X80474695Y-112614353D01*
X80406294Y-112649206D01*
X80337625Y-112662102D01*
X80293706Y-112649206D01*
X80225304Y-112614353D01*
X80225300Y-112614352D01*
X80100003Y-112594508D01*
X80099997Y-112594508D01*
X79974699Y-112614352D01*
X79974695Y-112614353D01*
X79906294Y-112649206D01*
X79837625Y-112662102D01*
X79793706Y-112649206D01*
X79725304Y-112614353D01*
X79725300Y-112614352D01*
X79600003Y-112594508D01*
X79599997Y-112594508D01*
X79474699Y-112614352D01*
X79474698Y-112614352D01*
X79420691Y-112641871D01*
X79361658Y-112671950D01*
X79361657Y-112671951D01*
X79361652Y-112671954D01*
X79271954Y-112761652D01*
X79271951Y-112761657D01*
X79271950Y-112761658D01*
X79214354Y-112874696D01*
X79203155Y-112945399D01*
X79173228Y-113008532D01*
X79113916Y-113045464D01*
X79080683Y-113050000D01*
X76651362Y-113050000D01*
X76584323Y-113030315D01*
X76563681Y-113013681D01*
X76086319Y-112536319D01*
X76052834Y-112474996D01*
X76050000Y-112448638D01*
X76050000Y-110024000D01*
X76069685Y-109956961D01*
X76122489Y-109911206D01*
X76174000Y-109900000D01*
X76300950Y-109900000D01*
X76367989Y-109919685D01*
G37*
%TD.AperFunction*%
%TD*%
%TA.AperFunction,Conductor*%
%TO.N,+3.3V*%
G36*
X82798038Y-106569685D02*
G01*
X82843793Y-106622489D01*
X82853737Y-106691647D01*
X82853473Y-106693397D01*
X82844508Y-106750002D01*
X82844508Y-106750003D01*
X82864352Y-106875300D01*
X82864352Y-106875301D01*
X82864354Y-106875304D01*
X82921950Y-106988342D01*
X82921952Y-106988344D01*
X82921954Y-106988347D01*
X83011652Y-107078045D01*
X83011654Y-107078046D01*
X83011658Y-107078050D01*
X83124696Y-107135646D01*
X83124697Y-107135646D01*
X83124699Y-107135647D01*
X83249997Y-107155492D01*
X83250000Y-107155492D01*
X83250003Y-107155492D01*
X83375300Y-107135647D01*
X83375301Y-107135647D01*
X83375302Y-107135646D01*
X83375304Y-107135646D01*
X83488342Y-107078050D01*
X83578050Y-106988342D01*
X83635646Y-106875304D01*
X83635646Y-106875302D01*
X83635647Y-106875301D01*
X83635647Y-106875300D01*
X83655492Y-106750003D01*
X83655492Y-106750002D01*
X83646527Y-106693397D01*
X83655483Y-106624104D01*
X83700480Y-106570652D01*
X83767231Y-106550013D01*
X83769001Y-106550000D01*
X84874967Y-106550000D01*
X84931261Y-106563514D01*
X84974696Y-106585646D01*
X84974697Y-106585646D01*
X84974699Y-106585647D01*
X85099997Y-106605492D01*
X85100000Y-106605492D01*
X85100003Y-106605492D01*
X85225300Y-106585647D01*
X85225301Y-106585647D01*
X85225302Y-106585646D01*
X85225304Y-106585646D01*
X85268738Y-106563514D01*
X85325033Y-106550000D01*
X91374967Y-106550000D01*
X91431261Y-106563514D01*
X91474696Y-106585646D01*
X91474697Y-106585646D01*
X91474699Y-106585647D01*
X91599997Y-106605492D01*
X91600000Y-106605492D01*
X91600003Y-106605492D01*
X91725300Y-106585647D01*
X91725301Y-106585647D01*
X91725302Y-106585646D01*
X91725304Y-106585646D01*
X91768738Y-106563514D01*
X91825033Y-106550000D01*
X92480999Y-106550000D01*
X92548038Y-106569685D01*
X92593793Y-106622489D01*
X92603737Y-106691647D01*
X92603473Y-106693397D01*
X92594508Y-106750002D01*
X92594508Y-106750003D01*
X92614352Y-106875300D01*
X92614352Y-106875301D01*
X92614354Y-106875304D01*
X92671950Y-106988342D01*
X92671952Y-106988344D01*
X92671954Y-106988347D01*
X92761652Y-107078045D01*
X92761654Y-107078046D01*
X92761658Y-107078050D01*
X92874696Y-107135646D01*
X92874697Y-107135646D01*
X92874699Y-107135647D01*
X92999997Y-107155492D01*
X93000000Y-107155492D01*
X93000003Y-107155492D01*
X93125300Y-107135647D01*
X93125301Y-107135647D01*
X93125302Y-107135646D01*
X93125304Y-107135646D01*
X93238342Y-107078050D01*
X93328050Y-106988342D01*
X93385646Y-106875304D01*
X93385646Y-106875302D01*
X93385647Y-106875301D01*
X93385647Y-106875300D01*
X93405492Y-106750003D01*
X93405492Y-106750002D01*
X93396527Y-106693397D01*
X93405483Y-106624104D01*
X93450480Y-106570652D01*
X93517231Y-106550013D01*
X93519001Y-106550000D01*
X98980999Y-106550000D01*
X99048038Y-106569685D01*
X99093793Y-106622489D01*
X99103737Y-106691647D01*
X99103473Y-106693397D01*
X99094508Y-106750002D01*
X99094508Y-106750003D01*
X99114352Y-106875300D01*
X99114352Y-106875301D01*
X99114354Y-106875304D01*
X99171950Y-106988342D01*
X99171952Y-106988344D01*
X99171954Y-106988347D01*
X99261652Y-107078045D01*
X99261654Y-107078046D01*
X99261658Y-107078050D01*
X99374696Y-107135646D01*
X99374697Y-107135646D01*
X99374699Y-107135647D01*
X99499997Y-107155492D01*
X99500000Y-107155492D01*
X99500003Y-107155492D01*
X99625300Y-107135647D01*
X99625301Y-107135647D01*
X99625302Y-107135646D01*
X99625304Y-107135646D01*
X99738342Y-107078050D01*
X99828050Y-106988342D01*
X99885646Y-106875304D01*
X99904321Y-106757392D01*
X99934248Y-106694262D01*
X99993559Y-106657330D01*
X100007372Y-106654324D01*
X100056607Y-106646526D01*
X100125897Y-106655482D01*
X100179348Y-106700479D01*
X100199987Y-106767231D01*
X100200000Y-106769000D01*
X100200000Y-107976000D01*
X100180315Y-108043039D01*
X100127511Y-108088794D01*
X100076000Y-108100000D01*
X99949050Y-108100000D01*
X99882011Y-108080315D01*
X99838565Y-108032295D01*
X99828050Y-108011658D01*
X99828049Y-108011657D01*
X99828048Y-108011655D01*
X99738347Y-107921954D01*
X99738344Y-107921952D01*
X99738342Y-107921950D01*
X99625304Y-107864354D01*
X99625303Y-107864353D01*
X99625300Y-107864352D01*
X99500003Y-107844508D01*
X99499997Y-107844508D01*
X99374699Y-107864352D01*
X99374698Y-107864352D01*
X99299337Y-107902751D01*
X99261658Y-107921950D01*
X99261657Y-107921951D01*
X99261652Y-107921954D01*
X99171951Y-108011655D01*
X99161435Y-108032295D01*
X99113460Y-108083091D01*
X99050950Y-108100000D01*
X93449050Y-108100000D01*
X93382011Y-108080315D01*
X93338565Y-108032295D01*
X93328050Y-108011658D01*
X93328049Y-108011657D01*
X93328048Y-108011655D01*
X93238347Y-107921954D01*
X93238344Y-107921952D01*
X93238342Y-107921950D01*
X93125304Y-107864354D01*
X93125303Y-107864353D01*
X93125300Y-107864352D01*
X93000003Y-107844508D01*
X92999997Y-107844508D01*
X92874699Y-107864352D01*
X92874698Y-107864352D01*
X92799337Y-107902751D01*
X92761658Y-107921950D01*
X92761657Y-107921951D01*
X92761652Y-107921954D01*
X92671951Y-108011655D01*
X92661435Y-108032295D01*
X92613460Y-108083091D01*
X92550950Y-108100000D01*
X83699050Y-108100000D01*
X83632011Y-108080315D01*
X83588565Y-108032295D01*
X83578050Y-108011658D01*
X83578049Y-108011657D01*
X83578048Y-108011655D01*
X83488347Y-107921954D01*
X83488344Y-107921952D01*
X83488342Y-107921950D01*
X83375304Y-107864354D01*
X83375303Y-107864353D01*
X83375300Y-107864352D01*
X83250003Y-107844508D01*
X83249997Y-107844508D01*
X83124699Y-107864352D01*
X83124698Y-107864352D01*
X83049337Y-107902751D01*
X83011658Y-107921950D01*
X83011657Y-107921951D01*
X83011652Y-107921954D01*
X82921951Y-108011655D01*
X82911435Y-108032295D01*
X82863460Y-108083091D01*
X82800950Y-108100000D01*
X77199050Y-108100000D01*
X77132011Y-108080315D01*
X77088565Y-108032295D01*
X77078050Y-108011658D01*
X77078049Y-108011657D01*
X77078048Y-108011655D01*
X76988347Y-107921954D01*
X76988344Y-107921952D01*
X76988342Y-107921950D01*
X76875304Y-107864354D01*
X76875303Y-107864353D01*
X76875300Y-107864352D01*
X76750003Y-107844508D01*
X76749997Y-107844508D01*
X76624699Y-107864352D01*
X76624698Y-107864352D01*
X76549337Y-107902751D01*
X76511658Y-107921950D01*
X76511657Y-107921951D01*
X76511652Y-107921954D01*
X76421951Y-108011655D01*
X76411435Y-108032295D01*
X76363460Y-108083091D01*
X76300950Y-108100000D01*
X76174000Y-108100000D01*
X76106961Y-108080315D01*
X76061206Y-108027511D01*
X76050000Y-107976000D01*
X76050000Y-106799053D01*
X76069685Y-106732014D01*
X76086311Y-106711379D01*
X76112264Y-106685426D01*
X76173583Y-106651943D01*
X76219335Y-106650635D01*
X76242604Y-106654320D01*
X76305736Y-106684248D01*
X76342668Y-106743559D01*
X76345678Y-106757395D01*
X76364352Y-106875300D01*
X76364352Y-106875301D01*
X76364354Y-106875304D01*
X76421950Y-106988342D01*
X76421952Y-106988344D01*
X76421954Y-106988347D01*
X76511652Y-107078045D01*
X76511654Y-107078046D01*
X76511658Y-107078050D01*
X76624696Y-107135646D01*
X76624697Y-107135646D01*
X76624699Y-107135647D01*
X76749997Y-107155492D01*
X76750000Y-107155492D01*
X76750003Y-107155492D01*
X76875300Y-107135647D01*
X76875301Y-107135647D01*
X76875302Y-107135646D01*
X76875304Y-107135646D01*
X76988342Y-107078050D01*
X77078050Y-106988342D01*
X77135646Y-106875304D01*
X77135646Y-106875302D01*
X77135647Y-106875301D01*
X77135647Y-106875300D01*
X77155492Y-106750003D01*
X77155492Y-106750002D01*
X77146527Y-106693397D01*
X77155483Y-106624104D01*
X77200480Y-106570652D01*
X77267231Y-106550013D01*
X77269001Y-106550000D01*
X82730999Y-106550000D01*
X82798038Y-106569685D01*
G37*
%TD.AperFunction*%
%TD*%
M02*
