%TF.GenerationSoftware,KiCad,Pcbnew,8.0.1*%
%TF.CreationDate,2026-01-15T10:06:32-05:00*%
%TF.ProjectId,Mezzanine Backplane,4d657a7a-616e-4696-9e65-204261636b70,rev?*%
%TF.SameCoordinates,Original*%
%TF.FileFunction,Soldermask,Top*%
%TF.FilePolarity,Negative*%
%FSLAX46Y46*%
G04 Gerber Fmt 4.6, Leading zero omitted, Abs format (unit mm)*
G04 Created by KiCad (PCBNEW 8.0.1) date 2026-01-15 10:06:32*
%MOMM*%
%LPD*%
G01*
G04 APERTURE LIST*
%ADD10R,2.750000X1.000000*%
%ADD11C,0.550000*%
G04 APERTURE END LIST*
D10*
%TO.C,J4*%
X96250000Y-115100000D03*
X90000000Y-115100000D03*
X96250000Y-117100000D03*
X90000000Y-117100000D03*
X96250000Y-119100000D03*
X90000000Y-119100000D03*
X96250000Y-121100000D03*
X90000000Y-121100000D03*
X96250000Y-123100000D03*
X90000000Y-123100000D03*
X96250000Y-125100000D03*
X90000000Y-125100000D03*
X96250000Y-127100000D03*
X90000000Y-127100000D03*
X96250000Y-129100000D03*
X90000000Y-129100000D03*
X96250000Y-131100000D03*
X90000000Y-131100000D03*
X96250000Y-133100000D03*
X90000000Y-133100000D03*
X96250000Y-135100000D03*
X90000000Y-135100000D03*
X96250000Y-137100000D03*
X90000000Y-137100000D03*
X96250000Y-139100000D03*
X90000000Y-139100000D03*
X96250000Y-141100000D03*
X90000000Y-141100000D03*
X96250000Y-143100000D03*
X90000000Y-143100000D03*
X96250000Y-145100000D03*
X90000000Y-145100000D03*
X96250000Y-147100000D03*
X90000000Y-147100000D03*
X96250000Y-149100000D03*
X90000000Y-149100000D03*
X96250000Y-151100000D03*
X90000000Y-151100000D03*
X96250000Y-153100000D03*
X90000000Y-153100000D03*
X96250000Y-155100000D03*
X90000000Y-155100000D03*
X96250000Y-157100000D03*
X90000000Y-157100000D03*
X96250000Y-159100000D03*
X90000000Y-159100000D03*
X96250000Y-161100000D03*
X90000000Y-161100000D03*
X96250000Y-163100000D03*
X90000000Y-163100000D03*
%TD*%
%TO.C,J3*%
X86250000Y-115100000D03*
X80000000Y-115100000D03*
X86250000Y-117100000D03*
X80000000Y-117100000D03*
X86250000Y-119100000D03*
X80000000Y-119100000D03*
X86250000Y-121100000D03*
X80000000Y-121100000D03*
X86250000Y-123100000D03*
X80000000Y-123100000D03*
X86250000Y-125100000D03*
X80000000Y-125100000D03*
X86250000Y-127100000D03*
X80000000Y-127100000D03*
X86250000Y-129100000D03*
X80000000Y-129100000D03*
X86250000Y-131100000D03*
X80000000Y-131100000D03*
X86250000Y-133100000D03*
X80000000Y-133100000D03*
X86250000Y-135100000D03*
X80000000Y-135100000D03*
X86250000Y-137100000D03*
X80000000Y-137100000D03*
X86250000Y-139100000D03*
X80000000Y-139100000D03*
X86250000Y-141100000D03*
X80000000Y-141100000D03*
X86250000Y-143100000D03*
X80000000Y-143100000D03*
X86250000Y-145100000D03*
X80000000Y-145100000D03*
X86250000Y-147100000D03*
X80000000Y-147100000D03*
X86250000Y-149100000D03*
X80000000Y-149100000D03*
X86250000Y-151100000D03*
X80000000Y-151100000D03*
X86250000Y-153100000D03*
X80000000Y-153100000D03*
X86250000Y-155100000D03*
X80000000Y-155100000D03*
X86250000Y-157100000D03*
X80000000Y-157100000D03*
X86250000Y-159100000D03*
X80000000Y-159100000D03*
X86250000Y-161100000D03*
X80000000Y-161100000D03*
X86250000Y-163100000D03*
X80000000Y-163100000D03*
%TD*%
D11*
%TO.C,J1*%
X81375000Y-86800000D03*
X81375000Y-113200000D03*
%TD*%
%TO.C,J2*%
X97375000Y-86800000D03*
X97375000Y-113200000D03*
%TD*%
M02*
