%TF.GenerationSoftware,KiCad,Pcbnew,8.0.1*%
%TF.CreationDate,2026-01-15T10:06:32-05:00*%
%TF.ProjectId,Mezzanine Backplane,4d657a7a-616e-4696-9e65-204261636b70,rev?*%
%TF.SameCoordinates,Original*%
%TF.FileFunction,Copper,L4,Bot*%
%TF.FilePolarity,Positive*%
%FSLAX46Y46*%
G04 Gerber Fmt 4.6, Leading zero omitted, Abs format (unit mm)*
G04 Created by KiCad (PCBNEW 8.0.1) date 2026-01-15 10:06:32*
%MOMM*%
%LPD*%
G01*
G04 APERTURE LIST*
G04 Aperture macros list*
%AMRoundRect*
0 Rectangle with rounded corners*
0 $1 Rounding radius*
0 $2 $3 $4 $5 $6 $7 $8 $9 X,Y pos of 4 corners*
0 Add a 4 corners polygon primitive as box body*
4,1,4,$2,$3,$4,$5,$6,$7,$8,$9,$2,$3,0*
0 Add four circle primitives for the rounded corners*
1,1,$1+$1,$2,$3*
1,1,$1+$1,$4,$5*
1,1,$1+$1,$6,$7*
1,1,$1+$1,$8,$9*
0 Add four rect primitives between the rounded corners*
20,1,$1+$1,$2,$3,$4,$5,0*
20,1,$1+$1,$4,$5,$6,$7,0*
20,1,$1+$1,$6,$7,$8,$9,0*
20,1,$1+$1,$8,$9,$2,$3,0*%
G04 Aperture macros list end*
%TA.AperFunction,SMDPad,CuDef*%
%ADD10RoundRect,0.075000X-0.825000X0.075000X-0.825000X-0.075000X0.825000X-0.075000X0.825000X0.075000X0*%
%TD*%
%TA.AperFunction,ViaPad*%
%ADD11C,0.500000*%
%TD*%
%TA.AperFunction,Conductor*%
%ADD12C,0.120000*%
%TD*%
%TA.AperFunction,Conductor*%
%ADD13C,0.200000*%
%TD*%
G04 APERTURE END LIST*
D10*
%TO.P,J1,A1,Pin_A1*%
%TO.N,GND*%
X82125000Y-87750000D03*
%TO.P,J1,A2,Pin_A2*%
%TO.N,/L_0*%
X82125000Y-88250000D03*
%TO.P,J1,A3,Pin_A3*%
%TO.N,/L_2*%
X82125000Y-88750000D03*
%TO.P,J1,A4,Pin_A4*%
%TO.N,GND*%
X82125000Y-89250000D03*
%TO.P,J1,A5,Pin_A5*%
%TO.N,/L_4*%
X82125000Y-89750000D03*
%TO.P,J1,A6,Pin_A6*%
%TO.N,/L_6*%
X82125000Y-90250000D03*
%TO.P,J1,A7,Pin_A7*%
%TO.N,GND*%
X82125000Y-90750000D03*
%TO.P,J1,A8,Pin_A8*%
%TO.N,/L_8*%
X82125000Y-91250000D03*
%TO.P,J1,A9,Pin_A9*%
%TO.N,/L_10*%
X82125000Y-91750000D03*
%TO.P,J1,A10,Pin_A10*%
%TO.N,GND*%
X82125000Y-92250000D03*
%TO.P,J1,A11,Pin_A11*%
%TO.N,/L_12*%
X82125000Y-92750000D03*
%TO.P,J1,A12,Pin_A12*%
%TO.N,/L_14*%
X82125000Y-93250000D03*
%TO.P,J1,A13,Pin_A13*%
%TO.N,GND*%
X82125000Y-93750000D03*
%TO.P,J1,A14,Pin_A14*%
%TO.N,/L_16*%
X82125000Y-94250000D03*
%TO.P,J1,A15,Pin_A15*%
%TO.N,/L_18*%
X82125000Y-94750000D03*
%TO.P,J1,A16,Pin_A16*%
%TO.N,GND*%
X82125000Y-95250000D03*
%TO.P,J1,A17,Pin_A17*%
%TO.N,/L_20*%
X82125000Y-95750000D03*
%TO.P,J1,A18,Pin_A18*%
%TO.N,/L_22*%
X82125000Y-96250000D03*
%TO.P,J1,A19,Pin_A19*%
%TO.N,GND*%
X82125000Y-96750000D03*
%TO.P,J1,A20,Pin_A20*%
%TO.N,/L_24*%
X82125000Y-97250000D03*
%TO.P,J1,A21,Pin_A21*%
%TO.N,/L_26*%
X82125000Y-97750000D03*
%TO.P,J1,A22,Pin_A22*%
%TO.N,GND*%
X82125000Y-98250000D03*
%TO.P,J1,A23,Pin_A23*%
%TO.N,/L_28*%
X82125000Y-98750000D03*
%TO.P,J1,A24,Pin_A24*%
%TO.N,/L_30*%
X82125000Y-99250000D03*
%TO.P,J1,A25,Pin_A25*%
%TO.N,GND*%
X82125000Y-99750000D03*
%TO.P,J1,A26,Pin_A26*%
%TO.N,/L_32*%
X82125000Y-100250000D03*
%TO.P,J1,A27,Pin_A27*%
%TO.N,/L_34*%
X82125000Y-100750000D03*
%TO.P,J1,A28,Pin_A28*%
%TO.N,GND*%
X82125000Y-101250000D03*
%TO.P,J1,A29,Pin_A29*%
%TO.N,/L_36*%
X82125000Y-101750000D03*
%TO.P,J1,A30,Pin_A30*%
%TO.N,/L_38*%
X82125000Y-102250000D03*
%TO.P,J1,A31,Pin_A31*%
%TO.N,GND*%
X82125000Y-102750000D03*
%TO.P,J1,A32,Pin_A32*%
%TO.N,/L_40*%
X82125000Y-103250000D03*
%TO.P,J1,A33,Pin_A33*%
%TO.N,/L_42*%
X82125000Y-103750000D03*
%TO.P,J1,A34,Pin_A34*%
%TO.N,GND*%
X82125000Y-104250000D03*
%TO.P,J1,A35,Pin_A35*%
%TO.N,/L_44*%
X82125000Y-104750000D03*
%TO.P,J1,A36,Pin_A36*%
%TO.N,/L_46*%
X82125000Y-105250000D03*
%TO.P,J1,A37,Pin_A37*%
%TO.N,GND*%
X82125000Y-105750000D03*
%TO.P,J1,A38,Pin_A38*%
%TO.N,/L_48*%
X82125000Y-106250000D03*
%TO.P,J1,A39,Pin_A39*%
%TO.N,GND*%
X82125000Y-106750000D03*
%TO.P,J1,A40,Pin_A40*%
%TO.N,+3.3V*%
X82125000Y-107250000D03*
%TO.P,J1,A41,Pin_A41*%
X82125000Y-107750000D03*
%TO.P,J1,A42,Pin_A42*%
%TO.N,GND*%
X82125000Y-108250000D03*
%TO.P,J1,A43,Pin_A43*%
%TO.N,+5V*%
X82125000Y-108750000D03*
%TO.P,J1,A44,Pin_A44*%
X82125000Y-109250000D03*
%TO.P,J1,A45,Pin_A45*%
%TO.N,GND*%
X82125000Y-109750000D03*
%TO.P,J1,A46,Pin_A46*%
%TO.N,unconnected-(J1-Pin_A46-PadA46)*%
X82125000Y-110250000D03*
%TO.P,J1,A47,Pin_A47*%
%TO.N,+24V*%
X82125000Y-110750000D03*
%TO.P,J1,A48,Pin_A48*%
X82125000Y-111250000D03*
%TO.P,J1,A49,Pin_A49*%
X82125000Y-111750000D03*
%TO.P,J1,A50,Pin_A50*%
X82125000Y-112250000D03*
%TO.P,J1,B1,Pin_B1*%
%TO.N,GND*%
X78125000Y-87750000D03*
%TO.P,J1,B2,Pin_B2*%
%TO.N,/L_1*%
X78125000Y-88250000D03*
%TO.P,J1,B3,Pin_B3*%
%TO.N,/L_3*%
X78125000Y-88750000D03*
%TO.P,J1,B4,Pin_B4*%
%TO.N,GND*%
X78125000Y-89250000D03*
%TO.P,J1,B5,Pin_B5*%
%TO.N,/L_5*%
X78125000Y-89750000D03*
%TO.P,J1,B6,Pin_B6*%
%TO.N,/L_7*%
X78125000Y-90250000D03*
%TO.P,J1,B7,Pin_B7*%
%TO.N,GND*%
X78125000Y-90750000D03*
%TO.P,J1,B8,Pin_B8*%
%TO.N,/L_9*%
X78125000Y-91250000D03*
%TO.P,J1,B9,Pin_B9*%
%TO.N,/L_11*%
X78125000Y-91750000D03*
%TO.P,J1,B10,Pin_B10*%
%TO.N,GND*%
X78125000Y-92250000D03*
%TO.P,J1,B11,Pin_B11*%
%TO.N,/L_13*%
X78125000Y-92750000D03*
%TO.P,J1,B12,Pin_B12*%
%TO.N,/L_15*%
X78125000Y-93250000D03*
%TO.P,J1,B13,Pin_B13*%
%TO.N,GND*%
X78125000Y-93750000D03*
%TO.P,J1,B14,Pin_B14*%
%TO.N,/L_17*%
X78125000Y-94250000D03*
%TO.P,J1,B15,Pin_B15*%
%TO.N,/L_19*%
X78125000Y-94750000D03*
%TO.P,J1,B16,Pin_B16*%
%TO.N,GND*%
X78125000Y-95250000D03*
%TO.P,J1,B17,Pin_B17*%
%TO.N,/L_21*%
X78125000Y-95750000D03*
%TO.P,J1,B18,Pin_B18*%
%TO.N,/L_23*%
X78125000Y-96250000D03*
%TO.P,J1,B19,Pin_B19*%
%TO.N,GND*%
X78125000Y-96750000D03*
%TO.P,J1,B20,Pin_B20*%
%TO.N,/L_25*%
X78125000Y-97250000D03*
%TO.P,J1,B21,Pin_B21*%
%TO.N,/L_27*%
X78125000Y-97750000D03*
%TO.P,J1,B22,Pin_B22*%
%TO.N,GND*%
X78125000Y-98250000D03*
%TO.P,J1,B23,Pin_B23*%
%TO.N,/L_29*%
X78125000Y-98750000D03*
%TO.P,J1,B24,Pin_B24*%
%TO.N,/L_31*%
X78125000Y-99250000D03*
%TO.P,J1,B25,Pin_B25*%
%TO.N,GND*%
X78125000Y-99750000D03*
%TO.P,J1,B26,Pin_B26*%
%TO.N,/L_33*%
X78125000Y-100250000D03*
%TO.P,J1,B27,Pin_B27*%
%TO.N,/L_35*%
X78125000Y-100750000D03*
%TO.P,J1,B28,Pin_B28*%
%TO.N,GND*%
X78125000Y-101250000D03*
%TO.P,J1,B29,Pin_B29*%
%TO.N,/L_37*%
X78125000Y-101750000D03*
%TO.P,J1,B30,Pin_B30*%
%TO.N,/L_39*%
X78125000Y-102250000D03*
%TO.P,J1,B31,Pin_B31*%
%TO.N,GND*%
X78125000Y-102750000D03*
%TO.P,J1,B32,Pin_B32*%
%TO.N,/L_41*%
X78125000Y-103250000D03*
%TO.P,J1,B33,Pin_B33*%
%TO.N,/L_43*%
X78125000Y-103750000D03*
%TO.P,J1,B34,Pin_B34*%
%TO.N,GND*%
X78125000Y-104250000D03*
%TO.P,J1,B35,Pin_B35*%
%TO.N,/L_45*%
X78125000Y-104750000D03*
%TO.P,J1,B36,Pin_B36*%
%TO.N,/L_47*%
X78125000Y-105250000D03*
%TO.P,J1,B37,Pin_B37*%
%TO.N,GND*%
X78125000Y-105750000D03*
%TO.P,J1,B38,Pin_B38*%
%TO.N,/L_49*%
X78125000Y-106250000D03*
%TO.P,J1,B39,Pin_B39*%
%TO.N,GND*%
X78125000Y-106750000D03*
%TO.P,J1,B40,Pin_B40*%
%TO.N,+3.3V*%
X78125000Y-107250000D03*
%TO.P,J1,B41,Pin_B41*%
X78125000Y-107750000D03*
%TO.P,J1,B42,Pin_B42*%
%TO.N,GND*%
X78125000Y-108250000D03*
%TO.P,J1,B43,Pin_B43*%
%TO.N,+5V*%
X78125000Y-108750000D03*
%TO.P,J1,B44,Pin_B44*%
X78125000Y-109250000D03*
%TO.P,J1,B45,Pin_B45*%
%TO.N,GND*%
X78125000Y-109750000D03*
%TO.P,J1,B46,Pin_B46*%
%TO.N,unconnected-(J1-Pin_B46-PadB46)*%
X78125000Y-110250000D03*
%TO.P,J1,B47,Pin_B47*%
%TO.N,+24V*%
X78125000Y-110750000D03*
%TO.P,J1,B48,Pin_B48*%
X78125000Y-111250000D03*
%TO.P,J1,B49,Pin_B49*%
X78125000Y-111750000D03*
%TO.P,J1,B50,Pin_B50*%
X78125000Y-112250000D03*
%TD*%
%TO.P,J2,A1,Pin_A1*%
%TO.N,GND*%
X98125000Y-87750000D03*
%TO.P,J2,A2,Pin_A2*%
%TO.N,/R_0*%
X98125000Y-88250000D03*
%TO.P,J2,A3,Pin_A3*%
%TO.N,/R_2*%
X98125000Y-88750000D03*
%TO.P,J2,A4,Pin_A4*%
%TO.N,GND*%
X98125000Y-89250000D03*
%TO.P,J2,A5,Pin_A5*%
%TO.N,/R_4*%
X98125000Y-89750000D03*
%TO.P,J2,A6,Pin_A6*%
%TO.N,/R_6*%
X98125000Y-90250000D03*
%TO.P,J2,A7,Pin_A7*%
%TO.N,GND*%
X98125000Y-90750000D03*
%TO.P,J2,A8,Pin_A8*%
%TO.N,/R_8*%
X98125000Y-91250000D03*
%TO.P,J2,A9,Pin_A9*%
%TO.N,/R_10*%
X98125000Y-91750000D03*
%TO.P,J2,A10,Pin_A10*%
%TO.N,GND*%
X98125000Y-92250000D03*
%TO.P,J2,A11,Pin_A11*%
%TO.N,/R_12*%
X98125000Y-92750000D03*
%TO.P,J2,A12,Pin_A12*%
%TO.N,/R_14*%
X98125000Y-93250000D03*
%TO.P,J2,A13,Pin_A13*%
%TO.N,GND*%
X98125000Y-93750000D03*
%TO.P,J2,A14,Pin_A14*%
%TO.N,/L_16*%
X98125000Y-94250000D03*
%TO.P,J2,A15,Pin_A15*%
%TO.N,/L_18*%
X98125000Y-94750000D03*
%TO.P,J2,A16,Pin_A16*%
%TO.N,GND*%
X98125000Y-95250000D03*
%TO.P,J2,A17,Pin_A17*%
%TO.N,/L_20*%
X98125000Y-95750000D03*
%TO.P,J2,A18,Pin_A18*%
%TO.N,/L_22*%
X98125000Y-96250000D03*
%TO.P,J2,A19,Pin_A19*%
%TO.N,GND*%
X98125000Y-96750000D03*
%TO.P,J2,A20,Pin_A20*%
%TO.N,/L_24*%
X98125000Y-97250000D03*
%TO.P,J2,A21,Pin_A21*%
%TO.N,/L_26*%
X98125000Y-97750000D03*
%TO.P,J2,A22,Pin_A22*%
%TO.N,GND*%
X98125000Y-98250000D03*
%TO.P,J2,A23,Pin_A23*%
%TO.N,/L_28*%
X98125000Y-98750000D03*
%TO.P,J2,A24,Pin_A24*%
%TO.N,/L_30*%
X98125000Y-99250000D03*
%TO.P,J2,A25,Pin_A25*%
%TO.N,GND*%
X98125000Y-99750000D03*
%TO.P,J2,A26,Pin_A26*%
%TO.N,/L_32*%
X98125000Y-100250000D03*
%TO.P,J2,A27,Pin_A27*%
%TO.N,/L_34*%
X98125000Y-100750000D03*
%TO.P,J2,A28,Pin_A28*%
%TO.N,GND*%
X98125000Y-101250000D03*
%TO.P,J2,A29,Pin_A29*%
%TO.N,/L_36*%
X98125000Y-101750000D03*
%TO.P,J2,A30,Pin_A30*%
%TO.N,/L_38*%
X98125000Y-102250000D03*
%TO.P,J2,A31,Pin_A31*%
%TO.N,GND*%
X98125000Y-102750000D03*
%TO.P,J2,A32,Pin_A32*%
%TO.N,/L_40*%
X98125000Y-103250000D03*
%TO.P,J2,A33,Pin_A33*%
%TO.N,/L_42*%
X98125000Y-103750000D03*
%TO.P,J2,A34,Pin_A34*%
%TO.N,GND*%
X98125000Y-104250000D03*
%TO.P,J2,A35,Pin_A35*%
%TO.N,/L_44*%
X98125000Y-104750000D03*
%TO.P,J2,A36,Pin_A36*%
%TO.N,/L_46*%
X98125000Y-105250000D03*
%TO.P,J2,A37,Pin_A37*%
%TO.N,GND*%
X98125000Y-105750000D03*
%TO.P,J2,A38,Pin_A38*%
%TO.N,/R_48*%
X98125000Y-106250000D03*
%TO.P,J2,A39,Pin_A39*%
%TO.N,GND*%
X98125000Y-106750000D03*
%TO.P,J2,A40,Pin_A40*%
%TO.N,+3.3V*%
X98125000Y-107250000D03*
%TO.P,J2,A41,Pin_A41*%
X98125000Y-107750000D03*
%TO.P,J2,A42,Pin_A42*%
%TO.N,GND*%
X98125000Y-108250000D03*
%TO.P,J2,A43,Pin_A43*%
%TO.N,+5V*%
X98125000Y-108750000D03*
%TO.P,J2,A44,Pin_A44*%
X98125000Y-109250000D03*
%TO.P,J2,A45,Pin_A45*%
%TO.N,GND*%
X98125000Y-109750000D03*
%TO.P,J2,A46,Pin_A46*%
%TO.N,unconnected-(J2-Pin_A46-PadA46)*%
X98125000Y-110250000D03*
%TO.P,J2,A47,Pin_A47*%
%TO.N,+24V*%
X98125000Y-110750000D03*
%TO.P,J2,A48,Pin_A48*%
X98125000Y-111250000D03*
%TO.P,J2,A49,Pin_A49*%
X98125000Y-111750000D03*
%TO.P,J2,A50,Pin_A50*%
X98125000Y-112250000D03*
%TO.P,J2,B1,Pin_B1*%
%TO.N,GND*%
X94125000Y-87750000D03*
%TO.P,J2,B2,Pin_B2*%
%TO.N,/R_1*%
X94125000Y-88250000D03*
%TO.P,J2,B3,Pin_B3*%
%TO.N,/R_3*%
X94125000Y-88750000D03*
%TO.P,J2,B4,Pin_B4*%
%TO.N,GND*%
X94125000Y-89250000D03*
%TO.P,J2,B5,Pin_B5*%
%TO.N,/R_5*%
X94125000Y-89750000D03*
%TO.P,J2,B6,Pin_B6*%
%TO.N,/R_7*%
X94125000Y-90250000D03*
%TO.P,J2,B7,Pin_B7*%
%TO.N,GND*%
X94125000Y-90750000D03*
%TO.P,J2,B8,Pin_B8*%
%TO.N,/R_9*%
X94125000Y-91250000D03*
%TO.P,J2,B9,Pin_B9*%
%TO.N,/R_11*%
X94125000Y-91750000D03*
%TO.P,J2,B10,Pin_B10*%
%TO.N,GND*%
X94125000Y-92250000D03*
%TO.P,J2,B11,Pin_B11*%
%TO.N,/R_13*%
X94125000Y-92750000D03*
%TO.P,J2,B12,Pin_B12*%
%TO.N,/R_15*%
X94125000Y-93250000D03*
%TO.P,J2,B13,Pin_B13*%
%TO.N,GND*%
X94125000Y-93750000D03*
%TO.P,J2,B14,Pin_B14*%
%TO.N,/L_17*%
X94125000Y-94250000D03*
%TO.P,J2,B15,Pin_B15*%
%TO.N,/L_19*%
X94125000Y-94750000D03*
%TO.P,J2,B16,Pin_B16*%
%TO.N,GND*%
X94125000Y-95250000D03*
%TO.P,J2,B17,Pin_B17*%
%TO.N,/L_21*%
X94125000Y-95750000D03*
%TO.P,J2,B18,Pin_B18*%
%TO.N,/L_23*%
X94125000Y-96250000D03*
%TO.P,J2,B19,Pin_B19*%
%TO.N,GND*%
X94125000Y-96750000D03*
%TO.P,J2,B20,Pin_B20*%
%TO.N,/L_25*%
X94125000Y-97250000D03*
%TO.P,J2,B21,Pin_B21*%
%TO.N,/L_27*%
X94125000Y-97750000D03*
%TO.P,J2,B22,Pin_B22*%
%TO.N,GND*%
X94125000Y-98250000D03*
%TO.P,J2,B23,Pin_B23*%
%TO.N,/L_29*%
X94125000Y-98750000D03*
%TO.P,J2,B24,Pin_B24*%
%TO.N,/L_31*%
X94125000Y-99250000D03*
%TO.P,J2,B25,Pin_B25*%
%TO.N,GND*%
X94125000Y-99750000D03*
%TO.P,J2,B26,Pin_B26*%
%TO.N,/L_33*%
X94125000Y-100250000D03*
%TO.P,J2,B27,Pin_B27*%
%TO.N,/L_35*%
X94125000Y-100750000D03*
%TO.P,J2,B28,Pin_B28*%
%TO.N,GND*%
X94125000Y-101250000D03*
%TO.P,J2,B29,Pin_B29*%
%TO.N,/L_37*%
X94125000Y-101750000D03*
%TO.P,J2,B30,Pin_B30*%
%TO.N,/L_39*%
X94125000Y-102250000D03*
%TO.P,J2,B31,Pin_B31*%
%TO.N,GND*%
X94125000Y-102750000D03*
%TO.P,J2,B32,Pin_B32*%
%TO.N,/L_41*%
X94125000Y-103250000D03*
%TO.P,J2,B33,Pin_B33*%
%TO.N,/L_43*%
X94125000Y-103750000D03*
%TO.P,J2,B34,Pin_B34*%
%TO.N,GND*%
X94125000Y-104250000D03*
%TO.P,J2,B35,Pin_B35*%
%TO.N,/L_45*%
X94125000Y-104750000D03*
%TO.P,J2,B36,Pin_B36*%
%TO.N,/L_47*%
X94125000Y-105250000D03*
%TO.P,J2,B37,Pin_B37*%
%TO.N,GND*%
X94125000Y-105750000D03*
%TO.P,J2,B38,Pin_B38*%
%TO.N,/R_49*%
X94125000Y-106250000D03*
%TO.P,J2,B39,Pin_B39*%
%TO.N,GND*%
X94125000Y-106750000D03*
%TO.P,J2,B40,Pin_B40*%
%TO.N,+3.3V*%
X94125000Y-107250000D03*
%TO.P,J2,B41,Pin_B41*%
X94125000Y-107750000D03*
%TO.P,J2,B42,Pin_B42*%
%TO.N,GND*%
X94125000Y-108250000D03*
%TO.P,J2,B43,Pin_B43*%
%TO.N,+5V*%
X94125000Y-108750000D03*
%TO.P,J2,B44,Pin_B44*%
X94125000Y-109250000D03*
%TO.P,J2,B45,Pin_B45*%
%TO.N,GND*%
X94125000Y-109750000D03*
%TO.P,J2,B46,Pin_B46*%
%TO.N,unconnected-(J2-Pin_B46-PadB46)*%
X94125000Y-110250000D03*
%TO.P,J2,B47,Pin_B47*%
%TO.N,+24V*%
X94125000Y-110750000D03*
%TO.P,J2,B48,Pin_B48*%
X94125000Y-111250000D03*
%TO.P,J2,B49,Pin_B49*%
X94125000Y-111750000D03*
%TO.P,J2,B50,Pin_B50*%
X94125000Y-112250000D03*
%TD*%
D11*
%TO.N,GND*%
X83200000Y-87750000D03*
X96200000Y-148100000D03*
X96200000Y-122100000D03*
X80100000Y-132100000D03*
X96200000Y-128100000D03*
X99500000Y-102750000D03*
X94400000Y-121200000D03*
X93050000Y-90750000D03*
X99500000Y-96750000D03*
X96200000Y-136100000D03*
X90100000Y-89600000D03*
X80100000Y-124100000D03*
X99500000Y-99750000D03*
X84200000Y-113500000D03*
X84300000Y-143000000D03*
X84200000Y-157100000D03*
X99500000Y-106750000D03*
X83200000Y-99750000D03*
X76250000Y-95250000D03*
X93000000Y-108250000D03*
X76750000Y-99750000D03*
X83200000Y-90750000D03*
X96200000Y-154100000D03*
X80100000Y-130100000D03*
X99500000Y-108250000D03*
X76250000Y-98250000D03*
X76750000Y-87750000D03*
X97100000Y-120100000D03*
X93000000Y-109750000D03*
X84000000Y-132600000D03*
X93050000Y-101250000D03*
X80100000Y-146100000D03*
X80100000Y-134100000D03*
X81900000Y-157100000D03*
X83250000Y-109750000D03*
X91900000Y-117100000D03*
X93050000Y-96750000D03*
X99500000Y-87750000D03*
X80200000Y-156100000D03*
X84400000Y-155100000D03*
X76250000Y-92250000D03*
X99500000Y-105750000D03*
X93700000Y-118600000D03*
X91900000Y-139100000D03*
X96300000Y-116100000D03*
X80100000Y-154100000D03*
X80100000Y-150100000D03*
X93050000Y-89250000D03*
X83200000Y-96750000D03*
X79900000Y-116100000D03*
X88300000Y-135100000D03*
X76750000Y-108250000D03*
X88000000Y-92000000D03*
X93050000Y-93750000D03*
X83200000Y-104250000D03*
X91900000Y-145100000D03*
X80100000Y-136100000D03*
X91900000Y-127100000D03*
X76750000Y-102750000D03*
X83900000Y-136600000D03*
X91900000Y-119100000D03*
X83200000Y-95250000D03*
X76250000Y-89250000D03*
X80100000Y-142100000D03*
X84400000Y-117600000D03*
X91900000Y-149400000D03*
X93400000Y-122200000D03*
X91900000Y-131200000D03*
X82300000Y-122200000D03*
X76250000Y-101250000D03*
X100000000Y-98250000D03*
X91900000Y-137100000D03*
X99500000Y-90750000D03*
X86400000Y-144000000D03*
X99500000Y-109750000D03*
X80100000Y-140100000D03*
X92000000Y-157100000D03*
X83200000Y-101250000D03*
X84400000Y-131100000D03*
X83200000Y-89250000D03*
X84400000Y-153100000D03*
X84100000Y-119600000D03*
X80100000Y-152100000D03*
X92800000Y-113500000D03*
X88200000Y-128900000D03*
X80100000Y-122000000D03*
X84300000Y-145100000D03*
X96200000Y-140100000D03*
X96200000Y-156100000D03*
X96200000Y-142100000D03*
X76750000Y-109750000D03*
X83200000Y-102750000D03*
X91900000Y-147100000D03*
X93050000Y-102750000D03*
X80100000Y-120200000D03*
X91900000Y-125100000D03*
X93050000Y-104250000D03*
X94400000Y-116600000D03*
X83200000Y-92250000D03*
X82000000Y-117600000D03*
X84500000Y-128900000D03*
X83900000Y-140600000D03*
X83200000Y-93750000D03*
X91900000Y-141100000D03*
X90800000Y-148200000D03*
X100000000Y-104250000D03*
X84100000Y-118600000D03*
X83300000Y-114600000D03*
X84200000Y-123600000D03*
X83200000Y-98250000D03*
X93050000Y-105750000D03*
X80100000Y-144100000D03*
X88100000Y-157100000D03*
X83250000Y-106750000D03*
X92100000Y-115100000D03*
X84400000Y-139100000D03*
X88100000Y-149100000D03*
X88200000Y-127600000D03*
X96200000Y-132100000D03*
X96200000Y-126100000D03*
X96200000Y-146100000D03*
X94400000Y-117700000D03*
X84300000Y-147100000D03*
X92900000Y-119500000D03*
X80100000Y-128100000D03*
X94400000Y-157100000D03*
X80100000Y-148100000D03*
X88200000Y-142900000D03*
X93050000Y-95250000D03*
X80100000Y-138100000D03*
X91900000Y-135300000D03*
X80100000Y-126100000D03*
X84400000Y-115200000D03*
X96200000Y-144100000D03*
X92600000Y-123600000D03*
X91900000Y-120500000D03*
X84000000Y-126600000D03*
X96200000Y-130100000D03*
X76250000Y-104250000D03*
X83250000Y-108250000D03*
X84400000Y-120600000D03*
X91600000Y-106200000D03*
X76750000Y-93750000D03*
X96200000Y-152100000D03*
X91900000Y-143100000D03*
X84400000Y-125100000D03*
X93050000Y-87750000D03*
X93050000Y-98250000D03*
X76750000Y-96750000D03*
X91900000Y-129100000D03*
X88200000Y-137700000D03*
X91900000Y-153100000D03*
X91900000Y-133200000D03*
X91900000Y-151200000D03*
X76750000Y-90750000D03*
X88100000Y-155800000D03*
X100000000Y-95250000D03*
X96200000Y-134100000D03*
X85100000Y-106200000D03*
X98000000Y-118200000D03*
X76750000Y-106750000D03*
X88200000Y-121100000D03*
X93000000Y-106750000D03*
X82400000Y-118600000D03*
X76750000Y-105750000D03*
X96200000Y-138100000D03*
X84300000Y-149100000D03*
X91900000Y-155100000D03*
X84400000Y-151200000D03*
X93050000Y-99750000D03*
X100000000Y-89250000D03*
X83200000Y-105750000D03*
X85800000Y-89800000D03*
X100000000Y-101250000D03*
X84400000Y-135100000D03*
X96200000Y-124100000D03*
X100000000Y-92250000D03*
X93050000Y-92250000D03*
X99500000Y-93750000D03*
X96200000Y-150100000D03*
%TO.N,/L_7*%
X84450000Y-133100000D03*
X76250000Y-90250000D03*
%TO.N,/L_15*%
X87900000Y-151100000D03*
X76250000Y-93250000D03*
%TO.N,+3.3V*%
X80100000Y-113000000D03*
X81800000Y-158400000D03*
X80400000Y-113500000D03*
X92600000Y-107250000D03*
X80600000Y-113000000D03*
X82500000Y-158400000D03*
X99900000Y-107250000D03*
X76350000Y-107250000D03*
X92600000Y-107750000D03*
X93900000Y-158400000D03*
X91800000Y-158400000D03*
X79900000Y-113500000D03*
X76350000Y-107750000D03*
X92500000Y-158400000D03*
X93200000Y-158400000D03*
X79600000Y-113000000D03*
X83650000Y-107250000D03*
X83650000Y-107750000D03*
X83900000Y-158400000D03*
X99900000Y-107750000D03*
X83200000Y-158400000D03*
X79400000Y-113500000D03*
%TO.N,/L_36*%
X99500000Y-101750000D03*
X83925000Y-101750000D03*
%TO.N,+5V*%
X96200000Y-113600000D03*
X83650000Y-109250000D03*
X99900000Y-108755810D03*
X83700000Y-159800000D03*
X83650000Y-108755810D03*
X76350000Y-109250000D03*
X93000000Y-159800000D03*
X92600000Y-108755810D03*
X92300000Y-159800000D03*
X93700000Y-159800000D03*
X96500000Y-113100000D03*
X95700000Y-113600000D03*
X84400000Y-159800000D03*
X96700000Y-113600000D03*
X95500000Y-113100000D03*
X99900000Y-109250000D03*
X92600000Y-109250000D03*
X76350000Y-108755810D03*
X96000000Y-113100000D03*
X94400000Y-159800000D03*
X82300000Y-159800000D03*
X83000000Y-159800000D03*
%TO.N,/L_41*%
X91825000Y-102850000D03*
X76250000Y-103250000D03*
%TO.N,/L_25*%
X76250000Y-97250000D03*
X91825000Y-96850000D03*
%TO.N,+24V*%
X94600000Y-163100000D03*
X83100000Y-163100000D03*
X83250000Y-110750000D03*
X93000000Y-111750000D03*
X93000000Y-111250000D03*
X91800000Y-163100000D03*
X99500000Y-111750000D03*
X92500000Y-163100000D03*
X93000000Y-110750000D03*
X82400000Y-163100000D03*
X83800000Y-163100000D03*
X99500000Y-111250000D03*
X76750000Y-112250000D03*
X83250000Y-111250000D03*
X84500000Y-163100000D03*
X76750000Y-110750000D03*
X93900000Y-163100000D03*
X99500000Y-112250000D03*
X76750000Y-111250000D03*
X81700000Y-163100000D03*
X83250000Y-111750000D03*
X83250000Y-112250000D03*
X93000000Y-112250000D03*
X93200000Y-163100000D03*
X76750000Y-111750000D03*
X99500000Y-110750000D03*
%TO.N,/L_32*%
X83908112Y-100258112D03*
X100000000Y-100250000D03*
%TO.N,/L_43*%
X92433976Y-104179878D03*
X76750000Y-103750000D03*
%TO.N,/L_33*%
X91825000Y-99850000D03*
X76250000Y-100250000D03*
%TO.N,/L_17*%
X76250000Y-94250000D03*
X91800000Y-93820000D03*
%TO.N,/L_0*%
X88145944Y-115995944D03*
%TO.N,/L_3*%
X76750000Y-88750000D03*
X83700000Y-123050000D03*
%TO.N,/L_11*%
X76750000Y-91750000D03*
X84350000Y-141100000D03*
%TO.N,/L_49*%
X76250000Y-106250000D03*
X88150000Y-155100000D03*
%TO.N,/L_47*%
X76250000Y-105250000D03*
X92433976Y-105679878D03*
%TO.N,/L_20*%
X84046738Y-95750000D03*
X99500000Y-95750000D03*
%TO.N,/L_40*%
X100000000Y-103250000D03*
X83925000Y-103250000D03*
%TO.N,/L_45*%
X76750000Y-104750000D03*
X91825000Y-104350000D03*
%TO.N,/L_6*%
X88154331Y-129937557D03*
%TO.N,/L_10*%
X88100000Y-139100000D03*
%TO.N,/L_24*%
X83925000Y-97250000D03*
X100000000Y-97250000D03*
%TO.N,/L_48*%
X84800000Y-113300000D03*
X88150000Y-153100000D03*
%TO.N,/L_31*%
X92433976Y-99679878D03*
X76250000Y-99250000D03*
%TO.N,/L_16*%
X83929056Y-94254056D03*
X100000000Y-94250000D03*
%TO.N,/L_2*%
X88154056Y-120104056D03*
%TO.N,/L_22*%
X100000000Y-96250000D03*
X84655819Y-96219181D03*
%TO.N,/L_30*%
X100000000Y-99250000D03*
X84500000Y-99250000D03*
%TO.N,/L_13*%
X87783549Y-146433865D03*
X76750000Y-92750000D03*
%TO.N,/L_44*%
X83925000Y-104750000D03*
X99500000Y-104750000D03*
%TO.N,/L_12*%
X88120944Y-144070944D03*
%TO.N,/L_42*%
X84500000Y-103750000D03*
X99500000Y-103750000D03*
%TO.N,/L_39*%
X76250000Y-102250000D03*
X92433976Y-102679878D03*
%TO.N,/L_19*%
X76750000Y-94750000D03*
X92433976Y-95179878D03*
%TO.N,/L_34*%
X84500000Y-100750000D03*
X99500000Y-100750000D03*
%TO.N,/L_38*%
X100000000Y-102250000D03*
X84500000Y-102250000D03*
%TO.N,/L_18*%
X99500000Y-94750000D03*
X84659081Y-94719181D03*
%TO.N,/L_21*%
X91825000Y-95350000D03*
X76750000Y-95750000D03*
%TO.N,/L_29*%
X76750000Y-98750000D03*
X91825000Y-98350000D03*
%TO.N,/L_35*%
X92433976Y-101179878D03*
X76750000Y-100750000D03*
%TO.N,/L_9*%
X84350000Y-137100000D03*
X76250000Y-91250000D03*
%TO.N,/L_28*%
X99500000Y-98750000D03*
X83925000Y-98750000D03*
%TO.N,/L_5*%
X84450000Y-127100000D03*
X76750000Y-89750000D03*
%TO.N,/L_37*%
X91825000Y-101350000D03*
X76750000Y-101750000D03*
%TO.N,/L_27*%
X76750000Y-97750000D03*
X92433976Y-98179878D03*
%TO.N,/L_4*%
X88100000Y-125100000D03*
%TO.N,/L_1*%
X76383713Y-88250236D03*
X78100000Y-118100000D03*
%TO.N,/L_23*%
X92433976Y-96679878D03*
X76250000Y-96250000D03*
%TO.N,/L_46*%
X84500000Y-105250000D03*
X100000000Y-105250000D03*
%TO.N,/L_14*%
X88179056Y-148129056D03*
%TO.N,/L_8*%
X88154056Y-134154056D03*
%TO.N,/L_26*%
X84500000Y-97750000D03*
X99500000Y-97750000D03*
%TO.N,/R_6*%
X100000000Y-90250000D03*
X91900000Y-128100000D03*
%TO.N,/R_48*%
X100000000Y-106250000D03*
X88150000Y-152200000D03*
%TO.N,/R_9*%
X88150000Y-136100000D03*
%TO.N,/R_3*%
X88150000Y-122150000D03*
%TO.N,/R_12*%
X88150000Y-142150000D03*
X99500000Y-92750000D03*
%TO.N,/R_1*%
X88150000Y-117100000D03*
%TO.N,/R_49*%
X88100000Y-154100000D03*
X91550000Y-113300000D03*
%TO.N,/R_0*%
X98500000Y-117700000D03*
X100000000Y-88250000D03*
%TO.N,/R_7*%
X88150000Y-131150000D03*
%TO.N,/R_10*%
X99500000Y-91750000D03*
X89350000Y-138150000D03*
%TO.N,/R_2*%
X99500000Y-88750000D03*
X96300000Y-120350000D03*
%TO.N,/R_11*%
X88100000Y-140100000D03*
%TO.N,/R_4*%
X99500000Y-89750000D03*
X92100000Y-124100000D03*
%TO.N,/R_5*%
X88100000Y-126100000D03*
%TO.N,/R_15*%
X88150000Y-150150000D03*
%TO.N,/R_8*%
X91700000Y-132100000D03*
X100000000Y-91250000D03*
%TO.N,/R_14*%
X100000000Y-93250000D03*
X88729056Y-146104056D03*
%TO.N,/R_13*%
X88150000Y-145100000D03*
%TD*%
D12*
%TO.N,GND*%
X98250000Y-92250000D02*
X100000000Y-92250000D01*
X78000000Y-92250000D02*
X76250000Y-92250000D01*
X94250000Y-96750000D02*
X93050000Y-96750000D01*
X94250000Y-95250000D02*
X93050000Y-95250000D01*
X82000000Y-99750000D02*
X83200000Y-99750000D01*
X82000000Y-93750000D02*
X83200000Y-93750000D01*
X78000000Y-99750000D02*
X76750000Y-99750000D01*
X98250000Y-89250000D02*
X100000000Y-89250000D01*
X78000000Y-104250000D02*
X76250000Y-104250000D01*
X94250000Y-92250000D02*
X93050000Y-92250000D01*
X82000000Y-87750000D02*
X83200000Y-87750000D01*
X98250000Y-99750000D02*
X99500000Y-99750000D01*
D13*
X94250000Y-108250000D02*
X93000000Y-108250000D01*
D12*
X82000000Y-101250000D02*
X83200000Y-101250000D01*
D13*
X78000000Y-109750000D02*
X76750000Y-109750000D01*
D12*
X94250000Y-104250000D02*
X93050000Y-104250000D01*
X78000000Y-98250000D02*
X76250000Y-98250000D01*
X78000000Y-90750000D02*
X76750000Y-90750000D01*
X94250000Y-101250000D02*
X93050000Y-101250000D01*
X78000000Y-105750000D02*
X76750000Y-105750000D01*
X98250000Y-93750000D02*
X99500000Y-93750000D01*
X94250000Y-87750000D02*
X93050000Y-87750000D01*
X82000000Y-105750000D02*
X83200000Y-105750000D01*
X94250000Y-105750000D02*
X93050000Y-105750000D01*
D13*
X98250000Y-109750000D02*
X99500000Y-109750000D01*
D12*
X94250000Y-99750000D02*
X93050000Y-99750000D01*
X82000000Y-98250000D02*
X83200000Y-98250000D01*
D13*
X82000000Y-108250000D02*
X83250000Y-108250000D01*
D12*
X98250000Y-96750000D02*
X99500000Y-96750000D01*
D13*
X98250000Y-106750000D02*
X99500000Y-106750000D01*
D12*
X78000000Y-101250000D02*
X76250000Y-101250000D01*
X94250000Y-89250000D02*
X93050000Y-89250000D01*
X78000000Y-89250000D02*
X76250000Y-89250000D01*
X94250000Y-98250000D02*
X93050000Y-98250000D01*
X98250000Y-102750000D02*
X99500000Y-102750000D01*
D13*
X78000000Y-106750000D02*
X76750000Y-106750000D01*
D12*
X82000000Y-104250000D02*
X83200000Y-104250000D01*
D13*
X94250000Y-109750000D02*
X93000000Y-109750000D01*
X82000000Y-109750000D02*
X83250000Y-109750000D01*
D12*
X98250000Y-105750000D02*
X99500000Y-105750000D01*
X78000000Y-93750000D02*
X76750000Y-93750000D01*
X98250000Y-104250000D02*
X100000000Y-104250000D01*
D13*
X78000000Y-108250000D02*
X76750000Y-108250000D01*
D12*
X82000000Y-89250000D02*
X83200000Y-89250000D01*
X98250000Y-101250000D02*
X100000000Y-101250000D01*
X82000000Y-90750000D02*
X83200000Y-90750000D01*
X82000000Y-92250000D02*
X83200000Y-92250000D01*
X94250000Y-102750000D02*
X93050000Y-102750000D01*
X82000000Y-96750000D02*
X83200000Y-96750000D01*
X98250000Y-87750000D02*
X99500000Y-87750000D01*
X98250000Y-98250000D02*
X100000000Y-98250000D01*
D13*
X94250000Y-106750000D02*
X93000000Y-106750000D01*
D12*
X78000000Y-96750000D02*
X76750000Y-96750000D01*
X78000000Y-102750000D02*
X76750000Y-102750000D01*
X98250000Y-90750000D02*
X99500000Y-90750000D01*
X94250000Y-93750000D02*
X93050000Y-93750000D01*
X94250000Y-90750000D02*
X93050000Y-90750000D01*
X78000000Y-95250000D02*
X76250000Y-95250000D01*
D13*
X98250000Y-108250000D02*
X99500000Y-108250000D01*
D12*
X82000000Y-95250000D02*
X83200000Y-95250000D01*
X82000000Y-102750000D02*
X83200000Y-102750000D01*
X98250000Y-95250000D02*
X100000000Y-95250000D01*
D13*
X82000000Y-106750000D02*
X83250000Y-106750000D01*
D12*
X78000000Y-87750000D02*
X76750000Y-87750000D01*
%TO.N,/L_7*%
X78000000Y-90250000D02*
X76250000Y-90250000D01*
%TO.N,/L_15*%
X78000000Y-93250000D02*
X76250000Y-93250000D01*
D13*
%TO.N,+3.3V*%
X78000000Y-107750000D02*
X76350000Y-107750000D01*
X78000000Y-107250000D02*
X76350000Y-107250000D01*
X82000000Y-107250000D02*
X83650000Y-107250000D01*
X94250000Y-107250000D02*
X92600000Y-107250000D01*
X82000000Y-107750000D02*
X83650000Y-107750000D01*
X98250000Y-107750000D02*
X99900000Y-107750000D01*
X98250000Y-107250000D02*
X99900000Y-107250000D01*
X94250000Y-107750000D02*
X92600000Y-107750000D01*
D12*
%TO.N,/L_36*%
X98250000Y-101750000D02*
X99500000Y-101750000D01*
X82000000Y-101750000D02*
X83925000Y-101750000D01*
D13*
%TO.N,+5V*%
X76350000Y-108755810D02*
X76355810Y-108750000D01*
X83644190Y-108750000D02*
X82000000Y-108750000D01*
X99894190Y-108750000D02*
X98250000Y-108750000D01*
X98250000Y-109250000D02*
X99900000Y-109250000D01*
X92605810Y-108750000D02*
X94250000Y-108750000D01*
X82000000Y-109250000D02*
X83650000Y-109250000D01*
X76355810Y-108750000D02*
X78000000Y-108750000D01*
X94250000Y-109250000D02*
X92600000Y-109250000D01*
X78000000Y-109250000D02*
X76350000Y-109250000D01*
D12*
%TO.N,/L_41*%
X92225000Y-103250000D02*
X91825000Y-102850000D01*
X78000000Y-103250000D02*
X76250000Y-103250000D01*
X94250000Y-103250000D02*
X92225000Y-103250000D01*
%TO.N,/L_25*%
X94250000Y-97250000D02*
X92225000Y-97250000D01*
X78000000Y-97250000D02*
X76250000Y-97250000D01*
X92225000Y-97250000D02*
X91825000Y-96850000D01*
D13*
%TO.N,+24V*%
X82000000Y-111750000D02*
X83250000Y-111750000D01*
X78000000Y-112250000D02*
X76750000Y-112250000D01*
X78000000Y-111750000D02*
X76750000Y-111750000D01*
X98250000Y-111750000D02*
X99500000Y-111750000D01*
X94250000Y-111250000D02*
X93000000Y-111250000D01*
X98250000Y-111250000D02*
X99500000Y-111250000D01*
X98250000Y-112250000D02*
X99500000Y-112250000D01*
X94250000Y-110750000D02*
X93000000Y-110750000D01*
X94250000Y-112250000D02*
X93000000Y-112250000D01*
X94250000Y-111750000D02*
X93000000Y-111750000D01*
X82000000Y-111250000D02*
X83250000Y-111250000D01*
X78000000Y-111250000D02*
X76750000Y-111250000D01*
X98250000Y-110750000D02*
X99500000Y-110750000D01*
X82000000Y-112250000D02*
X83250000Y-112250000D01*
X82000000Y-110750000D02*
X83250000Y-110750000D01*
X78000000Y-110750000D02*
X76750000Y-110750000D01*
D12*
%TO.N,/L_32*%
X83908112Y-100258112D02*
X83900000Y-100250000D01*
X83900000Y-100250000D02*
X82000000Y-100250000D01*
X98250000Y-100250000D02*
X100000000Y-100250000D01*
%TO.N,/L_43*%
X94250000Y-103750000D02*
X92863854Y-103750000D01*
X92863854Y-103750000D02*
X92433976Y-104179878D01*
X78000000Y-103750000D02*
X76750000Y-103750000D01*
%TO.N,/L_33*%
X94250000Y-100250000D02*
X92225000Y-100250000D01*
X92225000Y-100250000D02*
X91825000Y-99850000D01*
X78000000Y-100250000D02*
X76250000Y-100250000D01*
%TO.N,/L_17*%
X91800000Y-93820000D02*
X92230000Y-94250000D01*
X92230000Y-94250000D02*
X94250000Y-94250000D01*
X78000000Y-94250000D02*
X76250000Y-94250000D01*
%TO.N,/L_0*%
X83450000Y-88250000D02*
X88100000Y-92900000D01*
X88100000Y-115950000D02*
X88145944Y-115995944D01*
X88100000Y-92900000D02*
X88100000Y-115950000D01*
X82000000Y-88250000D02*
X83450000Y-88250000D01*
%TO.N,/L_3*%
X78000000Y-88750000D02*
X76750000Y-88750000D01*
%TO.N,/L_11*%
X78000000Y-91750000D02*
X76750000Y-91750000D01*
%TO.N,/L_49*%
X78000000Y-106250000D02*
X76250000Y-106250000D01*
%TO.N,/L_47*%
X92863854Y-105250000D02*
X92433976Y-105679878D01*
X78000000Y-105250000D02*
X76250000Y-105250000D01*
X94250000Y-105250000D02*
X92863854Y-105250000D01*
%TO.N,/L_20*%
X81996738Y-95750000D02*
X84046738Y-95750000D01*
X98250000Y-95750000D02*
X99500000Y-95750000D01*
%TO.N,/L_40*%
X98250000Y-103250000D02*
X100000000Y-103250000D01*
X82000000Y-103250000D02*
X83925000Y-103250000D01*
%TO.N,/L_45*%
X92225000Y-104750000D02*
X91825000Y-104350000D01*
X78000000Y-104750000D02*
X76750000Y-104750000D01*
X94250000Y-104750000D02*
X92225000Y-104750000D01*
%TO.N,/L_6*%
X86950000Y-93850000D02*
X86950000Y-128733226D01*
X82000000Y-90250000D02*
X83350000Y-90250000D01*
X83350000Y-90250000D02*
X86950000Y-93850000D01*
X86950000Y-128733226D02*
X88154331Y-129937557D01*
%TO.N,/L_10*%
X86250000Y-137250000D02*
X88100000Y-139100000D01*
X86250000Y-94450000D02*
X86250000Y-137250000D01*
X83550000Y-91750000D02*
X86250000Y-94450000D01*
X82000000Y-91750000D02*
X83550000Y-91750000D01*
%TO.N,/L_24*%
X82000000Y-97250000D02*
X83925000Y-97250000D01*
X98250000Y-97250000D02*
X100000000Y-97250000D01*
%TO.N,/L_48*%
X83429056Y-106250000D02*
X82000000Y-106250000D01*
X84800000Y-107620944D02*
X83429056Y-106250000D01*
X84800000Y-113300000D02*
X84800000Y-107620944D01*
%TO.N,/L_31*%
X78000000Y-99250000D02*
X76250000Y-99250000D01*
X94250000Y-99250000D02*
X92863854Y-99250000D01*
X92863854Y-99250000D02*
X92433976Y-99679878D01*
%TO.N,/L_16*%
X82000000Y-94250000D02*
X83925000Y-94250000D01*
X83925000Y-94250000D02*
X83929056Y-94254056D01*
X98250000Y-94250000D02*
X100000000Y-94250000D01*
%TO.N,/L_2*%
X82000000Y-88750000D02*
X83350000Y-88750000D01*
X83350000Y-88750000D02*
X87700000Y-93100000D01*
X87700000Y-119650000D02*
X88154056Y-120104056D01*
X87700000Y-93100000D02*
X87700000Y-119650000D01*
%TO.N,/L_22*%
X98250000Y-96250000D02*
X100000000Y-96250000D01*
X84625000Y-96250000D02*
X81996738Y-96250000D01*
%TO.N,/L_30*%
X98250000Y-99250000D02*
X100000000Y-99250000D01*
X82000000Y-99250000D02*
X84500000Y-99250000D01*
%TO.N,/L_13*%
X78000000Y-92750000D02*
X76750000Y-92750000D01*
%TO.N,/L_44*%
X98250000Y-104750000D02*
X99500000Y-104750000D01*
X82000000Y-104750000D02*
X83925000Y-104750000D01*
%TO.N,/L_12*%
X83950000Y-92750000D02*
X85900000Y-94700000D01*
X85900000Y-94700000D02*
X85900000Y-141850000D01*
X82000000Y-92750000D02*
X83950000Y-92750000D01*
X85900000Y-141850000D02*
X88120944Y-144070944D01*
%TO.N,/L_42*%
X82000000Y-103750000D02*
X84500000Y-103750000D01*
X98250000Y-103750000D02*
X99500000Y-103750000D01*
%TO.N,/L_39*%
X92863854Y-102250000D02*
X92433976Y-102679878D01*
X78000000Y-102250000D02*
X76250000Y-102250000D01*
X94250000Y-102250000D02*
X92863854Y-102250000D01*
%TO.N,/L_19*%
X92885319Y-94750000D02*
X94250000Y-94750000D01*
X92455441Y-95179878D02*
X92885319Y-94750000D01*
X92433976Y-95179878D02*
X92455441Y-95179878D01*
X78000000Y-94750000D02*
X76750000Y-94750000D01*
%TO.N,/L_34*%
X84500000Y-100750000D02*
X82000000Y-100750000D01*
X98250000Y-100750000D02*
X99500000Y-100750000D01*
%TO.N,/L_38*%
X82000000Y-102250000D02*
X84500000Y-102250000D01*
X98250000Y-102250000D02*
X100000000Y-102250000D01*
%TO.N,/L_18*%
X84628262Y-94750000D02*
X82000000Y-94750000D01*
X84659081Y-94719181D02*
X84628262Y-94750000D01*
X98250000Y-94750000D02*
X99500000Y-94750000D01*
%TO.N,/L_21*%
X78000000Y-95750000D02*
X76750000Y-95750000D01*
X94250000Y-95750000D02*
X92225000Y-95750000D01*
X92225000Y-95750000D02*
X91825000Y-95350000D01*
%TO.N,/L_29*%
X78000000Y-98750000D02*
X76750000Y-98750000D01*
X94250000Y-98750000D02*
X92225000Y-98750000D01*
X92225000Y-98750000D02*
X91825000Y-98350000D01*
%TO.N,/L_35*%
X92863854Y-100750000D02*
X92433976Y-101179878D01*
X78000000Y-100750000D02*
X76750000Y-100750000D01*
X94250000Y-100750000D02*
X92863854Y-100750000D01*
%TO.N,/L_9*%
X78000000Y-91250000D02*
X76250000Y-91250000D01*
%TO.N,/L_28*%
X82000000Y-98750000D02*
X83925000Y-98750000D01*
X98250000Y-98750000D02*
X99500000Y-98750000D01*
%TO.N,/L_5*%
X78000000Y-89750000D02*
X76750000Y-89750000D01*
%TO.N,/L_37*%
X94250000Y-101750000D02*
X92225000Y-101750000D01*
X78000000Y-101750000D02*
X76750000Y-101750000D01*
X92225000Y-101750000D02*
X91825000Y-101350000D01*
%TO.N,/L_27*%
X78000000Y-97750000D02*
X76750000Y-97750000D01*
X92863854Y-97750000D02*
X92433976Y-98179878D01*
X94250000Y-97750000D02*
X92863854Y-97750000D01*
%TO.N,/L_4*%
X82000000Y-89750000D02*
X83750000Y-89750000D01*
X87300000Y-93300000D02*
X87300000Y-124300000D01*
X83750000Y-89750000D02*
X87300000Y-93300000D01*
X87300000Y-124300000D02*
X88100000Y-125100000D01*
%TO.N,/L_1*%
X76383949Y-88250000D02*
X76383713Y-88250236D01*
X78000000Y-88250000D02*
X76383949Y-88250000D01*
%TO.N,/L_23*%
X94250000Y-96250000D02*
X92855014Y-96250000D01*
X78000000Y-96250000D02*
X76250000Y-96250000D01*
X92855014Y-96250000D02*
X92435205Y-96669809D01*
%TO.N,/L_46*%
X98250000Y-105250000D02*
X100000000Y-105250000D01*
X82000000Y-105250000D02*
X84500000Y-105250000D01*
%TO.N,/L_14*%
X85550000Y-95001988D02*
X85550000Y-145500000D01*
X83798012Y-93250000D02*
X85550000Y-95001988D01*
X85550000Y-145500000D02*
X88179056Y-148129056D01*
X82000000Y-93250000D02*
X83798012Y-93250000D01*
%TO.N,/L_8*%
X83750000Y-91250000D02*
X86600000Y-94100000D01*
X86600000Y-94100000D02*
X86600000Y-132600000D01*
X82000000Y-91250000D02*
X83750000Y-91250000D01*
X86600000Y-132600000D02*
X88154056Y-134154056D01*
%TO.N,/L_26*%
X82000000Y-97750000D02*
X84500000Y-97750000D01*
X98250000Y-97750000D02*
X99500000Y-97750000D01*
%TO.N,/R_6*%
X98250000Y-90250000D02*
X100000000Y-90250000D01*
%TO.N,/R_48*%
X98250000Y-106250000D02*
X100000000Y-106250000D01*
%TO.N,/R_9*%
X90050000Y-134200000D02*
X88150000Y-136100000D01*
X94250000Y-91250000D02*
X91700000Y-91250000D01*
X91700000Y-91250000D02*
X90050000Y-92900000D01*
X90050000Y-92900000D02*
X90050000Y-134200000D01*
%TO.N,/R_3*%
X88900000Y-92200000D02*
X88900000Y-121400000D01*
X92350000Y-88750000D02*
X88900000Y-92200000D01*
X88900000Y-121400000D02*
X88150000Y-122150000D01*
X94250000Y-88750000D02*
X92350000Y-88750000D01*
%TO.N,/R_12*%
X98250000Y-92750000D02*
X99500000Y-92750000D01*
%TO.N,/R_1*%
X88500000Y-115741888D02*
X88575944Y-115817832D01*
X88500000Y-92000000D02*
X88500000Y-115741888D01*
X88575944Y-116674056D02*
X88150000Y-117100000D01*
X92250000Y-88250000D02*
X88500000Y-92000000D01*
X88575944Y-115817832D02*
X88575944Y-116674056D01*
X94250000Y-88250000D02*
X92250000Y-88250000D01*
%TO.N,/R_49*%
X91550000Y-107550000D02*
X92850000Y-106250000D01*
X91550000Y-113300000D02*
X91550000Y-107550000D01*
X92850000Y-106250000D02*
X94250000Y-106250000D01*
%TO.N,/R_0*%
X98250000Y-88250000D02*
X100000000Y-88250000D01*
%TO.N,/R_7*%
X89700000Y-129600000D02*
X88150000Y-131150000D01*
X89700000Y-92600000D02*
X89700000Y-129600000D01*
X92050000Y-90250000D02*
X89700000Y-92600000D01*
X94250000Y-90250000D02*
X92050000Y-90250000D01*
%TO.N,/R_10*%
X98250000Y-91750000D02*
X99500000Y-91750000D01*
%TO.N,/R_2*%
X98250000Y-88750000D02*
X99500000Y-88750000D01*
%TO.N,/R_11*%
X90400000Y-93300000D02*
X90400000Y-137800000D01*
X94250000Y-91750000D02*
X91950000Y-91750000D01*
X91950000Y-91750000D02*
X90400000Y-93300000D01*
X90400000Y-137800000D02*
X88100000Y-140100000D01*
%TO.N,/R_4*%
X98250000Y-89750000D02*
X99500000Y-89750000D01*
%TO.N,/R_5*%
X94250000Y-89750000D02*
X91950000Y-89750000D01*
X91950000Y-89750000D02*
X89300000Y-92400000D01*
X89300000Y-124900000D02*
X88100000Y-126100000D01*
X89300000Y-92400000D02*
X89300000Y-124900000D01*
%TO.N,/R_15*%
X91100000Y-93911888D02*
X91761888Y-93250000D01*
X91100000Y-147200000D02*
X91100000Y-93911888D01*
X91761888Y-93250000D02*
X94250000Y-93250000D01*
X88150000Y-150150000D02*
X91100000Y-147200000D01*
%TO.N,/R_8*%
X98250000Y-91250000D02*
X100000000Y-91250000D01*
%TO.N,/R_14*%
X98250000Y-93250000D02*
X100000000Y-93250000D01*
%TO.N,/R_13*%
X90750000Y-93550000D02*
X90750000Y-142500000D01*
X94250000Y-92750000D02*
X91550000Y-92750000D01*
X91550000Y-92750000D02*
X90750000Y-93550000D01*
X90750000Y-142500000D02*
X88150000Y-145100000D01*
%TD*%
%TA.AperFunction,Conductor*%
%TO.N,GND*%
G36*
X85096133Y-94807471D02*
G01*
X85111067Y-94818321D01*
X85352219Y-95059473D01*
X85369500Y-95101192D01*
X85369500Y-145535904D01*
X85396978Y-145602243D01*
X85396980Y-145602246D01*
X87799067Y-148004333D01*
X87816348Y-148046052D01*
X87815622Y-148055281D01*
X87803938Y-148129055D01*
X87803938Y-148129056D01*
X87822298Y-148244974D01*
X87875579Y-148349545D01*
X87875580Y-148349546D01*
X87875582Y-148349549D01*
X87958562Y-148432529D01*
X87958565Y-148432531D01*
X87958567Y-148432533D01*
X88063138Y-148485814D01*
X88179056Y-148504174D01*
X88294974Y-148485814D01*
X88399545Y-148432533D01*
X88482533Y-148349545D01*
X88535814Y-148244974D01*
X88554174Y-148129056D01*
X88535814Y-148013138D01*
X88482533Y-147908567D01*
X88482531Y-147908565D01*
X88482529Y-147908562D01*
X88399549Y-147825582D01*
X88399546Y-147825580D01*
X88399545Y-147825579D01*
X88294974Y-147772298D01*
X88179056Y-147753938D01*
X88179055Y-147753938D01*
X88105281Y-147765622D01*
X88061372Y-147755080D01*
X88054333Y-147749067D01*
X86739131Y-146433865D01*
X87408431Y-146433865D01*
X87426791Y-146549783D01*
X87480072Y-146654354D01*
X87480073Y-146654355D01*
X87480075Y-146654358D01*
X87563055Y-146737338D01*
X87563058Y-146737340D01*
X87563060Y-146737342D01*
X87667631Y-146790623D01*
X87783549Y-146808983D01*
X87899467Y-146790623D01*
X88004038Y-146737342D01*
X88087026Y-146654354D01*
X88140307Y-146549783D01*
X88158667Y-146433865D01*
X88140307Y-146317947D01*
X88087026Y-146213376D01*
X88087024Y-146213374D01*
X88087022Y-146213371D01*
X88004042Y-146130391D01*
X88004039Y-146130389D01*
X88004038Y-146130388D01*
X87952358Y-146104056D01*
X88353938Y-146104056D01*
X88372298Y-146219974D01*
X88425579Y-146324545D01*
X88425580Y-146324546D01*
X88425582Y-146324549D01*
X88508562Y-146407529D01*
X88508565Y-146407531D01*
X88508567Y-146407533D01*
X88613138Y-146460814D01*
X88729056Y-146479174D01*
X88844974Y-146460814D01*
X88949545Y-146407533D01*
X89032533Y-146324545D01*
X89085814Y-146219974D01*
X89104174Y-146104056D01*
X89085814Y-145988138D01*
X89032533Y-145883567D01*
X89032531Y-145883565D01*
X89032529Y-145883562D01*
X88949549Y-145800582D01*
X88949546Y-145800580D01*
X88949545Y-145800579D01*
X88844974Y-145747298D01*
X88729056Y-145728938D01*
X88613138Y-145747298D01*
X88508565Y-145800580D01*
X88508562Y-145800582D01*
X88425582Y-145883562D01*
X88425580Y-145883565D01*
X88425579Y-145883567D01*
X88372298Y-145988138D01*
X88353938Y-146104056D01*
X87952358Y-146104056D01*
X87899467Y-146077107D01*
X87783549Y-146058747D01*
X87667631Y-146077107D01*
X87563058Y-146130389D01*
X87563055Y-146130391D01*
X87480075Y-146213371D01*
X87480073Y-146213374D01*
X87480072Y-146213376D01*
X87426791Y-146317947D01*
X87408431Y-146433865D01*
X86739131Y-146433865D01*
X85747781Y-145442515D01*
X85730500Y-145400796D01*
X85730500Y-142078204D01*
X85747781Y-142036485D01*
X85789500Y-142019204D01*
X85831219Y-142036485D01*
X87740955Y-143946221D01*
X87758236Y-143987940D01*
X87757510Y-143997169D01*
X87745826Y-144070943D01*
X87745826Y-144070944D01*
X87764186Y-144186862D01*
X87817467Y-144291433D01*
X87817468Y-144291434D01*
X87817470Y-144291437D01*
X87900450Y-144374417D01*
X87900453Y-144374419D01*
X87900455Y-144374421D01*
X88005026Y-144427702D01*
X88120944Y-144446062D01*
X88236862Y-144427702D01*
X88341433Y-144374421D01*
X88424421Y-144291433D01*
X88477702Y-144186862D01*
X88496062Y-144070944D01*
X88477702Y-143955026D01*
X88424421Y-143850455D01*
X88424419Y-143850453D01*
X88424417Y-143850450D01*
X88341437Y-143767470D01*
X88341434Y-143767468D01*
X88341433Y-143767467D01*
X88236862Y-143714186D01*
X88120944Y-143695826D01*
X88120943Y-143695826D01*
X88047169Y-143707510D01*
X88003260Y-143696968D01*
X87996221Y-143690955D01*
X86455266Y-142150000D01*
X87774882Y-142150000D01*
X87793242Y-142265918D01*
X87846523Y-142370489D01*
X87846524Y-142370490D01*
X87846526Y-142370493D01*
X87929506Y-142453473D01*
X87929509Y-142453475D01*
X87929511Y-142453477D01*
X88034082Y-142506758D01*
X88150000Y-142525118D01*
X88265918Y-142506758D01*
X88370489Y-142453477D01*
X88453477Y-142370489D01*
X88506758Y-142265918D01*
X88525118Y-142150000D01*
X88506758Y-142034082D01*
X88453477Y-141929511D01*
X88453475Y-141929509D01*
X88453473Y-141929506D01*
X88370493Y-141846526D01*
X88370490Y-141846524D01*
X88370489Y-141846523D01*
X88265918Y-141793242D01*
X88150000Y-141774882D01*
X88034082Y-141793242D01*
X87929509Y-141846524D01*
X87929506Y-141846526D01*
X87846526Y-141929506D01*
X87846524Y-141929509D01*
X87846523Y-141929511D01*
X87793242Y-142034082D01*
X87774882Y-142150000D01*
X86455266Y-142150000D01*
X86097781Y-141792515D01*
X86080500Y-141750796D01*
X86080500Y-137478204D01*
X86097781Y-137436485D01*
X86139500Y-137419204D01*
X86181219Y-137436485D01*
X87720011Y-138975277D01*
X87737292Y-139016996D01*
X87736566Y-139026225D01*
X87724882Y-139099999D01*
X87724882Y-139100000D01*
X87743242Y-139215918D01*
X87796523Y-139320489D01*
X87796524Y-139320490D01*
X87796526Y-139320493D01*
X87879506Y-139403473D01*
X87879509Y-139403475D01*
X87879511Y-139403477D01*
X87984082Y-139456758D01*
X88100000Y-139475118D01*
X88215918Y-139456758D01*
X88320489Y-139403477D01*
X88403477Y-139320489D01*
X88456758Y-139215918D01*
X88475118Y-139100000D01*
X88456758Y-138984082D01*
X88403477Y-138879511D01*
X88403475Y-138879509D01*
X88403473Y-138879506D01*
X88320493Y-138796526D01*
X88320490Y-138796524D01*
X88320489Y-138796523D01*
X88215918Y-138743242D01*
X88100000Y-138724882D01*
X88099999Y-138724882D01*
X88026225Y-138736566D01*
X87982316Y-138726024D01*
X87975277Y-138720011D01*
X86447781Y-137192515D01*
X86430500Y-137150796D01*
X86430500Y-132828204D01*
X86447781Y-132786485D01*
X86489500Y-132769204D01*
X86531219Y-132786485D01*
X87774067Y-134029333D01*
X87791348Y-134071052D01*
X87790622Y-134080281D01*
X87783503Y-134125234D01*
X87778938Y-134154056D01*
X87797298Y-134269974D01*
X87850579Y-134374545D01*
X87850580Y-134374546D01*
X87850582Y-134374549D01*
X87933562Y-134457529D01*
X87933565Y-134457531D01*
X87933567Y-134457533D01*
X88038138Y-134510814D01*
X88154056Y-134529174D01*
X88269974Y-134510814D01*
X88374545Y-134457533D01*
X88457533Y-134374545D01*
X88510814Y-134269974D01*
X88529174Y-134154056D01*
X88510814Y-134038138D01*
X88457533Y-133933567D01*
X88457531Y-133933565D01*
X88457529Y-133933562D01*
X88374549Y-133850582D01*
X88374546Y-133850580D01*
X88374545Y-133850579D01*
X88269974Y-133797298D01*
X88154056Y-133778938D01*
X88154055Y-133778938D01*
X88080281Y-133790622D01*
X88036372Y-133780080D01*
X88029333Y-133774067D01*
X86797781Y-132542515D01*
X86780500Y-132500796D01*
X86780500Y-128961430D01*
X86797781Y-128919711D01*
X86839500Y-128902430D01*
X86881219Y-128919711D01*
X87774342Y-129812834D01*
X87791623Y-129854553D01*
X87790897Y-129863782D01*
X87779213Y-129937556D01*
X87779213Y-129937557D01*
X87797573Y-130053475D01*
X87850854Y-130158046D01*
X87850855Y-130158047D01*
X87850857Y-130158050D01*
X87933837Y-130241030D01*
X87933840Y-130241032D01*
X87933842Y-130241034D01*
X88038413Y-130294315D01*
X88154331Y-130312675D01*
X88270249Y-130294315D01*
X88374820Y-130241034D01*
X88457808Y-130158046D01*
X88511089Y-130053475D01*
X88529449Y-129937557D01*
X88511089Y-129821639D01*
X88457808Y-129717068D01*
X88457806Y-129717066D01*
X88457804Y-129717063D01*
X88374824Y-129634083D01*
X88374821Y-129634081D01*
X88374820Y-129634080D01*
X88270249Y-129580799D01*
X88154331Y-129562439D01*
X88154330Y-129562439D01*
X88080556Y-129574123D01*
X88036647Y-129563581D01*
X88029608Y-129557568D01*
X87147781Y-128675741D01*
X87130500Y-128634022D01*
X87130500Y-124528204D01*
X87147781Y-124486485D01*
X87189500Y-124469204D01*
X87231219Y-124486485D01*
X87720011Y-124975277D01*
X87737292Y-125016996D01*
X87736566Y-125026225D01*
X87728334Y-125078204D01*
X87724882Y-125100000D01*
X87743242Y-125215918D01*
X87796523Y-125320489D01*
X87796524Y-125320490D01*
X87796526Y-125320493D01*
X87879506Y-125403473D01*
X87879509Y-125403475D01*
X87879511Y-125403477D01*
X87984082Y-125456758D01*
X88100000Y-125475118D01*
X88215918Y-125456758D01*
X88320489Y-125403477D01*
X88403477Y-125320489D01*
X88456758Y-125215918D01*
X88475118Y-125100000D01*
X88456758Y-124984082D01*
X88403477Y-124879511D01*
X88403475Y-124879509D01*
X88403473Y-124879506D01*
X88320493Y-124796526D01*
X88320490Y-124796524D01*
X88320489Y-124796523D01*
X88215918Y-124743242D01*
X88100000Y-124724882D01*
X88099999Y-124724882D01*
X88026225Y-124736566D01*
X87982316Y-124726024D01*
X87975277Y-124720011D01*
X87497781Y-124242515D01*
X87480500Y-124200796D01*
X87480500Y-119828204D01*
X87497781Y-119786485D01*
X87539500Y-119769204D01*
X87581219Y-119786485D01*
X87774067Y-119979333D01*
X87791348Y-120021052D01*
X87790622Y-120030281D01*
X87779580Y-120100000D01*
X87778938Y-120104056D01*
X87797298Y-120219974D01*
X87838877Y-120301578D01*
X87850580Y-120324546D01*
X87850582Y-120324549D01*
X87933562Y-120407529D01*
X87933565Y-120407531D01*
X87933567Y-120407533D01*
X88038138Y-120460814D01*
X88154056Y-120479174D01*
X88269974Y-120460814D01*
X88374545Y-120407533D01*
X88457533Y-120324545D01*
X88510814Y-120219974D01*
X88529174Y-120104056D01*
X88510814Y-119988138D01*
X88457533Y-119883567D01*
X88457531Y-119883565D01*
X88457529Y-119883562D01*
X88374549Y-119800582D01*
X88374546Y-119800580D01*
X88374545Y-119800579D01*
X88269974Y-119747298D01*
X88154056Y-119728938D01*
X88154055Y-119728938D01*
X88080281Y-119740622D01*
X88036372Y-119730080D01*
X88029333Y-119724067D01*
X87897781Y-119592515D01*
X87880500Y-119550796D01*
X87880500Y-117474783D01*
X87897781Y-117433064D01*
X87939500Y-117415783D01*
X87966285Y-117422214D01*
X88034077Y-117456756D01*
X88034078Y-117456756D01*
X88034082Y-117456758D01*
X88150000Y-117475118D01*
X88265918Y-117456758D01*
X88370489Y-117403477D01*
X88453477Y-117320489D01*
X88506758Y-117215918D01*
X88525118Y-117100000D01*
X88525117Y-117099997D01*
X88525118Y-117099996D01*
X88513433Y-117026226D01*
X88523974Y-116982317D01*
X88529974Y-116975290D01*
X88618783Y-116886481D01*
X88660500Y-116869203D01*
X88702220Y-116886484D01*
X88719500Y-116928203D01*
X88719500Y-121300795D01*
X88702219Y-121342514D01*
X88274721Y-121770011D01*
X88233002Y-121787292D01*
X88223773Y-121786566D01*
X88150000Y-121774882D01*
X88034082Y-121793242D01*
X87929509Y-121846524D01*
X87929506Y-121846526D01*
X87846526Y-121929506D01*
X87846524Y-121929509D01*
X87846523Y-121929511D01*
X87793242Y-122034082D01*
X87774882Y-122150000D01*
X87793242Y-122265918D01*
X87846523Y-122370489D01*
X87846524Y-122370490D01*
X87846526Y-122370493D01*
X87929506Y-122453473D01*
X87929509Y-122453475D01*
X87929511Y-122453477D01*
X88034082Y-122506758D01*
X88150000Y-122525118D01*
X88265918Y-122506758D01*
X88370489Y-122453477D01*
X88453477Y-122370489D01*
X88506758Y-122265918D01*
X88525118Y-122150000D01*
X88525117Y-122149997D01*
X88525118Y-122149996D01*
X88513433Y-122076226D01*
X88523974Y-122032317D01*
X88529980Y-122025284D01*
X89018781Y-121536485D01*
X89060500Y-121519204D01*
X89102219Y-121536485D01*
X89119500Y-121578204D01*
X89119500Y-124800795D01*
X89102219Y-124842514D01*
X88224721Y-125720011D01*
X88183002Y-125737292D01*
X88173773Y-125736566D01*
X88100000Y-125724882D01*
X87984082Y-125743242D01*
X87879509Y-125796524D01*
X87879506Y-125796526D01*
X87796526Y-125879506D01*
X87796524Y-125879509D01*
X87796523Y-125879511D01*
X87743242Y-125984082D01*
X87724882Y-126100000D01*
X87743242Y-126215918D01*
X87796523Y-126320489D01*
X87796524Y-126320490D01*
X87796526Y-126320493D01*
X87879506Y-126403473D01*
X87879509Y-126403475D01*
X87879511Y-126403477D01*
X87984082Y-126456758D01*
X88100000Y-126475118D01*
X88215918Y-126456758D01*
X88320489Y-126403477D01*
X88403477Y-126320489D01*
X88456758Y-126215918D01*
X88475118Y-126100000D01*
X88475117Y-126099997D01*
X88475118Y-126099996D01*
X88463433Y-126026226D01*
X88473974Y-125982317D01*
X88479981Y-125975284D01*
X89418781Y-125036485D01*
X89460500Y-125019204D01*
X89502219Y-125036485D01*
X89519500Y-125078204D01*
X89519500Y-129500795D01*
X89502219Y-129542514D01*
X88274721Y-130770011D01*
X88233002Y-130787292D01*
X88223773Y-130786566D01*
X88150000Y-130774882D01*
X88034082Y-130793242D01*
X87929509Y-130846524D01*
X87929506Y-130846526D01*
X87846526Y-130929506D01*
X87846524Y-130929509D01*
X87846523Y-130929511D01*
X87793242Y-131034082D01*
X87774882Y-131150000D01*
X87793242Y-131265918D01*
X87846523Y-131370489D01*
X87846524Y-131370490D01*
X87846526Y-131370493D01*
X87929506Y-131453473D01*
X87929509Y-131453475D01*
X87929511Y-131453477D01*
X88034082Y-131506758D01*
X88150000Y-131525118D01*
X88265918Y-131506758D01*
X88370489Y-131453477D01*
X88453477Y-131370489D01*
X88506758Y-131265918D01*
X88525118Y-131150000D01*
X88525117Y-131149997D01*
X88525118Y-131149996D01*
X88513433Y-131076226D01*
X88523974Y-131032317D01*
X88529981Y-131025283D01*
X89768782Y-129786483D01*
X89810500Y-129769203D01*
X89852219Y-129786484D01*
X89869500Y-129828203D01*
X89869500Y-134100795D01*
X89852219Y-134142514D01*
X88274721Y-135720011D01*
X88233002Y-135737292D01*
X88223773Y-135736566D01*
X88150000Y-135724882D01*
X88034082Y-135743242D01*
X87929509Y-135796524D01*
X87929506Y-135796526D01*
X87846526Y-135879506D01*
X87846524Y-135879509D01*
X87846523Y-135879511D01*
X87793242Y-135984082D01*
X87774882Y-136100000D01*
X87793242Y-136215918D01*
X87846523Y-136320489D01*
X87846524Y-136320490D01*
X87846526Y-136320493D01*
X87929506Y-136403473D01*
X87929509Y-136403475D01*
X87929511Y-136403477D01*
X88034082Y-136456758D01*
X88150000Y-136475118D01*
X88265918Y-136456758D01*
X88370489Y-136403477D01*
X88453477Y-136320489D01*
X88506758Y-136215918D01*
X88525118Y-136100000D01*
X88525117Y-136099997D01*
X88525118Y-136099996D01*
X88513433Y-136026226D01*
X88523974Y-135982317D01*
X88529981Y-135975283D01*
X90118782Y-134386483D01*
X90160500Y-134369203D01*
X90202219Y-134386484D01*
X90219500Y-134428203D01*
X90219500Y-137700795D01*
X90202219Y-137742514D01*
X89816514Y-138128218D01*
X89774795Y-138145499D01*
X89733076Y-138128218D01*
X89716522Y-138095730D01*
X89706758Y-138034082D01*
X89653477Y-137929511D01*
X89653475Y-137929509D01*
X89653473Y-137929506D01*
X89570493Y-137846526D01*
X89570490Y-137846524D01*
X89570489Y-137846523D01*
X89465918Y-137793242D01*
X89350000Y-137774882D01*
X89234082Y-137793242D01*
X89129509Y-137846524D01*
X89129506Y-137846526D01*
X89046526Y-137929506D01*
X89046524Y-137929509D01*
X89046523Y-137929511D01*
X88993242Y-138034082D01*
X88974882Y-138150000D01*
X88993242Y-138265918D01*
X89046523Y-138370489D01*
X89046524Y-138370490D01*
X89046526Y-138370493D01*
X89129506Y-138453473D01*
X89129509Y-138453475D01*
X89129511Y-138453477D01*
X89234082Y-138506758D01*
X89295730Y-138516522D01*
X89334231Y-138540115D01*
X89344773Y-138584024D01*
X89328218Y-138616514D01*
X88224721Y-139720011D01*
X88183002Y-139737292D01*
X88173773Y-139736566D01*
X88100000Y-139724882D01*
X87984082Y-139743242D01*
X87879509Y-139796524D01*
X87879506Y-139796526D01*
X87796526Y-139879506D01*
X87796524Y-139879509D01*
X87796523Y-139879511D01*
X87743242Y-139984082D01*
X87724882Y-140100000D01*
X87743242Y-140215918D01*
X87796523Y-140320489D01*
X87796524Y-140320490D01*
X87796526Y-140320493D01*
X87879506Y-140403473D01*
X87879509Y-140403475D01*
X87879511Y-140403477D01*
X87984082Y-140456758D01*
X88100000Y-140475118D01*
X88215918Y-140456758D01*
X88320489Y-140403477D01*
X88403477Y-140320489D01*
X88456758Y-140215918D01*
X88475118Y-140100000D01*
X88475117Y-140099997D01*
X88475118Y-140099996D01*
X88463433Y-140026226D01*
X88473974Y-139982317D01*
X88479981Y-139975283D01*
X90468781Y-137986485D01*
X90510500Y-137969204D01*
X90552219Y-137986485D01*
X90569500Y-138028204D01*
X90569500Y-142400795D01*
X90552219Y-142442514D01*
X88274721Y-144720011D01*
X88233002Y-144737292D01*
X88223773Y-144736566D01*
X88150000Y-144724882D01*
X88034082Y-144743242D01*
X87929509Y-144796524D01*
X87929506Y-144796526D01*
X87846526Y-144879506D01*
X87846524Y-144879509D01*
X87846523Y-144879511D01*
X87793242Y-144984082D01*
X87774882Y-145100000D01*
X87793242Y-145215918D01*
X87846523Y-145320489D01*
X87846524Y-145320490D01*
X87846526Y-145320493D01*
X87929506Y-145403473D01*
X87929509Y-145403475D01*
X87929511Y-145403477D01*
X88034082Y-145456758D01*
X88150000Y-145475118D01*
X88265918Y-145456758D01*
X88370489Y-145403477D01*
X88453477Y-145320489D01*
X88506758Y-145215918D01*
X88525118Y-145100000D01*
X88525117Y-145099997D01*
X88525118Y-145099996D01*
X88513433Y-145026226D01*
X88523974Y-144982317D01*
X88529981Y-144975283D01*
X90818781Y-142686485D01*
X90860500Y-142669204D01*
X90902219Y-142686485D01*
X90919500Y-142728204D01*
X90919500Y-147100795D01*
X90902219Y-147142514D01*
X88274721Y-149770011D01*
X88233002Y-149787292D01*
X88223773Y-149786566D01*
X88150000Y-149774882D01*
X88034082Y-149793242D01*
X87929509Y-149846524D01*
X87929506Y-149846526D01*
X87846526Y-149929506D01*
X87846524Y-149929509D01*
X87846523Y-149929511D01*
X87793242Y-150034082D01*
X87774882Y-150150000D01*
X87793242Y-150265918D01*
X87846523Y-150370489D01*
X87846524Y-150370490D01*
X87846526Y-150370493D01*
X87929506Y-150453473D01*
X87929509Y-150453475D01*
X87929511Y-150453477D01*
X88034082Y-150506758D01*
X88150000Y-150525118D01*
X88265918Y-150506758D01*
X88370489Y-150453477D01*
X88453477Y-150370489D01*
X88506758Y-150265918D01*
X88525118Y-150150000D01*
X88525117Y-150149997D01*
X88525118Y-150149996D01*
X88513433Y-150076226D01*
X88523974Y-150032317D01*
X88529981Y-150025283D01*
X91253021Y-147302245D01*
X91280500Y-147235903D01*
X91280500Y-147164097D01*
X91280500Y-132338533D01*
X91297781Y-132296814D01*
X91339500Y-132279533D01*
X91381219Y-132296814D01*
X91392067Y-132311744D01*
X91396408Y-132320263D01*
X91396524Y-132320491D01*
X91479506Y-132403473D01*
X91479509Y-132403475D01*
X91479511Y-132403477D01*
X91584082Y-132456758D01*
X91700000Y-132475118D01*
X91815918Y-132456758D01*
X91920489Y-132403477D01*
X92003477Y-132320489D01*
X92056758Y-132215918D01*
X92075118Y-132100000D01*
X92056758Y-131984082D01*
X92003477Y-131879511D01*
X92003475Y-131879509D01*
X92003473Y-131879506D01*
X91920493Y-131796526D01*
X91920490Y-131796524D01*
X91920489Y-131796523D01*
X91815918Y-131743242D01*
X91700000Y-131724882D01*
X91584082Y-131743242D01*
X91479509Y-131796524D01*
X91479506Y-131796526D01*
X91396526Y-131879506D01*
X91396524Y-131879509D01*
X91392069Y-131888253D01*
X91357731Y-131917579D01*
X91312713Y-131914035D01*
X91283387Y-131879697D01*
X91280500Y-131861466D01*
X91280500Y-128100000D01*
X91524882Y-128100000D01*
X91543242Y-128215918D01*
X91596523Y-128320489D01*
X91596524Y-128320490D01*
X91596526Y-128320493D01*
X91679506Y-128403473D01*
X91679509Y-128403475D01*
X91679511Y-128403477D01*
X91784082Y-128456758D01*
X91900000Y-128475118D01*
X92015918Y-128456758D01*
X92120489Y-128403477D01*
X92203477Y-128320489D01*
X92256758Y-128215918D01*
X92275118Y-128100000D01*
X92256758Y-127984082D01*
X92203477Y-127879511D01*
X92203475Y-127879509D01*
X92203473Y-127879506D01*
X92120493Y-127796526D01*
X92120490Y-127796524D01*
X92120489Y-127796523D01*
X92015918Y-127743242D01*
X91900000Y-127724882D01*
X91784082Y-127743242D01*
X91679509Y-127796524D01*
X91679506Y-127796526D01*
X91596526Y-127879506D01*
X91596524Y-127879509D01*
X91596523Y-127879511D01*
X91543242Y-127984082D01*
X91524882Y-128100000D01*
X91280500Y-128100000D01*
X91280500Y-124100000D01*
X91724882Y-124100000D01*
X91743242Y-124215918D01*
X91747989Y-124225234D01*
X91796524Y-124320490D01*
X91796526Y-124320493D01*
X91879506Y-124403473D01*
X91879509Y-124403475D01*
X91879511Y-124403477D01*
X91984082Y-124456758D01*
X92100000Y-124475118D01*
X92215918Y-124456758D01*
X92320489Y-124403477D01*
X92403477Y-124320489D01*
X92456758Y-124215918D01*
X92475118Y-124100000D01*
X92456758Y-123984082D01*
X92403477Y-123879511D01*
X92403475Y-123879509D01*
X92403473Y-123879506D01*
X92320493Y-123796526D01*
X92320490Y-123796524D01*
X92320489Y-123796523D01*
X92215918Y-123743242D01*
X92100000Y-123724882D01*
X91984082Y-123743242D01*
X91879509Y-123796524D01*
X91879506Y-123796526D01*
X91796526Y-123879506D01*
X91796524Y-123879509D01*
X91796523Y-123879511D01*
X91743242Y-123984082D01*
X91724882Y-124100000D01*
X91280500Y-124100000D01*
X91280500Y-113674783D01*
X91297781Y-113633064D01*
X91339500Y-113615783D01*
X91366285Y-113622214D01*
X91434077Y-113656756D01*
X91434078Y-113656756D01*
X91434082Y-113656758D01*
X91550000Y-113675118D01*
X91665918Y-113656758D01*
X91770489Y-113603477D01*
X91853477Y-113520489D01*
X91906758Y-113415918D01*
X91925118Y-113300000D01*
X91906758Y-113184082D01*
X91853477Y-113079511D01*
X91853475Y-113079509D01*
X91853473Y-113079506D01*
X91770493Y-112996526D01*
X91770485Y-112996520D01*
X91762713Y-112992560D01*
X91733387Y-112958222D01*
X91730500Y-112939992D01*
X91730500Y-107649203D01*
X91747780Y-107607485D01*
X92126650Y-107228615D01*
X92168367Y-107211335D01*
X92210086Y-107228616D01*
X92226640Y-107261104D01*
X92243242Y-107365918D01*
X92284939Y-107447753D01*
X92297912Y-107473215D01*
X92301454Y-107518233D01*
X92297912Y-107526785D01*
X92296523Y-107529510D01*
X92296523Y-107529511D01*
X92243242Y-107634082D01*
X92224882Y-107750000D01*
X92243242Y-107865918D01*
X92296523Y-107970489D01*
X92296524Y-107970490D01*
X92296526Y-107970493D01*
X92379506Y-108053473D01*
X92379509Y-108053475D01*
X92379511Y-108053477D01*
X92484082Y-108106758D01*
X92600000Y-108125118D01*
X92715918Y-108106758D01*
X92820489Y-108053477D01*
X92886185Y-107987780D01*
X92927904Y-107970500D01*
X93147968Y-107970500D01*
X93180745Y-107980442D01*
X93223720Y-108009157D01*
X93223721Y-108009157D01*
X93223723Y-108009158D01*
X93261564Y-108016684D01*
X93280745Y-108020500D01*
X94969254Y-108020499D01*
X95026280Y-108009157D01*
X95033223Y-108004517D01*
X95077511Y-107995709D01*
X95115057Y-108020797D01*
X95125000Y-108053575D01*
X95125000Y-108446424D01*
X95107719Y-108488143D01*
X95066000Y-108505424D01*
X95033223Y-108495482D01*
X95026279Y-108490842D01*
X95026276Y-108490841D01*
X94969258Y-108479500D01*
X93280747Y-108479500D01*
X93223720Y-108490843D01*
X93223718Y-108490844D01*
X93180746Y-108519557D01*
X93147968Y-108529500D01*
X92922094Y-108529500D01*
X92880375Y-108512219D01*
X92820489Y-108452333D01*
X92715918Y-108399052D01*
X92600000Y-108380692D01*
X92484082Y-108399052D01*
X92379509Y-108452334D01*
X92379506Y-108452336D01*
X92296526Y-108535316D01*
X92296524Y-108535319D01*
X92296523Y-108535321D01*
X92243242Y-108639892D01*
X92224882Y-108755810D01*
X92243242Y-108871728D01*
X92296432Y-108976120D01*
X92299974Y-109021138D01*
X92296432Y-109029687D01*
X92243242Y-109134082D01*
X92224882Y-109250000D01*
X92243242Y-109365918D01*
X92296523Y-109470489D01*
X92296524Y-109470490D01*
X92296526Y-109470493D01*
X92379506Y-109553473D01*
X92379509Y-109553475D01*
X92379511Y-109553477D01*
X92484082Y-109606758D01*
X92600000Y-109625118D01*
X92715918Y-109606758D01*
X92820489Y-109553477D01*
X92886185Y-109487780D01*
X92927904Y-109470500D01*
X93147968Y-109470500D01*
X93180745Y-109480442D01*
X93223720Y-109509157D01*
X93223721Y-109509157D01*
X93223723Y-109509158D01*
X93261564Y-109516684D01*
X93280745Y-109520500D01*
X94969254Y-109520499D01*
X95026280Y-109509157D01*
X95033223Y-109504517D01*
X95077511Y-109495709D01*
X95115057Y-109520797D01*
X95125000Y-109553575D01*
X95125000Y-109946424D01*
X95107719Y-109988143D01*
X95066000Y-110005424D01*
X95033223Y-109995482D01*
X95026279Y-109990842D01*
X95026276Y-109990841D01*
X94969258Y-109979500D01*
X93280747Y-109979500D01*
X93223720Y-109990843D01*
X93159052Y-110034052D01*
X93115843Y-110098719D01*
X93115841Y-110098723D01*
X93104500Y-110155741D01*
X93104500Y-110322353D01*
X93087219Y-110364072D01*
X93045500Y-110381353D01*
X93036273Y-110380627D01*
X93000000Y-110374882D01*
X92884082Y-110393242D01*
X92779509Y-110446524D01*
X92779506Y-110446526D01*
X92696526Y-110529506D01*
X92696524Y-110529509D01*
X92696523Y-110529511D01*
X92643242Y-110634082D01*
X92624882Y-110750000D01*
X92643242Y-110865918D01*
X92668242Y-110914984D01*
X92697912Y-110973215D01*
X92701454Y-111018233D01*
X92697912Y-111026785D01*
X92696523Y-111029510D01*
X92696523Y-111029511D01*
X92643242Y-111134082D01*
X92624882Y-111250000D01*
X92643242Y-111365918D01*
X92668242Y-111414984D01*
X92697912Y-111473215D01*
X92701454Y-111518233D01*
X92697912Y-111526785D01*
X92696523Y-111529510D01*
X92696523Y-111529511D01*
X92643242Y-111634082D01*
X92624882Y-111750000D01*
X92643242Y-111865918D01*
X92668242Y-111914984D01*
X92697912Y-111973215D01*
X92701454Y-112018233D01*
X92697912Y-112026785D01*
X92696523Y-112029510D01*
X92696523Y-112029511D01*
X92643242Y-112134082D01*
X92624882Y-112250000D01*
X92643242Y-112365918D01*
X92696523Y-112470489D01*
X92696524Y-112470490D01*
X92696526Y-112470493D01*
X92779506Y-112553473D01*
X92779509Y-112553475D01*
X92779511Y-112553477D01*
X92884082Y-112606758D01*
X93000000Y-112625118D01*
X93115918Y-112606758D01*
X93220489Y-112553477D01*
X93236184Y-112537780D01*
X93277902Y-112520499D01*
X93280740Y-112520499D01*
X93280745Y-112520500D01*
X94969254Y-112520499D01*
X95026280Y-112509157D01*
X95033223Y-112504517D01*
X95077511Y-112495709D01*
X95115057Y-112520797D01*
X95125000Y-112553575D01*
X95125000Y-112700001D01*
X95136028Y-112711029D01*
X95153309Y-112752748D01*
X95148818Y-112775325D01*
X95134056Y-112810963D01*
X95134051Y-112810979D01*
X95124500Y-112858997D01*
X95124500Y-112859000D01*
X95124500Y-114341000D01*
X95124500Y-114341002D01*
X95124499Y-114341002D01*
X95134051Y-114389020D01*
X95134053Y-114389026D01*
X95134054Y-114389028D01*
X95151335Y-114430747D01*
X95164192Y-114454294D01*
X95219253Y-114498665D01*
X95260972Y-114515946D01*
X95260976Y-114515946D01*
X95260979Y-114515948D01*
X95308997Y-114525500D01*
X95309000Y-114525500D01*
X96573578Y-114525500D01*
X96615297Y-114542781D01*
X97457219Y-115384702D01*
X97474500Y-115426421D01*
X97474500Y-116275562D01*
X97474500Y-116275564D01*
X97474499Y-116275564D01*
X97484051Y-116323582D01*
X97484053Y-116323588D01*
X97484054Y-116323590D01*
X97486025Y-116328348D01*
X97501334Y-116365308D01*
X97510445Y-116378943D01*
X97528539Y-116406023D01*
X97528540Y-116406024D01*
X97528543Y-116406028D01*
X98380767Y-117258251D01*
X98398048Y-117299970D01*
X98380767Y-117341689D01*
X98365834Y-117352539D01*
X98279511Y-117396522D01*
X98279506Y-117396526D01*
X98196526Y-117479506D01*
X98196524Y-117479509D01*
X98196523Y-117479511D01*
X98143242Y-117584082D01*
X98124882Y-117700000D01*
X98143242Y-117815918D01*
X98175643Y-117879509D01*
X98196524Y-117920490D01*
X98196526Y-117920493D01*
X98279506Y-118003473D01*
X98279509Y-118003475D01*
X98279511Y-118003477D01*
X98356896Y-118042906D01*
X98386222Y-118077243D01*
X98382680Y-118122260D01*
X98368507Y-118140271D01*
X98284199Y-118212535D01*
X98284198Y-118212536D01*
X98267253Y-118230206D01*
X98267250Y-118230209D01*
X98253092Y-118248200D01*
X98239889Y-118268844D01*
X98204919Y-118337478D01*
X98194069Y-118352411D01*
X98152408Y-118394072D01*
X98137474Y-118404922D01*
X98084984Y-118431667D01*
X98067436Y-118437370D01*
X98063139Y-118438051D01*
X98063119Y-118438055D01*
X98030125Y-118448081D01*
X98030108Y-118448087D01*
X98000961Y-118461556D01*
X98000950Y-118461562D01*
X97971933Y-118480191D01*
X97971931Y-118480192D01*
X96738904Y-119537073D01*
X96735328Y-119540260D01*
X96732001Y-119543342D01*
X96701335Y-119587389D01*
X96684054Y-119629108D01*
X96684051Y-119629115D01*
X96674500Y-119677133D01*
X96674500Y-119740754D01*
X96677966Y-119770048D01*
X96684402Y-119796857D01*
X96686268Y-119803753D01*
X96686269Y-119803756D01*
X96724921Y-119862967D01*
X96724926Y-119862973D01*
X96731197Y-119868329D01*
X96759261Y-119892298D01*
X96781407Y-119907442D01*
X96850611Y-119921981D01*
X96895629Y-119918439D01*
X96942760Y-119905148D01*
X97015024Y-119868327D01*
X97032568Y-119862626D01*
X97090775Y-119853407D01*
X97109230Y-119853408D01*
X97167424Y-119862626D01*
X97184977Y-119868328D01*
X97237481Y-119895080D01*
X97252414Y-119905930D01*
X97294065Y-119947581D01*
X97304915Y-119962514D01*
X97331668Y-120015019D01*
X97337372Y-120032574D01*
X97346590Y-120090768D01*
X97346590Y-120109230D01*
X97337372Y-120167423D01*
X97331669Y-120184977D01*
X97304920Y-120237477D01*
X97294069Y-120252411D01*
X97252411Y-120294069D01*
X97237477Y-120304920D01*
X97184977Y-120331669D01*
X97167423Y-120337372D01*
X97109230Y-120346590D01*
X97090769Y-120346591D01*
X97032570Y-120337373D01*
X97015015Y-120331668D01*
X96981193Y-120314435D01*
X96942761Y-120294852D01*
X96915077Y-120284639D01*
X96888275Y-120278205D01*
X96881283Y-120276737D01*
X96881282Y-120276737D01*
X96867629Y-120278205D01*
X96810969Y-120284297D01*
X96769257Y-120301575D01*
X96749005Y-120312633D01*
X96704107Y-120317457D01*
X96668947Y-120289121D01*
X96662460Y-120270083D01*
X96656758Y-120234082D01*
X96603477Y-120129511D01*
X96603475Y-120129509D01*
X96603473Y-120129506D01*
X96520493Y-120046526D01*
X96520490Y-120046524D01*
X96520489Y-120046523D01*
X96415918Y-119993242D01*
X96300000Y-119974882D01*
X96184082Y-119993242D01*
X96079509Y-120046524D01*
X96079506Y-120046526D01*
X95996526Y-120129506D01*
X95996524Y-120129509D01*
X95996523Y-120129511D01*
X95943242Y-120234082D01*
X95924882Y-120350000D01*
X95943242Y-120465918D01*
X95996523Y-120570489D01*
X95996524Y-120570490D01*
X95996526Y-120570493D01*
X96079506Y-120653473D01*
X96079509Y-120653475D01*
X96079511Y-120653477D01*
X96184082Y-120706758D01*
X96300000Y-120725118D01*
X96415918Y-120706758D01*
X96520489Y-120653477D01*
X96532061Y-120641905D01*
X96573781Y-120600186D01*
X96615500Y-120582905D01*
X96657219Y-120600186D01*
X96674500Y-120641905D01*
X96674500Y-157540412D01*
X96657219Y-157582131D01*
X96615500Y-157599412D01*
X96615414Y-157599412D01*
X79684414Y-157574767D01*
X79642720Y-157557426D01*
X79625500Y-157515767D01*
X79625500Y-155100000D01*
X87774882Y-155100000D01*
X87793242Y-155215918D01*
X87846523Y-155320489D01*
X87846524Y-155320490D01*
X87846526Y-155320493D01*
X87929506Y-155403473D01*
X87929509Y-155403475D01*
X87929511Y-155403477D01*
X88034082Y-155456758D01*
X88150000Y-155475118D01*
X88265918Y-155456758D01*
X88370489Y-155403477D01*
X88453477Y-155320489D01*
X88506758Y-155215918D01*
X88525118Y-155100000D01*
X88506758Y-154984082D01*
X88453477Y-154879511D01*
X88453475Y-154879509D01*
X88453473Y-154879506D01*
X88370493Y-154796526D01*
X88370490Y-154796524D01*
X88370489Y-154796523D01*
X88265918Y-154743242D01*
X88150000Y-154724882D01*
X88034082Y-154743242D01*
X87929509Y-154796524D01*
X87929506Y-154796526D01*
X87846526Y-154879506D01*
X87846524Y-154879509D01*
X87846523Y-154879511D01*
X87793242Y-154984082D01*
X87774882Y-155100000D01*
X79625500Y-155100000D01*
X79625500Y-154100000D01*
X87724882Y-154100000D01*
X87743242Y-154215918D01*
X87796523Y-154320489D01*
X87796524Y-154320490D01*
X87796526Y-154320493D01*
X87879506Y-154403473D01*
X87879509Y-154403475D01*
X87879511Y-154403477D01*
X87984082Y-154456758D01*
X88100000Y-154475118D01*
X88215918Y-154456758D01*
X88320489Y-154403477D01*
X88403477Y-154320489D01*
X88456758Y-154215918D01*
X88475118Y-154100000D01*
X88456758Y-153984082D01*
X88403477Y-153879511D01*
X88403475Y-153879509D01*
X88403473Y-153879506D01*
X88320493Y-153796526D01*
X88320490Y-153796524D01*
X88320489Y-153796523D01*
X88215918Y-153743242D01*
X88100000Y-153724882D01*
X87984082Y-153743242D01*
X87879509Y-153796524D01*
X87879506Y-153796526D01*
X87796526Y-153879506D01*
X87796524Y-153879509D01*
X87796523Y-153879511D01*
X87743242Y-153984082D01*
X87724882Y-154100000D01*
X79625500Y-154100000D01*
X79625500Y-153100000D01*
X87774882Y-153100000D01*
X87793242Y-153215918D01*
X87846523Y-153320489D01*
X87846524Y-153320490D01*
X87846526Y-153320493D01*
X87929506Y-153403473D01*
X87929509Y-153403475D01*
X87929511Y-153403477D01*
X88034082Y-153456758D01*
X88150000Y-153475118D01*
X88265918Y-153456758D01*
X88370489Y-153403477D01*
X88453477Y-153320489D01*
X88506758Y-153215918D01*
X88525118Y-153100000D01*
X88506758Y-152984082D01*
X88453477Y-152879511D01*
X88453475Y-152879509D01*
X88453473Y-152879506D01*
X88370493Y-152796526D01*
X88370490Y-152796524D01*
X88370489Y-152796523D01*
X88265918Y-152743242D01*
X88150000Y-152724882D01*
X88034082Y-152743242D01*
X87929509Y-152796524D01*
X87929506Y-152796526D01*
X87846526Y-152879506D01*
X87846524Y-152879509D01*
X87846523Y-152879511D01*
X87793242Y-152984082D01*
X87774882Y-153100000D01*
X79625500Y-153100000D01*
X79625500Y-152200000D01*
X87774882Y-152200000D01*
X87793242Y-152315918D01*
X87846523Y-152420489D01*
X87846524Y-152420490D01*
X87846526Y-152420493D01*
X87929506Y-152503473D01*
X87929509Y-152503475D01*
X87929511Y-152503477D01*
X88034082Y-152556758D01*
X88150000Y-152575118D01*
X88265918Y-152556758D01*
X88370489Y-152503477D01*
X88453477Y-152420489D01*
X88506758Y-152315918D01*
X88525118Y-152200000D01*
X88506758Y-152084082D01*
X88453477Y-151979511D01*
X88453475Y-151979509D01*
X88453473Y-151979506D01*
X88370493Y-151896526D01*
X88370490Y-151896524D01*
X88370489Y-151896523D01*
X88265918Y-151843242D01*
X88150000Y-151824882D01*
X88034082Y-151843242D01*
X87929509Y-151896524D01*
X87929506Y-151896526D01*
X87846526Y-151979506D01*
X87846524Y-151979509D01*
X87846523Y-151979511D01*
X87793242Y-152084082D01*
X87774882Y-152200000D01*
X79625500Y-152200000D01*
X79625500Y-151100000D01*
X87524882Y-151100000D01*
X87543242Y-151215918D01*
X87596523Y-151320489D01*
X87596524Y-151320490D01*
X87596526Y-151320493D01*
X87679506Y-151403473D01*
X87679509Y-151403475D01*
X87679511Y-151403477D01*
X87784082Y-151456758D01*
X87900000Y-151475118D01*
X88015918Y-151456758D01*
X88120489Y-151403477D01*
X88203477Y-151320489D01*
X88256758Y-151215918D01*
X88275118Y-151100000D01*
X88256758Y-150984082D01*
X88203477Y-150879511D01*
X88203475Y-150879509D01*
X88203473Y-150879506D01*
X88120493Y-150796526D01*
X88120490Y-150796524D01*
X88120489Y-150796523D01*
X88015918Y-150743242D01*
X87900000Y-150724882D01*
X87784082Y-150743242D01*
X87679509Y-150796524D01*
X87679506Y-150796526D01*
X87596526Y-150879506D01*
X87596524Y-150879509D01*
X87596523Y-150879511D01*
X87543242Y-150984082D01*
X87524882Y-151100000D01*
X79625500Y-151100000D01*
X79625500Y-141100000D01*
X83974882Y-141100000D01*
X83993242Y-141215918D01*
X84046523Y-141320489D01*
X84046524Y-141320490D01*
X84046526Y-141320493D01*
X84129506Y-141403473D01*
X84129509Y-141403475D01*
X84129511Y-141403477D01*
X84234082Y-141456758D01*
X84350000Y-141475118D01*
X84465918Y-141456758D01*
X84570489Y-141403477D01*
X84653477Y-141320489D01*
X84706758Y-141215918D01*
X84725118Y-141100000D01*
X84706758Y-140984082D01*
X84653477Y-140879511D01*
X84653475Y-140879509D01*
X84653473Y-140879506D01*
X84570493Y-140796526D01*
X84570490Y-140796524D01*
X84570489Y-140796523D01*
X84465918Y-140743242D01*
X84350000Y-140724882D01*
X84234082Y-140743242D01*
X84129509Y-140796524D01*
X84129506Y-140796526D01*
X84046526Y-140879506D01*
X84046524Y-140879509D01*
X84046523Y-140879511D01*
X83993242Y-140984082D01*
X83974882Y-141100000D01*
X79625500Y-141100000D01*
X79625500Y-137100000D01*
X83974882Y-137100000D01*
X83993242Y-137215918D01*
X84046523Y-137320489D01*
X84046524Y-137320490D01*
X84046526Y-137320493D01*
X84129506Y-137403473D01*
X84129509Y-137403475D01*
X84129511Y-137403477D01*
X84234082Y-137456758D01*
X84350000Y-137475118D01*
X84465918Y-137456758D01*
X84570489Y-137403477D01*
X84653477Y-137320489D01*
X84706758Y-137215918D01*
X84725118Y-137100000D01*
X84706758Y-136984082D01*
X84653477Y-136879511D01*
X84653475Y-136879509D01*
X84653473Y-136879506D01*
X84570493Y-136796526D01*
X84570490Y-136796524D01*
X84570489Y-136796523D01*
X84465918Y-136743242D01*
X84350000Y-136724882D01*
X84234082Y-136743242D01*
X84129509Y-136796524D01*
X84129506Y-136796526D01*
X84046526Y-136879506D01*
X84046524Y-136879509D01*
X84046523Y-136879511D01*
X83993242Y-136984082D01*
X83974882Y-137100000D01*
X79625500Y-137100000D01*
X79625500Y-133100000D01*
X84074882Y-133100000D01*
X84093242Y-133215918D01*
X84146523Y-133320489D01*
X84146524Y-133320490D01*
X84146526Y-133320493D01*
X84229506Y-133403473D01*
X84229509Y-133403475D01*
X84229511Y-133403477D01*
X84334082Y-133456758D01*
X84450000Y-133475118D01*
X84565918Y-133456758D01*
X84670489Y-133403477D01*
X84753477Y-133320489D01*
X84806758Y-133215918D01*
X84825118Y-133100000D01*
X84806758Y-132984082D01*
X84753477Y-132879511D01*
X84753475Y-132879509D01*
X84753473Y-132879506D01*
X84670493Y-132796526D01*
X84670490Y-132796524D01*
X84670489Y-132796523D01*
X84565918Y-132743242D01*
X84450000Y-132724882D01*
X84334082Y-132743242D01*
X84229509Y-132796524D01*
X84229506Y-132796526D01*
X84146526Y-132879506D01*
X84146524Y-132879509D01*
X84146523Y-132879511D01*
X84093242Y-132984082D01*
X84074882Y-133100000D01*
X79625500Y-133100000D01*
X79625500Y-127100000D01*
X84074882Y-127100000D01*
X84093242Y-127215918D01*
X84146523Y-127320489D01*
X84146524Y-127320490D01*
X84146526Y-127320493D01*
X84229506Y-127403473D01*
X84229509Y-127403475D01*
X84229511Y-127403477D01*
X84334082Y-127456758D01*
X84450000Y-127475118D01*
X84565918Y-127456758D01*
X84670489Y-127403477D01*
X84753477Y-127320489D01*
X84806758Y-127215918D01*
X84825118Y-127100000D01*
X84806758Y-126984082D01*
X84753477Y-126879511D01*
X84753475Y-126879509D01*
X84753473Y-126879506D01*
X84670493Y-126796526D01*
X84670490Y-126796524D01*
X84670489Y-126796523D01*
X84565918Y-126743242D01*
X84450000Y-126724882D01*
X84334082Y-126743242D01*
X84229509Y-126796524D01*
X84229506Y-126796526D01*
X84146526Y-126879506D01*
X84146524Y-126879509D01*
X84146523Y-126879511D01*
X84093242Y-126984082D01*
X84074882Y-127100000D01*
X79625500Y-127100000D01*
X79625500Y-123050000D01*
X83324882Y-123050000D01*
X83343242Y-123165918D01*
X83396523Y-123270489D01*
X83396524Y-123270490D01*
X83396526Y-123270493D01*
X83479506Y-123353473D01*
X83479509Y-123353475D01*
X83479511Y-123353477D01*
X83584082Y-123406758D01*
X83700000Y-123425118D01*
X83815918Y-123406758D01*
X83920489Y-123353477D01*
X84003477Y-123270489D01*
X84056758Y-123165918D01*
X84075118Y-123050000D01*
X84056758Y-122934082D01*
X84003477Y-122829511D01*
X84003475Y-122829509D01*
X84003473Y-122829506D01*
X83920493Y-122746526D01*
X83920490Y-122746524D01*
X83920489Y-122746523D01*
X83815918Y-122693242D01*
X83700000Y-122674882D01*
X83584082Y-122693242D01*
X83479509Y-122746524D01*
X83479506Y-122746526D01*
X83396526Y-122829506D01*
X83396524Y-122829509D01*
X83396523Y-122829511D01*
X83343242Y-122934082D01*
X83324882Y-123050000D01*
X79625500Y-123050000D01*
X79625500Y-119529169D01*
X79625500Y-119529156D01*
X79625224Y-119520838D01*
X79624706Y-119513040D01*
X79608065Y-119458430D01*
X79608060Y-119458421D01*
X79585430Y-119419372D01*
X79585426Y-119419367D01*
X79585423Y-119419361D01*
X79553075Y-119382597D01*
X79071765Y-119014536D01*
X78353305Y-118465126D01*
X78330663Y-118426057D01*
X78342278Y-118382419D01*
X78347418Y-118376547D01*
X78403477Y-118320489D01*
X78456758Y-118215918D01*
X78475118Y-118100000D01*
X78456758Y-117984082D01*
X78403477Y-117879511D01*
X78403475Y-117879509D01*
X78403473Y-117879506D01*
X78320493Y-117796526D01*
X78320490Y-117796524D01*
X78320489Y-117796523D01*
X78300409Y-117786291D01*
X78271083Y-117751955D01*
X78274625Y-117706938D01*
X78285469Y-117692011D01*
X78571461Y-117406022D01*
X78598665Y-117365308D01*
X78615946Y-117323589D01*
X78616563Y-117320490D01*
X78625500Y-117275563D01*
X78625500Y-114584500D01*
X78642781Y-114542781D01*
X78684500Y-114525500D01*
X80841002Y-114525500D01*
X80889020Y-114515948D01*
X80889021Y-114515947D01*
X80889028Y-114515946D01*
X80930747Y-114498665D01*
X80954294Y-114485808D01*
X80998665Y-114430747D01*
X81015946Y-114389028D01*
X81025500Y-114341000D01*
X81025500Y-113707202D01*
X81042781Y-113665483D01*
X81084500Y-113648202D01*
X81113999Y-113656106D01*
X81172164Y-113689688D01*
X81305817Y-113725500D01*
X81444183Y-113725500D01*
X81577836Y-113689688D01*
X81697665Y-113620505D01*
X81795505Y-113522665D01*
X81864688Y-113402836D01*
X81900500Y-113269183D01*
X81900500Y-113130817D01*
X81864688Y-112997164D01*
X81795505Y-112877335D01*
X81795503Y-112877333D01*
X81795502Y-112877331D01*
X81697668Y-112779497D01*
X81692397Y-112776454D01*
X81577836Y-112710312D01*
X81577835Y-112710311D01*
X81577834Y-112710311D01*
X81444184Y-112674500D01*
X81444183Y-112674500D01*
X81305817Y-112674500D01*
X81305815Y-112674500D01*
X81199270Y-112703048D01*
X81154500Y-112697153D01*
X81127010Y-112661328D01*
X81125000Y-112646058D01*
X81125000Y-112553575D01*
X81142281Y-112511856D01*
X81184000Y-112494575D01*
X81216777Y-112504518D01*
X81223720Y-112509157D01*
X81223721Y-112509157D01*
X81223723Y-112509158D01*
X81248992Y-112514184D01*
X81280745Y-112520500D01*
X82969254Y-112520499D01*
X82972094Y-112520499D01*
X83013813Y-112537780D01*
X83029506Y-112553473D01*
X83029509Y-112553475D01*
X83029511Y-112553477D01*
X83134082Y-112606758D01*
X83250000Y-112625118D01*
X83365918Y-112606758D01*
X83470489Y-112553477D01*
X83553477Y-112470489D01*
X83606758Y-112365918D01*
X83625118Y-112250000D01*
X83606758Y-112134082D01*
X83606756Y-112134078D01*
X83606756Y-112134077D01*
X83552088Y-112026785D01*
X83548545Y-111981768D01*
X83552088Y-111973215D01*
X83606756Y-111865922D01*
X83606756Y-111865921D01*
X83606758Y-111865918D01*
X83625118Y-111750000D01*
X83606758Y-111634082D01*
X83606756Y-111634078D01*
X83606756Y-111634077D01*
X83552088Y-111526785D01*
X83548545Y-111481768D01*
X83552088Y-111473215D01*
X83606756Y-111365922D01*
X83606756Y-111365921D01*
X83606758Y-111365918D01*
X83625118Y-111250000D01*
X83606758Y-111134082D01*
X83606756Y-111134078D01*
X83606756Y-111134077D01*
X83552088Y-111026785D01*
X83548545Y-110981768D01*
X83552088Y-110973215D01*
X83606756Y-110865922D01*
X83606756Y-110865921D01*
X83606758Y-110865918D01*
X83625118Y-110750000D01*
X83606758Y-110634082D01*
X83553477Y-110529511D01*
X83553475Y-110529509D01*
X83553473Y-110529506D01*
X83470493Y-110446526D01*
X83470490Y-110446524D01*
X83470489Y-110446523D01*
X83365918Y-110393242D01*
X83250000Y-110374882D01*
X83249998Y-110374882D01*
X83213727Y-110380626D01*
X83169818Y-110370083D01*
X83146225Y-110331580D01*
X83145499Y-110322363D01*
X83145499Y-110155746D01*
X83134157Y-110098720D01*
X83090948Y-110034052D01*
X83026280Y-109990843D01*
X83026276Y-109990841D01*
X82969258Y-109979500D01*
X81280747Y-109979500D01*
X81223720Y-109990843D01*
X81223718Y-109990843D01*
X81216775Y-109995483D01*
X81172486Y-110004290D01*
X81134941Y-109979199D01*
X81125000Y-109946424D01*
X81125000Y-109553575D01*
X81142281Y-109511856D01*
X81184000Y-109494575D01*
X81216777Y-109504518D01*
X81223720Y-109509157D01*
X81223721Y-109509157D01*
X81223723Y-109509158D01*
X81261564Y-109516684D01*
X81280745Y-109520500D01*
X82969254Y-109520499D01*
X83026280Y-109509157D01*
X83069254Y-109480442D01*
X83102032Y-109470500D01*
X83322096Y-109470500D01*
X83363815Y-109487781D01*
X83429511Y-109553477D01*
X83534082Y-109606758D01*
X83650000Y-109625118D01*
X83765918Y-109606758D01*
X83870489Y-109553477D01*
X83953477Y-109470489D01*
X84006758Y-109365918D01*
X84025118Y-109250000D01*
X84006758Y-109134082D01*
X84006756Y-109134078D01*
X84006756Y-109134077D01*
X83953568Y-109029690D01*
X83950025Y-108984673D01*
X83953568Y-108976120D01*
X84006756Y-108871732D01*
X84006756Y-108871731D01*
X84006758Y-108871728D01*
X84025118Y-108755810D01*
X84006758Y-108639892D01*
X83953477Y-108535321D01*
X83953475Y-108535319D01*
X83953473Y-108535316D01*
X83870493Y-108452336D01*
X83870490Y-108452334D01*
X83870489Y-108452333D01*
X83765918Y-108399052D01*
X83650000Y-108380692D01*
X83534082Y-108399052D01*
X83429509Y-108452334D01*
X83402645Y-108479199D01*
X83369624Y-108512219D01*
X83327906Y-108529500D01*
X83102032Y-108529500D01*
X83069254Y-108519557D01*
X83026280Y-108490843D01*
X83026276Y-108490841D01*
X82969258Y-108479500D01*
X81280747Y-108479500D01*
X81223720Y-108490843D01*
X81223718Y-108490843D01*
X81216775Y-108495483D01*
X81172486Y-108504290D01*
X81134941Y-108479199D01*
X81125000Y-108446424D01*
X81125000Y-108053575D01*
X81142281Y-108011856D01*
X81184000Y-107994575D01*
X81216777Y-108004518D01*
X81223720Y-108009157D01*
X81223721Y-108009157D01*
X81223723Y-108009158D01*
X81261564Y-108016684D01*
X81280745Y-108020500D01*
X82969254Y-108020499D01*
X83026280Y-108009157D01*
X83069254Y-107980442D01*
X83102032Y-107970500D01*
X83322096Y-107970500D01*
X83363815Y-107987781D01*
X83429511Y-108053477D01*
X83534082Y-108106758D01*
X83650000Y-108125118D01*
X83765918Y-108106758D01*
X83870489Y-108053477D01*
X83953477Y-107970489D01*
X84006758Y-107865918D01*
X84025118Y-107750000D01*
X84006758Y-107634082D01*
X84006756Y-107634078D01*
X84006756Y-107634077D01*
X83952088Y-107526785D01*
X83948545Y-107481768D01*
X83952088Y-107473215D01*
X84006756Y-107365922D01*
X84006756Y-107365921D01*
X84006758Y-107365918D01*
X84025118Y-107250000D01*
X84025117Y-107249997D01*
X84025118Y-107249996D01*
X84025118Y-107245357D01*
X84027310Y-107245357D01*
X84036077Y-107208799D01*
X84074573Y-107185195D01*
X84118485Y-107195725D01*
X84125537Y-107201747D01*
X84602219Y-107678429D01*
X84619500Y-107720148D01*
X84619500Y-112939992D01*
X84602219Y-112981711D01*
X84587287Y-112992560D01*
X84579514Y-112996520D01*
X84579506Y-112996526D01*
X84496526Y-113079506D01*
X84496524Y-113079509D01*
X84496523Y-113079511D01*
X84443242Y-113184082D01*
X84424882Y-113300000D01*
X84443242Y-113415918D01*
X84496523Y-113520489D01*
X84496524Y-113520490D01*
X84496526Y-113520493D01*
X84579506Y-113603473D01*
X84579509Y-113603475D01*
X84579511Y-113603477D01*
X84684082Y-113656758D01*
X84800000Y-113675118D01*
X84915918Y-113656758D01*
X85020489Y-113603477D01*
X85103477Y-113520489D01*
X85156758Y-113415918D01*
X85175118Y-113300000D01*
X85156758Y-113184082D01*
X85103477Y-113079511D01*
X85103475Y-113079509D01*
X85103473Y-113079506D01*
X85020493Y-112996526D01*
X85020485Y-112996520D01*
X85012713Y-112992560D01*
X84983387Y-112958222D01*
X84980500Y-112939992D01*
X84980500Y-107585040D01*
X84962429Y-107541413D01*
X84953021Y-107518699D01*
X83531301Y-106096979D01*
X83484390Y-106077548D01*
X83484388Y-106077547D01*
X83464961Y-106069500D01*
X83464960Y-106069500D01*
X83146170Y-106069500D01*
X83104451Y-106052219D01*
X83097113Y-106043278D01*
X83090950Y-106034055D01*
X83090948Y-106034052D01*
X83026280Y-105990843D01*
X83026276Y-105990841D01*
X82969258Y-105979500D01*
X81280747Y-105979500D01*
X81223720Y-105990843D01*
X81223718Y-105990843D01*
X81216775Y-105995483D01*
X81172486Y-106004290D01*
X81134941Y-105979199D01*
X81125000Y-105946424D01*
X81125000Y-105553575D01*
X81142281Y-105511856D01*
X81184000Y-105494575D01*
X81216777Y-105504518D01*
X81223720Y-105509157D01*
X81223721Y-105509157D01*
X81223723Y-105509158D01*
X81261564Y-105516684D01*
X81280745Y-105520500D01*
X82969254Y-105520499D01*
X83026280Y-105509157D01*
X83090948Y-105465948D01*
X83094371Y-105460824D01*
X83097113Y-105456722D01*
X83134659Y-105431634D01*
X83146170Y-105430500D01*
X84139992Y-105430500D01*
X84181711Y-105447781D01*
X84192561Y-105462714D01*
X84196522Y-105470488D01*
X84196524Y-105470491D01*
X84279506Y-105553473D01*
X84279509Y-105553475D01*
X84279511Y-105553477D01*
X84384082Y-105606758D01*
X84500000Y-105625118D01*
X84615918Y-105606758D01*
X84720489Y-105553477D01*
X84803477Y-105470489D01*
X84856758Y-105365918D01*
X84875118Y-105250000D01*
X84856758Y-105134082D01*
X84803477Y-105029511D01*
X84803475Y-105029509D01*
X84803473Y-105029506D01*
X84720493Y-104946526D01*
X84720490Y-104946524D01*
X84720489Y-104946523D01*
X84615918Y-104893242D01*
X84500000Y-104874882D01*
X84384082Y-104893242D01*
X84384078Y-104893243D01*
X84371237Y-104899786D01*
X84326220Y-104903326D01*
X84291884Y-104873997D01*
X84286181Y-104837988D01*
X84300118Y-104750000D01*
X84281758Y-104634082D01*
X84228477Y-104529511D01*
X84228474Y-104529508D01*
X84228473Y-104529506D01*
X84145493Y-104446526D01*
X84145490Y-104446524D01*
X84145489Y-104446523D01*
X84040918Y-104393242D01*
X83925000Y-104374882D01*
X83809082Y-104393242D01*
X83704509Y-104446524D01*
X83704506Y-104446526D01*
X83621524Y-104529508D01*
X83621522Y-104529511D01*
X83617561Y-104537286D01*
X83583224Y-104566612D01*
X83564992Y-104569500D01*
X83146170Y-104569500D01*
X83104451Y-104552219D01*
X83097113Y-104543278D01*
X83090950Y-104534055D01*
X83090948Y-104534052D01*
X83026280Y-104490843D01*
X83026276Y-104490841D01*
X82969258Y-104479500D01*
X81280747Y-104479500D01*
X81223720Y-104490843D01*
X81223718Y-104490843D01*
X81216775Y-104495483D01*
X81172486Y-104504290D01*
X81134941Y-104479199D01*
X81125000Y-104446424D01*
X81125000Y-104053575D01*
X81142281Y-104011856D01*
X81184000Y-103994575D01*
X81216777Y-104004518D01*
X81223720Y-104009157D01*
X81223721Y-104009157D01*
X81223723Y-104009158D01*
X81261564Y-104016684D01*
X81280745Y-104020500D01*
X82969254Y-104020499D01*
X83026280Y-104009157D01*
X83090948Y-103965948D01*
X83094371Y-103960824D01*
X83097113Y-103956722D01*
X83134659Y-103931634D01*
X83146170Y-103930500D01*
X84139992Y-103930500D01*
X84181711Y-103947781D01*
X84192561Y-103962714D01*
X84196522Y-103970488D01*
X84196524Y-103970491D01*
X84279506Y-104053473D01*
X84279509Y-104053475D01*
X84279511Y-104053477D01*
X84384082Y-104106758D01*
X84500000Y-104125118D01*
X84615918Y-104106758D01*
X84720489Y-104053477D01*
X84803477Y-103970489D01*
X84856758Y-103865918D01*
X84875118Y-103750000D01*
X84856758Y-103634082D01*
X84803477Y-103529511D01*
X84803475Y-103529509D01*
X84803473Y-103529506D01*
X84720493Y-103446526D01*
X84720490Y-103446524D01*
X84720489Y-103446523D01*
X84615918Y-103393242D01*
X84500000Y-103374882D01*
X84384082Y-103393242D01*
X84384078Y-103393243D01*
X84371237Y-103399786D01*
X84326220Y-103403326D01*
X84291884Y-103373997D01*
X84286181Y-103337988D01*
X84300118Y-103250000D01*
X84281758Y-103134082D01*
X84228477Y-103029511D01*
X84228474Y-103029508D01*
X84228473Y-103029506D01*
X84145493Y-102946526D01*
X84145490Y-102946524D01*
X84145489Y-102946523D01*
X84040918Y-102893242D01*
X83925000Y-102874882D01*
X83809082Y-102893242D01*
X83704509Y-102946524D01*
X83704506Y-102946526D01*
X83621524Y-103029508D01*
X83621522Y-103029511D01*
X83617561Y-103037286D01*
X83583224Y-103066612D01*
X83564992Y-103069500D01*
X83146170Y-103069500D01*
X83104451Y-103052219D01*
X83097113Y-103043278D01*
X83090950Y-103034055D01*
X83090948Y-103034052D01*
X83026280Y-102990843D01*
X83026276Y-102990841D01*
X82969258Y-102979500D01*
X81280747Y-102979500D01*
X81223720Y-102990843D01*
X81223718Y-102990843D01*
X81216775Y-102995483D01*
X81172486Y-103004290D01*
X81134941Y-102979199D01*
X81125000Y-102946424D01*
X81125000Y-102553575D01*
X81142281Y-102511856D01*
X81184000Y-102494575D01*
X81216777Y-102504518D01*
X81223720Y-102509157D01*
X81223721Y-102509157D01*
X81223723Y-102509158D01*
X81261564Y-102516684D01*
X81280745Y-102520500D01*
X82969254Y-102520499D01*
X83026280Y-102509157D01*
X83090948Y-102465948D01*
X83094371Y-102460824D01*
X83097113Y-102456722D01*
X83134659Y-102431634D01*
X83146170Y-102430500D01*
X84139992Y-102430500D01*
X84181711Y-102447781D01*
X84192561Y-102462714D01*
X84196522Y-102470488D01*
X84196524Y-102470491D01*
X84279506Y-102553473D01*
X84279509Y-102553475D01*
X84279511Y-102553477D01*
X84384082Y-102606758D01*
X84500000Y-102625118D01*
X84615918Y-102606758D01*
X84720489Y-102553477D01*
X84803477Y-102470489D01*
X84856758Y-102365918D01*
X84875118Y-102250000D01*
X84856758Y-102134082D01*
X84803477Y-102029511D01*
X84803475Y-102029509D01*
X84803473Y-102029506D01*
X84720493Y-101946526D01*
X84720490Y-101946524D01*
X84720489Y-101946523D01*
X84615918Y-101893242D01*
X84500000Y-101874882D01*
X84384082Y-101893242D01*
X84384078Y-101893243D01*
X84371237Y-101899786D01*
X84326220Y-101903326D01*
X84291884Y-101873997D01*
X84286181Y-101837988D01*
X84300118Y-101750000D01*
X84281758Y-101634082D01*
X84228477Y-101529511D01*
X84228474Y-101529508D01*
X84228473Y-101529506D01*
X84145493Y-101446526D01*
X84145490Y-101446524D01*
X84145489Y-101446523D01*
X84040918Y-101393242D01*
X83925000Y-101374882D01*
X83809082Y-101393242D01*
X83704509Y-101446524D01*
X83704506Y-101446526D01*
X83621524Y-101529508D01*
X83621522Y-101529511D01*
X83617561Y-101537286D01*
X83583224Y-101566612D01*
X83564992Y-101569500D01*
X83146170Y-101569500D01*
X83104451Y-101552219D01*
X83097113Y-101543278D01*
X83090950Y-101534055D01*
X83090948Y-101534052D01*
X83026280Y-101490843D01*
X83026276Y-101490841D01*
X82969258Y-101479500D01*
X81280747Y-101479500D01*
X81223720Y-101490843D01*
X81223718Y-101490843D01*
X81216775Y-101495483D01*
X81172486Y-101504290D01*
X81134941Y-101479199D01*
X81125000Y-101446424D01*
X81125000Y-101053575D01*
X81142281Y-101011856D01*
X81184000Y-100994575D01*
X81216777Y-101004518D01*
X81223720Y-101009157D01*
X81223721Y-101009157D01*
X81223723Y-101009158D01*
X81261564Y-101016684D01*
X81280745Y-101020500D01*
X82969254Y-101020499D01*
X83026280Y-101009157D01*
X83090948Y-100965948D01*
X83094371Y-100960824D01*
X83097113Y-100956722D01*
X83134659Y-100931634D01*
X83146170Y-100930500D01*
X84139992Y-100930500D01*
X84181711Y-100947781D01*
X84192561Y-100962714D01*
X84196522Y-100970488D01*
X84196524Y-100970491D01*
X84279506Y-101053473D01*
X84279509Y-101053475D01*
X84279511Y-101053477D01*
X84384082Y-101106758D01*
X84500000Y-101125118D01*
X84615918Y-101106758D01*
X84720489Y-101053477D01*
X84803477Y-100970489D01*
X84856758Y-100865918D01*
X84875118Y-100750000D01*
X84856758Y-100634082D01*
X84803477Y-100529511D01*
X84803475Y-100529509D01*
X84803473Y-100529506D01*
X84720493Y-100446526D01*
X84720490Y-100446524D01*
X84720489Y-100446523D01*
X84615918Y-100393242D01*
X84500000Y-100374882D01*
X84384082Y-100393242D01*
X84384079Y-100393243D01*
X84354266Y-100408433D01*
X84309248Y-100411975D01*
X84274912Y-100382647D01*
X84269208Y-100346637D01*
X84283230Y-100258112D01*
X84264870Y-100142194D01*
X84211589Y-100037623D01*
X84211587Y-100037621D01*
X84211585Y-100037618D01*
X84128605Y-99954638D01*
X84128602Y-99954636D01*
X84128601Y-99954635D01*
X84024030Y-99901354D01*
X83908112Y-99882994D01*
X83792194Y-99901354D01*
X83687621Y-99954636D01*
X83687618Y-99954638D01*
X83604638Y-100037618D01*
X83601908Y-100041377D01*
X83600885Y-100040633D01*
X83570472Y-100066612D01*
X83552238Y-100069500D01*
X83146170Y-100069500D01*
X83104451Y-100052219D01*
X83097113Y-100043278D01*
X83090950Y-100034055D01*
X83090948Y-100034052D01*
X83026280Y-99990843D01*
X83026276Y-99990841D01*
X82969258Y-99979500D01*
X81280747Y-99979500D01*
X81223720Y-99990843D01*
X81223718Y-99990843D01*
X81216775Y-99995483D01*
X81172486Y-100004290D01*
X81134941Y-99979199D01*
X81125000Y-99946424D01*
X81125000Y-99553575D01*
X81142281Y-99511856D01*
X81184000Y-99494575D01*
X81216777Y-99504518D01*
X81223720Y-99509157D01*
X81223721Y-99509157D01*
X81223723Y-99509158D01*
X81261564Y-99516684D01*
X81280745Y-99520500D01*
X82969254Y-99520499D01*
X83026280Y-99509157D01*
X83090948Y-99465948D01*
X83094371Y-99460824D01*
X83097113Y-99456722D01*
X83134659Y-99431634D01*
X83146170Y-99430500D01*
X84139992Y-99430500D01*
X84181711Y-99447781D01*
X84192561Y-99462714D01*
X84196522Y-99470488D01*
X84196524Y-99470491D01*
X84279506Y-99553473D01*
X84279509Y-99553475D01*
X84279511Y-99553477D01*
X84384082Y-99606758D01*
X84500000Y-99625118D01*
X84615918Y-99606758D01*
X84720489Y-99553477D01*
X84803477Y-99470489D01*
X84856758Y-99365918D01*
X84875118Y-99250000D01*
X84856758Y-99134082D01*
X84803477Y-99029511D01*
X84803475Y-99029509D01*
X84803473Y-99029506D01*
X84720493Y-98946526D01*
X84720490Y-98946524D01*
X84720489Y-98946523D01*
X84615918Y-98893242D01*
X84500000Y-98874882D01*
X84384082Y-98893242D01*
X84384078Y-98893243D01*
X84371237Y-98899786D01*
X84326220Y-98903326D01*
X84291884Y-98873997D01*
X84286181Y-98837988D01*
X84300118Y-98750000D01*
X84281758Y-98634082D01*
X84228477Y-98529511D01*
X84228474Y-98529508D01*
X84228473Y-98529506D01*
X84145493Y-98446526D01*
X84145490Y-98446524D01*
X84145489Y-98446523D01*
X84040918Y-98393242D01*
X83925000Y-98374882D01*
X83809082Y-98393242D01*
X83704509Y-98446524D01*
X83704506Y-98446526D01*
X83621524Y-98529508D01*
X83621522Y-98529511D01*
X83617561Y-98537286D01*
X83583224Y-98566612D01*
X83564992Y-98569500D01*
X83146170Y-98569500D01*
X83104451Y-98552219D01*
X83097113Y-98543278D01*
X83090950Y-98534055D01*
X83090948Y-98534052D01*
X83026280Y-98490843D01*
X83026276Y-98490841D01*
X82969258Y-98479500D01*
X81280747Y-98479500D01*
X81223720Y-98490843D01*
X81223718Y-98490843D01*
X81216775Y-98495483D01*
X81172486Y-98504290D01*
X81134941Y-98479199D01*
X81125000Y-98446424D01*
X81125000Y-98053575D01*
X81142281Y-98011856D01*
X81184000Y-97994575D01*
X81216777Y-98004518D01*
X81223720Y-98009157D01*
X81223721Y-98009157D01*
X81223723Y-98009158D01*
X81261564Y-98016684D01*
X81280745Y-98020500D01*
X82969254Y-98020499D01*
X83026280Y-98009157D01*
X83090948Y-97965948D01*
X83094371Y-97960824D01*
X83097113Y-97956722D01*
X83134659Y-97931634D01*
X83146170Y-97930500D01*
X84139992Y-97930500D01*
X84181711Y-97947781D01*
X84192561Y-97962714D01*
X84196522Y-97970488D01*
X84196524Y-97970491D01*
X84279506Y-98053473D01*
X84279509Y-98053475D01*
X84279511Y-98053477D01*
X84384082Y-98106758D01*
X84500000Y-98125118D01*
X84615918Y-98106758D01*
X84720489Y-98053477D01*
X84803477Y-97970489D01*
X84856758Y-97865918D01*
X84875118Y-97750000D01*
X84856758Y-97634082D01*
X84803477Y-97529511D01*
X84803475Y-97529509D01*
X84803473Y-97529506D01*
X84720493Y-97446526D01*
X84720490Y-97446524D01*
X84720489Y-97446523D01*
X84615918Y-97393242D01*
X84500000Y-97374882D01*
X84384082Y-97393242D01*
X84384078Y-97393243D01*
X84371237Y-97399786D01*
X84326220Y-97403326D01*
X84291884Y-97373997D01*
X84286181Y-97337988D01*
X84300118Y-97250000D01*
X84281758Y-97134082D01*
X84228477Y-97029511D01*
X84228474Y-97029508D01*
X84228473Y-97029506D01*
X84145493Y-96946526D01*
X84145490Y-96946524D01*
X84145489Y-96946523D01*
X84040918Y-96893242D01*
X83925000Y-96874882D01*
X83809082Y-96893242D01*
X83704509Y-96946524D01*
X83704506Y-96946526D01*
X83621524Y-97029508D01*
X83621522Y-97029511D01*
X83617561Y-97037286D01*
X83583224Y-97066612D01*
X83564992Y-97069500D01*
X83146170Y-97069500D01*
X83104451Y-97052219D01*
X83097113Y-97043278D01*
X83090950Y-97034055D01*
X83090948Y-97034052D01*
X83026280Y-96990843D01*
X83026276Y-96990841D01*
X82969258Y-96979500D01*
X81280747Y-96979500D01*
X81223720Y-96990843D01*
X81223718Y-96990843D01*
X81216775Y-96995483D01*
X81172486Y-97004290D01*
X81134941Y-96979199D01*
X81125000Y-96946424D01*
X81125000Y-96553575D01*
X81142281Y-96511856D01*
X81184000Y-96494575D01*
X81216777Y-96504518D01*
X81223720Y-96509157D01*
X81223721Y-96509157D01*
X81223723Y-96509158D01*
X81261564Y-96516684D01*
X81280745Y-96520500D01*
X82969254Y-96520499D01*
X83026280Y-96509157D01*
X83090948Y-96465948D01*
X83094371Y-96460824D01*
X83097113Y-96456722D01*
X83134659Y-96431634D01*
X83146170Y-96430500D01*
X84318733Y-96430500D01*
X84360452Y-96447781D01*
X84435325Y-96522654D01*
X84435328Y-96522656D01*
X84435330Y-96522658D01*
X84539901Y-96575939D01*
X84655819Y-96594299D01*
X84771737Y-96575939D01*
X84876308Y-96522658D01*
X84959296Y-96439670D01*
X85012577Y-96335099D01*
X85030937Y-96219181D01*
X85012577Y-96103263D01*
X84959296Y-95998692D01*
X84959294Y-95998690D01*
X84959292Y-95998687D01*
X84876312Y-95915707D01*
X84876309Y-95915705D01*
X84876308Y-95915704D01*
X84771737Y-95862423D01*
X84655819Y-95844063D01*
X84539901Y-95862423D01*
X84539899Y-95862424D01*
X84495295Y-95885150D01*
X84450278Y-95888692D01*
X84415941Y-95859364D01*
X84410238Y-95823350D01*
X84421856Y-95750000D01*
X84403496Y-95634082D01*
X84350215Y-95529511D01*
X84350212Y-95529508D01*
X84350211Y-95529506D01*
X84267231Y-95446526D01*
X84267228Y-95446524D01*
X84267227Y-95446523D01*
X84162656Y-95393242D01*
X84046738Y-95374882D01*
X83930820Y-95393242D01*
X83826247Y-95446524D01*
X83826244Y-95446526D01*
X83743262Y-95529508D01*
X83743260Y-95529511D01*
X83739299Y-95537286D01*
X83704962Y-95566612D01*
X83686730Y-95569500D01*
X83146170Y-95569500D01*
X83104451Y-95552219D01*
X83097113Y-95543278D01*
X83090950Y-95534055D01*
X83090948Y-95534052D01*
X83026280Y-95490843D01*
X83026276Y-95490841D01*
X82969258Y-95479500D01*
X81280747Y-95479500D01*
X81223720Y-95490843D01*
X81223718Y-95490843D01*
X81216775Y-95495483D01*
X81172486Y-95504290D01*
X81134941Y-95479199D01*
X81125000Y-95446424D01*
X81125000Y-95053575D01*
X81142281Y-95011856D01*
X81184000Y-94994575D01*
X81216777Y-95004518D01*
X81223720Y-95009157D01*
X81223721Y-95009157D01*
X81223723Y-95009158D01*
X81261564Y-95016684D01*
X81280745Y-95020500D01*
X82969254Y-95020499D01*
X83026280Y-95009157D01*
X83090948Y-94965948D01*
X83094371Y-94960824D01*
X83097113Y-94956722D01*
X83134659Y-94931634D01*
X83146170Y-94930500D01*
X84321995Y-94930500D01*
X84363714Y-94947781D01*
X84438587Y-95022654D01*
X84438590Y-95022656D01*
X84438592Y-95022658D01*
X84543163Y-95075939D01*
X84659081Y-95094299D01*
X84774999Y-95075939D01*
X84879570Y-95022658D01*
X84962558Y-94939670D01*
X85015839Y-94835099D01*
X85016779Y-94833255D01*
X85051116Y-94803928D01*
X85096133Y-94807471D01*
G37*
%TD.AperFunction*%
%TA.AperFunction,Conductor*%
G36*
X88879583Y-82701225D02*
G01*
X88942870Y-82711249D01*
X88960427Y-82716954D01*
X89013327Y-82743908D01*
X89028260Y-82754758D01*
X89070241Y-82796739D01*
X89081091Y-82811672D01*
X89108045Y-82864572D01*
X89113750Y-82882128D01*
X89123774Y-82945415D01*
X89124500Y-82954645D01*
X89124500Y-83284108D01*
X89124500Y-83350000D01*
X89124500Y-83448417D01*
X89132140Y-83496652D01*
X89155291Y-83642826D01*
X89155293Y-83642835D01*
X89216116Y-83830026D01*
X89216116Y-83830027D01*
X89305472Y-84005399D01*
X89305474Y-84005402D01*
X89305476Y-84005405D01*
X89421172Y-84164646D01*
X89560354Y-84303828D01*
X89719595Y-84419524D01*
X89719598Y-84419525D01*
X89719600Y-84419527D01*
X89894972Y-84508883D01*
X90082164Y-84569706D01*
X90082166Y-84569706D01*
X90082174Y-84569709D01*
X90276583Y-84600500D01*
X90309108Y-84600500D01*
X101884108Y-84600500D01*
X101945355Y-84600500D01*
X101954583Y-84601225D01*
X102017870Y-84611249D01*
X102035427Y-84616954D01*
X102088327Y-84643908D01*
X102103260Y-84654758D01*
X102145241Y-84696739D01*
X102156091Y-84711672D01*
X102183045Y-84764572D01*
X102188750Y-84782128D01*
X102198774Y-84845415D01*
X102199500Y-84854645D01*
X102199500Y-110144238D01*
X102182219Y-110185957D01*
X102140500Y-110203238D01*
X102132105Y-110202638D01*
X102095132Y-110197322D01*
X102075500Y-110194500D01*
X99424000Y-110194500D01*
X99423994Y-110194500D01*
X99380320Y-110199196D01*
X99354191Y-110204880D01*
X99328805Y-110210403D01*
X99328800Y-110210404D01*
X99328778Y-110210409D01*
X99318629Y-110212888D01*
X99318624Y-110212890D01*
X99237911Y-110255902D01*
X99237890Y-110255917D01*
X99237879Y-110255919D01*
X99234992Y-110257458D01*
X99234548Y-110256625D01*
X99193714Y-110265281D01*
X99155857Y-110240666D01*
X99145499Y-110207275D01*
X99145499Y-110155747D01*
X99143054Y-110143454D01*
X99134157Y-110098720D01*
X99090948Y-110034052D01*
X99026280Y-109990843D01*
X99026276Y-109990841D01*
X98969258Y-109979500D01*
X97280747Y-109979500D01*
X97223720Y-109990843D01*
X97223718Y-109990843D01*
X97216775Y-109995483D01*
X97172486Y-110004290D01*
X97134941Y-109979199D01*
X97125000Y-109946424D01*
X97125000Y-109553575D01*
X97142281Y-109511856D01*
X97184000Y-109494575D01*
X97216777Y-109504518D01*
X97223720Y-109509157D01*
X97223721Y-109509157D01*
X97223723Y-109509158D01*
X97261564Y-109516684D01*
X97280745Y-109520500D01*
X98969254Y-109520499D01*
X99026280Y-109509157D01*
X99069254Y-109480442D01*
X99102032Y-109470500D01*
X99572096Y-109470500D01*
X99613815Y-109487781D01*
X99679511Y-109553477D01*
X99784082Y-109606758D01*
X99900000Y-109625118D01*
X100015918Y-109606758D01*
X100120489Y-109553477D01*
X100203477Y-109470489D01*
X100256758Y-109365918D01*
X100275118Y-109250000D01*
X100256758Y-109134082D01*
X100256756Y-109134078D01*
X100256756Y-109134077D01*
X100203568Y-109029690D01*
X100200025Y-108984673D01*
X100203568Y-108976120D01*
X100256756Y-108871732D01*
X100256756Y-108871731D01*
X100256758Y-108871728D01*
X100275118Y-108755810D01*
X100256758Y-108639892D01*
X100203477Y-108535321D01*
X100203475Y-108535319D01*
X100203473Y-108535316D01*
X100120493Y-108452336D01*
X100120490Y-108452334D01*
X100120489Y-108452333D01*
X100015918Y-108399052D01*
X99900000Y-108380692D01*
X99784082Y-108399052D01*
X99679509Y-108452334D01*
X99652645Y-108479199D01*
X99619624Y-108512219D01*
X99577906Y-108529500D01*
X99102032Y-108529500D01*
X99069254Y-108519557D01*
X99026280Y-108490843D01*
X99026276Y-108490841D01*
X98969258Y-108479500D01*
X97280747Y-108479500D01*
X97223720Y-108490843D01*
X97223718Y-108490843D01*
X97216775Y-108495483D01*
X97172486Y-108504290D01*
X97134941Y-108479199D01*
X97125000Y-108446424D01*
X97125000Y-108053575D01*
X97142281Y-108011856D01*
X97184000Y-107994575D01*
X97216777Y-108004518D01*
X97223720Y-108009157D01*
X97223721Y-108009157D01*
X97223723Y-108009158D01*
X97261564Y-108016684D01*
X97280745Y-108020500D01*
X98969254Y-108020499D01*
X99026280Y-108009157D01*
X99069254Y-107980442D01*
X99102032Y-107970500D01*
X99572096Y-107970500D01*
X99613815Y-107987781D01*
X99679511Y-108053477D01*
X99784082Y-108106758D01*
X99900000Y-108125118D01*
X100015918Y-108106758D01*
X100120489Y-108053477D01*
X100203477Y-107970489D01*
X100256758Y-107865918D01*
X100275118Y-107750000D01*
X100256758Y-107634082D01*
X100256756Y-107634078D01*
X100256756Y-107634077D01*
X100202088Y-107526785D01*
X100198545Y-107481768D01*
X100202088Y-107473215D01*
X100256756Y-107365922D01*
X100256756Y-107365921D01*
X100256758Y-107365918D01*
X100275118Y-107250000D01*
X100256758Y-107134082D01*
X100203477Y-107029511D01*
X100203475Y-107029509D01*
X100203473Y-107029506D01*
X100120493Y-106946526D01*
X100120490Y-106946524D01*
X100120489Y-106946523D01*
X100015918Y-106893242D01*
X99900000Y-106874882D01*
X99784082Y-106893242D01*
X99679509Y-106946524D01*
X99646835Y-106979199D01*
X99613814Y-107012219D01*
X99572096Y-107029500D01*
X99102032Y-107029500D01*
X99069254Y-107019557D01*
X99026280Y-106990843D01*
X99026276Y-106990841D01*
X98969258Y-106979500D01*
X97280747Y-106979500D01*
X97223720Y-106990843D01*
X97223718Y-106990843D01*
X97216775Y-106995483D01*
X97172486Y-107004290D01*
X97134941Y-106979199D01*
X97125000Y-106946424D01*
X97125000Y-106553575D01*
X97142281Y-106511856D01*
X97184000Y-106494575D01*
X97216777Y-106504518D01*
X97223720Y-106509157D01*
X97223721Y-106509157D01*
X97223723Y-106509158D01*
X97261564Y-106516684D01*
X97280745Y-106520500D01*
X98969254Y-106520499D01*
X99026280Y-106509157D01*
X99090948Y-106465948D01*
X99094371Y-106460824D01*
X99097113Y-106456722D01*
X99134659Y-106431634D01*
X99146170Y-106430500D01*
X99639992Y-106430500D01*
X99681711Y-106447781D01*
X99692561Y-106462714D01*
X99696522Y-106470488D01*
X99696524Y-106470491D01*
X99779506Y-106553473D01*
X99779509Y-106553475D01*
X99779511Y-106553477D01*
X99884082Y-106606758D01*
X100000000Y-106625118D01*
X100115918Y-106606758D01*
X100220489Y-106553477D01*
X100303477Y-106470489D01*
X100356758Y-106365918D01*
X100375118Y-106250000D01*
X100356758Y-106134082D01*
X100303477Y-106029511D01*
X100303474Y-106029508D01*
X100303473Y-106029506D01*
X100220493Y-105946526D01*
X100220490Y-105946524D01*
X100220489Y-105946523D01*
X100115918Y-105893242D01*
X100000000Y-105874882D01*
X99884082Y-105893242D01*
X99779509Y-105946524D01*
X99779506Y-105946526D01*
X99696524Y-106029508D01*
X99696522Y-106029511D01*
X99692561Y-106037286D01*
X99658224Y-106066612D01*
X99639992Y-106069500D01*
X99146170Y-106069500D01*
X99104451Y-106052219D01*
X99097113Y-106043278D01*
X99090950Y-106034055D01*
X99090948Y-106034052D01*
X99026280Y-105990843D01*
X99026276Y-105990841D01*
X98969258Y-105979500D01*
X97280747Y-105979500D01*
X97223720Y-105990843D01*
X97223718Y-105990843D01*
X97216775Y-105995483D01*
X97172486Y-106004290D01*
X97134941Y-105979199D01*
X97125000Y-105946424D01*
X97125000Y-105553575D01*
X97142281Y-105511856D01*
X97184000Y-105494575D01*
X97216777Y-105504518D01*
X97223720Y-105509157D01*
X97223721Y-105509157D01*
X97223723Y-105509158D01*
X97261564Y-105516684D01*
X97280745Y-105520500D01*
X98969254Y-105520499D01*
X99026280Y-105509157D01*
X99090948Y-105465948D01*
X99094371Y-105460824D01*
X99097113Y-105456722D01*
X99134659Y-105431634D01*
X99146170Y-105430500D01*
X99639992Y-105430500D01*
X99681711Y-105447781D01*
X99692561Y-105462714D01*
X99696522Y-105470488D01*
X99696524Y-105470491D01*
X99779506Y-105553473D01*
X99779509Y-105553475D01*
X99779511Y-105553477D01*
X99884082Y-105606758D01*
X100000000Y-105625118D01*
X100115918Y-105606758D01*
X100220489Y-105553477D01*
X100303477Y-105470489D01*
X100356758Y-105365918D01*
X100375118Y-105250000D01*
X100356758Y-105134082D01*
X100303477Y-105029511D01*
X100303475Y-105029509D01*
X100303473Y-105029506D01*
X100220493Y-104946526D01*
X100220490Y-104946524D01*
X100220489Y-104946523D01*
X100115918Y-104893242D01*
X100000000Y-104874882D01*
X99999999Y-104874882D01*
X99931822Y-104885680D01*
X99887913Y-104875138D01*
X99864319Y-104836635D01*
X99864319Y-104818180D01*
X99875118Y-104750000D01*
X99856758Y-104634082D01*
X99803477Y-104529511D01*
X99803474Y-104529508D01*
X99803473Y-104529506D01*
X99720493Y-104446526D01*
X99720490Y-104446524D01*
X99720489Y-104446523D01*
X99615918Y-104393242D01*
X99500000Y-104374882D01*
X99384082Y-104393242D01*
X99279509Y-104446524D01*
X99279506Y-104446526D01*
X99196524Y-104529508D01*
X99196520Y-104529514D01*
X99195230Y-104532046D01*
X99160889Y-104561369D01*
X99115872Y-104557820D01*
X99093605Y-104538029D01*
X99092674Y-104536636D01*
X99090948Y-104534052D01*
X99026280Y-104490843D01*
X99026276Y-104490841D01*
X98969258Y-104479500D01*
X97280747Y-104479500D01*
X97223720Y-104490843D01*
X97223718Y-104490843D01*
X97216775Y-104495483D01*
X97172486Y-104504290D01*
X97134941Y-104479199D01*
X97125000Y-104446424D01*
X97125000Y-104053575D01*
X97142281Y-104011856D01*
X97184000Y-103994575D01*
X97216777Y-104004518D01*
X97223720Y-104009157D01*
X97223721Y-104009157D01*
X97223723Y-104009158D01*
X97261564Y-104016684D01*
X97280745Y-104020500D01*
X98969254Y-104020499D01*
X99026280Y-104009157D01*
X99090948Y-103965948D01*
X99093604Y-103961971D01*
X99131146Y-103936880D01*
X99175436Y-103945684D01*
X99195232Y-103967956D01*
X99196522Y-103970489D01*
X99279506Y-104053473D01*
X99279509Y-104053475D01*
X99279511Y-104053477D01*
X99384082Y-104106758D01*
X99500000Y-104125118D01*
X99615918Y-104106758D01*
X99720489Y-104053477D01*
X99803477Y-103970489D01*
X99856758Y-103865918D01*
X99875118Y-103750000D01*
X99864319Y-103681821D01*
X99874861Y-103637914D01*
X99913363Y-103614319D01*
X99931819Y-103614319D01*
X100000000Y-103625118D01*
X100115918Y-103606758D01*
X100220489Y-103553477D01*
X100303477Y-103470489D01*
X100356758Y-103365918D01*
X100375118Y-103250000D01*
X100356758Y-103134082D01*
X100303477Y-103029511D01*
X100303474Y-103029508D01*
X100303473Y-103029506D01*
X100220493Y-102946526D01*
X100220490Y-102946524D01*
X100220489Y-102946523D01*
X100115918Y-102893242D01*
X100000000Y-102874882D01*
X99884082Y-102893242D01*
X99779509Y-102946524D01*
X99779506Y-102946526D01*
X99696524Y-103029508D01*
X99696522Y-103029511D01*
X99692561Y-103037286D01*
X99658224Y-103066612D01*
X99639992Y-103069500D01*
X99146170Y-103069500D01*
X99104451Y-103052219D01*
X99097113Y-103043278D01*
X99090950Y-103034055D01*
X99090948Y-103034052D01*
X99026280Y-102990843D01*
X99026276Y-102990841D01*
X98969258Y-102979500D01*
X97280747Y-102979500D01*
X97223720Y-102990843D01*
X97223718Y-102990843D01*
X97216775Y-102995483D01*
X97172486Y-103004290D01*
X97134941Y-102979199D01*
X97125000Y-102946424D01*
X97125000Y-102553575D01*
X97142281Y-102511856D01*
X97184000Y-102494575D01*
X97216777Y-102504518D01*
X97223720Y-102509157D01*
X97223721Y-102509157D01*
X97223723Y-102509158D01*
X97261564Y-102516684D01*
X97280745Y-102520500D01*
X98969254Y-102520499D01*
X99026280Y-102509157D01*
X99090948Y-102465948D01*
X99094371Y-102460824D01*
X99097113Y-102456722D01*
X99134659Y-102431634D01*
X99146170Y-102430500D01*
X99639992Y-102430500D01*
X99681711Y-102447781D01*
X99692561Y-102462714D01*
X99696522Y-102470488D01*
X99696524Y-102470491D01*
X99779506Y-102553473D01*
X99779509Y-102553475D01*
X99779511Y-102553477D01*
X99884082Y-102606758D01*
X100000000Y-102625118D01*
X100115918Y-102606758D01*
X100220489Y-102553477D01*
X100303477Y-102470489D01*
X100356758Y-102365918D01*
X100375118Y-102250000D01*
X100356758Y-102134082D01*
X100303477Y-102029511D01*
X100303475Y-102029509D01*
X100303473Y-102029506D01*
X100220493Y-101946526D01*
X100220490Y-101946524D01*
X100220489Y-101946523D01*
X100115918Y-101893242D01*
X100000000Y-101874882D01*
X99999999Y-101874882D01*
X99931822Y-101885680D01*
X99887913Y-101875138D01*
X99864319Y-101836635D01*
X99864319Y-101818180D01*
X99875118Y-101750000D01*
X99856758Y-101634082D01*
X99803477Y-101529511D01*
X99803474Y-101529508D01*
X99803473Y-101529506D01*
X99720493Y-101446526D01*
X99720490Y-101446524D01*
X99720489Y-101446523D01*
X99615918Y-101393242D01*
X99500000Y-101374882D01*
X99384082Y-101393242D01*
X99279509Y-101446524D01*
X99279506Y-101446526D01*
X99196524Y-101529508D01*
X99196520Y-101529514D01*
X99195230Y-101532046D01*
X99160889Y-101561369D01*
X99115872Y-101557820D01*
X99093605Y-101538029D01*
X99092674Y-101536636D01*
X99090948Y-101534052D01*
X99026280Y-101490843D01*
X99026276Y-101490841D01*
X98969258Y-101479500D01*
X97280747Y-101479500D01*
X97223720Y-101490843D01*
X97223718Y-101490843D01*
X97216775Y-101495483D01*
X97172486Y-101504290D01*
X97134941Y-101479199D01*
X97125000Y-101446424D01*
X97125000Y-101053575D01*
X97142281Y-101011856D01*
X97184000Y-100994575D01*
X97216777Y-101004518D01*
X97223720Y-101009157D01*
X97223721Y-101009157D01*
X97223723Y-101009158D01*
X97261564Y-101016684D01*
X97280745Y-101020500D01*
X98969254Y-101020499D01*
X99026280Y-101009157D01*
X99090948Y-100965948D01*
X99093604Y-100961971D01*
X99131146Y-100936880D01*
X99175436Y-100945684D01*
X99195232Y-100967956D01*
X99196522Y-100970489D01*
X99279506Y-101053473D01*
X99279509Y-101053475D01*
X99279511Y-101053477D01*
X99384082Y-101106758D01*
X99500000Y-101125118D01*
X99615918Y-101106758D01*
X99720489Y-101053477D01*
X99803477Y-100970489D01*
X99856758Y-100865918D01*
X99875118Y-100750000D01*
X99864319Y-100681821D01*
X99874861Y-100637914D01*
X99913363Y-100614319D01*
X99931819Y-100614319D01*
X100000000Y-100625118D01*
X100115918Y-100606758D01*
X100220489Y-100553477D01*
X100303477Y-100470489D01*
X100356758Y-100365918D01*
X100375118Y-100250000D01*
X100356758Y-100134082D01*
X100303477Y-100029511D01*
X100303474Y-100029508D01*
X100303473Y-100029506D01*
X100220493Y-99946526D01*
X100220490Y-99946524D01*
X100220489Y-99946523D01*
X100115918Y-99893242D01*
X100000000Y-99874882D01*
X99884082Y-99893242D01*
X99779509Y-99946524D01*
X99779506Y-99946526D01*
X99696524Y-100029508D01*
X99696522Y-100029511D01*
X99692561Y-100037286D01*
X99658224Y-100066612D01*
X99639992Y-100069500D01*
X99146170Y-100069500D01*
X99104451Y-100052219D01*
X99097113Y-100043278D01*
X99090950Y-100034055D01*
X99090948Y-100034052D01*
X99026280Y-99990843D01*
X99026276Y-99990841D01*
X98969258Y-99979500D01*
X97280747Y-99979500D01*
X97223720Y-99990843D01*
X97223718Y-99990843D01*
X97216775Y-99995483D01*
X97172486Y-100004290D01*
X97134941Y-99979199D01*
X97125000Y-99946424D01*
X97125000Y-99553575D01*
X97142281Y-99511856D01*
X97184000Y-99494575D01*
X97216777Y-99504518D01*
X97223720Y-99509157D01*
X97223721Y-99509157D01*
X97223723Y-99509158D01*
X97261564Y-99516684D01*
X97280745Y-99520500D01*
X98969254Y-99520499D01*
X99026280Y-99509157D01*
X99090948Y-99465948D01*
X99094371Y-99460824D01*
X99097113Y-99456722D01*
X99134659Y-99431634D01*
X99146170Y-99430500D01*
X99639992Y-99430500D01*
X99681711Y-99447781D01*
X99692561Y-99462714D01*
X99696522Y-99470488D01*
X99696524Y-99470491D01*
X99779506Y-99553473D01*
X99779509Y-99553475D01*
X99779511Y-99553477D01*
X99884082Y-99606758D01*
X100000000Y-99625118D01*
X100115918Y-99606758D01*
X100220489Y-99553477D01*
X100303477Y-99470489D01*
X100356758Y-99365918D01*
X100375118Y-99250000D01*
X100356758Y-99134082D01*
X100303477Y-99029511D01*
X100303475Y-99029509D01*
X100303473Y-99029506D01*
X100220493Y-98946526D01*
X100220490Y-98946524D01*
X100220489Y-98946523D01*
X100115918Y-98893242D01*
X100000000Y-98874882D01*
X99999999Y-98874882D01*
X99931822Y-98885680D01*
X99887913Y-98875138D01*
X99864319Y-98836635D01*
X99864319Y-98818180D01*
X99875118Y-98750000D01*
X99856758Y-98634082D01*
X99803477Y-98529511D01*
X99803474Y-98529508D01*
X99803473Y-98529506D01*
X99720493Y-98446526D01*
X99720490Y-98446524D01*
X99720489Y-98446523D01*
X99615918Y-98393242D01*
X99500000Y-98374882D01*
X99384082Y-98393242D01*
X99279509Y-98446524D01*
X99279506Y-98446526D01*
X99196524Y-98529508D01*
X99196520Y-98529514D01*
X99195230Y-98532046D01*
X99160889Y-98561369D01*
X99115872Y-98557820D01*
X99093605Y-98538029D01*
X99092674Y-98536636D01*
X99090948Y-98534052D01*
X99026280Y-98490843D01*
X99026276Y-98490841D01*
X98969258Y-98479500D01*
X97280747Y-98479500D01*
X97223720Y-98490843D01*
X97223718Y-98490843D01*
X97216775Y-98495483D01*
X97172486Y-98504290D01*
X97134941Y-98479199D01*
X97125000Y-98446424D01*
X97125000Y-98053575D01*
X97142281Y-98011856D01*
X97184000Y-97994575D01*
X97216777Y-98004518D01*
X97223720Y-98009157D01*
X97223721Y-98009157D01*
X97223723Y-98009158D01*
X97261564Y-98016684D01*
X97280745Y-98020500D01*
X98969254Y-98020499D01*
X99026280Y-98009157D01*
X99090948Y-97965948D01*
X99093604Y-97961971D01*
X99131146Y-97936880D01*
X99175436Y-97945684D01*
X99195232Y-97967956D01*
X99196522Y-97970489D01*
X99279506Y-98053473D01*
X99279509Y-98053475D01*
X99279511Y-98053477D01*
X99384082Y-98106758D01*
X99500000Y-98125118D01*
X99615918Y-98106758D01*
X99720489Y-98053477D01*
X99803477Y-97970489D01*
X99856758Y-97865918D01*
X99875118Y-97750000D01*
X99864319Y-97681821D01*
X99874861Y-97637914D01*
X99913363Y-97614319D01*
X99931819Y-97614319D01*
X100000000Y-97625118D01*
X100115918Y-97606758D01*
X100220489Y-97553477D01*
X100303477Y-97470489D01*
X100356758Y-97365918D01*
X100375118Y-97250000D01*
X100356758Y-97134082D01*
X100303477Y-97029511D01*
X100303474Y-97029508D01*
X100303473Y-97029506D01*
X100220493Y-96946526D01*
X100220490Y-96946524D01*
X100220489Y-96946523D01*
X100115918Y-96893242D01*
X100000000Y-96874882D01*
X99884082Y-96893242D01*
X99779509Y-96946524D01*
X99779506Y-96946526D01*
X99696524Y-97029508D01*
X99696522Y-97029511D01*
X99692561Y-97037286D01*
X99658224Y-97066612D01*
X99639992Y-97069500D01*
X99146170Y-97069500D01*
X99104451Y-97052219D01*
X99097113Y-97043278D01*
X99090950Y-97034055D01*
X99090948Y-97034052D01*
X99026280Y-96990843D01*
X99026276Y-96990841D01*
X98969258Y-96979500D01*
X97280747Y-96979500D01*
X97223720Y-96990843D01*
X97223718Y-96990843D01*
X97216775Y-96995483D01*
X97172486Y-97004290D01*
X97134941Y-96979199D01*
X97125000Y-96946424D01*
X97125000Y-96553575D01*
X97142281Y-96511856D01*
X97184000Y-96494575D01*
X97216777Y-96504518D01*
X97223720Y-96509157D01*
X97223721Y-96509157D01*
X97223723Y-96509158D01*
X97261564Y-96516684D01*
X97280745Y-96520500D01*
X98969254Y-96520499D01*
X99026280Y-96509157D01*
X99090948Y-96465948D01*
X99094371Y-96460824D01*
X99097113Y-96456722D01*
X99134659Y-96431634D01*
X99146170Y-96430500D01*
X99639992Y-96430500D01*
X99681711Y-96447781D01*
X99692561Y-96462714D01*
X99696522Y-96470488D01*
X99696524Y-96470491D01*
X99779506Y-96553473D01*
X99779509Y-96553475D01*
X99779511Y-96553477D01*
X99884082Y-96606758D01*
X100000000Y-96625118D01*
X100115918Y-96606758D01*
X100220489Y-96553477D01*
X100303477Y-96470489D01*
X100356758Y-96365918D01*
X100375118Y-96250000D01*
X100356758Y-96134082D01*
X100303477Y-96029511D01*
X100303475Y-96029509D01*
X100303473Y-96029506D01*
X100220493Y-95946526D01*
X100220490Y-95946524D01*
X100220489Y-95946523D01*
X100115918Y-95893242D01*
X100000000Y-95874882D01*
X99999999Y-95874882D01*
X99931822Y-95885680D01*
X99887913Y-95875138D01*
X99864319Y-95836635D01*
X99864319Y-95818180D01*
X99875118Y-95750000D01*
X99856758Y-95634082D01*
X99803477Y-95529511D01*
X99803474Y-95529508D01*
X99803473Y-95529506D01*
X99720493Y-95446526D01*
X99720490Y-95446524D01*
X99720489Y-95446523D01*
X99615918Y-95393242D01*
X99500000Y-95374882D01*
X99384082Y-95393242D01*
X99279509Y-95446524D01*
X99279506Y-95446526D01*
X99196524Y-95529508D01*
X99196520Y-95529514D01*
X99195230Y-95532046D01*
X99160889Y-95561369D01*
X99115872Y-95557820D01*
X99093605Y-95538029D01*
X99092674Y-95536636D01*
X99090948Y-95534052D01*
X99026280Y-95490843D01*
X99026276Y-95490841D01*
X98969258Y-95479500D01*
X97280747Y-95479500D01*
X97223720Y-95490843D01*
X97223718Y-95490843D01*
X97216775Y-95495483D01*
X97172486Y-95504290D01*
X97134941Y-95479199D01*
X97125000Y-95446424D01*
X97125000Y-95053575D01*
X97142281Y-95011856D01*
X97184000Y-94994575D01*
X97216777Y-95004518D01*
X97223720Y-95009157D01*
X97223721Y-95009157D01*
X97223723Y-95009158D01*
X97261564Y-95016684D01*
X97280745Y-95020500D01*
X98969254Y-95020499D01*
X99026280Y-95009157D01*
X99090948Y-94965948D01*
X99093604Y-94961971D01*
X99131146Y-94936880D01*
X99175436Y-94945684D01*
X99195232Y-94967956D01*
X99196522Y-94970489D01*
X99279506Y-95053473D01*
X99279509Y-95053475D01*
X99279511Y-95053477D01*
X99384082Y-95106758D01*
X99500000Y-95125118D01*
X99615918Y-95106758D01*
X99720489Y-95053477D01*
X99803477Y-94970489D01*
X99856758Y-94865918D01*
X99875118Y-94750000D01*
X99864319Y-94681821D01*
X99874861Y-94637914D01*
X99913363Y-94614319D01*
X99931819Y-94614319D01*
X100000000Y-94625118D01*
X100115918Y-94606758D01*
X100220489Y-94553477D01*
X100303477Y-94470489D01*
X100356758Y-94365918D01*
X100375118Y-94250000D01*
X100356758Y-94134082D01*
X100303477Y-94029511D01*
X100303474Y-94029508D01*
X100303473Y-94029506D01*
X100220493Y-93946526D01*
X100220490Y-93946524D01*
X100220489Y-93946523D01*
X100115918Y-93893242D01*
X100000000Y-93874882D01*
X99884082Y-93893242D01*
X99779509Y-93946524D01*
X99779506Y-93946526D01*
X99696524Y-94029508D01*
X99696522Y-94029511D01*
X99692561Y-94037286D01*
X99658224Y-94066612D01*
X99639992Y-94069500D01*
X99146170Y-94069500D01*
X99104451Y-94052219D01*
X99097113Y-94043278D01*
X99090950Y-94034055D01*
X99090948Y-94034052D01*
X99026280Y-93990843D01*
X99026276Y-93990841D01*
X98969258Y-93979500D01*
X97280747Y-93979500D01*
X97223720Y-93990843D01*
X97223718Y-93990843D01*
X97216775Y-93995483D01*
X97172486Y-94004290D01*
X97134941Y-93979199D01*
X97125000Y-93946424D01*
X97125000Y-93553575D01*
X97142281Y-93511856D01*
X97184000Y-93494575D01*
X97216777Y-93504518D01*
X97223720Y-93509157D01*
X97223721Y-93509157D01*
X97223723Y-93509158D01*
X97260751Y-93516523D01*
X97280745Y-93520500D01*
X98969254Y-93520499D01*
X99026280Y-93509157D01*
X99090948Y-93465948D01*
X99094371Y-93460824D01*
X99097113Y-93456722D01*
X99134659Y-93431634D01*
X99146170Y-93430500D01*
X99639992Y-93430500D01*
X99681711Y-93447781D01*
X99692561Y-93462714D01*
X99696522Y-93470488D01*
X99696524Y-93470491D01*
X99779506Y-93553473D01*
X99779509Y-93553475D01*
X99779511Y-93553477D01*
X99884082Y-93606758D01*
X100000000Y-93625118D01*
X100115918Y-93606758D01*
X100220489Y-93553477D01*
X100303477Y-93470489D01*
X100356758Y-93365918D01*
X100375118Y-93250000D01*
X100356758Y-93134082D01*
X100303477Y-93029511D01*
X100303475Y-93029509D01*
X100303473Y-93029506D01*
X100220493Y-92946526D01*
X100220490Y-92946524D01*
X100220489Y-92946523D01*
X100115918Y-92893242D01*
X100000000Y-92874882D01*
X99999999Y-92874882D01*
X99931822Y-92885680D01*
X99887913Y-92875138D01*
X99864319Y-92836635D01*
X99864319Y-92818180D01*
X99875118Y-92750000D01*
X99856758Y-92634082D01*
X99803477Y-92529511D01*
X99803474Y-92529508D01*
X99803473Y-92529506D01*
X99720493Y-92446526D01*
X99720490Y-92446524D01*
X99720489Y-92446523D01*
X99615918Y-92393242D01*
X99500000Y-92374882D01*
X99384082Y-92393242D01*
X99279509Y-92446524D01*
X99279506Y-92446526D01*
X99196524Y-92529508D01*
X99196520Y-92529514D01*
X99195230Y-92532046D01*
X99160889Y-92561369D01*
X99115872Y-92557820D01*
X99093605Y-92538029D01*
X99090949Y-92534053D01*
X99090948Y-92534052D01*
X99026280Y-92490843D01*
X99026276Y-92490841D01*
X98969258Y-92479500D01*
X97280747Y-92479500D01*
X97223720Y-92490843D01*
X97223718Y-92490843D01*
X97216775Y-92495483D01*
X97172486Y-92504290D01*
X97134941Y-92479199D01*
X97125000Y-92446424D01*
X97125000Y-92053575D01*
X97142281Y-92011856D01*
X97184000Y-91994575D01*
X97216777Y-92004518D01*
X97223720Y-92009157D01*
X97223721Y-92009157D01*
X97223723Y-92009158D01*
X97261564Y-92016684D01*
X97280745Y-92020500D01*
X98969254Y-92020499D01*
X99026280Y-92009157D01*
X99090948Y-91965948D01*
X99093604Y-91961971D01*
X99131146Y-91936880D01*
X99175436Y-91945684D01*
X99195232Y-91967956D01*
X99196522Y-91970489D01*
X99279506Y-92053473D01*
X99279509Y-92053475D01*
X99279511Y-92053477D01*
X99384082Y-92106758D01*
X99500000Y-92125118D01*
X99615918Y-92106758D01*
X99720489Y-92053477D01*
X99803477Y-91970489D01*
X99856758Y-91865918D01*
X99875118Y-91750000D01*
X99864319Y-91681821D01*
X99874861Y-91637914D01*
X99913363Y-91614319D01*
X99931819Y-91614319D01*
X100000000Y-91625118D01*
X100115918Y-91606758D01*
X100220489Y-91553477D01*
X100303477Y-91470489D01*
X100356758Y-91365918D01*
X100375118Y-91250000D01*
X100356758Y-91134082D01*
X100303477Y-91029511D01*
X100303474Y-91029508D01*
X100303473Y-91029506D01*
X100220493Y-90946526D01*
X100220490Y-90946524D01*
X100220489Y-90946523D01*
X100115918Y-90893242D01*
X100000000Y-90874882D01*
X99884082Y-90893242D01*
X99779509Y-90946524D01*
X99779506Y-90946526D01*
X99696524Y-91029508D01*
X99696522Y-91029511D01*
X99692561Y-91037286D01*
X99658224Y-91066612D01*
X99639992Y-91069500D01*
X99146170Y-91069500D01*
X99104451Y-91052219D01*
X99097113Y-91043278D01*
X99090950Y-91034055D01*
X99090948Y-91034052D01*
X99026280Y-90990843D01*
X99026276Y-90990841D01*
X98969258Y-90979500D01*
X97280747Y-90979500D01*
X97223720Y-90990843D01*
X97223718Y-90990843D01*
X97216775Y-90995483D01*
X97172486Y-91004290D01*
X97134941Y-90979199D01*
X97125000Y-90946424D01*
X97125000Y-90553575D01*
X97142281Y-90511856D01*
X97184000Y-90494575D01*
X97216777Y-90504518D01*
X97223720Y-90509157D01*
X97223721Y-90509157D01*
X97223723Y-90509158D01*
X97261564Y-90516684D01*
X97280745Y-90520500D01*
X98969254Y-90520499D01*
X99026280Y-90509157D01*
X99090948Y-90465948D01*
X99094371Y-90460824D01*
X99097113Y-90456722D01*
X99134659Y-90431634D01*
X99146170Y-90430500D01*
X99639992Y-90430500D01*
X99681711Y-90447781D01*
X99692561Y-90462714D01*
X99696522Y-90470488D01*
X99696524Y-90470491D01*
X99779506Y-90553473D01*
X99779509Y-90553475D01*
X99779511Y-90553477D01*
X99884082Y-90606758D01*
X100000000Y-90625118D01*
X100115918Y-90606758D01*
X100220489Y-90553477D01*
X100303477Y-90470489D01*
X100356758Y-90365918D01*
X100375118Y-90250000D01*
X100356758Y-90134082D01*
X100303477Y-90029511D01*
X100303475Y-90029509D01*
X100303473Y-90029506D01*
X100220493Y-89946526D01*
X100220490Y-89946524D01*
X100220489Y-89946523D01*
X100115918Y-89893242D01*
X100000000Y-89874882D01*
X99999999Y-89874882D01*
X99931822Y-89885680D01*
X99887913Y-89875138D01*
X99864319Y-89836635D01*
X99864319Y-89818180D01*
X99875118Y-89750000D01*
X99856758Y-89634082D01*
X99803477Y-89529511D01*
X99803474Y-89529508D01*
X99803473Y-89529506D01*
X99720493Y-89446526D01*
X99720490Y-89446524D01*
X99720489Y-89446523D01*
X99615918Y-89393242D01*
X99500000Y-89374882D01*
X99384082Y-89393242D01*
X99279509Y-89446524D01*
X99279506Y-89446526D01*
X99196524Y-89529508D01*
X99196520Y-89529514D01*
X99195230Y-89532046D01*
X99160889Y-89561369D01*
X99115872Y-89557820D01*
X99093605Y-89538029D01*
X99090949Y-89534053D01*
X99090948Y-89534052D01*
X99026280Y-89490843D01*
X99026276Y-89490841D01*
X98969258Y-89479500D01*
X97280747Y-89479500D01*
X97223720Y-89490843D01*
X97223718Y-89490843D01*
X97216775Y-89495483D01*
X97172486Y-89504290D01*
X97134941Y-89479199D01*
X97125000Y-89446424D01*
X97125000Y-89053575D01*
X97142281Y-89011856D01*
X97184000Y-88994575D01*
X97216777Y-89004518D01*
X97223720Y-89009157D01*
X97223721Y-89009157D01*
X97223723Y-89009158D01*
X97261564Y-89016684D01*
X97280745Y-89020500D01*
X98969254Y-89020499D01*
X99026280Y-89009157D01*
X99090948Y-88965948D01*
X99093604Y-88961971D01*
X99131146Y-88936880D01*
X99175436Y-88945684D01*
X99195232Y-88967956D01*
X99196522Y-88970489D01*
X99279506Y-89053473D01*
X99279509Y-89053475D01*
X99279511Y-89053477D01*
X99384082Y-89106758D01*
X99500000Y-89125118D01*
X99615918Y-89106758D01*
X99720489Y-89053477D01*
X99803477Y-88970489D01*
X99856758Y-88865918D01*
X99875118Y-88750000D01*
X99864319Y-88681821D01*
X99874861Y-88637914D01*
X99913363Y-88614319D01*
X99931819Y-88614319D01*
X100000000Y-88625118D01*
X100115918Y-88606758D01*
X100220489Y-88553477D01*
X100303477Y-88470489D01*
X100356758Y-88365918D01*
X100375118Y-88250000D01*
X100356758Y-88134082D01*
X100303477Y-88029511D01*
X100303474Y-88029508D01*
X100303473Y-88029506D01*
X100220493Y-87946526D01*
X100220490Y-87946524D01*
X100220489Y-87946523D01*
X100115918Y-87893242D01*
X100000000Y-87874882D01*
X99884082Y-87893242D01*
X99779509Y-87946524D01*
X99779506Y-87946526D01*
X99696524Y-88029508D01*
X99696522Y-88029511D01*
X99692561Y-88037286D01*
X99658224Y-88066612D01*
X99639992Y-88069500D01*
X99146170Y-88069500D01*
X99104451Y-88052219D01*
X99097113Y-88043278D01*
X99090950Y-88034055D01*
X99090948Y-88034052D01*
X99026280Y-87990843D01*
X99026276Y-87990841D01*
X98969258Y-87979500D01*
X97280747Y-87979500D01*
X97223720Y-87990843D01*
X97223718Y-87990843D01*
X97216775Y-87995483D01*
X97172486Y-88004290D01*
X97134941Y-87979199D01*
X97125000Y-87946424D01*
X97125000Y-87353941D01*
X97142281Y-87312222D01*
X97184000Y-87294941D01*
X97199270Y-87296951D01*
X97305817Y-87325500D01*
X97444183Y-87325500D01*
X97577836Y-87289688D01*
X97697665Y-87220505D01*
X97795505Y-87122665D01*
X97864688Y-87002836D01*
X97900500Y-86869183D01*
X97900500Y-86730817D01*
X97864688Y-86597164D01*
X97795505Y-86477335D01*
X97795503Y-86477333D01*
X97795502Y-86477331D01*
X97697668Y-86379497D01*
X97577834Y-86310311D01*
X97444184Y-86274500D01*
X97444183Y-86274500D01*
X97305817Y-86274500D01*
X97305815Y-86274500D01*
X97172165Y-86310311D01*
X97052331Y-86379497D01*
X96954497Y-86477331D01*
X96885311Y-86597165D01*
X96849500Y-86730815D01*
X96849500Y-86869184D01*
X96885311Y-87002834D01*
X96954497Y-87122668D01*
X97031110Y-87199281D01*
X97048391Y-87241000D01*
X97031110Y-87282719D01*
X96989391Y-87300000D01*
X95125000Y-87300000D01*
X95125000Y-87946424D01*
X95107719Y-87988143D01*
X95066000Y-88005424D01*
X95033223Y-87995482D01*
X95026279Y-87990842D01*
X95026276Y-87990841D01*
X94969258Y-87979500D01*
X93280747Y-87979500D01*
X93223720Y-87990843D01*
X93159052Y-88034052D01*
X93159049Y-88034055D01*
X93152887Y-88043278D01*
X93115341Y-88068366D01*
X93103830Y-88069500D01*
X92214096Y-88069500D01*
X92214094Y-88069500D01*
X92214091Y-88069501D01*
X92194665Y-88077547D01*
X92194665Y-88077548D01*
X92147757Y-88096978D01*
X92147755Y-88096979D01*
X92147753Y-88096980D01*
X88346980Y-91897753D01*
X88346978Y-91897756D01*
X88333416Y-91930500D01*
X88327127Y-91945684D01*
X88319500Y-91964095D01*
X88319500Y-92721796D01*
X88302219Y-92763515D01*
X88260500Y-92780796D01*
X88218781Y-92763515D01*
X83552246Y-88096980D01*
X83552245Y-88096979D01*
X83505334Y-88077548D01*
X83505332Y-88077547D01*
X83485905Y-88069500D01*
X83485904Y-88069500D01*
X83146170Y-88069500D01*
X83104451Y-88052219D01*
X83097113Y-88043278D01*
X83090950Y-88034055D01*
X83090948Y-88034052D01*
X83026280Y-87990843D01*
X83026276Y-87990841D01*
X82969258Y-87979500D01*
X81280747Y-87979500D01*
X81223720Y-87990843D01*
X81223718Y-87990843D01*
X81216775Y-87995483D01*
X81172486Y-88004290D01*
X81134941Y-87979199D01*
X81125000Y-87946424D01*
X81125000Y-87353941D01*
X81142281Y-87312222D01*
X81184000Y-87294941D01*
X81199270Y-87296951D01*
X81305817Y-87325500D01*
X81444183Y-87325500D01*
X81577836Y-87289688D01*
X81697665Y-87220505D01*
X81795505Y-87122665D01*
X81864688Y-87002836D01*
X81900500Y-86869183D01*
X81900500Y-86730817D01*
X81864688Y-86597164D01*
X81795505Y-86477335D01*
X81795503Y-86477333D01*
X81795502Y-86477331D01*
X81697668Y-86379497D01*
X81577834Y-86310311D01*
X81444184Y-86274500D01*
X81444183Y-86274500D01*
X81305817Y-86274500D01*
X81305815Y-86274500D01*
X81172165Y-86310311D01*
X81052331Y-86379497D01*
X80954497Y-86477331D01*
X80885311Y-86597165D01*
X80849500Y-86730815D01*
X80849500Y-86869184D01*
X80885311Y-87002834D01*
X80954497Y-87122668D01*
X81031110Y-87199281D01*
X81048391Y-87241000D01*
X81031110Y-87282719D01*
X80989391Y-87300000D01*
X79125000Y-87300000D01*
X79125000Y-87946424D01*
X79107719Y-87988143D01*
X79066000Y-88005424D01*
X79033223Y-87995482D01*
X79026279Y-87990842D01*
X79026276Y-87990841D01*
X78969258Y-87979500D01*
X77280747Y-87979500D01*
X77223720Y-87990843D01*
X77159052Y-88034052D01*
X77159049Y-88034055D01*
X77152887Y-88043278D01*
X77115341Y-88068366D01*
X77103830Y-88069500D01*
X76743600Y-88069500D01*
X76701881Y-88052219D01*
X76691031Y-88037286D01*
X76687190Y-88029747D01*
X76687189Y-88029746D01*
X76687188Y-88029744D01*
X76604206Y-87946762D01*
X76604203Y-87946760D01*
X76604202Y-87946759D01*
X76499631Y-87893478D01*
X76383713Y-87875118D01*
X76267795Y-87893478D01*
X76163222Y-87946760D01*
X76163219Y-87946762D01*
X76080239Y-88029742D01*
X76080237Y-88029745D01*
X76078041Y-88034055D01*
X76026955Y-88134318D01*
X76008595Y-88250236D01*
X76026955Y-88366154D01*
X76080118Y-88470493D01*
X76080237Y-88470726D01*
X76080239Y-88470729D01*
X76163219Y-88553709D01*
X76163222Y-88553711D01*
X76163224Y-88553713D01*
X76267795Y-88606994D01*
X76336085Y-88617810D01*
X76374586Y-88641404D01*
X76385127Y-88685311D01*
X76374882Y-88750000D01*
X76393242Y-88865918D01*
X76445236Y-88967963D01*
X76446524Y-88970490D01*
X76446526Y-88970493D01*
X76529506Y-89053473D01*
X76529509Y-89053475D01*
X76529511Y-89053477D01*
X76634082Y-89106758D01*
X76750000Y-89125118D01*
X76865918Y-89106758D01*
X76970489Y-89053477D01*
X77053477Y-88970489D01*
X77054764Y-88967962D01*
X77089100Y-88938634D01*
X77134117Y-88942174D01*
X77156393Y-88961969D01*
X77159052Y-88965948D01*
X77223720Y-89009157D01*
X77223721Y-89009157D01*
X77223723Y-89009158D01*
X77261564Y-89016684D01*
X77280745Y-89020500D01*
X78969254Y-89020499D01*
X79026280Y-89009157D01*
X79033223Y-89004517D01*
X79077511Y-88995709D01*
X79115057Y-89020797D01*
X79125000Y-89053575D01*
X79125000Y-89446424D01*
X79107719Y-89488143D01*
X79066000Y-89505424D01*
X79033223Y-89495482D01*
X79026279Y-89490842D01*
X79026276Y-89490841D01*
X78969258Y-89479500D01*
X77280747Y-89479500D01*
X77223720Y-89490843D01*
X77159052Y-89534052D01*
X77159051Y-89534053D01*
X77156392Y-89538033D01*
X77118845Y-89563120D01*
X77074556Y-89554311D01*
X77054766Y-89532040D01*
X77053477Y-89529511D01*
X77053475Y-89529508D01*
X76970493Y-89446526D01*
X76970490Y-89446524D01*
X76970489Y-89446523D01*
X76865918Y-89393242D01*
X76750000Y-89374882D01*
X76634082Y-89393242D01*
X76529509Y-89446524D01*
X76529506Y-89446526D01*
X76446526Y-89529506D01*
X76446524Y-89529509D01*
X76393242Y-89634082D01*
X76374882Y-89750000D01*
X76385680Y-89818177D01*
X76375138Y-89862086D01*
X76336635Y-89885680D01*
X76318177Y-89885680D01*
X76250000Y-89874882D01*
X76134082Y-89893242D01*
X76029509Y-89946524D01*
X76029506Y-89946526D01*
X75946526Y-90029506D01*
X75946524Y-90029509D01*
X75946523Y-90029511D01*
X75893242Y-90134082D01*
X75874882Y-90250000D01*
X75893242Y-90365918D01*
X75946523Y-90470489D01*
X75946524Y-90470490D01*
X75946526Y-90470493D01*
X76029506Y-90553473D01*
X76029509Y-90553475D01*
X76029511Y-90553477D01*
X76134082Y-90606758D01*
X76250000Y-90625118D01*
X76365918Y-90606758D01*
X76470489Y-90553477D01*
X76553477Y-90470489D01*
X76555793Y-90465944D01*
X76557439Y-90462714D01*
X76591776Y-90433388D01*
X76610008Y-90430500D01*
X77103830Y-90430500D01*
X77145549Y-90447781D01*
X77152887Y-90456722D01*
X77156891Y-90462714D01*
X77159052Y-90465948D01*
X77223720Y-90509157D01*
X77223721Y-90509157D01*
X77223723Y-90509158D01*
X77261564Y-90516684D01*
X77280745Y-90520500D01*
X78969254Y-90520499D01*
X79026280Y-90509157D01*
X79033223Y-90504517D01*
X79077511Y-90495709D01*
X79115057Y-90520797D01*
X79125000Y-90553575D01*
X79125000Y-90946424D01*
X79107719Y-90988143D01*
X79066000Y-91005424D01*
X79033223Y-90995482D01*
X79026279Y-90990842D01*
X79026276Y-90990841D01*
X78969258Y-90979500D01*
X77280747Y-90979500D01*
X77223720Y-90990843D01*
X77159052Y-91034052D01*
X77159049Y-91034055D01*
X77152887Y-91043278D01*
X77115341Y-91068366D01*
X77103830Y-91069500D01*
X76610008Y-91069500D01*
X76568289Y-91052219D01*
X76557439Y-91037286D01*
X76553477Y-91029511D01*
X76553475Y-91029508D01*
X76470493Y-90946526D01*
X76470490Y-90946524D01*
X76470489Y-90946523D01*
X76365918Y-90893242D01*
X76250000Y-90874882D01*
X76134082Y-90893242D01*
X76029509Y-90946524D01*
X76029506Y-90946526D01*
X75946526Y-91029506D01*
X75946524Y-91029509D01*
X75946523Y-91029511D01*
X75893242Y-91134082D01*
X75874882Y-91250000D01*
X75893242Y-91365918D01*
X75946523Y-91470489D01*
X75946524Y-91470490D01*
X75946526Y-91470493D01*
X76029506Y-91553473D01*
X76029509Y-91553475D01*
X76029511Y-91553477D01*
X76134082Y-91606758D01*
X76250000Y-91625118D01*
X76318177Y-91614319D01*
X76362085Y-91624861D01*
X76385680Y-91663363D01*
X76385680Y-91681822D01*
X76385680Y-91681823D01*
X76374882Y-91750000D01*
X76393242Y-91865918D01*
X76445236Y-91967963D01*
X76446524Y-91970490D01*
X76446526Y-91970493D01*
X76529506Y-92053473D01*
X76529509Y-92053475D01*
X76529511Y-92053477D01*
X76634082Y-92106758D01*
X76750000Y-92125118D01*
X76865918Y-92106758D01*
X76970489Y-92053477D01*
X77053477Y-91970489D01*
X77054764Y-91967962D01*
X77089100Y-91938634D01*
X77134117Y-91942174D01*
X77156393Y-91961969D01*
X77159049Y-91965944D01*
X77159052Y-91965948D01*
X77223720Y-92009157D01*
X77223721Y-92009157D01*
X77223723Y-92009158D01*
X77261564Y-92016684D01*
X77280745Y-92020500D01*
X78969254Y-92020499D01*
X79026280Y-92009157D01*
X79033223Y-92004517D01*
X79077511Y-91995709D01*
X79115057Y-92020797D01*
X79125000Y-92053575D01*
X79125000Y-92446424D01*
X79107719Y-92488143D01*
X79066000Y-92505424D01*
X79033223Y-92495482D01*
X79026279Y-92490842D01*
X79026276Y-92490841D01*
X78969258Y-92479500D01*
X77280747Y-92479500D01*
X77223720Y-92490843D01*
X77159052Y-92534052D01*
X77159051Y-92534053D01*
X77156392Y-92538033D01*
X77118845Y-92563120D01*
X77074556Y-92554311D01*
X77054766Y-92532040D01*
X77053477Y-92529511D01*
X77053475Y-92529508D01*
X76970493Y-92446526D01*
X76970490Y-92446524D01*
X76970489Y-92446523D01*
X76865918Y-92393242D01*
X76750000Y-92374882D01*
X76634082Y-92393242D01*
X76529509Y-92446524D01*
X76529506Y-92446526D01*
X76446526Y-92529506D01*
X76446524Y-92529509D01*
X76393242Y-92634082D01*
X76374882Y-92750000D01*
X76385680Y-92818177D01*
X76375138Y-92862086D01*
X76336635Y-92885680D01*
X76318177Y-92885680D01*
X76250000Y-92874882D01*
X76134082Y-92893242D01*
X76029509Y-92946524D01*
X76029506Y-92946526D01*
X75946526Y-93029506D01*
X75946524Y-93029509D01*
X75946523Y-93029511D01*
X75893242Y-93134082D01*
X75874882Y-93250000D01*
X75893242Y-93365918D01*
X75946523Y-93470489D01*
X75946524Y-93470490D01*
X75946526Y-93470493D01*
X76029506Y-93553473D01*
X76029509Y-93553475D01*
X76029511Y-93553477D01*
X76134082Y-93606758D01*
X76250000Y-93625118D01*
X76365918Y-93606758D01*
X76470489Y-93553477D01*
X76553477Y-93470489D01*
X76555793Y-93465944D01*
X76557439Y-93462714D01*
X76591776Y-93433388D01*
X76610008Y-93430500D01*
X77103830Y-93430500D01*
X77145549Y-93447781D01*
X77152887Y-93456722D01*
X77156891Y-93462714D01*
X77159052Y-93465948D01*
X77223720Y-93509157D01*
X77223721Y-93509157D01*
X77223723Y-93509158D01*
X77260751Y-93516523D01*
X77280745Y-93520500D01*
X78969254Y-93520499D01*
X79026280Y-93509157D01*
X79033223Y-93504517D01*
X79077511Y-93495709D01*
X79115057Y-93520797D01*
X79125000Y-93553575D01*
X79125000Y-93946424D01*
X79107719Y-93988143D01*
X79066000Y-94005424D01*
X79033223Y-93995482D01*
X79026279Y-93990842D01*
X79026276Y-93990841D01*
X78969258Y-93979500D01*
X77280747Y-93979500D01*
X77223720Y-93990843D01*
X77159052Y-94034052D01*
X77159049Y-94034055D01*
X77152887Y-94043278D01*
X77115341Y-94068366D01*
X77103830Y-94069500D01*
X76610008Y-94069500D01*
X76568289Y-94052219D01*
X76557439Y-94037286D01*
X76553477Y-94029511D01*
X76553475Y-94029508D01*
X76470493Y-93946526D01*
X76470490Y-93946524D01*
X76470489Y-93946523D01*
X76365918Y-93893242D01*
X76250000Y-93874882D01*
X76134082Y-93893242D01*
X76029509Y-93946524D01*
X76029506Y-93946526D01*
X75946526Y-94029506D01*
X75946524Y-94029509D01*
X75909993Y-94101205D01*
X75893242Y-94134082D01*
X75874882Y-94250000D01*
X75893242Y-94365918D01*
X75946523Y-94470489D01*
X75946524Y-94470490D01*
X75946526Y-94470493D01*
X76029506Y-94553473D01*
X76029509Y-94553475D01*
X76029511Y-94553477D01*
X76134082Y-94606758D01*
X76250000Y-94625118D01*
X76318177Y-94614319D01*
X76362085Y-94624861D01*
X76385680Y-94663363D01*
X76385680Y-94681822D01*
X76385680Y-94681823D01*
X76374882Y-94750000D01*
X76393242Y-94865918D01*
X76445236Y-94967963D01*
X76446524Y-94970490D01*
X76446526Y-94970493D01*
X76529506Y-95053473D01*
X76529509Y-95053475D01*
X76529511Y-95053477D01*
X76634082Y-95106758D01*
X76750000Y-95125118D01*
X76865918Y-95106758D01*
X76970489Y-95053477D01*
X77053477Y-94970489D01*
X77054764Y-94967962D01*
X77089100Y-94938634D01*
X77134117Y-94942174D01*
X77156393Y-94961969D01*
X77159052Y-94965948D01*
X77223720Y-95009157D01*
X77223721Y-95009157D01*
X77223723Y-95009158D01*
X77261564Y-95016684D01*
X77280745Y-95020500D01*
X78969254Y-95020499D01*
X79026280Y-95009157D01*
X79033223Y-95004517D01*
X79077511Y-94995709D01*
X79115057Y-95020797D01*
X79125000Y-95053575D01*
X79125000Y-95446424D01*
X79107719Y-95488143D01*
X79066000Y-95505424D01*
X79033223Y-95495482D01*
X79026279Y-95490842D01*
X79026276Y-95490841D01*
X78969258Y-95479500D01*
X77280747Y-95479500D01*
X77223720Y-95490843D01*
X77159052Y-95534052D01*
X77159051Y-95534053D01*
X77156392Y-95538033D01*
X77118845Y-95563120D01*
X77074556Y-95554311D01*
X77054766Y-95532040D01*
X77053477Y-95529511D01*
X77053475Y-95529508D01*
X76970493Y-95446526D01*
X76970490Y-95446524D01*
X76970489Y-95446523D01*
X76865918Y-95393242D01*
X76750000Y-95374882D01*
X76634082Y-95393242D01*
X76529509Y-95446524D01*
X76529506Y-95446526D01*
X76446526Y-95529506D01*
X76446524Y-95529509D01*
X76393242Y-95634082D01*
X76374882Y-95750000D01*
X76385680Y-95818177D01*
X76375138Y-95862086D01*
X76336635Y-95885680D01*
X76318177Y-95885680D01*
X76250000Y-95874882D01*
X76134082Y-95893242D01*
X76029509Y-95946524D01*
X76029506Y-95946526D01*
X75946526Y-96029506D01*
X75946524Y-96029509D01*
X75946523Y-96029511D01*
X75893242Y-96134082D01*
X75874882Y-96250000D01*
X75893242Y-96365918D01*
X75946523Y-96470489D01*
X75946524Y-96470490D01*
X75946526Y-96470493D01*
X76029506Y-96553473D01*
X76029509Y-96553475D01*
X76029511Y-96553477D01*
X76134082Y-96606758D01*
X76250000Y-96625118D01*
X76365918Y-96606758D01*
X76470489Y-96553477D01*
X76553477Y-96470489D01*
X76555793Y-96465944D01*
X76557439Y-96462714D01*
X76591776Y-96433388D01*
X76610008Y-96430500D01*
X77103830Y-96430500D01*
X77145549Y-96447781D01*
X77152887Y-96456722D01*
X77156891Y-96462714D01*
X77159052Y-96465948D01*
X77223720Y-96509157D01*
X77223721Y-96509157D01*
X77223723Y-96509158D01*
X77261564Y-96516684D01*
X77280745Y-96520500D01*
X78969254Y-96520499D01*
X79026280Y-96509157D01*
X79033223Y-96504517D01*
X79077511Y-96495709D01*
X79115057Y-96520797D01*
X79125000Y-96553575D01*
X79125000Y-96946424D01*
X79107719Y-96988143D01*
X79066000Y-97005424D01*
X79033223Y-96995482D01*
X79026279Y-96990842D01*
X79026276Y-96990841D01*
X78969258Y-96979500D01*
X77280747Y-96979500D01*
X77223720Y-96990843D01*
X77159052Y-97034052D01*
X77159049Y-97034055D01*
X77152887Y-97043278D01*
X77115341Y-97068366D01*
X77103830Y-97069500D01*
X76610008Y-97069500D01*
X76568289Y-97052219D01*
X76557439Y-97037286D01*
X76553477Y-97029511D01*
X76553475Y-97029508D01*
X76470493Y-96946526D01*
X76470490Y-96946524D01*
X76470489Y-96946523D01*
X76365918Y-96893242D01*
X76250000Y-96874882D01*
X76134082Y-96893242D01*
X76029509Y-96946524D01*
X76029506Y-96946526D01*
X75946526Y-97029506D01*
X75946524Y-97029509D01*
X75946523Y-97029511D01*
X75893242Y-97134082D01*
X75874882Y-97250000D01*
X75893242Y-97365918D01*
X75946523Y-97470489D01*
X75946524Y-97470490D01*
X75946526Y-97470493D01*
X76029506Y-97553473D01*
X76029509Y-97553475D01*
X76029511Y-97553477D01*
X76134082Y-97606758D01*
X76250000Y-97625118D01*
X76318177Y-97614319D01*
X76362085Y-97624861D01*
X76385680Y-97663363D01*
X76385680Y-97681822D01*
X76385680Y-97681823D01*
X76374882Y-97750000D01*
X76393242Y-97865918D01*
X76446523Y-97970489D01*
X76446524Y-97970490D01*
X76446526Y-97970493D01*
X76529506Y-98053473D01*
X76529509Y-98053475D01*
X76529511Y-98053477D01*
X76634082Y-98106758D01*
X76750000Y-98125118D01*
X76865918Y-98106758D01*
X76970489Y-98053477D01*
X77053477Y-97970489D01*
X77054764Y-97967962D01*
X77089100Y-97938634D01*
X77134117Y-97942174D01*
X77156393Y-97961969D01*
X77159052Y-97965948D01*
X77223720Y-98009157D01*
X77223721Y-98009157D01*
X77223723Y-98009158D01*
X77261564Y-98016684D01*
X77280745Y-98020500D01*
X78969254Y-98020499D01*
X79026280Y-98009157D01*
X79033223Y-98004517D01*
X79077511Y-97995709D01*
X79115057Y-98020797D01*
X79125000Y-98053575D01*
X79125000Y-98446424D01*
X79107719Y-98488143D01*
X79066000Y-98505424D01*
X79033223Y-98495482D01*
X79026279Y-98490842D01*
X79026276Y-98490841D01*
X78969258Y-98479500D01*
X77280747Y-98479500D01*
X77223720Y-98490843D01*
X77159052Y-98534052D01*
X77159051Y-98534053D01*
X77156392Y-98538033D01*
X77118845Y-98563120D01*
X77074556Y-98554311D01*
X77054766Y-98532040D01*
X77053477Y-98529511D01*
X77053475Y-98529508D01*
X76970493Y-98446526D01*
X76970490Y-98446524D01*
X76970489Y-98446523D01*
X76865918Y-98393242D01*
X76750000Y-98374882D01*
X76634082Y-98393242D01*
X76529509Y-98446524D01*
X76529506Y-98446526D01*
X76446526Y-98529506D01*
X76446524Y-98529509D01*
X76393242Y-98634082D01*
X76374882Y-98750000D01*
X76385680Y-98818177D01*
X76375138Y-98862086D01*
X76336635Y-98885680D01*
X76318177Y-98885680D01*
X76250000Y-98874882D01*
X76134082Y-98893242D01*
X76029509Y-98946524D01*
X76029506Y-98946526D01*
X75946526Y-99029506D01*
X75946524Y-99029509D01*
X75946523Y-99029511D01*
X75893242Y-99134082D01*
X75874882Y-99250000D01*
X75893242Y-99365918D01*
X75946523Y-99470489D01*
X75946524Y-99470490D01*
X75946526Y-99470493D01*
X76029506Y-99553473D01*
X76029509Y-99553475D01*
X76029511Y-99553477D01*
X76134082Y-99606758D01*
X76250000Y-99625118D01*
X76365918Y-99606758D01*
X76470489Y-99553477D01*
X76553477Y-99470489D01*
X76555793Y-99465944D01*
X76557439Y-99462714D01*
X76591776Y-99433388D01*
X76610008Y-99430500D01*
X77103830Y-99430500D01*
X77145549Y-99447781D01*
X77152887Y-99456722D01*
X77156891Y-99462714D01*
X77159052Y-99465948D01*
X77223720Y-99509157D01*
X77223721Y-99509157D01*
X77223723Y-99509158D01*
X77261564Y-99516684D01*
X77280745Y-99520500D01*
X78969254Y-99520499D01*
X79026280Y-99509157D01*
X79033223Y-99504517D01*
X79077511Y-99495709D01*
X79115057Y-99520797D01*
X79125000Y-99553575D01*
X79125000Y-99946424D01*
X79107719Y-99988143D01*
X79066000Y-100005424D01*
X79033223Y-99995482D01*
X79026279Y-99990842D01*
X79026276Y-99990841D01*
X78969258Y-99979500D01*
X77280747Y-99979500D01*
X77223720Y-99990843D01*
X77159052Y-100034052D01*
X77159049Y-100034055D01*
X77152887Y-100043278D01*
X77115341Y-100068366D01*
X77103830Y-100069500D01*
X76610008Y-100069500D01*
X76568289Y-100052219D01*
X76557439Y-100037286D01*
X76553477Y-100029511D01*
X76553475Y-100029508D01*
X76470493Y-99946526D01*
X76470490Y-99946524D01*
X76470489Y-99946523D01*
X76365918Y-99893242D01*
X76250000Y-99874882D01*
X76134082Y-99893242D01*
X76029509Y-99946524D01*
X76029506Y-99946526D01*
X75946526Y-100029506D01*
X75946524Y-100029509D01*
X75946523Y-100029511D01*
X75893242Y-100134082D01*
X75874882Y-100250000D01*
X75893242Y-100365918D01*
X75946523Y-100470489D01*
X75946524Y-100470490D01*
X75946526Y-100470493D01*
X76029506Y-100553473D01*
X76029509Y-100553475D01*
X76029511Y-100553477D01*
X76134082Y-100606758D01*
X76250000Y-100625118D01*
X76318177Y-100614319D01*
X76362085Y-100624861D01*
X76385680Y-100663363D01*
X76385680Y-100681822D01*
X76385680Y-100681823D01*
X76374882Y-100750000D01*
X76393242Y-100865918D01*
X76446523Y-100970489D01*
X76446524Y-100970490D01*
X76446526Y-100970493D01*
X76529506Y-101053473D01*
X76529509Y-101053475D01*
X76529511Y-101053477D01*
X76634082Y-101106758D01*
X76750000Y-101125118D01*
X76865918Y-101106758D01*
X76970489Y-101053477D01*
X77053477Y-100970489D01*
X77054764Y-100967962D01*
X77089100Y-100938634D01*
X77134117Y-100942174D01*
X77156393Y-100961969D01*
X77159052Y-100965948D01*
X77223720Y-101009157D01*
X77223721Y-101009157D01*
X77223723Y-101009158D01*
X77261564Y-101016684D01*
X77280745Y-101020500D01*
X78969254Y-101020499D01*
X79026280Y-101009157D01*
X79033223Y-101004517D01*
X79077511Y-100995709D01*
X79115057Y-101020797D01*
X79125000Y-101053575D01*
X79125000Y-101446424D01*
X79107719Y-101488143D01*
X79066000Y-101505424D01*
X79033223Y-101495482D01*
X79026279Y-101490842D01*
X79026276Y-101490841D01*
X78969258Y-101479500D01*
X77280747Y-101479500D01*
X77223720Y-101490843D01*
X77159052Y-101534052D01*
X77159051Y-101534053D01*
X77156392Y-101538033D01*
X77118845Y-101563120D01*
X77074556Y-101554311D01*
X77054766Y-101532040D01*
X77053477Y-101529511D01*
X77053475Y-101529508D01*
X76970493Y-101446526D01*
X76970490Y-101446524D01*
X76970489Y-101446523D01*
X76865918Y-101393242D01*
X76750000Y-101374882D01*
X76634082Y-101393242D01*
X76529509Y-101446524D01*
X76529506Y-101446526D01*
X76446526Y-101529506D01*
X76446524Y-101529509D01*
X76393242Y-101634082D01*
X76374882Y-101750000D01*
X76385680Y-101818177D01*
X76375138Y-101862086D01*
X76336635Y-101885680D01*
X76318177Y-101885680D01*
X76250000Y-101874882D01*
X76134082Y-101893242D01*
X76029509Y-101946524D01*
X76029506Y-101946526D01*
X75946526Y-102029506D01*
X75946524Y-102029509D01*
X75946523Y-102029511D01*
X75893242Y-102134082D01*
X75874882Y-102250000D01*
X75893242Y-102365918D01*
X75946523Y-102470489D01*
X75946524Y-102470490D01*
X75946526Y-102470493D01*
X76029506Y-102553473D01*
X76029509Y-102553475D01*
X76029511Y-102553477D01*
X76134082Y-102606758D01*
X76250000Y-102625118D01*
X76365918Y-102606758D01*
X76470489Y-102553477D01*
X76553477Y-102470489D01*
X76555793Y-102465944D01*
X76557439Y-102462714D01*
X76591776Y-102433388D01*
X76610008Y-102430500D01*
X77103830Y-102430500D01*
X77145549Y-102447781D01*
X77152887Y-102456722D01*
X77156891Y-102462714D01*
X77159052Y-102465948D01*
X77223720Y-102509157D01*
X77223721Y-102509157D01*
X77223723Y-102509158D01*
X77261564Y-102516684D01*
X77280745Y-102520500D01*
X78969254Y-102520499D01*
X79026280Y-102509157D01*
X79033223Y-102504517D01*
X79077511Y-102495709D01*
X79115057Y-102520797D01*
X79125000Y-102553575D01*
X79125000Y-102946424D01*
X79107719Y-102988143D01*
X79066000Y-103005424D01*
X79033223Y-102995482D01*
X79026279Y-102990842D01*
X79026276Y-102990841D01*
X78969258Y-102979500D01*
X77280747Y-102979500D01*
X77223720Y-102990843D01*
X77159052Y-103034052D01*
X77159049Y-103034055D01*
X77152887Y-103043278D01*
X77115341Y-103068366D01*
X77103830Y-103069500D01*
X76610008Y-103069500D01*
X76568289Y-103052219D01*
X76557439Y-103037286D01*
X76553477Y-103029511D01*
X76553475Y-103029508D01*
X76470493Y-102946526D01*
X76470490Y-102946524D01*
X76470489Y-102946523D01*
X76365918Y-102893242D01*
X76250000Y-102874882D01*
X76134082Y-102893242D01*
X76029509Y-102946524D01*
X76029506Y-102946526D01*
X75946526Y-103029506D01*
X75946524Y-103029509D01*
X75946523Y-103029511D01*
X75893242Y-103134082D01*
X75874882Y-103250000D01*
X75893242Y-103365918D01*
X75946523Y-103470489D01*
X75946524Y-103470490D01*
X75946526Y-103470493D01*
X76029506Y-103553473D01*
X76029509Y-103553475D01*
X76029511Y-103553477D01*
X76134082Y-103606758D01*
X76250000Y-103625118D01*
X76318177Y-103614319D01*
X76362085Y-103624861D01*
X76385680Y-103663363D01*
X76385680Y-103681822D01*
X76385680Y-103681823D01*
X76374882Y-103750000D01*
X76393242Y-103865918D01*
X76446523Y-103970489D01*
X76446524Y-103970490D01*
X76446526Y-103970493D01*
X76529506Y-104053473D01*
X76529509Y-104053475D01*
X76529511Y-104053477D01*
X76634082Y-104106758D01*
X76750000Y-104125118D01*
X76865918Y-104106758D01*
X76970489Y-104053477D01*
X77053477Y-103970489D01*
X77054764Y-103967962D01*
X77089100Y-103938634D01*
X77134117Y-103942174D01*
X77156393Y-103961969D01*
X77159052Y-103965948D01*
X77223720Y-104009157D01*
X77223721Y-104009157D01*
X77223723Y-104009158D01*
X77261564Y-104016684D01*
X77280745Y-104020500D01*
X78969254Y-104020499D01*
X79026280Y-104009157D01*
X79033223Y-104004517D01*
X79077511Y-103995709D01*
X79115057Y-104020797D01*
X79125000Y-104053575D01*
X79125000Y-104446424D01*
X79107719Y-104488143D01*
X79066000Y-104505424D01*
X79033223Y-104495482D01*
X79026279Y-104490842D01*
X79026276Y-104490841D01*
X78969258Y-104479500D01*
X77280747Y-104479500D01*
X77223720Y-104490843D01*
X77159052Y-104534052D01*
X77159051Y-104534053D01*
X77156392Y-104538033D01*
X77118845Y-104563120D01*
X77074556Y-104554311D01*
X77054766Y-104532040D01*
X77053477Y-104529511D01*
X77053475Y-104529508D01*
X76970493Y-104446526D01*
X76970490Y-104446524D01*
X76970489Y-104446523D01*
X76865918Y-104393242D01*
X76750000Y-104374882D01*
X76634082Y-104393242D01*
X76529509Y-104446524D01*
X76529506Y-104446526D01*
X76446526Y-104529506D01*
X76446524Y-104529509D01*
X76393242Y-104634082D01*
X76374882Y-104750000D01*
X76385680Y-104818177D01*
X76375138Y-104862086D01*
X76336635Y-104885680D01*
X76318177Y-104885680D01*
X76250000Y-104874882D01*
X76134082Y-104893242D01*
X76029509Y-104946524D01*
X76029506Y-104946526D01*
X75946526Y-105029506D01*
X75946524Y-105029509D01*
X75946523Y-105029511D01*
X75893242Y-105134082D01*
X75874882Y-105250000D01*
X75893242Y-105365918D01*
X75946523Y-105470489D01*
X75946524Y-105470490D01*
X75946526Y-105470493D01*
X76029506Y-105553473D01*
X76029509Y-105553475D01*
X76029511Y-105553477D01*
X76134082Y-105606758D01*
X76250000Y-105625118D01*
X76365918Y-105606758D01*
X76470489Y-105553477D01*
X76553477Y-105470489D01*
X76555793Y-105465944D01*
X76557439Y-105462714D01*
X76591776Y-105433388D01*
X76610008Y-105430500D01*
X77103830Y-105430500D01*
X77145549Y-105447781D01*
X77152887Y-105456722D01*
X77156891Y-105462714D01*
X77159052Y-105465948D01*
X77223720Y-105509157D01*
X77223721Y-105509157D01*
X77223723Y-105509158D01*
X77261564Y-105516684D01*
X77280745Y-105520500D01*
X78969254Y-105520499D01*
X79026280Y-105509157D01*
X79033223Y-105504517D01*
X79077511Y-105495709D01*
X79115057Y-105520797D01*
X79125000Y-105553575D01*
X79125000Y-105946424D01*
X79107719Y-105988143D01*
X79066000Y-106005424D01*
X79033223Y-105995482D01*
X79026279Y-105990842D01*
X79026276Y-105990841D01*
X78969258Y-105979500D01*
X77280747Y-105979500D01*
X77223720Y-105990843D01*
X77159052Y-106034052D01*
X77159049Y-106034055D01*
X77152887Y-106043278D01*
X77115341Y-106068366D01*
X77103830Y-106069500D01*
X76610008Y-106069500D01*
X76568289Y-106052219D01*
X76557439Y-106037286D01*
X76553477Y-106029511D01*
X76553475Y-106029508D01*
X76470493Y-105946526D01*
X76470490Y-105946524D01*
X76470489Y-105946523D01*
X76365918Y-105893242D01*
X76250000Y-105874882D01*
X76134082Y-105893242D01*
X76029509Y-105946524D01*
X76029506Y-105946526D01*
X75946526Y-106029506D01*
X75946524Y-106029509D01*
X75946523Y-106029511D01*
X75893242Y-106134082D01*
X75874882Y-106250000D01*
X75893242Y-106365918D01*
X75946523Y-106470489D01*
X75946524Y-106470490D01*
X75946526Y-106470493D01*
X76029506Y-106553473D01*
X76029509Y-106553475D01*
X76029511Y-106553477D01*
X76134082Y-106606758D01*
X76250000Y-106625118D01*
X76365918Y-106606758D01*
X76470489Y-106553477D01*
X76553477Y-106470489D01*
X76555793Y-106465944D01*
X76557439Y-106462714D01*
X76591776Y-106433388D01*
X76610008Y-106430500D01*
X77103830Y-106430500D01*
X77145549Y-106447781D01*
X77152887Y-106456722D01*
X77156891Y-106462714D01*
X77159052Y-106465948D01*
X77223720Y-106509157D01*
X77223721Y-106509157D01*
X77223723Y-106509158D01*
X77261564Y-106516684D01*
X77280745Y-106520500D01*
X78969254Y-106520499D01*
X79026280Y-106509157D01*
X79033223Y-106504517D01*
X79077511Y-106495709D01*
X79115057Y-106520797D01*
X79125000Y-106553575D01*
X79125000Y-106946424D01*
X79107719Y-106988143D01*
X79066000Y-107005424D01*
X79033223Y-106995482D01*
X79026279Y-106990842D01*
X79026276Y-106990841D01*
X78969258Y-106979500D01*
X77280747Y-106979500D01*
X77223720Y-106990843D01*
X77223718Y-106990844D01*
X77180746Y-107019557D01*
X77147968Y-107029500D01*
X76677904Y-107029500D01*
X76636185Y-107012219D01*
X76570489Y-106946523D01*
X76465918Y-106893242D01*
X76350000Y-106874882D01*
X76234082Y-106893242D01*
X76129509Y-106946524D01*
X76129506Y-106946526D01*
X76046526Y-107029506D01*
X76046524Y-107029509D01*
X76046523Y-107029511D01*
X75993242Y-107134082D01*
X75974882Y-107250000D01*
X75993242Y-107365918D01*
X76034939Y-107447753D01*
X76047912Y-107473215D01*
X76051454Y-107518233D01*
X76047912Y-107526785D01*
X76046523Y-107529510D01*
X76046523Y-107529511D01*
X75993242Y-107634082D01*
X75974882Y-107750000D01*
X75993242Y-107865918D01*
X76046523Y-107970489D01*
X76046524Y-107970490D01*
X76046526Y-107970493D01*
X76129506Y-108053473D01*
X76129509Y-108053475D01*
X76129511Y-108053477D01*
X76234082Y-108106758D01*
X76350000Y-108125118D01*
X76465918Y-108106758D01*
X76570489Y-108053477D01*
X76636185Y-107987780D01*
X76677904Y-107970500D01*
X77147968Y-107970500D01*
X77180745Y-107980442D01*
X77223720Y-108009157D01*
X77223721Y-108009157D01*
X77223723Y-108009158D01*
X77261564Y-108016684D01*
X77280745Y-108020500D01*
X78969254Y-108020499D01*
X79026280Y-108009157D01*
X79033223Y-108004517D01*
X79077511Y-107995709D01*
X79115057Y-108020797D01*
X79125000Y-108053575D01*
X79125000Y-108446424D01*
X79107719Y-108488143D01*
X79066000Y-108505424D01*
X79033223Y-108495482D01*
X79026279Y-108490842D01*
X79026276Y-108490841D01*
X78969258Y-108479500D01*
X77280747Y-108479500D01*
X77223720Y-108490843D01*
X77223718Y-108490844D01*
X77180746Y-108519557D01*
X77147968Y-108529500D01*
X76672094Y-108529500D01*
X76630375Y-108512219D01*
X76570489Y-108452333D01*
X76465918Y-108399052D01*
X76350000Y-108380692D01*
X76234082Y-108399052D01*
X76129509Y-108452334D01*
X76129506Y-108452336D01*
X76046526Y-108535316D01*
X76046524Y-108535319D01*
X76046523Y-108535321D01*
X75993242Y-108639892D01*
X75974882Y-108755810D01*
X75993242Y-108871728D01*
X76046432Y-108976120D01*
X76049974Y-109021138D01*
X76046432Y-109029687D01*
X75993242Y-109134082D01*
X75974882Y-109250000D01*
X75993242Y-109365918D01*
X76046523Y-109470489D01*
X76046524Y-109470490D01*
X76046526Y-109470493D01*
X76129506Y-109553473D01*
X76129509Y-109553475D01*
X76129511Y-109553477D01*
X76234082Y-109606758D01*
X76350000Y-109625118D01*
X76465918Y-109606758D01*
X76570489Y-109553477D01*
X76636185Y-109487780D01*
X76677904Y-109470500D01*
X77147968Y-109470500D01*
X77180745Y-109480442D01*
X77223720Y-109509157D01*
X77223721Y-109509157D01*
X77223723Y-109509158D01*
X77261564Y-109516684D01*
X77280745Y-109520500D01*
X78969254Y-109520499D01*
X79026280Y-109509157D01*
X79033223Y-109504517D01*
X79077511Y-109495709D01*
X79115057Y-109520797D01*
X79125000Y-109553575D01*
X79125000Y-109946424D01*
X79107719Y-109988143D01*
X79066000Y-110005424D01*
X79033223Y-109995482D01*
X79026279Y-109990842D01*
X79026276Y-109990841D01*
X78969258Y-109979500D01*
X77280747Y-109979500D01*
X77223720Y-109990843D01*
X77159052Y-110034052D01*
X77115843Y-110098719D01*
X77115841Y-110098723D01*
X77104500Y-110155741D01*
X77104500Y-110179834D01*
X77087219Y-110221553D01*
X77045500Y-110238834D01*
X77016698Y-110231326D01*
X77000938Y-110222510D01*
X76933899Y-110202825D01*
X76933900Y-110202825D01*
X76876000Y-110194500D01*
X74224500Y-110194500D01*
X74224494Y-110194500D01*
X74180815Y-110199197D01*
X74180812Y-110199197D01*
X74172038Y-110201106D01*
X74127600Y-110193086D01*
X74101848Y-110155992D01*
X74100500Y-110143454D01*
X74100500Y-84854645D01*
X74101226Y-84845416D01*
X74111249Y-84782129D01*
X74116954Y-84764572D01*
X74143910Y-84711668D01*
X74154755Y-84696742D01*
X74196742Y-84654755D01*
X74211668Y-84643910D01*
X74264574Y-84616953D01*
X74282127Y-84611249D01*
X74345416Y-84601225D01*
X74354645Y-84600500D01*
X85973413Y-84600500D01*
X85973417Y-84600500D01*
X86167826Y-84569709D01*
X86355025Y-84508884D01*
X86530405Y-84419524D01*
X86689646Y-84303828D01*
X86828828Y-84164646D01*
X86944524Y-84005405D01*
X87033884Y-83830025D01*
X87094709Y-83642826D01*
X87125500Y-83448417D01*
X87125500Y-83350000D01*
X87125500Y-83284108D01*
X87125500Y-82954645D01*
X87126226Y-82945416D01*
X87136249Y-82882129D01*
X87141954Y-82864572D01*
X87168910Y-82811668D01*
X87179755Y-82796742D01*
X87221742Y-82754755D01*
X87236668Y-82743910D01*
X87289574Y-82716953D01*
X87307127Y-82711249D01*
X87370416Y-82701225D01*
X87379645Y-82700500D01*
X87440892Y-82700500D01*
X88809108Y-82700500D01*
X88870355Y-82700500D01*
X88879583Y-82701225D01*
G37*
%TD.AperFunction*%
%TA.AperFunction,Conductor*%
G36*
X91431452Y-93919139D02*
G01*
X91442303Y-93934073D01*
X91443241Y-93935915D01*
X91443242Y-93935918D01*
X91492994Y-94033562D01*
X91496524Y-94040491D01*
X91579506Y-94123473D01*
X91579509Y-94123475D01*
X91579511Y-94123477D01*
X91684082Y-94176758D01*
X91800000Y-94195118D01*
X91873771Y-94183433D01*
X91917681Y-94193973D01*
X91924721Y-94199987D01*
X92127755Y-94403021D01*
X92174665Y-94422451D01*
X92194096Y-94430500D01*
X92194097Y-94430500D01*
X92265903Y-94430500D01*
X93103830Y-94430500D01*
X93145549Y-94447781D01*
X93152889Y-94456724D01*
X93159904Y-94467224D01*
X93168711Y-94511514D01*
X93159904Y-94532776D01*
X93152889Y-94543276D01*
X93115344Y-94568366D01*
X93103830Y-94569500D01*
X92849415Y-94569500D01*
X92816244Y-94583240D01*
X92783074Y-94596979D01*
X92783072Y-94596980D01*
X92577227Y-94802824D01*
X92535508Y-94820105D01*
X92526279Y-94819379D01*
X92433976Y-94804760D01*
X92318058Y-94823120D01*
X92213485Y-94876402D01*
X92213482Y-94876404D01*
X92130502Y-94959384D01*
X92130498Y-94959389D01*
X92104516Y-95010382D01*
X92070178Y-95039709D01*
X92025162Y-95036166D01*
X91940918Y-94993242D01*
X91825000Y-94974882D01*
X91709082Y-94993242D01*
X91604509Y-95046524D01*
X91604506Y-95046526D01*
X91521526Y-95129506D01*
X91521524Y-95129509D01*
X91521523Y-95129511D01*
X91468242Y-95234082D01*
X91449882Y-95350000D01*
X91468242Y-95465918D01*
X91521523Y-95570489D01*
X91521524Y-95570490D01*
X91521526Y-95570493D01*
X91604506Y-95653473D01*
X91604509Y-95653475D01*
X91604511Y-95653477D01*
X91709082Y-95706758D01*
X91825000Y-95725118D01*
X91898771Y-95713433D01*
X91942681Y-95723973D01*
X91949722Y-95729987D01*
X92071980Y-95852245D01*
X92122755Y-95903020D01*
X92189096Y-95930500D01*
X93103830Y-95930500D01*
X93145549Y-95947781D01*
X93152889Y-95956724D01*
X93159904Y-95967224D01*
X93168711Y-96011514D01*
X93159904Y-96032776D01*
X93152889Y-96043276D01*
X93115344Y-96068366D01*
X93103830Y-96069500D01*
X92819110Y-96069500D01*
X92819108Y-96069500D01*
X92819105Y-96069501D01*
X92799679Y-96077547D01*
X92799679Y-96077548D01*
X92752769Y-96096979D01*
X92551066Y-96298681D01*
X92509347Y-96315961D01*
X92500118Y-96315235D01*
X92433976Y-96304760D01*
X92318058Y-96323120D01*
X92213485Y-96376402D01*
X92213482Y-96376404D01*
X92130502Y-96459384D01*
X92130498Y-96459389D01*
X92104516Y-96510382D01*
X92070178Y-96539709D01*
X92025162Y-96536166D01*
X91940918Y-96493242D01*
X91825000Y-96474882D01*
X91709082Y-96493242D01*
X91604509Y-96546524D01*
X91604506Y-96546526D01*
X91521526Y-96629506D01*
X91521524Y-96629509D01*
X91521523Y-96629511D01*
X91468242Y-96734082D01*
X91449882Y-96850000D01*
X91468242Y-96965918D01*
X91521523Y-97070489D01*
X91521524Y-97070490D01*
X91521526Y-97070493D01*
X91604506Y-97153473D01*
X91604509Y-97153475D01*
X91604511Y-97153477D01*
X91709082Y-97206758D01*
X91825000Y-97225118D01*
X91898771Y-97213433D01*
X91942681Y-97223973D01*
X91949722Y-97229987D01*
X92071980Y-97352245D01*
X92122755Y-97403020D01*
X92189096Y-97430500D01*
X93103830Y-97430500D01*
X93145549Y-97447781D01*
X93152889Y-97456724D01*
X93159904Y-97467224D01*
X93168711Y-97511514D01*
X93159904Y-97532776D01*
X93152889Y-97543276D01*
X93115344Y-97568366D01*
X93103830Y-97569500D01*
X92827950Y-97569500D01*
X92794779Y-97583240D01*
X92761609Y-97596979D01*
X92558697Y-97799890D01*
X92516978Y-97817170D01*
X92507749Y-97816444D01*
X92433976Y-97804760D01*
X92318058Y-97823120D01*
X92213485Y-97876402D01*
X92213482Y-97876404D01*
X92130502Y-97959384D01*
X92130498Y-97959389D01*
X92104516Y-98010382D01*
X92070178Y-98039709D01*
X92025162Y-98036166D01*
X91994413Y-98020499D01*
X91940918Y-97993242D01*
X91825000Y-97974882D01*
X91709082Y-97993242D01*
X91604509Y-98046524D01*
X91604506Y-98046526D01*
X91521526Y-98129506D01*
X91521524Y-98129509D01*
X91521523Y-98129511D01*
X91468242Y-98234082D01*
X91449882Y-98350000D01*
X91468242Y-98465918D01*
X91521523Y-98570489D01*
X91521524Y-98570490D01*
X91521526Y-98570493D01*
X91604506Y-98653473D01*
X91604509Y-98653475D01*
X91604511Y-98653477D01*
X91709082Y-98706758D01*
X91825000Y-98725118D01*
X91898771Y-98713433D01*
X91942681Y-98723973D01*
X91949722Y-98729987D01*
X92071980Y-98852245D01*
X92122755Y-98903020D01*
X92189096Y-98930500D01*
X93103830Y-98930500D01*
X93145549Y-98947781D01*
X93152889Y-98956724D01*
X93159904Y-98967224D01*
X93168711Y-99011514D01*
X93159904Y-99032776D01*
X93152889Y-99043276D01*
X93115344Y-99068366D01*
X93103830Y-99069500D01*
X92827950Y-99069500D01*
X92794779Y-99083240D01*
X92761609Y-99096979D01*
X92558697Y-99299890D01*
X92516978Y-99317170D01*
X92507749Y-99316444D01*
X92433976Y-99304760D01*
X92318058Y-99323120D01*
X92213485Y-99376402D01*
X92213482Y-99376404D01*
X92130502Y-99459384D01*
X92130498Y-99459389D01*
X92104516Y-99510382D01*
X92070178Y-99539709D01*
X92025162Y-99536166D01*
X91994413Y-99520499D01*
X91940918Y-99493242D01*
X91825000Y-99474882D01*
X91709082Y-99493242D01*
X91604509Y-99546524D01*
X91604506Y-99546526D01*
X91521526Y-99629506D01*
X91521524Y-99629509D01*
X91521523Y-99629511D01*
X91468242Y-99734082D01*
X91449882Y-99850000D01*
X91468242Y-99965918D01*
X91521523Y-100070489D01*
X91521524Y-100070490D01*
X91521526Y-100070493D01*
X91604506Y-100153473D01*
X91604509Y-100153475D01*
X91604511Y-100153477D01*
X91709082Y-100206758D01*
X91825000Y-100225118D01*
X91898771Y-100213433D01*
X91942681Y-100223973D01*
X91949722Y-100229987D01*
X92071980Y-100352245D01*
X92122755Y-100403020D01*
X92189096Y-100430500D01*
X93103830Y-100430500D01*
X93145549Y-100447781D01*
X93152889Y-100456724D01*
X93159904Y-100467224D01*
X93168711Y-100511514D01*
X93159904Y-100532776D01*
X93152889Y-100543276D01*
X93115344Y-100568366D01*
X93103830Y-100569500D01*
X92827950Y-100569500D01*
X92794779Y-100583240D01*
X92761609Y-100596979D01*
X92558697Y-100799890D01*
X92516978Y-100817170D01*
X92507749Y-100816444D01*
X92433976Y-100804760D01*
X92318058Y-100823120D01*
X92213485Y-100876402D01*
X92213482Y-100876404D01*
X92130502Y-100959384D01*
X92130498Y-100959389D01*
X92104516Y-101010382D01*
X92070178Y-101039709D01*
X92025162Y-101036166D01*
X91994413Y-101020499D01*
X91940918Y-100993242D01*
X91825000Y-100974882D01*
X91709082Y-100993242D01*
X91604509Y-101046524D01*
X91604506Y-101046526D01*
X91521526Y-101129506D01*
X91521524Y-101129509D01*
X91521523Y-101129511D01*
X91468242Y-101234082D01*
X91449882Y-101350000D01*
X91468242Y-101465918D01*
X91521523Y-101570489D01*
X91521524Y-101570490D01*
X91521526Y-101570493D01*
X91604506Y-101653473D01*
X91604509Y-101653475D01*
X91604511Y-101653477D01*
X91709082Y-101706758D01*
X91825000Y-101725118D01*
X91898771Y-101713433D01*
X91942681Y-101723973D01*
X91949722Y-101729987D01*
X92071980Y-101852245D01*
X92122755Y-101903020D01*
X92189096Y-101930500D01*
X93103830Y-101930500D01*
X93145549Y-101947781D01*
X93152889Y-101956724D01*
X93159904Y-101967224D01*
X93168711Y-102011514D01*
X93159904Y-102032776D01*
X93152889Y-102043276D01*
X93115344Y-102068366D01*
X93103830Y-102069500D01*
X92827950Y-102069500D01*
X92794779Y-102083240D01*
X92761609Y-102096979D01*
X92558697Y-102299890D01*
X92516978Y-102317170D01*
X92507749Y-102316444D01*
X92433976Y-102304760D01*
X92318058Y-102323120D01*
X92213485Y-102376402D01*
X92213482Y-102376404D01*
X92130502Y-102459384D01*
X92130498Y-102459389D01*
X92104516Y-102510382D01*
X92070178Y-102539709D01*
X92025162Y-102536166D01*
X91994413Y-102520499D01*
X91940918Y-102493242D01*
X91825000Y-102474882D01*
X91709082Y-102493242D01*
X91604509Y-102546524D01*
X91604506Y-102546526D01*
X91521526Y-102629506D01*
X91521524Y-102629509D01*
X91521523Y-102629511D01*
X91468242Y-102734082D01*
X91449882Y-102850000D01*
X91468242Y-102965918D01*
X91521523Y-103070489D01*
X91521524Y-103070490D01*
X91521526Y-103070493D01*
X91604506Y-103153473D01*
X91604509Y-103153475D01*
X91604511Y-103153477D01*
X91709082Y-103206758D01*
X91825000Y-103225118D01*
X91898771Y-103213433D01*
X91942681Y-103223973D01*
X91949722Y-103229987D01*
X92071980Y-103352245D01*
X92122755Y-103403020D01*
X92189096Y-103430500D01*
X93103830Y-103430500D01*
X93145549Y-103447781D01*
X93152889Y-103456724D01*
X93159904Y-103467224D01*
X93168711Y-103511514D01*
X93159904Y-103532776D01*
X93152889Y-103543276D01*
X93115344Y-103568366D01*
X93103830Y-103569500D01*
X92827950Y-103569500D01*
X92794779Y-103583240D01*
X92761609Y-103596979D01*
X92558697Y-103799890D01*
X92516978Y-103817170D01*
X92507749Y-103816444D01*
X92433976Y-103804760D01*
X92318058Y-103823120D01*
X92213485Y-103876402D01*
X92213482Y-103876404D01*
X92130502Y-103959384D01*
X92130498Y-103959389D01*
X92104516Y-104010382D01*
X92070178Y-104039709D01*
X92025162Y-104036166D01*
X91994413Y-104020499D01*
X91940918Y-103993242D01*
X91825000Y-103974882D01*
X91709082Y-103993242D01*
X91604509Y-104046524D01*
X91604506Y-104046526D01*
X91521526Y-104129506D01*
X91521524Y-104129509D01*
X91521523Y-104129511D01*
X91468242Y-104234082D01*
X91449882Y-104350000D01*
X91468242Y-104465918D01*
X91521523Y-104570489D01*
X91521524Y-104570490D01*
X91521526Y-104570493D01*
X91604506Y-104653473D01*
X91604509Y-104653475D01*
X91604511Y-104653477D01*
X91709082Y-104706758D01*
X91825000Y-104725118D01*
X91898771Y-104713433D01*
X91942681Y-104723973D01*
X91949722Y-104729987D01*
X92071980Y-104852245D01*
X92122755Y-104903020D01*
X92189096Y-104930500D01*
X93103830Y-104930500D01*
X93145549Y-104947781D01*
X93152889Y-104956724D01*
X93159904Y-104967224D01*
X93168711Y-105011514D01*
X93159904Y-105032776D01*
X93152889Y-105043276D01*
X93115344Y-105068366D01*
X93103830Y-105069500D01*
X92827950Y-105069500D01*
X92794779Y-105083240D01*
X92761609Y-105096979D01*
X92558697Y-105299890D01*
X92516978Y-105317170D01*
X92507749Y-105316444D01*
X92433976Y-105304760D01*
X92318058Y-105323120D01*
X92213485Y-105376402D01*
X92213482Y-105376404D01*
X92130502Y-105459384D01*
X92130500Y-105459387D01*
X92130499Y-105459389D01*
X92077218Y-105563960D01*
X92058858Y-105679878D01*
X92077218Y-105795796D01*
X92117514Y-105874882D01*
X92130500Y-105900368D01*
X92130502Y-105900371D01*
X92213482Y-105983351D01*
X92213485Y-105983353D01*
X92213487Y-105983355D01*
X92318058Y-106036636D01*
X92433976Y-106054996D01*
X92549894Y-106036636D01*
X92654465Y-105983355D01*
X92737453Y-105900367D01*
X92790734Y-105795796D01*
X92809094Y-105679878D01*
X92809093Y-105679875D01*
X92809094Y-105679874D01*
X92797409Y-105606104D01*
X92807950Y-105562195D01*
X92813950Y-105555168D01*
X92921340Y-105447779D01*
X92963058Y-105430500D01*
X93103830Y-105430500D01*
X93145549Y-105447781D01*
X93152887Y-105456722D01*
X93156891Y-105462714D01*
X93159052Y-105465948D01*
X93223720Y-105509157D01*
X93223721Y-105509157D01*
X93223723Y-105509158D01*
X93261564Y-105516684D01*
X93280745Y-105520500D01*
X94969254Y-105520499D01*
X95026280Y-105509157D01*
X95033223Y-105504517D01*
X95077511Y-105495709D01*
X95115057Y-105520797D01*
X95125000Y-105553575D01*
X95125000Y-105946424D01*
X95107719Y-105988143D01*
X95066000Y-106005424D01*
X95033223Y-105995482D01*
X95026279Y-105990842D01*
X95026276Y-105990841D01*
X94969258Y-105979500D01*
X93280747Y-105979500D01*
X93223720Y-105990843D01*
X93159052Y-106034052D01*
X93159049Y-106034055D01*
X93152887Y-106043278D01*
X93115341Y-106068366D01*
X93103830Y-106069500D01*
X92814096Y-106069500D01*
X92814094Y-106069500D01*
X92814091Y-106069501D01*
X92794665Y-106077547D01*
X92794665Y-106077548D01*
X92747757Y-106096978D01*
X92747755Y-106096979D01*
X92747753Y-106096980D01*
X91396979Y-107447753D01*
X91396978Y-107447755D01*
X91394009Y-107454924D01*
X91362078Y-107486855D01*
X91316922Y-107486855D01*
X91284991Y-107454924D01*
X91280500Y-107432346D01*
X91280500Y-94011091D01*
X91297780Y-93969373D01*
X91348014Y-93919138D01*
X91389733Y-93901858D01*
X91431452Y-93919139D01*
G37*
%TD.AperFunction*%
%TA.AperFunction,Conductor*%
G36*
X83371571Y-106447781D02*
G01*
X83698252Y-106774462D01*
X83715533Y-106816181D01*
X83698252Y-106857900D01*
X83656533Y-106875181D01*
X83652731Y-106874882D01*
X83650003Y-106874882D01*
X83650001Y-106874882D01*
X83650000Y-106874882D01*
X83534082Y-106893242D01*
X83429509Y-106946524D01*
X83396835Y-106979199D01*
X83363814Y-107012219D01*
X83322096Y-107029500D01*
X83102032Y-107029500D01*
X83069254Y-107019557D01*
X83026280Y-106990843D01*
X83026276Y-106990841D01*
X82969258Y-106979500D01*
X81280747Y-106979500D01*
X81223720Y-106990843D01*
X81223718Y-106990843D01*
X81216775Y-106995483D01*
X81172486Y-107004290D01*
X81134941Y-106979199D01*
X81125000Y-106946424D01*
X81125000Y-106553575D01*
X81142281Y-106511856D01*
X81184000Y-106494575D01*
X81216777Y-106504518D01*
X81223720Y-106509157D01*
X81223721Y-106509157D01*
X81223723Y-106509158D01*
X81261564Y-106516684D01*
X81280745Y-106520500D01*
X82969254Y-106520499D01*
X83026280Y-106509157D01*
X83090948Y-106465948D01*
X83094371Y-106460824D01*
X83097113Y-106456722D01*
X83134659Y-106431634D01*
X83146170Y-106430500D01*
X83329852Y-106430500D01*
X83371571Y-106447781D01*
G37*
%TD.AperFunction*%
%TA.AperFunction,Conductor*%
G36*
X93145549Y-106447781D02*
G01*
X93152887Y-106456722D01*
X93156891Y-106462714D01*
X93159052Y-106465948D01*
X93223720Y-106509157D01*
X93223721Y-106509157D01*
X93223723Y-106509158D01*
X93261564Y-106516684D01*
X93280745Y-106520500D01*
X94969254Y-106520499D01*
X95026280Y-106509157D01*
X95033223Y-106504517D01*
X95077511Y-106495709D01*
X95115057Y-106520797D01*
X95125000Y-106553575D01*
X95125000Y-106946424D01*
X95107719Y-106988143D01*
X95066000Y-107005424D01*
X95033223Y-106995482D01*
X95026279Y-106990842D01*
X95026276Y-106990841D01*
X94969258Y-106979500D01*
X93280747Y-106979500D01*
X93223720Y-106990843D01*
X93223718Y-106990844D01*
X93180746Y-107019557D01*
X93147968Y-107029500D01*
X92927904Y-107029500D01*
X92886185Y-107012219D01*
X92820489Y-106946523D01*
X92715918Y-106893242D01*
X92611104Y-106876640D01*
X92572603Y-106853046D01*
X92562061Y-106809137D01*
X92578614Y-106776650D01*
X92907485Y-106447781D01*
X92949204Y-106430500D01*
X93103830Y-106430500D01*
X93145549Y-106447781D01*
G37*
%TD.AperFunction*%
%TA.AperFunction,Conductor*%
G36*
X93145549Y-103947781D02*
G01*
X93152887Y-103956722D01*
X93156393Y-103961969D01*
X93159052Y-103965948D01*
X93223720Y-104009157D01*
X93223721Y-104009157D01*
X93223723Y-104009158D01*
X93261564Y-104016684D01*
X93280745Y-104020500D01*
X94969254Y-104020499D01*
X95026280Y-104009157D01*
X95033223Y-104004517D01*
X95077511Y-103995709D01*
X95115057Y-104020797D01*
X95125000Y-104053575D01*
X95125000Y-104446424D01*
X95107719Y-104488143D01*
X95066000Y-104505424D01*
X95033223Y-104495482D01*
X95026279Y-104490842D01*
X95026276Y-104490841D01*
X94969258Y-104479500D01*
X93280747Y-104479500D01*
X93223720Y-104490843D01*
X93159052Y-104534052D01*
X93159049Y-104534055D01*
X93152887Y-104543278D01*
X93115341Y-104568366D01*
X93103830Y-104569500D01*
X92710759Y-104569500D01*
X92669040Y-104552219D01*
X92651759Y-104510500D01*
X92669040Y-104468781D01*
X92737449Y-104400371D01*
X92737453Y-104400367D01*
X92790734Y-104295796D01*
X92809094Y-104179878D01*
X92809093Y-104179875D01*
X92809094Y-104179874D01*
X92797409Y-104106104D01*
X92807950Y-104062195D01*
X92813950Y-104055168D01*
X92921340Y-103947779D01*
X92963058Y-103930500D01*
X93103830Y-103930500D01*
X93145549Y-103947781D01*
G37*
%TD.AperFunction*%
%TA.AperFunction,Conductor*%
G36*
X93145549Y-102447781D02*
G01*
X93152887Y-102456722D01*
X93156891Y-102462714D01*
X93159052Y-102465948D01*
X93223720Y-102509157D01*
X93223721Y-102509157D01*
X93223723Y-102509158D01*
X93261564Y-102516684D01*
X93280745Y-102520500D01*
X94969254Y-102520499D01*
X95026280Y-102509157D01*
X95033223Y-102504517D01*
X95077511Y-102495709D01*
X95115057Y-102520797D01*
X95125000Y-102553575D01*
X95125000Y-102946424D01*
X95107719Y-102988143D01*
X95066000Y-103005424D01*
X95033223Y-102995482D01*
X95026279Y-102990842D01*
X95026276Y-102990841D01*
X94969258Y-102979500D01*
X93280747Y-102979500D01*
X93223720Y-102990843D01*
X93159052Y-103034052D01*
X93159049Y-103034055D01*
X93152887Y-103043278D01*
X93115341Y-103068366D01*
X93103830Y-103069500D01*
X92710759Y-103069500D01*
X92669040Y-103052219D01*
X92651759Y-103010500D01*
X92669040Y-102968781D01*
X92737449Y-102900371D01*
X92737453Y-102900367D01*
X92790734Y-102795796D01*
X92809094Y-102679878D01*
X92809093Y-102679875D01*
X92809094Y-102679874D01*
X92797409Y-102606104D01*
X92807950Y-102562195D01*
X92813950Y-102555168D01*
X92921340Y-102447779D01*
X92963058Y-102430500D01*
X93103830Y-102430500D01*
X93145549Y-102447781D01*
G37*
%TD.AperFunction*%
%TA.AperFunction,Conductor*%
G36*
X93145549Y-100947781D02*
G01*
X93152887Y-100956722D01*
X93156393Y-100961969D01*
X93159052Y-100965948D01*
X93223720Y-101009157D01*
X93223721Y-101009157D01*
X93223723Y-101009158D01*
X93261564Y-101016684D01*
X93280745Y-101020500D01*
X94969254Y-101020499D01*
X95026280Y-101009157D01*
X95033223Y-101004517D01*
X95077511Y-100995709D01*
X95115057Y-101020797D01*
X95125000Y-101053575D01*
X95125000Y-101446424D01*
X95107719Y-101488143D01*
X95066000Y-101505424D01*
X95033223Y-101495482D01*
X95026279Y-101490842D01*
X95026276Y-101490841D01*
X94969258Y-101479500D01*
X93280747Y-101479500D01*
X93223720Y-101490843D01*
X93159052Y-101534052D01*
X93159049Y-101534055D01*
X93152887Y-101543278D01*
X93115341Y-101568366D01*
X93103830Y-101569500D01*
X92710759Y-101569500D01*
X92669040Y-101552219D01*
X92651759Y-101510500D01*
X92669040Y-101468781D01*
X92737449Y-101400371D01*
X92737453Y-101400367D01*
X92790734Y-101295796D01*
X92809094Y-101179878D01*
X92809093Y-101179875D01*
X92809094Y-101179874D01*
X92797409Y-101106104D01*
X92807950Y-101062195D01*
X92813950Y-101055168D01*
X92921340Y-100947779D01*
X92963058Y-100930500D01*
X93103830Y-100930500D01*
X93145549Y-100947781D01*
G37*
%TD.AperFunction*%
%TA.AperFunction,Conductor*%
G36*
X93145549Y-99447781D02*
G01*
X93152887Y-99456722D01*
X93156891Y-99462714D01*
X93159052Y-99465948D01*
X93223720Y-99509157D01*
X93223721Y-99509157D01*
X93223723Y-99509158D01*
X93261564Y-99516684D01*
X93280745Y-99520500D01*
X94969254Y-99520499D01*
X95026280Y-99509157D01*
X95033223Y-99504517D01*
X95077511Y-99495709D01*
X95115057Y-99520797D01*
X95125000Y-99553575D01*
X95125000Y-99946424D01*
X95107719Y-99988143D01*
X95066000Y-100005424D01*
X95033223Y-99995482D01*
X95026279Y-99990842D01*
X95026276Y-99990841D01*
X94969258Y-99979500D01*
X93280747Y-99979500D01*
X93223720Y-99990843D01*
X93159052Y-100034052D01*
X93159049Y-100034055D01*
X93152887Y-100043278D01*
X93115341Y-100068366D01*
X93103830Y-100069500D01*
X92710759Y-100069500D01*
X92669040Y-100052219D01*
X92651759Y-100010500D01*
X92669040Y-99968781D01*
X92737449Y-99900371D01*
X92737453Y-99900367D01*
X92790734Y-99795796D01*
X92809094Y-99679878D01*
X92809093Y-99679875D01*
X92809094Y-99679874D01*
X92797409Y-99606104D01*
X92807950Y-99562195D01*
X92813950Y-99555168D01*
X92921340Y-99447779D01*
X92963058Y-99430500D01*
X93103830Y-99430500D01*
X93145549Y-99447781D01*
G37*
%TD.AperFunction*%
%TA.AperFunction,Conductor*%
G36*
X93145549Y-97947781D02*
G01*
X93152887Y-97956722D01*
X93156393Y-97961969D01*
X93159052Y-97965948D01*
X93223720Y-98009157D01*
X93223721Y-98009157D01*
X93223723Y-98009158D01*
X93261564Y-98016684D01*
X93280745Y-98020500D01*
X94969254Y-98020499D01*
X95026280Y-98009157D01*
X95033223Y-98004517D01*
X95077511Y-97995709D01*
X95115057Y-98020797D01*
X95125000Y-98053575D01*
X95125000Y-98446424D01*
X95107719Y-98488143D01*
X95066000Y-98505424D01*
X95033223Y-98495482D01*
X95026279Y-98490842D01*
X95026276Y-98490841D01*
X94969258Y-98479500D01*
X93280747Y-98479500D01*
X93223720Y-98490843D01*
X93159052Y-98534052D01*
X93159049Y-98534055D01*
X93152887Y-98543278D01*
X93115341Y-98568366D01*
X93103830Y-98569500D01*
X92710759Y-98569500D01*
X92669040Y-98552219D01*
X92651759Y-98510500D01*
X92669040Y-98468781D01*
X92737449Y-98400371D01*
X92737453Y-98400367D01*
X92790734Y-98295796D01*
X92809094Y-98179878D01*
X92809093Y-98179875D01*
X92809094Y-98179874D01*
X92797409Y-98106104D01*
X92807950Y-98062195D01*
X92813950Y-98055168D01*
X92921340Y-97947779D01*
X92963058Y-97930500D01*
X93103830Y-97930500D01*
X93145549Y-97947781D01*
G37*
%TD.AperFunction*%
%TA.AperFunction,Conductor*%
G36*
X93145549Y-96447781D02*
G01*
X93152887Y-96456722D01*
X93156891Y-96462714D01*
X93159052Y-96465948D01*
X93223720Y-96509157D01*
X93223721Y-96509157D01*
X93223723Y-96509158D01*
X93261564Y-96516684D01*
X93280745Y-96520500D01*
X94969254Y-96520499D01*
X95026280Y-96509157D01*
X95033223Y-96504517D01*
X95077511Y-96495709D01*
X95115057Y-96520797D01*
X95125000Y-96553575D01*
X95125000Y-96946424D01*
X95107719Y-96988143D01*
X95066000Y-97005424D01*
X95033223Y-96995482D01*
X95026279Y-96990842D01*
X95026276Y-96990841D01*
X94969258Y-96979500D01*
X93280747Y-96979500D01*
X93223720Y-96990843D01*
X93159052Y-97034052D01*
X93159049Y-97034055D01*
X93152887Y-97043278D01*
X93115341Y-97068366D01*
X93103830Y-97069500D01*
X92710759Y-97069500D01*
X92669040Y-97052219D01*
X92651759Y-97010500D01*
X92669040Y-96968781D01*
X92737449Y-96900371D01*
X92737453Y-96900367D01*
X92790734Y-96795796D01*
X92809094Y-96679878D01*
X92796200Y-96598473D01*
X92806740Y-96554564D01*
X92812741Y-96547537D01*
X92912500Y-96447779D01*
X92954218Y-96430500D01*
X93103830Y-96430500D01*
X93145549Y-96447781D01*
G37*
%TD.AperFunction*%
%TA.AperFunction,Conductor*%
G36*
X93145549Y-94947781D02*
G01*
X93152887Y-94956722D01*
X93156393Y-94961969D01*
X93159052Y-94965948D01*
X93223720Y-95009157D01*
X93223721Y-95009157D01*
X93223723Y-95009158D01*
X93261564Y-95016684D01*
X93280745Y-95020500D01*
X94969254Y-95020499D01*
X95026280Y-95009157D01*
X95033223Y-95004517D01*
X95077511Y-94995709D01*
X95115057Y-95020797D01*
X95125000Y-95053575D01*
X95125000Y-95446424D01*
X95107719Y-95488143D01*
X95066000Y-95505424D01*
X95033223Y-95495482D01*
X95026279Y-95490842D01*
X95026276Y-95490841D01*
X94969258Y-95479500D01*
X93280747Y-95479500D01*
X93223720Y-95490843D01*
X93159052Y-95534052D01*
X93159049Y-95534055D01*
X93152887Y-95543278D01*
X93115341Y-95568366D01*
X93103830Y-95569500D01*
X92710759Y-95569500D01*
X92669040Y-95552219D01*
X92651759Y-95510500D01*
X92669040Y-95468781D01*
X92737449Y-95400371D01*
X92737453Y-95400367D01*
X92790734Y-95295796D01*
X92809094Y-95179878D01*
X92809093Y-95179875D01*
X92809094Y-95179874D01*
X92800344Y-95124634D01*
X92810885Y-95080725D01*
X92816885Y-95073698D01*
X92942805Y-94947779D01*
X92984523Y-94930500D01*
X93103830Y-94930500D01*
X93145549Y-94947781D01*
G37*
%TD.AperFunction*%
%TA.AperFunction,Conductor*%
G36*
X83740527Y-93447781D02*
G01*
X84088946Y-93796200D01*
X84106227Y-93837919D01*
X84088946Y-93879638D01*
X84047227Y-93896919D01*
X84037997Y-93896193D01*
X84022705Y-93893771D01*
X83929056Y-93878938D01*
X83813138Y-93897298D01*
X83708565Y-93950580D01*
X83708562Y-93950582D01*
X83625582Y-94033562D01*
X83625578Y-94033567D01*
X83623684Y-94037286D01*
X83589346Y-94066613D01*
X83571115Y-94069500D01*
X83146170Y-94069500D01*
X83104451Y-94052219D01*
X83097113Y-94043278D01*
X83090950Y-94034055D01*
X83090948Y-94034052D01*
X83026280Y-93990843D01*
X83026276Y-93990841D01*
X82969258Y-93979500D01*
X81280747Y-93979500D01*
X81223720Y-93990843D01*
X81223718Y-93990843D01*
X81216775Y-93995483D01*
X81172486Y-94004290D01*
X81134941Y-93979199D01*
X81125000Y-93946424D01*
X81125000Y-93553575D01*
X81142281Y-93511856D01*
X81184000Y-93494575D01*
X81216777Y-93504518D01*
X81223720Y-93509157D01*
X81223721Y-93509157D01*
X81223723Y-93509158D01*
X81260751Y-93516523D01*
X81280745Y-93520500D01*
X82969254Y-93520499D01*
X83026280Y-93509157D01*
X83090948Y-93465948D01*
X83094371Y-93460824D01*
X83097113Y-93456722D01*
X83134659Y-93431634D01*
X83146170Y-93430500D01*
X83698808Y-93430500D01*
X83740527Y-93447781D01*
G37*
%TD.AperFunction*%
%TA.AperFunction,Conductor*%
G36*
X93145549Y-93447781D02*
G01*
X93152887Y-93456722D01*
X93156891Y-93462714D01*
X93159052Y-93465948D01*
X93223720Y-93509157D01*
X93223721Y-93509157D01*
X93223723Y-93509158D01*
X93260751Y-93516523D01*
X93280745Y-93520500D01*
X94969254Y-93520499D01*
X95026280Y-93509157D01*
X95033223Y-93504517D01*
X95077511Y-93495709D01*
X95115057Y-93520797D01*
X95125000Y-93553575D01*
X95125000Y-93946424D01*
X95107719Y-93988143D01*
X95066000Y-94005424D01*
X95033223Y-93995482D01*
X95026279Y-93990842D01*
X95026276Y-93990841D01*
X94969258Y-93979500D01*
X93280747Y-93979500D01*
X93223720Y-93990843D01*
X93159052Y-94034052D01*
X93159049Y-94034055D01*
X93152887Y-94043278D01*
X93115341Y-94068366D01*
X93103830Y-94069500D01*
X92329204Y-94069500D01*
X92287485Y-94052219D01*
X92179987Y-93944721D01*
X92162706Y-93903002D01*
X92163433Y-93893771D01*
X92163517Y-93893242D01*
X92175118Y-93820000D01*
X92156758Y-93704082D01*
X92103477Y-93599511D01*
X92103475Y-93599509D01*
X92103473Y-93599506D01*
X92035186Y-93531219D01*
X92017905Y-93489500D01*
X92035186Y-93447781D01*
X92076905Y-93430500D01*
X93103830Y-93430500D01*
X93145549Y-93447781D01*
G37*
%TD.AperFunction*%
%TA.AperFunction,Conductor*%
G36*
X83492515Y-91947781D02*
G01*
X84013515Y-92468781D01*
X84030796Y-92510500D01*
X84013515Y-92552219D01*
X83971796Y-92569500D01*
X83146170Y-92569500D01*
X83104451Y-92552219D01*
X83097113Y-92543278D01*
X83090950Y-92534055D01*
X83090948Y-92534052D01*
X83026280Y-92490843D01*
X83026276Y-92490841D01*
X82969258Y-92479500D01*
X81280747Y-92479500D01*
X81223720Y-92490843D01*
X81223718Y-92490843D01*
X81216775Y-92495483D01*
X81172486Y-92504290D01*
X81134941Y-92479199D01*
X81125000Y-92446424D01*
X81125000Y-92053575D01*
X81142281Y-92011856D01*
X81184000Y-91994575D01*
X81216777Y-92004518D01*
X81223720Y-92009157D01*
X81223721Y-92009157D01*
X81223723Y-92009158D01*
X81261564Y-92016684D01*
X81280745Y-92020500D01*
X82969254Y-92020499D01*
X83026280Y-92009157D01*
X83090948Y-91965948D01*
X83094371Y-91960824D01*
X83097113Y-91956722D01*
X83134659Y-91931634D01*
X83146170Y-91930500D01*
X83450796Y-91930500D01*
X83492515Y-91947781D01*
G37*
%TD.AperFunction*%
%TA.AperFunction,Conductor*%
G36*
X93145549Y-91947781D02*
G01*
X93152887Y-91956722D01*
X93159049Y-91965944D01*
X93159052Y-91965948D01*
X93223720Y-92009157D01*
X93223721Y-92009157D01*
X93223723Y-92009158D01*
X93261564Y-92016684D01*
X93280745Y-92020500D01*
X94969254Y-92020499D01*
X95026280Y-92009157D01*
X95033223Y-92004517D01*
X95077511Y-91995709D01*
X95115057Y-92020797D01*
X95125000Y-92053575D01*
X95125000Y-92446424D01*
X95107719Y-92488143D01*
X95066000Y-92505424D01*
X95033223Y-92495482D01*
X95026279Y-92490842D01*
X95026276Y-92490841D01*
X94969258Y-92479500D01*
X93280747Y-92479500D01*
X93223720Y-92490843D01*
X93159052Y-92534052D01*
X93159049Y-92534055D01*
X93152887Y-92543278D01*
X93115341Y-92568366D01*
X93103830Y-92569500D01*
X91528204Y-92569500D01*
X91486485Y-92552219D01*
X91469204Y-92510500D01*
X91486485Y-92468781D01*
X92007485Y-91947781D01*
X92049204Y-91930500D01*
X93103830Y-91930500D01*
X93145549Y-91947781D01*
G37*
%TD.AperFunction*%
%TA.AperFunction,Conductor*%
G36*
X93145549Y-90447781D02*
G01*
X93152887Y-90456722D01*
X93156891Y-90462714D01*
X93159052Y-90465948D01*
X93223720Y-90509157D01*
X93223721Y-90509157D01*
X93223723Y-90509158D01*
X93261564Y-90516684D01*
X93280745Y-90520500D01*
X94969254Y-90520499D01*
X95026280Y-90509157D01*
X95033223Y-90504517D01*
X95077511Y-90495709D01*
X95115057Y-90520797D01*
X95125000Y-90553575D01*
X95125000Y-90946424D01*
X95107719Y-90988143D01*
X95066000Y-91005424D01*
X95033223Y-90995482D01*
X95026279Y-90990842D01*
X95026276Y-90990841D01*
X94969258Y-90979500D01*
X93280747Y-90979500D01*
X93223720Y-90990843D01*
X93159052Y-91034052D01*
X93159049Y-91034055D01*
X93152887Y-91043278D01*
X93115341Y-91068366D01*
X93103830Y-91069500D01*
X91664093Y-91069500D01*
X91633700Y-91082090D01*
X91588544Y-91082090D01*
X91556613Y-91050159D01*
X91556613Y-91005003D01*
X91569400Y-90985865D01*
X92107485Y-90447781D01*
X92149204Y-90430500D01*
X93103830Y-90430500D01*
X93145549Y-90447781D01*
G37*
%TD.AperFunction*%
%TA.AperFunction,Conductor*%
G36*
X83292515Y-90447781D02*
G01*
X83813515Y-90968781D01*
X83830796Y-91010500D01*
X83813515Y-91052219D01*
X83771796Y-91069500D01*
X83146170Y-91069500D01*
X83104451Y-91052219D01*
X83097113Y-91043278D01*
X83090950Y-91034055D01*
X83090948Y-91034052D01*
X83026280Y-90990843D01*
X83026276Y-90990841D01*
X82969258Y-90979500D01*
X81280747Y-90979500D01*
X81223720Y-90990843D01*
X81223718Y-90990843D01*
X81216775Y-90995483D01*
X81172486Y-91004290D01*
X81134941Y-90979199D01*
X81125000Y-90946424D01*
X81125000Y-90553575D01*
X81142281Y-90511856D01*
X81184000Y-90494575D01*
X81216777Y-90504518D01*
X81223720Y-90509157D01*
X81223721Y-90509157D01*
X81223723Y-90509158D01*
X81261564Y-90516684D01*
X81280745Y-90520500D01*
X82969254Y-90520499D01*
X83026280Y-90509157D01*
X83090948Y-90465948D01*
X83094371Y-90460824D01*
X83097113Y-90456722D01*
X83134659Y-90431634D01*
X83146170Y-90430500D01*
X83250796Y-90430500D01*
X83292515Y-90447781D01*
G37*
%TD.AperFunction*%
%TA.AperFunction,Conductor*%
G36*
X83292515Y-88947781D02*
G01*
X83813515Y-89468781D01*
X83830796Y-89510500D01*
X83813515Y-89552219D01*
X83771796Y-89569500D01*
X83146170Y-89569500D01*
X83104451Y-89552219D01*
X83097113Y-89543278D01*
X83090950Y-89534055D01*
X83090948Y-89534052D01*
X83026280Y-89490843D01*
X83026276Y-89490841D01*
X82969258Y-89479500D01*
X81280747Y-89479500D01*
X81223720Y-89490843D01*
X81223718Y-89490843D01*
X81216775Y-89495483D01*
X81172486Y-89504290D01*
X81134941Y-89479199D01*
X81125000Y-89446424D01*
X81125000Y-89053575D01*
X81142281Y-89011856D01*
X81184000Y-88994575D01*
X81216777Y-89004518D01*
X81223720Y-89009157D01*
X81223721Y-89009157D01*
X81223723Y-89009158D01*
X81261564Y-89016684D01*
X81280745Y-89020500D01*
X82969254Y-89020499D01*
X83026280Y-89009157D01*
X83090948Y-88965948D01*
X83094371Y-88960824D01*
X83097113Y-88956722D01*
X83134659Y-88931634D01*
X83146170Y-88930500D01*
X83250796Y-88930500D01*
X83292515Y-88947781D01*
G37*
%TD.AperFunction*%
%TA.AperFunction,Conductor*%
G36*
X93145549Y-88947781D02*
G01*
X93152887Y-88956722D01*
X93156393Y-88961969D01*
X93159052Y-88965948D01*
X93223720Y-89009157D01*
X93223721Y-89009157D01*
X93223723Y-89009158D01*
X93261564Y-89016684D01*
X93280745Y-89020500D01*
X94969254Y-89020499D01*
X95026280Y-89009157D01*
X95033223Y-89004517D01*
X95077511Y-88995709D01*
X95115057Y-89020797D01*
X95125000Y-89053575D01*
X95125000Y-89446424D01*
X95107719Y-89488143D01*
X95066000Y-89505424D01*
X95033223Y-89495482D01*
X95026279Y-89490842D01*
X95026276Y-89490841D01*
X94969258Y-89479500D01*
X93280747Y-89479500D01*
X93223720Y-89490843D01*
X93159052Y-89534052D01*
X93159049Y-89534055D01*
X93152887Y-89543278D01*
X93115341Y-89568366D01*
X93103830Y-89569500D01*
X91928204Y-89569500D01*
X91886485Y-89552219D01*
X91869204Y-89510500D01*
X91886485Y-89468781D01*
X92407485Y-88947781D01*
X92449204Y-88930500D01*
X93103830Y-88930500D01*
X93145549Y-88947781D01*
G37*
%TD.AperFunction*%
%TD*%
%TA.AperFunction,Conductor*%
%TO.N,+5V*%
G36*
X96938672Y-112817281D02*
G01*
X96955953Y-112859000D01*
X96948049Y-112888500D01*
X96885311Y-112997165D01*
X96849500Y-113130815D01*
X96849500Y-113269184D01*
X96880286Y-113384082D01*
X96885312Y-113402836D01*
X96941409Y-113500000D01*
X96954497Y-113522668D01*
X97052331Y-113620502D01*
X97052333Y-113620503D01*
X97052335Y-113620505D01*
X97172164Y-113689688D01*
X97305817Y-113725500D01*
X97444183Y-113725500D01*
X97577836Y-113689688D01*
X97697665Y-113620505D01*
X97795505Y-113522665D01*
X97864688Y-113402836D01*
X97900500Y-113269183D01*
X97900500Y-113130817D01*
X97864688Y-112997164D01*
X97801950Y-112888499D01*
X97796057Y-112843729D01*
X97823547Y-112807904D01*
X97853047Y-112800000D01*
X99541000Y-112800000D01*
X99582719Y-112817281D01*
X99600000Y-112859000D01*
X99600000Y-118675561D01*
X99582719Y-118717280D01*
X98800000Y-119499998D01*
X98800000Y-160441000D01*
X98782719Y-160482719D01*
X98741000Y-160500000D01*
X77559000Y-160500000D01*
X77517281Y-160482719D01*
X77500000Y-160441000D01*
X77500000Y-159259000D01*
X77517281Y-159217281D01*
X77559000Y-159200000D01*
X96800000Y-159200000D01*
X96800000Y-158973901D01*
X96800284Y-158968122D01*
X96800500Y-158965927D01*
X96800500Y-157783913D01*
X96800283Y-157781706D01*
X96800000Y-157775935D01*
X96800000Y-120459243D01*
X96817281Y-120417524D01*
X96859000Y-120400243D01*
X96885782Y-120406672D01*
X96984082Y-120456758D01*
X97100000Y-120475118D01*
X97215918Y-120456758D01*
X97320489Y-120403477D01*
X97403477Y-120320489D01*
X97456758Y-120215918D01*
X97475118Y-120100000D01*
X97456758Y-119984082D01*
X97403477Y-119879511D01*
X97403475Y-119879509D01*
X97403473Y-119879506D01*
X97320493Y-119796526D01*
X97320490Y-119796524D01*
X97320489Y-119796523D01*
X97215918Y-119743242D01*
X97100000Y-119724882D01*
X96984082Y-119743242D01*
X96885785Y-119793326D01*
X96840767Y-119796868D01*
X96806430Y-119767541D01*
X96800000Y-119740756D01*
X96800000Y-119677136D01*
X96817281Y-119635417D01*
X96820603Y-119632340D01*
X98053602Y-118575483D01*
X98082761Y-118562009D01*
X98115918Y-118556758D01*
X98115921Y-118556756D01*
X98115923Y-118556756D01*
X98169129Y-118529645D01*
X98220489Y-118503477D01*
X98303477Y-118420489D01*
X98351713Y-118325817D01*
X98365876Y-118307820D01*
X98900000Y-117850000D01*
X98900000Y-117600000D01*
X98834979Y-117534979D01*
X98824132Y-117520049D01*
X98823024Y-117517876D01*
X98803477Y-117479511D01*
X98803474Y-117479508D01*
X98803473Y-117479506D01*
X98720493Y-117396526D01*
X98720486Y-117396521D01*
X98679952Y-117375868D01*
X98665018Y-117365018D01*
X97617281Y-116317281D01*
X97600000Y-116275562D01*
X97600000Y-115349999D01*
X96650001Y-114400000D01*
X96650000Y-114400000D01*
X95309000Y-114400000D01*
X95267281Y-114382719D01*
X95250000Y-114341000D01*
X95250000Y-112859000D01*
X95267281Y-112817281D01*
X95309000Y-112800000D01*
X96896953Y-112800000D01*
X96938672Y-112817281D01*
G37*
%TD.AperFunction*%
%TD*%
%TA.AperFunction,Conductor*%
%TO.N,+3.3V*%
G36*
X80882719Y-112817281D02*
G01*
X80900000Y-112859000D01*
X80900000Y-112955914D01*
X80892096Y-112985413D01*
X80885313Y-112997160D01*
X80885311Y-112997165D01*
X80849500Y-113130815D01*
X80849500Y-113269184D01*
X80885311Y-113402835D01*
X80885312Y-113402837D01*
X80892094Y-113414582D01*
X80900000Y-113444084D01*
X80900000Y-114341000D01*
X80882719Y-114382719D01*
X80841000Y-114400000D01*
X78500000Y-114400000D01*
X78500000Y-117275561D01*
X78482719Y-117317280D01*
X78083990Y-117716008D01*
X78051502Y-117732562D01*
X77984087Y-117743240D01*
X77984083Y-117743241D01*
X77984082Y-117743242D01*
X77883275Y-117794604D01*
X77879509Y-117796524D01*
X77879506Y-117796526D01*
X77796526Y-117879506D01*
X77796524Y-117879509D01*
X77796523Y-117879511D01*
X77743242Y-117984082D01*
X77724882Y-118100000D01*
X77743242Y-118215918D01*
X77784312Y-118296523D01*
X77796524Y-118320490D01*
X77796526Y-118320493D01*
X77879506Y-118403473D01*
X77879509Y-118403475D01*
X77879511Y-118403477D01*
X77984082Y-118456758D01*
X78100000Y-118475118D01*
X78124533Y-118471232D01*
X78168442Y-118481772D01*
X78169585Y-118482624D01*
X79476840Y-119482289D01*
X79499482Y-119521358D01*
X79500000Y-119529156D01*
X79500000Y-157700000D01*
X96616086Y-157724914D01*
X96657780Y-157742255D01*
X96675000Y-157783914D01*
X96675000Y-158965922D01*
X96657719Y-159007641D01*
X96616000Y-159024922D01*
X96615923Y-159024922D01*
X77558923Y-159000076D01*
X77517226Y-158982741D01*
X77500000Y-158941076D01*
X77500000Y-119499999D01*
X76717281Y-118717280D01*
X76700000Y-118675561D01*
X76700000Y-112859000D01*
X76717281Y-112817281D01*
X76759000Y-112800000D01*
X80841000Y-112800000D01*
X80882719Y-112817281D01*
G37*
%TD.AperFunction*%
%TD*%
%TA.AperFunction,Conductor*%
%TO.N,+24V*%
G36*
X76943039Y-110419685D02*
G01*
X76988794Y-110472489D01*
X77000000Y-110524000D01*
X77000000Y-112470500D01*
X76980315Y-112537539D01*
X76927511Y-112583294D01*
X76876000Y-112594500D01*
X76758999Y-112594500D01*
X76743330Y-112597617D01*
X76719137Y-112600000D01*
X76500000Y-112600000D01*
X76500000Y-112819137D01*
X76497617Y-112843329D01*
X76494500Y-112858998D01*
X76494500Y-118675560D01*
X76497617Y-118691229D01*
X76500000Y-118715423D01*
X76500000Y-118800000D01*
X77258181Y-119558181D01*
X77291666Y-119619504D01*
X77294500Y-119645862D01*
X77294500Y-158941076D01*
X77297625Y-158956816D01*
X77300000Y-158980965D01*
X77300000Y-159219137D01*
X77297617Y-159243329D01*
X77294500Y-159258998D01*
X77294500Y-160440999D01*
X77297617Y-160456668D01*
X77300000Y-160480862D01*
X77300000Y-160700000D01*
X77519137Y-160700000D01*
X77543330Y-160702383D01*
X77558999Y-160705500D01*
X88200000Y-160705500D01*
X88200000Y-164900000D01*
X88100000Y-164900000D01*
X86401138Y-164900000D01*
X86359923Y-164891803D01*
X86359658Y-164892622D01*
X86355028Y-164891117D01*
X86355025Y-164891116D01*
X86284925Y-164868339D01*
X86167826Y-164830290D01*
X85973422Y-164799500D01*
X85973417Y-164799500D01*
X85940892Y-164799500D01*
X74359756Y-164799500D01*
X74340359Y-164797973D01*
X74292297Y-164790361D01*
X74255400Y-164778372D01*
X74220845Y-164760765D01*
X74189461Y-164737963D01*
X74162036Y-164710538D01*
X74139235Y-164679156D01*
X74121625Y-164644595D01*
X74109639Y-164607706D01*
X74102025Y-164559631D01*
X74100500Y-164540244D01*
X74100500Y-110524000D01*
X74120185Y-110456961D01*
X74172989Y-110411206D01*
X74224500Y-110400000D01*
X76876000Y-110400000D01*
X76943039Y-110419685D01*
G37*
%TD.AperFunction*%
%TD*%
%TA.AperFunction,Conductor*%
%TO.N,+24V*%
G36*
X102142539Y-110419685D02*
G01*
X102188294Y-110472489D01*
X102199500Y-110524000D01*
X102199500Y-164540244D01*
X102197973Y-164559642D01*
X102190361Y-164607702D01*
X102178372Y-164644600D01*
X102160766Y-164679153D01*
X102137963Y-164710538D01*
X102110538Y-164737963D01*
X102079153Y-164760766D01*
X102044600Y-164778372D01*
X102007702Y-164790361D01*
X101972884Y-164795875D01*
X101959640Y-164797973D01*
X101940244Y-164799500D01*
X90276578Y-164799500D01*
X90082173Y-164830290D01*
X89952704Y-164872358D01*
X89894975Y-164891116D01*
X89894971Y-164891117D01*
X89890342Y-164892622D01*
X89890076Y-164891803D01*
X89848862Y-164900000D01*
X88100000Y-164900000D01*
X88100000Y-160705500D01*
X98741001Y-160705500D01*
X98756670Y-160702383D01*
X98780863Y-160700000D01*
X99000000Y-160700000D01*
X99000000Y-160480862D01*
X99002383Y-160456668D01*
X99005500Y-160440999D01*
X99005500Y-119645862D01*
X99025185Y-119578823D01*
X99041819Y-119558181D01*
X99800000Y-118800000D01*
X99800000Y-118715423D01*
X99802383Y-118691229D01*
X99805500Y-118675560D01*
X99805500Y-112858999D01*
X99805499Y-112858998D01*
X99802383Y-112843329D01*
X99800000Y-112819137D01*
X99800000Y-112600000D01*
X99580863Y-112600000D01*
X99556670Y-112597617D01*
X99541001Y-112594500D01*
X99541000Y-112594500D01*
X99424000Y-112594500D01*
X99356961Y-112574815D01*
X99311206Y-112522011D01*
X99300000Y-112470500D01*
X99300000Y-110524000D01*
X99319685Y-110456961D01*
X99372489Y-110411206D01*
X99424000Y-110400000D01*
X102075500Y-110400000D01*
X102142539Y-110419685D01*
G37*
%TD.AperFunction*%
%TD*%
M02*
