ISO-10303-21;
HEADER;
FILE_DESCRIPTION(('KiCad electronic assembly'),'2;1');
FILE_NAME('Main Mezzanine Backplane.step','2026-01-13T22:10:49',(
    'Pcbnew'),('Kicad'),'Open CASCADE STEP processor 7.7',
  'KiCad to STEP converter','Unknown');
FILE_SCHEMA(('AUTOMOTIVE_DESIGN { 1 0 10303 214 1 1 1 1 }'));
ENDSEC;
DATA;
#1 = APPLICATION_PROTOCOL_DEFINITION('international standard',
  'automotive_design',2000,#2);
#2 = APPLICATION_CONTEXT(
  'core data for automotive mechanical design processes');
#3 = SHAPE_DEFINITION_REPRESENTATION(#4,#10);
#4 = PRODUCT_DEFINITION_SHAPE('','',#5);
#5 = PRODUCT_DEFINITION('design','',#6,#9);
#6 = PRODUCT_DEFINITION_FORMATION('','',#7);
#7 = PRODUCT('Main Mezzanine Backplane 1','Main Mezzanine Backplane 1',
  '',(#8));
#8 = PRODUCT_CONTEXT('',#2,'mechanical');
#9 = PRODUCT_DEFINITION_CONTEXT('part definition',#2,'design');
#10 = SHAPE_REPRESENTATION('',(#11,#15,#19,#23,#27,#31,#35,#39,#43),#47
  );
#11 = AXIS2_PLACEMENT_3D('',#12,#13,#14);
#12 = CARTESIAN_POINT('',(0.,0.,0.));
#13 = DIRECTION('',(0.,0.,1.));
#14 = DIRECTION('',(1.,0.,-0.));
#15 = AXIS2_PLACEMENT_3D('',#16,#17,#18);
#16 = CARTESIAN_POINT('',(216.,-65.5,1.65));
#17 = DIRECTION('',(-0.,0.,1.));
#18 = DIRECTION('',(1.110223024625E-16,-1.,0.));
#19 = AXIS2_PLACEMENT_3D('',#20,#21,#22);
#20 = CARTESIAN_POINT('',(202.,-98.5,1.65));
#21 = DIRECTION('',(-0.,0.,1.));
#22 = DIRECTION('',(1.110223024625E-16,-1.,0.));
#23 = AXIS2_PLACEMENT_3D('',#24,#25,#26);
#24 = CARTESIAN_POINT('',(207.,-131.5,1.65));
#25 = DIRECTION('',(-0.,0.,1.));
#26 = DIRECTION('',(1.110223024625E-16,-1.,0.));
#27 = AXIS2_PLACEMENT_3D('',#28,#29,#30);
#28 = CARTESIAN_POINT('',(202.,-65.5,1.65));
#29 = DIRECTION('',(-0.,0.,1.));
#30 = DIRECTION('',(1.110223024625E-16,-1.,0.));
#31 = AXIS2_PLACEMENT_3D('',#32,#33,#34);
#32 = CARTESIAN_POINT('',(216.,-98.5,1.65));
#33 = DIRECTION('',(-0.,0.,1.));
#34 = DIRECTION('',(1.110223024625E-16,-1.,0.));
#35 = AXIS2_PLACEMENT_3D('',#36,#37,#38);
#36 = CARTESIAN_POINT('',(194.,-98.85,-5.E-02));
#37 = DIRECTION('',(-1.359631073447E-32,1.,-1.110223024625E-16));
#38 = DIRECTION('',(1.,0.,-1.224646799147E-16));
#39 = AXIS2_PLACEMENT_3D('',#40,#41,#42);
#40 = CARTESIAN_POINT('',(225.,-98.85,-5.E-02));
#41 = DIRECTION('',(-1.359631073447E-32,1.,-1.110223024625E-16));
#42 = DIRECTION('',(1.,0.,-1.224646799147E-16));
#43 = AXIS2_PLACEMENT_3D('',#44,#45,#46);
#44 = CARTESIAN_POINT('',(0.,0.,0.));
#45 = DIRECTION('',(0.,0.,1.));
#46 = DIRECTION('',(1.,0.,-0.));
#47 = ( GEOMETRIC_REPRESENTATION_CONTEXT(3) 
GLOBAL_UNCERTAINTY_ASSIGNED_CONTEXT((#51)) GLOBAL_UNIT_ASSIGNED_CONTEXT(
(#48,#49,#50)) REPRESENTATION_CONTEXT('Context #1',
  '3D Context with UNIT and UNCERTAINTY') );
#48 = ( LENGTH_UNIT() NAMED_UNIT(*) SI_UNIT(.MILLI.,.METRE.) );
#49 = ( NAMED_UNIT(*) PLANE_ANGLE_UNIT() SI_UNIT($,.RADIAN.) );
#50 = ( NAMED_UNIT(*) SI_UNIT($,.STERADIAN.) SOLID_ANGLE_UNIT() );
#51 = UNCERTAINTY_MEASURE_WITH_UNIT(LENGTH_MEASURE(1.E-07),#48,
  'distance_accuracy_value','confusion accuracy');
#52 = PRODUCT_RELATED_PRODUCT_CATEGORY('part',$,(#7));
#53 = SHAPE_DEFINITION_REPRESENTATION(#54,#60);
#54 = PRODUCT_DEFINITION_SHAPE('','',#55);
#55 = PRODUCT_DEFINITION('design','',#56,#59);
#56 = PRODUCT_DEFINITION_FORMATION('','',#57);
#57 = PRODUCT('FPC-05FB-50PH20','FPC-05FB-50PH20','',(#58));
#58 = PRODUCT_CONTEXT('',#2,'mechanical');
#59 = PRODUCT_DEFINITION_CONTEXT('part definition',#2,'design');
#60 = SHAPE_REPRESENTATION('',(#11,#61),#65);
#61 = AXIS2_PLACEMENT_3D('',#62,#63,#64);
#62 = CARTESIAN_POINT('',(0.,0.,0.));
#63 = DIRECTION('',(0.,0.,1.));
#64 = DIRECTION('',(1.,0.,-0.));
#65 = ( GEOMETRIC_REPRESENTATION_CONTEXT(3) 
GLOBAL_UNCERTAINTY_ASSIGNED_CONTEXT((#69)) GLOBAL_UNIT_ASSIGNED_CONTEXT(
(#66,#67,#68)) REPRESENTATION_CONTEXT('Context #1',
  '3D Context with UNIT and UNCERTAINTY') );
#66 = ( LENGTH_UNIT() NAMED_UNIT(*) SI_UNIT(.MILLI.,.METRE.) );
#67 = ( NAMED_UNIT(*) PLANE_ANGLE_UNIT() SI_UNIT($,.RADIAN.) );
#68 = ( NAMED_UNIT(*) SI_UNIT($,.STERADIAN.) SOLID_ANGLE_UNIT() );
#69 = UNCERTAINTY_MEASURE_WITH_UNIT(LENGTH_MEASURE(1.E-07),#66,
  'distance_accuracy_value','confusion accuracy');
#70 = CONTEXT_DEPENDENT_SHAPE_REPRESENTATION(#71,#73);
#71 = ( REPRESENTATION_RELATIONSHIP('','',#60,#10) 
REPRESENTATION_RELATIONSHIP_WITH_TRANSFORMATION(#72) 
SHAPE_REPRESENTATION_RELATIONSHIP() );
#72 = ITEM_DEFINED_TRANSFORMATION('','',#11,#15);
#73 = PRODUCT_DEFINITION_SHAPE('Placement','Placement of an item',#74);
#74 = NEXT_ASSEMBLY_USAGE_OCCURRENCE('2','J6','',#5,#55,$);
#75 = PRODUCT_RELATED_PRODUCT_CATEGORY('part',$,(#57));
#76 = SHAPE_DEFINITION_REPRESENTATION(#77,#83);
#77 = PRODUCT_DEFINITION_SHAPE('','',#78);
#78 = PRODUCT_DEFINITION('design','',#79,#82);
#79 = PRODUCT_DEFINITION_FORMATION('','',#80);
#80 = PRODUCT('FPC-05FB-50PH20','FPC-05FB-50PH20','',(#81));
#81 = PRODUCT_CONTEXT('',#2,'mechanical');
#82 = PRODUCT_DEFINITION_CONTEXT('part definition',#2,'design');
#83 = SHAPE_REPRESENTATION('',(#11,#84,#432),#784);
#84 = MANIFOLD_SOLID_BREP('',#85);
#85 = CLOSED_SHELL('',(#86,#126,#157,#197,#228,#250,#285,#320,#353,#377,
    #401,#420));
#86 = ADVANCED_FACE('',(#87),#121,.F.);
#87 = FACE_BOUND('',#88,.T.);
#88 = EDGE_LOOP('',(#89,#99,#107,#115));
#89 = ORIENTED_EDGE('',*,*,#90,.F.);
#90 = EDGE_CURVE('',#91,#93,#95,.T.);
#91 = VERTEX_POINT('',#92);
#92 = CARTESIAN_POINT('',(13.619939227165,0.535893821096,2.));
#93 = VERTEX_POINT('',#94);
#94 = CARTESIAN_POINT('',(13.619939227165,1.146604093321,2.));
#95 = LINE('',#96,#97);
#96 = CARTESIAN_POINT('',(13.619939227165,0.267946910548,2.));
#97 = VECTOR('',#98,1.);
#98 = DIRECTION('',(0.,1.,0.));
#99 = ORIENTED_EDGE('',*,*,#100,.T.);
#100 = EDGE_CURVE('',#91,#101,#103,.T.);
#101 = VERTEX_POINT('',#102);
#102 = CARTESIAN_POINT('',(13.619939227165,0.535893821096,1.5));
#103 = LINE('',#104,#105);
#104 = CARTESIAN_POINT('',(13.619939227165,0.535893821096,2.));
#105 = VECTOR('',#106,1.);
#106 = DIRECTION('',(0.,0.,-1.));
#107 = ORIENTED_EDGE('',*,*,#108,.T.);
#108 = EDGE_CURVE('',#101,#109,#111,.T.);
#109 = VERTEX_POINT('',#110);
#110 = CARTESIAN_POINT('',(13.619939227165,1.146604093321,1.5));
#111 = LINE('',#112,#113);
#112 = CARTESIAN_POINT('',(13.619939227165,1.146604093321,1.5));
#113 = VECTOR('',#114,1.);
#114 = DIRECTION('',(0.,1.,0.));
#115 = ORIENTED_EDGE('',*,*,#116,.F.);
#116 = EDGE_CURVE('',#93,#109,#117,.T.);
#117 = LINE('',#118,#119);
#118 = CARTESIAN_POINT('',(13.619939227165,1.146604093321,2.));
#119 = VECTOR('',#120,1.);
#120 = DIRECTION('',(0.,0.,-1.));
#121 = PLANE('',#122);
#122 = AXIS2_PLACEMENT_3D('',#123,#124,#125);
#123 = CARTESIAN_POINT('',(13.619939227165,0.535893821096,2.));
#124 = DIRECTION('',(-1.,0.,0.));
#125 = DIRECTION('',(0.,1.,0.));
#126 = ADVANCED_FACE('',(#127),#152,.F.);
#127 = FACE_BOUND('',#128,.T.);
#128 = EDGE_LOOP('',(#129,#137,#145,#151));
#129 = ORIENTED_EDGE('',*,*,#130,.F.);
#130 = EDGE_CURVE('',#131,#91,#133,.T.);
#131 = VERTEX_POINT('',#132);
#132 = CARTESIAN_POINT('',(14.25,0.535893821096,2.));
#133 = LINE('',#134,#135);
#134 = CARTESIAN_POINT('',(7.125,0.535893821096,2.));
#135 = VECTOR('',#136,1.);
#136 = DIRECTION('',(-1.,-8.81044394836E-16,0.));
#137 = ORIENTED_EDGE('',*,*,#138,.F.);
#138 = EDGE_CURVE('',#139,#131,#141,.T.);
#139 = VERTEX_POINT('',#140);
#140 = CARTESIAN_POINT('',(14.25,0.535893821096,1.5));
#141 = LINE('',#142,#143);
#142 = CARTESIAN_POINT('',(14.25,0.535893821096,1.));
#143 = VECTOR('',#144,1.);
#144 = DIRECTION('',(0.,0.,1.));
#145 = ORIENTED_EDGE('',*,*,#146,.T.);
#146 = EDGE_CURVE('',#139,#101,#147,.T.);
#147 = LINE('',#148,#149);
#148 = CARTESIAN_POINT('',(13.619939227165,0.535893821096,1.5));
#149 = VECTOR('',#150,1.);
#150 = DIRECTION('',(-1.,-8.81044394836E-16,0.));
#151 = ORIENTED_EDGE('',*,*,#100,.F.);
#152 = PLANE('',#153);
#153 = AXIS2_PLACEMENT_3D('',#154,#155,#156);
#154 = CARTESIAN_POINT('',(14.25,0.535893821096,2.));
#155 = DIRECTION('',(8.81044394836E-16,-1.,0.));
#156 = DIRECTION('',(-1.,-8.81044394836E-16,0.));
#157 = ADVANCED_FACE('',(#158),#192,.F.);
#158 = FACE_BOUND('',#159,.T.);
#159 = EDGE_LOOP('',(#160,#170,#178,#186));
#160 = ORIENTED_EDGE('',*,*,#161,.F.);
#161 = EDGE_CURVE('',#162,#164,#166,.T.);
#162 = VERTEX_POINT('',#163);
#163 = CARTESIAN_POINT('',(-13.61993922716,0.535893821096,2.));
#164 = VERTEX_POINT('',#165);
#165 = CARTESIAN_POINT('',(-14.25,0.535893821096,2.));
#166 = LINE('',#167,#168);
#167 = CARTESIAN_POINT('',(-6.809969613582,0.535893821096,2.));
#168 = VECTOR('',#169,1.);
#169 = DIRECTION('',(-1.,0.,0.));
#170 = ORIENTED_EDGE('',*,*,#171,.T.);
#171 = EDGE_CURVE('',#162,#172,#174,.T.);
#172 = VERTEX_POINT('',#173);
#173 = CARTESIAN_POINT('',(-13.61993922716,0.535893821096,1.5));
#174 = LINE('',#175,#176);
#175 = CARTESIAN_POINT('',(-13.61993922716,0.535893821096,2.));
#176 = VECTOR('',#177,1.);
#177 = DIRECTION('',(0.,0.,-1.));
#178 = ORIENTED_EDGE('',*,*,#179,.T.);
#179 = EDGE_CURVE('',#172,#180,#182,.T.);
#180 = VERTEX_POINT('',#181);
#181 = CARTESIAN_POINT('',(-14.25,0.535893821096,1.5));
#182 = LINE('',#183,#184);
#183 = CARTESIAN_POINT('',(-14.25,0.535893821096,1.5));
#184 = VECTOR('',#185,1.);
#185 = DIRECTION('',(-1.,0.,0.));
#186 = ORIENTED_EDGE('',*,*,#187,.F.);
#187 = EDGE_CURVE('',#164,#180,#188,.T.);
#188 = LINE('',#189,#190);
#189 = CARTESIAN_POINT('',(-14.25,0.535893821096,1.));
#190 = VECTOR('',#191,1.);
#191 = DIRECTION('',(0.,0.,-1.));
#192 = PLANE('',#193);
#193 = AXIS2_PLACEMENT_3D('',#194,#195,#196);
#194 = CARTESIAN_POINT('',(-13.61993922716,0.535893821096,2.));
#195 = DIRECTION('',(0.,-1.,0.));
#196 = DIRECTION('',(-1.,0.,0.));
#197 = ADVANCED_FACE('',(#198),#223,.F.);
#198 = FACE_BOUND('',#199,.T.);
#199 = EDGE_LOOP('',(#200,#208,#216,#222));
#200 = ORIENTED_EDGE('',*,*,#201,.F.);
#201 = EDGE_CURVE('',#202,#162,#204,.T.);
#202 = VERTEX_POINT('',#203);
#203 = CARTESIAN_POINT('',(-13.61993922716,1.146604093321,2.));
#204 = LINE('',#205,#206);
#205 = CARTESIAN_POINT('',(-13.61993922716,0.573302046661,2.));
#206 = VECTOR('',#207,1.);
#207 = DIRECTION('',(0.,-1.,0.));
#208 = ORIENTED_EDGE('',*,*,#209,.T.);
#209 = EDGE_CURVE('',#202,#210,#212,.T.);
#210 = VERTEX_POINT('',#211);
#211 = CARTESIAN_POINT('',(-13.61993922716,1.146604093321,1.5));
#212 = LINE('',#213,#214);
#213 = CARTESIAN_POINT('',(-13.61993922716,1.146604093321,2.));
#214 = VECTOR('',#215,1.);
#215 = DIRECTION('',(0.,0.,-1.));
#216 = ORIENTED_EDGE('',*,*,#217,.T.);
#217 = EDGE_CURVE('',#210,#172,#218,.T.);
#218 = LINE('',#219,#220);
#219 = CARTESIAN_POINT('',(-13.61993922716,0.535893821096,1.5));
#220 = VECTOR('',#221,1.);
#221 = DIRECTION('',(0.,-1.,0.));
#222 = ORIENTED_EDGE('',*,*,#171,.F.);
#223 = PLANE('',#224);
#224 = AXIS2_PLACEMENT_3D('',#225,#226,#227);
#225 = CARTESIAN_POINT('',(-13.61993922716,1.146604093321,2.));
#226 = DIRECTION('',(1.,0.,0.));
#227 = DIRECTION('',(0.,-1.,0.));
#228 = ADVANCED_FACE('',(#229),#245,.F.);
#229 = FACE_BOUND('',#230,.T.);
#230 = EDGE_LOOP('',(#231,#237,#238,#244));
#231 = ORIENTED_EDGE('',*,*,#232,.F.);
#232 = EDGE_CURVE('',#93,#202,#233,.T.);
#233 = LINE('',#234,#235);
#234 = CARTESIAN_POINT('',(6.809969613582,1.146604093321,2.));
#235 = VECTOR('',#236,1.);
#236 = DIRECTION('',(-1.,-2.547329245812E-16,0.));
#237 = ORIENTED_EDGE('',*,*,#116,.T.);
#238 = ORIENTED_EDGE('',*,*,#239,.T.);
#239 = EDGE_CURVE('',#109,#210,#240,.T.);
#240 = LINE('',#241,#242);
#241 = CARTESIAN_POINT('',(-13.61993922716,1.146604093321,1.5));
#242 = VECTOR('',#243,1.);
#243 = DIRECTION('',(-1.,-2.547329245812E-16,0.));
#244 = ORIENTED_EDGE('',*,*,#209,.F.);
#245 = PLANE('',#246);
#246 = AXIS2_PLACEMENT_3D('',#247,#248,#249);
#247 = CARTESIAN_POINT('',(13.619939227165,1.146604093321,2.));
#248 = DIRECTION('',(2.547329245812E-16,-1.,0.));
#249 = DIRECTION('',(-1.,-2.547329245812E-16,0.));
#250 = ADVANCED_FACE('',(#251),#280,.F.);
#251 = FACE_BOUND('',#252,.T.);
#252 = EDGE_LOOP('',(#253,#254,#255,#256,#264,#272,#278,#279));
#253 = ORIENTED_EDGE('',*,*,#239,.F.);
#254 = ORIENTED_EDGE('',*,*,#108,.F.);
#255 = ORIENTED_EDGE('',*,*,#146,.F.);
#256 = ORIENTED_EDGE('',*,*,#257,.F.);
#257 = EDGE_CURVE('',#258,#139,#260,.T.);
#258 = VERTEX_POINT('',#259);
#259 = CARTESIAN_POINT('',(14.25,2.45,1.5));
#260 = LINE('',#261,#262);
#261 = CARTESIAN_POINT('',(14.25,-0.478526544726,1.5));
#262 = VECTOR('',#263,1.);
#263 = DIRECTION('',(0.,-1.,0.));
#264 = ORIENTED_EDGE('',*,*,#265,.F.);
#265 = EDGE_CURVE('',#266,#258,#268,.T.);
#266 = VERTEX_POINT('',#267);
#267 = CARTESIAN_POINT('',(-14.25,2.45,1.5));
#268 = LINE('',#269,#270);
#269 = CARTESIAN_POINT('',(7.125,2.45,1.5));
#270 = VECTOR('',#271,1.);
#271 = DIRECTION('',(1.,1.266043800011E-16,0.));
#272 = ORIENTED_EDGE('',*,*,#273,.F.);
#273 = EDGE_CURVE('',#180,#266,#274,.T.);
#274 = LINE('',#275,#276);
#275 = CARTESIAN_POINT('',(-14.25,1.971473455274,1.5));
#276 = VECTOR('',#277,1.);
#277 = DIRECTION('',(4.53152254949E-16,1.,0.));
#278 = ORIENTED_EDGE('',*,*,#179,.F.);
#279 = ORIENTED_EDGE('',*,*,#217,.F.);
#280 = PLANE('',#281);
#281 = AXIS2_PLACEMENT_3D('',#282,#283,#284);
#282 = CARTESIAN_POINT('',(0.,1.492946910548,1.5));
#283 = DIRECTION('',(0.,0.,-1.));
#284 = DIRECTION('',(-1.,0.,0.));
#285 = ADVANCED_FACE('',(#286),#315,.T.);
#286 = FACE_BOUND('',#287,.T.);
#287 = EDGE_LOOP('',(#288,#289,#290,#291,#292,#293,#301,#309));
#288 = ORIENTED_EDGE('',*,*,#130,.T.);
#289 = ORIENTED_EDGE('',*,*,#90,.T.);
#290 = ORIENTED_EDGE('',*,*,#232,.T.);
#291 = ORIENTED_EDGE('',*,*,#201,.T.);
#292 = ORIENTED_EDGE('',*,*,#161,.T.);
#293 = ORIENTED_EDGE('',*,*,#294,.T.);
#294 = EDGE_CURVE('',#164,#295,#297,.T.);
#295 = VERTEX_POINT('',#296);
#296 = CARTESIAN_POINT('',(-14.25,-2.45,2.));
#297 = LINE('',#298,#299);
#298 = CARTESIAN_POINT('',(-14.25,2.45,2.));
#299 = VECTOR('',#300,1.);
#300 = DIRECTION('',(-4.53152254949E-16,-1.,0.));
#301 = ORIENTED_EDGE('',*,*,#302,.T.);
#302 = EDGE_CURVE('',#295,#303,#305,.T.);
#303 = VERTEX_POINT('',#304);
#304 = CARTESIAN_POINT('',(14.25,-2.45,2.));
#305 = LINE('',#306,#307);
#306 = CARTESIAN_POINT('',(-14.25,-2.45,2.));
#307 = VECTOR('',#308,1.);
#308 = DIRECTION('',(1.,0.,0.));
#309 = ORIENTED_EDGE('',*,*,#310,.T.);
#310 = EDGE_CURVE('',#303,#131,#311,.T.);
#311 = LINE('',#312,#313);
#312 = CARTESIAN_POINT('',(14.25,-2.45,2.));
#313 = VECTOR('',#314,1.);
#314 = DIRECTION('',(0.,1.,0.));
#315 = PLANE('',#316);
#316 = AXIS2_PLACEMENT_3D('',#317,#318,#319);
#317 = CARTESIAN_POINT('',(0.,0.,2.));
#318 = DIRECTION('',(0.,0.,1.));
#319 = DIRECTION('',(1.,0.,-0.));
#320 = ADVANCED_FACE('',(#321),#348,.T.);
#321 = FACE_BOUND('',#322,.T.);
#322 = EDGE_LOOP('',(#323,#324,#325,#333,#341,#347));
#323 = ORIENTED_EDGE('',*,*,#187,.T.);
#324 = ORIENTED_EDGE('',*,*,#273,.T.);
#325 = ORIENTED_EDGE('',*,*,#326,.F.);
#326 = EDGE_CURVE('',#327,#266,#329,.T.);
#327 = VERTEX_POINT('',#328);
#328 = CARTESIAN_POINT('',(-14.25,2.45,0.));
#329 = LINE('',#330,#331);
#330 = CARTESIAN_POINT('',(-14.25,2.45,0.));
#331 = VECTOR('',#332,1.);
#332 = DIRECTION('',(0.,0.,1.));
#333 = ORIENTED_EDGE('',*,*,#334,.T.);
#334 = EDGE_CURVE('',#327,#335,#337,.T.);
#335 = VERTEX_POINT('',#336);
#336 = CARTESIAN_POINT('',(-14.25,-2.45,0.));
#337 = LINE('',#338,#339);
#338 = CARTESIAN_POINT('',(-14.25,2.45,0.));
#339 = VECTOR('',#340,1.);
#340 = DIRECTION('',(-4.53152254949E-16,-1.,0.));
#341 = ORIENTED_EDGE('',*,*,#342,.T.);
#342 = EDGE_CURVE('',#335,#295,#343,.T.);
#343 = LINE('',#344,#345);
#344 = CARTESIAN_POINT('',(-14.25,-2.45,0.));
#345 = VECTOR('',#346,1.);
#346 = DIRECTION('',(0.,0.,1.));
#347 = ORIENTED_EDGE('',*,*,#294,.F.);
#348 = PLANE('',#349);
#349 = AXIS2_PLACEMENT_3D('',#350,#351,#352);
#350 = CARTESIAN_POINT('',(-14.25,2.45,0.));
#351 = DIRECTION('',(-1.,4.53152254949E-16,0.));
#352 = DIRECTION('',(-4.53152254949E-16,-1.,0.));
#353 = ADVANCED_FACE('',(#354),#372,.T.);
#354 = FACE_BOUND('',#355,.T.);
#355 = EDGE_LOOP('',(#356,#364,#370,#371));
#356 = ORIENTED_EDGE('',*,*,#357,.T.);
#357 = EDGE_CURVE('',#335,#358,#360,.T.);
#358 = VERTEX_POINT('',#359);
#359 = CARTESIAN_POINT('',(14.25,-2.45,0.));
#360 = LINE('',#361,#362);
#361 = CARTESIAN_POINT('',(-14.25,-2.45,0.));
#362 = VECTOR('',#363,1.);
#363 = DIRECTION('',(1.,0.,0.));
#364 = ORIENTED_EDGE('',*,*,#365,.T.);
#365 = EDGE_CURVE('',#358,#303,#366,.T.);
#366 = LINE('',#367,#368);
#367 = CARTESIAN_POINT('',(14.25,-2.45,0.));
#368 = VECTOR('',#369,1.);
#369 = DIRECTION('',(0.,0.,1.));
#370 = ORIENTED_EDGE('',*,*,#302,.F.);
#371 = ORIENTED_EDGE('',*,*,#342,.F.);
#372 = PLANE('',#373);
#373 = AXIS2_PLACEMENT_3D('',#374,#375,#376);
#374 = CARTESIAN_POINT('',(-14.25,-2.45,0.));
#375 = DIRECTION('',(0.,-1.,0.));
#376 = DIRECTION('',(1.,0.,0.));
#377 = ADVANCED_FACE('',(#378),#396,.T.);
#378 = FACE_BOUND('',#379,.T.);
#379 = EDGE_LOOP('',(#380,#381,#389,#395));
#380 = ORIENTED_EDGE('',*,*,#265,.T.);
#381 = ORIENTED_EDGE('',*,*,#382,.F.);
#382 = EDGE_CURVE('',#383,#258,#385,.T.);
#383 = VERTEX_POINT('',#384);
#384 = CARTESIAN_POINT('',(14.25,2.45,0.));
#385 = LINE('',#386,#387);
#386 = CARTESIAN_POINT('',(14.25,2.45,0.));
#387 = VECTOR('',#388,1.);
#388 = DIRECTION('',(0.,0.,1.));
#389 = ORIENTED_EDGE('',*,*,#390,.T.);
#390 = EDGE_CURVE('',#383,#327,#391,.T.);
#391 = LINE('',#392,#393);
#392 = CARTESIAN_POINT('',(14.25,2.45,0.));
#393 = VECTOR('',#394,1.);
#394 = DIRECTION('',(-1.,-1.266043800011E-16,0.));
#395 = ORIENTED_EDGE('',*,*,#326,.T.);
#396 = PLANE('',#397);
#397 = AXIS2_PLACEMENT_3D('',#398,#399,#400);
#398 = CARTESIAN_POINT('',(14.25,2.45,0.));
#399 = DIRECTION('',(-1.266043800011E-16,1.,0.));
#400 = DIRECTION('',(-1.,-1.266043800011E-16,0.));
#401 = ADVANCED_FACE('',(#402),#415,.T.);
#402 = FACE_BOUND('',#403,.T.);
#403 = EDGE_LOOP('',(#404,#405,#406,#407,#413,#414));
#404 = ORIENTED_EDGE('',*,*,#138,.T.);
#405 = ORIENTED_EDGE('',*,*,#310,.F.);
#406 = ORIENTED_EDGE('',*,*,#365,.F.);
#407 = ORIENTED_EDGE('',*,*,#408,.T.);
#408 = EDGE_CURVE('',#358,#383,#409,.T.);
#409 = LINE('',#410,#411);
#410 = CARTESIAN_POINT('',(14.25,-2.45,0.));
#411 = VECTOR('',#412,1.);
#412 = DIRECTION('',(0.,1.,0.));
#413 = ORIENTED_EDGE('',*,*,#382,.T.);
#414 = ORIENTED_EDGE('',*,*,#257,.T.);
#415 = PLANE('',#416);
#416 = AXIS2_PLACEMENT_3D('',#417,#418,#419);
#417 = CARTESIAN_POINT('',(14.25,-2.45,0.));
#418 = DIRECTION('',(1.,0.,0.));
#419 = DIRECTION('',(-0.,1.,0.));
#420 = ADVANCED_FACE('',(#421),#427,.F.);
#421 = FACE_BOUND('',#422,.T.);
#422 = EDGE_LOOP('',(#423,#424,#425,#426));
#423 = ORIENTED_EDGE('',*,*,#408,.F.);
#424 = ORIENTED_EDGE('',*,*,#357,.F.);
#425 = ORIENTED_EDGE('',*,*,#334,.F.);
#426 = ORIENTED_EDGE('',*,*,#390,.F.);
#427 = PLANE('',#428);
#428 = AXIS2_PLACEMENT_3D('',#429,#430,#431);
#429 = CARTESIAN_POINT('',(0.,0.,0.));
#430 = DIRECTION('',(0.,0.,1.));
#431 = DIRECTION('',(1.,0.,-0.));
#432 = MANIFOLD_SOLID_BREP('',#433);
#433 = CLOSED_SHELL('',(#434,#476,#507,#580,#612,#636,#667,#684,#701,
    #725,#749,#766));
#434 = ADVANCED_FACE('',(#435),#471,.T.);
#435 = FACE_BOUND('',#436,.T.);
#436 = EDGE_LOOP('',(#437,#448,#456,#465));
#437 = ORIENTED_EDGE('',*,*,#438,.T.);
#438 = EDGE_CURVE('',#439,#441,#443,.T.);
#439 = VERTEX_POINT('',#440);
#440 = CARTESIAN_POINT('',(14.25,1.65,1.5));
#441 = VERTEX_POINT('',#442);
#442 = CARTESIAN_POINT('',(13.45,2.45,1.5));
#443 = CIRCLE('',#444,0.8);
#444 = AXIS2_PLACEMENT_3D('',#445,#446,#447);
#445 = CARTESIAN_POINT('',(13.45,1.65,1.5));
#446 = DIRECTION('',(0.,0.,1.));
#447 = DIRECTION('',(0.707106781187,0.707106781187,-0.));
#448 = ORIENTED_EDGE('',*,*,#449,.T.);
#449 = EDGE_CURVE('',#441,#450,#452,.T.);
#450 = VERTEX_POINT('',#451);
#451 = CARTESIAN_POINT('',(13.45,2.45,2.));
#452 = LINE('',#453,#454);
#453 = CARTESIAN_POINT('',(13.45,2.45,2.));
#454 = VECTOR('',#455,1.);
#455 = DIRECTION('',(0.,0.,1.));
#456 = ORIENTED_EDGE('',*,*,#457,.T.);
#457 = EDGE_CURVE('',#450,#458,#460,.T.);
#458 = VERTEX_POINT('',#459);
#459 = CARTESIAN_POINT('',(14.25,1.65,2.));
#460 = CIRCLE('',#461,0.8);
#461 = AXIS2_PLACEMENT_3D('',#462,#463,#464);
#462 = CARTESIAN_POINT('',(13.45,1.65,2.));
#463 = DIRECTION('',(0.,0.,-1.));
#464 = DIRECTION('',(0.707106781187,0.707106781187,0.));
#465 = ORIENTED_EDGE('',*,*,#466,.T.);
#466 = EDGE_CURVE('',#458,#439,#467,.T.);
#467 = LINE('',#468,#469);
#468 = CARTESIAN_POINT('',(14.25,1.65,2.));
#469 = VECTOR('',#470,1.);
#470 = DIRECTION('',(0.,0.,-1.));
#471 = CYLINDRICAL_SURFACE('',#472,0.8);
#472 = AXIS2_PLACEMENT_3D('',#473,#474,#475);
#473 = CARTESIAN_POINT('',(13.45,1.65,2.));
#474 = DIRECTION('',(0.,0.,-1.));
#475 = DIRECTION('',(0.707106781187,0.707106781187,0.));
#476 = ADVANCED_FACE('',(#477),#502,.T.);
#477 = FACE_BOUND('',#478,.T.);
#478 = EDGE_LOOP('',(#479,#480,#488,#496));
#479 = ORIENTED_EDGE('',*,*,#466,.F.);
#480 = ORIENTED_EDGE('',*,*,#481,.F.);
#481 = EDGE_CURVE('',#482,#458,#484,.T.);
#482 = VERTEX_POINT('',#483);
#483 = CARTESIAN_POINT('',(14.25,0.535893821096,2.));
#484 = LINE('',#485,#486);
#485 = CARTESIAN_POINT('',(14.25,-2.45,2.));
#486 = VECTOR('',#487,1.);
#487 = DIRECTION('',(0.,1.,0.));
#488 = ORIENTED_EDGE('',*,*,#489,.T.);
#489 = EDGE_CURVE('',#482,#490,#492,.T.);
#490 = VERTEX_POINT('',#491);
#491 = CARTESIAN_POINT('',(14.25,0.535893821096,1.5));
#492 = LINE('',#493,#494);
#493 = CARTESIAN_POINT('',(14.25,0.535893821096,2.));
#494 = VECTOR('',#495,1.);
#495 = DIRECTION('',(0.,0.,-1.));
#496 = ORIENTED_EDGE('',*,*,#497,.F.);
#497 = EDGE_CURVE('',#439,#490,#498,.T.);
#498 = LINE('',#499,#500);
#499 = CARTESIAN_POINT('',(14.25,-2.45,1.5));
#500 = VECTOR('',#501,1.);
#501 = DIRECTION('',(0.,-1.,0.));
#502 = PLANE('',#503);
#503 = AXIS2_PLACEMENT_3D('',#504,#505,#506);
#504 = CARTESIAN_POINT('',(14.25,2.45,2.));
#505 = DIRECTION('',(1.,0.,0.));
#506 = DIRECTION('',(0.,-1.,0.));
#507 = ADVANCED_FACE('',(#508),#575,.T.);
#508 = FACE_BOUND('',#509,.T.);
#509 = EDGE_LOOP('',(#510,#511,#519,#528,#536,#544,#552,#560,#568,#574)
  );
#510 = ORIENTED_EDGE('',*,*,#457,.F.);
#511 = ORIENTED_EDGE('',*,*,#512,.T.);
#512 = EDGE_CURVE('',#450,#513,#515,.T.);
#513 = VERTEX_POINT('',#514);
#514 = CARTESIAN_POINT('',(-13.45,2.45,2.));
#515 = LINE('',#516,#517);
#516 = CARTESIAN_POINT('',(14.25,2.45,2.));
#517 = VECTOR('',#518,1.);
#518 = DIRECTION('',(-1.,-1.363431784627E-16,0.));
#519 = ORIENTED_EDGE('',*,*,#520,.F.);
#520 = EDGE_CURVE('',#521,#513,#523,.T.);
#521 = VERTEX_POINT('',#522);
#522 = CARTESIAN_POINT('',(-14.25,1.65,2.));
#523 = CIRCLE('',#524,0.8);
#524 = AXIS2_PLACEMENT_3D('',#525,#526,#527);
#525 = CARTESIAN_POINT('',(-13.45,1.65,2.));
#526 = DIRECTION('',(0.,0.,-1.));
#527 = DIRECTION('',(-0.707106781187,0.707106781187,0.));
#528 = ORIENTED_EDGE('',*,*,#529,.T.);
#529 = EDGE_CURVE('',#521,#530,#532,.T.);
#530 = VERTEX_POINT('',#531);
#531 = CARTESIAN_POINT('',(-14.25,0.535893821096,2.));
#532 = LINE('',#533,#534);
#533 = CARTESIAN_POINT('',(-14.25,2.45,2.));
#534 = VECTOR('',#535,1.);
#535 = DIRECTION('',(-9.063045098981E-16,-1.,0.));
#536 = ORIENTED_EDGE('',*,*,#537,.T.);
#537 = EDGE_CURVE('',#530,#538,#540,.T.);
#538 = VERTEX_POINT('',#539);
#539 = CARTESIAN_POINT('',(-13.61993922716,0.535893821096,2.));
#540 = LINE('',#541,#542);
#541 = CARTESIAN_POINT('',(-14.25,0.535893821096,2.));
#542 = VECTOR('',#543,1.);
#543 = DIRECTION('',(1.,0.,0.));
#544 = ORIENTED_EDGE('',*,*,#545,.T.);
#545 = EDGE_CURVE('',#538,#546,#548,.T.);
#546 = VERTEX_POINT('',#547);
#547 = CARTESIAN_POINT('',(-13.61993922716,1.146604093321,2.));
#548 = LINE('',#549,#550);
#549 = CARTESIAN_POINT('',(-13.61993922716,0.535893821096,2.));
#550 = VECTOR('',#551,1.);
#551 = DIRECTION('',(0.,1.,0.));
#552 = ORIENTED_EDGE('',*,*,#553,.T.);
#553 = EDGE_CURVE('',#546,#554,#556,.T.);
#554 = VERTEX_POINT('',#555);
#555 = CARTESIAN_POINT('',(13.619939227165,1.146604093321,2.));
#556 = LINE('',#557,#558);
#557 = CARTESIAN_POINT('',(-13.61993922716,1.146604093321,2.));
#558 = VECTOR('',#559,1.);
#559 = DIRECTION('',(1.,2.547329245812E-16,0.));
#560 = ORIENTED_EDGE('',*,*,#561,.T.);
#561 = EDGE_CURVE('',#554,#562,#564,.T.);
#562 = VERTEX_POINT('',#563);
#563 = CARTESIAN_POINT('',(13.619939227165,0.535893821096,2.));
#564 = LINE('',#565,#566);
#565 = CARTESIAN_POINT('',(13.619939227165,1.146604093321,2.));
#566 = VECTOR('',#567,1.);
#567 = DIRECTION('',(0.,-1.,0.));
#568 = ORIENTED_EDGE('',*,*,#569,.T.);
#569 = EDGE_CURVE('',#562,#482,#570,.T.);
#570 = LINE('',#571,#572);
#571 = CARTESIAN_POINT('',(13.619939227165,0.535893821096,2.));
#572 = VECTOR('',#573,1.);
#573 = DIRECTION('',(1.,8.81044394836E-16,0.));
#574 = ORIENTED_EDGE('',*,*,#481,.T.);
#575 = PLANE('',#576);
#576 = AXIS2_PLACEMENT_3D('',#577,#578,#579);
#577 = CARTESIAN_POINT('',(-1.110223024625E-15,1.492946910548,2.));
#578 = DIRECTION('',(0.,0.,1.));
#579 = DIRECTION('',(1.,0.,-0.));
#580 = ADVANCED_FACE('',(#581),#607,.T.);
#581 = FACE_BOUND('',#582,.T.);
#582 = EDGE_LOOP('',(#583,#594,#600,#601));
#583 = ORIENTED_EDGE('',*,*,#584,.T.);
#584 = EDGE_CURVE('',#585,#587,#589,.T.);
#585 = VERTEX_POINT('',#586);
#586 = CARTESIAN_POINT('',(-13.45,2.45,1.5));
#587 = VERTEX_POINT('',#588);
#588 = CARTESIAN_POINT('',(-14.25,1.65,1.5));
#589 = CIRCLE('',#590,0.8);
#590 = AXIS2_PLACEMENT_3D('',#591,#592,#593);
#591 = CARTESIAN_POINT('',(-13.45,1.65,1.5));
#592 = DIRECTION('',(0.,0.,1.));
#593 = DIRECTION('',(-0.707106781187,0.707106781187,0.));
#594 = ORIENTED_EDGE('',*,*,#595,.T.);
#595 = EDGE_CURVE('',#587,#521,#596,.T.);
#596 = LINE('',#597,#598);
#597 = CARTESIAN_POINT('',(-14.25,1.65,2.));
#598 = VECTOR('',#599,1.);
#599 = DIRECTION('',(0.,0.,1.));
#600 = ORIENTED_EDGE('',*,*,#520,.T.);
#601 = ORIENTED_EDGE('',*,*,#602,.T.);
#602 = EDGE_CURVE('',#513,#585,#603,.T.);
#603 = LINE('',#604,#605);
#604 = CARTESIAN_POINT('',(-13.45,2.45,2.));
#605 = VECTOR('',#606,1.);
#606 = DIRECTION('',(0.,0.,-1.));
#607 = CYLINDRICAL_SURFACE('',#608,0.8);
#608 = AXIS2_PLACEMENT_3D('',#609,#610,#611);
#609 = CARTESIAN_POINT('',(-13.45,1.65,2.));
#610 = DIRECTION('',(0.,0.,-1.));
#611 = DIRECTION('',(-0.707106781187,0.707106781187,0.));
#612 = ADVANCED_FACE('',(#613),#631,.T.);
#613 = FACE_BOUND('',#614,.T.);
#614 = EDGE_LOOP('',(#615,#616,#624,#630));
#615 = ORIENTED_EDGE('',*,*,#595,.F.);
#616 = ORIENTED_EDGE('',*,*,#617,.F.);
#617 = EDGE_CURVE('',#618,#587,#620,.T.);
#618 = VERTEX_POINT('',#619);
#619 = CARTESIAN_POINT('',(-14.25,0.535893821096,1.5));
#620 = LINE('',#621,#622);
#621 = CARTESIAN_POINT('',(-14.25,2.45,1.5));
#622 = VECTOR('',#623,1.);
#623 = DIRECTION('',(9.063045098981E-16,1.,0.));
#624 = ORIENTED_EDGE('',*,*,#625,.F.);
#625 = EDGE_CURVE('',#530,#618,#626,.T.);
#626 = LINE('',#627,#628);
#627 = CARTESIAN_POINT('',(-14.25,0.535893821096,2.));
#628 = VECTOR('',#629,1.);
#629 = DIRECTION('',(0.,0.,-1.));
#630 = ORIENTED_EDGE('',*,*,#529,.F.);
#631 = PLANE('',#632);
#632 = AXIS2_PLACEMENT_3D('',#633,#634,#635);
#633 = CARTESIAN_POINT('',(-14.25,0.535893821096,2.));
#634 = DIRECTION('',(-1.,9.063045098981E-16,0.));
#635 = DIRECTION('',(9.063045098981E-16,1.,0.));
#636 = ADVANCED_FACE('',(#637),#662,.T.);
#637 = FACE_BOUND('',#638,.T.);
#638 = EDGE_LOOP('',(#639,#640,#648,#656));
#639 = ORIENTED_EDGE('',*,*,#561,.F.);
#640 = ORIENTED_EDGE('',*,*,#641,.T.);
#641 = EDGE_CURVE('',#554,#642,#644,.T.);
#642 = VERTEX_POINT('',#643);
#643 = CARTESIAN_POINT('',(13.619939227165,1.146604093321,1.5));
#644 = LINE('',#645,#646);
#645 = CARTESIAN_POINT('',(13.619939227165,1.146604093321,2.));
#646 = VECTOR('',#647,1.);
#647 = DIRECTION('',(0.,0.,-1.));
#648 = ORIENTED_EDGE('',*,*,#649,.F.);
#649 = EDGE_CURVE('',#650,#642,#652,.T.);
#650 = VERTEX_POINT('',#651);
#651 = CARTESIAN_POINT('',(13.619939227165,0.535893821096,1.5));
#652 = LINE('',#653,#654);
#653 = CARTESIAN_POINT('',(13.619939227165,1.146604093321,1.5));
#654 = VECTOR('',#655,1.);
#655 = DIRECTION('',(0.,1.,0.));
#656 = ORIENTED_EDGE('',*,*,#657,.F.);
#657 = EDGE_CURVE('',#562,#650,#658,.T.);
#658 = LINE('',#659,#660);
#659 = CARTESIAN_POINT('',(13.619939227165,0.535893821096,2.));
#660 = VECTOR('',#661,1.);
#661 = DIRECTION('',(0.,0.,-1.));
#662 = PLANE('',#663);
#663 = AXIS2_PLACEMENT_3D('',#664,#665,#666);
#664 = CARTESIAN_POINT('',(13.619939227165,0.535893821096,2.));
#665 = DIRECTION('',(-1.,0.,0.));
#666 = DIRECTION('',(0.,1.,0.));
#667 = ADVANCED_FACE('',(#668),#679,.T.);
#668 = FACE_BOUND('',#669,.T.);
#669 = EDGE_LOOP('',(#670,#671,#672,#678));
#670 = ORIENTED_EDGE('',*,*,#569,.F.);
#671 = ORIENTED_EDGE('',*,*,#657,.T.);
#672 = ORIENTED_EDGE('',*,*,#673,.F.);
#673 = EDGE_CURVE('',#490,#650,#674,.T.);
#674 = LINE('',#675,#676);
#675 = CARTESIAN_POINT('',(13.619939227165,0.535893821096,1.5));
#676 = VECTOR('',#677,1.);
#677 = DIRECTION('',(-1.,-8.81044394836E-16,0.));
#678 = ORIENTED_EDGE('',*,*,#489,.F.);
#679 = PLANE('',#680);
#680 = AXIS2_PLACEMENT_3D('',#681,#682,#683);
#681 = CARTESIAN_POINT('',(14.25,0.535893821096,2.));
#682 = DIRECTION('',(8.81044394836E-16,-1.,0.));
#683 = DIRECTION('',(-1.,-8.81044394836E-16,0.));
#684 = ADVANCED_FACE('',(#685),#696,.T.);
#685 = FACE_BOUND('',#686,.T.);
#686 = EDGE_LOOP('',(#687,#688,#694,#695));
#687 = ORIENTED_EDGE('',*,*,#449,.F.);
#688 = ORIENTED_EDGE('',*,*,#689,.F.);
#689 = EDGE_CURVE('',#585,#441,#690,.T.);
#690 = LINE('',#691,#692);
#691 = CARTESIAN_POINT('',(14.25,2.45,1.5));
#692 = VECTOR('',#693,1.);
#693 = DIRECTION('',(1.,1.363431784627E-16,0.));
#694 = ORIENTED_EDGE('',*,*,#602,.F.);
#695 = ORIENTED_EDGE('',*,*,#512,.F.);
#696 = PLANE('',#697);
#697 = AXIS2_PLACEMENT_3D('',#698,#699,#700);
#698 = CARTESIAN_POINT('',(-14.25,2.45,2.));
#699 = DIRECTION('',(-1.363431784627E-16,1.,0.));
#700 = DIRECTION('',(1.,1.363431784627E-16,0.));
#701 = ADVANCED_FACE('',(#702),#720,.T.);
#702 = FACE_BOUND('',#703,.T.);
#703 = EDGE_LOOP('',(#704,#705,#706,#714));
#704 = ORIENTED_EDGE('',*,*,#537,.F.);
#705 = ORIENTED_EDGE('',*,*,#625,.T.);
#706 = ORIENTED_EDGE('',*,*,#707,.F.);
#707 = EDGE_CURVE('',#708,#618,#710,.T.);
#708 = VERTEX_POINT('',#709);
#709 = CARTESIAN_POINT('',(-13.61993922716,0.535893821096,1.5));
#710 = LINE('',#711,#712);
#711 = CARTESIAN_POINT('',(-14.25,0.535893821096,1.5));
#712 = VECTOR('',#713,1.);
#713 = DIRECTION('',(-1.,0.,0.));
#714 = ORIENTED_EDGE('',*,*,#715,.F.);
#715 = EDGE_CURVE('',#538,#708,#716,.T.);
#716 = LINE('',#717,#718);
#717 = CARTESIAN_POINT('',(-13.61993922716,0.535893821096,2.));
#718 = VECTOR('',#719,1.);
#719 = DIRECTION('',(0.,0.,-1.));
#720 = PLANE('',#721);
#721 = AXIS2_PLACEMENT_3D('',#722,#723,#724);
#722 = CARTESIAN_POINT('',(-13.61993922716,0.535893821096,2.));
#723 = DIRECTION('',(0.,-1.,0.));
#724 = DIRECTION('',(-1.,0.,0.));
#725 = ADVANCED_FACE('',(#726),#744,.T.);
#726 = FACE_BOUND('',#727,.T.);
#727 = EDGE_LOOP('',(#728,#729,#730,#738));
#728 = ORIENTED_EDGE('',*,*,#545,.F.);
#729 = ORIENTED_EDGE('',*,*,#715,.T.);
#730 = ORIENTED_EDGE('',*,*,#731,.F.);
#731 = EDGE_CURVE('',#732,#708,#734,.T.);
#732 = VERTEX_POINT('',#733);
#733 = CARTESIAN_POINT('',(-13.61993922716,1.146604093321,1.5));
#734 = LINE('',#735,#736);
#735 = CARTESIAN_POINT('',(-13.61993922716,0.535893821096,1.5));
#736 = VECTOR('',#737,1.);
#737 = DIRECTION('',(0.,-1.,0.));
#738 = ORIENTED_EDGE('',*,*,#739,.F.);
#739 = EDGE_CURVE('',#546,#732,#740,.T.);
#740 = LINE('',#741,#742);
#741 = CARTESIAN_POINT('',(-13.61993922716,1.146604093321,2.));
#742 = VECTOR('',#743,1.);
#743 = DIRECTION('',(0.,0.,-1.));
#744 = PLANE('',#745);
#745 = AXIS2_PLACEMENT_3D('',#746,#747,#748);
#746 = CARTESIAN_POINT('',(-13.61993922716,1.146604093321,2.));
#747 = DIRECTION('',(1.,0.,0.));
#748 = DIRECTION('',(0.,-1.,0.));
#749 = ADVANCED_FACE('',(#750),#761,.T.);
#750 = FACE_BOUND('',#751,.T.);
#751 = EDGE_LOOP('',(#752,#753,#754,#760));
#752 = ORIENTED_EDGE('',*,*,#553,.F.);
#753 = ORIENTED_EDGE('',*,*,#739,.T.);
#754 = ORIENTED_EDGE('',*,*,#755,.F.);
#755 = EDGE_CURVE('',#642,#732,#756,.T.);
#756 = LINE('',#757,#758);
#757 = CARTESIAN_POINT('',(-13.61993922716,1.146604093321,1.5));
#758 = VECTOR('',#759,1.);
#759 = DIRECTION('',(-1.,-2.547329245812E-16,0.));
#760 = ORIENTED_EDGE('',*,*,#641,.F.);
#761 = PLANE('',#762);
#762 = AXIS2_PLACEMENT_3D('',#763,#764,#765);
#763 = CARTESIAN_POINT('',(13.619939227165,1.146604093321,2.));
#764 = DIRECTION('',(2.547329245812E-16,-1.,0.));
#765 = DIRECTION('',(-1.,-2.547329245812E-16,0.));
#766 = ADVANCED_FACE('',(#767),#779,.T.);
#767 = FACE_BOUND('',#768,.T.);
#768 = EDGE_LOOP('',(#769,#770,#771,#772,#773,#774,#775,#776,#777,#778)
  );
#769 = ORIENTED_EDGE('',*,*,#438,.F.);
#770 = ORIENTED_EDGE('',*,*,#497,.T.);
#771 = ORIENTED_EDGE('',*,*,#673,.T.);
#772 = ORIENTED_EDGE('',*,*,#649,.T.);
#773 = ORIENTED_EDGE('',*,*,#755,.T.);
#774 = ORIENTED_EDGE('',*,*,#731,.T.);
#775 = ORIENTED_EDGE('',*,*,#707,.T.);
#776 = ORIENTED_EDGE('',*,*,#617,.T.);
#777 = ORIENTED_EDGE('',*,*,#584,.F.);
#778 = ORIENTED_EDGE('',*,*,#689,.T.);
#779 = PLANE('',#780);
#780 = AXIS2_PLACEMENT_3D('',#781,#782,#783);
#781 = CARTESIAN_POINT('',(0.,1.492946910548,1.5));
#782 = DIRECTION('',(0.,0.,-1.));
#783 = DIRECTION('',(-1.,0.,0.));
#784 = ( GEOMETRIC_REPRESENTATION_CONTEXT(3) 
GLOBAL_UNCERTAINTY_ASSIGNED_CONTEXT((#788)) GLOBAL_UNIT_ASSIGNED_CONTEXT
((#785,#786,#787)) REPRESENTATION_CONTEXT('Context #1',
  '3D Context with UNIT and UNCERTAINTY') );
#785 = ( LENGTH_UNIT() NAMED_UNIT(*) SI_UNIT(.MILLI.,.METRE.) );
#786 = ( NAMED_UNIT(*) PLANE_ANGLE_UNIT() SI_UNIT($,.RADIAN.) );
#787 = ( NAMED_UNIT(*) SI_UNIT($,.STERADIAN.) SOLID_ANGLE_UNIT() );
#788 = UNCERTAINTY_MEASURE_WITH_UNIT(LENGTH_MEASURE(1.E-07),#785,
  'distance_accuracy_value','confusion accuracy');
#789 = CONTEXT_DEPENDENT_SHAPE_REPRESENTATION(#790,#792);
#790 = ( REPRESENTATION_RELATIONSHIP('','',#83,#60) 
REPRESENTATION_RELATIONSHIP_WITH_TRANSFORMATION(#791) 
SHAPE_REPRESENTATION_RELATIONSHIP() );
#791 = ITEM_DEFINED_TRANSFORMATION('','',#11,#61);
#792 = PRODUCT_DEFINITION_SHAPE('Placement','Placement of an item',#793
  );
#793 = NEXT_ASSEMBLY_USAGE_OCCURRENCE('1','=>[0:1:1:3]','',#55,#78,$);
#794 = PRODUCT_RELATED_PRODUCT_CATEGORY('part',$,(#80));
#795 = CONTEXT_DEPENDENT_SHAPE_REPRESENTATION(#796,#798);
#796 = ( REPRESENTATION_RELATIONSHIP('','',#60,#10) 
REPRESENTATION_RELATIONSHIP_WITH_TRANSFORMATION(#797) 
SHAPE_REPRESENTATION_RELATIONSHIP() );
#797 = ITEM_DEFINED_TRANSFORMATION('','',#11,#19);
#798 = PRODUCT_DEFINITION_SHAPE('Placement','Placement of an item',#799
  );
#799 = NEXT_ASSEMBLY_USAGE_OCCURRENCE('3','J5','',#5,#55,$);
#800 = CONTEXT_DEPENDENT_SHAPE_REPRESENTATION(#801,#803);
#801 = ( REPRESENTATION_RELATIONSHIP('','',#60,#10) 
REPRESENTATION_RELATIONSHIP_WITH_TRANSFORMATION(#802) 
SHAPE_REPRESENTATION_RELATIONSHIP() );
#802 = ITEM_DEFINED_TRANSFORMATION('','',#11,#23);
#803 = PRODUCT_DEFINITION_SHAPE('Placement','Placement of an item',#804
  );
#804 = NEXT_ASSEMBLY_USAGE_OCCURRENCE('4','J3','',#5,#55,$);
#805 = CONTEXT_DEPENDENT_SHAPE_REPRESENTATION(#806,#808);
#806 = ( REPRESENTATION_RELATIONSHIP('','',#60,#10) 
REPRESENTATION_RELATIONSHIP_WITH_TRANSFORMATION(#807) 
SHAPE_REPRESENTATION_RELATIONSHIP() );
#807 = ITEM_DEFINED_TRANSFORMATION('','',#11,#27);
#808 = PRODUCT_DEFINITION_SHAPE('Placement','Placement of an item',#809
  );
#809 = NEXT_ASSEMBLY_USAGE_OCCURRENCE('5','J4','',#5,#55,$);
#810 = CONTEXT_DEPENDENT_SHAPE_REPRESENTATION(#811,#813);
#811 = ( REPRESENTATION_RELATIONSHIP('','',#60,#10) 
REPRESENTATION_RELATIONSHIP_WITH_TRANSFORMATION(#812) 
SHAPE_REPRESENTATION_RELATIONSHIP() );
#812 = ITEM_DEFINED_TRANSFORMATION('','',#11,#31);
#813 = PRODUCT_DEFINITION_SHAPE('Placement','Placement of an item',#814
  );
#814 = NEXT_ASSEMBLY_USAGE_OCCURRENCE('6','J7','',#5,#55,$);
#815 = SHAPE_DEFINITION_REPRESENTATION(#816,#822);
#816 = PRODUCT_DEFINITION_SHAPE('','',#817);
#817 = PRODUCT_DEFINITION('design','',#818,#821);
#818 = PRODUCT_DEFINITION_FORMATION('','',#819);
#819 = PRODUCT('BB0500220F-1002C-001','BB0500220F-1002C-001','',(#820));
#820 = PRODUCT_CONTEXT('',#2,'mechanical');
#821 = PRODUCT_DEFINITION_CONTEXT('part definition',#2,'design');
#822 = SHAPE_REPRESENTATION('',(#11,#823),#827);
#823 = AXIS2_PLACEMENT_3D('',#824,#825,#826);
#824 = CARTESIAN_POINT('',(0.,0.,0.));
#825 = DIRECTION('',(0.,0.,1.));
#826 = DIRECTION('',(1.,0.,-0.));
#827 = ( GEOMETRIC_REPRESENTATION_CONTEXT(3) 
GLOBAL_UNCERTAINTY_ASSIGNED_CONTEXT((#831)) GLOBAL_UNIT_ASSIGNED_CONTEXT
((#828,#829,#830)) REPRESENTATION_CONTEXT('Context #1',
  '3D Context with UNIT and UNCERTAINTY') );
#828 = ( LENGTH_UNIT() NAMED_UNIT(*) SI_UNIT(.MILLI.,.METRE.) );
#829 = ( NAMED_UNIT(*) PLANE_ANGLE_UNIT() SI_UNIT($,.RADIAN.) );
#830 = ( NAMED_UNIT(*) SI_UNIT($,.STERADIAN.) SOLID_ANGLE_UNIT() );
#831 = UNCERTAINTY_MEASURE_WITH_UNIT(LENGTH_MEASURE(1.E-07),#828,
  'distance_accuracy_value','confusion accuracy');
#832 = CONTEXT_DEPENDENT_SHAPE_REPRESENTATION(#833,#835);
#833 = ( REPRESENTATION_RELATIONSHIP('','',#822,#10) 
REPRESENTATION_RELATIONSHIP_WITH_TRANSFORMATION(#834) 
SHAPE_REPRESENTATION_RELATIONSHIP() );
#834 = ITEM_DEFINED_TRANSFORMATION('','',#11,#35);
#835 = PRODUCT_DEFINITION_SHAPE('Placement','Placement of an item',#836
  );
#836 = NEXT_ASSEMBLY_USAGE_OCCURRENCE('8','J1','',#5,#817,$);
#837 = PRODUCT_RELATED_PRODUCT_CATEGORY('part',$,(#819));
#838 = SHAPE_DEFINITION_REPRESENTATION(#839,#845);
#839 = PRODUCT_DEFINITION_SHAPE('','',#840);
#840 = PRODUCT_DEFINITION('design','',#841,#844);
#841 = PRODUCT_DEFINITION_FORMATION('','',#842);
#842 = PRODUCT('BB0500220F-1002C-001','BB0500220F-1002C-001','',(#843));
#843 = PRODUCT_CONTEXT('',#2,'mechanical');
#844 = PRODUCT_DEFINITION_CONTEXT('part definition',#2,'design');
#845 = ADVANCED_BREP_SHAPE_REPRESENTATION('',(#11,#846),#1572);
#846 = MANIFOLD_SOLID_BREP('',#847);
#847 = CLOSED_SHELL('',(#848,#888,#919,#950,#972,#984,#1024,#1055,#1086,
    #1126,#1157,#1188,#1210,#1222,#1264,#1290,#1299,#1341,#1367,#1376,
    #1413,#1456,#1487,#1518,#1540,#1556));
#848 = ADVANCED_FACE('',(#849),#883,.T.);
#849 = FACE_BOUND('',#850,.T.);
#850 = EDGE_LOOP('',(#851,#861,#869,#877));
#851 = ORIENTED_EDGE('',*,*,#852,.F.);
#852 = EDGE_CURVE('',#853,#855,#857,.T.);
#853 = VERTEX_POINT('',#854);
#854 = CARTESIAN_POINT('',(-0.45,2.2,1.075));
#855 = VERTEX_POINT('',#856);
#856 = CARTESIAN_POINT('',(-0.45,2.2,26.625));
#857 = LINE('',#858,#859);
#858 = CARTESIAN_POINT('',(-0.45,2.2,13.3125));
#859 = VECTOR('',#860,1.);
#860 = DIRECTION('',(5.974781443677E-17,1.50757725588E-32,1.));
#861 = ORIENTED_EDGE('',*,*,#862,.T.);
#862 = EDGE_CURVE('',#853,#863,#865,.T.);
#863 = VERTEX_POINT('',#864);
#864 = CARTESIAN_POINT('',(-0.45,0.2,1.075));
#865 = LINE('',#866,#867);
#866 = CARTESIAN_POINT('',(-0.45,2.2,1.075));
#867 = VECTOR('',#868,1.);
#868 = DIRECTION('',(-1.513940488125E-16,-1.,0.));
#869 = ORIENTED_EDGE('',*,*,#870,.F.);
#870 = EDGE_CURVE('',#871,#863,#873,.T.);
#871 = VERTEX_POINT('',#872);
#872 = CARTESIAN_POINT('',(-0.45,0.2,26.625));
#873 = LINE('',#874,#875);
#874 = CARTESIAN_POINT('',(-0.45,0.2,1.075));
#875 = VECTOR('',#876,1.);
#876 = DIRECTION('',(-5.974781443677E-17,7.537886279402E-33,-1.));
#877 = ORIENTED_EDGE('',*,*,#878,.F.);
#878 = EDGE_CURVE('',#855,#871,#879,.T.);
#879 = LINE('',#880,#881);
#880 = CARTESIAN_POINT('',(-0.45,2.2,26.625));
#881 = VECTOR('',#882,1.);
#882 = DIRECTION('',(-1.513940488125E-16,-1.,0.));
#883 = PLANE('',#884);
#884 = AXIS2_PLACEMENT_3D('',#885,#886,#887);
#885 = CARTESIAN_POINT('',(-0.45,2.2,26.625));
#886 = DIRECTION('',(-1.,1.513940488125E-16,5.974781443677E-17));
#887 = DIRECTION('',(-5.974781443677E-17,7.537886279402E-33,-1.));
#888 = ADVANCED_FACE('',(#889),#914,.T.);
#889 = FACE_BOUND('',#890,.T.);
#890 = EDGE_LOOP('',(#891,#899,#900,#908));
#891 = ORIENTED_EDGE('',*,*,#892,.F.);
#892 = EDGE_CURVE('',#855,#893,#895,.T.);
#893 = VERTEX_POINT('',#894);
#894 = CARTESIAN_POINT('',(-1.45,2.2,26.625));
#895 = LINE('',#896,#897);
#896 = CARTESIAN_POINT('',(0.375,2.2,26.625));
#897 = VECTOR('',#898,1.);
#898 = DIRECTION('',(-1.,-2.523234146875E-16,0.));
#899 = ORIENTED_EDGE('',*,*,#878,.T.);
#900 = ORIENTED_EDGE('',*,*,#901,.F.);
#901 = EDGE_CURVE('',#902,#871,#904,.T.);
#902 = VERTEX_POINT('',#903);
#903 = CARTESIAN_POINT('',(-1.45,0.2,26.625));
#904 = LINE('',#905,#906);
#905 = CARTESIAN_POINT('',(-0.45,0.2,26.625));
#906 = VECTOR('',#907,1.);
#907 = DIRECTION('',(1.,-1.261617073438E-16,0.));
#908 = ORIENTED_EDGE('',*,*,#909,.F.);
#909 = EDGE_CURVE('',#893,#902,#910,.T.);
#910 = LINE('',#911,#912);
#911 = CARTESIAN_POINT('',(-1.45,2.2,26.625));
#912 = VECTOR('',#913,1.);
#913 = DIRECTION('',(-1.513940488125E-16,-1.,0.));
#914 = PLANE('',#915);
#915 = AXIS2_PLACEMENT_3D('',#916,#917,#918);
#916 = CARTESIAN_POINT('',(-1.45,2.2,26.625));
#917 = DIRECTION('',(0.,0.,-1.));
#918 = DIRECTION('',(1.,-1.261617073438E-16,0.));
#919 = ADVANCED_FACE('',(#920),#945,.T.);
#920 = FACE_BOUND('',#921,.T.);
#921 = EDGE_LOOP('',(#922,#930,#931,#939));
#922 = ORIENTED_EDGE('',*,*,#923,.F.);
#923 = EDGE_CURVE('',#893,#924,#926,.T.);
#924 = VERTEX_POINT('',#925);
#925 = CARTESIAN_POINT('',(-1.45,2.2,1.075));
#926 = LINE('',#927,#928);
#927 = CARTESIAN_POINT('',(-1.45,2.2,0.5375));
#928 = VECTOR('',#929,1.);
#929 = DIRECTION('',(5.431619494252E-17,1.370524778073E-32,-1.));
#930 = ORIENTED_EDGE('',*,*,#909,.T.);
#931 = ORIENTED_EDGE('',*,*,#932,.F.);
#932 = EDGE_CURVE('',#933,#902,#935,.T.);
#933 = VERTEX_POINT('',#934);
#934 = CARTESIAN_POINT('',(-1.45,0.2,1.075));
#935 = LINE('',#936,#937);
#936 = CARTESIAN_POINT('',(-1.45,0.2,26.625));
#937 = VECTOR('',#938,1.);
#938 = DIRECTION('',(-5.431619494252E-17,6.852623890366E-33,1.));
#939 = ORIENTED_EDGE('',*,*,#940,.F.);
#940 = EDGE_CURVE('',#924,#933,#941,.T.);
#941 = LINE('',#942,#943);
#942 = CARTESIAN_POINT('',(-1.45,2.2,1.075));
#943 = VECTOR('',#944,1.);
#944 = DIRECTION('',(-1.513940488125E-16,-1.,0.));
#945 = PLANE('',#946);
#946 = AXIS2_PLACEMENT_3D('',#947,#948,#949);
#947 = CARTESIAN_POINT('',(-1.45,2.2,1.075));
#948 = DIRECTION('',(1.,-1.513940488125E-16,5.431619494252E-17));
#949 = DIRECTION('',(-5.431619494252E-17,6.852623890366E-33,1.));
#950 = ADVANCED_FACE('',(#951),#967,.T.);
#951 = FACE_BOUND('',#952,.T.);
#952 = EDGE_LOOP('',(#953,#959,#960,#966));
#953 = ORIENTED_EDGE('',*,*,#954,.F.);
#954 = EDGE_CURVE('',#924,#853,#955,.T.);
#955 = LINE('',#956,#957);
#956 = CARTESIAN_POINT('',(0.875,2.2,1.075));
#957 = VECTOR('',#958,1.);
#958 = DIRECTION('',(1.,2.523234146875E-16,1.387778780781E-16));
#959 = ORIENTED_EDGE('',*,*,#940,.T.);
#960 = ORIENTED_EDGE('',*,*,#961,.F.);
#961 = EDGE_CURVE('',#863,#933,#962,.T.);
#962 = LINE('',#963,#964);
#963 = CARTESIAN_POINT('',(-1.45,0.2,1.075));
#964 = VECTOR('',#965,1.);
#965 = DIRECTION('',(-1.,1.261617073438E-16,-1.387778780781E-16));
#966 = ORIENTED_EDGE('',*,*,#862,.F.);
#967 = PLANE('',#968);
#968 = AXIS2_PLACEMENT_3D('',#969,#970,#971);
#969 = CARTESIAN_POINT('',(-0.45,2.2,1.075));
#970 = DIRECTION('',(-1.387778780781E-16,2.101014484786E-32,1.));
#971 = DIRECTION('',(-1.,1.261617073438E-16,-1.387778780781E-16));
#972 = ADVANCED_FACE('',(#973),#979,.T.);
#973 = FACE_BOUND('',#974,.T.);
#974 = EDGE_LOOP('',(#975,#976,#977,#978));
#975 = ORIENTED_EDGE('',*,*,#961,.T.);
#976 = ORIENTED_EDGE('',*,*,#932,.T.);
#977 = ORIENTED_EDGE('',*,*,#901,.T.);
#978 = ORIENTED_EDGE('',*,*,#870,.T.);
#979 = PLANE('',#980);
#980 = AXIS2_PLACEMENT_3D('',#981,#982,#983);
#981 = CARTESIAN_POINT('',(-0.95,0.2,13.85));
#982 = DIRECTION('',(1.513940488125E-16,1.,0.));
#983 = DIRECTION('',(0.,0.,-1.));
#984 = ADVANCED_FACE('',(#985),#1019,.F.);
#985 = FACE_BOUND('',#986,.T.);
#986 = EDGE_LOOP('',(#987,#997,#1005,#1013));
#987 = ORIENTED_EDGE('',*,*,#988,.F.);
#988 = EDGE_CURVE('',#989,#991,#993,.T.);
#989 = VERTEX_POINT('',#990);
#990 = CARTESIAN_POINT('',(-2.2,1.7,0.));
#991 = VERTEX_POINT('',#992);
#992 = CARTESIAN_POINT('',(-2.2,2.2,0.));
#993 = LINE('',#994,#995);
#994 = CARTESIAN_POINT('',(-2.2,1.7,0.));
#995 = VECTOR('',#996,1.);
#996 = DIRECTION('',(9.840613172814E-16,1.,0.));
#997 = ORIENTED_EDGE('',*,*,#998,.T.);
#998 = EDGE_CURVE('',#989,#999,#1001,.T.);
#999 = VERTEX_POINT('',#1000);
#1000 = CARTESIAN_POINT('',(-2.2,1.7,27.7));
#1001 = LINE('',#1002,#1003);
#1002 = CARTESIAN_POINT('',(-2.2,1.7,0.));
#1003 = VECTOR('',#1004,1.);
#1004 = DIRECTION('',(0.,0.,1.));
#1005 = ORIENTED_EDGE('',*,*,#1006,.T.);
#1006 = EDGE_CURVE('',#999,#1007,#1009,.T.);
#1007 = VERTEX_POINT('',#1008);
#1008 = CARTESIAN_POINT('',(-2.2,2.2,27.7));
#1009 = LINE('',#1010,#1011);
#1010 = CARTESIAN_POINT('',(-2.2,1.7,27.7));
#1011 = VECTOR('',#1012,1.);
#1012 = DIRECTION('',(9.840613172814E-16,1.,0.));
#1013 = ORIENTED_EDGE('',*,*,#1014,.F.);
#1014 = EDGE_CURVE('',#991,#1007,#1015,.T.);
#1015 = LINE('',#1016,#1017);
#1016 = CARTESIAN_POINT('',(-2.2,2.2,0.));
#1017 = VECTOR('',#1018,1.);
#1018 = DIRECTION('',(0.,0.,1.));
#1019 = PLANE('',#1020);
#1020 = AXIS2_PLACEMENT_3D('',#1021,#1022,#1023);
#1021 = CARTESIAN_POINT('',(-2.2,1.7,0.));
#1022 = DIRECTION('',(1.,-9.840613172814E-16,0.));
#1023 = DIRECTION('',(9.840613172814E-16,1.,0.));
#1024 = ADVANCED_FACE('',(#1025),#1050,.F.);
#1025 = FACE_BOUND('',#1026,.T.);
#1026 = EDGE_LOOP('',(#1027,#1035,#1043,#1049));
#1027 = ORIENTED_EDGE('',*,*,#1028,.F.);
#1028 = EDGE_CURVE('',#1029,#989,#1031,.T.);
#1029 = VERTEX_POINT('',#1030);
#1030 = CARTESIAN_POINT('',(-2.,1.7,0.));
#1031 = LINE('',#1032,#1033);
#1032 = CARTESIAN_POINT('',(-2.,1.7,0.));
#1033 = VECTOR('',#1034,1.);
#1034 = DIRECTION('',(-1.,1.261617073438E-15,0.));
#1035 = ORIENTED_EDGE('',*,*,#1036,.T.);
#1036 = EDGE_CURVE('',#1029,#1037,#1039,.T.);
#1037 = VERTEX_POINT('',#1038);
#1038 = CARTESIAN_POINT('',(-2.,1.7,27.7));
#1039 = LINE('',#1040,#1041);
#1040 = CARTESIAN_POINT('',(-2.,1.7,0.));
#1041 = VECTOR('',#1042,1.);
#1042 = DIRECTION('',(0.,0.,1.));
#1043 = ORIENTED_EDGE('',*,*,#1044,.T.);
#1044 = EDGE_CURVE('',#1037,#999,#1045,.T.);
#1045 = LINE('',#1046,#1047);
#1046 = CARTESIAN_POINT('',(-2.,1.7,27.7));
#1047 = VECTOR('',#1048,1.);
#1048 = DIRECTION('',(-1.,1.261617073438E-15,0.));
#1049 = ORIENTED_EDGE('',*,*,#998,.F.);
#1050 = PLANE('',#1051);
#1051 = AXIS2_PLACEMENT_3D('',#1052,#1053,#1054);
#1052 = CARTESIAN_POINT('',(-2.,1.7,0.));
#1053 = DIRECTION('',(1.261617073438E-15,1.,0.));
#1054 = DIRECTION('',(-1.,1.261617073438E-15,0.));
#1055 = ADVANCED_FACE('',(#1056),#1081,.F.);
#1056 = FACE_BOUND('',#1057,.T.);
#1057 = EDGE_LOOP('',(#1058,#1066,#1074,#1080));
#1058 = ORIENTED_EDGE('',*,*,#1059,.F.);
#1059 = EDGE_CURVE('',#1060,#1029,#1062,.T.);
#1060 = VERTEX_POINT('',#1061);
#1061 = CARTESIAN_POINT('',(-2.,-2.523234146875E-16,0.));
#1062 = LINE('',#1063,#1064);
#1063 = CARTESIAN_POINT('',(-2.,-2.523234146875E-16,0.));
#1064 = VECTOR('',#1065,1.);
#1065 = DIRECTION('',(3.710638451287E-17,1.,0.));
#1066 = ORIENTED_EDGE('',*,*,#1067,.T.);
#1067 = EDGE_CURVE('',#1060,#1068,#1070,.T.);
#1068 = VERTEX_POINT('',#1069);
#1069 = CARTESIAN_POINT('',(-2.,-2.523234146875E-16,27.7));
#1070 = LINE('',#1071,#1072);
#1071 = CARTESIAN_POINT('',(-2.,-2.523234146875E-16,0.));
#1072 = VECTOR('',#1073,1.);
#1073 = DIRECTION('',(0.,0.,1.));
#1074 = ORIENTED_EDGE('',*,*,#1075,.T.);
#1075 = EDGE_CURVE('',#1068,#1037,#1076,.T.);
#1076 = LINE('',#1077,#1078);
#1077 = CARTESIAN_POINT('',(-2.,-2.523234146875E-16,27.7));
#1078 = VECTOR('',#1079,1.);
#1079 = DIRECTION('',(3.710638451287E-17,1.,0.));
#1080 = ORIENTED_EDGE('',*,*,#1036,.F.);
#1081 = PLANE('',#1082);
#1082 = AXIS2_PLACEMENT_3D('',#1083,#1084,#1085);
#1083 = CARTESIAN_POINT('',(-2.,-2.523234146875E-16,0.));
#1084 = DIRECTION('',(1.,-3.710638451287E-17,0.));
#1085 = DIRECTION('',(3.710638451287E-17,1.,0.));
#1086 = ADVANCED_FACE('',(#1087),#1121,.F.);
#1087 = FACE_BOUND('',#1088,.T.);
#1088 = EDGE_LOOP('',(#1089,#1099,#1107,#1115));
#1089 = ORIENTED_EDGE('',*,*,#1090,.F.);
#1090 = EDGE_CURVE('',#1091,#1093,#1095,.T.);
#1091 = VERTEX_POINT('',#1092);
#1092 = CARTESIAN_POINT('',(0.45,2.2,26.625));
#1093 = VERTEX_POINT('',#1094);
#1094 = CARTESIAN_POINT('',(0.45,2.2,1.075));
#1095 = LINE('',#1096,#1097);
#1096 = CARTESIAN_POINT('',(0.45,2.2,13.3125));
#1097 = VECTOR('',#1098,1.);
#1098 = DIRECTION('',(5.974781443677E-17,1.50757725588E-32,-1.));
#1099 = ORIENTED_EDGE('',*,*,#1100,.T.);
#1100 = EDGE_CURVE('',#1091,#1101,#1103,.T.);
#1101 = VERTEX_POINT('',#1102);
#1102 = CARTESIAN_POINT('',(0.45,0.2,26.625));
#1103 = LINE('',#1104,#1105);
#1104 = CARTESIAN_POINT('',(0.45,2.2,26.625));
#1105 = VECTOR('',#1106,1.);
#1106 = DIRECTION('',(2.775557561563E-16,-1.,0.));
#1107 = ORIENTED_EDGE('',*,*,#1108,.T.);
#1108 = EDGE_CURVE('',#1101,#1109,#1111,.T.);
#1109 = VERTEX_POINT('',#1110);
#1110 = CARTESIAN_POINT('',(0.45,0.2,1.075));
#1111 = LINE('',#1112,#1113);
#1112 = CARTESIAN_POINT('',(0.45,0.2,1.075));
#1113 = VECTOR('',#1114,1.);
#1114 = DIRECTION('',(5.974781443677E-17,1.50757725588E-32,-1.));
#1115 = ORIENTED_EDGE('',*,*,#1116,.F.);
#1116 = EDGE_CURVE('',#1093,#1109,#1117,.T.);
#1117 = LINE('',#1118,#1119);
#1118 = CARTESIAN_POINT('',(0.45,2.2,1.075));
#1119 = VECTOR('',#1120,1.);
#1120 = DIRECTION('',(2.775557561563E-16,-1.,0.));
#1121 = PLANE('',#1122);
#1122 = AXIS2_PLACEMENT_3D('',#1123,#1124,#1125);
#1123 = CARTESIAN_POINT('',(0.45,2.2,26.625));
#1124 = DIRECTION('',(-1.,-2.775557561563E-16,-5.974781443677E-17));
#1125 = DIRECTION('',(5.974781443677E-17,1.50757725588E-32,-1.));
#1126 = ADVANCED_FACE('',(#1127),#1152,.F.);
#1127 = FACE_BOUND('',#1128,.T.);
#1128 = EDGE_LOOP('',(#1129,#1137,#1145,#1151));
#1129 = ORIENTED_EDGE('',*,*,#1130,.F.);
#1130 = EDGE_CURVE('',#1131,#1091,#1133,.T.);
#1131 = VERTEX_POINT('',#1132);
#1132 = CARTESIAN_POINT('',(1.45,2.2,26.625));
#1133 = LINE('',#1134,#1135);
#1134 = CARTESIAN_POINT('',(1.825,2.2,26.625));
#1135 = VECTOR('',#1136,1.);
#1136 = DIRECTION('',(-1.,-2.523234146875E-16,0.));
#1137 = ORIENTED_EDGE('',*,*,#1138,.T.);
#1138 = EDGE_CURVE('',#1131,#1139,#1141,.T.);
#1139 = VERTEX_POINT('',#1140);
#1140 = CARTESIAN_POINT('',(1.45,0.2,26.625));
#1141 = LINE('',#1142,#1143);
#1142 = CARTESIAN_POINT('',(1.45,2.2,26.625));
#1143 = VECTOR('',#1144,1.);
#1144 = DIRECTION('',(2.775557561563E-16,-1.,0.));
#1145 = ORIENTED_EDGE('',*,*,#1146,.T.);
#1146 = EDGE_CURVE('',#1139,#1101,#1147,.T.);
#1147 = LINE('',#1148,#1149);
#1148 = CARTESIAN_POINT('',(0.45,0.2,26.625));
#1149 = VECTOR('',#1150,1.);
#1150 = DIRECTION('',(-1.,-2.523234146875E-16,0.));
#1151 = ORIENTED_EDGE('',*,*,#1100,.F.);
#1152 = PLANE('',#1153);
#1153 = AXIS2_PLACEMENT_3D('',#1154,#1155,#1156);
#1154 = CARTESIAN_POINT('',(1.45,2.2,26.625));
#1155 = DIRECTION('',(0.,0.,1.));
#1156 = DIRECTION('',(-1.,-2.523234146875E-16,0.));
#1157 = ADVANCED_FACE('',(#1158),#1183,.F.);
#1158 = FACE_BOUND('',#1159,.T.);
#1159 = EDGE_LOOP('',(#1160,#1168,#1176,#1182));
#1160 = ORIENTED_EDGE('',*,*,#1161,.F.);
#1161 = EDGE_CURVE('',#1162,#1131,#1164,.T.);
#1162 = VERTEX_POINT('',#1163);
#1163 = CARTESIAN_POINT('',(1.45,2.2,1.075));
#1164 = LINE('',#1165,#1166);
#1165 = CARTESIAN_POINT('',(1.45,2.2,0.5375));
#1166 = VECTOR('',#1167,1.);
#1167 = DIRECTION('',(5.431619494252E-17,1.370524778073E-32,1.));
#1168 = ORIENTED_EDGE('',*,*,#1169,.T.);
#1169 = EDGE_CURVE('',#1162,#1170,#1172,.T.);
#1170 = VERTEX_POINT('',#1171);
#1171 = CARTESIAN_POINT('',(1.45,0.2,1.075));
#1172 = LINE('',#1173,#1174);
#1173 = CARTESIAN_POINT('',(1.45,2.2,1.075));
#1174 = VECTOR('',#1175,1.);
#1175 = DIRECTION('',(2.775557561563E-16,-1.,0.));
#1176 = ORIENTED_EDGE('',*,*,#1177,.T.);
#1177 = EDGE_CURVE('',#1170,#1139,#1178,.T.);
#1178 = LINE('',#1179,#1180);
#1179 = CARTESIAN_POINT('',(1.45,0.2,26.625));
#1180 = VECTOR('',#1181,1.);
#1181 = DIRECTION('',(5.431619494252E-17,1.370524778073E-32,1.));
#1182 = ORIENTED_EDGE('',*,*,#1138,.F.);
#1183 = PLANE('',#1184);
#1184 = AXIS2_PLACEMENT_3D('',#1185,#1186,#1187);
#1185 = CARTESIAN_POINT('',(1.45,2.2,1.075));
#1186 = DIRECTION('',(1.,2.775557561563E-16,-5.431619494252E-17));
#1187 = DIRECTION('',(5.431619494252E-17,1.370524778073E-32,1.));
#1188 = ADVANCED_FACE('',(#1189),#1205,.F.);
#1189 = FACE_BOUND('',#1190,.T.);
#1190 = EDGE_LOOP('',(#1191,#1197,#1198,#1204));
#1191 = ORIENTED_EDGE('',*,*,#1192,.F.);
#1192 = EDGE_CURVE('',#1093,#1162,#1193,.T.);
#1193 = LINE('',#1194,#1195);
#1194 = CARTESIAN_POINT('',(1.325,2.2,1.075));
#1195 = VECTOR('',#1196,1.);
#1196 = DIRECTION('',(1.,2.523234146875E-16,-1.387778780781E-16));
#1197 = ORIENTED_EDGE('',*,*,#1116,.T.);
#1198 = ORIENTED_EDGE('',*,*,#1199,.T.);
#1199 = EDGE_CURVE('',#1109,#1170,#1200,.T.);
#1200 = LINE('',#1201,#1202);
#1201 = CARTESIAN_POINT('',(1.45,0.2,1.075));
#1202 = VECTOR('',#1203,1.);
#1203 = DIRECTION('',(1.,2.523234146875E-16,-1.387778780781E-16));
#1204 = ORIENTED_EDGE('',*,*,#1169,.F.);
#1205 = PLANE('',#1206);
#1206 = AXIS2_PLACEMENT_3D('',#1207,#1208,#1209);
#1207 = CARTESIAN_POINT('',(0.45,2.2,1.075));
#1208 = DIRECTION('',(-1.387778780781E-16,-3.851859888774E-32,-1.));
#1209 = DIRECTION('',(1.,2.523234146875E-16,-1.387778780781E-16));
#1210 = ADVANCED_FACE('',(#1211),#1217,.F.);
#1211 = FACE_BOUND('',#1212,.T.);
#1212 = EDGE_LOOP('',(#1213,#1214,#1215,#1216));
#1213 = ORIENTED_EDGE('',*,*,#1199,.F.);
#1214 = ORIENTED_EDGE('',*,*,#1108,.F.);
#1215 = ORIENTED_EDGE('',*,*,#1146,.F.);
#1216 = ORIENTED_EDGE('',*,*,#1177,.F.);
#1217 = PLANE('',#1218);
#1218 = AXIS2_PLACEMENT_3D('',#1219,#1220,#1221);
#1219 = CARTESIAN_POINT('',(0.95,0.2,13.85));
#1220 = DIRECTION('',(2.775557561563E-16,-1.,0.));
#1221 = DIRECTION('',(0.,0.,-1.));
#1222 = ADVANCED_FACE('',(#1223),#1259,.T.);
#1223 = FACE_BOUND('',#1224,.T.);
#1224 = EDGE_LOOP('',(#1225,#1234,#1242,#1251,#1258));
#1225 = ORIENTED_EDGE('',*,*,#1226,.T.);
#1226 = EDGE_CURVE('',#1227,#1227,#1229,.T.);
#1227 = VERTEX_POINT('',#1228);
#1228 = CARTESIAN_POINT('',(1.425,-0.6,27.05));
#1229 = CIRCLE('',#1230,0.175);
#1230 = AXIS2_PLACEMENT_3D('',#1231,#1232,#1233);
#1231 = CARTESIAN_POINT('',(1.25,-0.6,27.05));
#1232 = DIRECTION('',(0.,1.,0.));
#1233 = DIRECTION('',(-1.,0.,0.));
#1234 = ORIENTED_EDGE('',*,*,#1235,.T.);
#1235 = EDGE_CURVE('',#1227,#1236,#1238,.T.);
#1236 = VERTEX_POINT('',#1237);
#1237 = CARTESIAN_POINT('',(1.525,-0.5,27.05));
#1238 = LINE('',#1239,#1240);
#1239 = CARTESIAN_POINT('',(1.475,-0.55,27.05));
#1240 = VECTOR('',#1241,1.);
#1241 = DIRECTION('',(0.707106781187,0.707106781187,8.659560562355E-17)
  );
#1242 = ORIENTED_EDGE('',*,*,#1243,.T.);
#1243 = EDGE_CURVE('',#1236,#1244,#1246,.T.);
#1244 = VERTEX_POINT('',#1245);
#1245 = CARTESIAN_POINT('',(0.975,-0.5,27.05));
#1246 = CIRCLE('',#1247,0.275);
#1247 = AXIS2_PLACEMENT_3D('',#1248,#1249,#1250);
#1248 = CARTESIAN_POINT('',(1.25,-0.5,27.05));
#1249 = DIRECTION('',(0.,-1.,0.));
#1250 = DIRECTION('',(-1.,0.,0.));
#1251 = ORIENTED_EDGE('',*,*,#1252,.T.);
#1252 = EDGE_CURVE('',#1244,#1236,#1253,.T.);
#1253 = CIRCLE('',#1254,0.275);
#1254 = AXIS2_PLACEMENT_3D('',#1255,#1256,#1257);
#1255 = CARTESIAN_POINT('',(1.25,-0.5,27.05));
#1256 = DIRECTION('',(0.,-1.,0.));
#1257 = DIRECTION('',(-1.,0.,0.));
#1258 = ORIENTED_EDGE('',*,*,#1235,.F.);
#1259 = CONICAL_SURFACE('',#1260,0.225,0.785398163397);
#1260 = AXIS2_PLACEMENT_3D('',#1261,#1262,#1263);
#1261 = CARTESIAN_POINT('',(1.25,-0.55,27.05));
#1262 = DIRECTION('',(0.,1.,0.));
#1263 = DIRECTION('',(-1.,0.,0.));
#1264 = ADVANCED_FACE('',(#1265),#1285,.T.);
#1265 = FACE_BOUND('',#1266,.T.);
#1266 = EDGE_LOOP('',(#1267,#1268,#1269,#1277,#1284));
#1267 = ORIENTED_EDGE('',*,*,#1243,.F.);
#1268 = ORIENTED_EDGE('',*,*,#1252,.F.);
#1269 = ORIENTED_EDGE('',*,*,#1270,.T.);
#1270 = EDGE_CURVE('',#1244,#1271,#1273,.T.);
#1271 = VERTEX_POINT('',#1272);
#1272 = CARTESIAN_POINT('',(0.975,0.,27.05));
#1273 = LINE('',#1274,#1275);
#1274 = CARTESIAN_POINT('',(0.975,0.,27.05));
#1275 = VECTOR('',#1276,1.);
#1276 = DIRECTION('',(0.,1.,0.));
#1277 = ORIENTED_EDGE('',*,*,#1278,.F.);
#1278 = EDGE_CURVE('',#1271,#1271,#1279,.T.);
#1279 = CIRCLE('',#1280,0.275);
#1280 = AXIS2_PLACEMENT_3D('',#1281,#1282,#1283);
#1281 = CARTESIAN_POINT('',(1.25,0.,27.05));
#1282 = DIRECTION('',(-0.,1.,0.));
#1283 = DIRECTION('',(1.,0.,0.));
#1284 = ORIENTED_EDGE('',*,*,#1270,.F.);
#1285 = CYLINDRICAL_SURFACE('',#1286,0.275);
#1286 = AXIS2_PLACEMENT_3D('',#1287,#1288,#1289);
#1287 = CARTESIAN_POINT('',(1.25,0.,27.05));
#1288 = DIRECTION('',(0.,-1.,0.));
#1289 = DIRECTION('',(1.,0.,0.));
#1290 = ADVANCED_FACE('',(#1291),#1294,.T.);
#1291 = FACE_BOUND('',#1292,.T.);
#1292 = EDGE_LOOP('',(#1293));
#1293 = ORIENTED_EDGE('',*,*,#1226,.F.);
#1294 = PLANE('',#1295);
#1295 = AXIS2_PLACEMENT_3D('',#1296,#1297,#1298);
#1296 = CARTESIAN_POINT('',(1.25,-0.6,27.05));
#1297 = DIRECTION('',(0.,-1.,0.));
#1298 = DIRECTION('',(0.,0.,-1.));
#1299 = ADVANCED_FACE('',(#1300),#1336,.T.);
#1300 = FACE_BOUND('',#1301,.T.);
#1301 = EDGE_LOOP('',(#1302,#1311,#1319,#1328,#1335));
#1302 = ORIENTED_EDGE('',*,*,#1303,.T.);
#1303 = EDGE_CURVE('',#1304,#1304,#1306,.T.);
#1304 = VERTEX_POINT('',#1305);
#1305 = CARTESIAN_POINT('',(1.425,-0.6,0.65));
#1306 = CIRCLE('',#1307,0.175);
#1307 = AXIS2_PLACEMENT_3D('',#1308,#1309,#1310);
#1308 = CARTESIAN_POINT('',(1.25,-0.6,0.65));
#1309 = DIRECTION('',(0.,1.,0.));
#1310 = DIRECTION('',(-1.,0.,0.));
#1311 = ORIENTED_EDGE('',*,*,#1312,.T.);
#1312 = EDGE_CURVE('',#1304,#1313,#1315,.T.);
#1313 = VERTEX_POINT('',#1314);
#1314 = CARTESIAN_POINT('',(1.525,-0.5,0.65));
#1315 = LINE('',#1316,#1317);
#1316 = CARTESIAN_POINT('',(1.475,-0.55,0.65));
#1317 = VECTOR('',#1318,1.);
#1318 = DIRECTION('',(0.707106781187,0.707106781187,8.659560562355E-17)
  );
#1319 = ORIENTED_EDGE('',*,*,#1320,.T.);
#1320 = EDGE_CURVE('',#1313,#1321,#1323,.T.);
#1321 = VERTEX_POINT('',#1322);
#1322 = CARTESIAN_POINT('',(0.975,-0.5,0.65));
#1323 = CIRCLE('',#1324,0.275);
#1324 = AXIS2_PLACEMENT_3D('',#1325,#1326,#1327);
#1325 = CARTESIAN_POINT('',(1.25,-0.5,0.65));
#1326 = DIRECTION('',(0.,-1.,0.));
#1327 = DIRECTION('',(-1.,0.,0.));
#1328 = ORIENTED_EDGE('',*,*,#1329,.T.);
#1329 = EDGE_CURVE('',#1321,#1313,#1330,.T.);
#1330 = CIRCLE('',#1331,0.275);
#1331 = AXIS2_PLACEMENT_3D('',#1332,#1333,#1334);
#1332 = CARTESIAN_POINT('',(1.25,-0.5,0.65));
#1333 = DIRECTION('',(0.,-1.,0.));
#1334 = DIRECTION('',(-1.,0.,0.));
#1335 = ORIENTED_EDGE('',*,*,#1312,.F.);
#1336 = CONICAL_SURFACE('',#1337,0.225,0.785398163397);
#1337 = AXIS2_PLACEMENT_3D('',#1338,#1339,#1340);
#1338 = CARTESIAN_POINT('',(1.25,-0.55,0.65));
#1339 = DIRECTION('',(0.,1.,0.));
#1340 = DIRECTION('',(-1.,0.,0.));
#1341 = ADVANCED_FACE('',(#1342),#1362,.T.);
#1342 = FACE_BOUND('',#1343,.T.);
#1343 = EDGE_LOOP('',(#1344,#1345,#1346,#1354,#1361));
#1344 = ORIENTED_EDGE('',*,*,#1320,.F.);
#1345 = ORIENTED_EDGE('',*,*,#1329,.F.);
#1346 = ORIENTED_EDGE('',*,*,#1347,.T.);
#1347 = EDGE_CURVE('',#1321,#1348,#1350,.T.);
#1348 = VERTEX_POINT('',#1349);
#1349 = CARTESIAN_POINT('',(0.975,0.,0.65));
#1350 = LINE('',#1351,#1352);
#1351 = CARTESIAN_POINT('',(0.975,0.,0.65));
#1352 = VECTOR('',#1353,1.);
#1353 = DIRECTION('',(0.,1.,0.));
#1354 = ORIENTED_EDGE('',*,*,#1355,.F.);
#1355 = EDGE_CURVE('',#1348,#1348,#1356,.T.);
#1356 = CIRCLE('',#1357,0.275);
#1357 = AXIS2_PLACEMENT_3D('',#1358,#1359,#1360);
#1358 = CARTESIAN_POINT('',(1.25,0.,0.65));
#1359 = DIRECTION('',(-0.,1.,0.));
#1360 = DIRECTION('',(1.,0.,0.));
#1361 = ORIENTED_EDGE('',*,*,#1347,.F.);
#1362 = CYLINDRICAL_SURFACE('',#1363,0.275);
#1363 = AXIS2_PLACEMENT_3D('',#1364,#1365,#1366);
#1364 = CARTESIAN_POINT('',(1.25,0.,0.65));
#1365 = DIRECTION('',(0.,-1.,0.));
#1366 = DIRECTION('',(1.,0.,0.));
#1367 = ADVANCED_FACE('',(#1368),#1371,.T.);
#1368 = FACE_BOUND('',#1369,.T.);
#1369 = EDGE_LOOP('',(#1370));
#1370 = ORIENTED_EDGE('',*,*,#1303,.F.);
#1371 = PLANE('',#1372);
#1372 = AXIS2_PLACEMENT_3D('',#1373,#1374,#1375);
#1373 = CARTESIAN_POINT('',(1.25,-0.6,0.65));
#1374 = DIRECTION('',(0.,-1.,0.));
#1375 = DIRECTION('',(0.,0.,-1.));
#1376 = ADVANCED_FACE('',(#1377,#1402,#1405),#1408,.T.);
#1377 = FACE_BOUND('',#1378,.T.);
#1378 = EDGE_LOOP('',(#1379,#1387,#1395,#1401));
#1379 = ORIENTED_EDGE('',*,*,#1380,.F.);
#1380 = EDGE_CURVE('',#1381,#1060,#1383,.T.);
#1381 = VERTEX_POINT('',#1382);
#1382 = CARTESIAN_POINT('',(2.,0.,0.));
#1383 = LINE('',#1384,#1385);
#1384 = CARTESIAN_POINT('',(0.,0.,0.));
#1385 = VECTOR('',#1386,1.);
#1386 = DIRECTION('',(-1.,-1.261617073438E-16,0.));
#1387 = ORIENTED_EDGE('',*,*,#1388,.T.);
#1388 = EDGE_CURVE('',#1381,#1389,#1391,.T.);
#1389 = VERTEX_POINT('',#1390);
#1390 = CARTESIAN_POINT('',(2.,0.,27.7));
#1391 = LINE('',#1392,#1393);
#1392 = CARTESIAN_POINT('',(2.,0.,0.));
#1393 = VECTOR('',#1394,1.);
#1394 = DIRECTION('',(0.,0.,1.));
#1395 = ORIENTED_EDGE('',*,*,#1396,.T.);
#1396 = EDGE_CURVE('',#1389,#1068,#1397,.T.);
#1397 = LINE('',#1398,#1399);
#1398 = CARTESIAN_POINT('',(0.,0.,27.7));
#1399 = VECTOR('',#1400,1.);
#1400 = DIRECTION('',(-1.,-1.261617073438E-16,0.));
#1401 = ORIENTED_EDGE('',*,*,#1067,.F.);
#1402 = FACE_BOUND('',#1403,.T.);
#1403 = EDGE_LOOP('',(#1404));
#1404 = ORIENTED_EDGE('',*,*,#1355,.T.);
#1405 = FACE_BOUND('',#1406,.T.);
#1406 = EDGE_LOOP('',(#1407));
#1407 = ORIENTED_EDGE('',*,*,#1278,.T.);
#1408 = PLANE('',#1409);
#1409 = AXIS2_PLACEMENT_3D('',#1410,#1411,#1412);
#1410 = CARTESIAN_POINT('',(0.,0.,0.));
#1411 = DIRECTION('',(0.,-1.,0.));
#1412 = DIRECTION('',(1.,0.,0.));
#1413 = ADVANCED_FACE('',(#1414,#1439,#1445),#1451,.T.);
#1414 = FACE_BOUND('',#1415,.T.);
#1415 = EDGE_LOOP('',(#1416,#1424,#1425,#1433));
#1416 = ORIENTED_EDGE('',*,*,#1417,.T.);
#1417 = EDGE_CURVE('',#1418,#991,#1420,.T.);
#1418 = VERTEX_POINT('',#1419);
#1419 = CARTESIAN_POINT('',(2.2,2.2,0.));
#1420 = LINE('',#1421,#1422);
#1421 = CARTESIAN_POINT('',(2.2,2.2,0.));
#1422 = VECTOR('',#1423,1.);
#1423 = DIRECTION('',(-1.,-2.523234146875E-16,0.));
#1424 = ORIENTED_EDGE('',*,*,#1014,.T.);
#1425 = ORIENTED_EDGE('',*,*,#1426,.F.);
#1426 = EDGE_CURVE('',#1427,#1007,#1429,.T.);
#1427 = VERTEX_POINT('',#1428);
#1428 = CARTESIAN_POINT('',(2.2,2.2,27.7));
#1429 = LINE('',#1430,#1431);
#1430 = CARTESIAN_POINT('',(2.2,2.2,27.7));
#1431 = VECTOR('',#1432,1.);
#1432 = DIRECTION('',(-1.,-2.523234146875E-16,0.));
#1433 = ORIENTED_EDGE('',*,*,#1434,.F.);
#1434 = EDGE_CURVE('',#1418,#1427,#1435,.T.);
#1435 = LINE('',#1436,#1437);
#1436 = CARTESIAN_POINT('',(2.2,2.2,0.));
#1437 = VECTOR('',#1438,1.);
#1438 = DIRECTION('',(0.,0.,1.));
#1439 = FACE_BOUND('',#1440,.T.);
#1440 = EDGE_LOOP('',(#1441,#1442,#1443,#1444));
#1441 = ORIENTED_EDGE('',*,*,#852,.T.);
#1442 = ORIENTED_EDGE('',*,*,#892,.T.);
#1443 = ORIENTED_EDGE('',*,*,#923,.T.);
#1444 = ORIENTED_EDGE('',*,*,#954,.T.);
#1445 = FACE_BOUND('',#1446,.T.);
#1446 = EDGE_LOOP('',(#1447,#1448,#1449,#1450));
#1447 = ORIENTED_EDGE('',*,*,#1090,.T.);
#1448 = ORIENTED_EDGE('',*,*,#1192,.T.);
#1449 = ORIENTED_EDGE('',*,*,#1161,.T.);
#1450 = ORIENTED_EDGE('',*,*,#1130,.T.);
#1451 = PLANE('',#1452);
#1452 = AXIS2_PLACEMENT_3D('',#1453,#1454,#1455);
#1453 = CARTESIAN_POINT('',(2.2,2.2,0.));
#1454 = DIRECTION('',(-2.523234146875E-16,1.,0.));
#1455 = DIRECTION('',(-1.,-2.523234146875E-16,0.));
#1456 = ADVANCED_FACE('',(#1457),#1482,.T.);
#1457 = FACE_BOUND('',#1458,.T.);
#1458 = EDGE_LOOP('',(#1459,#1467,#1468,#1476));
#1459 = ORIENTED_EDGE('',*,*,#1460,.T.);
#1460 = EDGE_CURVE('',#1461,#1418,#1463,.T.);
#1461 = VERTEX_POINT('',#1462);
#1462 = CARTESIAN_POINT('',(2.2,1.7,0.));
#1463 = LINE('',#1464,#1465);
#1464 = CARTESIAN_POINT('',(2.2,1.7,0.));
#1465 = VECTOR('',#1466,1.);
#1466 = DIRECTION('',(-1.110223024625E-15,1.,0.));
#1467 = ORIENTED_EDGE('',*,*,#1434,.T.);
#1468 = ORIENTED_EDGE('',*,*,#1469,.F.);
#1469 = EDGE_CURVE('',#1470,#1427,#1472,.T.);
#1470 = VERTEX_POINT('',#1471);
#1471 = CARTESIAN_POINT('',(2.2,1.7,27.7));
#1472 = LINE('',#1473,#1474);
#1473 = CARTESIAN_POINT('',(2.2,1.7,27.7));
#1474 = VECTOR('',#1475,1.);
#1475 = DIRECTION('',(-1.110223024625E-15,1.,0.));
#1476 = ORIENTED_EDGE('',*,*,#1477,.F.);
#1477 = EDGE_CURVE('',#1461,#1470,#1478,.T.);
#1478 = LINE('',#1479,#1480);
#1479 = CARTESIAN_POINT('',(2.2,1.7,0.));
#1480 = VECTOR('',#1481,1.);
#1481 = DIRECTION('',(0.,0.,1.));
#1482 = PLANE('',#1483);
#1483 = AXIS2_PLACEMENT_3D('',#1484,#1485,#1486);
#1484 = CARTESIAN_POINT('',(2.2,1.7,0.));
#1485 = DIRECTION('',(1.,1.110223024625E-15,0.));
#1486 = DIRECTION('',(-1.110223024625E-15,1.,0.));
#1487 = ADVANCED_FACE('',(#1488),#1513,.T.);
#1488 = FACE_BOUND('',#1489,.T.);
#1489 = EDGE_LOOP('',(#1490,#1498,#1499,#1507));
#1490 = ORIENTED_EDGE('',*,*,#1491,.T.);
#1491 = EDGE_CURVE('',#1492,#1461,#1494,.T.);
#1492 = VERTEX_POINT('',#1493);
#1493 = CARTESIAN_POINT('',(2.,1.7,0.));
#1494 = LINE('',#1495,#1496);
#1495 = CARTESIAN_POINT('',(2.,1.7,0.));
#1496 = VECTOR('',#1497,1.);
#1497 = DIRECTION('',(1.,1.387778780781E-15,0.));
#1498 = ORIENTED_EDGE('',*,*,#1477,.T.);
#1499 = ORIENTED_EDGE('',*,*,#1500,.F.);
#1500 = EDGE_CURVE('',#1501,#1470,#1503,.T.);
#1501 = VERTEX_POINT('',#1502);
#1502 = CARTESIAN_POINT('',(2.,1.7,27.7));
#1503 = LINE('',#1504,#1505);
#1504 = CARTESIAN_POINT('',(2.,1.7,27.7));
#1505 = VECTOR('',#1506,1.);
#1506 = DIRECTION('',(1.,1.387778780781E-15,0.));
#1507 = ORIENTED_EDGE('',*,*,#1508,.F.);
#1508 = EDGE_CURVE('',#1492,#1501,#1509,.T.);
#1509 = LINE('',#1510,#1511);
#1510 = CARTESIAN_POINT('',(2.,1.7,0.));
#1511 = VECTOR('',#1512,1.);
#1512 = DIRECTION('',(0.,0.,1.));
#1513 = PLANE('',#1514);
#1514 = AXIS2_PLACEMENT_3D('',#1515,#1516,#1517);
#1515 = CARTESIAN_POINT('',(2.,1.7,0.));
#1516 = DIRECTION('',(1.387778780781E-15,-1.,0.));
#1517 = DIRECTION('',(1.,1.387778780781E-15,0.));
#1518 = ADVANCED_FACE('',(#1519),#1535,.T.);
#1519 = FACE_BOUND('',#1520,.T.);
#1520 = EDGE_LOOP('',(#1521,#1527,#1528,#1534));
#1521 = ORIENTED_EDGE('',*,*,#1522,.T.);
#1522 = EDGE_CURVE('',#1381,#1492,#1523,.T.);
#1523 = LINE('',#1524,#1525);
#1524 = CARTESIAN_POINT('',(2.,0.,0.));
#1525 = VECTOR('',#1526,1.);
#1526 = DIRECTION('',(-1.632680918566E-16,1.,0.));
#1527 = ORIENTED_EDGE('',*,*,#1508,.T.);
#1528 = ORIENTED_EDGE('',*,*,#1529,.F.);
#1529 = EDGE_CURVE('',#1389,#1501,#1530,.T.);
#1530 = LINE('',#1531,#1532);
#1531 = CARTESIAN_POINT('',(2.,0.,27.7));
#1532 = VECTOR('',#1533,1.);
#1533 = DIRECTION('',(-1.632680918566E-16,1.,0.));
#1534 = ORIENTED_EDGE('',*,*,#1388,.F.);
#1535 = PLANE('',#1536);
#1536 = AXIS2_PLACEMENT_3D('',#1537,#1538,#1539);
#1537 = CARTESIAN_POINT('',(2.,0.,0.));
#1538 = DIRECTION('',(1.,1.632680918566E-16,0.));
#1539 = DIRECTION('',(-1.632680918566E-16,1.,0.));
#1540 = ADVANCED_FACE('',(#1541),#1551,.T.);
#1541 = FACE_BOUND('',#1542,.T.);
#1542 = EDGE_LOOP('',(#1543,#1544,#1545,#1546,#1547,#1548,#1549,#1550));
#1543 = ORIENTED_EDGE('',*,*,#1529,.T.);
#1544 = ORIENTED_EDGE('',*,*,#1500,.T.);
#1545 = ORIENTED_EDGE('',*,*,#1469,.T.);
#1546 = ORIENTED_EDGE('',*,*,#1426,.T.);
#1547 = ORIENTED_EDGE('',*,*,#1006,.F.);
#1548 = ORIENTED_EDGE('',*,*,#1044,.F.);
#1549 = ORIENTED_EDGE('',*,*,#1075,.F.);
#1550 = ORIENTED_EDGE('',*,*,#1396,.F.);
#1551 = PLANE('',#1552);
#1552 = AXIS2_PLACEMENT_3D('',#1553,#1554,#1555);
#1553 = CARTESIAN_POINT('',(1.1,1.1,27.7));
#1554 = DIRECTION('',(0.,0.,1.));
#1555 = DIRECTION('',(1.,0.,-0.));
#1556 = ADVANCED_FACE('',(#1557),#1567,.F.);
#1557 = FACE_BOUND('',#1558,.T.);
#1558 = EDGE_LOOP('',(#1559,#1560,#1561,#1562,#1563,#1564,#1565,#1566));
#1559 = ORIENTED_EDGE('',*,*,#1522,.F.);
#1560 = ORIENTED_EDGE('',*,*,#1380,.T.);
#1561 = ORIENTED_EDGE('',*,*,#1059,.T.);
#1562 = ORIENTED_EDGE('',*,*,#1028,.T.);
#1563 = ORIENTED_EDGE('',*,*,#988,.T.);
#1564 = ORIENTED_EDGE('',*,*,#1417,.F.);
#1565 = ORIENTED_EDGE('',*,*,#1460,.F.);
#1566 = ORIENTED_EDGE('',*,*,#1491,.F.);
#1567 = PLANE('',#1568);
#1568 = AXIS2_PLACEMENT_3D('',#1569,#1570,#1571);
#1569 = CARTESIAN_POINT('',(1.1,1.1,0.));
#1570 = DIRECTION('',(0.,0.,1.));
#1571 = DIRECTION('',(1.,0.,-0.));
#1572 = ( GEOMETRIC_REPRESENTATION_CONTEXT(3) 
GLOBAL_UNCERTAINTY_ASSIGNED_CONTEXT((#1576)) 
GLOBAL_UNIT_ASSIGNED_CONTEXT((#1573,#1574,#1575)) REPRESENTATION_CONTEXT
('Context #1','3D Context with UNIT and UNCERTAINTY') );
#1573 = ( LENGTH_UNIT() NAMED_UNIT(*) SI_UNIT(.MILLI.,.METRE.) );
#1574 = ( NAMED_UNIT(*) PLANE_ANGLE_UNIT() SI_UNIT($,.RADIAN.) );
#1575 = ( NAMED_UNIT(*) SI_UNIT($,.STERADIAN.) SOLID_ANGLE_UNIT() );
#1576 = UNCERTAINTY_MEASURE_WITH_UNIT(LENGTH_MEASURE(1.E-07),#1573,
  'distance_accuracy_value','confusion accuracy');
#1577 = CONTEXT_DEPENDENT_SHAPE_REPRESENTATION(#1578,#1580);
#1578 = ( REPRESENTATION_RELATIONSHIP('','',#845,#822) 
REPRESENTATION_RELATIONSHIP_WITH_TRANSFORMATION(#1579) 
SHAPE_REPRESENTATION_RELATIONSHIP() );
#1579 = ITEM_DEFINED_TRANSFORMATION('','',#11,#823);
#1580 = PRODUCT_DEFINITION_SHAPE('Placement','Placement of an item',
  #1581);
#1581 = NEXT_ASSEMBLY_USAGE_OCCURRENCE('7','=>[0:1:1:5]','',#817,#840,$
  );
#1582 = PRODUCT_RELATED_PRODUCT_CATEGORY('part',$,(#842));
#1583 = CONTEXT_DEPENDENT_SHAPE_REPRESENTATION(#1584,#1586);
#1584 = ( REPRESENTATION_RELATIONSHIP('','',#822,#10) 
REPRESENTATION_RELATIONSHIP_WITH_TRANSFORMATION(#1585) 
SHAPE_REPRESENTATION_RELATIONSHIP() );
#1585 = ITEM_DEFINED_TRANSFORMATION('','',#11,#39);
#1586 = PRODUCT_DEFINITION_SHAPE('Placement','Placement of an item',
  #1587);
#1587 = NEXT_ASSEMBLY_USAGE_OCCURRENCE('9','J2','',#5,#817,$);
#1588 = SHAPE_DEFINITION_REPRESENTATION(#1589,#1595);
#1589 = PRODUCT_DEFINITION_SHAPE('','',#1590);
#1590 = PRODUCT_DEFINITION('design','',#1591,#1594);
#1591 = PRODUCT_DEFINITION_FORMATION('','',#1592);
#1592 = PRODUCT('Main Mezzanine Backplane_PCB',
  'Main Mezzanine Backplane_PCB','',(#1593));
#1593 = PRODUCT_CONTEXT('',#2,'mechanical');
#1594 = PRODUCT_DEFINITION_CONTEXT('part definition',#2,'design');
#1595 = ADVANCED_BREP_SHAPE_REPRESENTATION('',(#11,#1596),#2198);
#1596 = MANIFOLD_SOLID_BREP('',#1597);
#1597 = CLOSED_SHELL('',(#1598,#1640,#1671,#1702,#1842,#1982,#1999,#2016
    ,#2033,#2050,#2062,#2079,#2096,#2113,#2130,#2147,#2164,#2181));
#1598 = ADVANCED_FACE('',(#1599),#1635,.T.);
#1599 = FACE_BOUND('',#1600,.T.);
#1600 = EDGE_LOOP('',(#1601,#1611,#1620,#1628));
#1601 = ORIENTED_EDGE('',*,*,#1602,.T.);
#1602 = EDGE_CURVE('',#1603,#1605,#1607,.T.);
#1603 = VERTEX_POINT('',#1604);
#1604 = CARTESIAN_POINT('',(231.5,-50.,0.));
#1605 = VERTEX_POINT('',#1606);
#1606 = CARTESIAN_POINT('',(231.5,-50.,1.6));
#1607 = LINE('',#1608,#1609);
#1608 = CARTESIAN_POINT('',(231.5,-50.,0.));
#1609 = VECTOR('',#1610,1.);
#1610 = DIRECTION('',(0.,0.,1.));
#1611 = ORIENTED_EDGE('',*,*,#1612,.T.);
#1612 = EDGE_CURVE('',#1605,#1613,#1615,.T.);
#1613 = VERTEX_POINT('',#1614);
#1614 = CARTESIAN_POINT('',(233.5,-52.,1.6));
#1615 = CIRCLE('',#1616,1.99999850585);
#1616 = AXIS2_PLACEMENT_3D('',#1617,#1618,#1619);
#1617 = CARTESIAN_POINT('',(231.50000149415,-51.99999850585,1.6));
#1618 = DIRECTION('',(0.,0.,-1.));
#1619 = DIRECTION('',(-7.470757349539E-07,1.,0.));
#1620 = ORIENTED_EDGE('',*,*,#1621,.F.);
#1621 = EDGE_CURVE('',#1622,#1613,#1624,.T.);
#1622 = VERTEX_POINT('',#1623);
#1623 = CARTESIAN_POINT('',(233.5,-52.,0.));
#1624 = LINE('',#1625,#1626);
#1625 = CARTESIAN_POINT('',(233.5,-52.,0.));
#1626 = VECTOR('',#1627,1.);
#1627 = DIRECTION('',(0.,0.,1.));
#1628 = ORIENTED_EDGE('',*,*,#1629,.F.);
#1629 = EDGE_CURVE('',#1603,#1622,#1630,.T.);
#1630 = CIRCLE('',#1631,1.99999850585);
#1631 = AXIS2_PLACEMENT_3D('',#1632,#1633,#1634);
#1632 = CARTESIAN_POINT('',(231.50000149415,-51.99999850585,0.));
#1633 = DIRECTION('',(0.,0.,-1.));
#1634 = DIRECTION('',(-7.470757349539E-07,1.,0.));
#1635 = CYLINDRICAL_SURFACE('',#1636,1.99999850585);
#1636 = AXIS2_PLACEMENT_3D('',#1637,#1638,#1639);
#1637 = CARTESIAN_POINT('',(231.50000149415,-51.99999850585,0.));
#1638 = DIRECTION('',(0.,0.,-1.));
#1639 = DIRECTION('',(-7.470757349539E-07,1.,0.));
#1640 = ADVANCED_FACE('',(#1641),#1666,.T.);
#1641 = FACE_BOUND('',#1642,.T.);
#1642 = EDGE_LOOP('',(#1643,#1653,#1659,#1660));
#1643 = ORIENTED_EDGE('',*,*,#1644,.T.);
#1644 = EDGE_CURVE('',#1645,#1647,#1649,.T.);
#1645 = VERTEX_POINT('',#1646);
#1646 = CARTESIAN_POINT('',(187.5,-50.,0.));
#1647 = VERTEX_POINT('',#1648);
#1648 = CARTESIAN_POINT('',(187.5,-50.,1.6));
#1649 = LINE('',#1650,#1651);
#1650 = CARTESIAN_POINT('',(187.5,-50.,0.));
#1651 = VECTOR('',#1652,1.);
#1652 = DIRECTION('',(0.,0.,1.));
#1653 = ORIENTED_EDGE('',*,*,#1654,.T.);
#1654 = EDGE_CURVE('',#1647,#1605,#1655,.T.);
#1655 = LINE('',#1656,#1657);
#1656 = CARTESIAN_POINT('',(187.5,-50.,1.6));
#1657 = VECTOR('',#1658,1.);
#1658 = DIRECTION('',(1.,0.,0.));
#1659 = ORIENTED_EDGE('',*,*,#1602,.F.);
#1660 = ORIENTED_EDGE('',*,*,#1661,.F.);
#1661 = EDGE_CURVE('',#1645,#1603,#1662,.T.);
#1662 = LINE('',#1663,#1664);
#1663 = CARTESIAN_POINT('',(187.5,-50.,0.));
#1664 = VECTOR('',#1665,1.);
#1665 = DIRECTION('',(1.,0.,0.));
#1666 = PLANE('',#1667);
#1667 = AXIS2_PLACEMENT_3D('',#1668,#1669,#1670);
#1668 = CARTESIAN_POINT('',(187.5,-50.,0.));
#1669 = DIRECTION('',(0.,1.,0.));
#1670 = DIRECTION('',(1.,0.,0.));
#1671 = ADVANCED_FACE('',(#1672),#1697,.T.);
#1672 = FACE_BOUND('',#1673,.T.);
#1673 = EDGE_LOOP('',(#1674,#1675,#1683,#1691));
#1674 = ORIENTED_EDGE('',*,*,#1621,.T.);
#1675 = ORIENTED_EDGE('',*,*,#1676,.T.);
#1676 = EDGE_CURVE('',#1613,#1677,#1679,.T.);
#1677 = VERTEX_POINT('',#1678);
#1678 = CARTESIAN_POINT('',(233.5,-145.,1.6));
#1679 = LINE('',#1680,#1681);
#1680 = CARTESIAN_POINT('',(233.5,-52.,1.6));
#1681 = VECTOR('',#1682,1.);
#1682 = DIRECTION('',(0.,-1.,0.));
#1683 = ORIENTED_EDGE('',*,*,#1684,.F.);
#1684 = EDGE_CURVE('',#1685,#1677,#1687,.T.);
#1685 = VERTEX_POINT('',#1686);
#1686 = CARTESIAN_POINT('',(233.5,-145.,0.));
#1687 = LINE('',#1688,#1689);
#1688 = CARTESIAN_POINT('',(233.5,-145.,0.));
#1689 = VECTOR('',#1690,1.);
#1690 = DIRECTION('',(0.,0.,1.));
#1691 = ORIENTED_EDGE('',*,*,#1692,.F.);
#1692 = EDGE_CURVE('',#1622,#1685,#1693,.T.);
#1693 = LINE('',#1694,#1695);
#1694 = CARTESIAN_POINT('',(233.5,-52.,0.));
#1695 = VECTOR('',#1696,1.);
#1696 = DIRECTION('',(0.,-1.,0.));
#1697 = PLANE('',#1698);
#1698 = AXIS2_PLACEMENT_3D('',#1699,#1700,#1701);
#1699 = CARTESIAN_POINT('',(233.5,-52.,0.));
#1700 = DIRECTION('',(1.,0.,-0.));
#1701 = DIRECTION('',(0.,-1.,0.));
#1702 = ADVANCED_FACE('',(#1703,#1749,#1760,#1771,#1782,#1793,#1804,
    #1815,#1826),#1837,.T.);
#1703 = FACE_BOUND('',#1704,.T.);
#1704 = EDGE_LOOP('',(#1705,#1706,#1707,#1716,#1724,#1733,#1741,#1748));
#1705 = ORIENTED_EDGE('',*,*,#1629,.T.);
#1706 = ORIENTED_EDGE('',*,*,#1692,.T.);
#1707 = ORIENTED_EDGE('',*,*,#1708,.T.);
#1708 = EDGE_CURVE('',#1685,#1709,#1711,.T.);
#1709 = VERTEX_POINT('',#1710);
#1710 = CARTESIAN_POINT('',(231.5,-147.,0.));
#1711 = CIRCLE('',#1712,1.99999850585);
#1712 = AXIS2_PLACEMENT_3D('',#1713,#1714,#1715);
#1713 = CARTESIAN_POINT('',(231.50000149415,-145.0000014941,0.));
#1714 = DIRECTION('',(0.,0.,-1.));
#1715 = DIRECTION('',(1.,7.47075720743E-07,0.));
#1716 = ORIENTED_EDGE('',*,*,#1717,.T.);
#1717 = EDGE_CURVE('',#1709,#1718,#1720,.T.);
#1718 = VERTEX_POINT('',#1719);
#1719 = CARTESIAN_POINT('',(187.5,-147.,0.));
#1720 = LINE('',#1721,#1722);
#1721 = CARTESIAN_POINT('',(231.5,-147.,0.));
#1722 = VECTOR('',#1723,1.);
#1723 = DIRECTION('',(-1.,0.,0.));
#1724 = ORIENTED_EDGE('',*,*,#1725,.T.);
#1725 = EDGE_CURVE('',#1718,#1726,#1728,.T.);
#1726 = VERTEX_POINT('',#1727);
#1727 = CARTESIAN_POINT('',(185.5,-145.,0.));
#1728 = CIRCLE('',#1729,1.99999850585);
#1729 = AXIS2_PLACEMENT_3D('',#1730,#1731,#1732);
#1730 = CARTESIAN_POINT('',(187.49999850585,-145.0000014941,0.));
#1731 = DIRECTION('',(0.,0.,-1.));
#1732 = DIRECTION('',(7.47075720743E-07,-1.,0.));
#1733 = ORIENTED_EDGE('',*,*,#1734,.T.);
#1734 = EDGE_CURVE('',#1726,#1735,#1737,.T.);
#1735 = VERTEX_POINT('',#1736);
#1736 = CARTESIAN_POINT('',(185.5,-52.,0.));
#1737 = LINE('',#1738,#1739);
#1738 = CARTESIAN_POINT('',(185.5,-145.,0.));
#1739 = VECTOR('',#1740,1.);
#1740 = DIRECTION('',(0.,1.,0.));
#1741 = ORIENTED_EDGE('',*,*,#1742,.T.);
#1742 = EDGE_CURVE('',#1735,#1645,#1743,.T.);
#1743 = CIRCLE('',#1744,1.99999850585);
#1744 = AXIS2_PLACEMENT_3D('',#1745,#1746,#1747);
#1745 = CARTESIAN_POINT('',(187.49999850585,-51.99999850585,0.));
#1746 = DIRECTION('',(0.,0.,-1.));
#1747 = DIRECTION('',(-1.,-7.470757314012E-07,-0.));
#1748 = ORIENTED_EDGE('',*,*,#1661,.T.);
#1749 = FACE_BOUND('',#1750,.T.);
#1750 = EDGE_LOOP('',(#1751));
#1751 = ORIENTED_EDGE('',*,*,#1752,.F.);
#1752 = EDGE_CURVE('',#1753,#1753,#1755,.T.);
#1753 = VERTEX_POINT('',#1754);
#1754 = CARTESIAN_POINT('',(229.5,-122.6,0.));
#1755 = CIRCLE('',#1756,1.6);
#1756 = AXIS2_PLACEMENT_3D('',#1757,#1758,#1759);
#1757 = CARTESIAN_POINT('',(229.5,-121.,0.));
#1758 = DIRECTION('',(-0.,0.,-1.));
#1759 = DIRECTION('',(-0.,-1.,0.));
#1760 = FACE_BOUND('',#1761,.T.);
#1761 = EDGE_LOOP('',(#1762));
#1762 = ORIENTED_EDGE('',*,*,#1763,.F.);
#1763 = EDGE_CURVE('',#1764,#1764,#1766,.T.);
#1764 = VERTEX_POINT('',#1765);
#1765 = CARTESIAN_POINT('',(226.25,-98.475,0.));
#1766 = CIRCLE('',#1767,0.275);
#1767 = AXIS2_PLACEMENT_3D('',#1768,#1769,#1770);
#1768 = CARTESIAN_POINT('',(226.25,-98.2,0.));
#1769 = DIRECTION('',(-0.,0.,-1.));
#1770 = DIRECTION('',(-0.,-1.,0.));
#1771 = FACE_BOUND('',#1772,.T.);
#1772 = EDGE_LOOP('',(#1773));
#1773 = ORIENTED_EDGE('',*,*,#1774,.F.);
#1774 = EDGE_CURVE('',#1775,#1775,#1777,.T.);
#1775 = VERTEX_POINT('',#1776);
#1776 = CARTESIAN_POINT('',(189.5,-122.6,0.));
#1777 = CIRCLE('',#1778,1.6);
#1778 = AXIS2_PLACEMENT_3D('',#1779,#1780,#1781);
#1779 = CARTESIAN_POINT('',(189.5,-121.,0.));
#1780 = DIRECTION('',(-0.,0.,-1.));
#1781 = DIRECTION('',(-0.,-1.,0.));
#1782 = FACE_BOUND('',#1783,.T.);
#1783 = EDGE_LOOP('',(#1784));
#1784 = ORIENTED_EDGE('',*,*,#1785,.F.);
#1785 = EDGE_CURVE('',#1786,#1786,#1788,.T.);
#1786 = VERTEX_POINT('',#1787);
#1787 = CARTESIAN_POINT('',(195.25,-98.475,0.));
#1788 = CIRCLE('',#1789,0.275);
#1789 = AXIS2_PLACEMENT_3D('',#1790,#1791,#1792);
#1790 = CARTESIAN_POINT('',(195.25,-98.2,0.));
#1791 = DIRECTION('',(-0.,0.,-1.));
#1792 = DIRECTION('',(-0.,-1.,0.));
#1793 = FACE_BOUND('',#1794,.T.);
#1794 = EDGE_LOOP('',(#1795));
#1795 = ORIENTED_EDGE('',*,*,#1796,.F.);
#1796 = EDGE_CURVE('',#1797,#1797,#1799,.T.);
#1797 = VERTEX_POINT('',#1798);
#1798 = CARTESIAN_POINT('',(226.25,-72.075,0.));
#1799 = CIRCLE('',#1800,0.275);
#1800 = AXIS2_PLACEMENT_3D('',#1801,#1802,#1803);
#1801 = CARTESIAN_POINT('',(226.25,-71.8,0.));
#1802 = DIRECTION('',(-0.,0.,-1.));
#1803 = DIRECTION('',(-0.,-1.,0.));
#1804 = FACE_BOUND('',#1805,.T.);
#1805 = EDGE_LOOP('',(#1806));
#1806 = ORIENTED_EDGE('',*,*,#1807,.F.);
#1807 = EDGE_CURVE('',#1808,#1808,#1810,.T.);
#1808 = VERTEX_POINT('',#1809);
#1809 = CARTESIAN_POINT('',(229.5,-65.1,0.));
#1810 = CIRCLE('',#1811,1.6);
#1811 = AXIS2_PLACEMENT_3D('',#1812,#1813,#1814);
#1812 = CARTESIAN_POINT('',(229.5,-63.5,0.));
#1813 = DIRECTION('',(-0.,0.,-1.));
#1814 = DIRECTION('',(-0.,-1.,0.));
#1815 = FACE_BOUND('',#1816,.T.);
#1816 = EDGE_LOOP('',(#1817));
#1817 = ORIENTED_EDGE('',*,*,#1818,.F.);
#1818 = EDGE_CURVE('',#1819,#1819,#1821,.T.);
#1819 = VERTEX_POINT('',#1820);
#1820 = CARTESIAN_POINT('',(195.25,-72.075,0.));
#1821 = CIRCLE('',#1822,0.275);
#1822 = AXIS2_PLACEMENT_3D('',#1823,#1824,#1825);
#1823 = CARTESIAN_POINT('',(195.25,-71.8,0.));
#1824 = DIRECTION('',(-0.,0.,-1.));
#1825 = DIRECTION('',(-0.,-1.,0.));
#1826 = FACE_BOUND('',#1827,.T.);
#1827 = EDGE_LOOP('',(#1828));
#1828 = ORIENTED_EDGE('',*,*,#1829,.F.);
#1829 = EDGE_CURVE('',#1830,#1830,#1832,.T.);
#1830 = VERTEX_POINT('',#1831);
#1831 = CARTESIAN_POINT('',(189.5,-65.1,0.));
#1832 = CIRCLE('',#1833,1.6);
#1833 = AXIS2_PLACEMENT_3D('',#1834,#1835,#1836);
#1834 = CARTESIAN_POINT('',(189.5,-63.5,0.));
#1835 = DIRECTION('',(-0.,0.,-1.));
#1836 = DIRECTION('',(-0.,-1.,0.));
#1837 = PLANE('',#1838);
#1838 = AXIS2_PLACEMENT_3D('',#1839,#1840,#1841);
#1839 = CARTESIAN_POINT('',(209.5,-98.5,0.));
#1840 = DIRECTION('',(-0.,-0.,-1.));
#1841 = DIRECTION('',(-1.,0.,0.));
#1842 = ADVANCED_FACE('',(#1843,#1889,#1900,#1911,#1922,#1933,#1944,
    #1955,#1966),#1977,.F.);
#1843 = FACE_BOUND('',#1844,.F.);
#1844 = EDGE_LOOP('',(#1845,#1846,#1847,#1856,#1864,#1873,#1881,#1888));
#1845 = ORIENTED_EDGE('',*,*,#1612,.T.);
#1846 = ORIENTED_EDGE('',*,*,#1676,.T.);
#1847 = ORIENTED_EDGE('',*,*,#1848,.T.);
#1848 = EDGE_CURVE('',#1677,#1849,#1851,.T.);
#1849 = VERTEX_POINT('',#1850);
#1850 = CARTESIAN_POINT('',(231.5,-147.,1.6));
#1851 = CIRCLE('',#1852,1.99999850585);
#1852 = AXIS2_PLACEMENT_3D('',#1853,#1854,#1855);
#1853 = CARTESIAN_POINT('',(231.50000149415,-145.0000014941,1.6));
#1854 = DIRECTION('',(0.,0.,-1.));
#1855 = DIRECTION('',(1.,7.47075720743E-07,0.));
#1856 = ORIENTED_EDGE('',*,*,#1857,.T.);
#1857 = EDGE_CURVE('',#1849,#1858,#1860,.T.);
#1858 = VERTEX_POINT('',#1859);
#1859 = CARTESIAN_POINT('',(187.5,-147.,1.6));
#1860 = LINE('',#1861,#1862);
#1861 = CARTESIAN_POINT('',(231.5,-147.,1.6));
#1862 = VECTOR('',#1863,1.);
#1863 = DIRECTION('',(-1.,0.,0.));
#1864 = ORIENTED_EDGE('',*,*,#1865,.T.);
#1865 = EDGE_CURVE('',#1858,#1866,#1868,.T.);
#1866 = VERTEX_POINT('',#1867);
#1867 = CARTESIAN_POINT('',(185.5,-145.,1.6));
#1868 = CIRCLE('',#1869,1.99999850585);
#1869 = AXIS2_PLACEMENT_3D('',#1870,#1871,#1872);
#1870 = CARTESIAN_POINT('',(187.49999850585,-145.0000014941,1.6));
#1871 = DIRECTION('',(0.,0.,-1.));
#1872 = DIRECTION('',(7.47075720743E-07,-1.,0.));
#1873 = ORIENTED_EDGE('',*,*,#1874,.T.);
#1874 = EDGE_CURVE('',#1866,#1875,#1877,.T.);
#1875 = VERTEX_POINT('',#1876);
#1876 = CARTESIAN_POINT('',(185.5,-52.,1.6));
#1877 = LINE('',#1878,#1879);
#1878 = CARTESIAN_POINT('',(185.5,-145.,1.6));
#1879 = VECTOR('',#1880,1.);
#1880 = DIRECTION('',(0.,1.,0.));
#1881 = ORIENTED_EDGE('',*,*,#1882,.T.);
#1882 = EDGE_CURVE('',#1875,#1647,#1883,.T.);
#1883 = CIRCLE('',#1884,1.99999850585);
#1884 = AXIS2_PLACEMENT_3D('',#1885,#1886,#1887);
#1885 = CARTESIAN_POINT('',(187.49999850585,-51.99999850585,1.6));
#1886 = DIRECTION('',(0.,0.,-1.));
#1887 = DIRECTION('',(-1.,-7.470757314012E-07,-0.));
#1888 = ORIENTED_EDGE('',*,*,#1654,.T.);
#1889 = FACE_BOUND('',#1890,.F.);
#1890 = EDGE_LOOP('',(#1891));
#1891 = ORIENTED_EDGE('',*,*,#1892,.F.);
#1892 = EDGE_CURVE('',#1893,#1893,#1895,.T.);
#1893 = VERTEX_POINT('',#1894);
#1894 = CARTESIAN_POINT('',(229.5,-122.6,1.6));
#1895 = CIRCLE('',#1896,1.6);
#1896 = AXIS2_PLACEMENT_3D('',#1897,#1898,#1899);
#1897 = CARTESIAN_POINT('',(229.5,-121.,1.6));
#1898 = DIRECTION('',(-0.,0.,-1.));
#1899 = DIRECTION('',(-0.,-1.,0.));
#1900 = FACE_BOUND('',#1901,.F.);
#1901 = EDGE_LOOP('',(#1902));
#1902 = ORIENTED_EDGE('',*,*,#1903,.F.);
#1903 = EDGE_CURVE('',#1904,#1904,#1906,.T.);
#1904 = VERTEX_POINT('',#1905);
#1905 = CARTESIAN_POINT('',(226.25,-98.475,1.6));
#1906 = CIRCLE('',#1907,0.275);
#1907 = AXIS2_PLACEMENT_3D('',#1908,#1909,#1910);
#1908 = CARTESIAN_POINT('',(226.25,-98.2,1.6));
#1909 = DIRECTION('',(-0.,0.,-1.));
#1910 = DIRECTION('',(-0.,-1.,0.));
#1911 = FACE_BOUND('',#1912,.F.);
#1912 = EDGE_LOOP('',(#1913));
#1913 = ORIENTED_EDGE('',*,*,#1914,.F.);
#1914 = EDGE_CURVE('',#1915,#1915,#1917,.T.);
#1915 = VERTEX_POINT('',#1916);
#1916 = CARTESIAN_POINT('',(189.5,-122.6,1.6));
#1917 = CIRCLE('',#1918,1.6);
#1918 = AXIS2_PLACEMENT_3D('',#1919,#1920,#1921);
#1919 = CARTESIAN_POINT('',(189.5,-121.,1.6));
#1920 = DIRECTION('',(-0.,0.,-1.));
#1921 = DIRECTION('',(-0.,-1.,0.));
#1922 = FACE_BOUND('',#1923,.F.);
#1923 = EDGE_LOOP('',(#1924));
#1924 = ORIENTED_EDGE('',*,*,#1925,.F.);
#1925 = EDGE_CURVE('',#1926,#1926,#1928,.T.);
#1926 = VERTEX_POINT('',#1927);
#1927 = CARTESIAN_POINT('',(195.25,-98.475,1.6));
#1928 = CIRCLE('',#1929,0.275);
#1929 = AXIS2_PLACEMENT_3D('',#1930,#1931,#1932);
#1930 = CARTESIAN_POINT('',(195.25,-98.2,1.6));
#1931 = DIRECTION('',(-0.,0.,-1.));
#1932 = DIRECTION('',(-0.,-1.,0.));
#1933 = FACE_BOUND('',#1934,.F.);
#1934 = EDGE_LOOP('',(#1935));
#1935 = ORIENTED_EDGE('',*,*,#1936,.F.);
#1936 = EDGE_CURVE('',#1937,#1937,#1939,.T.);
#1937 = VERTEX_POINT('',#1938);
#1938 = CARTESIAN_POINT('',(226.25,-72.075,1.6));
#1939 = CIRCLE('',#1940,0.275);
#1940 = AXIS2_PLACEMENT_3D('',#1941,#1942,#1943);
#1941 = CARTESIAN_POINT('',(226.25,-71.8,1.6));
#1942 = DIRECTION('',(-0.,0.,-1.));
#1943 = DIRECTION('',(-0.,-1.,0.));
#1944 = FACE_BOUND('',#1945,.F.);
#1945 = EDGE_LOOP('',(#1946));
#1946 = ORIENTED_EDGE('',*,*,#1947,.F.);
#1947 = EDGE_CURVE('',#1948,#1948,#1950,.T.);
#1948 = VERTEX_POINT('',#1949);
#1949 = CARTESIAN_POINT('',(229.5,-65.1,1.6));
#1950 = CIRCLE('',#1951,1.6);
#1951 = AXIS2_PLACEMENT_3D('',#1952,#1953,#1954);
#1952 = CARTESIAN_POINT('',(229.5,-63.5,1.6));
#1953 = DIRECTION('',(-0.,0.,-1.));
#1954 = DIRECTION('',(-0.,-1.,0.));
#1955 = FACE_BOUND('',#1956,.F.);
#1956 = EDGE_LOOP('',(#1957));
#1957 = ORIENTED_EDGE('',*,*,#1958,.F.);
#1958 = EDGE_CURVE('',#1959,#1959,#1961,.T.);
#1959 = VERTEX_POINT('',#1960);
#1960 = CARTESIAN_POINT('',(195.25,-72.075,1.6));
#1961 = CIRCLE('',#1962,0.275);
#1962 = AXIS2_PLACEMENT_3D('',#1963,#1964,#1965);
#1963 = CARTESIAN_POINT('',(195.25,-71.8,1.6));
#1964 = DIRECTION('',(-0.,0.,-1.));
#1965 = DIRECTION('',(-0.,-1.,0.));
#1966 = FACE_BOUND('',#1967,.F.);
#1967 = EDGE_LOOP('',(#1968));
#1968 = ORIENTED_EDGE('',*,*,#1969,.F.);
#1969 = EDGE_CURVE('',#1970,#1970,#1972,.T.);
#1970 = VERTEX_POINT('',#1971);
#1971 = CARTESIAN_POINT('',(189.5,-65.1,1.6));
#1972 = CIRCLE('',#1973,1.6);
#1973 = AXIS2_PLACEMENT_3D('',#1974,#1975,#1976);
#1974 = CARTESIAN_POINT('',(189.5,-63.5,1.6));
#1975 = DIRECTION('',(-0.,0.,-1.));
#1976 = DIRECTION('',(-0.,-1.,0.));
#1977 = PLANE('',#1978);
#1978 = AXIS2_PLACEMENT_3D('',#1979,#1980,#1981);
#1979 = CARTESIAN_POINT('',(209.5,-98.5,1.6));
#1980 = DIRECTION('',(-0.,-0.,-1.));
#1981 = DIRECTION('',(-1.,0.,0.));
#1982 = ADVANCED_FACE('',(#1983),#1994,.T.);
#1983 = FACE_BOUND('',#1984,.T.);
#1984 = EDGE_LOOP('',(#1985,#1991,#1992,#1993));
#1985 = ORIENTED_EDGE('',*,*,#1986,.T.);
#1986 = EDGE_CURVE('',#1735,#1875,#1987,.T.);
#1987 = LINE('',#1988,#1989);
#1988 = CARTESIAN_POINT('',(185.5,-52.,0.));
#1989 = VECTOR('',#1990,1.);
#1990 = DIRECTION('',(0.,0.,1.));
#1991 = ORIENTED_EDGE('',*,*,#1882,.T.);
#1992 = ORIENTED_EDGE('',*,*,#1644,.F.);
#1993 = ORIENTED_EDGE('',*,*,#1742,.F.);
#1994 = CYLINDRICAL_SURFACE('',#1995,1.99999850585);
#1995 = AXIS2_PLACEMENT_3D('',#1996,#1997,#1998);
#1996 = CARTESIAN_POINT('',(187.49999850585,-51.99999850585,0.));
#1997 = DIRECTION('',(0.,0.,-1.));
#1998 = DIRECTION('',(-1.,-7.470757314012E-07,-0.));
#1999 = ADVANCED_FACE('',(#2000),#2011,.T.);
#2000 = FACE_BOUND('',#2001,.T.);
#2001 = EDGE_LOOP('',(#2002,#2003,#2004,#2010));
#2002 = ORIENTED_EDGE('',*,*,#1684,.T.);
#2003 = ORIENTED_EDGE('',*,*,#1848,.T.);
#2004 = ORIENTED_EDGE('',*,*,#2005,.F.);
#2005 = EDGE_CURVE('',#1709,#1849,#2006,.T.);
#2006 = LINE('',#2007,#2008);
#2007 = CARTESIAN_POINT('',(231.5,-147.,0.));
#2008 = VECTOR('',#2009,1.);
#2009 = DIRECTION('',(0.,0.,1.));
#2010 = ORIENTED_EDGE('',*,*,#1708,.F.);
#2011 = CYLINDRICAL_SURFACE('',#2012,1.99999850585);
#2012 = AXIS2_PLACEMENT_3D('',#2013,#2014,#2015);
#2013 = CARTESIAN_POINT('',(231.50000149415,-145.0000014941,0.));
#2014 = DIRECTION('',(0.,0.,-1.));
#2015 = DIRECTION('',(1.,7.47075720743E-07,0.));
#2016 = ADVANCED_FACE('',(#2017),#2028,.T.);
#2017 = FACE_BOUND('',#2018,.T.);
#2018 = EDGE_LOOP('',(#2019,#2025,#2026,#2027));
#2019 = ORIENTED_EDGE('',*,*,#2020,.T.);
#2020 = EDGE_CURVE('',#1726,#1866,#2021,.T.);
#2021 = LINE('',#2022,#2023);
#2022 = CARTESIAN_POINT('',(185.5,-145.,0.));
#2023 = VECTOR('',#2024,1.);
#2024 = DIRECTION('',(0.,0.,1.));
#2025 = ORIENTED_EDGE('',*,*,#1874,.T.);
#2026 = ORIENTED_EDGE('',*,*,#1986,.F.);
#2027 = ORIENTED_EDGE('',*,*,#1734,.F.);
#2028 = PLANE('',#2029);
#2029 = AXIS2_PLACEMENT_3D('',#2030,#2031,#2032);
#2030 = CARTESIAN_POINT('',(185.5,-145.,0.));
#2031 = DIRECTION('',(-1.,0.,0.));
#2032 = DIRECTION('',(0.,1.,0.));
#2033 = ADVANCED_FACE('',(#2034),#2045,.T.);
#2034 = FACE_BOUND('',#2035,.T.);
#2035 = EDGE_LOOP('',(#2036,#2037,#2038,#2044));
#2036 = ORIENTED_EDGE('',*,*,#2005,.T.);
#2037 = ORIENTED_EDGE('',*,*,#1857,.T.);
#2038 = ORIENTED_EDGE('',*,*,#2039,.F.);
#2039 = EDGE_CURVE('',#1718,#1858,#2040,.T.);
#2040 = LINE('',#2041,#2042);
#2041 = CARTESIAN_POINT('',(187.5,-147.,0.));
#2042 = VECTOR('',#2043,1.);
#2043 = DIRECTION('',(0.,0.,1.));
#2044 = ORIENTED_EDGE('',*,*,#1717,.F.);
#2045 = PLANE('',#2046);
#2046 = AXIS2_PLACEMENT_3D('',#2047,#2048,#2049);
#2047 = CARTESIAN_POINT('',(231.5,-147.,0.));
#2048 = DIRECTION('',(0.,-1.,0.));
#2049 = DIRECTION('',(-1.,0.,0.));
#2050 = ADVANCED_FACE('',(#2051),#2057,.T.);
#2051 = FACE_BOUND('',#2052,.T.);
#2052 = EDGE_LOOP('',(#2053,#2054,#2055,#2056));
#2053 = ORIENTED_EDGE('',*,*,#2039,.T.);
#2054 = ORIENTED_EDGE('',*,*,#1865,.T.);
#2055 = ORIENTED_EDGE('',*,*,#2020,.F.);
#2056 = ORIENTED_EDGE('',*,*,#1725,.F.);
#2057 = CYLINDRICAL_SURFACE('',#2058,1.99999850585);
#2058 = AXIS2_PLACEMENT_3D('',#2059,#2060,#2061);
#2059 = CARTESIAN_POINT('',(187.49999850585,-145.0000014941,0.));
#2060 = DIRECTION('',(0.,0.,-1.));
#2061 = DIRECTION('',(7.47075720743E-07,-1.,0.));
#2062 = ADVANCED_FACE('',(#2063),#2074,.F.);
#2063 = FACE_BOUND('',#2064,.T.);
#2064 = EDGE_LOOP('',(#2065,#2066,#2072,#2073));
#2065 = ORIENTED_EDGE('',*,*,#1752,.T.);
#2066 = ORIENTED_EDGE('',*,*,#2067,.T.);
#2067 = EDGE_CURVE('',#1753,#1893,#2068,.T.);
#2068 = LINE('',#2069,#2070);
#2069 = CARTESIAN_POINT('',(229.5,-122.6,-4.5E-02));
#2070 = VECTOR('',#2071,1.);
#2071 = DIRECTION('',(0.,0.,1.));
#2072 = ORIENTED_EDGE('',*,*,#1892,.F.);
#2073 = ORIENTED_EDGE('',*,*,#2067,.F.);
#2074 = CYLINDRICAL_SURFACE('',#2075,1.6);
#2075 = AXIS2_PLACEMENT_3D('',#2076,#2077,#2078);
#2076 = CARTESIAN_POINT('',(229.5,-121.,-4.5E-02));
#2077 = DIRECTION('',(-0.,-0.,-1.));
#2078 = DIRECTION('',(-0.,-1.,0.));
#2079 = ADVANCED_FACE('',(#2080),#2091,.F.);
#2080 = FACE_BOUND('',#2081,.T.);
#2081 = EDGE_LOOP('',(#2082,#2083,#2089,#2090));
#2082 = ORIENTED_EDGE('',*,*,#1763,.T.);
#2083 = ORIENTED_EDGE('',*,*,#2084,.T.);
#2084 = EDGE_CURVE('',#1764,#1904,#2085,.T.);
#2085 = LINE('',#2086,#2087);
#2086 = CARTESIAN_POINT('',(226.25,-98.475,-4.5E-02));
#2087 = VECTOR('',#2088,1.);
#2088 = DIRECTION('',(0.,0.,1.));
#2089 = ORIENTED_EDGE('',*,*,#1903,.F.);
#2090 = ORIENTED_EDGE('',*,*,#2084,.F.);
#2091 = CYLINDRICAL_SURFACE('',#2092,0.275);
#2092 = AXIS2_PLACEMENT_3D('',#2093,#2094,#2095);
#2093 = CARTESIAN_POINT('',(226.25,-98.2,-4.5E-02));
#2094 = DIRECTION('',(-0.,-0.,-1.));
#2095 = DIRECTION('',(-0.,-1.,0.));
#2096 = ADVANCED_FACE('',(#2097),#2108,.F.);
#2097 = FACE_BOUND('',#2098,.T.);
#2098 = EDGE_LOOP('',(#2099,#2100,#2106,#2107));
#2099 = ORIENTED_EDGE('',*,*,#1774,.T.);
#2100 = ORIENTED_EDGE('',*,*,#2101,.T.);
#2101 = EDGE_CURVE('',#1775,#1915,#2102,.T.);
#2102 = LINE('',#2103,#2104);
#2103 = CARTESIAN_POINT('',(189.5,-122.6,-4.5E-02));
#2104 = VECTOR('',#2105,1.);
#2105 = DIRECTION('',(0.,0.,1.));
#2106 = ORIENTED_EDGE('',*,*,#1914,.F.);
#2107 = ORIENTED_EDGE('',*,*,#2101,.F.);
#2108 = CYLINDRICAL_SURFACE('',#2109,1.6);
#2109 = AXIS2_PLACEMENT_3D('',#2110,#2111,#2112);
#2110 = CARTESIAN_POINT('',(189.5,-121.,-4.5E-02));
#2111 = DIRECTION('',(-0.,-0.,-1.));
#2112 = DIRECTION('',(-0.,-1.,0.));
#2113 = ADVANCED_FACE('',(#2114),#2125,.F.);
#2114 = FACE_BOUND('',#2115,.T.);
#2115 = EDGE_LOOP('',(#2116,#2117,#2123,#2124));
#2116 = ORIENTED_EDGE('',*,*,#1785,.T.);
#2117 = ORIENTED_EDGE('',*,*,#2118,.T.);
#2118 = EDGE_CURVE('',#1786,#1926,#2119,.T.);
#2119 = LINE('',#2120,#2121);
#2120 = CARTESIAN_POINT('',(195.25,-98.475,-4.5E-02));
#2121 = VECTOR('',#2122,1.);
#2122 = DIRECTION('',(0.,0.,1.));
#2123 = ORIENTED_EDGE('',*,*,#1925,.F.);
#2124 = ORIENTED_EDGE('',*,*,#2118,.F.);
#2125 = CYLINDRICAL_SURFACE('',#2126,0.275);
#2126 = AXIS2_PLACEMENT_3D('',#2127,#2128,#2129);
#2127 = CARTESIAN_POINT('',(195.25,-98.2,-4.5E-02));
#2128 = DIRECTION('',(-0.,-0.,-1.));
#2129 = DIRECTION('',(-0.,-1.,0.));
#2130 = ADVANCED_FACE('',(#2131),#2142,.F.);
#2131 = FACE_BOUND('',#2132,.T.);
#2132 = EDGE_LOOP('',(#2133,#2134,#2140,#2141));
#2133 = ORIENTED_EDGE('',*,*,#1796,.T.);
#2134 = ORIENTED_EDGE('',*,*,#2135,.T.);
#2135 = EDGE_CURVE('',#1797,#1937,#2136,.T.);
#2136 = LINE('',#2137,#2138);
#2137 = CARTESIAN_POINT('',(226.25,-72.075,-4.5E-02));
#2138 = VECTOR('',#2139,1.);
#2139 = DIRECTION('',(0.,0.,1.));
#2140 = ORIENTED_EDGE('',*,*,#1936,.F.);
#2141 = ORIENTED_EDGE('',*,*,#2135,.F.);
#2142 = CYLINDRICAL_SURFACE('',#2143,0.275);
#2143 = AXIS2_PLACEMENT_3D('',#2144,#2145,#2146);
#2144 = CARTESIAN_POINT('',(226.25,-71.8,-4.5E-02));
#2145 = DIRECTION('',(-0.,-0.,-1.));
#2146 = DIRECTION('',(-0.,-1.,0.));
#2147 = ADVANCED_FACE('',(#2148),#2159,.F.);
#2148 = FACE_BOUND('',#2149,.T.);
#2149 = EDGE_LOOP('',(#2150,#2151,#2157,#2158));
#2150 = ORIENTED_EDGE('',*,*,#1807,.T.);
#2151 = ORIENTED_EDGE('',*,*,#2152,.T.);
#2152 = EDGE_CURVE('',#1808,#1948,#2153,.T.);
#2153 = LINE('',#2154,#2155);
#2154 = CARTESIAN_POINT('',(229.5,-65.1,-4.5E-02));
#2155 = VECTOR('',#2156,1.);
#2156 = DIRECTION('',(0.,0.,1.));
#2157 = ORIENTED_EDGE('',*,*,#1947,.F.);
#2158 = ORIENTED_EDGE('',*,*,#2152,.F.);
#2159 = CYLINDRICAL_SURFACE('',#2160,1.6);
#2160 = AXIS2_PLACEMENT_3D('',#2161,#2162,#2163);
#2161 = CARTESIAN_POINT('',(229.5,-63.5,-4.5E-02));
#2162 = DIRECTION('',(-0.,-0.,-1.));
#2163 = DIRECTION('',(-0.,-1.,0.));
#2164 = ADVANCED_FACE('',(#2165),#2176,.F.);
#2165 = FACE_BOUND('',#2166,.T.);
#2166 = EDGE_LOOP('',(#2167,#2168,#2174,#2175));
#2167 = ORIENTED_EDGE('',*,*,#1818,.T.);
#2168 = ORIENTED_EDGE('',*,*,#2169,.T.);
#2169 = EDGE_CURVE('',#1819,#1959,#2170,.T.);
#2170 = LINE('',#2171,#2172);
#2171 = CARTESIAN_POINT('',(195.25,-72.075,-4.5E-02));
#2172 = VECTOR('',#2173,1.);
#2173 = DIRECTION('',(0.,0.,1.));
#2174 = ORIENTED_EDGE('',*,*,#1958,.F.);
#2175 = ORIENTED_EDGE('',*,*,#2169,.F.);
#2176 = CYLINDRICAL_SURFACE('',#2177,0.275);
#2177 = AXIS2_PLACEMENT_3D('',#2178,#2179,#2180);
#2178 = CARTESIAN_POINT('',(195.25,-71.8,-4.5E-02));
#2179 = DIRECTION('',(-0.,-0.,-1.));
#2180 = DIRECTION('',(-0.,-1.,0.));
#2181 = ADVANCED_FACE('',(#2182),#2193,.F.);
#2182 = FACE_BOUND('',#2183,.T.);
#2183 = EDGE_LOOP('',(#2184,#2185,#2191,#2192));
#2184 = ORIENTED_EDGE('',*,*,#1829,.T.);
#2185 = ORIENTED_EDGE('',*,*,#2186,.T.);
#2186 = EDGE_CURVE('',#1830,#1970,#2187,.T.);
#2187 = LINE('',#2188,#2189);
#2188 = CARTESIAN_POINT('',(189.5,-65.1,-4.5E-02));
#2189 = VECTOR('',#2190,1.);
#2190 = DIRECTION('',(0.,0.,1.));
#2191 = ORIENTED_EDGE('',*,*,#1969,.F.);
#2192 = ORIENTED_EDGE('',*,*,#2186,.F.);
#2193 = CYLINDRICAL_SURFACE('',#2194,1.6);
#2194 = AXIS2_PLACEMENT_3D('',#2195,#2196,#2197);
#2195 = CARTESIAN_POINT('',(189.5,-63.5,-4.5E-02));
#2196 = DIRECTION('',(-0.,-0.,-1.));
#2197 = DIRECTION('',(-0.,-1.,0.));
#2198 = ( GEOMETRIC_REPRESENTATION_CONTEXT(3) 
GLOBAL_UNCERTAINTY_ASSIGNED_CONTEXT((#2202)) 
GLOBAL_UNIT_ASSIGNED_CONTEXT((#2199,#2200,#2201)) REPRESENTATION_CONTEXT
('Context #1','3D Context with UNIT and UNCERTAINTY') );
#2199 = ( LENGTH_UNIT() NAMED_UNIT(*) SI_UNIT(.MILLI.,.METRE.) );
#2200 = ( NAMED_UNIT(*) PLANE_ANGLE_UNIT() SI_UNIT($,.RADIAN.) );
#2201 = ( NAMED_UNIT(*) SI_UNIT($,.STERADIAN.) SOLID_ANGLE_UNIT() );
#2202 = UNCERTAINTY_MEASURE_WITH_UNIT(LENGTH_MEASURE(1.E-07),#2199,
  'distance_accuracy_value','confusion accuracy');
#2203 = CONTEXT_DEPENDENT_SHAPE_REPRESENTATION(#2204,#2206);
#2204 = ( REPRESENTATION_RELATIONSHIP('','',#1595,#10) 
REPRESENTATION_RELATIONSHIP_WITH_TRANSFORMATION(#2205) 
SHAPE_REPRESENTATION_RELATIONSHIP() );
#2205 = ITEM_DEFINED_TRANSFORMATION('','',#11,#43);
#2206 = PRODUCT_DEFINITION_SHAPE('Placement','Placement of an item',
  #2207);
#2207 = NEXT_ASSEMBLY_USAGE_OCCURRENCE('10','=>[0:1:1:6]','',#5,#1590,$
  );
#2208 = PRODUCT_RELATED_PRODUCT_CATEGORY('part',$,(#1592));
#2209 = MECHANICAL_DESIGN_GEOMETRIC_PRESENTATION_REPRESENTATION('',(
    #2210),#1572);
#2210 = STYLED_ITEM('color',(#2211),#846);
#2211 = PRESENTATION_STYLE_ASSIGNMENT((#2212,#2218));
#2212 = SURFACE_STYLE_USAGE(.BOTH.,#2213);
#2213 = SURFACE_SIDE_STYLE('',(#2214));
#2214 = SURFACE_STYLE_FILL_AREA(#2215);
#2215 = FILL_AREA_STYLE('',(#2216));
#2216 = FILL_AREA_STYLE_COLOUR('',#2217);
#2217 = COLOUR_RGB('',0.199999998682,0.199999998682,0.199999998682);
#2218 = CURVE_STYLE('',#2219,POSITIVE_LENGTH_MEASURE(0.1),#2217);
#2219 = DRAUGHTING_PRE_DEFINED_CURVE_FONT('continuous');
#2220 = MECHANICAL_DESIGN_GEOMETRIC_PRESENTATION_REPRESENTATION('',(
    #2221),#2198);
#2221 = STYLED_ITEM('color',(#2222),#1596);
#2222 = PRESENTATION_STYLE_ASSIGNMENT((#2223));
#2223 = SURFACE_STYLE_USAGE(.BOTH.,#2224);
#2224 = SURFACE_SIDE_STYLE('',(#2225));
#2225 = SURFACE_STYLE_FILL_AREA(#2226);
#2226 = FILL_AREA_STYLE('',(#2227));
#2227 = FILL_AREA_STYLE_COLOUR('',#2228);
#2228 = COLOUR_RGB('',0.313304153717,0.484529207832,0.410020903123);
#2229 = MECHANICAL_DESIGN_GEOMETRIC_PRESENTATION_REPRESENTATION('',(
    #2230,#2238),#784);
#2230 = STYLED_ITEM('color',(#2231),#84);
#2231 = PRESENTATION_STYLE_ASSIGNMENT((#2232));
#2232 = SURFACE_STYLE_USAGE(.BOTH.,#2233);
#2233 = SURFACE_SIDE_STYLE('',(#2234));
#2234 = SURFACE_STYLE_FILL_AREA(#2235);
#2235 = FILL_AREA_STYLE('',(#2236));
#2236 = FILL_AREA_STYLE_COLOUR('',#2237);
#2237 = DRAUGHTING_PRE_DEFINED_COLOUR('white');
#2238 = STYLED_ITEM('color',(#2239),#432);
#2239 = PRESENTATION_STYLE_ASSIGNMENT((#2240));
#2240 = SURFACE_STYLE_USAGE(.BOTH.,#2241);
#2241 = SURFACE_SIDE_STYLE('',(#2242));
#2242 = SURFACE_STYLE_FILL_AREA(#2243);
#2243 = FILL_AREA_STYLE('',(#2244));
#2244 = FILL_AREA_STYLE_COLOUR('',#2245);
#2245 = COLOUR_RGB('',0.419607846511,0.419607846511,0.419607846511);
ENDSEC;
END-ISO-10303-21;
