%TF.GenerationSoftware,KiCad,Pcbnew,8.0.1*%
%TF.CreationDate,2026-01-16T21:23:43-05:00*%
%TF.ProjectId,Mezzanine jumper,4d657a7a-616e-4696-9e65-206a756d7065,rev?*%
%TF.SameCoordinates,Original*%
%TF.FileFunction,Copper,L4,Bot*%
%TF.FilePolarity,Positive*%
%FSLAX46Y46*%
G04 Gerber Fmt 4.6, Leading zero omitted, Abs format (unit mm)*
G04 Created by KiCad (PCBNEW 8.0.1) date 2026-01-16 21:23:43*
%MOMM*%
%LPD*%
G01*
G04 APERTURE LIST*
%TA.AperFunction,ViaPad*%
%ADD10C,0.500000*%
%TD*%
G04 APERTURE END LIST*
D10*
%TO.N,GND*%
X96250000Y-81250000D03*
X127250000Y-79750000D03*
X120750000Y-89750000D03*
X120750000Y-85750000D03*
X103250000Y-67750000D03*
X105750000Y-73750000D03*
X120750000Y-75250000D03*
X111700000Y-85750000D03*
X117250000Y-76750000D03*
X111696937Y-79756878D03*
X127250000Y-70750000D03*
X117250000Y-84250000D03*
X117246937Y-79756878D03*
X127250000Y-67750000D03*
X120750000Y-67750000D03*
X120750000Y-82750000D03*
X117250000Y-72250000D03*
X117250000Y-69250000D03*
X111700000Y-72250000D03*
X120750000Y-69250000D03*
X96750000Y-67750000D03*
X127250000Y-73750000D03*
X103250000Y-89750000D03*
X103250000Y-72250000D03*
X127250000Y-82750000D03*
X127750000Y-84250000D03*
X127250000Y-86750000D03*
X96750000Y-82750000D03*
X96250000Y-69250000D03*
X120750000Y-70750000D03*
X120750000Y-86750000D03*
X105750000Y-84250000D03*
X105750000Y-69250000D03*
X117250000Y-85750000D03*
X117250000Y-70750000D03*
X127750000Y-81250000D03*
X105750000Y-72250000D03*
X103250000Y-84250000D03*
X127250000Y-89750000D03*
X103250000Y-85750000D03*
X103250000Y-79750000D03*
X105750000Y-81250000D03*
X117250000Y-73750000D03*
X117250000Y-67750000D03*
X111700000Y-69250000D03*
X111700000Y-67750000D03*
X96750000Y-86750000D03*
X120225000Y-88250000D03*
X117246608Y-82743799D03*
X120750000Y-76750000D03*
X105750000Y-85750000D03*
X127750000Y-72250000D03*
X96750000Y-85750000D03*
X111700000Y-70750000D03*
X103250000Y-82750000D03*
X103250000Y-86750000D03*
X111700000Y-73750000D03*
X96750000Y-89750000D03*
X103250000Y-70750000D03*
X111700000Y-75250000D03*
X111700000Y-84250000D03*
X103725000Y-88250000D03*
X105750000Y-76750000D03*
X96250000Y-84250000D03*
X127750000Y-88250000D03*
X96750000Y-73750000D03*
X105750000Y-75250000D03*
X120750000Y-81250000D03*
X120750000Y-84250000D03*
X127750000Y-75250000D03*
X111700000Y-86750000D03*
X103250000Y-78250000D03*
X105750000Y-70750000D03*
X105750000Y-78250000D03*
X117250000Y-81250000D03*
X105746937Y-79756878D03*
X103250000Y-81250000D03*
X96250000Y-75250000D03*
X111700000Y-76750000D03*
X120750000Y-73750000D03*
X127250000Y-85750000D03*
X117250000Y-86750000D03*
X117250000Y-78250000D03*
X120750000Y-79750000D03*
X96750000Y-76750000D03*
X103250000Y-76750000D03*
X111696608Y-82743799D03*
X96750000Y-79750000D03*
X105750000Y-67750000D03*
X120750000Y-72250000D03*
X127750000Y-69250000D03*
X103250000Y-73750000D03*
X120750000Y-78250000D03*
X96750000Y-70750000D03*
X127750000Y-78250000D03*
X96250000Y-88250000D03*
X111700000Y-78250000D03*
X127250000Y-76750000D03*
X103250000Y-75250000D03*
X117250000Y-75250000D03*
X111700000Y-81250000D03*
X96250000Y-78250000D03*
X103250000Y-69250000D03*
X105746608Y-82743799D03*
X96250000Y-72250000D03*
X105750000Y-86750000D03*
%TO.N,+5V*%
X127250000Y-88750000D03*
X96750000Y-88750000D03*
X120725000Y-88750000D03*
X120225000Y-89250000D03*
X103725000Y-89250000D03*
X127750000Y-89250000D03*
X96250000Y-89250000D03*
X103225000Y-88750000D03*
%TO.N,/IO_16*%
X105000000Y-73750000D03*
X127750000Y-74250000D03*
%TO.N,+24V*%
X103600000Y-91150000D03*
X116050000Y-93100000D03*
X127550000Y-94400000D03*
X96450000Y-92450000D03*
X96450000Y-93750000D03*
X111700000Y-93100000D03*
X120400000Y-95050000D03*
X103600000Y-93100000D03*
X103600000Y-93750000D03*
X120400000Y-93100000D03*
X120400000Y-94400000D03*
X107600000Y-95050000D03*
X103600000Y-94400000D03*
X103600000Y-92450000D03*
X120400000Y-92450000D03*
X111700000Y-95050000D03*
X111700000Y-91150000D03*
X116050000Y-91150000D03*
X96450000Y-93100000D03*
X127550000Y-93100000D03*
X96450000Y-94400000D03*
X127550000Y-91150000D03*
X120400000Y-91150000D03*
X96450000Y-91150000D03*
X127550000Y-91800000D03*
X96450000Y-91800000D03*
X120400000Y-93750000D03*
X120400000Y-91800000D03*
X103600000Y-95050000D03*
X116050000Y-95050000D03*
X127550000Y-92450000D03*
X107600000Y-93100000D03*
X103600000Y-91800000D03*
X107600000Y-91150000D03*
X127550000Y-93750000D03*
%TO.N,/IO_19*%
X96750000Y-74750000D03*
X118250000Y-74750000D03*
%TO.N,/IO_6*%
X104250000Y-70750000D03*
X127750000Y-70250000D03*
%TO.N,/IO_46*%
X127750000Y-85250000D03*
X104250000Y-85750000D03*
%TO.N,/IO_14*%
X104250000Y-73750000D03*
X127750000Y-73250000D03*
%TO.N,/IO_27*%
X96750000Y-77750000D03*
X118250000Y-77750000D03*
%TO.N,/IO_35*%
X118250000Y-80750000D03*
X96750000Y-80750000D03*
%TO.N,/IO_49*%
X119500000Y-86250000D03*
X96250000Y-86250000D03*
%TO.N,/IO_10*%
X104250000Y-72250000D03*
X127250000Y-71750000D03*
%TO.N,/IO_47*%
X118250000Y-85250000D03*
X96250000Y-85250000D03*
%TO.N,/IO_0*%
X105000000Y-67750000D03*
X127750000Y-68250000D03*
%TO.N,/IO_20*%
X127250000Y-75750000D03*
X105000000Y-75250000D03*
%TO.N,/IO_4*%
X127250000Y-69750000D03*
X105000000Y-69250000D03*
%TO.N,/IO_37*%
X119500000Y-81750000D03*
X96750000Y-81750000D03*
%TO.N,/IO_39*%
X118250000Y-82250000D03*
X96250000Y-82250000D03*
%TO.N,/IO_48*%
X105000000Y-85750000D03*
X127750000Y-86250000D03*
%TO.N,+3.3V*%
X96750000Y-87750000D03*
X120225000Y-87250000D03*
X96250000Y-87250000D03*
X103725000Y-87250000D03*
X127750000Y-87250000D03*
X120725000Y-87750000D03*
X127250000Y-87750000D03*
X103225000Y-87750000D03*
%TO.N,/IO_17*%
X119500000Y-74250000D03*
X96250000Y-74250000D03*
%TO.N,/IO_11*%
X96750000Y-71750000D03*
X118250000Y-71750000D03*
%TO.N,/IO_44*%
X105000000Y-84250000D03*
X127250000Y-84750000D03*
%TO.N,/IO_23*%
X96250000Y-76250000D03*
X118250000Y-76250000D03*
%TO.N,/IO_42*%
X127250000Y-83750000D03*
X104250000Y-84250000D03*
%TO.N,/IO_38*%
X104250000Y-82750000D03*
X127750000Y-82250000D03*
%TO.N,/IO_15*%
X96250000Y-73250000D03*
X118250000Y-73250000D03*
%TO.N,/IO_13*%
X96750000Y-72750000D03*
X119500000Y-72750000D03*
%TO.N,/IO_29*%
X96750000Y-78750000D03*
X119500000Y-78750000D03*
%TO.N,/IO_1*%
X119500000Y-68250000D03*
X96250000Y-68250000D03*
%TO.N,/IO_31*%
X96250000Y-79250000D03*
X118250000Y-79250000D03*
%TO.N,/IO_40*%
X105000000Y-82750000D03*
X127750000Y-83250000D03*
%TO.N,/IO_45*%
X96750000Y-84750000D03*
X119500000Y-84750000D03*
%TO.N,/IO_5*%
X119500000Y-69750000D03*
X96750000Y-69750000D03*
%TO.N,/IO_34*%
X127250000Y-80750000D03*
X104250000Y-81250000D03*
%TO.N,/IO_36*%
X127250000Y-81750000D03*
X105000000Y-81250000D03*
%TO.N,/IO_18*%
X127250000Y-74750000D03*
X104250000Y-75250000D03*
%TO.N,/IO_8*%
X127750000Y-71250000D03*
X105000000Y-70750000D03*
%TO.N,/IO_2*%
X127250000Y-68750000D03*
X104250000Y-69250000D03*
%TO.N,/IO_12*%
X105000000Y-72250000D03*
X127250000Y-72750000D03*
%TO.N,/IO_28*%
X127250000Y-78750000D03*
X105000000Y-78250000D03*
%TO.N,/IO_22*%
X127750000Y-76250000D03*
X104250000Y-76750000D03*
%TO.N,/IO_30*%
X104250000Y-79750000D03*
X127750000Y-79250000D03*
%TO.N,/IO_43*%
X96750000Y-83750000D03*
X118250000Y-83750000D03*
%TO.N,/IO_25*%
X119500000Y-77250000D03*
X96250000Y-77250000D03*
%TO.N,/IO_7*%
X96250000Y-70250000D03*
X118250000Y-70250000D03*
%TO.N,/IO_9*%
X119500000Y-71250000D03*
X96250000Y-71250000D03*
%TO.N,/IO_26*%
X127250000Y-77750000D03*
X104250000Y-78250000D03*
%TO.N,/IO_41*%
X119500000Y-83250000D03*
X96250000Y-83250000D03*
%TO.N,/IO_32*%
X127750000Y-80250000D03*
X105000000Y-79750000D03*
%TO.N,/IO_3*%
X118250000Y-68750000D03*
X96750000Y-68750000D03*
%TO.N,/IO_21*%
X96750000Y-75750000D03*
X119500000Y-75750000D03*
%TO.N,/IO_33*%
X96250000Y-80250000D03*
X119500000Y-80250000D03*
%TO.N,/IO_24*%
X105000000Y-76750000D03*
X127750000Y-77250000D03*
%TD*%
%TA.AperFunction,Conductor*%
%TO.N,+24V*%
G36*
X127942539Y-90769685D02*
G01*
X127988294Y-90822489D01*
X127999500Y-90874000D01*
X127999500Y-93995572D01*
X127999184Y-94004419D01*
X127984869Y-94204557D01*
X127982351Y-94222068D01*
X127940646Y-94413787D01*
X127935662Y-94430763D01*
X127867090Y-94614609D01*
X127859740Y-94630701D01*
X127765711Y-94802904D01*
X127756146Y-94817789D01*
X127638558Y-94974867D01*
X127626972Y-94988237D01*
X127488237Y-95126972D01*
X127474867Y-95138558D01*
X127317789Y-95256146D01*
X127302904Y-95265711D01*
X127130701Y-95359740D01*
X127114609Y-95367090D01*
X126930763Y-95435662D01*
X126913787Y-95440646D01*
X126722068Y-95482351D01*
X126704557Y-95484869D01*
X126523779Y-95497799D01*
X126504417Y-95499184D01*
X126495572Y-95499500D01*
X97504428Y-95499500D01*
X97495582Y-95499184D01*
X97473622Y-95497613D01*
X97295442Y-95484869D01*
X97277931Y-95482351D01*
X97086212Y-95440646D01*
X97069236Y-95435662D01*
X96885390Y-95367090D01*
X96869298Y-95359740D01*
X96697095Y-95265711D01*
X96682210Y-95256146D01*
X96525132Y-95138558D01*
X96511762Y-95126972D01*
X96373027Y-94988237D01*
X96361441Y-94974867D01*
X96243849Y-94817784D01*
X96234288Y-94802904D01*
X96140259Y-94630701D01*
X96132909Y-94614609D01*
X96072091Y-94451551D01*
X96064334Y-94430755D01*
X96059355Y-94413797D01*
X96017647Y-94222063D01*
X96015130Y-94204556D01*
X96000816Y-94004418D01*
X96000500Y-93995572D01*
X96000500Y-93269182D01*
X100724500Y-93269182D01*
X100760312Y-93402835D01*
X100760313Y-93402838D01*
X100829492Y-93522661D01*
X100829494Y-93522664D01*
X100829495Y-93522665D01*
X100927335Y-93620505D01*
X101047164Y-93689688D01*
X101180817Y-93725500D01*
X101180819Y-93725500D01*
X101319181Y-93725500D01*
X101319183Y-93725500D01*
X101452836Y-93689688D01*
X101572665Y-93620505D01*
X101670505Y-93522665D01*
X101739688Y-93402836D01*
X101775500Y-93269183D01*
X101775500Y-93269182D01*
X124724500Y-93269182D01*
X124760312Y-93402835D01*
X124760313Y-93402838D01*
X124829492Y-93522661D01*
X124829494Y-93522664D01*
X124829495Y-93522665D01*
X124927335Y-93620505D01*
X125047164Y-93689688D01*
X125180817Y-93725500D01*
X125180819Y-93725500D01*
X125319181Y-93725500D01*
X125319183Y-93725500D01*
X125452836Y-93689688D01*
X125572665Y-93620505D01*
X125670505Y-93522665D01*
X125739688Y-93402836D01*
X125775500Y-93269183D01*
X125775500Y-93130817D01*
X125739688Y-92997164D01*
X125670505Y-92877335D01*
X125572665Y-92779495D01*
X125572664Y-92779494D01*
X125572661Y-92779492D01*
X125452838Y-92710313D01*
X125452837Y-92710312D01*
X125452836Y-92710312D01*
X125319183Y-92674500D01*
X125180817Y-92674500D01*
X125047164Y-92710312D01*
X125047161Y-92710313D01*
X124927338Y-92779492D01*
X124927333Y-92779496D01*
X124829496Y-92877333D01*
X124829492Y-92877338D01*
X124760313Y-92997161D01*
X124760312Y-92997164D01*
X124724500Y-93130817D01*
X124724500Y-93269182D01*
X101775500Y-93269182D01*
X101775500Y-93130817D01*
X101739688Y-92997164D01*
X101670505Y-92877335D01*
X101572665Y-92779495D01*
X101572664Y-92779494D01*
X101572661Y-92779492D01*
X101452838Y-92710313D01*
X101452837Y-92710312D01*
X101452836Y-92710312D01*
X101319183Y-92674500D01*
X101180817Y-92674500D01*
X101047164Y-92710312D01*
X101047161Y-92710313D01*
X100927338Y-92779492D01*
X100927333Y-92779496D01*
X100829496Y-92877333D01*
X100829492Y-92877338D01*
X100760313Y-92997161D01*
X100760312Y-92997164D01*
X100724500Y-93130817D01*
X100724500Y-93269182D01*
X96000500Y-93269182D01*
X96000500Y-90874000D01*
X96020185Y-90806961D01*
X96072989Y-90761206D01*
X96124500Y-90750000D01*
X127875500Y-90750000D01*
X127942539Y-90769685D01*
G37*
%TD.AperFunction*%
%TD*%
%TA.AperFunction,Conductor*%
%TO.N,GND*%
G36*
X126502642Y-62000688D02*
G01*
X126708118Y-62015385D01*
X126718567Y-62016887D01*
X126774033Y-62028952D01*
X126917296Y-62060117D01*
X126927406Y-62063085D01*
X127117965Y-62134161D01*
X127127556Y-62138541D01*
X127247496Y-62204033D01*
X127306041Y-62236001D01*
X127314924Y-62241709D01*
X127477727Y-62363582D01*
X127485706Y-62370496D01*
X127629503Y-62514293D01*
X127636417Y-62522272D01*
X127758290Y-62685075D01*
X127763998Y-62693958D01*
X127861456Y-62872439D01*
X127865842Y-62882042D01*
X127936909Y-63072578D01*
X127939884Y-63082710D01*
X127983112Y-63281432D01*
X127984614Y-63291881D01*
X127999311Y-63497356D01*
X127999500Y-63502636D01*
X127999500Y-67806878D01*
X127977826Y-67859204D01*
X127925500Y-67880878D01*
X127891906Y-67872813D01*
X127875302Y-67864353D01*
X127875304Y-67864353D01*
X127750000Y-67844508D01*
X127624698Y-67864353D01*
X127511656Y-67921951D01*
X127421951Y-68011656D01*
X127364353Y-68124698D01*
X127344508Y-68250000D01*
X127344508Y-68250001D01*
X127346360Y-68261696D01*
X127333137Y-68316768D01*
X127284846Y-68346360D01*
X127261696Y-68346360D01*
X127250002Y-68344508D01*
X127250000Y-68344508D01*
X127124698Y-68364353D01*
X127011656Y-68421951D01*
X126921951Y-68511656D01*
X126864353Y-68624698D01*
X126844508Y-68750000D01*
X126864353Y-68875301D01*
X126864353Y-68875302D01*
X126864354Y-68875304D01*
X126921950Y-68988342D01*
X127011658Y-69078050D01*
X127124696Y-69135646D01*
X127250000Y-69155492D01*
X127375304Y-69135646D01*
X127488342Y-69078050D01*
X127578050Y-68988342D01*
X127635646Y-68875304D01*
X127655492Y-68750000D01*
X127653639Y-68738303D01*
X127666860Y-68683234D01*
X127715150Y-68653639D01*
X127738301Y-68653639D01*
X127750000Y-68655492D01*
X127875304Y-68635646D01*
X127891905Y-68627186D01*
X127948366Y-68622742D01*
X127991434Y-68659525D01*
X127999500Y-68693121D01*
X127999500Y-69806878D01*
X127977826Y-69859204D01*
X127925500Y-69880878D01*
X127891906Y-69872813D01*
X127875302Y-69864353D01*
X127875304Y-69864353D01*
X127750000Y-69844508D01*
X127749997Y-69844508D01*
X127738302Y-69846360D01*
X127683230Y-69833137D01*
X127653639Y-69784845D01*
X127653639Y-69761696D01*
X127655492Y-69750000D01*
X127635646Y-69624696D01*
X127578050Y-69511658D01*
X127488342Y-69421950D01*
X127375304Y-69364354D01*
X127375302Y-69364353D01*
X127375301Y-69364353D01*
X127250000Y-69344508D01*
X127124698Y-69364353D01*
X127011656Y-69421951D01*
X126921951Y-69511656D01*
X126864353Y-69624698D01*
X126844508Y-69750000D01*
X126864353Y-69875301D01*
X126864353Y-69875302D01*
X126864354Y-69875304D01*
X126921950Y-69988342D01*
X127011658Y-70078050D01*
X127124696Y-70135646D01*
X127250000Y-70155492D01*
X127261694Y-70153639D01*
X127316765Y-70166859D01*
X127346360Y-70215149D01*
X127346360Y-70238302D01*
X127344508Y-70249997D01*
X127344508Y-70249999D01*
X127364353Y-70375301D01*
X127364353Y-70375302D01*
X127364354Y-70375304D01*
X127421950Y-70488342D01*
X127511658Y-70578050D01*
X127624696Y-70635646D01*
X127750000Y-70655492D01*
X127875304Y-70635646D01*
X127891905Y-70627186D01*
X127948366Y-70622742D01*
X127991434Y-70659525D01*
X127999500Y-70693121D01*
X127999500Y-70806878D01*
X127977826Y-70859204D01*
X127925500Y-70880878D01*
X127891906Y-70872813D01*
X127875302Y-70864353D01*
X127875304Y-70864353D01*
X127750000Y-70844508D01*
X127624698Y-70864353D01*
X127511656Y-70921951D01*
X127421951Y-71011656D01*
X127364353Y-71124698D01*
X127344508Y-71250000D01*
X127344508Y-71250001D01*
X127346360Y-71261696D01*
X127333137Y-71316768D01*
X127284846Y-71346360D01*
X127261696Y-71346360D01*
X127250002Y-71344508D01*
X127250000Y-71344508D01*
X127124698Y-71364353D01*
X127011656Y-71421951D01*
X126921951Y-71511656D01*
X126864353Y-71624698D01*
X126844508Y-71750000D01*
X126864353Y-71875301D01*
X126864353Y-71875302D01*
X126864354Y-71875304D01*
X126921950Y-71988342D01*
X127011658Y-72078050D01*
X127124696Y-72135646D01*
X127250000Y-72155492D01*
X127375304Y-72135646D01*
X127488342Y-72078050D01*
X127578050Y-71988342D01*
X127635646Y-71875304D01*
X127655492Y-71750000D01*
X127653639Y-71738303D01*
X127666860Y-71683234D01*
X127715150Y-71653639D01*
X127738301Y-71653639D01*
X127750000Y-71655492D01*
X127875304Y-71635646D01*
X127891905Y-71627186D01*
X127948366Y-71622742D01*
X127991434Y-71659525D01*
X127999500Y-71693121D01*
X127999500Y-72806878D01*
X127977826Y-72859204D01*
X127925500Y-72880878D01*
X127891906Y-72872813D01*
X127875302Y-72864353D01*
X127875304Y-72864353D01*
X127750000Y-72844508D01*
X127749997Y-72844508D01*
X127738302Y-72846360D01*
X127683230Y-72833137D01*
X127653639Y-72784845D01*
X127653639Y-72761696D01*
X127655492Y-72750000D01*
X127635646Y-72624696D01*
X127578050Y-72511658D01*
X127488342Y-72421950D01*
X127375304Y-72364354D01*
X127375302Y-72364353D01*
X127375301Y-72364353D01*
X127250000Y-72344508D01*
X127124698Y-72364353D01*
X127011656Y-72421951D01*
X126921951Y-72511656D01*
X126864353Y-72624698D01*
X126844508Y-72750000D01*
X126864353Y-72875301D01*
X126864353Y-72875302D01*
X126864354Y-72875304D01*
X126921950Y-72988342D01*
X127011658Y-73078050D01*
X127124696Y-73135646D01*
X127250000Y-73155492D01*
X127261694Y-73153639D01*
X127316765Y-73166859D01*
X127346360Y-73215149D01*
X127346360Y-73238302D01*
X127344508Y-73249997D01*
X127344508Y-73249999D01*
X127364353Y-73375301D01*
X127364353Y-73375302D01*
X127364354Y-73375304D01*
X127421950Y-73488342D01*
X127511658Y-73578050D01*
X127624696Y-73635646D01*
X127750000Y-73655492D01*
X127875304Y-73635646D01*
X127891905Y-73627186D01*
X127948366Y-73622742D01*
X127991434Y-73659525D01*
X127999500Y-73693121D01*
X127999500Y-73806878D01*
X127977826Y-73859204D01*
X127925500Y-73880878D01*
X127891906Y-73872813D01*
X127875302Y-73864353D01*
X127875304Y-73864353D01*
X127750000Y-73844508D01*
X127624698Y-73864353D01*
X127511656Y-73921951D01*
X127421951Y-74011656D01*
X127364353Y-74124698D01*
X127344508Y-74250000D01*
X127344508Y-74250001D01*
X127346360Y-74261696D01*
X127333137Y-74316768D01*
X127284846Y-74346360D01*
X127261696Y-74346360D01*
X127250002Y-74344508D01*
X127250000Y-74344508D01*
X127124698Y-74364353D01*
X127011656Y-74421951D01*
X126921951Y-74511656D01*
X126864353Y-74624698D01*
X126844508Y-74750000D01*
X126864353Y-74875301D01*
X126864353Y-74875302D01*
X126864354Y-74875304D01*
X126921950Y-74988342D01*
X127011658Y-75078050D01*
X127124696Y-75135646D01*
X127250000Y-75155492D01*
X127375304Y-75135646D01*
X127488342Y-75078050D01*
X127578050Y-74988342D01*
X127635646Y-74875304D01*
X127655492Y-74750000D01*
X127653639Y-74738303D01*
X127666860Y-74683234D01*
X127715150Y-74653639D01*
X127738301Y-74653639D01*
X127750000Y-74655492D01*
X127875304Y-74635646D01*
X127891905Y-74627186D01*
X127948366Y-74622742D01*
X127991434Y-74659525D01*
X127999500Y-74693121D01*
X127999500Y-75806878D01*
X127977826Y-75859204D01*
X127925500Y-75880878D01*
X127891906Y-75872813D01*
X127875302Y-75864353D01*
X127875304Y-75864353D01*
X127750000Y-75844508D01*
X127749997Y-75844508D01*
X127738302Y-75846360D01*
X127683230Y-75833137D01*
X127653639Y-75784845D01*
X127653639Y-75761696D01*
X127655492Y-75750000D01*
X127635646Y-75624696D01*
X127578050Y-75511658D01*
X127488342Y-75421950D01*
X127375304Y-75364354D01*
X127375302Y-75364353D01*
X127375301Y-75364353D01*
X127250000Y-75344508D01*
X127124698Y-75364353D01*
X127011656Y-75421951D01*
X126921951Y-75511656D01*
X126864353Y-75624698D01*
X126844508Y-75750000D01*
X126864353Y-75875301D01*
X126864353Y-75875302D01*
X126864354Y-75875304D01*
X126921950Y-75988342D01*
X127011658Y-76078050D01*
X127124696Y-76135646D01*
X127250000Y-76155492D01*
X127261694Y-76153639D01*
X127316765Y-76166859D01*
X127346360Y-76215149D01*
X127346360Y-76238302D01*
X127344508Y-76249997D01*
X127344508Y-76249999D01*
X127364353Y-76375301D01*
X127364353Y-76375302D01*
X127364354Y-76375304D01*
X127421950Y-76488342D01*
X127511658Y-76578050D01*
X127624696Y-76635646D01*
X127750000Y-76655492D01*
X127875304Y-76635646D01*
X127891905Y-76627186D01*
X127948366Y-76622742D01*
X127991434Y-76659525D01*
X127999500Y-76693121D01*
X127999500Y-76806878D01*
X127977826Y-76859204D01*
X127925500Y-76880878D01*
X127891906Y-76872813D01*
X127875302Y-76864353D01*
X127875304Y-76864353D01*
X127750000Y-76844508D01*
X127624698Y-76864353D01*
X127511656Y-76921951D01*
X127421951Y-77011656D01*
X127364353Y-77124698D01*
X127344508Y-77250000D01*
X127344508Y-77250001D01*
X127346360Y-77261696D01*
X127333137Y-77316768D01*
X127284846Y-77346360D01*
X127261696Y-77346360D01*
X127250002Y-77344508D01*
X127250000Y-77344508D01*
X127124698Y-77364353D01*
X127011656Y-77421951D01*
X126921951Y-77511656D01*
X126864353Y-77624698D01*
X126844508Y-77750000D01*
X126864353Y-77875301D01*
X126864353Y-77875302D01*
X126864354Y-77875304D01*
X126921950Y-77988342D01*
X127011658Y-78078050D01*
X127124696Y-78135646D01*
X127250000Y-78155492D01*
X127375304Y-78135646D01*
X127488342Y-78078050D01*
X127578050Y-77988342D01*
X127635646Y-77875304D01*
X127655492Y-77750000D01*
X127653639Y-77738303D01*
X127666860Y-77683234D01*
X127715150Y-77653639D01*
X127738301Y-77653639D01*
X127750000Y-77655492D01*
X127875304Y-77635646D01*
X127891905Y-77627186D01*
X127948366Y-77622742D01*
X127991434Y-77659525D01*
X127999500Y-77693121D01*
X127999500Y-78806878D01*
X127977826Y-78859204D01*
X127925500Y-78880878D01*
X127891906Y-78872813D01*
X127875302Y-78864353D01*
X127875304Y-78864353D01*
X127750000Y-78844508D01*
X127749997Y-78844508D01*
X127738302Y-78846360D01*
X127683230Y-78833137D01*
X127653639Y-78784845D01*
X127653639Y-78761696D01*
X127655492Y-78750000D01*
X127635646Y-78624696D01*
X127578050Y-78511658D01*
X127488342Y-78421950D01*
X127375304Y-78364354D01*
X127375302Y-78364353D01*
X127375301Y-78364353D01*
X127250000Y-78344508D01*
X127124698Y-78364353D01*
X127011656Y-78421951D01*
X126921951Y-78511656D01*
X126864353Y-78624698D01*
X126844508Y-78750000D01*
X126864353Y-78875301D01*
X126864353Y-78875302D01*
X126864354Y-78875304D01*
X126921950Y-78988342D01*
X127011658Y-79078050D01*
X127124696Y-79135646D01*
X127250000Y-79155492D01*
X127261694Y-79153639D01*
X127316765Y-79166859D01*
X127346360Y-79215149D01*
X127346360Y-79238302D01*
X127344508Y-79249997D01*
X127344508Y-79249999D01*
X127364353Y-79375301D01*
X127364353Y-79375302D01*
X127364354Y-79375304D01*
X127421950Y-79488342D01*
X127511658Y-79578050D01*
X127624696Y-79635646D01*
X127750000Y-79655492D01*
X127875304Y-79635646D01*
X127891905Y-79627186D01*
X127948366Y-79622742D01*
X127991434Y-79659525D01*
X127999500Y-79693121D01*
X127999500Y-79806878D01*
X127977826Y-79859204D01*
X127925500Y-79880878D01*
X127891906Y-79872813D01*
X127875302Y-79864353D01*
X127875304Y-79864353D01*
X127750000Y-79844508D01*
X127624698Y-79864353D01*
X127511656Y-79921951D01*
X127421951Y-80011656D01*
X127364353Y-80124698D01*
X127344508Y-80250000D01*
X127344508Y-80250001D01*
X127346360Y-80261696D01*
X127333137Y-80316768D01*
X127284846Y-80346360D01*
X127261696Y-80346360D01*
X127250002Y-80344508D01*
X127250000Y-80344508D01*
X127124698Y-80364353D01*
X127011656Y-80421951D01*
X126921951Y-80511656D01*
X126864353Y-80624698D01*
X126844508Y-80750000D01*
X126864353Y-80875301D01*
X126864353Y-80875302D01*
X126864354Y-80875304D01*
X126921950Y-80988342D01*
X127011658Y-81078050D01*
X127124696Y-81135646D01*
X127250000Y-81155492D01*
X127375304Y-81135646D01*
X127488342Y-81078050D01*
X127578050Y-80988342D01*
X127635646Y-80875304D01*
X127655492Y-80750000D01*
X127653639Y-80738303D01*
X127666860Y-80683234D01*
X127715150Y-80653639D01*
X127738301Y-80653639D01*
X127750000Y-80655492D01*
X127875304Y-80635646D01*
X127891905Y-80627186D01*
X127948366Y-80622742D01*
X127991434Y-80659525D01*
X127999500Y-80693121D01*
X127999500Y-81806878D01*
X127977826Y-81859204D01*
X127925500Y-81880878D01*
X127891906Y-81872813D01*
X127875302Y-81864353D01*
X127875304Y-81864353D01*
X127750000Y-81844508D01*
X127749997Y-81844508D01*
X127738302Y-81846360D01*
X127683230Y-81833137D01*
X127653639Y-81784845D01*
X127653639Y-81761696D01*
X127655492Y-81750000D01*
X127635646Y-81624696D01*
X127578050Y-81511658D01*
X127488342Y-81421950D01*
X127375304Y-81364354D01*
X127375302Y-81364353D01*
X127375301Y-81364353D01*
X127250000Y-81344508D01*
X127124698Y-81364353D01*
X127011656Y-81421951D01*
X126921951Y-81511656D01*
X126864353Y-81624698D01*
X126844508Y-81750000D01*
X126864353Y-81875301D01*
X126864353Y-81875302D01*
X126864354Y-81875304D01*
X126921950Y-81988342D01*
X127011658Y-82078050D01*
X127124696Y-82135646D01*
X127250000Y-82155492D01*
X127261694Y-82153639D01*
X127316765Y-82166859D01*
X127346360Y-82215149D01*
X127346360Y-82238302D01*
X127344508Y-82249997D01*
X127344508Y-82249999D01*
X127364353Y-82375301D01*
X127364353Y-82375302D01*
X127364354Y-82375304D01*
X127421950Y-82488342D01*
X127511658Y-82578050D01*
X127624696Y-82635646D01*
X127750000Y-82655492D01*
X127875304Y-82635646D01*
X127891905Y-82627186D01*
X127948366Y-82622742D01*
X127991434Y-82659525D01*
X127999500Y-82693121D01*
X127999500Y-82806878D01*
X127977826Y-82859204D01*
X127925500Y-82880878D01*
X127891906Y-82872813D01*
X127875302Y-82864353D01*
X127875304Y-82864353D01*
X127750000Y-82844508D01*
X127624698Y-82864353D01*
X127511656Y-82921951D01*
X127421951Y-83011656D01*
X127364353Y-83124698D01*
X127344508Y-83250000D01*
X127344508Y-83250001D01*
X127346360Y-83261696D01*
X127333137Y-83316768D01*
X127284846Y-83346360D01*
X127261696Y-83346360D01*
X127250002Y-83344508D01*
X127250000Y-83344508D01*
X127124698Y-83364353D01*
X127011656Y-83421951D01*
X126921951Y-83511656D01*
X126864353Y-83624698D01*
X126844508Y-83750000D01*
X126864353Y-83875301D01*
X126864353Y-83875302D01*
X126864354Y-83875304D01*
X126921950Y-83988342D01*
X127011658Y-84078050D01*
X127124696Y-84135646D01*
X127250000Y-84155492D01*
X127375304Y-84135646D01*
X127488342Y-84078050D01*
X127578050Y-83988342D01*
X127635646Y-83875304D01*
X127655492Y-83750000D01*
X127653639Y-83738303D01*
X127666860Y-83683234D01*
X127715150Y-83653639D01*
X127738301Y-83653639D01*
X127750000Y-83655492D01*
X127875304Y-83635646D01*
X127891905Y-83627186D01*
X127948366Y-83622742D01*
X127991434Y-83659525D01*
X127999500Y-83693121D01*
X127999500Y-84806878D01*
X127977826Y-84859204D01*
X127925500Y-84880878D01*
X127891906Y-84872813D01*
X127875302Y-84864353D01*
X127875304Y-84864353D01*
X127750000Y-84844508D01*
X127749997Y-84844508D01*
X127738302Y-84846360D01*
X127683230Y-84833137D01*
X127653639Y-84784845D01*
X127653639Y-84761696D01*
X127655492Y-84750000D01*
X127635646Y-84624696D01*
X127578050Y-84511658D01*
X127488342Y-84421950D01*
X127375304Y-84364354D01*
X127375302Y-84364353D01*
X127375301Y-84364353D01*
X127250000Y-84344508D01*
X127124698Y-84364353D01*
X127011656Y-84421951D01*
X126921951Y-84511656D01*
X126864353Y-84624698D01*
X126844508Y-84750000D01*
X126864353Y-84875301D01*
X126864353Y-84875302D01*
X126864354Y-84875304D01*
X126921950Y-84988342D01*
X127011658Y-85078050D01*
X127124696Y-85135646D01*
X127250000Y-85155492D01*
X127261694Y-85153639D01*
X127316765Y-85166859D01*
X127346360Y-85215149D01*
X127346360Y-85238302D01*
X127344508Y-85249997D01*
X127344508Y-85249999D01*
X127364353Y-85375301D01*
X127364353Y-85375302D01*
X127364354Y-85375304D01*
X127421950Y-85488342D01*
X127511658Y-85578050D01*
X127624696Y-85635646D01*
X127750000Y-85655492D01*
X127875304Y-85635646D01*
X127891905Y-85627186D01*
X127948366Y-85622742D01*
X127991434Y-85659525D01*
X127999500Y-85693121D01*
X127999500Y-85806878D01*
X127977826Y-85859204D01*
X127925500Y-85880878D01*
X127891906Y-85872813D01*
X127875302Y-85864353D01*
X127875304Y-85864353D01*
X127750000Y-85844508D01*
X127624698Y-85864353D01*
X127511656Y-85921951D01*
X127421951Y-86011656D01*
X127364353Y-86124698D01*
X127344508Y-86250000D01*
X127364353Y-86375301D01*
X127364353Y-86375302D01*
X127364354Y-86375304D01*
X127421950Y-86488342D01*
X127511658Y-86578050D01*
X127624696Y-86635646D01*
X127750000Y-86655492D01*
X127875304Y-86635646D01*
X127891905Y-86627186D01*
X127948366Y-86622742D01*
X127991434Y-86659525D01*
X127999500Y-86693121D01*
X127999500Y-86806878D01*
X127977826Y-86859204D01*
X127925500Y-86880878D01*
X127891906Y-86872813D01*
X127875302Y-86864353D01*
X127875304Y-86864353D01*
X127750000Y-86844508D01*
X127624698Y-86864353D01*
X127511656Y-86921951D01*
X127421951Y-87011656D01*
X127364353Y-87124698D01*
X127344508Y-87250000D01*
X127344508Y-87250001D01*
X127346360Y-87261696D01*
X127333137Y-87316768D01*
X127284846Y-87346360D01*
X127261696Y-87346360D01*
X127250002Y-87344508D01*
X127250000Y-87344508D01*
X127124698Y-87364353D01*
X127011656Y-87421951D01*
X126921951Y-87511656D01*
X126864353Y-87624698D01*
X126844508Y-87750000D01*
X126864353Y-87875301D01*
X126864353Y-87875302D01*
X126864354Y-87875304D01*
X126921950Y-87988342D01*
X127011658Y-88078050D01*
X127124696Y-88135646D01*
X127250000Y-88155492D01*
X127375304Y-88135646D01*
X127488342Y-88078050D01*
X127578050Y-87988342D01*
X127635646Y-87875304D01*
X127655492Y-87750000D01*
X127653639Y-87738303D01*
X127666860Y-87683234D01*
X127715150Y-87653639D01*
X127738301Y-87653639D01*
X127750000Y-87655492D01*
X127875304Y-87635646D01*
X127891905Y-87627186D01*
X127948366Y-87622742D01*
X127991434Y-87659525D01*
X127999500Y-87693121D01*
X127999500Y-88806878D01*
X127977826Y-88859204D01*
X127925500Y-88880878D01*
X127891906Y-88872813D01*
X127875302Y-88864353D01*
X127875304Y-88864353D01*
X127750000Y-88844508D01*
X127749997Y-88844508D01*
X127738302Y-88846360D01*
X127683230Y-88833137D01*
X127653639Y-88784845D01*
X127653639Y-88761696D01*
X127655492Y-88750000D01*
X127635646Y-88624696D01*
X127578050Y-88511658D01*
X127488342Y-88421950D01*
X127375304Y-88364354D01*
X127375302Y-88364353D01*
X127375301Y-88364353D01*
X127250000Y-88344508D01*
X127124698Y-88364353D01*
X127011656Y-88421951D01*
X126921951Y-88511656D01*
X126864353Y-88624698D01*
X126844508Y-88750000D01*
X126864353Y-88875301D01*
X126864353Y-88875302D01*
X126864354Y-88875304D01*
X126921950Y-88988342D01*
X127011658Y-89078050D01*
X127124696Y-89135646D01*
X127250000Y-89155492D01*
X127261694Y-89153639D01*
X127316765Y-89166859D01*
X127346360Y-89215149D01*
X127346360Y-89238302D01*
X127344508Y-89249997D01*
X127344508Y-89249999D01*
X127364353Y-89375301D01*
X127364353Y-89375302D01*
X127364354Y-89375304D01*
X127421950Y-89488342D01*
X127511658Y-89578050D01*
X127624696Y-89635646D01*
X127750000Y-89655492D01*
X127875304Y-89635646D01*
X127891905Y-89627186D01*
X127948366Y-89622742D01*
X127991434Y-89659525D01*
X127999500Y-89693121D01*
X127999500Y-90476927D01*
X127977826Y-90529253D01*
X127925500Y-90550927D01*
X127914970Y-90550174D01*
X127875507Y-90544500D01*
X127875500Y-90544500D01*
X96124500Y-90544500D01*
X96124498Y-90544500D01*
X96082410Y-90549025D01*
X96028067Y-90533069D01*
X96000924Y-90483359D01*
X96000500Y-90475449D01*
X96000500Y-89693121D01*
X96022174Y-89640795D01*
X96074500Y-89619121D01*
X96108092Y-89627186D01*
X96124696Y-89635646D01*
X96250000Y-89655492D01*
X96375304Y-89635646D01*
X96488342Y-89578050D01*
X96578050Y-89488342D01*
X96635646Y-89375304D01*
X96655492Y-89250000D01*
X96653639Y-89238303D01*
X96666860Y-89183234D01*
X96715150Y-89153639D01*
X96738301Y-89153639D01*
X96750000Y-89155492D01*
X96875304Y-89135646D01*
X96988342Y-89078050D01*
X97078050Y-88988342D01*
X97135646Y-88875304D01*
X97155492Y-88750000D01*
X102819508Y-88750000D01*
X102839353Y-88875301D01*
X102839353Y-88875302D01*
X102839354Y-88875304D01*
X102896950Y-88988342D01*
X102986658Y-89078050D01*
X103099696Y-89135646D01*
X103225000Y-89155492D01*
X103236694Y-89153639D01*
X103291765Y-89166859D01*
X103321360Y-89215149D01*
X103321360Y-89238302D01*
X103319508Y-89249997D01*
X103319508Y-89249999D01*
X103339353Y-89375301D01*
X103339353Y-89375302D01*
X103339354Y-89375304D01*
X103396950Y-89488342D01*
X103486658Y-89578050D01*
X103599696Y-89635646D01*
X103725000Y-89655492D01*
X103850304Y-89635646D01*
X103963342Y-89578050D01*
X104053050Y-89488342D01*
X104110646Y-89375304D01*
X104130492Y-89250000D01*
X119819508Y-89250000D01*
X119839353Y-89375301D01*
X119839353Y-89375302D01*
X119839354Y-89375304D01*
X119896950Y-89488342D01*
X119986658Y-89578050D01*
X120099696Y-89635646D01*
X120225000Y-89655492D01*
X120350304Y-89635646D01*
X120463342Y-89578050D01*
X120553050Y-89488342D01*
X120610646Y-89375304D01*
X120630492Y-89250000D01*
X120628639Y-89238303D01*
X120641860Y-89183234D01*
X120690150Y-89153639D01*
X120713301Y-89153639D01*
X120725000Y-89155492D01*
X120850304Y-89135646D01*
X120963342Y-89078050D01*
X121053050Y-88988342D01*
X121110646Y-88875304D01*
X121130492Y-88750000D01*
X121110646Y-88624696D01*
X121053050Y-88511658D01*
X120963342Y-88421950D01*
X120850304Y-88364354D01*
X120850302Y-88364353D01*
X120850301Y-88364353D01*
X120725000Y-88344508D01*
X120599698Y-88364353D01*
X120486656Y-88421951D01*
X120396951Y-88511656D01*
X120339353Y-88624698D01*
X120319508Y-88750000D01*
X120319508Y-88750001D01*
X120321360Y-88761696D01*
X120308137Y-88816768D01*
X120259846Y-88846360D01*
X120236696Y-88846360D01*
X120225002Y-88844508D01*
X120225000Y-88844508D01*
X120099698Y-88864353D01*
X119986656Y-88921951D01*
X119896951Y-89011656D01*
X119839353Y-89124698D01*
X119819508Y-89250000D01*
X104130492Y-89250000D01*
X104110646Y-89124696D01*
X104053050Y-89011658D01*
X103963342Y-88921950D01*
X103850304Y-88864354D01*
X103850302Y-88864353D01*
X103850301Y-88864353D01*
X103725000Y-88844508D01*
X103724997Y-88844508D01*
X103713302Y-88846360D01*
X103658230Y-88833137D01*
X103628639Y-88784845D01*
X103628639Y-88761696D01*
X103630492Y-88750000D01*
X103610646Y-88624696D01*
X103553050Y-88511658D01*
X103463342Y-88421950D01*
X103350304Y-88364354D01*
X103350302Y-88364353D01*
X103350301Y-88364353D01*
X103225000Y-88344508D01*
X103099698Y-88364353D01*
X102986656Y-88421951D01*
X102896951Y-88511656D01*
X102839353Y-88624698D01*
X102819508Y-88750000D01*
X97155492Y-88750000D01*
X97135646Y-88624696D01*
X97078050Y-88511658D01*
X96988342Y-88421950D01*
X96875304Y-88364354D01*
X96875302Y-88364353D01*
X96875301Y-88364353D01*
X96750000Y-88344508D01*
X96624698Y-88364353D01*
X96511656Y-88421951D01*
X96421951Y-88511656D01*
X96364353Y-88624698D01*
X96344508Y-88750000D01*
X96344508Y-88750001D01*
X96346360Y-88761696D01*
X96333137Y-88816768D01*
X96284846Y-88846360D01*
X96261696Y-88846360D01*
X96250002Y-88844508D01*
X96250000Y-88844508D01*
X96124696Y-88864353D01*
X96108094Y-88872813D01*
X96051631Y-88877256D01*
X96008565Y-88840472D01*
X96000500Y-88806878D01*
X96000500Y-87693121D01*
X96022174Y-87640795D01*
X96074500Y-87619121D01*
X96108092Y-87627186D01*
X96124696Y-87635646D01*
X96250000Y-87655492D01*
X96261694Y-87653639D01*
X96316765Y-87666859D01*
X96346360Y-87715149D01*
X96346360Y-87738302D01*
X96344508Y-87749997D01*
X96344508Y-87749999D01*
X96364353Y-87875301D01*
X96364353Y-87875302D01*
X96364354Y-87875304D01*
X96421950Y-87988342D01*
X96511658Y-88078050D01*
X96624696Y-88135646D01*
X96750000Y-88155492D01*
X96875304Y-88135646D01*
X96988342Y-88078050D01*
X97078050Y-87988342D01*
X97135646Y-87875304D01*
X97155492Y-87750000D01*
X102819508Y-87750000D01*
X102839353Y-87875301D01*
X102839353Y-87875302D01*
X102839354Y-87875304D01*
X102896950Y-87988342D01*
X102986658Y-88078050D01*
X103099696Y-88135646D01*
X103225000Y-88155492D01*
X103350304Y-88135646D01*
X103463342Y-88078050D01*
X103553050Y-87988342D01*
X103610646Y-87875304D01*
X103630492Y-87750000D01*
X103628639Y-87738303D01*
X103641860Y-87683234D01*
X103690150Y-87653639D01*
X103713301Y-87653639D01*
X103725000Y-87655492D01*
X103850304Y-87635646D01*
X103963342Y-87578050D01*
X104053050Y-87488342D01*
X104110646Y-87375304D01*
X104130492Y-87250000D01*
X119819508Y-87250000D01*
X119839353Y-87375301D01*
X119839353Y-87375302D01*
X119839354Y-87375304D01*
X119896950Y-87488342D01*
X119986658Y-87578050D01*
X120099696Y-87635646D01*
X120225000Y-87655492D01*
X120236694Y-87653639D01*
X120291765Y-87666859D01*
X120321360Y-87715149D01*
X120321360Y-87738302D01*
X120319508Y-87749997D01*
X120319508Y-87749999D01*
X120339353Y-87875301D01*
X120339353Y-87875302D01*
X120339354Y-87875304D01*
X120396950Y-87988342D01*
X120486658Y-88078050D01*
X120599696Y-88135646D01*
X120725000Y-88155492D01*
X120850304Y-88135646D01*
X120963342Y-88078050D01*
X121053050Y-87988342D01*
X121110646Y-87875304D01*
X121130492Y-87750000D01*
X121110646Y-87624696D01*
X121053050Y-87511658D01*
X120963342Y-87421950D01*
X120850304Y-87364354D01*
X120850302Y-87364353D01*
X120850301Y-87364353D01*
X120725000Y-87344508D01*
X120724997Y-87344508D01*
X120713302Y-87346360D01*
X120658230Y-87333137D01*
X120628639Y-87284845D01*
X120628639Y-87261696D01*
X120630492Y-87250000D01*
X120610646Y-87124696D01*
X120553050Y-87011658D01*
X120463342Y-86921950D01*
X120350304Y-86864354D01*
X120350302Y-86864353D01*
X120350301Y-86864353D01*
X120225000Y-86844508D01*
X120099698Y-86864353D01*
X119986656Y-86921951D01*
X119896951Y-87011656D01*
X119839353Y-87124698D01*
X119819508Y-87250000D01*
X104130492Y-87250000D01*
X104110646Y-87124696D01*
X104053050Y-87011658D01*
X103963342Y-86921950D01*
X103850304Y-86864354D01*
X103850302Y-86864353D01*
X103850301Y-86864353D01*
X103725000Y-86844508D01*
X103599698Y-86864353D01*
X103486656Y-86921951D01*
X103396951Y-87011656D01*
X103339353Y-87124698D01*
X103319508Y-87250000D01*
X103319508Y-87250001D01*
X103321360Y-87261696D01*
X103308137Y-87316768D01*
X103259846Y-87346360D01*
X103236696Y-87346360D01*
X103225002Y-87344508D01*
X103225000Y-87344508D01*
X103099698Y-87364353D01*
X102986656Y-87421951D01*
X102896951Y-87511656D01*
X102839353Y-87624698D01*
X102819508Y-87750000D01*
X97155492Y-87750000D01*
X97135646Y-87624696D01*
X97078050Y-87511658D01*
X96988342Y-87421950D01*
X96875304Y-87364354D01*
X96875302Y-87364353D01*
X96875301Y-87364353D01*
X96750000Y-87344508D01*
X96749997Y-87344508D01*
X96738302Y-87346360D01*
X96683230Y-87333137D01*
X96653639Y-87284845D01*
X96653639Y-87261696D01*
X96655492Y-87250000D01*
X96635646Y-87124696D01*
X96578050Y-87011658D01*
X96488342Y-86921950D01*
X96375304Y-86864354D01*
X96375302Y-86864353D01*
X96375301Y-86864353D01*
X96250000Y-86844508D01*
X96124696Y-86864353D01*
X96108094Y-86872813D01*
X96051631Y-86877256D01*
X96008565Y-86840472D01*
X96000500Y-86806878D01*
X96000500Y-86693121D01*
X96022174Y-86640795D01*
X96074500Y-86619121D01*
X96108092Y-86627186D01*
X96124696Y-86635646D01*
X96250000Y-86655492D01*
X96375304Y-86635646D01*
X96488342Y-86578050D01*
X96578050Y-86488342D01*
X96635646Y-86375304D01*
X96655492Y-86250000D01*
X119094508Y-86250000D01*
X119114353Y-86375301D01*
X119114353Y-86375302D01*
X119114354Y-86375304D01*
X119171950Y-86488342D01*
X119261658Y-86578050D01*
X119374696Y-86635646D01*
X119500000Y-86655492D01*
X119625304Y-86635646D01*
X119738342Y-86578050D01*
X119828050Y-86488342D01*
X119885646Y-86375304D01*
X119905492Y-86250000D01*
X119885646Y-86124696D01*
X119828050Y-86011658D01*
X119738342Y-85921950D01*
X119625304Y-85864354D01*
X119625302Y-85864353D01*
X119625301Y-85864353D01*
X119500000Y-85844508D01*
X119374698Y-85864353D01*
X119261656Y-85921951D01*
X119171951Y-86011656D01*
X119114353Y-86124698D01*
X119094508Y-86250000D01*
X96655492Y-86250000D01*
X96635646Y-86124696D01*
X96578050Y-86011658D01*
X96488342Y-85921950D01*
X96375304Y-85864354D01*
X96375302Y-85864353D01*
X96375301Y-85864353D01*
X96250000Y-85844508D01*
X96124696Y-85864353D01*
X96108094Y-85872813D01*
X96051631Y-85877256D01*
X96008565Y-85840472D01*
X96000500Y-85806878D01*
X96000500Y-85750000D01*
X103844508Y-85750000D01*
X103864353Y-85875301D01*
X103864353Y-85875302D01*
X103864354Y-85875304D01*
X103921950Y-85988342D01*
X104011658Y-86078050D01*
X104124696Y-86135646D01*
X104250000Y-86155492D01*
X104375304Y-86135646D01*
X104488342Y-86078050D01*
X104572674Y-85993718D01*
X104625000Y-85972044D01*
X104677326Y-85993718D01*
X104761658Y-86078050D01*
X104874696Y-86135646D01*
X105000000Y-86155492D01*
X105125304Y-86135646D01*
X105238342Y-86078050D01*
X105328050Y-85988342D01*
X105385646Y-85875304D01*
X105405492Y-85750000D01*
X105385646Y-85624696D01*
X105328050Y-85511658D01*
X105238342Y-85421950D01*
X105125304Y-85364354D01*
X105125302Y-85364353D01*
X105125301Y-85364353D01*
X105000000Y-85344508D01*
X104874698Y-85364353D01*
X104761656Y-85421951D01*
X104677326Y-85506282D01*
X104625000Y-85527956D01*
X104572674Y-85506282D01*
X104488343Y-85421951D01*
X104488342Y-85421950D01*
X104375304Y-85364354D01*
X104375302Y-85364353D01*
X104375301Y-85364353D01*
X104250000Y-85344508D01*
X104124698Y-85364353D01*
X104011656Y-85421951D01*
X103921951Y-85511656D01*
X103864353Y-85624698D01*
X103844508Y-85750000D01*
X96000500Y-85750000D01*
X96000500Y-85693121D01*
X96022174Y-85640795D01*
X96074500Y-85619121D01*
X96108092Y-85627186D01*
X96124696Y-85635646D01*
X96250000Y-85655492D01*
X96375304Y-85635646D01*
X96488342Y-85578050D01*
X96578050Y-85488342D01*
X96635646Y-85375304D01*
X96655492Y-85250000D01*
X117844508Y-85250000D01*
X117864353Y-85375301D01*
X117864353Y-85375302D01*
X117864354Y-85375304D01*
X117921950Y-85488342D01*
X118011658Y-85578050D01*
X118124696Y-85635646D01*
X118250000Y-85655492D01*
X118375304Y-85635646D01*
X118488342Y-85578050D01*
X118578050Y-85488342D01*
X118635646Y-85375304D01*
X118655492Y-85250000D01*
X118635646Y-85124696D01*
X118578050Y-85011658D01*
X118488342Y-84921950D01*
X118375304Y-84864354D01*
X118375302Y-84864353D01*
X118375301Y-84864353D01*
X118250000Y-84844508D01*
X118124698Y-84864353D01*
X118011656Y-84921951D01*
X117921951Y-85011656D01*
X117864353Y-85124698D01*
X117844508Y-85250000D01*
X96655492Y-85250000D01*
X96653639Y-85238303D01*
X96666860Y-85183234D01*
X96715150Y-85153639D01*
X96738301Y-85153639D01*
X96750000Y-85155492D01*
X96875304Y-85135646D01*
X96988342Y-85078050D01*
X97078050Y-84988342D01*
X97135646Y-84875304D01*
X97155492Y-84750000D01*
X119094508Y-84750000D01*
X119114353Y-84875301D01*
X119114353Y-84875302D01*
X119114354Y-84875304D01*
X119171950Y-84988342D01*
X119261658Y-85078050D01*
X119374696Y-85135646D01*
X119500000Y-85155492D01*
X119625304Y-85135646D01*
X119738342Y-85078050D01*
X119828050Y-84988342D01*
X119885646Y-84875304D01*
X119905492Y-84750000D01*
X119885646Y-84624696D01*
X119828050Y-84511658D01*
X119738342Y-84421950D01*
X119625304Y-84364354D01*
X119625302Y-84364353D01*
X119625301Y-84364353D01*
X119500000Y-84344508D01*
X119374698Y-84364353D01*
X119261656Y-84421951D01*
X119171951Y-84511656D01*
X119114353Y-84624698D01*
X119094508Y-84750000D01*
X97155492Y-84750000D01*
X97135646Y-84624696D01*
X97078050Y-84511658D01*
X96988342Y-84421950D01*
X96875304Y-84364354D01*
X96875302Y-84364353D01*
X96875301Y-84364353D01*
X96750000Y-84344508D01*
X96624698Y-84364353D01*
X96511656Y-84421951D01*
X96421951Y-84511656D01*
X96364353Y-84624698D01*
X96344508Y-84750000D01*
X96344508Y-84750001D01*
X96346360Y-84761696D01*
X96333137Y-84816768D01*
X96284846Y-84846360D01*
X96261696Y-84846360D01*
X96250002Y-84844508D01*
X96250000Y-84844508D01*
X96124696Y-84864353D01*
X96108094Y-84872813D01*
X96051631Y-84877256D01*
X96008565Y-84840472D01*
X96000500Y-84806878D01*
X96000500Y-84250000D01*
X103844508Y-84250000D01*
X103864353Y-84375301D01*
X103864353Y-84375302D01*
X103864354Y-84375304D01*
X103921950Y-84488342D01*
X104011658Y-84578050D01*
X104124696Y-84635646D01*
X104250000Y-84655492D01*
X104375304Y-84635646D01*
X104488342Y-84578050D01*
X104572674Y-84493718D01*
X104625000Y-84472044D01*
X104677326Y-84493718D01*
X104761658Y-84578050D01*
X104874696Y-84635646D01*
X105000000Y-84655492D01*
X105125304Y-84635646D01*
X105238342Y-84578050D01*
X105328050Y-84488342D01*
X105385646Y-84375304D01*
X105405492Y-84250000D01*
X105385646Y-84124696D01*
X105328050Y-84011658D01*
X105238342Y-83921950D01*
X105125304Y-83864354D01*
X105125302Y-83864353D01*
X105125301Y-83864353D01*
X105000000Y-83844508D01*
X104874698Y-83864353D01*
X104761656Y-83921951D01*
X104677326Y-84006282D01*
X104625000Y-84027956D01*
X104572674Y-84006282D01*
X104488343Y-83921951D01*
X104488342Y-83921950D01*
X104375304Y-83864354D01*
X104375302Y-83864353D01*
X104375301Y-83864353D01*
X104250000Y-83844508D01*
X104124698Y-83864353D01*
X104011656Y-83921951D01*
X103921951Y-84011656D01*
X103864353Y-84124698D01*
X103844508Y-84250000D01*
X96000500Y-84250000D01*
X96000500Y-83693121D01*
X96022174Y-83640795D01*
X96074500Y-83619121D01*
X96108092Y-83627186D01*
X96124696Y-83635646D01*
X96250000Y-83655492D01*
X96261694Y-83653639D01*
X96316765Y-83666859D01*
X96346360Y-83715149D01*
X96346360Y-83738302D01*
X96344508Y-83749997D01*
X96344508Y-83749999D01*
X96364353Y-83875301D01*
X96364353Y-83875302D01*
X96364354Y-83875304D01*
X96421950Y-83988342D01*
X96511658Y-84078050D01*
X96624696Y-84135646D01*
X96750000Y-84155492D01*
X96875304Y-84135646D01*
X96988342Y-84078050D01*
X97078050Y-83988342D01*
X97135646Y-83875304D01*
X97155492Y-83750000D01*
X117844508Y-83750000D01*
X117864353Y-83875301D01*
X117864353Y-83875302D01*
X117864354Y-83875304D01*
X117921950Y-83988342D01*
X118011658Y-84078050D01*
X118124696Y-84135646D01*
X118250000Y-84155492D01*
X118375304Y-84135646D01*
X118488342Y-84078050D01*
X118578050Y-83988342D01*
X118635646Y-83875304D01*
X118655492Y-83750000D01*
X118635646Y-83624696D01*
X118578050Y-83511658D01*
X118488342Y-83421950D01*
X118375304Y-83364354D01*
X118375302Y-83364353D01*
X118375301Y-83364353D01*
X118250000Y-83344508D01*
X118124698Y-83364353D01*
X118011656Y-83421951D01*
X117921951Y-83511656D01*
X117864353Y-83624698D01*
X117844508Y-83750000D01*
X97155492Y-83750000D01*
X97135646Y-83624696D01*
X97078050Y-83511658D01*
X96988342Y-83421950D01*
X96875304Y-83364354D01*
X96875302Y-83364353D01*
X96875301Y-83364353D01*
X96750000Y-83344508D01*
X96749997Y-83344508D01*
X96738302Y-83346360D01*
X96683230Y-83333137D01*
X96653639Y-83284845D01*
X96653639Y-83261696D01*
X96655492Y-83250000D01*
X119094508Y-83250000D01*
X119114353Y-83375301D01*
X119114353Y-83375302D01*
X119114354Y-83375304D01*
X119171950Y-83488342D01*
X119261658Y-83578050D01*
X119374696Y-83635646D01*
X119500000Y-83655492D01*
X119625304Y-83635646D01*
X119738342Y-83578050D01*
X119828050Y-83488342D01*
X119885646Y-83375304D01*
X119905492Y-83250000D01*
X119885646Y-83124696D01*
X119828050Y-83011658D01*
X119738342Y-82921950D01*
X119625304Y-82864354D01*
X119625302Y-82864353D01*
X119625301Y-82864353D01*
X119500000Y-82844508D01*
X119374698Y-82864353D01*
X119261656Y-82921951D01*
X119171951Y-83011656D01*
X119114353Y-83124698D01*
X119094508Y-83250000D01*
X96655492Y-83250000D01*
X96635646Y-83124696D01*
X96578050Y-83011658D01*
X96488342Y-82921950D01*
X96375304Y-82864354D01*
X96375302Y-82864353D01*
X96375301Y-82864353D01*
X96250000Y-82844508D01*
X96124696Y-82864353D01*
X96108094Y-82872813D01*
X96051631Y-82877256D01*
X96008565Y-82840472D01*
X96000500Y-82806878D01*
X96000500Y-82750000D01*
X103844508Y-82750000D01*
X103864353Y-82875301D01*
X103864353Y-82875302D01*
X103864354Y-82875304D01*
X103921950Y-82988342D01*
X104011658Y-83078050D01*
X104124696Y-83135646D01*
X104250000Y-83155492D01*
X104375304Y-83135646D01*
X104488342Y-83078050D01*
X104572674Y-82993718D01*
X104625000Y-82972044D01*
X104677326Y-82993718D01*
X104761658Y-83078050D01*
X104874696Y-83135646D01*
X105000000Y-83155492D01*
X105125304Y-83135646D01*
X105238342Y-83078050D01*
X105328050Y-82988342D01*
X105385646Y-82875304D01*
X105405492Y-82750000D01*
X105385646Y-82624696D01*
X105328050Y-82511658D01*
X105238342Y-82421950D01*
X105125304Y-82364354D01*
X105125302Y-82364353D01*
X105125301Y-82364353D01*
X105000000Y-82344508D01*
X104874698Y-82364353D01*
X104761656Y-82421951D01*
X104677326Y-82506282D01*
X104625000Y-82527956D01*
X104572674Y-82506282D01*
X104488343Y-82421951D01*
X104488342Y-82421950D01*
X104375304Y-82364354D01*
X104375302Y-82364353D01*
X104375301Y-82364353D01*
X104250000Y-82344508D01*
X104124698Y-82364353D01*
X104011656Y-82421951D01*
X103921951Y-82511656D01*
X103864353Y-82624698D01*
X103844508Y-82750000D01*
X96000500Y-82750000D01*
X96000500Y-82693121D01*
X96022174Y-82640795D01*
X96074500Y-82619121D01*
X96108092Y-82627186D01*
X96124696Y-82635646D01*
X96250000Y-82655492D01*
X96375304Y-82635646D01*
X96488342Y-82578050D01*
X96578050Y-82488342D01*
X96635646Y-82375304D01*
X96655492Y-82250000D01*
X117844508Y-82250000D01*
X117864353Y-82375301D01*
X117864353Y-82375302D01*
X117864354Y-82375304D01*
X117921950Y-82488342D01*
X118011658Y-82578050D01*
X118124696Y-82635646D01*
X118250000Y-82655492D01*
X118375304Y-82635646D01*
X118488342Y-82578050D01*
X118578050Y-82488342D01*
X118635646Y-82375304D01*
X118655492Y-82250000D01*
X118635646Y-82124696D01*
X118578050Y-82011658D01*
X118488342Y-81921950D01*
X118375304Y-81864354D01*
X118375302Y-81864353D01*
X118375301Y-81864353D01*
X118250000Y-81844508D01*
X118124698Y-81864353D01*
X118011656Y-81921951D01*
X117921951Y-82011656D01*
X117864353Y-82124698D01*
X117844508Y-82250000D01*
X96655492Y-82250000D01*
X96653639Y-82238303D01*
X96666860Y-82183234D01*
X96715150Y-82153639D01*
X96738301Y-82153639D01*
X96750000Y-82155492D01*
X96875304Y-82135646D01*
X96988342Y-82078050D01*
X97078050Y-81988342D01*
X97135646Y-81875304D01*
X97155492Y-81750000D01*
X119094508Y-81750000D01*
X119114353Y-81875301D01*
X119114353Y-81875302D01*
X119114354Y-81875304D01*
X119171950Y-81988342D01*
X119261658Y-82078050D01*
X119374696Y-82135646D01*
X119500000Y-82155492D01*
X119625304Y-82135646D01*
X119738342Y-82078050D01*
X119828050Y-81988342D01*
X119885646Y-81875304D01*
X119905492Y-81750000D01*
X119885646Y-81624696D01*
X119828050Y-81511658D01*
X119738342Y-81421950D01*
X119625304Y-81364354D01*
X119625302Y-81364353D01*
X119625301Y-81364353D01*
X119500000Y-81344508D01*
X119374698Y-81364353D01*
X119261656Y-81421951D01*
X119171951Y-81511656D01*
X119114353Y-81624698D01*
X119094508Y-81750000D01*
X97155492Y-81750000D01*
X97135646Y-81624696D01*
X97078050Y-81511658D01*
X96988342Y-81421950D01*
X96875304Y-81364354D01*
X96875302Y-81364353D01*
X96875301Y-81364353D01*
X96750000Y-81344508D01*
X96624698Y-81364353D01*
X96511656Y-81421951D01*
X96421951Y-81511656D01*
X96364353Y-81624698D01*
X96344508Y-81750000D01*
X96344508Y-81750001D01*
X96346360Y-81761696D01*
X96333137Y-81816768D01*
X96284846Y-81846360D01*
X96261696Y-81846360D01*
X96250002Y-81844508D01*
X96250000Y-81844508D01*
X96124696Y-81864353D01*
X96108094Y-81872813D01*
X96051631Y-81877256D01*
X96008565Y-81840472D01*
X96000500Y-81806878D01*
X96000500Y-81250000D01*
X103844508Y-81250000D01*
X103864353Y-81375301D01*
X103864353Y-81375302D01*
X103864354Y-81375304D01*
X103921950Y-81488342D01*
X104011658Y-81578050D01*
X104124696Y-81635646D01*
X104250000Y-81655492D01*
X104375304Y-81635646D01*
X104488342Y-81578050D01*
X104572674Y-81493718D01*
X104625000Y-81472044D01*
X104677326Y-81493718D01*
X104761658Y-81578050D01*
X104874696Y-81635646D01*
X105000000Y-81655492D01*
X105125304Y-81635646D01*
X105238342Y-81578050D01*
X105328050Y-81488342D01*
X105385646Y-81375304D01*
X105405492Y-81250000D01*
X105385646Y-81124696D01*
X105328050Y-81011658D01*
X105238342Y-80921950D01*
X105125304Y-80864354D01*
X105125302Y-80864353D01*
X105125301Y-80864353D01*
X105000000Y-80844508D01*
X104874698Y-80864353D01*
X104761656Y-80921951D01*
X104677326Y-81006282D01*
X104625000Y-81027956D01*
X104572674Y-81006282D01*
X104488343Y-80921951D01*
X104488342Y-80921950D01*
X104375304Y-80864354D01*
X104375302Y-80864353D01*
X104375301Y-80864353D01*
X104250000Y-80844508D01*
X104124698Y-80864353D01*
X104011656Y-80921951D01*
X103921951Y-81011656D01*
X103864353Y-81124698D01*
X103844508Y-81250000D01*
X96000500Y-81250000D01*
X96000500Y-80693121D01*
X96022174Y-80640795D01*
X96074500Y-80619121D01*
X96108092Y-80627186D01*
X96124696Y-80635646D01*
X96250000Y-80655492D01*
X96261694Y-80653639D01*
X96316765Y-80666859D01*
X96346360Y-80715149D01*
X96346360Y-80738302D01*
X96344508Y-80749997D01*
X96344508Y-80749999D01*
X96364353Y-80875301D01*
X96364353Y-80875302D01*
X96364354Y-80875304D01*
X96421950Y-80988342D01*
X96511658Y-81078050D01*
X96624696Y-81135646D01*
X96750000Y-81155492D01*
X96875304Y-81135646D01*
X96988342Y-81078050D01*
X97078050Y-80988342D01*
X97135646Y-80875304D01*
X97155492Y-80750000D01*
X117844508Y-80750000D01*
X117864353Y-80875301D01*
X117864353Y-80875302D01*
X117864354Y-80875304D01*
X117921950Y-80988342D01*
X118011658Y-81078050D01*
X118124696Y-81135646D01*
X118250000Y-81155492D01*
X118375304Y-81135646D01*
X118488342Y-81078050D01*
X118578050Y-80988342D01*
X118635646Y-80875304D01*
X118655492Y-80750000D01*
X118635646Y-80624696D01*
X118578050Y-80511658D01*
X118488342Y-80421950D01*
X118375304Y-80364354D01*
X118375302Y-80364353D01*
X118375301Y-80364353D01*
X118250000Y-80344508D01*
X118124698Y-80364353D01*
X118011656Y-80421951D01*
X117921951Y-80511656D01*
X117864353Y-80624698D01*
X117844508Y-80750000D01*
X97155492Y-80750000D01*
X97135646Y-80624696D01*
X97078050Y-80511658D01*
X96988342Y-80421950D01*
X96875304Y-80364354D01*
X96875302Y-80364353D01*
X96875301Y-80364353D01*
X96750000Y-80344508D01*
X96749997Y-80344508D01*
X96738302Y-80346360D01*
X96683230Y-80333137D01*
X96653639Y-80284845D01*
X96653639Y-80261696D01*
X96655492Y-80250000D01*
X119094508Y-80250000D01*
X119114353Y-80375301D01*
X119114353Y-80375302D01*
X119114354Y-80375304D01*
X119171950Y-80488342D01*
X119261658Y-80578050D01*
X119374696Y-80635646D01*
X119500000Y-80655492D01*
X119625304Y-80635646D01*
X119738342Y-80578050D01*
X119828050Y-80488342D01*
X119885646Y-80375304D01*
X119905492Y-80250000D01*
X119885646Y-80124696D01*
X119828050Y-80011658D01*
X119738342Y-79921950D01*
X119625304Y-79864354D01*
X119625302Y-79864353D01*
X119625301Y-79864353D01*
X119500000Y-79844508D01*
X119374698Y-79864353D01*
X119261656Y-79921951D01*
X119171951Y-80011656D01*
X119114353Y-80124698D01*
X119094508Y-80250000D01*
X96655492Y-80250000D01*
X96635646Y-80124696D01*
X96578050Y-80011658D01*
X96488342Y-79921950D01*
X96375304Y-79864354D01*
X96375302Y-79864353D01*
X96375301Y-79864353D01*
X96250000Y-79844508D01*
X96124696Y-79864353D01*
X96108094Y-79872813D01*
X96051631Y-79877256D01*
X96008565Y-79840472D01*
X96000500Y-79806878D01*
X96000500Y-79750000D01*
X103844508Y-79750000D01*
X103864353Y-79875301D01*
X103864353Y-79875302D01*
X103864354Y-79875304D01*
X103921950Y-79988342D01*
X104011658Y-80078050D01*
X104124696Y-80135646D01*
X104250000Y-80155492D01*
X104375304Y-80135646D01*
X104488342Y-80078050D01*
X104572674Y-79993718D01*
X104625000Y-79972044D01*
X104677326Y-79993718D01*
X104761658Y-80078050D01*
X104874696Y-80135646D01*
X105000000Y-80155492D01*
X105125304Y-80135646D01*
X105238342Y-80078050D01*
X105328050Y-79988342D01*
X105385646Y-79875304D01*
X105405492Y-79750000D01*
X105385646Y-79624696D01*
X105328050Y-79511658D01*
X105238342Y-79421950D01*
X105125304Y-79364354D01*
X105125302Y-79364353D01*
X105125301Y-79364353D01*
X105000000Y-79344508D01*
X104874698Y-79364353D01*
X104761656Y-79421951D01*
X104677326Y-79506282D01*
X104625000Y-79527956D01*
X104572674Y-79506282D01*
X104488343Y-79421951D01*
X104488342Y-79421950D01*
X104375304Y-79364354D01*
X104375302Y-79364353D01*
X104375301Y-79364353D01*
X104250000Y-79344508D01*
X104124698Y-79364353D01*
X104011656Y-79421951D01*
X103921951Y-79511656D01*
X103864353Y-79624698D01*
X103844508Y-79750000D01*
X96000500Y-79750000D01*
X96000500Y-79693121D01*
X96022174Y-79640795D01*
X96074500Y-79619121D01*
X96108092Y-79627186D01*
X96124696Y-79635646D01*
X96250000Y-79655492D01*
X96375304Y-79635646D01*
X96488342Y-79578050D01*
X96578050Y-79488342D01*
X96635646Y-79375304D01*
X96655492Y-79250000D01*
X117844508Y-79250000D01*
X117864353Y-79375301D01*
X117864353Y-79375302D01*
X117864354Y-79375304D01*
X117921950Y-79488342D01*
X118011658Y-79578050D01*
X118124696Y-79635646D01*
X118250000Y-79655492D01*
X118375304Y-79635646D01*
X118488342Y-79578050D01*
X118578050Y-79488342D01*
X118635646Y-79375304D01*
X118655492Y-79250000D01*
X118635646Y-79124696D01*
X118578050Y-79011658D01*
X118488342Y-78921950D01*
X118375304Y-78864354D01*
X118375302Y-78864353D01*
X118375301Y-78864353D01*
X118250000Y-78844508D01*
X118124698Y-78864353D01*
X118011656Y-78921951D01*
X117921951Y-79011656D01*
X117864353Y-79124698D01*
X117844508Y-79250000D01*
X96655492Y-79250000D01*
X96653639Y-79238303D01*
X96666860Y-79183234D01*
X96715150Y-79153639D01*
X96738301Y-79153639D01*
X96750000Y-79155492D01*
X96875304Y-79135646D01*
X96988342Y-79078050D01*
X97078050Y-78988342D01*
X97135646Y-78875304D01*
X97155492Y-78750000D01*
X119094508Y-78750000D01*
X119114353Y-78875301D01*
X119114353Y-78875302D01*
X119114354Y-78875304D01*
X119171950Y-78988342D01*
X119261658Y-79078050D01*
X119374696Y-79135646D01*
X119500000Y-79155492D01*
X119625304Y-79135646D01*
X119738342Y-79078050D01*
X119828050Y-78988342D01*
X119885646Y-78875304D01*
X119905492Y-78750000D01*
X119885646Y-78624696D01*
X119828050Y-78511658D01*
X119738342Y-78421950D01*
X119625304Y-78364354D01*
X119625302Y-78364353D01*
X119625301Y-78364353D01*
X119500000Y-78344508D01*
X119374698Y-78364353D01*
X119261656Y-78421951D01*
X119171951Y-78511656D01*
X119114353Y-78624698D01*
X119094508Y-78750000D01*
X97155492Y-78750000D01*
X97135646Y-78624696D01*
X97078050Y-78511658D01*
X96988342Y-78421950D01*
X96875304Y-78364354D01*
X96875302Y-78364353D01*
X96875301Y-78364353D01*
X96750000Y-78344508D01*
X96624698Y-78364353D01*
X96511656Y-78421951D01*
X96421951Y-78511656D01*
X96364353Y-78624698D01*
X96344508Y-78750000D01*
X96344508Y-78750001D01*
X96346360Y-78761696D01*
X96333137Y-78816768D01*
X96284846Y-78846360D01*
X96261696Y-78846360D01*
X96250002Y-78844508D01*
X96250000Y-78844508D01*
X96124696Y-78864353D01*
X96108094Y-78872813D01*
X96051631Y-78877256D01*
X96008565Y-78840472D01*
X96000500Y-78806878D01*
X96000500Y-78250000D01*
X103844508Y-78250000D01*
X103864353Y-78375301D01*
X103864353Y-78375302D01*
X103864354Y-78375304D01*
X103921950Y-78488342D01*
X104011658Y-78578050D01*
X104124696Y-78635646D01*
X104250000Y-78655492D01*
X104375304Y-78635646D01*
X104488342Y-78578050D01*
X104572674Y-78493718D01*
X104625000Y-78472044D01*
X104677326Y-78493718D01*
X104761658Y-78578050D01*
X104874696Y-78635646D01*
X105000000Y-78655492D01*
X105125304Y-78635646D01*
X105238342Y-78578050D01*
X105328050Y-78488342D01*
X105385646Y-78375304D01*
X105405492Y-78250000D01*
X105385646Y-78124696D01*
X105328050Y-78011658D01*
X105238342Y-77921950D01*
X105125304Y-77864354D01*
X105125302Y-77864353D01*
X105125301Y-77864353D01*
X105000000Y-77844508D01*
X104874698Y-77864353D01*
X104761656Y-77921951D01*
X104677326Y-78006282D01*
X104625000Y-78027956D01*
X104572674Y-78006282D01*
X104488343Y-77921951D01*
X104488342Y-77921950D01*
X104375304Y-77864354D01*
X104375302Y-77864353D01*
X104375301Y-77864353D01*
X104250000Y-77844508D01*
X104124698Y-77864353D01*
X104011656Y-77921951D01*
X103921951Y-78011656D01*
X103864353Y-78124698D01*
X103844508Y-78250000D01*
X96000500Y-78250000D01*
X96000500Y-77693121D01*
X96022174Y-77640795D01*
X96074500Y-77619121D01*
X96108092Y-77627186D01*
X96124696Y-77635646D01*
X96250000Y-77655492D01*
X96261694Y-77653639D01*
X96316765Y-77666859D01*
X96346360Y-77715149D01*
X96346360Y-77738302D01*
X96344508Y-77749997D01*
X96344508Y-77749999D01*
X96364353Y-77875301D01*
X96364353Y-77875302D01*
X96364354Y-77875304D01*
X96421950Y-77988342D01*
X96511658Y-78078050D01*
X96624696Y-78135646D01*
X96750000Y-78155492D01*
X96875304Y-78135646D01*
X96988342Y-78078050D01*
X97078050Y-77988342D01*
X97135646Y-77875304D01*
X97155492Y-77750000D01*
X117844508Y-77750000D01*
X117864353Y-77875301D01*
X117864353Y-77875302D01*
X117864354Y-77875304D01*
X117921950Y-77988342D01*
X118011658Y-78078050D01*
X118124696Y-78135646D01*
X118250000Y-78155492D01*
X118375304Y-78135646D01*
X118488342Y-78078050D01*
X118578050Y-77988342D01*
X118635646Y-77875304D01*
X118655492Y-77750000D01*
X118635646Y-77624696D01*
X118578050Y-77511658D01*
X118488342Y-77421950D01*
X118375304Y-77364354D01*
X118375302Y-77364353D01*
X118375301Y-77364353D01*
X118250000Y-77344508D01*
X118124698Y-77364353D01*
X118011656Y-77421951D01*
X117921951Y-77511656D01*
X117864353Y-77624698D01*
X117844508Y-77750000D01*
X97155492Y-77750000D01*
X97135646Y-77624696D01*
X97078050Y-77511658D01*
X96988342Y-77421950D01*
X96875304Y-77364354D01*
X96875302Y-77364353D01*
X96875301Y-77364353D01*
X96750000Y-77344508D01*
X96749997Y-77344508D01*
X96738302Y-77346360D01*
X96683230Y-77333137D01*
X96653639Y-77284845D01*
X96653639Y-77261696D01*
X96655492Y-77250000D01*
X119094508Y-77250000D01*
X119114353Y-77375301D01*
X119114353Y-77375302D01*
X119114354Y-77375304D01*
X119171950Y-77488342D01*
X119261658Y-77578050D01*
X119374696Y-77635646D01*
X119500000Y-77655492D01*
X119625304Y-77635646D01*
X119738342Y-77578050D01*
X119828050Y-77488342D01*
X119885646Y-77375304D01*
X119905492Y-77250000D01*
X119885646Y-77124696D01*
X119828050Y-77011658D01*
X119738342Y-76921950D01*
X119625304Y-76864354D01*
X119625302Y-76864353D01*
X119625301Y-76864353D01*
X119500000Y-76844508D01*
X119374698Y-76864353D01*
X119261656Y-76921951D01*
X119171951Y-77011656D01*
X119114353Y-77124698D01*
X119094508Y-77250000D01*
X96655492Y-77250000D01*
X96635646Y-77124696D01*
X96578050Y-77011658D01*
X96488342Y-76921950D01*
X96375304Y-76864354D01*
X96375302Y-76864353D01*
X96375301Y-76864353D01*
X96250000Y-76844508D01*
X96124696Y-76864353D01*
X96108094Y-76872813D01*
X96051631Y-76877256D01*
X96008565Y-76840472D01*
X96000500Y-76806878D01*
X96000500Y-76750000D01*
X103844508Y-76750000D01*
X103864353Y-76875301D01*
X103864353Y-76875302D01*
X103864354Y-76875304D01*
X103921950Y-76988342D01*
X104011658Y-77078050D01*
X104124696Y-77135646D01*
X104250000Y-77155492D01*
X104375304Y-77135646D01*
X104488342Y-77078050D01*
X104572674Y-76993718D01*
X104625000Y-76972044D01*
X104677326Y-76993718D01*
X104761658Y-77078050D01*
X104874696Y-77135646D01*
X105000000Y-77155492D01*
X105125304Y-77135646D01*
X105238342Y-77078050D01*
X105328050Y-76988342D01*
X105385646Y-76875304D01*
X105405492Y-76750000D01*
X105385646Y-76624696D01*
X105328050Y-76511658D01*
X105238342Y-76421950D01*
X105125304Y-76364354D01*
X105125302Y-76364353D01*
X105125301Y-76364353D01*
X105000000Y-76344508D01*
X104874698Y-76364353D01*
X104761656Y-76421951D01*
X104677326Y-76506282D01*
X104625000Y-76527956D01*
X104572674Y-76506282D01*
X104488343Y-76421951D01*
X104488342Y-76421950D01*
X104375304Y-76364354D01*
X104375302Y-76364353D01*
X104375301Y-76364353D01*
X104250000Y-76344508D01*
X104124698Y-76364353D01*
X104011656Y-76421951D01*
X103921951Y-76511656D01*
X103864353Y-76624698D01*
X103844508Y-76750000D01*
X96000500Y-76750000D01*
X96000500Y-76693121D01*
X96022174Y-76640795D01*
X96074500Y-76619121D01*
X96108092Y-76627186D01*
X96124696Y-76635646D01*
X96250000Y-76655492D01*
X96375304Y-76635646D01*
X96488342Y-76578050D01*
X96578050Y-76488342D01*
X96635646Y-76375304D01*
X96655492Y-76250000D01*
X117844508Y-76250000D01*
X117864353Y-76375301D01*
X117864353Y-76375302D01*
X117864354Y-76375304D01*
X117921950Y-76488342D01*
X118011658Y-76578050D01*
X118124696Y-76635646D01*
X118250000Y-76655492D01*
X118375304Y-76635646D01*
X118488342Y-76578050D01*
X118578050Y-76488342D01*
X118635646Y-76375304D01*
X118655492Y-76250000D01*
X118635646Y-76124696D01*
X118578050Y-76011658D01*
X118488342Y-75921950D01*
X118375304Y-75864354D01*
X118375302Y-75864353D01*
X118375301Y-75864353D01*
X118250000Y-75844508D01*
X118124698Y-75864353D01*
X118011656Y-75921951D01*
X117921951Y-76011656D01*
X117864353Y-76124698D01*
X117844508Y-76250000D01*
X96655492Y-76250000D01*
X96653639Y-76238303D01*
X96666860Y-76183234D01*
X96715150Y-76153639D01*
X96738301Y-76153639D01*
X96750000Y-76155492D01*
X96875304Y-76135646D01*
X96988342Y-76078050D01*
X97078050Y-75988342D01*
X97135646Y-75875304D01*
X97155492Y-75750000D01*
X119094508Y-75750000D01*
X119114353Y-75875301D01*
X119114353Y-75875302D01*
X119114354Y-75875304D01*
X119171950Y-75988342D01*
X119261658Y-76078050D01*
X119374696Y-76135646D01*
X119500000Y-76155492D01*
X119625304Y-76135646D01*
X119738342Y-76078050D01*
X119828050Y-75988342D01*
X119885646Y-75875304D01*
X119905492Y-75750000D01*
X119885646Y-75624696D01*
X119828050Y-75511658D01*
X119738342Y-75421950D01*
X119625304Y-75364354D01*
X119625302Y-75364353D01*
X119625301Y-75364353D01*
X119500000Y-75344508D01*
X119374698Y-75364353D01*
X119261656Y-75421951D01*
X119171951Y-75511656D01*
X119114353Y-75624698D01*
X119094508Y-75750000D01*
X97155492Y-75750000D01*
X97135646Y-75624696D01*
X97078050Y-75511658D01*
X96988342Y-75421950D01*
X96875304Y-75364354D01*
X96875302Y-75364353D01*
X96875301Y-75364353D01*
X96750000Y-75344508D01*
X96624698Y-75364353D01*
X96511656Y-75421951D01*
X96421951Y-75511656D01*
X96364353Y-75624698D01*
X96344508Y-75750000D01*
X96344508Y-75750001D01*
X96346360Y-75761696D01*
X96333137Y-75816768D01*
X96284846Y-75846360D01*
X96261696Y-75846360D01*
X96250002Y-75844508D01*
X96250000Y-75844508D01*
X96124696Y-75864353D01*
X96108094Y-75872813D01*
X96051631Y-75877256D01*
X96008565Y-75840472D01*
X96000500Y-75806878D01*
X96000500Y-75250000D01*
X103844508Y-75250000D01*
X103864353Y-75375301D01*
X103864353Y-75375302D01*
X103864354Y-75375304D01*
X103921950Y-75488342D01*
X104011658Y-75578050D01*
X104124696Y-75635646D01*
X104250000Y-75655492D01*
X104375304Y-75635646D01*
X104488342Y-75578050D01*
X104572674Y-75493718D01*
X104625000Y-75472044D01*
X104677326Y-75493718D01*
X104761658Y-75578050D01*
X104874696Y-75635646D01*
X105000000Y-75655492D01*
X105125304Y-75635646D01*
X105238342Y-75578050D01*
X105328050Y-75488342D01*
X105385646Y-75375304D01*
X105405492Y-75250000D01*
X105385646Y-75124696D01*
X105328050Y-75011658D01*
X105238342Y-74921950D01*
X105125304Y-74864354D01*
X105125302Y-74864353D01*
X105125301Y-74864353D01*
X105000000Y-74844508D01*
X104874698Y-74864353D01*
X104761656Y-74921951D01*
X104677326Y-75006282D01*
X104625000Y-75027956D01*
X104572674Y-75006282D01*
X104488343Y-74921951D01*
X104488342Y-74921950D01*
X104375304Y-74864354D01*
X104375302Y-74864353D01*
X104375301Y-74864353D01*
X104250000Y-74844508D01*
X104124698Y-74864353D01*
X104011656Y-74921951D01*
X103921951Y-75011656D01*
X103864353Y-75124698D01*
X103844508Y-75250000D01*
X96000500Y-75250000D01*
X96000500Y-74693121D01*
X96022174Y-74640795D01*
X96074500Y-74619121D01*
X96108092Y-74627186D01*
X96124696Y-74635646D01*
X96250000Y-74655492D01*
X96261694Y-74653639D01*
X96316765Y-74666859D01*
X96346360Y-74715149D01*
X96346360Y-74738302D01*
X96344508Y-74749997D01*
X96344508Y-74749999D01*
X96364353Y-74875301D01*
X96364353Y-74875302D01*
X96364354Y-74875304D01*
X96421950Y-74988342D01*
X96511658Y-75078050D01*
X96624696Y-75135646D01*
X96750000Y-75155492D01*
X96875304Y-75135646D01*
X96988342Y-75078050D01*
X97078050Y-74988342D01*
X97135646Y-74875304D01*
X97155492Y-74750000D01*
X117844508Y-74750000D01*
X117864353Y-74875301D01*
X117864353Y-74875302D01*
X117864354Y-74875304D01*
X117921950Y-74988342D01*
X118011658Y-75078050D01*
X118124696Y-75135646D01*
X118250000Y-75155492D01*
X118375304Y-75135646D01*
X118488342Y-75078050D01*
X118578050Y-74988342D01*
X118635646Y-74875304D01*
X118655492Y-74750000D01*
X118635646Y-74624696D01*
X118578050Y-74511658D01*
X118488342Y-74421950D01*
X118375304Y-74364354D01*
X118375302Y-74364353D01*
X118375301Y-74364353D01*
X118250000Y-74344508D01*
X118124698Y-74364353D01*
X118011656Y-74421951D01*
X117921951Y-74511656D01*
X117864353Y-74624698D01*
X117844508Y-74750000D01*
X97155492Y-74750000D01*
X97135646Y-74624696D01*
X97078050Y-74511658D01*
X96988342Y-74421950D01*
X96875304Y-74364354D01*
X96875302Y-74364353D01*
X96875301Y-74364353D01*
X96750000Y-74344508D01*
X96749997Y-74344508D01*
X96738302Y-74346360D01*
X96683230Y-74333137D01*
X96653639Y-74284845D01*
X96653639Y-74261696D01*
X96655492Y-74250000D01*
X119094508Y-74250000D01*
X119114353Y-74375301D01*
X119114353Y-74375302D01*
X119114354Y-74375304D01*
X119171950Y-74488342D01*
X119261658Y-74578050D01*
X119374696Y-74635646D01*
X119500000Y-74655492D01*
X119625304Y-74635646D01*
X119738342Y-74578050D01*
X119828050Y-74488342D01*
X119885646Y-74375304D01*
X119905492Y-74250000D01*
X119885646Y-74124696D01*
X119828050Y-74011658D01*
X119738342Y-73921950D01*
X119625304Y-73864354D01*
X119625302Y-73864353D01*
X119625301Y-73864353D01*
X119500000Y-73844508D01*
X119374698Y-73864353D01*
X119261656Y-73921951D01*
X119171951Y-74011656D01*
X119114353Y-74124698D01*
X119094508Y-74250000D01*
X96655492Y-74250000D01*
X96635646Y-74124696D01*
X96578050Y-74011658D01*
X96488342Y-73921950D01*
X96375304Y-73864354D01*
X96375302Y-73864353D01*
X96375301Y-73864353D01*
X96250000Y-73844508D01*
X96124696Y-73864353D01*
X96108094Y-73872813D01*
X96051631Y-73877256D01*
X96008565Y-73840472D01*
X96000500Y-73806878D01*
X96000500Y-73750000D01*
X103844508Y-73750000D01*
X103864353Y-73875301D01*
X103864353Y-73875302D01*
X103864354Y-73875304D01*
X103921950Y-73988342D01*
X104011658Y-74078050D01*
X104124696Y-74135646D01*
X104250000Y-74155492D01*
X104375304Y-74135646D01*
X104488342Y-74078050D01*
X104572674Y-73993718D01*
X104625000Y-73972044D01*
X104677326Y-73993718D01*
X104761658Y-74078050D01*
X104874696Y-74135646D01*
X105000000Y-74155492D01*
X105125304Y-74135646D01*
X105238342Y-74078050D01*
X105328050Y-73988342D01*
X105385646Y-73875304D01*
X105405492Y-73750000D01*
X105385646Y-73624696D01*
X105328050Y-73511658D01*
X105238342Y-73421950D01*
X105125304Y-73364354D01*
X105125302Y-73364353D01*
X105125301Y-73364353D01*
X105000000Y-73344508D01*
X104874698Y-73364353D01*
X104761656Y-73421951D01*
X104677326Y-73506282D01*
X104625000Y-73527956D01*
X104572674Y-73506282D01*
X104488343Y-73421951D01*
X104488342Y-73421950D01*
X104375304Y-73364354D01*
X104375302Y-73364353D01*
X104375301Y-73364353D01*
X104250000Y-73344508D01*
X104124698Y-73364353D01*
X104011656Y-73421951D01*
X103921951Y-73511656D01*
X103864353Y-73624698D01*
X103844508Y-73750000D01*
X96000500Y-73750000D01*
X96000500Y-73693121D01*
X96022174Y-73640795D01*
X96074500Y-73619121D01*
X96108092Y-73627186D01*
X96124696Y-73635646D01*
X96250000Y-73655492D01*
X96375304Y-73635646D01*
X96488342Y-73578050D01*
X96578050Y-73488342D01*
X96635646Y-73375304D01*
X96655492Y-73250000D01*
X117844508Y-73250000D01*
X117864353Y-73375301D01*
X117864353Y-73375302D01*
X117864354Y-73375304D01*
X117921950Y-73488342D01*
X118011658Y-73578050D01*
X118124696Y-73635646D01*
X118250000Y-73655492D01*
X118375304Y-73635646D01*
X118488342Y-73578050D01*
X118578050Y-73488342D01*
X118635646Y-73375304D01*
X118655492Y-73250000D01*
X118635646Y-73124696D01*
X118578050Y-73011658D01*
X118488342Y-72921950D01*
X118375304Y-72864354D01*
X118375302Y-72864353D01*
X118375301Y-72864353D01*
X118250000Y-72844508D01*
X118124698Y-72864353D01*
X118011656Y-72921951D01*
X117921951Y-73011656D01*
X117864353Y-73124698D01*
X117844508Y-73250000D01*
X96655492Y-73250000D01*
X96653639Y-73238303D01*
X96666860Y-73183234D01*
X96715150Y-73153639D01*
X96738301Y-73153639D01*
X96750000Y-73155492D01*
X96875304Y-73135646D01*
X96988342Y-73078050D01*
X97078050Y-72988342D01*
X97135646Y-72875304D01*
X97155492Y-72750000D01*
X119094508Y-72750000D01*
X119114353Y-72875301D01*
X119114353Y-72875302D01*
X119114354Y-72875304D01*
X119171950Y-72988342D01*
X119261658Y-73078050D01*
X119374696Y-73135646D01*
X119500000Y-73155492D01*
X119625304Y-73135646D01*
X119738342Y-73078050D01*
X119828050Y-72988342D01*
X119885646Y-72875304D01*
X119905492Y-72750000D01*
X119885646Y-72624696D01*
X119828050Y-72511658D01*
X119738342Y-72421950D01*
X119625304Y-72364354D01*
X119625302Y-72364353D01*
X119625301Y-72364353D01*
X119500000Y-72344508D01*
X119374698Y-72364353D01*
X119261656Y-72421951D01*
X119171951Y-72511656D01*
X119114353Y-72624698D01*
X119094508Y-72750000D01*
X97155492Y-72750000D01*
X97135646Y-72624696D01*
X97078050Y-72511658D01*
X96988342Y-72421950D01*
X96875304Y-72364354D01*
X96875302Y-72364353D01*
X96875301Y-72364353D01*
X96750000Y-72344508D01*
X96624698Y-72364353D01*
X96511656Y-72421951D01*
X96421951Y-72511656D01*
X96364353Y-72624698D01*
X96344508Y-72750000D01*
X96344508Y-72750001D01*
X96346360Y-72761696D01*
X96333137Y-72816768D01*
X96284846Y-72846360D01*
X96261696Y-72846360D01*
X96250002Y-72844508D01*
X96250000Y-72844508D01*
X96124696Y-72864353D01*
X96108094Y-72872813D01*
X96051631Y-72877256D01*
X96008565Y-72840472D01*
X96000500Y-72806878D01*
X96000500Y-72250000D01*
X103844508Y-72250000D01*
X103864353Y-72375301D01*
X103864353Y-72375302D01*
X103864354Y-72375304D01*
X103921950Y-72488342D01*
X104011658Y-72578050D01*
X104124696Y-72635646D01*
X104250000Y-72655492D01*
X104375304Y-72635646D01*
X104488342Y-72578050D01*
X104572674Y-72493718D01*
X104625000Y-72472044D01*
X104677326Y-72493718D01*
X104761658Y-72578050D01*
X104874696Y-72635646D01*
X105000000Y-72655492D01*
X105125304Y-72635646D01*
X105238342Y-72578050D01*
X105328050Y-72488342D01*
X105385646Y-72375304D01*
X105405492Y-72250000D01*
X105385646Y-72124696D01*
X105328050Y-72011658D01*
X105238342Y-71921950D01*
X105125304Y-71864354D01*
X105125302Y-71864353D01*
X105125301Y-71864353D01*
X105000000Y-71844508D01*
X104874698Y-71864353D01*
X104761656Y-71921951D01*
X104677326Y-72006282D01*
X104625000Y-72027956D01*
X104572674Y-72006282D01*
X104488343Y-71921951D01*
X104488342Y-71921950D01*
X104375304Y-71864354D01*
X104375302Y-71864353D01*
X104375301Y-71864353D01*
X104250000Y-71844508D01*
X104124698Y-71864353D01*
X104011656Y-71921951D01*
X103921951Y-72011656D01*
X103864353Y-72124698D01*
X103844508Y-72250000D01*
X96000500Y-72250000D01*
X96000500Y-71693121D01*
X96022174Y-71640795D01*
X96074500Y-71619121D01*
X96108092Y-71627186D01*
X96124696Y-71635646D01*
X96250000Y-71655492D01*
X96261694Y-71653639D01*
X96316765Y-71666859D01*
X96346360Y-71715149D01*
X96346360Y-71738302D01*
X96344508Y-71749997D01*
X96344508Y-71749999D01*
X96364353Y-71875301D01*
X96364353Y-71875302D01*
X96364354Y-71875304D01*
X96421950Y-71988342D01*
X96511658Y-72078050D01*
X96624696Y-72135646D01*
X96750000Y-72155492D01*
X96875304Y-72135646D01*
X96988342Y-72078050D01*
X97078050Y-71988342D01*
X97135646Y-71875304D01*
X97155492Y-71750000D01*
X117844508Y-71750000D01*
X117864353Y-71875301D01*
X117864353Y-71875302D01*
X117864354Y-71875304D01*
X117921950Y-71988342D01*
X118011658Y-72078050D01*
X118124696Y-72135646D01*
X118250000Y-72155492D01*
X118375304Y-72135646D01*
X118488342Y-72078050D01*
X118578050Y-71988342D01*
X118635646Y-71875304D01*
X118655492Y-71750000D01*
X118635646Y-71624696D01*
X118578050Y-71511658D01*
X118488342Y-71421950D01*
X118375304Y-71364354D01*
X118375302Y-71364353D01*
X118375301Y-71364353D01*
X118250000Y-71344508D01*
X118124698Y-71364353D01*
X118011656Y-71421951D01*
X117921951Y-71511656D01*
X117864353Y-71624698D01*
X117844508Y-71750000D01*
X97155492Y-71750000D01*
X97135646Y-71624696D01*
X97078050Y-71511658D01*
X96988342Y-71421950D01*
X96875304Y-71364354D01*
X96875302Y-71364353D01*
X96875301Y-71364353D01*
X96750000Y-71344508D01*
X96749997Y-71344508D01*
X96738302Y-71346360D01*
X96683230Y-71333137D01*
X96653639Y-71284845D01*
X96653639Y-71261696D01*
X96655492Y-71250000D01*
X119094508Y-71250000D01*
X119114353Y-71375301D01*
X119114353Y-71375302D01*
X119114354Y-71375304D01*
X119171950Y-71488342D01*
X119261658Y-71578050D01*
X119374696Y-71635646D01*
X119500000Y-71655492D01*
X119625304Y-71635646D01*
X119738342Y-71578050D01*
X119828050Y-71488342D01*
X119885646Y-71375304D01*
X119905492Y-71250000D01*
X119885646Y-71124696D01*
X119828050Y-71011658D01*
X119738342Y-70921950D01*
X119625304Y-70864354D01*
X119625302Y-70864353D01*
X119625301Y-70864353D01*
X119500000Y-70844508D01*
X119374698Y-70864353D01*
X119261656Y-70921951D01*
X119171951Y-71011656D01*
X119114353Y-71124698D01*
X119094508Y-71250000D01*
X96655492Y-71250000D01*
X96635646Y-71124696D01*
X96578050Y-71011658D01*
X96488342Y-70921950D01*
X96375304Y-70864354D01*
X96375302Y-70864353D01*
X96375301Y-70864353D01*
X96250000Y-70844508D01*
X96124696Y-70864353D01*
X96108094Y-70872813D01*
X96051631Y-70877256D01*
X96008565Y-70840472D01*
X96000500Y-70806878D01*
X96000500Y-70750000D01*
X103844508Y-70750000D01*
X103864353Y-70875301D01*
X103864353Y-70875302D01*
X103864354Y-70875304D01*
X103921950Y-70988342D01*
X104011658Y-71078050D01*
X104124696Y-71135646D01*
X104250000Y-71155492D01*
X104375304Y-71135646D01*
X104488342Y-71078050D01*
X104572674Y-70993718D01*
X104625000Y-70972044D01*
X104677326Y-70993718D01*
X104761658Y-71078050D01*
X104874696Y-71135646D01*
X105000000Y-71155492D01*
X105125304Y-71135646D01*
X105238342Y-71078050D01*
X105328050Y-70988342D01*
X105385646Y-70875304D01*
X105405492Y-70750000D01*
X105385646Y-70624696D01*
X105328050Y-70511658D01*
X105238342Y-70421950D01*
X105125304Y-70364354D01*
X105125302Y-70364353D01*
X105125301Y-70364353D01*
X105000000Y-70344508D01*
X104874698Y-70364353D01*
X104761656Y-70421951D01*
X104677326Y-70506282D01*
X104625000Y-70527956D01*
X104572674Y-70506282D01*
X104488343Y-70421951D01*
X104488342Y-70421950D01*
X104375304Y-70364354D01*
X104375302Y-70364353D01*
X104375301Y-70364353D01*
X104250000Y-70344508D01*
X104124698Y-70364353D01*
X104011656Y-70421951D01*
X103921951Y-70511656D01*
X103864353Y-70624698D01*
X103844508Y-70750000D01*
X96000500Y-70750000D01*
X96000500Y-70693121D01*
X96022174Y-70640795D01*
X96074500Y-70619121D01*
X96108092Y-70627186D01*
X96124696Y-70635646D01*
X96250000Y-70655492D01*
X96375304Y-70635646D01*
X96488342Y-70578050D01*
X96578050Y-70488342D01*
X96635646Y-70375304D01*
X96655492Y-70250000D01*
X117844508Y-70250000D01*
X117864353Y-70375301D01*
X117864353Y-70375302D01*
X117864354Y-70375304D01*
X117921950Y-70488342D01*
X118011658Y-70578050D01*
X118124696Y-70635646D01*
X118250000Y-70655492D01*
X118375304Y-70635646D01*
X118488342Y-70578050D01*
X118578050Y-70488342D01*
X118635646Y-70375304D01*
X118655492Y-70250000D01*
X118635646Y-70124696D01*
X118578050Y-70011658D01*
X118488342Y-69921950D01*
X118375304Y-69864354D01*
X118375302Y-69864353D01*
X118375301Y-69864353D01*
X118250000Y-69844508D01*
X118124698Y-69864353D01*
X118011656Y-69921951D01*
X117921951Y-70011656D01*
X117864353Y-70124698D01*
X117844508Y-70250000D01*
X96655492Y-70250000D01*
X96653639Y-70238303D01*
X96666860Y-70183234D01*
X96715150Y-70153639D01*
X96738301Y-70153639D01*
X96750000Y-70155492D01*
X96875304Y-70135646D01*
X96988342Y-70078050D01*
X97078050Y-69988342D01*
X97135646Y-69875304D01*
X97155492Y-69750000D01*
X119094508Y-69750000D01*
X119114353Y-69875301D01*
X119114353Y-69875302D01*
X119114354Y-69875304D01*
X119171950Y-69988342D01*
X119261658Y-70078050D01*
X119374696Y-70135646D01*
X119500000Y-70155492D01*
X119625304Y-70135646D01*
X119738342Y-70078050D01*
X119828050Y-69988342D01*
X119885646Y-69875304D01*
X119905492Y-69750000D01*
X119885646Y-69624696D01*
X119828050Y-69511658D01*
X119738342Y-69421950D01*
X119625304Y-69364354D01*
X119625302Y-69364353D01*
X119625301Y-69364353D01*
X119500000Y-69344508D01*
X119374698Y-69364353D01*
X119261656Y-69421951D01*
X119171951Y-69511656D01*
X119114353Y-69624698D01*
X119094508Y-69750000D01*
X97155492Y-69750000D01*
X97135646Y-69624696D01*
X97078050Y-69511658D01*
X96988342Y-69421950D01*
X96875304Y-69364354D01*
X96875302Y-69364353D01*
X96875301Y-69364353D01*
X96750000Y-69344508D01*
X96624698Y-69364353D01*
X96511656Y-69421951D01*
X96421951Y-69511656D01*
X96364353Y-69624698D01*
X96344508Y-69750000D01*
X96344508Y-69750001D01*
X96346360Y-69761696D01*
X96333137Y-69816768D01*
X96284846Y-69846360D01*
X96261696Y-69846360D01*
X96250002Y-69844508D01*
X96250000Y-69844508D01*
X96124696Y-69864353D01*
X96108094Y-69872813D01*
X96051631Y-69877256D01*
X96008565Y-69840472D01*
X96000500Y-69806878D01*
X96000500Y-69250000D01*
X103844508Y-69250000D01*
X103864353Y-69375301D01*
X103864353Y-69375302D01*
X103864354Y-69375304D01*
X103921950Y-69488342D01*
X104011658Y-69578050D01*
X104124696Y-69635646D01*
X104250000Y-69655492D01*
X104375304Y-69635646D01*
X104488342Y-69578050D01*
X104572674Y-69493718D01*
X104625000Y-69472044D01*
X104677326Y-69493718D01*
X104761658Y-69578050D01*
X104874696Y-69635646D01*
X105000000Y-69655492D01*
X105125304Y-69635646D01*
X105238342Y-69578050D01*
X105328050Y-69488342D01*
X105385646Y-69375304D01*
X105405492Y-69250000D01*
X105385646Y-69124696D01*
X105328050Y-69011658D01*
X105238342Y-68921950D01*
X105125304Y-68864354D01*
X105125302Y-68864353D01*
X105125301Y-68864353D01*
X105000000Y-68844508D01*
X104874698Y-68864353D01*
X104761656Y-68921951D01*
X104677326Y-69006282D01*
X104625000Y-69027956D01*
X104572674Y-69006282D01*
X104488343Y-68921951D01*
X104488342Y-68921950D01*
X104375304Y-68864354D01*
X104375302Y-68864353D01*
X104375301Y-68864353D01*
X104250000Y-68844508D01*
X104124698Y-68864353D01*
X104011656Y-68921951D01*
X103921951Y-69011656D01*
X103864353Y-69124698D01*
X103844508Y-69250000D01*
X96000500Y-69250000D01*
X96000500Y-68693121D01*
X96022174Y-68640795D01*
X96074500Y-68619121D01*
X96108092Y-68627186D01*
X96124696Y-68635646D01*
X96250000Y-68655492D01*
X96261694Y-68653639D01*
X96316765Y-68666859D01*
X96346360Y-68715149D01*
X96346360Y-68738302D01*
X96344508Y-68749997D01*
X96344508Y-68749999D01*
X96364353Y-68875301D01*
X96364353Y-68875302D01*
X96364354Y-68875304D01*
X96421950Y-68988342D01*
X96511658Y-69078050D01*
X96624696Y-69135646D01*
X96750000Y-69155492D01*
X96875304Y-69135646D01*
X96988342Y-69078050D01*
X97078050Y-68988342D01*
X97135646Y-68875304D01*
X97155492Y-68750000D01*
X117844508Y-68750000D01*
X117864353Y-68875301D01*
X117864353Y-68875302D01*
X117864354Y-68875304D01*
X117921950Y-68988342D01*
X118011658Y-69078050D01*
X118124696Y-69135646D01*
X118250000Y-69155492D01*
X118375304Y-69135646D01*
X118488342Y-69078050D01*
X118578050Y-68988342D01*
X118635646Y-68875304D01*
X118655492Y-68750000D01*
X118635646Y-68624696D01*
X118578050Y-68511658D01*
X118488342Y-68421950D01*
X118375304Y-68364354D01*
X118375302Y-68364353D01*
X118375301Y-68364353D01*
X118250000Y-68344508D01*
X118124698Y-68364353D01*
X118011656Y-68421951D01*
X117921951Y-68511656D01*
X117864353Y-68624698D01*
X117844508Y-68750000D01*
X97155492Y-68750000D01*
X97135646Y-68624696D01*
X97078050Y-68511658D01*
X96988342Y-68421950D01*
X96875304Y-68364354D01*
X96875302Y-68364353D01*
X96875301Y-68364353D01*
X96750000Y-68344508D01*
X96749997Y-68344508D01*
X96738302Y-68346360D01*
X96683230Y-68333137D01*
X96653639Y-68284845D01*
X96653639Y-68261696D01*
X96655492Y-68250000D01*
X119094508Y-68250000D01*
X119114353Y-68375301D01*
X119114353Y-68375302D01*
X119114354Y-68375304D01*
X119171950Y-68488342D01*
X119261658Y-68578050D01*
X119374696Y-68635646D01*
X119500000Y-68655492D01*
X119625304Y-68635646D01*
X119738342Y-68578050D01*
X119828050Y-68488342D01*
X119885646Y-68375304D01*
X119905492Y-68250000D01*
X119885646Y-68124696D01*
X119828050Y-68011658D01*
X119738342Y-67921950D01*
X119625304Y-67864354D01*
X119625302Y-67864353D01*
X119625301Y-67864353D01*
X119500000Y-67844508D01*
X119374698Y-67864353D01*
X119261656Y-67921951D01*
X119171951Y-68011656D01*
X119114353Y-68124698D01*
X119094508Y-68250000D01*
X96655492Y-68250000D01*
X96635646Y-68124696D01*
X96578050Y-68011658D01*
X96488342Y-67921950D01*
X96375304Y-67864354D01*
X96375302Y-67864353D01*
X96375301Y-67864353D01*
X96250000Y-67844508D01*
X96124696Y-67864353D01*
X96108094Y-67872813D01*
X96051631Y-67877256D01*
X96008565Y-67840472D01*
X96000500Y-67806878D01*
X96000500Y-67750000D01*
X104594508Y-67750000D01*
X104614353Y-67875301D01*
X104614353Y-67875302D01*
X104614354Y-67875304D01*
X104671950Y-67988342D01*
X104761658Y-68078050D01*
X104874696Y-68135646D01*
X105000000Y-68155492D01*
X105125304Y-68135646D01*
X105238342Y-68078050D01*
X105328050Y-67988342D01*
X105385646Y-67875304D01*
X105405492Y-67750000D01*
X105385646Y-67624696D01*
X105328050Y-67511658D01*
X105238342Y-67421950D01*
X105125304Y-67364354D01*
X105125302Y-67364353D01*
X105125301Y-67364353D01*
X105000000Y-67344508D01*
X104874698Y-67364353D01*
X104761656Y-67421951D01*
X104671951Y-67511656D01*
X104614353Y-67624698D01*
X104594508Y-67750000D01*
X96000500Y-67750000D01*
X96000500Y-66869185D01*
X100724500Y-66869185D01*
X100760310Y-67002831D01*
X100760312Y-67002836D01*
X100829495Y-67122665D01*
X100927335Y-67220505D01*
X101047164Y-67289688D01*
X101180814Y-67325499D01*
X101180815Y-67325500D01*
X101180817Y-67325500D01*
X101319185Y-67325500D01*
X101319185Y-67325499D01*
X101452836Y-67289688D01*
X101572665Y-67220505D01*
X101670505Y-67122665D01*
X101739688Y-67002836D01*
X101775499Y-66869185D01*
X101775500Y-66869185D01*
X124724500Y-66869185D01*
X124760310Y-67002831D01*
X124760312Y-67002836D01*
X124829495Y-67122665D01*
X124927335Y-67220505D01*
X125047164Y-67289688D01*
X125180814Y-67325499D01*
X125180815Y-67325500D01*
X125180817Y-67325500D01*
X125319185Y-67325500D01*
X125319185Y-67325499D01*
X125452836Y-67289688D01*
X125572665Y-67220505D01*
X125670505Y-67122665D01*
X125739688Y-67002836D01*
X125775499Y-66869185D01*
X125775500Y-66869185D01*
X125775500Y-66730815D01*
X125775499Y-66730814D01*
X125739689Y-66597168D01*
X125739688Y-66597164D01*
X125670505Y-66477335D01*
X125572665Y-66379495D01*
X125452836Y-66310312D01*
X125452831Y-66310310D01*
X125319185Y-66274500D01*
X125319183Y-66274500D01*
X125180817Y-66274500D01*
X125180815Y-66274500D01*
X125047168Y-66310310D01*
X125047163Y-66310312D01*
X124927334Y-66379495D01*
X124829495Y-66477334D01*
X124760312Y-66597163D01*
X124760310Y-66597168D01*
X124724500Y-66730814D01*
X124724500Y-66869185D01*
X101775500Y-66869185D01*
X101775500Y-66730815D01*
X101775499Y-66730814D01*
X101739689Y-66597168D01*
X101739688Y-66597164D01*
X101670505Y-66477335D01*
X101572665Y-66379495D01*
X101452836Y-66310312D01*
X101452831Y-66310310D01*
X101319185Y-66274500D01*
X101319183Y-66274500D01*
X101180817Y-66274500D01*
X101180815Y-66274500D01*
X101047168Y-66310310D01*
X101047163Y-66310312D01*
X100927334Y-66379495D01*
X100829495Y-66477334D01*
X100760312Y-66597163D01*
X100760310Y-66597168D01*
X100724500Y-66730814D01*
X100724500Y-66869185D01*
X96000500Y-66869185D01*
X96000500Y-63502636D01*
X96000689Y-63497357D01*
X96015385Y-63291882D01*
X96016887Y-63281432D01*
X96016994Y-63280937D01*
X96060118Y-63082699D01*
X96063084Y-63072596D01*
X96134163Y-62882028D01*
X96138538Y-62872449D01*
X96236004Y-62693953D01*
X96241705Y-62685080D01*
X96363589Y-62522263D01*
X96370489Y-62514300D01*
X96514300Y-62370489D01*
X96522263Y-62363589D01*
X96685080Y-62241705D01*
X96693953Y-62236004D01*
X96872449Y-62138538D01*
X96882028Y-62134163D01*
X97072596Y-62063084D01*
X97082699Y-62060118D01*
X97281432Y-62016887D01*
X97291879Y-62015385D01*
X97497357Y-62000688D01*
X97502636Y-62000500D01*
X97565892Y-62000500D01*
X126434108Y-62000500D01*
X126497364Y-62000500D01*
X126502642Y-62000688D01*
G37*
%TD.AperFunction*%
%TD*%
M02*
