M48
; DRILL file {KiCad 8.0.1} date 2026-01-16T21:23:48-0500
; FORMAT={-:-/ absolute / inch / decimal}
; #@! TF.CreationDate,2026-01-16T21:23:48-05:00
; #@! TF.GenerationSoftware,Kicad,Pcbnew,8.0.1
; #@! TF.FileFunction,Plated,1,4,PTH
FMAT,2
INCH
; #@! TA.AperFunction,Plated,PTH,ViaDrill
T1C0.0079
%
G90
G05
T1
X3.7894Y-2.687
X3.7894Y-2.7264
X3.7894Y-2.7657
X3.7894Y-2.8051
X3.7894Y-2.8445
X3.7894Y-2.8839
X3.7894Y-2.9232
X3.7894Y-2.9626
X3.7894Y-3.002
X3.7894Y-3.0413
X3.7894Y-3.0807
X3.7894Y-3.1201
X3.7894Y-3.1594
X3.7894Y-3.1988
X3.7894Y-3.2382
X3.7894Y-3.2776
X3.7894Y-3.3169
X3.7894Y-3.3563
X3.7894Y-3.3957
X3.7894Y-3.435
X3.7894Y-3.4744
X3.7894Y-3.5138
X3.7972Y-3.5886
X3.7972Y-3.6142
X3.7972Y-3.6398
X3.7972Y-3.6654
X3.7972Y-3.6909
X3.7972Y-3.7165
X3.8091Y-2.6673
X3.8091Y-2.7067
X3.8091Y-2.7461
X3.8091Y-2.7854
X3.8091Y-2.8248
X3.8091Y-2.8642
X3.8091Y-2.9035
X3.8091Y-2.9429
X3.8091Y-2.9823
X3.8091Y-3.0217
X3.8091Y-3.061
X3.8091Y-3.1004
X3.8091Y-3.1398
X3.8091Y-3.1791
X3.8091Y-3.2185
X3.8091Y-3.2579
X3.8091Y-3.2972
X3.8091Y-3.3366
X3.8091Y-3.376
X3.8091Y-3.4154
X3.8091Y-3.4547
X3.8091Y-3.4941
X3.8091Y-3.5335
X4.064Y-3.4547
X4.064Y-3.4941
X4.065Y-2.6673
X4.065Y-2.7264
X4.065Y-2.7854
X4.065Y-2.8445
X4.065Y-2.9035
X4.065Y-2.9626
X4.065Y-3.0217
X4.065Y-3.0807
X4.065Y-3.1398
X4.065Y-3.1988
X4.065Y-3.2579
X4.065Y-3.3169
X4.065Y-3.376
X4.065Y-3.4154
X4.065Y-3.5335
X4.0787Y-3.5886
X4.0787Y-3.6142
X4.0787Y-3.6398
X4.0787Y-3.6654
X4.0787Y-3.6909
X4.0787Y-3.7165
X4.0787Y-3.7421
X4.0837Y-3.435
X4.0837Y-3.4744
X4.0837Y-3.5138
X4.1043Y-2.7264
X4.1043Y-2.7854
X4.1043Y-2.8445
X4.1043Y-2.9035
X4.1043Y-2.9626
X4.1043Y-3.0217
X4.1043Y-3.0807
X4.1043Y-3.1398
X4.1043Y-3.1988
X4.1043Y-3.2579
X4.1043Y-3.3169
X4.1043Y-3.376
X4.1339Y-2.6673
X4.1339Y-2.7264
X4.1339Y-2.7854
X4.1339Y-2.8445
X4.1339Y-2.9035
X4.1339Y-2.9626
X4.1339Y-3.0217
X4.1339Y-3.0807
X4.1339Y-3.1398
X4.1339Y-3.1988
X4.1339Y-3.2579
X4.1339Y-3.3169
X4.1339Y-3.376
X4.1633Y-3.2576
X4.1633Y-3.14
X4.1634Y-2.6673
X4.1634Y-2.7264
X4.1634Y-2.7854
X4.1634Y-2.8445
X4.1634Y-2.9035
X4.1634Y-2.9626
X4.1634Y-3.0217
X4.1634Y-3.0807
X4.1634Y-3.1988
X4.1634Y-3.3169
X4.1634Y-3.376
X4.1634Y-3.4154
X4.2362Y-3.5886
X4.2362Y-3.6654
X4.2362Y-3.7421
X4.3975Y-3.2576
X4.3975Y-3.14
X4.3976Y-2.6673
X4.3976Y-2.7264
X4.3976Y-2.7854
X4.3976Y-2.8445
X4.3976Y-2.9035
X4.3976Y-2.9626
X4.3976Y-3.0217
X4.3976Y-3.0807
X4.3976Y-3.1988
X4.3976Y-3.3169
X4.3976Y-3.376
X4.3976Y-3.4154
X4.3976Y-3.5886
X4.3976Y-3.6654
X4.3976Y-3.7421
X4.5689Y-3.5886
X4.5689Y-3.6654
X4.5689Y-3.7421
X4.616Y-3.2576
X4.616Y-3.14
X4.6161Y-2.6673
X4.6161Y-2.7264
X4.6161Y-2.7854
X4.6161Y-2.8445
X4.6161Y-2.9035
X4.6161Y-2.9626
X4.6161Y-3.0217
X4.6161Y-3.0807
X4.6161Y-3.1988
X4.6161Y-3.3169
X4.6161Y-3.376
X4.6161Y-3.4154
X4.6555Y-2.7067
X4.6555Y-2.7657
X4.6555Y-2.8248
X4.6555Y-2.8839
X4.6555Y-2.9429
X4.6555Y-3.002
X4.6555Y-3.061
X4.6555Y-3.1201
X4.6555Y-3.1791
X4.6555Y-3.2382
X4.6555Y-3.2972
X4.6555Y-3.3563
X4.7047Y-2.687
X4.7047Y-2.7461
X4.7047Y-2.8051
X4.7047Y-2.8642
X4.7047Y-2.9232
X4.7047Y-2.9823
X4.7047Y-3.0413
X4.7047Y-3.1004
X4.7047Y-3.1594
X4.7047Y-3.2185
X4.7047Y-3.2776
X4.7047Y-3.3366
X4.7047Y-3.3957
X4.7333Y-3.435
X4.7333Y-3.4744
X4.7333Y-3.5138
X4.7402Y-3.5886
X4.7402Y-3.6142
X4.7402Y-3.6398
X4.7402Y-3.6654
X4.7402Y-3.6909
X4.7402Y-3.7165
X4.7402Y-3.7421
X4.753Y-3.4547
X4.753Y-3.4941
X4.7539Y-2.6673
X4.7539Y-2.7264
X4.7539Y-2.7854
X4.7539Y-2.8445
X4.7539Y-2.9035
X4.7539Y-2.9626
X4.7539Y-3.0217
X4.7539Y-3.0807
X4.7539Y-3.1398
X4.7539Y-3.1988
X4.7539Y-3.2579
X4.7539Y-3.3169
X4.7539Y-3.376
X4.7539Y-3.4154
X4.7539Y-3.5335
X5.0098Y-2.6673
X5.0098Y-2.7067
X5.0098Y-2.7461
X5.0098Y-2.7854
X5.0098Y-2.8248
X5.0098Y-2.8642
X5.0098Y-2.9035
X5.0098Y-2.9429
X5.0098Y-2.9823
X5.0098Y-3.0217
X5.0098Y-3.061
X5.0098Y-3.1004
X5.0098Y-3.1398
X5.0098Y-3.1791
X5.0098Y-3.2185
X5.0098Y-3.2579
X5.0098Y-3.2972
X5.0098Y-3.3366
X5.0098Y-3.376
X5.0098Y-3.4154
X5.0098Y-3.4547
X5.0098Y-3.4941
X5.0098Y-3.5335
X5.0217Y-3.5886
X5.0217Y-3.6142
X5.0217Y-3.6398
X5.0217Y-3.6654
X5.0217Y-3.6909
X5.0217Y-3.7165
X5.0295Y-2.687
X5.0295Y-2.7264
X5.0295Y-2.7657
X5.0295Y-2.8051
X5.0295Y-2.8445
X5.0295Y-2.8839
X5.0295Y-2.9232
X5.0295Y-2.9626
X5.0295Y-3.002
X5.0295Y-3.0413
X5.0295Y-3.0807
X5.0295Y-3.1201
X5.0295Y-3.1594
X5.0295Y-3.1988
X5.0295Y-3.2382
X5.0295Y-3.2776
X5.0295Y-3.3169
X5.0295Y-3.3563
X5.0295Y-3.3957
X5.0295Y-3.435
X5.0295Y-3.4744
X5.0295Y-3.5138
M30
