%TF.GenerationSoftware,KiCad,Pcbnew,8.0.1*%
%TF.CreationDate,2026-01-16T21:23:44-05:00*%
%TF.ProjectId,Mezzanine jumper,4d657a7a-616e-4696-9e65-206a756d7065,rev?*%
%TF.SameCoordinates,Original*%
%TF.FileFunction,Legend,Bot*%
%TF.FilePolarity,Positive*%
%FSLAX46Y46*%
G04 Gerber Fmt 4.6, Leading zero omitted, Abs format (unit mm)*
G04 Created by KiCad (PCBNEW 8.0.1) date 2026-01-16 21:23:44*
%MOMM*%
%LPD*%
G01*
G04 APERTURE LIST*
%ADD10C,0.500000*%
%ADD11C,0.300000*%
%ADD12C,0.200000*%
%ADD13C,0.150000*%
%ADD14C,0.006250*%
%ADD15C,0.010000*%
G04 APERTURE END LIST*
D10*
X112011625Y-79979890D02*
X112011625Y-75729890D01*
X113764213Y-77477636D02*
X112014213Y-75727636D01*
X112011625Y-75729890D02*
X110261625Y-77479890D01*
D11*
X124726441Y-86889638D02*
X124726441Y-84889638D01*
X124726441Y-84889638D02*
X124059774Y-86318209D01*
X124059774Y-86318209D02*
X123393108Y-84889638D01*
X123393108Y-84889638D02*
X123393108Y-86889638D01*
X121869298Y-84889638D02*
X121869298Y-86318209D01*
X121869298Y-86318209D02*
X121964537Y-86603923D01*
X121964537Y-86603923D02*
X122155013Y-86794400D01*
X122155013Y-86794400D02*
X122440727Y-86889638D01*
X122440727Y-86889638D02*
X122631203Y-86889638D01*
X120916917Y-86127733D02*
X119393108Y-86127733D01*
X117393108Y-86889638D02*
X118535965Y-86889638D01*
X117964537Y-86889638D02*
X117964537Y-84889638D01*
X117964537Y-84889638D02*
X118155013Y-85175352D01*
X118155013Y-85175352D02*
X118345489Y-85365828D01*
X118345489Y-85365828D02*
X118535965Y-85461066D01*
D12*
X123904136Y-89356028D02*
X124404136Y-88641742D01*
X124761279Y-89356028D02*
X124761279Y-87856028D01*
X124761279Y-87856028D02*
X124189850Y-87856028D01*
X124189850Y-87856028D02*
X124046993Y-87927457D01*
X124046993Y-87927457D02*
X123975564Y-87998885D01*
X123975564Y-87998885D02*
X123904136Y-88141742D01*
X123904136Y-88141742D02*
X123904136Y-88356028D01*
X123904136Y-88356028D02*
X123975564Y-88498885D01*
X123975564Y-88498885D02*
X124046993Y-88570314D01*
X124046993Y-88570314D02*
X124189850Y-88641742D01*
X124189850Y-88641742D02*
X124761279Y-88641742D01*
X123261279Y-88570314D02*
X122761279Y-88570314D01*
X122546993Y-89356028D02*
X123261279Y-89356028D01*
X123261279Y-89356028D02*
X123261279Y-87856028D01*
X123261279Y-87856028D02*
X122546993Y-87856028D01*
X122118421Y-87856028D02*
X121618421Y-89356028D01*
X121618421Y-89356028D02*
X121118421Y-87856028D01*
X119189850Y-87856028D02*
X119046993Y-87856028D01*
X119046993Y-87856028D02*
X118904136Y-87927457D01*
X118904136Y-87927457D02*
X118832708Y-87998885D01*
X118832708Y-87998885D02*
X118761279Y-88141742D01*
X118761279Y-88141742D02*
X118689850Y-88427457D01*
X118689850Y-88427457D02*
X118689850Y-88784600D01*
X118689850Y-88784600D02*
X118761279Y-89070314D01*
X118761279Y-89070314D02*
X118832708Y-89213171D01*
X118832708Y-89213171D02*
X118904136Y-89284600D01*
X118904136Y-89284600D02*
X119046993Y-89356028D01*
X119046993Y-89356028D02*
X119189850Y-89356028D01*
X119189850Y-89356028D02*
X119332708Y-89284600D01*
X119332708Y-89284600D02*
X119404136Y-89213171D01*
X119404136Y-89213171D02*
X119475565Y-89070314D01*
X119475565Y-89070314D02*
X119546993Y-88784600D01*
X119546993Y-88784600D02*
X119546993Y-88427457D01*
X119546993Y-88427457D02*
X119475565Y-88141742D01*
X119475565Y-88141742D02*
X119404136Y-87998885D01*
X119404136Y-87998885D02*
X119332708Y-87927457D01*
X119332708Y-87927457D02*
X119189850Y-87856028D01*
X118046994Y-89213171D02*
X117975565Y-89284600D01*
X117975565Y-89284600D02*
X118046994Y-89356028D01*
X118046994Y-89356028D02*
X118118422Y-89284600D01*
X118118422Y-89284600D02*
X118046994Y-89213171D01*
X118046994Y-89213171D02*
X118046994Y-89356028D01*
X116546993Y-89356028D02*
X117404136Y-89356028D01*
X116975565Y-89356028D02*
X116975565Y-87856028D01*
X116975565Y-87856028D02*
X117118422Y-88070314D01*
X117118422Y-88070314D02*
X117261279Y-88213171D01*
X117261279Y-88213171D02*
X117404136Y-88284600D01*
D10*
X114218392Y-81086747D02*
X114218392Y-83515318D01*
X114218392Y-83515318D02*
X114075535Y-83801032D01*
X114075535Y-83801032D02*
X113932678Y-83943890D01*
X113932678Y-83943890D02*
X113646963Y-84086747D01*
X113646963Y-84086747D02*
X113075535Y-84086747D01*
X113075535Y-84086747D02*
X112789820Y-83943890D01*
X112789820Y-83943890D02*
X112646963Y-83801032D01*
X112646963Y-83801032D02*
X112504106Y-83515318D01*
X112504106Y-83515318D02*
X112504106Y-81086747D01*
X111075535Y-84086747D02*
X111075535Y-81086747D01*
X111075535Y-81086747D02*
X109932678Y-81086747D01*
X109932678Y-81086747D02*
X109646963Y-81229604D01*
X109646963Y-81229604D02*
X109504106Y-81372461D01*
X109504106Y-81372461D02*
X109361249Y-81658175D01*
X109361249Y-81658175D02*
X109361249Y-82086747D01*
X109361249Y-82086747D02*
X109504106Y-82372461D01*
X109504106Y-82372461D02*
X109646963Y-82515318D01*
X109646963Y-82515318D02*
X109932678Y-82658175D01*
X109932678Y-82658175D02*
X111075535Y-82658175D01*
D13*
X124234649Y-94322200D02*
X124329887Y-94369819D01*
X124329887Y-94369819D02*
X124520363Y-94369819D01*
X124520363Y-94369819D02*
X124615601Y-94322200D01*
X124615601Y-94322200D02*
X124663220Y-94274580D01*
X124663220Y-94274580D02*
X124710839Y-94179342D01*
X124710839Y-94179342D02*
X124710839Y-93893628D01*
X124710839Y-93893628D02*
X124663220Y-93798390D01*
X124663220Y-93798390D02*
X124615601Y-93750771D01*
X124615601Y-93750771D02*
X124520363Y-93703152D01*
X124520363Y-93703152D02*
X124329887Y-93703152D01*
X124329887Y-93703152D02*
X124234649Y-93750771D01*
X123663220Y-94369819D02*
X123758458Y-94322200D01*
X123758458Y-94322200D02*
X123806077Y-94274580D01*
X123806077Y-94274580D02*
X123853696Y-94179342D01*
X123853696Y-94179342D02*
X123853696Y-93893628D01*
X123853696Y-93893628D02*
X123806077Y-93798390D01*
X123806077Y-93798390D02*
X123758458Y-93750771D01*
X123758458Y-93750771D02*
X123663220Y-93703152D01*
X123663220Y-93703152D02*
X123520363Y-93703152D01*
X123520363Y-93703152D02*
X123425125Y-93750771D01*
X123425125Y-93750771D02*
X123377506Y-93798390D01*
X123377506Y-93798390D02*
X123329887Y-93893628D01*
X123329887Y-93893628D02*
X123329887Y-94179342D01*
X123329887Y-94179342D02*
X123377506Y-94274580D01*
X123377506Y-94274580D02*
X123425125Y-94322200D01*
X123425125Y-94322200D02*
X123520363Y-94369819D01*
X123520363Y-94369819D02*
X123663220Y-94369819D01*
X122901315Y-94369819D02*
X122901315Y-93703152D01*
X122901315Y-93798390D02*
X122853696Y-93750771D01*
X122853696Y-93750771D02*
X122758458Y-93703152D01*
X122758458Y-93703152D02*
X122615601Y-93703152D01*
X122615601Y-93703152D02*
X122520363Y-93750771D01*
X122520363Y-93750771D02*
X122472744Y-93846009D01*
X122472744Y-93846009D02*
X122472744Y-94369819D01*
X122472744Y-93846009D02*
X122425125Y-93750771D01*
X122425125Y-93750771D02*
X122329887Y-93703152D01*
X122329887Y-93703152D02*
X122187030Y-93703152D01*
X122187030Y-93703152D02*
X122091791Y-93750771D01*
X122091791Y-93750771D02*
X122044172Y-93846009D01*
X122044172Y-93846009D02*
X122044172Y-94369819D01*
X121567982Y-94369819D02*
X121567982Y-93703152D01*
X121567982Y-93798390D02*
X121520363Y-93750771D01*
X121520363Y-93750771D02*
X121425125Y-93703152D01*
X121425125Y-93703152D02*
X121282268Y-93703152D01*
X121282268Y-93703152D02*
X121187030Y-93750771D01*
X121187030Y-93750771D02*
X121139411Y-93846009D01*
X121139411Y-93846009D02*
X121139411Y-94369819D01*
X121139411Y-93846009D02*
X121091792Y-93750771D01*
X121091792Y-93750771D02*
X120996554Y-93703152D01*
X120996554Y-93703152D02*
X120853697Y-93703152D01*
X120853697Y-93703152D02*
X120758458Y-93750771D01*
X120758458Y-93750771D02*
X120710839Y-93846009D01*
X120710839Y-93846009D02*
X120710839Y-94369819D01*
X120234649Y-94369819D02*
X120234649Y-93703152D01*
X120234649Y-93369819D02*
X120282268Y-93417438D01*
X120282268Y-93417438D02*
X120234649Y-93465057D01*
X120234649Y-93465057D02*
X120187030Y-93417438D01*
X120187030Y-93417438D02*
X120234649Y-93369819D01*
X120234649Y-93369819D02*
X120234649Y-93465057D01*
X119901316Y-93703152D02*
X119520364Y-93703152D01*
X119758459Y-93369819D02*
X119758459Y-94226961D01*
X119758459Y-94226961D02*
X119710840Y-94322200D01*
X119710840Y-94322200D02*
X119615602Y-94369819D01*
X119615602Y-94369819D02*
X119520364Y-94369819D01*
X119187030Y-94274580D02*
X119139411Y-94322200D01*
X119139411Y-94322200D02*
X119187030Y-94369819D01*
X119187030Y-94369819D02*
X119234649Y-94322200D01*
X119234649Y-94322200D02*
X119187030Y-94274580D01*
X119187030Y-94274580D02*
X119187030Y-94369819D01*
X119187030Y-93750771D02*
X119139411Y-93798390D01*
X119139411Y-93798390D02*
X119187030Y-93846009D01*
X119187030Y-93846009D02*
X119234649Y-93798390D01*
X119234649Y-93798390D02*
X119187030Y-93750771D01*
X119187030Y-93750771D02*
X119187030Y-93846009D01*
X118044173Y-93369819D02*
X117377507Y-93369819D01*
X117377507Y-93369819D02*
X117806078Y-94369819D01*
X116567983Y-94369819D02*
X116567983Y-93846009D01*
X116567983Y-93846009D02*
X116615602Y-93750771D01*
X116615602Y-93750771D02*
X116710840Y-93703152D01*
X116710840Y-93703152D02*
X116901316Y-93703152D01*
X116901316Y-93703152D02*
X116996554Y-93750771D01*
X116567983Y-94322200D02*
X116663221Y-94369819D01*
X116663221Y-94369819D02*
X116901316Y-94369819D01*
X116901316Y-94369819D02*
X116996554Y-94322200D01*
X116996554Y-94322200D02*
X117044173Y-94226961D01*
X117044173Y-94226961D02*
X117044173Y-94131723D01*
X117044173Y-94131723D02*
X116996554Y-94036485D01*
X116996554Y-94036485D02*
X116901316Y-93988866D01*
X116901316Y-93988866D02*
X116663221Y-93988866D01*
X116663221Y-93988866D02*
X116567983Y-93941247D01*
X115948935Y-93798390D02*
X116044173Y-93750771D01*
X116044173Y-93750771D02*
X116091792Y-93703152D01*
X116091792Y-93703152D02*
X116139411Y-93607914D01*
X116139411Y-93607914D02*
X116139411Y-93560295D01*
X116139411Y-93560295D02*
X116091792Y-93465057D01*
X116091792Y-93465057D02*
X116044173Y-93417438D01*
X116044173Y-93417438D02*
X115948935Y-93369819D01*
X115948935Y-93369819D02*
X115758459Y-93369819D01*
X115758459Y-93369819D02*
X115663221Y-93417438D01*
X115663221Y-93417438D02*
X115615602Y-93465057D01*
X115615602Y-93465057D02*
X115567983Y-93560295D01*
X115567983Y-93560295D02*
X115567983Y-93607914D01*
X115567983Y-93607914D02*
X115615602Y-93703152D01*
X115615602Y-93703152D02*
X115663221Y-93750771D01*
X115663221Y-93750771D02*
X115758459Y-93798390D01*
X115758459Y-93798390D02*
X115948935Y-93798390D01*
X115948935Y-93798390D02*
X116044173Y-93846009D01*
X116044173Y-93846009D02*
X116091792Y-93893628D01*
X116091792Y-93893628D02*
X116139411Y-93988866D01*
X116139411Y-93988866D02*
X116139411Y-94179342D01*
X116139411Y-94179342D02*
X116091792Y-94274580D01*
X116091792Y-94274580D02*
X116044173Y-94322200D01*
X116044173Y-94322200D02*
X115948935Y-94369819D01*
X115948935Y-94369819D02*
X115758459Y-94369819D01*
X115758459Y-94369819D02*
X115663221Y-94322200D01*
X115663221Y-94322200D02*
X115615602Y-94274580D01*
X115615602Y-94274580D02*
X115567983Y-94179342D01*
X115567983Y-94179342D02*
X115567983Y-93988866D01*
X115567983Y-93988866D02*
X115615602Y-93893628D01*
X115615602Y-93893628D02*
X115663221Y-93846009D01*
X115663221Y-93846009D02*
X115758459Y-93798390D01*
X114710840Y-93703152D02*
X114710840Y-94369819D01*
X114948935Y-93322200D02*
X115187030Y-94036485D01*
X115187030Y-94036485D02*
X114567983Y-94036485D01*
X113663221Y-94369819D02*
X114234649Y-94369819D01*
X113948935Y-94369819D02*
X113948935Y-93369819D01*
X113948935Y-93369819D02*
X114044173Y-93512676D01*
X114044173Y-93512676D02*
X114139411Y-93607914D01*
X114139411Y-93607914D02*
X114234649Y-93655533D01*
X113234649Y-94369819D02*
X113234649Y-93369819D01*
X113234649Y-93750771D02*
X113139411Y-93703152D01*
X113139411Y-93703152D02*
X112948935Y-93703152D01*
X112948935Y-93703152D02*
X112853697Y-93750771D01*
X112853697Y-93750771D02*
X112806078Y-93798390D01*
X112806078Y-93798390D02*
X112758459Y-93893628D01*
X112758459Y-93893628D02*
X112758459Y-94179342D01*
X112758459Y-94179342D02*
X112806078Y-94274580D01*
X112806078Y-94274580D02*
X112853697Y-94322200D01*
X112853697Y-94322200D02*
X112948935Y-94369819D01*
X112948935Y-94369819D02*
X113139411Y-94369819D01*
X113139411Y-94369819D02*
X113234649Y-94322200D01*
X111901316Y-94369819D02*
X111901316Y-93369819D01*
X111901316Y-94322200D02*
X111996554Y-94369819D01*
X111996554Y-94369819D02*
X112187030Y-94369819D01*
X112187030Y-94369819D02*
X112282268Y-94322200D01*
X112282268Y-94322200D02*
X112329887Y-94274580D01*
X112329887Y-94274580D02*
X112377506Y-94179342D01*
X112377506Y-94179342D02*
X112377506Y-93893628D01*
X112377506Y-93893628D02*
X112329887Y-93798390D01*
X112329887Y-93798390D02*
X112282268Y-93750771D01*
X112282268Y-93750771D02*
X112187030Y-93703152D01*
X112187030Y-93703152D02*
X111996554Y-93703152D01*
X111996554Y-93703152D02*
X111901316Y-93750771D01*
X124234649Y-90393208D02*
X124234649Y-91202732D01*
X124234649Y-91202732D02*
X124282268Y-91297970D01*
X124282268Y-91297970D02*
X124329887Y-91345589D01*
X124329887Y-91345589D02*
X124425125Y-91393208D01*
X124425125Y-91393208D02*
X124567982Y-91393208D01*
X124567982Y-91393208D02*
X124663220Y-91345589D01*
X124234649Y-91012256D02*
X124329887Y-91059875D01*
X124329887Y-91059875D02*
X124520363Y-91059875D01*
X124520363Y-91059875D02*
X124615601Y-91012256D01*
X124615601Y-91012256D02*
X124663220Y-90964636D01*
X124663220Y-90964636D02*
X124710839Y-90869398D01*
X124710839Y-90869398D02*
X124710839Y-90583684D01*
X124710839Y-90583684D02*
X124663220Y-90488446D01*
X124663220Y-90488446D02*
X124615601Y-90440827D01*
X124615601Y-90440827D02*
X124520363Y-90393208D01*
X124520363Y-90393208D02*
X124329887Y-90393208D01*
X124329887Y-90393208D02*
X124234649Y-90440827D01*
X123758458Y-91059875D02*
X123758458Y-90393208D01*
X123758458Y-90059875D02*
X123806077Y-90107494D01*
X123806077Y-90107494D02*
X123758458Y-90155113D01*
X123758458Y-90155113D02*
X123710839Y-90107494D01*
X123710839Y-90107494D02*
X123758458Y-90059875D01*
X123758458Y-90059875D02*
X123758458Y-90155113D01*
X123425125Y-90393208D02*
X123044173Y-90393208D01*
X123282268Y-90059875D02*
X123282268Y-90917017D01*
X123282268Y-90917017D02*
X123234649Y-91012256D01*
X123234649Y-91012256D02*
X123139411Y-91059875D01*
X123139411Y-91059875D02*
X123044173Y-91059875D01*
X122710839Y-91059875D02*
X122710839Y-90059875D01*
X122282268Y-91059875D02*
X122282268Y-90536065D01*
X122282268Y-90536065D02*
X122329887Y-90440827D01*
X122329887Y-90440827D02*
X122425125Y-90393208D01*
X122425125Y-90393208D02*
X122567982Y-90393208D01*
X122567982Y-90393208D02*
X122663220Y-90440827D01*
X122663220Y-90440827D02*
X122710839Y-90488446D01*
X121377506Y-90393208D02*
X121377506Y-91059875D01*
X121806077Y-90393208D02*
X121806077Y-90917017D01*
X121806077Y-90917017D02*
X121758458Y-91012256D01*
X121758458Y-91012256D02*
X121663220Y-91059875D01*
X121663220Y-91059875D02*
X121520363Y-91059875D01*
X121520363Y-91059875D02*
X121425125Y-91012256D01*
X121425125Y-91012256D02*
X121377506Y-90964636D01*
X120901315Y-91059875D02*
X120901315Y-90059875D01*
X120901315Y-90440827D02*
X120806077Y-90393208D01*
X120806077Y-90393208D02*
X120615601Y-90393208D01*
X120615601Y-90393208D02*
X120520363Y-90440827D01*
X120520363Y-90440827D02*
X120472744Y-90488446D01*
X120472744Y-90488446D02*
X120425125Y-90583684D01*
X120425125Y-90583684D02*
X120425125Y-90869398D01*
X120425125Y-90869398D02*
X120472744Y-90964636D01*
X120472744Y-90964636D02*
X120520363Y-91012256D01*
X120520363Y-91012256D02*
X120615601Y-91059875D01*
X120615601Y-91059875D02*
X120806077Y-91059875D01*
X120806077Y-91059875D02*
X120901315Y-91012256D01*
X119996553Y-90964636D02*
X119948934Y-91012256D01*
X119948934Y-91012256D02*
X119996553Y-91059875D01*
X119996553Y-91059875D02*
X120044172Y-91012256D01*
X120044172Y-91012256D02*
X119996553Y-90964636D01*
X119996553Y-90964636D02*
X119996553Y-91059875D01*
X119091792Y-91012256D02*
X119187030Y-91059875D01*
X119187030Y-91059875D02*
X119377506Y-91059875D01*
X119377506Y-91059875D02*
X119472744Y-91012256D01*
X119472744Y-91012256D02*
X119520363Y-90964636D01*
X119520363Y-90964636D02*
X119567982Y-90869398D01*
X119567982Y-90869398D02*
X119567982Y-90583684D01*
X119567982Y-90583684D02*
X119520363Y-90488446D01*
X119520363Y-90488446D02*
X119472744Y-90440827D01*
X119472744Y-90440827D02*
X119377506Y-90393208D01*
X119377506Y-90393208D02*
X119187030Y-90393208D01*
X119187030Y-90393208D02*
X119091792Y-90440827D01*
X118520363Y-91059875D02*
X118615601Y-91012256D01*
X118615601Y-91012256D02*
X118663220Y-90964636D01*
X118663220Y-90964636D02*
X118710839Y-90869398D01*
X118710839Y-90869398D02*
X118710839Y-90583684D01*
X118710839Y-90583684D02*
X118663220Y-90488446D01*
X118663220Y-90488446D02*
X118615601Y-90440827D01*
X118615601Y-90440827D02*
X118520363Y-90393208D01*
X118520363Y-90393208D02*
X118377506Y-90393208D01*
X118377506Y-90393208D02*
X118282268Y-90440827D01*
X118282268Y-90440827D02*
X118234649Y-90488446D01*
X118234649Y-90488446D02*
X118187030Y-90583684D01*
X118187030Y-90583684D02*
X118187030Y-90869398D01*
X118187030Y-90869398D02*
X118234649Y-90964636D01*
X118234649Y-90964636D02*
X118282268Y-91012256D01*
X118282268Y-91012256D02*
X118377506Y-91059875D01*
X118377506Y-91059875D02*
X118520363Y-91059875D01*
X117758458Y-91059875D02*
X117758458Y-90393208D01*
X117758458Y-90488446D02*
X117710839Y-90440827D01*
X117710839Y-90440827D02*
X117615601Y-90393208D01*
X117615601Y-90393208D02*
X117472744Y-90393208D01*
X117472744Y-90393208D02*
X117377506Y-90440827D01*
X117377506Y-90440827D02*
X117329887Y-90536065D01*
X117329887Y-90536065D02*
X117329887Y-91059875D01*
X117329887Y-90536065D02*
X117282268Y-90440827D01*
X117282268Y-90440827D02*
X117187030Y-90393208D01*
X117187030Y-90393208D02*
X117044173Y-90393208D01*
X117044173Y-90393208D02*
X116948934Y-90440827D01*
X116948934Y-90440827D02*
X116901315Y-90536065D01*
X116901315Y-90536065D02*
X116901315Y-91059875D01*
X115710840Y-90012256D02*
X116567982Y-91297970D01*
X115377506Y-90536065D02*
X115044173Y-90536065D01*
X114901316Y-91059875D02*
X115377506Y-91059875D01*
X115377506Y-91059875D02*
X115377506Y-90059875D01*
X115377506Y-90059875D02*
X114901316Y-90059875D01*
X114567982Y-91059875D02*
X114044173Y-90393208D01*
X114567982Y-90393208D02*
X114044173Y-91059875D01*
X113234649Y-91012256D02*
X113329887Y-91059875D01*
X113329887Y-91059875D02*
X113520363Y-91059875D01*
X113520363Y-91059875D02*
X113615601Y-91012256D01*
X113615601Y-91012256D02*
X113663220Y-90964636D01*
X113663220Y-90964636D02*
X113710839Y-90869398D01*
X113710839Y-90869398D02*
X113710839Y-90583684D01*
X113710839Y-90583684D02*
X113663220Y-90488446D01*
X113663220Y-90488446D02*
X113615601Y-90440827D01*
X113615601Y-90440827D02*
X113520363Y-90393208D01*
X113520363Y-90393208D02*
X113329887Y-90393208D01*
X113329887Y-90393208D02*
X113234649Y-90440827D01*
X112425125Y-91012256D02*
X112520363Y-91059875D01*
X112520363Y-91059875D02*
X112710839Y-91059875D01*
X112710839Y-91059875D02*
X112806077Y-91012256D01*
X112806077Y-91012256D02*
X112853696Y-90917017D01*
X112853696Y-90917017D02*
X112853696Y-90536065D01*
X112853696Y-90536065D02*
X112806077Y-90440827D01*
X112806077Y-90440827D02*
X112710839Y-90393208D01*
X112710839Y-90393208D02*
X112520363Y-90393208D01*
X112520363Y-90393208D02*
X112425125Y-90440827D01*
X112425125Y-90440827D02*
X112377506Y-90536065D01*
X112377506Y-90536065D02*
X112377506Y-90631303D01*
X112377506Y-90631303D02*
X112853696Y-90726541D01*
X111996553Y-91012256D02*
X111901315Y-91059875D01*
X111901315Y-91059875D02*
X111710839Y-91059875D01*
X111710839Y-91059875D02*
X111615601Y-91012256D01*
X111615601Y-91012256D02*
X111567982Y-90917017D01*
X111567982Y-90917017D02*
X111567982Y-90869398D01*
X111567982Y-90869398D02*
X111615601Y-90774160D01*
X111615601Y-90774160D02*
X111710839Y-90726541D01*
X111710839Y-90726541D02*
X111853696Y-90726541D01*
X111853696Y-90726541D02*
X111948934Y-90678922D01*
X111948934Y-90678922D02*
X111996553Y-90583684D01*
X111996553Y-90583684D02*
X111996553Y-90536065D01*
X111996553Y-90536065D02*
X111948934Y-90440827D01*
X111948934Y-90440827D02*
X111853696Y-90393208D01*
X111853696Y-90393208D02*
X111710839Y-90393208D01*
X111710839Y-90393208D02*
X111615601Y-90440827D01*
X111187029Y-91012256D02*
X111091791Y-91059875D01*
X111091791Y-91059875D02*
X110901315Y-91059875D01*
X110901315Y-91059875D02*
X110806077Y-91012256D01*
X110806077Y-91012256D02*
X110758458Y-90917017D01*
X110758458Y-90917017D02*
X110758458Y-90869398D01*
X110758458Y-90869398D02*
X110806077Y-90774160D01*
X110806077Y-90774160D02*
X110901315Y-90726541D01*
X110901315Y-90726541D02*
X111044172Y-90726541D01*
X111044172Y-90726541D02*
X111139410Y-90678922D01*
X111139410Y-90678922D02*
X111187029Y-90583684D01*
X111187029Y-90583684D02*
X111187029Y-90536065D01*
X111187029Y-90536065D02*
X111139410Y-90440827D01*
X111139410Y-90440827D02*
X111044172Y-90393208D01*
X111044172Y-90393208D02*
X110901315Y-90393208D01*
X110901315Y-90393208D02*
X110806077Y-90440827D01*
X110329886Y-91059875D02*
X110329886Y-90393208D01*
X110329886Y-90059875D02*
X110377505Y-90107494D01*
X110377505Y-90107494D02*
X110329886Y-90155113D01*
X110329886Y-90155113D02*
X110282267Y-90107494D01*
X110282267Y-90107494D02*
X110329886Y-90059875D01*
X110329886Y-90059875D02*
X110329886Y-90155113D01*
X109948934Y-90393208D02*
X109710839Y-91059875D01*
X109710839Y-91059875D02*
X109472744Y-90393208D01*
X108710839Y-91012256D02*
X108806077Y-91059875D01*
X108806077Y-91059875D02*
X108996553Y-91059875D01*
X108996553Y-91059875D02*
X109091791Y-91012256D01*
X109091791Y-91012256D02*
X109139410Y-90917017D01*
X109139410Y-90917017D02*
X109139410Y-90536065D01*
X109139410Y-90536065D02*
X109091791Y-90440827D01*
X109091791Y-90440827D02*
X108996553Y-90393208D01*
X108996553Y-90393208D02*
X108806077Y-90393208D01*
X108806077Y-90393208D02*
X108710839Y-90440827D01*
X108710839Y-90440827D02*
X108663220Y-90536065D01*
X108663220Y-90536065D02*
X108663220Y-90631303D01*
X108663220Y-90631303D02*
X109139410Y-90726541D01*
X108044172Y-90059875D02*
X107853696Y-90059875D01*
X107853696Y-90059875D02*
X107758458Y-90107494D01*
X107758458Y-90107494D02*
X107663220Y-90202732D01*
X107663220Y-90202732D02*
X107615601Y-90393208D01*
X107615601Y-90393208D02*
X107615601Y-90726541D01*
X107615601Y-90726541D02*
X107663220Y-90917017D01*
X107663220Y-90917017D02*
X107758458Y-91012256D01*
X107758458Y-91012256D02*
X107853696Y-91059875D01*
X107853696Y-91059875D02*
X108044172Y-91059875D01*
X108044172Y-91059875D02*
X108139410Y-91012256D01*
X108139410Y-91012256D02*
X108234648Y-90917017D01*
X108234648Y-90917017D02*
X108282267Y-90726541D01*
X108282267Y-90726541D02*
X108282267Y-90393208D01*
X108282267Y-90393208D02*
X108234648Y-90202732D01*
X108234648Y-90202732D02*
X108139410Y-90107494D01*
X108139410Y-90107494D02*
X108044172Y-90059875D01*
X107282267Y-90393208D02*
X107044172Y-91059875D01*
X107044172Y-91059875D02*
X106806077Y-90393208D01*
X106044172Y-91012256D02*
X106139410Y-91059875D01*
X106139410Y-91059875D02*
X106329886Y-91059875D01*
X106329886Y-91059875D02*
X106425124Y-91012256D01*
X106425124Y-91012256D02*
X106472743Y-90917017D01*
X106472743Y-90917017D02*
X106472743Y-90536065D01*
X106472743Y-90536065D02*
X106425124Y-90440827D01*
X106425124Y-90440827D02*
X106329886Y-90393208D01*
X106329886Y-90393208D02*
X106139410Y-90393208D01*
X106139410Y-90393208D02*
X106044172Y-90440827D01*
X106044172Y-90440827D02*
X105996553Y-90536065D01*
X105996553Y-90536065D02*
X105996553Y-90631303D01*
X105996553Y-90631303D02*
X106472743Y-90726541D01*
X105567981Y-91059875D02*
X105567981Y-90393208D01*
X105567981Y-90583684D02*
X105520362Y-90488446D01*
X105520362Y-90488446D02*
X105472743Y-90440827D01*
X105472743Y-90440827D02*
X105377505Y-90393208D01*
X105377505Y-90393208D02*
X105282267Y-90393208D01*
X104948933Y-91059875D02*
X104948933Y-90059875D01*
X104853695Y-90678922D02*
X104567981Y-91059875D01*
X104567981Y-90393208D02*
X104948933Y-90774160D01*
X104139409Y-91059875D02*
X104139409Y-90393208D01*
X104139409Y-90059875D02*
X104187028Y-90107494D01*
X104187028Y-90107494D02*
X104139409Y-90155113D01*
X104139409Y-90155113D02*
X104091790Y-90107494D01*
X104091790Y-90107494D02*
X104139409Y-90059875D01*
X104139409Y-90059875D02*
X104139409Y-90155113D01*
X103520362Y-91059875D02*
X103615600Y-91012256D01*
X103615600Y-91012256D02*
X103663219Y-90917017D01*
X103663219Y-90917017D02*
X103663219Y-90059875D01*
X102996552Y-91059875D02*
X103091790Y-91012256D01*
X103091790Y-91012256D02*
X103139409Y-90917017D01*
X103139409Y-90917017D02*
X103139409Y-90059875D01*
X101901314Y-90012256D02*
X102758456Y-91297970D01*
X124234649Y-92622200D02*
X124329887Y-92669819D01*
X124329887Y-92669819D02*
X124520363Y-92669819D01*
X124520363Y-92669819D02*
X124615601Y-92622200D01*
X124615601Y-92622200D02*
X124663220Y-92574580D01*
X124663220Y-92574580D02*
X124710839Y-92479342D01*
X124710839Y-92479342D02*
X124710839Y-92193628D01*
X124710839Y-92193628D02*
X124663220Y-92098390D01*
X124663220Y-92098390D02*
X124615601Y-92050771D01*
X124615601Y-92050771D02*
X124520363Y-92003152D01*
X124520363Y-92003152D02*
X124329887Y-92003152D01*
X124329887Y-92003152D02*
X124234649Y-92050771D01*
X123663220Y-92669819D02*
X123758458Y-92622200D01*
X123758458Y-92622200D02*
X123806077Y-92574580D01*
X123806077Y-92574580D02*
X123853696Y-92479342D01*
X123853696Y-92479342D02*
X123853696Y-92193628D01*
X123853696Y-92193628D02*
X123806077Y-92098390D01*
X123806077Y-92098390D02*
X123758458Y-92050771D01*
X123758458Y-92050771D02*
X123663220Y-92003152D01*
X123663220Y-92003152D02*
X123520363Y-92003152D01*
X123520363Y-92003152D02*
X123425125Y-92050771D01*
X123425125Y-92050771D02*
X123377506Y-92098390D01*
X123377506Y-92098390D02*
X123329887Y-92193628D01*
X123329887Y-92193628D02*
X123329887Y-92479342D01*
X123329887Y-92479342D02*
X123377506Y-92574580D01*
X123377506Y-92574580D02*
X123425125Y-92622200D01*
X123425125Y-92622200D02*
X123520363Y-92669819D01*
X123520363Y-92669819D02*
X123663220Y-92669819D01*
X122901315Y-92003152D02*
X122901315Y-92669819D01*
X122901315Y-92098390D02*
X122853696Y-92050771D01*
X122853696Y-92050771D02*
X122758458Y-92003152D01*
X122758458Y-92003152D02*
X122615601Y-92003152D01*
X122615601Y-92003152D02*
X122520363Y-92050771D01*
X122520363Y-92050771D02*
X122472744Y-92146009D01*
X122472744Y-92146009D02*
X122472744Y-92669819D01*
X122139410Y-92003152D02*
X121758458Y-92003152D01*
X121996553Y-91669819D02*
X121996553Y-92526961D01*
X121996553Y-92526961D02*
X121948934Y-92622200D01*
X121948934Y-92622200D02*
X121853696Y-92669819D01*
X121853696Y-92669819D02*
X121758458Y-92669819D01*
X121425124Y-92669819D02*
X121425124Y-92003152D01*
X121425124Y-92193628D02*
X121377505Y-92098390D01*
X121377505Y-92098390D02*
X121329886Y-92050771D01*
X121329886Y-92050771D02*
X121234648Y-92003152D01*
X121234648Y-92003152D02*
X121139410Y-92003152D01*
X120663219Y-92669819D02*
X120758457Y-92622200D01*
X120758457Y-92622200D02*
X120806076Y-92574580D01*
X120806076Y-92574580D02*
X120853695Y-92479342D01*
X120853695Y-92479342D02*
X120853695Y-92193628D01*
X120853695Y-92193628D02*
X120806076Y-92098390D01*
X120806076Y-92098390D02*
X120758457Y-92050771D01*
X120758457Y-92050771D02*
X120663219Y-92003152D01*
X120663219Y-92003152D02*
X120520362Y-92003152D01*
X120520362Y-92003152D02*
X120425124Y-92050771D01*
X120425124Y-92050771D02*
X120377505Y-92098390D01*
X120377505Y-92098390D02*
X120329886Y-92193628D01*
X120329886Y-92193628D02*
X120329886Y-92479342D01*
X120329886Y-92479342D02*
X120377505Y-92574580D01*
X120377505Y-92574580D02*
X120425124Y-92622200D01*
X120425124Y-92622200D02*
X120520362Y-92669819D01*
X120520362Y-92669819D02*
X120663219Y-92669819D01*
X119758457Y-92669819D02*
X119853695Y-92622200D01*
X119853695Y-92622200D02*
X119901314Y-92526961D01*
X119901314Y-92526961D02*
X119901314Y-91669819D01*
X119234647Y-92669819D02*
X119329885Y-92622200D01*
X119329885Y-92622200D02*
X119377504Y-92526961D01*
X119377504Y-92526961D02*
X119377504Y-91669819D01*
X118472742Y-92622200D02*
X118567980Y-92669819D01*
X118567980Y-92669819D02*
X118758456Y-92669819D01*
X118758456Y-92669819D02*
X118853694Y-92622200D01*
X118853694Y-92622200D02*
X118901313Y-92526961D01*
X118901313Y-92526961D02*
X118901313Y-92146009D01*
X118901313Y-92146009D02*
X118853694Y-92050771D01*
X118853694Y-92050771D02*
X118758456Y-92003152D01*
X118758456Y-92003152D02*
X118567980Y-92003152D01*
X118567980Y-92003152D02*
X118472742Y-92050771D01*
X118472742Y-92050771D02*
X118425123Y-92146009D01*
X118425123Y-92146009D02*
X118425123Y-92241247D01*
X118425123Y-92241247D02*
X118901313Y-92336485D01*
X117996551Y-92669819D02*
X117996551Y-92003152D01*
X117996551Y-92193628D02*
X117948932Y-92098390D01*
X117948932Y-92098390D02*
X117901313Y-92050771D01*
X117901313Y-92050771D02*
X117806075Y-92003152D01*
X117806075Y-92003152D02*
X117710837Y-92003152D01*
X117377503Y-92288866D02*
X116615599Y-92288866D01*
X116139408Y-92669819D02*
X116139408Y-91669819D01*
X115710837Y-92669819D02*
X115710837Y-92146009D01*
X115710837Y-92146009D02*
X115758456Y-92050771D01*
X115758456Y-92050771D02*
X115853694Y-92003152D01*
X115853694Y-92003152D02*
X115996551Y-92003152D01*
X115996551Y-92003152D02*
X116091789Y-92050771D01*
X116091789Y-92050771D02*
X116139408Y-92098390D01*
X114806075Y-92669819D02*
X114806075Y-92146009D01*
X114806075Y-92146009D02*
X114853694Y-92050771D01*
X114853694Y-92050771D02*
X114948932Y-92003152D01*
X114948932Y-92003152D02*
X115139408Y-92003152D01*
X115139408Y-92003152D02*
X115234646Y-92050771D01*
X114806075Y-92622200D02*
X114901313Y-92669819D01*
X114901313Y-92669819D02*
X115139408Y-92669819D01*
X115139408Y-92669819D02*
X115234646Y-92622200D01*
X115234646Y-92622200D02*
X115282265Y-92526961D01*
X115282265Y-92526961D02*
X115282265Y-92431723D01*
X115282265Y-92431723D02*
X115234646Y-92336485D01*
X115234646Y-92336485D02*
X115139408Y-92288866D01*
X115139408Y-92288866D02*
X114901313Y-92288866D01*
X114901313Y-92288866D02*
X114806075Y-92241247D01*
X114329884Y-92669819D02*
X114329884Y-92003152D01*
X114329884Y-92193628D02*
X114282265Y-92098390D01*
X114282265Y-92098390D02*
X114234646Y-92050771D01*
X114234646Y-92050771D02*
X114139408Y-92003152D01*
X114139408Y-92003152D02*
X114044170Y-92003152D01*
X113282265Y-92669819D02*
X113282265Y-91669819D01*
X113282265Y-92622200D02*
X113377503Y-92669819D01*
X113377503Y-92669819D02*
X113567979Y-92669819D01*
X113567979Y-92669819D02*
X113663217Y-92622200D01*
X113663217Y-92622200D02*
X113710836Y-92574580D01*
X113710836Y-92574580D02*
X113758455Y-92479342D01*
X113758455Y-92479342D02*
X113758455Y-92193628D01*
X113758455Y-92193628D02*
X113710836Y-92098390D01*
X113710836Y-92098390D02*
X113663217Y-92050771D01*
X113663217Y-92050771D02*
X113567979Y-92003152D01*
X113567979Y-92003152D02*
X113377503Y-92003152D01*
X113377503Y-92003152D02*
X113282265Y-92050771D01*
X112901312Y-92003152D02*
X112710836Y-92669819D01*
X112710836Y-92669819D02*
X112520360Y-92193628D01*
X112520360Y-92193628D02*
X112329884Y-92669819D01*
X112329884Y-92669819D02*
X112139408Y-92003152D01*
X111329884Y-92669819D02*
X111329884Y-92146009D01*
X111329884Y-92146009D02*
X111377503Y-92050771D01*
X111377503Y-92050771D02*
X111472741Y-92003152D01*
X111472741Y-92003152D02*
X111663217Y-92003152D01*
X111663217Y-92003152D02*
X111758455Y-92050771D01*
X111329884Y-92622200D02*
X111425122Y-92669819D01*
X111425122Y-92669819D02*
X111663217Y-92669819D01*
X111663217Y-92669819D02*
X111758455Y-92622200D01*
X111758455Y-92622200D02*
X111806074Y-92526961D01*
X111806074Y-92526961D02*
X111806074Y-92431723D01*
X111806074Y-92431723D02*
X111758455Y-92336485D01*
X111758455Y-92336485D02*
X111663217Y-92288866D01*
X111663217Y-92288866D02*
X111425122Y-92288866D01*
X111425122Y-92288866D02*
X111329884Y-92241247D01*
X110853693Y-92669819D02*
X110853693Y-92003152D01*
X110853693Y-92193628D02*
X110806074Y-92098390D01*
X110806074Y-92098390D02*
X110758455Y-92050771D01*
X110758455Y-92050771D02*
X110663217Y-92003152D01*
X110663217Y-92003152D02*
X110567979Y-92003152D01*
X109853693Y-92622200D02*
X109948931Y-92669819D01*
X109948931Y-92669819D02*
X110139407Y-92669819D01*
X110139407Y-92669819D02*
X110234645Y-92622200D01*
X110234645Y-92622200D02*
X110282264Y-92526961D01*
X110282264Y-92526961D02*
X110282264Y-92146009D01*
X110282264Y-92146009D02*
X110234645Y-92050771D01*
X110234645Y-92050771D02*
X110139407Y-92003152D01*
X110139407Y-92003152D02*
X109948931Y-92003152D01*
X109948931Y-92003152D02*
X109853693Y-92050771D01*
X109853693Y-92050771D02*
X109806074Y-92146009D01*
X109806074Y-92146009D02*
X109806074Y-92241247D01*
X109806074Y-92241247D02*
X110282264Y-92336485D01*
X109377502Y-92288866D02*
X108615598Y-92288866D01*
X107710836Y-92669819D02*
X107710836Y-91669819D01*
X107710836Y-92622200D02*
X107806074Y-92669819D01*
X107806074Y-92669819D02*
X107996550Y-92669819D01*
X107996550Y-92669819D02*
X108091788Y-92622200D01*
X108091788Y-92622200D02*
X108139407Y-92574580D01*
X108139407Y-92574580D02*
X108187026Y-92479342D01*
X108187026Y-92479342D02*
X108187026Y-92193628D01*
X108187026Y-92193628D02*
X108139407Y-92098390D01*
X108139407Y-92098390D02*
X108091788Y-92050771D01*
X108091788Y-92050771D02*
X107996550Y-92003152D01*
X107996550Y-92003152D02*
X107806074Y-92003152D01*
X107806074Y-92003152D02*
X107710836Y-92050771D01*
X106853693Y-92622200D02*
X106948931Y-92669819D01*
X106948931Y-92669819D02*
X107139407Y-92669819D01*
X107139407Y-92669819D02*
X107234645Y-92622200D01*
X107234645Y-92622200D02*
X107282264Y-92526961D01*
X107282264Y-92526961D02*
X107282264Y-92146009D01*
X107282264Y-92146009D02*
X107234645Y-92050771D01*
X107234645Y-92050771D02*
X107139407Y-92003152D01*
X107139407Y-92003152D02*
X106948931Y-92003152D01*
X106948931Y-92003152D02*
X106853693Y-92050771D01*
X106853693Y-92050771D02*
X106806074Y-92146009D01*
X106806074Y-92146009D02*
X106806074Y-92241247D01*
X106806074Y-92241247D02*
X107282264Y-92336485D01*
X106472740Y-92003152D02*
X106234645Y-92669819D01*
X106234645Y-92669819D02*
X105996550Y-92003152D01*
D12*
%TO.C,REF\u002A\u002A*%
X117523975Y-64500000D02*
G75*
G02*
X114476025Y-64500000I-1523975J0D01*
G01*
X114476025Y-64500000D02*
G75*
G02*
X117523975Y-64500000I1523975J0D01*
G01*
D14*
X116631192Y-65283879D02*
X116083436Y-65283879D01*
X116071044Y-65022394D01*
X116631192Y-65022394D01*
X116631192Y-65283879D01*
G36*
X116631192Y-65283879D02*
G01*
X116083436Y-65283879D01*
X116071044Y-65022394D01*
X116631192Y-65022394D01*
X116631192Y-65283879D01*
G37*
X116631192Y-64630786D02*
X116191252Y-64630786D01*
X116191252Y-64391608D01*
X116631192Y-64391608D01*
X116631192Y-64630786D01*
G36*
X116631192Y-64630786D02*
G01*
X116191252Y-64630786D01*
X116191252Y-64391608D01*
X116631192Y-64391608D01*
X116631192Y-64630786D01*
G37*
X116631192Y-64000000D02*
X116071044Y-64000000D01*
X116083436Y-63739754D01*
X116631192Y-63739754D01*
X116631192Y-64000000D01*
G36*
X116631192Y-64000000D02*
G01*
X116071044Y-64000000D01*
X116083436Y-63739754D01*
X116631192Y-63739754D01*
X116631192Y-64000000D01*
G37*
X117056260Y-65283879D02*
X116729094Y-65283879D01*
X116729094Y-63739754D01*
X117056260Y-63739754D01*
X117056260Y-65283879D01*
G36*
X117056260Y-65283879D02*
G01*
X116729094Y-65283879D01*
X116729094Y-63739754D01*
X117056260Y-63739754D01*
X117056260Y-65283879D01*
G37*
X115310134Y-64000000D02*
X115237017Y-64000000D01*
X115232491Y-64000192D01*
X115224101Y-64001025D01*
X115216707Y-64002179D01*
X115208234Y-64003977D01*
X115198988Y-64006565D01*
X115189280Y-64010084D01*
X115179418Y-64014679D01*
X115169710Y-64020493D01*
X115160464Y-64027670D01*
X115151991Y-64036352D01*
X115148139Y-64041303D01*
X115144597Y-64046684D01*
X115141402Y-64052513D01*
X115138592Y-64058808D01*
X115136207Y-64065587D01*
X115134284Y-64072868D01*
X115132863Y-64080669D01*
X115131983Y-64089008D01*
X115131680Y-64097902D01*
X115131680Y-64924492D01*
X115131886Y-64928698D01*
X115132783Y-64936496D01*
X115134024Y-64943368D01*
X115135959Y-64951244D01*
X115138743Y-64959836D01*
X115142530Y-64968859D01*
X115147474Y-64978026D01*
X115153730Y-64987049D01*
X115161451Y-64995641D01*
X115170793Y-65003517D01*
X115176120Y-65007096D01*
X115181909Y-65010389D01*
X115188181Y-65013359D01*
X115194954Y-65015970D01*
X115202248Y-65018187D01*
X115210082Y-65019973D01*
X115218476Y-65021294D01*
X115227448Y-65022113D01*
X115237017Y-65022394D01*
X115310134Y-65022394D01*
X115310134Y-65283879D01*
X115177533Y-65283879D01*
X115176463Y-65283868D01*
X115168313Y-65283601D01*
X115161505Y-65283220D01*
X115153059Y-65282593D01*
X115143109Y-65281657D01*
X115131794Y-65280350D01*
X115119249Y-65278612D01*
X115105612Y-65276379D01*
X115091018Y-65273592D01*
X115075604Y-65270187D01*
X115059508Y-65266103D01*
X115042865Y-65261278D01*
X115025812Y-65255651D01*
X115008486Y-65249160D01*
X114991024Y-65241744D01*
X114973562Y-65233339D01*
X114956236Y-65223886D01*
X114939183Y-65213321D01*
X114922540Y-65201584D01*
X114906444Y-65188612D01*
X114891030Y-65174344D01*
X114876436Y-65158718D01*
X114862799Y-65141673D01*
X114850254Y-65123146D01*
X114838939Y-65103077D01*
X114828989Y-65081402D01*
X114820543Y-65058061D01*
X114813735Y-65032992D01*
X114808704Y-65006133D01*
X114805585Y-64977422D01*
X114804514Y-64946799D01*
X114804514Y-64076834D01*
X114804606Y-64073049D01*
X114805243Y-64062351D01*
X114805937Y-64054718D01*
X114806973Y-64045727D01*
X114808419Y-64035502D01*
X114810343Y-64024166D01*
X114812813Y-64011842D01*
X114815898Y-63998654D01*
X114819666Y-63984726D01*
X114824185Y-63970180D01*
X114829524Y-63955141D01*
X114835751Y-63939731D01*
X114842934Y-63924075D01*
X114851142Y-63908294D01*
X114860442Y-63892514D01*
X114870904Y-63876858D01*
X114882595Y-63861448D01*
X114895584Y-63846409D01*
X114909938Y-63831863D01*
X114925727Y-63817935D01*
X114943019Y-63804747D01*
X114961882Y-63792423D01*
X114982384Y-63781087D01*
X115004593Y-63770862D01*
X115028579Y-63761871D01*
X115054408Y-63754238D01*
X115082150Y-63748087D01*
X115111873Y-63743540D01*
X115143644Y-63740721D01*
X115177533Y-63739754D01*
X115310134Y-63739754D01*
X115310134Y-64000000D01*
G36*
X115310134Y-64000000D02*
G01*
X115237017Y-64000000D01*
X115232491Y-64000192D01*
X115224101Y-64001025D01*
X115216707Y-64002179D01*
X115208234Y-64003977D01*
X115198988Y-64006565D01*
X115189280Y-64010084D01*
X115179418Y-64014679D01*
X115169710Y-64020493D01*
X115160464Y-64027670D01*
X115151991Y-64036352D01*
X115148139Y-64041303D01*
X115144597Y-64046684D01*
X115141402Y-64052513D01*
X115138592Y-64058808D01*
X115136207Y-64065587D01*
X115134284Y-64072868D01*
X115132863Y-64080669D01*
X115131983Y-64089008D01*
X115131680Y-64097902D01*
X115131680Y-64924492D01*
X115131886Y-64928698D01*
X115132783Y-64936496D01*
X115134024Y-64943368D01*
X115135959Y-64951244D01*
X115138743Y-64959836D01*
X115142530Y-64968859D01*
X115147474Y-64978026D01*
X115153730Y-64987049D01*
X115161451Y-64995641D01*
X115170793Y-65003517D01*
X115176120Y-65007096D01*
X115181909Y-65010389D01*
X115188181Y-65013359D01*
X115194954Y-65015970D01*
X115202248Y-65018187D01*
X115210082Y-65019973D01*
X115218476Y-65021294D01*
X115227448Y-65022113D01*
X115237017Y-65022394D01*
X115310134Y-65022394D01*
X115310134Y-65283879D01*
X115177533Y-65283879D01*
X115176463Y-65283868D01*
X115168313Y-65283601D01*
X115161505Y-65283220D01*
X115153059Y-65282593D01*
X115143109Y-65281657D01*
X115131794Y-65280350D01*
X115119249Y-65278612D01*
X115105612Y-65276379D01*
X115091018Y-65273592D01*
X115075604Y-65270187D01*
X115059508Y-65266103D01*
X115042865Y-65261278D01*
X115025812Y-65255651D01*
X115008486Y-65249160D01*
X114991024Y-65241744D01*
X114973562Y-65233339D01*
X114956236Y-65223886D01*
X114939183Y-65213321D01*
X114922540Y-65201584D01*
X114906444Y-65188612D01*
X114891030Y-65174344D01*
X114876436Y-65158718D01*
X114862799Y-65141673D01*
X114850254Y-65123146D01*
X114838939Y-65103077D01*
X114828989Y-65081402D01*
X114820543Y-65058061D01*
X114813735Y-65032992D01*
X114808704Y-65006133D01*
X114805585Y-64977422D01*
X114804514Y-64946799D01*
X114804514Y-64076834D01*
X114804606Y-64073049D01*
X114805243Y-64062351D01*
X114805937Y-64054718D01*
X114806973Y-64045727D01*
X114808419Y-64035502D01*
X114810343Y-64024166D01*
X114812813Y-64011842D01*
X114815898Y-63998654D01*
X114819666Y-63984726D01*
X114824185Y-63970180D01*
X114829524Y-63955141D01*
X114835751Y-63939731D01*
X114842934Y-63924075D01*
X114851142Y-63908294D01*
X114860442Y-63892514D01*
X114870904Y-63876858D01*
X114882595Y-63861448D01*
X114895584Y-63846409D01*
X114909938Y-63831863D01*
X114925727Y-63817935D01*
X114943019Y-63804747D01*
X114961882Y-63792423D01*
X114982384Y-63781087D01*
X115004593Y-63770862D01*
X115028579Y-63761871D01*
X115054408Y-63754238D01*
X115082150Y-63748087D01*
X115111873Y-63743540D01*
X115143644Y-63740721D01*
X115177533Y-63739754D01*
X115310134Y-63739754D01*
X115310134Y-64000000D01*
G37*
X115536752Y-63739765D02*
X115544902Y-63740032D01*
X115551710Y-63740413D01*
X115560156Y-63741040D01*
X115570106Y-63741976D01*
X115581421Y-63743283D01*
X115593966Y-63745021D01*
X115607603Y-63747254D01*
X115622197Y-63750041D01*
X115637611Y-63753446D01*
X115653707Y-63757530D01*
X115670350Y-63762355D01*
X115687403Y-63767982D01*
X115704729Y-63774473D01*
X115722191Y-63781889D01*
X115739653Y-63790294D01*
X115756979Y-63799747D01*
X115774032Y-63810312D01*
X115790675Y-63822049D01*
X115806771Y-63835021D01*
X115822185Y-63849289D01*
X115836779Y-63864915D01*
X115850416Y-63881960D01*
X115862961Y-63900487D01*
X115874276Y-63920556D01*
X115884226Y-63942231D01*
X115892672Y-63965572D01*
X115899480Y-63990641D01*
X115904511Y-64017500D01*
X115907630Y-64046211D01*
X115908700Y-64076834D01*
X115908700Y-64946799D01*
X115908609Y-64950584D01*
X115907972Y-64961282D01*
X115907278Y-64968915D01*
X115906242Y-64977906D01*
X115904796Y-64988131D01*
X115902872Y-64999467D01*
X115900402Y-65011791D01*
X115897317Y-65024979D01*
X115893549Y-65038907D01*
X115889030Y-65053453D01*
X115883691Y-65068492D01*
X115877464Y-65083902D01*
X115870281Y-65099558D01*
X115862073Y-65115339D01*
X115852773Y-65131119D01*
X115842311Y-65146775D01*
X115830620Y-65162185D01*
X115817631Y-65177224D01*
X115803277Y-65191770D01*
X115787488Y-65205698D01*
X115770196Y-65218886D01*
X115751333Y-65231210D01*
X115730831Y-65242546D01*
X115708622Y-65252771D01*
X115684636Y-65261762D01*
X115658807Y-65269395D01*
X115631065Y-65275546D01*
X115601342Y-65280093D01*
X115569571Y-65282912D01*
X115535681Y-65283879D01*
X115406797Y-65283879D01*
X115406797Y-65022394D01*
X115476196Y-65022394D01*
X115480723Y-65022202D01*
X115489113Y-65021369D01*
X115496507Y-65020215D01*
X115504980Y-65018417D01*
X115514226Y-65015829D01*
X115523934Y-65012310D01*
X115533796Y-65007715D01*
X115543504Y-65001901D01*
X115552750Y-64994724D01*
X115561223Y-64986042D01*
X115565075Y-64981091D01*
X115568617Y-64975710D01*
X115571812Y-64969881D01*
X115574622Y-64963586D01*
X115577007Y-64956807D01*
X115578930Y-64949526D01*
X115580351Y-64941725D01*
X115581231Y-64933386D01*
X115581533Y-64924492D01*
X115581533Y-64097902D01*
X115581328Y-64093696D01*
X115580431Y-64085898D01*
X115579190Y-64079026D01*
X115577255Y-64071150D01*
X115574471Y-64062558D01*
X115570684Y-64053535D01*
X115565740Y-64044368D01*
X115559484Y-64035345D01*
X115551763Y-64026753D01*
X115542421Y-64018877D01*
X115537094Y-64015298D01*
X115531305Y-64012005D01*
X115525033Y-64009035D01*
X115518260Y-64006424D01*
X115510966Y-64004207D01*
X115503132Y-64002421D01*
X115494738Y-64001100D01*
X115485766Y-64000281D01*
X115476196Y-64000000D01*
X115406797Y-64000000D01*
X115406797Y-63739754D01*
X115535681Y-63739754D01*
X115536752Y-63739765D01*
G36*
X115536752Y-63739765D02*
G01*
X115544902Y-63740032D01*
X115551710Y-63740413D01*
X115560156Y-63741040D01*
X115570106Y-63741976D01*
X115581421Y-63743283D01*
X115593966Y-63745021D01*
X115607603Y-63747254D01*
X115622197Y-63750041D01*
X115637611Y-63753446D01*
X115653707Y-63757530D01*
X115670350Y-63762355D01*
X115687403Y-63767982D01*
X115704729Y-63774473D01*
X115722191Y-63781889D01*
X115739653Y-63790294D01*
X115756979Y-63799747D01*
X115774032Y-63810312D01*
X115790675Y-63822049D01*
X115806771Y-63835021D01*
X115822185Y-63849289D01*
X115836779Y-63864915D01*
X115850416Y-63881960D01*
X115862961Y-63900487D01*
X115874276Y-63920556D01*
X115884226Y-63942231D01*
X115892672Y-63965572D01*
X115899480Y-63990641D01*
X115904511Y-64017500D01*
X115907630Y-64046211D01*
X115908700Y-64076834D01*
X115908700Y-64946799D01*
X115908609Y-64950584D01*
X115907972Y-64961282D01*
X115907278Y-64968915D01*
X115906242Y-64977906D01*
X115904796Y-64988131D01*
X115902872Y-64999467D01*
X115900402Y-65011791D01*
X115897317Y-65024979D01*
X115893549Y-65038907D01*
X115889030Y-65053453D01*
X115883691Y-65068492D01*
X115877464Y-65083902D01*
X115870281Y-65099558D01*
X115862073Y-65115339D01*
X115852773Y-65131119D01*
X115842311Y-65146775D01*
X115830620Y-65162185D01*
X115817631Y-65177224D01*
X115803277Y-65191770D01*
X115787488Y-65205698D01*
X115770196Y-65218886D01*
X115751333Y-65231210D01*
X115730831Y-65242546D01*
X115708622Y-65252771D01*
X115684636Y-65261762D01*
X115658807Y-65269395D01*
X115631065Y-65275546D01*
X115601342Y-65280093D01*
X115569571Y-65282912D01*
X115535681Y-65283879D01*
X115406797Y-65283879D01*
X115406797Y-65022394D01*
X115476196Y-65022394D01*
X115480723Y-65022202D01*
X115489113Y-65021369D01*
X115496507Y-65020215D01*
X115504980Y-65018417D01*
X115514226Y-65015829D01*
X115523934Y-65012310D01*
X115533796Y-65007715D01*
X115543504Y-65001901D01*
X115552750Y-64994724D01*
X115561223Y-64986042D01*
X115565075Y-64981091D01*
X115568617Y-64975710D01*
X115571812Y-64969881D01*
X115574622Y-64963586D01*
X115577007Y-64956807D01*
X115578930Y-64949526D01*
X115580351Y-64941725D01*
X115581231Y-64933386D01*
X115581533Y-64924492D01*
X115581533Y-64097902D01*
X115581328Y-64093696D01*
X115580431Y-64085898D01*
X115579190Y-64079026D01*
X115577255Y-64071150D01*
X115574471Y-64062558D01*
X115570684Y-64053535D01*
X115565740Y-64044368D01*
X115559484Y-64035345D01*
X115551763Y-64026753D01*
X115542421Y-64018877D01*
X115537094Y-64015298D01*
X115531305Y-64012005D01*
X115525033Y-64009035D01*
X115518260Y-64006424D01*
X115510966Y-64004207D01*
X115503132Y-64002421D01*
X115494738Y-64001100D01*
X115485766Y-64000281D01*
X115476196Y-64000000D01*
X115406797Y-64000000D01*
X115406797Y-63739754D01*
X115535681Y-63739754D01*
X115536752Y-63739765D01*
G37*
D15*
X105982829Y-66951097D02*
X106042753Y-66973355D01*
X106067673Y-66990080D01*
X106092910Y-67014043D01*
X106110912Y-67044526D01*
X106122858Y-67086023D01*
X106129930Y-67143032D01*
X106133308Y-67220047D01*
X106134171Y-67321565D01*
X106134002Y-67374027D01*
X106133153Y-67445715D01*
X106131711Y-67502925D01*
X106129814Y-67540809D01*
X106127597Y-67554514D01*
X106113172Y-67549981D01*
X106084054Y-67537670D01*
X106083181Y-67537272D01*
X106068060Y-67529356D01*
X106057891Y-67518495D01*
X106051691Y-67499471D01*
X106048478Y-67467069D01*
X106047270Y-67416071D01*
X106047086Y-67341261D01*
X106046714Y-67293804D01*
X106042750Y-67204615D01*
X106033673Y-67139287D01*
X106018524Y-67094393D01*
X105996345Y-67066507D01*
X105966175Y-67052203D01*
X105961990Y-67051206D01*
X105905480Y-67050427D01*
X105861410Y-67075744D01*
X105830972Y-67126502D01*
X105825544Y-67141175D01*
X105813171Y-67173649D01*
X105806905Y-67188572D01*
X105794036Y-67186516D01*
X105765933Y-67175357D01*
X105739721Y-67156927D01*
X105727771Y-67122098D01*
X105731336Y-67097151D01*
X105753235Y-67046547D01*
X105788644Y-66999128D01*
X105830052Y-66966334D01*
X105847400Y-66958752D01*
X105913089Y-66946076D01*
X105982829Y-66951097D01*
G36*
X105982829Y-66951097D02*
G01*
X106042753Y-66973355D01*
X106067673Y-66990080D01*
X106092910Y-67014043D01*
X106110912Y-67044526D01*
X106122858Y-67086023D01*
X106129930Y-67143032D01*
X106133308Y-67220047D01*
X106134171Y-67321565D01*
X106134002Y-67374027D01*
X106133153Y-67445715D01*
X106131711Y-67502925D01*
X106129814Y-67540809D01*
X106127597Y-67554514D01*
X106113172Y-67549981D01*
X106084054Y-67537670D01*
X106083181Y-67537272D01*
X106068060Y-67529356D01*
X106057891Y-67518495D01*
X106051691Y-67499471D01*
X106048478Y-67467069D01*
X106047270Y-67416071D01*
X106047086Y-67341261D01*
X106046714Y-67293804D01*
X106042750Y-67204615D01*
X106033673Y-67139287D01*
X106018524Y-67094393D01*
X105996345Y-67066507D01*
X105966175Y-67052203D01*
X105961990Y-67051206D01*
X105905480Y-67050427D01*
X105861410Y-67075744D01*
X105830972Y-67126502D01*
X105825544Y-67141175D01*
X105813171Y-67173649D01*
X105806905Y-67188572D01*
X105794036Y-67186516D01*
X105765933Y-67175357D01*
X105739721Y-67156927D01*
X105727771Y-67122098D01*
X105731336Y-67097151D01*
X105753235Y-67046547D01*
X105788644Y-66999128D01*
X105830052Y-66966334D01*
X105847400Y-66958752D01*
X105913089Y-66946076D01*
X105982829Y-66951097D01*
G37*
X109931020Y-66917822D02*
X109998810Y-66949680D01*
X110054366Y-67004770D01*
X110065881Y-67022016D01*
X110075432Y-67041562D01*
X110082206Y-67066198D01*
X110086819Y-67100711D01*
X110089888Y-67149889D01*
X110092029Y-67218519D01*
X110093859Y-67311389D01*
X110098404Y-67569007D01*
X110060225Y-67554491D01*
X110025268Y-67541156D01*
X109999097Y-67528323D01*
X109982013Y-67511780D01*
X109972086Y-67486465D01*
X109967386Y-67447316D01*
X109965982Y-67389268D01*
X109965943Y-67307261D01*
X109965744Y-67241895D01*
X109964559Y-67179173D01*
X109961729Y-67136334D01*
X109956609Y-67108220D01*
X109948553Y-67089675D01*
X109936914Y-67075543D01*
X109908303Y-67055600D01*
X109860239Y-67048083D01*
X109812688Y-67067079D01*
X109809550Y-67069511D01*
X109799769Y-67080748D01*
X109792553Y-67098770D01*
X109787299Y-67128026D01*
X109783402Y-67172962D01*
X109780256Y-67238028D01*
X109777257Y-67327670D01*
X109770000Y-67567697D01*
X109708314Y-67540044D01*
X109646629Y-67512391D01*
X109646629Y-67293246D01*
X109646884Y-67233711D01*
X109649086Y-67150892D01*
X109654661Y-67089227D01*
X109664941Y-67043748D01*
X109681258Y-67009484D01*
X109704943Y-66981466D01*
X109737328Y-66954723D01*
X109783907Y-66927780D01*
X109857287Y-66910191D01*
X109931020Y-66917822D01*
G36*
X109931020Y-66917822D02*
G01*
X109998810Y-66949680D01*
X110054366Y-67004770D01*
X110065881Y-67022016D01*
X110075432Y-67041562D01*
X110082206Y-67066198D01*
X110086819Y-67100711D01*
X110089888Y-67149889D01*
X110092029Y-67218519D01*
X110093859Y-67311389D01*
X110098404Y-67569007D01*
X110060225Y-67554491D01*
X110025268Y-67541156D01*
X109999097Y-67528323D01*
X109982013Y-67511780D01*
X109972086Y-67486465D01*
X109967386Y-67447316D01*
X109965982Y-67389268D01*
X109965943Y-67307261D01*
X109965744Y-67241895D01*
X109964559Y-67179173D01*
X109961729Y-67136334D01*
X109956609Y-67108220D01*
X109948553Y-67089675D01*
X109936914Y-67075543D01*
X109908303Y-67055600D01*
X109860239Y-67048083D01*
X109812688Y-67067079D01*
X109809550Y-67069511D01*
X109799769Y-67080748D01*
X109792553Y-67098770D01*
X109787299Y-67128026D01*
X109783402Y-67172962D01*
X109780256Y-67238028D01*
X109777257Y-67327670D01*
X109770000Y-67567697D01*
X109708314Y-67540044D01*
X109646629Y-67512391D01*
X109646629Y-67293246D01*
X109646884Y-67233711D01*
X109649086Y-67150892D01*
X109654661Y-67089227D01*
X109664941Y-67043748D01*
X109681258Y-67009484D01*
X109704943Y-66981466D01*
X109737328Y-66954723D01*
X109783907Y-66927780D01*
X109857287Y-66910191D01*
X109931020Y-66917822D01*
G37*
X108107691Y-66966467D02*
X108112273Y-66969003D01*
X108149704Y-66998057D01*
X108183170Y-67035410D01*
X108189007Y-67043852D01*
X108200165Y-67063553D01*
X108208136Y-67086935D01*
X108213618Y-67119067D01*
X108217307Y-67165019D01*
X108219899Y-67229859D01*
X108222092Y-67318657D01*
X108222402Y-67333669D01*
X108223400Y-67430999D01*
X108221994Y-67499934D01*
X108218164Y-67540948D01*
X108211889Y-67554514D01*
X108192898Y-67550452D01*
X108160638Y-67538144D01*
X108153041Y-67534545D01*
X108141176Y-67526398D01*
X108132994Y-67513004D01*
X108127643Y-67489608D01*
X108124269Y-67451455D01*
X108122019Y-67393790D01*
X108120040Y-67311857D01*
X108119498Y-67287907D01*
X108117403Y-67212266D01*
X108114683Y-67159328D01*
X108110515Y-67124075D01*
X108104079Y-67101487D01*
X108094550Y-67086544D01*
X108081106Y-67074227D01*
X108041305Y-67052634D01*
X107992341Y-67048476D01*
X107948529Y-67064999D01*
X107917008Y-67099210D01*
X107904914Y-67148114D01*
X107904578Y-67161407D01*
X107897972Y-67185472D01*
X107878470Y-67189144D01*
X107840283Y-67174813D01*
X107831438Y-67170217D01*
X107807534Y-67143186D01*
X107807061Y-67102994D01*
X107829836Y-67047409D01*
X107850727Y-67017117D01*
X107904142Y-66974084D01*
X107970074Y-66949755D01*
X108040574Y-66946443D01*
X108107691Y-66966467D01*
G36*
X108107691Y-66966467D02*
G01*
X108112273Y-66969003D01*
X108149704Y-66998057D01*
X108183170Y-67035410D01*
X108189007Y-67043852D01*
X108200165Y-67063553D01*
X108208136Y-67086935D01*
X108213618Y-67119067D01*
X108217307Y-67165019D01*
X108219899Y-67229859D01*
X108222092Y-67318657D01*
X108222402Y-67333669D01*
X108223400Y-67430999D01*
X108221994Y-67499934D01*
X108218164Y-67540948D01*
X108211889Y-67554514D01*
X108192898Y-67550452D01*
X108160638Y-67538144D01*
X108153041Y-67534545D01*
X108141176Y-67526398D01*
X108132994Y-67513004D01*
X108127643Y-67489608D01*
X108124269Y-67451455D01*
X108122019Y-67393790D01*
X108120040Y-67311857D01*
X108119498Y-67287907D01*
X108117403Y-67212266D01*
X108114683Y-67159328D01*
X108110515Y-67124075D01*
X108104079Y-67101487D01*
X108094550Y-67086544D01*
X108081106Y-67074227D01*
X108041305Y-67052634D01*
X107992341Y-67048476D01*
X107948529Y-67064999D01*
X107917008Y-67099210D01*
X107904914Y-67148114D01*
X107904578Y-67161407D01*
X107897972Y-67185472D01*
X107878470Y-67189144D01*
X107840283Y-67174813D01*
X107831438Y-67170217D01*
X107807534Y-67143186D01*
X107807061Y-67102994D01*
X107829836Y-67047409D01*
X107850727Y-67017117D01*
X107904142Y-66974084D01*
X107970074Y-66949755D01*
X108040574Y-66946443D01*
X108107691Y-66966467D01*
G37*
X107153941Y-66949282D02*
X107185774Y-66961758D01*
X107222743Y-66978602D01*
X107222743Y-67465196D01*
X107176812Y-67511127D01*
X107166320Y-67521427D01*
X107137255Y-67544320D01*
X107107943Y-67551735D01*
X107064326Y-67548321D01*
X107046568Y-67546114D01*
X107000767Y-67541445D01*
X106968743Y-67539585D01*
X106959244Y-67539869D01*
X106920274Y-67542948D01*
X106873160Y-67548321D01*
X106858085Y-67550168D01*
X106820110Y-67550893D01*
X106792325Y-67539429D01*
X106760674Y-67511127D01*
X106714743Y-67465196D01*
X106714743Y-67205055D01*
X106715101Y-67128180D01*
X106716216Y-67054886D01*
X106717952Y-66996850D01*
X106720167Y-66958663D01*
X106722721Y-66944914D01*
X106723256Y-66944951D01*
X106741808Y-66951793D01*
X106773153Y-66966868D01*
X106815608Y-66988822D01*
X106819604Y-67217240D01*
X106823600Y-67445657D01*
X106910686Y-67445657D01*
X106914657Y-67195286D01*
X106915916Y-67127227D01*
X106917718Y-67054482D01*
X106919671Y-66996730D01*
X106921612Y-66958648D01*
X106923377Y-66944914D01*
X106923885Y-66944962D01*
X106941482Y-66950015D01*
X106973834Y-66960849D01*
X107019543Y-66976783D01*
X107019765Y-67196706D01*
X107019988Y-67234909D01*
X107021531Y-67309146D01*
X107024292Y-67371145D01*
X107027977Y-67415308D01*
X107032292Y-67436041D01*
X107047732Y-67447131D01*
X107079241Y-67450556D01*
X107113886Y-67445657D01*
X107117857Y-67195286D01*
X107119278Y-67131663D01*
X107122225Y-67056356D01*
X107126079Y-66997286D01*
X107130542Y-66958718D01*
X107135317Y-66944914D01*
X107153941Y-66949282D01*
G36*
X107153941Y-66949282D02*
G01*
X107185774Y-66961758D01*
X107222743Y-66978602D01*
X107222743Y-67465196D01*
X107176812Y-67511127D01*
X107166320Y-67521427D01*
X107137255Y-67544320D01*
X107107943Y-67551735D01*
X107064326Y-67548321D01*
X107046568Y-67546114D01*
X107000767Y-67541445D01*
X106968743Y-67539585D01*
X106959244Y-67539869D01*
X106920274Y-67542948D01*
X106873160Y-67548321D01*
X106858085Y-67550168D01*
X106820110Y-67550893D01*
X106792325Y-67539429D01*
X106760674Y-67511127D01*
X106714743Y-67465196D01*
X106714743Y-67205055D01*
X106715101Y-67128180D01*
X106716216Y-67054886D01*
X106717952Y-66996850D01*
X106720167Y-66958663D01*
X106722721Y-66944914D01*
X106723256Y-66944951D01*
X106741808Y-66951793D01*
X106773153Y-66966868D01*
X106815608Y-66988822D01*
X106819604Y-67217240D01*
X106823600Y-67445657D01*
X106910686Y-67445657D01*
X106914657Y-67195286D01*
X106915916Y-67127227D01*
X106917718Y-67054482D01*
X106919671Y-66996730D01*
X106921612Y-66958648D01*
X106923377Y-66944914D01*
X106923885Y-66944962D01*
X106941482Y-66950015D01*
X106973834Y-66960849D01*
X107019543Y-66976783D01*
X107019765Y-67196706D01*
X107019988Y-67234909D01*
X107021531Y-67309146D01*
X107024292Y-67371145D01*
X107027977Y-67415308D01*
X107032292Y-67436041D01*
X107047732Y-67447131D01*
X107079241Y-67450556D01*
X107113886Y-67445657D01*
X107117857Y-67195286D01*
X107119278Y-67131663D01*
X107122225Y-67056356D01*
X107126079Y-66997286D01*
X107130542Y-66958718D01*
X107135317Y-66944914D01*
X107153941Y-66949282D01*
G37*
X109178543Y-66749444D02*
X109225714Y-66769342D01*
X109225714Y-67166509D01*
X109225519Y-67269498D01*
X109224998Y-67362141D01*
X109224199Y-67440700D01*
X109223172Y-67501439D01*
X109221963Y-67540623D01*
X109220623Y-67554514D01*
X109220099Y-67554468D01*
X109202287Y-67549420D01*
X109169823Y-67538580D01*
X109124114Y-67522646D01*
X109124114Y-67318173D01*
X109123824Y-67237832D01*
X109122474Y-67179562D01*
X109119369Y-67139909D01*
X109113812Y-67113618D01*
X109105107Y-67095436D01*
X109092556Y-67080107D01*
X109083999Y-67071955D01*
X109037728Y-67049375D01*
X108986728Y-67051375D01*
X108939993Y-67078073D01*
X108933189Y-67084698D01*
X108922293Y-67098456D01*
X108914836Y-67116642D01*
X108910169Y-67144177D01*
X108907642Y-67185981D01*
X108906602Y-67246973D01*
X108906400Y-67332073D01*
X108906303Y-67375234D01*
X108905674Y-67446224D01*
X108904556Y-67503076D01*
X108903063Y-67540828D01*
X108901309Y-67554514D01*
X108900785Y-67554468D01*
X108882973Y-67549420D01*
X108850509Y-67538580D01*
X108804800Y-67522646D01*
X108804823Y-67317237D01*
X108804857Y-67298951D01*
X108806778Y-67203626D01*
X108812678Y-67131543D01*
X108824001Y-67077813D01*
X108842187Y-67037549D01*
X108868679Y-67005861D01*
X108904918Y-66977861D01*
X108940263Y-66960333D01*
X108996773Y-66946785D01*
X109052356Y-66946015D01*
X109095086Y-66959195D01*
X109098298Y-66961015D01*
X109108205Y-66960820D01*
X109114975Y-66945572D01*
X109119861Y-66910613D01*
X109124114Y-66851289D01*
X109131371Y-66729547D01*
X109178543Y-66749444D01*
G36*
X109178543Y-66749444D02*
G01*
X109225714Y-66769342D01*
X109225714Y-67166509D01*
X109225519Y-67269498D01*
X109224998Y-67362141D01*
X109224199Y-67440700D01*
X109223172Y-67501439D01*
X109221963Y-67540623D01*
X109220623Y-67554514D01*
X109220099Y-67554468D01*
X109202287Y-67549420D01*
X109169823Y-67538580D01*
X109124114Y-67522646D01*
X109124114Y-67318173D01*
X109123824Y-67237832D01*
X109122474Y-67179562D01*
X109119369Y-67139909D01*
X109113812Y-67113618D01*
X109105107Y-67095436D01*
X109092556Y-67080107D01*
X109083999Y-67071955D01*
X109037728Y-67049375D01*
X108986728Y-67051375D01*
X108939993Y-67078073D01*
X108933189Y-67084698D01*
X108922293Y-67098456D01*
X108914836Y-67116642D01*
X108910169Y-67144177D01*
X108907642Y-67185981D01*
X108906602Y-67246973D01*
X108906400Y-67332073D01*
X108906303Y-67375234D01*
X108905674Y-67446224D01*
X108904556Y-67503076D01*
X108903063Y-67540828D01*
X108901309Y-67554514D01*
X108900785Y-67554468D01*
X108882973Y-67549420D01*
X108850509Y-67538580D01*
X108804800Y-67522646D01*
X108804823Y-67317237D01*
X108804857Y-67298951D01*
X108806778Y-67203626D01*
X108812678Y-67131543D01*
X108824001Y-67077813D01*
X108842187Y-67037549D01*
X108868679Y-67005861D01*
X108904918Y-66977861D01*
X108940263Y-66960333D01*
X108996773Y-66946785D01*
X109052356Y-66946015D01*
X109095086Y-66959195D01*
X109098298Y-66961015D01*
X109108205Y-66960820D01*
X109114975Y-66945572D01*
X109119861Y-66910613D01*
X109124114Y-66851289D01*
X109131371Y-66729547D01*
X109178543Y-66749444D01*
G37*
X111765714Y-67235200D02*
X111765701Y-67250935D01*
X111764914Y-67321119D01*
X111762210Y-67370022D01*
X111756606Y-67404178D01*
X111747119Y-67430124D01*
X111732768Y-67454397D01*
X111729237Y-67459433D01*
X111691878Y-67499143D01*
X111649311Y-67529092D01*
X111627452Y-67538810D01*
X111548908Y-67555020D01*
X111471231Y-67544535D01*
X111399645Y-67508707D01*
X111339374Y-67448887D01*
X111334286Y-67440873D01*
X111317730Y-67394342D01*
X111306573Y-67329552D01*
X111301160Y-67254727D01*
X111301768Y-67185513D01*
X111448248Y-67185513D01*
X111449402Y-67281399D01*
X111449866Y-67287569D01*
X111456629Y-67340478D01*
X111468671Y-67374029D01*
X111489005Y-67397016D01*
X111523097Y-67418548D01*
X111556814Y-67419680D01*
X111591543Y-67394857D01*
X111597584Y-67388325D01*
X111609417Y-67368779D01*
X111616404Y-67340386D01*
X111619727Y-67296430D01*
X111620571Y-67230192D01*
X111619125Y-67168150D01*
X111611907Y-67109042D01*
X111597006Y-67071686D01*
X111572636Y-67052152D01*
X111537008Y-67046514D01*
X111523440Y-67047635D01*
X111485430Y-67068194D01*
X111460312Y-67114299D01*
X111448248Y-67185513D01*
X111301768Y-67185513D01*
X111301833Y-67178096D01*
X111308937Y-67107882D01*
X111322815Y-67052312D01*
X111340649Y-67015301D01*
X111390855Y-66957733D01*
X111458885Y-66921962D01*
X111542158Y-66909665D01*
X111564398Y-66910331D01*
X111629891Y-66923947D01*
X111683687Y-66958249D01*
X111733057Y-67017338D01*
X111735995Y-67021722D01*
X111749287Y-67045299D01*
X111757932Y-67071949D01*
X111762904Y-67108159D01*
X111765174Y-67160413D01*
X111765678Y-67230192D01*
X111765714Y-67235200D01*
G36*
X111765714Y-67235200D02*
G01*
X111765701Y-67250935D01*
X111764914Y-67321119D01*
X111762210Y-67370022D01*
X111756606Y-67404178D01*
X111747119Y-67430124D01*
X111732768Y-67454397D01*
X111729237Y-67459433D01*
X111691878Y-67499143D01*
X111649311Y-67529092D01*
X111627452Y-67538810D01*
X111548908Y-67555020D01*
X111471231Y-67544535D01*
X111399645Y-67508707D01*
X111339374Y-67448887D01*
X111334286Y-67440873D01*
X111317730Y-67394342D01*
X111306573Y-67329552D01*
X111301160Y-67254727D01*
X111301768Y-67185513D01*
X111448248Y-67185513D01*
X111449402Y-67281399D01*
X111449866Y-67287569D01*
X111456629Y-67340478D01*
X111468671Y-67374029D01*
X111489005Y-67397016D01*
X111523097Y-67418548D01*
X111556814Y-67419680D01*
X111591543Y-67394857D01*
X111597584Y-67388325D01*
X111609417Y-67368779D01*
X111616404Y-67340386D01*
X111619727Y-67296430D01*
X111620571Y-67230192D01*
X111619125Y-67168150D01*
X111611907Y-67109042D01*
X111597006Y-67071686D01*
X111572636Y-67052152D01*
X111537008Y-67046514D01*
X111523440Y-67047635D01*
X111485430Y-67068194D01*
X111460312Y-67114299D01*
X111448248Y-67185513D01*
X111301768Y-67185513D01*
X111301833Y-67178096D01*
X111308937Y-67107882D01*
X111322815Y-67052312D01*
X111340649Y-67015301D01*
X111390855Y-66957733D01*
X111458885Y-66921962D01*
X111542158Y-66909665D01*
X111564398Y-66910331D01*
X111629891Y-66923947D01*
X111683687Y-66958249D01*
X111733057Y-67017338D01*
X111735995Y-67021722D01*
X111749287Y-67045299D01*
X111757932Y-67071949D01*
X111762904Y-67108159D01*
X111765174Y-67160413D01*
X111765678Y-67230192D01*
X111765714Y-67235200D01*
G37*
X105640590Y-67252622D02*
X105640307Y-67291305D01*
X105636762Y-67367521D01*
X105627483Y-67423294D01*
X105610375Y-67464613D01*
X105583344Y-67497467D01*
X105544292Y-67527846D01*
X105519445Y-67541660D01*
X105479615Y-67550965D01*
X105423665Y-67550230D01*
X105392385Y-67547283D01*
X105354653Y-67538283D01*
X105324494Y-67518720D01*
X105289408Y-67482267D01*
X105284720Y-67476943D01*
X105253177Y-67435969D01*
X105238128Y-67400283D01*
X105234286Y-67357966D01*
X105234286Y-67295779D01*
X105277742Y-67312182D01*
X105309424Y-67331356D01*
X105336962Y-67376347D01*
X105342711Y-67390752D01*
X105374855Y-67431546D01*
X105418611Y-67452081D01*
X105466254Y-67450235D01*
X105510057Y-67423886D01*
X105525111Y-67407455D01*
X105538763Y-67382667D01*
X105534493Y-67360144D01*
X105509916Y-67336964D01*
X105462651Y-67310202D01*
X105390314Y-67276934D01*
X105241543Y-67211816D01*
X105237595Y-67147308D01*
X105239079Y-67106220D01*
X105336010Y-67106220D01*
X105343368Y-67131657D01*
X105376848Y-67158814D01*
X105437614Y-67189714D01*
X105447669Y-67194190D01*
X105495751Y-67215017D01*
X105531726Y-67229665D01*
X105548444Y-67235200D01*
X105550977Y-67231126D01*
X105551993Y-67206247D01*
X105548369Y-67166257D01*
X105539242Y-67127152D01*
X105510773Y-67077884D01*
X105469678Y-67050122D01*
X105420590Y-67046364D01*
X105368144Y-67069109D01*
X105353609Y-67080481D01*
X105336010Y-67106220D01*
X105239079Y-67106220D01*
X105239338Y-67099064D01*
X105261281Y-67038096D01*
X105288979Y-67004497D01*
X105346405Y-66966966D01*
X105414527Y-66948006D01*
X105484947Y-66949507D01*
X105549267Y-66973355D01*
X105563426Y-66982513D01*
X105595904Y-67010849D01*
X105618116Y-67046695D01*
X105631804Y-67095384D01*
X105638715Y-67162249D01*
X105639628Y-67206247D01*
X105640590Y-67252622D01*
G36*
X105640590Y-67252622D02*
G01*
X105640307Y-67291305D01*
X105636762Y-67367521D01*
X105627483Y-67423294D01*
X105610375Y-67464613D01*
X105583344Y-67497467D01*
X105544292Y-67527846D01*
X105519445Y-67541660D01*
X105479615Y-67550965D01*
X105423665Y-67550230D01*
X105392385Y-67547283D01*
X105354653Y-67538283D01*
X105324494Y-67518720D01*
X105289408Y-67482267D01*
X105284720Y-67476943D01*
X105253177Y-67435969D01*
X105238128Y-67400283D01*
X105234286Y-67357966D01*
X105234286Y-67295779D01*
X105277742Y-67312182D01*
X105309424Y-67331356D01*
X105336962Y-67376347D01*
X105342711Y-67390752D01*
X105374855Y-67431546D01*
X105418611Y-67452081D01*
X105466254Y-67450235D01*
X105510057Y-67423886D01*
X105525111Y-67407455D01*
X105538763Y-67382667D01*
X105534493Y-67360144D01*
X105509916Y-67336964D01*
X105462651Y-67310202D01*
X105390314Y-67276934D01*
X105241543Y-67211816D01*
X105237595Y-67147308D01*
X105239079Y-67106220D01*
X105336010Y-67106220D01*
X105343368Y-67131657D01*
X105376848Y-67158814D01*
X105437614Y-67189714D01*
X105447669Y-67194190D01*
X105495751Y-67215017D01*
X105531726Y-67229665D01*
X105548444Y-67235200D01*
X105550977Y-67231126D01*
X105551993Y-67206247D01*
X105548369Y-67166257D01*
X105539242Y-67127152D01*
X105510773Y-67077884D01*
X105469678Y-67050122D01*
X105420590Y-67046364D01*
X105368144Y-67069109D01*
X105353609Y-67080481D01*
X105336010Y-67106220D01*
X105239079Y-67106220D01*
X105239338Y-67099064D01*
X105261281Y-67038096D01*
X105288979Y-67004497D01*
X105346405Y-66966966D01*
X105414527Y-66948006D01*
X105484947Y-66949507D01*
X105549267Y-66973355D01*
X105563426Y-66982513D01*
X105595904Y-67010849D01*
X105618116Y-67046695D01*
X105631804Y-67095384D01*
X105638715Y-67162249D01*
X105639628Y-67206247D01*
X105640590Y-67252622D01*
G37*
X107730698Y-67249714D02*
X107729537Y-67306313D01*
X107721345Y-67383462D01*
X107703519Y-67441276D01*
X107673975Y-67485422D01*
X107630625Y-67521568D01*
X107589332Y-67542463D01*
X107519987Y-67554090D01*
X107450736Y-67541377D01*
X107388145Y-67505945D01*
X107338779Y-67449418D01*
X107332818Y-67438995D01*
X107324945Y-67420733D01*
X107319106Y-67397429D01*
X107314999Y-67365085D01*
X107312325Y-67319704D01*
X107310781Y-67257287D01*
X107310734Y-67251748D01*
X107411429Y-67251748D01*
X107411772Y-67304577D01*
X107413942Y-67352362D01*
X107419307Y-67383209D01*
X107429217Y-67403935D01*
X107445021Y-67421356D01*
X107448724Y-67424705D01*
X107496299Y-67449419D01*
X107546635Y-67446890D01*
X107593517Y-67417288D01*
X107607477Y-67401953D01*
X107619160Y-67381622D01*
X107625686Y-67353514D01*
X107628524Y-67310550D01*
X107629143Y-67245647D01*
X107628837Y-67196122D01*
X107626722Y-67147782D01*
X107621390Y-67116587D01*
X107611460Y-67095647D01*
X107595550Y-67078073D01*
X107586204Y-67070159D01*
X107537776Y-67048843D01*
X107487040Y-67052198D01*
X107442987Y-67080107D01*
X107433504Y-67091173D01*
X107421939Y-67112009D01*
X107415252Y-67141106D01*
X107412173Y-67185381D01*
X107411429Y-67251748D01*
X107310734Y-67251748D01*
X107310067Y-67173837D01*
X107309883Y-67065358D01*
X107309829Y-66728601D01*
X107357000Y-66748362D01*
X107369472Y-66753770D01*
X107389324Y-66765985D01*
X107400687Y-66784482D01*
X107406933Y-66816829D01*
X107411429Y-66870593D01*
X107415535Y-66918866D01*
X107420963Y-66950557D01*
X107428739Y-66962383D01*
X107440457Y-66959212D01*
X107470318Y-66948067D01*
X107523684Y-66945304D01*
X107581093Y-66955625D01*
X107630625Y-66977861D01*
X107657876Y-66998443D01*
X107692865Y-67038600D01*
X107715274Y-67090086D01*
X107727190Y-67158568D01*
X107730542Y-67245647D01*
X107730698Y-67249714D01*
G36*
X107730698Y-67249714D02*
G01*
X107729537Y-67306313D01*
X107721345Y-67383462D01*
X107703519Y-67441276D01*
X107673975Y-67485422D01*
X107630625Y-67521568D01*
X107589332Y-67542463D01*
X107519987Y-67554090D01*
X107450736Y-67541377D01*
X107388145Y-67505945D01*
X107338779Y-67449418D01*
X107332818Y-67438995D01*
X107324945Y-67420733D01*
X107319106Y-67397429D01*
X107314999Y-67365085D01*
X107312325Y-67319704D01*
X107310781Y-67257287D01*
X107310734Y-67251748D01*
X107411429Y-67251748D01*
X107411772Y-67304577D01*
X107413942Y-67352362D01*
X107419307Y-67383209D01*
X107429217Y-67403935D01*
X107445021Y-67421356D01*
X107448724Y-67424705D01*
X107496299Y-67449419D01*
X107546635Y-67446890D01*
X107593517Y-67417288D01*
X107607477Y-67401953D01*
X107619160Y-67381622D01*
X107625686Y-67353514D01*
X107628524Y-67310550D01*
X107629143Y-67245647D01*
X107628837Y-67196122D01*
X107626722Y-67147782D01*
X107621390Y-67116587D01*
X107611460Y-67095647D01*
X107595550Y-67078073D01*
X107586204Y-67070159D01*
X107537776Y-67048843D01*
X107487040Y-67052198D01*
X107442987Y-67080107D01*
X107433504Y-67091173D01*
X107421939Y-67112009D01*
X107415252Y-67141106D01*
X107412173Y-67185381D01*
X107411429Y-67251748D01*
X107310734Y-67251748D01*
X107310067Y-67173837D01*
X107309883Y-67065358D01*
X107309829Y-66728601D01*
X107357000Y-66748362D01*
X107369472Y-66753770D01*
X107389324Y-66765985D01*
X107400687Y-66784482D01*
X107406933Y-66816829D01*
X107411429Y-66870593D01*
X107415535Y-66918866D01*
X107420963Y-66950557D01*
X107428739Y-66962383D01*
X107440457Y-66959212D01*
X107470318Y-66948067D01*
X107523684Y-66945304D01*
X107581093Y-66955625D01*
X107630625Y-66977861D01*
X107657876Y-66998443D01*
X107692865Y-67038600D01*
X107715274Y-67090086D01*
X107727190Y-67158568D01*
X107730542Y-67245647D01*
X107730698Y-67249714D01*
G37*
X110662299Y-67194055D02*
X110657684Y-67304078D01*
X110655078Y-67327387D01*
X110635660Y-67410352D01*
X110600573Y-67473448D01*
X110547212Y-67521808D01*
X110544196Y-67523804D01*
X110476362Y-67552185D01*
X110405535Y-67554711D01*
X110337289Y-67533097D01*
X110277196Y-67489062D01*
X110230829Y-67424322D01*
X110230050Y-67422761D01*
X110214643Y-67382558D01*
X110203357Y-67336866D01*
X110197370Y-67293972D01*
X110197861Y-67262160D01*
X110206007Y-67249714D01*
X110213244Y-67250471D01*
X110247851Y-67264235D01*
X110287078Y-67289546D01*
X110320448Y-67318845D01*
X110337483Y-67344572D01*
X110355192Y-67379471D01*
X110391485Y-67411212D01*
X110433630Y-67423886D01*
X110449077Y-67420221D01*
X110479569Y-67401774D01*
X110506128Y-67376166D01*
X110517486Y-67352934D01*
X110517482Y-67352848D01*
X110504596Y-67342179D01*
X110470241Y-67322933D01*
X110419593Y-67297813D01*
X110357829Y-67269524D01*
X110357489Y-67269374D01*
X110290388Y-67239498D01*
X110245411Y-67217973D01*
X110218145Y-67201437D01*
X110204178Y-67186531D01*
X110199097Y-67169893D01*
X110198490Y-67148162D01*
X110202712Y-67107013D01*
X110346000Y-67107013D01*
X110360791Y-67119949D01*
X110397644Y-67139333D01*
X110398725Y-67139881D01*
X110442205Y-67160587D01*
X110481102Y-67177105D01*
X110505778Y-67184093D01*
X110515676Y-67174753D01*
X110517486Y-67142748D01*
X110509966Y-67102915D01*
X110483897Y-67066717D01*
X110446154Y-67047950D01*
X110404077Y-67049845D01*
X110365005Y-67075632D01*
X110349647Y-67093451D01*
X110346000Y-67107013D01*
X110202712Y-67107013D01*
X110203833Y-67096086D01*
X110230251Y-67025335D01*
X110274473Y-66969735D01*
X110331697Y-66931239D01*
X110397120Y-66911797D01*
X110465937Y-66913359D01*
X110533347Y-66937878D01*
X110594544Y-66987302D01*
X110628450Y-67036212D01*
X110652806Y-67106027D01*
X110656767Y-67142748D01*
X110662299Y-67194055D01*
G36*
X110662299Y-67194055D02*
G01*
X110657684Y-67304078D01*
X110655078Y-67327387D01*
X110635660Y-67410352D01*
X110600573Y-67473448D01*
X110547212Y-67521808D01*
X110544196Y-67523804D01*
X110476362Y-67552185D01*
X110405535Y-67554711D01*
X110337289Y-67533097D01*
X110277196Y-67489062D01*
X110230829Y-67424322D01*
X110230050Y-67422761D01*
X110214643Y-67382558D01*
X110203357Y-67336866D01*
X110197370Y-67293972D01*
X110197861Y-67262160D01*
X110206007Y-67249714D01*
X110213244Y-67250471D01*
X110247851Y-67264235D01*
X110287078Y-67289546D01*
X110320448Y-67318845D01*
X110337483Y-67344572D01*
X110355192Y-67379471D01*
X110391485Y-67411212D01*
X110433630Y-67423886D01*
X110449077Y-67420221D01*
X110479569Y-67401774D01*
X110506128Y-67376166D01*
X110517486Y-67352934D01*
X110517482Y-67352848D01*
X110504596Y-67342179D01*
X110470241Y-67322933D01*
X110419593Y-67297813D01*
X110357829Y-67269524D01*
X110357489Y-67269374D01*
X110290388Y-67239498D01*
X110245411Y-67217973D01*
X110218145Y-67201437D01*
X110204178Y-67186531D01*
X110199097Y-67169893D01*
X110198490Y-67148162D01*
X110202712Y-67107013D01*
X110346000Y-67107013D01*
X110360791Y-67119949D01*
X110397644Y-67139333D01*
X110398725Y-67139881D01*
X110442205Y-67160587D01*
X110481102Y-67177105D01*
X110505778Y-67184093D01*
X110515676Y-67174753D01*
X110517486Y-67142748D01*
X110509966Y-67102915D01*
X110483897Y-67066717D01*
X110446154Y-67047950D01*
X110404077Y-67049845D01*
X110365005Y-67075632D01*
X110349647Y-67093451D01*
X110346000Y-67107013D01*
X110202712Y-67107013D01*
X110203833Y-67096086D01*
X110230251Y-67025335D01*
X110274473Y-66969735D01*
X110331697Y-66931239D01*
X110397120Y-66911797D01*
X110465937Y-66913359D01*
X110533347Y-66937878D01*
X110594544Y-66987302D01*
X110628450Y-67036212D01*
X110652806Y-67106027D01*
X110656767Y-67142748D01*
X110662299Y-67194055D01*
G37*
X108589483Y-66960569D02*
X108639376Y-66989661D01*
X108661325Y-67012327D01*
X108703504Y-67080082D01*
X108717714Y-67153950D01*
X108717714Y-67204770D01*
X108670999Y-67185128D01*
X108638692Y-67165308D01*
X108613231Y-67124160D01*
X108610616Y-67115675D01*
X108582478Y-67072451D01*
X108540067Y-67049103D01*
X108491370Y-67048100D01*
X108444373Y-67071914D01*
X108437357Y-67078056D01*
X108413893Y-67104745D01*
X108410019Y-67128014D01*
X108427768Y-67150862D01*
X108469179Y-67176287D01*
X108536286Y-67207288D01*
X108540824Y-67209252D01*
X108615322Y-67243990D01*
X108666203Y-67274763D01*
X108697525Y-67305488D01*
X108713343Y-67340082D01*
X108717714Y-67382462D01*
X108711986Y-67429446D01*
X108683062Y-67489585D01*
X108632178Y-67532788D01*
X108595374Y-67545759D01*
X108543434Y-67552856D01*
X108492999Y-67551340D01*
X108456983Y-67540632D01*
X108453158Y-67537966D01*
X108442998Y-67519337D01*
X108450048Y-67486505D01*
X108462297Y-67460735D01*
X108481939Y-67450006D01*
X108519191Y-67450539D01*
X108570908Y-67447462D01*
X108604701Y-67426212D01*
X108616114Y-67386877D01*
X108616104Y-67385747D01*
X108609187Y-67362913D01*
X108585659Y-67341963D01*
X108539914Y-67317815D01*
X108477704Y-67288741D01*
X108436499Y-67272925D01*
X108412712Y-67273944D01*
X108401597Y-67294837D01*
X108398408Y-67338641D01*
X108398400Y-67408393D01*
X108398044Y-67451452D01*
X108396413Y-67504626D01*
X108393761Y-67541022D01*
X108390422Y-67554514D01*
X108389530Y-67554423D01*
X108370237Y-67547110D01*
X108338284Y-67531678D01*
X108294124Y-67508842D01*
X108299371Y-67303078D01*
X108299736Y-67289432D01*
X108303904Y-67193651D01*
X108311268Y-67121462D01*
X108323330Y-67068058D01*
X108341593Y-67028633D01*
X108367560Y-66998380D01*
X108402733Y-66972493D01*
X108403384Y-66972087D01*
X108460256Y-66950968D01*
X108526033Y-66947400D01*
X108589483Y-66960569D01*
G36*
X108589483Y-66960569D02*
G01*
X108639376Y-66989661D01*
X108661325Y-67012327D01*
X108703504Y-67080082D01*
X108717714Y-67153950D01*
X108717714Y-67204770D01*
X108670999Y-67185128D01*
X108638692Y-67165308D01*
X108613231Y-67124160D01*
X108610616Y-67115675D01*
X108582478Y-67072451D01*
X108540067Y-67049103D01*
X108491370Y-67048100D01*
X108444373Y-67071914D01*
X108437357Y-67078056D01*
X108413893Y-67104745D01*
X108410019Y-67128014D01*
X108427768Y-67150862D01*
X108469179Y-67176287D01*
X108536286Y-67207288D01*
X108540824Y-67209252D01*
X108615322Y-67243990D01*
X108666203Y-67274763D01*
X108697525Y-67305488D01*
X108713343Y-67340082D01*
X108717714Y-67382462D01*
X108711986Y-67429446D01*
X108683062Y-67489585D01*
X108632178Y-67532788D01*
X108595374Y-67545759D01*
X108543434Y-67552856D01*
X108492999Y-67551340D01*
X108456983Y-67540632D01*
X108453158Y-67537966D01*
X108442998Y-67519337D01*
X108450048Y-67486505D01*
X108462297Y-67460735D01*
X108481939Y-67450006D01*
X108519191Y-67450539D01*
X108570908Y-67447462D01*
X108604701Y-67426212D01*
X108616114Y-67386877D01*
X108616104Y-67385747D01*
X108609187Y-67362913D01*
X108585659Y-67341963D01*
X108539914Y-67317815D01*
X108477704Y-67288741D01*
X108436499Y-67272925D01*
X108412712Y-67273944D01*
X108401597Y-67294837D01*
X108398408Y-67338641D01*
X108398400Y-67408393D01*
X108398044Y-67451452D01*
X108396413Y-67504626D01*
X108393761Y-67541022D01*
X108390422Y-67554514D01*
X108389530Y-67554423D01*
X108370237Y-67547110D01*
X108338284Y-67531678D01*
X108294124Y-67508842D01*
X108299371Y-67303078D01*
X108299736Y-67289432D01*
X108303904Y-67193651D01*
X108311268Y-67121462D01*
X108323330Y-67068058D01*
X108341593Y-67028633D01*
X108367560Y-66998380D01*
X108402733Y-66972493D01*
X108403384Y-66972087D01*
X108460256Y-66950968D01*
X108526033Y-66947400D01*
X108589483Y-66960569D01*
G37*
X106467495Y-66946220D02*
X106498599Y-66954121D01*
X106527559Y-66973817D01*
X106564831Y-67010484D01*
X106588801Y-67036378D01*
X106613770Y-67069997D01*
X106625031Y-67101506D01*
X106627657Y-67141485D01*
X106627657Y-67206917D01*
X106583035Y-67183842D01*
X106547673Y-67155724D01*
X106523451Y-67117848D01*
X106519291Y-67107551D01*
X106487594Y-67067637D01*
X106443554Y-67047624D01*
X106395531Y-67049572D01*
X106351886Y-67075543D01*
X106333420Y-67096635D01*
X106322663Y-67123619D01*
X106334178Y-67147634D01*
X106369981Y-67171791D01*
X106432090Y-67199199D01*
X106441515Y-67202985D01*
X106498058Y-67227759D01*
X106546580Y-67252189D01*
X106577451Y-67271486D01*
X106608371Y-67305953D01*
X106628927Y-67360957D01*
X106626744Y-67419983D01*
X106602424Y-67475845D01*
X106556568Y-67521355D01*
X106519438Y-67540727D01*
X106447711Y-67554292D01*
X106407852Y-67552462D01*
X106370953Y-67542568D01*
X106356797Y-67521806D01*
X106362091Y-67487613D01*
X106363631Y-67483092D01*
X106375842Y-67459116D01*
X106396174Y-67450042D01*
X106434908Y-67450649D01*
X106462257Y-67451474D01*
X106494257Y-67444392D01*
X106516182Y-67423219D01*
X106528670Y-67397152D01*
X106530062Y-67369845D01*
X106529998Y-67369685D01*
X106513807Y-67354930D01*
X106479155Y-67333457D01*
X106434321Y-67309458D01*
X106387582Y-67287125D01*
X106347217Y-67270652D01*
X106321504Y-67264229D01*
X106317679Y-67270518D01*
X106312864Y-67300115D01*
X106309566Y-67348447D01*
X106308343Y-67409372D01*
X106308058Y-67451542D01*
X106306718Y-67504653D01*
X106304528Y-67541025D01*
X106301769Y-67554514D01*
X106287344Y-67549981D01*
X106258226Y-67537670D01*
X106221257Y-67520826D01*
X106221257Y-67304721D01*
X106221493Y-67249327D01*
X106223729Y-67165207D01*
X106229423Y-67102800D01*
X106239903Y-67057358D01*
X106256497Y-67024133D01*
X106280531Y-66998378D01*
X106313333Y-66975344D01*
X106355124Y-66956335D01*
X106432287Y-66944914D01*
X106467495Y-66946220D01*
G36*
X106467495Y-66946220D02*
G01*
X106498599Y-66954121D01*
X106527559Y-66973817D01*
X106564831Y-67010484D01*
X106588801Y-67036378D01*
X106613770Y-67069997D01*
X106625031Y-67101506D01*
X106627657Y-67141485D01*
X106627657Y-67206917D01*
X106583035Y-67183842D01*
X106547673Y-67155724D01*
X106523451Y-67117848D01*
X106519291Y-67107551D01*
X106487594Y-67067637D01*
X106443554Y-67047624D01*
X106395531Y-67049572D01*
X106351886Y-67075543D01*
X106333420Y-67096635D01*
X106322663Y-67123619D01*
X106334178Y-67147634D01*
X106369981Y-67171791D01*
X106432090Y-67199199D01*
X106441515Y-67202985D01*
X106498058Y-67227759D01*
X106546580Y-67252189D01*
X106577451Y-67271486D01*
X106608371Y-67305953D01*
X106628927Y-67360957D01*
X106626744Y-67419983D01*
X106602424Y-67475845D01*
X106556568Y-67521355D01*
X106519438Y-67540727D01*
X106447711Y-67554292D01*
X106407852Y-67552462D01*
X106370953Y-67542568D01*
X106356797Y-67521806D01*
X106362091Y-67487613D01*
X106363631Y-67483092D01*
X106375842Y-67459116D01*
X106396174Y-67450042D01*
X106434908Y-67450649D01*
X106462257Y-67451474D01*
X106494257Y-67444392D01*
X106516182Y-67423219D01*
X106528670Y-67397152D01*
X106530062Y-67369845D01*
X106529998Y-67369685D01*
X106513807Y-67354930D01*
X106479155Y-67333457D01*
X106434321Y-67309458D01*
X106387582Y-67287125D01*
X106347217Y-67270652D01*
X106321504Y-67264229D01*
X106317679Y-67270518D01*
X106312864Y-67300115D01*
X106309566Y-67348447D01*
X106308343Y-67409372D01*
X106308058Y-67451542D01*
X106306718Y-67504653D01*
X106304528Y-67541025D01*
X106301769Y-67554514D01*
X106287344Y-67549981D01*
X106258226Y-67537670D01*
X106221257Y-67520826D01*
X106221257Y-67304721D01*
X106221493Y-67249327D01*
X106223729Y-67165207D01*
X106229423Y-67102800D01*
X106239903Y-67057358D01*
X106256497Y-67024133D01*
X106280531Y-66998378D01*
X106313333Y-66975344D01*
X106355124Y-66956335D01*
X106432287Y-66944914D01*
X106467495Y-66946220D01*
G37*
X111209815Y-67301524D02*
X111211252Y-67413000D01*
X111211651Y-67445339D01*
X111212929Y-67553455D01*
X111213185Y-67636186D01*
X111211634Y-67696426D01*
X111207490Y-67737073D01*
X111199964Y-67761023D01*
X111188271Y-67771171D01*
X111171624Y-67770414D01*
X111149236Y-67761648D01*
X111120321Y-67747769D01*
X111114142Y-67744808D01*
X111088413Y-67730311D01*
X111074976Y-67713065D01*
X111069834Y-67684308D01*
X111068990Y-67635283D01*
X111068952Y-67547257D01*
X110978276Y-67547257D01*
X110922498Y-67544815D01*
X110878640Y-67534908D01*
X110842218Y-67514886D01*
X110839503Y-67512929D01*
X110802546Y-67479869D01*
X110776826Y-67439931D01*
X110760606Y-67387657D01*
X110752148Y-67317588D01*
X110750083Y-67238430D01*
X110894857Y-67238430D01*
X110894882Y-67251697D01*
X110896261Y-67311584D01*
X110900687Y-67350732D01*
X110909461Y-67376153D01*
X110923886Y-67394857D01*
X110924784Y-67395750D01*
X110960237Y-67419952D01*
X110994596Y-67417567D01*
X111033403Y-67388260D01*
X111042895Y-67378244D01*
X111056876Y-67357708D01*
X111064760Y-67330997D01*
X111068245Y-67290499D01*
X111069029Y-67228603D01*
X111068350Y-67191130D01*
X111060983Y-67122980D01*
X111044168Y-67078330D01*
X111016234Y-67053926D01*
X110975509Y-67046514D01*
X110958350Y-67048094D01*
X110928660Y-67063766D01*
X110909031Y-67098691D01*
X110898188Y-67155901D01*
X110894857Y-67238430D01*
X110750083Y-67238430D01*
X110749714Y-67224267D01*
X110750253Y-67156169D01*
X110752707Y-67104587D01*
X110758158Y-67068816D01*
X110767686Y-67042015D01*
X110782371Y-67017338D01*
X110795852Y-66998480D01*
X110844799Y-66947568D01*
X110900256Y-66919918D01*
X110969928Y-66911165D01*
X111049664Y-66919890D01*
X111118595Y-66951185D01*
X111173113Y-67006381D01*
X111177223Y-67012224D01*
X111186808Y-67027753D01*
X111194151Y-67045498D01*
X111199612Y-67069290D01*
X111203550Y-67102958D01*
X111206323Y-67150333D01*
X111208292Y-67215245D01*
X111208528Y-67228603D01*
X111209815Y-67301524D01*
G36*
X111209815Y-67301524D02*
G01*
X111211252Y-67413000D01*
X111211651Y-67445339D01*
X111212929Y-67553455D01*
X111213185Y-67636186D01*
X111211634Y-67696426D01*
X111207490Y-67737073D01*
X111199964Y-67761023D01*
X111188271Y-67771171D01*
X111171624Y-67770414D01*
X111149236Y-67761648D01*
X111120321Y-67747769D01*
X111114142Y-67744808D01*
X111088413Y-67730311D01*
X111074976Y-67713065D01*
X111069834Y-67684308D01*
X111068990Y-67635283D01*
X111068952Y-67547257D01*
X110978276Y-67547257D01*
X110922498Y-67544815D01*
X110878640Y-67534908D01*
X110842218Y-67514886D01*
X110839503Y-67512929D01*
X110802546Y-67479869D01*
X110776826Y-67439931D01*
X110760606Y-67387657D01*
X110752148Y-67317588D01*
X110750083Y-67238430D01*
X110894857Y-67238430D01*
X110894882Y-67251697D01*
X110896261Y-67311584D01*
X110900687Y-67350732D01*
X110909461Y-67376153D01*
X110923886Y-67394857D01*
X110924784Y-67395750D01*
X110960237Y-67419952D01*
X110994596Y-67417567D01*
X111033403Y-67388260D01*
X111042895Y-67378244D01*
X111056876Y-67357708D01*
X111064760Y-67330997D01*
X111068245Y-67290499D01*
X111069029Y-67228603D01*
X111068350Y-67191130D01*
X111060983Y-67122980D01*
X111044168Y-67078330D01*
X111016234Y-67053926D01*
X110975509Y-67046514D01*
X110958350Y-67048094D01*
X110928660Y-67063766D01*
X110909031Y-67098691D01*
X110898188Y-67155901D01*
X110894857Y-67238430D01*
X110750083Y-67238430D01*
X110749714Y-67224267D01*
X110750253Y-67156169D01*
X110752707Y-67104587D01*
X110758158Y-67068816D01*
X110767686Y-67042015D01*
X110782371Y-67017338D01*
X110795852Y-66998480D01*
X110844799Y-66947568D01*
X110900256Y-66919918D01*
X110969928Y-66911165D01*
X111049664Y-66919890D01*
X111118595Y-66951185D01*
X111173113Y-67006381D01*
X111177223Y-67012224D01*
X111186808Y-67027753D01*
X111194151Y-67045498D01*
X111199612Y-67069290D01*
X111203550Y-67102958D01*
X111206323Y-67150333D01*
X111208292Y-67215245D01*
X111208528Y-67228603D01*
X111209815Y-67301524D01*
G37*
X108613933Y-62242371D02*
X108689856Y-62242865D01*
X108744491Y-62244135D01*
X108781500Y-62246547D01*
X108804547Y-62250467D01*
X108817296Y-62256262D01*
X108823411Y-62264299D01*
X108826556Y-62274943D01*
X108826646Y-62275325D01*
X108831814Y-62300347D01*
X108841209Y-62348681D01*
X108853867Y-62415260D01*
X108868825Y-62495014D01*
X108885119Y-62582875D01*
X108886448Y-62590064D01*
X108902691Y-62675340D01*
X108917805Y-62750242D01*
X108930808Y-62810219D01*
X108940715Y-62850717D01*
X108946544Y-62867184D01*
X108946575Y-62867210D01*
X108964943Y-62876320D01*
X109002640Y-62891457D01*
X109051543Y-62909358D01*
X109054297Y-62910330D01*
X109116817Y-62933959D01*
X109189543Y-62963595D01*
X109257294Y-62993062D01*
X109368703Y-63043626D01*
X109615399Y-62875160D01*
X109632775Y-62863311D01*
X109707202Y-62812947D01*
X109773614Y-62768612D01*
X109828039Y-62732916D01*
X109866506Y-62708471D01*
X109885042Y-62697889D01*
X109897743Y-62700315D01*
X109926579Y-62719110D01*
X109971143Y-62756330D01*
X110032670Y-62813020D01*
X110112398Y-62890227D01*
X110119532Y-62897255D01*
X110182796Y-62960222D01*
X110238990Y-63017268D01*
X110284677Y-63064817D01*
X110316414Y-63099297D01*
X110330764Y-63117131D01*
X110330810Y-63117217D01*
X110332633Y-63130795D01*
X110325910Y-63152820D01*
X110308946Y-63186304D01*
X110280044Y-63234261D01*
X110237508Y-63299704D01*
X110179644Y-63385645D01*
X110169783Y-63400151D01*
X110119913Y-63473635D01*
X110075905Y-63538687D01*
X110040380Y-63591417D01*
X110015959Y-63627936D01*
X110005264Y-63644356D01*
X110004458Y-63647834D01*
X110009518Y-63673785D01*
X110024677Y-63716159D01*
X110047463Y-63767728D01*
X110078429Y-63835170D01*
X110113004Y-63915195D01*
X110142366Y-63987629D01*
X110149645Y-64006377D01*
X110168710Y-64054246D01*
X110182715Y-64087596D01*
X110189041Y-64100114D01*
X110196025Y-64101050D01*
X110227413Y-64106461D01*
X110278787Y-64115806D01*
X110344802Y-64128069D01*
X110420113Y-64142232D01*
X110499375Y-64157280D01*
X110577243Y-64172195D01*
X110648370Y-64185961D01*
X110707412Y-64197562D01*
X110749022Y-64205980D01*
X110767857Y-64210199D01*
X110770980Y-64211389D01*
X110778591Y-64217805D01*
X110784254Y-64231465D01*
X110788251Y-64255999D01*
X110790866Y-64295038D01*
X110792384Y-64352213D01*
X110793086Y-64431154D01*
X110793257Y-64535492D01*
X110793257Y-64852799D01*
X110717057Y-64867839D01*
X110707840Y-64869642D01*
X110658891Y-64878980D01*
X110591205Y-64891669D01*
X110512478Y-64906273D01*
X110430400Y-64921355D01*
X110398078Y-64927422D01*
X110325855Y-64942181D01*
X110265666Y-64956137D01*
X110223040Y-64967952D01*
X110203510Y-64976287D01*
X110194660Y-64989905D01*
X110178548Y-65025938D01*
X110162065Y-65072572D01*
X110156263Y-65090034D01*
X110134906Y-65147358D01*
X110107359Y-65215201D01*
X110078107Y-65282355D01*
X110062463Y-65317430D01*
X110040174Y-65369822D01*
X110024857Y-65409058D01*
X110019162Y-65428563D01*
X110019478Y-65430036D01*
X110030281Y-65450729D01*
X110054638Y-65490665D01*
X110090081Y-65545972D01*
X110134136Y-65612781D01*
X110184332Y-65687220D01*
X110349501Y-65929623D01*
X110132503Y-66146983D01*
X110111516Y-66167899D01*
X110047342Y-66230505D01*
X109989990Y-66284495D01*
X109942820Y-66326826D01*
X109909192Y-66354457D01*
X109892467Y-66364343D01*
X109874303Y-66356821D01*
X109836265Y-66335227D01*
X109782726Y-66302151D01*
X109717884Y-66260191D01*
X109645940Y-66211943D01*
X109575275Y-66164291D01*
X109511526Y-66122328D01*
X109459513Y-66089165D01*
X109423279Y-66067378D01*
X109406867Y-66059543D01*
X109405905Y-66059614D01*
X109384103Y-66067338D01*
X109345440Y-66085323D01*
X109297612Y-66110013D01*
X109297110Y-66110284D01*
X109233587Y-66142099D01*
X109190060Y-66157642D01*
X109163052Y-66157685D01*
X109149090Y-66143000D01*
X109143180Y-66128544D01*
X109127229Y-66089831D01*
X109102660Y-66030316D01*
X109070779Y-65953165D01*
X109032893Y-65861541D01*
X108990310Y-65758607D01*
X108944337Y-65647526D01*
X108902667Y-65546472D01*
X108860268Y-65442780D01*
X108822756Y-65350119D01*
X108791388Y-65271642D01*
X108767425Y-65210500D01*
X108752123Y-65169843D01*
X108746743Y-65152825D01*
X108757018Y-65137219D01*
X108785563Y-65111162D01*
X108825971Y-65080887D01*
X108922979Y-65001684D01*
X109009793Y-64900475D01*
X109073322Y-64789116D01*
X109113177Y-64670893D01*
X109128965Y-64549095D01*
X109120296Y-64427010D01*
X109086778Y-64307925D01*
X109028021Y-64195129D01*
X108943632Y-64091911D01*
X108899631Y-64051713D01*
X108794211Y-63980638D01*
X108681410Y-63934301D01*
X108564525Y-63911599D01*
X108446853Y-63911428D01*
X108331690Y-63932687D01*
X108222335Y-63974270D01*
X108122083Y-64035076D01*
X108034233Y-64114001D01*
X107962080Y-64209941D01*
X107908922Y-64321795D01*
X107878057Y-64448457D01*
X107872392Y-64509507D01*
X107880185Y-64641776D01*
X107915284Y-64767266D01*
X107976649Y-64883759D01*
X108063243Y-64989039D01*
X108174029Y-65080887D01*
X108212931Y-65109930D01*
X108242104Y-65136272D01*
X108253257Y-65152800D01*
X108248810Y-65167209D01*
X108234378Y-65205815D01*
X108211173Y-65265201D01*
X108180452Y-65342215D01*
X108143474Y-65433703D01*
X108101496Y-65536516D01*
X108055778Y-65647502D01*
X108014178Y-65748072D01*
X107971222Y-65851947D01*
X107932829Y-65944819D01*
X107900305Y-66023525D01*
X107874958Y-66084899D01*
X107858095Y-66125779D01*
X107851025Y-66143000D01*
X107850943Y-66143204D01*
X107836798Y-66157745D01*
X107809659Y-66157579D01*
X107766023Y-66141927D01*
X107702388Y-66110013D01*
X107697379Y-66107326D01*
X107650125Y-66083150D01*
X107612811Y-66066037D01*
X107593133Y-66059543D01*
X107577005Y-66067218D01*
X107540959Y-66088871D01*
X107489092Y-66121928D01*
X107425445Y-66163810D01*
X107354060Y-66211943D01*
X107283724Y-66259131D01*
X107218670Y-66301267D01*
X107164820Y-66334578D01*
X107126374Y-66356469D01*
X107107534Y-66364343D01*
X107104325Y-66363343D01*
X107081954Y-66347584D01*
X107043733Y-66315033D01*
X106993021Y-66268733D01*
X106933181Y-66211726D01*
X106867571Y-66147058D01*
X106650648Y-65929772D01*
X106819601Y-65681253D01*
X106988553Y-65432733D01*
X106937183Y-65321595D01*
X106937031Y-65321266D01*
X106906183Y-65250418D01*
X106874661Y-65171523D01*
X106849266Y-65101600D01*
X106845423Y-65090322D01*
X106826047Y-65037967D01*
X106808574Y-64997283D01*
X106796388Y-64976287D01*
X106791426Y-64973322D01*
X106761634Y-64963375D01*
X106711047Y-64950505D01*
X106645194Y-64936053D01*
X106569600Y-64921355D01*
X106546957Y-64917210D01*
X106465038Y-64902116D01*
X106388600Y-64887899D01*
X106325337Y-64875995D01*
X106282943Y-64867839D01*
X106206743Y-64852799D01*
X106206743Y-64535492D01*
X106206760Y-64496476D01*
X106207082Y-64401292D01*
X106208033Y-64330255D01*
X106209896Y-64279734D01*
X106212955Y-64246098D01*
X106217494Y-64225718D01*
X106223795Y-64214962D01*
X106232143Y-64210199D01*
X106240224Y-64208270D01*
X106273172Y-64201445D01*
X106325736Y-64191022D01*
X106392569Y-64178018D01*
X106468328Y-64163449D01*
X106547665Y-64148333D01*
X106625237Y-64133685D01*
X106695698Y-64120523D01*
X106753702Y-64109863D01*
X106793904Y-64102721D01*
X106810959Y-64100114D01*
X106812112Y-64098541D01*
X106821385Y-64078119D01*
X106837432Y-64039045D01*
X106857635Y-63987629D01*
X106885672Y-63918353D01*
X106920186Y-63838290D01*
X106952538Y-63767728D01*
X106959952Y-63751889D01*
X106980755Y-63702293D01*
X106993219Y-63664038D01*
X106994863Y-63644356D01*
X106994015Y-63642962D01*
X106980548Y-63622420D01*
X106953850Y-63582516D01*
X106916539Y-63527140D01*
X106871234Y-63460177D01*
X106820552Y-63385517D01*
X106763445Y-63300692D01*
X106720607Y-63234800D01*
X106691460Y-63186478D01*
X106674317Y-63152733D01*
X106667495Y-63130572D01*
X106669306Y-63117002D01*
X106669915Y-63115984D01*
X106686297Y-63096210D01*
X106719695Y-63060175D01*
X106766671Y-63011451D01*
X106823786Y-62953612D01*
X106887603Y-62890227D01*
X106953802Y-62825905D01*
X107018648Y-62765447D01*
X107066299Y-62724655D01*
X107097990Y-62702484D01*
X107114958Y-62697889D01*
X107117175Y-62698921D01*
X107140524Y-62712837D01*
X107182912Y-62740030D01*
X107240369Y-62777889D01*
X107308923Y-62823803D01*
X107384601Y-62875160D01*
X107631298Y-63043626D01*
X107742706Y-62993062D01*
X107745943Y-62991597D01*
X107814343Y-62961965D01*
X107886907Y-62932493D01*
X107948457Y-62909358D01*
X107948729Y-62909262D01*
X107997595Y-62891367D01*
X108035212Y-62876253D01*
X108053457Y-62867184D01*
X108053752Y-62866855D01*
X108059946Y-62848282D01*
X108070139Y-62806045D01*
X108083348Y-62744696D01*
X108098590Y-62668789D01*
X108114881Y-62582875D01*
X108115449Y-62579796D01*
X108131713Y-62492128D01*
X108146608Y-62412741D01*
X108159171Y-62346701D01*
X108168438Y-62299079D01*
X108173444Y-62274943D01*
X108173764Y-62273605D01*
X108177060Y-62263273D01*
X108183738Y-62255506D01*
X108197462Y-62249940D01*
X108221895Y-62246207D01*
X108260702Y-62243942D01*
X108317546Y-62242778D01*
X108396090Y-62242348D01*
X108500000Y-62242286D01*
X108513056Y-62242286D01*
X108613933Y-62242371D01*
G36*
X108613933Y-62242371D02*
G01*
X108689856Y-62242865D01*
X108744491Y-62244135D01*
X108781500Y-62246547D01*
X108804547Y-62250467D01*
X108817296Y-62256262D01*
X108823411Y-62264299D01*
X108826556Y-62274943D01*
X108826646Y-62275325D01*
X108831814Y-62300347D01*
X108841209Y-62348681D01*
X108853867Y-62415260D01*
X108868825Y-62495014D01*
X108885119Y-62582875D01*
X108886448Y-62590064D01*
X108902691Y-62675340D01*
X108917805Y-62750242D01*
X108930808Y-62810219D01*
X108940715Y-62850717D01*
X108946544Y-62867184D01*
X108946575Y-62867210D01*
X108964943Y-62876320D01*
X109002640Y-62891457D01*
X109051543Y-62909358D01*
X109054297Y-62910330D01*
X109116817Y-62933959D01*
X109189543Y-62963595D01*
X109257294Y-62993062D01*
X109368703Y-63043626D01*
X109615399Y-62875160D01*
X109632775Y-62863311D01*
X109707202Y-62812947D01*
X109773614Y-62768612D01*
X109828039Y-62732916D01*
X109866506Y-62708471D01*
X109885042Y-62697889D01*
X109897743Y-62700315D01*
X109926579Y-62719110D01*
X109971143Y-62756330D01*
X110032670Y-62813020D01*
X110112398Y-62890227D01*
X110119532Y-62897255D01*
X110182796Y-62960222D01*
X110238990Y-63017268D01*
X110284677Y-63064817D01*
X110316414Y-63099297D01*
X110330764Y-63117131D01*
X110330810Y-63117217D01*
X110332633Y-63130795D01*
X110325910Y-63152820D01*
X110308946Y-63186304D01*
X110280044Y-63234261D01*
X110237508Y-63299704D01*
X110179644Y-63385645D01*
X110169783Y-63400151D01*
X110119913Y-63473635D01*
X110075905Y-63538687D01*
X110040380Y-63591417D01*
X110015959Y-63627936D01*
X110005264Y-63644356D01*
X110004458Y-63647834D01*
X110009518Y-63673785D01*
X110024677Y-63716159D01*
X110047463Y-63767728D01*
X110078429Y-63835170D01*
X110113004Y-63915195D01*
X110142366Y-63987629D01*
X110149645Y-64006377D01*
X110168710Y-64054246D01*
X110182715Y-64087596D01*
X110189041Y-64100114D01*
X110196025Y-64101050D01*
X110227413Y-64106461D01*
X110278787Y-64115806D01*
X110344802Y-64128069D01*
X110420113Y-64142232D01*
X110499375Y-64157280D01*
X110577243Y-64172195D01*
X110648370Y-64185961D01*
X110707412Y-64197562D01*
X110749022Y-64205980D01*
X110767857Y-64210199D01*
X110770980Y-64211389D01*
X110778591Y-64217805D01*
X110784254Y-64231465D01*
X110788251Y-64255999D01*
X110790866Y-64295038D01*
X110792384Y-64352213D01*
X110793086Y-64431154D01*
X110793257Y-64535492D01*
X110793257Y-64852799D01*
X110717057Y-64867839D01*
X110707840Y-64869642D01*
X110658891Y-64878980D01*
X110591205Y-64891669D01*
X110512478Y-64906273D01*
X110430400Y-64921355D01*
X110398078Y-64927422D01*
X110325855Y-64942181D01*
X110265666Y-64956137D01*
X110223040Y-64967952D01*
X110203510Y-64976287D01*
X110194660Y-64989905D01*
X110178548Y-65025938D01*
X110162065Y-65072572D01*
X110156263Y-65090034D01*
X110134906Y-65147358D01*
X110107359Y-65215201D01*
X110078107Y-65282355D01*
X110062463Y-65317430D01*
X110040174Y-65369822D01*
X110024857Y-65409058D01*
X110019162Y-65428563D01*
X110019478Y-65430036D01*
X110030281Y-65450729D01*
X110054638Y-65490665D01*
X110090081Y-65545972D01*
X110134136Y-65612781D01*
X110184332Y-65687220D01*
X110349501Y-65929623D01*
X110132503Y-66146983D01*
X110111516Y-66167899D01*
X110047342Y-66230505D01*
X109989990Y-66284495D01*
X109942820Y-66326826D01*
X109909192Y-66354457D01*
X109892467Y-66364343D01*
X109874303Y-66356821D01*
X109836265Y-66335227D01*
X109782726Y-66302151D01*
X109717884Y-66260191D01*
X109645940Y-66211943D01*
X109575275Y-66164291D01*
X109511526Y-66122328D01*
X109459513Y-66089165D01*
X109423279Y-66067378D01*
X109406867Y-66059543D01*
X109405905Y-66059614D01*
X109384103Y-66067338D01*
X109345440Y-66085323D01*
X109297612Y-66110013D01*
X109297110Y-66110284D01*
X109233587Y-66142099D01*
X109190060Y-66157642D01*
X109163052Y-66157685D01*
X109149090Y-66143000D01*
X109143180Y-66128544D01*
X109127229Y-66089831D01*
X109102660Y-66030316D01*
X109070779Y-65953165D01*
X109032893Y-65861541D01*
X108990310Y-65758607D01*
X108944337Y-65647526D01*
X108902667Y-65546472D01*
X108860268Y-65442780D01*
X108822756Y-65350119D01*
X108791388Y-65271642D01*
X108767425Y-65210500D01*
X108752123Y-65169843D01*
X108746743Y-65152825D01*
X108757018Y-65137219D01*
X108785563Y-65111162D01*
X108825971Y-65080887D01*
X108922979Y-65001684D01*
X109009793Y-64900475D01*
X109073322Y-64789116D01*
X109113177Y-64670893D01*
X109128965Y-64549095D01*
X109120296Y-64427010D01*
X109086778Y-64307925D01*
X109028021Y-64195129D01*
X108943632Y-64091911D01*
X108899631Y-64051713D01*
X108794211Y-63980638D01*
X108681410Y-63934301D01*
X108564525Y-63911599D01*
X108446853Y-63911428D01*
X108331690Y-63932687D01*
X108222335Y-63974270D01*
X108122083Y-64035076D01*
X108034233Y-64114001D01*
X107962080Y-64209941D01*
X107908922Y-64321795D01*
X107878057Y-64448457D01*
X107872392Y-64509507D01*
X107880185Y-64641776D01*
X107915284Y-64767266D01*
X107976649Y-64883759D01*
X108063243Y-64989039D01*
X108174029Y-65080887D01*
X108212931Y-65109930D01*
X108242104Y-65136272D01*
X108253257Y-65152800D01*
X108248810Y-65167209D01*
X108234378Y-65205815D01*
X108211173Y-65265201D01*
X108180452Y-65342215D01*
X108143474Y-65433703D01*
X108101496Y-65536516D01*
X108055778Y-65647502D01*
X108014178Y-65748072D01*
X107971222Y-65851947D01*
X107932829Y-65944819D01*
X107900305Y-66023525D01*
X107874958Y-66084899D01*
X107858095Y-66125779D01*
X107851025Y-66143000D01*
X107850943Y-66143204D01*
X107836798Y-66157745D01*
X107809659Y-66157579D01*
X107766023Y-66141927D01*
X107702388Y-66110013D01*
X107697379Y-66107326D01*
X107650125Y-66083150D01*
X107612811Y-66066037D01*
X107593133Y-66059543D01*
X107577005Y-66067218D01*
X107540959Y-66088871D01*
X107489092Y-66121928D01*
X107425445Y-66163810D01*
X107354060Y-66211943D01*
X107283724Y-66259131D01*
X107218670Y-66301267D01*
X107164820Y-66334578D01*
X107126374Y-66356469D01*
X107107534Y-66364343D01*
X107104325Y-66363343D01*
X107081954Y-66347584D01*
X107043733Y-66315033D01*
X106993021Y-66268733D01*
X106933181Y-66211726D01*
X106867571Y-66147058D01*
X106650648Y-65929772D01*
X106819601Y-65681253D01*
X106988553Y-65432733D01*
X106937183Y-65321595D01*
X106937031Y-65321266D01*
X106906183Y-65250418D01*
X106874661Y-65171523D01*
X106849266Y-65101600D01*
X106845423Y-65090322D01*
X106826047Y-65037967D01*
X106808574Y-64997283D01*
X106796388Y-64976287D01*
X106791426Y-64973322D01*
X106761634Y-64963375D01*
X106711047Y-64950505D01*
X106645194Y-64936053D01*
X106569600Y-64921355D01*
X106546957Y-64917210D01*
X106465038Y-64902116D01*
X106388600Y-64887899D01*
X106325337Y-64875995D01*
X106282943Y-64867839D01*
X106206743Y-64852799D01*
X106206743Y-64535492D01*
X106206760Y-64496476D01*
X106207082Y-64401292D01*
X106208033Y-64330255D01*
X106209896Y-64279734D01*
X106212955Y-64246098D01*
X106217494Y-64225718D01*
X106223795Y-64214962D01*
X106232143Y-64210199D01*
X106240224Y-64208270D01*
X106273172Y-64201445D01*
X106325736Y-64191022D01*
X106392569Y-64178018D01*
X106468328Y-64163449D01*
X106547665Y-64148333D01*
X106625237Y-64133685D01*
X106695698Y-64120523D01*
X106753702Y-64109863D01*
X106793904Y-64102721D01*
X106810959Y-64100114D01*
X106812112Y-64098541D01*
X106821385Y-64078119D01*
X106837432Y-64039045D01*
X106857635Y-63987629D01*
X106885672Y-63918353D01*
X106920186Y-63838290D01*
X106952538Y-63767728D01*
X106959952Y-63751889D01*
X106980755Y-63702293D01*
X106993219Y-63664038D01*
X106994863Y-63644356D01*
X106994015Y-63642962D01*
X106980548Y-63622420D01*
X106953850Y-63582516D01*
X106916539Y-63527140D01*
X106871234Y-63460177D01*
X106820552Y-63385517D01*
X106763445Y-63300692D01*
X106720607Y-63234800D01*
X106691460Y-63186478D01*
X106674317Y-63152733D01*
X106667495Y-63130572D01*
X106669306Y-63117002D01*
X106669915Y-63115984D01*
X106686297Y-63096210D01*
X106719695Y-63060175D01*
X106766671Y-63011451D01*
X106823786Y-62953612D01*
X106887603Y-62890227D01*
X106953802Y-62825905D01*
X107018648Y-62765447D01*
X107066299Y-62724655D01*
X107097990Y-62702484D01*
X107114958Y-62697889D01*
X107117175Y-62698921D01*
X107140524Y-62712837D01*
X107182912Y-62740030D01*
X107240369Y-62777889D01*
X107308923Y-62823803D01*
X107384601Y-62875160D01*
X107631298Y-63043626D01*
X107742706Y-62993062D01*
X107745943Y-62991597D01*
X107814343Y-62961965D01*
X107886907Y-62932493D01*
X107948457Y-62909358D01*
X107948729Y-62909262D01*
X107997595Y-62891367D01*
X108035212Y-62876253D01*
X108053457Y-62867184D01*
X108053752Y-62866855D01*
X108059946Y-62848282D01*
X108070139Y-62806045D01*
X108083348Y-62744696D01*
X108098590Y-62668789D01*
X108114881Y-62582875D01*
X108115449Y-62579796D01*
X108131713Y-62492128D01*
X108146608Y-62412741D01*
X108159171Y-62346701D01*
X108168438Y-62299079D01*
X108173444Y-62274943D01*
X108173764Y-62273605D01*
X108177060Y-62263273D01*
X108183738Y-62255506D01*
X108197462Y-62249940D01*
X108221895Y-62246207D01*
X108260702Y-62243942D01*
X108317546Y-62242778D01*
X108396090Y-62242348D01*
X108500000Y-62242286D01*
X108513056Y-62242286D01*
X108613933Y-62242371D01*
G37*
%TD*%
M02*
