%TF.GenerationSoftware,KiCad,Pcbnew,8.0.1*%
%TF.CreationDate,2026-01-16T21:23:43-05:00*%
%TF.ProjectId,Mezzanine jumper,4d657a7a-616e-4696-9e65-206a756d7065,rev?*%
%TF.SameCoordinates,Original*%
%TF.FileFunction,Copper,L3,Inr*%
%TF.FilePolarity,Positive*%
%FSLAX46Y46*%
G04 Gerber Fmt 4.6, Leading zero omitted, Abs format (unit mm)*
G04 Created by KiCad (PCBNEW 8.0.1) date 2026-01-16 21:23:43*
%MOMM*%
%LPD*%
G01*
G04 APERTURE LIST*
%TA.AperFunction,ViaPad*%
%ADD10C,0.500000*%
%TD*%
%TA.AperFunction,Conductor*%
%ADD11C,0.200000*%
%TD*%
G04 APERTURE END LIST*
D10*
%TO.N,GND*%
X96250000Y-81250000D03*
X127250000Y-79750000D03*
X120750000Y-89750000D03*
X120750000Y-85750000D03*
X103250000Y-67750000D03*
X105750000Y-73750000D03*
X120750000Y-75250000D03*
X111700000Y-85750000D03*
X117250000Y-76750000D03*
X111696937Y-79756878D03*
X127250000Y-70750000D03*
X117250000Y-84250000D03*
X117246937Y-79756878D03*
X127250000Y-67750000D03*
X120750000Y-67750000D03*
X120750000Y-82750000D03*
X117250000Y-72250000D03*
X117250000Y-69250000D03*
X111700000Y-72250000D03*
X120750000Y-69250000D03*
X96750000Y-67750000D03*
X127250000Y-73750000D03*
X103250000Y-89750000D03*
X103250000Y-72250000D03*
X127250000Y-82750000D03*
X127750000Y-84250000D03*
X127250000Y-86750000D03*
X96750000Y-82750000D03*
X96250000Y-69250000D03*
X120750000Y-70750000D03*
X120750000Y-86750000D03*
X105750000Y-84250000D03*
X105750000Y-69250000D03*
X117250000Y-85750000D03*
X117250000Y-70750000D03*
X127750000Y-81250000D03*
X105750000Y-72250000D03*
X103250000Y-84250000D03*
X127250000Y-89750000D03*
X103250000Y-85750000D03*
X103250000Y-79750000D03*
X105750000Y-81250000D03*
X117250000Y-73750000D03*
X117250000Y-67750000D03*
X111700000Y-69250000D03*
X111700000Y-67750000D03*
X96750000Y-86750000D03*
X120225000Y-88250000D03*
X117246608Y-82743799D03*
X120750000Y-76750000D03*
X105750000Y-85750000D03*
X127750000Y-72250000D03*
X96750000Y-85750000D03*
X111700000Y-70750000D03*
X103250000Y-82750000D03*
X103250000Y-86750000D03*
X111700000Y-73750000D03*
X96750000Y-89750000D03*
X103250000Y-70750000D03*
X111700000Y-75250000D03*
X111700000Y-84250000D03*
X103725000Y-88250000D03*
X105750000Y-76750000D03*
X96250000Y-84250000D03*
X127750000Y-88250000D03*
X96750000Y-73750000D03*
X105750000Y-75250000D03*
X120750000Y-81250000D03*
X120750000Y-84250000D03*
X127750000Y-75250000D03*
X111700000Y-86750000D03*
X103250000Y-78250000D03*
X105750000Y-70750000D03*
X105750000Y-78250000D03*
X117250000Y-81250000D03*
X105746937Y-79756878D03*
X103250000Y-81250000D03*
X96250000Y-75250000D03*
X111700000Y-76750000D03*
X120750000Y-73750000D03*
X127250000Y-85750000D03*
X117250000Y-86750000D03*
X117250000Y-78250000D03*
X120750000Y-79750000D03*
X96750000Y-76750000D03*
X103250000Y-76750000D03*
X111696608Y-82743799D03*
X96750000Y-79750000D03*
X105750000Y-67750000D03*
X120750000Y-72250000D03*
X127750000Y-69250000D03*
X103250000Y-73750000D03*
X120750000Y-78250000D03*
X96750000Y-70750000D03*
X127750000Y-78250000D03*
X96250000Y-88250000D03*
X111700000Y-78250000D03*
X127250000Y-76750000D03*
X103250000Y-75250000D03*
X117250000Y-75250000D03*
X111700000Y-81250000D03*
X96250000Y-78250000D03*
X103250000Y-69250000D03*
X105746608Y-82743799D03*
X96250000Y-72250000D03*
X105750000Y-86750000D03*
%TO.N,+5V*%
X127250000Y-88750000D03*
X96750000Y-88750000D03*
X120725000Y-88750000D03*
X120225000Y-89250000D03*
X103725000Y-89250000D03*
X127750000Y-89250000D03*
X96250000Y-89250000D03*
X103225000Y-88750000D03*
%TO.N,/IO_16*%
X105000000Y-73750000D03*
X127750000Y-74250000D03*
%TO.N,+24V*%
X103600000Y-91150000D03*
X116050000Y-93100000D03*
X127550000Y-94400000D03*
X96450000Y-92450000D03*
X96450000Y-93750000D03*
X111700000Y-93100000D03*
X120400000Y-95050000D03*
X103600000Y-93100000D03*
X103600000Y-93750000D03*
X120400000Y-93100000D03*
X120400000Y-94400000D03*
X107600000Y-95050000D03*
X103600000Y-94400000D03*
X103600000Y-92450000D03*
X120400000Y-92450000D03*
X111700000Y-95050000D03*
X111700000Y-91150000D03*
X116050000Y-91150000D03*
X96450000Y-93100000D03*
X127550000Y-93100000D03*
X96450000Y-94400000D03*
X127550000Y-91150000D03*
X120400000Y-91150000D03*
X96450000Y-91150000D03*
X127550000Y-91800000D03*
X96450000Y-91800000D03*
X120400000Y-93750000D03*
X120400000Y-91800000D03*
X103600000Y-95050000D03*
X116050000Y-95050000D03*
X127550000Y-92450000D03*
X107600000Y-93100000D03*
X103600000Y-91800000D03*
X107600000Y-91150000D03*
X127550000Y-93750000D03*
%TO.N,/IO_19*%
X96750000Y-74750000D03*
X118250000Y-74750000D03*
%TO.N,/IO_6*%
X104250000Y-70750000D03*
X127750000Y-70250000D03*
%TO.N,/IO_46*%
X127750000Y-85250000D03*
X104250000Y-85750000D03*
%TO.N,/IO_14*%
X104250000Y-73750000D03*
X127750000Y-73250000D03*
%TO.N,/IO_27*%
X96750000Y-77750000D03*
X118250000Y-77750000D03*
%TO.N,/IO_35*%
X118250000Y-80750000D03*
X96750000Y-80750000D03*
%TO.N,/IO_49*%
X119500000Y-86250000D03*
X96250000Y-86250000D03*
%TO.N,/IO_10*%
X104250000Y-72250000D03*
X127250000Y-71750000D03*
%TO.N,/IO_47*%
X118250000Y-85250000D03*
X96250000Y-85250000D03*
%TO.N,/IO_0*%
X105000000Y-67750000D03*
X127750000Y-68250000D03*
%TO.N,/IO_20*%
X127250000Y-75750000D03*
X105000000Y-75250000D03*
%TO.N,/IO_4*%
X127250000Y-69750000D03*
X105000000Y-69250000D03*
%TO.N,/IO_37*%
X119500000Y-81750000D03*
X96750000Y-81750000D03*
%TO.N,/IO_39*%
X118250000Y-82250000D03*
X96250000Y-82250000D03*
%TO.N,/IO_48*%
X105000000Y-85750000D03*
X127750000Y-86250000D03*
%TO.N,+3.3V*%
X96750000Y-87750000D03*
X120225000Y-87250000D03*
X96250000Y-87250000D03*
X103725000Y-87250000D03*
X127750000Y-87250000D03*
X120725000Y-87750000D03*
X127250000Y-87750000D03*
X103225000Y-87750000D03*
%TO.N,/IO_17*%
X119500000Y-74250000D03*
X96250000Y-74250000D03*
%TO.N,/IO_11*%
X96750000Y-71750000D03*
X118250000Y-71750000D03*
%TO.N,/IO_44*%
X105000000Y-84250000D03*
X127250000Y-84750000D03*
%TO.N,/IO_23*%
X96250000Y-76250000D03*
X118250000Y-76250000D03*
%TO.N,/IO_42*%
X127250000Y-83750000D03*
X104250000Y-84250000D03*
%TO.N,/IO_38*%
X104250000Y-82750000D03*
X127750000Y-82250000D03*
%TO.N,/IO_15*%
X96250000Y-73250000D03*
X118250000Y-73250000D03*
%TO.N,/IO_13*%
X96750000Y-72750000D03*
X119500000Y-72750000D03*
%TO.N,/IO_29*%
X96750000Y-78750000D03*
X119500000Y-78750000D03*
%TO.N,/IO_1*%
X119500000Y-68250000D03*
X96250000Y-68250000D03*
%TO.N,/IO_31*%
X96250000Y-79250000D03*
X118250000Y-79250000D03*
%TO.N,/IO_40*%
X105000000Y-82750000D03*
X127750000Y-83250000D03*
%TO.N,/IO_45*%
X96750000Y-84750000D03*
X119500000Y-84750000D03*
%TO.N,/IO_5*%
X119500000Y-69750000D03*
X96750000Y-69750000D03*
%TO.N,/IO_34*%
X127250000Y-80750000D03*
X104250000Y-81250000D03*
%TO.N,/IO_36*%
X127250000Y-81750000D03*
X105000000Y-81250000D03*
%TO.N,/IO_18*%
X127250000Y-74750000D03*
X104250000Y-75250000D03*
%TO.N,/IO_8*%
X127750000Y-71250000D03*
X105000000Y-70750000D03*
%TO.N,/IO_2*%
X127250000Y-68750000D03*
X104250000Y-69250000D03*
%TO.N,/IO_12*%
X105000000Y-72250000D03*
X127250000Y-72750000D03*
%TO.N,/IO_28*%
X127250000Y-78750000D03*
X105000000Y-78250000D03*
%TO.N,/IO_22*%
X127750000Y-76250000D03*
X104250000Y-76750000D03*
%TO.N,/IO_30*%
X104250000Y-79750000D03*
X127750000Y-79250000D03*
%TO.N,/IO_43*%
X96750000Y-83750000D03*
X118250000Y-83750000D03*
%TO.N,/IO_25*%
X119500000Y-77250000D03*
X96250000Y-77250000D03*
%TO.N,/IO_7*%
X96250000Y-70250000D03*
X118250000Y-70250000D03*
%TO.N,/IO_9*%
X119500000Y-71250000D03*
X96250000Y-71250000D03*
%TO.N,/IO_26*%
X127250000Y-77750000D03*
X104250000Y-78250000D03*
%TO.N,/IO_41*%
X119500000Y-83250000D03*
X96250000Y-83250000D03*
%TO.N,/IO_32*%
X127750000Y-80250000D03*
X105000000Y-79750000D03*
%TO.N,/IO_3*%
X118250000Y-68750000D03*
X96750000Y-68750000D03*
%TO.N,/IO_21*%
X96750000Y-75750000D03*
X119500000Y-75750000D03*
%TO.N,/IO_33*%
X96250000Y-80250000D03*
X119500000Y-80250000D03*
%TO.N,/IO_24*%
X105000000Y-76750000D03*
X127750000Y-77250000D03*
%TD*%
D11*
%TO.N,/IO_19*%
X96750000Y-74750000D02*
X118250000Y-74750000D01*
%TO.N,/IO_27*%
X96750000Y-77750000D02*
X118250000Y-77750000D01*
%TO.N,/IO_35*%
X96750000Y-80750000D02*
X118250000Y-80750000D01*
%TO.N,/IO_49*%
X96250000Y-86250000D02*
X119500000Y-86250000D01*
%TO.N,/IO_47*%
X96250000Y-85250000D02*
X118250000Y-85250000D01*
%TO.N,/IO_37*%
X96750000Y-81750000D02*
X119500000Y-81750000D01*
%TO.N,/IO_39*%
X97094340Y-82250000D02*
X96250000Y-82250000D01*
X118244340Y-82244340D02*
X118250000Y-82250000D01*
X97100000Y-82244340D02*
X97094340Y-82250000D01*
X97100000Y-82244340D02*
X118244340Y-82244340D01*
%TO.N,/IO_17*%
X96250000Y-74250000D02*
X119500000Y-74250000D01*
%TO.N,/IO_11*%
X96750000Y-71750000D02*
X118250000Y-71750000D01*
%TO.N,/IO_23*%
X96250000Y-76250000D02*
X118250000Y-76250000D01*
%TO.N,/IO_15*%
X96250000Y-73250000D02*
X118250000Y-73250000D01*
%TO.N,/IO_13*%
X96750000Y-72750000D02*
X119500000Y-72750000D01*
%TO.N,/IO_29*%
X96750000Y-78750000D02*
X119500000Y-78750000D01*
%TO.N,/IO_1*%
X96250000Y-68250000D02*
X119500000Y-68250000D01*
%TO.N,/IO_31*%
X96250000Y-79250000D02*
X118250000Y-79250000D01*
%TO.N,/IO_45*%
X96750000Y-84750000D02*
X119500000Y-84750000D01*
%TO.N,/IO_5*%
X96750000Y-69750000D02*
X119500000Y-69750000D01*
%TO.N,/IO_43*%
X96750000Y-83750000D02*
X118250000Y-83750000D01*
%TO.N,/IO_25*%
X96250000Y-77250000D02*
X119500000Y-77250000D01*
%TO.N,/IO_7*%
X96250000Y-70250000D02*
X118250000Y-70250000D01*
%TO.N,/IO_9*%
X96250000Y-71250000D02*
X119500000Y-71250000D01*
%TO.N,/IO_41*%
X96250000Y-83250000D02*
X119500000Y-83250000D01*
%TO.N,/IO_3*%
X96750000Y-68750000D02*
X118250000Y-68750000D01*
%TO.N,/IO_21*%
X96750000Y-75750000D02*
X119500000Y-75750000D01*
%TO.N,/IO_33*%
X96250000Y-80250000D02*
X119500000Y-80250000D01*
%TD*%
%TA.AperFunction,Conductor*%
%TO.N,+24V*%
G36*
X127942539Y-90769685D02*
G01*
X127988294Y-90822489D01*
X127999500Y-90874000D01*
X127999500Y-93995572D01*
X127999184Y-94004419D01*
X127984869Y-94204557D01*
X127982351Y-94222068D01*
X127940646Y-94413787D01*
X127935662Y-94430763D01*
X127867090Y-94614609D01*
X127859740Y-94630701D01*
X127765711Y-94802904D01*
X127756146Y-94817789D01*
X127638558Y-94974867D01*
X127626972Y-94988237D01*
X127488237Y-95126972D01*
X127474867Y-95138558D01*
X127317789Y-95256146D01*
X127302904Y-95265711D01*
X127130701Y-95359740D01*
X127114609Y-95367090D01*
X126930763Y-95435662D01*
X126913787Y-95440646D01*
X126722068Y-95482351D01*
X126704557Y-95484869D01*
X126523779Y-95497799D01*
X126504417Y-95499184D01*
X126495572Y-95499500D01*
X97504428Y-95499500D01*
X97495582Y-95499184D01*
X97473622Y-95497613D01*
X97295442Y-95484869D01*
X97277931Y-95482351D01*
X97086212Y-95440646D01*
X97069236Y-95435662D01*
X96885390Y-95367090D01*
X96869298Y-95359740D01*
X96697095Y-95265711D01*
X96682210Y-95256146D01*
X96525132Y-95138558D01*
X96511762Y-95126972D01*
X96373027Y-94988237D01*
X96361441Y-94974867D01*
X96243849Y-94817784D01*
X96234288Y-94802904D01*
X96140259Y-94630701D01*
X96132909Y-94614609D01*
X96072091Y-94451551D01*
X96064334Y-94430755D01*
X96059355Y-94413797D01*
X96017647Y-94222063D01*
X96015130Y-94204556D01*
X96000816Y-94004418D01*
X96000500Y-93995572D01*
X96000500Y-93269182D01*
X100724500Y-93269182D01*
X100760312Y-93402835D01*
X100760313Y-93402838D01*
X100829492Y-93522661D01*
X100829494Y-93522664D01*
X100829495Y-93522665D01*
X100927335Y-93620505D01*
X101047164Y-93689688D01*
X101180817Y-93725500D01*
X101180819Y-93725500D01*
X101319181Y-93725500D01*
X101319183Y-93725500D01*
X101452836Y-93689688D01*
X101572665Y-93620505D01*
X101670505Y-93522665D01*
X101739688Y-93402836D01*
X101775500Y-93269183D01*
X101775500Y-93269182D01*
X124724500Y-93269182D01*
X124760312Y-93402835D01*
X124760313Y-93402838D01*
X124829492Y-93522661D01*
X124829494Y-93522664D01*
X124829495Y-93522665D01*
X124927335Y-93620505D01*
X125047164Y-93689688D01*
X125180817Y-93725500D01*
X125180819Y-93725500D01*
X125319181Y-93725500D01*
X125319183Y-93725500D01*
X125452836Y-93689688D01*
X125572665Y-93620505D01*
X125670505Y-93522665D01*
X125739688Y-93402836D01*
X125775500Y-93269183D01*
X125775500Y-93130817D01*
X125739688Y-92997164D01*
X125670505Y-92877335D01*
X125572665Y-92779495D01*
X125572664Y-92779494D01*
X125572661Y-92779492D01*
X125452838Y-92710313D01*
X125452837Y-92710312D01*
X125452836Y-92710312D01*
X125319183Y-92674500D01*
X125180817Y-92674500D01*
X125047164Y-92710312D01*
X125047161Y-92710313D01*
X124927338Y-92779492D01*
X124927333Y-92779496D01*
X124829496Y-92877333D01*
X124829492Y-92877338D01*
X124760313Y-92997161D01*
X124760312Y-92997164D01*
X124724500Y-93130817D01*
X124724500Y-93269182D01*
X101775500Y-93269182D01*
X101775500Y-93130817D01*
X101739688Y-92997164D01*
X101670505Y-92877335D01*
X101572665Y-92779495D01*
X101572664Y-92779494D01*
X101572661Y-92779492D01*
X101452838Y-92710313D01*
X101452837Y-92710312D01*
X101452836Y-92710312D01*
X101319183Y-92674500D01*
X101180817Y-92674500D01*
X101047164Y-92710312D01*
X101047161Y-92710313D01*
X100927338Y-92779492D01*
X100927333Y-92779496D01*
X100829496Y-92877333D01*
X100829492Y-92877338D01*
X100760313Y-92997161D01*
X100760312Y-92997164D01*
X100724500Y-93130817D01*
X100724500Y-93269182D01*
X96000500Y-93269182D01*
X96000500Y-90874000D01*
X96020185Y-90806961D01*
X96072989Y-90761206D01*
X96124500Y-90750000D01*
X127875500Y-90750000D01*
X127942539Y-90769685D01*
G37*
%TD.AperFunction*%
%TD*%
%TA.AperFunction,Conductor*%
%TO.N,+3.3V*%
G36*
X96221075Y-86650910D02*
G01*
X96250000Y-86655492D01*
X96261694Y-86653639D01*
X96316765Y-86666859D01*
X96346360Y-86715149D01*
X96346360Y-86738302D01*
X96344508Y-86749997D01*
X96344508Y-86749999D01*
X96364353Y-86875301D01*
X96364353Y-86875302D01*
X96364354Y-86875304D01*
X96421950Y-86988342D01*
X96511658Y-87078050D01*
X96624696Y-87135646D01*
X96750000Y-87155492D01*
X96875304Y-87135646D01*
X96988342Y-87078050D01*
X97078050Y-86988342D01*
X97135646Y-86875304D01*
X97155492Y-86750000D01*
X97155492Y-86749997D01*
X97153208Y-86735574D01*
X97166431Y-86680502D01*
X97214723Y-86650911D01*
X97226297Y-86650000D01*
X102773703Y-86650000D01*
X102826029Y-86671674D01*
X102847703Y-86724000D01*
X102846792Y-86735574D01*
X102844508Y-86749997D01*
X102844508Y-86749999D01*
X102864353Y-86875301D01*
X102864353Y-86875302D01*
X102864354Y-86875304D01*
X102921950Y-86988342D01*
X103011658Y-87078050D01*
X103124696Y-87135646D01*
X103250000Y-87155492D01*
X103375304Y-87135646D01*
X103488342Y-87078050D01*
X103578050Y-86988342D01*
X103635646Y-86875304D01*
X103655492Y-86750000D01*
X103655492Y-86749997D01*
X103653208Y-86735574D01*
X103666431Y-86680502D01*
X103714723Y-86650911D01*
X103726297Y-86650000D01*
X105273703Y-86650000D01*
X105326029Y-86671674D01*
X105347703Y-86724000D01*
X105346792Y-86735574D01*
X105344508Y-86749997D01*
X105344508Y-86749999D01*
X105364353Y-86875301D01*
X105364353Y-86875302D01*
X105364354Y-86875304D01*
X105421950Y-86988342D01*
X105511658Y-87078050D01*
X105624696Y-87135646D01*
X105750000Y-87155492D01*
X105875304Y-87135646D01*
X105988342Y-87078050D01*
X106078050Y-86988342D01*
X106135646Y-86875304D01*
X106155492Y-86750000D01*
X106155492Y-86749997D01*
X106153208Y-86735574D01*
X106166431Y-86680502D01*
X106214723Y-86650911D01*
X106226297Y-86650000D01*
X111223703Y-86650000D01*
X111276029Y-86671674D01*
X111297703Y-86724000D01*
X111296792Y-86735574D01*
X111294508Y-86749997D01*
X111294508Y-86749999D01*
X111314353Y-86875301D01*
X111314353Y-86875302D01*
X111314354Y-86875304D01*
X111371950Y-86988342D01*
X111461658Y-87078050D01*
X111574696Y-87135646D01*
X111700000Y-87155492D01*
X111825304Y-87135646D01*
X111938342Y-87078050D01*
X112028050Y-86988342D01*
X112085646Y-86875304D01*
X112105492Y-86750000D01*
X112105492Y-86749997D01*
X112103208Y-86735574D01*
X112116431Y-86680502D01*
X112164723Y-86650911D01*
X112176297Y-86650000D01*
X116773703Y-86650000D01*
X116826029Y-86671674D01*
X116847703Y-86724000D01*
X116846792Y-86735574D01*
X116844508Y-86749997D01*
X116844508Y-86749999D01*
X116864353Y-86875301D01*
X116864353Y-86875302D01*
X116864354Y-86875304D01*
X116921950Y-86988342D01*
X117011658Y-87078050D01*
X117124696Y-87135646D01*
X117250000Y-87155492D01*
X117375304Y-87135646D01*
X117488342Y-87078050D01*
X117578050Y-86988342D01*
X117635646Y-86875304D01*
X117655492Y-86750000D01*
X117655492Y-86749997D01*
X117653208Y-86735574D01*
X117666431Y-86680502D01*
X117714723Y-86650911D01*
X117726297Y-86650000D01*
X119459501Y-86650000D01*
X119471075Y-86650910D01*
X119500000Y-86655492D01*
X119528924Y-86650910D01*
X119540499Y-86650000D01*
X120273703Y-86650000D01*
X120326029Y-86671674D01*
X120347703Y-86724000D01*
X120346792Y-86735574D01*
X120344508Y-86749997D01*
X120344508Y-86749999D01*
X120364353Y-86875301D01*
X120364353Y-86875302D01*
X120364354Y-86875304D01*
X120421950Y-86988342D01*
X120511658Y-87078050D01*
X120624696Y-87135646D01*
X120750000Y-87155492D01*
X120875304Y-87135646D01*
X120988342Y-87078050D01*
X121078050Y-86988342D01*
X121135646Y-86875304D01*
X121155492Y-86750000D01*
X121155492Y-86749997D01*
X121153208Y-86735574D01*
X121166431Y-86680502D01*
X121214723Y-86650911D01*
X121226297Y-86650000D01*
X126773703Y-86650000D01*
X126826029Y-86671674D01*
X126847703Y-86724000D01*
X126846792Y-86735574D01*
X126844508Y-86749997D01*
X126844508Y-86749999D01*
X126864353Y-86875301D01*
X126864353Y-86875302D01*
X126864354Y-86875304D01*
X126921950Y-86988342D01*
X127011658Y-87078050D01*
X127124696Y-87135646D01*
X127250000Y-87155492D01*
X127375304Y-87135646D01*
X127488342Y-87078050D01*
X127578050Y-86988342D01*
X127635646Y-86875304D01*
X127655492Y-86750000D01*
X127653639Y-86738303D01*
X127666860Y-86683234D01*
X127715150Y-86653639D01*
X127738301Y-86653639D01*
X127750000Y-86655492D01*
X127778924Y-86650910D01*
X127790499Y-86650000D01*
X127925500Y-86650000D01*
X127977826Y-86671674D01*
X127999500Y-86724000D01*
X127999500Y-87806878D01*
X127977826Y-87859204D01*
X127925500Y-87880878D01*
X127891906Y-87872813D01*
X127875302Y-87864353D01*
X127875304Y-87864353D01*
X127750000Y-87844508D01*
X127624698Y-87864353D01*
X127511656Y-87921951D01*
X127421950Y-88011657D01*
X127397524Y-88059596D01*
X127354457Y-88096378D01*
X127331590Y-88100000D01*
X120643410Y-88100000D01*
X120591084Y-88078326D01*
X120577476Y-88059596D01*
X120553049Y-88011657D01*
X120463343Y-87921951D01*
X120463342Y-87921950D01*
X120350304Y-87864354D01*
X120350302Y-87864353D01*
X120350301Y-87864353D01*
X120225000Y-87844508D01*
X120099698Y-87864353D01*
X119986656Y-87921951D01*
X119896950Y-88011657D01*
X119872524Y-88059596D01*
X119829457Y-88096378D01*
X119806590Y-88100000D01*
X104143410Y-88100000D01*
X104091084Y-88078326D01*
X104077476Y-88059596D01*
X104053049Y-88011657D01*
X103963343Y-87921951D01*
X103963342Y-87921950D01*
X103850304Y-87864354D01*
X103850302Y-87864353D01*
X103850301Y-87864353D01*
X103725000Y-87844508D01*
X103599698Y-87864353D01*
X103486656Y-87921951D01*
X103396950Y-88011657D01*
X103372524Y-88059596D01*
X103329457Y-88096378D01*
X103306590Y-88100000D01*
X96668410Y-88100000D01*
X96616084Y-88078326D01*
X96602476Y-88059596D01*
X96578049Y-88011657D01*
X96488343Y-87921951D01*
X96488342Y-87921950D01*
X96375304Y-87864354D01*
X96375302Y-87864353D01*
X96375301Y-87864353D01*
X96250000Y-87844508D01*
X96124696Y-87864353D01*
X96108094Y-87872813D01*
X96051631Y-87877256D01*
X96008565Y-87840472D01*
X96000500Y-87806878D01*
X96000500Y-86724000D01*
X96022174Y-86671674D01*
X96074500Y-86650000D01*
X96209501Y-86650000D01*
X96221075Y-86650910D01*
G37*
%TD.AperFunction*%
%TD*%
%TA.AperFunction,Conductor*%
%TO.N,+5V*%
G36*
X103358916Y-88421674D02*
G01*
X103372524Y-88440404D01*
X103396950Y-88488342D01*
X103486658Y-88578050D01*
X103599696Y-88635646D01*
X103725000Y-88655492D01*
X103850304Y-88635646D01*
X103963342Y-88578050D01*
X104053050Y-88488342D01*
X104077476Y-88440404D01*
X104120543Y-88403622D01*
X104143410Y-88400000D01*
X119806590Y-88400000D01*
X119858916Y-88421674D01*
X119872524Y-88440404D01*
X119896950Y-88488342D01*
X119986658Y-88578050D01*
X120099696Y-88635646D01*
X120225000Y-88655492D01*
X120350304Y-88635646D01*
X120463342Y-88578050D01*
X120553050Y-88488342D01*
X120577476Y-88440404D01*
X120620543Y-88403622D01*
X120643410Y-88400000D01*
X127331590Y-88400000D01*
X127383916Y-88421674D01*
X127397524Y-88440404D01*
X127421950Y-88488342D01*
X127511658Y-88578050D01*
X127624696Y-88635646D01*
X127750000Y-88655492D01*
X127875304Y-88635646D01*
X127891905Y-88627186D01*
X127948366Y-88622742D01*
X127991434Y-88659525D01*
X127999500Y-88693121D01*
X127999500Y-90426000D01*
X127977826Y-90478326D01*
X127925500Y-90500000D01*
X96074500Y-90500000D01*
X96022174Y-90478326D01*
X96000500Y-90426000D01*
X96000500Y-89750000D01*
X96344508Y-89750000D01*
X96364353Y-89875301D01*
X96364353Y-89875302D01*
X96364354Y-89875304D01*
X96421950Y-89988342D01*
X96511658Y-90078050D01*
X96624696Y-90135646D01*
X96750000Y-90155492D01*
X96875304Y-90135646D01*
X96988342Y-90078050D01*
X97078050Y-89988342D01*
X97135646Y-89875304D01*
X97155492Y-89750000D01*
X102844508Y-89750000D01*
X102864353Y-89875301D01*
X102864353Y-89875302D01*
X102864354Y-89875304D01*
X102921950Y-89988342D01*
X103011658Y-90078050D01*
X103124696Y-90135646D01*
X103250000Y-90155492D01*
X103375304Y-90135646D01*
X103488342Y-90078050D01*
X103578050Y-89988342D01*
X103635646Y-89875304D01*
X103655492Y-89750000D01*
X120344508Y-89750000D01*
X120364353Y-89875301D01*
X120364353Y-89875302D01*
X120364354Y-89875304D01*
X120421950Y-89988342D01*
X120511658Y-90078050D01*
X120624696Y-90135646D01*
X120750000Y-90155492D01*
X120875304Y-90135646D01*
X120988342Y-90078050D01*
X121078050Y-89988342D01*
X121135646Y-89875304D01*
X121155492Y-89750000D01*
X126844508Y-89750000D01*
X126864353Y-89875301D01*
X126864353Y-89875302D01*
X126864354Y-89875304D01*
X126921950Y-89988342D01*
X127011658Y-90078050D01*
X127124696Y-90135646D01*
X127250000Y-90155492D01*
X127375304Y-90135646D01*
X127488342Y-90078050D01*
X127578050Y-89988342D01*
X127635646Y-89875304D01*
X127655492Y-89750000D01*
X127635646Y-89624696D01*
X127578050Y-89511658D01*
X127488342Y-89421950D01*
X127375304Y-89364354D01*
X127375302Y-89364353D01*
X127375301Y-89364353D01*
X127250000Y-89344508D01*
X127124698Y-89364353D01*
X127011656Y-89421951D01*
X126921951Y-89511656D01*
X126864353Y-89624698D01*
X126844508Y-89750000D01*
X121155492Y-89750000D01*
X121135646Y-89624696D01*
X121078050Y-89511658D01*
X120988342Y-89421950D01*
X120875304Y-89364354D01*
X120875302Y-89364353D01*
X120875301Y-89364353D01*
X120750000Y-89344508D01*
X120624698Y-89364353D01*
X120511656Y-89421951D01*
X120421951Y-89511656D01*
X120364353Y-89624698D01*
X120344508Y-89750000D01*
X103655492Y-89750000D01*
X103635646Y-89624696D01*
X103578050Y-89511658D01*
X103488342Y-89421950D01*
X103375304Y-89364354D01*
X103375302Y-89364353D01*
X103375301Y-89364353D01*
X103250000Y-89344508D01*
X103124698Y-89364353D01*
X103011656Y-89421951D01*
X102921951Y-89511656D01*
X102864353Y-89624698D01*
X102844508Y-89750000D01*
X97155492Y-89750000D01*
X97135646Y-89624696D01*
X97078050Y-89511658D01*
X96988342Y-89421950D01*
X96875304Y-89364354D01*
X96875302Y-89364353D01*
X96875301Y-89364353D01*
X96750000Y-89344508D01*
X96624698Y-89364353D01*
X96511656Y-89421951D01*
X96421951Y-89511656D01*
X96364353Y-89624698D01*
X96344508Y-89750000D01*
X96000500Y-89750000D01*
X96000500Y-88693121D01*
X96022174Y-88640795D01*
X96074500Y-88619121D01*
X96108092Y-88627186D01*
X96124696Y-88635646D01*
X96250000Y-88655492D01*
X96375304Y-88635646D01*
X96488342Y-88578050D01*
X96578050Y-88488342D01*
X96602476Y-88440404D01*
X96645543Y-88403622D01*
X96668410Y-88400000D01*
X103306590Y-88400000D01*
X103358916Y-88421674D01*
G37*
%TD.AperFunction*%
%TD*%
M02*
