M48
; DRILL file {KiCad 8.0.1} date 2026-01-15T10:00:22-0500
; FORMAT={-:-/ absolute / inch / decimal}
; #@! TF.CreationDate,2026-01-15T10:00:22-05:00
; #@! TF.GenerationSoftware,Kicad,Pcbnew,8.0.1
; #@! TF.FileFunction,Plated,1,4,PTH
FMAT,2
INCH
; #@! TA.AperFunction,Plated,PTH,ViaDrill
T1C0.0079
; #@! TA.AperFunction,Plated,PTH,ComponentDrill
T2C0.1260
%
G90
G05
T1
X7.3425Y-2.0374
X7.3425Y-2.1555
X7.3425Y-2.2638
X7.3425Y-2.3917
X7.3425Y-2.6378
X7.3425Y-2.7461
X7.3425Y-2.8543
X7.3425Y-2.9823
X7.3425Y-3.1004
X7.3425Y-3.2185
X7.3425Y-3.3366
X7.3425Y-3.4449
X7.3425Y-3.5138
X7.3425Y-3.6319
X7.3425Y-3.8091
X7.3425Y-3.9173
X7.3425Y-4.0354
X7.3425Y-4.1339
X7.372Y-3.7205
X7.3858Y-3.3051
X7.3878Y-3.2028
X7.3898Y-2.9232
X7.3898Y-2.9665
X7.3898Y-3.0413
X7.3898Y-3.1594
X7.3898Y-3.252
X7.3898Y-3.2776
X7.3898Y-3.3563
X7.3898Y-3.3957
X7.3898Y-3.439
X7.3898Y-3.4744
X7.3898Y-3.5138
X7.3917Y-3.0787
X7.3937Y-3.1083
X7.3976Y-2.9902
X7.4035Y-2.8504
X7.4114Y-4.0315
X7.4114Y-4.0551
X7.4114Y-4.0787
X7.4114Y-4.2028
X7.4213Y-3.7008
X7.4311Y-2.0079
X7.4311Y-2.7559
X7.4311Y-2.8346
X7.4409Y-2.6476
X7.4439Y-2.8957
X7.4465Y-3.6555
X7.4469Y-2.9449
X7.4488Y-3.5374
X7.4508Y-3.0591
X7.4508Y-3.1378
X7.4508Y-3.1812
X7.4508Y-3.3724
X7.4508Y-3.4898
X7.4528Y-3.2543
X7.4528Y-3.2972
X7.4567Y-3.0177
X7.4587Y-3.4193
X7.4685Y-2.9232
X7.4685Y-3.0413
X7.4685Y-3.1594
X7.4685Y-3.2776
X7.4685Y-3.3957
X7.4685Y-3.5138
X7.4803Y-3.6043
X7.4803Y-4.2717
X7.4827Y-3.6555
X7.4902Y-3.6299
X7.5Y-2.7657
X7.5059Y-3.7303
X7.5079Y-3.6122
X7.5081Y-3.6473
X7.5083Y-3.5723
X7.5093Y-2.9812
X7.5093Y-3.0993
X7.5093Y-3.3355
X7.5093Y-3.4537
X7.5093Y-3.2174
X7.5098Y-2.8594
X7.5098Y-2.3622
X7.5098Y-2.687
X7.5394Y-2.0079
X7.5394Y-3.9862
X7.5492Y-4.3406
X7.561Y-3.9646
X7.5787Y-2.4114
X7.5886Y-2.6083
X7.5886Y-4.1831
X7.6083Y-2.5098
X7.6181Y-3.8681
X7.622Y-4.0098
X7.628Y-3.9803
X7.628Y-4.4193
X7.6378Y-3.9567
X7.6476Y-2.0079
X7.6575Y-2.5394
X7.6575Y-2.6083
X7.6752Y-3.9606
X7.687Y-4.0748
X7.687Y-4.2815
X7.6969Y-4.0098
X7.7067Y-4.498
X7.7165Y-3.878
X7.7264Y-2.4606
X7.7303Y-4.002
X7.7461Y-2.0079
X7.7559Y-2.7559
X7.7657Y-2.8594
X7.7657Y-3.6122
X7.7663Y-3.3377
X7.7663Y-3.2196
X7.7663Y-2.9834
X7.7663Y-3.1015
X7.7663Y-3.4558
X7.7676Y-3.574
X7.7677Y-3.6713
X7.7694Y-4.093
X7.7697Y-3.7303
X7.7756Y-2.4902
X7.7756Y-4.3701
X7.7854Y-4.5768
X7.7933Y-3.6063
X7.8051Y-2.372
X7.8071Y-2.9232
X7.8071Y-3.0413
X7.8071Y-3.1594
X7.8071Y-3.2776
X7.8071Y-3.3957
X7.8071Y-3.5138
X7.8114Y-3.6421
X7.815Y-3.8878
X7.815Y-4.2028
X7.8169Y-3.3016
X7.8189Y-3.2539
X7.8189Y-3.4197
X7.8189Y-3.4898
X7.8209Y-2.8957
X7.8209Y-3.0173
X7.8209Y-3.0654
X7.8209Y-3.1835
X7.8209Y-3.3717
X7.8209Y-3.5378
X7.8228Y-2.9472
X7.8228Y-3.1358
X7.8268Y-2.7913
X7.8268Y-2.8563
X7.8366Y-2.9232
X7.8366Y-3.0413
X7.8366Y-3.1594
X7.8366Y-3.2776
X7.8366Y-3.3957
X7.8366Y-3.5138
X7.8642Y-2.0079
X7.8642Y-3.2185
X7.8642Y-4.4587
X7.8642Y-4.6555
X7.8661Y-3.6358
X7.8685Y-4.1922
X7.874Y-2.3031
X7.874Y-2.6378
X7.874Y-2.7461
X7.874Y-4.1339
X7.874Y-4.3996
X7.874Y-4.7441
X7.874Y-4.8327
X7.874Y-4.9311
X7.8839Y-4.2717
X7.8957Y-3.2283
X7.9232Y-2.3425
X7.9232Y-2.6772
X7.9232Y-2.7461
X7.9331Y-2.2441
X7.9429Y-3.0413
X7.9429Y-5.0
X7.9488Y-4.6358
X7.9488Y-4.6594
X7.9488Y-4.6831
X7.9528Y-2.5197
X7.9528Y-3.2283
X7.9528Y-3.3957
X7.9626Y-2.6673
X7.9626Y-2.7461
X7.9823Y-2.4508
X7.9823Y-2.5886
X7.9921Y-2.185
X7.9921Y-3.6024
X8.002Y-2.372
X8.002Y-3.1004
X8.0059Y-3.1673
X8.0118Y-2.0079
X8.0118Y-2.2539
X8.0118Y-2.6673
X8.0118Y-2.7461
X8.0118Y-3.9272
X8.0118Y-4.1831
X8.0118Y-4.2618
X8.0118Y-4.3898
X8.0118Y-4.5374
X8.0118Y-4.6949
X8.0118Y-4.8327
X8.0118Y-5.0689
X8.0126Y-4.0248
X8.0138Y-3.9665
X8.0157Y-3.8878
X8.0177Y-2.8642
X8.0177Y-2.9429
X8.0177Y-3.4941
X8.0177Y-3.5728
X8.0177Y-3.6516
X8.0177Y-3.7303
X8.0177Y-3.8092
X8.0197Y-3.0216
X8.0413Y-3.1693
X8.0413Y-3.3268
X8.061Y-5.1181
X8.0728Y-3.3209
X8.0915Y-2.6083
X8.0915Y-3.9075
X8.0915Y-2.5689
X8.0915Y-3.8681
X8.0915Y-2.5295
X8.0915Y-3.8287
X8.0915Y-2.6476
X8.0915Y-3.9468
X8.0918Y-3.002
X8.0918Y-4.3012
X8.0918Y-2.9626
X8.0918Y-4.2618
X8.0918Y-2.9232
X8.0918Y-3.0413
X8.0918Y-4.3405
X8.0919Y-3.5138
X8.0919Y-2.0965
X8.0919Y-2.1358
X8.0919Y-2.1752
X8.0919Y-2.2146
X8.0919Y-2.2539
X8.0919Y-2.2933
X8.0919Y-2.3327
X8.0919Y-2.3721
X8.0919Y-2.4114
X8.0919Y-2.4508
X8.0919Y-2.4902
X8.0919Y-3.3957
X8.0919Y-3.435
X8.0919Y-3.4744
X8.0919Y-3.5532
X8.0919Y-3.5925
X8.0919Y-3.6319
X8.0919Y-3.6713
X8.0919Y-3.75
X8.0922Y-2.687
X8.0922Y-2.7264
X8.0922Y-2.7658
X8.0922Y-2.8051
X8.0922Y-2.8445
X8.0922Y-2.8839
X8.0922Y-3.9862
X8.0922Y-4.0256
X8.0922Y-4.065
X8.0922Y-4.1043
X8.0922Y-4.1437
X8.0922Y-4.1831
X8.1004Y-5.1319
X8.1004Y-5.1555
X8.1004Y-5.1791
X8.1004Y-5.2028
X8.1004Y-5.2264
X8.1004Y-5.25
X8.1052Y-2.6279
X8.1052Y-2.5492
X8.1056Y-4.2815
X8.1056Y-2.313
X8.1056Y-2.3917
X8.1056Y-2.1555
X8.1056Y-2.4705
X8.1056Y-2.2342
X8.1056Y-3.4154
X8.1058Y-4.2029
X8.1059Y-4.124
X8.106Y-4.0453
X8.106Y-2.7067
X8.106Y-2.7855
X8.1063Y-3.7894
X8.1073Y-3.7087
X8.1102Y-2.2736
X8.1102Y-3.3268
X8.1181Y-3.0886
X8.1201Y-2.8642
X8.1201Y-2.9429
X8.124Y-5.1319
X8.124Y-5.1555
X8.124Y-5.1791
X8.124Y-5.2028
X8.124Y-5.2264
X8.124Y-5.25
X8.1299Y-4.2224
X8.1398Y-2.0079
X8.1398Y-2.7559
X8.1398Y-3.6811
X8.1398Y-3.7598
X8.1398Y-3.8484
X8.1437Y-3.3957
X8.1476Y-5.1319
X8.1476Y-5.1555
X8.1476Y-5.1791
X8.1476Y-5.2028
X8.1476Y-5.2264
X8.1476Y-5.25
X8.1496Y-3.0906
X8.1594Y-2.5295
X8.1594Y-2.6969
X8.1594Y-3.8976
X8.1594Y-3.9862
X8.1618Y-3.4862
X8.1654Y-3.0079
X8.1693Y-2.4606
X8.1693Y-3.3957
X8.1791Y-3.0315
X8.1799Y-3.5728
X8.187Y-2.9587
X8.189Y-3.4941
X8.1988Y-2.185
X8.1988Y-2.2539
X8.1988Y-2.3524
X8.1988Y-3.5925
X8.1988Y-4.9114
X8.1988Y-4.9606
X8.1988Y-5.3543
X8.1988Y-5.4232
X8.2087Y-2.4311
X8.2087Y-2.8701
X8.2087Y-2.9429
X8.2087Y-3.6909
X8.2087Y-3.8091
X8.2087Y-3.9272
X8.2106Y-5.0295
X8.2106Y-5.0492
X8.2106Y-5.0689
X8.2106Y-5.0886
X8.2106Y-5.1083
X8.2126Y-5.2264
X8.2126Y-5.2461
X8.2126Y-5.2657
X8.2126Y-5.2854
X8.2126Y-5.3051
X8.2323Y-2.7933
X8.2382Y-2.8543
X8.2579Y-2.0079
X8.2579Y-2.2539
X8.2579Y-2.3524
X8.2579Y-2.4606
X8.2579Y-2.5689
X8.2579Y-2.6673
X8.2579Y-2.7756
X8.2972Y-4.9311
X8.2972Y-4.9705
X8.2972Y-5.0098
X8.2972Y-5.1476
X8.2972Y-5.187
X8.2972Y-5.3445
X8.2972Y-5.3839
X8.2972Y-5.4232
X8.2972Y-5.4626
X8.2972Y-4.8917
X8.2972Y-4.9114
X8.2972Y-4.9508
X8.2972Y-4.9902
X8.2972Y-5.128
X8.2972Y-5.1673
X8.2972Y-5.3248
X8.2972Y-5.3642
X8.2972Y-5.4035
X8.2972Y-5.4429
X8.2972Y-4.872
X8.2972Y-5.2067
X8.3465Y-5.0
X8.3563Y-5.1476
X8.376Y-2.0079
X8.4055Y-3.6516
X8.4055Y-3.7697
X8.4055Y-3.8878
X8.4055Y-3.9961
X8.4055Y-4.1043
X8.4154Y-3.5531
X8.4252Y-2.3524
X8.4252Y-2.4606
X8.4252Y-2.5689
X8.4252Y-2.6673
X8.4252Y-2.7854
X8.4252Y-3.4843
X8.4252Y-5.1378
X8.4323Y-3.5748
X8.435Y-2.2343
X8.435Y-4.9213
X8.4449Y-2.9134
X8.4488Y-2.8091
X8.4504Y-3.4941
X8.4547Y-3.435
X8.4547Y-3.9961
X8.4646Y-2.9823
X8.4646Y-4.1043
X8.4646Y-4.2028
X8.4669Y-2.937
X8.4685Y-3.4579
X8.4744Y-2.3031
X8.4744Y-2.4114
X8.4744Y-3.0315
X8.4744Y-3.3957
X8.4843Y-3.8976
X8.4843Y-5.0787
X8.485Y-2.998
X8.4878Y-3.4252
X8.4941Y-2.4902
X8.4941Y-3.6713
X8.5031Y-3.0467
X8.5039Y-2.1654
X8.5039Y-2.2343
X8.5039Y-3.2677
X8.5039Y-3.7697
X8.5039Y-3.8386
X8.5039Y-4.1535
X8.5059Y-3.3957
X8.5138Y-2.5492
X8.5138Y-2.7067
X8.5138Y-3.6122
X8.5213Y-3.0669
X8.5236Y-2.7756
X8.5335Y-4.8228
X8.5394Y-3.7323
X8.5433Y-2.0079
X8.5433Y-5.0197
X8.5492Y-3.5217
X8.5496Y-3.4941
X8.5499Y-2.9775
X8.5531Y-4.4587
X8.5531Y-4.5571
X8.5531Y-4.7047
X8.5573Y-2.9212
X8.5594Y-2.4114
X8.5594Y-2.3327
X8.5594Y-3.75
X8.5594Y-3.5925
X8.5594Y-3.6713
X8.5596Y-2.2538
X8.5597Y-2.8051
X8.5597Y-3.0413
X8.5598Y-2.7264
X8.5598Y-2.8838
X8.5598Y-2.4904
X8.5598Y-2.1752
X8.5598Y-4.1437
X8.5598Y-4.0649
X8.5598Y-3.9862
X8.5598Y-4.2224
X8.5598Y-3.4351
X8.5599Y-2.6475
X8.5601Y-2.5689
X8.5602Y-3.9075
X8.5602Y-3.8287
X8.563Y-3.2087
X8.5708Y-2.9413
X8.5728Y-3.2874
X8.5731Y-2.2736
X8.5731Y-2.313
X8.5731Y-2.3524
X8.5731Y-2.3917
X8.5731Y-2.4311
X8.5731Y-2.4705
X8.5732Y-3.5728
X8.5732Y-3.6122
X8.5732Y-3.6516
X8.5732Y-3.6909
X8.5732Y-3.7697
X8.5735Y-2.6673
X8.5735Y-2.7067
X8.5735Y-2.7461
X8.5735Y-2.7854
X8.5735Y-2.8248
X8.5735Y-2.8642
X8.5735Y-2.9035
X8.5735Y-2.9823
X8.5735Y-3.0216
X8.5735Y-3.061
X8.5735Y-2.1161
X8.5735Y-2.2342
X8.5735Y-3.9665
X8.5735Y-4.0059
X8.5735Y-4.0453
X8.5735Y-4.0846
X8.5735Y-4.124
X8.5735Y-4.1634
X8.5735Y-4.2027
X8.5735Y-4.2421
X8.5735Y-4.2815
X8.5735Y-4.3209
X8.5735Y-4.3602
X8.5735Y-2.1949
X8.5735Y-2.1555
X8.5736Y-3.4154
X8.5736Y-3.5335
X8.5736Y-3.4941
X8.5736Y-3.4547
X8.5739Y-2.5098
X8.5739Y-2.6279
X8.5739Y-2.5886
X8.5739Y-2.5492
X8.5739Y-3.8091
X8.5739Y-3.9272
X8.5739Y-3.8878
X8.5739Y-3.8484
X8.5827Y-3.3465
X8.5886Y-3.1909
X8.5925Y-3.1594
X8.5965Y-3.0812
X8.6024Y-4.9606
X8.6063Y-3.252
X8.626Y-4.6398
X8.626Y-4.6634
X8.626Y-4.687
X8.6516Y-2.185
X8.6535Y-2.0965
X8.6594Y-3.2776
X8.6614Y-2.0079
X8.6614Y-2.2835
X8.6614Y-2.372
X8.6614Y-2.4508
X8.6614Y-3.1594
X8.6614Y-4.9016
X8.6638Y-3.3917
X8.6654Y-3.417
X8.6732Y-3.187
X8.6756Y-3.065
X8.6772Y-3.1354
X8.6811Y-2.0866
X8.6831Y-3.3701
X8.685Y-3.4882
X8.687Y-3.252
X8.689Y-2.8976
X8.689Y-2.9232
X8.689Y-2.9488
X8.689Y-3.0173
X8.689Y-3.0413
X8.689Y-3.1594
X8.689Y-3.2776
X8.689Y-3.3016
X8.689Y-3.3957
X8.689Y-3.5138
X8.689Y-3.5394
X8.7008Y-4.3209
X8.7008Y-4.4291
X8.7008Y-4.6555
X8.7008Y-4.7343
X8.7008Y-4.8228
X8.7087Y-2.6339
X8.7106Y-2.4213
X8.7106Y-2.5
X8.7106Y-2.5591
X8.7106Y-4.1929
X8.713Y-3.6096
X8.7205Y-2.2539
X8.7244Y-2.6594
X8.7264Y-3.5744
X8.7283Y-2.8594
X8.7297Y-2.9812
X8.7297Y-3.3356
X8.7297Y-3.2174
X8.7303Y-2.3524
X8.7305Y-3.4537
X8.7307Y-3.6748
X8.7307Y-3.65
X8.7307Y-3.7303
X8.7308Y-3.0994
X8.7343Y-2.6004
X8.7369Y-3.612
X8.7402Y-4.1142
X8.75Y-2.1555
X8.75Y-4.4291
X8.7539Y-2.5551
X8.7598Y-2.5886
X8.7697Y-2.0079
X8.7697Y-2.6772
X8.7697Y-4.5866
X8.7795Y-2.3425
X8.7795Y-3.9764
X8.7874Y-4.061
X8.7894Y-2.5
X8.7972Y-4.0315
X8.7992Y-2.4311
X8.7992Y-3.8878
X8.8091Y-2.7362
X8.811Y-3.9626
X8.8189Y-2.2244
X8.8189Y-4.2028
X8.8386Y-4.3406
X8.8386Y-4.5177
X8.8524Y-4.0413
X8.8583Y-2.3622
X8.8681Y-2.8051
X8.8681Y-3.9764
X8.8701Y-4.061
X8.878Y-2.0079
X8.8878Y-2.2933
X8.8976Y-4.0846
X8.9075Y-2.5689
X8.9075Y-4.2717
X8.9075Y-4.4488
X8.9135Y-2.412
X8.9232Y-4.0315
X8.937Y-3.9173
X8.9567Y-3.9764
X8.9764Y-4.3799
X8.9841Y-3.3372
X8.9848Y-3.4555
X8.9862Y-2.0079
X8.9862Y-2.6378
X8.9862Y-2.6969
X8.9862Y-3.6122
X8.9862Y-4.1929
X8.9863Y-3.1014
X8.9868Y-3.2196
X8.9868Y-2.9834
X8.9875Y-3.574
X8.9915Y-2.8594
X8.9961Y-2.3524
X8.9965Y-3.7303
X9.0246Y-3.6762
X9.0275Y-3.252
X9.0276Y-2.9232
X9.0276Y-3.0413
X9.0276Y-3.1594
X9.0276Y-3.2776
X9.0276Y-3.3957
X9.0276Y-3.5138
X9.0315Y-3.3031
X9.0374Y-2.8976
X9.0374Y-2.9488
X9.0394Y-3.1358
X9.0413Y-3.0177
X9.0413Y-3.0654
X9.0413Y-3.185
X9.0453Y-4.1339
X9.0453Y-4.311
X9.0473Y-3.6201
X9.0492Y-3.3783
X9.0492Y-3.6555
X9.0512Y-3.4232
X9.0512Y-3.4921
X9.0512Y-3.5414
X9.0551Y-3.252
X9.0551Y-4.065
X9.0555Y-2.8594
X9.0561Y-3.3041
X9.0591Y-3.2776
X9.0748Y-2.7756
X9.0748Y-3.6024
X9.0846Y-2.0079
X9.0846Y-2.6378
X9.0965Y-3.4429
X9.0965Y-3.561
X9.1024Y-2.8799
X9.1043Y-2.3622
X9.1063Y-2.9232
X9.1063Y-3.0413
X9.1063Y-3.0866
X9.1063Y-3.1594
X9.1063Y-3.3957
X9.1063Y-3.4705
X9.1063Y-3.5138
X9.1083Y-2.998
X9.1083Y-3.3701
X9.1102Y-3.1949
X9.1122Y-2.9646
X9.1122Y-3.1181
X9.1142Y-4.2421
X9.1161Y-4.0748
X9.1161Y-4.0984
X9.1161Y-4.122
X9.1535Y-2.0472
X9.1535Y-2.1358
X9.1535Y-2.2343
X9.1535Y-2.3327
X9.1535Y-2.4114
X9.1535Y-2.5886
X9.1535Y-2.6969
X9.1535Y-2.8051
X9.1535Y-2.9035
X9.1535Y-2.9921
X9.1535Y-3.1004
X9.1535Y-3.2185
X9.1535Y-3.3366
X9.1535Y-3.4547
X9.1535Y-3.5728
X9.1535Y-3.6614
X9.1535Y-3.7598
T2
X7.4606Y-2.5
X7.4606Y-4.7638
X9.0354Y-2.5
X9.0354Y-4.7638
M30
