%TF.GenerationSoftware,KiCad,Pcbnew,8.0.1*%
%TF.CreationDate,2026-01-15T10:00:18-05:00*%
%TF.ProjectId,Main Mezzanine Backplane,4d61696e-204d-4657-9a7a-616e696e6520,rev?*%
%TF.SameCoordinates,Original*%
%TF.FileFunction,Copper,L2,Inr*%
%TF.FilePolarity,Positive*%
%FSLAX46Y46*%
G04 Gerber Fmt 4.6, Leading zero omitted, Abs format (unit mm)*
G04 Created by KiCad (PCBNEW 8.0.1) date 2026-01-15 10:00:18*
%MOMM*%
%LPD*%
G01*
G04 APERTURE LIST*
%TA.AperFunction,ComponentPad*%
%ADD10C,3.600000*%
%TD*%
%TA.AperFunction,ViaPad*%
%ADD11C,0.500000*%
%TD*%
G04 APERTURE END LIST*
D10*
%TO.N,unconnected-(H1-Pad1)_1*%
%TO.C,H1*%
X189500000Y-63500000D03*
%TD*%
%TO.N,unconnected-(H2-Pad1)_1*%
%TO.C,H2*%
X229500000Y-63500000D03*
%TD*%
%TO.N,unconnected-(H4-Pad1)_1*%
%TO.C,H4*%
X229500000Y-121000000D03*
%TD*%
%TO.N,unconnected-(H3-Pad1)_1*%
%TO.C,H3*%
X189500000Y-121000000D03*
%TD*%
D11*
%TO.N,+5V*%
X231550000Y-103500000D03*
X219100000Y-119050000D03*
X201900000Y-118950000D03*
X188250000Y-102400000D03*
X188250000Y-103000000D03*
X219100000Y-117850000D03*
X208550000Y-128250000D03*
X231550000Y-104100000D03*
X188250000Y-103600000D03*
X231550000Y-104700000D03*
X208550000Y-127750000D03*
X219100000Y-118450000D03*
X201900000Y-118350000D03*
X208550000Y-128750000D03*
X201900000Y-117750000D03*
X208550000Y-129750000D03*
X208550000Y-129250000D03*
%TO.N,GND*%
X204750000Y-130000000D03*
X225250000Y-101000000D03*
X188750000Y-51000000D03*
X217767492Y-101749850D03*
X216000000Y-56750000D03*
X201750000Y-127000000D03*
X198500000Y-106750000D03*
X223000000Y-101000000D03*
X229300000Y-80250000D03*
X217000000Y-51000000D03*
X203250000Y-78750000D03*
X206250000Y-72750000D03*
X198300000Y-86250000D03*
X190750000Y-60000000D03*
X221000000Y-118250000D03*
X205542429Y-105250149D03*
X186500000Y-92250000D03*
X203000000Y-55500000D03*
X224000000Y-106750000D03*
X232500000Y-54250000D03*
X210748900Y-135750000D03*
X210749450Y-125750000D03*
X217757571Y-58749851D03*
X186500000Y-105000000D03*
X212750000Y-51000000D03*
X221700000Y-72630001D03*
X222750000Y-68000000D03*
X228264748Y-75777769D03*
X230750000Y-51000000D03*
X214000000Y-88500000D03*
X210748900Y-136750000D03*
X217750000Y-83500000D03*
X216900000Y-94800000D03*
X197000000Y-70000000D03*
X210749450Y-135250000D03*
X220000000Y-62250000D03*
X232500000Y-81750000D03*
X217757571Y-60749851D03*
X196250000Y-62500000D03*
X202250000Y-69750000D03*
X226402307Y-61264908D03*
X220000000Y-124500000D03*
X229300000Y-74250000D03*
X213500000Y-92750000D03*
X217250000Y-113250000D03*
X216500000Y-70500000D03*
X193750000Y-112250000D03*
X192500000Y-61250000D03*
X209750000Y-65250000D03*
X226000000Y-103750000D03*
X212000000Y-127000000D03*
X215250000Y-77000000D03*
X210749450Y-137250000D03*
X190060000Y-92850000D03*
X223500000Y-98750000D03*
X209750000Y-70500000D03*
X215750000Y-93250000D03*
X197264592Y-84776806D03*
X186500000Y-78750000D03*
X198300000Y-83250000D03*
X217757571Y-59749851D03*
X189700000Y-74250000D03*
X221250000Y-61500000D03*
X203500000Y-67750000D03*
X213500000Y-95750000D03*
X187250000Y-94500000D03*
X194250000Y-51000000D03*
X205542429Y-73250149D03*
X205533608Y-63250149D03*
X203521141Y-102228859D03*
X217767802Y-54750404D03*
X208500000Y-99750000D03*
X221761742Y-78725629D03*
X205532198Y-109249596D03*
X232500000Y-93000000D03*
X217757571Y-61749851D03*
X208250000Y-91250000D03*
X205542429Y-104250149D03*
X217768594Y-88750151D03*
X200000000Y-105000000D03*
X213750000Y-90250000D03*
X208500000Y-93750000D03*
X203500000Y-51000000D03*
X217758671Y-95749850D03*
X214750000Y-101500000D03*
X189700000Y-77250000D03*
X186500000Y-51750000D03*
X186500000Y-57500000D03*
X205523685Y-65249848D03*
X215500000Y-99000000D03*
X217776623Y-64750404D03*
X232500000Y-95500000D03*
X205532506Y-108249848D03*
X194500000Y-64500000D03*
X205533608Y-88250149D03*
X204250000Y-84500000D03*
X228250000Y-91750000D03*
X188750000Y-72000000D03*
X208000000Y-88750000D03*
X203500000Y-99750000D03*
X200000000Y-67000000D03*
X232500000Y-90750000D03*
X200000000Y-69750000D03*
X221000000Y-120250000D03*
X217767494Y-55750152D03*
X210748900Y-126250000D03*
X191750000Y-110250000D03*
X230000000Y-103250000D03*
X205533608Y-60250149D03*
X228250000Y-51000000D03*
X193250000Y-63750000D03*
X197250000Y-91750000D03*
X193500000Y-98250000D03*
X217500000Y-81500000D03*
X221650000Y-90789479D03*
X208500000Y-96750000D03*
X209250000Y-72500000D03*
X224500000Y-114750000D03*
X222750000Y-116500000D03*
X232500000Y-65750000D03*
X222250000Y-112500000D03*
X190500000Y-70250000D03*
X217776313Y-66749851D03*
X212250000Y-130750000D03*
X209750000Y-67750000D03*
X190735391Y-81723203D03*
X220000000Y-58000000D03*
X197500000Y-111000000D03*
X205542429Y-103250149D03*
X203250000Y-60250000D03*
X229300000Y-86250000D03*
X216250000Y-68750000D03*
X210748900Y-131750000D03*
X186500000Y-81750000D03*
X190750000Y-68250000D03*
X232500000Y-52000000D03*
X215000000Y-106750000D03*
X227500000Y-101000000D03*
X202000000Y-86250000D03*
X215000000Y-104250000D03*
X199750000Y-81750000D03*
X205533608Y-92250149D03*
X214000000Y-59750000D03*
X197300000Y-93250000D03*
X197341786Y-103962995D03*
X192750000Y-106250000D03*
X207500000Y-86250000D03*
X217250000Y-115750000D03*
X221000000Y-109750000D03*
X227000000Y-99500000D03*
X210748900Y-137750000D03*
X202750000Y-62250000D03*
X197264660Y-81776768D03*
X217767492Y-105749850D03*
X228250000Y-68500000D03*
X226250000Y-108500000D03*
X226250000Y-113000000D03*
X201250000Y-69750000D03*
X210748900Y-127250000D03*
X218500000Y-126000000D03*
X217766392Y-71749851D03*
X217757571Y-62749851D03*
X217766392Y-77749851D03*
X213500000Y-101500000D03*
X195750000Y-114250000D03*
X205523713Y-67249872D03*
X214250000Y-56750000D03*
X201250000Y-68000000D03*
X206750000Y-95500000D03*
X215000000Y-75750000D03*
X205532534Y-77249872D03*
X214000000Y-62500000D03*
X220700000Y-86250000D03*
X218250000Y-80250000D03*
X229300000Y-89250000D03*
X228250000Y-67000000D03*
X206000000Y-84500000D03*
X199750000Y-113250000D03*
X210749450Y-124250000D03*
X203500000Y-69750000D03*
X217777415Y-98750151D03*
X198250000Y-60250000D03*
X205523713Y-100249872D03*
X232500000Y-61250000D03*
X214750000Y-87250000D03*
X208250000Y-57250000D03*
X199860585Y-106481617D03*
X222750000Y-51000000D03*
X210749450Y-138250000D03*
X189000000Y-67250000D03*
X219750000Y-55500000D03*
X206250000Y-74750000D03*
X208250000Y-137750000D03*
X191500000Y-51000000D03*
X205523687Y-97250149D03*
X221750000Y-59750000D03*
X205542429Y-68250149D03*
X195250000Y-103500000D03*
X217777723Y-97750403D03*
X221500000Y-57250000D03*
X221000000Y-122500000D03*
X208250000Y-59750000D03*
X186500000Y-60750000D03*
X214500000Y-74000000D03*
X228282652Y-90778402D03*
X232500000Y-87750000D03*
X223250000Y-63500000D03*
X220700000Y-89250000D03*
X223750000Y-69500000D03*
X205533608Y-93250149D03*
X190748054Y-72630001D03*
X197250000Y-72630001D03*
X196000000Y-98500000D03*
X217758671Y-90749850D03*
X205533608Y-53250149D03*
X205542429Y-70250149D03*
X192750000Y-66250000D03*
X205533458Y-89249999D03*
X202750000Y-65750000D03*
X228500000Y-59750000D03*
X203500000Y-111500000D03*
X214000000Y-67750000D03*
X223500000Y-61750000D03*
X214000000Y-70750000D03*
X220700000Y-80250000D03*
X217767492Y-108749850D03*
X199750000Y-118250000D03*
X232500000Y-56750000D03*
X205533608Y-59250149D03*
X217776315Y-65750152D03*
X186500000Y-89250000D03*
X215250000Y-61250000D03*
X215250000Y-58500000D03*
X189700000Y-80250000D03*
X220000000Y-60250000D03*
X206750000Y-70000000D03*
X188750000Y-70000000D03*
X188500000Y-94000000D03*
X198300000Y-77250000D03*
X221917006Y-91744115D03*
X190712013Y-90735186D03*
X201750000Y-77250000D03*
X225500000Y-51000000D03*
X216000000Y-95750000D03*
X195250000Y-108750000D03*
X216000000Y-83000000D03*
X190735340Y-87723232D03*
X206000000Y-57750000D03*
X205542429Y-106250149D03*
X208500000Y-74750000D03*
X232500000Y-68500000D03*
X224000000Y-56500000D03*
X205533608Y-91250149D03*
X210748900Y-125250000D03*
X202000000Y-82000000D03*
X217766392Y-70749851D03*
X217766392Y-67749851D03*
X186500000Y-102500000D03*
X208500000Y-61750000D03*
X191500000Y-101250000D03*
X213500000Y-104250000D03*
X225250000Y-71250000D03*
X201500000Y-57000000D03*
X207250000Y-101250000D03*
X198300000Y-74250000D03*
X205523685Y-98249848D03*
X200000000Y-58500000D03*
X217766392Y-75749851D03*
X217767492Y-110749850D03*
X186500000Y-87500000D03*
X205533608Y-54250149D03*
X205532534Y-110249872D03*
X221250000Y-65000000D03*
X231500000Y-107750000D03*
X232500000Y-76000000D03*
X208250000Y-124750000D03*
X197264752Y-75777769D03*
X209750000Y-51000000D03*
X221735224Y-75722228D03*
X205542429Y-101250149D03*
X228264660Y-81776768D03*
X190735224Y-84722228D03*
X232500000Y-73750000D03*
X210748900Y-138750000D03*
X205925640Y-94200000D03*
X217000000Y-127500000D03*
X190000000Y-108500000D03*
X215750000Y-63250000D03*
X229300000Y-83250000D03*
X197750000Y-116250000D03*
X203000000Y-91500000D03*
X209750000Y-62500000D03*
X221250000Y-63500000D03*
X198300000Y-89250000D03*
X203500000Y-122750000D03*
X228510000Y-94750000D03*
X205532506Y-75249848D03*
X221753570Y-87724414D03*
X210750000Y-123750000D03*
X216000000Y-55000000D03*
X206750000Y-97750000D03*
X210750000Y-132250000D03*
X224500000Y-110250000D03*
X220000000Y-51000000D03*
X203500000Y-106250000D03*
X228195997Y-84765649D03*
X205533608Y-57250149D03*
X217250000Y-119500000D03*
X229750000Y-105000000D03*
X220700000Y-74250000D03*
X189700000Y-83250000D03*
X205532198Y-76249596D03*
X217768566Y-86750127D03*
X186500000Y-69750000D03*
X198500000Y-98750000D03*
X200000000Y-122750000D03*
X203500000Y-119250000D03*
X206750000Y-93500000D03*
X221250000Y-106500000D03*
X189700000Y-89250000D03*
X217758671Y-91749850D03*
X216000000Y-105500000D03*
X205533608Y-86250149D03*
X208250000Y-136000000D03*
X231250000Y-60000000D03*
X217698971Y-74709033D03*
X217776287Y-63750128D03*
X208250000Y-126000000D03*
X230010000Y-72630001D03*
X207500000Y-62500000D03*
X205523687Y-64250149D03*
X214000000Y-130500000D03*
X230500000Y-91500000D03*
X217767492Y-106749850D03*
X217758671Y-92749850D03*
X217767492Y-109749850D03*
X197500000Y-63250000D03*
X194500000Y-66250000D03*
X195500000Y-101850000D03*
X186500000Y-99500000D03*
X217766392Y-68749851D03*
X205533608Y-87250149D03*
X202000000Y-64000000D03*
X200250000Y-108500000D03*
X186500000Y-72500000D03*
X217767492Y-103749850D03*
X232500000Y-59250000D03*
X190735224Y-75722228D03*
X200000000Y-120500000D03*
X221760000Y-94750000D03*
X228251580Y-78776275D03*
X205533608Y-90250149D03*
X206750000Y-51000000D03*
X196750000Y-51000000D03*
X200000000Y-125250000D03*
X217766392Y-72749851D03*
X205523377Y-99249596D03*
X217766392Y-76749851D03*
X189700000Y-86250000D03*
X220700000Y-77250000D03*
X205542429Y-102250149D03*
X190700000Y-91750000D03*
X210749450Y-136250000D03*
X213500000Y-98750000D03*
X217767492Y-100749850D03*
X232500000Y-71250000D03*
X203500000Y-108250000D03*
X228250000Y-106500000D03*
X217767466Y-53750128D03*
X229225270Y-93375270D03*
X205533608Y-56250149D03*
X203500000Y-128750000D03*
X194000000Y-100500000D03*
X210749450Y-131250000D03*
X205542429Y-72250149D03*
X221735584Y-81723098D03*
X207000000Y-78500000D03*
X205523377Y-66249596D03*
X221735466Y-84723162D03*
X188250000Y-106750000D03*
X215500000Y-129000000D03*
X205533608Y-58250149D03*
X216250000Y-64750000D03*
X207250000Y-99000000D03*
X217768592Y-89749850D03*
X217757571Y-57749851D03*
X197264811Y-87777775D03*
X205542429Y-71250149D03*
X190735224Y-78722228D03*
X214000000Y-65250000D03*
X197264776Y-78777772D03*
X215250000Y-86250000D03*
X209750000Y-57250000D03*
X186500000Y-96750000D03*
X205542429Y-69250149D03*
X205533608Y-62250149D03*
X221759210Y-93340250D03*
X205533608Y-55250149D03*
X232500000Y-78750000D03*
X217766392Y-73749851D03*
X207250000Y-64250000D03*
X217766392Y-69749851D03*
X207750000Y-77000000D03*
X205533608Y-95250149D03*
X230750000Y-67000000D03*
X223000000Y-59500000D03*
X225750000Y-58250000D03*
X217767492Y-102749850D03*
X197297899Y-90779840D03*
X217777413Y-99749850D03*
X228000000Y-111250000D03*
X205900000Y-96250149D03*
X205533608Y-61250149D03*
X222000000Y-104500000D03*
X216750000Y-122500000D03*
X225000000Y-60000000D03*
X207250000Y-68500000D03*
X204250000Y-80500000D03*
X216000000Y-97500000D03*
X214250000Y-125000000D03*
X210749450Y-124750000D03*
X186500000Y-75750000D03*
X217777387Y-96750127D03*
X205532508Y-74250149D03*
X223450000Y-102400000D03*
X217768902Y-87750403D03*
X217767492Y-56749851D03*
X228383229Y-72630001D03*
X201250000Y-59500000D03*
X198300000Y-80250000D03*
X197350000Y-94750000D03*
X210748900Y-130750000D03*
X210749450Y-126750000D03*
X220700000Y-83250000D03*
X199750000Y-51000000D03*
X186500000Y-84750000D03*
X228213810Y-87769831D03*
X203500000Y-57250000D03*
X220500000Y-53000000D03*
X229300000Y-77250000D03*
X230500000Y-70500000D03*
X216250000Y-91750000D03*
X222500000Y-65750000D03*
X190650000Y-94750000D03*
X218000000Y-85000000D03*
X226250000Y-65250000D03*
X217767492Y-107749850D03*
X206500000Y-107250000D03*
X210749450Y-130250000D03*
X229750000Y-109500000D03*
X232500000Y-84750000D03*
X208250000Y-55500000D03*
X209750000Y-59750000D03*
X186500000Y-54750000D03*
X203500000Y-115250000D03*
X186500000Y-67000000D03*
X217758671Y-93749850D03*
X221000000Y-112500000D03*
X202250000Y-67750000D03*
X217767492Y-104749850D03*
X222250000Y-54750000D03*
X200000000Y-111750000D03*
%TO.N,+24V*%
X206350000Y-130950000D03*
X206950000Y-130950000D03*
X205750000Y-130350000D03*
X206350000Y-133350000D03*
X206350000Y-131550000D03*
X205750000Y-131550000D03*
X206350000Y-130350000D03*
X206350000Y-132750000D03*
X206950000Y-133350000D03*
X205750000Y-132750000D03*
X205750000Y-130950000D03*
X205750000Y-132150000D03*
X206950000Y-130350000D03*
X206350000Y-132150000D03*
X206950000Y-131550000D03*
X205750000Y-133350000D03*
X206950000Y-132750000D03*
X206950000Y-132150000D03*
%TO.N,+3.3V*%
X221760000Y-92710000D03*
X199050000Y-80250000D03*
X187700000Y-74250000D03*
X190705227Y-92642503D03*
X208600000Y-134750000D03*
X218350000Y-78262403D03*
X187700000Y-77250000D03*
X199050000Y-83250000D03*
X187700000Y-83250000D03*
X231300000Y-77250000D03*
X219950000Y-83250000D03*
X231300000Y-89250000D03*
X190250000Y-92200000D03*
X220000000Y-80250000D03*
X231300000Y-80250000D03*
X231300000Y-86250000D03*
X187700000Y-89250000D03*
X231300000Y-74250000D03*
X226650000Y-102400000D03*
X208600000Y-133750000D03*
X229850000Y-92850000D03*
X217150000Y-89450000D03*
X208600000Y-133250000D03*
X198410000Y-92509223D03*
X199050000Y-74250000D03*
X230100000Y-83250000D03*
X220060000Y-86150000D03*
X193600000Y-101850000D03*
X187700000Y-80250000D03*
X208600000Y-132750000D03*
X208600000Y-134250000D03*
X217354449Y-74199747D03*
X199050000Y-77250000D03*
X199050000Y-86250000D03*
X187700000Y-86250000D03*
X199050000Y-89250000D03*
%TO.N,L_11*%
X189400000Y-76650000D03*
X205872930Y-64749717D03*
%TO.N,L_0*%
X209100000Y-70950000D03*
%TO.N,L_18*%
X198700000Y-79650000D03*
%TO.N,L_5*%
X189150000Y-74800000D03*
X205882625Y-58749859D03*
%TO.N,L_7*%
X187700000Y-75350000D03*
X205882626Y-60750438D03*
%TO.N,L_3*%
X189075270Y-73550001D03*
X205882630Y-56749862D03*
%TO.N,L_10*%
X198650000Y-76640001D03*
%TO.N,L_23*%
X187650000Y-81350000D03*
X203700000Y-76749323D03*
%TO.N,L_4*%
X198700000Y-74859999D03*
%TO.N,L_14*%
X207400000Y-76400000D03*
%TO.N,L_22*%
X203350000Y-80450000D03*
%TO.N,L_13*%
X205872358Y-66749323D03*
X189250000Y-77700000D03*
%TO.N,L_19*%
X203650000Y-72749860D03*
X189250000Y-79700000D03*
%TO.N,L_20*%
X198650000Y-80859999D03*
%TO.N,L_8*%
X207950000Y-75150000D03*
%TO.N,L_6*%
X208500000Y-72900000D03*
%TO.N,L_1*%
X205882627Y-54750438D03*
X188050000Y-72400000D03*
%TO.N,L_24*%
X200550000Y-82000000D03*
%TO.N,L_2*%
X198650000Y-73550000D03*
X198800000Y-70900000D03*
X198800000Y-72550000D03*
%TO.N,L_9*%
X205882627Y-62749860D03*
X187900000Y-75950000D03*
%TO.N,L_16*%
X206200000Y-78450000D03*
%TO.N,L_21*%
X203650000Y-74749713D03*
X189250000Y-80803203D03*
%TO.N,L_12*%
X198650000Y-77859999D03*
%TO.N,L_17*%
X187800000Y-78950000D03*
X205891453Y-70750434D03*
%TO.N,L_15*%
X205891452Y-68750434D03*
X187750000Y-78200000D03*
%TO.N,L_43*%
X189250000Y-88640001D03*
X205890989Y-104750758D03*
%TO.N,L_29*%
X203650000Y-90749863D03*
X189300000Y-83750000D03*
%TO.N,L_36*%
X198600000Y-86859999D03*
%TO.N,L_27*%
X203650000Y-88750631D03*
X189300000Y-82660000D03*
%TO.N,L_28*%
X198550000Y-83859999D03*
%TO.N,L_48*%
X197950000Y-91600000D03*
X196350000Y-101650000D03*
X194950000Y-100600000D03*
%TO.N,L_46*%
X199800000Y-92350000D03*
%TO.N,L_41*%
X205891449Y-102749861D03*
X187700000Y-88250000D03*
%TO.N,L_32*%
X206850000Y-86250000D03*
%TO.N,L_49*%
X190000000Y-91550000D03*
X193750000Y-101100000D03*
X192050000Y-100700000D03*
%TO.N,L_33*%
X187700000Y-85250000D03*
X203650000Y-94750435D03*
%TO.N,L_42*%
X198600000Y-88640001D03*
%TO.N,L_25*%
X205882666Y-86750411D03*
X187700000Y-82600000D03*
%TO.N,L_35*%
X203650000Y-96753324D03*
X189250000Y-85660000D03*
%TO.N,L_44*%
X198650000Y-89859999D03*
%TO.N,L_37*%
X189450000Y-86850000D03*
X203599008Y-98749547D03*
%TO.N,L_39*%
X203550000Y-100750000D03*
X187700000Y-87350000D03*
%TO.N,L_45*%
X205886430Y-106753901D03*
X189200000Y-89850000D03*
%TO.N,L_38*%
X207310000Y-88550000D03*
%TO.N,L_40*%
X207770000Y-90750000D03*
%TO.N,L_34*%
X198650000Y-85640001D03*
%TO.N,L_47*%
X189140000Y-92850000D03*
X205881561Y-108749548D03*
%TO.N,L_30*%
X205050000Y-84350000D03*
%TO.N,L_26*%
X198600000Y-82650000D03*
%TO.N,L_31*%
X187600000Y-83950000D03*
X203650000Y-92750435D03*
%TO.N,R_22*%
X231400000Y-81150000D03*
X217168717Y-75629033D03*
%TO.N,R_4*%
X229550000Y-74900000D03*
X217413846Y-57245910D03*
%TO.N,R_14*%
X231300000Y-78400000D03*
X217422321Y-67246146D03*
%TO.N,R_1*%
X214600000Y-71350000D03*
%TO.N,R_18*%
X229600000Y-79650000D03*
X217417374Y-71249562D03*
%TO.N,R_11*%
X220700000Y-76639997D03*
%TO.N,R_17*%
X216440000Y-77900000D03*
%TO.N,R_15*%
X215980000Y-77387250D03*
%TO.N,R_16*%
X231450000Y-79200000D03*
X217417655Y-69250337D03*
%TO.N,R_24*%
X230000000Y-82600000D03*
X217417416Y-77250170D03*
%TO.N,R_8*%
X217408506Y-61250108D03*
X231350000Y-76150000D03*
%TO.N,R_2*%
X229550000Y-73600000D03*
X217418443Y-55250456D03*
%TO.N,R_3*%
X221200000Y-66900000D03*
X222350000Y-64900000D03*
X220700000Y-73600000D03*
%TO.N,R_5*%
X221600000Y-67550000D03*
X220700000Y-74900000D03*
X221850000Y-66050000D03*
%TO.N,R_19*%
X220400000Y-79640054D03*
%TO.N,R_23*%
X218150000Y-81050000D03*
%TO.N,R_10*%
X217418313Y-63256809D03*
X229650000Y-76650000D03*
%TO.N,R_6*%
X231450000Y-75300000D03*
X217408556Y-59249560D03*
%TO.N,R_21*%
X220300000Y-80950000D03*
%TO.N,R_9*%
X215520000Y-76150000D03*
%TO.N,R_0*%
X231200000Y-73150000D03*
X219800000Y-53250000D03*
%TO.N,R_13*%
X220360000Y-77850000D03*
%TO.N,R_20*%
X217417697Y-73249336D03*
X229650000Y-80900000D03*
%TO.N,R_7*%
X215060000Y-74600000D03*
%TO.N,R_12*%
X217427266Y-65249884D03*
X229650000Y-77859999D03*
%TO.N,R_26*%
X217419941Y-87250690D03*
X229299461Y-82600000D03*
%TO.N,R_30*%
X217409770Y-91249479D03*
X230025000Y-83925000D03*
%TO.N,R_34*%
X217409654Y-95249560D03*
X229850000Y-85810000D03*
%TO.N,R_40*%
X231300000Y-88150000D03*
X217418476Y-101250141D03*
%TO.N,R_43*%
X220600000Y-88600000D03*
%TO.N,R_33*%
X215590000Y-87000000D03*
%TO.N,R_31*%
X216050000Y-86250000D03*
%TO.N,R_49*%
X225300000Y-103150000D03*
X221310000Y-91683727D03*
X223800000Y-100650000D03*
%TO.N,R_44*%
X217418469Y-105249563D03*
X229900281Y-89950797D03*
%TO.N,R_29*%
X220700000Y-83860003D03*
%TO.N,R_39*%
X215100000Y-87830151D03*
%TO.N,R_42*%
X217418474Y-103249561D03*
X229900000Y-88700000D03*
%TO.N,R_32*%
X217409778Y-93250227D03*
X231350000Y-85600000D03*
%TO.N,R_45*%
X220700000Y-89900000D03*
%TO.N,R_28*%
X217158591Y-88750151D03*
X229400000Y-83900000D03*
%TO.N,R_27*%
X220650000Y-82600000D03*
%TO.N,R_37*%
X220100000Y-86790690D03*
%TO.N,R_41*%
X214640000Y-88750000D03*
%TO.N,R_47*%
X214180000Y-90800000D03*
%TO.N,R_35*%
X220550000Y-85600000D03*
%TO.N,R_38*%
X231050000Y-87450000D03*
X217428081Y-99249780D03*
%TO.N,R_25*%
X218600000Y-82600000D03*
%TO.N,R_36*%
X229899886Y-86949999D03*
X217428686Y-97250127D03*
%TO.N,R_46*%
X217418584Y-107249484D03*
X231050000Y-90450000D03*
%TO.N,R_48*%
X224850000Y-102650000D03*
X223200000Y-103150000D03*
X229800270Y-91950270D03*
%TD*%
%TA.AperFunction,Conductor*%
%TO.N,GND*%
G36*
X231502642Y-50500688D02*
G01*
X231708118Y-50515385D01*
X231718567Y-50516887D01*
X231774033Y-50528952D01*
X231917296Y-50560117D01*
X231927406Y-50563085D01*
X232117965Y-50634161D01*
X232127556Y-50638541D01*
X232247496Y-50704033D01*
X232306041Y-50736001D01*
X232314924Y-50741709D01*
X232477727Y-50863582D01*
X232485706Y-50870496D01*
X232629503Y-51014293D01*
X232636417Y-51022272D01*
X232758290Y-51185075D01*
X232763998Y-51193958D01*
X232861456Y-51372439D01*
X232865842Y-51382042D01*
X232936909Y-51572578D01*
X232939884Y-51582710D01*
X232983112Y-51781432D01*
X232984614Y-51791881D01*
X232999311Y-51997356D01*
X232999500Y-52002636D01*
X232999500Y-144997363D01*
X232999311Y-145002643D01*
X232984614Y-145208118D01*
X232983112Y-145218567D01*
X232939884Y-145417289D01*
X232936909Y-145427421D01*
X232865842Y-145617957D01*
X232861456Y-145627560D01*
X232763998Y-145806041D01*
X232758290Y-145814924D01*
X232636417Y-145977727D01*
X232629503Y-145985706D01*
X232485706Y-146129503D01*
X232477727Y-146136417D01*
X232314924Y-146258290D01*
X232306041Y-146263998D01*
X232127560Y-146361456D01*
X232117957Y-146365842D01*
X231927421Y-146436909D01*
X231917289Y-146439884D01*
X231718567Y-146483112D01*
X231708118Y-146484614D01*
X231525297Y-146497690D01*
X231502641Y-146499311D01*
X231497364Y-146499500D01*
X187502636Y-146499500D01*
X187497358Y-146499311D01*
X187472878Y-146497560D01*
X187291881Y-146484614D01*
X187281432Y-146483112D01*
X187082710Y-146439884D01*
X187072584Y-146436910D01*
X186882040Y-146365841D01*
X186872439Y-146361456D01*
X186693958Y-146263998D01*
X186685075Y-146258290D01*
X186522272Y-146136417D01*
X186514293Y-146129503D01*
X186370496Y-145985706D01*
X186363582Y-145977727D01*
X186241709Y-145814924D01*
X186236001Y-145806041D01*
X186138543Y-145627560D01*
X186134161Y-145617965D01*
X186063085Y-145427406D01*
X186060117Y-145417296D01*
X186016887Y-145218567D01*
X186015385Y-145208117D01*
X186000689Y-145002642D01*
X186000500Y-144997363D01*
X186000500Y-134750000D01*
X208194508Y-134750000D01*
X208214353Y-134875301D01*
X208214353Y-134875302D01*
X208214354Y-134875304D01*
X208271950Y-134988342D01*
X208361658Y-135078050D01*
X208474696Y-135135646D01*
X208600000Y-135155492D01*
X208725304Y-135135646D01*
X208838342Y-135078050D01*
X208928050Y-134988342D01*
X208985646Y-134875304D01*
X209005492Y-134750000D01*
X208985646Y-134624696D01*
X208939226Y-134533593D01*
X208934783Y-134477133D01*
X208939222Y-134466414D01*
X208985646Y-134375304D01*
X209005492Y-134250000D01*
X208985646Y-134124696D01*
X208939226Y-134033593D01*
X208934783Y-133977133D01*
X208939222Y-133966414D01*
X208985646Y-133875304D01*
X209005492Y-133750000D01*
X208985646Y-133624696D01*
X208939226Y-133533593D01*
X208934783Y-133477133D01*
X208939222Y-133466414D01*
X208985646Y-133375304D01*
X209005492Y-133250000D01*
X208985646Y-133124696D01*
X208939226Y-133033593D01*
X208934783Y-132977133D01*
X208939222Y-132966414D01*
X208985646Y-132875304D01*
X209005492Y-132750000D01*
X208985646Y-132624696D01*
X208928050Y-132511658D01*
X208838342Y-132421950D01*
X208725304Y-132364354D01*
X208725302Y-132364353D01*
X208725301Y-132364353D01*
X208600000Y-132344508D01*
X208474698Y-132364353D01*
X208361656Y-132421951D01*
X208271951Y-132511656D01*
X208214353Y-132624698D01*
X208194508Y-132750000D01*
X208214353Y-132875301D01*
X208214353Y-132875302D01*
X208214354Y-132875304D01*
X208260773Y-132966406D01*
X208265216Y-133022867D01*
X208260775Y-133033589D01*
X208260772Y-133033596D01*
X208214353Y-133124698D01*
X208194508Y-133250000D01*
X208214353Y-133375301D01*
X208214353Y-133375302D01*
X208214354Y-133375304D01*
X208260773Y-133466406D01*
X208265216Y-133522867D01*
X208260775Y-133533589D01*
X208260772Y-133533596D01*
X208214353Y-133624698D01*
X208194508Y-133750000D01*
X208214353Y-133875301D01*
X208214353Y-133875302D01*
X208214354Y-133875304D01*
X208260773Y-133966406D01*
X208265216Y-134022867D01*
X208260775Y-134033589D01*
X208260772Y-134033596D01*
X208214353Y-134124698D01*
X208194508Y-134250000D01*
X208214353Y-134375301D01*
X208214353Y-134375302D01*
X208214354Y-134375304D01*
X208260773Y-134466406D01*
X208265216Y-134522867D01*
X208260775Y-134533589D01*
X208260772Y-134533596D01*
X208214353Y-134624698D01*
X208194508Y-134750000D01*
X186000500Y-134750000D01*
X186000500Y-133350000D01*
X205194750Y-133350000D01*
X205213669Y-133493708D01*
X205269138Y-133627623D01*
X205269139Y-133627625D01*
X205357379Y-133742621D01*
X205472375Y-133830861D01*
X205606291Y-133886330D01*
X205750000Y-133905250D01*
X205893709Y-133886330D01*
X205961706Y-133858165D01*
X206021682Y-133833323D01*
X206078318Y-133833323D01*
X206179671Y-133875304D01*
X206206291Y-133886330D01*
X206350000Y-133905250D01*
X206493709Y-133886330D01*
X206561706Y-133858165D01*
X206621682Y-133833323D01*
X206678318Y-133833323D01*
X206779671Y-133875304D01*
X206806291Y-133886330D01*
X206950000Y-133905250D01*
X207093709Y-133886330D01*
X207227625Y-133830861D01*
X207342621Y-133742621D01*
X207430861Y-133627625D01*
X207486330Y-133493709D01*
X207505250Y-133350000D01*
X207486330Y-133206291D01*
X207433323Y-133078318D01*
X207433323Y-133021682D01*
X207486330Y-132893708D01*
X207488753Y-132875302D01*
X207505250Y-132750000D01*
X207486330Y-132606291D01*
X207433323Y-132478318D01*
X207433323Y-132421682D01*
X207486330Y-132293708D01*
X207505250Y-132150000D01*
X207486330Y-132006291D01*
X207433323Y-131878318D01*
X207433323Y-131821682D01*
X207486330Y-131693708D01*
X207505250Y-131550000D01*
X207486330Y-131406291D01*
X207433323Y-131278318D01*
X207433323Y-131221682D01*
X207486330Y-131093708D01*
X207505250Y-130950000D01*
X207486330Y-130806291D01*
X207433323Y-130678318D01*
X207433323Y-130621682D01*
X207486330Y-130493708D01*
X207505250Y-130350000D01*
X207486330Y-130206291D01*
X207430861Y-130072375D01*
X207342621Y-129957379D01*
X207227625Y-129869139D01*
X207227623Y-129869138D01*
X207093708Y-129813669D01*
X206950000Y-129794750D01*
X206806291Y-129813669D01*
X206678318Y-129866677D01*
X206621682Y-129866677D01*
X206493708Y-129813669D01*
X206350000Y-129794750D01*
X206206291Y-129813669D01*
X206078318Y-129866677D01*
X206021682Y-129866677D01*
X205893708Y-129813669D01*
X205750000Y-129794750D01*
X205606291Y-129813669D01*
X205472376Y-129869138D01*
X205357379Y-129957379D01*
X205269138Y-130072376D01*
X205213669Y-130206291D01*
X205194750Y-130350000D01*
X205213669Y-130493708D01*
X205266677Y-130621682D01*
X205266677Y-130678318D01*
X205213669Y-130806291D01*
X205194750Y-130950000D01*
X205213669Y-131093708D01*
X205266677Y-131221682D01*
X205266677Y-131278318D01*
X205213669Y-131406291D01*
X205194750Y-131550000D01*
X205213669Y-131693708D01*
X205266677Y-131821682D01*
X205266677Y-131878318D01*
X205213669Y-132006291D01*
X205194750Y-132150000D01*
X205213669Y-132293708D01*
X205266677Y-132421682D01*
X205266677Y-132478318D01*
X205213669Y-132606291D01*
X205194750Y-132750000D01*
X205213669Y-132893708D01*
X205266677Y-133021682D01*
X205266677Y-133078318D01*
X205213669Y-133206291D01*
X205194750Y-133350000D01*
X186000500Y-133350000D01*
X186000500Y-129750000D01*
X208144508Y-129750000D01*
X208164353Y-129875301D01*
X208164353Y-129875302D01*
X208164354Y-129875304D01*
X208221950Y-129988342D01*
X208311658Y-130078050D01*
X208424696Y-130135646D01*
X208550000Y-130155492D01*
X208675304Y-130135646D01*
X208788342Y-130078050D01*
X208878050Y-129988342D01*
X208935646Y-129875304D01*
X208955492Y-129750000D01*
X208935646Y-129624696D01*
X208889226Y-129533593D01*
X208884783Y-129477133D01*
X208889222Y-129466414D01*
X208935646Y-129375304D01*
X208955492Y-129250000D01*
X208935646Y-129124696D01*
X208889226Y-129033593D01*
X208884783Y-128977133D01*
X208889222Y-128966414D01*
X208935646Y-128875304D01*
X208955492Y-128750000D01*
X208935646Y-128624696D01*
X208889226Y-128533593D01*
X208884783Y-128477133D01*
X208889222Y-128466414D01*
X208935646Y-128375304D01*
X208955492Y-128250000D01*
X208935646Y-128124696D01*
X208889226Y-128033593D01*
X208884783Y-127977133D01*
X208889222Y-127966414D01*
X208935646Y-127875304D01*
X208955492Y-127750000D01*
X208935646Y-127624696D01*
X208878050Y-127511658D01*
X208788342Y-127421950D01*
X208675304Y-127364354D01*
X208675302Y-127364353D01*
X208675301Y-127364353D01*
X208550000Y-127344508D01*
X208424698Y-127364353D01*
X208311656Y-127421951D01*
X208221951Y-127511656D01*
X208164353Y-127624698D01*
X208144508Y-127750000D01*
X208164353Y-127875301D01*
X208164353Y-127875302D01*
X208164354Y-127875304D01*
X208210773Y-127966406D01*
X208215216Y-128022867D01*
X208210775Y-128033589D01*
X208210772Y-128033596D01*
X208164353Y-128124698D01*
X208144508Y-128250000D01*
X208164353Y-128375301D01*
X208164353Y-128375302D01*
X208164354Y-128375304D01*
X208210773Y-128466406D01*
X208215216Y-128522867D01*
X208210775Y-128533589D01*
X208210772Y-128533596D01*
X208164353Y-128624698D01*
X208144508Y-128750000D01*
X208164353Y-128875301D01*
X208164353Y-128875302D01*
X208164354Y-128875304D01*
X208210773Y-128966406D01*
X208215216Y-129022867D01*
X208210775Y-129033589D01*
X208210772Y-129033596D01*
X208164353Y-129124698D01*
X208144508Y-129250000D01*
X208164353Y-129375301D01*
X208164353Y-129375302D01*
X208164354Y-129375304D01*
X208210773Y-129466406D01*
X208215216Y-129522867D01*
X208210775Y-129533589D01*
X208210772Y-129533596D01*
X208164353Y-129624698D01*
X208144508Y-129750000D01*
X186000500Y-129750000D01*
X186000500Y-121000006D01*
X187544518Y-121000006D01*
X187564421Y-121278291D01*
X187623728Y-121550918D01*
X187623733Y-121550937D01*
X187721228Y-121812333D01*
X187854942Y-122057211D01*
X187938544Y-122168890D01*
X188022145Y-122280568D01*
X188219432Y-122477855D01*
X188386948Y-122603255D01*
X188442788Y-122645057D01*
X188687666Y-122778771D01*
X188949062Y-122876266D01*
X188949067Y-122876267D01*
X188949077Y-122876271D01*
X189221706Y-122935578D01*
X189283549Y-122940001D01*
X189499993Y-122955482D01*
X189500000Y-122955482D01*
X189500007Y-122955482D01*
X189694805Y-122941549D01*
X189778294Y-122935578D01*
X190050923Y-122876271D01*
X190050934Y-122876266D01*
X190050937Y-122876266D01*
X190312333Y-122778771D01*
X190557211Y-122645057D01*
X190557210Y-122645057D01*
X190557213Y-122645056D01*
X190780568Y-122477855D01*
X190977855Y-122280568D01*
X191145056Y-122057213D01*
X191278769Y-121812337D01*
X191278769Y-121812335D01*
X191278771Y-121812333D01*
X191376266Y-121550937D01*
X191376266Y-121550934D01*
X191376271Y-121550923D01*
X191435578Y-121278294D01*
X191455482Y-121000006D01*
X227544518Y-121000006D01*
X227564421Y-121278291D01*
X227623728Y-121550918D01*
X227623733Y-121550937D01*
X227721228Y-121812333D01*
X227854942Y-122057211D01*
X227938544Y-122168890D01*
X228022145Y-122280568D01*
X228219432Y-122477855D01*
X228386948Y-122603255D01*
X228442788Y-122645057D01*
X228687666Y-122778771D01*
X228949062Y-122876266D01*
X228949067Y-122876267D01*
X228949077Y-122876271D01*
X229221706Y-122935578D01*
X229283549Y-122940001D01*
X229499993Y-122955482D01*
X229500000Y-122955482D01*
X229500007Y-122955482D01*
X229694805Y-122941549D01*
X229778294Y-122935578D01*
X230050923Y-122876271D01*
X230050934Y-122876266D01*
X230050937Y-122876266D01*
X230312333Y-122778771D01*
X230557211Y-122645057D01*
X230557210Y-122645057D01*
X230557213Y-122645056D01*
X230780568Y-122477855D01*
X230977855Y-122280568D01*
X231145056Y-122057213D01*
X231278769Y-121812337D01*
X231278769Y-121812335D01*
X231278771Y-121812333D01*
X231376266Y-121550937D01*
X231376266Y-121550934D01*
X231376271Y-121550923D01*
X231435578Y-121278294D01*
X231455482Y-121000000D01*
X231455482Y-120999993D01*
X231435578Y-120721708D01*
X231435578Y-120721706D01*
X231376271Y-120449077D01*
X231376267Y-120449067D01*
X231376266Y-120449062D01*
X231278771Y-120187666D01*
X231145057Y-119942788D01*
X231103255Y-119886948D01*
X230977855Y-119719432D01*
X230780568Y-119522145D01*
X230665019Y-119435646D01*
X230557211Y-119354942D01*
X230312333Y-119221228D01*
X230050937Y-119123733D01*
X230050925Y-119123730D01*
X230050923Y-119123729D01*
X229995971Y-119111775D01*
X229778291Y-119064421D01*
X229500007Y-119044518D01*
X229499993Y-119044518D01*
X229221708Y-119064421D01*
X228949081Y-119123728D01*
X228949062Y-119123733D01*
X228687666Y-119221228D01*
X228442788Y-119354942D01*
X228219429Y-119522147D01*
X228022147Y-119719429D01*
X227854942Y-119942788D01*
X227721228Y-120187666D01*
X227623733Y-120449062D01*
X227623728Y-120449081D01*
X227564421Y-120721708D01*
X227544518Y-120999993D01*
X227544518Y-121000006D01*
X191455482Y-121000006D01*
X191455482Y-121000000D01*
X191455482Y-120999993D01*
X191435578Y-120721708D01*
X191435578Y-120721706D01*
X191376271Y-120449077D01*
X191376267Y-120449067D01*
X191376266Y-120449062D01*
X191278771Y-120187666D01*
X191145057Y-119942788D01*
X191103255Y-119886948D01*
X190977855Y-119719432D01*
X190780568Y-119522145D01*
X190665019Y-119435646D01*
X190557211Y-119354942D01*
X190312333Y-119221228D01*
X190050937Y-119123733D01*
X190050925Y-119123730D01*
X190050923Y-119123729D01*
X189995971Y-119111775D01*
X189778291Y-119064421D01*
X189500007Y-119044518D01*
X189499993Y-119044518D01*
X189221708Y-119064421D01*
X188949081Y-119123728D01*
X188949062Y-119123733D01*
X188687666Y-119221228D01*
X188442788Y-119354942D01*
X188219429Y-119522147D01*
X188022147Y-119719429D01*
X187854942Y-119942788D01*
X187721228Y-120187666D01*
X187623733Y-120449062D01*
X187623728Y-120449081D01*
X187564421Y-120721708D01*
X187544518Y-120999993D01*
X187544518Y-121000006D01*
X186000500Y-121000006D01*
X186000500Y-118950000D01*
X201494508Y-118950000D01*
X201514353Y-119075301D01*
X201514353Y-119075302D01*
X201514354Y-119075304D01*
X201571950Y-119188342D01*
X201661658Y-119278050D01*
X201774696Y-119335646D01*
X201900000Y-119355492D01*
X202025304Y-119335646D01*
X202138342Y-119278050D01*
X202228050Y-119188342D01*
X202285646Y-119075304D01*
X202289654Y-119050000D01*
X218694508Y-119050000D01*
X218714353Y-119175301D01*
X218714353Y-119175302D01*
X218714354Y-119175304D01*
X218771950Y-119288342D01*
X218861658Y-119378050D01*
X218974696Y-119435646D01*
X219100000Y-119455492D01*
X219225304Y-119435646D01*
X219338342Y-119378050D01*
X219428050Y-119288342D01*
X219485646Y-119175304D01*
X219505492Y-119050000D01*
X219485646Y-118924696D01*
X219428050Y-118811658D01*
X219418718Y-118802326D01*
X219397044Y-118750000D01*
X219418718Y-118697674D01*
X219428050Y-118688342D01*
X219485646Y-118575304D01*
X219505492Y-118450000D01*
X219485646Y-118324696D01*
X219428050Y-118211658D01*
X219418718Y-118202326D01*
X219397044Y-118150000D01*
X219418718Y-118097674D01*
X219428050Y-118088342D01*
X219485646Y-117975304D01*
X219505492Y-117850000D01*
X219485646Y-117724696D01*
X219428050Y-117611658D01*
X219338342Y-117521950D01*
X219225304Y-117464354D01*
X219225302Y-117464353D01*
X219225301Y-117464353D01*
X219100000Y-117444508D01*
X218974698Y-117464353D01*
X218861656Y-117521951D01*
X218771951Y-117611656D01*
X218714353Y-117724698D01*
X218694508Y-117850000D01*
X218714353Y-117975301D01*
X218714353Y-117975302D01*
X218714354Y-117975304D01*
X218752414Y-118050000D01*
X218771951Y-118088343D01*
X218781282Y-118097674D01*
X218802956Y-118150000D01*
X218781282Y-118202326D01*
X218771951Y-118211656D01*
X218714353Y-118324698D01*
X218694508Y-118450000D01*
X218714353Y-118575301D01*
X218714353Y-118575302D01*
X218714354Y-118575304D01*
X218752414Y-118650000D01*
X218771951Y-118688343D01*
X218781282Y-118697674D01*
X218802956Y-118750000D01*
X218781282Y-118802326D01*
X218771951Y-118811656D01*
X218714353Y-118924698D01*
X218694508Y-119050000D01*
X202289654Y-119050000D01*
X202305492Y-118950000D01*
X202285646Y-118824696D01*
X202228050Y-118711658D01*
X202218718Y-118702326D01*
X202197044Y-118650000D01*
X202218718Y-118597674D01*
X202228050Y-118588342D01*
X202285646Y-118475304D01*
X202305492Y-118350000D01*
X202285646Y-118224696D01*
X202228050Y-118111658D01*
X202218718Y-118102326D01*
X202197044Y-118050000D01*
X202218718Y-117997674D01*
X202228050Y-117988342D01*
X202285646Y-117875304D01*
X202305492Y-117750000D01*
X202285646Y-117624696D01*
X202228050Y-117511658D01*
X202138342Y-117421950D01*
X202025304Y-117364354D01*
X202025302Y-117364353D01*
X202025301Y-117364353D01*
X201900000Y-117344508D01*
X201774698Y-117364353D01*
X201661656Y-117421951D01*
X201571951Y-117511656D01*
X201514353Y-117624698D01*
X201494508Y-117750000D01*
X201514353Y-117875301D01*
X201514353Y-117875302D01*
X201514354Y-117875304D01*
X201565307Y-117975304D01*
X201571951Y-117988343D01*
X201581282Y-117997674D01*
X201602956Y-118050000D01*
X201581282Y-118102326D01*
X201571951Y-118111656D01*
X201514353Y-118224698D01*
X201494508Y-118350000D01*
X201514353Y-118475301D01*
X201514353Y-118475302D01*
X201514354Y-118475304D01*
X201565307Y-118575304D01*
X201571951Y-118588343D01*
X201581282Y-118597674D01*
X201602956Y-118650000D01*
X201581282Y-118702326D01*
X201571951Y-118711656D01*
X201514353Y-118824698D01*
X201494508Y-118950000D01*
X186000500Y-118950000D01*
X186000500Y-108749548D01*
X205476069Y-108749548D01*
X205495914Y-108874849D01*
X205495914Y-108874850D01*
X205495915Y-108874852D01*
X205553511Y-108987890D01*
X205643219Y-109077598D01*
X205756257Y-109135194D01*
X205881561Y-109155040D01*
X206006865Y-109135194D01*
X206119903Y-109077598D01*
X206209611Y-108987890D01*
X206267207Y-108874852D01*
X206287053Y-108749548D01*
X206267207Y-108624244D01*
X206209611Y-108511206D01*
X206119903Y-108421498D01*
X206006865Y-108363902D01*
X206006863Y-108363901D01*
X206006862Y-108363901D01*
X205881561Y-108344056D01*
X205756259Y-108363901D01*
X205643217Y-108421499D01*
X205553512Y-108511204D01*
X205495914Y-108624246D01*
X205476069Y-108749548D01*
X186000500Y-108749548D01*
X186000500Y-107249484D01*
X217013092Y-107249484D01*
X217032937Y-107374785D01*
X217032937Y-107374786D01*
X217032938Y-107374788D01*
X217090534Y-107487826D01*
X217180242Y-107577534D01*
X217293280Y-107635130D01*
X217418584Y-107654976D01*
X217543888Y-107635130D01*
X217656926Y-107577534D01*
X217746634Y-107487826D01*
X217804230Y-107374788D01*
X217824076Y-107249484D01*
X217804230Y-107124180D01*
X217746634Y-107011142D01*
X217656926Y-106921434D01*
X217543888Y-106863838D01*
X217543886Y-106863837D01*
X217543885Y-106863837D01*
X217418584Y-106843992D01*
X217293282Y-106863837D01*
X217180240Y-106921435D01*
X217090535Y-107011140D01*
X217032937Y-107124182D01*
X217013092Y-107249484D01*
X186000500Y-107249484D01*
X186000500Y-106753901D01*
X205480938Y-106753901D01*
X205500783Y-106879202D01*
X205500783Y-106879203D01*
X205500784Y-106879205D01*
X205558380Y-106992243D01*
X205648088Y-107081951D01*
X205761126Y-107139547D01*
X205886430Y-107159393D01*
X206011734Y-107139547D01*
X206124772Y-107081951D01*
X206214480Y-106992243D01*
X206272076Y-106879205D01*
X206291922Y-106753901D01*
X206272076Y-106628597D01*
X206214480Y-106515559D01*
X206124772Y-106425851D01*
X206011734Y-106368255D01*
X206011732Y-106368254D01*
X206011731Y-106368254D01*
X205886430Y-106348409D01*
X205761128Y-106368254D01*
X205648086Y-106425852D01*
X205558381Y-106515557D01*
X205500783Y-106628599D01*
X205480938Y-106753901D01*
X186000500Y-106753901D01*
X186000500Y-105249563D01*
X217012977Y-105249563D01*
X217032822Y-105374864D01*
X217032822Y-105374865D01*
X217032823Y-105374867D01*
X217090419Y-105487905D01*
X217180127Y-105577613D01*
X217293165Y-105635209D01*
X217418469Y-105655055D01*
X217543773Y-105635209D01*
X217656811Y-105577613D01*
X217746519Y-105487905D01*
X217804115Y-105374867D01*
X217823961Y-105249563D01*
X217804115Y-105124259D01*
X217746519Y-105011221D01*
X217656811Y-104921513D01*
X217543773Y-104863917D01*
X217543771Y-104863916D01*
X217543770Y-104863916D01*
X217418469Y-104844071D01*
X217293167Y-104863916D01*
X217180125Y-104921514D01*
X217090420Y-105011219D01*
X217032822Y-105124261D01*
X217012977Y-105249563D01*
X186000500Y-105249563D01*
X186000500Y-104750758D01*
X205485497Y-104750758D01*
X205505342Y-104876059D01*
X205505342Y-104876060D01*
X205505343Y-104876062D01*
X205562939Y-104989100D01*
X205652647Y-105078808D01*
X205765685Y-105136404D01*
X205890989Y-105156250D01*
X206016293Y-105136404D01*
X206129331Y-105078808D01*
X206219039Y-104989100D01*
X206276635Y-104876062D01*
X206296481Y-104750758D01*
X206288442Y-104700000D01*
X231144508Y-104700000D01*
X231164353Y-104825301D01*
X231164353Y-104825302D01*
X231164354Y-104825304D01*
X231221950Y-104938342D01*
X231311658Y-105028050D01*
X231424696Y-105085646D01*
X231550000Y-105105492D01*
X231675304Y-105085646D01*
X231788342Y-105028050D01*
X231878050Y-104938342D01*
X231935646Y-104825304D01*
X231955492Y-104700000D01*
X231935646Y-104574696D01*
X231878050Y-104461658D01*
X231868718Y-104452326D01*
X231847044Y-104400000D01*
X231868718Y-104347674D01*
X231871126Y-104345266D01*
X231878050Y-104338342D01*
X231935646Y-104225304D01*
X231955492Y-104100000D01*
X231935646Y-103974696D01*
X231878050Y-103861658D01*
X231868718Y-103852326D01*
X231847044Y-103800000D01*
X231868718Y-103747674D01*
X231878050Y-103738342D01*
X231935646Y-103625304D01*
X231955492Y-103500000D01*
X231935646Y-103374696D01*
X231878050Y-103261658D01*
X231788342Y-103171950D01*
X231675304Y-103114354D01*
X231675302Y-103114353D01*
X231675301Y-103114353D01*
X231550000Y-103094508D01*
X231424698Y-103114353D01*
X231311656Y-103171951D01*
X231221951Y-103261656D01*
X231164353Y-103374698D01*
X231144508Y-103500000D01*
X231164353Y-103625301D01*
X231164353Y-103625302D01*
X231164354Y-103625304D01*
X231215307Y-103725304D01*
X231221951Y-103738343D01*
X231231282Y-103747674D01*
X231252956Y-103800000D01*
X231231282Y-103852326D01*
X231221951Y-103861656D01*
X231164353Y-103974698D01*
X231144508Y-104100000D01*
X231164353Y-104225301D01*
X231164353Y-104225302D01*
X231164354Y-104225304D01*
X231221950Y-104338342D01*
X231221951Y-104338343D01*
X231231282Y-104347674D01*
X231252956Y-104400000D01*
X231231282Y-104452326D01*
X231221951Y-104461656D01*
X231164353Y-104574698D01*
X231144508Y-104700000D01*
X206288442Y-104700000D01*
X206276635Y-104625454D01*
X206219039Y-104512416D01*
X206129331Y-104422708D01*
X206016293Y-104365112D01*
X206016291Y-104365111D01*
X206016290Y-104365111D01*
X205890989Y-104345266D01*
X205765687Y-104365111D01*
X205652645Y-104422709D01*
X205562940Y-104512414D01*
X205505342Y-104625456D01*
X205485497Y-104750758D01*
X186000500Y-104750758D01*
X186000500Y-103600000D01*
X187844508Y-103600000D01*
X187864353Y-103725301D01*
X187864353Y-103725302D01*
X187864354Y-103725304D01*
X187921950Y-103838342D01*
X188011658Y-103928050D01*
X188124696Y-103985646D01*
X188250000Y-104005492D01*
X188375304Y-103985646D01*
X188488342Y-103928050D01*
X188578050Y-103838342D01*
X188635646Y-103725304D01*
X188655492Y-103600000D01*
X188635646Y-103474696D01*
X188578050Y-103361658D01*
X188568718Y-103352326D01*
X188547044Y-103300000D01*
X188567936Y-103249561D01*
X217012982Y-103249561D01*
X217032827Y-103374862D01*
X217032827Y-103374863D01*
X217032828Y-103374865D01*
X217090424Y-103487903D01*
X217180132Y-103577611D01*
X217293170Y-103635207D01*
X217418474Y-103655053D01*
X217543778Y-103635207D01*
X217656816Y-103577611D01*
X217746524Y-103487903D01*
X217804120Y-103374865D01*
X217823966Y-103249561D01*
X217808197Y-103150000D01*
X222794508Y-103150000D01*
X222814353Y-103275301D01*
X222814353Y-103275302D01*
X222814354Y-103275304D01*
X222871950Y-103388342D01*
X222961658Y-103478050D01*
X223074696Y-103535646D01*
X223200000Y-103555492D01*
X223325304Y-103535646D01*
X223438342Y-103478050D01*
X223528050Y-103388342D01*
X223585646Y-103275304D01*
X223605492Y-103150000D01*
X223585646Y-103024696D01*
X223528050Y-102911658D01*
X223438342Y-102821950D01*
X223325304Y-102764354D01*
X223325302Y-102764353D01*
X223325301Y-102764353D01*
X223200000Y-102744508D01*
X223074698Y-102764353D01*
X222961656Y-102821951D01*
X222871951Y-102911656D01*
X222814353Y-103024698D01*
X222794508Y-103150000D01*
X217808197Y-103150000D01*
X217804120Y-103124257D01*
X217746524Y-103011219D01*
X217656816Y-102921511D01*
X217543778Y-102863915D01*
X217543776Y-102863914D01*
X217543775Y-102863914D01*
X217418474Y-102844069D01*
X217293172Y-102863914D01*
X217180130Y-102921512D01*
X217090425Y-103011217D01*
X217032827Y-103124259D01*
X217012982Y-103249561D01*
X188567936Y-103249561D01*
X188568718Y-103247674D01*
X188578050Y-103238342D01*
X188635646Y-103125304D01*
X188655492Y-103000000D01*
X188635646Y-102874696D01*
X188578050Y-102761658D01*
X188568718Y-102752326D01*
X188567697Y-102749861D01*
X205485957Y-102749861D01*
X205505802Y-102875162D01*
X205505802Y-102875163D01*
X205505803Y-102875165D01*
X205563399Y-102988203D01*
X205653107Y-103077911D01*
X205766145Y-103135507D01*
X205891449Y-103155353D01*
X206016753Y-103135507D01*
X206129791Y-103077911D01*
X206219499Y-102988203D01*
X206277095Y-102875165D01*
X206296941Y-102749861D01*
X206281125Y-102650000D01*
X224444508Y-102650000D01*
X224464353Y-102775301D01*
X224464353Y-102775302D01*
X224464354Y-102775304D01*
X224521950Y-102888342D01*
X224611658Y-102978050D01*
X224724696Y-103035646D01*
X224834931Y-103053105D01*
X224883222Y-103082698D01*
X224896445Y-103137765D01*
X224894508Y-103149999D01*
X224914353Y-103275301D01*
X224914353Y-103275302D01*
X224914354Y-103275304D01*
X224971950Y-103388342D01*
X225061658Y-103478050D01*
X225174696Y-103535646D01*
X225300000Y-103555492D01*
X225425304Y-103535646D01*
X225538342Y-103478050D01*
X225628050Y-103388342D01*
X225685646Y-103275304D01*
X225705492Y-103150000D01*
X225685646Y-103024696D01*
X225628050Y-102911658D01*
X225538342Y-102821950D01*
X225425304Y-102764354D01*
X225425302Y-102764353D01*
X225425301Y-102764353D01*
X225315067Y-102746894D01*
X225266776Y-102717301D01*
X225253554Y-102662231D01*
X225255492Y-102650000D01*
X225235646Y-102524696D01*
X225178050Y-102411658D01*
X225166392Y-102400000D01*
X226244508Y-102400000D01*
X226264353Y-102525301D01*
X226264353Y-102525302D01*
X226264354Y-102525304D01*
X226321950Y-102638342D01*
X226411658Y-102728050D01*
X226524696Y-102785646D01*
X226650000Y-102805492D01*
X226775304Y-102785646D01*
X226888342Y-102728050D01*
X226978050Y-102638342D01*
X227035646Y-102525304D01*
X227055492Y-102400000D01*
X227035646Y-102274696D01*
X226978050Y-102161658D01*
X226888342Y-102071950D01*
X226775304Y-102014354D01*
X226775302Y-102014353D01*
X226775301Y-102014353D01*
X226650000Y-101994508D01*
X226524698Y-102014353D01*
X226411656Y-102071951D01*
X226321951Y-102161656D01*
X226264353Y-102274698D01*
X226244508Y-102400000D01*
X225166392Y-102400000D01*
X225088342Y-102321950D01*
X224975304Y-102264354D01*
X224975302Y-102264353D01*
X224975301Y-102264353D01*
X224850000Y-102244508D01*
X224724698Y-102264353D01*
X224611656Y-102321951D01*
X224521951Y-102411656D01*
X224464353Y-102524698D01*
X224444508Y-102650000D01*
X206281125Y-102650000D01*
X206277095Y-102624557D01*
X206219499Y-102511519D01*
X206129791Y-102421811D01*
X206016753Y-102364215D01*
X206016751Y-102364214D01*
X206016750Y-102364214D01*
X205891449Y-102344369D01*
X205766147Y-102364214D01*
X205653105Y-102421812D01*
X205563400Y-102511517D01*
X205505802Y-102624559D01*
X205485957Y-102749861D01*
X188567697Y-102749861D01*
X188547044Y-102700000D01*
X188568718Y-102647674D01*
X188578050Y-102638342D01*
X188635646Y-102525304D01*
X188655492Y-102400000D01*
X188635646Y-102274696D01*
X188578050Y-102161658D01*
X188488342Y-102071950D01*
X188375304Y-102014354D01*
X188375302Y-102014353D01*
X188375301Y-102014353D01*
X188250000Y-101994508D01*
X188124698Y-102014353D01*
X188011656Y-102071951D01*
X187921951Y-102161656D01*
X187864353Y-102274698D01*
X187844508Y-102400000D01*
X187864353Y-102525301D01*
X187864353Y-102525302D01*
X187864354Y-102525304D01*
X187921950Y-102638342D01*
X187921951Y-102638343D01*
X187931282Y-102647674D01*
X187952956Y-102700000D01*
X187931282Y-102752326D01*
X187921951Y-102761656D01*
X187864353Y-102874698D01*
X187844508Y-103000000D01*
X187864353Y-103125301D01*
X187864353Y-103125302D01*
X187864354Y-103125304D01*
X187888122Y-103171951D01*
X187921951Y-103238343D01*
X187931282Y-103247674D01*
X187952956Y-103300000D01*
X187931282Y-103352326D01*
X187921951Y-103361656D01*
X187864353Y-103474698D01*
X187844508Y-103600000D01*
X186000500Y-103600000D01*
X186000500Y-101850000D01*
X193194508Y-101850000D01*
X193214353Y-101975301D01*
X193214353Y-101975302D01*
X193214354Y-101975304D01*
X193271950Y-102088342D01*
X193361658Y-102178050D01*
X193474696Y-102235646D01*
X193600000Y-102255492D01*
X193725304Y-102235646D01*
X193838342Y-102178050D01*
X193928050Y-102088342D01*
X193985646Y-101975304D01*
X194005492Y-101850000D01*
X193985646Y-101724696D01*
X193947586Y-101650000D01*
X195944508Y-101650000D01*
X195964353Y-101775301D01*
X195964353Y-101775302D01*
X195964354Y-101775304D01*
X196021950Y-101888342D01*
X196111658Y-101978050D01*
X196224696Y-102035646D01*
X196350000Y-102055492D01*
X196475304Y-102035646D01*
X196588342Y-101978050D01*
X196678050Y-101888342D01*
X196735646Y-101775304D01*
X196755492Y-101650000D01*
X196735646Y-101524696D01*
X196678050Y-101411658D01*
X196588342Y-101321950D01*
X196475304Y-101264354D01*
X196475302Y-101264353D01*
X196475301Y-101264353D01*
X196385567Y-101250141D01*
X217012984Y-101250141D01*
X217032829Y-101375442D01*
X217032829Y-101375443D01*
X217032830Y-101375445D01*
X217090426Y-101488483D01*
X217180134Y-101578191D01*
X217293172Y-101635787D01*
X217418476Y-101655633D01*
X217543780Y-101635787D01*
X217656818Y-101578191D01*
X217746526Y-101488483D01*
X217804122Y-101375445D01*
X217823968Y-101250141D01*
X217804122Y-101124837D01*
X217746526Y-101011799D01*
X217656818Y-100922091D01*
X217543780Y-100864495D01*
X217543778Y-100864494D01*
X217543777Y-100864494D01*
X217418476Y-100844649D01*
X217293174Y-100864494D01*
X217180132Y-100922092D01*
X217090427Y-101011797D01*
X217032829Y-101124839D01*
X217012984Y-101250141D01*
X196385567Y-101250141D01*
X196350000Y-101244508D01*
X196224698Y-101264353D01*
X196111656Y-101321951D01*
X196021951Y-101411656D01*
X196021950Y-101411658D01*
X195977590Y-101498720D01*
X195964353Y-101524698D01*
X195944508Y-101650000D01*
X193947586Y-101650000D01*
X193928050Y-101611658D01*
X193898788Y-101582396D01*
X193877114Y-101530070D01*
X193898788Y-101477744D01*
X193917513Y-101464139D01*
X193988342Y-101428050D01*
X194078050Y-101338342D01*
X194135646Y-101225304D01*
X194155492Y-101100000D01*
X194135646Y-100974696D01*
X194078050Y-100861658D01*
X193988342Y-100771950D01*
X193875304Y-100714354D01*
X193875302Y-100714353D01*
X193875301Y-100714353D01*
X193750000Y-100694508D01*
X193624698Y-100714353D01*
X193511656Y-100771951D01*
X193421951Y-100861656D01*
X193364353Y-100974698D01*
X193344508Y-101100000D01*
X193364353Y-101225301D01*
X193364353Y-101225302D01*
X193364354Y-101225304D01*
X193421950Y-101338342D01*
X193421951Y-101338343D01*
X193451211Y-101367603D01*
X193472885Y-101419929D01*
X193451211Y-101472255D01*
X193432481Y-101485863D01*
X193361657Y-101521950D01*
X193271951Y-101611656D01*
X193214353Y-101724698D01*
X193194508Y-101850000D01*
X186000500Y-101850000D01*
X186000500Y-100700000D01*
X191644508Y-100700000D01*
X191664353Y-100825301D01*
X191664353Y-100825302D01*
X191664354Y-100825304D01*
X191721950Y-100938342D01*
X191811658Y-101028050D01*
X191924696Y-101085646D01*
X192050000Y-101105492D01*
X192175304Y-101085646D01*
X192288342Y-101028050D01*
X192378050Y-100938342D01*
X192435646Y-100825304D01*
X192455492Y-100700000D01*
X192439654Y-100600000D01*
X194544508Y-100600000D01*
X194564353Y-100725301D01*
X194564353Y-100725302D01*
X194564354Y-100725304D01*
X194621950Y-100838342D01*
X194711658Y-100928050D01*
X194824696Y-100985646D01*
X194950000Y-101005492D01*
X195075304Y-100985646D01*
X195188342Y-100928050D01*
X195278050Y-100838342D01*
X195323063Y-100750000D01*
X203144508Y-100750000D01*
X203164353Y-100875301D01*
X203164353Y-100875302D01*
X203164354Y-100875304D01*
X203221950Y-100988342D01*
X203311658Y-101078050D01*
X203424696Y-101135646D01*
X203550000Y-101155492D01*
X203675304Y-101135646D01*
X203788342Y-101078050D01*
X203878050Y-100988342D01*
X203935646Y-100875304D01*
X203955492Y-100750000D01*
X203939654Y-100650000D01*
X223394508Y-100650000D01*
X223414353Y-100775301D01*
X223414353Y-100775302D01*
X223414354Y-100775304D01*
X223471950Y-100888342D01*
X223561658Y-100978050D01*
X223674696Y-101035646D01*
X223800000Y-101055492D01*
X223925304Y-101035646D01*
X224038342Y-100978050D01*
X224128050Y-100888342D01*
X224185646Y-100775304D01*
X224205492Y-100650000D01*
X224185646Y-100524696D01*
X224128050Y-100411658D01*
X224038342Y-100321950D01*
X223925304Y-100264354D01*
X223925302Y-100264353D01*
X223925301Y-100264353D01*
X223800000Y-100244508D01*
X223674698Y-100264353D01*
X223561656Y-100321951D01*
X223471951Y-100411656D01*
X223414353Y-100524698D01*
X223394508Y-100650000D01*
X203939654Y-100650000D01*
X203935646Y-100624696D01*
X203878050Y-100511658D01*
X203788342Y-100421950D01*
X203675304Y-100364354D01*
X203675302Y-100364353D01*
X203675301Y-100364353D01*
X203550000Y-100344508D01*
X203424698Y-100364353D01*
X203311656Y-100421951D01*
X203221951Y-100511656D01*
X203164353Y-100624698D01*
X203144508Y-100750000D01*
X195323063Y-100750000D01*
X195335646Y-100725304D01*
X195355492Y-100600000D01*
X195335646Y-100474696D01*
X195278050Y-100361658D01*
X195188342Y-100271950D01*
X195075304Y-100214354D01*
X195075302Y-100214353D01*
X195075301Y-100214353D01*
X194950000Y-100194508D01*
X194824698Y-100214353D01*
X194711656Y-100271951D01*
X194621951Y-100361656D01*
X194564353Y-100474698D01*
X194544508Y-100600000D01*
X192439654Y-100600000D01*
X192435646Y-100574696D01*
X192378050Y-100461658D01*
X192288342Y-100371950D01*
X192175304Y-100314354D01*
X192175302Y-100314353D01*
X192175301Y-100314353D01*
X192050000Y-100294508D01*
X191924698Y-100314353D01*
X191811656Y-100371951D01*
X191721951Y-100461656D01*
X191664353Y-100574698D01*
X191644508Y-100700000D01*
X186000500Y-100700000D01*
X186000500Y-99249780D01*
X217022589Y-99249780D01*
X217042434Y-99375081D01*
X217042434Y-99375082D01*
X217042435Y-99375084D01*
X217100031Y-99488122D01*
X217189739Y-99577830D01*
X217302777Y-99635426D01*
X217428081Y-99655272D01*
X217553385Y-99635426D01*
X217666423Y-99577830D01*
X217756131Y-99488122D01*
X217813727Y-99375084D01*
X217833573Y-99249780D01*
X217813727Y-99124476D01*
X217756131Y-99011438D01*
X217666423Y-98921730D01*
X217553385Y-98864134D01*
X217553383Y-98864133D01*
X217553382Y-98864133D01*
X217428081Y-98844288D01*
X217302779Y-98864133D01*
X217189737Y-98921731D01*
X217100032Y-99011436D01*
X217042434Y-99124478D01*
X217022589Y-99249780D01*
X186000500Y-99249780D01*
X186000500Y-98749547D01*
X203193516Y-98749547D01*
X203213361Y-98874848D01*
X203213361Y-98874849D01*
X203213362Y-98874851D01*
X203270958Y-98987889D01*
X203360666Y-99077597D01*
X203473704Y-99135193D01*
X203599008Y-99155039D01*
X203724312Y-99135193D01*
X203837350Y-99077597D01*
X203927058Y-98987889D01*
X203984654Y-98874851D01*
X204004500Y-98749547D01*
X203984654Y-98624243D01*
X203927058Y-98511205D01*
X203837350Y-98421497D01*
X203724312Y-98363901D01*
X203724310Y-98363900D01*
X203724309Y-98363900D01*
X203599008Y-98344055D01*
X203473706Y-98363900D01*
X203360664Y-98421498D01*
X203270959Y-98511203D01*
X203213361Y-98624245D01*
X203193516Y-98749547D01*
X186000500Y-98749547D01*
X186000500Y-98256020D01*
X194824500Y-98256020D01*
X194853495Y-98364232D01*
X194853496Y-98364235D01*
X194853497Y-98364237D01*
X194909515Y-98461263D01*
X194988737Y-98540485D01*
X195085763Y-98596503D01*
X195193979Y-98625499D01*
X195193980Y-98625500D01*
X195193982Y-98625500D01*
X195306020Y-98625500D01*
X195306020Y-98625499D01*
X195414237Y-98596503D01*
X195511263Y-98540485D01*
X195590485Y-98461263D01*
X195646503Y-98364237D01*
X195675499Y-98256020D01*
X195675500Y-98256020D01*
X225824500Y-98256020D01*
X225853495Y-98364232D01*
X225853496Y-98364235D01*
X225853497Y-98364237D01*
X225909515Y-98461263D01*
X225988737Y-98540485D01*
X226085763Y-98596503D01*
X226193979Y-98625499D01*
X226193980Y-98625500D01*
X226193982Y-98625500D01*
X226306020Y-98625500D01*
X226306020Y-98625499D01*
X226414237Y-98596503D01*
X226511263Y-98540485D01*
X226590485Y-98461263D01*
X226646503Y-98364237D01*
X226675499Y-98256020D01*
X226675500Y-98256020D01*
X226675500Y-98143980D01*
X226675499Y-98143979D01*
X226646504Y-98035767D01*
X226646503Y-98035763D01*
X226590485Y-97938737D01*
X226511263Y-97859515D01*
X226414241Y-97803499D01*
X226414232Y-97803495D01*
X226306020Y-97774500D01*
X226306018Y-97774500D01*
X226193982Y-97774500D01*
X226193980Y-97774500D01*
X226085767Y-97803495D01*
X226085758Y-97803499D01*
X225988736Y-97859515D01*
X225909515Y-97938736D01*
X225853499Y-98035758D01*
X225853495Y-98035767D01*
X225824500Y-98143979D01*
X225824500Y-98256020D01*
X195675500Y-98256020D01*
X195675500Y-98143980D01*
X195675499Y-98143979D01*
X195646504Y-98035767D01*
X195646503Y-98035763D01*
X195590485Y-97938737D01*
X195511263Y-97859515D01*
X195414241Y-97803499D01*
X195414232Y-97803495D01*
X195306020Y-97774500D01*
X195306018Y-97774500D01*
X195193982Y-97774500D01*
X195193980Y-97774500D01*
X195085767Y-97803495D01*
X195085758Y-97803499D01*
X194988736Y-97859515D01*
X194909515Y-97938736D01*
X194853499Y-98035758D01*
X194853495Y-98035767D01*
X194824500Y-98143979D01*
X194824500Y-98256020D01*
X186000500Y-98256020D01*
X186000500Y-97250127D01*
X217023194Y-97250127D01*
X217043039Y-97375428D01*
X217043039Y-97375429D01*
X217043040Y-97375431D01*
X217100636Y-97488469D01*
X217190344Y-97578177D01*
X217303382Y-97635773D01*
X217428686Y-97655619D01*
X217553990Y-97635773D01*
X217667028Y-97578177D01*
X217756736Y-97488469D01*
X217814332Y-97375431D01*
X217834178Y-97250127D01*
X217814332Y-97124823D01*
X217756736Y-97011785D01*
X217667028Y-96922077D01*
X217553990Y-96864481D01*
X217553988Y-96864480D01*
X217553987Y-96864480D01*
X217428686Y-96844635D01*
X217303384Y-96864480D01*
X217190342Y-96922078D01*
X217100637Y-97011783D01*
X217043039Y-97124825D01*
X217023194Y-97250127D01*
X186000500Y-97250127D01*
X186000500Y-96753324D01*
X203244508Y-96753324D01*
X203264353Y-96878625D01*
X203264353Y-96878626D01*
X203264354Y-96878628D01*
X203321950Y-96991666D01*
X203411658Y-97081374D01*
X203524696Y-97138970D01*
X203650000Y-97158816D01*
X203775304Y-97138970D01*
X203888342Y-97081374D01*
X203978050Y-96991666D01*
X204035646Y-96878628D01*
X204055492Y-96753324D01*
X204035646Y-96628020D01*
X203978050Y-96514982D01*
X203888342Y-96425274D01*
X203775304Y-96367678D01*
X203775302Y-96367677D01*
X203775301Y-96367677D01*
X203650000Y-96347832D01*
X203524698Y-96367677D01*
X203411656Y-96425275D01*
X203321951Y-96514980D01*
X203264353Y-96628022D01*
X203244508Y-96753324D01*
X186000500Y-96753324D01*
X186000500Y-95249560D01*
X217004162Y-95249560D01*
X217024007Y-95374861D01*
X217024007Y-95374862D01*
X217024008Y-95374864D01*
X217081604Y-95487902D01*
X217171312Y-95577610D01*
X217284350Y-95635206D01*
X217409654Y-95655052D01*
X217534958Y-95635206D01*
X217647996Y-95577610D01*
X217737704Y-95487902D01*
X217795300Y-95374864D01*
X217815146Y-95249560D01*
X217795300Y-95124256D01*
X217737704Y-95011218D01*
X217647996Y-94921510D01*
X217534958Y-94863914D01*
X217534956Y-94863913D01*
X217534955Y-94863913D01*
X217409654Y-94844068D01*
X217284352Y-94863913D01*
X217171310Y-94921511D01*
X217081605Y-95011216D01*
X217024007Y-95124258D01*
X217004162Y-95249560D01*
X186000500Y-95249560D01*
X186000500Y-94750435D01*
X203244508Y-94750435D01*
X203264353Y-94875736D01*
X203264353Y-94875737D01*
X203264354Y-94875739D01*
X203321950Y-94988777D01*
X203411658Y-95078485D01*
X203524696Y-95136081D01*
X203650000Y-95155927D01*
X203775304Y-95136081D01*
X203888342Y-95078485D01*
X203978050Y-94988777D01*
X204035646Y-94875739D01*
X204055492Y-94750435D01*
X204035646Y-94625131D01*
X203978050Y-94512093D01*
X203888342Y-94422385D01*
X203775304Y-94364789D01*
X203775302Y-94364788D01*
X203775301Y-94364788D01*
X203650000Y-94344943D01*
X203524698Y-94364788D01*
X203411656Y-94422386D01*
X203321951Y-94512091D01*
X203264353Y-94625133D01*
X203244508Y-94750435D01*
X186000500Y-94750435D01*
X186000500Y-92850000D01*
X188734508Y-92850000D01*
X188754353Y-92975301D01*
X188754353Y-92975302D01*
X188754354Y-92975304D01*
X188811950Y-93088342D01*
X188901658Y-93178050D01*
X189014696Y-93235646D01*
X189140000Y-93255492D01*
X189173242Y-93250227D01*
X217004286Y-93250227D01*
X217024131Y-93375528D01*
X217024131Y-93375529D01*
X217024132Y-93375531D01*
X217081728Y-93488569D01*
X217171436Y-93578277D01*
X217284474Y-93635873D01*
X217409778Y-93655719D01*
X217535082Y-93635873D01*
X217648120Y-93578277D01*
X217737828Y-93488569D01*
X217795424Y-93375531D01*
X217815270Y-93250227D01*
X217795424Y-93124923D01*
X217737828Y-93011885D01*
X217648120Y-92922177D01*
X217535082Y-92864581D01*
X217535080Y-92864580D01*
X217535079Y-92864580D01*
X217409778Y-92844735D01*
X217284476Y-92864580D01*
X217171434Y-92922178D01*
X217081729Y-93011883D01*
X217024131Y-93124925D01*
X217004286Y-93250227D01*
X189173242Y-93250227D01*
X189265304Y-93235646D01*
X189378342Y-93178050D01*
X189468050Y-93088342D01*
X189525646Y-92975304D01*
X189545492Y-92850000D01*
X189525646Y-92724696D01*
X189468050Y-92611658D01*
X189378342Y-92521950D01*
X189265304Y-92464354D01*
X189265302Y-92464353D01*
X189265301Y-92464353D01*
X189140000Y-92444508D01*
X189014698Y-92464353D01*
X188901656Y-92521951D01*
X188811951Y-92611656D01*
X188754353Y-92724698D01*
X188734508Y-92850000D01*
X186000500Y-92850000D01*
X186000500Y-91550000D01*
X189594508Y-91550000D01*
X189614353Y-91675301D01*
X189614353Y-91675302D01*
X189614354Y-91675304D01*
X189671950Y-91788342D01*
X189761658Y-91878050D01*
X189807473Y-91901394D01*
X189856798Y-91926527D01*
X189893580Y-91969594D01*
X189889137Y-92026055D01*
X189864353Y-92074696D01*
X189844508Y-92200000D01*
X189864353Y-92325301D01*
X189864353Y-92325302D01*
X189864354Y-92325304D01*
X189921950Y-92438342D01*
X190011658Y-92528050D01*
X190124696Y-92585646D01*
X190223452Y-92601287D01*
X190241899Y-92604209D01*
X190290190Y-92633802D01*
X190303412Y-92665722D01*
X190319580Y-92767804D01*
X190319580Y-92767805D01*
X190319581Y-92767807D01*
X190377177Y-92880845D01*
X190466885Y-92970553D01*
X190579923Y-93028149D01*
X190705227Y-93047995D01*
X190830531Y-93028149D01*
X190943569Y-92970553D01*
X191033277Y-92880845D01*
X191090873Y-92767807D01*
X191110719Y-92642503D01*
X191090873Y-92517199D01*
X191086809Y-92509223D01*
X198004508Y-92509223D01*
X198024353Y-92634524D01*
X198024353Y-92634525D01*
X198024354Y-92634527D01*
X198081950Y-92747565D01*
X198171658Y-92837273D01*
X198284696Y-92894869D01*
X198410000Y-92914715D01*
X198535304Y-92894869D01*
X198648342Y-92837273D01*
X198738050Y-92747565D01*
X198795646Y-92634527D01*
X198815492Y-92509223D01*
X198795646Y-92383919D01*
X198778363Y-92350000D01*
X199394508Y-92350000D01*
X199414353Y-92475301D01*
X199414353Y-92475302D01*
X199414354Y-92475304D01*
X199471950Y-92588342D01*
X199561658Y-92678050D01*
X199674696Y-92735646D01*
X199800000Y-92755492D01*
X199831929Y-92750435D01*
X203244508Y-92750435D01*
X203264353Y-92875736D01*
X203264353Y-92875737D01*
X203264354Y-92875739D01*
X203321950Y-92988777D01*
X203411658Y-93078485D01*
X203524696Y-93136081D01*
X203650000Y-93155927D01*
X203775304Y-93136081D01*
X203888342Y-93078485D01*
X203978050Y-92988777D01*
X204035646Y-92875739D01*
X204055492Y-92750435D01*
X204049088Y-92710000D01*
X221354508Y-92710000D01*
X221374353Y-92835301D01*
X221374353Y-92835302D01*
X221374354Y-92835304D01*
X221431950Y-92948342D01*
X221521658Y-93038050D01*
X221634696Y-93095646D01*
X221760000Y-93115492D01*
X221885304Y-93095646D01*
X221998342Y-93038050D01*
X222088050Y-92948342D01*
X222145646Y-92835304D01*
X222165492Y-92710000D01*
X222145646Y-92584696D01*
X222088050Y-92471658D01*
X221998342Y-92381950D01*
X221885304Y-92324354D01*
X221885302Y-92324353D01*
X221885301Y-92324353D01*
X221760000Y-92304508D01*
X221634698Y-92324353D01*
X221521656Y-92381951D01*
X221431951Y-92471656D01*
X221374353Y-92584698D01*
X221354508Y-92710000D01*
X204049088Y-92710000D01*
X204035646Y-92625131D01*
X203978050Y-92512093D01*
X203888342Y-92422385D01*
X203775304Y-92364789D01*
X203775302Y-92364788D01*
X203775301Y-92364788D01*
X203650000Y-92344943D01*
X203524698Y-92364788D01*
X203411656Y-92422386D01*
X203321951Y-92512091D01*
X203264353Y-92625133D01*
X203244508Y-92750435D01*
X199831929Y-92750435D01*
X199925304Y-92735646D01*
X200038342Y-92678050D01*
X200128050Y-92588342D01*
X200185646Y-92475304D01*
X200205492Y-92350000D01*
X200185646Y-92224696D01*
X200128050Y-92111658D01*
X200038342Y-92021950D01*
X199925304Y-91964354D01*
X199925302Y-91964353D01*
X199925301Y-91964353D01*
X199800000Y-91944508D01*
X199674698Y-91964353D01*
X199561656Y-92021951D01*
X199471951Y-92111656D01*
X199414353Y-92224698D01*
X199394508Y-92350000D01*
X198778363Y-92350000D01*
X198738050Y-92270881D01*
X198648342Y-92181173D01*
X198535304Y-92123577D01*
X198535302Y-92123576D01*
X198535301Y-92123576D01*
X198410000Y-92103731D01*
X198284698Y-92123576D01*
X198171656Y-92181174D01*
X198081951Y-92270879D01*
X198024353Y-92383921D01*
X198004508Y-92509223D01*
X191086809Y-92509223D01*
X191033277Y-92404161D01*
X190943569Y-92314453D01*
X190830531Y-92256857D01*
X190830529Y-92256856D01*
X190830528Y-92256856D01*
X190713326Y-92238293D01*
X190665036Y-92208700D01*
X190651814Y-92176780D01*
X190643387Y-92123576D01*
X190635646Y-92074696D01*
X190578050Y-91961658D01*
X190488342Y-91871950D01*
X190393199Y-91823472D01*
X190356418Y-91780406D01*
X190360860Y-91723947D01*
X190385646Y-91675304D01*
X190397573Y-91600000D01*
X197544508Y-91600000D01*
X197564353Y-91725301D01*
X197564353Y-91725302D01*
X197564354Y-91725304D01*
X197621950Y-91838342D01*
X197711658Y-91928050D01*
X197824696Y-91985646D01*
X197950000Y-92005492D01*
X198075304Y-91985646D01*
X198188342Y-91928050D01*
X198278050Y-91838342D01*
X198335646Y-91725304D01*
X198342231Y-91683727D01*
X220904508Y-91683727D01*
X220924353Y-91809028D01*
X220924353Y-91809029D01*
X220924354Y-91809031D01*
X220981950Y-91922069D01*
X221071658Y-92011777D01*
X221184696Y-92069373D01*
X221310000Y-92089219D01*
X221435304Y-92069373D01*
X221548342Y-92011777D01*
X221609849Y-91950270D01*
X229394778Y-91950270D01*
X229414623Y-92075571D01*
X229414623Y-92075572D01*
X229414624Y-92075574D01*
X229472220Y-92188612D01*
X229561928Y-92278320D01*
X229674966Y-92335916D01*
X229680257Y-92336754D01*
X229728548Y-92366347D01*
X229741770Y-92421419D01*
X229712177Y-92469710D01*
X229702277Y-92475777D01*
X229611657Y-92521950D01*
X229521951Y-92611656D01*
X229464353Y-92724698D01*
X229444508Y-92850000D01*
X229464353Y-92975301D01*
X229464353Y-92975302D01*
X229464354Y-92975304D01*
X229521950Y-93088342D01*
X229611658Y-93178050D01*
X229724696Y-93235646D01*
X229850000Y-93255492D01*
X229975304Y-93235646D01*
X230088342Y-93178050D01*
X230178050Y-93088342D01*
X230235646Y-92975304D01*
X230255492Y-92850000D01*
X230235646Y-92724696D01*
X230178050Y-92611658D01*
X230088342Y-92521950D01*
X229975304Y-92464354D01*
X229975300Y-92464353D01*
X229975298Y-92464352D01*
X229975300Y-92464352D01*
X229970007Y-92463514D01*
X229921718Y-92433918D01*
X229908500Y-92378845D01*
X229938096Y-92330556D01*
X229947974Y-92324502D01*
X230038612Y-92278320D01*
X230128320Y-92188612D01*
X230185916Y-92075574D01*
X230205762Y-91950270D01*
X230185916Y-91824966D01*
X230128320Y-91711928D01*
X230038612Y-91622220D01*
X229925574Y-91564624D01*
X229925572Y-91564623D01*
X229925571Y-91564623D01*
X229800270Y-91544778D01*
X229674968Y-91564623D01*
X229561926Y-91622221D01*
X229472221Y-91711926D01*
X229414623Y-91824968D01*
X229394778Y-91950270D01*
X221609849Y-91950270D01*
X221638050Y-91922069D01*
X221695646Y-91809031D01*
X221715492Y-91683727D01*
X221695646Y-91558423D01*
X221638050Y-91445385D01*
X221548342Y-91355677D01*
X221435304Y-91298081D01*
X221435302Y-91298080D01*
X221435301Y-91298080D01*
X221310000Y-91278235D01*
X221184698Y-91298080D01*
X221071656Y-91355678D01*
X220981951Y-91445383D01*
X220924353Y-91558425D01*
X220904508Y-91683727D01*
X198342231Y-91683727D01*
X198355492Y-91600000D01*
X198335646Y-91474696D01*
X198278050Y-91361658D01*
X198188342Y-91271950D01*
X198144240Y-91249479D01*
X217004278Y-91249479D01*
X217024123Y-91374780D01*
X217024123Y-91374781D01*
X217024124Y-91374783D01*
X217081720Y-91487821D01*
X217171428Y-91577529D01*
X217284466Y-91635125D01*
X217409770Y-91654971D01*
X217535074Y-91635125D01*
X217648112Y-91577529D01*
X217737820Y-91487821D01*
X217795416Y-91374783D01*
X217815262Y-91249479D01*
X217795416Y-91124175D01*
X217737820Y-91011137D01*
X217648112Y-90921429D01*
X217535074Y-90863833D01*
X217535072Y-90863832D01*
X217535071Y-90863832D01*
X217409770Y-90843987D01*
X217284468Y-90863832D01*
X217171426Y-90921430D01*
X217081721Y-91011135D01*
X217024123Y-91124177D01*
X217004278Y-91249479D01*
X198144240Y-91249479D01*
X198075304Y-91214354D01*
X198075302Y-91214353D01*
X198075301Y-91214353D01*
X197950000Y-91194508D01*
X197824698Y-91214353D01*
X197711656Y-91271951D01*
X197621951Y-91361656D01*
X197564353Y-91474698D01*
X197544508Y-91600000D01*
X190397573Y-91600000D01*
X190405492Y-91550000D01*
X190385646Y-91424696D01*
X190328050Y-91311658D01*
X190238342Y-91221950D01*
X190125304Y-91164354D01*
X190125302Y-91164353D01*
X190125301Y-91164353D01*
X190000000Y-91144508D01*
X189874698Y-91164353D01*
X189761656Y-91221951D01*
X189671951Y-91311656D01*
X189614353Y-91424698D01*
X189594508Y-91550000D01*
X186000500Y-91550000D01*
X186000500Y-90749863D01*
X203244508Y-90749863D01*
X203264353Y-90875164D01*
X203264353Y-90875165D01*
X203264354Y-90875167D01*
X203321950Y-90988205D01*
X203411658Y-91077913D01*
X203524696Y-91135509D01*
X203650000Y-91155355D01*
X203775304Y-91135509D01*
X203888342Y-91077913D01*
X203978050Y-90988205D01*
X204035646Y-90875167D01*
X204055470Y-90750000D01*
X207364508Y-90750000D01*
X207384353Y-90875301D01*
X207384353Y-90875302D01*
X207384354Y-90875304D01*
X207441950Y-90988342D01*
X207531658Y-91078050D01*
X207644696Y-91135646D01*
X207770000Y-91155492D01*
X207895304Y-91135646D01*
X208008342Y-91078050D01*
X208098050Y-90988342D01*
X208155646Y-90875304D01*
X208167573Y-90800000D01*
X213774508Y-90800000D01*
X213794353Y-90925301D01*
X213794353Y-90925302D01*
X213794354Y-90925304D01*
X213851950Y-91038342D01*
X213941658Y-91128050D01*
X214054696Y-91185646D01*
X214180000Y-91205492D01*
X214305304Y-91185646D01*
X214418342Y-91128050D01*
X214508050Y-91038342D01*
X214565646Y-90925304D01*
X214585492Y-90800000D01*
X214565646Y-90674696D01*
X214508050Y-90561658D01*
X214418342Y-90471950D01*
X214375263Y-90450000D01*
X230644508Y-90450000D01*
X230664353Y-90575301D01*
X230664353Y-90575302D01*
X230664354Y-90575304D01*
X230721950Y-90688342D01*
X230811658Y-90778050D01*
X230924696Y-90835646D01*
X231050000Y-90855492D01*
X231175304Y-90835646D01*
X231288342Y-90778050D01*
X231378050Y-90688342D01*
X231435646Y-90575304D01*
X231455492Y-90450000D01*
X231435646Y-90324696D01*
X231378050Y-90211658D01*
X231288342Y-90121950D01*
X231175304Y-90064354D01*
X231175302Y-90064353D01*
X231175301Y-90064353D01*
X231050000Y-90044508D01*
X230924698Y-90064353D01*
X230811656Y-90121951D01*
X230721951Y-90211656D01*
X230664353Y-90324698D01*
X230644508Y-90450000D01*
X214375263Y-90450000D01*
X214305304Y-90414354D01*
X214305302Y-90414353D01*
X214305301Y-90414353D01*
X214180000Y-90394508D01*
X214054698Y-90414353D01*
X213941656Y-90471951D01*
X213851951Y-90561656D01*
X213794353Y-90674698D01*
X213774508Y-90800000D01*
X208167573Y-90800000D01*
X208175492Y-90750000D01*
X208155646Y-90624696D01*
X208098050Y-90511658D01*
X208008342Y-90421950D01*
X207895304Y-90364354D01*
X207895302Y-90364353D01*
X207895301Y-90364353D01*
X207770000Y-90344508D01*
X207644698Y-90364353D01*
X207531656Y-90421951D01*
X207441951Y-90511656D01*
X207384353Y-90624698D01*
X207364508Y-90750000D01*
X204055470Y-90750000D01*
X204055492Y-90749863D01*
X204035646Y-90624559D01*
X203978050Y-90511521D01*
X203888342Y-90421813D01*
X203775304Y-90364217D01*
X203775302Y-90364216D01*
X203775301Y-90364216D01*
X203650000Y-90344371D01*
X203524698Y-90364216D01*
X203411656Y-90421814D01*
X203321951Y-90511519D01*
X203264353Y-90624561D01*
X203244508Y-90749863D01*
X186000500Y-90749863D01*
X186000500Y-89850000D01*
X188794508Y-89850000D01*
X188814353Y-89975301D01*
X188814353Y-89975302D01*
X188814354Y-89975304D01*
X188871950Y-90088342D01*
X188961658Y-90178050D01*
X189074696Y-90235646D01*
X189200000Y-90255492D01*
X189325304Y-90235646D01*
X189438342Y-90178050D01*
X189528050Y-90088342D01*
X189585646Y-89975304D01*
X189605492Y-89850000D01*
X189585646Y-89724696D01*
X189528050Y-89611658D01*
X189438342Y-89521950D01*
X189325304Y-89464354D01*
X189325302Y-89464353D01*
X189325301Y-89464353D01*
X189200000Y-89444508D01*
X189074698Y-89464353D01*
X188961656Y-89521951D01*
X188871951Y-89611656D01*
X188814353Y-89724698D01*
X188794508Y-89850000D01*
X186000500Y-89850000D01*
X186000500Y-89250000D01*
X187294508Y-89250000D01*
X187314353Y-89375301D01*
X187314353Y-89375302D01*
X187314354Y-89375304D01*
X187371950Y-89488342D01*
X187461658Y-89578050D01*
X187574696Y-89635646D01*
X187700000Y-89655492D01*
X187825304Y-89635646D01*
X187938342Y-89578050D01*
X188028050Y-89488342D01*
X188085646Y-89375304D01*
X188105492Y-89250000D01*
X188085646Y-89124696D01*
X188028050Y-89011658D01*
X187938342Y-88921950D01*
X187825304Y-88864354D01*
X187825302Y-88864353D01*
X187825301Y-88864353D01*
X187700000Y-88844508D01*
X187574698Y-88864353D01*
X187461656Y-88921951D01*
X187371951Y-89011656D01*
X187314353Y-89124698D01*
X187294508Y-89250000D01*
X186000500Y-89250000D01*
X186000500Y-88250000D01*
X187294508Y-88250000D01*
X187314353Y-88375301D01*
X187314353Y-88375302D01*
X187314354Y-88375304D01*
X187371950Y-88488342D01*
X187461658Y-88578050D01*
X187574696Y-88635646D01*
X187700000Y-88655492D01*
X187797807Y-88640001D01*
X188844508Y-88640001D01*
X188864353Y-88765302D01*
X188864353Y-88765303D01*
X188864354Y-88765305D01*
X188921950Y-88878343D01*
X189011658Y-88968051D01*
X189124696Y-89025647D01*
X189250000Y-89045493D01*
X189375304Y-89025647D01*
X189488342Y-88968051D01*
X189578050Y-88878343D01*
X189635646Y-88765305D01*
X189655492Y-88640001D01*
X198194508Y-88640001D01*
X198214353Y-88765302D01*
X198214353Y-88765303D01*
X198214354Y-88765305D01*
X198271950Y-88878343D01*
X198361658Y-88968051D01*
X198474696Y-89025647D01*
X198600000Y-89045493D01*
X198600000Y-89045492D01*
X198601927Y-89045798D01*
X198650218Y-89075391D01*
X198663440Y-89130463D01*
X198644508Y-89249999D01*
X198664664Y-89377262D01*
X198651442Y-89432334D01*
X198603151Y-89461927D01*
X198524698Y-89474352D01*
X198411656Y-89531950D01*
X198321951Y-89621655D01*
X198264353Y-89734697D01*
X198244508Y-89859999D01*
X198264353Y-89985300D01*
X198264353Y-89985301D01*
X198264354Y-89985303D01*
X198321950Y-90098341D01*
X198411658Y-90188049D01*
X198524696Y-90245645D01*
X198650000Y-90265491D01*
X198775304Y-90245645D01*
X198888342Y-90188049D01*
X198978050Y-90098341D01*
X199035646Y-89985303D01*
X199049157Y-89900000D01*
X220294508Y-89900000D01*
X220314353Y-90025301D01*
X220314353Y-90025302D01*
X220314354Y-90025304D01*
X220371950Y-90138342D01*
X220461658Y-90228050D01*
X220574696Y-90285646D01*
X220700000Y-90305492D01*
X220825304Y-90285646D01*
X220938342Y-90228050D01*
X221028050Y-90138342D01*
X221085646Y-90025304D01*
X221097447Y-89950797D01*
X229494789Y-89950797D01*
X229514634Y-90076098D01*
X229514634Y-90076099D01*
X229514635Y-90076101D01*
X229572231Y-90189139D01*
X229661939Y-90278847D01*
X229774977Y-90336443D01*
X229900281Y-90356289D01*
X230025585Y-90336443D01*
X230138623Y-90278847D01*
X230228331Y-90189139D01*
X230285927Y-90076101D01*
X230305773Y-89950797D01*
X230285927Y-89825493D01*
X230228331Y-89712455D01*
X230138623Y-89622747D01*
X230025585Y-89565151D01*
X230025583Y-89565150D01*
X230025582Y-89565150D01*
X229900281Y-89545305D01*
X229774979Y-89565150D01*
X229661937Y-89622748D01*
X229572232Y-89712453D01*
X229514634Y-89825495D01*
X229494789Y-89950797D01*
X221097447Y-89950797D01*
X221105492Y-89900000D01*
X221085646Y-89774696D01*
X221028050Y-89661658D01*
X220938342Y-89571950D01*
X220825304Y-89514354D01*
X220825302Y-89514353D01*
X220825301Y-89514353D01*
X220700000Y-89494508D01*
X220574698Y-89514353D01*
X220461656Y-89571951D01*
X220371951Y-89661656D01*
X220314353Y-89774698D01*
X220294508Y-89900000D01*
X199049157Y-89900000D01*
X199055492Y-89859999D01*
X199035646Y-89734695D01*
X199035644Y-89734692D01*
X199035335Y-89732736D01*
X199048557Y-89677664D01*
X199096845Y-89648072D01*
X199175304Y-89635646D01*
X199288342Y-89578050D01*
X199378050Y-89488342D01*
X199397586Y-89450000D01*
X216744508Y-89450000D01*
X216764353Y-89575301D01*
X216764353Y-89575302D01*
X216764354Y-89575304D01*
X216821950Y-89688342D01*
X216911658Y-89778050D01*
X217024696Y-89835646D01*
X217150000Y-89855492D01*
X217275304Y-89835646D01*
X217388342Y-89778050D01*
X217478050Y-89688342D01*
X217535646Y-89575304D01*
X217555492Y-89450000D01*
X217535646Y-89324696D01*
X217497586Y-89250000D01*
X230894508Y-89250000D01*
X230914353Y-89375301D01*
X230914353Y-89375302D01*
X230914354Y-89375304D01*
X230971950Y-89488342D01*
X231061658Y-89578050D01*
X231174696Y-89635646D01*
X231300000Y-89655492D01*
X231425304Y-89635646D01*
X231538342Y-89578050D01*
X231628050Y-89488342D01*
X231685646Y-89375304D01*
X231705492Y-89250000D01*
X231685646Y-89124696D01*
X231628050Y-89011658D01*
X231538342Y-88921950D01*
X231425304Y-88864354D01*
X231425302Y-88864353D01*
X231425301Y-88864353D01*
X231300000Y-88844508D01*
X231174698Y-88864353D01*
X231061656Y-88921951D01*
X230971951Y-89011656D01*
X230914353Y-89124698D01*
X230894508Y-89250000D01*
X217497586Y-89250000D01*
X217478050Y-89211658D01*
X217423089Y-89156697D01*
X217401415Y-89104371D01*
X217423089Y-89052045D01*
X217449487Y-89025647D01*
X217486641Y-88988493D01*
X217544237Y-88875455D01*
X217564083Y-88750151D01*
X217544237Y-88624847D01*
X217531577Y-88600000D01*
X220194508Y-88600000D01*
X220214353Y-88725301D01*
X220214353Y-88725302D01*
X220214354Y-88725304D01*
X220271950Y-88838342D01*
X220361658Y-88928050D01*
X220474696Y-88985646D01*
X220600000Y-89005492D01*
X220725304Y-88985646D01*
X220838342Y-88928050D01*
X220928050Y-88838342D01*
X220985646Y-88725304D01*
X220989654Y-88700000D01*
X229494508Y-88700000D01*
X229514353Y-88825301D01*
X229514353Y-88825302D01*
X229514354Y-88825304D01*
X229571950Y-88938342D01*
X229661658Y-89028050D01*
X229774696Y-89085646D01*
X229900000Y-89105492D01*
X230025304Y-89085646D01*
X230138342Y-89028050D01*
X230228050Y-88938342D01*
X230285646Y-88825304D01*
X230305492Y-88700000D01*
X230285646Y-88574696D01*
X230228050Y-88461658D01*
X230138342Y-88371950D01*
X230025304Y-88314354D01*
X230025302Y-88314353D01*
X230025301Y-88314353D01*
X229900000Y-88294508D01*
X229774698Y-88314353D01*
X229661656Y-88371951D01*
X229571951Y-88461656D01*
X229514353Y-88574698D01*
X229494508Y-88700000D01*
X220989654Y-88700000D01*
X221005492Y-88600000D01*
X220985646Y-88474696D01*
X220928050Y-88361658D01*
X220838342Y-88271950D01*
X220725304Y-88214354D01*
X220725302Y-88214353D01*
X220725301Y-88214353D01*
X220600000Y-88194508D01*
X220474698Y-88214353D01*
X220361656Y-88271951D01*
X220271951Y-88361656D01*
X220214353Y-88474698D01*
X220194508Y-88600000D01*
X217531577Y-88600000D01*
X217486641Y-88511809D01*
X217396933Y-88422101D01*
X217283895Y-88364505D01*
X217283893Y-88364504D01*
X217283892Y-88364504D01*
X217158591Y-88344659D01*
X217033289Y-88364504D01*
X216920247Y-88422102D01*
X216830542Y-88511807D01*
X216772944Y-88624849D01*
X216753099Y-88750151D01*
X216772944Y-88875452D01*
X216772944Y-88875453D01*
X216772945Y-88875455D01*
X216830465Y-88988343D01*
X216830542Y-88988494D01*
X216885502Y-89043454D01*
X216907176Y-89095780D01*
X216885502Y-89148106D01*
X216821951Y-89211656D01*
X216764353Y-89324698D01*
X216744508Y-89450000D01*
X199397586Y-89450000D01*
X199435646Y-89375304D01*
X199455492Y-89250000D01*
X199435646Y-89124696D01*
X199378050Y-89011658D01*
X199288342Y-88921950D01*
X199175304Y-88864354D01*
X199175302Y-88864353D01*
X199175301Y-88864353D01*
X199048072Y-88844202D01*
X198999781Y-88814609D01*
X198986559Y-88759538D01*
X198987970Y-88750631D01*
X203244508Y-88750631D01*
X203264353Y-88875932D01*
X203264353Y-88875933D01*
X203264354Y-88875935D01*
X203321950Y-88988973D01*
X203411658Y-89078681D01*
X203524696Y-89136277D01*
X203650000Y-89156123D01*
X203775304Y-89136277D01*
X203888342Y-89078681D01*
X203978050Y-88988973D01*
X204035646Y-88875935D01*
X204055492Y-88750631D01*
X204035646Y-88625327D01*
X203997265Y-88550000D01*
X206904508Y-88550000D01*
X206924353Y-88675301D01*
X206924353Y-88675302D01*
X206924354Y-88675304D01*
X206981950Y-88788342D01*
X207071658Y-88878050D01*
X207184696Y-88935646D01*
X207310000Y-88955492D01*
X207435304Y-88935646D01*
X207548342Y-88878050D01*
X207638050Y-88788342D01*
X207657586Y-88750000D01*
X214234508Y-88750000D01*
X214254353Y-88875301D01*
X214254353Y-88875302D01*
X214254354Y-88875304D01*
X214311950Y-88988342D01*
X214401658Y-89078050D01*
X214514696Y-89135646D01*
X214640000Y-89155492D01*
X214765304Y-89135646D01*
X214878342Y-89078050D01*
X214968050Y-88988342D01*
X215025646Y-88875304D01*
X215045492Y-88750000D01*
X215025646Y-88624696D01*
X214968050Y-88511658D01*
X214878342Y-88421950D01*
X214765304Y-88364354D01*
X214765302Y-88364353D01*
X214765301Y-88364353D01*
X214640000Y-88344508D01*
X214514698Y-88364353D01*
X214401656Y-88421951D01*
X214311951Y-88511656D01*
X214254353Y-88624698D01*
X214234508Y-88750000D01*
X207657586Y-88750000D01*
X207695646Y-88675304D01*
X207715492Y-88550000D01*
X207695646Y-88424696D01*
X207638050Y-88311658D01*
X207548342Y-88221950D01*
X207435304Y-88164354D01*
X207435302Y-88164353D01*
X207435301Y-88164353D01*
X207310000Y-88144508D01*
X207184698Y-88164353D01*
X207071656Y-88221951D01*
X206981951Y-88311656D01*
X206924353Y-88424698D01*
X206904508Y-88550000D01*
X203997265Y-88550000D01*
X203978050Y-88512289D01*
X203888342Y-88422581D01*
X203775304Y-88364985D01*
X203775302Y-88364984D01*
X203775301Y-88364984D01*
X203650000Y-88345139D01*
X203524698Y-88364984D01*
X203524696Y-88364984D01*
X203524696Y-88364985D01*
X203511025Y-88371951D01*
X203411656Y-88422582D01*
X203321951Y-88512287D01*
X203321950Y-88512289D01*
X203264675Y-88624698D01*
X203264353Y-88625329D01*
X203244508Y-88750631D01*
X198987970Y-88750631D01*
X199005492Y-88640001D01*
X198985646Y-88514697D01*
X198928050Y-88401659D01*
X198838342Y-88311951D01*
X198725304Y-88254355D01*
X198725302Y-88254354D01*
X198725301Y-88254354D01*
X198600000Y-88234509D01*
X198474698Y-88254354D01*
X198361656Y-88311952D01*
X198271951Y-88401657D01*
X198214353Y-88514699D01*
X198194508Y-88640001D01*
X189655492Y-88640001D01*
X189635646Y-88514697D01*
X189578050Y-88401659D01*
X189488342Y-88311951D01*
X189375304Y-88254355D01*
X189375302Y-88254354D01*
X189375301Y-88254354D01*
X189250000Y-88234509D01*
X189124698Y-88254354D01*
X189011656Y-88311952D01*
X188921951Y-88401657D01*
X188864353Y-88514699D01*
X188844508Y-88640001D01*
X187797807Y-88640001D01*
X187825304Y-88635646D01*
X187938342Y-88578050D01*
X188028050Y-88488342D01*
X188085646Y-88375304D01*
X188105492Y-88250000D01*
X188085646Y-88124696D01*
X188028050Y-88011658D01*
X187938342Y-87921950D01*
X187828403Y-87865933D01*
X187797843Y-87830151D01*
X214694508Y-87830151D01*
X214714353Y-87955452D01*
X214714353Y-87955453D01*
X214714354Y-87955455D01*
X214771950Y-88068493D01*
X214861658Y-88158201D01*
X214974696Y-88215797D01*
X215100000Y-88235643D01*
X215225304Y-88215797D01*
X215338342Y-88158201D01*
X215428050Y-88068493D01*
X215485646Y-87955455D01*
X215505492Y-87830151D01*
X215485646Y-87704847D01*
X215428050Y-87591809D01*
X215338342Y-87502101D01*
X215225304Y-87444505D01*
X215225302Y-87444504D01*
X215225301Y-87444504D01*
X215100000Y-87424659D01*
X214974698Y-87444504D01*
X214861656Y-87502102D01*
X214771951Y-87591807D01*
X214714353Y-87704849D01*
X214694508Y-87830151D01*
X187797843Y-87830151D01*
X187791622Y-87822867D01*
X187796065Y-87766405D01*
X187828403Y-87734066D01*
X187938342Y-87678050D01*
X188028050Y-87588342D01*
X188085646Y-87475304D01*
X188105492Y-87350000D01*
X188085646Y-87224696D01*
X188028050Y-87111658D01*
X187938342Y-87021950D01*
X187825304Y-86964354D01*
X187825302Y-86964353D01*
X187825301Y-86964353D01*
X187700000Y-86944508D01*
X187574698Y-86964353D01*
X187461656Y-87021951D01*
X187371951Y-87111656D01*
X187314353Y-87224698D01*
X187294508Y-87350000D01*
X187314353Y-87475301D01*
X187314353Y-87475302D01*
X187314354Y-87475304D01*
X187367058Y-87578740D01*
X187371951Y-87588343D01*
X187461659Y-87678051D01*
X187571594Y-87734066D01*
X187608377Y-87777133D01*
X187603933Y-87833595D01*
X187571594Y-87865934D01*
X187461659Y-87921948D01*
X187371951Y-88011656D01*
X187314353Y-88124698D01*
X187294508Y-88250000D01*
X186000500Y-88250000D01*
X186000500Y-86850000D01*
X189044508Y-86850000D01*
X189064353Y-86975301D01*
X189064353Y-86975302D01*
X189064354Y-86975304D01*
X189121950Y-87088342D01*
X189211658Y-87178050D01*
X189324696Y-87235646D01*
X189450000Y-87255492D01*
X189575304Y-87235646D01*
X189688342Y-87178050D01*
X189778050Y-87088342D01*
X189835646Y-86975304D01*
X189853908Y-86859999D01*
X198194508Y-86859999D01*
X198214353Y-86985300D01*
X198214353Y-86985301D01*
X198214354Y-86985303D01*
X198271950Y-87098341D01*
X198361658Y-87188049D01*
X198474696Y-87245645D01*
X198600000Y-87265491D01*
X198725304Y-87245645D01*
X198838342Y-87188049D01*
X198928050Y-87098341D01*
X198985646Y-86985303D01*
X199005492Y-86859999D01*
X198988135Y-86750411D01*
X205477174Y-86750411D01*
X205497019Y-86875712D01*
X205497019Y-86875713D01*
X205497020Y-86875715D01*
X205554616Y-86988753D01*
X205644324Y-87078461D01*
X205757362Y-87136057D01*
X205882666Y-87155903D01*
X206007970Y-87136057D01*
X206121008Y-87078461D01*
X206199469Y-87000000D01*
X215184508Y-87000000D01*
X215204353Y-87125301D01*
X215204353Y-87125302D01*
X215204354Y-87125304D01*
X215261950Y-87238342D01*
X215351658Y-87328050D01*
X215464696Y-87385646D01*
X215590000Y-87405492D01*
X215715304Y-87385646D01*
X215828342Y-87328050D01*
X215905702Y-87250690D01*
X217014449Y-87250690D01*
X217034294Y-87375991D01*
X217034294Y-87375992D01*
X217034295Y-87375994D01*
X217091891Y-87489032D01*
X217181599Y-87578740D01*
X217294637Y-87636336D01*
X217419941Y-87656182D01*
X217545245Y-87636336D01*
X217658283Y-87578740D01*
X217747991Y-87489032D01*
X217767879Y-87450000D01*
X230644508Y-87450000D01*
X230664353Y-87575301D01*
X230664353Y-87575302D01*
X230664354Y-87575304D01*
X230721950Y-87688342D01*
X230811658Y-87778050D01*
X230854856Y-87800061D01*
X230927024Y-87836833D01*
X230963806Y-87879900D01*
X230959363Y-87936361D01*
X230920998Y-88011656D01*
X230914353Y-88024698D01*
X230894508Y-88150000D01*
X230914353Y-88275301D01*
X230914353Y-88275302D01*
X230914354Y-88275304D01*
X230971950Y-88388342D01*
X231061658Y-88478050D01*
X231174696Y-88535646D01*
X231300000Y-88555492D01*
X231425304Y-88535646D01*
X231538342Y-88478050D01*
X231628050Y-88388342D01*
X231685646Y-88275304D01*
X231705492Y-88150000D01*
X231685646Y-88024696D01*
X231628050Y-87911658D01*
X231538342Y-87821950D01*
X231452182Y-87778049D01*
X231422975Y-87763167D01*
X231386193Y-87720100D01*
X231390636Y-87663639D01*
X231435646Y-87575304D01*
X231455492Y-87450000D01*
X231435646Y-87324696D01*
X231378050Y-87211658D01*
X231288342Y-87121950D01*
X231175304Y-87064354D01*
X231175302Y-87064353D01*
X231175301Y-87064353D01*
X231050000Y-87044508D01*
X230924698Y-87064353D01*
X230811656Y-87121951D01*
X230721951Y-87211656D01*
X230664353Y-87324698D01*
X230644508Y-87450000D01*
X217767879Y-87450000D01*
X217805587Y-87375994D01*
X217825433Y-87250690D01*
X217805587Y-87125386D01*
X217747991Y-87012348D01*
X217658283Y-86922640D01*
X217545245Y-86865044D01*
X217545243Y-86865043D01*
X217545242Y-86865043D01*
X217419941Y-86845198D01*
X217294639Y-86865043D01*
X217181597Y-86922641D01*
X217091892Y-87012346D01*
X217034294Y-87125388D01*
X217014449Y-87250690D01*
X215905702Y-87250690D01*
X215918050Y-87238342D01*
X215975646Y-87125304D01*
X215995492Y-87000000D01*
X215975646Y-86874696D01*
X215918050Y-86761658D01*
X215918048Y-86761656D01*
X215915405Y-86756468D01*
X215917061Y-86755624D01*
X215905514Y-86707531D01*
X215935106Y-86659240D01*
X215990177Y-86646017D01*
X216050000Y-86655492D01*
X216175304Y-86635646D01*
X216288342Y-86578050D01*
X216378050Y-86488342D01*
X216435646Y-86375304D01*
X216455492Y-86250000D01*
X216439654Y-86150000D01*
X219654508Y-86150000D01*
X219674353Y-86275301D01*
X219674353Y-86275302D01*
X219674354Y-86275304D01*
X219731950Y-86388342D01*
X219731951Y-86388343D01*
X219781627Y-86438019D01*
X219803301Y-86490345D01*
X219781629Y-86542669D01*
X219771948Y-86552350D01*
X219714354Y-86665385D01*
X219714353Y-86665385D01*
X219694508Y-86790690D01*
X219714353Y-86915991D01*
X219714353Y-86915992D01*
X219714354Y-86915994D01*
X219771950Y-87029032D01*
X219861658Y-87118740D01*
X219974696Y-87176336D01*
X220100000Y-87196182D01*
X220225304Y-87176336D01*
X220338342Y-87118740D01*
X220428050Y-87029032D01*
X220468320Y-86949999D01*
X229494394Y-86949999D01*
X229514239Y-87075300D01*
X229514239Y-87075301D01*
X229514240Y-87075303D01*
X229571836Y-87188341D01*
X229661544Y-87278049D01*
X229774582Y-87335645D01*
X229899886Y-87355491D01*
X230025190Y-87335645D01*
X230138228Y-87278049D01*
X230227936Y-87188341D01*
X230285532Y-87075303D01*
X230305378Y-86949999D01*
X230285532Y-86824695D01*
X230227936Y-86711657D01*
X230138228Y-86621949D01*
X230025190Y-86564353D01*
X230025188Y-86564352D01*
X230025187Y-86564352D01*
X229899886Y-86544507D01*
X229774584Y-86564352D01*
X229661542Y-86621950D01*
X229571837Y-86711655D01*
X229514239Y-86824697D01*
X229494394Y-86949999D01*
X220468320Y-86949999D01*
X220485646Y-86915994D01*
X220505492Y-86790690D01*
X220485646Y-86665386D01*
X220428050Y-86552348D01*
X220378372Y-86502670D01*
X220356698Y-86450344D01*
X220378370Y-86398021D01*
X220388050Y-86388342D01*
X220445646Y-86275304D01*
X220449654Y-86250000D01*
X230894508Y-86250000D01*
X230914353Y-86375301D01*
X230914353Y-86375302D01*
X230914354Y-86375304D01*
X230971950Y-86488342D01*
X231061658Y-86578050D01*
X231174696Y-86635646D01*
X231300000Y-86655492D01*
X231425304Y-86635646D01*
X231538342Y-86578050D01*
X231628050Y-86488342D01*
X231685646Y-86375304D01*
X231705492Y-86250000D01*
X231685646Y-86124696D01*
X231628050Y-86011658D01*
X231618718Y-86002326D01*
X231597044Y-85950000D01*
X231618718Y-85897674D01*
X231638049Y-85878343D01*
X231678050Y-85838342D01*
X231735646Y-85725304D01*
X231755492Y-85600000D01*
X231735646Y-85474696D01*
X231678050Y-85361658D01*
X231588342Y-85271950D01*
X231475304Y-85214354D01*
X231475302Y-85214353D01*
X231475301Y-85214353D01*
X231350000Y-85194508D01*
X231224698Y-85214353D01*
X231111656Y-85271951D01*
X231021951Y-85361656D01*
X230964353Y-85474698D01*
X230944508Y-85600000D01*
X230964353Y-85725301D01*
X230964353Y-85725302D01*
X230964354Y-85725304D01*
X231013794Y-85822335D01*
X231021951Y-85838343D01*
X231031282Y-85847674D01*
X231052956Y-85900000D01*
X231031282Y-85952326D01*
X230971951Y-86011656D01*
X230914353Y-86124698D01*
X230894508Y-86250000D01*
X220449654Y-86250000D01*
X220465492Y-86150000D01*
X220455774Y-86088642D01*
X220468996Y-86033570D01*
X220517287Y-86003977D01*
X220540441Y-86003977D01*
X220543516Y-86004465D01*
X220549998Y-86005492D01*
X220550000Y-86005492D01*
X220675304Y-85985646D01*
X220788342Y-85928050D01*
X220878050Y-85838342D01*
X220892491Y-85810000D01*
X229444508Y-85810000D01*
X229464353Y-85935301D01*
X229464353Y-85935302D01*
X229464354Y-85935304D01*
X229521950Y-86048342D01*
X229611658Y-86138050D01*
X229724696Y-86195646D01*
X229850000Y-86215492D01*
X229975304Y-86195646D01*
X230088342Y-86138050D01*
X230178050Y-86048342D01*
X230235646Y-85935304D01*
X230255492Y-85810000D01*
X230235646Y-85684696D01*
X230178050Y-85571658D01*
X230088342Y-85481950D01*
X229975304Y-85424354D01*
X229975302Y-85424353D01*
X229975301Y-85424353D01*
X229850000Y-85404508D01*
X229724698Y-85424353D01*
X229611656Y-85481951D01*
X229521951Y-85571656D01*
X229464353Y-85684698D01*
X229444508Y-85810000D01*
X220892491Y-85810000D01*
X220935646Y-85725304D01*
X220955492Y-85600000D01*
X220935646Y-85474696D01*
X220878050Y-85361658D01*
X220788342Y-85271950D01*
X220675304Y-85214354D01*
X220675302Y-85214353D01*
X220675301Y-85214353D01*
X220550000Y-85194508D01*
X220424698Y-85214353D01*
X220311656Y-85271951D01*
X220221951Y-85361656D01*
X220164353Y-85474698D01*
X220144508Y-85600000D01*
X220144508Y-85600001D01*
X220154225Y-85661358D01*
X220141003Y-85716430D01*
X220092711Y-85746022D01*
X220069561Y-85746022D01*
X220060001Y-85744508D01*
X220060000Y-85744508D01*
X219934698Y-85764353D01*
X219934696Y-85764353D01*
X219934696Y-85764354D01*
X219878177Y-85793152D01*
X219821656Y-85821951D01*
X219731951Y-85911656D01*
X219674353Y-86024698D01*
X219654508Y-86150000D01*
X216439654Y-86150000D01*
X216435646Y-86124696D01*
X216378050Y-86011658D01*
X216288342Y-85921950D01*
X216175304Y-85864354D01*
X216175302Y-85864353D01*
X216175301Y-85864353D01*
X216050000Y-85844508D01*
X215924698Y-85864353D01*
X215811656Y-85921951D01*
X215721951Y-86011656D01*
X215664353Y-86124698D01*
X215644508Y-86250000D01*
X215664353Y-86375301D01*
X215664353Y-86375302D01*
X215664354Y-86375304D01*
X215721950Y-86488342D01*
X215721951Y-86488343D01*
X215724595Y-86493532D01*
X215722938Y-86494375D01*
X215734485Y-86542471D01*
X215704890Y-86590761D01*
X215649820Y-86603982D01*
X215590000Y-86594508D01*
X215464698Y-86614353D01*
X215351656Y-86671951D01*
X215261951Y-86761656D01*
X215204353Y-86874698D01*
X215184508Y-87000000D01*
X206199469Y-87000000D01*
X206210716Y-86988753D01*
X206268312Y-86875715D01*
X206288158Y-86750411D01*
X206268312Y-86625107D01*
X206210716Y-86512069D01*
X206121008Y-86422361D01*
X206007970Y-86364765D01*
X206007968Y-86364764D01*
X206007967Y-86364764D01*
X205882666Y-86344919D01*
X205757364Y-86364764D01*
X205644322Y-86422362D01*
X205554617Y-86512067D01*
X205497019Y-86625109D01*
X205477174Y-86750411D01*
X198988135Y-86750411D01*
X198986559Y-86740461D01*
X198999781Y-86685390D01*
X199048072Y-86655797D01*
X199049998Y-86655491D01*
X199050000Y-86655492D01*
X199175304Y-86635646D01*
X199288342Y-86578050D01*
X199378050Y-86488342D01*
X199435646Y-86375304D01*
X199455492Y-86250000D01*
X206444508Y-86250000D01*
X206464353Y-86375301D01*
X206464353Y-86375302D01*
X206464354Y-86375304D01*
X206521950Y-86488342D01*
X206611658Y-86578050D01*
X206724696Y-86635646D01*
X206850000Y-86655492D01*
X206975304Y-86635646D01*
X207088342Y-86578050D01*
X207178050Y-86488342D01*
X207235646Y-86375304D01*
X207255492Y-86250000D01*
X207235646Y-86124696D01*
X207178050Y-86011658D01*
X207088342Y-85921950D01*
X206975304Y-85864354D01*
X206975302Y-85864353D01*
X206975301Y-85864353D01*
X206850000Y-85844508D01*
X206724698Y-85864353D01*
X206611656Y-85921951D01*
X206521951Y-86011656D01*
X206464353Y-86124698D01*
X206444508Y-86250000D01*
X199455492Y-86250000D01*
X199435646Y-86124696D01*
X199378050Y-86011658D01*
X199288342Y-85921950D01*
X199175304Y-85864354D01*
X199175302Y-85864353D01*
X199175301Y-85864353D01*
X199107446Y-85853606D01*
X199096847Y-85851927D01*
X199048557Y-85822335D01*
X199035335Y-85767263D01*
X199035644Y-85765307D01*
X199035646Y-85765305D01*
X199055492Y-85640001D01*
X199035646Y-85514697D01*
X198978050Y-85401659D01*
X198888342Y-85311951D01*
X198775304Y-85254355D01*
X198775302Y-85254354D01*
X198775301Y-85254354D01*
X198650000Y-85234509D01*
X198524698Y-85254354D01*
X198411656Y-85311952D01*
X198321951Y-85401657D01*
X198264353Y-85514699D01*
X198244508Y-85640001D01*
X198264353Y-85765302D01*
X198264353Y-85765303D01*
X198264354Y-85765305D01*
X198321950Y-85878343D01*
X198411658Y-85968051D01*
X198524696Y-86025647D01*
X198603151Y-86038073D01*
X198651442Y-86067664D01*
X198664664Y-86122736D01*
X198664664Y-86122737D01*
X198644508Y-86250000D01*
X198663440Y-86369536D01*
X198650218Y-86424608D01*
X198601927Y-86454201D01*
X198474698Y-86474352D01*
X198361656Y-86531950D01*
X198271951Y-86621655D01*
X198214353Y-86734697D01*
X198194508Y-86859999D01*
X189853908Y-86859999D01*
X189855492Y-86850000D01*
X189835646Y-86724696D01*
X189778050Y-86611658D01*
X189688342Y-86521950D01*
X189575304Y-86464354D01*
X189575302Y-86464353D01*
X189575301Y-86464353D01*
X189450000Y-86444508D01*
X189324698Y-86464353D01*
X189211656Y-86521951D01*
X189121951Y-86611656D01*
X189121950Y-86611658D01*
X189084382Y-86685390D01*
X189064353Y-86724698D01*
X189044508Y-86850000D01*
X186000500Y-86850000D01*
X186000500Y-86250000D01*
X187294508Y-86250000D01*
X187314353Y-86375301D01*
X187314353Y-86375302D01*
X187314354Y-86375304D01*
X187371950Y-86488342D01*
X187461658Y-86578050D01*
X187574696Y-86635646D01*
X187700000Y-86655492D01*
X187825304Y-86635646D01*
X187938342Y-86578050D01*
X188028050Y-86488342D01*
X188085646Y-86375304D01*
X188105492Y-86250000D01*
X188085646Y-86124696D01*
X188028050Y-86011658D01*
X187938342Y-85921950D01*
X187825304Y-85864354D01*
X187825302Y-85864353D01*
X187825301Y-85864353D01*
X187700000Y-85844508D01*
X187574698Y-85864353D01*
X187461656Y-85921951D01*
X187371951Y-86011656D01*
X187314353Y-86124698D01*
X187294508Y-86250000D01*
X186000500Y-86250000D01*
X186000500Y-85660000D01*
X188844508Y-85660000D01*
X188864353Y-85785301D01*
X188864353Y-85785302D01*
X188864354Y-85785304D01*
X188921950Y-85898342D01*
X189011658Y-85988050D01*
X189124696Y-86045646D01*
X189250000Y-86065492D01*
X189375304Y-86045646D01*
X189488342Y-85988050D01*
X189578050Y-85898342D01*
X189635646Y-85785304D01*
X189655492Y-85660000D01*
X189635646Y-85534696D01*
X189578050Y-85421658D01*
X189488342Y-85331950D01*
X189375304Y-85274354D01*
X189375302Y-85274353D01*
X189375301Y-85274353D01*
X189250000Y-85254508D01*
X189124698Y-85274353D01*
X189011656Y-85331951D01*
X188921951Y-85421656D01*
X188864353Y-85534698D01*
X188844508Y-85660000D01*
X186000500Y-85660000D01*
X186000500Y-85250000D01*
X187294508Y-85250000D01*
X187314353Y-85375301D01*
X187314353Y-85375302D01*
X187314354Y-85375304D01*
X187371950Y-85488342D01*
X187461658Y-85578050D01*
X187574696Y-85635646D01*
X187700000Y-85655492D01*
X187825304Y-85635646D01*
X187938342Y-85578050D01*
X188028050Y-85488342D01*
X188085646Y-85375304D01*
X188105492Y-85250000D01*
X188085646Y-85124696D01*
X188028050Y-85011658D01*
X187938342Y-84921950D01*
X187825304Y-84864354D01*
X187825302Y-84864353D01*
X187825301Y-84864353D01*
X187700000Y-84844508D01*
X187574698Y-84864353D01*
X187461656Y-84921951D01*
X187371951Y-85011656D01*
X187314353Y-85124698D01*
X187294508Y-85250000D01*
X186000500Y-85250000D01*
X186000500Y-83950000D01*
X187194508Y-83950000D01*
X187214353Y-84075301D01*
X187214353Y-84075302D01*
X187214354Y-84075304D01*
X187271950Y-84188342D01*
X187361658Y-84278050D01*
X187474696Y-84335646D01*
X187600000Y-84355492D01*
X187634675Y-84350000D01*
X204644508Y-84350000D01*
X204664353Y-84475301D01*
X204664353Y-84475302D01*
X204664354Y-84475304D01*
X204721950Y-84588342D01*
X204811658Y-84678050D01*
X204924696Y-84735646D01*
X205050000Y-84755492D01*
X205175304Y-84735646D01*
X205288342Y-84678050D01*
X205378050Y-84588342D01*
X205435646Y-84475304D01*
X205455492Y-84350000D01*
X205435646Y-84224696D01*
X205378050Y-84111658D01*
X205288342Y-84021950D01*
X205175304Y-83964354D01*
X205175302Y-83964353D01*
X205175301Y-83964353D01*
X205050000Y-83944508D01*
X204924698Y-83964353D01*
X204924696Y-83964353D01*
X204924696Y-83964354D01*
X204883574Y-83985307D01*
X204811656Y-84021951D01*
X204721951Y-84111656D01*
X204664353Y-84224698D01*
X204644508Y-84350000D01*
X187634675Y-84350000D01*
X187725304Y-84335646D01*
X187838342Y-84278050D01*
X187928050Y-84188342D01*
X187985646Y-84075304D01*
X188005492Y-83950000D01*
X187985646Y-83824696D01*
X187947586Y-83750000D01*
X188894508Y-83750000D01*
X188914353Y-83875301D01*
X188914353Y-83875302D01*
X188914354Y-83875304D01*
X188971950Y-83988342D01*
X189061658Y-84078050D01*
X189174696Y-84135646D01*
X189300000Y-84155492D01*
X189425304Y-84135646D01*
X189538342Y-84078050D01*
X189628050Y-83988342D01*
X189685646Y-83875304D01*
X189688070Y-83859999D01*
X198144508Y-83859999D01*
X198164353Y-83985300D01*
X198164353Y-83985301D01*
X198164354Y-83985303D01*
X198221950Y-84098341D01*
X198311658Y-84188049D01*
X198424696Y-84245645D01*
X198550000Y-84265491D01*
X198675304Y-84245645D01*
X198788342Y-84188049D01*
X198878050Y-84098341D01*
X198935646Y-83985303D01*
X198955491Y-83860003D01*
X220294508Y-83860003D01*
X220314353Y-83985304D01*
X220314353Y-83985305D01*
X220314354Y-83985307D01*
X220371950Y-84098345D01*
X220461658Y-84188053D01*
X220574696Y-84245649D01*
X220700000Y-84265495D01*
X220825304Y-84245649D01*
X220938342Y-84188053D01*
X221028050Y-84098345D01*
X221085646Y-83985307D01*
X221105492Y-83860003D01*
X221085646Y-83734699D01*
X221028050Y-83621661D01*
X220938342Y-83531953D01*
X220825304Y-83474357D01*
X220825302Y-83474356D01*
X220825301Y-83474356D01*
X220700000Y-83454511D01*
X220574698Y-83474356D01*
X220461656Y-83531954D01*
X220371951Y-83621659D01*
X220314353Y-83734701D01*
X220294508Y-83860003D01*
X198955491Y-83860003D01*
X198955492Y-83859999D01*
X198935769Y-83735473D01*
X198948991Y-83680402D01*
X198997282Y-83650809D01*
X199020432Y-83650809D01*
X199050000Y-83655492D01*
X199175304Y-83635646D01*
X199288342Y-83578050D01*
X199378050Y-83488342D01*
X199435646Y-83375304D01*
X199455492Y-83250000D01*
X219544508Y-83250000D01*
X219564353Y-83375301D01*
X219564353Y-83375302D01*
X219564354Y-83375304D01*
X219621950Y-83488342D01*
X219711658Y-83578050D01*
X219824696Y-83635646D01*
X219950000Y-83655492D01*
X220075304Y-83635646D01*
X220188342Y-83578050D01*
X220278050Y-83488342D01*
X220335646Y-83375304D01*
X220355492Y-83250000D01*
X220335646Y-83124696D01*
X220278050Y-83011658D01*
X220188342Y-82921950D01*
X220075304Y-82864354D01*
X220075302Y-82864353D01*
X220075301Y-82864353D01*
X219950000Y-82844508D01*
X219824698Y-82864353D01*
X219711656Y-82921951D01*
X219621951Y-83011656D01*
X219564353Y-83124698D01*
X219544508Y-83250000D01*
X199455492Y-83250000D01*
X199435646Y-83124696D01*
X199378050Y-83011658D01*
X199288342Y-82921950D01*
X199175304Y-82864354D01*
X199175302Y-82864353D01*
X199175301Y-82864353D01*
X199049617Y-82844447D01*
X199001326Y-82814854D01*
X198988104Y-82759782D01*
X199005492Y-82650000D01*
X198997573Y-82600000D01*
X218194508Y-82600000D01*
X218214353Y-82725301D01*
X218214353Y-82725302D01*
X218214354Y-82725304D01*
X218271950Y-82838342D01*
X218361658Y-82928050D01*
X218474696Y-82985646D01*
X218600000Y-83005492D01*
X218725304Y-82985646D01*
X218838342Y-82928050D01*
X218928050Y-82838342D01*
X218985646Y-82725304D01*
X219005492Y-82600000D01*
X220244508Y-82600000D01*
X220264353Y-82725301D01*
X220264353Y-82725302D01*
X220264354Y-82725304D01*
X220321950Y-82838342D01*
X220411658Y-82928050D01*
X220524696Y-82985646D01*
X220650000Y-83005492D01*
X220775304Y-82985646D01*
X220888342Y-82928050D01*
X220978050Y-82838342D01*
X221035646Y-82725304D01*
X221055492Y-82600000D01*
X228893969Y-82600000D01*
X228913814Y-82725301D01*
X228913814Y-82725302D01*
X228913815Y-82725304D01*
X228971411Y-82838342D01*
X229061119Y-82928050D01*
X229174157Y-82985646D01*
X229299461Y-83005492D01*
X229424765Y-82985646D01*
X229537803Y-82928050D01*
X229597404Y-82868449D01*
X229649729Y-82846774D01*
X229702055Y-82868448D01*
X229702056Y-82868448D01*
X229758679Y-82925071D01*
X229780353Y-82977397D01*
X229772288Y-83010991D01*
X229714353Y-83124696D01*
X229694508Y-83250000D01*
X229714353Y-83375301D01*
X229714353Y-83375302D01*
X229714354Y-83375304D01*
X229771950Y-83488342D01*
X229771951Y-83488343D01*
X229781282Y-83497674D01*
X229802956Y-83550000D01*
X229781282Y-83602326D01*
X229777326Y-83606282D01*
X229725000Y-83627956D01*
X229672674Y-83606282D01*
X229638343Y-83571951D01*
X229638342Y-83571950D01*
X229525304Y-83514354D01*
X229525302Y-83514353D01*
X229525301Y-83514353D01*
X229400000Y-83494508D01*
X229274698Y-83514353D01*
X229161656Y-83571951D01*
X229071951Y-83661656D01*
X229014353Y-83774698D01*
X228994508Y-83900000D01*
X229014353Y-84025301D01*
X229014353Y-84025302D01*
X229014354Y-84025304D01*
X229071950Y-84138342D01*
X229161658Y-84228050D01*
X229274696Y-84285646D01*
X229400000Y-84305492D01*
X229525304Y-84285646D01*
X229638342Y-84228050D01*
X229647674Y-84218718D01*
X229700000Y-84197044D01*
X229752326Y-84218718D01*
X229786658Y-84253050D01*
X229899696Y-84310646D01*
X230025000Y-84330492D01*
X230150304Y-84310646D01*
X230263342Y-84253050D01*
X230353050Y-84163342D01*
X230410646Y-84050304D01*
X230430492Y-83925000D01*
X230410646Y-83799696D01*
X230353050Y-83686658D01*
X230343718Y-83677326D01*
X230322044Y-83625000D01*
X230343718Y-83572674D01*
X230384443Y-83531949D01*
X230428050Y-83488342D01*
X230485646Y-83375304D01*
X230505492Y-83250000D01*
X230485646Y-83124696D01*
X230428050Y-83011658D01*
X230341319Y-82924927D01*
X230319645Y-82872601D01*
X230327711Y-82839005D01*
X230328047Y-82838344D01*
X230328050Y-82838342D01*
X230385646Y-82725304D01*
X230405492Y-82600000D01*
X230385646Y-82474696D01*
X230328050Y-82361658D01*
X230238342Y-82271950D01*
X230125304Y-82214354D01*
X230125302Y-82214353D01*
X230125301Y-82214353D01*
X230000000Y-82194508D01*
X229874698Y-82214353D01*
X229761654Y-82271952D01*
X229702055Y-82331551D01*
X229649729Y-82353225D01*
X229597404Y-82331551D01*
X229537804Y-82271951D01*
X229537803Y-82271950D01*
X229424765Y-82214354D01*
X229424763Y-82214353D01*
X229424762Y-82214353D01*
X229299461Y-82194508D01*
X229174159Y-82214353D01*
X229061117Y-82271951D01*
X228971412Y-82361656D01*
X228913814Y-82474698D01*
X228893969Y-82600000D01*
X221055492Y-82600000D01*
X221035646Y-82474696D01*
X220978050Y-82361658D01*
X220888342Y-82271950D01*
X220775304Y-82214354D01*
X220775302Y-82214353D01*
X220775301Y-82214353D01*
X220650000Y-82194508D01*
X220524698Y-82214353D01*
X220411656Y-82271951D01*
X220321951Y-82361656D01*
X220264353Y-82474698D01*
X220244508Y-82600000D01*
X219005492Y-82600000D01*
X218985646Y-82474696D01*
X218928050Y-82361658D01*
X218838342Y-82271950D01*
X218725304Y-82214354D01*
X218725302Y-82214353D01*
X218725301Y-82214353D01*
X218600000Y-82194508D01*
X218474698Y-82214353D01*
X218361656Y-82271951D01*
X218271951Y-82361656D01*
X218214353Y-82474698D01*
X218194508Y-82600000D01*
X198997573Y-82600000D01*
X198985646Y-82524696D01*
X198928050Y-82411658D01*
X198838342Y-82321950D01*
X198725304Y-82264354D01*
X198725302Y-82264353D01*
X198725301Y-82264353D01*
X198600000Y-82244508D01*
X198474698Y-82264353D01*
X198361656Y-82321951D01*
X198271951Y-82411656D01*
X198214353Y-82524698D01*
X198194508Y-82650000D01*
X198214353Y-82775301D01*
X198214353Y-82775302D01*
X198214354Y-82775304D01*
X198271950Y-82888342D01*
X198361658Y-82978050D01*
X198474696Y-83035646D01*
X198600000Y-83055492D01*
X198600001Y-83055491D01*
X198600382Y-83055552D01*
X198648673Y-83085145D01*
X198661895Y-83140217D01*
X198644508Y-83249999D01*
X198644508Y-83250000D01*
X198664230Y-83374524D01*
X198651008Y-83429596D01*
X198602717Y-83459189D01*
X198579566Y-83459189D01*
X198550002Y-83454507D01*
X198550000Y-83454507D01*
X198424698Y-83474352D01*
X198311656Y-83531950D01*
X198221951Y-83621655D01*
X198164353Y-83734697D01*
X198144508Y-83859999D01*
X189688070Y-83859999D01*
X189705492Y-83750000D01*
X189685646Y-83624696D01*
X189628050Y-83511658D01*
X189538342Y-83421950D01*
X189425304Y-83364354D01*
X189425302Y-83364353D01*
X189425301Y-83364353D01*
X189300000Y-83344508D01*
X189174698Y-83364353D01*
X189061656Y-83421951D01*
X188971951Y-83511656D01*
X188914353Y-83624698D01*
X188894508Y-83750000D01*
X187947586Y-83750000D01*
X187928050Y-83711658D01*
X187915034Y-83698642D01*
X187893360Y-83646316D01*
X187915034Y-83593990D01*
X187933759Y-83580384D01*
X187938342Y-83578050D01*
X188028050Y-83488342D01*
X188085646Y-83375304D01*
X188105492Y-83250000D01*
X188085646Y-83124696D01*
X188028050Y-83011658D01*
X187993718Y-82977326D01*
X187972044Y-82925000D01*
X187993718Y-82872674D01*
X188004722Y-82861670D01*
X188028050Y-82838342D01*
X188085646Y-82725304D01*
X188095989Y-82660000D01*
X188894508Y-82660000D01*
X188914353Y-82785301D01*
X188914353Y-82785302D01*
X188914354Y-82785304D01*
X188971950Y-82898342D01*
X189061658Y-82988050D01*
X189174696Y-83045646D01*
X189300000Y-83065492D01*
X189425304Y-83045646D01*
X189538342Y-82988050D01*
X189628050Y-82898342D01*
X189685646Y-82785304D01*
X189705492Y-82660000D01*
X189685646Y-82534696D01*
X189628050Y-82421658D01*
X189538342Y-82331950D01*
X189425304Y-82274354D01*
X189425302Y-82274353D01*
X189425301Y-82274353D01*
X189300000Y-82254508D01*
X189174698Y-82274353D01*
X189061656Y-82331951D01*
X188971951Y-82421656D01*
X188914353Y-82534698D01*
X188894508Y-82660000D01*
X188095989Y-82660000D01*
X188105492Y-82600000D01*
X188085646Y-82474696D01*
X188028050Y-82361658D01*
X187938342Y-82271950D01*
X187825304Y-82214354D01*
X187825302Y-82214353D01*
X187825301Y-82214353D01*
X187700000Y-82194508D01*
X187574698Y-82214353D01*
X187461656Y-82271951D01*
X187371951Y-82361656D01*
X187314353Y-82474698D01*
X187294508Y-82600000D01*
X187314353Y-82725301D01*
X187314353Y-82725302D01*
X187314354Y-82725304D01*
X187371950Y-82838342D01*
X187371951Y-82838343D01*
X187406282Y-82872674D01*
X187427956Y-82925000D01*
X187406282Y-82977326D01*
X187371951Y-83011656D01*
X187314353Y-83124698D01*
X187294508Y-83250000D01*
X187314353Y-83375301D01*
X187314353Y-83375302D01*
X187314354Y-83375304D01*
X187371950Y-83488342D01*
X187371951Y-83488343D01*
X187384965Y-83501357D01*
X187406639Y-83553683D01*
X187384965Y-83606009D01*
X187366240Y-83619615D01*
X187361657Y-83621950D01*
X187271951Y-83711656D01*
X187214353Y-83824698D01*
X187194508Y-83950000D01*
X186000500Y-83950000D01*
X186000500Y-82000000D01*
X200144508Y-82000000D01*
X200164353Y-82125301D01*
X200164353Y-82125302D01*
X200164354Y-82125304D01*
X200221950Y-82238342D01*
X200311658Y-82328050D01*
X200424696Y-82385646D01*
X200550000Y-82405492D01*
X200675304Y-82385646D01*
X200788342Y-82328050D01*
X200878050Y-82238342D01*
X200935646Y-82125304D01*
X200955492Y-82000000D01*
X200935646Y-81874696D01*
X200878050Y-81761658D01*
X200788342Y-81671950D01*
X200675304Y-81614354D01*
X200675302Y-81614353D01*
X200675301Y-81614353D01*
X200550000Y-81594508D01*
X200424698Y-81614353D01*
X200311656Y-81671951D01*
X200221951Y-81761656D01*
X200164353Y-81874698D01*
X200144508Y-82000000D01*
X186000500Y-82000000D01*
X186000500Y-81350000D01*
X187244508Y-81350000D01*
X187264353Y-81475301D01*
X187264353Y-81475302D01*
X187264354Y-81475304D01*
X187321950Y-81588342D01*
X187411658Y-81678050D01*
X187524696Y-81735646D01*
X187650000Y-81755492D01*
X187775304Y-81735646D01*
X187888342Y-81678050D01*
X187978050Y-81588342D01*
X188035646Y-81475304D01*
X188055492Y-81350000D01*
X188035646Y-81224696D01*
X187978050Y-81111658D01*
X187888342Y-81021950D01*
X187775304Y-80964354D01*
X187775302Y-80964353D01*
X187775301Y-80964353D01*
X187650000Y-80944508D01*
X187524698Y-80964353D01*
X187411656Y-81021951D01*
X187321951Y-81111656D01*
X187264353Y-81224698D01*
X187244508Y-81350000D01*
X186000500Y-81350000D01*
X186000500Y-80803203D01*
X188844508Y-80803203D01*
X188864353Y-80928504D01*
X188864353Y-80928505D01*
X188864354Y-80928507D01*
X188921950Y-81041545D01*
X189011658Y-81131253D01*
X189124696Y-81188849D01*
X189250000Y-81208695D01*
X189375304Y-81188849D01*
X189488342Y-81131253D01*
X189578050Y-81041545D01*
X189635646Y-80928507D01*
X189646496Y-80859999D01*
X198244508Y-80859999D01*
X198264353Y-80985300D01*
X198264353Y-80985301D01*
X198264354Y-80985303D01*
X198321950Y-81098341D01*
X198411658Y-81188049D01*
X198524696Y-81245645D01*
X198650000Y-81265491D01*
X198775304Y-81245645D01*
X198888342Y-81188049D01*
X198978050Y-81098341D01*
X199002681Y-81050000D01*
X217744508Y-81050000D01*
X217764353Y-81175301D01*
X217764353Y-81175302D01*
X217764354Y-81175304D01*
X217821950Y-81288342D01*
X217911658Y-81378050D01*
X218024696Y-81435646D01*
X218150000Y-81455492D01*
X218275304Y-81435646D01*
X218388342Y-81378050D01*
X218478050Y-81288342D01*
X218535646Y-81175304D01*
X218555492Y-81050000D01*
X218535646Y-80924696D01*
X218478050Y-80811658D01*
X218388342Y-80721950D01*
X218275304Y-80664354D01*
X218275302Y-80664353D01*
X218275301Y-80664353D01*
X218150000Y-80644508D01*
X218024698Y-80664353D01*
X217911656Y-80721951D01*
X217821951Y-80811656D01*
X217764353Y-80924698D01*
X217744508Y-81050000D01*
X199002681Y-81050000D01*
X199035646Y-80985303D01*
X199055492Y-80859999D01*
X199035646Y-80734695D01*
X199035644Y-80734692D01*
X199035335Y-80732736D01*
X199048557Y-80677664D01*
X199096845Y-80648072D01*
X199175304Y-80635646D01*
X199288342Y-80578050D01*
X199378050Y-80488342D01*
X199397586Y-80450000D01*
X202944508Y-80450000D01*
X202964353Y-80575301D01*
X202964353Y-80575302D01*
X202964354Y-80575304D01*
X203021950Y-80688342D01*
X203111658Y-80778050D01*
X203224696Y-80835646D01*
X203350000Y-80855492D01*
X203475304Y-80835646D01*
X203588342Y-80778050D01*
X203678050Y-80688342D01*
X203735646Y-80575304D01*
X203755492Y-80450000D01*
X203735646Y-80324696D01*
X203697586Y-80250000D01*
X219594508Y-80250000D01*
X219614353Y-80375301D01*
X219614353Y-80375302D01*
X219614354Y-80375304D01*
X219671950Y-80488342D01*
X219761658Y-80578050D01*
X219874696Y-80635646D01*
X219899927Y-80639642D01*
X219948218Y-80669234D01*
X219961440Y-80724307D01*
X219954286Y-80746324D01*
X219936290Y-80781645D01*
X219914353Y-80824698D01*
X219894508Y-80950000D01*
X219914353Y-81075301D01*
X219914353Y-81075302D01*
X219914354Y-81075304D01*
X219971950Y-81188342D01*
X220061658Y-81278050D01*
X220174696Y-81335646D01*
X220300000Y-81355492D01*
X220425304Y-81335646D01*
X220538342Y-81278050D01*
X220628050Y-81188342D01*
X220685646Y-81075304D01*
X220705492Y-80950000D01*
X220697573Y-80900000D01*
X229244508Y-80900000D01*
X229264353Y-81025301D01*
X229264353Y-81025302D01*
X229264354Y-81025304D01*
X229321950Y-81138342D01*
X229411658Y-81228050D01*
X229524696Y-81285646D01*
X229650000Y-81305492D01*
X229775304Y-81285646D01*
X229888342Y-81228050D01*
X229978050Y-81138342D01*
X230035646Y-81025304D01*
X230055492Y-80900000D01*
X230035646Y-80774696D01*
X229978050Y-80661658D01*
X229888342Y-80571950D01*
X229775304Y-80514354D01*
X229775302Y-80514353D01*
X229775301Y-80514353D01*
X229650000Y-80494508D01*
X229524698Y-80514353D01*
X229411656Y-80571951D01*
X229321951Y-80661656D01*
X229264353Y-80774698D01*
X229244508Y-80900000D01*
X220697573Y-80900000D01*
X220685646Y-80824696D01*
X220628050Y-80711658D01*
X220538342Y-80621950D01*
X220425304Y-80564354D01*
X220425302Y-80564353D01*
X220425301Y-80564353D01*
X220400070Y-80560357D01*
X220351780Y-80530763D01*
X220338559Y-80475690D01*
X220345711Y-80453679D01*
X220385646Y-80375304D01*
X220405492Y-80250000D01*
X230894508Y-80250000D01*
X230914353Y-80375301D01*
X230914353Y-80375302D01*
X230914354Y-80375304D01*
X230971950Y-80488342D01*
X231061658Y-80578050D01*
X231174696Y-80635646D01*
X231215046Y-80642036D01*
X231218741Y-80642622D01*
X231267032Y-80672215D01*
X231280254Y-80727287D01*
X231250661Y-80775578D01*
X231240760Y-80781645D01*
X231161659Y-80821948D01*
X231071951Y-80911656D01*
X231014353Y-81024698D01*
X230994508Y-81150000D01*
X231014353Y-81275301D01*
X231014353Y-81275302D01*
X231014354Y-81275304D01*
X231071950Y-81388342D01*
X231161658Y-81478050D01*
X231274696Y-81535646D01*
X231400000Y-81555492D01*
X231525304Y-81535646D01*
X231638342Y-81478050D01*
X231728050Y-81388342D01*
X231785646Y-81275304D01*
X231805492Y-81150000D01*
X231785646Y-81024696D01*
X231728050Y-80911658D01*
X231638342Y-80821950D01*
X231525304Y-80764354D01*
X231525302Y-80764353D01*
X231525301Y-80764353D01*
X231481257Y-80757377D01*
X231432966Y-80727783D01*
X231419745Y-80672711D01*
X231449339Y-80624420D01*
X231459223Y-80618362D01*
X231538342Y-80578050D01*
X231628050Y-80488342D01*
X231685646Y-80375304D01*
X231705492Y-80250000D01*
X231685646Y-80124696D01*
X231628050Y-80011658D01*
X231538342Y-79921950D01*
X231425304Y-79864354D01*
X231425302Y-79864353D01*
X231425301Y-79864353D01*
X231300000Y-79844508D01*
X231174698Y-79864353D01*
X231061656Y-79921951D01*
X230971951Y-80011656D01*
X230914353Y-80124698D01*
X230894508Y-80250000D01*
X220405492Y-80250000D01*
X220385646Y-80124696D01*
X220385344Y-80122789D01*
X220398566Y-80067717D01*
X220446855Y-80038124D01*
X220525304Y-80025700D01*
X220638342Y-79968104D01*
X220728050Y-79878396D01*
X220785646Y-79765358D01*
X220803917Y-79650000D01*
X229194508Y-79650000D01*
X229214353Y-79775301D01*
X229214353Y-79775302D01*
X229214354Y-79775304D01*
X229271950Y-79888342D01*
X229361658Y-79978050D01*
X229474696Y-80035646D01*
X229600000Y-80055492D01*
X229725304Y-80035646D01*
X229838342Y-79978050D01*
X229928050Y-79888342D01*
X229985646Y-79775304D01*
X230005492Y-79650000D01*
X229985646Y-79524696D01*
X229928050Y-79411658D01*
X229838342Y-79321950D01*
X229725304Y-79264354D01*
X229725302Y-79264353D01*
X229725301Y-79264353D01*
X229600000Y-79244508D01*
X229474698Y-79264353D01*
X229361656Y-79321951D01*
X229271951Y-79411656D01*
X229214353Y-79524698D01*
X229194508Y-79650000D01*
X220803917Y-79650000D01*
X220805492Y-79640054D01*
X220785646Y-79514750D01*
X220728050Y-79401712D01*
X220638342Y-79312004D01*
X220525304Y-79254408D01*
X220525302Y-79254407D01*
X220525301Y-79254407D01*
X220400000Y-79234562D01*
X220274698Y-79254407D01*
X220161656Y-79312005D01*
X220071951Y-79401710D01*
X220014353Y-79514752D01*
X219994508Y-79640054D01*
X220014655Y-79767264D01*
X220001433Y-79822337D01*
X219953142Y-79851929D01*
X219874698Y-79864353D01*
X219761656Y-79921951D01*
X219671951Y-80011656D01*
X219614353Y-80124698D01*
X219594508Y-80250000D01*
X203697586Y-80250000D01*
X203678050Y-80211658D01*
X203588342Y-80121950D01*
X203475304Y-80064354D01*
X203475302Y-80064353D01*
X203475301Y-80064353D01*
X203350000Y-80044508D01*
X203224698Y-80064353D01*
X203111656Y-80121951D01*
X203021951Y-80211656D01*
X202964353Y-80324698D01*
X202944508Y-80450000D01*
X199397586Y-80450000D01*
X199435646Y-80375304D01*
X199455492Y-80250000D01*
X199435646Y-80124696D01*
X199378050Y-80011658D01*
X199288342Y-79921950D01*
X199175304Y-79864354D01*
X199175302Y-79864353D01*
X199175301Y-79864353D01*
X199147170Y-79859898D01*
X199098879Y-79830305D01*
X199085657Y-79775233D01*
X199087221Y-79765358D01*
X199105492Y-79650000D01*
X199085646Y-79524696D01*
X199028050Y-79411658D01*
X198938342Y-79321950D01*
X198825304Y-79264354D01*
X198825302Y-79264353D01*
X198825301Y-79264353D01*
X198700000Y-79244508D01*
X198574698Y-79264353D01*
X198461656Y-79321951D01*
X198371951Y-79411656D01*
X198314353Y-79524698D01*
X198294508Y-79650000D01*
X198314353Y-79775301D01*
X198314353Y-79775302D01*
X198314354Y-79775304D01*
X198371950Y-79888342D01*
X198461658Y-79978050D01*
X198516061Y-80005770D01*
X198574693Y-80035645D01*
X198574696Y-80035646D01*
X198602827Y-80040101D01*
X198651119Y-80069692D01*
X198664342Y-80124764D01*
X198664342Y-80124766D01*
X198644508Y-80249999D01*
X198664664Y-80377262D01*
X198651442Y-80432334D01*
X198603151Y-80461927D01*
X198524698Y-80474352D01*
X198411656Y-80531950D01*
X198321951Y-80621655D01*
X198264353Y-80734697D01*
X198244508Y-80859999D01*
X189646496Y-80859999D01*
X189655492Y-80803203D01*
X189635646Y-80677899D01*
X189578050Y-80564861D01*
X189488342Y-80475153D01*
X189375304Y-80417557D01*
X189375302Y-80417556D01*
X189375301Y-80417556D01*
X189250000Y-80397711D01*
X189124698Y-80417556D01*
X189011656Y-80475154D01*
X188921951Y-80564859D01*
X188921950Y-80564861D01*
X188875772Y-80655491D01*
X188864353Y-80677901D01*
X188844508Y-80803203D01*
X186000500Y-80803203D01*
X186000500Y-80250000D01*
X187294508Y-80250000D01*
X187314353Y-80375301D01*
X187314353Y-80375302D01*
X187314354Y-80375304D01*
X187371950Y-80488342D01*
X187461658Y-80578050D01*
X187574696Y-80635646D01*
X187700000Y-80655492D01*
X187825304Y-80635646D01*
X187938342Y-80578050D01*
X188028050Y-80488342D01*
X188085646Y-80375304D01*
X188105492Y-80250000D01*
X188085646Y-80124696D01*
X188028050Y-80011658D01*
X187938342Y-79921950D01*
X187825304Y-79864354D01*
X187825302Y-79864353D01*
X187825301Y-79864353D01*
X187700000Y-79844508D01*
X187574698Y-79864353D01*
X187461656Y-79921951D01*
X187371951Y-80011656D01*
X187314353Y-80124698D01*
X187294508Y-80250000D01*
X186000500Y-80250000D01*
X186000500Y-79700000D01*
X188844508Y-79700000D01*
X188864353Y-79825301D01*
X188864353Y-79825302D01*
X188864354Y-79825304D01*
X188921950Y-79938342D01*
X189011658Y-80028050D01*
X189124696Y-80085646D01*
X189250000Y-80105492D01*
X189375304Y-80085646D01*
X189488342Y-80028050D01*
X189578050Y-79938342D01*
X189635646Y-79825304D01*
X189655492Y-79700000D01*
X189635646Y-79574696D01*
X189578050Y-79461658D01*
X189488342Y-79371950D01*
X189375304Y-79314354D01*
X189375302Y-79314353D01*
X189375301Y-79314353D01*
X189250000Y-79294508D01*
X189124698Y-79314353D01*
X189011656Y-79371951D01*
X188921951Y-79461656D01*
X188864353Y-79574698D01*
X188844508Y-79700000D01*
X186000500Y-79700000D01*
X186000500Y-78200000D01*
X187344508Y-78200000D01*
X187364353Y-78325301D01*
X187364353Y-78325302D01*
X187364354Y-78325304D01*
X187421950Y-78438342D01*
X187511658Y-78528050D01*
X187516234Y-78530382D01*
X187553017Y-78573449D01*
X187548574Y-78629911D01*
X187534965Y-78648642D01*
X187471951Y-78711656D01*
X187414353Y-78824698D01*
X187394508Y-78950000D01*
X187414353Y-79075301D01*
X187414353Y-79075302D01*
X187414354Y-79075304D01*
X187471950Y-79188342D01*
X187561658Y-79278050D01*
X187674696Y-79335646D01*
X187800000Y-79355492D01*
X187925304Y-79335646D01*
X188038342Y-79278050D01*
X188128050Y-79188342D01*
X188185646Y-79075304D01*
X188205492Y-78950000D01*
X188185646Y-78824696D01*
X188128050Y-78711658D01*
X188038342Y-78621950D01*
X188038341Y-78621949D01*
X188033762Y-78619616D01*
X187996981Y-78576548D01*
X188001427Y-78520085D01*
X188015031Y-78501360D01*
X188066392Y-78450000D01*
X205794508Y-78450000D01*
X205814353Y-78575301D01*
X205814353Y-78575302D01*
X205814354Y-78575304D01*
X205871950Y-78688342D01*
X205961658Y-78778050D01*
X206074696Y-78835646D01*
X206200000Y-78855492D01*
X206325304Y-78835646D01*
X206438342Y-78778050D01*
X206528050Y-78688342D01*
X206585646Y-78575304D01*
X206605492Y-78450000D01*
X206585646Y-78324696D01*
X206528050Y-78211658D01*
X206438342Y-78121950D01*
X206325304Y-78064354D01*
X206325302Y-78064353D01*
X206325301Y-78064353D01*
X206200000Y-78044508D01*
X206074698Y-78064353D01*
X205961656Y-78121951D01*
X205871951Y-78211656D01*
X205814353Y-78324698D01*
X205794508Y-78450000D01*
X188066392Y-78450000D01*
X188078050Y-78438342D01*
X188135646Y-78325304D01*
X188155492Y-78200000D01*
X188135646Y-78074696D01*
X188078050Y-77961658D01*
X187988342Y-77871950D01*
X187875304Y-77814354D01*
X187875302Y-77814353D01*
X187875301Y-77814353D01*
X187747609Y-77794129D01*
X187735578Y-77786756D01*
X187734310Y-77788826D01*
X187702391Y-77802048D01*
X187624698Y-77814353D01*
X187511656Y-77871951D01*
X187421951Y-77961656D01*
X187364353Y-78074698D01*
X187344508Y-78200000D01*
X186000500Y-78200000D01*
X186000500Y-77700000D01*
X188844508Y-77700000D01*
X188864353Y-77825301D01*
X188864353Y-77825302D01*
X188864354Y-77825304D01*
X188921950Y-77938342D01*
X189011658Y-78028050D01*
X189124696Y-78085646D01*
X189250000Y-78105492D01*
X189375304Y-78085646D01*
X189488342Y-78028050D01*
X189578050Y-77938342D01*
X189617968Y-77859999D01*
X198244508Y-77859999D01*
X198264353Y-77985300D01*
X198264353Y-77985301D01*
X198264354Y-77985303D01*
X198321950Y-78098341D01*
X198411658Y-78188049D01*
X198524696Y-78245645D01*
X198650000Y-78265491D01*
X198775304Y-78245645D01*
X198888342Y-78188049D01*
X198978050Y-78098341D01*
X199035646Y-77985303D01*
X199055492Y-77859999D01*
X199035646Y-77734695D01*
X199035644Y-77734692D01*
X199035335Y-77732736D01*
X199048557Y-77677664D01*
X199096845Y-77648072D01*
X199175304Y-77635646D01*
X199288342Y-77578050D01*
X199378050Y-77488342D01*
X199429559Y-77387250D01*
X215574508Y-77387250D01*
X215594353Y-77512551D01*
X215594353Y-77512552D01*
X215594354Y-77512554D01*
X215651950Y-77625592D01*
X215741658Y-77715300D01*
X215854696Y-77772896D01*
X215976658Y-77792212D01*
X216024948Y-77821805D01*
X216038170Y-77876876D01*
X216034508Y-77899998D01*
X216034508Y-77899999D01*
X216054353Y-78025301D01*
X216054353Y-78025302D01*
X216054354Y-78025304D01*
X216111950Y-78138342D01*
X216201658Y-78228050D01*
X216314696Y-78285646D01*
X216440000Y-78305492D01*
X216565304Y-78285646D01*
X216610921Y-78262403D01*
X217944508Y-78262403D01*
X217964353Y-78387704D01*
X217964353Y-78387705D01*
X217964354Y-78387707D01*
X218021950Y-78500745D01*
X218111658Y-78590453D01*
X218224696Y-78648049D01*
X218350000Y-78667895D01*
X218475304Y-78648049D01*
X218588342Y-78590453D01*
X218678050Y-78500745D01*
X218729382Y-78400000D01*
X230894508Y-78400000D01*
X230914353Y-78525301D01*
X230914353Y-78525302D01*
X230914354Y-78525304D01*
X230971950Y-78638342D01*
X230971951Y-78638343D01*
X231061659Y-78728051D01*
X231165603Y-78781013D01*
X231202386Y-78824080D01*
X231197942Y-78880542D01*
X231184334Y-78899273D01*
X231121951Y-78961656D01*
X231064353Y-79074698D01*
X231044508Y-79200000D01*
X231064353Y-79325301D01*
X231064353Y-79325302D01*
X231064354Y-79325304D01*
X231121950Y-79438342D01*
X231211658Y-79528050D01*
X231324696Y-79585646D01*
X231450000Y-79605492D01*
X231575304Y-79585646D01*
X231688342Y-79528050D01*
X231778050Y-79438342D01*
X231835646Y-79325304D01*
X231855492Y-79200000D01*
X231835646Y-79074696D01*
X231778050Y-78961658D01*
X231688342Y-78871950D01*
X231584395Y-78818986D01*
X231547613Y-78775919D01*
X231552057Y-78719456D01*
X231565662Y-78700729D01*
X231628050Y-78638342D01*
X231685646Y-78525304D01*
X231705492Y-78400000D01*
X231685646Y-78274696D01*
X231628050Y-78161658D01*
X231538342Y-78071950D01*
X231425304Y-78014354D01*
X231425302Y-78014353D01*
X231425301Y-78014353D01*
X231300000Y-77994508D01*
X231174698Y-78014353D01*
X231061656Y-78071951D01*
X230971951Y-78161656D01*
X230914353Y-78274698D01*
X230894508Y-78400000D01*
X218729382Y-78400000D01*
X218735646Y-78387707D01*
X218755492Y-78262403D01*
X218735646Y-78137099D01*
X218678050Y-78024061D01*
X218588342Y-77934353D01*
X218475304Y-77876757D01*
X218475302Y-77876756D01*
X218475301Y-77876756D01*
X218350000Y-77856911D01*
X218224698Y-77876756D01*
X218111656Y-77934354D01*
X218021951Y-78024059D01*
X217964353Y-78137101D01*
X217944508Y-78262403D01*
X216610921Y-78262403D01*
X216678342Y-78228050D01*
X216768050Y-78138342D01*
X216825646Y-78025304D01*
X216845492Y-77900000D01*
X216837573Y-77850000D01*
X219954508Y-77850000D01*
X219974353Y-77975301D01*
X219974353Y-77975302D01*
X219974354Y-77975304D01*
X220031950Y-78088342D01*
X220121658Y-78178050D01*
X220234696Y-78235646D01*
X220360000Y-78255492D01*
X220485304Y-78235646D01*
X220598342Y-78178050D01*
X220688050Y-78088342D01*
X220745646Y-77975304D01*
X220763908Y-77859999D01*
X229244508Y-77859999D01*
X229264353Y-77985300D01*
X229264353Y-77985301D01*
X229264354Y-77985303D01*
X229321950Y-78098341D01*
X229411658Y-78188049D01*
X229524696Y-78245645D01*
X229650000Y-78265491D01*
X229775304Y-78245645D01*
X229888342Y-78188049D01*
X229978050Y-78098341D01*
X230035646Y-77985303D01*
X230055492Y-77859999D01*
X230035646Y-77734695D01*
X229978050Y-77621657D01*
X229888342Y-77531949D01*
X229775304Y-77474353D01*
X229775302Y-77474352D01*
X229775301Y-77474352D01*
X229650000Y-77454507D01*
X229524698Y-77474352D01*
X229411656Y-77531950D01*
X229321951Y-77621655D01*
X229264353Y-77734697D01*
X229244508Y-77859999D01*
X220763908Y-77859999D01*
X220765492Y-77850000D01*
X220745646Y-77724696D01*
X220688050Y-77611658D01*
X220598342Y-77521950D01*
X220485304Y-77464354D01*
X220485302Y-77464353D01*
X220485301Y-77464353D01*
X220360000Y-77444508D01*
X220234698Y-77464353D01*
X220121656Y-77521951D01*
X220031951Y-77611656D01*
X219974353Y-77724698D01*
X219954508Y-77850000D01*
X216837573Y-77850000D01*
X216825646Y-77774696D01*
X216768050Y-77661658D01*
X216678342Y-77571950D01*
X216565304Y-77514354D01*
X216565302Y-77514353D01*
X216565301Y-77514353D01*
X216443342Y-77495037D01*
X216395051Y-77465444D01*
X216381829Y-77410373D01*
X216385492Y-77387250D01*
X216365646Y-77261946D01*
X216359646Y-77250170D01*
X217011924Y-77250170D01*
X217031769Y-77375471D01*
X217031769Y-77375472D01*
X217031770Y-77375474D01*
X217089366Y-77488512D01*
X217179074Y-77578220D01*
X217292112Y-77635816D01*
X217417416Y-77655662D01*
X217542720Y-77635816D01*
X217655758Y-77578220D01*
X217745466Y-77488512D01*
X217803062Y-77375474D01*
X217822908Y-77250170D01*
X217822881Y-77250000D01*
X230894508Y-77250000D01*
X230914353Y-77375301D01*
X230914353Y-77375302D01*
X230914354Y-77375304D01*
X230971950Y-77488342D01*
X231061658Y-77578050D01*
X231174696Y-77635646D01*
X231300000Y-77655492D01*
X231425304Y-77635646D01*
X231538342Y-77578050D01*
X231628050Y-77488342D01*
X231685646Y-77375304D01*
X231705492Y-77250000D01*
X231685646Y-77124696D01*
X231628050Y-77011658D01*
X231538342Y-76921950D01*
X231425304Y-76864354D01*
X231425302Y-76864353D01*
X231425301Y-76864353D01*
X231300000Y-76844508D01*
X231174698Y-76864353D01*
X231061656Y-76921951D01*
X230971951Y-77011656D01*
X230914353Y-77124698D01*
X230894508Y-77250000D01*
X217822881Y-77250000D01*
X217803062Y-77124866D01*
X217745466Y-77011828D01*
X217655758Y-76922120D01*
X217542720Y-76864524D01*
X217542718Y-76864523D01*
X217542717Y-76864523D01*
X217417416Y-76844678D01*
X217292114Y-76864523D01*
X217179072Y-76922121D01*
X217089367Y-77011826D01*
X217031769Y-77124868D01*
X217011924Y-77250170D01*
X216359646Y-77250170D01*
X216308050Y-77148908D01*
X216218342Y-77059200D01*
X216105304Y-77001604D01*
X216105302Y-77001603D01*
X216105301Y-77001603D01*
X215980000Y-76981758D01*
X215854698Y-77001603D01*
X215741656Y-77059201D01*
X215651951Y-77148906D01*
X215594353Y-77261948D01*
X215574508Y-77387250D01*
X199429559Y-77387250D01*
X199435646Y-77375304D01*
X199455492Y-77250000D01*
X199435646Y-77124696D01*
X199378050Y-77011658D01*
X199288342Y-76921950D01*
X199175304Y-76864354D01*
X199175302Y-76864353D01*
X199175301Y-76864353D01*
X199107446Y-76853606D01*
X199096847Y-76851927D01*
X199048557Y-76822335D01*
X199035335Y-76767263D01*
X199035644Y-76765307D01*
X199035646Y-76765305D01*
X199038177Y-76749323D01*
X203294508Y-76749323D01*
X203314353Y-76874624D01*
X203314353Y-76874625D01*
X203314354Y-76874627D01*
X203371950Y-76987665D01*
X203461658Y-77077373D01*
X203574696Y-77134969D01*
X203700000Y-77154815D01*
X203825304Y-77134969D01*
X203938342Y-77077373D01*
X204028050Y-76987665D01*
X204085646Y-76874627D01*
X204105492Y-76749323D01*
X204085646Y-76624019D01*
X204028050Y-76510981D01*
X203938342Y-76421273D01*
X203896592Y-76400000D01*
X206994508Y-76400000D01*
X207014353Y-76525301D01*
X207014353Y-76525302D01*
X207014354Y-76525304D01*
X207071950Y-76638342D01*
X207161658Y-76728050D01*
X207274696Y-76785646D01*
X207400000Y-76805492D01*
X207525304Y-76785646D01*
X207638342Y-76728050D01*
X207726395Y-76639997D01*
X220294508Y-76639997D01*
X220314353Y-76765298D01*
X220314353Y-76765299D01*
X220314354Y-76765301D01*
X220371950Y-76878339D01*
X220461658Y-76968047D01*
X220574696Y-77025643D01*
X220700000Y-77045489D01*
X220825304Y-77025643D01*
X220938342Y-76968047D01*
X221028050Y-76878339D01*
X221085646Y-76765301D01*
X221103908Y-76650000D01*
X229244508Y-76650000D01*
X229264353Y-76775301D01*
X229264353Y-76775302D01*
X229264354Y-76775304D01*
X229321950Y-76888342D01*
X229411658Y-76978050D01*
X229524696Y-77035646D01*
X229650000Y-77055492D01*
X229775304Y-77035646D01*
X229888342Y-76978050D01*
X229978050Y-76888342D01*
X230035646Y-76775304D01*
X230055492Y-76650000D01*
X230035646Y-76524696D01*
X229978050Y-76411658D01*
X229888342Y-76321950D01*
X229775304Y-76264354D01*
X229775302Y-76264353D01*
X229775301Y-76264353D01*
X229650000Y-76244508D01*
X229524698Y-76264353D01*
X229411656Y-76321951D01*
X229321951Y-76411656D01*
X229264353Y-76524698D01*
X229244508Y-76650000D01*
X221103908Y-76650000D01*
X221105492Y-76639997D01*
X221085646Y-76514693D01*
X221028050Y-76401655D01*
X220938342Y-76311947D01*
X220825304Y-76254351D01*
X220825302Y-76254350D01*
X220825301Y-76254350D01*
X220700000Y-76234505D01*
X220574698Y-76254350D01*
X220574696Y-76254350D01*
X220574696Y-76254351D01*
X220533574Y-76275304D01*
X220461656Y-76311948D01*
X220371951Y-76401653D01*
X220314353Y-76514695D01*
X220294508Y-76639997D01*
X207726395Y-76639997D01*
X207728050Y-76638342D01*
X207785646Y-76525304D01*
X207805492Y-76400000D01*
X207785646Y-76274696D01*
X207728050Y-76161658D01*
X207716392Y-76150000D01*
X215114508Y-76150000D01*
X215134353Y-76275301D01*
X215134353Y-76275302D01*
X215134354Y-76275304D01*
X215191950Y-76388342D01*
X215281658Y-76478050D01*
X215394696Y-76535646D01*
X215520000Y-76555492D01*
X215645304Y-76535646D01*
X215758342Y-76478050D01*
X215848050Y-76388342D01*
X215905646Y-76275304D01*
X215925492Y-76150000D01*
X230944508Y-76150000D01*
X230964353Y-76275301D01*
X230964353Y-76275302D01*
X230964354Y-76275304D01*
X231021950Y-76388342D01*
X231111658Y-76478050D01*
X231224696Y-76535646D01*
X231350000Y-76555492D01*
X231475304Y-76535646D01*
X231588342Y-76478050D01*
X231678050Y-76388342D01*
X231735646Y-76275304D01*
X231755492Y-76150000D01*
X231735646Y-76024696D01*
X231678050Y-75911658D01*
X231588342Y-75821950D01*
X231588340Y-75821948D01*
X231577470Y-75816410D01*
X231540687Y-75773343D01*
X231545131Y-75716881D01*
X231577467Y-75684543D01*
X231688342Y-75628050D01*
X231778050Y-75538342D01*
X231835646Y-75425304D01*
X231855492Y-75300000D01*
X231835646Y-75174696D01*
X231778050Y-75061658D01*
X231688342Y-74971950D01*
X231575304Y-74914354D01*
X231575302Y-74914353D01*
X231575301Y-74914353D01*
X231450000Y-74894508D01*
X231324698Y-74914353D01*
X231211656Y-74971951D01*
X231121951Y-75061656D01*
X231064353Y-75174698D01*
X231044508Y-75300000D01*
X231064353Y-75425301D01*
X231064353Y-75425302D01*
X231064354Y-75425304D01*
X231121950Y-75538342D01*
X231211658Y-75628050D01*
X231222528Y-75633589D01*
X231259312Y-75676654D01*
X231254869Y-75733117D01*
X231222530Y-75765457D01*
X231111657Y-75821950D01*
X231021951Y-75911656D01*
X230964353Y-76024698D01*
X230944508Y-76150000D01*
X215925492Y-76150000D01*
X215905646Y-76024696D01*
X215848050Y-75911658D01*
X215758342Y-75821950D01*
X215645304Y-75764354D01*
X215645302Y-75764353D01*
X215645301Y-75764353D01*
X215520000Y-75744508D01*
X215394698Y-75764353D01*
X215281656Y-75821951D01*
X215191951Y-75911656D01*
X215134353Y-76024698D01*
X215114508Y-76150000D01*
X207716392Y-76150000D01*
X207638342Y-76071950D01*
X207525304Y-76014354D01*
X207525302Y-76014353D01*
X207525301Y-76014353D01*
X207400000Y-75994508D01*
X207274698Y-76014353D01*
X207161656Y-76071951D01*
X207071951Y-76161656D01*
X207014353Y-76274698D01*
X206994508Y-76400000D01*
X203896592Y-76400000D01*
X203825304Y-76363677D01*
X203825302Y-76363676D01*
X203825301Y-76363676D01*
X203700000Y-76343831D01*
X203574698Y-76363676D01*
X203461656Y-76421274D01*
X203371951Y-76510979D01*
X203314353Y-76624021D01*
X203294508Y-76749323D01*
X199038177Y-76749323D01*
X199055492Y-76640001D01*
X199035646Y-76514697D01*
X198978050Y-76401659D01*
X198888342Y-76311951D01*
X198775304Y-76254355D01*
X198775302Y-76254354D01*
X198775301Y-76254354D01*
X198650000Y-76234509D01*
X198524698Y-76254354D01*
X198411656Y-76311952D01*
X198321951Y-76401657D01*
X198264353Y-76514699D01*
X198244508Y-76640001D01*
X198264353Y-76765302D01*
X198264353Y-76765303D01*
X198264354Y-76765305D01*
X198321950Y-76878343D01*
X198411658Y-76968051D01*
X198524696Y-77025647D01*
X198603151Y-77038073D01*
X198651442Y-77067664D01*
X198664664Y-77122736D01*
X198664664Y-77122737D01*
X198644508Y-77249999D01*
X198664664Y-77377262D01*
X198651442Y-77432334D01*
X198603151Y-77461927D01*
X198524698Y-77474352D01*
X198411656Y-77531950D01*
X198321951Y-77621655D01*
X198264353Y-77734697D01*
X198244508Y-77859999D01*
X189617968Y-77859999D01*
X189635646Y-77825304D01*
X189655492Y-77700000D01*
X189635646Y-77574696D01*
X189578050Y-77461658D01*
X189488342Y-77371950D01*
X189375304Y-77314354D01*
X189375302Y-77314353D01*
X189375301Y-77314353D01*
X189250000Y-77294508D01*
X189124698Y-77314353D01*
X189011656Y-77371951D01*
X188921951Y-77461656D01*
X188864353Y-77574698D01*
X188844508Y-77700000D01*
X186000500Y-77700000D01*
X186000500Y-77250000D01*
X187294508Y-77250000D01*
X187314353Y-77375301D01*
X187314353Y-77375302D01*
X187314354Y-77375304D01*
X187371950Y-77488342D01*
X187461658Y-77578050D01*
X187574696Y-77635646D01*
X187700000Y-77655492D01*
X187700001Y-77655491D01*
X187702390Y-77655870D01*
X187714420Y-77663242D01*
X187715689Y-77661173D01*
X187747606Y-77647951D01*
X187825304Y-77635646D01*
X187938342Y-77578050D01*
X188028050Y-77488342D01*
X188085646Y-77375304D01*
X188105492Y-77250000D01*
X188085646Y-77124696D01*
X188028050Y-77011658D01*
X187938342Y-76921950D01*
X187825304Y-76864354D01*
X187825302Y-76864353D01*
X187825301Y-76864353D01*
X187700000Y-76844508D01*
X187574698Y-76864353D01*
X187461656Y-76921951D01*
X187371951Y-77011656D01*
X187314353Y-77124698D01*
X187294508Y-77250000D01*
X186000500Y-77250000D01*
X186000500Y-76650000D01*
X188994508Y-76650000D01*
X189014353Y-76775301D01*
X189014353Y-76775302D01*
X189014354Y-76775304D01*
X189071950Y-76888342D01*
X189161658Y-76978050D01*
X189274696Y-77035646D01*
X189400000Y-77055492D01*
X189525304Y-77035646D01*
X189638342Y-76978050D01*
X189728050Y-76888342D01*
X189785646Y-76775304D01*
X189805492Y-76650000D01*
X189785646Y-76524696D01*
X189728050Y-76411658D01*
X189638342Y-76321950D01*
X189525304Y-76264354D01*
X189525302Y-76264353D01*
X189525301Y-76264353D01*
X189400000Y-76244508D01*
X189274698Y-76264353D01*
X189161656Y-76321951D01*
X189071951Y-76411656D01*
X189014353Y-76524698D01*
X188994508Y-76650000D01*
X186000500Y-76650000D01*
X186000500Y-75350000D01*
X187294508Y-75350000D01*
X187314353Y-75475301D01*
X187314353Y-75475302D01*
X187314354Y-75475304D01*
X187371950Y-75588342D01*
X187461658Y-75678050D01*
X187496878Y-75695996D01*
X187533660Y-75739061D01*
X187529217Y-75795523D01*
X187514354Y-75824693D01*
X187514354Y-75824695D01*
X187494508Y-75950000D01*
X187514353Y-76075301D01*
X187514353Y-76075302D01*
X187514354Y-76075304D01*
X187571950Y-76188342D01*
X187661658Y-76278050D01*
X187774696Y-76335646D01*
X187900000Y-76355492D01*
X188025304Y-76335646D01*
X188138342Y-76278050D01*
X188228050Y-76188342D01*
X188285646Y-76075304D01*
X188305492Y-75950000D01*
X188285646Y-75824696D01*
X188228050Y-75711658D01*
X188145425Y-75629033D01*
X216763225Y-75629033D01*
X216783070Y-75754334D01*
X216783070Y-75754335D01*
X216783071Y-75754337D01*
X216840667Y-75867375D01*
X216930375Y-75957083D01*
X217043413Y-76014679D01*
X217168717Y-76034525D01*
X217294021Y-76014679D01*
X217407059Y-75957083D01*
X217496767Y-75867375D01*
X217554363Y-75754337D01*
X217574209Y-75629033D01*
X217554363Y-75503729D01*
X217496767Y-75390691D01*
X217407059Y-75300983D01*
X217294021Y-75243387D01*
X217294019Y-75243386D01*
X217294018Y-75243386D01*
X217168717Y-75223541D01*
X217043415Y-75243386D01*
X216930373Y-75300984D01*
X216840668Y-75390689D01*
X216783070Y-75503731D01*
X216763225Y-75629033D01*
X188145425Y-75629033D01*
X188138342Y-75621950D01*
X188138341Y-75621949D01*
X188103120Y-75604003D01*
X188066338Y-75560935D01*
X188070781Y-75504476D01*
X188085646Y-75475304D01*
X188105492Y-75350000D01*
X188085646Y-75224696D01*
X188028050Y-75111658D01*
X187938342Y-75021950D01*
X187825304Y-74964354D01*
X187825302Y-74964353D01*
X187825301Y-74964353D01*
X187700000Y-74944508D01*
X187574698Y-74964353D01*
X187461656Y-75021951D01*
X187371951Y-75111656D01*
X187314353Y-75224698D01*
X187294508Y-75350000D01*
X186000500Y-75350000D01*
X186000500Y-74800000D01*
X188744508Y-74800000D01*
X188764353Y-74925301D01*
X188764353Y-74925302D01*
X188764354Y-74925304D01*
X188821950Y-75038342D01*
X188911658Y-75128050D01*
X189024696Y-75185646D01*
X189150000Y-75205492D01*
X189275304Y-75185646D01*
X189388342Y-75128050D01*
X189478050Y-75038342D01*
X189535646Y-74925304D01*
X189555492Y-74800000D01*
X189535646Y-74674696D01*
X189478050Y-74561658D01*
X189388342Y-74471950D01*
X189275304Y-74414354D01*
X189275302Y-74414353D01*
X189275301Y-74414353D01*
X189150000Y-74394508D01*
X189024698Y-74414353D01*
X188911656Y-74471951D01*
X188821951Y-74561656D01*
X188764353Y-74674698D01*
X188744508Y-74800000D01*
X186000500Y-74800000D01*
X186000500Y-74250000D01*
X187294508Y-74250000D01*
X187314353Y-74375301D01*
X187314353Y-74375302D01*
X187314354Y-74375304D01*
X187371950Y-74488342D01*
X187461658Y-74578050D01*
X187574696Y-74635646D01*
X187700000Y-74655492D01*
X187825304Y-74635646D01*
X187938342Y-74578050D01*
X188028050Y-74488342D01*
X188085646Y-74375304D01*
X188105492Y-74250000D01*
X188085646Y-74124696D01*
X188028050Y-74011658D01*
X187938342Y-73921950D01*
X187825304Y-73864354D01*
X187825302Y-73864353D01*
X187825301Y-73864353D01*
X187700000Y-73844508D01*
X187574698Y-73864353D01*
X187461656Y-73921951D01*
X187371951Y-74011656D01*
X187314353Y-74124698D01*
X187294508Y-74250000D01*
X186000500Y-74250000D01*
X186000500Y-73550001D01*
X188669778Y-73550001D01*
X188689623Y-73675302D01*
X188689623Y-73675303D01*
X188689624Y-73675305D01*
X188747220Y-73788343D01*
X188836928Y-73878051D01*
X188949966Y-73935647D01*
X189075270Y-73955493D01*
X189200574Y-73935647D01*
X189313612Y-73878051D01*
X189403320Y-73788343D01*
X189460916Y-73675305D01*
X189480762Y-73550001D01*
X189480762Y-73550000D01*
X198244508Y-73550000D01*
X198264353Y-73675301D01*
X198264353Y-73675302D01*
X198264354Y-73675304D01*
X198321950Y-73788342D01*
X198411658Y-73878050D01*
X198524696Y-73935646D01*
X198642460Y-73954297D01*
X198690750Y-73983889D01*
X198703972Y-74038962D01*
X198696818Y-74060980D01*
X198664353Y-74124696D01*
X198644508Y-74250000D01*
X198665265Y-74381056D01*
X198663186Y-74381385D01*
X198659355Y-74430061D01*
X198616287Y-74466843D01*
X198604999Y-74469553D01*
X198574698Y-74474352D01*
X198461656Y-74531950D01*
X198371951Y-74621655D01*
X198314353Y-74734697D01*
X198294508Y-74859999D01*
X198314353Y-74985300D01*
X198314353Y-74985301D01*
X198314354Y-74985303D01*
X198371950Y-75098341D01*
X198461658Y-75188049D01*
X198574696Y-75245645D01*
X198700000Y-75265491D01*
X198825304Y-75245645D01*
X198938342Y-75188049D01*
X199028050Y-75098341D01*
X199085646Y-74985303D01*
X199105492Y-74859999D01*
X199088025Y-74749713D01*
X203244508Y-74749713D01*
X203264353Y-74875014D01*
X203264353Y-74875015D01*
X203264354Y-74875017D01*
X203321950Y-74988055D01*
X203411658Y-75077763D01*
X203524696Y-75135359D01*
X203650000Y-75155205D01*
X203682863Y-75150000D01*
X207544508Y-75150000D01*
X207564353Y-75275301D01*
X207564353Y-75275302D01*
X207564354Y-75275304D01*
X207621950Y-75388342D01*
X207711658Y-75478050D01*
X207824696Y-75535646D01*
X207950000Y-75555492D01*
X208075304Y-75535646D01*
X208188342Y-75478050D01*
X208278050Y-75388342D01*
X208335646Y-75275304D01*
X208355492Y-75150000D01*
X208335646Y-75024696D01*
X208278050Y-74911658D01*
X208188342Y-74821950D01*
X208075304Y-74764354D01*
X208075302Y-74764353D01*
X208075301Y-74764353D01*
X207950000Y-74744508D01*
X207824698Y-74764353D01*
X207711656Y-74821951D01*
X207621951Y-74911656D01*
X207564353Y-75024698D01*
X207544508Y-75150000D01*
X203682863Y-75150000D01*
X203775304Y-75135359D01*
X203888342Y-75077763D01*
X203978050Y-74988055D01*
X204035646Y-74875017D01*
X204055492Y-74749713D01*
X204035646Y-74624409D01*
X204023209Y-74600000D01*
X214654508Y-74600000D01*
X214674353Y-74725301D01*
X214674353Y-74725302D01*
X214674354Y-74725304D01*
X214731950Y-74838342D01*
X214821658Y-74928050D01*
X214934696Y-74985646D01*
X215060000Y-75005492D01*
X215185304Y-74985646D01*
X215298342Y-74928050D01*
X215326392Y-74900000D01*
X220294508Y-74900000D01*
X220314353Y-75025301D01*
X220314353Y-75025302D01*
X220314354Y-75025304D01*
X220371950Y-75138342D01*
X220461658Y-75228050D01*
X220574696Y-75285646D01*
X220700000Y-75305492D01*
X220825304Y-75285646D01*
X220938342Y-75228050D01*
X221028050Y-75138342D01*
X221085646Y-75025304D01*
X221105492Y-74900000D01*
X229144508Y-74900000D01*
X229164353Y-75025301D01*
X229164353Y-75025302D01*
X229164354Y-75025304D01*
X229221950Y-75138342D01*
X229311658Y-75228050D01*
X229424696Y-75285646D01*
X229550000Y-75305492D01*
X229675304Y-75285646D01*
X229788342Y-75228050D01*
X229878050Y-75138342D01*
X229935646Y-75025304D01*
X229955492Y-74900000D01*
X229935646Y-74774696D01*
X229878050Y-74661658D01*
X229788342Y-74571950D01*
X229675304Y-74514354D01*
X229675302Y-74514353D01*
X229675301Y-74514353D01*
X229550000Y-74494508D01*
X229424698Y-74514353D01*
X229311656Y-74571951D01*
X229221951Y-74661656D01*
X229164353Y-74774698D01*
X229144508Y-74900000D01*
X221105492Y-74900000D01*
X221085646Y-74774696D01*
X221028050Y-74661658D01*
X220938342Y-74571950D01*
X220825304Y-74514354D01*
X220825302Y-74514353D01*
X220825301Y-74514353D01*
X220700000Y-74494508D01*
X220574698Y-74514353D01*
X220461656Y-74571951D01*
X220371951Y-74661656D01*
X220314353Y-74774698D01*
X220294508Y-74900000D01*
X215326392Y-74900000D01*
X215388050Y-74838342D01*
X215445646Y-74725304D01*
X215465492Y-74600000D01*
X215445646Y-74474696D01*
X215388050Y-74361658D01*
X215298342Y-74271950D01*
X215185304Y-74214354D01*
X215185302Y-74214353D01*
X215185301Y-74214353D01*
X215093079Y-74199747D01*
X216948957Y-74199747D01*
X216968802Y-74325048D01*
X216968802Y-74325049D01*
X216968803Y-74325051D01*
X217026399Y-74438089D01*
X217116107Y-74527797D01*
X217229145Y-74585393D01*
X217354449Y-74605239D01*
X217479753Y-74585393D01*
X217592791Y-74527797D01*
X217682499Y-74438089D01*
X217740095Y-74325051D01*
X217751982Y-74250000D01*
X230894508Y-74250000D01*
X230914353Y-74375301D01*
X230914353Y-74375302D01*
X230914354Y-74375304D01*
X230971950Y-74488342D01*
X231061658Y-74578050D01*
X231174696Y-74635646D01*
X231300000Y-74655492D01*
X231425304Y-74635646D01*
X231538342Y-74578050D01*
X231628050Y-74488342D01*
X231685646Y-74375304D01*
X231705492Y-74250000D01*
X231685646Y-74124696D01*
X231628050Y-74011658D01*
X231538342Y-73921950D01*
X231425304Y-73864354D01*
X231425302Y-73864353D01*
X231425301Y-73864353D01*
X231300000Y-73844508D01*
X231174698Y-73864353D01*
X231061656Y-73921951D01*
X230971951Y-74011656D01*
X230914353Y-74124698D01*
X230894508Y-74250000D01*
X217751982Y-74250000D01*
X217759941Y-74199747D01*
X217740095Y-74074443D01*
X217682499Y-73961405D01*
X217592791Y-73871697D01*
X217479753Y-73814101D01*
X217479751Y-73814100D01*
X217479750Y-73814100D01*
X217402825Y-73801917D01*
X217379033Y-73787337D01*
X217357745Y-73794255D01*
X217354449Y-73794255D01*
X217229147Y-73814100D01*
X217116105Y-73871698D01*
X217026400Y-73961403D01*
X216968802Y-74074445D01*
X216948957Y-74199747D01*
X215093079Y-74199747D01*
X215060000Y-74194508D01*
X214934698Y-74214353D01*
X214821656Y-74271951D01*
X214731951Y-74361656D01*
X214674353Y-74474698D01*
X214654508Y-74600000D01*
X204023209Y-74600000D01*
X203978050Y-74511371D01*
X203888342Y-74421663D01*
X203775304Y-74364067D01*
X203775302Y-74364066D01*
X203775301Y-74364066D01*
X203650000Y-74344221D01*
X203524698Y-74364066D01*
X203411656Y-74421664D01*
X203321951Y-74511369D01*
X203264353Y-74624411D01*
X203244508Y-74749713D01*
X199088025Y-74749713D01*
X199085646Y-74734695D01*
X199085645Y-74734694D01*
X199084735Y-74728943D01*
X199086815Y-74728613D01*
X199090639Y-74679948D01*
X199133701Y-74643159D01*
X199145001Y-74640445D01*
X199175304Y-74635646D01*
X199288342Y-74578050D01*
X199378050Y-74488342D01*
X199435646Y-74375304D01*
X199455492Y-74250000D01*
X199435646Y-74124696D01*
X199378050Y-74011658D01*
X199288342Y-73921950D01*
X199175304Y-73864354D01*
X199175302Y-73864353D01*
X199175301Y-73864353D01*
X199057540Y-73845702D01*
X199009249Y-73816109D01*
X198996027Y-73761037D01*
X199003182Y-73739018D01*
X199004795Y-73735851D01*
X199035646Y-73675304D01*
X199055492Y-73550000D01*
X199035646Y-73424696D01*
X198978050Y-73311658D01*
X198888342Y-73221950D01*
X198775304Y-73164354D01*
X198775302Y-73164353D01*
X198775301Y-73164353D01*
X198650000Y-73144508D01*
X198524698Y-73164353D01*
X198411656Y-73221951D01*
X198321951Y-73311656D01*
X198264353Y-73424698D01*
X198244508Y-73550000D01*
X189480762Y-73550000D01*
X189460916Y-73424697D01*
X189403320Y-73311659D01*
X189313612Y-73221951D01*
X189200574Y-73164355D01*
X189200572Y-73164354D01*
X189200571Y-73164354D01*
X189075270Y-73144509D01*
X188949968Y-73164354D01*
X188836926Y-73221952D01*
X188747221Y-73311657D01*
X188689623Y-73424699D01*
X188669778Y-73550001D01*
X186000500Y-73550001D01*
X186000500Y-72400000D01*
X187644508Y-72400000D01*
X187664353Y-72525301D01*
X187664353Y-72525302D01*
X187664354Y-72525304D01*
X187721950Y-72638342D01*
X187811658Y-72728050D01*
X187924696Y-72785646D01*
X188050000Y-72805492D01*
X188175304Y-72785646D01*
X188288342Y-72728050D01*
X188378050Y-72638342D01*
X188423063Y-72550000D01*
X198394508Y-72550000D01*
X198414353Y-72675301D01*
X198414353Y-72675302D01*
X198414354Y-72675304D01*
X198471950Y-72788342D01*
X198561658Y-72878050D01*
X198674696Y-72935646D01*
X198800000Y-72955492D01*
X198925304Y-72935646D01*
X199038342Y-72878050D01*
X199128050Y-72788342D01*
X199147658Y-72749860D01*
X203244508Y-72749860D01*
X203264353Y-72875161D01*
X203264353Y-72875162D01*
X203264354Y-72875164D01*
X203321950Y-72988202D01*
X203411658Y-73077910D01*
X203524696Y-73135506D01*
X203650000Y-73155352D01*
X203775304Y-73135506D01*
X203888342Y-73077910D01*
X203978050Y-72988202D01*
X204022991Y-72900000D01*
X208094508Y-72900000D01*
X208114353Y-73025301D01*
X208114353Y-73025302D01*
X208114354Y-73025304D01*
X208171950Y-73138342D01*
X208261658Y-73228050D01*
X208374696Y-73285646D01*
X208500000Y-73305492D01*
X208625304Y-73285646D01*
X208696566Y-73249336D01*
X217012205Y-73249336D01*
X217032050Y-73374637D01*
X217032050Y-73374638D01*
X217032051Y-73374640D01*
X217089647Y-73487678D01*
X217179355Y-73577386D01*
X217292393Y-73634982D01*
X217369321Y-73647166D01*
X217393112Y-73661745D01*
X217414401Y-73654828D01*
X217417697Y-73654828D01*
X217543001Y-73634982D01*
X217611657Y-73600000D01*
X220294508Y-73600000D01*
X220314353Y-73725301D01*
X220314353Y-73725302D01*
X220314354Y-73725304D01*
X220371950Y-73838342D01*
X220461658Y-73928050D01*
X220574696Y-73985646D01*
X220700000Y-74005492D01*
X220825304Y-73985646D01*
X220938342Y-73928050D01*
X221028050Y-73838342D01*
X221085646Y-73725304D01*
X221105492Y-73600000D01*
X229144508Y-73600000D01*
X229164353Y-73725301D01*
X229164353Y-73725302D01*
X229164354Y-73725304D01*
X229221950Y-73838342D01*
X229311658Y-73928050D01*
X229424696Y-73985646D01*
X229550000Y-74005492D01*
X229675304Y-73985646D01*
X229788342Y-73928050D01*
X229878050Y-73838342D01*
X229935646Y-73725304D01*
X229955492Y-73600000D01*
X229935646Y-73474696D01*
X229878050Y-73361658D01*
X229788342Y-73271950D01*
X229675304Y-73214354D01*
X229675302Y-73214353D01*
X229675301Y-73214353D01*
X229550000Y-73194508D01*
X229424698Y-73214353D01*
X229311656Y-73271951D01*
X229221951Y-73361656D01*
X229164353Y-73474698D01*
X229144508Y-73600000D01*
X221105492Y-73600000D01*
X221085646Y-73474696D01*
X221028050Y-73361658D01*
X220938342Y-73271950D01*
X220825304Y-73214354D01*
X220825302Y-73214353D01*
X220825301Y-73214353D01*
X220700000Y-73194508D01*
X220574698Y-73214353D01*
X220461656Y-73271951D01*
X220371951Y-73361656D01*
X220314353Y-73474698D01*
X220294508Y-73600000D01*
X217611657Y-73600000D01*
X217656039Y-73577386D01*
X217745747Y-73487678D01*
X217803343Y-73374640D01*
X217823189Y-73249336D01*
X217807456Y-73150000D01*
X230794508Y-73150000D01*
X230814353Y-73275301D01*
X230814353Y-73275302D01*
X230814354Y-73275304D01*
X230871950Y-73388342D01*
X230961658Y-73478050D01*
X231074696Y-73535646D01*
X231200000Y-73555492D01*
X231325304Y-73535646D01*
X231438342Y-73478050D01*
X231528050Y-73388342D01*
X231585646Y-73275304D01*
X231605492Y-73150000D01*
X231585646Y-73024696D01*
X231528050Y-72911658D01*
X231438342Y-72821950D01*
X231325304Y-72764354D01*
X231325302Y-72764353D01*
X231325301Y-72764353D01*
X231200000Y-72744508D01*
X231074698Y-72764353D01*
X230961656Y-72821951D01*
X230871951Y-72911656D01*
X230814353Y-73024698D01*
X230794508Y-73150000D01*
X217807456Y-73150000D01*
X217803343Y-73124032D01*
X217745747Y-73010994D01*
X217656039Y-72921286D01*
X217543001Y-72863690D01*
X217542999Y-72863689D01*
X217542998Y-72863689D01*
X217417697Y-72843844D01*
X217292395Y-72863689D01*
X217179353Y-72921287D01*
X217089648Y-73010992D01*
X217032050Y-73124034D01*
X217012205Y-73249336D01*
X208696566Y-73249336D01*
X208738342Y-73228050D01*
X208828050Y-73138342D01*
X208885646Y-73025304D01*
X208905492Y-72900000D01*
X208885646Y-72774696D01*
X208828050Y-72661658D01*
X208738342Y-72571950D01*
X208625304Y-72514354D01*
X208625302Y-72514353D01*
X208625301Y-72514353D01*
X208500000Y-72494508D01*
X208374698Y-72514353D01*
X208261656Y-72571951D01*
X208171951Y-72661656D01*
X208114353Y-72774698D01*
X208094508Y-72900000D01*
X204022991Y-72900000D01*
X204035646Y-72875164D01*
X204055492Y-72749860D01*
X204035646Y-72624556D01*
X203978050Y-72511518D01*
X203888342Y-72421810D01*
X203775304Y-72364214D01*
X203775302Y-72364213D01*
X203775301Y-72364213D01*
X203650000Y-72344368D01*
X203524698Y-72364213D01*
X203411656Y-72421811D01*
X203321951Y-72511516D01*
X203264353Y-72624558D01*
X203244508Y-72749860D01*
X199147658Y-72749860D01*
X199185646Y-72675304D01*
X199205492Y-72550000D01*
X199185646Y-72424696D01*
X199128050Y-72311658D01*
X199038342Y-72221950D01*
X198925304Y-72164354D01*
X198925302Y-72164353D01*
X198925301Y-72164353D01*
X198800000Y-72144508D01*
X198674698Y-72164353D01*
X198561656Y-72221951D01*
X198471951Y-72311656D01*
X198471950Y-72311658D01*
X198415825Y-72421810D01*
X198414353Y-72424698D01*
X198394508Y-72550000D01*
X188423063Y-72550000D01*
X188435646Y-72525304D01*
X188455492Y-72400000D01*
X188435646Y-72274696D01*
X188378050Y-72161658D01*
X188288342Y-72071950D01*
X188175304Y-72014354D01*
X188175302Y-72014353D01*
X188175301Y-72014353D01*
X188050000Y-71994508D01*
X187924698Y-72014353D01*
X187811656Y-72071951D01*
X187721951Y-72161656D01*
X187664353Y-72274698D01*
X187644508Y-72400000D01*
X186000500Y-72400000D01*
X186000500Y-71856020D01*
X194824500Y-71856020D01*
X194853495Y-71964232D01*
X194853496Y-71964235D01*
X194853497Y-71964237D01*
X194909515Y-72061263D01*
X194988737Y-72140485D01*
X195085763Y-72196503D01*
X195193979Y-72225499D01*
X195193980Y-72225500D01*
X195193982Y-72225500D01*
X195306020Y-72225500D01*
X195306020Y-72225499D01*
X195414237Y-72196503D01*
X195511263Y-72140485D01*
X195590485Y-72061263D01*
X195646503Y-71964237D01*
X195675499Y-71856020D01*
X195675500Y-71856020D01*
X225824500Y-71856020D01*
X225853495Y-71964232D01*
X225853496Y-71964235D01*
X225853497Y-71964237D01*
X225909515Y-72061263D01*
X225988737Y-72140485D01*
X226085763Y-72196503D01*
X226193979Y-72225499D01*
X226193980Y-72225500D01*
X226193982Y-72225500D01*
X226306020Y-72225500D01*
X226306020Y-72225499D01*
X226414237Y-72196503D01*
X226511263Y-72140485D01*
X226590485Y-72061263D01*
X226646503Y-71964237D01*
X226675499Y-71856020D01*
X226675500Y-71856020D01*
X226675500Y-71743980D01*
X226675499Y-71743979D01*
X226646504Y-71635767D01*
X226646503Y-71635763D01*
X226590485Y-71538737D01*
X226511263Y-71459515D01*
X226414241Y-71403499D01*
X226414232Y-71403495D01*
X226306020Y-71374500D01*
X226306018Y-71374500D01*
X226193982Y-71374500D01*
X226193980Y-71374500D01*
X226085767Y-71403495D01*
X226085758Y-71403499D01*
X225988736Y-71459515D01*
X225909515Y-71538736D01*
X225853499Y-71635758D01*
X225853495Y-71635767D01*
X225824500Y-71743979D01*
X225824500Y-71856020D01*
X195675500Y-71856020D01*
X195675500Y-71743980D01*
X195675499Y-71743979D01*
X195646504Y-71635767D01*
X195646503Y-71635763D01*
X195590485Y-71538737D01*
X195511263Y-71459515D01*
X195414241Y-71403499D01*
X195414232Y-71403495D01*
X195306020Y-71374500D01*
X195306018Y-71374500D01*
X195193982Y-71374500D01*
X195193980Y-71374500D01*
X195085767Y-71403495D01*
X195085758Y-71403499D01*
X194988736Y-71459515D01*
X194909515Y-71538736D01*
X194853499Y-71635758D01*
X194853495Y-71635767D01*
X194824500Y-71743979D01*
X194824500Y-71856020D01*
X186000500Y-71856020D01*
X186000500Y-70900000D01*
X198394508Y-70900000D01*
X198414353Y-71025301D01*
X198414353Y-71025302D01*
X198414354Y-71025304D01*
X198471950Y-71138342D01*
X198561658Y-71228050D01*
X198674696Y-71285646D01*
X198800000Y-71305492D01*
X198925304Y-71285646D01*
X199038342Y-71228050D01*
X199128050Y-71138342D01*
X199185646Y-71025304D01*
X199205492Y-70900000D01*
X199185646Y-70774696D01*
X199173284Y-70750434D01*
X205485961Y-70750434D01*
X205505806Y-70875735D01*
X205505806Y-70875736D01*
X205505807Y-70875738D01*
X205563403Y-70988776D01*
X205653111Y-71078484D01*
X205766149Y-71136080D01*
X205891453Y-71155926D01*
X206016757Y-71136080D01*
X206129795Y-71078484D01*
X206219503Y-70988776D01*
X206239260Y-70950000D01*
X208694508Y-70950000D01*
X208714353Y-71075301D01*
X208714353Y-71075302D01*
X208714354Y-71075304D01*
X208771950Y-71188342D01*
X208861658Y-71278050D01*
X208974696Y-71335646D01*
X209100000Y-71355492D01*
X209134675Y-71350000D01*
X214194508Y-71350000D01*
X214214353Y-71475301D01*
X214214353Y-71475302D01*
X214214354Y-71475304D01*
X214271950Y-71588342D01*
X214361658Y-71678050D01*
X214474696Y-71735646D01*
X214600000Y-71755492D01*
X214725304Y-71735646D01*
X214838342Y-71678050D01*
X214928050Y-71588342D01*
X214985646Y-71475304D01*
X215005492Y-71350000D01*
X214989584Y-71249562D01*
X217011882Y-71249562D01*
X217031727Y-71374863D01*
X217031727Y-71374864D01*
X217031728Y-71374866D01*
X217089324Y-71487904D01*
X217179032Y-71577612D01*
X217292070Y-71635208D01*
X217417374Y-71655054D01*
X217542678Y-71635208D01*
X217655716Y-71577612D01*
X217745424Y-71487904D01*
X217803020Y-71374866D01*
X217822866Y-71249562D01*
X217803020Y-71124258D01*
X217745424Y-71011220D01*
X217655716Y-70921512D01*
X217542678Y-70863916D01*
X217542676Y-70863915D01*
X217542675Y-70863915D01*
X217417374Y-70844070D01*
X217292072Y-70863915D01*
X217179030Y-70921513D01*
X217089325Y-71011218D01*
X217031727Y-71124260D01*
X217011882Y-71249562D01*
X214989584Y-71249562D01*
X214985646Y-71224696D01*
X214928050Y-71111658D01*
X214838342Y-71021950D01*
X214725304Y-70964354D01*
X214725302Y-70964353D01*
X214725301Y-70964353D01*
X214600000Y-70944508D01*
X214474698Y-70964353D01*
X214361656Y-71021951D01*
X214271951Y-71111656D01*
X214214353Y-71224698D01*
X214194508Y-71350000D01*
X209134675Y-71350000D01*
X209225304Y-71335646D01*
X209338342Y-71278050D01*
X209428050Y-71188342D01*
X209485646Y-71075304D01*
X209505492Y-70950000D01*
X209485646Y-70824696D01*
X209428050Y-70711658D01*
X209338342Y-70621950D01*
X209225304Y-70564354D01*
X209225302Y-70564353D01*
X209225301Y-70564353D01*
X209100000Y-70544508D01*
X208974698Y-70564353D01*
X208861656Y-70621951D01*
X208771951Y-70711656D01*
X208714353Y-70824698D01*
X208694508Y-70950000D01*
X206239260Y-70950000D01*
X206277099Y-70875738D01*
X206296945Y-70750434D01*
X206277099Y-70625130D01*
X206219503Y-70512092D01*
X206129795Y-70422384D01*
X206016757Y-70364788D01*
X206016755Y-70364787D01*
X206016754Y-70364787D01*
X205891453Y-70344942D01*
X205766151Y-70364787D01*
X205653109Y-70422385D01*
X205563404Y-70512090D01*
X205505806Y-70625132D01*
X205485961Y-70750434D01*
X199173284Y-70750434D01*
X199128050Y-70661658D01*
X199038342Y-70571950D01*
X198925304Y-70514354D01*
X198925302Y-70514353D01*
X198925301Y-70514353D01*
X198800000Y-70494508D01*
X198674698Y-70514353D01*
X198561656Y-70571951D01*
X198471951Y-70661656D01*
X198414353Y-70774698D01*
X198394508Y-70900000D01*
X186000500Y-70900000D01*
X186000500Y-69250337D01*
X217012163Y-69250337D01*
X217032008Y-69375638D01*
X217032008Y-69375639D01*
X217032009Y-69375641D01*
X217089605Y-69488679D01*
X217179313Y-69578387D01*
X217292351Y-69635983D01*
X217417655Y-69655829D01*
X217542959Y-69635983D01*
X217655997Y-69578387D01*
X217745705Y-69488679D01*
X217803301Y-69375641D01*
X217823147Y-69250337D01*
X217803301Y-69125033D01*
X217745705Y-69011995D01*
X217655997Y-68922287D01*
X217542959Y-68864691D01*
X217542957Y-68864690D01*
X217542956Y-68864690D01*
X217417655Y-68844845D01*
X217292353Y-68864690D01*
X217179311Y-68922288D01*
X217089606Y-69011993D01*
X217032008Y-69125035D01*
X217012163Y-69250337D01*
X186000500Y-69250337D01*
X186000500Y-68750434D01*
X205485960Y-68750434D01*
X205505805Y-68875735D01*
X205505805Y-68875736D01*
X205505806Y-68875738D01*
X205563402Y-68988776D01*
X205653110Y-69078484D01*
X205766148Y-69136080D01*
X205891452Y-69155926D01*
X206016756Y-69136080D01*
X206129794Y-69078484D01*
X206219502Y-68988776D01*
X206277098Y-68875738D01*
X206296944Y-68750434D01*
X206277098Y-68625130D01*
X206219502Y-68512092D01*
X206129794Y-68422384D01*
X206016756Y-68364788D01*
X206016754Y-68364787D01*
X206016753Y-68364787D01*
X205891452Y-68344942D01*
X205766150Y-68364787D01*
X205653108Y-68422385D01*
X205563403Y-68512090D01*
X205505805Y-68625132D01*
X205485960Y-68750434D01*
X186000500Y-68750434D01*
X186000500Y-67246146D01*
X217016829Y-67246146D01*
X217036674Y-67371447D01*
X217036674Y-67371448D01*
X217036675Y-67371450D01*
X217094271Y-67484488D01*
X217183979Y-67574196D01*
X217297017Y-67631792D01*
X217422321Y-67651638D01*
X217547625Y-67631792D01*
X217660663Y-67574196D01*
X217750371Y-67484488D01*
X217807967Y-67371450D01*
X217827813Y-67246146D01*
X217807967Y-67120842D01*
X217750371Y-67007804D01*
X217660663Y-66918096D01*
X217625148Y-66900000D01*
X220794508Y-66900000D01*
X220814353Y-67025301D01*
X220814353Y-67025302D01*
X220814354Y-67025304D01*
X220871950Y-67138342D01*
X220961658Y-67228050D01*
X221074696Y-67285646D01*
X221149662Y-67297519D01*
X221168885Y-67300564D01*
X221217176Y-67330157D01*
X221230398Y-67385229D01*
X221223245Y-67407246D01*
X221214353Y-67424697D01*
X221194508Y-67550000D01*
X221214353Y-67675301D01*
X221214353Y-67675302D01*
X221214354Y-67675304D01*
X221271950Y-67788342D01*
X221361658Y-67878050D01*
X221474696Y-67935646D01*
X221600000Y-67955492D01*
X221725304Y-67935646D01*
X221838342Y-67878050D01*
X221928050Y-67788342D01*
X221985646Y-67675304D01*
X222005492Y-67550000D01*
X221985646Y-67424696D01*
X221928050Y-67311658D01*
X221838342Y-67221950D01*
X221725304Y-67164354D01*
X221725302Y-67164353D01*
X221725301Y-67164353D01*
X221631112Y-67149435D01*
X221582821Y-67119842D01*
X221569600Y-67064769D01*
X221576752Y-67042757D01*
X221585646Y-67025304D01*
X221605492Y-66900000D01*
X221585646Y-66774696D01*
X221528050Y-66661658D01*
X221438342Y-66571950D01*
X221325304Y-66514354D01*
X221325302Y-66514353D01*
X221325301Y-66514353D01*
X221200000Y-66494508D01*
X221074698Y-66514353D01*
X220961656Y-66571951D01*
X220871951Y-66661656D01*
X220814353Y-66774698D01*
X220794508Y-66900000D01*
X217625148Y-66900000D01*
X217547625Y-66860500D01*
X217547623Y-66860499D01*
X217547622Y-66860499D01*
X217422321Y-66840654D01*
X217297019Y-66860499D01*
X217183977Y-66918097D01*
X217094272Y-67007802D01*
X217036674Y-67120844D01*
X217016829Y-67246146D01*
X186000500Y-67246146D01*
X186000500Y-66749323D01*
X205466866Y-66749323D01*
X205486711Y-66874624D01*
X205486711Y-66874625D01*
X205486712Y-66874627D01*
X205544308Y-66987665D01*
X205634016Y-67077373D01*
X205747054Y-67134969D01*
X205872358Y-67154815D01*
X205997662Y-67134969D01*
X206110700Y-67077373D01*
X206200408Y-66987665D01*
X206258004Y-66874627D01*
X206277850Y-66749323D01*
X206258004Y-66624019D01*
X206200408Y-66510981D01*
X206110700Y-66421273D01*
X205997662Y-66363677D01*
X205997660Y-66363676D01*
X205997659Y-66363676D01*
X205872358Y-66343831D01*
X205747056Y-66363676D01*
X205634014Y-66421274D01*
X205544309Y-66510979D01*
X205486711Y-66624021D01*
X205466866Y-66749323D01*
X186000500Y-66749323D01*
X186000500Y-66050000D01*
X221444508Y-66050000D01*
X221464353Y-66175301D01*
X221464353Y-66175302D01*
X221464354Y-66175304D01*
X221521950Y-66288342D01*
X221611658Y-66378050D01*
X221724696Y-66435646D01*
X221850000Y-66455492D01*
X221975304Y-66435646D01*
X222088342Y-66378050D01*
X222178050Y-66288342D01*
X222235646Y-66175304D01*
X222255492Y-66050000D01*
X222235646Y-65924696D01*
X222178050Y-65811658D01*
X222088342Y-65721950D01*
X221975304Y-65664354D01*
X221975302Y-65664353D01*
X221975301Y-65664353D01*
X221850000Y-65644508D01*
X221724698Y-65664353D01*
X221611656Y-65721951D01*
X221521951Y-65811656D01*
X221464353Y-65924698D01*
X221444508Y-66050000D01*
X186000500Y-66050000D01*
X186000500Y-63500006D01*
X187544518Y-63500006D01*
X187564421Y-63778291D01*
X187623728Y-64050918D01*
X187623733Y-64050937D01*
X187721228Y-64312333D01*
X187854942Y-64557211D01*
X187933129Y-64661656D01*
X188022145Y-64780568D01*
X188219432Y-64977855D01*
X188264433Y-65011542D01*
X188442788Y-65145057D01*
X188687666Y-65278771D01*
X188949062Y-65376266D01*
X188949067Y-65376267D01*
X188949077Y-65376271D01*
X189221706Y-65435578D01*
X189283549Y-65440001D01*
X189499993Y-65455482D01*
X189500000Y-65455482D01*
X189500007Y-65455482D01*
X189694805Y-65441549D01*
X189778294Y-65435578D01*
X190050923Y-65376271D01*
X190050934Y-65376266D01*
X190050937Y-65376266D01*
X190312333Y-65278771D01*
X190365236Y-65249884D01*
X217021774Y-65249884D01*
X217041619Y-65375185D01*
X217041619Y-65375186D01*
X217041620Y-65375188D01*
X217099216Y-65488226D01*
X217188924Y-65577934D01*
X217301962Y-65635530D01*
X217427266Y-65655376D01*
X217552570Y-65635530D01*
X217665608Y-65577934D01*
X217755316Y-65488226D01*
X217812912Y-65375188D01*
X217832758Y-65249884D01*
X217812912Y-65124580D01*
X217755316Y-65011542D01*
X217665608Y-64921834D01*
X217622757Y-64900000D01*
X221944508Y-64900000D01*
X221964353Y-65025301D01*
X221964353Y-65025302D01*
X221964354Y-65025304D01*
X222021950Y-65138342D01*
X222111658Y-65228050D01*
X222224696Y-65285646D01*
X222350000Y-65305492D01*
X222475304Y-65285646D01*
X222588342Y-65228050D01*
X222678050Y-65138342D01*
X222735646Y-65025304D01*
X222755492Y-64900000D01*
X222735646Y-64774696D01*
X222678050Y-64661658D01*
X222588342Y-64571950D01*
X222475304Y-64514354D01*
X222475302Y-64514353D01*
X222475301Y-64514353D01*
X222350000Y-64494508D01*
X222224698Y-64514353D01*
X222111656Y-64571951D01*
X222021951Y-64661656D01*
X222021950Y-64661658D01*
X221977082Y-64749717D01*
X221964353Y-64774698D01*
X221944508Y-64900000D01*
X217622757Y-64900000D01*
X217552570Y-64864238D01*
X217552568Y-64864237D01*
X217552567Y-64864237D01*
X217427266Y-64844392D01*
X217301964Y-64864237D01*
X217188922Y-64921835D01*
X217099217Y-65011540D01*
X217041619Y-65124582D01*
X217021774Y-65249884D01*
X190365236Y-65249884D01*
X190557213Y-65145056D01*
X190780568Y-64977855D01*
X190977855Y-64780568D01*
X191000950Y-64749717D01*
X205467438Y-64749717D01*
X205487283Y-64875018D01*
X205487283Y-64875019D01*
X205487284Y-64875021D01*
X205544880Y-64988059D01*
X205634588Y-65077767D01*
X205747626Y-65135363D01*
X205872930Y-65155209D01*
X205998234Y-65135363D01*
X206111272Y-65077767D01*
X206200980Y-64988059D01*
X206258576Y-64875021D01*
X206278422Y-64749717D01*
X206258576Y-64624413D01*
X206200980Y-64511375D01*
X206111272Y-64421667D01*
X205998234Y-64364071D01*
X205998232Y-64364070D01*
X205998231Y-64364070D01*
X205872930Y-64344225D01*
X205747628Y-64364070D01*
X205634586Y-64421668D01*
X205544881Y-64511373D01*
X205487283Y-64624415D01*
X205467438Y-64749717D01*
X191000950Y-64749717D01*
X191145056Y-64557213D01*
X191278769Y-64312337D01*
X191278769Y-64312335D01*
X191278771Y-64312333D01*
X191376266Y-64050937D01*
X191376266Y-64050934D01*
X191376271Y-64050923D01*
X191435578Y-63778294D01*
X191443874Y-63662300D01*
X191455482Y-63500006D01*
X191455482Y-63499993D01*
X191438089Y-63256809D01*
X217012821Y-63256809D01*
X217032666Y-63382110D01*
X217032666Y-63382111D01*
X217032667Y-63382113D01*
X217090263Y-63495151D01*
X217179971Y-63584859D01*
X217293009Y-63642455D01*
X217418313Y-63662301D01*
X217543617Y-63642455D01*
X217656655Y-63584859D01*
X217741508Y-63500006D01*
X227544518Y-63500006D01*
X227564421Y-63778291D01*
X227623728Y-64050918D01*
X227623733Y-64050937D01*
X227721228Y-64312333D01*
X227854942Y-64557211D01*
X227933129Y-64661656D01*
X228022145Y-64780568D01*
X228219432Y-64977855D01*
X228264433Y-65011542D01*
X228442788Y-65145057D01*
X228687666Y-65278771D01*
X228949062Y-65376266D01*
X228949067Y-65376267D01*
X228949077Y-65376271D01*
X229221706Y-65435578D01*
X229283549Y-65440001D01*
X229499993Y-65455482D01*
X229500000Y-65455482D01*
X229500007Y-65455482D01*
X229694805Y-65441549D01*
X229778294Y-65435578D01*
X230050923Y-65376271D01*
X230050934Y-65376266D01*
X230050937Y-65376266D01*
X230312333Y-65278771D01*
X230365236Y-65249884D01*
X230557213Y-65145056D01*
X230780568Y-64977855D01*
X230977855Y-64780568D01*
X231145056Y-64557213D01*
X231278769Y-64312337D01*
X231278769Y-64312335D01*
X231278771Y-64312333D01*
X231376266Y-64050937D01*
X231376266Y-64050934D01*
X231376271Y-64050923D01*
X231435578Y-63778294D01*
X231443874Y-63662300D01*
X231455482Y-63500006D01*
X231455482Y-63499993D01*
X231435578Y-63221708D01*
X231435578Y-63221706D01*
X231376271Y-62949077D01*
X231376267Y-62949067D01*
X231376266Y-62949062D01*
X231278771Y-62687666D01*
X231145057Y-62442788D01*
X231086236Y-62364213D01*
X230977855Y-62219432D01*
X230780568Y-62022145D01*
X230668890Y-61938544D01*
X230557211Y-61854942D01*
X230312333Y-61721228D01*
X230050937Y-61623733D01*
X230050925Y-61623730D01*
X230050923Y-61623729D01*
X229995971Y-61611775D01*
X229778291Y-61564421D01*
X229500007Y-61544518D01*
X229499993Y-61544518D01*
X229221708Y-61564421D01*
X228949081Y-61623728D01*
X228949062Y-61623733D01*
X228687666Y-61721228D01*
X228442788Y-61854942D01*
X228219429Y-62022147D01*
X228022147Y-62219429D01*
X227854942Y-62442788D01*
X227721228Y-62687666D01*
X227623733Y-62949062D01*
X227623728Y-62949081D01*
X227564421Y-63221708D01*
X227544518Y-63499993D01*
X227544518Y-63500006D01*
X217741508Y-63500006D01*
X217746363Y-63495151D01*
X217803959Y-63382113D01*
X217823805Y-63256809D01*
X217803959Y-63131505D01*
X217746363Y-63018467D01*
X217656655Y-62928759D01*
X217543617Y-62871163D01*
X217543615Y-62871162D01*
X217543614Y-62871162D01*
X217418313Y-62851317D01*
X217293011Y-62871162D01*
X217179969Y-62928760D01*
X217090264Y-63018465D01*
X217032666Y-63131507D01*
X217012821Y-63256809D01*
X191438089Y-63256809D01*
X191435578Y-63221708D01*
X191435578Y-63221706D01*
X191376271Y-62949077D01*
X191376267Y-62949067D01*
X191376266Y-62949062D01*
X191301968Y-62749860D01*
X205477135Y-62749860D01*
X205496980Y-62875161D01*
X205496980Y-62875162D01*
X205496981Y-62875164D01*
X205554577Y-62988202D01*
X205644285Y-63077910D01*
X205757323Y-63135506D01*
X205882627Y-63155352D01*
X206007931Y-63135506D01*
X206120969Y-63077910D01*
X206210677Y-62988202D01*
X206268273Y-62875164D01*
X206288119Y-62749860D01*
X206268273Y-62624556D01*
X206210677Y-62511518D01*
X206120969Y-62421810D01*
X206007931Y-62364214D01*
X206007929Y-62364213D01*
X206007928Y-62364213D01*
X205882627Y-62344368D01*
X205757325Y-62364213D01*
X205644283Y-62421811D01*
X205554578Y-62511516D01*
X205496980Y-62624558D01*
X205477135Y-62749860D01*
X191301968Y-62749860D01*
X191278771Y-62687666D01*
X191145057Y-62442788D01*
X191086236Y-62364213D01*
X190977855Y-62219432D01*
X190780568Y-62022145D01*
X190668890Y-61938544D01*
X190557211Y-61854942D01*
X190312333Y-61721228D01*
X190050937Y-61623733D01*
X190050925Y-61623730D01*
X190050923Y-61623729D01*
X189995971Y-61611775D01*
X189778291Y-61564421D01*
X189500007Y-61544518D01*
X189499993Y-61544518D01*
X189221708Y-61564421D01*
X188949081Y-61623728D01*
X188949062Y-61623733D01*
X188687666Y-61721228D01*
X188442788Y-61854942D01*
X188219429Y-62022147D01*
X188022147Y-62219429D01*
X187854942Y-62442788D01*
X187721228Y-62687666D01*
X187623733Y-62949062D01*
X187623728Y-62949081D01*
X187564421Y-63221708D01*
X187544518Y-63499993D01*
X187544518Y-63500006D01*
X186000500Y-63500006D01*
X186000500Y-61250108D01*
X217003014Y-61250108D01*
X217022859Y-61375409D01*
X217022859Y-61375410D01*
X217022860Y-61375412D01*
X217080456Y-61488450D01*
X217170164Y-61578158D01*
X217283202Y-61635754D01*
X217408506Y-61655600D01*
X217533810Y-61635754D01*
X217646848Y-61578158D01*
X217736556Y-61488450D01*
X217794152Y-61375412D01*
X217813998Y-61250108D01*
X217794152Y-61124804D01*
X217736556Y-61011766D01*
X217646848Y-60922058D01*
X217533810Y-60864462D01*
X217533808Y-60864461D01*
X217533807Y-60864461D01*
X217408506Y-60844616D01*
X217283204Y-60864461D01*
X217170162Y-60922059D01*
X217080457Y-61011764D01*
X217022859Y-61124806D01*
X217003014Y-61250108D01*
X186000500Y-61250108D01*
X186000500Y-60750438D01*
X205477134Y-60750438D01*
X205496979Y-60875739D01*
X205496979Y-60875740D01*
X205496980Y-60875742D01*
X205554576Y-60988780D01*
X205644284Y-61078488D01*
X205757322Y-61136084D01*
X205882626Y-61155930D01*
X206007930Y-61136084D01*
X206120968Y-61078488D01*
X206210676Y-60988780D01*
X206268272Y-60875742D01*
X206288118Y-60750438D01*
X206268272Y-60625134D01*
X206210676Y-60512096D01*
X206120968Y-60422388D01*
X206007930Y-60364792D01*
X206007928Y-60364791D01*
X206007927Y-60364791D01*
X205882626Y-60344946D01*
X205757324Y-60364791D01*
X205644282Y-60422389D01*
X205554577Y-60512094D01*
X205496979Y-60625136D01*
X205477134Y-60750438D01*
X186000500Y-60750438D01*
X186000500Y-59249560D01*
X217003064Y-59249560D01*
X217022909Y-59374861D01*
X217022909Y-59374862D01*
X217022910Y-59374864D01*
X217080506Y-59487902D01*
X217170214Y-59577610D01*
X217283252Y-59635206D01*
X217408556Y-59655052D01*
X217533860Y-59635206D01*
X217646898Y-59577610D01*
X217736606Y-59487902D01*
X217794202Y-59374864D01*
X217814048Y-59249560D01*
X217794202Y-59124256D01*
X217736606Y-59011218D01*
X217646898Y-58921510D01*
X217533860Y-58863914D01*
X217533858Y-58863913D01*
X217533857Y-58863913D01*
X217408556Y-58844068D01*
X217283254Y-58863913D01*
X217170212Y-58921511D01*
X217080507Y-59011216D01*
X217022909Y-59124258D01*
X217003064Y-59249560D01*
X186000500Y-59249560D01*
X186000500Y-58749859D01*
X205477133Y-58749859D01*
X205496978Y-58875160D01*
X205496978Y-58875161D01*
X205496979Y-58875163D01*
X205554575Y-58988201D01*
X205644283Y-59077909D01*
X205757321Y-59135505D01*
X205882625Y-59155351D01*
X206007929Y-59135505D01*
X206120967Y-59077909D01*
X206210675Y-58988201D01*
X206268271Y-58875163D01*
X206288117Y-58749859D01*
X206268271Y-58624555D01*
X206210675Y-58511517D01*
X206120967Y-58421809D01*
X206007929Y-58364213D01*
X206007927Y-58364212D01*
X206007926Y-58364212D01*
X205882625Y-58344367D01*
X205757323Y-58364212D01*
X205644281Y-58421810D01*
X205554576Y-58511515D01*
X205496978Y-58624557D01*
X205477133Y-58749859D01*
X186000500Y-58749859D01*
X186000500Y-57245910D01*
X217008354Y-57245910D01*
X217028199Y-57371211D01*
X217028199Y-57371212D01*
X217028200Y-57371214D01*
X217085796Y-57484252D01*
X217175504Y-57573960D01*
X217288542Y-57631556D01*
X217413846Y-57651402D01*
X217539150Y-57631556D01*
X217652188Y-57573960D01*
X217741896Y-57484252D01*
X217799492Y-57371214D01*
X217819338Y-57245910D01*
X217799492Y-57120606D01*
X217741896Y-57007568D01*
X217652188Y-56917860D01*
X217539150Y-56860264D01*
X217539148Y-56860263D01*
X217539147Y-56860263D01*
X217413846Y-56840418D01*
X217288544Y-56860263D01*
X217175502Y-56917861D01*
X217085797Y-57007566D01*
X217028199Y-57120608D01*
X217008354Y-57245910D01*
X186000500Y-57245910D01*
X186000500Y-56749862D01*
X205477138Y-56749862D01*
X205496983Y-56875163D01*
X205496983Y-56875164D01*
X205496984Y-56875166D01*
X205554580Y-56988204D01*
X205644288Y-57077912D01*
X205757326Y-57135508D01*
X205882630Y-57155354D01*
X206007934Y-57135508D01*
X206120972Y-57077912D01*
X206210680Y-56988204D01*
X206268276Y-56875166D01*
X206288122Y-56749862D01*
X206268276Y-56624558D01*
X206210680Y-56511520D01*
X206120972Y-56421812D01*
X206007934Y-56364216D01*
X206007932Y-56364215D01*
X206007931Y-56364215D01*
X205882630Y-56344370D01*
X205757328Y-56364215D01*
X205644286Y-56421813D01*
X205554581Y-56511518D01*
X205496983Y-56624560D01*
X205477138Y-56749862D01*
X186000500Y-56749862D01*
X186000500Y-55250456D01*
X217012951Y-55250456D01*
X217032796Y-55375757D01*
X217032796Y-55375758D01*
X217032797Y-55375760D01*
X217090393Y-55488798D01*
X217180101Y-55578506D01*
X217293139Y-55636102D01*
X217418443Y-55655948D01*
X217543747Y-55636102D01*
X217656785Y-55578506D01*
X217746493Y-55488798D01*
X217804089Y-55375760D01*
X217823935Y-55250456D01*
X217804089Y-55125152D01*
X217746493Y-55012114D01*
X217656785Y-54922406D01*
X217543747Y-54864810D01*
X217543745Y-54864809D01*
X217543744Y-54864809D01*
X217418443Y-54844964D01*
X217293141Y-54864809D01*
X217180099Y-54922407D01*
X217090394Y-55012112D01*
X217032796Y-55125154D01*
X217012951Y-55250456D01*
X186000500Y-55250456D01*
X186000500Y-54750438D01*
X205477135Y-54750438D01*
X205496980Y-54875739D01*
X205496980Y-54875740D01*
X205496981Y-54875742D01*
X205554577Y-54988780D01*
X205644285Y-55078488D01*
X205757323Y-55136084D01*
X205882627Y-55155930D01*
X206007931Y-55136084D01*
X206120969Y-55078488D01*
X206210677Y-54988780D01*
X206268273Y-54875742D01*
X206288119Y-54750438D01*
X206268273Y-54625134D01*
X206210677Y-54512096D01*
X206120969Y-54422388D01*
X206007931Y-54364792D01*
X206007929Y-54364791D01*
X206007928Y-54364791D01*
X205882627Y-54344946D01*
X205757325Y-54364791D01*
X205644283Y-54422389D01*
X205554578Y-54512094D01*
X205496980Y-54625136D01*
X205477135Y-54750438D01*
X186000500Y-54750438D01*
X186000500Y-53250000D01*
X219394508Y-53250000D01*
X219414353Y-53375301D01*
X219414353Y-53375302D01*
X219414354Y-53375304D01*
X219471950Y-53488342D01*
X219561658Y-53578050D01*
X219674696Y-53635646D01*
X219800000Y-53655492D01*
X219925304Y-53635646D01*
X220038342Y-53578050D01*
X220128050Y-53488342D01*
X220185646Y-53375304D01*
X220205492Y-53250000D01*
X220185646Y-53124696D01*
X220128050Y-53011658D01*
X220038342Y-52921950D01*
X219925304Y-52864354D01*
X219925302Y-52864353D01*
X219925301Y-52864353D01*
X219800000Y-52844508D01*
X219674698Y-52864353D01*
X219561656Y-52921951D01*
X219471951Y-53011656D01*
X219414353Y-53124698D01*
X219394508Y-53250000D01*
X186000500Y-53250000D01*
X186000500Y-52002636D01*
X186000689Y-51997357D01*
X186015385Y-51791882D01*
X186016887Y-51781432D01*
X186016994Y-51780937D01*
X186060118Y-51582699D01*
X186063084Y-51572596D01*
X186134163Y-51382028D01*
X186138538Y-51372449D01*
X186236004Y-51193953D01*
X186241705Y-51185080D01*
X186363589Y-51022263D01*
X186370489Y-51014300D01*
X186514300Y-50870489D01*
X186522263Y-50863589D01*
X186685080Y-50741705D01*
X186693953Y-50736004D01*
X186872449Y-50638538D01*
X186882028Y-50634163D01*
X187072596Y-50563084D01*
X187082699Y-50560118D01*
X187281432Y-50516887D01*
X187291879Y-50515385D01*
X187497357Y-50500688D01*
X187502636Y-50500500D01*
X187565892Y-50500500D01*
X231434108Y-50500500D01*
X231497364Y-50500500D01*
X231502642Y-50500688D01*
G37*
%TD.AperFunction*%
%TD*%
M02*
