%TF.GenerationSoftware,KiCad,Pcbnew,8.0.1*%
%TF.CreationDate,2026-01-16T21:35:52-05:00*%
%TF.ProjectId,Main Mezzanine Backplane,4d61696e-204d-4657-9a7a-616e696e6520,rev?*%
%TF.SameCoordinates,Original*%
%TF.FileFunction,Legend,Bot*%
%TF.FilePolarity,Positive*%
%FSLAX46Y46*%
G04 Gerber Fmt 4.6, Leading zero omitted, Abs format (unit mm)*
G04 Created by KiCad (PCBNEW 8.0.1) date 2026-01-16 21:35:52*
%MOMM*%
%LPD*%
G01*
G04 APERTURE LIST*
%ADD10C,0.500000*%
%ADD11C,0.350000*%
%ADD12C,0.150000*%
%ADD13C,0.100000*%
%ADD14C,0.152400*%
%ADD15C,0.010000*%
%ADD16C,0.800000*%
G04 APERTURE END LIST*
D10*
X209300000Y-79450000D02*
X207550000Y-81200000D01*
X209300000Y-83700000D02*
X209300000Y-79450000D01*
X211052588Y-81197746D02*
X209302588Y-79447746D01*
D11*
X228841165Y-108864657D02*
X229841165Y-107436085D01*
X230555451Y-108864657D02*
X230555451Y-105864657D01*
X230555451Y-105864657D02*
X229412594Y-105864657D01*
X229412594Y-105864657D02*
X229126879Y-106007514D01*
X229126879Y-106007514D02*
X228984022Y-106150371D01*
X228984022Y-106150371D02*
X228841165Y-106436085D01*
X228841165Y-106436085D02*
X228841165Y-106864657D01*
X228841165Y-106864657D02*
X228984022Y-107150371D01*
X228984022Y-107150371D02*
X229126879Y-107293228D01*
X229126879Y-107293228D02*
X229412594Y-107436085D01*
X229412594Y-107436085D02*
X230555451Y-107436085D01*
X227555451Y-108864657D02*
X227555451Y-105864657D01*
X224555451Y-106007514D02*
X224841166Y-105864657D01*
X224841166Y-105864657D02*
X225269737Y-105864657D01*
X225269737Y-105864657D02*
X225698308Y-106007514D01*
X225698308Y-106007514D02*
X225984023Y-106293228D01*
X225984023Y-106293228D02*
X226126880Y-106578942D01*
X226126880Y-106578942D02*
X226269737Y-107150371D01*
X226269737Y-107150371D02*
X226269737Y-107578942D01*
X226269737Y-107578942D02*
X226126880Y-108150371D01*
X226126880Y-108150371D02*
X225984023Y-108436085D01*
X225984023Y-108436085D02*
X225698308Y-108721800D01*
X225698308Y-108721800D02*
X225269737Y-108864657D01*
X225269737Y-108864657D02*
X224984023Y-108864657D01*
X224984023Y-108864657D02*
X224555451Y-108721800D01*
X224555451Y-108721800D02*
X224412594Y-108578942D01*
X224412594Y-108578942D02*
X224412594Y-107578942D01*
X224412594Y-107578942D02*
X224984023Y-107578942D01*
X223126880Y-108864657D02*
X223126880Y-105864657D01*
X223126880Y-107293228D02*
X221412594Y-107293228D01*
X221412594Y-108864657D02*
X221412594Y-105864657D01*
X220412594Y-105864657D02*
X218698309Y-105864657D01*
X219555451Y-108864657D02*
X219555451Y-105864657D01*
D12*
X216161904Y-107712256D02*
X216019047Y-107759875D01*
X216019047Y-107759875D02*
X215780952Y-107759875D01*
X215780952Y-107759875D02*
X215685714Y-107712256D01*
X215685714Y-107712256D02*
X215638095Y-107664636D01*
X215638095Y-107664636D02*
X215590476Y-107569398D01*
X215590476Y-107569398D02*
X215590476Y-107474160D01*
X215590476Y-107474160D02*
X215638095Y-107378922D01*
X215638095Y-107378922D02*
X215685714Y-107331303D01*
X215685714Y-107331303D02*
X215780952Y-107283684D01*
X215780952Y-107283684D02*
X215971428Y-107236065D01*
X215971428Y-107236065D02*
X216066666Y-107188446D01*
X216066666Y-107188446D02*
X216114285Y-107140827D01*
X216114285Y-107140827D02*
X216161904Y-107045589D01*
X216161904Y-107045589D02*
X216161904Y-106950351D01*
X216161904Y-106950351D02*
X216114285Y-106855113D01*
X216114285Y-106855113D02*
X216066666Y-106807494D01*
X216066666Y-106807494D02*
X215971428Y-106759875D01*
X215971428Y-106759875D02*
X215733333Y-106759875D01*
X215733333Y-106759875D02*
X215590476Y-106807494D01*
X215304761Y-106759875D02*
X214733333Y-106759875D01*
X215019047Y-107759875D02*
X215019047Y-106759875D01*
X214447618Y-107474160D02*
X213971428Y-107474160D01*
X214542856Y-107759875D02*
X214209523Y-106759875D01*
X214209523Y-106759875D02*
X213876190Y-107759875D01*
X213685713Y-106759875D02*
X213114285Y-106759875D01*
X213399999Y-107759875D02*
X213399999Y-106759875D01*
X212780951Y-107759875D02*
X212780951Y-106759875D01*
X211733333Y-107664636D02*
X211780952Y-107712256D01*
X211780952Y-107712256D02*
X211923809Y-107759875D01*
X211923809Y-107759875D02*
X212019047Y-107759875D01*
X212019047Y-107759875D02*
X212161904Y-107712256D01*
X212161904Y-107712256D02*
X212257142Y-107617017D01*
X212257142Y-107617017D02*
X212304761Y-107521779D01*
X212304761Y-107521779D02*
X212352380Y-107331303D01*
X212352380Y-107331303D02*
X212352380Y-107188446D01*
X212352380Y-107188446D02*
X212304761Y-106997970D01*
X212304761Y-106997970D02*
X212257142Y-106902732D01*
X212257142Y-106902732D02*
X212161904Y-106807494D01*
X212161904Y-106807494D02*
X212019047Y-106759875D01*
X212019047Y-106759875D02*
X211923809Y-106759875D01*
X211923809Y-106759875D02*
X211780952Y-106807494D01*
X211780952Y-106807494D02*
X211733333Y-106855113D01*
X210590475Y-107712256D02*
X210447618Y-107759875D01*
X210447618Y-107759875D02*
X210209523Y-107759875D01*
X210209523Y-107759875D02*
X210114285Y-107712256D01*
X210114285Y-107712256D02*
X210066666Y-107664636D01*
X210066666Y-107664636D02*
X210019047Y-107569398D01*
X210019047Y-107569398D02*
X210019047Y-107474160D01*
X210019047Y-107474160D02*
X210066666Y-107378922D01*
X210066666Y-107378922D02*
X210114285Y-107331303D01*
X210114285Y-107331303D02*
X210209523Y-107283684D01*
X210209523Y-107283684D02*
X210399999Y-107236065D01*
X210399999Y-107236065D02*
X210495237Y-107188446D01*
X210495237Y-107188446D02*
X210542856Y-107140827D01*
X210542856Y-107140827D02*
X210590475Y-107045589D01*
X210590475Y-107045589D02*
X210590475Y-106950351D01*
X210590475Y-106950351D02*
X210542856Y-106855113D01*
X210542856Y-106855113D02*
X210495237Y-106807494D01*
X210495237Y-106807494D02*
X210399999Y-106759875D01*
X210399999Y-106759875D02*
X210161904Y-106759875D01*
X210161904Y-106759875D02*
X210019047Y-106807494D01*
X209590475Y-107236065D02*
X209257142Y-107236065D01*
X209114285Y-107759875D02*
X209590475Y-107759875D01*
X209590475Y-107759875D02*
X209590475Y-106759875D01*
X209590475Y-106759875D02*
X209114285Y-106759875D01*
X208685713Y-107759875D02*
X208685713Y-106759875D01*
X208685713Y-106759875D02*
X208114285Y-107759875D01*
X208114285Y-107759875D02*
X208114285Y-106759875D01*
X207685713Y-107712256D02*
X207542856Y-107759875D01*
X207542856Y-107759875D02*
X207304761Y-107759875D01*
X207304761Y-107759875D02*
X207209523Y-107712256D01*
X207209523Y-107712256D02*
X207161904Y-107664636D01*
X207161904Y-107664636D02*
X207114285Y-107569398D01*
X207114285Y-107569398D02*
X207114285Y-107474160D01*
X207114285Y-107474160D02*
X207161904Y-107378922D01*
X207161904Y-107378922D02*
X207209523Y-107331303D01*
X207209523Y-107331303D02*
X207304761Y-107283684D01*
X207304761Y-107283684D02*
X207495237Y-107236065D01*
X207495237Y-107236065D02*
X207590475Y-107188446D01*
X207590475Y-107188446D02*
X207638094Y-107140827D01*
X207638094Y-107140827D02*
X207685713Y-107045589D01*
X207685713Y-107045589D02*
X207685713Y-106950351D01*
X207685713Y-106950351D02*
X207638094Y-106855113D01*
X207638094Y-106855113D02*
X207590475Y-106807494D01*
X207590475Y-106807494D02*
X207495237Y-106759875D01*
X207495237Y-106759875D02*
X207257142Y-106759875D01*
X207257142Y-106759875D02*
X207114285Y-106807494D01*
X206685713Y-107759875D02*
X206685713Y-106759875D01*
X206352380Y-106759875D02*
X205780952Y-106759875D01*
X206066666Y-107759875D02*
X206066666Y-106759875D01*
X205447618Y-107759875D02*
X205447618Y-106759875D01*
X205114285Y-106759875D02*
X204780952Y-107759875D01*
X204780952Y-107759875D02*
X204447619Y-106759875D01*
X204114285Y-107236065D02*
X203780952Y-107236065D01*
X203638095Y-107759875D02*
X204114285Y-107759875D01*
X204114285Y-107759875D02*
X204114285Y-106759875D01*
X204114285Y-106759875D02*
X203638095Y-106759875D01*
X212947618Y-109369819D02*
X212947618Y-108369819D01*
X212947618Y-108369819D02*
X212709523Y-108369819D01*
X212709523Y-108369819D02*
X212566666Y-108417438D01*
X212566666Y-108417438D02*
X212471428Y-108512676D01*
X212471428Y-108512676D02*
X212423809Y-108607914D01*
X212423809Y-108607914D02*
X212376190Y-108798390D01*
X212376190Y-108798390D02*
X212376190Y-108941247D01*
X212376190Y-108941247D02*
X212423809Y-109131723D01*
X212423809Y-109131723D02*
X212471428Y-109226961D01*
X212471428Y-109226961D02*
X212566666Y-109322200D01*
X212566666Y-109322200D02*
X212709523Y-109369819D01*
X212709523Y-109369819D02*
X212947618Y-109369819D01*
X211947618Y-108846009D02*
X211614285Y-108846009D01*
X211471428Y-109369819D02*
X211947618Y-109369819D01*
X211947618Y-109369819D02*
X211947618Y-108369819D01*
X211947618Y-108369819D02*
X211471428Y-108369819D01*
X211185713Y-108369819D02*
X210852380Y-109369819D01*
X210852380Y-109369819D02*
X210519047Y-108369819D01*
X210185713Y-109369819D02*
X210185713Y-108369819D01*
X209138095Y-109274580D02*
X209185714Y-109322200D01*
X209185714Y-109322200D02*
X209328571Y-109369819D01*
X209328571Y-109369819D02*
X209423809Y-109369819D01*
X209423809Y-109369819D02*
X209566666Y-109322200D01*
X209566666Y-109322200D02*
X209661904Y-109226961D01*
X209661904Y-109226961D02*
X209709523Y-109131723D01*
X209709523Y-109131723D02*
X209757142Y-108941247D01*
X209757142Y-108941247D02*
X209757142Y-108798390D01*
X209757142Y-108798390D02*
X209709523Y-108607914D01*
X209709523Y-108607914D02*
X209661904Y-108512676D01*
X209661904Y-108512676D02*
X209566666Y-108417438D01*
X209566666Y-108417438D02*
X209423809Y-108369819D01*
X209423809Y-108369819D02*
X209328571Y-108369819D01*
X209328571Y-108369819D02*
X209185714Y-108417438D01*
X209185714Y-108417438D02*
X209138095Y-108465057D01*
X208709523Y-108846009D02*
X208376190Y-108846009D01*
X208233333Y-109369819D02*
X208709523Y-109369819D01*
X208709523Y-109369819D02*
X208709523Y-108369819D01*
X208709523Y-108369819D02*
X208233333Y-108369819D01*
X207852380Y-109322200D02*
X207709523Y-109369819D01*
X207709523Y-109369819D02*
X207471428Y-109369819D01*
X207471428Y-109369819D02*
X207376190Y-109322200D01*
X207376190Y-109322200D02*
X207328571Y-109274580D01*
X207328571Y-109274580D02*
X207280952Y-109179342D01*
X207280952Y-109179342D02*
X207280952Y-109084104D01*
X207280952Y-109084104D02*
X207328571Y-108988866D01*
X207328571Y-108988866D02*
X207376190Y-108941247D01*
X207376190Y-108941247D02*
X207471428Y-108893628D01*
X207471428Y-108893628D02*
X207661904Y-108846009D01*
X207661904Y-108846009D02*
X207757142Y-108798390D01*
X207757142Y-108798390D02*
X207804761Y-108750771D01*
X207804761Y-108750771D02*
X207852380Y-108655533D01*
X207852380Y-108655533D02*
X207852380Y-108560295D01*
X207852380Y-108560295D02*
X207804761Y-108465057D01*
X207804761Y-108465057D02*
X207757142Y-108417438D01*
X207757142Y-108417438D02*
X207661904Y-108369819D01*
X207661904Y-108369819D02*
X207423809Y-108369819D01*
X207423809Y-108369819D02*
X207280952Y-108417438D01*
X206852380Y-109274580D02*
X206804761Y-109322200D01*
X206804761Y-109322200D02*
X206852380Y-109369819D01*
X206852380Y-109369819D02*
X206899999Y-109322200D01*
X206899999Y-109322200D02*
X206852380Y-109274580D01*
X206852380Y-109274580D02*
X206852380Y-109369819D01*
X206852380Y-108988866D02*
X206899999Y-108417438D01*
X206899999Y-108417438D02*
X206852380Y-108369819D01*
X206852380Y-108369819D02*
X206804761Y-108417438D01*
X206804761Y-108417438D02*
X206852380Y-108988866D01*
X206852380Y-108988866D02*
X206852380Y-108369819D01*
D11*
X196876879Y-108114657D02*
X198305451Y-108114657D01*
X198305451Y-108114657D02*
X198305451Y-105114657D01*
X195876880Y-106543228D02*
X194876880Y-106543228D01*
X194448308Y-108114657D02*
X195876880Y-108114657D01*
X195876880Y-108114657D02*
X195876880Y-105114657D01*
X195876880Y-105114657D02*
X194448308Y-105114657D01*
X192162594Y-106543228D02*
X193162594Y-106543228D01*
X193162594Y-108114657D02*
X193162594Y-105114657D01*
X193162594Y-105114657D02*
X191734022Y-105114657D01*
X191019736Y-105114657D02*
X189305451Y-105114657D01*
X190162593Y-108114657D02*
X190162593Y-105114657D01*
X223869048Y-114017150D02*
X223869048Y-112017150D01*
X223869048Y-112017150D02*
X223107143Y-112017150D01*
X223107143Y-112017150D02*
X222916667Y-112112388D01*
X222916667Y-112112388D02*
X222821429Y-112207626D01*
X222821429Y-112207626D02*
X222726191Y-112398102D01*
X222726191Y-112398102D02*
X222726191Y-112683816D01*
X222726191Y-112683816D02*
X222821429Y-112874292D01*
X222821429Y-112874292D02*
X222916667Y-112969531D01*
X222916667Y-112969531D02*
X223107143Y-113064769D01*
X223107143Y-113064769D02*
X223869048Y-113064769D01*
X221488096Y-112017150D02*
X221107143Y-112017150D01*
X221107143Y-112017150D02*
X220916667Y-112112388D01*
X220916667Y-112112388D02*
X220726191Y-112302864D01*
X220726191Y-112302864D02*
X220630953Y-112683816D01*
X220630953Y-112683816D02*
X220630953Y-113350483D01*
X220630953Y-113350483D02*
X220726191Y-113731435D01*
X220726191Y-113731435D02*
X220916667Y-113921912D01*
X220916667Y-113921912D02*
X221107143Y-114017150D01*
X221107143Y-114017150D02*
X221488096Y-114017150D01*
X221488096Y-114017150D02*
X221678572Y-113921912D01*
X221678572Y-113921912D02*
X221869048Y-113731435D01*
X221869048Y-113731435D02*
X221964286Y-113350483D01*
X221964286Y-113350483D02*
X221964286Y-112683816D01*
X221964286Y-112683816D02*
X221869048Y-112302864D01*
X221869048Y-112302864D02*
X221678572Y-112112388D01*
X221678572Y-112112388D02*
X221488096Y-112017150D01*
X219964286Y-112017150D02*
X219488096Y-114017150D01*
X219488096Y-114017150D02*
X219107143Y-112588578D01*
X219107143Y-112588578D02*
X218726191Y-114017150D01*
X218726191Y-114017150D02*
X218250001Y-112017150D01*
X217488096Y-112969531D02*
X216821429Y-112969531D01*
X216535715Y-114017150D02*
X217488096Y-114017150D01*
X217488096Y-114017150D02*
X217488096Y-112017150D01*
X217488096Y-112017150D02*
X216535715Y-112017150D01*
X214535715Y-114017150D02*
X215202382Y-113064769D01*
X215678572Y-114017150D02*
X215678572Y-112017150D01*
X215678572Y-112017150D02*
X214916667Y-112017150D01*
X214916667Y-112017150D02*
X214726191Y-112112388D01*
X214726191Y-112112388D02*
X214630953Y-112207626D01*
X214630953Y-112207626D02*
X214535715Y-112398102D01*
X214535715Y-112398102D02*
X214535715Y-112683816D01*
X214535715Y-112683816D02*
X214630953Y-112874292D01*
X214630953Y-112874292D02*
X214726191Y-112969531D01*
X214726191Y-112969531D02*
X214916667Y-113064769D01*
X214916667Y-113064769D02*
X215678572Y-113064769D01*
X211773810Y-112017150D02*
X211392857Y-112017150D01*
X211392857Y-112017150D02*
X211202381Y-112112388D01*
X211202381Y-112112388D02*
X211011905Y-112302864D01*
X211011905Y-112302864D02*
X210916667Y-112683816D01*
X210916667Y-112683816D02*
X210916667Y-113350483D01*
X210916667Y-113350483D02*
X211011905Y-113731435D01*
X211011905Y-113731435D02*
X211202381Y-113921912D01*
X211202381Y-113921912D02*
X211392857Y-114017150D01*
X211392857Y-114017150D02*
X211773810Y-114017150D01*
X211773810Y-114017150D02*
X211964286Y-113921912D01*
X211964286Y-113921912D02*
X212154762Y-113731435D01*
X212154762Y-113731435D02*
X212250000Y-113350483D01*
X212250000Y-113350483D02*
X212250000Y-112683816D01*
X212250000Y-112683816D02*
X212154762Y-112302864D01*
X212154762Y-112302864D02*
X211964286Y-112112388D01*
X211964286Y-112112388D02*
X211773810Y-112017150D01*
X209392857Y-112969531D02*
X210059524Y-112969531D01*
X210059524Y-114017150D02*
X210059524Y-112017150D01*
X210059524Y-112017150D02*
X209107143Y-112017150D01*
X207678571Y-112969531D02*
X208345238Y-112969531D01*
X208345238Y-114017150D02*
X208345238Y-112017150D01*
X208345238Y-112017150D02*
X207392857Y-112017150D01*
X204440475Y-112969531D02*
X204154761Y-113064769D01*
X204154761Y-113064769D02*
X204059523Y-113160007D01*
X204059523Y-113160007D02*
X203964285Y-113350483D01*
X203964285Y-113350483D02*
X203964285Y-113636197D01*
X203964285Y-113636197D02*
X204059523Y-113826673D01*
X204059523Y-113826673D02*
X204154761Y-113921912D01*
X204154761Y-113921912D02*
X204345237Y-114017150D01*
X204345237Y-114017150D02*
X205107142Y-114017150D01*
X205107142Y-114017150D02*
X205107142Y-112017150D01*
X205107142Y-112017150D02*
X204440475Y-112017150D01*
X204440475Y-112017150D02*
X204249999Y-112112388D01*
X204249999Y-112112388D02*
X204154761Y-112207626D01*
X204154761Y-112207626D02*
X204059523Y-112398102D01*
X204059523Y-112398102D02*
X204059523Y-112588578D01*
X204059523Y-112588578D02*
X204154761Y-112779054D01*
X204154761Y-112779054D02*
X204249999Y-112874292D01*
X204249999Y-112874292D02*
X204440475Y-112969531D01*
X204440475Y-112969531D02*
X205107142Y-112969531D01*
X203107142Y-112969531D02*
X202440475Y-112969531D01*
X202154761Y-114017150D02*
X203107142Y-114017150D01*
X203107142Y-114017150D02*
X203107142Y-112017150D01*
X203107142Y-112017150D02*
X202154761Y-112017150D01*
X200630951Y-112969531D02*
X201297618Y-112969531D01*
X201297618Y-114017150D02*
X201297618Y-112017150D01*
X201297618Y-112017150D02*
X200345237Y-112017150D01*
X199202380Y-112017150D02*
X198821427Y-112017150D01*
X198821427Y-112017150D02*
X198630951Y-112112388D01*
X198630951Y-112112388D02*
X198440475Y-112302864D01*
X198440475Y-112302864D02*
X198345237Y-112683816D01*
X198345237Y-112683816D02*
X198345237Y-113350483D01*
X198345237Y-113350483D02*
X198440475Y-113731435D01*
X198440475Y-113731435D02*
X198630951Y-113921912D01*
X198630951Y-113921912D02*
X198821427Y-114017150D01*
X198821427Y-114017150D02*
X199202380Y-114017150D01*
X199202380Y-114017150D02*
X199392856Y-113921912D01*
X199392856Y-113921912D02*
X199583332Y-113731435D01*
X199583332Y-113731435D02*
X199678570Y-113350483D01*
X199678570Y-113350483D02*
X199678570Y-112683816D01*
X199678570Y-112683816D02*
X199583332Y-112302864D01*
X199583332Y-112302864D02*
X199392856Y-112112388D01*
X199392856Y-112112388D02*
X199202380Y-112017150D01*
X196345237Y-114017150D02*
X197011904Y-113064769D01*
X197488094Y-114017150D02*
X197488094Y-112017150D01*
X197488094Y-112017150D02*
X196726189Y-112017150D01*
X196726189Y-112017150D02*
X196535713Y-112112388D01*
X196535713Y-112112388D02*
X196440475Y-112207626D01*
X196440475Y-112207626D02*
X196345237Y-112398102D01*
X196345237Y-112398102D02*
X196345237Y-112683816D01*
X196345237Y-112683816D02*
X196440475Y-112874292D01*
X196440475Y-112874292D02*
X196535713Y-112969531D01*
X196535713Y-112969531D02*
X196726189Y-113064769D01*
X196726189Y-113064769D02*
X197488094Y-113064769D01*
X195488094Y-112969531D02*
X194821427Y-112969531D01*
X194535713Y-114017150D02*
X195488094Y-114017150D01*
X195488094Y-114017150D02*
X195488094Y-112017150D01*
X195488094Y-112017150D02*
X194535713Y-112017150D01*
X217059523Y-117141800D02*
X216773809Y-117237038D01*
X216773809Y-117237038D02*
X216297618Y-117237038D01*
X216297618Y-117237038D02*
X216107142Y-117141800D01*
X216107142Y-117141800D02*
X216011904Y-117046561D01*
X216011904Y-117046561D02*
X215916666Y-116856085D01*
X215916666Y-116856085D02*
X215916666Y-116665609D01*
X215916666Y-116665609D02*
X216011904Y-116475133D01*
X216011904Y-116475133D02*
X216107142Y-116379895D01*
X216107142Y-116379895D02*
X216297618Y-116284657D01*
X216297618Y-116284657D02*
X216678571Y-116189419D01*
X216678571Y-116189419D02*
X216869047Y-116094180D01*
X216869047Y-116094180D02*
X216964285Y-115998942D01*
X216964285Y-115998942D02*
X217059523Y-115808466D01*
X217059523Y-115808466D02*
X217059523Y-115617990D01*
X217059523Y-115617990D02*
X216964285Y-115427514D01*
X216964285Y-115427514D02*
X216869047Y-115332276D01*
X216869047Y-115332276D02*
X216678571Y-115237038D01*
X216678571Y-115237038D02*
X216202380Y-115237038D01*
X216202380Y-115237038D02*
X215916666Y-115332276D01*
X215059523Y-116189419D02*
X214392856Y-116189419D01*
X214107142Y-117237038D02*
X215059523Y-117237038D01*
X215059523Y-117237038D02*
X215059523Y-115237038D01*
X215059523Y-115237038D02*
X214107142Y-115237038D01*
X212107142Y-117237038D02*
X212773809Y-116284657D01*
X213249999Y-117237038D02*
X213249999Y-115237038D01*
X213249999Y-115237038D02*
X212488094Y-115237038D01*
X212488094Y-115237038D02*
X212297618Y-115332276D01*
X212297618Y-115332276D02*
X212202380Y-115427514D01*
X212202380Y-115427514D02*
X212107142Y-115617990D01*
X212107142Y-115617990D02*
X212107142Y-115903704D01*
X212107142Y-115903704D02*
X212202380Y-116094180D01*
X212202380Y-116094180D02*
X212297618Y-116189419D01*
X212297618Y-116189419D02*
X212488094Y-116284657D01*
X212488094Y-116284657D02*
X213249999Y-116284657D01*
X211535713Y-115237038D02*
X210869047Y-117237038D01*
X210869047Y-117237038D02*
X210202380Y-115237038D01*
X209535713Y-117237038D02*
X209535713Y-115237038D01*
X207440475Y-117046561D02*
X207535713Y-117141800D01*
X207535713Y-117141800D02*
X207821427Y-117237038D01*
X207821427Y-117237038D02*
X208011903Y-117237038D01*
X208011903Y-117237038D02*
X208297618Y-117141800D01*
X208297618Y-117141800D02*
X208488094Y-116951323D01*
X208488094Y-116951323D02*
X208583332Y-116760847D01*
X208583332Y-116760847D02*
X208678570Y-116379895D01*
X208678570Y-116379895D02*
X208678570Y-116094180D01*
X208678570Y-116094180D02*
X208583332Y-115713228D01*
X208583332Y-115713228D02*
X208488094Y-115522752D01*
X208488094Y-115522752D02*
X208297618Y-115332276D01*
X208297618Y-115332276D02*
X208011903Y-115237038D01*
X208011903Y-115237038D02*
X207821427Y-115237038D01*
X207821427Y-115237038D02*
X207535713Y-115332276D01*
X207535713Y-115332276D02*
X207440475Y-115427514D01*
X206583332Y-117237038D02*
X206583332Y-115237038D01*
X205630951Y-117237038D02*
X205630951Y-115237038D01*
X205630951Y-115237038D02*
X204488094Y-117237038D01*
X204488094Y-117237038D02*
X204488094Y-115237038D01*
X202488094Y-115332276D02*
X202678570Y-115237038D01*
X202678570Y-115237038D02*
X202964284Y-115237038D01*
X202964284Y-115237038D02*
X203249999Y-115332276D01*
X203249999Y-115332276D02*
X203440475Y-115522752D01*
X203440475Y-115522752D02*
X203535713Y-115713228D01*
X203535713Y-115713228D02*
X203630951Y-116094180D01*
X203630951Y-116094180D02*
X203630951Y-116379895D01*
X203630951Y-116379895D02*
X203535713Y-116760847D01*
X203535713Y-116760847D02*
X203440475Y-116951323D01*
X203440475Y-116951323D02*
X203249999Y-117141800D01*
X203249999Y-117141800D02*
X202964284Y-117237038D01*
X202964284Y-117237038D02*
X202773808Y-117237038D01*
X202773808Y-117237038D02*
X202488094Y-117141800D01*
X202488094Y-117141800D02*
X202392856Y-117046561D01*
X202392856Y-117046561D02*
X202392856Y-116379895D01*
X202392856Y-116379895D02*
X202773808Y-116379895D01*
X201535713Y-117046561D02*
X201440475Y-117141800D01*
X201440475Y-117141800D02*
X201535713Y-117237038D01*
X201535713Y-117237038D02*
X201630951Y-117141800D01*
X201630951Y-117141800D02*
X201535713Y-117046561D01*
X201535713Y-117046561D02*
X201535713Y-117237038D01*
X201535713Y-116475133D02*
X201630951Y-115332276D01*
X201630951Y-115332276D02*
X201535713Y-115237038D01*
X201535713Y-115237038D02*
X201440475Y-115332276D01*
X201440475Y-115332276D02*
X201535713Y-116475133D01*
X201535713Y-116475133D02*
X201535713Y-115237038D01*
D10*
X211506767Y-84806857D02*
X211506767Y-87235428D01*
X211506767Y-87235428D02*
X211363910Y-87521142D01*
X211363910Y-87521142D02*
X211221053Y-87664000D01*
X211221053Y-87664000D02*
X210935338Y-87806857D01*
X210935338Y-87806857D02*
X210363910Y-87806857D01*
X210363910Y-87806857D02*
X210078195Y-87664000D01*
X210078195Y-87664000D02*
X209935338Y-87521142D01*
X209935338Y-87521142D02*
X209792481Y-87235428D01*
X209792481Y-87235428D02*
X209792481Y-84806857D01*
X208363910Y-87806857D02*
X208363910Y-84806857D01*
X208363910Y-84806857D02*
X207221053Y-84806857D01*
X207221053Y-84806857D02*
X206935338Y-84949714D01*
X206935338Y-84949714D02*
X206792481Y-85092571D01*
X206792481Y-85092571D02*
X206649624Y-85378285D01*
X206649624Y-85378285D02*
X206649624Y-85806857D01*
X206649624Y-85806857D02*
X206792481Y-86092571D01*
X206792481Y-86092571D02*
X206935338Y-86235428D01*
X206935338Y-86235428D02*
X207221053Y-86378285D01*
X207221053Y-86378285D02*
X208363910Y-86378285D01*
D12*
X202411904Y-76704819D02*
X202411904Y-77514342D01*
X202411904Y-77514342D02*
X202364285Y-77609580D01*
X202364285Y-77609580D02*
X202316666Y-77657200D01*
X202316666Y-77657200D02*
X202221428Y-77704819D01*
X202221428Y-77704819D02*
X202030952Y-77704819D01*
X202030952Y-77704819D02*
X201935714Y-77657200D01*
X201935714Y-77657200D02*
X201888095Y-77609580D01*
X201888095Y-77609580D02*
X201840476Y-77514342D01*
X201840476Y-77514342D02*
X201840476Y-76704819D01*
X201221428Y-77133390D02*
X201316666Y-77085771D01*
X201316666Y-77085771D02*
X201364285Y-77038152D01*
X201364285Y-77038152D02*
X201411904Y-76942914D01*
X201411904Y-76942914D02*
X201411904Y-76895295D01*
X201411904Y-76895295D02*
X201364285Y-76800057D01*
X201364285Y-76800057D02*
X201316666Y-76752438D01*
X201316666Y-76752438D02*
X201221428Y-76704819D01*
X201221428Y-76704819D02*
X201030952Y-76704819D01*
X201030952Y-76704819D02*
X200935714Y-76752438D01*
X200935714Y-76752438D02*
X200888095Y-76800057D01*
X200888095Y-76800057D02*
X200840476Y-76895295D01*
X200840476Y-76895295D02*
X200840476Y-76942914D01*
X200840476Y-76942914D02*
X200888095Y-77038152D01*
X200888095Y-77038152D02*
X200935714Y-77085771D01*
X200935714Y-77085771D02*
X201030952Y-77133390D01*
X201030952Y-77133390D02*
X201221428Y-77133390D01*
X201221428Y-77133390D02*
X201316666Y-77181009D01*
X201316666Y-77181009D02*
X201364285Y-77228628D01*
X201364285Y-77228628D02*
X201411904Y-77323866D01*
X201411904Y-77323866D02*
X201411904Y-77514342D01*
X201411904Y-77514342D02*
X201364285Y-77609580D01*
X201364285Y-77609580D02*
X201316666Y-77657200D01*
X201316666Y-77657200D02*
X201221428Y-77704819D01*
X201221428Y-77704819D02*
X201030952Y-77704819D01*
X201030952Y-77704819D02*
X200935714Y-77657200D01*
X200935714Y-77657200D02*
X200888095Y-77609580D01*
X200888095Y-77609580D02*
X200840476Y-77514342D01*
X200840476Y-77514342D02*
X200840476Y-77323866D01*
X200840476Y-77323866D02*
X200888095Y-77228628D01*
X200888095Y-77228628D02*
X200935714Y-77181009D01*
X200935714Y-77181009D02*
X201030952Y-77133390D01*
X232545180Y-75488094D02*
X231735657Y-75488094D01*
X231735657Y-75488094D02*
X231640419Y-75440475D01*
X231640419Y-75440475D02*
X231592800Y-75392856D01*
X231592800Y-75392856D02*
X231545180Y-75297618D01*
X231545180Y-75297618D02*
X231545180Y-75107142D01*
X231545180Y-75107142D02*
X231592800Y-75011904D01*
X231592800Y-75011904D02*
X231640419Y-74964285D01*
X231640419Y-74964285D02*
X231735657Y-74916666D01*
X231735657Y-74916666D02*
X232545180Y-74916666D01*
X232449942Y-74488094D02*
X232497561Y-74440475D01*
X232497561Y-74440475D02*
X232545180Y-74345237D01*
X232545180Y-74345237D02*
X232545180Y-74107142D01*
X232545180Y-74107142D02*
X232497561Y-74011904D01*
X232497561Y-74011904D02*
X232449942Y-73964285D01*
X232449942Y-73964285D02*
X232354704Y-73916666D01*
X232354704Y-73916666D02*
X232259466Y-73916666D01*
X232259466Y-73916666D02*
X232116609Y-73964285D01*
X232116609Y-73964285D02*
X231545180Y-74535713D01*
X231545180Y-74535713D02*
X231545180Y-73916666D01*
X232545180Y-73297618D02*
X232545180Y-73202380D01*
X232545180Y-73202380D02*
X232497561Y-73107142D01*
X232497561Y-73107142D02*
X232449942Y-73059523D01*
X232449942Y-73059523D02*
X232354704Y-73011904D01*
X232354704Y-73011904D02*
X232164228Y-72964285D01*
X232164228Y-72964285D02*
X231926133Y-72964285D01*
X231926133Y-72964285D02*
X231735657Y-73011904D01*
X231735657Y-73011904D02*
X231640419Y-73059523D01*
X231640419Y-73059523D02*
X231592800Y-73107142D01*
X231592800Y-73107142D02*
X231545180Y-73202380D01*
X231545180Y-73202380D02*
X231545180Y-73297618D01*
X231545180Y-73297618D02*
X231592800Y-73392856D01*
X231592800Y-73392856D02*
X231640419Y-73440475D01*
X231640419Y-73440475D02*
X231735657Y-73488094D01*
X231735657Y-73488094D02*
X231926133Y-73535713D01*
X231926133Y-73535713D02*
X232164228Y-73535713D01*
X232164228Y-73535713D02*
X232354704Y-73488094D01*
X232354704Y-73488094D02*
X232449942Y-73440475D01*
X232449942Y-73440475D02*
X232497561Y-73392856D01*
X232497561Y-73392856D02*
X232545180Y-73297618D01*
X187445180Y-87011904D02*
X186635657Y-87011904D01*
X186635657Y-87011904D02*
X186540419Y-86964285D01*
X186540419Y-86964285D02*
X186492800Y-86916666D01*
X186492800Y-86916666D02*
X186445180Y-86821428D01*
X186445180Y-86821428D02*
X186445180Y-86630952D01*
X186445180Y-86630952D02*
X186492800Y-86535714D01*
X186492800Y-86535714D02*
X186540419Y-86488095D01*
X186540419Y-86488095D02*
X186635657Y-86440476D01*
X186635657Y-86440476D02*
X187445180Y-86440476D01*
X187445180Y-85488095D02*
X187445180Y-85964285D01*
X187445180Y-85964285D02*
X186968990Y-86011904D01*
X186968990Y-86011904D02*
X187016609Y-85964285D01*
X187016609Y-85964285D02*
X187064228Y-85869047D01*
X187064228Y-85869047D02*
X187064228Y-85630952D01*
X187064228Y-85630952D02*
X187016609Y-85535714D01*
X187016609Y-85535714D02*
X186968990Y-85488095D01*
X186968990Y-85488095D02*
X186873752Y-85440476D01*
X186873752Y-85440476D02*
X186635657Y-85440476D01*
X186635657Y-85440476D02*
X186540419Y-85488095D01*
X186540419Y-85488095D02*
X186492800Y-85535714D01*
X186492800Y-85535714D02*
X186445180Y-85630952D01*
X186445180Y-85630952D02*
X186445180Y-85869047D01*
X186445180Y-85869047D02*
X186492800Y-85964285D01*
X186492800Y-85964285D02*
X186540419Y-86011904D01*
X202888094Y-88704819D02*
X202888094Y-89514342D01*
X202888094Y-89514342D02*
X202840475Y-89609580D01*
X202840475Y-89609580D02*
X202792856Y-89657200D01*
X202792856Y-89657200D02*
X202697618Y-89704819D01*
X202697618Y-89704819D02*
X202507142Y-89704819D01*
X202507142Y-89704819D02*
X202411904Y-89657200D01*
X202411904Y-89657200D02*
X202364285Y-89609580D01*
X202364285Y-89609580D02*
X202316666Y-89514342D01*
X202316666Y-89514342D02*
X202316666Y-88704819D01*
X201316666Y-89704819D02*
X201888094Y-89704819D01*
X201602380Y-89704819D02*
X201602380Y-88704819D01*
X201602380Y-88704819D02*
X201697618Y-88847676D01*
X201697618Y-88847676D02*
X201792856Y-88942914D01*
X201792856Y-88942914D02*
X201888094Y-88990533D01*
X200935713Y-88800057D02*
X200888094Y-88752438D01*
X200888094Y-88752438D02*
X200792856Y-88704819D01*
X200792856Y-88704819D02*
X200554761Y-88704819D01*
X200554761Y-88704819D02*
X200459523Y-88752438D01*
X200459523Y-88752438D02*
X200411904Y-88800057D01*
X200411904Y-88800057D02*
X200364285Y-88895295D01*
X200364285Y-88895295D02*
X200364285Y-88990533D01*
X200364285Y-88990533D02*
X200411904Y-89133390D01*
X200411904Y-89133390D02*
X200983332Y-89704819D01*
X200983332Y-89704819D02*
X200364285Y-89704819D01*
X232545180Y-78488094D02*
X231735657Y-78488094D01*
X231735657Y-78488094D02*
X231640419Y-78440475D01*
X231640419Y-78440475D02*
X231592800Y-78392856D01*
X231592800Y-78392856D02*
X231545180Y-78297618D01*
X231545180Y-78297618D02*
X231545180Y-78107142D01*
X231545180Y-78107142D02*
X231592800Y-78011904D01*
X231592800Y-78011904D02*
X231640419Y-77964285D01*
X231640419Y-77964285D02*
X231735657Y-77916666D01*
X231735657Y-77916666D02*
X232545180Y-77916666D01*
X232449942Y-77488094D02*
X232497561Y-77440475D01*
X232497561Y-77440475D02*
X232545180Y-77345237D01*
X232545180Y-77345237D02*
X232545180Y-77107142D01*
X232545180Y-77107142D02*
X232497561Y-77011904D01*
X232497561Y-77011904D02*
X232449942Y-76964285D01*
X232449942Y-76964285D02*
X232354704Y-76916666D01*
X232354704Y-76916666D02*
X232259466Y-76916666D01*
X232259466Y-76916666D02*
X232116609Y-76964285D01*
X232116609Y-76964285D02*
X231545180Y-77535713D01*
X231545180Y-77535713D02*
X231545180Y-76916666D01*
X231545180Y-75964285D02*
X231545180Y-76535713D01*
X231545180Y-76249999D02*
X232545180Y-76249999D01*
X232545180Y-76249999D02*
X232402323Y-76345237D01*
X232402323Y-76345237D02*
X232307085Y-76440475D01*
X232307085Y-76440475D02*
X232259466Y-76535713D01*
D13*
X194333333Y-67957419D02*
X194333333Y-68671704D01*
X194333333Y-68671704D02*
X194380952Y-68814561D01*
X194380952Y-68814561D02*
X194476190Y-68909800D01*
X194476190Y-68909800D02*
X194619047Y-68957419D01*
X194619047Y-68957419D02*
X194714285Y-68957419D01*
X193333333Y-68957419D02*
X193904761Y-68957419D01*
X193619047Y-68957419D02*
X193619047Y-67957419D01*
X193619047Y-67957419D02*
X193714285Y-68100276D01*
X193714285Y-68100276D02*
X193809523Y-68195514D01*
X193809523Y-68195514D02*
X193904761Y-68243133D01*
D12*
X197010839Y-100084104D02*
X196534649Y-100084104D01*
X197106077Y-100369819D02*
X196772744Y-99369819D01*
X196772744Y-99369819D02*
X196439411Y-100369819D01*
X195629887Y-99369819D02*
X196106077Y-99369819D01*
X196106077Y-99369819D02*
X196153696Y-99846009D01*
X196153696Y-99846009D02*
X196106077Y-99798390D01*
X196106077Y-99798390D02*
X196010839Y-99750771D01*
X196010839Y-99750771D02*
X195772744Y-99750771D01*
X195772744Y-99750771D02*
X195677506Y-99798390D01*
X195677506Y-99798390D02*
X195629887Y-99846009D01*
X195629887Y-99846009D02*
X195582268Y-99941247D01*
X195582268Y-99941247D02*
X195582268Y-100179342D01*
X195582268Y-100179342D02*
X195629887Y-100274580D01*
X195629887Y-100274580D02*
X195677506Y-100322200D01*
X195677506Y-100322200D02*
X195772744Y-100369819D01*
X195772744Y-100369819D02*
X196010839Y-100369819D01*
X196010839Y-100369819D02*
X196106077Y-100322200D01*
X196106077Y-100322200D02*
X196153696Y-100274580D01*
X194963220Y-99369819D02*
X194867982Y-99369819D01*
X194867982Y-99369819D02*
X194772744Y-99417438D01*
X194772744Y-99417438D02*
X194725125Y-99465057D01*
X194725125Y-99465057D02*
X194677506Y-99560295D01*
X194677506Y-99560295D02*
X194629887Y-99750771D01*
X194629887Y-99750771D02*
X194629887Y-99988866D01*
X194629887Y-99988866D02*
X194677506Y-100179342D01*
X194677506Y-100179342D02*
X194725125Y-100274580D01*
X194725125Y-100274580D02*
X194772744Y-100322200D01*
X194772744Y-100322200D02*
X194867982Y-100369819D01*
X194867982Y-100369819D02*
X194963220Y-100369819D01*
X194963220Y-100369819D02*
X195058458Y-100322200D01*
X195058458Y-100322200D02*
X195106077Y-100274580D01*
X195106077Y-100274580D02*
X195153696Y-100179342D01*
X195153696Y-100179342D02*
X195201315Y-99988866D01*
X195201315Y-99988866D02*
X195201315Y-99750771D01*
X195201315Y-99750771D02*
X195153696Y-99560295D01*
X195153696Y-99560295D02*
X195106077Y-99465057D01*
X195106077Y-99465057D02*
X195058458Y-99417438D01*
X195058458Y-99417438D02*
X194963220Y-99369819D01*
X192929887Y-99846009D02*
X192787030Y-99893628D01*
X192787030Y-99893628D02*
X192739411Y-99941247D01*
X192739411Y-99941247D02*
X192691792Y-100036485D01*
X192691792Y-100036485D02*
X192691792Y-100179342D01*
X192691792Y-100179342D02*
X192739411Y-100274580D01*
X192739411Y-100274580D02*
X192787030Y-100322200D01*
X192787030Y-100322200D02*
X192882268Y-100369819D01*
X192882268Y-100369819D02*
X193263220Y-100369819D01*
X193263220Y-100369819D02*
X193263220Y-99369819D01*
X193263220Y-99369819D02*
X192929887Y-99369819D01*
X192929887Y-99369819D02*
X192834649Y-99417438D01*
X192834649Y-99417438D02*
X192787030Y-99465057D01*
X192787030Y-99465057D02*
X192739411Y-99560295D01*
X192739411Y-99560295D02*
X192739411Y-99655533D01*
X192739411Y-99655533D02*
X192787030Y-99750771D01*
X192787030Y-99750771D02*
X192834649Y-99798390D01*
X192834649Y-99798390D02*
X192929887Y-99846009D01*
X192929887Y-99846009D02*
X193263220Y-99846009D01*
X191787030Y-99369819D02*
X192263220Y-99369819D01*
X192263220Y-99369819D02*
X192310839Y-99846009D01*
X192310839Y-99846009D02*
X192263220Y-99798390D01*
X192263220Y-99798390D02*
X192167982Y-99750771D01*
X192167982Y-99750771D02*
X191929887Y-99750771D01*
X191929887Y-99750771D02*
X191834649Y-99798390D01*
X191834649Y-99798390D02*
X191787030Y-99846009D01*
X191787030Y-99846009D02*
X191739411Y-99941247D01*
X191739411Y-99941247D02*
X191739411Y-100179342D01*
X191739411Y-100179342D02*
X191787030Y-100274580D01*
X191787030Y-100274580D02*
X191834649Y-100322200D01*
X191834649Y-100322200D02*
X191929887Y-100369819D01*
X191929887Y-100369819D02*
X192167982Y-100369819D01*
X192167982Y-100369819D02*
X192263220Y-100322200D01*
X192263220Y-100322200D02*
X192310839Y-100274580D01*
X191120363Y-99369819D02*
X191025125Y-99369819D01*
X191025125Y-99369819D02*
X190929887Y-99417438D01*
X190929887Y-99417438D02*
X190882268Y-99465057D01*
X190882268Y-99465057D02*
X190834649Y-99560295D01*
X190834649Y-99560295D02*
X190787030Y-99750771D01*
X190787030Y-99750771D02*
X190787030Y-99988866D01*
X190787030Y-99988866D02*
X190834649Y-100179342D01*
X190834649Y-100179342D02*
X190882268Y-100274580D01*
X190882268Y-100274580D02*
X190929887Y-100322200D01*
X190929887Y-100322200D02*
X191025125Y-100369819D01*
X191025125Y-100369819D02*
X191120363Y-100369819D01*
X191120363Y-100369819D02*
X191215601Y-100322200D01*
X191215601Y-100322200D02*
X191263220Y-100274580D01*
X191263220Y-100274580D02*
X191310839Y-100179342D01*
X191310839Y-100179342D02*
X191358458Y-99988866D01*
X191358458Y-99988866D02*
X191358458Y-99750771D01*
X191358458Y-99750771D02*
X191310839Y-99560295D01*
X191310839Y-99560295D02*
X191263220Y-99465057D01*
X191263220Y-99465057D02*
X191215601Y-99417438D01*
X191215601Y-99417438D02*
X191120363Y-99369819D01*
X196510839Y-70334104D02*
X196034649Y-70334104D01*
X196606077Y-70619819D02*
X196272744Y-69619819D01*
X196272744Y-69619819D02*
X195939411Y-70619819D01*
X195082268Y-70619819D02*
X195653696Y-70619819D01*
X195367982Y-70619819D02*
X195367982Y-69619819D01*
X195367982Y-69619819D02*
X195463220Y-69762676D01*
X195463220Y-69762676D02*
X195558458Y-69857914D01*
X195558458Y-69857914D02*
X195653696Y-69905533D01*
X192429887Y-70096009D02*
X192287030Y-70143628D01*
X192287030Y-70143628D02*
X192239411Y-70191247D01*
X192239411Y-70191247D02*
X192191792Y-70286485D01*
X192191792Y-70286485D02*
X192191792Y-70429342D01*
X192191792Y-70429342D02*
X192239411Y-70524580D01*
X192239411Y-70524580D02*
X192287030Y-70572200D01*
X192287030Y-70572200D02*
X192382268Y-70619819D01*
X192382268Y-70619819D02*
X192763220Y-70619819D01*
X192763220Y-70619819D02*
X192763220Y-69619819D01*
X192763220Y-69619819D02*
X192429887Y-69619819D01*
X192429887Y-69619819D02*
X192334649Y-69667438D01*
X192334649Y-69667438D02*
X192287030Y-69715057D01*
X192287030Y-69715057D02*
X192239411Y-69810295D01*
X192239411Y-69810295D02*
X192239411Y-69905533D01*
X192239411Y-69905533D02*
X192287030Y-70000771D01*
X192287030Y-70000771D02*
X192334649Y-70048390D01*
X192334649Y-70048390D02*
X192429887Y-70096009D01*
X192429887Y-70096009D02*
X192763220Y-70096009D01*
X191239411Y-70619819D02*
X191810839Y-70619819D01*
X191525125Y-70619819D02*
X191525125Y-69619819D01*
X191525125Y-69619819D02*
X191620363Y-69762676D01*
X191620363Y-69762676D02*
X191715601Y-69857914D01*
X191715601Y-69857914D02*
X191810839Y-69905533D01*
X218438094Y-79704819D02*
X218438094Y-80514342D01*
X218438094Y-80514342D02*
X218390475Y-80609580D01*
X218390475Y-80609580D02*
X218342856Y-80657200D01*
X218342856Y-80657200D02*
X218247618Y-80704819D01*
X218247618Y-80704819D02*
X218057142Y-80704819D01*
X218057142Y-80704819D02*
X217961904Y-80657200D01*
X217961904Y-80657200D02*
X217914285Y-80609580D01*
X217914285Y-80609580D02*
X217866666Y-80514342D01*
X217866666Y-80514342D02*
X217866666Y-79704819D01*
X216866666Y-80704819D02*
X217438094Y-80704819D01*
X217152380Y-80704819D02*
X217152380Y-79704819D01*
X217152380Y-79704819D02*
X217247618Y-79847676D01*
X217247618Y-79847676D02*
X217342856Y-79942914D01*
X217342856Y-79942914D02*
X217438094Y-79990533D01*
X216009523Y-79704819D02*
X216199999Y-79704819D01*
X216199999Y-79704819D02*
X216295237Y-79752438D01*
X216295237Y-79752438D02*
X216342856Y-79800057D01*
X216342856Y-79800057D02*
X216438094Y-79942914D01*
X216438094Y-79942914D02*
X216485713Y-80133390D01*
X216485713Y-80133390D02*
X216485713Y-80514342D01*
X216485713Y-80514342D02*
X216438094Y-80609580D01*
X216438094Y-80609580D02*
X216390475Y-80657200D01*
X216390475Y-80657200D02*
X216295237Y-80704819D01*
X216295237Y-80704819D02*
X216104761Y-80704819D01*
X216104761Y-80704819D02*
X216009523Y-80657200D01*
X216009523Y-80657200D02*
X215961904Y-80609580D01*
X215961904Y-80609580D02*
X215914285Y-80514342D01*
X215914285Y-80514342D02*
X215914285Y-80276247D01*
X215914285Y-80276247D02*
X215961904Y-80181009D01*
X215961904Y-80181009D02*
X216009523Y-80133390D01*
X216009523Y-80133390D02*
X216104761Y-80085771D01*
X216104761Y-80085771D02*
X216295237Y-80085771D01*
X216295237Y-80085771D02*
X216390475Y-80133390D01*
X216390475Y-80133390D02*
X216438094Y-80181009D01*
X216438094Y-80181009D02*
X216485713Y-80276247D01*
X218438094Y-73704819D02*
X218438094Y-74514342D01*
X218438094Y-74514342D02*
X218390475Y-74609580D01*
X218390475Y-74609580D02*
X218342856Y-74657200D01*
X218342856Y-74657200D02*
X218247618Y-74704819D01*
X218247618Y-74704819D02*
X218057142Y-74704819D01*
X218057142Y-74704819D02*
X217961904Y-74657200D01*
X217961904Y-74657200D02*
X217914285Y-74609580D01*
X217914285Y-74609580D02*
X217866666Y-74514342D01*
X217866666Y-74514342D02*
X217866666Y-73704819D01*
X216866666Y-74704819D02*
X217438094Y-74704819D01*
X217152380Y-74704819D02*
X217152380Y-73704819D01*
X217152380Y-73704819D02*
X217247618Y-73847676D01*
X217247618Y-73847676D02*
X217342856Y-73942914D01*
X217342856Y-73942914D02*
X217438094Y-73990533D01*
X216009523Y-74038152D02*
X216009523Y-74704819D01*
X216247618Y-73657200D02*
X216485713Y-74371485D01*
X216485713Y-74371485D02*
X215866666Y-74371485D01*
X218438094Y-82704819D02*
X218438094Y-83514342D01*
X218438094Y-83514342D02*
X218390475Y-83609580D01*
X218390475Y-83609580D02*
X218342856Y-83657200D01*
X218342856Y-83657200D02*
X218247618Y-83704819D01*
X218247618Y-83704819D02*
X218057142Y-83704819D01*
X218057142Y-83704819D02*
X217961904Y-83657200D01*
X217961904Y-83657200D02*
X217914285Y-83609580D01*
X217914285Y-83609580D02*
X217866666Y-83514342D01*
X217866666Y-83514342D02*
X217866666Y-82704819D01*
X216866666Y-83704819D02*
X217438094Y-83704819D01*
X217152380Y-83704819D02*
X217152380Y-82704819D01*
X217152380Y-82704819D02*
X217247618Y-82847676D01*
X217247618Y-82847676D02*
X217342856Y-82942914D01*
X217342856Y-82942914D02*
X217438094Y-82990533D01*
X216533332Y-82704819D02*
X215866666Y-82704819D01*
X215866666Y-82704819D02*
X216295237Y-83704819D01*
X202888094Y-82704819D02*
X202888094Y-83514342D01*
X202888094Y-83514342D02*
X202840475Y-83609580D01*
X202840475Y-83609580D02*
X202792856Y-83657200D01*
X202792856Y-83657200D02*
X202697618Y-83704819D01*
X202697618Y-83704819D02*
X202507142Y-83704819D01*
X202507142Y-83704819D02*
X202411904Y-83657200D01*
X202411904Y-83657200D02*
X202364285Y-83609580D01*
X202364285Y-83609580D02*
X202316666Y-83514342D01*
X202316666Y-83514342D02*
X202316666Y-82704819D01*
X201316666Y-83704819D02*
X201888094Y-83704819D01*
X201602380Y-83704819D02*
X201602380Y-82704819D01*
X201602380Y-82704819D02*
X201697618Y-82847676D01*
X201697618Y-82847676D02*
X201792856Y-82942914D01*
X201792856Y-82942914D02*
X201888094Y-82990533D01*
X200697618Y-82704819D02*
X200602380Y-82704819D01*
X200602380Y-82704819D02*
X200507142Y-82752438D01*
X200507142Y-82752438D02*
X200459523Y-82800057D01*
X200459523Y-82800057D02*
X200411904Y-82895295D01*
X200411904Y-82895295D02*
X200364285Y-83085771D01*
X200364285Y-83085771D02*
X200364285Y-83323866D01*
X200364285Y-83323866D02*
X200411904Y-83514342D01*
X200411904Y-83514342D02*
X200459523Y-83609580D01*
X200459523Y-83609580D02*
X200507142Y-83657200D01*
X200507142Y-83657200D02*
X200602380Y-83704819D01*
X200602380Y-83704819D02*
X200697618Y-83704819D01*
X200697618Y-83704819D02*
X200792856Y-83657200D01*
X200792856Y-83657200D02*
X200840475Y-83609580D01*
X200840475Y-83609580D02*
X200888094Y-83514342D01*
X200888094Y-83514342D02*
X200935713Y-83323866D01*
X200935713Y-83323866D02*
X200935713Y-83085771D01*
X200935713Y-83085771D02*
X200888094Y-82895295D01*
X200888094Y-82895295D02*
X200840475Y-82800057D01*
X200840475Y-82800057D02*
X200792856Y-82752438D01*
X200792856Y-82752438D02*
X200697618Y-82704819D01*
X218438094Y-88704819D02*
X218438094Y-89514342D01*
X218438094Y-89514342D02*
X218390475Y-89609580D01*
X218390475Y-89609580D02*
X218342856Y-89657200D01*
X218342856Y-89657200D02*
X218247618Y-89704819D01*
X218247618Y-89704819D02*
X218057142Y-89704819D01*
X218057142Y-89704819D02*
X217961904Y-89657200D01*
X217961904Y-89657200D02*
X217914285Y-89609580D01*
X217914285Y-89609580D02*
X217866666Y-89514342D01*
X217866666Y-89514342D02*
X217866666Y-88704819D01*
X216866666Y-89704819D02*
X217438094Y-89704819D01*
X217152380Y-89704819D02*
X217152380Y-88704819D01*
X217152380Y-88704819D02*
X217247618Y-88847676D01*
X217247618Y-88847676D02*
X217342856Y-88942914D01*
X217342856Y-88942914D02*
X217438094Y-88990533D01*
X216390475Y-89704819D02*
X216199999Y-89704819D01*
X216199999Y-89704819D02*
X216104761Y-89657200D01*
X216104761Y-89657200D02*
X216057142Y-89609580D01*
X216057142Y-89609580D02*
X215961904Y-89466723D01*
X215961904Y-89466723D02*
X215914285Y-89276247D01*
X215914285Y-89276247D02*
X215914285Y-88895295D01*
X215914285Y-88895295D02*
X215961904Y-88800057D01*
X215961904Y-88800057D02*
X216009523Y-88752438D01*
X216009523Y-88752438D02*
X216104761Y-88704819D01*
X216104761Y-88704819D02*
X216295237Y-88704819D01*
X216295237Y-88704819D02*
X216390475Y-88752438D01*
X216390475Y-88752438D02*
X216438094Y-88800057D01*
X216438094Y-88800057D02*
X216485713Y-88895295D01*
X216485713Y-88895295D02*
X216485713Y-89133390D01*
X216485713Y-89133390D02*
X216438094Y-89228628D01*
X216438094Y-89228628D02*
X216390475Y-89276247D01*
X216390475Y-89276247D02*
X216295237Y-89323866D01*
X216295237Y-89323866D02*
X216104761Y-89323866D01*
X216104761Y-89323866D02*
X216009523Y-89276247D01*
X216009523Y-89276247D02*
X215961904Y-89228628D01*
X215961904Y-89228628D02*
X215914285Y-89133390D01*
X187445180Y-75011904D02*
X186635657Y-75011904D01*
X186635657Y-75011904D02*
X186540419Y-74964285D01*
X186540419Y-74964285D02*
X186492800Y-74916666D01*
X186492800Y-74916666D02*
X186445180Y-74821428D01*
X186445180Y-74821428D02*
X186445180Y-74630952D01*
X186445180Y-74630952D02*
X186492800Y-74535714D01*
X186492800Y-74535714D02*
X186540419Y-74488095D01*
X186540419Y-74488095D02*
X186635657Y-74440476D01*
X186635657Y-74440476D02*
X187445180Y-74440476D01*
X186445180Y-73440476D02*
X186445180Y-74011904D01*
X186445180Y-73726190D02*
X187445180Y-73726190D01*
X187445180Y-73726190D02*
X187302323Y-73821428D01*
X187302323Y-73821428D02*
X187207085Y-73916666D01*
X187207085Y-73916666D02*
X187159466Y-74011904D01*
X202888094Y-85704819D02*
X202888094Y-86514342D01*
X202888094Y-86514342D02*
X202840475Y-86609580D01*
X202840475Y-86609580D02*
X202792856Y-86657200D01*
X202792856Y-86657200D02*
X202697618Y-86704819D01*
X202697618Y-86704819D02*
X202507142Y-86704819D01*
X202507142Y-86704819D02*
X202411904Y-86657200D01*
X202411904Y-86657200D02*
X202364285Y-86609580D01*
X202364285Y-86609580D02*
X202316666Y-86514342D01*
X202316666Y-86514342D02*
X202316666Y-85704819D01*
X201316666Y-86704819D02*
X201888094Y-86704819D01*
X201602380Y-86704819D02*
X201602380Y-85704819D01*
X201602380Y-85704819D02*
X201697618Y-85847676D01*
X201697618Y-85847676D02*
X201792856Y-85942914D01*
X201792856Y-85942914D02*
X201888094Y-85990533D01*
X200364285Y-86704819D02*
X200935713Y-86704819D01*
X200649999Y-86704819D02*
X200649999Y-85704819D01*
X200649999Y-85704819D02*
X200745237Y-85847676D01*
X200745237Y-85847676D02*
X200840475Y-85942914D01*
X200840475Y-85942914D02*
X200935713Y-85990533D01*
X187445180Y-84011904D02*
X186635657Y-84011904D01*
X186635657Y-84011904D02*
X186540419Y-83964285D01*
X186540419Y-83964285D02*
X186492800Y-83916666D01*
X186492800Y-83916666D02*
X186445180Y-83821428D01*
X186445180Y-83821428D02*
X186445180Y-83630952D01*
X186445180Y-83630952D02*
X186492800Y-83535714D01*
X186492800Y-83535714D02*
X186540419Y-83488095D01*
X186540419Y-83488095D02*
X186635657Y-83440476D01*
X186635657Y-83440476D02*
X187445180Y-83440476D01*
X187111847Y-82535714D02*
X186445180Y-82535714D01*
X187492800Y-82773809D02*
X186778514Y-83011904D01*
X186778514Y-83011904D02*
X186778514Y-82392857D01*
D13*
X225383333Y-67957419D02*
X225383333Y-68671704D01*
X225383333Y-68671704D02*
X225430952Y-68814561D01*
X225430952Y-68814561D02*
X225526190Y-68909800D01*
X225526190Y-68909800D02*
X225669047Y-68957419D01*
X225669047Y-68957419D02*
X225764285Y-68957419D01*
X224954761Y-68052657D02*
X224907142Y-68005038D01*
X224907142Y-68005038D02*
X224811904Y-67957419D01*
X224811904Y-67957419D02*
X224573809Y-67957419D01*
X224573809Y-67957419D02*
X224478571Y-68005038D01*
X224478571Y-68005038D02*
X224430952Y-68052657D01*
X224430952Y-68052657D02*
X224383333Y-68147895D01*
X224383333Y-68147895D02*
X224383333Y-68243133D01*
X224383333Y-68243133D02*
X224430952Y-68385990D01*
X224430952Y-68385990D02*
X225002380Y-68957419D01*
X225002380Y-68957419D02*
X224383333Y-68957419D01*
D12*
X228010839Y-100084104D02*
X227534649Y-100084104D01*
X228106077Y-100369819D02*
X227772744Y-99369819D01*
X227772744Y-99369819D02*
X227439411Y-100369819D01*
X226629887Y-99369819D02*
X227106077Y-99369819D01*
X227106077Y-99369819D02*
X227153696Y-99846009D01*
X227153696Y-99846009D02*
X227106077Y-99798390D01*
X227106077Y-99798390D02*
X227010839Y-99750771D01*
X227010839Y-99750771D02*
X226772744Y-99750771D01*
X226772744Y-99750771D02*
X226677506Y-99798390D01*
X226677506Y-99798390D02*
X226629887Y-99846009D01*
X226629887Y-99846009D02*
X226582268Y-99941247D01*
X226582268Y-99941247D02*
X226582268Y-100179342D01*
X226582268Y-100179342D02*
X226629887Y-100274580D01*
X226629887Y-100274580D02*
X226677506Y-100322200D01*
X226677506Y-100322200D02*
X226772744Y-100369819D01*
X226772744Y-100369819D02*
X227010839Y-100369819D01*
X227010839Y-100369819D02*
X227106077Y-100322200D01*
X227106077Y-100322200D02*
X227153696Y-100274580D01*
X225963220Y-99369819D02*
X225867982Y-99369819D01*
X225867982Y-99369819D02*
X225772744Y-99417438D01*
X225772744Y-99417438D02*
X225725125Y-99465057D01*
X225725125Y-99465057D02*
X225677506Y-99560295D01*
X225677506Y-99560295D02*
X225629887Y-99750771D01*
X225629887Y-99750771D02*
X225629887Y-99988866D01*
X225629887Y-99988866D02*
X225677506Y-100179342D01*
X225677506Y-100179342D02*
X225725125Y-100274580D01*
X225725125Y-100274580D02*
X225772744Y-100322200D01*
X225772744Y-100322200D02*
X225867982Y-100369819D01*
X225867982Y-100369819D02*
X225963220Y-100369819D01*
X225963220Y-100369819D02*
X226058458Y-100322200D01*
X226058458Y-100322200D02*
X226106077Y-100274580D01*
X226106077Y-100274580D02*
X226153696Y-100179342D01*
X226153696Y-100179342D02*
X226201315Y-99988866D01*
X226201315Y-99988866D02*
X226201315Y-99750771D01*
X226201315Y-99750771D02*
X226153696Y-99560295D01*
X226153696Y-99560295D02*
X226106077Y-99465057D01*
X226106077Y-99465057D02*
X226058458Y-99417438D01*
X226058458Y-99417438D02*
X225963220Y-99369819D01*
X223929887Y-99846009D02*
X223787030Y-99893628D01*
X223787030Y-99893628D02*
X223739411Y-99941247D01*
X223739411Y-99941247D02*
X223691792Y-100036485D01*
X223691792Y-100036485D02*
X223691792Y-100179342D01*
X223691792Y-100179342D02*
X223739411Y-100274580D01*
X223739411Y-100274580D02*
X223787030Y-100322200D01*
X223787030Y-100322200D02*
X223882268Y-100369819D01*
X223882268Y-100369819D02*
X224263220Y-100369819D01*
X224263220Y-100369819D02*
X224263220Y-99369819D01*
X224263220Y-99369819D02*
X223929887Y-99369819D01*
X223929887Y-99369819D02*
X223834649Y-99417438D01*
X223834649Y-99417438D02*
X223787030Y-99465057D01*
X223787030Y-99465057D02*
X223739411Y-99560295D01*
X223739411Y-99560295D02*
X223739411Y-99655533D01*
X223739411Y-99655533D02*
X223787030Y-99750771D01*
X223787030Y-99750771D02*
X223834649Y-99798390D01*
X223834649Y-99798390D02*
X223929887Y-99846009D01*
X223929887Y-99846009D02*
X224263220Y-99846009D01*
X222787030Y-99369819D02*
X223263220Y-99369819D01*
X223263220Y-99369819D02*
X223310839Y-99846009D01*
X223310839Y-99846009D02*
X223263220Y-99798390D01*
X223263220Y-99798390D02*
X223167982Y-99750771D01*
X223167982Y-99750771D02*
X222929887Y-99750771D01*
X222929887Y-99750771D02*
X222834649Y-99798390D01*
X222834649Y-99798390D02*
X222787030Y-99846009D01*
X222787030Y-99846009D02*
X222739411Y-99941247D01*
X222739411Y-99941247D02*
X222739411Y-100179342D01*
X222739411Y-100179342D02*
X222787030Y-100274580D01*
X222787030Y-100274580D02*
X222834649Y-100322200D01*
X222834649Y-100322200D02*
X222929887Y-100369819D01*
X222929887Y-100369819D02*
X223167982Y-100369819D01*
X223167982Y-100369819D02*
X223263220Y-100322200D01*
X223263220Y-100322200D02*
X223310839Y-100274580D01*
X222120363Y-99369819D02*
X222025125Y-99369819D01*
X222025125Y-99369819D02*
X221929887Y-99417438D01*
X221929887Y-99417438D02*
X221882268Y-99465057D01*
X221882268Y-99465057D02*
X221834649Y-99560295D01*
X221834649Y-99560295D02*
X221787030Y-99750771D01*
X221787030Y-99750771D02*
X221787030Y-99988866D01*
X221787030Y-99988866D02*
X221834649Y-100179342D01*
X221834649Y-100179342D02*
X221882268Y-100274580D01*
X221882268Y-100274580D02*
X221929887Y-100322200D01*
X221929887Y-100322200D02*
X222025125Y-100369819D01*
X222025125Y-100369819D02*
X222120363Y-100369819D01*
X222120363Y-100369819D02*
X222215601Y-100322200D01*
X222215601Y-100322200D02*
X222263220Y-100274580D01*
X222263220Y-100274580D02*
X222310839Y-100179342D01*
X222310839Y-100179342D02*
X222358458Y-99988866D01*
X222358458Y-99988866D02*
X222358458Y-99750771D01*
X222358458Y-99750771D02*
X222310839Y-99560295D01*
X222310839Y-99560295D02*
X222263220Y-99465057D01*
X222263220Y-99465057D02*
X222215601Y-99417438D01*
X222215601Y-99417438D02*
X222120363Y-99369819D01*
X227510839Y-70334104D02*
X227034649Y-70334104D01*
X227606077Y-70619819D02*
X227272744Y-69619819D01*
X227272744Y-69619819D02*
X226939411Y-70619819D01*
X226082268Y-70619819D02*
X226653696Y-70619819D01*
X226367982Y-70619819D02*
X226367982Y-69619819D01*
X226367982Y-69619819D02*
X226463220Y-69762676D01*
X226463220Y-69762676D02*
X226558458Y-69857914D01*
X226558458Y-69857914D02*
X226653696Y-69905533D01*
X223429887Y-70096009D02*
X223287030Y-70143628D01*
X223287030Y-70143628D02*
X223239411Y-70191247D01*
X223239411Y-70191247D02*
X223191792Y-70286485D01*
X223191792Y-70286485D02*
X223191792Y-70429342D01*
X223191792Y-70429342D02*
X223239411Y-70524580D01*
X223239411Y-70524580D02*
X223287030Y-70572200D01*
X223287030Y-70572200D02*
X223382268Y-70619819D01*
X223382268Y-70619819D02*
X223763220Y-70619819D01*
X223763220Y-70619819D02*
X223763220Y-69619819D01*
X223763220Y-69619819D02*
X223429887Y-69619819D01*
X223429887Y-69619819D02*
X223334649Y-69667438D01*
X223334649Y-69667438D02*
X223287030Y-69715057D01*
X223287030Y-69715057D02*
X223239411Y-69810295D01*
X223239411Y-69810295D02*
X223239411Y-69905533D01*
X223239411Y-69905533D02*
X223287030Y-70000771D01*
X223287030Y-70000771D02*
X223334649Y-70048390D01*
X223334649Y-70048390D02*
X223429887Y-70096009D01*
X223429887Y-70096009D02*
X223763220Y-70096009D01*
X222239411Y-70619819D02*
X222810839Y-70619819D01*
X222525125Y-70619819D02*
X222525125Y-69619819D01*
X222525125Y-69619819D02*
X222620363Y-69762676D01*
X222620363Y-69762676D02*
X222715601Y-69857914D01*
X222715601Y-69857914D02*
X222810839Y-69905533D01*
X232545180Y-87488094D02*
X231735657Y-87488094D01*
X231735657Y-87488094D02*
X231640419Y-87440475D01*
X231640419Y-87440475D02*
X231592800Y-87392856D01*
X231592800Y-87392856D02*
X231545180Y-87297618D01*
X231545180Y-87297618D02*
X231545180Y-87107142D01*
X231545180Y-87107142D02*
X231592800Y-87011904D01*
X231592800Y-87011904D02*
X231640419Y-86964285D01*
X231640419Y-86964285D02*
X231735657Y-86916666D01*
X231735657Y-86916666D02*
X232545180Y-86916666D01*
X232449942Y-86488094D02*
X232497561Y-86440475D01*
X232497561Y-86440475D02*
X232545180Y-86345237D01*
X232545180Y-86345237D02*
X232545180Y-86107142D01*
X232545180Y-86107142D02*
X232497561Y-86011904D01*
X232497561Y-86011904D02*
X232449942Y-85964285D01*
X232449942Y-85964285D02*
X232354704Y-85916666D01*
X232354704Y-85916666D02*
X232259466Y-85916666D01*
X232259466Y-85916666D02*
X232116609Y-85964285D01*
X232116609Y-85964285D02*
X231545180Y-86535713D01*
X231545180Y-86535713D02*
X231545180Y-85916666D01*
X232211847Y-85059523D02*
X231545180Y-85059523D01*
X232592800Y-85297618D02*
X231878514Y-85535713D01*
X231878514Y-85535713D02*
X231878514Y-84916666D01*
X218438094Y-85704819D02*
X218438094Y-86514342D01*
X218438094Y-86514342D02*
X218390475Y-86609580D01*
X218390475Y-86609580D02*
X218342856Y-86657200D01*
X218342856Y-86657200D02*
X218247618Y-86704819D01*
X218247618Y-86704819D02*
X218057142Y-86704819D01*
X218057142Y-86704819D02*
X217961904Y-86657200D01*
X217961904Y-86657200D02*
X217914285Y-86609580D01*
X217914285Y-86609580D02*
X217866666Y-86514342D01*
X217866666Y-86514342D02*
X217866666Y-85704819D01*
X216866666Y-86704819D02*
X217438094Y-86704819D01*
X217152380Y-86704819D02*
X217152380Y-85704819D01*
X217152380Y-85704819D02*
X217247618Y-85847676D01*
X217247618Y-85847676D02*
X217342856Y-85942914D01*
X217342856Y-85942914D02*
X217438094Y-85990533D01*
X216295237Y-86133390D02*
X216390475Y-86085771D01*
X216390475Y-86085771D02*
X216438094Y-86038152D01*
X216438094Y-86038152D02*
X216485713Y-85942914D01*
X216485713Y-85942914D02*
X216485713Y-85895295D01*
X216485713Y-85895295D02*
X216438094Y-85800057D01*
X216438094Y-85800057D02*
X216390475Y-85752438D01*
X216390475Y-85752438D02*
X216295237Y-85704819D01*
X216295237Y-85704819D02*
X216104761Y-85704819D01*
X216104761Y-85704819D02*
X216009523Y-85752438D01*
X216009523Y-85752438D02*
X215961904Y-85800057D01*
X215961904Y-85800057D02*
X215914285Y-85895295D01*
X215914285Y-85895295D02*
X215914285Y-85942914D01*
X215914285Y-85942914D02*
X215961904Y-86038152D01*
X215961904Y-86038152D02*
X216009523Y-86085771D01*
X216009523Y-86085771D02*
X216104761Y-86133390D01*
X216104761Y-86133390D02*
X216295237Y-86133390D01*
X216295237Y-86133390D02*
X216390475Y-86181009D01*
X216390475Y-86181009D02*
X216438094Y-86228628D01*
X216438094Y-86228628D02*
X216485713Y-86323866D01*
X216485713Y-86323866D02*
X216485713Y-86514342D01*
X216485713Y-86514342D02*
X216438094Y-86609580D01*
X216438094Y-86609580D02*
X216390475Y-86657200D01*
X216390475Y-86657200D02*
X216295237Y-86704819D01*
X216295237Y-86704819D02*
X216104761Y-86704819D01*
X216104761Y-86704819D02*
X216009523Y-86657200D01*
X216009523Y-86657200D02*
X215961904Y-86609580D01*
X215961904Y-86609580D02*
X215914285Y-86514342D01*
X215914285Y-86514342D02*
X215914285Y-86323866D01*
X215914285Y-86323866D02*
X215961904Y-86228628D01*
X215961904Y-86228628D02*
X216009523Y-86181009D01*
X216009523Y-86181009D02*
X216104761Y-86133390D01*
X187445180Y-81011904D02*
X186635657Y-81011904D01*
X186635657Y-81011904D02*
X186540419Y-80964285D01*
X186540419Y-80964285D02*
X186492800Y-80916666D01*
X186492800Y-80916666D02*
X186445180Y-80821428D01*
X186445180Y-80821428D02*
X186445180Y-80630952D01*
X186445180Y-80630952D02*
X186492800Y-80535714D01*
X186492800Y-80535714D02*
X186540419Y-80488095D01*
X186540419Y-80488095D02*
X186635657Y-80440476D01*
X186635657Y-80440476D02*
X187445180Y-80440476D01*
X187445180Y-80059523D02*
X187445180Y-79440476D01*
X187445180Y-79440476D02*
X187064228Y-79773809D01*
X187064228Y-79773809D02*
X187064228Y-79630952D01*
X187064228Y-79630952D02*
X187016609Y-79535714D01*
X187016609Y-79535714D02*
X186968990Y-79488095D01*
X186968990Y-79488095D02*
X186873752Y-79440476D01*
X186873752Y-79440476D02*
X186635657Y-79440476D01*
X186635657Y-79440476D02*
X186540419Y-79488095D01*
X186540419Y-79488095D02*
X186492800Y-79535714D01*
X186492800Y-79535714D02*
X186445180Y-79630952D01*
X186445180Y-79630952D02*
X186445180Y-79916666D01*
X186445180Y-79916666D02*
X186492800Y-80011904D01*
X186492800Y-80011904D02*
X186540419Y-80059523D01*
X202411904Y-79704819D02*
X202411904Y-80514342D01*
X202411904Y-80514342D02*
X202364285Y-80609580D01*
X202364285Y-80609580D02*
X202316666Y-80657200D01*
X202316666Y-80657200D02*
X202221428Y-80704819D01*
X202221428Y-80704819D02*
X202030952Y-80704819D01*
X202030952Y-80704819D02*
X201935714Y-80657200D01*
X201935714Y-80657200D02*
X201888095Y-80609580D01*
X201888095Y-80609580D02*
X201840476Y-80514342D01*
X201840476Y-80514342D02*
X201840476Y-79704819D01*
X201316666Y-80704819D02*
X201126190Y-80704819D01*
X201126190Y-80704819D02*
X201030952Y-80657200D01*
X201030952Y-80657200D02*
X200983333Y-80609580D01*
X200983333Y-80609580D02*
X200888095Y-80466723D01*
X200888095Y-80466723D02*
X200840476Y-80276247D01*
X200840476Y-80276247D02*
X200840476Y-79895295D01*
X200840476Y-79895295D02*
X200888095Y-79800057D01*
X200888095Y-79800057D02*
X200935714Y-79752438D01*
X200935714Y-79752438D02*
X201030952Y-79704819D01*
X201030952Y-79704819D02*
X201221428Y-79704819D01*
X201221428Y-79704819D02*
X201316666Y-79752438D01*
X201316666Y-79752438D02*
X201364285Y-79800057D01*
X201364285Y-79800057D02*
X201411904Y-79895295D01*
X201411904Y-79895295D02*
X201411904Y-80133390D01*
X201411904Y-80133390D02*
X201364285Y-80228628D01*
X201364285Y-80228628D02*
X201316666Y-80276247D01*
X201316666Y-80276247D02*
X201221428Y-80323866D01*
X201221428Y-80323866D02*
X201030952Y-80323866D01*
X201030952Y-80323866D02*
X200935714Y-80276247D01*
X200935714Y-80276247D02*
X200888095Y-80228628D01*
X200888095Y-80228628D02*
X200840476Y-80133390D01*
X232545180Y-90488094D02*
X231735657Y-90488094D01*
X231735657Y-90488094D02*
X231640419Y-90440475D01*
X231640419Y-90440475D02*
X231592800Y-90392856D01*
X231592800Y-90392856D02*
X231545180Y-90297618D01*
X231545180Y-90297618D02*
X231545180Y-90107142D01*
X231545180Y-90107142D02*
X231592800Y-90011904D01*
X231592800Y-90011904D02*
X231640419Y-89964285D01*
X231640419Y-89964285D02*
X231735657Y-89916666D01*
X231735657Y-89916666D02*
X232545180Y-89916666D01*
X232449942Y-89488094D02*
X232497561Y-89440475D01*
X232497561Y-89440475D02*
X232545180Y-89345237D01*
X232545180Y-89345237D02*
X232545180Y-89107142D01*
X232545180Y-89107142D02*
X232497561Y-89011904D01*
X232497561Y-89011904D02*
X232449942Y-88964285D01*
X232449942Y-88964285D02*
X232354704Y-88916666D01*
X232354704Y-88916666D02*
X232259466Y-88916666D01*
X232259466Y-88916666D02*
X232116609Y-88964285D01*
X232116609Y-88964285D02*
X231545180Y-89535713D01*
X231545180Y-89535713D02*
X231545180Y-88916666D01*
X232545180Y-88011904D02*
X232545180Y-88488094D01*
X232545180Y-88488094D02*
X232068990Y-88535713D01*
X232068990Y-88535713D02*
X232116609Y-88488094D01*
X232116609Y-88488094D02*
X232164228Y-88392856D01*
X232164228Y-88392856D02*
X232164228Y-88154761D01*
X232164228Y-88154761D02*
X232116609Y-88059523D01*
X232116609Y-88059523D02*
X232068990Y-88011904D01*
X232068990Y-88011904D02*
X231973752Y-87964285D01*
X231973752Y-87964285D02*
X231735657Y-87964285D01*
X231735657Y-87964285D02*
X231640419Y-88011904D01*
X231640419Y-88011904D02*
X231592800Y-88059523D01*
X231592800Y-88059523D02*
X231545180Y-88154761D01*
X231545180Y-88154761D02*
X231545180Y-88392856D01*
X231545180Y-88392856D02*
X231592800Y-88488094D01*
X231592800Y-88488094D02*
X231640419Y-88535713D01*
X187445180Y-78011904D02*
X186635657Y-78011904D01*
X186635657Y-78011904D02*
X186540419Y-77964285D01*
X186540419Y-77964285D02*
X186492800Y-77916666D01*
X186492800Y-77916666D02*
X186445180Y-77821428D01*
X186445180Y-77821428D02*
X186445180Y-77630952D01*
X186445180Y-77630952D02*
X186492800Y-77535714D01*
X186492800Y-77535714D02*
X186540419Y-77488095D01*
X186540419Y-77488095D02*
X186635657Y-77440476D01*
X186635657Y-77440476D02*
X187445180Y-77440476D01*
X187349942Y-77011904D02*
X187397561Y-76964285D01*
X187397561Y-76964285D02*
X187445180Y-76869047D01*
X187445180Y-76869047D02*
X187445180Y-76630952D01*
X187445180Y-76630952D02*
X187397561Y-76535714D01*
X187397561Y-76535714D02*
X187349942Y-76488095D01*
X187349942Y-76488095D02*
X187254704Y-76440476D01*
X187254704Y-76440476D02*
X187159466Y-76440476D01*
X187159466Y-76440476D02*
X187016609Y-76488095D01*
X187016609Y-76488095D02*
X186445180Y-77059523D01*
X186445180Y-77059523D02*
X186445180Y-76440476D01*
X218438094Y-76704819D02*
X218438094Y-77514342D01*
X218438094Y-77514342D02*
X218390475Y-77609580D01*
X218390475Y-77609580D02*
X218342856Y-77657200D01*
X218342856Y-77657200D02*
X218247618Y-77704819D01*
X218247618Y-77704819D02*
X218057142Y-77704819D01*
X218057142Y-77704819D02*
X217961904Y-77657200D01*
X217961904Y-77657200D02*
X217914285Y-77609580D01*
X217914285Y-77609580D02*
X217866666Y-77514342D01*
X217866666Y-77514342D02*
X217866666Y-76704819D01*
X216866666Y-77704819D02*
X217438094Y-77704819D01*
X217152380Y-77704819D02*
X217152380Y-76704819D01*
X217152380Y-76704819D02*
X217247618Y-76847676D01*
X217247618Y-76847676D02*
X217342856Y-76942914D01*
X217342856Y-76942914D02*
X217438094Y-76990533D01*
X215961904Y-76704819D02*
X216438094Y-76704819D01*
X216438094Y-76704819D02*
X216485713Y-77181009D01*
X216485713Y-77181009D02*
X216438094Y-77133390D01*
X216438094Y-77133390D02*
X216342856Y-77085771D01*
X216342856Y-77085771D02*
X216104761Y-77085771D01*
X216104761Y-77085771D02*
X216009523Y-77133390D01*
X216009523Y-77133390D02*
X215961904Y-77181009D01*
X215961904Y-77181009D02*
X215914285Y-77276247D01*
X215914285Y-77276247D02*
X215914285Y-77514342D01*
X215914285Y-77514342D02*
X215961904Y-77609580D01*
X215961904Y-77609580D02*
X216009523Y-77657200D01*
X216009523Y-77657200D02*
X216104761Y-77704819D01*
X216104761Y-77704819D02*
X216342856Y-77704819D01*
X216342856Y-77704819D02*
X216438094Y-77657200D01*
X216438094Y-77657200D02*
X216485713Y-77609580D01*
X195138094Y-103554819D02*
X195138094Y-104364342D01*
X195138094Y-104364342D02*
X195090475Y-104459580D01*
X195090475Y-104459580D02*
X195042856Y-104507200D01*
X195042856Y-104507200D02*
X194947618Y-104554819D01*
X194947618Y-104554819D02*
X194757142Y-104554819D01*
X194757142Y-104554819D02*
X194661904Y-104507200D01*
X194661904Y-104507200D02*
X194614285Y-104459580D01*
X194614285Y-104459580D02*
X194566666Y-104364342D01*
X194566666Y-104364342D02*
X194566666Y-103554819D01*
X193566666Y-104554819D02*
X194138094Y-104554819D01*
X193852380Y-104554819D02*
X193852380Y-103554819D01*
X193852380Y-103554819D02*
X193947618Y-103697676D01*
X193947618Y-103697676D02*
X194042856Y-103792914D01*
X194042856Y-103792914D02*
X194138094Y-103840533D01*
X193233332Y-103554819D02*
X192614285Y-103554819D01*
X192614285Y-103554819D02*
X192947618Y-103935771D01*
X192947618Y-103935771D02*
X192804761Y-103935771D01*
X192804761Y-103935771D02*
X192709523Y-103983390D01*
X192709523Y-103983390D02*
X192661904Y-104031009D01*
X192661904Y-104031009D02*
X192614285Y-104126247D01*
X192614285Y-104126247D02*
X192614285Y-104364342D01*
X192614285Y-104364342D02*
X192661904Y-104459580D01*
X192661904Y-104459580D02*
X192709523Y-104507200D01*
X192709523Y-104507200D02*
X192804761Y-104554819D01*
X192804761Y-104554819D02*
X193090475Y-104554819D01*
X193090475Y-104554819D02*
X193185713Y-104507200D01*
X193185713Y-104507200D02*
X193233332Y-104459580D01*
X226238094Y-104054819D02*
X226238094Y-104864342D01*
X226238094Y-104864342D02*
X226190475Y-104959580D01*
X226190475Y-104959580D02*
X226142856Y-105007200D01*
X226142856Y-105007200D02*
X226047618Y-105054819D01*
X226047618Y-105054819D02*
X225857142Y-105054819D01*
X225857142Y-105054819D02*
X225761904Y-105007200D01*
X225761904Y-105007200D02*
X225714285Y-104959580D01*
X225714285Y-104959580D02*
X225666666Y-104864342D01*
X225666666Y-104864342D02*
X225666666Y-104054819D01*
X225238094Y-104150057D02*
X225190475Y-104102438D01*
X225190475Y-104102438D02*
X225095237Y-104054819D01*
X225095237Y-104054819D02*
X224857142Y-104054819D01*
X224857142Y-104054819D02*
X224761904Y-104102438D01*
X224761904Y-104102438D02*
X224714285Y-104150057D01*
X224714285Y-104150057D02*
X224666666Y-104245295D01*
X224666666Y-104245295D02*
X224666666Y-104340533D01*
X224666666Y-104340533D02*
X224714285Y-104483390D01*
X224714285Y-104483390D02*
X225285713Y-105054819D01*
X225285713Y-105054819D02*
X224666666Y-105054819D01*
X223809523Y-104054819D02*
X223999999Y-104054819D01*
X223999999Y-104054819D02*
X224095237Y-104102438D01*
X224095237Y-104102438D02*
X224142856Y-104150057D01*
X224142856Y-104150057D02*
X224238094Y-104292914D01*
X224238094Y-104292914D02*
X224285713Y-104483390D01*
X224285713Y-104483390D02*
X224285713Y-104864342D01*
X224285713Y-104864342D02*
X224238094Y-104959580D01*
X224238094Y-104959580D02*
X224190475Y-105007200D01*
X224190475Y-105007200D02*
X224095237Y-105054819D01*
X224095237Y-105054819D02*
X223904761Y-105054819D01*
X223904761Y-105054819D02*
X223809523Y-105007200D01*
X223809523Y-105007200D02*
X223761904Y-104959580D01*
X223761904Y-104959580D02*
X223714285Y-104864342D01*
X223714285Y-104864342D02*
X223714285Y-104626247D01*
X223714285Y-104626247D02*
X223761904Y-104531009D01*
X223761904Y-104531009D02*
X223809523Y-104483390D01*
X223809523Y-104483390D02*
X223904761Y-104435771D01*
X223904761Y-104435771D02*
X224095237Y-104435771D01*
X224095237Y-104435771D02*
X224190475Y-104483390D01*
X224190475Y-104483390D02*
X224238094Y-104531009D01*
X224238094Y-104531009D02*
X224285713Y-104626247D01*
X232545180Y-84488094D02*
X231735657Y-84488094D01*
X231735657Y-84488094D02*
X231640419Y-84440475D01*
X231640419Y-84440475D02*
X231592800Y-84392856D01*
X231592800Y-84392856D02*
X231545180Y-84297618D01*
X231545180Y-84297618D02*
X231545180Y-84107142D01*
X231545180Y-84107142D02*
X231592800Y-84011904D01*
X231592800Y-84011904D02*
X231640419Y-83964285D01*
X231640419Y-83964285D02*
X231735657Y-83916666D01*
X231735657Y-83916666D02*
X232545180Y-83916666D01*
X232449942Y-83488094D02*
X232497561Y-83440475D01*
X232497561Y-83440475D02*
X232545180Y-83345237D01*
X232545180Y-83345237D02*
X232545180Y-83107142D01*
X232545180Y-83107142D02*
X232497561Y-83011904D01*
X232497561Y-83011904D02*
X232449942Y-82964285D01*
X232449942Y-82964285D02*
X232354704Y-82916666D01*
X232354704Y-82916666D02*
X232259466Y-82916666D01*
X232259466Y-82916666D02*
X232116609Y-82964285D01*
X232116609Y-82964285D02*
X231545180Y-83535713D01*
X231545180Y-83535713D02*
X231545180Y-82916666D01*
X232545180Y-82583332D02*
X232545180Y-81964285D01*
X232545180Y-81964285D02*
X232164228Y-82297618D01*
X232164228Y-82297618D02*
X232164228Y-82154761D01*
X232164228Y-82154761D02*
X232116609Y-82059523D01*
X232116609Y-82059523D02*
X232068990Y-82011904D01*
X232068990Y-82011904D02*
X231973752Y-81964285D01*
X231973752Y-81964285D02*
X231735657Y-81964285D01*
X231735657Y-81964285D02*
X231640419Y-82011904D01*
X231640419Y-82011904D02*
X231592800Y-82059523D01*
X231592800Y-82059523D02*
X231545180Y-82154761D01*
X231545180Y-82154761D02*
X231545180Y-82440475D01*
X231545180Y-82440475D02*
X231592800Y-82535713D01*
X231592800Y-82535713D02*
X231640419Y-82583332D01*
X187445180Y-90011904D02*
X186635657Y-90011904D01*
X186635657Y-90011904D02*
X186540419Y-89964285D01*
X186540419Y-89964285D02*
X186492800Y-89916666D01*
X186492800Y-89916666D02*
X186445180Y-89821428D01*
X186445180Y-89821428D02*
X186445180Y-89630952D01*
X186445180Y-89630952D02*
X186492800Y-89535714D01*
X186492800Y-89535714D02*
X186540419Y-89488095D01*
X186540419Y-89488095D02*
X186635657Y-89440476D01*
X186635657Y-89440476D02*
X187445180Y-89440476D01*
X187445180Y-88535714D02*
X187445180Y-88726190D01*
X187445180Y-88726190D02*
X187397561Y-88821428D01*
X187397561Y-88821428D02*
X187349942Y-88869047D01*
X187349942Y-88869047D02*
X187207085Y-88964285D01*
X187207085Y-88964285D02*
X187016609Y-89011904D01*
X187016609Y-89011904D02*
X186635657Y-89011904D01*
X186635657Y-89011904D02*
X186540419Y-88964285D01*
X186540419Y-88964285D02*
X186492800Y-88916666D01*
X186492800Y-88916666D02*
X186445180Y-88821428D01*
X186445180Y-88821428D02*
X186445180Y-88630952D01*
X186445180Y-88630952D02*
X186492800Y-88535714D01*
X186492800Y-88535714D02*
X186540419Y-88488095D01*
X186540419Y-88488095D02*
X186635657Y-88440476D01*
X186635657Y-88440476D02*
X186873752Y-88440476D01*
X186873752Y-88440476D02*
X186968990Y-88488095D01*
X186968990Y-88488095D02*
X187016609Y-88535714D01*
X187016609Y-88535714D02*
X187064228Y-88630952D01*
X187064228Y-88630952D02*
X187064228Y-88821428D01*
X187064228Y-88821428D02*
X187016609Y-88916666D01*
X187016609Y-88916666D02*
X186968990Y-88964285D01*
X186968990Y-88964285D02*
X186873752Y-89011904D01*
X232545180Y-81488094D02*
X231735657Y-81488094D01*
X231735657Y-81488094D02*
X231640419Y-81440475D01*
X231640419Y-81440475D02*
X231592800Y-81392856D01*
X231592800Y-81392856D02*
X231545180Y-81297618D01*
X231545180Y-81297618D02*
X231545180Y-81107142D01*
X231545180Y-81107142D02*
X231592800Y-81011904D01*
X231592800Y-81011904D02*
X231640419Y-80964285D01*
X231640419Y-80964285D02*
X231735657Y-80916666D01*
X231735657Y-80916666D02*
X232545180Y-80916666D01*
X232449942Y-80488094D02*
X232497561Y-80440475D01*
X232497561Y-80440475D02*
X232545180Y-80345237D01*
X232545180Y-80345237D02*
X232545180Y-80107142D01*
X232545180Y-80107142D02*
X232497561Y-80011904D01*
X232497561Y-80011904D02*
X232449942Y-79964285D01*
X232449942Y-79964285D02*
X232354704Y-79916666D01*
X232354704Y-79916666D02*
X232259466Y-79916666D01*
X232259466Y-79916666D02*
X232116609Y-79964285D01*
X232116609Y-79964285D02*
X231545180Y-80535713D01*
X231545180Y-80535713D02*
X231545180Y-79916666D01*
X232449942Y-79535713D02*
X232497561Y-79488094D01*
X232497561Y-79488094D02*
X232545180Y-79392856D01*
X232545180Y-79392856D02*
X232545180Y-79154761D01*
X232545180Y-79154761D02*
X232497561Y-79059523D01*
X232497561Y-79059523D02*
X232449942Y-79011904D01*
X232449942Y-79011904D02*
X232354704Y-78964285D01*
X232354704Y-78964285D02*
X232259466Y-78964285D01*
X232259466Y-78964285D02*
X232116609Y-79011904D01*
X232116609Y-79011904D02*
X231545180Y-79583332D01*
X231545180Y-79583332D02*
X231545180Y-78964285D01*
X202411904Y-73704819D02*
X202411904Y-74514342D01*
X202411904Y-74514342D02*
X202364285Y-74609580D01*
X202364285Y-74609580D02*
X202316666Y-74657200D01*
X202316666Y-74657200D02*
X202221428Y-74704819D01*
X202221428Y-74704819D02*
X202030952Y-74704819D01*
X202030952Y-74704819D02*
X201935714Y-74657200D01*
X201935714Y-74657200D02*
X201888095Y-74609580D01*
X201888095Y-74609580D02*
X201840476Y-74514342D01*
X201840476Y-74514342D02*
X201840476Y-73704819D01*
X201459523Y-73704819D02*
X200792857Y-73704819D01*
X200792857Y-73704819D02*
X201221428Y-74704819D01*
D14*
%TO.C,U8*%
X199502000Y-76023000D02*
X197898000Y-76023000D01*
X197898000Y-78477000D02*
X199502000Y-78477000D01*
%TO.C,U20*%
X230502000Y-73023000D02*
X228898000Y-73023000D01*
X228898000Y-75477000D02*
X230502000Y-75477000D01*
%TO.C,U5*%
X188498000Y-87477000D02*
X190102000Y-87477000D01*
X190102000Y-85023000D02*
X188498000Y-85023000D01*
%TO.C,U12*%
X199502000Y-88023000D02*
X197898000Y-88023000D01*
X197898000Y-90477000D02*
X199502000Y-90477000D01*
%TO.C,U21*%
X230502000Y-76023000D02*
X228898000Y-76023000D01*
X228898000Y-78477000D02*
X230502000Y-78477000D01*
D13*
%TO.C,J1*%
X191550000Y-72350000D02*
X191550000Y-70900000D01*
X191550000Y-70900000D02*
X196450000Y-70900000D01*
X196450000Y-70900000D02*
X196450000Y-72350000D01*
X191550000Y-99100000D02*
X191550000Y-97650000D01*
X196450000Y-99100000D02*
X191550000Y-99100000D01*
X196450000Y-97650000D02*
X196450000Y-99100000D01*
D14*
%TO.C,U16*%
X219498000Y-81477000D02*
X221102000Y-81477000D01*
X221102000Y-79023000D02*
X219498000Y-79023000D01*
%TO.C,U14*%
X219498000Y-75477000D02*
X221102000Y-75477000D01*
X221102000Y-73023000D02*
X219498000Y-73023000D01*
%TO.C,U17*%
X219498000Y-84477000D02*
X221102000Y-84477000D01*
X221102000Y-82023000D02*
X219498000Y-82023000D01*
%TO.C,U10*%
X199502000Y-82023000D02*
X197898000Y-82023000D01*
X197898000Y-84477000D02*
X199502000Y-84477000D01*
%TO.C,U19*%
X219498000Y-90477000D02*
X221102000Y-90477000D01*
X221102000Y-88023000D02*
X219498000Y-88023000D01*
%TO.C,U1*%
X188498000Y-75477000D02*
X190102000Y-75477000D01*
X190102000Y-73023000D02*
X188498000Y-73023000D01*
%TO.C,U11*%
X199502000Y-85023000D02*
X197898000Y-85023000D01*
X197898000Y-87477000D02*
X199502000Y-87477000D01*
%TO.C,U4*%
X188498000Y-84477000D02*
X190102000Y-84477000D01*
X190102000Y-82023000D02*
X188498000Y-82023000D01*
D13*
%TO.C,J2*%
X222550000Y-72350000D02*
X222550000Y-70900000D01*
X222550000Y-70900000D02*
X227450000Y-70900000D01*
X227450000Y-70900000D02*
X227450000Y-72350000D01*
X222550000Y-99100000D02*
X222550000Y-97650000D01*
X227450000Y-99100000D02*
X222550000Y-99100000D01*
X227450000Y-97650000D02*
X227450000Y-99100000D01*
D14*
%TO.C,U24*%
X230502000Y-85023000D02*
X228898000Y-85023000D01*
X228898000Y-87477000D02*
X230502000Y-87477000D01*
%TO.C,U18*%
X219498000Y-87477000D02*
X221102000Y-87477000D01*
X221102000Y-85023000D02*
X219498000Y-85023000D01*
%TO.C,U3*%
X188498000Y-81477000D02*
X190102000Y-81477000D01*
X190102000Y-79023000D02*
X188498000Y-79023000D01*
%TO.C,U9*%
X199502000Y-79023000D02*
X197898000Y-79023000D01*
X197898000Y-81477000D02*
X199502000Y-81477000D01*
%TO.C,U25*%
X230502000Y-88023000D02*
X228898000Y-88023000D01*
X228898000Y-90477000D02*
X230502000Y-90477000D01*
%TO.C,U2*%
X188498000Y-78477000D02*
X190102000Y-78477000D01*
X190102000Y-76023000D02*
X188498000Y-76023000D01*
%TO.C,U15*%
X219498000Y-78477000D02*
X221102000Y-78477000D01*
X221102000Y-76023000D02*
X219498000Y-76023000D01*
D15*
%TO.C,REF\u002A\u002A*%
X189436725Y-142674619D02*
X189557261Y-142719393D01*
X189607388Y-142753034D01*
X189658152Y-142801236D01*
X189694362Y-142862551D01*
X189718393Y-142946024D01*
X189732618Y-143060697D01*
X189739412Y-143215613D01*
X189741149Y-143419814D01*
X189740809Y-143525341D01*
X189739101Y-143669541D01*
X189736201Y-143784620D01*
X189732384Y-143860822D01*
X189727925Y-143888391D01*
X189698909Y-143879272D01*
X189640339Y-143854509D01*
X189638581Y-143853707D01*
X189608167Y-143837785D01*
X189587712Y-143815938D01*
X189575240Y-143777672D01*
X189568777Y-143712495D01*
X189566348Y-143609913D01*
X189565977Y-143459433D01*
X189565229Y-143363974D01*
X189557256Y-143184571D01*
X189538998Y-143053163D01*
X189508526Y-142962859D01*
X189463912Y-142906767D01*
X189403226Y-142877994D01*
X189394807Y-142875989D01*
X189281139Y-142874423D01*
X189192492Y-142925348D01*
X189131265Y-143027445D01*
X189120346Y-143056961D01*
X189095458Y-143122283D01*
X189082854Y-143152300D01*
X189056969Y-143148164D01*
X189000439Y-143125717D01*
X188947715Y-143088647D01*
X188923678Y-143018587D01*
X188930847Y-142968406D01*
X188974897Y-142866618D01*
X189046123Y-142771235D01*
X189129415Y-142705269D01*
X189164310Y-142690018D01*
X189296443Y-142664521D01*
X189436725Y-142674619D01*
G36*
X189436725Y-142674619D02*
G01*
X189557261Y-142719393D01*
X189607388Y-142753034D01*
X189658152Y-142801236D01*
X189694362Y-142862551D01*
X189718393Y-142946024D01*
X189732618Y-143060697D01*
X189739412Y-143215613D01*
X189741149Y-143419814D01*
X189740809Y-143525341D01*
X189739101Y-143669541D01*
X189736201Y-143784620D01*
X189732384Y-143860822D01*
X189727925Y-143888391D01*
X189698909Y-143879272D01*
X189640339Y-143854509D01*
X189638581Y-143853707D01*
X189608167Y-143837785D01*
X189587712Y-143815938D01*
X189575240Y-143777672D01*
X189568777Y-143712495D01*
X189566348Y-143609913D01*
X189565977Y-143459433D01*
X189565229Y-143363974D01*
X189557256Y-143184571D01*
X189538998Y-143053163D01*
X189508526Y-142962859D01*
X189463912Y-142906767D01*
X189403226Y-142877994D01*
X189394807Y-142875989D01*
X189281139Y-142874423D01*
X189192492Y-142925348D01*
X189131265Y-143027445D01*
X189120346Y-143056961D01*
X189095458Y-143122283D01*
X189082854Y-143152300D01*
X189056969Y-143148164D01*
X189000439Y-143125717D01*
X188947715Y-143088647D01*
X188923678Y-143018587D01*
X188930847Y-142968406D01*
X188974897Y-142866618D01*
X189046123Y-142771235D01*
X189129415Y-142705269D01*
X189164310Y-142690018D01*
X189296443Y-142664521D01*
X189436725Y-142674619D01*
G37*
X197378487Y-142607689D02*
X197514848Y-142671770D01*
X197626598Y-142782584D01*
X197649761Y-142817273D01*
X197668973Y-142856590D01*
X197682598Y-142906145D01*
X197691877Y-142975568D01*
X197698050Y-143074490D01*
X197702357Y-143212539D01*
X197706038Y-143399346D01*
X197715180Y-143917542D01*
X197638383Y-143888344D01*
X197568068Y-143861520D01*
X197515424Y-143835706D01*
X197481060Y-143802431D01*
X197461093Y-143751510D01*
X197451639Y-143672761D01*
X197448814Y-143555999D01*
X197448736Y-143391042D01*
X197448336Y-143259558D01*
X197445951Y-143133394D01*
X197440259Y-143047223D01*
X197429961Y-142990672D01*
X197413755Y-142953370D01*
X197390345Y-142924943D01*
X197332793Y-142884827D01*
X197236112Y-142869706D01*
X197140465Y-142907917D01*
X197134152Y-142912810D01*
X197114477Y-142935413D01*
X197099963Y-142971664D01*
X197089394Y-143030511D01*
X197081555Y-143120901D01*
X197075227Y-143251779D01*
X197069195Y-143432095D01*
X197054598Y-143914907D01*
X196930517Y-143859283D01*
X196806437Y-143803659D01*
X196806437Y-143362851D01*
X196806951Y-143243098D01*
X196811380Y-143076506D01*
X196822594Y-142952468D01*
X196843272Y-142860987D01*
X196876093Y-142792066D01*
X196923736Y-142735707D01*
X196988877Y-142681914D01*
X197082571Y-142627719D01*
X197230175Y-142592339D01*
X197378487Y-142607689D01*
G36*
X197378487Y-142607689D02*
G01*
X197514848Y-142671770D01*
X197626598Y-142782584D01*
X197649761Y-142817273D01*
X197668973Y-142856590D01*
X197682598Y-142906145D01*
X197691877Y-142975568D01*
X197698050Y-143074490D01*
X197702357Y-143212539D01*
X197706038Y-143399346D01*
X197715180Y-143917542D01*
X197638383Y-143888344D01*
X197568068Y-143861520D01*
X197515424Y-143835706D01*
X197481060Y-143802431D01*
X197461093Y-143751510D01*
X197451639Y-143672761D01*
X197448814Y-143555999D01*
X197448736Y-143391042D01*
X197448336Y-143259558D01*
X197445951Y-143133394D01*
X197440259Y-143047223D01*
X197429961Y-142990672D01*
X197413755Y-142953370D01*
X197390345Y-142924943D01*
X197332793Y-142884827D01*
X197236112Y-142869706D01*
X197140465Y-142907917D01*
X197134152Y-142912810D01*
X197114477Y-142935413D01*
X197099963Y-142971664D01*
X197089394Y-143030511D01*
X197081555Y-143120901D01*
X197075227Y-143251779D01*
X197069195Y-143432095D01*
X197054598Y-143914907D01*
X196930517Y-143859283D01*
X196806437Y-143803659D01*
X196806437Y-143362851D01*
X196806951Y-143243098D01*
X196811380Y-143076506D01*
X196822594Y-142952468D01*
X196843272Y-142860987D01*
X196876093Y-142792066D01*
X196923736Y-142735707D01*
X196988877Y-142681914D01*
X197082571Y-142627719D01*
X197230175Y-142592339D01*
X197378487Y-142607689D01*
G37*
X193710872Y-142705536D02*
X193720090Y-142710638D01*
X193795381Y-142769080D01*
X193862698Y-142844215D01*
X193874439Y-142861196D01*
X193896883Y-142900825D01*
X193912918Y-142947858D01*
X193923945Y-143012492D01*
X193931365Y-143104923D01*
X193936579Y-143235349D01*
X193940989Y-143413965D01*
X193941614Y-143444162D01*
X193943620Y-143639941D01*
X193940792Y-143778603D01*
X193933088Y-143861103D01*
X193920466Y-143888391D01*
X193882267Y-143880220D01*
X193817374Y-143855463D01*
X193802094Y-143848223D01*
X193778227Y-143831835D01*
X193761769Y-143804893D01*
X193751005Y-143757833D01*
X193744219Y-143681088D01*
X193739693Y-143565095D01*
X193735713Y-143400287D01*
X193734622Y-143352112D01*
X193730407Y-143199960D01*
X193724936Y-143093476D01*
X193716554Y-143022565D01*
X193703606Y-142977129D01*
X193684439Y-142947072D01*
X193657398Y-142922296D01*
X193577337Y-142878861D01*
X193478846Y-142870498D01*
X193390719Y-142903734D01*
X193327314Y-142972548D01*
X193302988Y-143070920D01*
X193302311Y-143097658D01*
X193289024Y-143146065D01*
X193249796Y-143153450D01*
X193172983Y-143124624D01*
X193155192Y-143115378D01*
X193107109Y-143061006D01*
X193106157Y-142980161D01*
X193151968Y-142868352D01*
X193193990Y-142807419D01*
X193301435Y-142720859D01*
X193434057Y-142671920D01*
X193575867Y-142665260D01*
X193710872Y-142705536D01*
G36*
X193710872Y-142705536D02*
G01*
X193720090Y-142710638D01*
X193795381Y-142769080D01*
X193862698Y-142844215D01*
X193874439Y-142861196D01*
X193896883Y-142900825D01*
X193912918Y-142947858D01*
X193923945Y-143012492D01*
X193931365Y-143104923D01*
X193936579Y-143235349D01*
X193940989Y-143413965D01*
X193941614Y-143444162D01*
X193943620Y-143639941D01*
X193940792Y-143778603D01*
X193933088Y-143861103D01*
X193920466Y-143888391D01*
X193882267Y-143880220D01*
X193817374Y-143855463D01*
X193802094Y-143848223D01*
X193778227Y-143831835D01*
X193761769Y-143804893D01*
X193751005Y-143757833D01*
X193744219Y-143681088D01*
X193739693Y-143565095D01*
X193735713Y-143400287D01*
X193734622Y-143352112D01*
X193730407Y-143199960D01*
X193724936Y-143093476D01*
X193716554Y-143022565D01*
X193703606Y-142977129D01*
X193684439Y-142947072D01*
X193657398Y-142922296D01*
X193577337Y-142878861D01*
X193478846Y-142870498D01*
X193390719Y-142903734D01*
X193327314Y-142972548D01*
X193302988Y-143070920D01*
X193302311Y-143097658D01*
X193289024Y-143146065D01*
X193249796Y-143153450D01*
X193172983Y-143124624D01*
X193155192Y-143115378D01*
X193107109Y-143061006D01*
X193106157Y-142980161D01*
X193151968Y-142868352D01*
X193193990Y-142807419D01*
X193301435Y-142720859D01*
X193434057Y-142671920D01*
X193575867Y-142665260D01*
X193710872Y-142705536D01*
G37*
X191792410Y-142670970D02*
X191856442Y-142696066D01*
X191930805Y-142729947D01*
X191930805Y-143708727D01*
X191838415Y-143801117D01*
X191817310Y-143821835D01*
X191758847Y-143867885D01*
X191699886Y-143882801D01*
X191612150Y-143875934D01*
X191576429Y-143871494D01*
X191484301Y-143862102D01*
X191419885Y-143858361D01*
X191400778Y-143858933D01*
X191322390Y-143865126D01*
X191227620Y-143875934D01*
X191197298Y-143879647D01*
X191120911Y-143881107D01*
X191065022Y-143858047D01*
X191001355Y-143801117D01*
X190908965Y-143708727D01*
X190908965Y-143185455D01*
X190909685Y-143030821D01*
X190911929Y-142883391D01*
X190915421Y-142766653D01*
X190919876Y-142689840D01*
X190925013Y-142662184D01*
X190926090Y-142662258D01*
X190963407Y-142676019D01*
X191026457Y-142706344D01*
X191111854Y-142750505D01*
X191119893Y-143209965D01*
X191127931Y-143669425D01*
X191303103Y-143669425D01*
X191311092Y-143165805D01*
X191313624Y-143028904D01*
X191317249Y-142882579D01*
X191321177Y-142766411D01*
X191325080Y-142689809D01*
X191328632Y-142662184D01*
X191329653Y-142662281D01*
X191365051Y-142672443D01*
X191430126Y-142694235D01*
X191522069Y-142726287D01*
X191522516Y-143168661D01*
X191522964Y-143245507D01*
X191526069Y-143394834D01*
X191531622Y-143519544D01*
X191539033Y-143608379D01*
X191547714Y-143650083D01*
X191578771Y-143672389D01*
X191642152Y-143679278D01*
X191711839Y-143669425D01*
X191719827Y-143165805D01*
X191722686Y-143037828D01*
X191728614Y-142886348D01*
X191736365Y-142767530D01*
X191745343Y-142689950D01*
X191754948Y-142662184D01*
X191792410Y-142670970D01*
G36*
X191792410Y-142670970D02*
G01*
X191856442Y-142696066D01*
X191930805Y-142729947D01*
X191930805Y-143708727D01*
X191838415Y-143801117D01*
X191817310Y-143821835D01*
X191758847Y-143867885D01*
X191699886Y-143882801D01*
X191612150Y-143875934D01*
X191576429Y-143871494D01*
X191484301Y-143862102D01*
X191419885Y-143858361D01*
X191400778Y-143858933D01*
X191322390Y-143865126D01*
X191227620Y-143875934D01*
X191197298Y-143879647D01*
X191120911Y-143881107D01*
X191065022Y-143858047D01*
X191001355Y-143801117D01*
X190908965Y-143708727D01*
X190908965Y-143185455D01*
X190909685Y-143030821D01*
X190911929Y-142883391D01*
X190915421Y-142766653D01*
X190919876Y-142689840D01*
X190925013Y-142662184D01*
X190926090Y-142662258D01*
X190963407Y-142676019D01*
X191026457Y-142706344D01*
X191111854Y-142750505D01*
X191119893Y-143209965D01*
X191127931Y-143669425D01*
X191303103Y-143669425D01*
X191311092Y-143165805D01*
X191313624Y-143028904D01*
X191317249Y-142882579D01*
X191321177Y-142766411D01*
X191325080Y-142689809D01*
X191328632Y-142662184D01*
X191329653Y-142662281D01*
X191365051Y-142672443D01*
X191430126Y-142694235D01*
X191522069Y-142726287D01*
X191522516Y-143168661D01*
X191522964Y-143245507D01*
X191526069Y-143394834D01*
X191531622Y-143519544D01*
X191539033Y-143608379D01*
X191547714Y-143650083D01*
X191578771Y-143672389D01*
X191642152Y-143679278D01*
X191711839Y-143669425D01*
X191719827Y-143165805D01*
X191722686Y-143037828D01*
X191728614Y-142886348D01*
X191736365Y-142767530D01*
X191745343Y-142689950D01*
X191754948Y-142662184D01*
X191792410Y-142670970D01*
G37*
X195864885Y-142268997D02*
X195959770Y-142309020D01*
X195959770Y-143098706D01*
X195959769Y-143107920D01*
X195959377Y-143315083D01*
X195958329Y-143501432D01*
X195956722Y-143659453D01*
X195954655Y-143781630D01*
X195952225Y-143860448D01*
X195949529Y-143888391D01*
X195948475Y-143888297D01*
X195912647Y-143878144D01*
X195847345Y-143856339D01*
X195755402Y-143824288D01*
X195755402Y-143412991D01*
X195754818Y-143251385D01*
X195752104Y-143134177D01*
X195745858Y-143054415D01*
X195734680Y-143001531D01*
X195717168Y-142964957D01*
X195691922Y-142934123D01*
X195674710Y-142917725D01*
X195581636Y-142872307D01*
X195479051Y-142876328D01*
X195385043Y-142930032D01*
X195371358Y-142943359D01*
X195349439Y-142971032D01*
X195334440Y-143007614D01*
X195325053Y-143063000D01*
X195319968Y-143147088D01*
X195317877Y-143269773D01*
X195317471Y-143440951D01*
X195317276Y-143527769D01*
X195316010Y-143670565D01*
X195313761Y-143784923D01*
X195310758Y-143860860D01*
X195307230Y-143888391D01*
X195306176Y-143888297D01*
X195270348Y-143878144D01*
X195205046Y-143856339D01*
X195113103Y-143824288D01*
X195113149Y-143411109D01*
X195113218Y-143374326D01*
X195117081Y-143182580D01*
X195128950Y-143037586D01*
X195151725Y-142929510D01*
X195188307Y-142848519D01*
X195241595Y-142784778D01*
X195314490Y-142728455D01*
X195385586Y-142693199D01*
X195499255Y-142665946D01*
X195611060Y-142664398D01*
X195697011Y-142690910D01*
X195703473Y-142694571D01*
X195723401Y-142694179D01*
X195737019Y-142663506D01*
X195746846Y-142593188D01*
X195755402Y-142473857D01*
X195770000Y-142228973D01*
X195864885Y-142268997D01*
G36*
X195864885Y-142268997D02*
G01*
X195959770Y-142309020D01*
X195959770Y-143098706D01*
X195959769Y-143107920D01*
X195959377Y-143315083D01*
X195958329Y-143501432D01*
X195956722Y-143659453D01*
X195954655Y-143781630D01*
X195952225Y-143860448D01*
X195949529Y-143888391D01*
X195948475Y-143888297D01*
X195912647Y-143878144D01*
X195847345Y-143856339D01*
X195755402Y-143824288D01*
X195755402Y-143412991D01*
X195754818Y-143251385D01*
X195752104Y-143134177D01*
X195745858Y-143054415D01*
X195734680Y-143001531D01*
X195717168Y-142964957D01*
X195691922Y-142934123D01*
X195674710Y-142917725D01*
X195581636Y-142872307D01*
X195479051Y-142876328D01*
X195385043Y-142930032D01*
X195371358Y-142943359D01*
X195349439Y-142971032D01*
X195334440Y-143007614D01*
X195325053Y-143063000D01*
X195319968Y-143147088D01*
X195317877Y-143269773D01*
X195317471Y-143440951D01*
X195317276Y-143527769D01*
X195316010Y-143670565D01*
X195313761Y-143784923D01*
X195310758Y-143860860D01*
X195307230Y-143888391D01*
X195306176Y-143888297D01*
X195270348Y-143878144D01*
X195205046Y-143856339D01*
X195113103Y-143824288D01*
X195113149Y-143411109D01*
X195113218Y-143374326D01*
X195117081Y-143182580D01*
X195128950Y-143037586D01*
X195151725Y-142929510D01*
X195188307Y-142848519D01*
X195241595Y-142784778D01*
X195314490Y-142728455D01*
X195385586Y-142693199D01*
X195499255Y-142665946D01*
X195611060Y-142664398D01*
X195697011Y-142690910D01*
X195703473Y-142694571D01*
X195723401Y-142694179D01*
X195737019Y-142663506D01*
X195746846Y-142593188D01*
X195755402Y-142473857D01*
X195770000Y-142228973D01*
X195864885Y-142268997D01*
G37*
X201068965Y-143246092D02*
X201068938Y-143277744D01*
X201067355Y-143418918D01*
X201061916Y-143517285D01*
X201050643Y-143585990D01*
X201031561Y-143638181D01*
X201002694Y-143687004D01*
X200995592Y-143697135D01*
X200920444Y-143777012D01*
X200834820Y-143837253D01*
X200790852Y-143856802D01*
X200632861Y-143889408D01*
X200476613Y-143868317D01*
X200332618Y-143796249D01*
X200211385Y-143675922D01*
X200201150Y-143659803D01*
X200167847Y-143566205D01*
X200145405Y-143435879D01*
X200134516Y-143285371D01*
X200135740Y-143146147D01*
X200430384Y-143146147D01*
X200432706Y-143339020D01*
X200433639Y-143351433D01*
X200447242Y-143457857D01*
X200471465Y-143525346D01*
X200512365Y-143571584D01*
X200580941Y-143614895D01*
X200648764Y-143617172D01*
X200718621Y-143567241D01*
X200730771Y-143554102D01*
X200754575Y-143514785D01*
X200768628Y-143457674D01*
X200775313Y-143369256D01*
X200777011Y-143236019D01*
X200774101Y-143111222D01*
X200759582Y-142992326D01*
X200729610Y-142917184D01*
X200680589Y-142877893D01*
X200608924Y-142866552D01*
X200581632Y-142868807D01*
X200505176Y-142910160D01*
X200454650Y-143002900D01*
X200430384Y-143146147D01*
X200135740Y-143146147D01*
X200135871Y-143131227D01*
X200150161Y-142989992D01*
X200178075Y-142878213D01*
X200213949Y-142803766D01*
X200314939Y-142687968D01*
X200451779Y-142616015D01*
X200619283Y-142591281D01*
X200664019Y-142592619D01*
X200795758Y-142620008D01*
X200903968Y-142689007D01*
X201003276Y-142807864D01*
X201009184Y-142816681D01*
X201035921Y-142864108D01*
X201053312Y-142917714D01*
X201063312Y-142990549D01*
X201067878Y-143095659D01*
X201068893Y-143236019D01*
X201068965Y-143246092D01*
G36*
X201068965Y-143246092D02*
G01*
X201068938Y-143277744D01*
X201067355Y-143418918D01*
X201061916Y-143517285D01*
X201050643Y-143585990D01*
X201031561Y-143638181D01*
X201002694Y-143687004D01*
X200995592Y-143697135D01*
X200920444Y-143777012D01*
X200834820Y-143837253D01*
X200790852Y-143856802D01*
X200632861Y-143889408D01*
X200476613Y-143868317D01*
X200332618Y-143796249D01*
X200211385Y-143675922D01*
X200201150Y-143659803D01*
X200167847Y-143566205D01*
X200145405Y-143435879D01*
X200134516Y-143285371D01*
X200135740Y-143146147D01*
X200430384Y-143146147D01*
X200432706Y-143339020D01*
X200433639Y-143351433D01*
X200447242Y-143457857D01*
X200471465Y-143525346D01*
X200512365Y-143571584D01*
X200580941Y-143614895D01*
X200648764Y-143617172D01*
X200718621Y-143567241D01*
X200730771Y-143554102D01*
X200754575Y-143514785D01*
X200768628Y-143457674D01*
X200775313Y-143369256D01*
X200777011Y-143236019D01*
X200774101Y-143111222D01*
X200759582Y-142992326D01*
X200729610Y-142917184D01*
X200680589Y-142877893D01*
X200608924Y-142866552D01*
X200581632Y-142868807D01*
X200505176Y-142910160D01*
X200454650Y-143002900D01*
X200430384Y-143146147D01*
X200135740Y-143146147D01*
X200135871Y-143131227D01*
X200150161Y-142989992D01*
X200178075Y-142878213D01*
X200213949Y-142803766D01*
X200314939Y-142687968D01*
X200451779Y-142616015D01*
X200619283Y-142591281D01*
X200664019Y-142592619D01*
X200795758Y-142620008D01*
X200903968Y-142689007D01*
X201003276Y-142807864D01*
X201009184Y-142816681D01*
X201035921Y-142864108D01*
X201053312Y-142917714D01*
X201063312Y-142990549D01*
X201067878Y-143095659D01*
X201068893Y-143236019D01*
X201068965Y-143246092D01*
G37*
X188748313Y-143281136D02*
X188747744Y-143358946D01*
X188740612Y-143512254D01*
X188721948Y-143624441D01*
X188687537Y-143707554D01*
X188633162Y-143773641D01*
X188554610Y-143834747D01*
X188504630Y-143862535D01*
X188424513Y-143881251D01*
X188311970Y-143879774D01*
X188249050Y-143873845D01*
X188173153Y-143855742D01*
X188112487Y-143816391D01*
X188041912Y-143743066D01*
X188032482Y-143732356D01*
X187969034Y-143649938D01*
X187938762Y-143578156D01*
X187931034Y-143493034D01*
X187931034Y-143367946D01*
X188018447Y-143400940D01*
X188082175Y-143439509D01*
X188137567Y-143530008D01*
X188149131Y-143558983D01*
X188213788Y-143641041D01*
X188301804Y-143682347D01*
X188397637Y-143678633D01*
X188485747Y-143625632D01*
X188516028Y-143592582D01*
X188543489Y-143542720D01*
X188534899Y-143497416D01*
X188485463Y-143450790D01*
X188390389Y-143396958D01*
X188244885Y-143330039D01*
X187945632Y-143199056D01*
X187937691Y-143069298D01*
X187940676Y-142986649D01*
X188135652Y-142986649D01*
X188150453Y-143037815D01*
X188217797Y-143092442D01*
X188340027Y-143154597D01*
X188360253Y-143163601D01*
X188456970Y-143205493D01*
X188529334Y-143234958D01*
X188562961Y-143246092D01*
X188568056Y-143237896D01*
X188570101Y-143187853D01*
X188562812Y-143107414D01*
X188544452Y-143028753D01*
X188487188Y-142929651D01*
X188404524Y-142873808D01*
X188305784Y-142866250D01*
X188200289Y-142912000D01*
X188171053Y-142934876D01*
X188135652Y-142986649D01*
X187940676Y-142986649D01*
X187941196Y-142972255D01*
X187985336Y-142849617D01*
X188041050Y-142782034D01*
X188156561Y-142706540D01*
X188293588Y-142668403D01*
X188435237Y-142671422D01*
X188564617Y-142719393D01*
X188593099Y-142737813D01*
X188658428Y-142794811D01*
X188703106Y-142866916D01*
X188730641Y-142964853D01*
X188744541Y-143099351D01*
X188746378Y-143187853D01*
X188748313Y-143281136D01*
G36*
X188748313Y-143281136D02*
G01*
X188747744Y-143358946D01*
X188740612Y-143512254D01*
X188721948Y-143624441D01*
X188687537Y-143707554D01*
X188633162Y-143773641D01*
X188554610Y-143834747D01*
X188504630Y-143862535D01*
X188424513Y-143881251D01*
X188311970Y-143879774D01*
X188249050Y-143873845D01*
X188173153Y-143855742D01*
X188112487Y-143816391D01*
X188041912Y-143743066D01*
X188032482Y-143732356D01*
X187969034Y-143649938D01*
X187938762Y-143578156D01*
X187931034Y-143493034D01*
X187931034Y-143367946D01*
X188018447Y-143400940D01*
X188082175Y-143439509D01*
X188137567Y-143530008D01*
X188149131Y-143558983D01*
X188213788Y-143641041D01*
X188301804Y-143682347D01*
X188397637Y-143678633D01*
X188485747Y-143625632D01*
X188516028Y-143592582D01*
X188543489Y-143542720D01*
X188534899Y-143497416D01*
X188485463Y-143450790D01*
X188390389Y-143396958D01*
X188244885Y-143330039D01*
X187945632Y-143199056D01*
X187937691Y-143069298D01*
X187940676Y-142986649D01*
X188135652Y-142986649D01*
X188150453Y-143037815D01*
X188217797Y-143092442D01*
X188340027Y-143154597D01*
X188360253Y-143163601D01*
X188456970Y-143205493D01*
X188529334Y-143234958D01*
X188562961Y-143246092D01*
X188568056Y-143237896D01*
X188570101Y-143187853D01*
X188562812Y-143107414D01*
X188544452Y-143028753D01*
X188487188Y-142929651D01*
X188404524Y-142873808D01*
X188305784Y-142866250D01*
X188200289Y-142912000D01*
X188171053Y-142934876D01*
X188135652Y-142986649D01*
X187940676Y-142986649D01*
X187941196Y-142972255D01*
X187985336Y-142849617D01*
X188041050Y-142782034D01*
X188156561Y-142706540D01*
X188293588Y-142668403D01*
X188435237Y-142671422D01*
X188564617Y-142719393D01*
X188593099Y-142737813D01*
X188658428Y-142794811D01*
X188703106Y-142866916D01*
X188730641Y-142964853D01*
X188744541Y-143099351D01*
X188746378Y-143187853D01*
X188748313Y-143281136D01*
G37*
X192952553Y-143275287D02*
X192950219Y-143389135D01*
X192933739Y-143544320D01*
X192897883Y-143660612D01*
X192838455Y-143749411D01*
X192751257Y-143822119D01*
X192668195Y-143864150D01*
X192528709Y-143887538D01*
X192389412Y-143861965D01*
X192263510Y-143790694D01*
X192164210Y-143676991D01*
X192152219Y-143656024D01*
X192136384Y-143619291D01*
X192124638Y-143572415D01*
X192116378Y-143507355D01*
X192110998Y-143416070D01*
X192107892Y-143290519D01*
X192107797Y-143279379D01*
X192310345Y-143279379D01*
X192311035Y-143385644D01*
X192315400Y-143481762D01*
X192326192Y-143543811D01*
X192346126Y-143585502D01*
X192377916Y-143620543D01*
X192385364Y-143627279D01*
X192481060Y-143676992D01*
X192582312Y-143671905D01*
X192676614Y-143612362D01*
X192704694Y-143581514D01*
X192728196Y-143540618D01*
X192741322Y-143484080D01*
X192747030Y-143397657D01*
X192748276Y-143267106D01*
X192747661Y-143167487D01*
X192743407Y-143070251D01*
X192732682Y-143007502D01*
X192712707Y-142965382D01*
X192680704Y-142930032D01*
X192661905Y-142914114D01*
X192564492Y-142871235D01*
X192462437Y-142877985D01*
X192373825Y-142934123D01*
X192354749Y-142956382D01*
X192331486Y-142998293D01*
X192318036Y-143056822D01*
X192311841Y-143145880D01*
X192310345Y-143279379D01*
X192107797Y-143279379D01*
X192106457Y-143122661D01*
X192106086Y-142904455D01*
X192105977Y-142227072D01*
X192200862Y-142266819D01*
X192225949Y-142277699D01*
X192265881Y-142302268D01*
X192288739Y-142339475D01*
X192301301Y-142404541D01*
X192310345Y-142512687D01*
X192318605Y-142609788D01*
X192329523Y-142673535D01*
X192345165Y-142697323D01*
X192368736Y-142690943D01*
X192428801Y-142668525D01*
X192536145Y-142662967D01*
X192651624Y-142683728D01*
X192751257Y-142728455D01*
X192806072Y-142769856D01*
X192876452Y-142850632D01*
X192921528Y-142954195D01*
X192945496Y-143091947D01*
X192952239Y-143267106D01*
X192952553Y-143275287D01*
G36*
X192952553Y-143275287D02*
G01*
X192950219Y-143389135D01*
X192933739Y-143544320D01*
X192897883Y-143660612D01*
X192838455Y-143749411D01*
X192751257Y-143822119D01*
X192668195Y-143864150D01*
X192528709Y-143887538D01*
X192389412Y-143861965D01*
X192263510Y-143790694D01*
X192164210Y-143676991D01*
X192152219Y-143656024D01*
X192136384Y-143619291D01*
X192124638Y-143572415D01*
X192116378Y-143507355D01*
X192110998Y-143416070D01*
X192107892Y-143290519D01*
X192107797Y-143279379D01*
X192310345Y-143279379D01*
X192311035Y-143385644D01*
X192315400Y-143481762D01*
X192326192Y-143543811D01*
X192346126Y-143585502D01*
X192377916Y-143620543D01*
X192385364Y-143627279D01*
X192481060Y-143676992D01*
X192582312Y-143671905D01*
X192676614Y-143612362D01*
X192704694Y-143581514D01*
X192728196Y-143540618D01*
X192741322Y-143484080D01*
X192747030Y-143397657D01*
X192748276Y-143267106D01*
X192747661Y-143167487D01*
X192743407Y-143070251D01*
X192732682Y-143007502D01*
X192712707Y-142965382D01*
X192680704Y-142930032D01*
X192661905Y-142914114D01*
X192564492Y-142871235D01*
X192462437Y-142877985D01*
X192373825Y-142934123D01*
X192354749Y-142956382D01*
X192331486Y-142998293D01*
X192318036Y-143056822D01*
X192311841Y-143145880D01*
X192310345Y-143279379D01*
X192107797Y-143279379D01*
X192106457Y-143122661D01*
X192106086Y-142904455D01*
X192105977Y-142227072D01*
X192200862Y-142266819D01*
X192225949Y-142277699D01*
X192265881Y-142302268D01*
X192288739Y-142339475D01*
X192301301Y-142404541D01*
X192310345Y-142512687D01*
X192318605Y-142609788D01*
X192329523Y-142673535D01*
X192345165Y-142697323D01*
X192368736Y-142690943D01*
X192428801Y-142668525D01*
X192536145Y-142662967D01*
X192651624Y-142683728D01*
X192751257Y-142728455D01*
X192806072Y-142769856D01*
X192876452Y-142850632D01*
X192921528Y-142954195D01*
X192945496Y-143091947D01*
X192952239Y-143267106D01*
X192952553Y-143275287D01*
G37*
X198849452Y-143163329D02*
X198840168Y-143384639D01*
X198834926Y-143431526D01*
X198795868Y-143598409D01*
X198725290Y-143725326D01*
X198617955Y-143822602D01*
X198611888Y-143826616D01*
X198475440Y-143883706D01*
X198332973Y-143888786D01*
X198195696Y-143845311D01*
X198074819Y-143756734D01*
X197981552Y-143626509D01*
X197979986Y-143623369D01*
X197948993Y-143542501D01*
X197926292Y-143450593D01*
X197914250Y-143364311D01*
X197915237Y-143300321D01*
X197931623Y-143275287D01*
X197946179Y-143276809D01*
X198015792Y-143304496D01*
X198094697Y-143355409D01*
X198161820Y-143414343D01*
X198196087Y-143466094D01*
X198231707Y-143536291D01*
X198304711Y-143600138D01*
X198389485Y-143625632D01*
X198420558Y-143618261D01*
X198481891Y-143581154D01*
X198535315Y-143529644D01*
X198558161Y-143482913D01*
X198558154Y-143482740D01*
X198532233Y-143461280D01*
X198463127Y-143422565D01*
X198361249Y-143372037D01*
X198237011Y-143315134D01*
X198236328Y-143314833D01*
X198101355Y-143254738D01*
X198010884Y-143211440D01*
X197956039Y-143178179D01*
X197927944Y-143148194D01*
X197917724Y-143114726D01*
X197916503Y-143071015D01*
X197924996Y-142988244D01*
X198213219Y-142988244D01*
X198242970Y-143014265D01*
X198317101Y-143053256D01*
X198319274Y-143054359D01*
X198406733Y-143096009D01*
X198484974Y-143129235D01*
X198534611Y-143143291D01*
X198554521Y-143124503D01*
X198558161Y-143060124D01*
X198543035Y-142980001D01*
X198490597Y-142907189D01*
X198414677Y-142869439D01*
X198330040Y-142873251D01*
X198251447Y-142925121D01*
X198220555Y-142960965D01*
X198213219Y-142988244D01*
X197924996Y-142988244D01*
X197927251Y-142966265D01*
X197980389Y-142823949D01*
X198069342Y-142712111D01*
X198184448Y-142634676D01*
X198316045Y-142595568D01*
X198454472Y-142598711D01*
X198590065Y-142648030D01*
X198713164Y-142747447D01*
X198781366Y-142845829D01*
X198830356Y-142986261D01*
X198838322Y-143060124D01*
X198849452Y-143163329D01*
G36*
X198849452Y-143163329D02*
G01*
X198840168Y-143384639D01*
X198834926Y-143431526D01*
X198795868Y-143598409D01*
X198725290Y-143725326D01*
X198617955Y-143822602D01*
X198611888Y-143826616D01*
X198475440Y-143883706D01*
X198332973Y-143888786D01*
X198195696Y-143845311D01*
X198074819Y-143756734D01*
X197981552Y-143626509D01*
X197979986Y-143623369D01*
X197948993Y-143542501D01*
X197926292Y-143450593D01*
X197914250Y-143364311D01*
X197915237Y-143300321D01*
X197931623Y-143275287D01*
X197946179Y-143276809D01*
X198015792Y-143304496D01*
X198094697Y-143355409D01*
X198161820Y-143414343D01*
X198196087Y-143466094D01*
X198231707Y-143536291D01*
X198304711Y-143600138D01*
X198389485Y-143625632D01*
X198420558Y-143618261D01*
X198481891Y-143581154D01*
X198535315Y-143529644D01*
X198558161Y-143482913D01*
X198558154Y-143482740D01*
X198532233Y-143461280D01*
X198463127Y-143422565D01*
X198361249Y-143372037D01*
X198237011Y-143315134D01*
X198236328Y-143314833D01*
X198101355Y-143254738D01*
X198010884Y-143211440D01*
X197956039Y-143178179D01*
X197927944Y-143148194D01*
X197917724Y-143114726D01*
X197916503Y-143071015D01*
X197924996Y-142988244D01*
X198213219Y-142988244D01*
X198242970Y-143014265D01*
X198317101Y-143053256D01*
X198319274Y-143054359D01*
X198406733Y-143096009D01*
X198484974Y-143129235D01*
X198534611Y-143143291D01*
X198554521Y-143124503D01*
X198558161Y-143060124D01*
X198543035Y-142980001D01*
X198490597Y-142907189D01*
X198414677Y-142869439D01*
X198330040Y-142873251D01*
X198251447Y-142925121D01*
X198220555Y-142960965D01*
X198213219Y-142988244D01*
X197924996Y-142988244D01*
X197927251Y-142966265D01*
X197980389Y-142823949D01*
X198069342Y-142712111D01*
X198184448Y-142634676D01*
X198316045Y-142595568D01*
X198454472Y-142598711D01*
X198590065Y-142648030D01*
X198713164Y-142747447D01*
X198781366Y-142845829D01*
X198830356Y-142986261D01*
X198838322Y-143060124D01*
X198849452Y-143163329D01*
G37*
X194679995Y-142693674D02*
X194780355Y-142752191D01*
X194824505Y-142797784D01*
X194909347Y-142934072D01*
X194937931Y-143082658D01*
X194937931Y-143184882D01*
X194843963Y-143145372D01*
X194778977Y-143105504D01*
X194727763Y-143022734D01*
X194722504Y-143005669D01*
X194665903Y-142918724D01*
X194580594Y-142871758D01*
X194482641Y-142869741D01*
X194388106Y-142917644D01*
X194373993Y-142929998D01*
X194326797Y-142983683D01*
X194319003Y-143030488D01*
X194354706Y-143076446D01*
X194438003Y-143127588D01*
X194572988Y-143189948D01*
X194582118Y-143193897D01*
X194731969Y-143263772D01*
X194834316Y-143325672D01*
X194897320Y-143387476D01*
X194929138Y-143457062D01*
X194937931Y-143542308D01*
X194926409Y-143636816D01*
X194868228Y-143757785D01*
X194765875Y-143844688D01*
X194691843Y-143870778D01*
X194587367Y-143885055D01*
X194485917Y-143882006D01*
X194413472Y-143860467D01*
X194405777Y-143855104D01*
X194385341Y-143817632D01*
X194399522Y-143751591D01*
X194424161Y-143699753D01*
X194463670Y-143678172D01*
X194538602Y-143679246D01*
X194642630Y-143673055D01*
X194710605Y-143630311D01*
X194733563Y-143551189D01*
X194733542Y-143548916D01*
X194719629Y-143502986D01*
X194672303Y-143460845D01*
X194580287Y-143412272D01*
X194455151Y-143353790D01*
X194372268Y-143321975D01*
X194324420Y-143324025D01*
X194302063Y-143366051D01*
X194295649Y-143454162D01*
X194295632Y-143594469D01*
X194294917Y-143681081D01*
X194291635Y-143788041D01*
X194286300Y-143861250D01*
X194279585Y-143888391D01*
X194277790Y-143888206D01*
X194238982Y-143873498D01*
X194174709Y-143842456D01*
X194085880Y-143796521D01*
X194096436Y-143382628D01*
X194097171Y-143355179D01*
X194105555Y-143162517D01*
X194120366Y-143017309D01*
X194144629Y-142909887D01*
X194181364Y-142830584D01*
X194233597Y-142769730D01*
X194304348Y-142717658D01*
X194305657Y-142716842D01*
X194420056Y-142674360D01*
X194552365Y-142667184D01*
X194679995Y-142693674D01*
G36*
X194679995Y-142693674D02*
G01*
X194780355Y-142752191D01*
X194824505Y-142797784D01*
X194909347Y-142934072D01*
X194937931Y-143082658D01*
X194937931Y-143184882D01*
X194843963Y-143145372D01*
X194778977Y-143105504D01*
X194727763Y-143022734D01*
X194722504Y-143005669D01*
X194665903Y-142918724D01*
X194580594Y-142871758D01*
X194482641Y-142869741D01*
X194388106Y-142917644D01*
X194373993Y-142929998D01*
X194326797Y-142983683D01*
X194319003Y-143030488D01*
X194354706Y-143076446D01*
X194438003Y-143127588D01*
X194572988Y-143189948D01*
X194582118Y-143193897D01*
X194731969Y-143263772D01*
X194834316Y-143325672D01*
X194897320Y-143387476D01*
X194929138Y-143457062D01*
X194937931Y-143542308D01*
X194926409Y-143636816D01*
X194868228Y-143757785D01*
X194765875Y-143844688D01*
X194691843Y-143870778D01*
X194587367Y-143885055D01*
X194485917Y-143882006D01*
X194413472Y-143860467D01*
X194405777Y-143855104D01*
X194385341Y-143817632D01*
X194399522Y-143751591D01*
X194424161Y-143699753D01*
X194463670Y-143678172D01*
X194538602Y-143679246D01*
X194642630Y-143673055D01*
X194710605Y-143630311D01*
X194733563Y-143551189D01*
X194733542Y-143548916D01*
X194719629Y-143502986D01*
X194672303Y-143460845D01*
X194580287Y-143412272D01*
X194455151Y-143353790D01*
X194372268Y-143321975D01*
X194324420Y-143324025D01*
X194302063Y-143366051D01*
X194295649Y-143454162D01*
X194295632Y-143594469D01*
X194294917Y-143681081D01*
X194291635Y-143788041D01*
X194286300Y-143861250D01*
X194279585Y-143888391D01*
X194277790Y-143888206D01*
X194238982Y-143873498D01*
X194174709Y-143842456D01*
X194085880Y-143796521D01*
X194096436Y-143382628D01*
X194097171Y-143355179D01*
X194105555Y-143162517D01*
X194120366Y-143017309D01*
X194144629Y-142909887D01*
X194181364Y-142830584D01*
X194233597Y-142769730D01*
X194304348Y-142717658D01*
X194305657Y-142716842D01*
X194420056Y-142674360D01*
X194552365Y-142667184D01*
X194679995Y-142693674D01*
G37*
X199950778Y-143379502D02*
X199953668Y-143603736D01*
X199954471Y-143668785D01*
X199957040Y-143886260D01*
X199957556Y-144052672D01*
X199954437Y-144173846D01*
X199946100Y-144255607D01*
X199930962Y-144303781D01*
X199907441Y-144324194D01*
X199873956Y-144322672D01*
X199828923Y-144305039D01*
X199770761Y-144277121D01*
X199758332Y-144271164D01*
X199706578Y-144242006D01*
X199679550Y-144207314D01*
X199669207Y-144149470D01*
X199667509Y-144050857D01*
X199667433Y-143873793D01*
X199485038Y-143873793D01*
X199372840Y-143868880D01*
X199284620Y-143848953D01*
X199211358Y-143808678D01*
X199205896Y-143804741D01*
X199131558Y-143738243D01*
X199079823Y-143657908D01*
X199047196Y-143552758D01*
X199030182Y-143411815D01*
X199026030Y-143252588D01*
X199317241Y-143252588D01*
X199317291Y-143279276D01*
X199320064Y-143399738D01*
X199328967Y-143478484D01*
X199346617Y-143529618D01*
X199375632Y-143567241D01*
X199377440Y-143569038D01*
X199448753Y-143617720D01*
X199517865Y-143612921D01*
X199595925Y-143553971D01*
X199615019Y-143533823D01*
X199643142Y-143492515D01*
X199659000Y-143438787D01*
X199666009Y-143357326D01*
X199667586Y-143232821D01*
X199666220Y-143157445D01*
X199651402Y-143020362D01*
X199617579Y-142930548D01*
X199561389Y-142881460D01*
X199479472Y-142866552D01*
X199444956Y-142869729D01*
X199385235Y-142901254D01*
X199345752Y-142971505D01*
X199323942Y-143086583D01*
X199317241Y-143252588D01*
X199026030Y-143252588D01*
X199025287Y-143224101D01*
X199026371Y-143087122D01*
X199031307Y-142983364D01*
X199042272Y-142911412D01*
X199061438Y-142857500D01*
X199090977Y-142807864D01*
X199118092Y-142769931D01*
X199216550Y-142667522D01*
X199328100Y-142611903D01*
X199468246Y-142594297D01*
X199628635Y-142611847D01*
X199767288Y-142674797D01*
X199876951Y-142785824D01*
X199885218Y-142797578D01*
X199904499Y-142828813D01*
X199919269Y-142864507D01*
X199930254Y-142912364D01*
X199938174Y-142980087D01*
X199943753Y-143075382D01*
X199947713Y-143205952D01*
X199948188Y-143232821D01*
X199950778Y-143379502D01*
G36*
X199950778Y-143379502D02*
G01*
X199953668Y-143603736D01*
X199954471Y-143668785D01*
X199957040Y-143886260D01*
X199957556Y-144052672D01*
X199954437Y-144173846D01*
X199946100Y-144255607D01*
X199930962Y-144303781D01*
X199907441Y-144324194D01*
X199873956Y-144322672D01*
X199828923Y-144305039D01*
X199770761Y-144277121D01*
X199758332Y-144271164D01*
X199706578Y-144242006D01*
X199679550Y-144207314D01*
X199669207Y-144149470D01*
X199667509Y-144050857D01*
X199667433Y-143873793D01*
X199485038Y-143873793D01*
X199372840Y-143868880D01*
X199284620Y-143848953D01*
X199211358Y-143808678D01*
X199205896Y-143804741D01*
X199131558Y-143738243D01*
X199079823Y-143657908D01*
X199047196Y-143552758D01*
X199030182Y-143411815D01*
X199026030Y-143252588D01*
X199317241Y-143252588D01*
X199317291Y-143279276D01*
X199320064Y-143399738D01*
X199328967Y-143478484D01*
X199346617Y-143529618D01*
X199375632Y-143567241D01*
X199377440Y-143569038D01*
X199448753Y-143617720D01*
X199517865Y-143612921D01*
X199595925Y-143553971D01*
X199615019Y-143533823D01*
X199643142Y-143492515D01*
X199659000Y-143438787D01*
X199666009Y-143357326D01*
X199667586Y-143232821D01*
X199666220Y-143157445D01*
X199651402Y-143020362D01*
X199617579Y-142930548D01*
X199561389Y-142881460D01*
X199479472Y-142866552D01*
X199444956Y-142869729D01*
X199385235Y-142901254D01*
X199345752Y-142971505D01*
X199323942Y-143086583D01*
X199317241Y-143252588D01*
X199026030Y-143252588D01*
X199025287Y-143224101D01*
X199026371Y-143087122D01*
X199031307Y-142983364D01*
X199042272Y-142911412D01*
X199061438Y-142857500D01*
X199090977Y-142807864D01*
X199118092Y-142769931D01*
X199216550Y-142667522D01*
X199328100Y-142611903D01*
X199468246Y-142594297D01*
X199628635Y-142611847D01*
X199767288Y-142674797D01*
X199876951Y-142785824D01*
X199885218Y-142797578D01*
X199904499Y-142828813D01*
X199919269Y-142864507D01*
X199930254Y-142912364D01*
X199938174Y-142980087D01*
X199943753Y-143075382D01*
X199947713Y-143205952D01*
X199948188Y-143232821D01*
X199950778Y-143379502D01*
G37*
X190411628Y-142664810D02*
X190474194Y-142680702D01*
X190532446Y-142720322D01*
X190607418Y-142794076D01*
X190655633Y-142846163D01*
X190705858Y-142913786D01*
X190728510Y-142977168D01*
X190733793Y-143057584D01*
X190733793Y-143189201D01*
X190644035Y-143142785D01*
X190572904Y-143086225D01*
X190524183Y-143010040D01*
X190515814Y-142989326D01*
X190452056Y-142909041D01*
X190363470Y-142868784D01*
X190266873Y-142872702D01*
X190179080Y-142924943D01*
X190141936Y-142967370D01*
X190120300Y-143021647D01*
X190143461Y-143069954D01*
X190215479Y-143118545D01*
X190340410Y-143173677D01*
X190359368Y-143181292D01*
X190473105Y-143231125D01*
X190570706Y-143280265D01*
X190632803Y-143319080D01*
X190694999Y-143388411D01*
X190736346Y-143499051D01*
X190731957Y-143617782D01*
X190683037Y-143730148D01*
X190590797Y-143821690D01*
X190516110Y-143860658D01*
X190371832Y-143887944D01*
X190291656Y-143884263D01*
X190217435Y-143864360D01*
X190188960Y-143822598D01*
X190199608Y-143753820D01*
X190202705Y-143744726D01*
X190227268Y-143696498D01*
X190268165Y-143678245D01*
X190346079Y-143679466D01*
X190401091Y-143681126D01*
X190465459Y-143666881D01*
X190509561Y-143624292D01*
X190534680Y-143571857D01*
X190537481Y-143516929D01*
X190537352Y-143516608D01*
X190504785Y-143486928D01*
X190435083Y-143443735D01*
X190344898Y-143395461D01*
X190250883Y-143350539D01*
X190169689Y-143317402D01*
X190117968Y-143304483D01*
X190110274Y-143317134D01*
X190100588Y-143376668D01*
X190093954Y-143473887D01*
X190091494Y-143596437D01*
X190090922Y-143681263D01*
X190088225Y-143788094D01*
X190083821Y-143861257D01*
X190078270Y-143888391D01*
X190049254Y-143879272D01*
X189990684Y-143854509D01*
X189916322Y-143820627D01*
X189916322Y-143385933D01*
X189916797Y-143274508D01*
X189921293Y-143105301D01*
X189932747Y-142979769D01*
X189953828Y-142888363D01*
X189987206Y-142821532D01*
X190035550Y-142769726D01*
X190101531Y-142723393D01*
X190185594Y-142685156D01*
X190340807Y-142662184D01*
X190411628Y-142664810D01*
G36*
X190411628Y-142664810D02*
G01*
X190474194Y-142680702D01*
X190532446Y-142720322D01*
X190607418Y-142794076D01*
X190655633Y-142846163D01*
X190705858Y-142913786D01*
X190728510Y-142977168D01*
X190733793Y-143057584D01*
X190733793Y-143189201D01*
X190644035Y-143142785D01*
X190572904Y-143086225D01*
X190524183Y-143010040D01*
X190515814Y-142989326D01*
X190452056Y-142909041D01*
X190363470Y-142868784D01*
X190266873Y-142872702D01*
X190179080Y-142924943D01*
X190141936Y-142967370D01*
X190120300Y-143021647D01*
X190143461Y-143069954D01*
X190215479Y-143118545D01*
X190340410Y-143173677D01*
X190359368Y-143181292D01*
X190473105Y-143231125D01*
X190570706Y-143280265D01*
X190632803Y-143319080D01*
X190694999Y-143388411D01*
X190736346Y-143499051D01*
X190731957Y-143617782D01*
X190683037Y-143730148D01*
X190590797Y-143821690D01*
X190516110Y-143860658D01*
X190371832Y-143887944D01*
X190291656Y-143884263D01*
X190217435Y-143864360D01*
X190188960Y-143822598D01*
X190199608Y-143753820D01*
X190202705Y-143744726D01*
X190227268Y-143696498D01*
X190268165Y-143678245D01*
X190346079Y-143679466D01*
X190401091Y-143681126D01*
X190465459Y-143666881D01*
X190509561Y-143624292D01*
X190534680Y-143571857D01*
X190537481Y-143516929D01*
X190537352Y-143516608D01*
X190504785Y-143486928D01*
X190435083Y-143443735D01*
X190344898Y-143395461D01*
X190250883Y-143350539D01*
X190169689Y-143317402D01*
X190117968Y-143304483D01*
X190110274Y-143317134D01*
X190100588Y-143376668D01*
X190093954Y-143473887D01*
X190091494Y-143596437D01*
X190090922Y-143681263D01*
X190088225Y-143788094D01*
X190083821Y-143861257D01*
X190078270Y-143888391D01*
X190049254Y-143879272D01*
X189990684Y-143854509D01*
X189916322Y-143820627D01*
X189916322Y-143385933D01*
X189916797Y-143274508D01*
X189921293Y-143105301D01*
X189932747Y-142979769D01*
X189953828Y-142888363D01*
X189987206Y-142821532D01*
X190035550Y-142769726D01*
X190101531Y-142723393D01*
X190185594Y-142685156D01*
X190340807Y-142662184D01*
X190411628Y-142664810D01*
G37*
X194729175Y-133203045D02*
X194881895Y-133204039D01*
X194991792Y-133206593D01*
X195066235Y-133211445D01*
X195112594Y-133219331D01*
X195138239Y-133230988D01*
X195150539Y-133247153D01*
X195156865Y-133268563D01*
X195157047Y-133269332D01*
X195167441Y-133319663D01*
X195186339Y-133416888D01*
X195211802Y-133550810D01*
X195241890Y-133711235D01*
X195274664Y-133887967D01*
X195277337Y-133902428D01*
X195310010Y-134073959D01*
X195340413Y-134224625D01*
X195366568Y-134345267D01*
X195386496Y-134426729D01*
X195398220Y-134459852D01*
X195398282Y-134459905D01*
X195435229Y-134478229D01*
X195511057Y-134508677D01*
X195609425Y-134544685D01*
X195614965Y-134546640D01*
X195740724Y-134594170D01*
X195887011Y-134653783D01*
X196023293Y-134713056D01*
X196247390Y-134814765D01*
X196743618Y-134475897D01*
X196778570Y-134452063D01*
X196928280Y-134350755D01*
X197061867Y-134261575D01*
X197171343Y-134189773D01*
X197248718Y-134140603D01*
X197286004Y-134119317D01*
X197311552Y-134124196D01*
X197369555Y-134162002D01*
X197459195Y-134236870D01*
X197582957Y-134350903D01*
X197743328Y-134506205D01*
X197757679Y-134520341D01*
X197884933Y-134646999D01*
X197997969Y-134761745D01*
X198089867Y-134857391D01*
X198153707Y-134926746D01*
X198182570Y-134962620D01*
X198182664Y-134962794D01*
X198186331Y-134990106D01*
X198172808Y-135034408D01*
X198138684Y-135101761D01*
X198080548Y-135198226D01*
X197994988Y-135329863D01*
X197878594Y-135502734D01*
X197858759Y-135531912D01*
X197758445Y-135679726D01*
X197669923Y-135810577D01*
X197598465Y-135916643D01*
X197549343Y-135990102D01*
X197527831Y-136023130D01*
X197526208Y-136030126D01*
X197536387Y-136082326D01*
X197566879Y-136167561D01*
X197612712Y-136271291D01*
X197675000Y-136406951D01*
X197744548Y-136567921D01*
X197803609Y-136713621D01*
X197818252Y-136751333D01*
X197856600Y-136847622D01*
X197884770Y-136914704D01*
X197897497Y-136939885D01*
X197911545Y-136941767D01*
X197974681Y-136952651D01*
X198078019Y-136971449D01*
X198210809Y-136996115D01*
X198362297Y-137024604D01*
X198521732Y-137054873D01*
X198678361Y-137084875D01*
X198821433Y-137112566D01*
X198940195Y-137135900D01*
X199023896Y-137152833D01*
X199061782Y-137161320D01*
X199068063Y-137163713D01*
X199083373Y-137176619D01*
X199094763Y-137204096D01*
X199102803Y-137253446D01*
X199108064Y-137331973D01*
X199111116Y-137446980D01*
X199112529Y-137605770D01*
X199112873Y-137815645D01*
X199112873Y-138453906D01*
X198959598Y-138484160D01*
X198941057Y-138487785D01*
X198842596Y-138506569D01*
X198706448Y-138532093D01*
X198548087Y-138561468D01*
X198382988Y-138591806D01*
X198317973Y-138604009D01*
X198172697Y-138633697D01*
X198051626Y-138661770D01*
X197965886Y-138685536D01*
X197926601Y-138702301D01*
X197908799Y-138729694D01*
X197876389Y-138802174D01*
X197843234Y-138895977D01*
X197831564Y-138931103D01*
X197788604Y-139046409D01*
X197733192Y-139182876D01*
X197674353Y-139317954D01*
X197642884Y-139388509D01*
X197598051Y-139493895D01*
X197567240Y-139572818D01*
X197555785Y-139612053D01*
X197556422Y-139615014D01*
X197578150Y-139656639D01*
X197627146Y-139736969D01*
X197698438Y-139848220D01*
X197787054Y-139982605D01*
X197888023Y-140132340D01*
X198220261Y-140619931D01*
X197783771Y-141057149D01*
X197741555Y-141099221D01*
X197612470Y-141225153D01*
X197497107Y-141333754D01*
X197402224Y-141418903D01*
X197334582Y-141474482D01*
X197300938Y-141494368D01*
X197264402Y-141479238D01*
X197187890Y-141435801D01*
X197080196Y-141369270D01*
X196949767Y-141284867D01*
X196805052Y-141187816D01*
X196662910Y-141091964D01*
X196534678Y-141007557D01*
X196430054Y-140940850D01*
X196357171Y-140897024D01*
X196324158Y-140881264D01*
X196322223Y-140881408D01*
X196278369Y-140896945D01*
X196200598Y-140933121D01*
X196104392Y-140982785D01*
X196103381Y-140983329D01*
X195975605Y-141047326D01*
X195888051Y-141078591D01*
X195833726Y-141078677D01*
X195805641Y-141049138D01*
X195793752Y-141020061D01*
X195761668Y-140942188D01*
X195712247Y-140822475D01*
X195648118Y-140667286D01*
X195571911Y-140482984D01*
X195486255Y-140275933D01*
X195393781Y-140052496D01*
X195309962Y-139849226D01*
X195224678Y-139640649D01*
X195149222Y-139454263D01*
X195086126Y-139296407D01*
X195037923Y-139173419D01*
X195007144Y-139091639D01*
X194996322Y-139057406D01*
X195016991Y-139026015D01*
X195074409Y-138973602D01*
X195155688Y-138912704D01*
X195350820Y-138753387D01*
X195525445Y-138549807D01*
X195653235Y-138325808D01*
X195733402Y-138088003D01*
X195765160Y-137843007D01*
X195747722Y-137597433D01*
X195680301Y-137357895D01*
X195562111Y-137131007D01*
X195392364Y-136923383D01*
X195303856Y-136842527D01*
X195091804Y-136699559D01*
X194864905Y-136606352D01*
X194629791Y-136560687D01*
X194393094Y-136560344D01*
X194161446Y-136603105D01*
X193941478Y-136686750D01*
X193739822Y-136809061D01*
X193563111Y-136967817D01*
X193417977Y-137160801D01*
X193311050Y-137385793D01*
X193248964Y-137640575D01*
X193237569Y-137763377D01*
X193253246Y-138029434D01*
X193323846Y-138281856D01*
X193447282Y-138516182D01*
X193621466Y-138727952D01*
X193844311Y-138912704D01*
X193922561Y-138971123D01*
X193981244Y-139024110D01*
X194003678Y-139057356D01*
X193994732Y-139086339D01*
X193965703Y-139163996D01*
X193919026Y-139283451D01*
X193857231Y-139438362D01*
X193782850Y-139622392D01*
X193698412Y-139829200D01*
X193606449Y-140052446D01*
X193522771Y-140254742D01*
X193436366Y-140463686D01*
X193359138Y-140650498D01*
X193293716Y-140808814D01*
X193242731Y-140932269D01*
X193208812Y-141014498D01*
X193194590Y-141049138D01*
X193194425Y-141049548D01*
X193165972Y-141078798D01*
X193111382Y-141078463D01*
X193023609Y-141046980D01*
X192895608Y-140982785D01*
X192885532Y-140977380D01*
X192790481Y-140928750D01*
X192715424Y-140894328D01*
X192675842Y-140881264D01*
X192643400Y-140896702D01*
X192570895Y-140940258D01*
X192466565Y-141006751D01*
X192338539Y-141090998D01*
X192194948Y-141187816D01*
X192053468Y-141282734D01*
X191922611Y-141367490D01*
X191814292Y-141434496D01*
X191736960Y-141478529D01*
X191699062Y-141494368D01*
X191692607Y-141492357D01*
X191647609Y-141460658D01*
X191570727Y-141395181D01*
X191468721Y-141302048D01*
X191348351Y-141187381D01*
X191216379Y-141057300D01*
X190780039Y-140620232D01*
X191459733Y-139620440D01*
X191356402Y-139396886D01*
X191356096Y-139396225D01*
X191294046Y-139253714D01*
X191230640Y-139095018D01*
X191179558Y-138954368D01*
X191171827Y-138931683D01*
X191132852Y-138826370D01*
X191097707Y-138744534D01*
X191073195Y-138702301D01*
X191063212Y-138696337D01*
X191003286Y-138676329D01*
X190901532Y-138650442D01*
X190769068Y-138621370D01*
X190617011Y-138591806D01*
X190571466Y-138583467D01*
X190406685Y-138553107D01*
X190252930Y-138524509D01*
X190125678Y-138500564D01*
X190040402Y-138484160D01*
X189887126Y-138453906D01*
X189887126Y-137815645D01*
X189887160Y-137737165D01*
X189887808Y-137545703D01*
X189889720Y-137402812D01*
X189893469Y-137301189D01*
X189899622Y-137233531D01*
X189908751Y-137192536D01*
X189921427Y-137170900D01*
X189938218Y-137161320D01*
X189954474Y-137157439D01*
X190020748Y-137143710D01*
X190126479Y-137122745D01*
X190260915Y-137096588D01*
X190413302Y-137067283D01*
X190572890Y-137036877D01*
X190728925Y-137007413D01*
X190870657Y-136980937D01*
X190987331Y-136959494D01*
X191068197Y-136945128D01*
X191102503Y-136939885D01*
X191104822Y-136936720D01*
X191123474Y-136895642D01*
X191155753Y-136817044D01*
X191196391Y-136713621D01*
X191252788Y-136574273D01*
X191322214Y-136413226D01*
X191387288Y-136271291D01*
X191402202Y-136239432D01*
X191444047Y-136139669D01*
X191469118Y-136062721D01*
X191472426Y-136023130D01*
X191470720Y-136020325D01*
X191443631Y-135979005D01*
X191389927Y-135898740D01*
X191314877Y-135787350D01*
X191223746Y-135652655D01*
X191121800Y-135502476D01*
X191006930Y-135331851D01*
X190920761Y-135199311D01*
X190862131Y-135102112D01*
X190827650Y-135034234D01*
X190813926Y-134989656D01*
X190817568Y-134962361D01*
X190818794Y-134960313D01*
X190851747Y-134920536D01*
X190918927Y-134848052D01*
X191013419Y-134750046D01*
X191128306Y-134633702D01*
X191256672Y-134506205D01*
X191389831Y-134376821D01*
X191520269Y-134255209D01*
X191616119Y-134173156D01*
X191679866Y-134128560D01*
X191713996Y-134119317D01*
X191718456Y-134121393D01*
X191765421Y-134149385D01*
X191850685Y-134204084D01*
X191966259Y-134280237D01*
X192104154Y-134372592D01*
X192256381Y-134475897D01*
X192752610Y-134814765D01*
X192976707Y-134713056D01*
X192983219Y-134710109D01*
X193120804Y-134650504D01*
X193266767Y-134591222D01*
X193390575Y-134544685D01*
X193391122Y-134544493D01*
X193489414Y-134508497D01*
X193565081Y-134478095D01*
X193601780Y-134459852D01*
X193602374Y-134459190D01*
X193614833Y-134421831D01*
X193635336Y-134336871D01*
X193661907Y-134213469D01*
X193692567Y-134060782D01*
X193725336Y-133887967D01*
X193726478Y-133881774D01*
X193759193Y-133705431D01*
X193789155Y-133545743D01*
X193814425Y-133412905D01*
X193833065Y-133317113D01*
X193843135Y-133268563D01*
X193843779Y-133265873D01*
X193850408Y-133245088D01*
X193863841Y-133229466D01*
X193891446Y-133218270D01*
X193940593Y-133210762D01*
X194018653Y-133206205D01*
X194132994Y-133203863D01*
X194290986Y-133202998D01*
X194500000Y-133202874D01*
X194526262Y-133202874D01*
X194729175Y-133203045D01*
G36*
X194729175Y-133203045D02*
G01*
X194881895Y-133204039D01*
X194991792Y-133206593D01*
X195066235Y-133211445D01*
X195112594Y-133219331D01*
X195138239Y-133230988D01*
X195150539Y-133247153D01*
X195156865Y-133268563D01*
X195157047Y-133269332D01*
X195167441Y-133319663D01*
X195186339Y-133416888D01*
X195211802Y-133550810D01*
X195241890Y-133711235D01*
X195274664Y-133887967D01*
X195277337Y-133902428D01*
X195310010Y-134073959D01*
X195340413Y-134224625D01*
X195366568Y-134345267D01*
X195386496Y-134426729D01*
X195398220Y-134459852D01*
X195398282Y-134459905D01*
X195435229Y-134478229D01*
X195511057Y-134508677D01*
X195609425Y-134544685D01*
X195614965Y-134546640D01*
X195740724Y-134594170D01*
X195887011Y-134653783D01*
X196023293Y-134713056D01*
X196247390Y-134814765D01*
X196743618Y-134475897D01*
X196778570Y-134452063D01*
X196928280Y-134350755D01*
X197061867Y-134261575D01*
X197171343Y-134189773D01*
X197248718Y-134140603D01*
X197286004Y-134119317D01*
X197311552Y-134124196D01*
X197369555Y-134162002D01*
X197459195Y-134236870D01*
X197582957Y-134350903D01*
X197743328Y-134506205D01*
X197757679Y-134520341D01*
X197884933Y-134646999D01*
X197997969Y-134761745D01*
X198089867Y-134857391D01*
X198153707Y-134926746D01*
X198182570Y-134962620D01*
X198182664Y-134962794D01*
X198186331Y-134990106D01*
X198172808Y-135034408D01*
X198138684Y-135101761D01*
X198080548Y-135198226D01*
X197994988Y-135329863D01*
X197878594Y-135502734D01*
X197858759Y-135531912D01*
X197758445Y-135679726D01*
X197669923Y-135810577D01*
X197598465Y-135916643D01*
X197549343Y-135990102D01*
X197527831Y-136023130D01*
X197526208Y-136030126D01*
X197536387Y-136082326D01*
X197566879Y-136167561D01*
X197612712Y-136271291D01*
X197675000Y-136406951D01*
X197744548Y-136567921D01*
X197803609Y-136713621D01*
X197818252Y-136751333D01*
X197856600Y-136847622D01*
X197884770Y-136914704D01*
X197897497Y-136939885D01*
X197911545Y-136941767D01*
X197974681Y-136952651D01*
X198078019Y-136971449D01*
X198210809Y-136996115D01*
X198362297Y-137024604D01*
X198521732Y-137054873D01*
X198678361Y-137084875D01*
X198821433Y-137112566D01*
X198940195Y-137135900D01*
X199023896Y-137152833D01*
X199061782Y-137161320D01*
X199068063Y-137163713D01*
X199083373Y-137176619D01*
X199094763Y-137204096D01*
X199102803Y-137253446D01*
X199108064Y-137331973D01*
X199111116Y-137446980D01*
X199112529Y-137605770D01*
X199112873Y-137815645D01*
X199112873Y-138453906D01*
X198959598Y-138484160D01*
X198941057Y-138487785D01*
X198842596Y-138506569D01*
X198706448Y-138532093D01*
X198548087Y-138561468D01*
X198382988Y-138591806D01*
X198317973Y-138604009D01*
X198172697Y-138633697D01*
X198051626Y-138661770D01*
X197965886Y-138685536D01*
X197926601Y-138702301D01*
X197908799Y-138729694D01*
X197876389Y-138802174D01*
X197843234Y-138895977D01*
X197831564Y-138931103D01*
X197788604Y-139046409D01*
X197733192Y-139182876D01*
X197674353Y-139317954D01*
X197642884Y-139388509D01*
X197598051Y-139493895D01*
X197567240Y-139572818D01*
X197555785Y-139612053D01*
X197556422Y-139615014D01*
X197578150Y-139656639D01*
X197627146Y-139736969D01*
X197698438Y-139848220D01*
X197787054Y-139982605D01*
X197888023Y-140132340D01*
X198220261Y-140619931D01*
X197783771Y-141057149D01*
X197741555Y-141099221D01*
X197612470Y-141225153D01*
X197497107Y-141333754D01*
X197402224Y-141418903D01*
X197334582Y-141474482D01*
X197300938Y-141494368D01*
X197264402Y-141479238D01*
X197187890Y-141435801D01*
X197080196Y-141369270D01*
X196949767Y-141284867D01*
X196805052Y-141187816D01*
X196662910Y-141091964D01*
X196534678Y-141007557D01*
X196430054Y-140940850D01*
X196357171Y-140897024D01*
X196324158Y-140881264D01*
X196322223Y-140881408D01*
X196278369Y-140896945D01*
X196200598Y-140933121D01*
X196104392Y-140982785D01*
X196103381Y-140983329D01*
X195975605Y-141047326D01*
X195888051Y-141078591D01*
X195833726Y-141078677D01*
X195805641Y-141049138D01*
X195793752Y-141020061D01*
X195761668Y-140942188D01*
X195712247Y-140822475D01*
X195648118Y-140667286D01*
X195571911Y-140482984D01*
X195486255Y-140275933D01*
X195393781Y-140052496D01*
X195309962Y-139849226D01*
X195224678Y-139640649D01*
X195149222Y-139454263D01*
X195086126Y-139296407D01*
X195037923Y-139173419D01*
X195007144Y-139091639D01*
X194996322Y-139057406D01*
X195016991Y-139026015D01*
X195074409Y-138973602D01*
X195155688Y-138912704D01*
X195350820Y-138753387D01*
X195525445Y-138549807D01*
X195653235Y-138325808D01*
X195733402Y-138088003D01*
X195765160Y-137843007D01*
X195747722Y-137597433D01*
X195680301Y-137357895D01*
X195562111Y-137131007D01*
X195392364Y-136923383D01*
X195303856Y-136842527D01*
X195091804Y-136699559D01*
X194864905Y-136606352D01*
X194629791Y-136560687D01*
X194393094Y-136560344D01*
X194161446Y-136603105D01*
X193941478Y-136686750D01*
X193739822Y-136809061D01*
X193563111Y-136967817D01*
X193417977Y-137160801D01*
X193311050Y-137385793D01*
X193248964Y-137640575D01*
X193237569Y-137763377D01*
X193253246Y-138029434D01*
X193323846Y-138281856D01*
X193447282Y-138516182D01*
X193621466Y-138727952D01*
X193844311Y-138912704D01*
X193922561Y-138971123D01*
X193981244Y-139024110D01*
X194003678Y-139057356D01*
X193994732Y-139086339D01*
X193965703Y-139163996D01*
X193919026Y-139283451D01*
X193857231Y-139438362D01*
X193782850Y-139622392D01*
X193698412Y-139829200D01*
X193606449Y-140052446D01*
X193522771Y-140254742D01*
X193436366Y-140463686D01*
X193359138Y-140650498D01*
X193293716Y-140808814D01*
X193242731Y-140932269D01*
X193208812Y-141014498D01*
X193194590Y-141049138D01*
X193194425Y-141049548D01*
X193165972Y-141078798D01*
X193111382Y-141078463D01*
X193023609Y-141046980D01*
X192895608Y-140982785D01*
X192885532Y-140977380D01*
X192790481Y-140928750D01*
X192715424Y-140894328D01*
X192675842Y-140881264D01*
X192643400Y-140896702D01*
X192570895Y-140940258D01*
X192466565Y-141006751D01*
X192338539Y-141090998D01*
X192194948Y-141187816D01*
X192053468Y-141282734D01*
X191922611Y-141367490D01*
X191814292Y-141434496D01*
X191736960Y-141478529D01*
X191699062Y-141494368D01*
X191692607Y-141492357D01*
X191647609Y-141460658D01*
X191570727Y-141395181D01*
X191468721Y-141302048D01*
X191348351Y-141187381D01*
X191216379Y-141057300D01*
X190780039Y-140620232D01*
X191459733Y-139620440D01*
X191356402Y-139396886D01*
X191356096Y-139396225D01*
X191294046Y-139253714D01*
X191230640Y-139095018D01*
X191179558Y-138954368D01*
X191171827Y-138931683D01*
X191132852Y-138826370D01*
X191097707Y-138744534D01*
X191073195Y-138702301D01*
X191063212Y-138696337D01*
X191003286Y-138676329D01*
X190901532Y-138650442D01*
X190769068Y-138621370D01*
X190617011Y-138591806D01*
X190571466Y-138583467D01*
X190406685Y-138553107D01*
X190252930Y-138524509D01*
X190125678Y-138500564D01*
X190040402Y-138484160D01*
X189887126Y-138453906D01*
X189887126Y-137815645D01*
X189887160Y-137737165D01*
X189887808Y-137545703D01*
X189889720Y-137402812D01*
X189893469Y-137301189D01*
X189899622Y-137233531D01*
X189908751Y-137192536D01*
X189921427Y-137170900D01*
X189938218Y-137161320D01*
X189954474Y-137157439D01*
X190020748Y-137143710D01*
X190126479Y-137122745D01*
X190260915Y-137096588D01*
X190413302Y-137067283D01*
X190572890Y-137036877D01*
X190728925Y-137007413D01*
X190870657Y-136980937D01*
X190987331Y-136959494D01*
X191068197Y-136945128D01*
X191102503Y-136939885D01*
X191104822Y-136936720D01*
X191123474Y-136895642D01*
X191155753Y-136817044D01*
X191196391Y-136713621D01*
X191252788Y-136574273D01*
X191322214Y-136413226D01*
X191387288Y-136271291D01*
X191402202Y-136239432D01*
X191444047Y-136139669D01*
X191469118Y-136062721D01*
X191472426Y-136023130D01*
X191470720Y-136020325D01*
X191443631Y-135979005D01*
X191389927Y-135898740D01*
X191314877Y-135787350D01*
X191223746Y-135652655D01*
X191121800Y-135502476D01*
X191006930Y-135331851D01*
X190920761Y-135199311D01*
X190862131Y-135102112D01*
X190827650Y-135034234D01*
X190813926Y-134989656D01*
X190817568Y-134962361D01*
X190818794Y-134960313D01*
X190851747Y-134920536D01*
X190918927Y-134848052D01*
X191013419Y-134750046D01*
X191128306Y-134633702D01*
X191256672Y-134506205D01*
X191389831Y-134376821D01*
X191520269Y-134255209D01*
X191616119Y-134173156D01*
X191679866Y-134128560D01*
X191713996Y-134119317D01*
X191718456Y-134121393D01*
X191765421Y-134149385D01*
X191850685Y-134204084D01*
X191966259Y-134280237D01*
X192104154Y-134372592D01*
X192256381Y-134475897D01*
X192752610Y-134814765D01*
X192976707Y-134713056D01*
X192983219Y-134710109D01*
X193120804Y-134650504D01*
X193266767Y-134591222D01*
X193390575Y-134544685D01*
X193391122Y-134544493D01*
X193489414Y-134508497D01*
X193565081Y-134478095D01*
X193601780Y-134459852D01*
X193602374Y-134459190D01*
X193614833Y-134421831D01*
X193635336Y-134336871D01*
X193661907Y-134213469D01*
X193692567Y-134060782D01*
X193725336Y-133887967D01*
X193726478Y-133881774D01*
X193759193Y-133705431D01*
X193789155Y-133545743D01*
X193814425Y-133412905D01*
X193833065Y-133317113D01*
X193843135Y-133268563D01*
X193843779Y-133265873D01*
X193850408Y-133245088D01*
X193863841Y-133229466D01*
X193891446Y-133218270D01*
X193940593Y-133210762D01*
X194018653Y-133206205D01*
X194132994Y-133203863D01*
X194290986Y-133202998D01*
X194500000Y-133202874D01*
X194526262Y-133202874D01*
X194729175Y-133203045D01*
G37*
D16*
X216109640Y-62750433D02*
G75*
G02*
X202070926Y-62750433I-7019357J0D01*
G01*
X202070926Y-62750433D02*
G75*
G02*
X216109640Y-62750433I7019357J0D01*
G01*
D13*
X214134320Y-66365176D02*
X212616269Y-66365176D01*
X212616269Y-59200433D01*
X214134320Y-59200433D01*
X214134320Y-66365176D01*
G36*
X214134320Y-66365176D02*
G01*
X212616269Y-66365176D01*
X212616269Y-59200433D01*
X214134320Y-59200433D01*
X214134320Y-66365176D01*
G37*
X212162004Y-60407974D02*
X209562915Y-60407974D01*
X209620417Y-59200433D01*
X212162004Y-59200433D01*
X212162004Y-60407974D01*
G36*
X212162004Y-60407974D02*
G01*
X209562915Y-60407974D01*
X209620417Y-59200433D01*
X212162004Y-59200433D01*
X212162004Y-60407974D01*
G37*
X212162004Y-66365176D02*
X209620417Y-66365176D01*
X209562915Y-65151885D01*
X212162004Y-65151885D01*
X212162004Y-66365176D01*
G36*
X212162004Y-66365176D02*
G01*
X209620417Y-66365176D01*
X209562915Y-65151885D01*
X212162004Y-65151885D01*
X212162004Y-66365176D01*
G37*
X212162004Y-63334823D02*
X210120684Y-63334823D01*
X210120684Y-62225036D01*
X212162004Y-62225036D01*
X212162004Y-63334823D01*
G36*
X212162004Y-63334823D02*
G01*
X210120684Y-63334823D01*
X210120684Y-62225036D01*
X212162004Y-62225036D01*
X212162004Y-63334823D01*
G37*
X207083797Y-59200481D02*
X207121616Y-59201722D01*
X207153202Y-59203488D01*
X207192395Y-59206400D01*
X207238559Y-59210743D01*
X207291063Y-59216805D01*
X207349270Y-59224872D01*
X207412549Y-59235229D01*
X207480264Y-59248165D01*
X207551783Y-59263964D01*
X207626470Y-59282913D01*
X207703693Y-59305299D01*
X207782818Y-59331408D01*
X207863210Y-59361526D01*
X207944236Y-59395940D01*
X208025262Y-59434936D01*
X208105654Y-59478801D01*
X208184779Y-59527821D01*
X208262002Y-59582282D01*
X208336689Y-59642471D01*
X208408208Y-59708674D01*
X208475923Y-59781178D01*
X208539202Y-59860268D01*
X208597409Y-59946232D01*
X208649913Y-60039355D01*
X208696077Y-60139925D01*
X208735270Y-60248227D01*
X208766856Y-60364548D01*
X208790203Y-60489173D01*
X208804675Y-60622391D01*
X208809640Y-60764486D01*
X208809640Y-64801123D01*
X208809218Y-64818688D01*
X208806260Y-64868328D01*
X208803038Y-64903744D01*
X208798231Y-64945461D01*
X208791523Y-64992906D01*
X208782597Y-65045506D01*
X208771135Y-65102688D01*
X208756820Y-65163879D01*
X208739337Y-65228507D01*
X208718367Y-65295999D01*
X208693595Y-65365782D01*
X208664702Y-65437283D01*
X208631373Y-65509929D01*
X208593289Y-65583149D01*
X208550135Y-65656369D01*
X208501594Y-65729015D01*
X208447347Y-65800516D01*
X208387080Y-65870299D01*
X208320474Y-65937791D01*
X208247212Y-66002419D01*
X208166978Y-66063610D01*
X208079455Y-66120792D01*
X207984326Y-66173392D01*
X207881274Y-66220837D01*
X207769982Y-66262554D01*
X207650134Y-66297970D01*
X207521411Y-66326513D01*
X207383498Y-66347610D01*
X207236077Y-66360689D01*
X207078831Y-66365176D01*
X206480811Y-66365176D01*
X206480811Y-65151885D01*
X206802822Y-65151885D01*
X206823824Y-65150997D01*
X206862755Y-65147129D01*
X206897062Y-65141778D01*
X206936380Y-65133433D01*
X206979278Y-65121427D01*
X207024324Y-65105097D01*
X207070087Y-65083775D01*
X207115133Y-65056798D01*
X207158031Y-65023499D01*
X207197349Y-64983213D01*
X207215219Y-64960241D01*
X207231656Y-64935274D01*
X207246483Y-64908227D01*
X207259519Y-64879018D01*
X207270587Y-64847562D01*
X207279507Y-64813778D01*
X207286099Y-64777582D01*
X207290186Y-64738890D01*
X207291588Y-64697620D01*
X207291588Y-60862240D01*
X207290634Y-60842721D01*
X207286472Y-60806539D01*
X207280715Y-60774653D01*
X207271735Y-60738110D01*
X207258818Y-60698240D01*
X207241247Y-60656373D01*
X207218306Y-60613842D01*
X207189280Y-60571975D01*
X207153452Y-60532105D01*
X207110106Y-60495562D01*
X207085390Y-60478954D01*
X207058527Y-60463676D01*
X207029426Y-60449897D01*
X206997998Y-60437780D01*
X206964153Y-60427494D01*
X206927803Y-60419204D01*
X206888858Y-60413076D01*
X206847227Y-60409278D01*
X206802822Y-60407974D01*
X206480811Y-60407974D01*
X206480811Y-59200433D01*
X207078831Y-59200433D01*
X207083797Y-59200481D01*
G36*
X207083797Y-59200481D02*
G01*
X207121616Y-59201722D01*
X207153202Y-59203488D01*
X207192395Y-59206400D01*
X207238559Y-59210743D01*
X207291063Y-59216805D01*
X207349270Y-59224872D01*
X207412549Y-59235229D01*
X207480264Y-59248165D01*
X207551783Y-59263964D01*
X207626470Y-59282913D01*
X207703693Y-59305299D01*
X207782818Y-59331408D01*
X207863210Y-59361526D01*
X207944236Y-59395940D01*
X208025262Y-59434936D01*
X208105654Y-59478801D01*
X208184779Y-59527821D01*
X208262002Y-59582282D01*
X208336689Y-59642471D01*
X208408208Y-59708674D01*
X208475923Y-59781178D01*
X208539202Y-59860268D01*
X208597409Y-59946232D01*
X208649913Y-60039355D01*
X208696077Y-60139925D01*
X208735270Y-60248227D01*
X208766856Y-60364548D01*
X208790203Y-60489173D01*
X208804675Y-60622391D01*
X208809640Y-60764486D01*
X208809640Y-64801123D01*
X208809218Y-64818688D01*
X208806260Y-64868328D01*
X208803038Y-64903744D01*
X208798231Y-64945461D01*
X208791523Y-64992906D01*
X208782597Y-65045506D01*
X208771135Y-65102688D01*
X208756820Y-65163879D01*
X208739337Y-65228507D01*
X208718367Y-65295999D01*
X208693595Y-65365782D01*
X208664702Y-65437283D01*
X208631373Y-65509929D01*
X208593289Y-65583149D01*
X208550135Y-65656369D01*
X208501594Y-65729015D01*
X208447347Y-65800516D01*
X208387080Y-65870299D01*
X208320474Y-65937791D01*
X208247212Y-66002419D01*
X208166978Y-66063610D01*
X208079455Y-66120792D01*
X207984326Y-66173392D01*
X207881274Y-66220837D01*
X207769982Y-66262554D01*
X207650134Y-66297970D01*
X207521411Y-66326513D01*
X207383498Y-66347610D01*
X207236077Y-66360689D01*
X207078831Y-66365176D01*
X206480811Y-66365176D01*
X206480811Y-65151885D01*
X206802822Y-65151885D01*
X206823824Y-65150997D01*
X206862755Y-65147129D01*
X206897062Y-65141778D01*
X206936380Y-65133433D01*
X206979278Y-65121427D01*
X207024324Y-65105097D01*
X207070087Y-65083775D01*
X207115133Y-65056798D01*
X207158031Y-65023499D01*
X207197349Y-64983213D01*
X207215219Y-64960241D01*
X207231656Y-64935274D01*
X207246483Y-64908227D01*
X207259519Y-64879018D01*
X207270587Y-64847562D01*
X207279507Y-64813778D01*
X207286099Y-64777582D01*
X207290186Y-64738890D01*
X207291588Y-64697620D01*
X207291588Y-60862240D01*
X207290634Y-60842721D01*
X207286472Y-60806539D01*
X207280715Y-60774653D01*
X207271735Y-60738110D01*
X207258818Y-60698240D01*
X207241247Y-60656373D01*
X207218306Y-60613842D01*
X207189280Y-60571975D01*
X207153452Y-60532105D01*
X207110106Y-60495562D01*
X207085390Y-60478954D01*
X207058527Y-60463676D01*
X207029426Y-60449897D01*
X206997998Y-60437780D01*
X206964153Y-60427494D01*
X206927803Y-60419204D01*
X206888858Y-60413076D01*
X206847227Y-60409278D01*
X206802822Y-60407974D01*
X206480811Y-60407974D01*
X206480811Y-59200433D01*
X207078831Y-59200433D01*
X207083797Y-59200481D01*
G37*
X206032296Y-60407974D02*
X205693034Y-60407974D01*
X205672033Y-60408862D01*
X205633102Y-60412730D01*
X205598795Y-60418081D01*
X205559477Y-60426426D01*
X205516579Y-60438432D01*
X205471533Y-60454762D01*
X205425770Y-60476084D01*
X205380724Y-60503061D01*
X205337826Y-60536361D01*
X205298508Y-60576647D01*
X205280638Y-60599618D01*
X205264201Y-60624585D01*
X205249374Y-60651632D01*
X205236338Y-60680842D01*
X205225270Y-60712297D01*
X205216350Y-60746082D01*
X205209758Y-60782278D01*
X205205671Y-60820970D01*
X205204268Y-60862240D01*
X205204268Y-64697620D01*
X205205223Y-64717139D01*
X205209385Y-64753321D01*
X205215142Y-64785206D01*
X205224122Y-64821749D01*
X205237039Y-64861620D01*
X205254610Y-64903486D01*
X205277551Y-64946018D01*
X205306577Y-64987884D01*
X205342405Y-65027755D01*
X205385751Y-65064298D01*
X205410467Y-65080906D01*
X205437330Y-65096183D01*
X205466431Y-65109963D01*
X205497859Y-65122079D01*
X205531704Y-65132365D01*
X205568054Y-65140655D01*
X205606999Y-65146783D01*
X205648630Y-65150581D01*
X205693034Y-65151885D01*
X206032296Y-65151885D01*
X206032296Y-66365176D01*
X205417025Y-66365176D01*
X205412060Y-66365128D01*
X205374241Y-66363887D01*
X205342655Y-66362121D01*
X205303462Y-66359209D01*
X205257298Y-66354866D01*
X205204794Y-66348804D01*
X205146587Y-66340737D01*
X205083308Y-66330380D01*
X205015593Y-66317444D01*
X204944074Y-66301645D01*
X204869387Y-66282696D01*
X204792164Y-66260310D01*
X204713039Y-66234201D01*
X204632647Y-66204083D01*
X204551621Y-66169669D01*
X204470595Y-66130673D01*
X204390203Y-66086808D01*
X204311078Y-66037788D01*
X204233855Y-65983327D01*
X204159168Y-65923138D01*
X204087649Y-65856935D01*
X204019934Y-65784431D01*
X203956655Y-65705341D01*
X203898448Y-65619377D01*
X203845944Y-65526254D01*
X203799780Y-65425684D01*
X203760587Y-65317382D01*
X203729001Y-65201061D01*
X203705654Y-65076436D01*
X203691182Y-64943218D01*
X203686216Y-64801123D01*
X203686216Y-60764486D01*
X203686639Y-60746921D01*
X203689597Y-60697281D01*
X203692819Y-60661865D01*
X203697626Y-60620148D01*
X203704334Y-60572703D01*
X203713260Y-60520103D01*
X203724722Y-60462921D01*
X203739037Y-60401730D01*
X203756520Y-60337102D01*
X203777490Y-60269610D01*
X203802262Y-60199827D01*
X203831155Y-60128326D01*
X203864484Y-60055680D01*
X203902568Y-59982460D01*
X203945722Y-59909240D01*
X203994263Y-59836594D01*
X204048510Y-59765093D01*
X204108777Y-59695310D01*
X204175383Y-59627818D01*
X204248645Y-59563190D01*
X204328879Y-59501999D01*
X204416402Y-59444817D01*
X204511531Y-59392217D01*
X204614583Y-59344772D01*
X204725875Y-59303055D01*
X204845723Y-59267639D01*
X204974446Y-59239096D01*
X205112359Y-59217999D01*
X205259780Y-59204920D01*
X205417025Y-59200433D01*
X206032296Y-59200433D01*
X206032296Y-60407974D01*
G36*
X206032296Y-60407974D02*
G01*
X205693034Y-60407974D01*
X205672033Y-60408862D01*
X205633102Y-60412730D01*
X205598795Y-60418081D01*
X205559477Y-60426426D01*
X205516579Y-60438432D01*
X205471533Y-60454762D01*
X205425770Y-60476084D01*
X205380724Y-60503061D01*
X205337826Y-60536361D01*
X205298508Y-60576647D01*
X205280638Y-60599618D01*
X205264201Y-60624585D01*
X205249374Y-60651632D01*
X205236338Y-60680842D01*
X205225270Y-60712297D01*
X205216350Y-60746082D01*
X205209758Y-60782278D01*
X205205671Y-60820970D01*
X205204268Y-60862240D01*
X205204268Y-64697620D01*
X205205223Y-64717139D01*
X205209385Y-64753321D01*
X205215142Y-64785206D01*
X205224122Y-64821749D01*
X205237039Y-64861620D01*
X205254610Y-64903486D01*
X205277551Y-64946018D01*
X205306577Y-64987884D01*
X205342405Y-65027755D01*
X205385751Y-65064298D01*
X205410467Y-65080906D01*
X205437330Y-65096183D01*
X205466431Y-65109963D01*
X205497859Y-65122079D01*
X205531704Y-65132365D01*
X205568054Y-65140655D01*
X205606999Y-65146783D01*
X205648630Y-65150581D01*
X205693034Y-65151885D01*
X206032296Y-65151885D01*
X206032296Y-66365176D01*
X205417025Y-66365176D01*
X205412060Y-66365128D01*
X205374241Y-66363887D01*
X205342655Y-66362121D01*
X205303462Y-66359209D01*
X205257298Y-66354866D01*
X205204794Y-66348804D01*
X205146587Y-66340737D01*
X205083308Y-66330380D01*
X205015593Y-66317444D01*
X204944074Y-66301645D01*
X204869387Y-66282696D01*
X204792164Y-66260310D01*
X204713039Y-66234201D01*
X204632647Y-66204083D01*
X204551621Y-66169669D01*
X204470595Y-66130673D01*
X204390203Y-66086808D01*
X204311078Y-66037788D01*
X204233855Y-65983327D01*
X204159168Y-65923138D01*
X204087649Y-65856935D01*
X204019934Y-65784431D01*
X203956655Y-65705341D01*
X203898448Y-65619377D01*
X203845944Y-65526254D01*
X203799780Y-65425684D01*
X203760587Y-65317382D01*
X203729001Y-65201061D01*
X203705654Y-65076436D01*
X203691182Y-64943218D01*
X203686216Y-64801123D01*
X203686216Y-60764486D01*
X203686639Y-60746921D01*
X203689597Y-60697281D01*
X203692819Y-60661865D01*
X203697626Y-60620148D01*
X203704334Y-60572703D01*
X203713260Y-60520103D01*
X203724722Y-60462921D01*
X203739037Y-60401730D01*
X203756520Y-60337102D01*
X203777490Y-60269610D01*
X203802262Y-60199827D01*
X203831155Y-60128326D01*
X203864484Y-60055680D01*
X203902568Y-59982460D01*
X203945722Y-59909240D01*
X203994263Y-59836594D01*
X204048510Y-59765093D01*
X204108777Y-59695310D01*
X204175383Y-59627818D01*
X204248645Y-59563190D01*
X204328879Y-59501999D01*
X204416402Y-59444817D01*
X204511531Y-59392217D01*
X204614583Y-59344772D01*
X204725875Y-59303055D01*
X204845723Y-59267639D01*
X204974446Y-59239096D01*
X205112359Y-59217999D01*
X205259780Y-59204920D01*
X205417025Y-59200433D01*
X206032296Y-59200433D01*
X206032296Y-60407974D01*
G37*
D14*
%TO.C,U13*%
X193098000Y-103077000D02*
X194702000Y-103077000D01*
X194702000Y-100623000D02*
X193098000Y-100623000D01*
%TO.C,U26*%
X225852000Y-101173000D02*
X224248000Y-101173000D01*
X224248000Y-103627000D02*
X225852000Y-103627000D01*
%TO.C,U23*%
X230502000Y-82023000D02*
X228898000Y-82023000D01*
X228898000Y-84477000D02*
X230502000Y-84477000D01*
D15*
%TO.C,REF\u002A\u002A*%
X207168597Y-102326335D02*
X207187700Y-102344740D01*
X207243401Y-102400870D01*
X207317074Y-102477287D01*
X207405138Y-102570092D01*
X207504012Y-102675388D01*
X207610118Y-102789277D01*
X207719875Y-102907862D01*
X207829702Y-103027244D01*
X207936020Y-103143525D01*
X208035248Y-103252809D01*
X208123807Y-103351196D01*
X208198115Y-103434790D01*
X208254593Y-103499692D01*
X208289661Y-103542005D01*
X208299738Y-103557830D01*
X208296280Y-103559578D01*
X208263208Y-103578034D01*
X208197796Y-103615243D01*
X208102799Y-103669620D01*
X207980973Y-103739578D01*
X207835072Y-103823531D01*
X207667852Y-103919893D01*
X207482068Y-104027077D01*
X207280476Y-104143497D01*
X207065830Y-104267567D01*
X206840887Y-104397702D01*
X206756809Y-104446357D01*
X206535820Y-104574189D01*
X206326410Y-104695247D01*
X206131302Y-104807960D01*
X205953219Y-104910759D01*
X205794886Y-105002074D01*
X205659025Y-105080333D01*
X205548360Y-105143968D01*
X205465614Y-105191407D01*
X205413512Y-105221082D01*
X205394776Y-105231420D01*
X205395618Y-105225914D01*
X205410993Y-105194271D01*
X205439269Y-105143719D01*
X205456615Y-105113797D01*
X205493504Y-105049988D01*
X205547786Y-104956009D01*
X205617698Y-104834917D01*
X205701477Y-104689765D01*
X205797362Y-104523607D01*
X205903588Y-104339499D01*
X206018392Y-104140495D01*
X206140013Y-103929649D01*
X206266687Y-103710017D01*
X206390722Y-103495016D01*
X206511310Y-103286130D01*
X206624701Y-103089849D01*
X206729191Y-102909114D01*
X206823079Y-102746867D01*
X206904660Y-102606049D01*
X206972231Y-102489602D01*
X207024089Y-102400469D01*
X207058531Y-102341590D01*
X207073854Y-102315908D01*
X207105292Y-102266872D01*
X207168597Y-102326335D01*
G36*
X207168597Y-102326335D02*
G01*
X207187700Y-102344740D01*
X207243401Y-102400870D01*
X207317074Y-102477287D01*
X207405138Y-102570092D01*
X207504012Y-102675388D01*
X207610118Y-102789277D01*
X207719875Y-102907862D01*
X207829702Y-103027244D01*
X207936020Y-103143525D01*
X208035248Y-103252809D01*
X208123807Y-103351196D01*
X208198115Y-103434790D01*
X208254593Y-103499692D01*
X208289661Y-103542005D01*
X208299738Y-103557830D01*
X208296280Y-103559578D01*
X208263208Y-103578034D01*
X208197796Y-103615243D01*
X208102799Y-103669620D01*
X207980973Y-103739578D01*
X207835072Y-103823531D01*
X207667852Y-103919893D01*
X207482068Y-104027077D01*
X207280476Y-104143497D01*
X207065830Y-104267567D01*
X206840887Y-104397702D01*
X206756809Y-104446357D01*
X206535820Y-104574189D01*
X206326410Y-104695247D01*
X206131302Y-104807960D01*
X205953219Y-104910759D01*
X205794886Y-105002074D01*
X205659025Y-105080333D01*
X205548360Y-105143968D01*
X205465614Y-105191407D01*
X205413512Y-105221082D01*
X205394776Y-105231420D01*
X205395618Y-105225914D01*
X205410993Y-105194271D01*
X205439269Y-105143719D01*
X205456615Y-105113797D01*
X205493504Y-105049988D01*
X205547786Y-104956009D01*
X205617698Y-104834917D01*
X205701477Y-104689765D01*
X205797362Y-104523607D01*
X205903588Y-104339499D01*
X206018392Y-104140495D01*
X206140013Y-103929649D01*
X206266687Y-103710017D01*
X206390722Y-103495016D01*
X206511310Y-103286130D01*
X206624701Y-103089849D01*
X206729191Y-102909114D01*
X206823079Y-102746867D01*
X206904660Y-102606049D01*
X206972231Y-102489602D01*
X207024089Y-102400469D01*
X207058531Y-102341590D01*
X207073854Y-102315908D01*
X207105292Y-102266872D01*
X207168597Y-102326335D01*
G37*
X209542052Y-98059119D02*
X209557580Y-98082462D01*
X209591791Y-98138543D01*
X209642966Y-98224380D01*
X209709387Y-98336991D01*
X209789335Y-98473394D01*
X209881092Y-98630606D01*
X209982940Y-98805647D01*
X210093161Y-98995532D01*
X210210035Y-99197281D01*
X210331845Y-99407912D01*
X210456873Y-99624442D01*
X210583399Y-99843889D01*
X210709706Y-100063271D01*
X210834076Y-100279605D01*
X210954789Y-100489911D01*
X211070128Y-100691206D01*
X211178374Y-100880507D01*
X211277809Y-101054833D01*
X211366714Y-101211201D01*
X211443371Y-101346629D01*
X211506062Y-101458136D01*
X211553069Y-101542739D01*
X211582672Y-101597456D01*
X211593155Y-101619305D01*
X211593165Y-101619472D01*
X211576261Y-101642399D01*
X211527688Y-101681263D01*
X211452499Y-101732385D01*
X211355748Y-101792088D01*
X211290863Y-101830281D01*
X211197499Y-101883391D01*
X211132467Y-101916861D01*
X211091410Y-101932575D01*
X211069972Y-101932416D01*
X211063794Y-101918265D01*
X211063323Y-101915958D01*
X211045666Y-101887815D01*
X211007603Y-101839958D01*
X210956149Y-101781312D01*
X210932410Y-101756120D01*
X210858794Y-101688309D01*
X210777386Y-101630348D01*
X210683350Y-101580539D01*
X210571845Y-101537182D01*
X210438036Y-101498577D01*
X210277083Y-101463026D01*
X210084148Y-101428828D01*
X209854394Y-101394284D01*
X209589952Y-101355347D01*
X209334311Y-101313534D01*
X209110778Y-101271620D01*
X208914357Y-101228395D01*
X208740050Y-101182651D01*
X208582858Y-101133179D01*
X208437785Y-101078769D01*
X208299833Y-101018213D01*
X208198448Y-100968274D01*
X208101605Y-100915722D01*
X208025020Y-100868807D01*
X207974679Y-100831217D01*
X207956569Y-100806644D01*
X207957103Y-100804833D01*
X207971691Y-100775874D01*
X208004767Y-100715229D01*
X208054372Y-100626294D01*
X208118547Y-100512465D01*
X208195335Y-100377137D01*
X208282777Y-100223705D01*
X208378916Y-100055565D01*
X208481793Y-99876111D01*
X208589450Y-99688741D01*
X208699929Y-99496847D01*
X208811271Y-99303827D01*
X208921519Y-99113075D01*
X209028715Y-98927987D01*
X209130899Y-98751958D01*
X209226115Y-98588384D01*
X209312403Y-98440659D01*
X209387806Y-98312180D01*
X209450366Y-98206341D01*
X209498124Y-98126538D01*
X209529122Y-98076166D01*
X209541402Y-98058621D01*
X209542052Y-98059119D01*
G36*
X209542052Y-98059119D02*
G01*
X209557580Y-98082462D01*
X209591791Y-98138543D01*
X209642966Y-98224380D01*
X209709387Y-98336991D01*
X209789335Y-98473394D01*
X209881092Y-98630606D01*
X209982940Y-98805647D01*
X210093161Y-98995532D01*
X210210035Y-99197281D01*
X210331845Y-99407912D01*
X210456873Y-99624442D01*
X210583399Y-99843889D01*
X210709706Y-100063271D01*
X210834076Y-100279605D01*
X210954789Y-100489911D01*
X211070128Y-100691206D01*
X211178374Y-100880507D01*
X211277809Y-101054833D01*
X211366714Y-101211201D01*
X211443371Y-101346629D01*
X211506062Y-101458136D01*
X211553069Y-101542739D01*
X211582672Y-101597456D01*
X211593155Y-101619305D01*
X211593165Y-101619472D01*
X211576261Y-101642399D01*
X211527688Y-101681263D01*
X211452499Y-101732385D01*
X211355748Y-101792088D01*
X211290863Y-101830281D01*
X211197499Y-101883391D01*
X211132467Y-101916861D01*
X211091410Y-101932575D01*
X211069972Y-101932416D01*
X211063794Y-101918265D01*
X211063323Y-101915958D01*
X211045666Y-101887815D01*
X211007603Y-101839958D01*
X210956149Y-101781312D01*
X210932410Y-101756120D01*
X210858794Y-101688309D01*
X210777386Y-101630348D01*
X210683350Y-101580539D01*
X210571845Y-101537182D01*
X210438036Y-101498577D01*
X210277083Y-101463026D01*
X210084148Y-101428828D01*
X209854394Y-101394284D01*
X209589952Y-101355347D01*
X209334311Y-101313534D01*
X209110778Y-101271620D01*
X208914357Y-101228395D01*
X208740050Y-101182651D01*
X208582858Y-101133179D01*
X208437785Y-101078769D01*
X208299833Y-101018213D01*
X208198448Y-100968274D01*
X208101605Y-100915722D01*
X208025020Y-100868807D01*
X207974679Y-100831217D01*
X207956569Y-100806644D01*
X207957103Y-100804833D01*
X207971691Y-100775874D01*
X208004767Y-100715229D01*
X208054372Y-100626294D01*
X208118547Y-100512465D01*
X208195335Y-100377137D01*
X208282777Y-100223705D01*
X208378916Y-100055565D01*
X208481793Y-99876111D01*
X208589450Y-99688741D01*
X208699929Y-99496847D01*
X208811271Y-99303827D01*
X208921519Y-99113075D01*
X209028715Y-98927987D01*
X209130899Y-98751958D01*
X209226115Y-98588384D01*
X209312403Y-98440659D01*
X209387806Y-98312180D01*
X209450366Y-98206341D01*
X209498124Y-98126538D01*
X209529122Y-98076166D01*
X209541402Y-98058621D01*
X209542052Y-98059119D01*
G37*
X212052528Y-102398609D02*
X212060275Y-102410169D01*
X212087963Y-102455573D01*
X212133493Y-102532125D01*
X212195122Y-102636838D01*
X212271108Y-102766723D01*
X212359706Y-102918792D01*
X212459175Y-103090059D01*
X212567772Y-103277535D01*
X212683753Y-103478232D01*
X212805376Y-103689163D01*
X212838731Y-103747073D01*
X212970621Y-103976046D01*
X213103395Y-104206533D01*
X213234340Y-104433828D01*
X213360745Y-104653223D01*
X213479897Y-104860012D01*
X213589084Y-105049486D01*
X213685594Y-105216940D01*
X213766714Y-105357665D01*
X213829732Y-105466954D01*
X214127414Y-105983087D01*
X209953420Y-105983087D01*
X209780863Y-105983072D01*
X209369623Y-105982914D01*
X208970976Y-105982590D01*
X208586865Y-105982109D01*
X208219231Y-105981479D01*
X207870013Y-105980708D01*
X207541153Y-105979804D01*
X207234592Y-105978776D01*
X206952271Y-105977632D01*
X206696130Y-105976380D01*
X206468111Y-105975029D01*
X206270154Y-105973587D01*
X206104201Y-105972063D01*
X205972191Y-105970464D01*
X205876067Y-105968799D01*
X205817769Y-105967076D01*
X205799237Y-105965304D01*
X205812996Y-105956337D01*
X205860468Y-105927764D01*
X205938443Y-105881765D01*
X206043749Y-105820165D01*
X206173215Y-105744788D01*
X206323670Y-105657460D01*
X206491942Y-105560004D01*
X206674860Y-105454246D01*
X206869253Y-105342011D01*
X207071948Y-105225123D01*
X207279775Y-105105407D01*
X207489561Y-104984687D01*
X207698137Y-104864789D01*
X207902330Y-104747537D01*
X208098968Y-104634756D01*
X208284881Y-104528270D01*
X208456897Y-104429905D01*
X208611844Y-104341485D01*
X208746552Y-104264835D01*
X208857848Y-104201780D01*
X208942562Y-104154144D01*
X208997521Y-104123752D01*
X209019555Y-104112429D01*
X209033934Y-104115235D01*
X209077247Y-104140763D01*
X209139001Y-104188057D01*
X209212409Y-104252198D01*
X209278527Y-104316408D01*
X209362741Y-104403875D01*
X209456966Y-104505990D01*
X209556373Y-104617130D01*
X209656132Y-104731675D01*
X209751412Y-104844000D01*
X209837384Y-104948485D01*
X209909217Y-105039506D01*
X209962081Y-105111441D01*
X209991147Y-105158668D01*
X210010550Y-105193159D01*
X210063248Y-105264537D01*
X210130995Y-105340474D01*
X210204133Y-105411230D01*
X210273001Y-105467066D01*
X210327942Y-105498244D01*
X210388620Y-105505450D01*
X210469589Y-105485532D01*
X210546544Y-105439862D01*
X210606265Y-105374324D01*
X210616606Y-105357321D01*
X210629773Y-105329474D01*
X210638354Y-105295961D01*
X210642901Y-105249583D01*
X210643964Y-105183138D01*
X210642092Y-105089427D01*
X210637837Y-104961248D01*
X210634788Y-104887103D01*
X210628309Y-104769846D01*
X210620662Y-104667221D01*
X210612560Y-104588250D01*
X210604716Y-104541954D01*
X210585726Y-104489068D01*
X210529427Y-104384921D01*
X210441944Y-104261519D01*
X210322210Y-104117414D01*
X210169156Y-103951156D01*
X210102738Y-103881107D01*
X210025943Y-103798475D01*
X209962560Y-103728416D01*
X209917803Y-103676714D01*
X209896885Y-103649152D01*
X209894735Y-103644775D01*
X209892156Y-103625934D01*
X209905039Y-103605044D01*
X209938661Y-103577604D01*
X209998298Y-103539111D01*
X210089227Y-103485065D01*
X210166527Y-103439944D01*
X210308774Y-103357407D01*
X210420772Y-103293296D01*
X210506282Y-103245529D01*
X210569066Y-103212024D01*
X210612886Y-103190700D01*
X210641503Y-103179476D01*
X210671116Y-103167023D01*
X210688424Y-103150299D01*
X210690043Y-103146354D01*
X210715367Y-103124415D01*
X210761650Y-103096158D01*
X210834876Y-103056723D01*
X210888944Y-103107056D01*
X210908041Y-103127448D01*
X210952472Y-103182865D01*
X211006723Y-103256856D01*
X211063054Y-103339106D01*
X211183097Y-103520822D01*
X211178386Y-103991916D01*
X211173675Y-104463009D01*
X211105079Y-104529657D01*
X211082028Y-104553418D01*
X211008110Y-104660166D01*
X210964961Y-104787105D01*
X210950259Y-104940394D01*
X210953910Y-105022527D01*
X210979678Y-105167405D01*
X211026644Y-105299636D01*
X211090736Y-105405736D01*
X211135242Y-105444423D01*
X211214352Y-105473807D01*
X211303908Y-105477197D01*
X211392446Y-105456156D01*
X211468502Y-105412250D01*
X211520613Y-105347045D01*
X211522318Y-105343511D01*
X211553817Y-105278957D01*
X211587177Y-105211494D01*
X211615497Y-105148163D01*
X211656122Y-105041420D01*
X211700943Y-104909818D01*
X211748403Y-104759224D01*
X211796943Y-104595501D01*
X211845006Y-104424514D01*
X211891035Y-104252126D01*
X211933472Y-104084203D01*
X211970760Y-103926609D01*
X212001340Y-103785208D01*
X212023657Y-103665865D01*
X212036152Y-103574443D01*
X212037267Y-103516807D01*
X212034754Y-103503714D01*
X212010263Y-103437432D01*
X211964817Y-103348757D01*
X211902406Y-103245707D01*
X211878452Y-103208571D01*
X211782203Y-103057144D01*
X211700389Y-102924717D01*
X211634812Y-102814389D01*
X211587277Y-102729255D01*
X211559591Y-102672414D01*
X211553555Y-102646962D01*
X211554254Y-102646064D01*
X211579240Y-102627731D01*
X211632637Y-102594223D01*
X211707129Y-102550001D01*
X211795401Y-102499525D01*
X211802863Y-102495334D01*
X211898707Y-102442601D01*
X211965456Y-102408972D01*
X212009251Y-102392036D01*
X212036228Y-102389385D01*
X212052528Y-102398609D01*
G36*
X212052528Y-102398609D02*
G01*
X212060275Y-102410169D01*
X212087963Y-102455573D01*
X212133493Y-102532125D01*
X212195122Y-102636838D01*
X212271108Y-102766723D01*
X212359706Y-102918792D01*
X212459175Y-103090059D01*
X212567772Y-103277535D01*
X212683753Y-103478232D01*
X212805376Y-103689163D01*
X212838731Y-103747073D01*
X212970621Y-103976046D01*
X213103395Y-104206533D01*
X213234340Y-104433828D01*
X213360745Y-104653223D01*
X213479897Y-104860012D01*
X213589084Y-105049486D01*
X213685594Y-105216940D01*
X213766714Y-105357665D01*
X213829732Y-105466954D01*
X214127414Y-105983087D01*
X209953420Y-105983087D01*
X209780863Y-105983072D01*
X209369623Y-105982914D01*
X208970976Y-105982590D01*
X208586865Y-105982109D01*
X208219231Y-105981479D01*
X207870013Y-105980708D01*
X207541153Y-105979804D01*
X207234592Y-105978776D01*
X206952271Y-105977632D01*
X206696130Y-105976380D01*
X206468111Y-105975029D01*
X206270154Y-105973587D01*
X206104201Y-105972063D01*
X205972191Y-105970464D01*
X205876067Y-105968799D01*
X205817769Y-105967076D01*
X205799237Y-105965304D01*
X205812996Y-105956337D01*
X205860468Y-105927764D01*
X205938443Y-105881765D01*
X206043749Y-105820165D01*
X206173215Y-105744788D01*
X206323670Y-105657460D01*
X206491942Y-105560004D01*
X206674860Y-105454246D01*
X206869253Y-105342011D01*
X207071948Y-105225123D01*
X207279775Y-105105407D01*
X207489561Y-104984687D01*
X207698137Y-104864789D01*
X207902330Y-104747537D01*
X208098968Y-104634756D01*
X208284881Y-104528270D01*
X208456897Y-104429905D01*
X208611844Y-104341485D01*
X208746552Y-104264835D01*
X208857848Y-104201780D01*
X208942562Y-104154144D01*
X208997521Y-104123752D01*
X209019555Y-104112429D01*
X209033934Y-104115235D01*
X209077247Y-104140763D01*
X209139001Y-104188057D01*
X209212409Y-104252198D01*
X209278527Y-104316408D01*
X209362741Y-104403875D01*
X209456966Y-104505990D01*
X209556373Y-104617130D01*
X209656132Y-104731675D01*
X209751412Y-104844000D01*
X209837384Y-104948485D01*
X209909217Y-105039506D01*
X209962081Y-105111441D01*
X209991147Y-105158668D01*
X210010550Y-105193159D01*
X210063248Y-105264537D01*
X210130995Y-105340474D01*
X210204133Y-105411230D01*
X210273001Y-105467066D01*
X210327942Y-105498244D01*
X210388620Y-105505450D01*
X210469589Y-105485532D01*
X210546544Y-105439862D01*
X210606265Y-105374324D01*
X210616606Y-105357321D01*
X210629773Y-105329474D01*
X210638354Y-105295961D01*
X210642901Y-105249583D01*
X210643964Y-105183138D01*
X210642092Y-105089427D01*
X210637837Y-104961248D01*
X210634788Y-104887103D01*
X210628309Y-104769846D01*
X210620662Y-104667221D01*
X210612560Y-104588250D01*
X210604716Y-104541954D01*
X210585726Y-104489068D01*
X210529427Y-104384921D01*
X210441944Y-104261519D01*
X210322210Y-104117414D01*
X210169156Y-103951156D01*
X210102738Y-103881107D01*
X210025943Y-103798475D01*
X209962560Y-103728416D01*
X209917803Y-103676714D01*
X209896885Y-103649152D01*
X209894735Y-103644775D01*
X209892156Y-103625934D01*
X209905039Y-103605044D01*
X209938661Y-103577604D01*
X209998298Y-103539111D01*
X210089227Y-103485065D01*
X210166527Y-103439944D01*
X210308774Y-103357407D01*
X210420772Y-103293296D01*
X210506282Y-103245529D01*
X210569066Y-103212024D01*
X210612886Y-103190700D01*
X210641503Y-103179476D01*
X210671116Y-103167023D01*
X210688424Y-103150299D01*
X210690043Y-103146354D01*
X210715367Y-103124415D01*
X210761650Y-103096158D01*
X210834876Y-103056723D01*
X210888944Y-103107056D01*
X210908041Y-103127448D01*
X210952472Y-103182865D01*
X211006723Y-103256856D01*
X211063054Y-103339106D01*
X211183097Y-103520822D01*
X211178386Y-103991916D01*
X211173675Y-104463009D01*
X211105079Y-104529657D01*
X211082028Y-104553418D01*
X211008110Y-104660166D01*
X210964961Y-104787105D01*
X210950259Y-104940394D01*
X210953910Y-105022527D01*
X210979678Y-105167405D01*
X211026644Y-105299636D01*
X211090736Y-105405736D01*
X211135242Y-105444423D01*
X211214352Y-105473807D01*
X211303908Y-105477197D01*
X211392446Y-105456156D01*
X211468502Y-105412250D01*
X211520613Y-105347045D01*
X211522318Y-105343511D01*
X211553817Y-105278957D01*
X211587177Y-105211494D01*
X211615497Y-105148163D01*
X211656122Y-105041420D01*
X211700943Y-104909818D01*
X211748403Y-104759224D01*
X211796943Y-104595501D01*
X211845006Y-104424514D01*
X211891035Y-104252126D01*
X211933472Y-104084203D01*
X211970760Y-103926609D01*
X212001340Y-103785208D01*
X212023657Y-103665865D01*
X212036152Y-103574443D01*
X212037267Y-103516807D01*
X212034754Y-103503714D01*
X212010263Y-103437432D01*
X211964817Y-103348757D01*
X211902406Y-103245707D01*
X211878452Y-103208571D01*
X211782203Y-103057144D01*
X211700389Y-102924717D01*
X211634812Y-102814389D01*
X211587277Y-102729255D01*
X211559591Y-102672414D01*
X211553555Y-102646962D01*
X211554254Y-102646064D01*
X211579240Y-102627731D01*
X211632637Y-102594223D01*
X211707129Y-102550001D01*
X211795401Y-102499525D01*
X211802863Y-102495334D01*
X211898707Y-102442601D01*
X211965456Y-102408972D01*
X212009251Y-102392036D01*
X212036228Y-102389385D01*
X212052528Y-102398609D01*
G37*
D14*
%TO.C,U6*%
X188498000Y-90477000D02*
X190102000Y-90477000D01*
X190102000Y-88023000D02*
X188498000Y-88023000D01*
%TO.C,U22*%
X230502000Y-79023000D02*
X228898000Y-79023000D01*
X228898000Y-81477000D02*
X230502000Y-81477000D01*
%TO.C,U7*%
X199502000Y-73023000D02*
X197898000Y-73023000D01*
X197898000Y-75477000D02*
X199502000Y-75477000D01*
%TD*%
M02*
