%TF.GenerationSoftware,KiCad,Pcbnew,8.0.1*%
%TF.CreationDate,2026-01-15T10:00:18-05:00*%
%TF.ProjectId,Main Mezzanine Backplane,4d61696e-204d-4657-9a7a-616e696e6520,rev?*%
%TF.SameCoordinates,Original*%
%TF.FileFunction,Soldermask,Top*%
%TF.FilePolarity,Negative*%
%FSLAX46Y46*%
G04 Gerber Fmt 4.6, Leading zero omitted, Abs format (unit mm)*
G04 Created by KiCad (PCBNEW 8.0.1) date 2026-01-15 10:00:18*
%MOMM*%
%LPD*%
G01*
G04 APERTURE LIST*
%ADD10R,1.193800X0.304800*%
%ADD11R,1.803400X2.006600*%
%ADD12C,3.600000*%
%ADD13C,6.400000*%
%ADD14C,0.550000*%
G04 APERTURE END LIST*
D10*
%TO.C,J6*%
X218651100Y-53249999D03*
X218651100Y-53750001D03*
X218651100Y-54250000D03*
X218651100Y-54749999D03*
X218651100Y-55250000D03*
X218651100Y-55749999D03*
X218651100Y-56250001D03*
X218651100Y-56750000D03*
X218651100Y-57249999D03*
X218651100Y-57750000D03*
X218651100Y-58249999D03*
X218651100Y-58750001D03*
X218651100Y-59250000D03*
X218651100Y-59749999D03*
X218651100Y-60250000D03*
X218651100Y-60749999D03*
X218651100Y-61250001D03*
X218651100Y-61750000D03*
X218651100Y-62249999D03*
X218651100Y-62750000D03*
X218651100Y-63249999D03*
X218651100Y-63750001D03*
X218651100Y-64250000D03*
X218651100Y-64749999D03*
X218651100Y-65250000D03*
X218651100Y-65750000D03*
X218651100Y-66249998D03*
X218651100Y-66750000D03*
X218651100Y-67249999D03*
X218651100Y-67750001D03*
X218651100Y-68250000D03*
X218651100Y-68749999D03*
X218651100Y-69250000D03*
X218651100Y-69749999D03*
X218651100Y-70250001D03*
X218651100Y-70750000D03*
X218651100Y-71249999D03*
X218651100Y-71750000D03*
X218651100Y-72249999D03*
X218651100Y-72750001D03*
X218651100Y-73250000D03*
X218651100Y-73749999D03*
X218651100Y-74250000D03*
X218651100Y-74749999D03*
X218651100Y-75250001D03*
X218651100Y-75750000D03*
X218651100Y-76249999D03*
X218651100Y-76750000D03*
X218651100Y-77249999D03*
X218651100Y-77750001D03*
D11*
X215401098Y-51700002D03*
X215401098Y-79299998D03*
%TD*%
D10*
%TO.C,J5*%
X204651100Y-86249999D03*
X204651100Y-86750001D03*
X204651100Y-87250000D03*
X204651100Y-87749999D03*
X204651100Y-88250000D03*
X204651100Y-88749999D03*
X204651100Y-89250001D03*
X204651100Y-89750000D03*
X204651100Y-90249999D03*
X204651100Y-90750000D03*
X204651100Y-91249999D03*
X204651100Y-91750001D03*
X204651100Y-92250000D03*
X204651100Y-92749999D03*
X204651100Y-93250000D03*
X204651100Y-93749999D03*
X204651100Y-94250001D03*
X204651100Y-94750000D03*
X204651100Y-95249999D03*
X204651100Y-95750000D03*
X204651100Y-96249999D03*
X204651100Y-96750001D03*
X204651100Y-97250000D03*
X204651100Y-97749999D03*
X204651100Y-98250000D03*
X204651100Y-98750000D03*
X204651100Y-99249998D03*
X204651100Y-99750000D03*
X204651100Y-100249999D03*
X204651100Y-100750001D03*
X204651100Y-101250000D03*
X204651100Y-101749999D03*
X204651100Y-102250000D03*
X204651100Y-102749999D03*
X204651100Y-103250001D03*
X204651100Y-103750000D03*
X204651100Y-104249999D03*
X204651100Y-104750000D03*
X204651100Y-105249999D03*
X204651100Y-105750001D03*
X204651100Y-106250000D03*
X204651100Y-106749999D03*
X204651100Y-107250000D03*
X204651100Y-107749999D03*
X204651100Y-108250001D03*
X204651100Y-108750000D03*
X204651100Y-109249999D03*
X204651100Y-109750000D03*
X204651100Y-110249999D03*
X204651100Y-110750001D03*
D11*
X201401098Y-84700002D03*
X201401098Y-112299998D03*
%TD*%
D12*
%TO.C,H1*%
X189500000Y-63500000D03*
D13*
X189500000Y-63500000D03*
%TD*%
D10*
%TO.C,J3*%
X209651100Y-119249999D03*
X209651100Y-119750001D03*
X209651100Y-120250000D03*
X209651100Y-120749999D03*
X209651100Y-121250000D03*
X209651100Y-121749999D03*
X209651100Y-122250001D03*
X209651100Y-122750000D03*
X209651100Y-123249999D03*
X209651100Y-123750000D03*
X209651100Y-124249999D03*
X209651100Y-124750001D03*
X209651100Y-125250000D03*
X209651100Y-125749999D03*
X209651100Y-126250000D03*
X209651100Y-126749999D03*
X209651100Y-127250001D03*
X209651100Y-127750000D03*
X209651100Y-128249999D03*
X209651100Y-128750000D03*
X209651100Y-129249999D03*
X209651100Y-129750001D03*
X209651100Y-130250000D03*
X209651100Y-130749999D03*
X209651100Y-131250000D03*
X209651100Y-131750000D03*
X209651100Y-132249998D03*
X209651100Y-132750000D03*
X209651100Y-133249999D03*
X209651100Y-133750001D03*
X209651100Y-134250000D03*
X209651100Y-134749999D03*
X209651100Y-135250000D03*
X209651100Y-135749999D03*
X209651100Y-136250001D03*
X209651100Y-136750000D03*
X209651100Y-137249999D03*
X209651100Y-137750000D03*
X209651100Y-138249999D03*
X209651100Y-138750001D03*
X209651100Y-139250000D03*
X209651100Y-139749999D03*
X209651100Y-140250000D03*
X209651100Y-140749999D03*
X209651100Y-141250001D03*
X209651100Y-141750000D03*
X209651100Y-142249999D03*
X209651100Y-142750000D03*
X209651100Y-143249999D03*
X209651100Y-143750001D03*
D11*
X206401098Y-117700002D03*
X206401098Y-145299998D03*
%TD*%
D12*
%TO.C,H2*%
X229500000Y-63500000D03*
D13*
X229500000Y-63500000D03*
%TD*%
D12*
%TO.C,H4*%
X229500000Y-121000000D03*
D13*
X229500000Y-121000000D03*
%TD*%
D10*
%TO.C,J4*%
X204651100Y-53249999D03*
X204651100Y-53750001D03*
X204651100Y-54250000D03*
X204651100Y-54749999D03*
X204651100Y-55250000D03*
X204651100Y-55749999D03*
X204651100Y-56250001D03*
X204651100Y-56750000D03*
X204651100Y-57249999D03*
X204651100Y-57750000D03*
X204651100Y-58249999D03*
X204651100Y-58750001D03*
X204651100Y-59250000D03*
X204651100Y-59749999D03*
X204651100Y-60250000D03*
X204651100Y-60749999D03*
X204651100Y-61250001D03*
X204651100Y-61750000D03*
X204651100Y-62249999D03*
X204651100Y-62750000D03*
X204651100Y-63249999D03*
X204651100Y-63750001D03*
X204651100Y-64250000D03*
X204651100Y-64749999D03*
X204651100Y-65250000D03*
X204651100Y-65750000D03*
X204651100Y-66249998D03*
X204651100Y-66750000D03*
X204651100Y-67249999D03*
X204651100Y-67750001D03*
X204651100Y-68250000D03*
X204651100Y-68749999D03*
X204651100Y-69250000D03*
X204651100Y-69749999D03*
X204651100Y-70250001D03*
X204651100Y-70750000D03*
X204651100Y-71249999D03*
X204651100Y-71750000D03*
X204651100Y-72249999D03*
X204651100Y-72750001D03*
X204651100Y-73250000D03*
X204651100Y-73749999D03*
X204651100Y-74250000D03*
X204651100Y-74749999D03*
X204651100Y-75250001D03*
X204651100Y-75750000D03*
X204651100Y-76249999D03*
X204651100Y-76750000D03*
X204651100Y-77249999D03*
X204651100Y-77750001D03*
D11*
X201401098Y-51700002D03*
X201401098Y-79299998D03*
%TD*%
D10*
%TO.C,J7*%
X218651100Y-86249999D03*
X218651100Y-86750001D03*
X218651100Y-87250000D03*
X218651100Y-87749999D03*
X218651100Y-88250000D03*
X218651100Y-88749999D03*
X218651100Y-89250001D03*
X218651100Y-89750000D03*
X218651100Y-90249999D03*
X218651100Y-90750000D03*
X218651100Y-91249999D03*
X218651100Y-91750001D03*
X218651100Y-92250000D03*
X218651100Y-92749999D03*
X218651100Y-93250000D03*
X218651100Y-93749999D03*
X218651100Y-94250001D03*
X218651100Y-94750000D03*
X218651100Y-95249999D03*
X218651100Y-95750000D03*
X218651100Y-96249999D03*
X218651100Y-96750001D03*
X218651100Y-97250000D03*
X218651100Y-97749999D03*
X218651100Y-98250000D03*
X218651100Y-98750000D03*
X218651100Y-99249998D03*
X218651100Y-99750000D03*
X218651100Y-100249999D03*
X218651100Y-100750001D03*
X218651100Y-101250000D03*
X218651100Y-101749999D03*
X218651100Y-102250000D03*
X218651100Y-102749999D03*
X218651100Y-103250001D03*
X218651100Y-103750000D03*
X218651100Y-104249999D03*
X218651100Y-104750000D03*
X218651100Y-105249999D03*
X218651100Y-105750001D03*
X218651100Y-106250000D03*
X218651100Y-106749999D03*
X218651100Y-107250000D03*
X218651100Y-107749999D03*
X218651100Y-108250001D03*
X218651100Y-108750000D03*
X218651100Y-109249999D03*
X218651100Y-109750000D03*
X218651100Y-110249999D03*
X218651100Y-110750001D03*
D11*
X215401098Y-84700002D03*
X215401098Y-112299998D03*
%TD*%
D12*
%TO.C,H3*%
X189500000Y-121000000D03*
D13*
X189500000Y-121000000D03*
%TD*%
D14*
%TO.C,J1*%
X195250000Y-71800000D03*
X195250000Y-98200000D03*
%TD*%
%TO.C,J2*%
X226250000Y-71800000D03*
X226250000Y-98200000D03*
%TD*%
M02*
