%TF.GenerationSoftware,KiCad,Pcbnew,8.0.1*%
%TF.CreationDate,2026-01-15T10:00:18-05:00*%
%TF.ProjectId,Main Mezzanine Backplane,4d61696e-204d-4657-9a7a-616e696e6520,rev?*%
%TF.SameCoordinates,Original*%
%TF.FileFunction,Paste,Bot*%
%TF.FilePolarity,Positive*%
%FSLAX46Y46*%
G04 Gerber Fmt 4.6, Leading zero omitted, Abs format (unit mm)*
G04 Created by KiCad (PCBNEW 8.0.1) date 2026-01-15 10:00:18*
%MOMM*%
%LPD*%
G01*
G04 APERTURE LIST*
G04 Aperture macros list*
%AMRoundRect*
0 Rectangle with rounded corners*
0 $1 Rounding radius*
0 $2 $3 $4 $5 $6 $7 $8 $9 X,Y pos of 4 corners*
0 Add a 4 corners polygon primitive as box body*
4,1,4,$2,$3,$4,$5,$6,$7,$8,$9,$2,$3,0*
0 Add four circle primitives for the rounded corners*
1,1,$1+$1,$2,$3*
1,1,$1+$1,$4,$5*
1,1,$1+$1,$6,$7*
1,1,$1+$1,$8,$9*
0 Add four rect primitives between the rounded corners*
20,1,$1+$1,$2,$3,$4,$5,0*
20,1,$1+$1,$4,$5,$6,$7,0*
20,1,$1+$1,$6,$7,$8,$9,0*
20,1,$1+$1,$8,$9,$2,$3,0*%
G04 Aperture macros list end*
%ADD10R,0.600000X0.420000*%
%ADD11O,0.600000X0.420000*%
%ADD12RoundRect,0.075000X-0.825000X0.075000X-0.825000X-0.075000X0.825000X-0.075000X0.825000X0.075000X0*%
G04 APERTURE END LIST*
D10*
%TO.C,U8*%
X197749999Y-77899999D03*
D11*
X197749999Y-77250000D03*
X197749999Y-76600001D03*
X199650001Y-76600001D03*
X199650001Y-77250000D03*
X199650001Y-77899999D03*
%TD*%
D10*
%TO.C,U20*%
X228749999Y-74899999D03*
D11*
X228749999Y-74250000D03*
X228749999Y-73600001D03*
X230650001Y-73600001D03*
X230650001Y-74250000D03*
X230650001Y-74899999D03*
%TD*%
D10*
%TO.C,U5*%
X190250001Y-85600001D03*
D11*
X190250001Y-86250000D03*
X190250001Y-86899999D03*
X188349999Y-86899999D03*
X188349999Y-86250000D03*
X188349999Y-85600001D03*
%TD*%
D10*
%TO.C,U12*%
X197749999Y-89899999D03*
D11*
X197749999Y-89250000D03*
X197749999Y-88600001D03*
X199650001Y-88600001D03*
X199650001Y-89250000D03*
X199650001Y-89899999D03*
%TD*%
D10*
%TO.C,U21*%
X228749999Y-77899999D03*
D11*
X228749999Y-77250000D03*
X228749999Y-76600001D03*
X230650001Y-76600001D03*
X230650001Y-77250000D03*
X230650001Y-77899999D03*
%TD*%
D12*
%TO.C,J1*%
X196000000Y-72750000D03*
X196000000Y-73250000D03*
X196000000Y-73750000D03*
X196000000Y-74250000D03*
X196000000Y-74750000D03*
X196000000Y-75250000D03*
X196000000Y-75750000D03*
X196000000Y-76250000D03*
X196000000Y-76750000D03*
X196000000Y-77250000D03*
X196000000Y-77750000D03*
X196000000Y-78250000D03*
X196000000Y-78750000D03*
X196000000Y-79250000D03*
X196000000Y-79750000D03*
X196000000Y-80250000D03*
X196000000Y-80750000D03*
X196000000Y-81250000D03*
X196000000Y-81750000D03*
X196000000Y-82250000D03*
X196000000Y-82750000D03*
X196000000Y-83250000D03*
X196000000Y-83750000D03*
X196000000Y-84250000D03*
X196000000Y-84750000D03*
X196000000Y-85250000D03*
X196000000Y-85750000D03*
X196000000Y-86250000D03*
X196000000Y-86750000D03*
X196000000Y-87250000D03*
X196000000Y-87750000D03*
X196000000Y-88250000D03*
X196000000Y-88750000D03*
X196000000Y-89250000D03*
X196000000Y-89750000D03*
X196000000Y-90250000D03*
X196000000Y-90750000D03*
X196000000Y-91250000D03*
X196000000Y-91750000D03*
X196000000Y-92250000D03*
X196000000Y-92750000D03*
X196000000Y-93250000D03*
X196000000Y-93750000D03*
X196000000Y-94250000D03*
X196000000Y-94750000D03*
X196000000Y-95250000D03*
X196000000Y-95750000D03*
X196000000Y-96250000D03*
X196000000Y-96750000D03*
X196000000Y-97250000D03*
X192000000Y-72750000D03*
X192000000Y-73250000D03*
X192000000Y-73750000D03*
X192000000Y-74250000D03*
X192000000Y-74750000D03*
X192000000Y-75250000D03*
X192000000Y-75750000D03*
X192000000Y-76250000D03*
X192000000Y-76750000D03*
X192000000Y-77250000D03*
X192000000Y-77750000D03*
X192000000Y-78250000D03*
X192000000Y-78750000D03*
X192000000Y-79250000D03*
X192000000Y-79750000D03*
X192000000Y-80250000D03*
X192000000Y-80750000D03*
X192000000Y-81250000D03*
X192000000Y-81750000D03*
X192000000Y-82250000D03*
X192000000Y-82750000D03*
X192000000Y-83250000D03*
X192000000Y-83750000D03*
X192000000Y-84250000D03*
X192000000Y-84750000D03*
X192000000Y-85250000D03*
X192000000Y-85750000D03*
X192000000Y-86250000D03*
X192000000Y-86750000D03*
X192000000Y-87250000D03*
X192000000Y-87750000D03*
X192000000Y-88250000D03*
X192000000Y-88750000D03*
X192000000Y-89250000D03*
X192000000Y-89750000D03*
X192000000Y-90250000D03*
X192000000Y-90750000D03*
X192000000Y-91250000D03*
X192000000Y-91750000D03*
X192000000Y-92250000D03*
X192000000Y-92750000D03*
X192000000Y-93250000D03*
X192000000Y-93750000D03*
X192000000Y-94250000D03*
X192000000Y-94750000D03*
X192000000Y-95250000D03*
X192000000Y-95750000D03*
X192000000Y-96250000D03*
X192000000Y-96750000D03*
X192000000Y-97250000D03*
%TD*%
D10*
%TO.C,U16*%
X221250001Y-79600001D03*
D11*
X221250001Y-80250000D03*
X221250001Y-80899999D03*
X219349999Y-80899999D03*
X219349999Y-80250000D03*
X219349999Y-79600001D03*
%TD*%
D10*
%TO.C,U14*%
X221250001Y-73600001D03*
D11*
X221250001Y-74250000D03*
X221250001Y-74899999D03*
X219349999Y-74899999D03*
X219349999Y-74250000D03*
X219349999Y-73600001D03*
%TD*%
D10*
%TO.C,U17*%
X221250001Y-82600001D03*
D11*
X221250001Y-83250000D03*
X221250001Y-83899999D03*
X219349999Y-83899999D03*
X219349999Y-83250000D03*
X219349999Y-82600001D03*
%TD*%
D10*
%TO.C,U10*%
X197749999Y-83899999D03*
D11*
X197749999Y-83250000D03*
X197749999Y-82600001D03*
X199650001Y-82600001D03*
X199650001Y-83250000D03*
X199650001Y-83899999D03*
%TD*%
D10*
%TO.C,U19*%
X221250001Y-88600001D03*
D11*
X221250001Y-89250000D03*
X221250001Y-89899999D03*
X219349999Y-89899999D03*
X219349999Y-89250000D03*
X219349999Y-88600001D03*
%TD*%
D10*
%TO.C,U1*%
X190250001Y-73600001D03*
D11*
X190250001Y-74250000D03*
X190250001Y-74899999D03*
X188349999Y-74899999D03*
X188349999Y-74250000D03*
X188349999Y-73600001D03*
%TD*%
D10*
%TO.C,U11*%
X197749999Y-86899999D03*
D11*
X197749999Y-86250000D03*
X197749999Y-85600001D03*
X199650001Y-85600001D03*
X199650001Y-86250000D03*
X199650001Y-86899999D03*
%TD*%
D10*
%TO.C,U4*%
X190250001Y-82600001D03*
D11*
X190250001Y-83250000D03*
X190250001Y-83899999D03*
X188349999Y-83899999D03*
X188349999Y-83250000D03*
X188349999Y-82600001D03*
%TD*%
D12*
%TO.C,J2*%
X227000000Y-72750000D03*
X227000000Y-73250000D03*
X227000000Y-73750000D03*
X227000000Y-74250000D03*
X227000000Y-74750000D03*
X227000000Y-75250000D03*
X227000000Y-75750000D03*
X227000000Y-76250000D03*
X227000000Y-76750000D03*
X227000000Y-77250000D03*
X227000000Y-77750000D03*
X227000000Y-78250000D03*
X227000000Y-78750000D03*
X227000000Y-79250000D03*
X227000000Y-79750000D03*
X227000000Y-80250000D03*
X227000000Y-80750000D03*
X227000000Y-81250000D03*
X227000000Y-81750000D03*
X227000000Y-82250000D03*
X227000000Y-82750000D03*
X227000000Y-83250000D03*
X227000000Y-83750000D03*
X227000000Y-84250000D03*
X227000000Y-84750000D03*
X227000000Y-85250000D03*
X227000000Y-85750000D03*
X227000000Y-86250000D03*
X227000000Y-86750000D03*
X227000000Y-87250000D03*
X227000000Y-87750000D03*
X227000000Y-88250000D03*
X227000000Y-88750000D03*
X227000000Y-89250000D03*
X227000000Y-89750000D03*
X227000000Y-90250000D03*
X227000000Y-90750000D03*
X227000000Y-91250000D03*
X227000000Y-91750000D03*
X227000000Y-92250000D03*
X227000000Y-92750000D03*
X227000000Y-93250000D03*
X227000000Y-93750000D03*
X227000000Y-94250000D03*
X227000000Y-94750000D03*
X227000000Y-95250000D03*
X227000000Y-95750000D03*
X227000000Y-96250000D03*
X227000000Y-96750000D03*
X227000000Y-97250000D03*
X223000000Y-72750000D03*
X223000000Y-73250000D03*
X223000000Y-73750000D03*
X223000000Y-74250000D03*
X223000000Y-74750000D03*
X223000000Y-75250000D03*
X223000000Y-75750000D03*
X223000000Y-76250000D03*
X223000000Y-76750000D03*
X223000000Y-77250000D03*
X223000000Y-77750000D03*
X223000000Y-78250000D03*
X223000000Y-78750000D03*
X223000000Y-79250000D03*
X223000000Y-79750000D03*
X223000000Y-80250000D03*
X223000000Y-80750000D03*
X223000000Y-81250000D03*
X223000000Y-81750000D03*
X223000000Y-82250000D03*
X223000000Y-82750000D03*
X223000000Y-83250000D03*
X223000000Y-83750000D03*
X223000000Y-84250000D03*
X223000000Y-84750000D03*
X223000000Y-85250000D03*
X223000000Y-85750000D03*
X223000000Y-86250000D03*
X223000000Y-86750000D03*
X223000000Y-87250000D03*
X223000000Y-87750000D03*
X223000000Y-88250000D03*
X223000000Y-88750000D03*
X223000000Y-89250000D03*
X223000000Y-89750000D03*
X223000000Y-90250000D03*
X223000000Y-90750000D03*
X223000000Y-91250000D03*
X223000000Y-91750000D03*
X223000000Y-92250000D03*
X223000000Y-92750000D03*
X223000000Y-93250000D03*
X223000000Y-93750000D03*
X223000000Y-94250000D03*
X223000000Y-94750000D03*
X223000000Y-95250000D03*
X223000000Y-95750000D03*
X223000000Y-96250000D03*
X223000000Y-96750000D03*
X223000000Y-97250000D03*
%TD*%
D10*
%TO.C,U24*%
X228749999Y-86899999D03*
D11*
X228749999Y-86250000D03*
X228749999Y-85600001D03*
X230650001Y-85600001D03*
X230650001Y-86250000D03*
X230650001Y-86899999D03*
%TD*%
D10*
%TO.C,U18*%
X221250001Y-85600001D03*
D11*
X221250001Y-86250000D03*
X221250001Y-86899999D03*
X219349999Y-86899999D03*
X219349999Y-86250000D03*
X219349999Y-85600001D03*
%TD*%
D10*
%TO.C,U3*%
X190250001Y-79600001D03*
D11*
X190250001Y-80250000D03*
X190250001Y-80899999D03*
X188349999Y-80899999D03*
X188349999Y-80250000D03*
X188349999Y-79600001D03*
%TD*%
D10*
%TO.C,U9*%
X197749999Y-80899999D03*
D11*
X197749999Y-80250000D03*
X197749999Y-79600001D03*
X199650001Y-79600001D03*
X199650001Y-80250000D03*
X199650001Y-80899999D03*
%TD*%
D10*
%TO.C,U25*%
X228749999Y-89899999D03*
D11*
X228749999Y-89250000D03*
X228749999Y-88600001D03*
X230650001Y-88600001D03*
X230650001Y-89250000D03*
X230650001Y-89899999D03*
%TD*%
D10*
%TO.C,U2*%
X190250001Y-76600001D03*
D11*
X190250001Y-77250000D03*
X190250001Y-77899999D03*
X188349999Y-77899999D03*
X188349999Y-77250000D03*
X188349999Y-76600001D03*
%TD*%
D10*
%TO.C,U15*%
X221250001Y-76600001D03*
D11*
X221250001Y-77250000D03*
X221250001Y-77899999D03*
X219349999Y-77899999D03*
X219349999Y-77250000D03*
X219349999Y-76600001D03*
%TD*%
D10*
%TO.C,U13*%
X194850001Y-101200001D03*
D11*
X194850001Y-101850000D03*
X194850001Y-102499999D03*
X192949999Y-102499999D03*
X192949999Y-101850000D03*
X192949999Y-101200001D03*
%TD*%
D10*
%TO.C,U26*%
X224099999Y-103049999D03*
D11*
X224099999Y-102400000D03*
X224099999Y-101750001D03*
X226000001Y-101750001D03*
X226000001Y-102400000D03*
X226000001Y-103049999D03*
%TD*%
D10*
%TO.C,U23*%
X228749999Y-83899999D03*
D11*
X228749999Y-83250000D03*
X228749999Y-82600001D03*
X230650001Y-82600001D03*
X230650001Y-83250000D03*
X230650001Y-83899999D03*
%TD*%
D10*
%TO.C,U6*%
X190250001Y-88600001D03*
D11*
X190250001Y-89250000D03*
X190250001Y-89899999D03*
X188349999Y-89899999D03*
X188349999Y-89250000D03*
X188349999Y-88600001D03*
%TD*%
D10*
%TO.C,U22*%
X228749999Y-80899999D03*
D11*
X228749999Y-80250000D03*
X228749999Y-79600001D03*
X230650001Y-79600001D03*
X230650001Y-80250000D03*
X230650001Y-80899999D03*
%TD*%
D10*
%TO.C,U7*%
X197749999Y-74899999D03*
D11*
X197749999Y-74250000D03*
X197749999Y-73600001D03*
X199650001Y-73600001D03*
X199650001Y-74250000D03*
X199650001Y-74899999D03*
%TD*%
M02*
