%TF.GenerationSoftware,KiCad,Pcbnew,8.0.1*%
%TF.CreationDate,2026-01-15T09:52:55-05:00*%
%TF.ProjectId,Modular MiYR interface,4d6f6475-6c61-4722-904d-69595220696e,rev?*%
%TF.SameCoordinates,Original*%
%TF.FileFunction,Paste,Top*%
%TF.FilePolarity,Positive*%
%FSLAX46Y46*%
G04 Gerber Fmt 4.6, Leading zero omitted, Abs format (unit mm)*
G04 Created by KiCad (PCBNEW 8.0.1) date 2026-01-15 09:52:55*
%MOMM*%
%LPD*%
G01*
G04 APERTURE LIST*
G04 Aperture macros list*
%AMRoundRect*
0 Rectangle with rounded corners*
0 $1 Rounding radius*
0 $2 $3 $4 $5 $6 $7 $8 $9 X,Y pos of 4 corners*
0 Add a 4 corners polygon primitive as box body*
4,1,4,$2,$3,$4,$5,$6,$7,$8,$9,$2,$3,0*
0 Add four circle primitives for the rounded corners*
1,1,$1+$1,$2,$3*
1,1,$1+$1,$4,$5*
1,1,$1+$1,$6,$7*
1,1,$1+$1,$8,$9*
0 Add four rect primitives between the rounded corners*
20,1,$1+$1,$2,$3,$4,$5,0*
20,1,$1+$1,$4,$5,$6,$7,0*
20,1,$1+$1,$6,$7,$8,$9,0*
20,1,$1+$1,$8,$9,$2,$3,0*%
G04 Aperture macros list end*
%ADD10RoundRect,0.135000X0.185000X-0.135000X0.185000X0.135000X-0.185000X0.135000X-0.185000X-0.135000X0*%
%ADD11RoundRect,0.218750X0.256250X-0.218750X0.256250X0.218750X-0.256250X0.218750X-0.256250X-0.218750X0*%
%ADD12RoundRect,0.135000X-0.185000X0.135000X-0.185000X-0.135000X0.185000X-0.135000X0.185000X0.135000X0*%
%ADD13R,2.400000X0.740000*%
%ADD14R,1.193800X0.304800*%
%ADD15R,1.803400X2.006600*%
G04 APERTURE END LIST*
D10*
%TO.C,R7*%
X74000000Y-128310000D03*
X74000000Y-127290000D03*
%TD*%
D11*
%TO.C,D1*%
X71450000Y-125100000D03*
X71450000Y-123525000D03*
%TD*%
%TO.C,D4*%
X71450000Y-131987500D03*
X71450000Y-130412500D03*
%TD*%
D12*
%TO.C,R20*%
X72900000Y-52040000D03*
X72900000Y-53060000D03*
%TD*%
D13*
%TO.C,CN2*%
X129950000Y-66790000D03*
X126050000Y-66790000D03*
X129950000Y-68060000D03*
X126050000Y-68060000D03*
X129950000Y-69330000D03*
X126050000Y-69330000D03*
X129950000Y-70600000D03*
X126050000Y-70600000D03*
X129950000Y-71870000D03*
X126050000Y-71870000D03*
X129950000Y-73140000D03*
X126050000Y-73140000D03*
X129950000Y-74410000D03*
X126050000Y-74410000D03*
X129950000Y-75680000D03*
X126050000Y-75680000D03*
X129950000Y-76950000D03*
X126050000Y-76950000D03*
X129950000Y-78220000D03*
X126050000Y-78220000D03*
X129950000Y-79490000D03*
X126050000Y-79490000D03*
X129950000Y-80760000D03*
X126050000Y-80760000D03*
X129950000Y-82030000D03*
X126050000Y-82030000D03*
X129950000Y-83300000D03*
X126050000Y-83300000D03*
X129950000Y-84570000D03*
X126050000Y-84570000D03*
X129950000Y-85840000D03*
X126050000Y-85840000D03*
X129950000Y-87110000D03*
X126050000Y-87110000D03*
X129950000Y-88380000D03*
X126050000Y-88380000D03*
X129950000Y-89650000D03*
X126050000Y-89650000D03*
X129950000Y-90920000D03*
X126050000Y-90920000D03*
X129950000Y-92190000D03*
X126050000Y-92190000D03*
X129950000Y-93460000D03*
X126050000Y-93460000D03*
X129950000Y-94730000D03*
X126050000Y-94730000D03*
X129950000Y-96000000D03*
X126050000Y-96000000D03*
X129950000Y-97270000D03*
X126050000Y-97270000D03*
X129950000Y-98540000D03*
X126050000Y-98540000D03*
X129950000Y-99810000D03*
X126050000Y-99810000D03*
X129950000Y-101080000D03*
X126050000Y-101080000D03*
X129950000Y-102350000D03*
X126050000Y-102350000D03*
X129950000Y-103620000D03*
X126050000Y-103620000D03*
X129950000Y-104890000D03*
X126050000Y-104890000D03*
X129950000Y-106160000D03*
X126050000Y-106160000D03*
X129950000Y-107430000D03*
X126050000Y-107430000D03*
X129950000Y-108700000D03*
X126050000Y-108700000D03*
X129950000Y-109970000D03*
X126050000Y-109970000D03*
X129950000Y-111240000D03*
X126050000Y-111240000D03*
X129950000Y-112510000D03*
X126050000Y-112510000D03*
X129950000Y-113780000D03*
X126050000Y-113780000D03*
X129950000Y-115050000D03*
X126050000Y-115050000D03*
X129950000Y-116320000D03*
X126050000Y-116320000D03*
%TD*%
%TO.C,CN1*%
X76950000Y-66790000D03*
X73050000Y-66790000D03*
X76950000Y-68060000D03*
X73050000Y-68060000D03*
X76950000Y-69330000D03*
X73050000Y-69330000D03*
X76950000Y-70600000D03*
X73050000Y-70600000D03*
X76950000Y-71870000D03*
X73050000Y-71870000D03*
X76950000Y-73140000D03*
X73050000Y-73140000D03*
X76950000Y-74410000D03*
X73050000Y-74410000D03*
X76950000Y-75680000D03*
X73050000Y-75680000D03*
X76950000Y-76950000D03*
X73050000Y-76950000D03*
X76950000Y-78220000D03*
X73050000Y-78220000D03*
X76950000Y-79490000D03*
X73050000Y-79490000D03*
X76950000Y-80760000D03*
X73050000Y-80760000D03*
X76950000Y-82030000D03*
X73050000Y-82030000D03*
X76950000Y-83300000D03*
X73050000Y-83300000D03*
X76950000Y-84570000D03*
X73050000Y-84570000D03*
X76950000Y-85840000D03*
X73050000Y-85840000D03*
X76950000Y-87110000D03*
X73050000Y-87110000D03*
X76950000Y-88380000D03*
X73050000Y-88380000D03*
X76950000Y-89650000D03*
X73050000Y-89650000D03*
X76950000Y-90920000D03*
X73050000Y-90920000D03*
X76950000Y-92190000D03*
X73050000Y-92190000D03*
X76950000Y-93460000D03*
X73050000Y-93460000D03*
X76950000Y-94730000D03*
X73050000Y-94730000D03*
X76950000Y-96000000D03*
X73050000Y-96000000D03*
X76950000Y-97270000D03*
X73050000Y-97270000D03*
X76950000Y-98540000D03*
X73050000Y-98540000D03*
X76950000Y-99810000D03*
X73050000Y-99810000D03*
X76950000Y-101080000D03*
X73050000Y-101080000D03*
X76950000Y-102350000D03*
X73050000Y-102350000D03*
X76950000Y-103620000D03*
X73050000Y-103620000D03*
X76950000Y-104890000D03*
X73050000Y-104890000D03*
X76950000Y-106160000D03*
X73050000Y-106160000D03*
X76950000Y-107430000D03*
X73050000Y-107430000D03*
X76950000Y-108700000D03*
X73050000Y-108700000D03*
X76950000Y-109970000D03*
X73050000Y-109970000D03*
X76950000Y-111240000D03*
X73050000Y-111240000D03*
X76950000Y-112510000D03*
X73050000Y-112510000D03*
X76950000Y-113780000D03*
X73050000Y-113780000D03*
X76950000Y-115050000D03*
X73050000Y-115050000D03*
X76950000Y-116320000D03*
X73050000Y-116320000D03*
%TD*%
D14*
%TO.C,J5*%
X107350000Y-143700000D03*
X107350000Y-143199998D03*
X107350000Y-142699999D03*
X107350000Y-142200000D03*
X107350000Y-141699999D03*
X107350000Y-141200000D03*
X107350000Y-140699998D03*
X107350000Y-140199999D03*
X107350000Y-139700000D03*
X107350000Y-139199999D03*
X107350000Y-138700000D03*
X107350000Y-138199998D03*
X107350000Y-137699999D03*
X107350000Y-137200000D03*
X107350000Y-136699999D03*
X107350000Y-136200000D03*
X107350000Y-135699998D03*
X107350000Y-135199999D03*
X107350000Y-134700000D03*
X107350000Y-134199999D03*
X107350000Y-133700000D03*
X107350000Y-133199998D03*
X107350000Y-132699999D03*
X107350000Y-132200000D03*
X107350000Y-131699999D03*
X107350000Y-131199999D03*
X107350000Y-130700001D03*
X107350000Y-130199999D03*
X107350000Y-129700000D03*
X107350000Y-129199998D03*
X107350000Y-128699999D03*
X107350000Y-128200000D03*
X107350000Y-127699999D03*
X107350000Y-127200000D03*
X107350000Y-126699998D03*
X107350000Y-126199999D03*
X107350000Y-125700000D03*
X107350000Y-125199999D03*
X107350000Y-124700000D03*
X107350000Y-124199998D03*
X107350000Y-123699999D03*
X107350000Y-123200000D03*
X107350000Y-122699999D03*
X107350000Y-122200000D03*
X107350000Y-121699998D03*
X107350000Y-121199999D03*
X107350000Y-120700000D03*
X107350000Y-120199999D03*
X107350000Y-119700000D03*
X107350000Y-119199998D03*
D15*
X110600002Y-145249997D03*
X110600002Y-117650001D03*
%TD*%
D12*
%TO.C,R24*%
X72900000Y-62990000D03*
X72900000Y-64010000D03*
%TD*%
D10*
%TO.C,R17*%
X74000000Y-135260000D03*
X74000000Y-134240000D03*
%TD*%
D12*
%TO.C,R23*%
X72900000Y-59590000D03*
X72900000Y-60610000D03*
%TD*%
D11*
%TO.C,D3*%
X71450000Y-135437500D03*
X71450000Y-133862500D03*
%TD*%
D12*
%TO.C,R18*%
X73000000Y-130990000D03*
X73000000Y-132010000D03*
%TD*%
D11*
%TO.C,D7*%
X71450000Y-138887500D03*
X71450000Y-137312500D03*
%TD*%
%TO.C,D12*%
X71400000Y-60887500D03*
X71400000Y-59312500D03*
%TD*%
%TO.C,D11*%
X71400000Y-57487500D03*
X71400000Y-55912500D03*
%TD*%
D12*
%TO.C,R21*%
X72900000Y-48640000D03*
X72900000Y-49660000D03*
%TD*%
%TO.C,R22*%
X72900000Y-56190000D03*
X72900000Y-57210000D03*
%TD*%
D11*
%TO.C,D13*%
X71400000Y-64287500D03*
X71400000Y-62712500D03*
%TD*%
%TO.C,D2*%
X71450000Y-128537500D03*
X71450000Y-126962500D03*
%TD*%
%TO.C,D8*%
X71400000Y-53337500D03*
X71400000Y-51762500D03*
%TD*%
D12*
%TO.C,R6*%
X73000000Y-127290000D03*
X73000000Y-128310000D03*
%TD*%
%TO.C,R16*%
X73000000Y-134240000D03*
X73000000Y-135260000D03*
%TD*%
%TO.C,R1*%
X73000000Y-123790000D03*
X73000000Y-124810000D03*
%TD*%
%TO.C,R19*%
X73000000Y-137590000D03*
X73000000Y-138610000D03*
%TD*%
D11*
%TO.C,D10*%
X71400000Y-49937500D03*
X71400000Y-48362500D03*
%TD*%
M02*
