%TF.GenerationSoftware,KiCad,Pcbnew,8.0.1*%
%TF.CreationDate,2026-01-16T21:33:13-05:00*%
%TF.ProjectId,Modular MiYR interface,4d6f6475-6c61-4722-904d-69595220696e,rev?*%
%TF.SameCoordinates,Original*%
%TF.FileFunction,Copper,L1,Top*%
%TF.FilePolarity,Positive*%
%FSLAX46Y46*%
G04 Gerber Fmt 4.6, Leading zero omitted, Abs format (unit mm)*
G04 Created by KiCad (PCBNEW 8.0.1) date 2026-01-16 21:33:13*
%MOMM*%
%LPD*%
G01*
G04 APERTURE LIST*
G04 Aperture macros list*
%AMRoundRect*
0 Rectangle with rounded corners*
0 $1 Rounding radius*
0 $2 $3 $4 $5 $6 $7 $8 $9 X,Y pos of 4 corners*
0 Add a 4 corners polygon primitive as box body*
4,1,4,$2,$3,$4,$5,$6,$7,$8,$9,$2,$3,0*
0 Add four circle primitives for the rounded corners*
1,1,$1+$1,$2,$3*
1,1,$1+$1,$4,$5*
1,1,$1+$1,$6,$7*
1,1,$1+$1,$8,$9*
0 Add four rect primitives between the rounded corners*
20,1,$1+$1,$2,$3,$4,$5,0*
20,1,$1+$1,$4,$5,$6,$7,0*
20,1,$1+$1,$6,$7,$8,$9,0*
20,1,$1+$1,$8,$9,$2,$3,0*%
G04 Aperture macros list end*
%TA.AperFunction,SMDPad,CuDef*%
%ADD10RoundRect,0.135000X0.185000X-0.135000X0.185000X0.135000X-0.185000X0.135000X-0.185000X-0.135000X0*%
%TD*%
%TA.AperFunction,SMDPad,CuDef*%
%ADD11RoundRect,0.218750X0.256250X-0.218750X0.256250X0.218750X-0.256250X0.218750X-0.256250X-0.218750X0*%
%TD*%
%TA.AperFunction,SMDPad,CuDef*%
%ADD12RoundRect,0.135000X-0.185000X0.135000X-0.185000X-0.135000X0.185000X-0.135000X0.185000X0.135000X0*%
%TD*%
%TA.AperFunction,SMDPad,CuDef*%
%ADD13R,2.400000X0.740000*%
%TD*%
%TA.AperFunction,SMDPad,CuDef*%
%ADD14R,1.193800X0.280000*%
%TD*%
%TA.AperFunction,SMDPad,CuDef*%
%ADD15R,1.803400X2.006600*%
%TD*%
%TA.AperFunction,ComponentPad*%
%ADD16R,2.200000X2.200000*%
%TD*%
%TA.AperFunction,ComponentPad*%
%ADD17C,2.200000*%
%TD*%
%TA.AperFunction,ComponentPad*%
%ADD18R,1.700000X1.700000*%
%TD*%
%TA.AperFunction,ComponentPad*%
%ADD19O,1.700000X1.700000*%
%TD*%
%TA.AperFunction,ViaPad*%
%ADD20C,0.500000*%
%TD*%
%TA.AperFunction,Conductor*%
%ADD21C,0.200000*%
%TD*%
%TA.AperFunction,Conductor*%
%ADD22C,0.800000*%
%TD*%
G04 APERTURE END LIST*
D10*
%TO.P,R7,1*%
%TO.N,GND*%
X74000000Y-128310000D03*
%TO.P,R7,2*%
%TO.N,Net-(R6-Pad1)*%
X74000000Y-127290000D03*
%TD*%
D11*
%TO.P,D1,1,K*%
%TO.N,Net-(D1-K)*%
X71450000Y-125100000D03*
%TO.P,D1,2,A*%
%TO.N,+3.3V_ZYNQ*%
X71450000Y-123525000D03*
%TD*%
%TO.P,D4,1,K*%
%TO.N,Net-(D4-K)*%
X71450000Y-131987500D03*
%TO.P,D4,2,A*%
%TO.N,+3.3V*%
X71450000Y-130412500D03*
%TD*%
D12*
%TO.P,R20,1*%
%TO.N,PS_0*%
X72900000Y-52040000D03*
%TO.P,R20,2*%
%TO.N,Net-(D8-K)*%
X72900000Y-53060000D03*
%TD*%
D13*
%TO.P,CN2,1,Pin_1*%
%TO.N,+5V_ZYNQ*%
X129950000Y-66790000D03*
%TO.P,CN2,2,Pin_2*%
%TO.N,GND*%
X126050000Y-66790000D03*
%TO.P,CN2,3,Pin_3*%
%TO.N,unconnected-(CN2-Pin_3-Pad3)*%
X129950000Y-68060000D03*
%TO.P,CN2,4,Pin_4*%
%TO.N,GND*%
X126050000Y-68060000D03*
%TO.P,CN2,5,Pin_5*%
%TO.N,unconnected-(CN2-Pin_5-Pad5)*%
X129950000Y-69330000D03*
%TO.P,CN2,6,Pin_6*%
%TO.N,unconnected-(CN2-Pin_6-Pad6)*%
X126050000Y-69330000D03*
%TO.P,CN2,7,Pin_7*%
%TO.N,unconnected-(CN2-Pin_7-Pad7)*%
X129950000Y-70600000D03*
%TO.P,CN2,8,Pin_8*%
%TO.N,unconnected-(CN2-Pin_8-Pad8)*%
X126050000Y-70600000D03*
%TO.P,CN2,9,Pin_9*%
%TO.N,unconnected-(CN2-Pin_9-Pad9)*%
X129950000Y-71870000D03*
%TO.P,CN2,10,Pin_10*%
%TO.N,unconnected-(CN2-Pin_10-Pad10)*%
X126050000Y-71870000D03*
%TO.P,CN2,11,Pin_11*%
%TO.N,PS_0*%
X129950000Y-73140000D03*
%TO.P,CN2,12,Pin_12*%
%TO.N,POWER_FAIL*%
X126050000Y-73140000D03*
%TO.P,CN2,13,Pin_13*%
%TO.N,PS_8*%
X129950000Y-74410000D03*
%TO.P,CN2,14,Pin_14*%
%TO.N,POWER_OFF*%
X126050000Y-74410000D03*
%TO.P,CN2,15,Pin_15*%
%TO.N,PS_9*%
X129950000Y-75680000D03*
%TO.P,CN2,16,Pin_16*%
%TO.N,unconnected-(CN2-Pin_16-Pad16)*%
X126050000Y-75680000D03*
%TO.P,CN2,17,Pin_17*%
%TO.N,POWER_AUX_0*%
X129950000Y-76950000D03*
%TO.P,CN2,18,Pin_18*%
%TO.N,unconnected-(CN2-Pin_18-Pad18)*%
X126050000Y-76950000D03*
%TO.P,CN2,19,Pin_19*%
%TO.N,POWER_AUX_1*%
X129950000Y-78220000D03*
%TO.P,CN2,20,Pin_20*%
%TO.N,GND*%
X126050000Y-78220000D03*
%TO.P,CN2,21,Pin_21*%
X129950000Y-79490000D03*
%TO.P,CN2,22,Pin_22*%
%TO.N,R_0*%
X126050000Y-79490000D03*
%TO.P,CN2,23,Pin_23*%
%TO.N,R_1*%
X129950000Y-80760000D03*
%TO.P,CN2,24,Pin_24*%
%TO.N,R_2*%
X126050000Y-80760000D03*
%TO.P,CN2,25,Pin_25*%
%TO.N,R_3*%
X129950000Y-82030000D03*
%TO.P,CN2,26,Pin_26*%
%TO.N,R_4*%
X126050000Y-82030000D03*
%TO.P,CN2,27,Pin_27*%
%TO.N,R_5*%
X129950000Y-83300000D03*
%TO.P,CN2,28,Pin_28*%
%TO.N,R_6*%
X126050000Y-83300000D03*
%TO.P,CN2,29,Pin_29*%
%TO.N,R_7*%
X129950000Y-84570000D03*
%TO.P,CN2,30,Pin_30*%
%TO.N,GND*%
X126050000Y-84570000D03*
%TO.P,CN2,31,Pin_31*%
X129950000Y-85840000D03*
%TO.P,CN2,32,Pin_32*%
%TO.N,R_8*%
X126050000Y-85840000D03*
%TO.P,CN2,33,Pin_33*%
%TO.N,R_9*%
X129950000Y-87110000D03*
%TO.P,CN2,34,Pin_34*%
%TO.N,R_10*%
X126050000Y-87110000D03*
%TO.P,CN2,35,Pin_35*%
%TO.N,R_11*%
X129950000Y-88380000D03*
%TO.P,CN2,36,Pin_36*%
%TO.N,R_12*%
X126050000Y-88380000D03*
%TO.P,CN2,37,Pin_37*%
%TO.N,R_13*%
X129950000Y-89650000D03*
%TO.P,CN2,38,Pin_38*%
%TO.N,R_14*%
X126050000Y-89650000D03*
%TO.P,CN2,39,Pin_39*%
%TO.N,R_15*%
X129950000Y-90920000D03*
%TO.P,CN2,40,Pin_40*%
%TO.N,GND*%
X126050000Y-90920000D03*
%TO.P,CN2,41,Pin_41*%
X129950000Y-92190000D03*
%TO.P,CN2,42,Pin_42*%
%TO.N,R_16*%
X126050000Y-92190000D03*
%TO.P,CN2,43,Pin_43*%
%TO.N,R_17*%
X129950000Y-93460000D03*
%TO.P,CN2,44,Pin_44*%
%TO.N,R_18*%
X126050000Y-93460000D03*
%TO.P,CN2,45,Pin_45*%
%TO.N,R_19*%
X129950000Y-94730000D03*
%TO.P,CN2,46,Pin_46*%
%TO.N,R_20*%
X126050000Y-94730000D03*
%TO.P,CN2,47,Pin_47*%
%TO.N,R_21*%
X129950000Y-96000000D03*
%TO.P,CN2,48,Pin_48*%
%TO.N,R_22*%
X126050000Y-96000000D03*
%TO.P,CN2,49,Pin_49*%
%TO.N,R_23*%
X129950000Y-97270000D03*
%TO.P,CN2,50,Pin_50*%
%TO.N,GND*%
X126050000Y-97270000D03*
%TO.P,CN2,51,Pin_51*%
%TO.N,unconnected-(CN2-Pin_51-Pad51)*%
X129950000Y-98540000D03*
%TO.P,CN2,52,Pin_52*%
%TO.N,R_24*%
X126050000Y-98540000D03*
%TO.P,CN2,53,Pin_53*%
%TO.N,R_25*%
X129950000Y-99810000D03*
%TO.P,CN2,54,Pin_54*%
%TO.N,R_26*%
X126050000Y-99810000D03*
%TO.P,CN2,55,Pin_55*%
%TO.N,R_27*%
X129950000Y-101080000D03*
%TO.P,CN2,56,Pin_56*%
%TO.N,R_28*%
X126050000Y-101080000D03*
%TO.P,CN2,57,Pin_57*%
%TO.N,R_29*%
X129950000Y-102350000D03*
%TO.P,CN2,58,Pin_58*%
%TO.N,R_30*%
X126050000Y-102350000D03*
%TO.P,CN2,59,Pin_59*%
%TO.N,R_31*%
X129950000Y-103620000D03*
%TO.P,CN2,60,Pin_60*%
%TO.N,GND*%
X126050000Y-103620000D03*
%TO.P,CN2,61,Pin_61*%
X129950000Y-104890000D03*
%TO.P,CN2,62,Pin_62*%
%TO.N,R_32*%
X126050000Y-104890000D03*
%TO.P,CN2,63,Pin_63*%
%TO.N,R_33*%
X129950000Y-106160000D03*
%TO.P,CN2,64,Pin_64*%
%TO.N,R_34*%
X126050000Y-106160000D03*
%TO.P,CN2,65,Pin_65*%
%TO.N,R_35*%
X129950000Y-107430000D03*
%TO.P,CN2,66,Pin_66*%
%TO.N,R_36*%
X126050000Y-107430000D03*
%TO.P,CN2,67,Pin_67*%
%TO.N,R_37*%
X129950000Y-108700000D03*
%TO.P,CN2,68,Pin_68*%
%TO.N,R_38*%
X126050000Y-108700000D03*
%TO.P,CN2,69,Pin_69*%
%TO.N,R_39*%
X129950000Y-109970000D03*
%TO.P,CN2,70,Pin_70*%
%TO.N,GND*%
X126050000Y-109970000D03*
%TO.P,CN2,71,Pin_71*%
X129950000Y-111240000D03*
%TO.P,CN2,72,Pin_72*%
%TO.N,R_40*%
X126050000Y-111240000D03*
%TO.P,CN2,73,Pin_73*%
%TO.N,R_41*%
X129950000Y-112510000D03*
%TO.P,CN2,74,Pin_74*%
%TO.N,R_42*%
X126050000Y-112510000D03*
%TO.P,CN2,75,Pin_75*%
%TO.N,R_43*%
X129950000Y-113780000D03*
%TO.P,CN2,76,Pin_76*%
%TO.N,R_44*%
X126050000Y-113780000D03*
%TO.P,CN2,77,Pin_77*%
%TO.N,R_45*%
X129950000Y-115050000D03*
%TO.P,CN2,78,Pin_78*%
%TO.N,R_46*%
X126050000Y-115050000D03*
%TO.P,CN2,79,Pin_79*%
%TO.N,R_47*%
X129950000Y-116320000D03*
%TO.P,CN2,80,Pin_80*%
%TO.N,GND*%
X126050000Y-116320000D03*
%TD*%
%TO.P,CN1,1,Pin_1*%
%TO.N,+5V_ZYNQ*%
X76950000Y-66790000D03*
%TO.P,CN1,2,Pin_2*%
%TO.N,GND*%
X73050000Y-66790000D03*
%TO.P,CN1,3,Pin_3*%
%TO.N,+3.3V_ZYNQ*%
X76950000Y-68060000D03*
%TO.P,CN1,4,Pin_4*%
%TO.N,GND*%
X73050000Y-68060000D03*
%TO.P,CN1,5,Pin_5*%
%TO.N,unconnected-(CN1-Pin_5-Pad5)*%
X76950000Y-69330000D03*
%TO.P,CN1,6,Pin_6*%
%TO.N,unconnected-(CN1-Pin_6-Pad6)*%
X73050000Y-69330000D03*
%TO.P,CN1,7,Pin_7*%
%TO.N,L_0*%
X76950000Y-70600000D03*
%TO.P,CN1,8,Pin_8*%
%TO.N,unconnected-(CN1-Pin_8-Pad8)*%
X73050000Y-70600000D03*
%TO.P,CN1,9,Pin_9*%
%TO.N,L_1*%
X76950000Y-71870000D03*
%TO.P,CN1,10,Pin_10*%
%TO.N,unconnected-(CN1-Pin_10-Pad10)*%
X73050000Y-71870000D03*
%TO.P,CN1,11,Pin_11*%
%TO.N,L_2*%
X76950000Y-73140000D03*
%TO.P,CN1,12,Pin_12*%
%TO.N,unconnected-(CN1-Pin_12-Pad12)*%
X73050000Y-73140000D03*
%TO.P,CN1,13,Pin_13*%
%TO.N,L_3*%
X76950000Y-74410000D03*
%TO.P,CN1,14,Pin_14*%
%TO.N,unconnected-(CN1-Pin_14-Pad14)*%
X73050000Y-74410000D03*
%TO.P,CN1,15,Pin_15*%
%TO.N,unconnected-(CN1-Pin_15-Pad15)*%
X76950000Y-75680000D03*
%TO.P,CN1,16,Pin_16*%
%TO.N,L_4*%
X73050000Y-75680000D03*
%TO.P,CN1,17,Pin_17*%
%TO.N,L_5*%
X76950000Y-76950000D03*
%TO.P,CN1,18,Pin_18*%
%TO.N,L_6*%
X73050000Y-76950000D03*
%TO.P,CN1,19,Pin_19*%
%TO.N,L_7*%
X76950000Y-78220000D03*
%TO.P,CN1,20,Pin_20*%
%TO.N,L_8*%
X73050000Y-78220000D03*
%TO.P,CN1,21,Pin_21*%
%TO.N,L_9*%
X76950000Y-79490000D03*
%TO.P,CN1,22,Pin_22*%
%TO.N,L_10*%
X73050000Y-79490000D03*
%TO.P,CN1,23,Pin_23*%
%TO.N,L_11*%
X76950000Y-80760000D03*
%TO.P,CN1,24,Pin_24*%
%TO.N,GND*%
X73050000Y-80760000D03*
%TO.P,CN1,25,Pin_25*%
X76950000Y-82030000D03*
%TO.P,CN1,26,Pin_26*%
%TO.N,L_12*%
X73050000Y-82030000D03*
%TO.P,CN1,27,Pin_27*%
%TO.N,L_13*%
X76950000Y-83300000D03*
%TO.P,CN1,28,Pin_28*%
%TO.N,L_14*%
X73050000Y-83300000D03*
%TO.P,CN1,29,Pin_29*%
%TO.N,L_15*%
X76950000Y-84570000D03*
%TO.P,CN1,30,Pin_30*%
%TO.N,L_16*%
X73050000Y-84570000D03*
%TO.P,CN1,31,Pin_31*%
%TO.N,L_17*%
X76950000Y-85840000D03*
%TO.P,CN1,32,Pin_32*%
%TO.N,L_18*%
X73050000Y-85840000D03*
%TO.P,CN1,33,Pin_33*%
%TO.N,L_19*%
X76950000Y-87110000D03*
%TO.P,CN1,34,Pin_34*%
%TO.N,GND*%
X73050000Y-87110000D03*
%TO.P,CN1,35,Pin_35*%
X76950000Y-88380000D03*
%TO.P,CN1,36,Pin_36*%
%TO.N,L_20*%
X73050000Y-88380000D03*
%TO.P,CN1,37,Pin_37*%
%TO.N,L_21*%
X76950000Y-89650000D03*
%TO.P,CN1,38,Pin_38*%
%TO.N,L_22*%
X73050000Y-89650000D03*
%TO.P,CN1,39,Pin_39*%
%TO.N,LED_R*%
X76950000Y-90920000D03*
%TO.P,CN1,40,Pin_40*%
%TO.N,LED_G*%
X73050000Y-90920000D03*
%TO.P,CN1,41,Pin_41*%
%TO.N,L_23*%
X76950000Y-92190000D03*
%TO.P,CN1,42,Pin_42*%
%TO.N,LED_B*%
X73050000Y-92190000D03*
%TO.P,CN1,43,Pin_43*%
%TO.N,L_24*%
X76950000Y-93460000D03*
%TO.P,CN1,44,Pin_44*%
%TO.N,GND*%
X73050000Y-93460000D03*
%TO.P,CN1,45,Pin_45*%
%TO.N,L_26*%
X76950000Y-94730000D03*
%TO.P,CN1,46,Pin_46*%
%TO.N,L_25*%
X73050000Y-94730000D03*
%TO.P,CN1,47,Pin_47*%
%TO.N,L_28*%
X76950000Y-96000000D03*
%TO.P,CN1,48,Pin_48*%
%TO.N,L_27*%
X73050000Y-96000000D03*
%TO.P,CN1,49,Pin_49*%
%TO.N,unconnected-(CN1-Pin_49-Pad49)*%
X76950000Y-97270000D03*
%TO.P,CN1,50,Pin_50*%
%TO.N,L_29*%
X73050000Y-97270000D03*
%TO.P,CN1,51,Pin_51*%
%TO.N,L_30*%
X76950000Y-98540000D03*
%TO.P,CN1,52,Pin_52*%
%TO.N,L_31*%
X73050000Y-98540000D03*
%TO.P,CN1,53,Pin_53*%
%TO.N,L_32*%
X76950000Y-99810000D03*
%TO.P,CN1,54,Pin_54*%
%TO.N,GND*%
X73050000Y-99810000D03*
%TO.P,CN1,55,Pin_55*%
%TO.N,L_34*%
X76950000Y-101080000D03*
%TO.P,CN1,56,Pin_56*%
%TO.N,L_33*%
X73050000Y-101080000D03*
%TO.P,CN1,57,Pin_57*%
%TO.N,L_36*%
X76950000Y-102350000D03*
%TO.P,CN1,58,Pin_58*%
%TO.N,L_35*%
X73050000Y-102350000D03*
%TO.P,CN1,59,Pin_59*%
%TO.N,L_38*%
X76950000Y-103620000D03*
%TO.P,CN1,60,Pin_60*%
%TO.N,L_37*%
X73050000Y-103620000D03*
%TO.P,CN1,61,Pin_61*%
%TO.N,L_40*%
X76950000Y-104890000D03*
%TO.P,CN1,62,Pin_62*%
%TO.N,L_39*%
X73050000Y-104890000D03*
%TO.P,CN1,63,Pin_63*%
%TO.N,L_42*%
X76950000Y-106160000D03*
%TO.P,CN1,64,Pin_64*%
%TO.N,L_41*%
X73050000Y-106160000D03*
%TO.P,CN1,65,Pin_65*%
%TO.N,L_44*%
X76950000Y-107430000D03*
%TO.P,CN1,66,Pin_66*%
%TO.N,L_43*%
X73050000Y-107430000D03*
%TO.P,CN1,67,Pin_67*%
%TO.N,GND*%
X76950000Y-108700000D03*
%TO.P,CN1,68,Pin_68*%
X73050000Y-108700000D03*
%TO.P,CN1,69,Pin_69*%
%TO.N,L_46*%
X76950000Y-109970000D03*
%TO.P,CN1,70,Pin_70*%
%TO.N,L_45*%
X73050000Y-109970000D03*
%TO.P,CN1,71,Pin_71*%
%TO.N,L_48*%
X76950000Y-111240000D03*
%TO.P,CN1,72,Pin_72*%
%TO.N,L_47*%
X73050000Y-111240000D03*
%TO.P,CN1,73,Pin_73*%
%TO.N,R_48*%
X76950000Y-112510000D03*
%TO.P,CN1,74,Pin_74*%
%TO.N,L_49*%
X73050000Y-112510000D03*
%TO.P,CN1,75,Pin_75*%
%TO.N,R_49*%
X76950000Y-113780000D03*
%TO.P,CN1,76,Pin_76*%
%TO.N,unconnected-(CN1-Pin_76-Pad76)*%
X73050000Y-113780000D03*
%TO.P,CN1,77,Pin_77*%
%TO.N,unconnected-(CN1-Pin_77-Pad77)*%
X76950000Y-115050000D03*
%TO.P,CN1,78,Pin_78*%
%TO.N,NA*%
X73050000Y-115050000D03*
%TO.P,CN1,79,Pin_79*%
%TO.N,unconnected-(CN1-Pin_79-Pad79)*%
X76950000Y-116320000D03*
%TO.P,CN1,80,Pin_80*%
%TO.N,unconnected-(CN1-Pin_80-Pad80)*%
X73050000Y-116320000D03*
%TD*%
D14*
%TO.P,J5,1,1*%
%TO.N,+24V*%
X107350000Y-143700000D03*
%TO.P,J5,2,2*%
X107350000Y-143199998D03*
%TO.P,J5,3,3*%
X107350000Y-142699999D03*
%TO.P,J5,4,4*%
X107350000Y-142200000D03*
%TO.P,J5,5,5*%
X107350000Y-141699999D03*
%TO.P,J5,6,6*%
X107350000Y-141200000D03*
%TO.P,J5,7,7*%
X107350000Y-140699998D03*
%TO.P,J5,8,8*%
X107350000Y-140199999D03*
%TO.P,J5,9,9*%
%TO.N,unconnected-(J5-Pad9)*%
X107350000Y-139700000D03*
%TO.P,J5,10,10*%
%TO.N,GND*%
X107350000Y-139199999D03*
%TO.P,J5,11,11*%
X107350000Y-138700000D03*
%TO.P,J5,12,12*%
X107350000Y-138199998D03*
%TO.P,J5,13,13*%
X107350000Y-137699999D03*
%TO.P,J5,14,14*%
X107350000Y-137200000D03*
%TO.P,J5,15,15*%
X107350000Y-136699999D03*
%TO.P,J5,16,16*%
X107350000Y-136200000D03*
%TO.P,J5,17,17*%
X107350000Y-135699998D03*
%TO.P,J5,18,18*%
%TO.N,+5V*%
X107350000Y-135199999D03*
%TO.P,J5,19,19*%
X107350000Y-134700000D03*
%TO.P,J5,20,20*%
X107350000Y-134199999D03*
%TO.P,J5,21,21*%
X107350000Y-133700000D03*
%TO.P,J5,22,22*%
X107350000Y-133199998D03*
%TO.P,J5,23,23*%
%TO.N,GND*%
X107350000Y-132699999D03*
%TO.P,J5,24,24*%
X107350000Y-132200000D03*
%TO.P,J5,25,25*%
X107350000Y-131699999D03*
%TO.P,J5,26,26*%
X107350000Y-131199999D03*
%TO.P,J5,27,27*%
X107350000Y-130700001D03*
%TO.P,J5,28,28*%
%TO.N,+3.3V*%
X107350000Y-130199999D03*
%TO.P,J5,29,29*%
X107350000Y-129700000D03*
%TO.P,J5,30,30*%
X107350000Y-129199998D03*
%TO.P,J5,31,31*%
X107350000Y-128699999D03*
%TO.P,J5,32,32*%
X107350000Y-128200000D03*
%TO.P,J5,33,33*%
%TO.N,GND*%
X107350000Y-127699999D03*
%TO.P,J5,34,34*%
X107350000Y-127200000D03*
%TO.P,J5,35,35*%
X107350000Y-126699998D03*
%TO.P,J5,36,36*%
X107350000Y-126199999D03*
%TO.P,J5,37,37*%
X107350000Y-125700000D03*
%TO.P,J5,38,38*%
X107350000Y-125199999D03*
%TO.P,J5,39,39*%
X107350000Y-124700000D03*
%TO.P,J5,40,40*%
X107350000Y-124199998D03*
%TO.P,J5,41,41*%
%TO.N,unconnected-(J5-Pad41)*%
X107350000Y-123699999D03*
%TO.P,J5,42,42*%
%TO.N,+24V*%
X107350000Y-123200000D03*
%TO.P,J5,43,43*%
X107350000Y-122699999D03*
%TO.P,J5,44,44*%
X107350000Y-122200000D03*
%TO.P,J5,45,45*%
X107350000Y-121699998D03*
%TO.P,J5,46,46*%
X107350000Y-121199999D03*
%TO.P,J5,47,47*%
X107350000Y-120700000D03*
%TO.P,J5,48,48*%
X107350000Y-120199999D03*
%TO.P,J5,49,49*%
X107350000Y-119700000D03*
%TO.P,J5,50,50*%
X107350000Y-119199998D03*
D15*
%TO.P,J5,51*%
%TO.N,N/C*%
X110600002Y-145249997D03*
%TO.P,J5,52*%
X110600002Y-117650001D03*
%TD*%
D12*
%TO.P,R24,1*%
%TO.N,LED_B*%
X72900000Y-62990000D03*
%TO.P,R24,2*%
%TO.N,Net-(D13-K)*%
X72900000Y-64010000D03*
%TD*%
D10*
%TO.P,R17,1*%
%TO.N,GND*%
X74000000Y-135260000D03*
%TO.P,R17,2*%
%TO.N,Net-(R16-Pad1)*%
X74000000Y-134240000D03*
%TD*%
D12*
%TO.P,R23,1*%
%TO.N,LED_G*%
X72900000Y-59590000D03*
%TO.P,R23,2*%
%TO.N,Net-(D12-K)*%
X72900000Y-60610000D03*
%TD*%
D16*
%TO.P,J6,1,Pin_1*%
%TO.N,Net-(J6-Pin_1)*%
X74211000Y-150049000D03*
D17*
%TO.P,J6,2,Pin_2*%
X71711000Y-150049000D03*
%TO.P,J6,3,Pin_3*%
%TO.N,GND*%
X74211000Y-146549000D03*
%TO.P,J6,4,Pin_4*%
X71711000Y-146549000D03*
%TD*%
D11*
%TO.P,D3,1,K*%
%TO.N,Net-(D3-K)*%
X71450000Y-135437500D03*
%TO.P,D3,2,A*%
%TO.N,+5V*%
X71450000Y-133862500D03*
%TD*%
D12*
%TO.P,R18,1*%
%TO.N,GND*%
X73000000Y-130990000D03*
%TO.P,R18,2*%
%TO.N,Net-(D4-K)*%
X73000000Y-132010000D03*
%TD*%
D11*
%TO.P,D7,1,K*%
%TO.N,Net-(D7-K)*%
X71450000Y-138887500D03*
%TO.P,D7,2,A*%
%TO.N,+24V*%
X71450000Y-137312500D03*
%TD*%
%TO.P,D12,1,K*%
%TO.N,Net-(D12-K)*%
X71400000Y-60887500D03*
%TO.P,D12,2,A*%
%TO.N,+3.3V_ZYNQ*%
X71400000Y-59312500D03*
%TD*%
%TO.P,D11,1,K*%
%TO.N,Net-(D11-K)*%
X71400000Y-57487500D03*
%TO.P,D11,2,A*%
%TO.N,+3.3V_ZYNQ*%
X71400000Y-55912500D03*
%TD*%
D12*
%TO.P,R21,1*%
%TO.N,PS_9*%
X72900000Y-48640000D03*
%TO.P,R21,2*%
%TO.N,Net-(D10-K)*%
X72900000Y-49660000D03*
%TD*%
%TO.P,R22,1*%
%TO.N,LED_R*%
X72900000Y-56190000D03*
%TO.P,R22,2*%
%TO.N,Net-(D11-K)*%
X72900000Y-57210000D03*
%TD*%
D11*
%TO.P,D13,1,K*%
%TO.N,Net-(D13-K)*%
X71400000Y-64287500D03*
%TO.P,D13,2,A*%
%TO.N,+3.3V_ZYNQ*%
X71400000Y-62712500D03*
%TD*%
%TO.P,D2,1,K*%
%TO.N,Net-(D2-K)*%
X71450000Y-128537500D03*
%TO.P,D2,2,A*%
%TO.N,+5V_ZYNQ*%
X71450000Y-126962500D03*
%TD*%
D18*
%TO.P,M1,1,+*%
%TO.N,+5V*%
X93100000Y-150725000D03*
D19*
%TO.P,M1,2,-*%
%TO.N,GND*%
X93100000Y-148185000D03*
%TD*%
D11*
%TO.P,D8,1,K*%
%TO.N,Net-(D8-K)*%
X71400000Y-53337500D03*
%TO.P,D8,2,A*%
%TO.N,+3.3V_ZYNQ*%
X71400000Y-51762500D03*
%TD*%
D12*
%TO.P,R6,1*%
%TO.N,Net-(R6-Pad1)*%
X73000000Y-127290000D03*
%TO.P,R6,2*%
%TO.N,Net-(D2-K)*%
X73000000Y-128310000D03*
%TD*%
%TO.P,R16,1*%
%TO.N,Net-(R16-Pad1)*%
X73000000Y-134240000D03*
%TO.P,R16,2*%
%TO.N,Net-(D3-K)*%
X73000000Y-135260000D03*
%TD*%
%TO.P,R1,1*%
%TO.N,GND*%
X73000000Y-123790000D03*
%TO.P,R1,2*%
%TO.N,Net-(D1-K)*%
X73000000Y-124810000D03*
%TD*%
%TO.P,R19,1*%
%TO.N,GND*%
X73000000Y-137590000D03*
%TO.P,R19,2*%
%TO.N,Net-(D7-K)*%
X73000000Y-138610000D03*
%TD*%
D11*
%TO.P,D10,1,K*%
%TO.N,Net-(D10-K)*%
X71400000Y-49937500D03*
%TO.P,D10,2,A*%
%TO.N,+3.3V_ZYNQ*%
X71400000Y-48362500D03*
%TD*%
D18*
%TO.P,J7,1,Pin_1*%
%TO.N,+24V*%
X113720000Y-149500000D03*
D19*
%TO.P,J7,2,Pin_2*%
%TO.N,/ZYNQ_24V_BUCK_SUPPLY*%
X116260000Y-149500000D03*
%TO.P,J7,3,Pin_3*%
%TO.N,GND*%
X118800000Y-149500000D03*
%TO.P,J7,4,Pin_4*%
%TO.N,+5V_ZYNQ*%
X121340000Y-149500000D03*
%TO.P,J7,5,Pin_5*%
%TO.N,POWER_FAIL*%
X123880000Y-149500000D03*
%TO.P,J7,6,Pin_6*%
%TO.N,POWER_OFF*%
X126420000Y-149500000D03*
%TO.P,J7,7,Pin_7*%
%TO.N,POWER_AUX_0*%
X128960000Y-149500000D03*
%TO.P,J7,8,Pin_8*%
%TO.N,POWER_AUX_1*%
X131500000Y-149500000D03*
%TD*%
D20*
%TO.N,L_23*%
X79350000Y-91550000D03*
%TO.N,L_33*%
X75050000Y-100450000D03*
%TO.N,L_24*%
X78750000Y-92900000D03*
%TO.N,L_35*%
X75050000Y-102000000D03*
%TO.N,L_38*%
X78750000Y-103900000D03*
%TO.N,L_25*%
X75050000Y-94150000D03*
%TO.N,L_8*%
X74800000Y-78250000D03*
%TO.N,L_49*%
X75050000Y-112150000D03*
%TO.N,L_5*%
X78650000Y-76150000D03*
%TO.N,LED_G*%
X73000000Y-61393781D03*
X71300000Y-90900000D03*
%TO.N,GND*%
X106249450Y-103749999D03*
X106249450Y-71749999D03*
X125250000Y-142600000D03*
X106249450Y-68749999D03*
X90450000Y-109250000D03*
X131650000Y-92200000D03*
X106249450Y-96749999D03*
X90450000Y-75250000D03*
X124350000Y-66750000D03*
X80700000Y-133850000D03*
X106275001Y-125150002D03*
X106249450Y-102749999D03*
X105250000Y-119775000D03*
X124400000Y-97250000D03*
X106249450Y-65749999D03*
X131750000Y-111250000D03*
X71250000Y-68050000D03*
X73050000Y-130300000D03*
X84050000Y-133850000D03*
X106249450Y-59749999D03*
X106249450Y-60749999D03*
X106249450Y-76749999D03*
X90450000Y-98250000D03*
X82300000Y-126450000D03*
X115350000Y-131800000D03*
X90450000Y-58250000D03*
X106249450Y-87749999D03*
X90450000Y-71250000D03*
X90450000Y-104250000D03*
X110650000Y-123600000D03*
X90450000Y-94250000D03*
X106249450Y-56749999D03*
X71300000Y-93450000D03*
X115350000Y-123600000D03*
X80700000Y-136250000D03*
X106249450Y-109749999D03*
X90450000Y-91250000D03*
X99100000Y-127305000D03*
X123600000Y-142600000D03*
X106275001Y-135650002D03*
X106249450Y-58749999D03*
X124341200Y-131908802D03*
X106275001Y-131150002D03*
X106249450Y-63749999D03*
X106249450Y-95749999D03*
X90450000Y-96250000D03*
X131450000Y-137400000D03*
X90450000Y-63250000D03*
X115350000Y-120250000D03*
X106250000Y-138150000D03*
X82350000Y-136250000D03*
X106249450Y-99749999D03*
X124300000Y-90850000D03*
X117750000Y-131800000D03*
X131700000Y-79500000D03*
X110600000Y-135150000D03*
X82300000Y-128850000D03*
X106249450Y-62749999D03*
X90450000Y-95250000D03*
X125041200Y-132958802D03*
X125041200Y-132358802D03*
X124300000Y-103550000D03*
X106250000Y-132150000D03*
X90450000Y-69250000D03*
X106249450Y-61749999D03*
X99150000Y-138925000D03*
X90450000Y-73250000D03*
X90450000Y-86250000D03*
X80650000Y-128850000D03*
X115350000Y-135150000D03*
X90450000Y-68250000D03*
X73050000Y-123100000D03*
X84000000Y-128850000D03*
X106249450Y-92749999D03*
X106249450Y-100749999D03*
X106249450Y-108749999D03*
X102603909Y-140028909D03*
X117750000Y-133500000D03*
X90361179Y-77424506D03*
X90450000Y-110250000D03*
X124250000Y-109950000D03*
X90450000Y-65250000D03*
X100200000Y-138225000D03*
X106249450Y-107749999D03*
X71300000Y-99800000D03*
X71300000Y-108700000D03*
X90450000Y-60250000D03*
X100150000Y-126605000D03*
X106249450Y-72749999D03*
X106249450Y-54749999D03*
X106249450Y-105749999D03*
X123250000Y-134750000D03*
X115350000Y-121950000D03*
X90450000Y-89250000D03*
X90450000Y-70250000D03*
X90450000Y-62250000D03*
X124341200Y-130108802D03*
X100750000Y-126605000D03*
X131650000Y-104850000D03*
X106250000Y-137650000D03*
X106249450Y-77749999D03*
X96750000Y-138925000D03*
X106249450Y-90749999D03*
X97350000Y-138925000D03*
X99550000Y-126605000D03*
X106249450Y-106749999D03*
X90450000Y-55250000D03*
X82350000Y-133850000D03*
X106250000Y-139150000D03*
X90450000Y-102250000D03*
X123600000Y-140200000D03*
X106250000Y-137150000D03*
X106250000Y-132650000D03*
X106249450Y-98749999D03*
X90450000Y-72250000D03*
X106249450Y-94749999D03*
X90450000Y-56250000D03*
X90450000Y-105250000D03*
X71300000Y-87100000D03*
X90450000Y-100250000D03*
X106250000Y-126650000D03*
X90450000Y-88250000D03*
X90450000Y-74250000D03*
X71250000Y-66800000D03*
X106249450Y-67749999D03*
X90450000Y-99250000D03*
X98550000Y-138925000D03*
X90450000Y-107250000D03*
X90450000Y-92250000D03*
X124341200Y-128908802D03*
X110600000Y-133500000D03*
X74000000Y-129000000D03*
X106249450Y-91749999D03*
X124200000Y-116300000D03*
X124350000Y-84450000D03*
X106249450Y-101749999D03*
X117750000Y-135150000D03*
X131650000Y-85850000D03*
X75350000Y-81400000D03*
X90450000Y-64250000D03*
X90450000Y-59250000D03*
X106249450Y-53749999D03*
X106249450Y-55749999D03*
X106275001Y-124150002D03*
X105300000Y-131395000D03*
X97300000Y-127305000D03*
X96700000Y-127305000D03*
X124350000Y-78200000D03*
X90450000Y-57250000D03*
X121900000Y-140200000D03*
X106250000Y-127650000D03*
X97950000Y-138925000D03*
X125041200Y-131158802D03*
X106250000Y-125650000D03*
X106249450Y-89749999D03*
X106275001Y-130650002D03*
X117750000Y-121950000D03*
X74000000Y-135950000D03*
X117750000Y-120250000D03*
X106250000Y-138650000D03*
X106249450Y-110749999D03*
X124341200Y-130708802D03*
X106249450Y-104749999D03*
X124341200Y-131308802D03*
X90450000Y-61250000D03*
X90450000Y-108250000D03*
X97900000Y-127305000D03*
X84000000Y-126450000D03*
X110650000Y-120250000D03*
X110600000Y-131800000D03*
X106249450Y-69749999D03*
X106275001Y-136650002D03*
X80650000Y-126450000D03*
X75200000Y-87600000D03*
X90450000Y-53250000D03*
X106249450Y-88749999D03*
X90450000Y-106250000D03*
X117750000Y-123600000D03*
X73000000Y-136900000D03*
X106249450Y-75749999D03*
X71300000Y-80750000D03*
X90450000Y-93250000D03*
X90450000Y-67250000D03*
X78700000Y-108700000D03*
X110650000Y-121950000D03*
X90450000Y-101250000D03*
X125041200Y-131758802D03*
X90450000Y-87250000D03*
X84050000Y-136250000D03*
X99750000Y-138925000D03*
X106249450Y-73749999D03*
X106250000Y-127150000D03*
X121900000Y-142600000D03*
X106249450Y-86749999D03*
X106249450Y-74749999D03*
X98500000Y-127305000D03*
X99600000Y-138225000D03*
X106275001Y-131650002D03*
X100800000Y-138225000D03*
X106249450Y-97749999D03*
X106249450Y-70749999D03*
X124350000Y-68050000D03*
X90450000Y-66250000D03*
X106249450Y-64749999D03*
X90450000Y-90250000D03*
X124341200Y-129508802D03*
X90450000Y-54250000D03*
X99000000Y-138225000D03*
X106249450Y-57749999D03*
X106249450Y-93749999D03*
X99700000Y-127305000D03*
X106249450Y-66749999D03*
X106275001Y-136150002D03*
X98950000Y-126605000D03*
X125250000Y-140200000D03*
X115350000Y-133500000D03*
X106275001Y-124650002D03*
X90450000Y-103250000D03*
X106250000Y-126150000D03*
X90448558Y-76200230D03*
X101957857Y-129115779D03*
X90450000Y-97250000D03*
%TO.N,L_12*%
X74850000Y-82000000D03*
%TO.N,+5V_ZYNQ*%
X123491200Y-133508802D03*
X121991200Y-132308802D03*
X122891200Y-133508802D03*
X121991200Y-131108802D03*
X121991200Y-132958802D03*
X122291200Y-133508802D03*
X121991200Y-131708802D03*
%TO.N,LED_B*%
X73550000Y-63350000D03*
X71350000Y-92150000D03*
%TO.N,R_49*%
X80550000Y-113500000D03*
%TO.N,L_37*%
X75100000Y-103350000D03*
%TO.N,L_44*%
X78800000Y-107700000D03*
%TO.N,L_28*%
X79005636Y-95755636D03*
%TO.N,L_18*%
X74950000Y-86000000D03*
%TO.N,L_39*%
X75100000Y-104500000D03*
%TO.N,LED_R*%
X74400000Y-60900000D03*
X75050000Y-90900000D03*
%TO.N,L_48*%
X78850000Y-111400000D03*
%TO.N,L_4*%
X74800000Y-75700000D03*
%TO.N,L_34*%
X78650000Y-100900000D03*
%TO.N,L_1*%
X78650000Y-71850000D03*
%TO.N,L_36*%
X78650000Y-102550000D03*
%TO.N,L_3*%
X78650000Y-74400000D03*
%TO.N,L_45*%
X75050000Y-109550000D03*
%TO.N,L_42*%
X78800000Y-106500000D03*
%TO.N,L_29*%
X75050000Y-97100000D03*
%TO.N,L_20*%
X74950000Y-88400000D03*
%TO.N,L_11*%
X78792372Y-80744915D03*
%TO.N,L_10*%
X74850000Y-79550000D03*
%TO.N,R_48*%
X78850000Y-112700000D03*
%TO.N,L_9*%
X78700000Y-79400000D03*
%TO.N,L_30*%
X78900000Y-97750000D03*
%TO.N,L_13*%
X78850000Y-82650000D03*
%TO.N,L_16*%
X75000000Y-84800000D03*
%TO.N,L_43*%
X75000000Y-107150000D03*
%TO.N,L_15*%
X78850000Y-84300000D03*
%TO.N,L_2*%
X78650000Y-73140000D03*
%TO.N,L_7*%
X78700000Y-77850000D03*
%TO.N,L_0*%
X75150000Y-70000000D03*
%TO.N,L_27*%
X75050000Y-95750000D03*
%TO.N,L_6*%
X74800000Y-76950000D03*
%TO.N,L_47*%
X75050000Y-110850000D03*
%TO.N,L_19*%
X79000000Y-87050000D03*
%TO.N,L_17*%
X78850000Y-85700000D03*
%TO.N,L_22*%
X75000000Y-89700000D03*
%TO.N,L_40*%
X78800000Y-105050000D03*
%TO.N,L_32*%
X78900000Y-99450000D03*
%TO.N,L_41*%
X75075000Y-106025000D03*
%TO.N,L_46*%
X78850000Y-110100000D03*
%TO.N,L_21*%
X78900000Y-88900000D03*
%TO.N,L_26*%
X78802818Y-94402818D03*
%TO.N,L_14*%
X75000000Y-83700000D03*
%TO.N,L_31*%
X75100000Y-98500000D03*
%TO.N,R_4*%
X124143596Y-81944357D03*
%TO.N,R_30*%
X124168496Y-102200000D03*
%TO.N,R_42*%
X124200000Y-112400000D03*
%TO.N,R_25*%
X127900000Y-99150000D03*
%TO.N,R_11*%
X127900000Y-87750000D03*
%TO.N,R_16*%
X124300000Y-91750000D03*
%TO.N,R_21*%
X127900000Y-95350000D03*
%TO.N,R_45*%
X127950000Y-114400000D03*
%TO.N,R_15*%
X127850000Y-90250000D03*
%TO.N,R_35*%
X127950000Y-106800000D03*
%TO.N,R_41*%
X127950000Y-111850000D03*
%TO.N,R_0*%
X128050000Y-78650000D03*
%TO.N,R_10*%
X124150000Y-86900000D03*
%TO.N,R_28*%
X124130222Y-100946641D03*
%TO.N,R_1*%
X128100000Y-80400000D03*
%TO.N,R_14*%
X124200000Y-89600000D03*
%TO.N,R_39*%
X127950000Y-109300000D03*
%TO.N,R_37*%
X127950000Y-108050000D03*
%TO.N,R_18*%
X124245273Y-93347271D03*
%TO.N,R_19*%
X127900000Y-94050000D03*
%TO.N,R_7*%
X128000000Y-83950000D03*
%TO.N,R_32*%
X124250000Y-104450000D03*
%TO.N,R_47*%
X127950000Y-115650000D03*
%TO.N,R_3*%
X128000000Y-81400000D03*
%TO.N,R_40*%
X124250000Y-111100000D03*
%TO.N,R_26*%
X124122182Y-99427818D03*
%TO.N,R_9*%
X127900000Y-86450000D03*
%TO.N,R_2*%
X124250000Y-80650000D03*
%TO.N,R_29*%
X127900000Y-101650000D03*
%TO.N,R_8*%
X124050000Y-85100000D03*
%TO.N,R_36*%
X124200000Y-107350000D03*
%TO.N,R_17*%
X127900000Y-92800000D03*
%TO.N,R_23*%
X127900000Y-96600000D03*
%TO.N,R_46*%
X124200000Y-114950000D03*
%TO.N,R_38*%
X124200000Y-108600000D03*
%TO.N,R_33*%
X127900000Y-105500000D03*
%TO.N,R_43*%
X127950000Y-113100000D03*
%TO.N,R_24*%
X124375000Y-98125000D03*
%TO.N,R_5*%
X127950000Y-82650000D03*
%TO.N,R_34*%
X124200000Y-106000000D03*
%TO.N,R_6*%
X124200000Y-83200000D03*
%TO.N,R_20*%
X124250000Y-94600000D03*
%TO.N,R_27*%
X127900000Y-100450000D03*
%TO.N,R_22*%
X124200000Y-95900000D03*
%TO.N,R_44*%
X124200000Y-113700000D03*
%TO.N,R_12*%
X124145273Y-88297271D03*
%TO.N,R_31*%
X127900000Y-102950000D03*
%TO.N,R_13*%
X127850000Y-89050000D03*
%TO.N,+24V*%
X106300000Y-122200000D03*
X106300000Y-141700000D03*
X100200000Y-131500000D03*
X106300000Y-121200000D03*
X86050000Y-128850000D03*
X106300000Y-119700000D03*
X106300000Y-142700000D03*
X84600000Y-152600000D03*
X82000000Y-152600000D03*
X106300000Y-143200000D03*
X98200000Y-119850000D03*
X98500000Y-120450000D03*
X96900000Y-119850000D03*
X87200000Y-152600000D03*
X86550000Y-152600000D03*
X106300000Y-141200000D03*
X97550000Y-119850000D03*
X106300000Y-140200000D03*
X98550000Y-132100000D03*
X100150000Y-119850000D03*
X106300000Y-122700000D03*
X97850000Y-120450000D03*
X81350000Y-152600000D03*
X87750000Y-136250000D03*
X106300000Y-142200000D03*
X106300000Y-121700000D03*
X106300000Y-143700000D03*
X89400000Y-128850000D03*
X97900000Y-132100000D03*
X83950000Y-152600000D03*
X87850000Y-152600000D03*
X99500000Y-119850000D03*
X96950000Y-131500000D03*
X106300000Y-120700000D03*
X80700000Y-152600000D03*
X106300000Y-140700000D03*
X89400000Y-126450000D03*
X98900000Y-131500000D03*
X97200000Y-120450000D03*
X89450000Y-136250000D03*
X106300000Y-119200000D03*
X97600000Y-131500000D03*
X85900000Y-152600000D03*
X85250000Y-152600000D03*
X89450000Y-133850000D03*
X98250000Y-131500000D03*
X106300000Y-120200000D03*
X99550000Y-131500000D03*
X87700000Y-126450000D03*
X87700000Y-128850000D03*
X86100000Y-133850000D03*
X86050000Y-126450000D03*
X83300000Y-152600000D03*
X98850000Y-119850000D03*
X86100000Y-136250000D03*
X97250000Y-132100000D03*
X106300000Y-123200000D03*
X82650000Y-152600000D03*
X87750000Y-133850000D03*
X72700000Y-136200000D03*
%TO.N,+5V*%
X108700000Y-135950000D03*
X110000000Y-135950000D03*
X110000000Y-136600000D03*
X109350000Y-135950000D03*
X108700000Y-136600000D03*
X109350000Y-136600000D03*
X91150000Y-140150000D03*
%TO.N,+3.3V*%
X108650000Y-129700000D03*
X109300000Y-129700000D03*
X111250000Y-129700000D03*
X91000000Y-129800000D03*
X110900000Y-126950000D03*
X109950000Y-129700000D03*
X110900000Y-129050000D03*
X110600000Y-129700000D03*
X110900000Y-127650000D03*
X110900000Y-128350000D03*
%TO.N,Net-(U1-SW)*%
X128891200Y-132250000D03*
X128091200Y-123608802D03*
X128391200Y-132250000D03*
X128091200Y-128108802D03*
X128091200Y-124608802D03*
X128091200Y-124108802D03*
X128091200Y-126608802D03*
X128894545Y-132758802D03*
X128091200Y-125108802D03*
X128391200Y-132750000D03*
X128091200Y-126108802D03*
X125841200Y-134308802D03*
X128091200Y-127608802D03*
X128091200Y-125608802D03*
X128091200Y-123108802D03*
X128091200Y-127108802D03*
%TO.N,Net-(U1-FB)*%
X126491200Y-136458802D03*
X129571200Y-137058802D03*
%TO.N,Net-(U2-SW)*%
X93450000Y-135175000D03*
X91450000Y-135175000D03*
X92450000Y-135175000D03*
X100091198Y-134875000D03*
X90950000Y-135175000D03*
X93950000Y-135175000D03*
X95950000Y-135175000D03*
X95450000Y-135175000D03*
X92950000Y-135175000D03*
X100591198Y-134875000D03*
X102150000Y-137425000D03*
X100600000Y-134371655D03*
X94950000Y-135175000D03*
X91950000Y-135175000D03*
X100091198Y-134375000D03*
X94450000Y-135175000D03*
%TO.N,Net-(U3-SW)*%
X100541198Y-123255000D03*
X92400000Y-123555000D03*
X100041198Y-123255000D03*
X91900000Y-123555000D03*
X102100000Y-125805000D03*
X90900000Y-123555000D03*
X95400000Y-123555000D03*
X100041198Y-122755000D03*
X94900000Y-123555000D03*
X94400000Y-123555000D03*
X95900000Y-123555000D03*
X92900000Y-123555000D03*
X93900000Y-123555000D03*
X100550000Y-122751655D03*
X91400000Y-123555000D03*
X93400000Y-123555000D03*
%TO.N,Net-(U2-FB)*%
X104900000Y-133695000D03*
X104300000Y-136775000D03*
%TO.N,Net-(U3-FB)*%
X104250000Y-125155000D03*
X104850000Y-122075000D03*
%TO.N,POWER_FAIL*%
X127950000Y-73150000D03*
X132400000Y-76250000D03*
%TO.N,POWER_OFF*%
X127950000Y-74450000D03*
X131796446Y-75653554D03*
%TO.N,POWER_AUX_0*%
X131850000Y-76950000D03*
X133500000Y-78050000D03*
%TO.N,POWER_AUX_1*%
X131950000Y-78300000D03*
%TD*%
D21*
%TO.N,L_23*%
X78710000Y-92190000D02*
X76950000Y-92190000D01*
X79350000Y-91550000D02*
X78710000Y-92190000D01*
%TO.N,L_33*%
X74420000Y-101080000D02*
X73050000Y-101080000D01*
X75050000Y-100450000D02*
X74420000Y-101080000D01*
%TO.N,L_24*%
X78190000Y-93460000D02*
X76950000Y-93460000D01*
X78750000Y-92900000D02*
X78190000Y-93460000D01*
%TO.N,L_35*%
X74700000Y-102350000D02*
X73050000Y-102350000D01*
X75050000Y-102000000D02*
X74700000Y-102350000D01*
%TO.N,L_38*%
X78650000Y-103800000D02*
X77130000Y-103800000D01*
X78750000Y-103900000D02*
X78650000Y-103800000D01*
%TO.N,L_25*%
X75050000Y-94150000D02*
X74470000Y-94730000D01*
X74470000Y-94730000D02*
X73050000Y-94730000D01*
%TO.N,L_8*%
X74800000Y-78250000D02*
X73080000Y-78250000D01*
%TO.N,L_49*%
X75050000Y-112150000D02*
X74690000Y-112510000D01*
X74690000Y-112510000D02*
X73050000Y-112510000D01*
%TO.N,L_5*%
X78650000Y-76150000D02*
X77850000Y-76950000D01*
%TO.N,+3.3V_ZYNQ*%
X71400000Y-55912500D02*
X70562500Y-55912500D01*
X75100000Y-67650000D02*
X75100000Y-66550000D01*
X74400000Y-65850000D02*
X70650000Y-65850000D01*
X70650000Y-62800000D02*
X70562500Y-62712500D01*
X70650000Y-66450000D02*
X70650000Y-62800000D01*
X75100000Y-66550000D02*
X74400000Y-65850000D01*
X70650000Y-66450000D02*
X70650000Y-120850000D01*
X70550000Y-51750000D02*
X70550000Y-49212500D01*
X75510000Y-68060000D02*
X75100000Y-67650000D01*
X70562500Y-55912500D02*
X70550000Y-55900000D01*
X70562500Y-51762500D02*
X70550000Y-51750000D01*
X71400000Y-62712500D02*
X70562500Y-62712500D01*
X71450000Y-121650000D02*
X71450000Y-123525000D01*
X70562500Y-59312500D02*
X70550000Y-59300000D01*
X70550000Y-59300000D02*
X70550000Y-55900000D01*
X76950000Y-68060000D02*
X75510000Y-68060000D01*
X70550000Y-49212500D02*
X71400000Y-48362500D01*
X70550000Y-62700000D02*
X70550000Y-59300000D01*
X70650000Y-65850000D02*
X70650000Y-66450000D01*
X70550000Y-55900000D02*
X70550000Y-51750000D01*
X71400000Y-51762500D02*
X70562500Y-51762500D01*
X71400000Y-59312500D02*
X70562500Y-59312500D01*
X70562500Y-62712500D02*
X70550000Y-62700000D01*
X70600000Y-59700000D02*
X70600000Y-57050000D01*
X70650000Y-120850000D02*
X71450000Y-121650000D01*
%TO.N,LED_G*%
X73470000Y-60923781D02*
X73470000Y-60160000D01*
X71300000Y-90900000D02*
X73030000Y-90900000D01*
X73000000Y-61393781D02*
X73470000Y-60923781D01*
X73470000Y-60160000D02*
X72900000Y-59590000D01*
%TO.N,GND*%
X106300000Y-137200000D02*
X106250000Y-137150000D01*
X129950000Y-79490000D02*
X131690000Y-79490000D01*
X126050000Y-90920000D02*
X124370000Y-90920000D01*
X107375001Y-124700001D02*
X106325000Y-124700001D01*
X73000000Y-123150000D02*
X73050000Y-123100000D01*
X71310000Y-87110000D02*
X71300000Y-87100000D01*
X107350000Y-127699999D02*
X106299999Y-127699999D01*
X107375001Y-124200002D02*
X106325001Y-124200002D01*
X126050000Y-78220000D02*
X124370000Y-78220000D01*
X124370000Y-103620000D02*
X124300000Y-103550000D01*
X73000000Y-130990000D02*
X73000000Y-130350000D01*
X106299998Y-138199998D02*
X106250000Y-138150000D01*
X73050000Y-99810000D02*
X71310000Y-99810000D01*
X124360000Y-68060000D02*
X124350000Y-68050000D01*
X129950000Y-111240000D02*
X131740000Y-111240000D01*
X73050000Y-68060000D02*
X71260000Y-68060000D01*
X126050000Y-68060000D02*
X124360000Y-68060000D01*
X74000000Y-135260000D02*
X74000000Y-135950000D01*
X76950000Y-108700000D02*
X78700000Y-108700000D01*
X73050000Y-80760000D02*
X71310000Y-80760000D01*
X107350000Y-139199999D02*
X106299999Y-139199999D01*
X124220000Y-116320000D02*
X124200000Y-116300000D01*
X126050000Y-103620000D02*
X124370000Y-103620000D01*
X107350000Y-126699998D02*
X106299998Y-126699998D01*
X131640000Y-85840000D02*
X131650000Y-85850000D01*
X71260000Y-68060000D02*
X71250000Y-68050000D01*
X124370000Y-78220000D02*
X124350000Y-78200000D01*
X75980000Y-82030000D02*
X75350000Y-81400000D01*
X107375001Y-135700002D02*
X106325001Y-135700002D01*
X73050000Y-87110000D02*
X71310000Y-87110000D01*
X107350000Y-138199998D02*
X106299998Y-138199998D01*
X73000000Y-130350000D02*
X73050000Y-130300000D01*
X73050000Y-66790000D02*
X71260000Y-66790000D01*
X73000000Y-137590000D02*
X73000000Y-136900000D01*
X106299999Y-139199999D02*
X106250000Y-139150000D01*
X107350000Y-137699999D02*
X106299999Y-137699999D01*
X71310000Y-99810000D02*
X71300000Y-99800000D01*
X107375001Y-136200001D02*
X106325000Y-136200001D01*
X71310000Y-93460000D02*
X71300000Y-93450000D01*
X107350000Y-132200000D02*
X106300000Y-132200000D01*
X107375001Y-131700000D02*
X106324999Y-131700000D01*
X124390000Y-66790000D02*
X124350000Y-66750000D01*
X107350000Y-137200000D02*
X106300000Y-137200000D01*
X107375001Y-125200000D02*
X106324999Y-125200000D01*
X126050000Y-84570000D02*
X124470000Y-84570000D01*
X74000000Y-128310000D02*
X74000000Y-129000000D01*
X107350000Y-126199999D02*
X106299999Y-126199999D01*
X107375001Y-131200001D02*
X106325000Y-131200001D01*
X131640000Y-92190000D02*
X131650000Y-92200000D01*
X124470000Y-84570000D02*
X124350000Y-84450000D01*
X73000000Y-123790000D02*
X73000000Y-123150000D01*
X107350000Y-127200000D02*
X106300000Y-127200000D01*
X107375001Y-130700002D02*
X106325001Y-130700002D01*
X75980000Y-88380000D02*
X75200000Y-87600000D01*
X73050000Y-108700000D02*
X71300000Y-108700000D01*
X106299999Y-137699999D02*
X106250000Y-137650000D01*
X106300000Y-138700000D02*
X106250000Y-138650000D01*
X126050000Y-97270000D02*
X124420000Y-97270000D01*
X107350000Y-132699999D02*
X106299999Y-132699999D01*
X124270000Y-109970000D02*
X124250000Y-109950000D01*
X124370000Y-90920000D02*
X124300000Y-90850000D01*
X107375001Y-136700000D02*
X106324999Y-136700000D01*
X129950000Y-85840000D02*
X131640000Y-85840000D01*
X73050000Y-93460000D02*
X71310000Y-93460000D01*
X71260000Y-66790000D02*
X71250000Y-66800000D01*
X131610000Y-104890000D02*
X131650000Y-104850000D01*
X126050000Y-66790000D02*
X124390000Y-66790000D01*
X131740000Y-111240000D02*
X131750000Y-111250000D01*
X71310000Y-80760000D02*
X71300000Y-80750000D01*
X124420000Y-97270000D02*
X124400000Y-97250000D01*
X126050000Y-116320000D02*
X124220000Y-116320000D01*
X107350000Y-125700000D02*
X106300000Y-125700000D01*
X126050000Y-109970000D02*
X124270000Y-109970000D01*
X107350000Y-138700000D02*
X106300000Y-138700000D01*
X131690000Y-79490000D02*
X131700000Y-79500000D01*
X129950000Y-92190000D02*
X131640000Y-92190000D01*
X129950000Y-104890000D02*
X131610000Y-104890000D01*
%TO.N,L_12*%
X74850000Y-82000000D02*
X73080000Y-82000000D01*
%TO.N,+5V_ZYNQ*%
X84300000Y-115500000D02*
X121991200Y-115500000D01*
D22*
X121991200Y-131108802D02*
X121991200Y-115500000D01*
X120490000Y-148650000D02*
X120490000Y-134460002D01*
X76950000Y-63000000D02*
X76950000Y-66790000D01*
X122291200Y-133508802D02*
X123491200Y-133508802D01*
X121908800Y-66008800D02*
X107750000Y-51850000D01*
D21*
X73030000Y-126770000D02*
X84300000Y-115500000D01*
D22*
X121991200Y-133208802D02*
X122291200Y-133508802D01*
X121991200Y-132958802D02*
X121991200Y-133208802D01*
X107750000Y-51850000D02*
X88100000Y-51850000D01*
X88100000Y-51850000D02*
X76950000Y-63000000D01*
X120490000Y-134460002D02*
X121991200Y-132958802D01*
X128500000Y-64050000D02*
X129950000Y-65500000D01*
X121991200Y-66008800D02*
X121908800Y-66008800D01*
D21*
X71642500Y-126770000D02*
X73030000Y-126770000D01*
D22*
X123950000Y-64050000D02*
X128500000Y-64050000D01*
X121991200Y-132958802D02*
X121991200Y-131108802D01*
X129950000Y-65500000D02*
X129950000Y-66790000D01*
X121991200Y-66008800D02*
X123950000Y-64050000D01*
X121991200Y-115500000D02*
X121991200Y-66008800D01*
X121340000Y-149500000D02*
X120490000Y-148650000D01*
D21*
%TO.N,LED_B*%
X73260000Y-63350000D02*
X72900000Y-62990000D01*
X71390000Y-92190000D02*
X71350000Y-92150000D01*
X73550000Y-63350000D02*
X73260000Y-63350000D01*
X73050000Y-92190000D02*
X71390000Y-92190000D01*
%TO.N,R_49*%
X76950000Y-113780000D02*
X80270000Y-113780000D01*
X80270000Y-113780000D02*
X80550000Y-113500000D01*
%TO.N,L_37*%
X74800000Y-103350000D02*
X74530000Y-103620000D01*
X74530000Y-103620000D02*
X73050000Y-103620000D01*
X75100000Y-103350000D02*
X74800000Y-103350000D01*
%TO.N,L_44*%
X78800000Y-107700000D02*
X78750000Y-107650000D01*
X78750000Y-107650000D02*
X77170000Y-107650000D01*
%TO.N,L_28*%
X78761272Y-96000000D02*
X76950000Y-96000000D01*
X79005636Y-95755636D02*
X78761272Y-96000000D01*
%TO.N,L_18*%
X74950000Y-86000000D02*
X73210000Y-86000000D01*
%TO.N,L_39*%
X75100000Y-104500000D02*
X74710000Y-104890000D01*
X74710000Y-104890000D02*
X73050000Y-104890000D01*
%TO.N,LED_R*%
X72900000Y-56190000D02*
X74400000Y-57690000D01*
X74400000Y-57690000D02*
X74400000Y-60900000D01*
X75050000Y-90900000D02*
X76930000Y-90900000D01*
%TO.N,L_48*%
X78850000Y-111400000D02*
X77110000Y-111400000D01*
%TO.N,L_4*%
X74800000Y-75700000D02*
X73070000Y-75700000D01*
%TO.N,L_34*%
X78650000Y-100900000D02*
X77130000Y-100900000D01*
%TO.N,L_1*%
X78630000Y-71870000D02*
X78650000Y-71850000D01*
X76950000Y-71870000D02*
X78630000Y-71870000D01*
%TO.N,L_36*%
X78650000Y-102550000D02*
X77150000Y-102550000D01*
%TO.N,L_3*%
X78650000Y-74400000D02*
X76960000Y-74400000D01*
%TO.N,L_45*%
X75050000Y-109550000D02*
X74630000Y-109970000D01*
X74630000Y-109970000D02*
X73050000Y-109970000D01*
%TO.N,L_42*%
X77140000Y-106350000D02*
X78650000Y-106350000D01*
X78650000Y-106350000D02*
X78800000Y-106500000D01*
%TO.N,L_29*%
X75050000Y-97100000D02*
X74900000Y-97100000D01*
X74730000Y-97270000D02*
X73050000Y-97270000D01*
X74900000Y-97100000D02*
X74730000Y-97270000D01*
%TO.N,L_20*%
X74950000Y-88400000D02*
X73070000Y-88400000D01*
%TO.N,L_11*%
X78777287Y-80760000D02*
X76950000Y-80760000D01*
X78792372Y-80744915D02*
X78777287Y-80760000D01*
%TO.N,L_10*%
X74850000Y-79550000D02*
X73110000Y-79550000D01*
%TO.N,R_48*%
X76950000Y-112510000D02*
X78660000Y-112510000D01*
X78660000Y-112510000D02*
X78850000Y-112700000D01*
%TO.N,L_9*%
X78700000Y-79400000D02*
X77040000Y-79400000D01*
%TO.N,L_30*%
X78900000Y-97750000D02*
X78110000Y-98540000D01*
X78110000Y-98540000D02*
X76950000Y-98540000D01*
%TO.N,L_13*%
X78200000Y-83300000D02*
X76950000Y-83300000D01*
X78850000Y-82650000D02*
X78200000Y-83300000D01*
%TO.N,L_16*%
X75000000Y-84800000D02*
X74770000Y-84570000D01*
X74770000Y-84570000D02*
X73050000Y-84570000D01*
%TO.N,L_43*%
X74670000Y-107430000D02*
X73050000Y-107430000D01*
X74950000Y-107150000D02*
X74670000Y-107430000D01*
X75000000Y-107150000D02*
X74950000Y-107150000D01*
%TO.N,L_15*%
X78850000Y-84300000D02*
X78600000Y-84550000D01*
X78600000Y-84550000D02*
X76970000Y-84550000D01*
%TO.N,L_2*%
X78650000Y-73140000D02*
X76950000Y-73140000D01*
%TO.N,L_7*%
X78330000Y-78220000D02*
X76950000Y-78220000D01*
X78700000Y-77850000D02*
X78330000Y-78220000D01*
%TO.N,L_0*%
X75150000Y-70000000D02*
X75750000Y-70600000D01*
X75750000Y-70600000D02*
X76950000Y-70600000D01*
%TO.N,L_27*%
X75050000Y-95750000D02*
X74950000Y-95750000D01*
X74950000Y-95750000D02*
X74700000Y-96000000D01*
X74700000Y-96000000D02*
X73050000Y-96000000D01*
%TO.N,L_6*%
X74800000Y-76950000D02*
X73050000Y-76950000D01*
%TO.N,L_47*%
X75050000Y-110850000D02*
X74660000Y-111240000D01*
X74660000Y-111240000D02*
X73050000Y-111240000D01*
%TO.N,L_19*%
X78940000Y-87110000D02*
X76950000Y-87110000D01*
X79000000Y-87050000D02*
X78940000Y-87110000D01*
%TO.N,L_17*%
X78850000Y-85700000D02*
X77090000Y-85700000D01*
%TO.N,L_22*%
X75000000Y-89700000D02*
X73100000Y-89700000D01*
%TO.N,L_40*%
X78800000Y-105050000D02*
X77110000Y-105050000D01*
%TO.N,L_32*%
X78900000Y-99450000D02*
X78540000Y-99810000D01*
X78540000Y-99810000D02*
X76950000Y-99810000D01*
%TO.N,L_41*%
X75075000Y-106025000D02*
X74940000Y-106160000D01*
X74940000Y-106160000D02*
X73050000Y-106160000D01*
%TO.N,L_46*%
X78850000Y-110100000D02*
X77080000Y-110100000D01*
%TO.N,L_21*%
X78150000Y-89650000D02*
X76950000Y-89650000D01*
X78900000Y-88900000D02*
X78150000Y-89650000D01*
%TO.N,L_26*%
X78802818Y-94402818D02*
X78475636Y-94730000D01*
X78475636Y-94730000D02*
X76950000Y-94730000D01*
%TO.N,L_14*%
X75000000Y-83700000D02*
X74600000Y-83300000D01*
X74600000Y-83300000D02*
X73050000Y-83300000D01*
%TO.N,L_31*%
X75100000Y-98500000D02*
X74750000Y-98500000D01*
X74710000Y-98540000D02*
X73050000Y-98540000D01*
X74750000Y-98500000D02*
X74710000Y-98540000D01*
%TO.N,R_4*%
X124143596Y-81944357D02*
X125964357Y-81944357D01*
%TO.N,R_30*%
X124168496Y-102200000D02*
X125900000Y-102200000D01*
%TO.N,R_42*%
X124200000Y-112400000D02*
X125940000Y-112400000D01*
%TO.N,R_25*%
X128710000Y-99810000D02*
X129950000Y-99810000D01*
X128050000Y-99150000D02*
X128710000Y-99810000D01*
X127900000Y-99150000D02*
X128050000Y-99150000D01*
%TO.N,R_11*%
X128530000Y-88380000D02*
X129950000Y-88380000D01*
X127900000Y-87750000D02*
X128530000Y-88380000D01*
%TO.N,R_16*%
X124740000Y-92190000D02*
X126050000Y-92190000D01*
X124300000Y-91750000D02*
X124740000Y-92190000D01*
%TO.N,R_21*%
X127900000Y-95350000D02*
X128550000Y-96000000D01*
X128550000Y-96000000D02*
X129950000Y-96000000D01*
%TO.N,R_45*%
X128600000Y-115050000D02*
X129950000Y-115050000D01*
X127950000Y-114400000D02*
X128600000Y-115050000D01*
%TO.N,R_15*%
X127850000Y-90250000D02*
X127900000Y-90250000D01*
X128570000Y-90920000D02*
X129950000Y-90920000D01*
X127900000Y-90250000D02*
X128570000Y-90920000D01*
%TO.N,R_35*%
X128680000Y-107430000D02*
X129950000Y-107430000D01*
X128050000Y-106800000D02*
X128680000Y-107430000D01*
X127950000Y-106800000D02*
X128050000Y-106800000D01*
%TO.N,R_41*%
X128610000Y-112510000D02*
X129950000Y-112510000D01*
X127950000Y-111850000D02*
X128610000Y-112510000D01*
%TO.N,R_0*%
X127210000Y-79490000D02*
X126050000Y-79490000D01*
X128050000Y-78650000D02*
X127210000Y-79490000D01*
%TO.N,R_10*%
X124150000Y-86900000D02*
X125840000Y-86900000D01*
%TO.N,R_28*%
X124130222Y-100946641D02*
X125916641Y-100946641D01*
%TO.N,R_1*%
X128100000Y-80400000D02*
X128460000Y-80760000D01*
X128460000Y-80760000D02*
X129950000Y-80760000D01*
%TO.N,R_14*%
X124200000Y-89600000D02*
X126000000Y-89600000D01*
%TO.N,R_39*%
X128620000Y-109970000D02*
X129950000Y-109970000D01*
X127950000Y-109300000D02*
X128620000Y-109970000D01*
%TO.N,R_37*%
X128100000Y-108050000D02*
X128750000Y-108700000D01*
X128750000Y-108700000D02*
X129950000Y-108700000D01*
X127950000Y-108050000D02*
X128100000Y-108050000D01*
%TO.N,R_18*%
X124245273Y-93347271D02*
X125937271Y-93347271D01*
%TO.N,R_19*%
X127900000Y-94050000D02*
X128580000Y-94730000D01*
X128580000Y-94730000D02*
X129950000Y-94730000D01*
%TO.N,R_7*%
X128620000Y-84570000D02*
X129950000Y-84570000D01*
X128000000Y-83950000D02*
X128620000Y-84570000D01*
%TO.N,R_32*%
X124250000Y-104450000D02*
X124690000Y-104890000D01*
X124690000Y-104890000D02*
X126050000Y-104890000D01*
%TO.N,R_47*%
X128620000Y-116320000D02*
X129950000Y-116320000D01*
X127950000Y-115650000D02*
X128620000Y-116320000D01*
%TO.N,R_3*%
X128000000Y-81400000D02*
X128630000Y-82030000D01*
X128630000Y-82030000D02*
X129950000Y-82030000D01*
%TO.N,R_40*%
X124250000Y-111100000D02*
X125910000Y-111100000D01*
%TO.N,R_26*%
X124122182Y-99427818D02*
X124504364Y-99810000D01*
X124504364Y-99810000D02*
X126050000Y-99810000D01*
%TO.N,R_9*%
X127900000Y-86450000D02*
X128560000Y-87110000D01*
X128560000Y-87110000D02*
X129950000Y-87110000D01*
%TO.N,R_2*%
X124250000Y-80650000D02*
X125940000Y-80650000D01*
%TO.N,R_29*%
X128600000Y-102350000D02*
X129950000Y-102350000D01*
X127900000Y-101650000D02*
X128600000Y-102350000D01*
%TO.N,R_8*%
X124790000Y-85840000D02*
X126050000Y-85840000D01*
X124050000Y-85100000D02*
X124790000Y-85840000D01*
%TO.N,R_36*%
X124200000Y-107350000D02*
X125970000Y-107350000D01*
%TO.N,R_17*%
X127900000Y-92800000D02*
X128560000Y-93460000D01*
X128560000Y-93460000D02*
X129950000Y-93460000D01*
%TO.N,R_23*%
X127900000Y-96600000D02*
X128570000Y-97270000D01*
X128570000Y-97270000D02*
X129950000Y-97270000D01*
%TO.N,R_46*%
X124200000Y-114950000D02*
X125950000Y-114950000D01*
%TO.N,R_38*%
X124200000Y-108600000D02*
X125950000Y-108600000D01*
%TO.N,R_33*%
X128560000Y-106160000D02*
X129950000Y-106160000D01*
X127900000Y-105500000D02*
X128560000Y-106160000D01*
%TO.N,R_43*%
X127950000Y-113100000D02*
X128630000Y-113780000D01*
X128630000Y-113780000D02*
X129950000Y-113780000D01*
%TO.N,R_24*%
X124790000Y-98540000D02*
X126050000Y-98540000D01*
X124375000Y-98125000D02*
X124790000Y-98540000D01*
%TO.N,R_5*%
X127950000Y-82650000D02*
X128050000Y-82650000D01*
X128700000Y-83300000D02*
X129950000Y-83300000D01*
X128050000Y-82650000D02*
X128700000Y-83300000D01*
%TO.N,R_34*%
X124200000Y-106000000D02*
X125890000Y-106000000D01*
%TO.N,R_6*%
X124200000Y-83200000D02*
X125950000Y-83200000D01*
%TO.N,R_20*%
X124250000Y-94600000D02*
X125920000Y-94600000D01*
%TO.N,R_27*%
X127900000Y-100450000D02*
X128530000Y-101080000D01*
X128530000Y-101080000D02*
X129950000Y-101080000D01*
%TO.N,R_22*%
X124200000Y-95900000D02*
X125950000Y-95900000D01*
%TO.N,R_44*%
X124200000Y-113700000D02*
X125970000Y-113700000D01*
%TO.N,R_12*%
X124145273Y-88297271D02*
X125967271Y-88297271D01*
%TO.N,R_31*%
X127900000Y-102950000D02*
X128570000Y-103620000D01*
X128570000Y-103620000D02*
X129950000Y-103620000D01*
%TO.N,R_13*%
X128450000Y-89650000D02*
X129950000Y-89650000D01*
X127850000Y-89050000D02*
X128450000Y-89650000D01*
%TO.N,Net-(D1-K)*%
X73000000Y-124810000D02*
X71740000Y-124810000D01*
%TO.N,+24V*%
X107350000Y-143700000D02*
X106300000Y-143700000D01*
X107350000Y-119700000D02*
X106300000Y-119700000D01*
X107350000Y-141200000D02*
X106300000Y-141200000D01*
X107350000Y-142700000D02*
X106300000Y-142700000D01*
X107350000Y-142200000D02*
X106300000Y-142200000D01*
X107350000Y-122200000D02*
X106300000Y-122200000D01*
X107350000Y-120700000D02*
X106300000Y-120700000D01*
X107350000Y-140200000D02*
X106300000Y-140200000D01*
X107350000Y-121700000D02*
X106300000Y-121700000D01*
X71587500Y-137312500D02*
X72700000Y-136200000D01*
X107350000Y-121200000D02*
X106300000Y-121200000D01*
X107350000Y-122700000D02*
X106300000Y-122700000D01*
X107350000Y-143200000D02*
X106300000Y-143200000D01*
X107350000Y-123200000D02*
X106300000Y-123200000D01*
X107350000Y-119200000D02*
X106300000Y-119200000D01*
X107350000Y-120200000D02*
X106300000Y-120200000D01*
X107350000Y-140700000D02*
X106300000Y-140700000D01*
X107350000Y-141700000D02*
X106300000Y-141700000D01*
%TO.N,+5V*%
X71912500Y-133400000D02*
X75950000Y-133400000D01*
X82700000Y-140150000D02*
X91150000Y-140150000D01*
X71450000Y-133862500D02*
X71912500Y-133400000D01*
X75950000Y-133400000D02*
X82700000Y-140150000D01*
%TO.N,+3.3V*%
X72062500Y-129800000D02*
X91000000Y-129800000D01*
X71450000Y-130412500D02*
X72062500Y-129800000D01*
%TO.N,Net-(U1-FB)*%
X126491200Y-136458802D02*
X128971200Y-136458802D01*
X128971200Y-136458802D02*
X129571200Y-137058802D01*
%TO.N,Net-(U2-FB)*%
X104300000Y-134295000D02*
X104900000Y-133695000D01*
X104300000Y-136775000D02*
X104300000Y-134295000D01*
%TO.N,Net-(U3-FB)*%
X104250000Y-122675000D02*
X104850000Y-122075000D01*
X104250000Y-125155000D02*
X104250000Y-122675000D01*
%TO.N,Net-(D2-K)*%
X73000000Y-128310000D02*
X71677500Y-128310000D01*
%TO.N,Net-(D3-K)*%
X73000000Y-135260000D02*
X71627500Y-135260000D01*
%TO.N,Net-(D4-K)*%
X73000000Y-132010000D02*
X71472500Y-132010000D01*
%TO.N,Net-(D7-K)*%
X73000000Y-138610000D02*
X71727500Y-138610000D01*
%TO.N,Net-(R6-Pad1)*%
X73000000Y-127290000D02*
X74000000Y-127290000D01*
%TO.N,Net-(R16-Pad1)*%
X73000000Y-134240000D02*
X74000000Y-134240000D01*
%TO.N,Net-(D8-K)*%
X71400000Y-53337500D02*
X72622500Y-53337500D01*
X72622500Y-53337500D02*
X72900000Y-53060000D01*
%TO.N,POWER_FAIL*%
X132550000Y-140830000D02*
X123880000Y-149500000D01*
X132550000Y-76400000D02*
X132550000Y-140830000D01*
X127950000Y-73150000D02*
X126060000Y-73150000D01*
X132400000Y-76250000D02*
X132550000Y-76400000D01*
%TO.N,POWER_OFF*%
X132553554Y-75653554D02*
X133000000Y-76100000D01*
X133000000Y-76100000D02*
X133000000Y-142920000D01*
X133000000Y-142920000D02*
X126420000Y-149500000D01*
X127950000Y-74450000D02*
X126090000Y-74450000D01*
X131796446Y-75653554D02*
X132553554Y-75653554D01*
%TO.N,PS_9*%
X130780000Y-75680000D02*
X132250000Y-74210000D01*
X121050000Y-48400000D02*
X73140000Y-48400000D01*
X132250000Y-59600000D02*
X121050000Y-48400000D01*
X73140000Y-48400000D02*
X72900000Y-48640000D01*
X132250000Y-74210000D02*
X132250000Y-59600000D01*
%TO.N,PS_0*%
X120700000Y-49200000D02*
X75800000Y-49200000D01*
X131650000Y-60150000D02*
X120700000Y-49200000D01*
X75800000Y-49200000D02*
X72960000Y-52040000D01*
X131650000Y-72270000D02*
X131650000Y-60150000D01*
X130780000Y-73140000D02*
X131650000Y-72270000D01*
%TO.N,POWER_AUX_0*%
X133500000Y-144960000D02*
X128960000Y-149500000D01*
X131850000Y-76950000D02*
X129950000Y-76950000D01*
X133500000Y-78050000D02*
X133500000Y-144960000D01*
%TO.N,POWER_AUX_1*%
X131950000Y-78300000D02*
X131870000Y-78220000D01*
X131870000Y-78220000D02*
X129950000Y-78220000D01*
%TO.N,Net-(D10-K)*%
X71400000Y-49937500D02*
X72622500Y-49937500D01*
X72622500Y-49937500D02*
X72900000Y-49660000D01*
%TO.N,Net-(D11-K)*%
X71400000Y-57487500D02*
X72622500Y-57487500D01*
X72622500Y-57487500D02*
X72900000Y-57210000D01*
%TO.N,Net-(D12-K)*%
X72622500Y-60887500D02*
X72900000Y-60610000D01*
X71400000Y-60887500D02*
X72622500Y-60887500D01*
%TO.N,Net-(D13-K)*%
X72622500Y-64287500D02*
X72900000Y-64010000D01*
X71400000Y-64287500D02*
X72622500Y-64287500D01*
%TD*%
%TA.AperFunction,Conductor*%
%TO.N,+5V*%
G36*
X110243039Y-133069685D02*
G01*
X110288794Y-133122489D01*
X110300000Y-133174000D01*
X110300000Y-133182760D01*
X110280315Y-133249799D01*
X110276321Y-133255642D01*
X110271951Y-133261657D01*
X110214352Y-133374698D01*
X110214352Y-133374699D01*
X110194508Y-133499996D01*
X110194508Y-133500003D01*
X110214352Y-133625300D01*
X110214352Y-133625301D01*
X110214354Y-133625304D01*
X110271950Y-133738342D01*
X110271952Y-133738344D01*
X110276318Y-133744354D01*
X110299798Y-133810160D01*
X110300000Y-133817239D01*
X110300000Y-134832760D01*
X110280315Y-134899799D01*
X110276321Y-134905642D01*
X110271951Y-134911657D01*
X110214352Y-135024698D01*
X110214352Y-135024699D01*
X110194508Y-135149996D01*
X110194508Y-135150003D01*
X110214352Y-135275300D01*
X110214352Y-135275301D01*
X110233048Y-135311993D01*
X110271950Y-135388342D01*
X110271952Y-135388344D01*
X110276318Y-135394354D01*
X110299798Y-135460160D01*
X110300000Y-135467239D01*
X110300000Y-136876000D01*
X110280315Y-136943039D01*
X110227511Y-136988794D01*
X110176000Y-137000000D01*
X108224000Y-137000000D01*
X108156961Y-136980315D01*
X108111206Y-136927511D01*
X108100000Y-136876000D01*
X108100000Y-135350000D01*
X106874000Y-135350000D01*
X106806961Y-135330315D01*
X106761206Y-135277511D01*
X106750000Y-135226000D01*
X106750000Y-133174000D01*
X106769685Y-133106961D01*
X106822489Y-133061206D01*
X106874000Y-133050000D01*
X110176000Y-133050000D01*
X110243039Y-133069685D01*
G37*
%TD.AperFunction*%
%TD*%
%TA.AperFunction,Conductor*%
%TO.N,+3.3V*%
G36*
X111543039Y-126419685D02*
G01*
X111588794Y-126472489D01*
X111600000Y-126524000D01*
X111600000Y-130226000D01*
X111580315Y-130293039D01*
X111527511Y-130338794D01*
X111476000Y-130350000D01*
X106874000Y-130350000D01*
X106806961Y-130330315D01*
X106761206Y-130277511D01*
X106750000Y-130226000D01*
X106750000Y-128174000D01*
X106769685Y-128106961D01*
X106822489Y-128061206D01*
X106874000Y-128050000D01*
X108100000Y-128050000D01*
X108100000Y-126524000D01*
X108119685Y-126456961D01*
X108172489Y-126411206D01*
X108224000Y-126400000D01*
X111476000Y-126400000D01*
X111543039Y-126419685D01*
G37*
%TD.AperFunction*%
%TD*%
M02*
