%TF.GenerationSoftware,KiCad,Pcbnew,8.0.1*%
%TF.CreationDate,2026-01-15T09:52:55-05:00*%
%TF.ProjectId,Modular MiYR interface,4d6f6475-6c61-4722-904d-69595220696e,rev?*%
%TF.SameCoordinates,Original*%
%TF.FileFunction,Copper,L4,Bot*%
%TF.FilePolarity,Positive*%
%FSLAX46Y46*%
G04 Gerber Fmt 4.6, Leading zero omitted, Abs format (unit mm)*
G04 Created by KiCad (PCBNEW 8.0.1) date 2026-01-15 09:52:55*
%MOMM*%
%LPD*%
G01*
G04 APERTURE LIST*
G04 Aperture macros list*
%AMRoundRect*
0 Rectangle with rounded corners*
0 $1 Rounding radius*
0 $2 $3 $4 $5 $6 $7 $8 $9 X,Y pos of 4 corners*
0 Add a 4 corners polygon primitive as box body*
4,1,4,$2,$3,$4,$5,$6,$7,$8,$9,$2,$3,0*
0 Add four circle primitives for the rounded corners*
1,1,$1+$1,$2,$3*
1,1,$1+$1,$4,$5*
1,1,$1+$1,$6,$7*
1,1,$1+$1,$8,$9*
0 Add four rect primitives between the rounded corners*
20,1,$1+$1,$2,$3,$4,$5,0*
20,1,$1+$1,$4,$5,$6,$7,0*
20,1,$1+$1,$6,$7,$8,$9,0*
20,1,$1+$1,$8,$9,$2,$3,0*%
%AMFreePoly0*
4,1,23,-1.075000,1.675000,-1.054344,1.884722,-0.993170,2.086385,-0.893830,2.272238,-0.760140,2.435140,-0.597238,2.568830,-0.411385,2.668170,-0.209722,2.729344,0.000000,2.750000,1.053500,2.750000,1.075000,2.728500,1.075000,-2.728500,1.053500,-2.750000,0.000000,-2.750000,-0.209722,-2.729344,-0.411385,-2.668170,-0.597238,-2.568830,-0.760140,-2.435140,-0.893830,-2.272238,-0.993170,-2.086385,
-1.054344,-1.884722,-1.075000,-1.675000,-1.075000,1.675000,-1.075000,1.675000,$1*%
%AMFreePoly1*
4,1,23,-1.075000,2.728500,-1.053500,2.750000,0.000000,2.750000,0.209722,2.729344,0.411385,2.668170,0.597238,2.568830,0.760140,2.435140,0.893830,2.272238,0.993170,2.086385,1.054344,1.884722,1.075000,1.675000,1.075000,-1.675000,1.054344,-1.884722,0.993170,-2.086385,0.893830,-2.272238,0.760140,-2.435140,0.597238,-2.568830,0.411385,-2.668170,0.209722,-2.729344,0.000000,-2.750000,
-1.053500,-2.750000,-1.075000,-2.728500,-1.075000,2.728500,-1.075000,2.728500,$1*%
G04 Aperture macros list end*
%TA.AperFunction,ComponentPad*%
%ADD10R,2.200000X2.200000*%
%TD*%
%TA.AperFunction,ComponentPad*%
%ADD11C,2.200000*%
%TD*%
%TA.AperFunction,ComponentPad*%
%ADD12R,1.700000X1.700000*%
%TD*%
%TA.AperFunction,ComponentPad*%
%ADD13O,1.700000X1.700000*%
%TD*%
%TA.AperFunction,SMDPad,CuDef*%
%ADD14RoundRect,0.135000X-0.185000X0.135000X-0.185000X-0.135000X0.185000X-0.135000X0.185000X0.135000X0*%
%TD*%
%TA.AperFunction,SMDPad,CuDef*%
%ADD15RoundRect,0.250000X0.550000X-1.500000X0.550000X1.500000X-0.550000X1.500000X-0.550000X-1.500000X0*%
%TD*%
%TA.AperFunction,SMDPad,CuDef*%
%ADD16RoundRect,0.250000X1.000000X0.650000X-1.000000X0.650000X-1.000000X-0.650000X1.000000X-0.650000X0*%
%TD*%
%TA.AperFunction,SMDPad,CuDef*%
%ADD17FreePoly0,180.000000*%
%TD*%
%TA.AperFunction,SMDPad,CuDef*%
%ADD18FreePoly1,180.000000*%
%TD*%
%TA.AperFunction,SMDPad,CuDef*%
%ADD19RoundRect,0.250000X0.650000X-0.325000X0.650000X0.325000X-0.650000X0.325000X-0.650000X-0.325000X0*%
%TD*%
%TA.AperFunction,SMDPad,CuDef*%
%ADD20RoundRect,0.250000X-0.375000X-0.625000X0.375000X-0.625000X0.375000X0.625000X-0.375000X0.625000X0*%
%TD*%
%TA.AperFunction,SMDPad,CuDef*%
%ADD21RoundRect,0.135000X0.135000X0.185000X-0.135000X0.185000X-0.135000X-0.185000X0.135000X-0.185000X0*%
%TD*%
%TA.AperFunction,SMDPad,CuDef*%
%ADD22R,1.193800X0.304800*%
%TD*%
%TA.AperFunction,SMDPad,CuDef*%
%ADD23R,1.803400X2.006600*%
%TD*%
%TA.AperFunction,SMDPad,CuDef*%
%ADD24RoundRect,0.250000X-0.650000X0.325000X-0.650000X-0.325000X0.650000X-0.325000X0.650000X0.325000X0*%
%TD*%
%TA.AperFunction,SMDPad,CuDef*%
%ADD25RoundRect,0.250000X0.325000X0.650000X-0.325000X0.650000X-0.325000X-0.650000X0.325000X-0.650000X0*%
%TD*%
%TA.AperFunction,SMDPad,CuDef*%
%ADD26FreePoly0,270.000000*%
%TD*%
%TA.AperFunction,SMDPad,CuDef*%
%ADD27FreePoly1,270.000000*%
%TD*%
%TA.AperFunction,SMDPad,CuDef*%
%ADD28RoundRect,0.140000X-0.170000X0.140000X-0.170000X-0.140000X0.170000X-0.140000X0.170000X0.140000X0*%
%TD*%
%TA.AperFunction,SMDPad,CuDef*%
%ADD29RoundRect,0.140000X0.170000X-0.140000X0.170000X0.140000X-0.170000X0.140000X-0.170000X-0.140000X0*%
%TD*%
%TA.AperFunction,SMDPad,CuDef*%
%ADD30RoundRect,0.140000X0.140000X0.170000X-0.140000X0.170000X-0.140000X-0.170000X0.140000X-0.170000X0*%
%TD*%
%TA.AperFunction,SMDPad,CuDef*%
%ADD31RoundRect,0.250000X1.500000X0.550000X-1.500000X0.550000X-1.500000X-0.550000X1.500000X-0.550000X0*%
%TD*%
%TA.AperFunction,SMDPad,CuDef*%
%ADD32RoundRect,0.250000X0.650000X-1.000000X0.650000X1.000000X-0.650000X1.000000X-0.650000X-1.000000X0*%
%TD*%
%TA.AperFunction,SMDPad,CuDef*%
%ADD33RoundRect,0.135000X-0.135000X-0.185000X0.135000X-0.185000X0.135000X0.185000X-0.135000X0.185000X0*%
%TD*%
%TA.AperFunction,SMDPad,CuDef*%
%ADD34RoundRect,0.150000X-0.512500X-0.150000X0.512500X-0.150000X0.512500X0.150000X-0.512500X0.150000X0*%
%TD*%
%TA.AperFunction,SMDPad,CuDef*%
%ADD35RoundRect,0.140000X-0.140000X-0.170000X0.140000X-0.170000X0.140000X0.170000X-0.140000X0.170000X0*%
%TD*%
%TA.AperFunction,SMDPad,CuDef*%
%ADD36RoundRect,0.250000X-0.325000X-0.650000X0.325000X-0.650000X0.325000X0.650000X-0.325000X0.650000X0*%
%TD*%
%TA.AperFunction,SMDPad,CuDef*%
%ADD37RoundRect,0.150000X-0.150000X0.512500X-0.150000X-0.512500X0.150000X-0.512500X0.150000X0.512500X0*%
%TD*%
%TA.AperFunction,ViaPad*%
%ADD38C,0.500000*%
%TD*%
%TA.AperFunction,Conductor*%
%ADD39C,0.200000*%
%TD*%
%TA.AperFunction,Conductor*%
%ADD40C,0.800000*%
%TD*%
G04 APERTURE END LIST*
D10*
%TO.P,J6,1,Pin_1*%
%TO.N,Net-(J6-Pin_1)*%
X74211000Y-150049000D03*
D11*
%TO.P,J6,2,Pin_2*%
X71711000Y-150049000D03*
%TO.P,J6,3,Pin_3*%
%TO.N,GND*%
X74211000Y-146549000D03*
%TO.P,J6,4,Pin_4*%
X71711000Y-146549000D03*
%TD*%
D12*
%TO.P,M1,1,+*%
%TO.N,+5V*%
X93100000Y-150725000D03*
D13*
%TO.P,M1,2,-*%
%TO.N,GND*%
X93100000Y-148185000D03*
%TD*%
D14*
%TO.P,R11,1*%
%TO.N,GND*%
X104450000Y-119765000D03*
%TO.P,R11,2*%
%TO.N,Net-(U3-EN)*%
X104450000Y-120785000D03*
%TD*%
D15*
%TO.P,C27,1*%
%TO.N,+3.3V*%
X116550000Y-127350000D03*
%TO.P,C27,2*%
%TO.N,GND*%
X116550000Y-121950000D03*
%TD*%
D16*
%TO.P,D9,1,K*%
%TO.N,/ZYNQ_24V_BUCK_SUPPLY*%
X117400000Y-144800000D03*
%TO.P,D9,2,A*%
%TO.N,+24V*%
X113400000Y-144800000D03*
%TD*%
D17*
%TO.P,L1,1,1*%
%TO.N,Net-(U1-SW)*%
X129641200Y-125596302D03*
D18*
%TO.P,L1,2,2*%
%TO.N,+5V_ZYNQ*%
X125841200Y-125596302D03*
%TD*%
D19*
%TO.P,C10,1*%
%TO.N,GND*%
X97450000Y-124580000D03*
%TO.P,C10,2*%
%TO.N,+24V*%
X97450000Y-121630000D03*
%TD*%
D20*
%TO.P,F1,1*%
%TO.N,Net-(J6-Pin_1)*%
X76950000Y-150050000D03*
%TO.P,F1,2*%
%TO.N,+24V*%
X79750000Y-150050000D03*
%TD*%
D21*
%TO.P,R2,1*%
%TO.N,Net-(U1-EN)*%
X131881200Y-135646302D03*
%TO.P,R2,2*%
%TO.N,/ZYNQ_24V_BUCK_SUPPLY*%
X130861200Y-135646302D03*
%TD*%
D12*
%TO.P,J7,1,Pin_1*%
%TO.N,+24V*%
X113720000Y-149500000D03*
D13*
%TO.P,J7,2,Pin_2*%
%TO.N,/ZYNQ_24V_BUCK_SUPPLY*%
X116260000Y-149500000D03*
%TO.P,J7,3,Pin_3*%
%TO.N,GND*%
X118800000Y-149500000D03*
%TO.P,J7,4,Pin_4*%
%TO.N,+5V_ZYNQ*%
X121340000Y-149500000D03*
%TO.P,J7,5,Pin_5*%
%TO.N,POWER_FAIL*%
X123880000Y-149500000D03*
%TO.P,J7,6,Pin_6*%
%TO.N,POWER_OFF*%
X126420000Y-149500000D03*
%TO.P,J7,7,Pin_7*%
%TO.N,POWER_AUX_0*%
X128960000Y-149500000D03*
%TO.P,J7,8,Pin_8*%
%TO.N,POWER_AUX_1*%
X131500000Y-149500000D03*
%TD*%
D22*
%TO.P,J1,1,1*%
%TO.N,GND*%
X89348900Y-53249999D03*
%TO.P,J1,2,2*%
%TO.N,L_0*%
X89348900Y-53750001D03*
%TO.P,J1,3,3*%
%TO.N,GND*%
X89348900Y-54250000D03*
%TO.P,J1,4,4*%
%TO.N,L_1*%
X89348900Y-54749999D03*
%TO.P,J1,5,5*%
%TO.N,GND*%
X89348900Y-55250000D03*
%TO.P,J1,6,6*%
%TO.N,L_2*%
X89348900Y-55749999D03*
%TO.P,J1,7,7*%
%TO.N,GND*%
X89348900Y-56250001D03*
%TO.P,J1,8,8*%
%TO.N,L_3*%
X89348900Y-56750000D03*
%TO.P,J1,9,9*%
%TO.N,GND*%
X89348900Y-57249999D03*
%TO.P,J1,10,10*%
%TO.N,L_4*%
X89348900Y-57750000D03*
%TO.P,J1,11,11*%
%TO.N,GND*%
X89348900Y-58249999D03*
%TO.P,J1,12,12*%
%TO.N,L_5*%
X89348900Y-58750001D03*
%TO.P,J1,13,13*%
%TO.N,GND*%
X89348900Y-59250000D03*
%TO.P,J1,14,14*%
%TO.N,L_6*%
X89348900Y-59749999D03*
%TO.P,J1,15,15*%
%TO.N,GND*%
X89348900Y-60250000D03*
%TO.P,J1,16,16*%
%TO.N,L_7*%
X89348900Y-60749999D03*
%TO.P,J1,17,17*%
%TO.N,GND*%
X89348900Y-61250001D03*
%TO.P,J1,18,18*%
%TO.N,L_8*%
X89348900Y-61750000D03*
%TO.P,J1,19,19*%
%TO.N,GND*%
X89348900Y-62249999D03*
%TO.P,J1,20,20*%
%TO.N,L_9*%
X89348900Y-62750000D03*
%TO.P,J1,21,21*%
%TO.N,GND*%
X89348900Y-63249999D03*
%TO.P,J1,22,22*%
%TO.N,L_10*%
X89348900Y-63750001D03*
%TO.P,J1,23,23*%
%TO.N,GND*%
X89348900Y-64250000D03*
%TO.P,J1,24,24*%
%TO.N,L_11*%
X89348900Y-64749999D03*
%TO.P,J1,25,25*%
%TO.N,GND*%
X89348900Y-65250000D03*
%TO.P,J1,26,26*%
%TO.N,L_12*%
X89348900Y-65750000D03*
%TO.P,J1,27,27*%
%TO.N,GND*%
X89348900Y-66249998D03*
%TO.P,J1,28,28*%
%TO.N,L_13*%
X89348900Y-66750000D03*
%TO.P,J1,29,29*%
%TO.N,GND*%
X89348900Y-67249999D03*
%TO.P,J1,30,30*%
%TO.N,L_14*%
X89348900Y-67750001D03*
%TO.P,J1,31,31*%
%TO.N,GND*%
X89348900Y-68250000D03*
%TO.P,J1,32,32*%
%TO.N,L_15*%
X89348900Y-68749999D03*
%TO.P,J1,33,33*%
%TO.N,GND*%
X89348900Y-69250000D03*
%TO.P,J1,34,34*%
%TO.N,L_16*%
X89348900Y-69749999D03*
%TO.P,J1,35,35*%
%TO.N,GND*%
X89348900Y-70250001D03*
%TO.P,J1,36,36*%
%TO.N,L_17*%
X89348900Y-70750000D03*
%TO.P,J1,37,37*%
%TO.N,GND*%
X89348900Y-71249999D03*
%TO.P,J1,38,38*%
%TO.N,L_18*%
X89348900Y-71750000D03*
%TO.P,J1,39,39*%
%TO.N,GND*%
X89348900Y-72249999D03*
%TO.P,J1,40,40*%
%TO.N,L_19*%
X89348900Y-72750001D03*
%TO.P,J1,41,41*%
%TO.N,GND*%
X89348900Y-73250000D03*
%TO.P,J1,42,42*%
%TO.N,L_20*%
X89348900Y-73749999D03*
%TO.P,J1,43,43*%
%TO.N,GND*%
X89348900Y-74250000D03*
%TO.P,J1,44,44*%
%TO.N,L_21*%
X89348900Y-74749999D03*
%TO.P,J1,45,45*%
%TO.N,GND*%
X89348900Y-75250001D03*
%TO.P,J1,46,46*%
%TO.N,L_22*%
X89348900Y-75750000D03*
%TO.P,J1,47,47*%
%TO.N,GND*%
X89348900Y-76249999D03*
%TO.P,J1,48,48*%
%TO.N,L_23*%
X89348900Y-76750000D03*
%TO.P,J1,49,49*%
%TO.N,GND*%
X89348900Y-77249999D03*
%TO.P,J1,50,50*%
%TO.N,L_24*%
X89348900Y-77750001D03*
D23*
%TO.P,J1,51*%
%TO.N,N/C*%
X92598902Y-51700002D03*
%TO.P,J1,52*%
X92598902Y-79299998D03*
%TD*%
D14*
%TO.P,R12,1*%
%TO.N,Net-(U2-FB)*%
X103700000Y-138115000D03*
%TO.P,R12,2*%
%TO.N,+5V*%
X103700000Y-139135000D03*
%TD*%
D24*
%TO.P,C20,1*%
%TO.N,GND*%
X97500000Y-126230000D03*
%TO.P,C20,2*%
%TO.N,+3.3V*%
X97500000Y-129180000D03*
%TD*%
D14*
%TO.P,R5,1*%
%TO.N,GND*%
X122541200Y-134736302D03*
%TO.P,R5,2*%
%TO.N,Net-(U1-FB)*%
X122541200Y-135756302D03*
%TD*%
D21*
%TO.P,R4,1*%
%TO.N,Net-(U1-FB)*%
X125151200Y-135846302D03*
%TO.P,R4,2*%
%TO.N,+5V_ZYNQ*%
X124131200Y-135846302D03*
%TD*%
D19*
%TO.P,C9,1*%
%TO.N,GND*%
X97500000Y-136200000D03*
%TO.P,C9,2*%
%TO.N,+24V*%
X97500000Y-133250000D03*
%TD*%
D25*
%TO.P,C8,1*%
%TO.N,GND*%
X126116200Y-131996302D03*
%TO.P,C8,2*%
%TO.N,+5V_ZYNQ*%
X123166200Y-131996302D03*
%TD*%
D26*
%TO.P,L2,1,1*%
%TO.N,Net-(U2-SW)*%
X93450000Y-133625000D03*
D27*
%TO.P,L2,2,2*%
%TO.N,+5V*%
X93450000Y-137425000D03*
%TD*%
D28*
%TO.P,C15,1*%
%TO.N,Net-(U2-FB)*%
X102750000Y-138145000D03*
%TO.P,C15,2*%
%TO.N,+5V*%
X102750000Y-139105000D03*
%TD*%
D14*
%TO.P,R8,1*%
%TO.N,Net-(U2-EN)*%
X103500000Y-131385000D03*
%TO.P,R8,2*%
%TO.N,+24V*%
X103500000Y-132405000D03*
%TD*%
D19*
%TO.P,C1,1*%
%TO.N,+5V*%
X95800000Y-150975000D03*
%TO.P,C1,2*%
%TO.N,GND*%
X95800000Y-148025000D03*
%TD*%
D29*
%TO.P,C11,1*%
%TO.N,GND*%
X99150000Y-135155000D03*
%TO.P,C11,2*%
%TO.N,+24V*%
X99150000Y-134195000D03*
%TD*%
D25*
%TO.P,C21,1*%
%TO.N,+24V*%
X79825000Y-147150000D03*
%TO.P,C21,2*%
%TO.N,GND*%
X76875000Y-147150000D03*
%TD*%
D30*
%TO.P,C14,1*%
%TO.N,Net-(U3-BOOT)*%
X103080000Y-125205000D03*
%TO.P,C14,2*%
%TO.N,Net-(U3-SW)*%
X102120000Y-125205000D03*
%TD*%
D14*
%TO.P,R14,1*%
%TO.N,Net-(U3-FB)*%
X103650000Y-126495000D03*
%TO.P,R14,2*%
%TO.N,+3.3V*%
X103650000Y-127515000D03*
%TD*%
D28*
%TO.P,C16,1*%
%TO.N,Net-(U3-FB)*%
X102700000Y-126525000D03*
%TO.P,C16,2*%
%TO.N,+3.3V*%
X102700000Y-127485000D03*
%TD*%
D15*
%TO.P,C26,1*%
%TO.N,+5V*%
X109450000Y-138900000D03*
%TO.P,C26,2*%
%TO.N,GND*%
X109450000Y-133500000D03*
%TD*%
D14*
%TO.P,R10,1*%
%TO.N,Net-(U3-EN)*%
X103450000Y-119765000D03*
%TO.P,R10,2*%
%TO.N,+24V*%
X103450000Y-120785000D03*
%TD*%
D15*
%TO.P,C25,1*%
%TO.N,+3.3V*%
X109450000Y-127350000D03*
%TO.P,C25,2*%
%TO.N,GND*%
X109450000Y-121950000D03*
%TD*%
D31*
%TO.P,C28,1*%
%TO.N,/ZYNQ_24V_BUCK_SUPPLY*%
X128950000Y-141400000D03*
%TO.P,C28,2*%
%TO.N,GND*%
X123550000Y-141400000D03*
%TD*%
D22*
%TO.P,J4,1,1*%
%TO.N,R_25*%
X107348900Y-86249999D03*
%TO.P,J4,2,2*%
%TO.N,GND*%
X107348900Y-86750001D03*
%TO.P,J4,3,3*%
%TO.N,R_26*%
X107348900Y-87250000D03*
%TO.P,J4,4,4*%
%TO.N,GND*%
X107348900Y-87749999D03*
%TO.P,J4,5,5*%
%TO.N,R_27*%
X107348900Y-88250000D03*
%TO.P,J4,6,6*%
%TO.N,GND*%
X107348900Y-88749999D03*
%TO.P,J4,7,7*%
%TO.N,R_28*%
X107348900Y-89250001D03*
%TO.P,J4,8,8*%
%TO.N,GND*%
X107348900Y-89750000D03*
%TO.P,J4,9,9*%
%TO.N,R_29*%
X107348900Y-90249999D03*
%TO.P,J4,10,10*%
%TO.N,GND*%
X107348900Y-90750000D03*
%TO.P,J4,11,11*%
%TO.N,R_30*%
X107348900Y-91249999D03*
%TO.P,J4,12,12*%
%TO.N,GND*%
X107348900Y-91750001D03*
%TO.P,J4,13,13*%
%TO.N,R_31*%
X107348900Y-92250000D03*
%TO.P,J4,14,14*%
%TO.N,GND*%
X107348900Y-92749999D03*
%TO.P,J4,15,15*%
%TO.N,R_32*%
X107348900Y-93250000D03*
%TO.P,J4,16,16*%
%TO.N,GND*%
X107348900Y-93749999D03*
%TO.P,J4,17,17*%
%TO.N,R_33*%
X107348900Y-94250001D03*
%TO.P,J4,18,18*%
%TO.N,GND*%
X107348900Y-94750000D03*
%TO.P,J4,19,19*%
%TO.N,R_34*%
X107348900Y-95249999D03*
%TO.P,J4,20,20*%
%TO.N,GND*%
X107348900Y-95750000D03*
%TO.P,J4,21,21*%
%TO.N,R_35*%
X107348900Y-96249999D03*
%TO.P,J4,22,22*%
%TO.N,GND*%
X107348900Y-96750001D03*
%TO.P,J4,23,23*%
%TO.N,R_36*%
X107348900Y-97250000D03*
%TO.P,J4,24,24*%
%TO.N,GND*%
X107348900Y-97749999D03*
%TO.P,J4,25,25*%
%TO.N,R_37*%
X107348900Y-98250000D03*
%TO.P,J4,26,26*%
%TO.N,GND*%
X107348900Y-98750000D03*
%TO.P,J4,27,27*%
%TO.N,R_38*%
X107348900Y-99249998D03*
%TO.P,J4,28,28*%
%TO.N,GND*%
X107348900Y-99750000D03*
%TO.P,J4,29,29*%
%TO.N,R_39*%
X107348900Y-100249999D03*
%TO.P,J4,30,30*%
%TO.N,GND*%
X107348900Y-100750001D03*
%TO.P,J4,31,31*%
%TO.N,R_40*%
X107348900Y-101250000D03*
%TO.P,J4,32,32*%
%TO.N,GND*%
X107348900Y-101749999D03*
%TO.P,J4,33,33*%
%TO.N,R_41*%
X107348900Y-102250000D03*
%TO.P,J4,34,34*%
%TO.N,GND*%
X107348900Y-102749999D03*
%TO.P,J4,35,35*%
%TO.N,R_42*%
X107348900Y-103250001D03*
%TO.P,J4,36,36*%
%TO.N,GND*%
X107348900Y-103750000D03*
%TO.P,J4,37,37*%
%TO.N,R_43*%
X107348900Y-104249999D03*
%TO.P,J4,38,38*%
%TO.N,GND*%
X107348900Y-104750000D03*
%TO.P,J4,39,39*%
%TO.N,R_44*%
X107348900Y-105249999D03*
%TO.P,J4,40,40*%
%TO.N,GND*%
X107348900Y-105750001D03*
%TO.P,J4,41,41*%
%TO.N,R_45*%
X107348900Y-106250000D03*
%TO.P,J4,42,42*%
%TO.N,GND*%
X107348900Y-106749999D03*
%TO.P,J4,43,43*%
%TO.N,R_46*%
X107348900Y-107250000D03*
%TO.P,J4,44,44*%
%TO.N,GND*%
X107348900Y-107749999D03*
%TO.P,J4,45,45*%
%TO.N,R_47*%
X107348900Y-108250001D03*
%TO.P,J4,46,46*%
%TO.N,GND*%
X107348900Y-108750000D03*
%TO.P,J4,47,47*%
%TO.N,R_48*%
X107348900Y-109249999D03*
%TO.P,J4,48,48*%
%TO.N,GND*%
X107348900Y-109750000D03*
%TO.P,J4,49,49*%
%TO.N,R_49*%
X107348900Y-110249999D03*
%TO.P,J4,50,50*%
%TO.N,GND*%
X107348900Y-110750001D03*
D23*
%TO.P,J4,51*%
%TO.N,N/C*%
X110598902Y-84700002D03*
%TO.P,J4,52*%
X110598902Y-112299998D03*
%TD*%
D30*
%TO.P,C6,1*%
%TO.N,Net-(U1-FB)*%
X125121200Y-134896302D03*
%TO.P,C6,2*%
%TO.N,+5V_ZYNQ*%
X124161200Y-134896302D03*
%TD*%
D15*
%TO.P,C24,1*%
%TO.N,+5V*%
X116550000Y-138900000D03*
%TO.P,C24,2*%
%TO.N,GND*%
X116550000Y-133500000D03*
%TD*%
D24*
%TO.P,C19,1*%
%TO.N,GND*%
X97550000Y-137850000D03*
%TO.P,C19,2*%
%TO.N,+5V*%
X97550000Y-140800000D03*
%TD*%
D32*
%TO.P,D5,1,K*%
%TO.N,+24V*%
X82650000Y-150600000D03*
%TO.P,D5,2,A*%
%TO.N,GND*%
X82650000Y-146600000D03*
%TD*%
D33*
%TO.P,R13,1*%
%TO.N,GND*%
X102590000Y-140725000D03*
%TO.P,R13,2*%
%TO.N,Net-(U2-FB)*%
X103610000Y-140725000D03*
%TD*%
D25*
%TO.P,C7,1*%
%TO.N,GND*%
X125416200Y-129696302D03*
%TO.P,C7,2*%
%TO.N,+5V_ZYNQ*%
X122466200Y-129696302D03*
%TD*%
D29*
%TO.P,C12,1*%
%TO.N,GND*%
X99100000Y-123535000D03*
%TO.P,C12,2*%
%TO.N,+24V*%
X99100000Y-122575000D03*
%TD*%
D34*
%TO.P,U3,1,GND*%
%TO.N,GND*%
X101512500Y-123955000D03*
%TO.P,U3,2,SW*%
%TO.N,Net-(U3-SW)*%
X101512500Y-123005000D03*
%TO.P,U3,3,VIN*%
%TO.N,+24V*%
X101512500Y-122055000D03*
%TO.P,U3,4,FB*%
%TO.N,Net-(U3-FB)*%
X103787500Y-122055000D03*
%TO.P,U3,5,EN*%
%TO.N,Net-(U3-EN)*%
X103787500Y-123005000D03*
%TO.P,U3,6,BOOT*%
%TO.N,Net-(U3-BOOT)*%
X103787500Y-123955000D03*
%TD*%
D22*
%TO.P,J2,1,1*%
%TO.N,R_0*%
X107348900Y-53249999D03*
%TO.P,J2,2,2*%
%TO.N,GND*%
X107348900Y-53750001D03*
%TO.P,J2,3,3*%
%TO.N,R_1*%
X107348900Y-54250000D03*
%TO.P,J2,4,4*%
%TO.N,GND*%
X107348900Y-54749999D03*
%TO.P,J2,5,5*%
%TO.N,R_2*%
X107348900Y-55250000D03*
%TO.P,J2,6,6*%
%TO.N,GND*%
X107348900Y-55749999D03*
%TO.P,J2,7,7*%
%TO.N,R_3*%
X107348900Y-56250001D03*
%TO.P,J2,8,8*%
%TO.N,GND*%
X107348900Y-56750000D03*
%TO.P,J2,9,9*%
%TO.N,R_4*%
X107348900Y-57249999D03*
%TO.P,J2,10,10*%
%TO.N,GND*%
X107348900Y-57750000D03*
%TO.P,J2,11,11*%
%TO.N,R_5*%
X107348900Y-58249999D03*
%TO.P,J2,12,12*%
%TO.N,GND*%
X107348900Y-58750001D03*
%TO.P,J2,13,13*%
%TO.N,R_6*%
X107348900Y-59250000D03*
%TO.P,J2,14,14*%
%TO.N,GND*%
X107348900Y-59749999D03*
%TO.P,J2,15,15*%
%TO.N,R_7*%
X107348900Y-60250000D03*
%TO.P,J2,16,16*%
%TO.N,GND*%
X107348900Y-60749999D03*
%TO.P,J2,17,17*%
%TO.N,R_8*%
X107348900Y-61250001D03*
%TO.P,J2,18,18*%
%TO.N,GND*%
X107348900Y-61750000D03*
%TO.P,J2,19,19*%
%TO.N,R_9*%
X107348900Y-62249999D03*
%TO.P,J2,20,20*%
%TO.N,GND*%
X107348900Y-62750000D03*
%TO.P,J2,21,21*%
%TO.N,R_10*%
X107348900Y-63249999D03*
%TO.P,J2,22,22*%
%TO.N,GND*%
X107348900Y-63750001D03*
%TO.P,J2,23,23*%
%TO.N,R_11*%
X107348900Y-64250000D03*
%TO.P,J2,24,24*%
%TO.N,GND*%
X107348900Y-64749999D03*
%TO.P,J2,25,25*%
%TO.N,R_12*%
X107348900Y-65250000D03*
%TO.P,J2,26,26*%
%TO.N,GND*%
X107348900Y-65750000D03*
%TO.P,J2,27,27*%
%TO.N,R_13*%
X107348900Y-66249998D03*
%TO.P,J2,28,28*%
%TO.N,GND*%
X107348900Y-66750000D03*
%TO.P,J2,29,29*%
%TO.N,R_14*%
X107348900Y-67249999D03*
%TO.P,J2,30,30*%
%TO.N,GND*%
X107348900Y-67750001D03*
%TO.P,J2,31,31*%
%TO.N,R_15*%
X107348900Y-68250000D03*
%TO.P,J2,32,32*%
%TO.N,GND*%
X107348900Y-68749999D03*
%TO.P,J2,33,33*%
%TO.N,R_16*%
X107348900Y-69250000D03*
%TO.P,J2,34,34*%
%TO.N,GND*%
X107348900Y-69749999D03*
%TO.P,J2,35,35*%
%TO.N,R_17*%
X107348900Y-70250001D03*
%TO.P,J2,36,36*%
%TO.N,GND*%
X107348900Y-70750000D03*
%TO.P,J2,37,37*%
%TO.N,R_18*%
X107348900Y-71249999D03*
%TO.P,J2,38,38*%
%TO.N,GND*%
X107348900Y-71750000D03*
%TO.P,J2,39,39*%
%TO.N,R_19*%
X107348900Y-72249999D03*
%TO.P,J2,40,40*%
%TO.N,GND*%
X107348900Y-72750001D03*
%TO.P,J2,41,41*%
%TO.N,R_20*%
X107348900Y-73250000D03*
%TO.P,J2,42,42*%
%TO.N,GND*%
X107348900Y-73749999D03*
%TO.P,J2,43,43*%
%TO.N,R_21*%
X107348900Y-74250000D03*
%TO.P,J2,44,44*%
%TO.N,GND*%
X107348900Y-74749999D03*
%TO.P,J2,45,45*%
%TO.N,R_22*%
X107348900Y-75250001D03*
%TO.P,J2,46,46*%
%TO.N,GND*%
X107348900Y-75750000D03*
%TO.P,J2,47,47*%
%TO.N,R_23*%
X107348900Y-76249999D03*
%TO.P,J2,48,48*%
%TO.N,GND*%
X107348900Y-76750000D03*
%TO.P,J2,49,49*%
%TO.N,R_24*%
X107348900Y-77249999D03*
%TO.P,J2,50,50*%
%TO.N,GND*%
X107348900Y-77750001D03*
D23*
%TO.P,J2,51*%
%TO.N,N/C*%
X110598902Y-51700002D03*
%TO.P,J2,52*%
X110598902Y-79299998D03*
%TD*%
D31*
%TO.P,C23,1*%
%TO.N,+24V*%
X87750000Y-127650000D03*
%TO.P,C23,2*%
%TO.N,GND*%
X82350000Y-127650000D03*
%TD*%
D34*
%TO.P,U2,1,GND*%
%TO.N,GND*%
X101562500Y-135575000D03*
%TO.P,U2,2,SW*%
%TO.N,Net-(U2-SW)*%
X101562500Y-134625000D03*
%TO.P,U2,3,VIN*%
%TO.N,+24V*%
X101562500Y-133675000D03*
%TO.P,U2,4,FB*%
%TO.N,Net-(U2-FB)*%
X103837500Y-133675000D03*
%TO.P,U2,5,EN*%
%TO.N,Net-(U2-EN)*%
X103837500Y-134625000D03*
%TO.P,U2,6,BOOT*%
%TO.N,Net-(U2-BOOT)*%
X103837500Y-135575000D03*
%TD*%
D14*
%TO.P,R9,1*%
%TO.N,GND*%
X104500000Y-131385000D03*
%TO.P,R9,2*%
%TO.N,Net-(U2-EN)*%
X104500000Y-132405000D03*
%TD*%
D21*
%TO.P,R3,1*%
%TO.N,GND*%
X131881200Y-136646302D03*
%TO.P,R3,2*%
%TO.N,Net-(U1-EN)*%
X130861200Y-136646302D03*
%TD*%
D33*
%TO.P,R15,1*%
%TO.N,GND*%
X102540000Y-129105000D03*
%TO.P,R15,2*%
%TO.N,Net-(U3-FB)*%
X103560000Y-129105000D03*
%TD*%
D24*
%TO.P,C18,1*%
%TO.N,GND*%
X99800000Y-125530000D03*
%TO.P,C18,2*%
%TO.N,+3.3V*%
X99800000Y-128480000D03*
%TD*%
D35*
%TO.P,C4,1*%
%TO.N,GND*%
X128111200Y-131296302D03*
%TO.P,C4,2*%
%TO.N,/ZYNQ_24V_BUCK_SUPPLY*%
X129071200Y-131296302D03*
%TD*%
D24*
%TO.P,C17,1*%
%TO.N,GND*%
X99850000Y-137150000D03*
%TO.P,C17,2*%
%TO.N,+5V*%
X99850000Y-140100000D03*
%TD*%
D32*
%TO.P,D6,1,K*%
%TO.N,+24V*%
X86250000Y-150600000D03*
%TO.P,D6,2,A*%
%TO.N,GND*%
X86250000Y-146600000D03*
%TD*%
D26*
%TO.P,L3,1,1*%
%TO.N,Net-(U3-SW)*%
X93400000Y-122005000D03*
D27*
%TO.P,L3,2,2*%
%TO.N,+3.3V*%
X93400000Y-125805000D03*
%TD*%
D36*
%TO.P,C3,1*%
%TO.N,GND*%
X127066200Y-129646302D03*
%TO.P,C3,2*%
%TO.N,/ZYNQ_24V_BUCK_SUPPLY*%
X130016200Y-129646302D03*
%TD*%
D29*
%TO.P,C5,1*%
%TO.N,Net-(U1-BOOT)*%
X126441200Y-135276302D03*
%TO.P,C5,2*%
%TO.N,Net-(U1-SW)*%
X126441200Y-134316302D03*
%TD*%
D31*
%TO.P,C22,1*%
%TO.N,+24V*%
X87750000Y-135050000D03*
%TO.P,C22,2*%
%TO.N,GND*%
X82350000Y-135050000D03*
%TD*%
D30*
%TO.P,C13,1*%
%TO.N,Net-(U2-BOOT)*%
X103130000Y-136825000D03*
%TO.P,C13,2*%
%TO.N,Net-(U2-SW)*%
X102170000Y-136825000D03*
%TD*%
D37*
%TO.P,U1,1,GND*%
%TO.N,GND*%
X127691200Y-133708802D03*
%TO.P,U1,2,SW*%
%TO.N,Net-(U1-SW)*%
X128641200Y-133708802D03*
%TO.P,U1,3,VIN*%
%TO.N,/ZYNQ_24V_BUCK_SUPPLY*%
X129591200Y-133708802D03*
%TO.P,U1,4,FB*%
%TO.N,Net-(U1-FB)*%
X129591200Y-135983802D03*
%TO.P,U1,5,EN*%
%TO.N,Net-(U1-EN)*%
X128641200Y-135983802D03*
%TO.P,U1,6,BOOT*%
%TO.N,Net-(U1-BOOT)*%
X127691200Y-135983802D03*
%TD*%
D22*
%TO.P,J3,1,1*%
%TO.N,GND*%
X89348900Y-86249999D03*
%TO.P,J3,2,2*%
%TO.N,L_25*%
X89348900Y-86750001D03*
%TO.P,J3,3,3*%
%TO.N,GND*%
X89348900Y-87250000D03*
%TO.P,J3,4,4*%
%TO.N,L_26*%
X89348900Y-87749999D03*
%TO.P,J3,5,5*%
%TO.N,GND*%
X89348900Y-88250000D03*
%TO.P,J3,6,6*%
%TO.N,L_27*%
X89348900Y-88749999D03*
%TO.P,J3,7,7*%
%TO.N,GND*%
X89348900Y-89250001D03*
%TO.P,J3,8,8*%
%TO.N,L_28*%
X89348900Y-89750000D03*
%TO.P,J3,9,9*%
%TO.N,GND*%
X89348900Y-90249999D03*
%TO.P,J3,10,10*%
%TO.N,L_29*%
X89348900Y-90750000D03*
%TO.P,J3,11,11*%
%TO.N,GND*%
X89348900Y-91249999D03*
%TO.P,J3,12,12*%
%TO.N,L_30*%
X89348900Y-91750001D03*
%TO.P,J3,13,13*%
%TO.N,GND*%
X89348900Y-92250000D03*
%TO.P,J3,14,14*%
%TO.N,L_31*%
X89348900Y-92749999D03*
%TO.P,J3,15,15*%
%TO.N,GND*%
X89348900Y-93250000D03*
%TO.P,J3,16,16*%
%TO.N,L_32*%
X89348900Y-93749999D03*
%TO.P,J3,17,17*%
%TO.N,GND*%
X89348900Y-94250001D03*
%TO.P,J3,18,18*%
%TO.N,L_33*%
X89348900Y-94750000D03*
%TO.P,J3,19,19*%
%TO.N,GND*%
X89348900Y-95249999D03*
%TO.P,J3,20,20*%
%TO.N,L_34*%
X89348900Y-95750000D03*
%TO.P,J3,21,21*%
%TO.N,GND*%
X89348900Y-96249999D03*
%TO.P,J3,22,22*%
%TO.N,L_35*%
X89348900Y-96750001D03*
%TO.P,J3,23,23*%
%TO.N,GND*%
X89348900Y-97250000D03*
%TO.P,J3,24,24*%
%TO.N,L_36*%
X89348900Y-97749999D03*
%TO.P,J3,25,25*%
%TO.N,GND*%
X89348900Y-98250000D03*
%TO.P,J3,26,26*%
%TO.N,L_37*%
X89348900Y-98750000D03*
%TO.P,J3,27,27*%
%TO.N,GND*%
X89348900Y-99249998D03*
%TO.P,J3,28,28*%
%TO.N,L_38*%
X89348900Y-99750000D03*
%TO.P,J3,29,29*%
%TO.N,GND*%
X89348900Y-100249999D03*
%TO.P,J3,30,30*%
%TO.N,L_39*%
X89348900Y-100750001D03*
%TO.P,J3,31,31*%
%TO.N,GND*%
X89348900Y-101250000D03*
%TO.P,J3,32,32*%
%TO.N,L_40*%
X89348900Y-101749999D03*
%TO.P,J3,33,33*%
%TO.N,GND*%
X89348900Y-102250000D03*
%TO.P,J3,34,34*%
%TO.N,L_41*%
X89348900Y-102749999D03*
%TO.P,J3,35,35*%
%TO.N,GND*%
X89348900Y-103250001D03*
%TO.P,J3,36,36*%
%TO.N,L_42*%
X89348900Y-103750000D03*
%TO.P,J3,37,37*%
%TO.N,GND*%
X89348900Y-104249999D03*
%TO.P,J3,38,38*%
%TO.N,L_43*%
X89348900Y-104750000D03*
%TO.P,J3,39,39*%
%TO.N,GND*%
X89348900Y-105249999D03*
%TO.P,J3,40,40*%
%TO.N,L_44*%
X89348900Y-105750001D03*
%TO.P,J3,41,41*%
%TO.N,GND*%
X89348900Y-106250000D03*
%TO.P,J3,42,42*%
%TO.N,L_45*%
X89348900Y-106749999D03*
%TO.P,J3,43,43*%
%TO.N,GND*%
X89348900Y-107250000D03*
%TO.P,J3,44,44*%
%TO.N,L_46*%
X89348900Y-107749999D03*
%TO.P,J3,45,45*%
%TO.N,GND*%
X89348900Y-108250001D03*
%TO.P,J3,46,46*%
%TO.N,L_47*%
X89348900Y-108750000D03*
%TO.P,J3,47,47*%
%TO.N,GND*%
X89348900Y-109249999D03*
%TO.P,J3,48,48*%
%TO.N,L_48*%
X89348900Y-109750000D03*
%TO.P,J3,49,49*%
%TO.N,GND*%
X89348900Y-110249999D03*
%TO.P,J3,50,50*%
%TO.N,L_49*%
X89348900Y-110750001D03*
D23*
%TO.P,J3,51*%
%TO.N,N/C*%
X92598902Y-84700002D03*
%TO.P,J3,52*%
X92598902Y-112299998D03*
%TD*%
D38*
%TO.N,L_23*%
X79350000Y-91550000D03*
%TO.N,L_33*%
X75050000Y-100450000D03*
%TO.N,L_24*%
X78750000Y-92900000D03*
%TO.N,L_35*%
X75050000Y-102000000D03*
%TO.N,L_38*%
X78750000Y-103900000D03*
%TO.N,L_25*%
X75050000Y-94150000D03*
%TO.N,L_8*%
X74800000Y-78250000D03*
%TO.N,L_49*%
X75050000Y-112150000D03*
%TO.N,L_5*%
X78650000Y-76150000D03*
%TO.N,LED_G*%
X73000000Y-61393781D03*
X71300000Y-90900000D03*
%TO.N,GND*%
X106249450Y-103749999D03*
X106249450Y-71749999D03*
X125250000Y-142600000D03*
X106249450Y-68749999D03*
X90450000Y-109250000D03*
X131650000Y-92200000D03*
X106249450Y-96749999D03*
X90450000Y-75250000D03*
X124350000Y-66750000D03*
X80700000Y-133850000D03*
X106275001Y-125150002D03*
X106249450Y-102749999D03*
X105250000Y-119775000D03*
X124400000Y-97250000D03*
X106249450Y-65749999D03*
X131750000Y-111250000D03*
X71250000Y-68050000D03*
X73050000Y-130300000D03*
X84050000Y-133850000D03*
X106249450Y-59749999D03*
X106249450Y-60749999D03*
X106249450Y-76749999D03*
X90450000Y-98250000D03*
X82300000Y-126450000D03*
X115350000Y-131800000D03*
X90450000Y-58250000D03*
X106249450Y-87749999D03*
X90450000Y-71250000D03*
X90450000Y-104250000D03*
X110650000Y-123600000D03*
X90450000Y-94250000D03*
X106249450Y-56749999D03*
X71300000Y-93450000D03*
X115350000Y-123600000D03*
X80700000Y-136250000D03*
X106249450Y-109749999D03*
X90450000Y-91250000D03*
X99100000Y-127305000D03*
X123600000Y-142600000D03*
X106275001Y-135650002D03*
X106249450Y-58749999D03*
X124341200Y-131908802D03*
X106275001Y-131150002D03*
X106249450Y-63749999D03*
X106249450Y-95749999D03*
X90450000Y-96250000D03*
X131450000Y-137400000D03*
X90450000Y-63250000D03*
X115350000Y-120250000D03*
X106250000Y-138150000D03*
X82350000Y-136250000D03*
X106249450Y-99749999D03*
X124300000Y-90850000D03*
X117750000Y-131800000D03*
X131700000Y-79500000D03*
X110600000Y-135150000D03*
X82300000Y-128850000D03*
X106249450Y-62749999D03*
X90450000Y-95250000D03*
X125041200Y-132958802D03*
X125041200Y-132358802D03*
X124300000Y-103550000D03*
X106250000Y-132150000D03*
X90450000Y-69250000D03*
X106249450Y-61749999D03*
X99150000Y-138925000D03*
X90450000Y-73250000D03*
X90450000Y-86250000D03*
X80650000Y-128850000D03*
X115350000Y-135150000D03*
X90450000Y-68250000D03*
X73050000Y-123100000D03*
X84000000Y-128850000D03*
X106249450Y-92749999D03*
X106249450Y-100749999D03*
X106249450Y-108749999D03*
X102603909Y-140028909D03*
X117750000Y-133500000D03*
X90361179Y-77424506D03*
X90450000Y-110250000D03*
X124250000Y-109950000D03*
X90450000Y-65250000D03*
X100200000Y-138225000D03*
X106249450Y-107749999D03*
X71300000Y-99800000D03*
X71300000Y-108700000D03*
X90450000Y-60250000D03*
X100150000Y-126605000D03*
X106249450Y-72749999D03*
X106249450Y-54749999D03*
X106249450Y-105749999D03*
X123250000Y-134750000D03*
X115350000Y-121950000D03*
X90450000Y-89250000D03*
X90450000Y-70250000D03*
X90450000Y-62250000D03*
X124341200Y-130108802D03*
X100750000Y-126605000D03*
X131650000Y-104850000D03*
X106250000Y-137650000D03*
X106249450Y-77749999D03*
X96750000Y-138925000D03*
X106249450Y-90749999D03*
X97350000Y-138925000D03*
X99550000Y-126605000D03*
X106249450Y-106749999D03*
X90450000Y-55250000D03*
X82350000Y-133850000D03*
X106250000Y-139150000D03*
X90450000Y-102250000D03*
X123600000Y-140200000D03*
X106250000Y-137150000D03*
X106250000Y-132650000D03*
X106249450Y-98749999D03*
X90450000Y-72250000D03*
X106249450Y-94749999D03*
X90450000Y-56250000D03*
X90450000Y-105250000D03*
X71300000Y-87100000D03*
X90450000Y-100250000D03*
X106250000Y-126650000D03*
X90450000Y-88250000D03*
X90450000Y-74250000D03*
X71250000Y-66800000D03*
X106249450Y-67749999D03*
X90450000Y-99250000D03*
X98550000Y-138925000D03*
X90450000Y-107250000D03*
X90450000Y-92250000D03*
X124341200Y-128908802D03*
X110600000Y-133500000D03*
X74000000Y-129000000D03*
X106249450Y-91749999D03*
X124200000Y-116300000D03*
X124350000Y-84450000D03*
X106249450Y-101749999D03*
X117750000Y-135150000D03*
X131650000Y-85850000D03*
X75350000Y-81400000D03*
X90450000Y-64250000D03*
X90450000Y-59250000D03*
X106249450Y-53749999D03*
X106249450Y-55749999D03*
X106275001Y-124150002D03*
X105300000Y-131395000D03*
X97300000Y-127305000D03*
X96700000Y-127305000D03*
X124350000Y-78200000D03*
X90450000Y-57250000D03*
X121900000Y-140200000D03*
X106250000Y-127650000D03*
X97950000Y-138925000D03*
X125041200Y-131158802D03*
X106250000Y-125650000D03*
X106249450Y-89749999D03*
X106275001Y-130650002D03*
X117750000Y-121950000D03*
X74000000Y-135950000D03*
X117750000Y-120250000D03*
X106250000Y-138650000D03*
X106249450Y-110749999D03*
X124341200Y-130708802D03*
X106249450Y-104749999D03*
X124341200Y-131308802D03*
X90450000Y-61250000D03*
X90450000Y-108250000D03*
X97900000Y-127305000D03*
X84000000Y-126450000D03*
X110650000Y-120250000D03*
X110600000Y-131800000D03*
X106249450Y-69749999D03*
X106275001Y-136650002D03*
X80650000Y-126450000D03*
X75200000Y-87600000D03*
X90450000Y-53250000D03*
X106249450Y-88749999D03*
X90450000Y-106250000D03*
X117750000Y-123600000D03*
X73000000Y-136900000D03*
X106249450Y-75749999D03*
X71300000Y-80750000D03*
X90450000Y-93250000D03*
X90450000Y-67250000D03*
X78700000Y-108700000D03*
X110650000Y-121950000D03*
X90450000Y-101250000D03*
X125041200Y-131758802D03*
X90450000Y-87250000D03*
X84050000Y-136250000D03*
X99750000Y-138925000D03*
X106249450Y-73749999D03*
X106250000Y-127150000D03*
X121900000Y-142600000D03*
X106249450Y-86749999D03*
X106249450Y-74749999D03*
X98500000Y-127305000D03*
X99600000Y-138225000D03*
X106275001Y-131650002D03*
X100800000Y-138225000D03*
X106249450Y-97749999D03*
X106249450Y-70749999D03*
X124350000Y-68050000D03*
X90450000Y-66250000D03*
X106249450Y-64749999D03*
X90450000Y-90250000D03*
X124341200Y-129508802D03*
X90450000Y-54250000D03*
X99000000Y-138225000D03*
X106249450Y-57749999D03*
X106249450Y-93749999D03*
X99700000Y-127305000D03*
X106249450Y-66749999D03*
X106275001Y-136150002D03*
X98950000Y-126605000D03*
X125250000Y-140200000D03*
X115350000Y-133500000D03*
X106275001Y-124650002D03*
X90450000Y-103250000D03*
X106250000Y-126150000D03*
X90448558Y-76200230D03*
X101957857Y-129115779D03*
X90450000Y-97250000D03*
%TO.N,L_12*%
X74850000Y-82000000D03*
%TO.N,+5V_ZYNQ*%
X123491200Y-133508802D03*
X121991200Y-132308802D03*
X122891200Y-133508802D03*
X121991200Y-131108802D03*
X121991200Y-132958802D03*
X122291200Y-133508802D03*
X121991200Y-131708802D03*
%TO.N,LED_B*%
X73550000Y-63350000D03*
X71350000Y-92150000D03*
%TO.N,R_49*%
X80550000Y-113500000D03*
%TO.N,L_37*%
X75100000Y-103350000D03*
%TO.N,L_44*%
X78800000Y-107700000D03*
%TO.N,L_28*%
X79005636Y-95755636D03*
%TO.N,L_18*%
X74950000Y-86000000D03*
%TO.N,L_39*%
X75100000Y-104500000D03*
%TO.N,LED_R*%
X74400000Y-60900000D03*
X75050000Y-90900000D03*
%TO.N,L_48*%
X78850000Y-111400000D03*
%TO.N,L_4*%
X74800000Y-75700000D03*
%TO.N,L_34*%
X78650000Y-100900000D03*
%TO.N,L_1*%
X78650000Y-71850000D03*
%TO.N,L_36*%
X78650000Y-102550000D03*
%TO.N,L_3*%
X78650000Y-74400000D03*
%TO.N,L_45*%
X75050000Y-109550000D03*
%TO.N,L_42*%
X78800000Y-106500000D03*
%TO.N,L_29*%
X75050000Y-97100000D03*
%TO.N,L_20*%
X74950000Y-88400000D03*
%TO.N,L_11*%
X78792372Y-80744915D03*
%TO.N,L_10*%
X74850000Y-79550000D03*
%TO.N,R_48*%
X78850000Y-112700000D03*
%TO.N,L_9*%
X78700000Y-79400000D03*
%TO.N,L_30*%
X78900000Y-97750000D03*
%TO.N,L_13*%
X78850000Y-82650000D03*
%TO.N,L_16*%
X75000000Y-84800000D03*
%TO.N,L_43*%
X75000000Y-107150000D03*
%TO.N,L_15*%
X78850000Y-84300000D03*
%TO.N,L_2*%
X78650000Y-73140000D03*
%TO.N,L_7*%
X78700000Y-77850000D03*
%TO.N,L_0*%
X75150000Y-70000000D03*
%TO.N,L_27*%
X75050000Y-95750000D03*
%TO.N,L_6*%
X74800000Y-76950000D03*
%TO.N,L_47*%
X75050000Y-110850000D03*
%TO.N,L_19*%
X79000000Y-87050000D03*
%TO.N,L_17*%
X78850000Y-85700000D03*
%TO.N,L_22*%
X75000000Y-89700000D03*
%TO.N,L_40*%
X78800000Y-105050000D03*
%TO.N,L_32*%
X78900000Y-99450000D03*
%TO.N,L_41*%
X75075000Y-106025000D03*
%TO.N,L_46*%
X78850000Y-110100000D03*
%TO.N,L_21*%
X78900000Y-88900000D03*
%TO.N,L_26*%
X78802818Y-94402818D03*
%TO.N,L_14*%
X75000000Y-83700000D03*
%TO.N,L_31*%
X75100000Y-98500000D03*
%TO.N,R_4*%
X124143596Y-81944357D03*
%TO.N,R_30*%
X124168496Y-102200000D03*
%TO.N,R_42*%
X124200000Y-112400000D03*
%TO.N,R_25*%
X127900000Y-99150000D03*
%TO.N,R_11*%
X127900000Y-87750000D03*
%TO.N,R_16*%
X124300000Y-91750000D03*
%TO.N,R_21*%
X127900000Y-95350000D03*
%TO.N,R_45*%
X127950000Y-114400000D03*
%TO.N,R_15*%
X127850000Y-90250000D03*
%TO.N,R_35*%
X127950000Y-106800000D03*
%TO.N,R_41*%
X127950000Y-111850000D03*
%TO.N,R_0*%
X128050000Y-78650000D03*
%TO.N,R_10*%
X124150000Y-86900000D03*
%TO.N,R_28*%
X124130222Y-100946641D03*
%TO.N,R_1*%
X128100000Y-80400000D03*
%TO.N,R_14*%
X124200000Y-89600000D03*
%TO.N,R_39*%
X127950000Y-109300000D03*
%TO.N,R_37*%
X127950000Y-108050000D03*
%TO.N,R_18*%
X124245273Y-93347271D03*
%TO.N,R_19*%
X127900000Y-94050000D03*
%TO.N,R_7*%
X128000000Y-83950000D03*
%TO.N,R_32*%
X124250000Y-104450000D03*
%TO.N,R_47*%
X127950000Y-115650000D03*
%TO.N,R_3*%
X128000000Y-81400000D03*
%TO.N,R_40*%
X124250000Y-111100000D03*
%TO.N,R_26*%
X124122182Y-99427818D03*
%TO.N,R_9*%
X127900000Y-86450000D03*
%TO.N,R_2*%
X124250000Y-80650000D03*
%TO.N,R_29*%
X127900000Y-101650000D03*
%TO.N,R_8*%
X124050000Y-85100000D03*
%TO.N,R_36*%
X124200000Y-107350000D03*
%TO.N,R_17*%
X127900000Y-92800000D03*
%TO.N,R_23*%
X127900000Y-96600000D03*
%TO.N,R_46*%
X124200000Y-114950000D03*
%TO.N,R_38*%
X124200000Y-108600000D03*
%TO.N,R_33*%
X127900000Y-105500000D03*
%TO.N,R_43*%
X127950000Y-113100000D03*
%TO.N,R_24*%
X124375000Y-98125000D03*
%TO.N,R_5*%
X127950000Y-82650000D03*
%TO.N,R_34*%
X124200000Y-106000000D03*
%TO.N,R_6*%
X124200000Y-83200000D03*
%TO.N,R_20*%
X124250000Y-94600000D03*
%TO.N,R_27*%
X127900000Y-100450000D03*
%TO.N,R_22*%
X124200000Y-95900000D03*
%TO.N,R_44*%
X124200000Y-113700000D03*
%TO.N,R_12*%
X124145273Y-88297271D03*
%TO.N,R_31*%
X127900000Y-102950000D03*
%TO.N,R_13*%
X127850000Y-89050000D03*
%TO.N,+24V*%
X106300000Y-122200000D03*
X106300000Y-141700000D03*
X100200000Y-131500000D03*
X106300000Y-121200000D03*
X86050000Y-128850000D03*
X106300000Y-119700000D03*
X106300000Y-142700000D03*
X84600000Y-152600000D03*
X82000000Y-152600000D03*
X106300000Y-143200000D03*
X98200000Y-119850000D03*
X98500000Y-120450000D03*
X96900000Y-119850000D03*
X87200000Y-152600000D03*
X86550000Y-152600000D03*
X106300000Y-141200000D03*
X97550000Y-119850000D03*
X106300000Y-140200000D03*
X98550000Y-132100000D03*
X100150000Y-119850000D03*
X106300000Y-122700000D03*
X97850000Y-120450000D03*
X81350000Y-152600000D03*
X87750000Y-136250000D03*
X106300000Y-142200000D03*
X106300000Y-121700000D03*
X106300000Y-143700000D03*
X89400000Y-128850000D03*
X97900000Y-132100000D03*
X83950000Y-152600000D03*
X87850000Y-152600000D03*
X99500000Y-119850000D03*
X96950000Y-131500000D03*
X106300000Y-120700000D03*
X80700000Y-152600000D03*
X106300000Y-140700000D03*
X89400000Y-126450000D03*
X98900000Y-131500000D03*
X97200000Y-120450000D03*
X89450000Y-136250000D03*
X106300000Y-119200000D03*
X97600000Y-131500000D03*
X85900000Y-152600000D03*
X85250000Y-152600000D03*
X89450000Y-133850000D03*
X98250000Y-131500000D03*
X106300000Y-120200000D03*
X99550000Y-131500000D03*
X87700000Y-126450000D03*
X87700000Y-128850000D03*
X86100000Y-133850000D03*
X86050000Y-126450000D03*
X83300000Y-152600000D03*
X98850000Y-119850000D03*
X86100000Y-136250000D03*
X97250000Y-132100000D03*
X106300000Y-123200000D03*
X82650000Y-152600000D03*
X87750000Y-133850000D03*
X72700000Y-136200000D03*
%TO.N,+5V*%
X108700000Y-135950000D03*
X110000000Y-135950000D03*
X110000000Y-136600000D03*
X109350000Y-135950000D03*
X108700000Y-136600000D03*
X109350000Y-136600000D03*
X91150000Y-140150000D03*
%TO.N,+3.3V*%
X108650000Y-129700000D03*
X109300000Y-129700000D03*
X111250000Y-129700000D03*
X91000000Y-129800000D03*
X110900000Y-126950000D03*
X109950000Y-129700000D03*
X110900000Y-129050000D03*
X110600000Y-129700000D03*
X110900000Y-127650000D03*
X110900000Y-128350000D03*
%TO.N,Net-(U1-SW)*%
X128891200Y-132250000D03*
X128091200Y-123608802D03*
X128391200Y-132250000D03*
X128091200Y-128108802D03*
X128091200Y-124608802D03*
X128091200Y-124108802D03*
X128091200Y-126608802D03*
X128894545Y-132758802D03*
X128091200Y-125108802D03*
X128391200Y-132750000D03*
X128091200Y-126108802D03*
X125841200Y-134308802D03*
X128091200Y-127608802D03*
X128091200Y-125608802D03*
X128091200Y-123108802D03*
X128091200Y-127108802D03*
%TO.N,Net-(U1-FB)*%
X126491200Y-136458802D03*
X129571200Y-137058802D03*
%TO.N,Net-(U2-SW)*%
X93450000Y-135175000D03*
X91450000Y-135175000D03*
X92450000Y-135175000D03*
X100091198Y-134875000D03*
X90950000Y-135175000D03*
X93950000Y-135175000D03*
X95950000Y-135175000D03*
X95450000Y-135175000D03*
X92950000Y-135175000D03*
X100591198Y-134875000D03*
X102150000Y-137425000D03*
X100600000Y-134371655D03*
X94950000Y-135175000D03*
X91950000Y-135175000D03*
X100091198Y-134375000D03*
X94450000Y-135175000D03*
%TO.N,Net-(U3-SW)*%
X100541198Y-123255000D03*
X92400000Y-123555000D03*
X100041198Y-123255000D03*
X91900000Y-123555000D03*
X102100000Y-125805000D03*
X90900000Y-123555000D03*
X95400000Y-123555000D03*
X100041198Y-122755000D03*
X94900000Y-123555000D03*
X94400000Y-123555000D03*
X95900000Y-123555000D03*
X92900000Y-123555000D03*
X93900000Y-123555000D03*
X100550000Y-122751655D03*
X91400000Y-123555000D03*
X93400000Y-123555000D03*
%TO.N,Net-(U2-FB)*%
X104900000Y-133695000D03*
X104300000Y-136775000D03*
%TO.N,Net-(U3-FB)*%
X104250000Y-125155000D03*
X104850000Y-122075000D03*
%TO.N,POWER_FAIL*%
X127950000Y-73150000D03*
X132400000Y-76250000D03*
%TO.N,POWER_OFF*%
X127950000Y-74450000D03*
X131796446Y-75653554D03*
%TO.N,POWER_AUX_0*%
X131850000Y-76950000D03*
X133500000Y-78050000D03*
%TO.N,POWER_AUX_1*%
X131950000Y-78300000D03*
%TD*%
D39*
%TO.N,L_23*%
X79350000Y-90800000D02*
X90911179Y-79238821D01*
X79350000Y-90800000D02*
X79350000Y-91550000D01*
X89348900Y-76750000D02*
X90464491Y-76750000D01*
X90911179Y-77196688D02*
X90911179Y-79238821D01*
X90464491Y-76750000D02*
X90911179Y-77196688D01*
%TO.N,L_33*%
X84500000Y-94750000D02*
X79250000Y-100000000D01*
X84500000Y-94750000D02*
X89348900Y-94750000D01*
X79250000Y-100000000D02*
X75500000Y-100000000D01*
X75500000Y-100000000D02*
X75050000Y-100450000D01*
%TO.N,L_24*%
X88600000Y-78498901D02*
X88600000Y-80850000D01*
X78750000Y-90700000D02*
X88600000Y-80850000D01*
X89348900Y-77750001D02*
X88600000Y-78498901D01*
X78750000Y-90700000D02*
X78750000Y-92900000D01*
%TO.N,L_35*%
X78900000Y-102000000D02*
X75050000Y-102000000D01*
X84149999Y-96750001D02*
X78900000Y-102000000D01*
X89348900Y-96750001D02*
X84149999Y-96750001D01*
%TO.N,L_38*%
X89348900Y-99750000D02*
X83700000Y-99750000D01*
X79550000Y-103900000D02*
X83700000Y-99750000D01*
X79550000Y-103900000D02*
X78750000Y-103900000D01*
%TO.N,L_25*%
X85725419Y-86702399D02*
X78277818Y-94150000D01*
X78277818Y-94150000D02*
X75050000Y-94150000D01*
X89302399Y-86702399D02*
X85725419Y-86702399D01*
%TO.N,L_8*%
X81900000Y-68349599D02*
X81900000Y-75427818D01*
X81900000Y-75427818D02*
X78777818Y-78550000D01*
X89348900Y-61750000D02*
X88499599Y-61750000D01*
X78777818Y-78550000D02*
X75100000Y-78550000D01*
X88499599Y-61750000D02*
X81900000Y-68349599D01*
X75100000Y-78550000D02*
X74800000Y-78250000D01*
%TO.N,L_49*%
X80750000Y-112150000D02*
X75050000Y-112150000D01*
X80750000Y-112150000D02*
X82150000Y-110750000D01*
X89348900Y-110750001D02*
X82150000Y-110750000D01*
%TO.N,L_5*%
X80550000Y-74250000D02*
X80550000Y-66699600D01*
X88499599Y-58750001D02*
X89348900Y-58750001D01*
X78650000Y-76150000D02*
X80550000Y-74250000D01*
X80550000Y-66699600D02*
X88499599Y-58750001D01*
%TO.N,LED_G*%
X73000888Y-89199112D02*
X71300000Y-90900000D01*
X73000888Y-61394669D02*
X73000888Y-89199112D01*
X73000000Y-61393781D02*
X73000888Y-61394669D01*
%TO.N,GND*%
X89348900Y-61249999D02*
X90450000Y-61250000D01*
X89348900Y-54250000D02*
X90450000Y-54250000D01*
X107350550Y-70749999D02*
X106249450Y-70749999D01*
X89348900Y-55249999D02*
X90450000Y-55250000D01*
X107350550Y-94750000D02*
X106249450Y-94749999D01*
X105290000Y-131385000D02*
X105300000Y-131395000D01*
X89348900Y-88249999D02*
X90450000Y-88250000D01*
X89348900Y-98249999D02*
X90450000Y-98250000D01*
X107350550Y-58749999D02*
X106249450Y-58749999D01*
X107350550Y-109749999D02*
X106249450Y-109749999D01*
X89348900Y-60250000D02*
X90450000Y-60250000D01*
X89348900Y-67249999D02*
X90450000Y-67250000D01*
X107350550Y-57750000D02*
X106249450Y-57749999D01*
X89348900Y-69249999D02*
X90450000Y-69250000D01*
X101968636Y-129105000D02*
X101957857Y-129115779D01*
X89348900Y-108250001D02*
X90450000Y-108250000D01*
X107350550Y-69750000D02*
X106249450Y-69749999D01*
X90449999Y-109249999D02*
X89348900Y-109249999D01*
X89348900Y-96249999D02*
X90450000Y-96250000D01*
X89348900Y-87250000D02*
X90450000Y-87250000D01*
X107350550Y-96750000D02*
X106249450Y-96749999D01*
D40*
X96350000Y-148025000D02*
X93260000Y-148025000D01*
D39*
X123250000Y-134750000D02*
X122542398Y-134750000D01*
X107350550Y-103749999D02*
X106249450Y-103749999D01*
X89348900Y-95250000D02*
X90450000Y-95250000D01*
X106249450Y-87749999D02*
X106249451Y-87750000D01*
X106249451Y-53750000D02*
X107350550Y-53750000D01*
X105240000Y-119765000D02*
X105250000Y-119775000D01*
X89348900Y-64250000D02*
X90450000Y-64250000D01*
X89348900Y-62250000D02*
X90450000Y-62250000D01*
X107350550Y-95749999D02*
X106249450Y-95749999D01*
X104500000Y-131385000D02*
X105290000Y-131385000D01*
X106249450Y-53749999D02*
X106249451Y-53750000D01*
X107350550Y-106750000D02*
X106249450Y-106749999D01*
X89348900Y-63249999D02*
X90450000Y-63250000D01*
X89348900Y-68250000D02*
X90450000Y-68250000D01*
X89348900Y-71249999D02*
X90450000Y-71250000D01*
X89348900Y-72250000D02*
X90450000Y-72250000D01*
X107350550Y-73750000D02*
X106249450Y-73749999D01*
X89348900Y-100249999D02*
X90450000Y-100250000D01*
X89348900Y-103250000D02*
X90450000Y-103250000D01*
X107350550Y-60749999D02*
X106249450Y-60749999D01*
X107350550Y-59750000D02*
X106249450Y-59749999D01*
X107350550Y-77750000D02*
X106249450Y-77749999D01*
X89348900Y-66250000D02*
X90450000Y-66250000D01*
X107350550Y-100750000D02*
X106249450Y-100749999D01*
X107350550Y-67750000D02*
X106249450Y-67749999D01*
X90449999Y-110249999D02*
X89348900Y-110249999D01*
X102603909Y-140028909D02*
X102603909Y-140711091D01*
X90361179Y-77424506D02*
X90186672Y-77249999D01*
X107350550Y-89749999D02*
X106249450Y-89749999D01*
X89348900Y-107250000D02*
X90450000Y-107250000D01*
X107350550Y-61750000D02*
X106249450Y-61749999D01*
X89348900Y-102249999D02*
X90450000Y-102250000D01*
X90186672Y-77249999D02*
X89348900Y-77249999D01*
X107350550Y-110750000D02*
X106249450Y-110749999D01*
X107350550Y-102750000D02*
X106249450Y-102749999D01*
X106249450Y-54749999D02*
X106249451Y-54750000D01*
X107350550Y-91749999D02*
X106249450Y-91749999D01*
X107350550Y-62749999D02*
X106249450Y-62749999D01*
X107350550Y-97749999D02*
X106249450Y-97749999D01*
X89348900Y-70250000D02*
X90450000Y-70250000D01*
X89348900Y-65249999D02*
X90450000Y-65250000D01*
X90450000Y-109250000D02*
X90449999Y-109249999D01*
X107350550Y-92750000D02*
X106249450Y-92749999D01*
X107350550Y-104750000D02*
X106249450Y-104749999D01*
X89348900Y-57249999D02*
X90450000Y-57250000D01*
X107350550Y-90750000D02*
X106249450Y-90749999D01*
X89348900Y-91250000D02*
X90450000Y-91250000D01*
X89348900Y-56250000D02*
X90450000Y-56250000D01*
X89348900Y-58250000D02*
X90450000Y-58250000D01*
X90448558Y-76200230D02*
X90398789Y-76249999D01*
X89348900Y-94249999D02*
X90450000Y-94250000D01*
X89348900Y-75250001D02*
X90450000Y-75250000D01*
X89348900Y-101250000D02*
X90450000Y-101250000D01*
X106249451Y-87750000D02*
X107350550Y-87750000D01*
X107350550Y-72749999D02*
X106249450Y-72749999D01*
X90398789Y-76249999D02*
X89348900Y-76249999D01*
X89348900Y-74250000D02*
X90450000Y-74250000D01*
X107350550Y-98750000D02*
X106249450Y-98749999D01*
X89348900Y-104249999D02*
X90450000Y-104250000D01*
X107350550Y-68749999D02*
X106249450Y-68749999D01*
X102540000Y-129105000D02*
X101968636Y-129105000D01*
X89348900Y-53249999D02*
X90450000Y-53250000D01*
X131881200Y-136968800D02*
X131881200Y-136658802D01*
X90450000Y-110250000D02*
X90449999Y-110249999D01*
X89348900Y-106249999D02*
X90450000Y-106250000D01*
X107350550Y-108750000D02*
X106249450Y-108749999D01*
X106249450Y-86749999D02*
X106249451Y-86750000D01*
X89348900Y-86249999D02*
X90450000Y-86250000D01*
X107350550Y-63750000D02*
X106249450Y-63749999D01*
X107350550Y-101749999D02*
X106249450Y-101749999D01*
X131450000Y-137400000D02*
X131881200Y-136968800D01*
X107350550Y-65750000D02*
X106249450Y-65749999D01*
X107350550Y-99749999D02*
X106249450Y-99749999D01*
X107350550Y-66749999D02*
X106249450Y-66749999D01*
X107350550Y-64749999D02*
X106249450Y-64749999D01*
X107350550Y-56749999D02*
X106249450Y-56749999D01*
X107350550Y-74749999D02*
X106249450Y-74749999D01*
X89348900Y-99250000D02*
X90450000Y-99250000D01*
X107350550Y-71750000D02*
X106249450Y-71749999D01*
X106249451Y-54750000D02*
X107350550Y-54750000D01*
X89348900Y-105250000D02*
X90450000Y-105250000D01*
X89348900Y-89250000D02*
X90450000Y-89250000D01*
X89348900Y-93250000D02*
X90450000Y-93250000D01*
X89348900Y-97250000D02*
X90450000Y-97250000D01*
X107350550Y-88749998D02*
X106249450Y-88749999D01*
X89348900Y-92249999D02*
X90450000Y-92250000D01*
X89348900Y-73249999D02*
X90450000Y-73250000D01*
X107350550Y-107749999D02*
X106249450Y-107749999D01*
X104450000Y-119765000D02*
X105240000Y-119765000D01*
X107350550Y-105749999D02*
X106249450Y-105749999D01*
X107350550Y-76749999D02*
X106249450Y-76749999D01*
X107350550Y-93749999D02*
X106249450Y-93749999D01*
X107350550Y-75750000D02*
X106249450Y-75749999D01*
X106249451Y-86750000D02*
X107350550Y-86750000D01*
X107350550Y-55749998D02*
X106249450Y-55749999D01*
X89348900Y-59249999D02*
X90450000Y-59250000D01*
X89348900Y-90249999D02*
X90450000Y-90250000D01*
%TO.N,L_12*%
X79342372Y-80972733D02*
X79020190Y-81294915D01*
X83700000Y-70549598D02*
X83700000Y-76600000D01*
X89348900Y-65750000D02*
X88499598Y-65750000D01*
X88499598Y-65750000D02*
X83700000Y-70549598D01*
X79020190Y-81294915D02*
X79005085Y-81294915D01*
X79342372Y-80957628D02*
X79342372Y-80972733D01*
X78300000Y-82000000D02*
X74850000Y-82000000D01*
X83700000Y-76600000D02*
X79342372Y-80957628D01*
X79005085Y-81294915D02*
X78300000Y-82000000D01*
%TO.N,+5V_ZYNQ*%
X124161200Y-134908802D02*
X124161200Y-135828802D01*
X123491200Y-133508802D02*
X123491200Y-134238802D01*
X123491200Y-134238802D02*
X124161200Y-134908802D01*
%TO.N,LED_B*%
X73550000Y-89950000D02*
X71350000Y-92150000D01*
X73550000Y-63350000D02*
X73550000Y-89950000D01*
%TO.N,R_49*%
X80550000Y-113500000D02*
X80750000Y-113700000D01*
X80750000Y-113700000D02*
X105900000Y-113700000D01*
X105900000Y-113700000D02*
X108400000Y-111200000D01*
X108400000Y-110550000D02*
X108099999Y-110249999D01*
X108400000Y-111200000D02*
X108400000Y-110550000D01*
X108099999Y-110249999D02*
X107348900Y-110249999D01*
%TO.N,L_37*%
X89348900Y-98750000D02*
X83850000Y-98750000D01*
X79250000Y-103350000D02*
X83850000Y-98750000D01*
X79250000Y-103350000D02*
X75100000Y-103350000D01*
%TO.N,L_44*%
X80900000Y-107700000D02*
X82849999Y-105750001D01*
X89348900Y-105750001D02*
X82849999Y-105750001D01*
X80900000Y-107700000D02*
X78800000Y-107700000D01*
%TO.N,L_28*%
X89348900Y-89750000D02*
X85011272Y-89750000D01*
X85011272Y-89750000D02*
X79005636Y-95755636D01*
%TO.N,L_18*%
X88499599Y-71750000D02*
X86400000Y-73849599D01*
X79077818Y-86250000D02*
X75200000Y-86250000D01*
X86400000Y-78927818D02*
X79077818Y-86250000D01*
X86400000Y-73849599D02*
X86400000Y-78927818D01*
X75200000Y-86250000D02*
X74950000Y-86000000D01*
X89348900Y-71750000D02*
X88499599Y-71750000D01*
%TO.N,L_39*%
X79800000Y-104500000D02*
X83549999Y-100750001D01*
X89348900Y-100750001D02*
X83549999Y-100750001D01*
X79800000Y-104500000D02*
X75100000Y-104500000D01*
%TO.N,LED_R*%
X74050000Y-61250000D02*
X74050000Y-89900000D01*
X74400000Y-60900000D02*
X74050000Y-61250000D01*
X74050000Y-89900000D02*
X75050000Y-90900000D01*
%TO.N,L_48*%
X80650000Y-111400000D02*
X82300000Y-109750000D01*
X80650000Y-111400000D02*
X78850000Y-111400000D01*
X89348900Y-109750000D02*
X82300000Y-109750000D01*
%TO.N,L_4*%
X89348900Y-57750000D02*
X88499599Y-57750000D01*
X78127818Y-75700000D02*
X74800000Y-75700000D01*
X88499599Y-57750000D02*
X80100000Y-66149599D01*
X80100000Y-66149599D02*
X80100000Y-73727818D01*
X80100000Y-73727818D02*
X78127818Y-75700000D01*
%TO.N,L_34*%
X79200000Y-100900000D02*
X84350000Y-95750000D01*
X79200000Y-100900000D02*
X78650000Y-100900000D01*
X89348900Y-95750000D02*
X84350000Y-95750000D01*
%TO.N,L_1*%
X78650000Y-71850000D02*
X78650000Y-64599600D01*
X78650000Y-64599600D02*
X88499601Y-54749999D01*
X88499601Y-54749999D02*
X89348900Y-54749999D01*
%TO.N,L_36*%
X89348900Y-97749999D02*
X84000001Y-97749999D01*
X79200000Y-102550000D02*
X84000001Y-97749999D01*
X79200000Y-102550000D02*
X78650000Y-102550000D01*
%TO.N,L_3*%
X79650000Y-65599599D02*
X79650000Y-73400000D01*
X79650000Y-73400000D02*
X78650000Y-74400000D01*
X88499599Y-56750000D02*
X79650000Y-65599599D01*
X89348900Y-56750000D02*
X88499599Y-56750000D01*
%TO.N,L_45*%
X89348900Y-106749999D02*
X82750001Y-106749999D01*
X82750001Y-106749999D02*
X79950000Y-109550000D01*
X79950000Y-109550000D02*
X75050000Y-109550000D01*
%TO.N,L_42*%
X80300000Y-106500000D02*
X78800000Y-106500000D01*
X80300000Y-106500000D02*
X83050000Y-103750000D01*
X89348900Y-103750000D02*
X83050000Y-103750000D01*
%TO.N,L_29*%
X78450000Y-97100000D02*
X75050000Y-97100000D01*
X84800000Y-90750000D02*
X78450000Y-97100000D01*
X89348900Y-90750000D02*
X84800000Y-90750000D01*
%TO.N,L_20*%
X87300000Y-74949600D02*
X87300000Y-79527818D01*
X89348900Y-73749999D02*
X88499601Y-73749999D01*
X87300000Y-79527818D02*
X78427818Y-88400000D01*
X88499601Y-73749999D02*
X87300000Y-74949600D01*
X78427818Y-88400000D02*
X74950000Y-88400000D01*
%TO.N,L_11*%
X83250000Y-69999600D02*
X88499601Y-64749999D01*
X78805085Y-80744915D02*
X83250000Y-76300000D01*
X83250000Y-76300000D02*
X83250000Y-69999600D01*
X78792372Y-80744915D02*
X78805085Y-80744915D01*
X88499601Y-64749999D02*
X89348900Y-64749999D01*
%TO.N,L_10*%
X88499599Y-63750001D02*
X82800000Y-69449600D01*
X75250000Y-79950000D02*
X74850000Y-79550000D01*
X78927818Y-79950000D02*
X75250000Y-79950000D01*
X82800000Y-69449600D02*
X82800000Y-76077818D01*
X82800000Y-76077818D02*
X78927818Y-79950000D01*
X89348900Y-63750001D02*
X88499599Y-63750001D01*
%TO.N,R_48*%
X109050000Y-111500000D02*
X109050000Y-110050000D01*
X78850000Y-112700000D02*
X80550000Y-114400000D01*
X108249999Y-109249999D02*
X107348900Y-109249999D01*
X80550000Y-114400000D02*
X106150000Y-114400000D01*
X106150000Y-114400000D02*
X109050000Y-111500000D01*
X109050000Y-110050000D02*
X108249999Y-109249999D01*
%TO.N,L_9*%
X89348900Y-62750000D02*
X88499599Y-62750000D01*
X82350000Y-75750000D02*
X78700000Y-79400000D01*
X88499599Y-62750000D02*
X82350000Y-68899599D01*
X82350000Y-68899599D02*
X82350000Y-75750000D01*
%TO.N,L_30*%
X84899999Y-91750001D02*
X78900000Y-97750000D01*
X89348900Y-91750001D02*
X84899999Y-91750001D01*
%TO.N,L_13*%
X78850000Y-82650000D02*
X78850000Y-82450000D01*
X88499599Y-66750000D02*
X89348900Y-66750000D01*
X84150000Y-71099599D02*
X88499599Y-66750000D01*
X78850000Y-82450000D02*
X84150000Y-77150000D01*
X84150000Y-77150000D02*
X84150000Y-71099599D01*
%TO.N,L_16*%
X85500000Y-78450000D02*
X78950000Y-85000000D01*
X88499602Y-69749999D02*
X85500000Y-72749601D01*
X78950000Y-85000000D02*
X75200000Y-85000000D01*
X75200000Y-85000000D02*
X75000000Y-84800000D01*
X89348900Y-69749999D02*
X88499602Y-69749999D01*
X85500000Y-72749601D02*
X85500000Y-78450000D01*
%TO.N,L_43*%
X82950000Y-104750000D02*
X89348900Y-104750000D01*
X80550000Y-107150000D02*
X82950000Y-104750000D01*
X75000000Y-107150000D02*
X80550000Y-107150000D01*
%TO.N,L_15*%
X85050000Y-72199600D02*
X88499601Y-68749999D01*
X88499601Y-68749999D02*
X89348900Y-68749999D01*
X78850000Y-84300000D02*
X78850000Y-84200000D01*
X85050000Y-78000000D02*
X85050000Y-72199600D01*
X78850000Y-84200000D02*
X85050000Y-78000000D01*
%TO.N,L_2*%
X88499602Y-55749999D02*
X89348900Y-55749999D01*
X79250000Y-64999601D02*
X88499602Y-55749999D01*
X78650000Y-73140000D02*
X79250000Y-72540000D01*
X79250000Y-72540000D02*
X79250000Y-64999601D01*
%TO.N,L_7*%
X88499602Y-60749999D02*
X89348900Y-60749999D01*
X78700000Y-77850000D02*
X81450000Y-75100000D01*
X81450000Y-75100000D02*
X81450000Y-67799601D01*
X81450000Y-67799601D02*
X88499602Y-60749999D01*
%TO.N,L_0*%
X75150000Y-70000000D02*
X75150000Y-67099800D01*
X88499799Y-53750001D02*
X89348900Y-53750001D01*
X75150000Y-67099800D02*
X88499799Y-53750001D01*
%TO.N,L_27*%
X89348900Y-88749999D02*
X85233455Y-88749999D01*
X85233455Y-88749999D02*
X78233454Y-95750000D01*
X78233454Y-95750000D02*
X75050000Y-95750000D01*
%TO.N,L_6*%
X88499601Y-59749999D02*
X81000000Y-67249600D01*
X75350000Y-77500000D02*
X74800000Y-76950000D01*
X81000000Y-74700000D02*
X78200000Y-77500000D01*
X89348900Y-59749999D02*
X88499601Y-59749999D01*
X78200000Y-77500000D02*
X75350000Y-77500000D01*
X81000000Y-67249600D02*
X81000000Y-74700000D01*
%TO.N,L_47*%
X80350000Y-110850000D02*
X75050000Y-110850000D01*
X80350000Y-110850000D02*
X82450000Y-108750000D01*
X89348900Y-108750000D02*
X82450000Y-108750000D01*
%TO.N,L_19*%
X86850000Y-74399600D02*
X86850000Y-79200000D01*
X89348900Y-72750001D02*
X88499599Y-72750001D01*
X86850000Y-79200000D02*
X79000000Y-87050000D01*
X86850000Y-74399600D02*
X88499599Y-72750001D01*
%TO.N,L_17*%
X78950000Y-85700000D02*
X78850000Y-85700000D01*
X85950000Y-78700000D02*
X78950000Y-85700000D01*
X89348900Y-70751100D02*
X88498499Y-70751100D01*
X88498499Y-70751100D02*
X85950000Y-73299599D01*
X85950000Y-73299599D02*
X85950000Y-78700000D01*
%TO.N,L_22*%
X88499599Y-75750000D02*
X88150000Y-76099599D01*
X88150000Y-76099599D02*
X88150000Y-80427818D01*
X78877818Y-89700000D02*
X75000000Y-89700000D01*
X89348900Y-75750000D02*
X88499599Y-75750000D01*
X88150000Y-80427818D02*
X78877818Y-89700000D01*
%TO.N,L_40*%
X89348900Y-101749999D02*
X83350001Y-101749999D01*
X80050000Y-105050000D02*
X78800000Y-105050000D01*
X83350001Y-101749999D02*
X80050000Y-105050000D01*
%TO.N,L_32*%
X89348900Y-93749999D02*
X84600001Y-93749999D01*
X78900000Y-99450000D02*
X84600001Y-93749999D01*
%TO.N,L_41*%
X75150000Y-105950000D02*
X80000000Y-105950000D01*
X75075000Y-106025000D02*
X75150000Y-105950000D01*
X83200001Y-102749999D02*
X89348900Y-102749999D01*
X80000000Y-105950000D02*
X83200001Y-102749999D01*
%TO.N,L_46*%
X80250000Y-110100000D02*
X78850000Y-110100000D01*
X80250000Y-110100000D02*
X82600001Y-107749999D01*
X89348900Y-107749999D02*
X82600001Y-107749999D01*
%TO.N,L_21*%
X87750000Y-75499601D02*
X87750000Y-80050000D01*
X88499601Y-74750000D02*
X87750000Y-75499601D01*
X87750000Y-80050000D02*
X78900000Y-88900000D01*
X89348900Y-74749999D02*
X88499601Y-74750000D01*
%TO.N,L_26*%
X89348900Y-87749999D02*
X85350001Y-87749999D01*
X78802818Y-94297182D02*
X78802818Y-94402818D01*
X78802818Y-94297182D02*
X85350001Y-87749999D01*
%TO.N,L_14*%
X84600000Y-71649600D02*
X84600000Y-77700000D01*
X84600000Y-77700000D02*
X78600000Y-83700000D01*
X88499599Y-67750001D02*
X84600000Y-71649600D01*
X89348900Y-67750001D02*
X88499599Y-67750001D01*
X78600000Y-83700000D02*
X75000000Y-83700000D01*
%TO.N,L_31*%
X79000000Y-98500000D02*
X84750001Y-92749999D01*
X89348900Y-92749999D02*
X84750001Y-92749999D01*
X79000000Y-98500000D02*
X75100000Y-98500000D01*
%TO.N,R_4*%
X110249999Y-57249999D02*
X122700000Y-69700000D01*
X124044357Y-81944357D02*
X124143596Y-81944357D01*
X122700000Y-69700000D02*
X122700000Y-80600000D01*
X107348900Y-57249999D02*
X110249999Y-57249999D01*
X122700000Y-80600000D02*
X124044357Y-81944357D01*
%TO.N,R_30*%
X107348900Y-91249999D02*
X112799999Y-91249999D01*
X123750000Y-102200000D02*
X124168496Y-102200000D01*
X112799999Y-91249999D02*
X123750000Y-102200000D01*
%TO.N,R_42*%
X114350001Y-103250001D02*
X123500000Y-112400000D01*
X123500000Y-112400000D02*
X124200000Y-112400000D01*
X107348900Y-103250001D02*
X114350001Y-103250001D01*
%TO.N,R_25*%
X112049999Y-86249999D02*
X123500000Y-97700000D01*
X107348900Y-86249999D02*
X112049999Y-86249999D01*
X123500000Y-98027818D02*
X124622182Y-99150000D01*
X123500000Y-97700000D02*
X123500000Y-98027818D01*
X124622182Y-99150000D02*
X127900000Y-99150000D01*
%TO.N,R_11*%
X124147271Y-87747271D02*
X124373091Y-87747271D01*
X111300000Y-64250000D02*
X118850000Y-71800000D01*
X118850000Y-71800000D02*
X118850000Y-82450000D01*
X118850000Y-82450000D02*
X124147271Y-87747271D01*
X124375820Y-87750000D02*
X127900000Y-87750000D01*
X124373091Y-87747271D02*
X124375820Y-87750000D01*
X107348900Y-64250000D02*
X111300000Y-64250000D01*
%TO.N,R_16*%
X124300000Y-91600000D02*
X124300000Y-91750000D01*
X116100000Y-83400000D02*
X124300000Y-91600000D01*
X111900000Y-69250000D02*
X116100000Y-73450000D01*
X116100000Y-73450000D02*
X116100000Y-83400000D01*
X107348900Y-69250000D02*
X111900000Y-69250000D01*
%TO.N,R_21*%
X113500000Y-77100000D02*
X110650000Y-74250000D01*
X123700000Y-94800000D02*
X113500000Y-84600000D01*
X124222182Y-95350000D02*
X123700000Y-94827818D01*
X110650000Y-74250000D02*
X107348900Y-74250000D01*
X123700000Y-94827818D02*
X123700000Y-94800000D01*
X127900000Y-95350000D02*
X124222182Y-95350000D01*
X113500000Y-84600000D02*
X113500000Y-77100000D01*
%TO.N,R_45*%
X114600000Y-106250000D02*
X122750000Y-114400000D01*
X122750000Y-114400000D02*
X127950000Y-114400000D01*
X107348900Y-106250000D02*
X114600000Y-106250000D01*
%TO.N,R_15*%
X116650000Y-73150000D02*
X116650000Y-83200000D01*
X107348900Y-68250000D02*
X111750000Y-68250000D01*
X116650000Y-83200000D02*
X123700000Y-90250000D01*
X123700000Y-90250000D02*
X127850000Y-90250000D01*
X111750000Y-68250000D02*
X116650000Y-73150000D01*
%TO.N,R_35*%
X124100000Y-106800000D02*
X127950000Y-106800000D01*
X113549999Y-96249999D02*
X124100000Y-106800000D01*
X107348900Y-96249999D02*
X113549999Y-96249999D01*
%TO.N,R_41*%
X107348900Y-102250000D02*
X114250000Y-102250000D01*
X114250000Y-102250000D02*
X123850000Y-111850000D01*
X123850000Y-111850000D02*
X127950000Y-111850000D01*
%TO.N,R_0*%
X127000000Y-65000000D02*
X127000000Y-77600000D01*
X107348900Y-53249999D02*
X115249999Y-53249999D01*
X127000000Y-77600000D02*
X128050000Y-78650000D01*
X115249999Y-53249999D02*
X127000000Y-65000000D01*
%TO.N,R_10*%
X107348900Y-63249999D02*
X111149999Y-63249999D01*
X119400000Y-71500000D02*
X119400000Y-81950000D01*
X119400000Y-81950000D02*
X124150000Y-86700000D01*
X111149999Y-63249999D02*
X119400000Y-71500000D01*
X124150000Y-86700000D02*
X124150000Y-86900000D01*
%TO.N,R_28*%
X107348900Y-89250001D02*
X112466792Y-89250001D01*
X112466792Y-89250001D02*
X124130222Y-100913431D01*
X124130222Y-100913431D02*
X124130222Y-100946641D01*
%TO.N,R_1*%
X115500000Y-54250000D02*
X126550000Y-65300000D01*
X126550000Y-65300000D02*
X126550000Y-78850000D01*
X107348900Y-54250000D02*
X115500000Y-54250000D01*
X126550000Y-78850000D02*
X128100000Y-80400000D01*
%TO.N,R_14*%
X123850000Y-89600000D02*
X124200000Y-89600000D01*
X107348900Y-67249999D02*
X111599999Y-67249999D01*
X117200000Y-82950000D02*
X123850000Y-89600000D01*
X111599999Y-67249999D02*
X117200000Y-72850000D01*
X117200000Y-72850000D02*
X117200000Y-82950000D01*
%TO.N,R_39*%
X113949999Y-100249999D02*
X123000000Y-109300000D01*
X107348900Y-100249999D02*
X113949999Y-100249999D01*
X123000000Y-109300000D02*
X127950000Y-109300000D01*
%TO.N,R_37*%
X113750000Y-98250000D02*
X123550000Y-108050000D01*
X123550000Y-108050000D02*
X127950000Y-108050000D01*
X107348900Y-98250000D02*
X113750000Y-98250000D01*
%TO.N,R_18*%
X124245273Y-93045273D02*
X124245273Y-93347271D01*
X112199999Y-71249999D02*
X115000000Y-74050000D01*
X115000000Y-74050000D02*
X115000000Y-83800000D01*
X115000000Y-83800000D02*
X124245273Y-93045273D01*
X107348900Y-71249999D02*
X112199999Y-71249999D01*
%TO.N,R_19*%
X114500000Y-84100000D02*
X123695273Y-93295273D01*
X107348900Y-72249999D02*
X112299999Y-72249999D01*
X123695273Y-93295273D02*
X123695273Y-93575089D01*
X114500000Y-74450000D02*
X114500000Y-84100000D01*
X123695273Y-93575089D02*
X124170184Y-94050000D01*
X124170184Y-94050000D02*
X127900000Y-94050000D01*
X112299999Y-72249999D02*
X114500000Y-74450000D01*
%TO.N,R_7*%
X121050000Y-70500000D02*
X121050000Y-81300000D01*
X123700000Y-83950000D02*
X128000000Y-83950000D01*
X121050000Y-81300000D02*
X123700000Y-83950000D01*
X107348900Y-60250000D02*
X110800000Y-60250000D01*
X110800000Y-60250000D02*
X121050000Y-70500000D01*
%TO.N,R_32*%
X107348900Y-93250000D02*
X113100000Y-93250000D01*
X124250000Y-104400000D02*
X124250000Y-104450000D01*
X113100000Y-93250000D02*
X124250000Y-104400000D01*
%TO.N,R_47*%
X114800001Y-108250001D02*
X122200000Y-115650000D01*
X107348900Y-108250001D02*
X114800001Y-108250001D01*
X122200000Y-115650000D02*
X127950000Y-115650000D01*
%TO.N,R_3*%
X123250000Y-69400000D02*
X123250000Y-80427818D01*
X123250000Y-80427818D02*
X124222182Y-81400000D01*
X124222182Y-81400000D02*
X128000000Y-81400000D01*
X107348900Y-56250001D02*
X110100001Y-56250001D01*
X110100001Y-56250001D02*
X123250000Y-69400000D01*
%TO.N,R_40*%
X107348900Y-101250000D02*
X114100000Y-101250000D01*
X114100000Y-101250000D02*
X123950000Y-111100000D01*
X123950000Y-111100000D02*
X124250000Y-111100000D01*
%TO.N,R_26*%
X107348900Y-87250000D02*
X112156496Y-87250000D01*
X124122182Y-99215686D02*
X124122182Y-99427818D01*
X112156496Y-87250000D02*
X124122182Y-99215686D01*
%TO.N,R_9*%
X107348900Y-62249999D02*
X111049999Y-62249999D01*
X124622182Y-86450000D02*
X127900000Y-86450000D01*
X111049999Y-62249999D02*
X119950000Y-71150000D01*
X119950000Y-81777818D02*
X124622182Y-86450000D01*
X119950000Y-71150000D02*
X119950000Y-81777818D01*
%TO.N,R_2*%
X109950000Y-55250000D02*
X123850000Y-69150000D01*
X123850000Y-80250000D02*
X124250000Y-80650000D01*
X107348900Y-55250000D02*
X109950000Y-55250000D01*
X123850000Y-69150000D02*
X123850000Y-80250000D01*
%TO.N,R_29*%
X107348900Y-90249999D02*
X112655762Y-90249999D01*
X124055763Y-101650000D02*
X127900000Y-101650000D01*
X112655762Y-90249999D02*
X124055763Y-101650000D01*
%TO.N,R_8*%
X107348900Y-61250001D02*
X110950001Y-61250001D01*
X120500000Y-70800000D02*
X120500000Y-81550000D01*
X120500000Y-81550000D02*
X124050000Y-85100000D01*
X110950001Y-61250001D02*
X120500000Y-70800000D01*
%TO.N,R_36*%
X123750000Y-107350000D02*
X124200000Y-107350000D01*
X107348900Y-97250000D02*
X113650000Y-97250000D01*
X113650000Y-97250000D02*
X123750000Y-107350000D01*
%TO.N,R_17*%
X123750000Y-91850000D02*
X123750000Y-91977818D01*
X115550000Y-83650000D02*
X123750000Y-91850000D01*
X107348900Y-70250001D02*
X112050001Y-70250001D01*
X112050001Y-70250001D02*
X115550000Y-73750000D01*
X115550000Y-73750000D02*
X115550000Y-83650000D01*
X123750000Y-91977818D02*
X124572182Y-92800000D01*
X124572182Y-92800000D02*
X127900000Y-92800000D01*
%TO.N,R_23*%
X112500000Y-77950000D02*
X112500000Y-85100000D01*
X110799999Y-76249999D02*
X112500000Y-77950000D01*
X107348900Y-76249999D02*
X110799999Y-76249999D01*
X112500000Y-85100000D02*
X124000000Y-96600000D01*
X124000000Y-96600000D02*
X127900000Y-96600000D01*
%TO.N,R_46*%
X114700000Y-107250000D02*
X122400000Y-114950000D01*
X107348900Y-107250000D02*
X114700000Y-107250000D01*
X122400000Y-114950000D02*
X124200000Y-114950000D01*
%TO.N,R_38*%
X107348900Y-99249998D02*
X113849998Y-99249998D01*
X123200000Y-108600000D02*
X124200000Y-108600000D01*
X113849998Y-99249998D02*
X123200000Y-108600000D01*
%TO.N,R_33*%
X107348900Y-94250001D02*
X113250001Y-94250001D01*
X124500000Y-105500000D02*
X127900000Y-105500000D01*
X113250001Y-94250001D02*
X124500000Y-105500000D01*
%TO.N,R_43*%
X114449999Y-104249999D02*
X123300000Y-113100000D01*
X123300000Y-113100000D02*
X127950000Y-113100000D01*
X107348900Y-104249999D02*
X114449999Y-104249999D01*
%TO.N,R_24*%
X124375000Y-98125000D02*
X123900000Y-97650000D01*
X112000000Y-78350000D02*
X110899999Y-77249999D01*
X112000000Y-85350000D02*
X112000000Y-78350000D01*
X123900000Y-97250000D02*
X112000000Y-85350000D01*
X110899999Y-77249999D02*
X107348900Y-77249999D01*
X123900000Y-97650000D02*
X123900000Y-97250000D01*
%TO.N,R_5*%
X122150000Y-80800000D02*
X124000000Y-82650000D01*
X107348900Y-58249999D02*
X110399999Y-58249999D01*
X110399999Y-58249999D02*
X122150000Y-70000000D01*
X124000000Y-82650000D02*
X127950000Y-82650000D01*
X122150000Y-70000000D02*
X122150000Y-80800000D01*
%TO.N,R_34*%
X113399999Y-95249999D02*
X124150000Y-106000000D01*
X107348900Y-95249999D02*
X113399999Y-95249999D01*
X124150000Y-106000000D02*
X124200000Y-106000000D01*
%TO.N,R_6*%
X110600000Y-59250000D02*
X121600000Y-70250000D01*
X121600000Y-81050000D02*
X123750000Y-83200000D01*
X121600000Y-70250000D02*
X121600000Y-81050000D01*
X107348900Y-59250000D02*
X110600000Y-59250000D01*
X123750000Y-83200000D02*
X124200000Y-83200000D01*
%TO.N,R_20*%
X112400000Y-73250000D02*
X107348900Y-73250000D01*
X124154498Y-94600000D02*
X123295273Y-93740775D01*
X123295273Y-93645273D02*
X114000000Y-84350000D01*
X123295273Y-93740775D02*
X123295273Y-93645273D01*
X124250000Y-94600000D02*
X124154498Y-94600000D01*
X114000000Y-74850000D02*
X112400000Y-73250000D01*
X114000000Y-84350000D02*
X114000000Y-74850000D01*
%TO.N,R_27*%
X123550000Y-99633454D02*
X124366546Y-100450000D01*
X112350000Y-88250000D02*
X123550000Y-99450000D01*
X123550000Y-99450000D02*
X123550000Y-99633454D01*
X124366546Y-100450000D02*
X127900000Y-100450000D01*
X107348900Y-88250000D02*
X112350000Y-88250000D01*
%TO.N,R_22*%
X124034314Y-95900000D02*
X124200000Y-95900000D01*
X113000000Y-77500000D02*
X113000000Y-84865686D01*
X113000000Y-84865686D02*
X124034314Y-95900000D01*
X107348900Y-75250001D02*
X110750001Y-75250001D01*
X110750001Y-75250001D02*
X113000000Y-77500000D01*
%TO.N,R_44*%
X114499999Y-105249999D02*
X122950000Y-113700000D01*
X107348900Y-105249999D02*
X114499999Y-105249999D01*
X122950000Y-113700000D02*
X124200000Y-113700000D01*
%TO.N,R_12*%
X118300000Y-72150000D02*
X118300000Y-82557843D01*
X107348900Y-65250000D02*
X111400000Y-65250000D01*
X111400000Y-65250000D02*
X118300000Y-72150000D01*
X124039428Y-88297271D02*
X124145273Y-88297271D01*
X118300000Y-82557843D02*
X124039428Y-88297271D01*
%TO.N,R_31*%
X112950000Y-92250000D02*
X123650000Y-102950000D01*
X107348900Y-92250000D02*
X112950000Y-92250000D01*
X123650000Y-102950000D02*
X127900000Y-102950000D01*
%TO.N,R_13*%
X117750000Y-82764908D02*
X124035092Y-89050000D01*
X107348900Y-66249998D02*
X111499998Y-66249998D01*
X111499998Y-66249998D02*
X117750000Y-72500000D01*
X117750000Y-72500000D02*
X117750000Y-82764908D01*
X124035092Y-89050000D02*
X127850000Y-89050000D01*
%TO.N,+24V*%
X103450000Y-120785000D02*
X102782500Y-120785000D01*
X102832500Y-132405000D02*
X101562500Y-133675000D01*
X103500000Y-132405000D02*
X102832500Y-132405000D01*
D40*
X113720000Y-149500000D02*
X113720000Y-145120000D01*
D39*
X102782500Y-120785000D02*
X101512500Y-122055000D01*
%TO.N,+5V*%
X102080000Y-139775000D02*
X102750000Y-139105000D01*
D40*
X95800000Y-150975000D02*
X99900000Y-146875000D01*
X96350000Y-150975000D02*
X93350000Y-150975000D01*
D39*
X101350000Y-139775000D02*
X102080000Y-139775000D01*
D40*
X99900000Y-146875000D02*
X99900000Y-144600000D01*
D39*
X102750000Y-139105000D02*
X103670000Y-139105000D01*
%TO.N,+3.3V*%
X102030000Y-128155000D02*
X102700000Y-127485000D01*
X102700000Y-127485000D02*
X103620000Y-127485000D01*
X101300000Y-128155000D02*
X102030000Y-128155000D01*
%TO.N,Net-(U1-SW)*%
X125841200Y-134308802D02*
X126421200Y-134308802D01*
%TO.N,Net-(U1-BOOT)*%
X126983700Y-135288802D02*
X127691200Y-135996302D01*
X126441200Y-135288802D02*
X126983700Y-135288802D01*
%TO.N,Net-(U1-FB)*%
X126471200Y-136478802D02*
X126491200Y-136458802D01*
X122541200Y-135768802D02*
X123251200Y-136478802D01*
X129591200Y-137038802D02*
X129591200Y-135996302D01*
X125141200Y-136478802D02*
X126471200Y-136478802D01*
X129571200Y-137058802D02*
X129591200Y-137038802D01*
X123251200Y-136478802D02*
X125141200Y-136478802D01*
X125151200Y-136468802D02*
X125141200Y-136478802D01*
X125121200Y-134908802D02*
X125121200Y-135828802D01*
X125151200Y-135858802D02*
X125151200Y-136468802D01*
%TO.N,Net-(U2-BOOT)*%
X103130000Y-136825000D02*
X103130000Y-136282500D01*
X103130000Y-136282500D02*
X103837500Y-135575000D01*
%TO.N,Net-(U2-SW)*%
X102150000Y-137425000D02*
X102150000Y-136845000D01*
%TO.N,Net-(U3-SW)*%
X102100000Y-125805000D02*
X102100000Y-125225000D01*
%TO.N,Net-(U3-BOOT)*%
X103080000Y-125205000D02*
X103080000Y-124662500D01*
X103080000Y-124662500D02*
X103787500Y-123955000D01*
%TO.N,Net-(U2-FB)*%
X104310000Y-138115000D02*
X104320000Y-138125000D01*
X103610000Y-140725000D02*
X104320000Y-140015000D01*
X104320000Y-138125000D02*
X104320000Y-136795000D01*
X103700000Y-138115000D02*
X104310000Y-138115000D01*
X104900000Y-133695000D02*
X104880000Y-133675000D01*
X104320000Y-140015000D02*
X104320000Y-138125000D01*
X102750000Y-138145000D02*
X103670000Y-138145000D01*
X104880000Y-133675000D02*
X103837500Y-133675000D01*
X104320000Y-136795000D02*
X104300000Y-136775000D01*
%TO.N,Net-(U3-FB)*%
X104270000Y-128395000D02*
X104270000Y-126505000D01*
X102700000Y-126525000D02*
X103620000Y-126525000D01*
X104270000Y-126505000D02*
X104270000Y-125175000D01*
X104850000Y-122075000D02*
X104830000Y-122055000D01*
X104830000Y-122055000D02*
X103787500Y-122055000D01*
X104270000Y-125175000D02*
X104250000Y-125155000D01*
X103650000Y-126495000D02*
X104260000Y-126495000D01*
X104260000Y-126495000D02*
X104270000Y-126505000D01*
X103560000Y-129105000D02*
X104270000Y-128395000D01*
%TO.N,Net-(U1-EN)*%
X128641200Y-136928802D02*
X128641200Y-135996302D01*
X129911200Y-137608802D02*
X129321200Y-137608802D01*
X131861200Y-135658802D02*
X130861200Y-136658802D01*
X130861200Y-136658802D02*
X129911200Y-137608802D01*
X129321200Y-137608802D02*
X128641200Y-136928802D01*
%TO.N,Net-(U2-EN)*%
X104500000Y-132405000D02*
X105450000Y-133355000D01*
X104770000Y-134625000D02*
X103837500Y-134625000D01*
X103500000Y-131405000D02*
X104500000Y-132405000D01*
X105450000Y-133945000D02*
X104770000Y-134625000D01*
X105450000Y-133355000D02*
X105450000Y-133945000D01*
%TO.N,Net-(U3-EN)*%
X103450000Y-119785000D02*
X104450000Y-120785000D01*
X104720000Y-123005000D02*
X103787500Y-123005000D01*
X104450000Y-120785000D02*
X105400000Y-121735000D01*
X105400000Y-122325000D02*
X104720000Y-123005000D01*
X105400000Y-121735000D02*
X105400000Y-122325000D01*
D40*
%TO.N,/ZYNQ_24V_BUCK_SUPPLY*%
X116260000Y-145940000D02*
X117400000Y-144800000D01*
D39*
X130861200Y-134991302D02*
X129591200Y-133721302D01*
D40*
X117400000Y-144800000D02*
X125550000Y-144800000D01*
D39*
X130861200Y-135658802D02*
X130861200Y-134991302D01*
D40*
X125550000Y-144800000D02*
X128950000Y-141400000D01*
X116260000Y-149500000D02*
X116260000Y-145940000D01*
D39*
%TO.N,POWER_FAIL*%
X132400000Y-75550000D02*
X130000000Y-73150000D01*
X132400000Y-76250000D02*
X132400000Y-75550000D01*
X130000000Y-73150000D02*
X127950000Y-73150000D01*
%TO.N,POWER_OFF*%
X131796446Y-75653554D02*
X130592892Y-74450000D01*
X130592892Y-74450000D02*
X127950000Y-74450000D01*
%TO.N,POWER_AUX_0*%
X133500000Y-78050000D02*
X133500000Y-78000000D01*
X133500000Y-78000000D02*
X132450000Y-76950000D01*
X132450000Y-76950000D02*
X131850000Y-76950000D01*
%TO.N,POWER_AUX_1*%
X133750000Y-80100000D02*
X131950000Y-78300000D01*
X131500000Y-149500000D02*
X133750000Y-147250000D01*
X133750000Y-147250000D02*
X133750000Y-80100000D01*
%TD*%
%TA.AperFunction,Conductor*%
%TO.N,+24V*%
G36*
X89743039Y-133569685D02*
G01*
X89788794Y-133622489D01*
X89800000Y-133674000D01*
X89800000Y-136426000D01*
X89780315Y-136493039D01*
X89727511Y-136538794D01*
X89676000Y-136550000D01*
X85874000Y-136550000D01*
X85806961Y-136530315D01*
X85761206Y-136477511D01*
X85750000Y-136426000D01*
X85750000Y-133674000D01*
X85769685Y-133606961D01*
X85822489Y-133561206D01*
X85874000Y-133550000D01*
X89676000Y-133550000D01*
X89743039Y-133569685D01*
G37*
%TD.AperFunction*%
%TD*%
%TA.AperFunction,Conductor*%
%TO.N,GND*%
G36*
X110893039Y-119919685D02*
G01*
X110938794Y-119972489D01*
X110950000Y-120024000D01*
X110950000Y-123826000D01*
X110930315Y-123893039D01*
X110877511Y-123938794D01*
X110826000Y-123950000D01*
X108424000Y-123950000D01*
X108356961Y-123930315D01*
X108311206Y-123877511D01*
X108300000Y-123826000D01*
X108300000Y-120024000D01*
X108319685Y-119956961D01*
X108372489Y-119911206D01*
X108424000Y-119900000D01*
X110826000Y-119900000D01*
X110893039Y-119919685D01*
G37*
%TD.AperFunction*%
%TD*%
%TA.AperFunction,Conductor*%
%TO.N,GND*%
G36*
X84293039Y-126169685D02*
G01*
X84338794Y-126222489D01*
X84350000Y-126274000D01*
X84350000Y-129026000D01*
X84330315Y-129093039D01*
X84277511Y-129138794D01*
X84226000Y-129150000D01*
X80424000Y-129150000D01*
X80356961Y-129130315D01*
X80311206Y-129077511D01*
X80300000Y-129026000D01*
X80300000Y-126274000D01*
X80319685Y-126206961D01*
X80372489Y-126161206D01*
X80424000Y-126150000D01*
X84226000Y-126150000D01*
X84293039Y-126169685D01*
G37*
%TD.AperFunction*%
%TD*%
%TA.AperFunction,Conductor*%
%TO.N,+3.3V*%
G36*
X120543039Y-124769685D02*
G01*
X120588794Y-124822489D01*
X120600000Y-124874000D01*
X120600000Y-130176000D01*
X120580315Y-130243039D01*
X120527511Y-130288794D01*
X120476000Y-130300000D01*
X106500030Y-130300000D01*
X106443735Y-130286485D01*
X106400301Y-130264354D01*
X106275004Y-130244510D01*
X106274998Y-130244510D01*
X106149700Y-130264354D01*
X106149699Y-130264354D01*
X106106267Y-130286485D01*
X106050039Y-130299983D01*
X106049999Y-130300000D01*
X105586319Y-130763681D01*
X105524996Y-130797166D01*
X105498638Y-130800000D01*
X100801362Y-130800000D01*
X100734323Y-130780315D01*
X100713681Y-130763681D01*
X100555000Y-130605000D01*
X100350000Y-130400000D01*
X101700000Y-129550000D01*
X102260866Y-129550000D01*
X102310952Y-129560565D01*
X102338502Y-129572730D01*
X102362377Y-129575500D01*
X102717622Y-129575499D01*
X102741498Y-129572730D01*
X102769047Y-129560565D01*
X102819133Y-129550000D01*
X103280866Y-129550000D01*
X103330952Y-129560565D01*
X103358502Y-129572730D01*
X103382377Y-129575500D01*
X103737622Y-129575499D01*
X103761498Y-129572730D01*
X103859135Y-129529619D01*
X103859136Y-129529618D01*
X103859141Y-129529616D01*
X103934616Y-129454141D01*
X103955900Y-129405937D01*
X103981645Y-129368354D01*
X105213681Y-128136319D01*
X105275004Y-128102834D01*
X105301362Y-128100000D01*
X106850000Y-128100000D01*
X106850000Y-124874000D01*
X106869685Y-124806961D01*
X106922489Y-124761206D01*
X106974000Y-124750000D01*
X120476000Y-124750000D01*
X120543039Y-124769685D01*
G37*
%TD.AperFunction*%
%TD*%
%TA.AperFunction,Conductor*%
%TO.N,Net-(U3-SW)*%
G36*
X96128326Y-120026674D02*
G01*
X96150000Y-120079000D01*
X96150000Y-123825500D01*
X96128326Y-123877826D01*
X96076000Y-123899500D01*
X90574000Y-123899500D01*
X90553498Y-123903578D01*
X90539062Y-123905000D01*
X90524000Y-123905000D01*
X90471674Y-123883326D01*
X90450000Y-123831000D01*
X90450000Y-120079000D01*
X90471674Y-120026674D01*
X90524000Y-120005000D01*
X96076000Y-120005000D01*
X96128326Y-120026674D01*
G37*
%TD.AperFunction*%
%TD*%
%TA.AperFunction,Conductor*%
%TO.N,/ZYNQ_24V_BUCK_SUPPLY*%
G36*
X132269526Y-128680476D02*
G01*
X132291200Y-128732802D01*
X132291200Y-132239870D01*
X132250000Y-132200000D01*
X132250000Y-135108802D01*
X129215200Y-135108802D01*
X129162874Y-135087128D01*
X129141200Y-135034802D01*
X129141200Y-134564183D01*
X129160731Y-134517028D01*
X129159752Y-134516277D01*
X129162557Y-134512620D01*
X129162874Y-134511857D01*
X129163831Y-134510960D01*
X129213187Y-134446637D01*
X129213189Y-134446635D01*
X129234863Y-134394309D01*
X129246700Y-134334802D01*
X129246700Y-132967600D01*
X129254766Y-132934004D01*
X129280191Y-132884106D01*
X129300037Y-132758802D01*
X129280191Y-132633498D01*
X129254765Y-132583596D01*
X129246700Y-132550001D01*
X129246700Y-132452233D01*
X129254766Y-132418637D01*
X129276846Y-132375304D01*
X129296692Y-132250000D01*
X129276846Y-132124696D01*
X129254765Y-132081359D01*
X129246700Y-132047764D01*
X129246700Y-131882803D01*
X129234864Y-131823300D01*
X129234863Y-131823299D01*
X129234863Y-131823295D01*
X129213189Y-131770969D01*
X129213183Y-131770958D01*
X129192894Y-131735815D01*
X129192892Y-131735813D01*
X129129035Y-131686814D01*
X129129031Y-131686812D01*
X129076711Y-131665140D01*
X129076701Y-131665137D01*
X129036854Y-131657211D01*
X129017200Y-131653302D01*
X129017198Y-131653302D01*
X128865200Y-131653302D01*
X128812874Y-131631628D01*
X128791200Y-131579302D01*
X128791200Y-128732802D01*
X128812874Y-128680476D01*
X128865200Y-128658802D01*
X132217200Y-128658802D01*
X132269526Y-128680476D01*
G37*
%TD.AperFunction*%
%TD*%
%TA.AperFunction,Conductor*%
%TO.N,+24V*%
G36*
X89693039Y-126169685D02*
G01*
X89738794Y-126222489D01*
X89750000Y-126274000D01*
X89750000Y-129026000D01*
X89730315Y-129093039D01*
X89677511Y-129138794D01*
X89626000Y-129150000D01*
X85824000Y-129150000D01*
X85756961Y-129130315D01*
X85711206Y-129077511D01*
X85700000Y-129026000D01*
X85700000Y-126274000D01*
X85719685Y-126206961D01*
X85772489Y-126161206D01*
X85824000Y-126150000D01*
X89626000Y-126150000D01*
X89693039Y-126169685D01*
G37*
%TD.AperFunction*%
%TD*%
%TA.AperFunction,Conductor*%
%TO.N,GND*%
G36*
X117993039Y-119919685D02*
G01*
X118038794Y-119972489D01*
X118050000Y-120024000D01*
X118050000Y-123826000D01*
X118030315Y-123893039D01*
X117977511Y-123938794D01*
X117926000Y-123950000D01*
X115174000Y-123950000D01*
X115106961Y-123930315D01*
X115061206Y-123877511D01*
X115050000Y-123826000D01*
X115050000Y-120024000D01*
X115069685Y-119956961D01*
X115122489Y-119911206D01*
X115174000Y-119900000D01*
X117926000Y-119900000D01*
X117993039Y-119919685D01*
G37*
%TD.AperFunction*%
%TD*%
%TA.AperFunction,Conductor*%
%TO.N,/ZYNQ_24V_BUCK_SUPPLY*%
G36*
X133476961Y-133387382D02*
G01*
X133499490Y-133439345D01*
X133499500Y-133440558D01*
X133499500Y-143123415D01*
X133477826Y-143175741D01*
X133425500Y-143197415D01*
X133424990Y-143197413D01*
X126623490Y-143150506D01*
X126571314Y-143128472D01*
X126550000Y-143076508D01*
X126550000Y-137974000D01*
X126571674Y-137921674D01*
X126624000Y-137900000D01*
X131899999Y-137900000D01*
X131900000Y-137900000D01*
X132250000Y-137550003D01*
X132250000Y-137024225D01*
X132256304Y-136994336D01*
X132298930Y-136897800D01*
X132301700Y-136873925D01*
X132301699Y-136418680D01*
X132298930Y-136394804D01*
X132256305Y-136298268D01*
X132250000Y-136268378D01*
X132250000Y-136024225D01*
X132256304Y-135994336D01*
X132298930Y-135897800D01*
X132301700Y-135873925D01*
X132301699Y-135418680D01*
X132298930Y-135394804D01*
X132256305Y-135298268D01*
X132250000Y-135268378D01*
X132250000Y-135108802D01*
X132250000Y-132200000D01*
X133476961Y-133387382D01*
G37*
%TD.AperFunction*%
%TD*%
%TA.AperFunction,Conductor*%
%TO.N,GND*%
G36*
X99422826Y-123276674D02*
G01*
X99444500Y-123329000D01*
X99444500Y-123380998D01*
X99456335Y-123440501D01*
X99456338Y-123440511D01*
X99478008Y-123492826D01*
X99478016Y-123492843D01*
X99498305Y-123527986D01*
X99498307Y-123527988D01*
X99498308Y-123527989D01*
X99562167Y-123576989D01*
X99614493Y-123598663D01*
X99674000Y-123610500D01*
X99838962Y-123610500D01*
X99872557Y-123618565D01*
X99915894Y-123640646D01*
X100041198Y-123660492D01*
X100166502Y-123640646D01*
X100209839Y-123618565D01*
X100243434Y-123610500D01*
X100338962Y-123610500D01*
X100372557Y-123618565D01*
X100415894Y-123640646D01*
X100541198Y-123660492D01*
X100666502Y-123640646D01*
X100709839Y-123618565D01*
X100743434Y-123610500D01*
X102125998Y-123610500D01*
X102126000Y-123610500D01*
X102185507Y-123598663D01*
X102237833Y-123576989D01*
X102272989Y-123556692D01*
X102290439Y-123533951D01*
X102339489Y-123505633D01*
X102349147Y-123505000D01*
X102526000Y-123505000D01*
X102578326Y-123526674D01*
X102600000Y-123579000D01*
X102600000Y-124631000D01*
X102578326Y-124683326D01*
X102526000Y-124705000D01*
X102049999Y-124705000D01*
X102032172Y-124722827D01*
X101979849Y-124744500D01*
X101936627Y-124744500D01*
X101912340Y-124747317D01*
X101812983Y-124791187D01*
X101736187Y-124867983D01*
X101692318Y-124967337D01*
X101689500Y-124991630D01*
X101689500Y-125418372D01*
X101692317Y-125442659D01*
X101736188Y-125542018D01*
X101739060Y-125546211D01*
X101750747Y-125601629D01*
X101743943Y-125621623D01*
X101714354Y-125679695D01*
X101694508Y-125805000D01*
X101714353Y-125930301D01*
X101714353Y-125930302D01*
X101714354Y-125930304D01*
X101771950Y-126043342D01*
X101861658Y-126133050D01*
X101974696Y-126190646D01*
X101987574Y-126192685D01*
X102035865Y-126222275D01*
X102050000Y-126265774D01*
X102050000Y-127681000D01*
X102028326Y-127733326D01*
X101976000Y-127755000D01*
X101791609Y-127755000D01*
X101746561Y-127739708D01*
X101737833Y-127733011D01*
X101737831Y-127733010D01*
X101685511Y-127711338D01*
X101685501Y-127711335D01*
X101645654Y-127703409D01*
X101626000Y-127699500D01*
X101625998Y-127699500D01*
X96479500Y-127699500D01*
X96427174Y-127677826D01*
X96405500Y-127625500D01*
X96405500Y-124129000D01*
X96401422Y-124108498D01*
X96400000Y-124094062D01*
X96400000Y-123329000D01*
X96421674Y-123276674D01*
X96474000Y-123255000D01*
X99370500Y-123255000D01*
X99422826Y-123276674D01*
G37*
%TD.AperFunction*%
%TD*%
%TA.AperFunction,Conductor*%
%TO.N,GND*%
G36*
X88443039Y-141269685D02*
G01*
X88488794Y-141322489D01*
X88500000Y-141374000D01*
X88500000Y-148326000D01*
X88480315Y-148393039D01*
X88427511Y-148438794D01*
X88376000Y-148450000D01*
X82151362Y-148450000D01*
X82084323Y-148430315D01*
X82063681Y-148413681D01*
X81486319Y-147836319D01*
X81452834Y-147774996D01*
X81450000Y-147748638D01*
X81450000Y-143850000D01*
X78350000Y-143850000D01*
X78350000Y-144050000D01*
X75600000Y-144050000D01*
X78228214Y-141374000D01*
X78313551Y-141287112D01*
X78374570Y-141253076D01*
X78402019Y-141250000D01*
X88376000Y-141250000D01*
X88443039Y-141269685D01*
G37*
%TD.AperFunction*%
%TD*%
%TA.AperFunction,Conductor*%
%TO.N,Net-(U1-SW)*%
G36*
X129069526Y-131830476D02*
G01*
X129091200Y-131882802D01*
X129091200Y-134334802D01*
X129069526Y-134387128D01*
X129017200Y-134408802D01*
X128265200Y-134408802D01*
X128212874Y-134387128D01*
X128191200Y-134334802D01*
X128191200Y-131882802D01*
X128212874Y-131830476D01*
X128265200Y-131808802D01*
X129017200Y-131808802D01*
X129069526Y-131830476D01*
G37*
%TD.AperFunction*%
%TD*%
%TA.AperFunction,Conductor*%
%TO.N,Net-(U1-SW)*%
G36*
X131619526Y-122680476D02*
G01*
X131641200Y-122732802D01*
X131641200Y-128284802D01*
X131619526Y-128337128D01*
X131567200Y-128358802D01*
X127820700Y-128358802D01*
X127768374Y-128337128D01*
X127746700Y-128284802D01*
X127746700Y-122732802D01*
X127768374Y-122680476D01*
X127820700Y-122658802D01*
X131567200Y-122658802D01*
X131619526Y-122680476D01*
G37*
%TD.AperFunction*%
%TD*%
%TA.AperFunction,Conductor*%
%TO.N,GND*%
G36*
X128369526Y-128630476D02*
G01*
X128391200Y-128682802D01*
X128391200Y-131579302D01*
X128369526Y-131631628D01*
X128317200Y-131653302D01*
X128265200Y-131653302D01*
X128248331Y-131656657D01*
X128205698Y-131665137D01*
X128205688Y-131665140D01*
X128153373Y-131686810D01*
X128153356Y-131686818D01*
X128118213Y-131707107D01*
X128118211Y-131707109D01*
X128069212Y-131770966D01*
X128069210Y-131770970D01*
X128047538Y-131823290D01*
X128047535Y-131823300D01*
X128035700Y-131882803D01*
X128035700Y-132047764D01*
X128027635Y-132081359D01*
X128005554Y-132124695D01*
X127985708Y-132250000D01*
X128005553Y-132375302D01*
X128027634Y-132418637D01*
X128035700Y-132452233D01*
X128035700Y-132547764D01*
X128027635Y-132581359D01*
X128005554Y-132624695D01*
X127985708Y-132750000D01*
X128005553Y-132875302D01*
X128027634Y-132918637D01*
X128035700Y-132952233D01*
X128035700Y-134334800D01*
X128047535Y-134394303D01*
X128047538Y-134394313D01*
X128069208Y-134446628D01*
X128069216Y-134446645D01*
X128089506Y-134481789D01*
X128089508Y-134481791D01*
X128112247Y-134499239D01*
X128140567Y-134548288D01*
X128141200Y-134557948D01*
X128141200Y-134734802D01*
X128119526Y-134787128D01*
X128067200Y-134808802D01*
X127015200Y-134808802D01*
X126962874Y-134787128D01*
X126941200Y-134734802D01*
X126941200Y-134258802D01*
X126923373Y-134240975D01*
X126901699Y-134188649D01*
X126901699Y-134132929D01*
X126898882Y-134108642D01*
X126898882Y-134108640D01*
X126855013Y-134009286D01*
X126778216Y-133932489D01*
X126678862Y-133888620D01*
X126678863Y-133888620D01*
X126674004Y-133888056D01*
X126654573Y-133885802D01*
X126654569Y-133885802D01*
X126227827Y-133885802D01*
X126203540Y-133888619D01*
X126104182Y-133932489D01*
X126101907Y-133934765D01*
X126099260Y-133935861D01*
X126098526Y-133936364D01*
X126098419Y-133936209D01*
X126049580Y-133956435D01*
X126015990Y-133948370D01*
X125966504Y-133923156D01*
X125841200Y-133903310D01*
X125715898Y-133923155D01*
X125602856Y-133980753D01*
X125513151Y-134070458D01*
X125455553Y-134183500D01*
X125453514Y-134196378D01*
X125423921Y-134244669D01*
X125380425Y-134258802D01*
X123965200Y-134258802D01*
X123912874Y-134237128D01*
X123891200Y-134184802D01*
X123891200Y-134000411D01*
X123906491Y-133955363D01*
X123913189Y-133946635D01*
X123934863Y-133894309D01*
X123946700Y-133834802D01*
X123946700Y-128688302D01*
X123968374Y-128635976D01*
X124020700Y-128614302D01*
X127517200Y-128614302D01*
X127537702Y-128610224D01*
X127552138Y-128608802D01*
X128317200Y-128608802D01*
X128369526Y-128630476D01*
G37*
%TD.AperFunction*%
%TD*%
%TA.AperFunction,Conductor*%
%TO.N,Net-(U2-SW)*%
G36*
X96178326Y-131646674D02*
G01*
X96200000Y-131699000D01*
X96200000Y-135445500D01*
X96178326Y-135497826D01*
X96126000Y-135519500D01*
X90624000Y-135519500D01*
X90603498Y-135523578D01*
X90589062Y-135525000D01*
X90574000Y-135525000D01*
X90521674Y-135503326D01*
X90500000Y-135451000D01*
X90500000Y-131699000D01*
X90521674Y-131646674D01*
X90574000Y-131625000D01*
X96126000Y-131625000D01*
X96178326Y-131646674D01*
G37*
%TD.AperFunction*%
%TD*%
%TA.AperFunction,Conductor*%
%TO.N,Net-(J6-Pin_1)*%
G36*
X78293039Y-148619685D02*
G01*
X78338794Y-148672489D01*
X78350000Y-148724000D01*
X78350000Y-152775500D01*
X78330315Y-152842539D01*
X78277511Y-152888294D01*
X78226000Y-152899500D01*
X70804428Y-152899500D01*
X70795582Y-152899184D01*
X70773622Y-152897613D01*
X70595442Y-152884869D01*
X70577931Y-152882351D01*
X70386212Y-152840646D01*
X70369236Y-152835662D01*
X70185390Y-152767090D01*
X70169298Y-152759740D01*
X69997095Y-152665711D01*
X69982210Y-152656146D01*
X69825132Y-152538558D01*
X69811762Y-152526972D01*
X69673027Y-152388237D01*
X69661441Y-152374867D01*
X69543849Y-152217784D01*
X69534288Y-152202904D01*
X69440259Y-152030701D01*
X69432909Y-152014609D01*
X69372091Y-151851551D01*
X69364334Y-151830755D01*
X69359355Y-151813797D01*
X69317647Y-151622063D01*
X69315130Y-151604556D01*
X69300816Y-151404418D01*
X69300500Y-151395572D01*
X69300500Y-148724000D01*
X69320185Y-148656961D01*
X69372989Y-148611206D01*
X69424500Y-148600000D01*
X78226000Y-148600000D01*
X78293039Y-148619685D01*
G37*
%TD.AperFunction*%
%TD*%
%TA.AperFunction,Conductor*%
%TO.N,+3.3V*%
G36*
X96228326Y-124076674D02*
G01*
X96250000Y-124129000D01*
X96250000Y-127855000D01*
X101626000Y-127855000D01*
X101678326Y-127876674D01*
X101700000Y-127929000D01*
X101700000Y-128776592D01*
X101678326Y-128828918D01*
X101629808Y-128877435D01*
X101572210Y-128990477D01*
X101552365Y-129115779D01*
X101572210Y-129241080D01*
X101572210Y-129241081D01*
X101572211Y-129241083D01*
X101629807Y-129354121D01*
X101629808Y-129354122D01*
X101678326Y-129402640D01*
X101700000Y-129454966D01*
X101700000Y-129550000D01*
X100350000Y-130400000D01*
X100555000Y-130605000D01*
X90574000Y-130605000D01*
X90521674Y-130583326D01*
X90500000Y-130531000D01*
X90500000Y-124129000D01*
X90521674Y-124076674D01*
X90574000Y-124055000D01*
X96176000Y-124055000D01*
X96228326Y-124076674D01*
G37*
%TD.AperFunction*%
%TD*%
%TA.AperFunction,Conductor*%
%TO.N,GND*%
G36*
X125543039Y-139919685D02*
G01*
X125588794Y-139972489D01*
X125600000Y-140024000D01*
X125600000Y-142776000D01*
X125580315Y-142843039D01*
X125527511Y-142888794D01*
X125476000Y-142900000D01*
X121674000Y-142900000D01*
X121606961Y-142880315D01*
X121561206Y-142827511D01*
X121550000Y-142776000D01*
X121550000Y-140024000D01*
X121569685Y-139956961D01*
X121622489Y-139911206D01*
X121674000Y-139900000D01*
X125476000Y-139900000D01*
X125543039Y-139919685D01*
G37*
%TD.AperFunction*%
%TD*%
%TA.AperFunction,Conductor*%
%TO.N,+24V*%
G36*
X81193039Y-144069685D02*
G01*
X81238794Y-144122489D01*
X81250000Y-144174000D01*
X81250000Y-148000000D01*
X81950000Y-148700000D01*
X88376000Y-148700000D01*
X88443039Y-148719685D01*
X88488794Y-148772489D01*
X88500000Y-148824000D01*
X88500000Y-152775500D01*
X88480315Y-152842539D01*
X88427511Y-152888294D01*
X88376000Y-152899500D01*
X78674000Y-152899500D01*
X78606961Y-152879815D01*
X78561206Y-152827011D01*
X78550000Y-152775500D01*
X78550000Y-144174000D01*
X78569685Y-144106961D01*
X78622489Y-144061206D01*
X78674000Y-144050000D01*
X81126000Y-144050000D01*
X81193039Y-144069685D01*
G37*
%TD.AperFunction*%
%TD*%
%TA.AperFunction,Conductor*%
%TO.N,+24V*%
G36*
X102878326Y-119376674D02*
G01*
X102900000Y-119429000D01*
X102900000Y-122431000D01*
X102878326Y-122483326D01*
X102826000Y-122505000D01*
X102355382Y-122505000D01*
X102308227Y-122485467D01*
X102307475Y-122486448D01*
X102303817Y-122483641D01*
X102303056Y-122483326D01*
X102302161Y-122482370D01*
X102237835Y-122433012D01*
X102237831Y-122433010D01*
X102185511Y-122411338D01*
X102185501Y-122411335D01*
X102145654Y-122403409D01*
X102126000Y-122399500D01*
X102125998Y-122399500D01*
X100758799Y-122399500D01*
X100725205Y-122391435D01*
X100675304Y-122366009D01*
X100675302Y-122366008D01*
X100675301Y-122366008D01*
X100550000Y-122346163D01*
X100424698Y-122366008D01*
X100424696Y-122366008D01*
X100424696Y-122366009D01*
X100374794Y-122391435D01*
X100341201Y-122399500D01*
X100243434Y-122399500D01*
X100209839Y-122391435D01*
X100166502Y-122369354D01*
X100041198Y-122349508D01*
X99915893Y-122369354D01*
X99872557Y-122391435D01*
X99838962Y-122399500D01*
X99674000Y-122399500D01*
X99657131Y-122402855D01*
X99614498Y-122411335D01*
X99614488Y-122411338D01*
X99562173Y-122433008D01*
X99562156Y-122433016D01*
X99527013Y-122453305D01*
X99527011Y-122453307D01*
X99478012Y-122517164D01*
X99478010Y-122517168D01*
X99456338Y-122569488D01*
X99456335Y-122569498D01*
X99444500Y-122629001D01*
X99444500Y-122781000D01*
X99422826Y-122833326D01*
X99370500Y-122855000D01*
X96524000Y-122855000D01*
X96471674Y-122833326D01*
X96450000Y-122781000D01*
X96450000Y-119429000D01*
X96471674Y-119376674D01*
X96524000Y-119355000D01*
X102826000Y-119355000D01*
X102878326Y-119376674D01*
G37*
%TD.AperFunction*%
%TD*%
%TA.AperFunction,Conductor*%
%TO.N,GND*%
G36*
X99472826Y-134896674D02*
G01*
X99494500Y-134949000D01*
X99494500Y-135000998D01*
X99506335Y-135060501D01*
X99506338Y-135060511D01*
X99528008Y-135112826D01*
X99528016Y-135112843D01*
X99548305Y-135147986D01*
X99548307Y-135147988D01*
X99548308Y-135147989D01*
X99612167Y-135196989D01*
X99664493Y-135218663D01*
X99724000Y-135230500D01*
X99888962Y-135230500D01*
X99922557Y-135238565D01*
X99965894Y-135260646D01*
X100091198Y-135280492D01*
X100216502Y-135260646D01*
X100259839Y-135238565D01*
X100293434Y-135230500D01*
X100388962Y-135230500D01*
X100422557Y-135238565D01*
X100465894Y-135260646D01*
X100591198Y-135280492D01*
X100716502Y-135260646D01*
X100759839Y-135238565D01*
X100793434Y-135230500D01*
X102175998Y-135230500D01*
X102176000Y-135230500D01*
X102235507Y-135218663D01*
X102287833Y-135196989D01*
X102322989Y-135176692D01*
X102340439Y-135153951D01*
X102389489Y-135125633D01*
X102399147Y-135125000D01*
X102576000Y-135125000D01*
X102628326Y-135146674D01*
X102650000Y-135199000D01*
X102650000Y-136251000D01*
X102628326Y-136303326D01*
X102576000Y-136325000D01*
X102099999Y-136325000D01*
X102082172Y-136342827D01*
X102029849Y-136364500D01*
X101986627Y-136364500D01*
X101962340Y-136367317D01*
X101862983Y-136411187D01*
X101786187Y-136487983D01*
X101742318Y-136587337D01*
X101739500Y-136611630D01*
X101739500Y-137038372D01*
X101742317Y-137062659D01*
X101786188Y-137162018D01*
X101789060Y-137166211D01*
X101800747Y-137221629D01*
X101793943Y-137241623D01*
X101764354Y-137299695D01*
X101744508Y-137425000D01*
X101764353Y-137550301D01*
X101764353Y-137550302D01*
X101764354Y-137550304D01*
X101821950Y-137663342D01*
X101911658Y-137753050D01*
X102024696Y-137810646D01*
X102037574Y-137812685D01*
X102085865Y-137842275D01*
X102100000Y-137885774D01*
X102100000Y-139301000D01*
X102078326Y-139353326D01*
X102026000Y-139375000D01*
X101841609Y-139375000D01*
X101796561Y-139359708D01*
X101787833Y-139353011D01*
X101787831Y-139353010D01*
X101735511Y-139331338D01*
X101735501Y-139331335D01*
X101695654Y-139323409D01*
X101676000Y-139319500D01*
X101675998Y-139319500D01*
X96529500Y-139319500D01*
X96477174Y-139297826D01*
X96455500Y-139245500D01*
X96455500Y-135749000D01*
X96451422Y-135728498D01*
X96450000Y-135714062D01*
X96450000Y-134949000D01*
X96471674Y-134896674D01*
X96524000Y-134875000D01*
X99420500Y-134875000D01*
X99472826Y-134896674D01*
G37*
%TD.AperFunction*%
%TD*%
%TA.AperFunction,Conductor*%
%TO.N,+5V*%
G36*
X96278326Y-135696674D02*
G01*
X96300000Y-135749000D01*
X96300000Y-139475000D01*
X101676000Y-139475000D01*
X101728326Y-139496674D01*
X101750000Y-139549000D01*
X101750000Y-141300000D01*
X95700000Y-142000000D01*
X95725000Y-142025000D01*
X90624000Y-142025000D01*
X90571674Y-142003326D01*
X90550000Y-141951000D01*
X90550000Y-135749000D01*
X90571674Y-135696674D01*
X90624000Y-135675000D01*
X96226000Y-135675000D01*
X96278326Y-135696674D01*
G37*
%TD.AperFunction*%
%TD*%
%TA.AperFunction,Conductor*%
%TO.N,GND*%
G36*
X84343039Y-133569685D02*
G01*
X84388794Y-133622489D01*
X84400000Y-133674000D01*
X84400000Y-136426000D01*
X84380315Y-136493039D01*
X84327511Y-136538794D01*
X84276000Y-136550000D01*
X80474000Y-136550000D01*
X80406961Y-136530315D01*
X80361206Y-136477511D01*
X80350000Y-136426000D01*
X80350000Y-133674000D01*
X80369685Y-133606961D01*
X80422489Y-133561206D01*
X80474000Y-133550000D01*
X84276000Y-133550000D01*
X84343039Y-133569685D01*
G37*
%TD.AperFunction*%
%TD*%
%TA.AperFunction,Conductor*%
%TO.N,GND*%
G36*
X117993039Y-131469685D02*
G01*
X118038794Y-131522489D01*
X118050000Y-131574000D01*
X118050000Y-135370500D01*
X118030315Y-135437539D01*
X117977511Y-135483294D01*
X117926000Y-135494500D01*
X115174000Y-135494500D01*
X115106961Y-135474815D01*
X115061206Y-135422011D01*
X115050000Y-135370500D01*
X115050000Y-131574000D01*
X115069685Y-131506961D01*
X115122489Y-131461206D01*
X115174000Y-131450000D01*
X117926000Y-131450000D01*
X117993039Y-131469685D01*
G37*
%TD.AperFunction*%
%TD*%
%TA.AperFunction,Conductor*%
%TO.N,+5V*%
G36*
X121243039Y-135669685D02*
G01*
X121288794Y-135722489D01*
X121300000Y-135774000D01*
X121300000Y-143276000D01*
X121280315Y-143343039D01*
X121227511Y-143388794D01*
X121176000Y-143400000D01*
X110349999Y-143400000D01*
X107886319Y-145863681D01*
X107824996Y-145897166D01*
X107798638Y-145900000D01*
X99651362Y-145900000D01*
X99584323Y-145880315D01*
X99563681Y-145863681D01*
X95725000Y-142025000D01*
X95700000Y-142000000D01*
X101750000Y-141300000D01*
X104500000Y-144050000D01*
X106074967Y-144050000D01*
X106131261Y-144063514D01*
X106174696Y-144085646D01*
X106174697Y-144085646D01*
X106174699Y-144085647D01*
X106299997Y-144105492D01*
X106300000Y-144105492D01*
X106300003Y-144105492D01*
X106425300Y-144085647D01*
X106425301Y-144085647D01*
X106425302Y-144085646D01*
X106425304Y-144085646D01*
X106468738Y-144063514D01*
X106525033Y-144050000D01*
X106599999Y-144050000D01*
X106600000Y-144050000D01*
X106612329Y-143980954D01*
X106623913Y-143946460D01*
X106628048Y-143938343D01*
X106628050Y-143938342D01*
X106685646Y-143825304D01*
X106685647Y-143825300D01*
X106705492Y-143700003D01*
X106705492Y-143699998D01*
X106688551Y-143593038D01*
X106688954Y-143551852D01*
X108081750Y-135752202D01*
X108112913Y-135689667D01*
X108172938Y-135653907D01*
X108203819Y-135650000D01*
X121176000Y-135650000D01*
X121243039Y-135669685D01*
G37*
%TD.AperFunction*%
%TD*%
%TA.AperFunction,Conductor*%
%TO.N,+24V*%
G36*
X102928326Y-130996674D02*
G01*
X102950000Y-131049000D01*
X102950000Y-134051000D01*
X102928326Y-134103326D01*
X102876000Y-134125000D01*
X102405382Y-134125000D01*
X102358227Y-134105467D01*
X102357475Y-134106448D01*
X102353817Y-134103641D01*
X102353056Y-134103326D01*
X102352161Y-134102370D01*
X102287835Y-134053012D01*
X102287831Y-134053010D01*
X102235511Y-134031338D01*
X102235501Y-134031335D01*
X102195654Y-134023409D01*
X102176000Y-134019500D01*
X102175998Y-134019500D01*
X100808799Y-134019500D01*
X100775205Y-134011435D01*
X100725304Y-133986009D01*
X100725302Y-133986008D01*
X100725301Y-133986008D01*
X100600000Y-133966163D01*
X100474698Y-133986008D01*
X100474696Y-133986008D01*
X100474696Y-133986009D01*
X100424794Y-134011435D01*
X100391201Y-134019500D01*
X100293434Y-134019500D01*
X100259839Y-134011435D01*
X100216502Y-133989354D01*
X100091198Y-133969508D01*
X99965893Y-133989354D01*
X99922557Y-134011435D01*
X99888962Y-134019500D01*
X99724000Y-134019500D01*
X99707131Y-134022855D01*
X99664498Y-134031335D01*
X99664488Y-134031338D01*
X99612173Y-134053008D01*
X99612156Y-134053016D01*
X99577013Y-134073305D01*
X99577011Y-134073307D01*
X99528012Y-134137164D01*
X99528010Y-134137168D01*
X99506338Y-134189488D01*
X99506335Y-134189498D01*
X99494500Y-134249001D01*
X99494500Y-134401000D01*
X99472826Y-134453326D01*
X99420500Y-134475000D01*
X96574000Y-134475000D01*
X96521674Y-134453326D01*
X96500000Y-134401000D01*
X96500000Y-131049000D01*
X96521674Y-130996674D01*
X96574000Y-130975000D01*
X102876000Y-130975000D01*
X102928326Y-130996674D01*
G37*
%TD.AperFunction*%
%TD*%
%TA.AperFunction,Conductor*%
%TO.N,Net-(U2-SW)*%
G36*
X102228326Y-134196674D02*
G01*
X102250000Y-134249000D01*
X102250000Y-135001000D01*
X102228326Y-135053326D01*
X102176000Y-135075000D01*
X99724000Y-135075000D01*
X99671674Y-135053326D01*
X99650000Y-135001000D01*
X99650000Y-134249000D01*
X99671674Y-134196674D01*
X99724000Y-134175000D01*
X102176000Y-134175000D01*
X102228326Y-134196674D01*
G37*
%TD.AperFunction*%
%TD*%
%TA.AperFunction,Conductor*%
%TO.N,GND*%
G36*
X78350000Y-148276000D02*
G01*
X78330315Y-148343039D01*
X78277511Y-148388794D01*
X78226000Y-148400000D01*
X69424500Y-148400000D01*
X69357461Y-148380315D01*
X69311706Y-148327511D01*
X69300500Y-148276000D01*
X69300500Y-144174000D01*
X69320185Y-144106961D01*
X69372989Y-144061206D01*
X69424500Y-144050000D01*
X75600000Y-144050000D01*
X78350000Y-144050000D01*
X78350000Y-148276000D01*
G37*
%TD.AperFunction*%
%TD*%
%TA.AperFunction,Conductor*%
%TO.N,Net-(U3-SW)*%
G36*
X102178326Y-122576674D02*
G01*
X102200000Y-122629000D01*
X102200000Y-123381000D01*
X102178326Y-123433326D01*
X102126000Y-123455000D01*
X99674000Y-123455000D01*
X99621674Y-123433326D01*
X99600000Y-123381000D01*
X99600000Y-122629000D01*
X99621674Y-122576674D01*
X99674000Y-122555000D01*
X102126000Y-122555000D01*
X102178326Y-122576674D01*
G37*
%TD.AperFunction*%
%TD*%
%TA.AperFunction,Conductor*%
%TO.N,+5V_ZYNQ*%
G36*
X127569526Y-119030476D02*
G01*
X127591200Y-119082802D01*
X127591200Y-128384802D01*
X127569526Y-128437128D01*
X127517200Y-128458802D01*
X123791200Y-128458802D01*
X123791200Y-133834802D01*
X123769526Y-133887128D01*
X123717200Y-133908802D01*
X121315200Y-133908802D01*
X121262874Y-133887128D01*
X121241200Y-133834802D01*
X121241200Y-119082802D01*
X121262874Y-119030476D01*
X121315200Y-119008802D01*
X127517200Y-119008802D01*
X127569526Y-119030476D01*
G37*
%TD.AperFunction*%
%TD*%
%TA.AperFunction,Conductor*%
%TO.N,GND*%
G36*
X110843039Y-131469685D02*
G01*
X110888794Y-131522489D01*
X110900000Y-131574000D01*
X110900000Y-135370500D01*
X110880315Y-135437539D01*
X110827511Y-135483294D01*
X110776000Y-135494500D01*
X108374000Y-135494500D01*
X108306961Y-135474815D01*
X108261206Y-135422011D01*
X108250000Y-135370500D01*
X108250000Y-131574000D01*
X108269685Y-131506961D01*
X108322489Y-131461206D01*
X108374000Y-131450000D01*
X110776000Y-131450000D01*
X110843039Y-131469685D01*
G37*
%TD.AperFunction*%
%TD*%
M02*
