M48
; DRILL file {KiCad 8.0.1} date 2026-01-15T09:53:00-0500
; FORMAT={-:-/ absolute / inch / decimal}
; #@! TF.CreationDate,2026-01-15T09:53:00-05:00
; #@! TF.GenerationSoftware,Kicad,Pcbnew,8.0.1
; #@! TF.FileFunction,Plated,1,4,PTH
FMAT,2
INCH
; #@! TA.AperFunction,Plated,PTH,ViaDrill
T1C0.0079
; #@! TA.AperFunction,Plated,PTH,ComponentDrill
T2C0.0394
; #@! TA.AperFunction,Plated,PTH,ComponentDrill
T3C0.0551
%
G90
G05
T1
X2.8051Y-2.6299
X2.8051Y-2.6791
X2.8071Y-3.1791
X2.8071Y-3.4291
X2.8071Y-3.5787
X2.8071Y-3.6791
X2.8071Y-3.9291
X2.8071Y-4.2795
X2.8091Y-3.628
X2.8622Y-5.3622
X2.874Y-2.4171
X2.874Y-5.3898
X2.876Y-4.8465
X2.876Y-5.1299
X2.8957Y-2.4941
X2.9134Y-5.0787
X2.9134Y-5.3524
X2.9291Y-2.3976
X2.9449Y-2.9803
X2.9449Y-3.0295
X2.9449Y-3.0807
X2.9469Y-3.1319
X2.9469Y-3.2283
X2.9508Y-3.3858
X2.9508Y-3.4803
X2.9528Y-3.2953
X2.9528Y-3.3386
X2.9528Y-3.5315
X2.9528Y-4.2185
X2.9547Y-3.5787
X2.9547Y-3.7067
X2.9547Y-3.7697
X2.9547Y-3.8228
X2.9547Y-3.9547
X2.9547Y-4.0157
X2.9547Y-4.313
X2.9547Y-4.3642
X2.9547Y-4.4154
X2.9557Y-4.1742
X2.9567Y-3.878
X2.9567Y-4.0689
X2.9567Y-4.1142
X2.9587Y-2.7559
X2.9606Y-3.4488
X2.9665Y-3.2047
X3.0965Y-2.8287
X3.0965Y-2.8795
X3.0965Y-2.9291
X3.0965Y-2.998
X3.0965Y-3.9724
X3.0965Y-4.0374
X3.0984Y-3.065
X3.0984Y-3.126
X3.0984Y-4.2795
X3.1004Y-3.6575
X3.1004Y-4.0906
X3.1021Y-3.1789
X3.1024Y-4.1358
X3.1024Y-4.1929
X3.1024Y-4.2402
X3.1025Y-3.7166
X3.1043Y-3.2539
X3.1043Y-3.3189
X3.1043Y-3.374
X3.1043Y-4.3346
X3.1043Y-4.3858
X3.1043Y-4.437
X3.1063Y-3.5
X3.1063Y-3.8484
X3.1063Y-3.9154
X3.1102Y-3.4272
X3.1105Y-3.7699
X3.124Y-3.6043
X3.1713Y-4.4685
X3.1752Y-4.9783
X3.1752Y-5.0728
X3.1772Y-5.2697
X3.1772Y-5.3642
X3.1772Y-6.0079
X3.2028Y-6.0079
X3.2283Y-6.0079
X3.2402Y-4.9783
X3.2402Y-5.0728
X3.2421Y-5.2697
X3.2421Y-5.3642
X3.2539Y-6.0079
X3.2795Y-6.0079
X3.3051Y-6.0079
X3.3071Y-4.9783
X3.3071Y-5.0728
X3.3091Y-5.2697
X3.3091Y-5.3642
X3.3307Y-6.0079
X3.3563Y-6.0079
X3.3819Y-6.0079
X3.3878Y-4.9783
X3.3878Y-5.0728
X3.3898Y-5.2697
X3.3898Y-5.3642
X3.4075Y-6.0079
X3.4331Y-6.0079
X3.4528Y-4.9783
X3.4528Y-5.0728
X3.4547Y-5.2697
X3.4547Y-5.3642
X3.4587Y-6.0079
X3.5197Y-4.9783
X3.5197Y-5.0728
X3.5217Y-5.2697
X3.5217Y-5.3642
X3.5575Y-3.0482
X3.561Y-3.0
X3.561Y-2.0965
X3.561Y-2.1358
X3.561Y-2.1752
X3.561Y-2.2146
X3.561Y-2.2539
X3.561Y-2.2933
X3.561Y-2.3327
X3.561Y-2.372
X3.561Y-2.4114
X3.561Y-2.4508
X3.561Y-2.4902
X3.561Y-2.5295
X3.561Y-2.5689
X3.561Y-2.6083
X3.561Y-2.6476
X3.561Y-2.687
X3.561Y-2.7264
X3.561Y-2.7657
X3.561Y-2.8051
X3.561Y-2.8445
X3.561Y-2.8839
X3.561Y-2.9232
X3.561Y-2.9626
X3.561Y-3.3957
X3.561Y-3.435
X3.561Y-3.4744
X3.561Y-3.5138
X3.561Y-3.5531
X3.561Y-3.5925
X3.561Y-3.6319
X3.561Y-3.6713
X3.561Y-3.7106
X3.561Y-3.75
X3.561Y-3.7894
X3.561Y-3.8287
X3.561Y-3.8681
X3.561Y-3.9075
X3.561Y-3.9469
X3.561Y-3.9862
X3.561Y-4.0256
X3.561Y-4.065
X3.561Y-4.1043
X3.561Y-4.1437
X3.561Y-4.1831
X3.561Y-4.2224
X3.561Y-4.2618
X3.561Y-4.3012
X3.561Y-4.3406
X3.5787Y-4.8644
X3.5807Y-5.3219
X3.5827Y-5.1102
X3.5886Y-5.5177
X3.5984Y-4.8644
X3.6004Y-5.3219
X3.6181Y-4.8644
X3.6201Y-5.3219
X3.6378Y-4.8644
X3.6398Y-5.3219
X3.6575Y-4.8644
X3.6594Y-5.3219
X3.6772Y-4.8644
X3.6791Y-5.3219
X3.6969Y-4.8644
X3.6988Y-5.3219
X3.7165Y-4.8644
X3.7185Y-5.3219
X3.7362Y-4.8644
X3.7382Y-5.3219
X3.7559Y-4.8644
X3.7579Y-5.3219
X3.7756Y-4.8644
X3.7776Y-5.3219
X3.8071Y-5.012
X3.8091Y-5.4695
X3.815Y-4.7185
X3.8169Y-5.1772
X3.8268Y-4.7421
X3.8287Y-5.2008
X3.8307Y-5.012
X3.8327Y-5.4695
X3.8406Y-4.7185
X3.8425Y-5.1772
X3.8524Y-4.7421
X3.8543Y-5.012
X3.8543Y-5.2008
X3.8563Y-5.4695
X3.8661Y-4.7185
X3.8681Y-5.1772
X3.878Y-4.7421
X3.878Y-5.012
X3.8799Y-5.2008
X3.8799Y-5.4695
X3.8917Y-4.7185
X3.8937Y-5.1772
X3.8957Y-4.9844
X3.8976Y-5.4419
X3.9016Y-5.012
X3.9035Y-5.4695
X3.9173Y-4.7185
X3.9193Y-4.9844
X3.9193Y-5.1772
X3.9213Y-5.4419
X3.9252Y-5.012
X3.9272Y-5.4695
X3.9386Y-4.8329
X3.9386Y-4.8526
X3.9406Y-5.2904
X3.9406Y-5.31
X3.9429Y-4.7185
X3.9429Y-4.9844
X3.9449Y-5.1772
X3.9449Y-5.4419
X3.9583Y-4.8526
X3.9587Y-4.8327
X3.9603Y-5.31
X3.9606Y-5.2902
X3.9665Y-4.9844
X3.9685Y-5.4419
X4.0141Y-5.0833
X4.0197Y-4.953
X4.0217Y-5.4104
X4.0395Y-5.5129
X4.1043Y-4.9274
X4.1063Y-5.3848
X4.128Y-4.8061
X4.1299Y-5.2636
X4.1437Y-4.7156
X4.1457Y-5.173
X4.183Y-2.1161
X4.183Y-2.1555
X4.183Y-2.1949
X4.183Y-2.2343
X4.183Y-2.2736
X4.183Y-2.313
X4.183Y-2.3524
X4.183Y-2.3917
X4.183Y-2.4311
X4.183Y-2.4705
X4.183Y-2.5098
X4.183Y-2.5492
X4.183Y-2.5886
X4.183Y-2.628
X4.183Y-2.6673
X4.183Y-2.7067
X4.183Y-2.7461
X4.183Y-2.7854
X4.183Y-2.8248
X4.183Y-2.8642
X4.183Y-2.9035
X4.183Y-2.9429
X4.183Y-2.9823
X4.183Y-3.0217
X4.183Y-3.061
X4.183Y-3.4154
X4.183Y-3.4547
X4.183Y-3.4941
X4.183Y-3.5335
X4.183Y-3.5728
X4.183Y-3.6122
X4.183Y-3.6516
X4.183Y-3.6909
X4.183Y-3.7303
X4.183Y-3.7697
X4.183Y-3.8091
X4.183Y-3.8484
X4.183Y-3.8878
X4.183Y-3.9272
X4.183Y-3.9665
X4.183Y-4.0059
X4.183Y-4.0453
X4.183Y-4.0846
X4.183Y-4.124
X4.183Y-4.1634
X4.183Y-4.2028
X4.183Y-4.2421
X4.183Y-4.2815
X4.183Y-4.3209
X4.183Y-4.3602
X4.1831Y-4.9469
X4.1831Y-4.9665
X4.1831Y-4.9862
X4.1831Y-5.0059
X4.1831Y-5.0256
X4.1831Y-5.2028
X4.1831Y-5.2224
X4.1831Y-5.3996
X4.1831Y-5.4193
X4.1831Y-5.439
X4.1831Y-5.4587
X4.1831Y-5.4783
X4.1841Y-4.8878
X4.1841Y-4.9075
X4.1841Y-4.9272
X4.1841Y-5.1437
X4.1841Y-5.1634
X4.1841Y-5.1831
X4.1841Y-5.3406
X4.1841Y-5.3602
X4.1841Y-5.3799
X4.185Y-4.6929
X4.185Y-4.7126
X4.185Y-4.7323
X4.185Y-4.752
X4.185Y-4.7717
X4.185Y-4.7913
X4.185Y-4.811
X4.185Y-4.8307
X4.185Y-4.8504
X4.185Y-5.5197
X4.185Y-5.5394
X4.185Y-5.5591
X4.185Y-5.5787
X4.185Y-5.5984
X4.185Y-5.6181
X4.185Y-5.6378
X4.185Y-5.6575
X4.2776Y-5.1063
X4.2795Y-5.3524
X4.2795Y-5.378
X4.3031Y-5.1063
X4.3051Y-5.3524
X4.3051Y-5.378
X4.3287Y-5.1063
X4.3307Y-5.3524
X4.3307Y-5.378
X4.3543Y-5.1063
X4.3543Y-5.189
X4.3543Y-5.2559
X4.3543Y-5.3209
X4.3563Y-4.7343
X4.3563Y-4.8012
X4.3563Y-4.8661
X4.3661Y-4.998
X4.3661Y-5.0256
X4.3661Y-5.0531
X4.3661Y-5.0807
X4.3799Y-5.1063
X4.5413Y-4.7343
X4.5413Y-4.8012
X4.5413Y-4.8661
X4.5413Y-5.189
X4.5413Y-5.2559
X4.5413Y-5.3209
X4.6358Y-4.7343
X4.6358Y-4.8012
X4.6358Y-4.8661
X4.6358Y-5.189
X4.6358Y-5.2559
X4.6358Y-5.3209
X4.7992Y-5.5197
X4.7992Y-5.6142
X4.8028Y-5.1618
X4.8028Y-5.1854
X4.8028Y-5.209
X4.8028Y-5.2346
X4.8146Y-5.2563
X4.8382Y-5.2563
X4.8524Y-5.3051
X4.8619Y-5.2563
X4.8661Y-5.5197
X4.8661Y-5.6142
X4.8839Y-3.3504
X4.8867Y-3.9145
X4.887Y-3.9743
X4.8875Y-3.2262
X4.8876Y-3.4763
X4.8878Y-3.4213
X4.8885Y-4.0236
X4.8898Y-3.2756
X4.8898Y-3.5276
X4.8898Y-3.7756
X4.8898Y-4.1732
X4.8898Y-4.2264
X4.8898Y-4.2756
X4.8898Y-4.4252
X4.8898Y-4.4764
X4.8898Y-4.5256
X4.8898Y-4.5787
X4.8915Y-3.6751
X4.8917Y-3.1752
X4.8917Y-3.7244
X4.8917Y-4.1122
X4.8917Y-4.3287
X4.8917Y-4.374
X4.8937Y-3.5768
X4.8937Y-3.6122
X4.8937Y-4.0768
X4.8953Y-5.0751
X4.8953Y-5.0988
X4.8953Y-5.1224
X4.8953Y-5.146
X4.8953Y-5.1696
X4.8953Y-5.1933
X4.8957Y-2.628
X4.8957Y-2.6791
X4.8957Y-3.0787
X4.8957Y-3.3248
X4.8967Y-3.8632
X4.8976Y-3.8287
X4.9229Y-5.1637
X4.9229Y-5.1874
X4.9229Y-5.211
X4.9229Y-5.2346
X4.9311Y-5.5197
X4.9311Y-5.6142
X4.9544Y-5.2877
X4.98Y-5.3724
X5.0335Y-3.5059
X5.0335Y-3.5531
X5.0354Y-3.4035
X5.0354Y-3.4547
X5.0354Y-3.6535
X5.0354Y-3.7028
X5.0354Y-3.7539
X5.0354Y-3.8031
X5.0354Y-3.9035
X5.0354Y-3.9547
X5.0354Y-4.002
X5.0354Y-4.0531
X5.0354Y-4.1535
X5.0374Y-2.8799
X5.0374Y-2.9311
X5.0374Y-3.2539
X5.0374Y-4.2047
X5.0374Y-4.2539
X5.0374Y-4.3031
X5.0374Y-4.4035
X5.0374Y-4.4528
X5.0374Y-4.5039
X5.0374Y-4.5531
X5.0394Y-3.2047
X5.0394Y-3.3051
X5.0413Y-3.0965
X5.043Y-4.8468
X5.043Y-4.8665
X5.043Y-4.8862
X5.043Y-4.9059
X5.043Y-4.9255
X5.043Y-4.9452
X5.043Y-4.9649
X5.043Y-4.9846
X5.043Y-5.0043
X5.043Y-5.024
X5.043Y-5.0437
X5.0433Y-3.1654
X5.0548Y-5.2067
X5.0548Y-5.2264
X5.0745Y-5.2067
X5.0746Y-5.2267
X5.1012Y-5.396
X5.1752Y-5.4094
X5.1831Y-3.3799
X5.1831Y-3.6299
X5.1831Y-4.128
X5.185Y-3.1299
X5.187Y-4.3799
X5.1888Y-2.9785
X5.1909Y-3.0295
X5.1949Y-3.0827
X5.2126Y-3.002
X5.2559Y-3.0728
T2
X3.6654Y-5.8341
X3.6654Y-5.9341
X4.4772Y-5.8858
X4.5772Y-5.8858
X4.6772Y-5.8858
X4.7772Y-5.8858
X4.8772Y-5.8858
X4.9772Y-5.8858
X5.0772Y-5.8858
X5.1772Y-5.8858
T3
X2.8233Y-5.7696
X2.8233Y-5.9074
X2.9217Y-5.7696
X2.9217Y-5.9074
M30
