%TF.GenerationSoftware,KiCad,Pcbnew,8.0.1*%
%TF.CreationDate,2026-01-16T21:33:13-05:00*%
%TF.ProjectId,Modular MiYR interface,4d6f6475-6c61-4722-904d-69595220696e,rev?*%
%TF.SameCoordinates,Original*%
%TF.FileFunction,Copper,L3,Inr*%
%TF.FilePolarity,Positive*%
%FSLAX46Y46*%
G04 Gerber Fmt 4.6, Leading zero omitted, Abs format (unit mm)*
G04 Created by KiCad (PCBNEW 8.0.1) date 2026-01-16 21:33:13*
%MOMM*%
%LPD*%
G01*
G04 APERTURE LIST*
%TA.AperFunction,ComponentPad*%
%ADD10R,2.200000X2.200000*%
%TD*%
%TA.AperFunction,ComponentPad*%
%ADD11C,2.200000*%
%TD*%
%TA.AperFunction,ComponentPad*%
%ADD12R,1.700000X1.700000*%
%TD*%
%TA.AperFunction,ComponentPad*%
%ADD13O,1.700000X1.700000*%
%TD*%
%TA.AperFunction,ViaPad*%
%ADD14C,0.500000*%
%TD*%
%TA.AperFunction,Conductor*%
%ADD15C,0.200000*%
%TD*%
G04 APERTURE END LIST*
D10*
%TO.N,Net-(J6-Pin_1)*%
%TO.C,J6*%
X74211000Y-150049000D03*
D11*
X71711000Y-150049000D03*
%TO.N,GND*%
X74211000Y-146549000D03*
X71711000Y-146549000D03*
%TD*%
D12*
%TO.N,+5V*%
%TO.C,M1*%
X93100000Y-150725000D03*
D13*
%TO.N,GND*%
X93100000Y-148185000D03*
%TD*%
D12*
%TO.N,+24V*%
%TO.C,J7*%
X113720000Y-149500000D03*
D13*
%TO.N,/ZYNQ_24V_BUCK_SUPPLY*%
X116260000Y-149500000D03*
%TO.N,GND*%
X118800000Y-149500000D03*
%TO.N,+5V_ZYNQ*%
X121340000Y-149500000D03*
%TO.N,POWER_FAIL*%
X123880000Y-149500000D03*
%TO.N,POWER_OFF*%
X126420000Y-149500000D03*
%TO.N,POWER_AUX_0*%
X128960000Y-149500000D03*
%TO.N,POWER_AUX_1*%
X131500000Y-149500000D03*
%TD*%
D14*
%TO.N,L_23*%
X79350000Y-91550000D03*
%TO.N,L_33*%
X75050000Y-100450000D03*
%TO.N,L_24*%
X78750000Y-92900000D03*
%TO.N,L_35*%
X75050000Y-102000000D03*
%TO.N,L_38*%
X78750000Y-103900000D03*
%TO.N,L_25*%
X75050000Y-94150000D03*
%TO.N,L_8*%
X74800000Y-78250000D03*
%TO.N,L_49*%
X75050000Y-112150000D03*
%TO.N,L_5*%
X78650000Y-76150000D03*
%TO.N,LED_G*%
X73000000Y-61393781D03*
X71300000Y-90900000D03*
%TO.N,GND*%
X106249450Y-103749999D03*
X106249450Y-71749999D03*
X125250000Y-142600000D03*
X106249450Y-68749999D03*
X90450000Y-109250000D03*
X131650000Y-92200000D03*
X106249450Y-96749999D03*
X90450000Y-75250000D03*
X124350000Y-66750000D03*
X80700000Y-133850000D03*
X106275001Y-125150002D03*
X106249450Y-102749999D03*
X105250000Y-119775000D03*
X124400000Y-97250000D03*
X106249450Y-65749999D03*
X131750000Y-111250000D03*
X71250000Y-68050000D03*
X73050000Y-130300000D03*
X84050000Y-133850000D03*
X106249450Y-59749999D03*
X106249450Y-60749999D03*
X106249450Y-76749999D03*
X90450000Y-98250000D03*
X82300000Y-126450000D03*
X115350000Y-131800000D03*
X90450000Y-58250000D03*
X106249450Y-87749999D03*
X90450000Y-71250000D03*
X90450000Y-104250000D03*
X110650000Y-123600000D03*
X90450000Y-94250000D03*
X106249450Y-56749999D03*
X71300000Y-93450000D03*
X115350000Y-123600000D03*
X80700000Y-136250000D03*
X106249450Y-109749999D03*
X90450000Y-91250000D03*
X99100000Y-127305000D03*
X123600000Y-142600000D03*
X106275001Y-135650002D03*
X106249450Y-58749999D03*
X124341200Y-131908802D03*
X106275001Y-131150002D03*
X106249450Y-63749999D03*
X106249450Y-95749999D03*
X90450000Y-96250000D03*
X131450000Y-137400000D03*
X90450000Y-63250000D03*
X115350000Y-120250000D03*
X106250000Y-138150000D03*
X82350000Y-136250000D03*
X106249450Y-99749999D03*
X124300000Y-90850000D03*
X117750000Y-131800000D03*
X131700000Y-79500000D03*
X110600000Y-135150000D03*
X82300000Y-128850000D03*
X106249450Y-62749999D03*
X90450000Y-95250000D03*
X125041200Y-132958802D03*
X125041200Y-132358802D03*
X124300000Y-103550000D03*
X106250000Y-132150000D03*
X90450000Y-69250000D03*
X106249450Y-61749999D03*
X99150000Y-138925000D03*
X90450000Y-73250000D03*
X90450000Y-86250000D03*
X80650000Y-128850000D03*
X115350000Y-135150000D03*
X90450000Y-68250000D03*
X73050000Y-123100000D03*
X84000000Y-128850000D03*
X106249450Y-92749999D03*
X106249450Y-100749999D03*
X106249450Y-108749999D03*
X102603909Y-140028909D03*
X117750000Y-133500000D03*
X90361179Y-77424506D03*
X90450000Y-110250000D03*
X124250000Y-109950000D03*
X90450000Y-65250000D03*
X100200000Y-138225000D03*
X106249450Y-107749999D03*
X71300000Y-99800000D03*
X71300000Y-108700000D03*
X90450000Y-60250000D03*
X100150000Y-126605000D03*
X106249450Y-72749999D03*
X106249450Y-54749999D03*
X106249450Y-105749999D03*
X123250000Y-134750000D03*
X115350000Y-121950000D03*
X90450000Y-89250000D03*
X90450000Y-70250000D03*
X90450000Y-62250000D03*
X124341200Y-130108802D03*
X100750000Y-126605000D03*
X131650000Y-104850000D03*
X106250000Y-137650000D03*
X106249450Y-77749999D03*
X96750000Y-138925000D03*
X106249450Y-90749999D03*
X97350000Y-138925000D03*
X99550000Y-126605000D03*
X106249450Y-106749999D03*
X90450000Y-55250000D03*
X82350000Y-133850000D03*
X106250000Y-139150000D03*
X90450000Y-102250000D03*
X123600000Y-140200000D03*
X106250000Y-137150000D03*
X106250000Y-132650000D03*
X106249450Y-98749999D03*
X90450000Y-72250000D03*
X106249450Y-94749999D03*
X90450000Y-56250000D03*
X90450000Y-105250000D03*
X71300000Y-87100000D03*
X90450000Y-100250000D03*
X106250000Y-126650000D03*
X90450000Y-88250000D03*
X90450000Y-74250000D03*
X71250000Y-66800000D03*
X106249450Y-67749999D03*
X90450000Y-99250000D03*
X98550000Y-138925000D03*
X90450000Y-107250000D03*
X90450000Y-92250000D03*
X124341200Y-128908802D03*
X110600000Y-133500000D03*
X74000000Y-129000000D03*
X106249450Y-91749999D03*
X124200000Y-116300000D03*
X124350000Y-84450000D03*
X106249450Y-101749999D03*
X117750000Y-135150000D03*
X131650000Y-85850000D03*
X75350000Y-81400000D03*
X90450000Y-64250000D03*
X90450000Y-59250000D03*
X106249450Y-53749999D03*
X106249450Y-55749999D03*
X106275001Y-124150002D03*
X105300000Y-131395000D03*
X97300000Y-127305000D03*
X96700000Y-127305000D03*
X124350000Y-78200000D03*
X90450000Y-57250000D03*
X121900000Y-140200000D03*
X106250000Y-127650000D03*
X97950000Y-138925000D03*
X125041200Y-131158802D03*
X106250000Y-125650000D03*
X106249450Y-89749999D03*
X106275001Y-130650002D03*
X117750000Y-121950000D03*
X74000000Y-135950000D03*
X117750000Y-120250000D03*
X106250000Y-138650000D03*
X106249450Y-110749999D03*
X124341200Y-130708802D03*
X106249450Y-104749999D03*
X124341200Y-131308802D03*
X90450000Y-61250000D03*
X90450000Y-108250000D03*
X97900000Y-127305000D03*
X84000000Y-126450000D03*
X110650000Y-120250000D03*
X110600000Y-131800000D03*
X106249450Y-69749999D03*
X106275001Y-136650002D03*
X80650000Y-126450000D03*
X75200000Y-87600000D03*
X90450000Y-53250000D03*
X106249450Y-88749999D03*
X90450000Y-106250000D03*
X117750000Y-123600000D03*
X73000000Y-136900000D03*
X106249450Y-75749999D03*
X71300000Y-80750000D03*
X90450000Y-93250000D03*
X90450000Y-67250000D03*
X78700000Y-108700000D03*
X110650000Y-121950000D03*
X90450000Y-101250000D03*
X125041200Y-131758802D03*
X90450000Y-87250000D03*
X84050000Y-136250000D03*
X99750000Y-138925000D03*
X106249450Y-73749999D03*
X106250000Y-127150000D03*
X121900000Y-142600000D03*
X106249450Y-86749999D03*
X106249450Y-74749999D03*
X98500000Y-127305000D03*
X99600000Y-138225000D03*
X106275001Y-131650002D03*
X100800000Y-138225000D03*
X106249450Y-97749999D03*
X106249450Y-70749999D03*
X124350000Y-68050000D03*
X90450000Y-66250000D03*
X106249450Y-64749999D03*
X90450000Y-90250000D03*
X124341200Y-129508802D03*
X90450000Y-54250000D03*
X99000000Y-138225000D03*
X106249450Y-57749999D03*
X106249450Y-93749999D03*
X99700000Y-127305000D03*
X106249450Y-66749999D03*
X106275001Y-136150002D03*
X98950000Y-126605000D03*
X125250000Y-140200000D03*
X115350000Y-133500000D03*
X106275001Y-124650002D03*
X90450000Y-103250000D03*
X106250000Y-126150000D03*
X90448558Y-76200230D03*
X101957857Y-129115779D03*
X90450000Y-97250000D03*
%TO.N,L_12*%
X74850000Y-82000000D03*
%TO.N,+5V_ZYNQ*%
X123491200Y-133508802D03*
X121991200Y-132308802D03*
X122891200Y-133508802D03*
X121991200Y-131108802D03*
X121991200Y-132958802D03*
X122291200Y-133508802D03*
X121991200Y-131708802D03*
%TO.N,LED_B*%
X73550000Y-63350000D03*
X71350000Y-92150000D03*
%TO.N,R_49*%
X80550000Y-113500000D03*
%TO.N,L_37*%
X75100000Y-103350000D03*
%TO.N,L_44*%
X78800000Y-107700000D03*
%TO.N,L_28*%
X79005636Y-95755636D03*
%TO.N,L_18*%
X74950000Y-86000000D03*
%TO.N,L_39*%
X75100000Y-104500000D03*
%TO.N,LED_R*%
X74400000Y-60900000D03*
X75050000Y-90900000D03*
%TO.N,L_48*%
X78850000Y-111400000D03*
%TO.N,L_4*%
X74800000Y-75700000D03*
%TO.N,L_34*%
X78650000Y-100900000D03*
%TO.N,L_1*%
X78650000Y-71850000D03*
%TO.N,L_36*%
X78650000Y-102550000D03*
%TO.N,L_3*%
X78650000Y-74400000D03*
%TO.N,L_45*%
X75050000Y-109550000D03*
%TO.N,L_42*%
X78800000Y-106500000D03*
%TO.N,L_29*%
X75050000Y-97100000D03*
%TO.N,L_20*%
X74950000Y-88400000D03*
%TO.N,L_11*%
X78792372Y-80744915D03*
%TO.N,L_10*%
X74850000Y-79550000D03*
%TO.N,R_48*%
X78850000Y-112700000D03*
%TO.N,L_9*%
X78700000Y-79400000D03*
%TO.N,L_30*%
X78900000Y-97750000D03*
%TO.N,L_13*%
X78850000Y-82650000D03*
%TO.N,L_16*%
X75000000Y-84800000D03*
%TO.N,L_43*%
X75000000Y-107150000D03*
%TO.N,L_15*%
X78850000Y-84300000D03*
%TO.N,L_2*%
X78650000Y-73140000D03*
%TO.N,L_7*%
X78700000Y-77850000D03*
%TO.N,L_0*%
X75150000Y-70000000D03*
%TO.N,L_27*%
X75050000Y-95750000D03*
%TO.N,L_6*%
X74800000Y-76950000D03*
%TO.N,L_47*%
X75050000Y-110850000D03*
%TO.N,L_19*%
X79000000Y-87050000D03*
%TO.N,L_17*%
X78850000Y-85700000D03*
%TO.N,L_22*%
X75000000Y-89700000D03*
%TO.N,L_40*%
X78800000Y-105050000D03*
%TO.N,L_32*%
X78900000Y-99450000D03*
%TO.N,L_41*%
X75075000Y-106025000D03*
%TO.N,L_46*%
X78850000Y-110100000D03*
%TO.N,L_21*%
X78900000Y-88900000D03*
%TO.N,L_26*%
X78802818Y-94402818D03*
%TO.N,L_14*%
X75000000Y-83700000D03*
%TO.N,L_31*%
X75100000Y-98500000D03*
%TO.N,R_4*%
X124143596Y-81944357D03*
%TO.N,R_30*%
X124168496Y-102200000D03*
%TO.N,R_42*%
X124200000Y-112400000D03*
%TO.N,R_25*%
X127900000Y-99150000D03*
%TO.N,R_11*%
X127900000Y-87750000D03*
%TO.N,R_16*%
X124300000Y-91750000D03*
%TO.N,R_21*%
X127900000Y-95350000D03*
%TO.N,R_45*%
X127950000Y-114400000D03*
%TO.N,R_15*%
X127850000Y-90250000D03*
%TO.N,R_35*%
X127950000Y-106800000D03*
%TO.N,R_41*%
X127950000Y-111850000D03*
%TO.N,R_0*%
X128050000Y-78650000D03*
%TO.N,R_10*%
X124150000Y-86900000D03*
%TO.N,R_28*%
X124130222Y-100946641D03*
%TO.N,R_1*%
X128100000Y-80400000D03*
%TO.N,R_14*%
X124200000Y-89600000D03*
%TO.N,R_39*%
X127950000Y-109300000D03*
%TO.N,R_37*%
X127950000Y-108050000D03*
%TO.N,R_18*%
X124245273Y-93347271D03*
%TO.N,R_19*%
X127900000Y-94050000D03*
%TO.N,R_7*%
X128000000Y-83950000D03*
%TO.N,R_32*%
X124250000Y-104450000D03*
%TO.N,R_47*%
X127950000Y-115650000D03*
%TO.N,R_3*%
X128000000Y-81400000D03*
%TO.N,R_40*%
X124250000Y-111100000D03*
%TO.N,R_26*%
X124122182Y-99427818D03*
%TO.N,R_9*%
X127900000Y-86450000D03*
%TO.N,R_2*%
X124250000Y-80650000D03*
%TO.N,R_29*%
X127900000Y-101650000D03*
%TO.N,R_8*%
X124050000Y-85100000D03*
%TO.N,R_36*%
X124200000Y-107350000D03*
%TO.N,R_17*%
X127900000Y-92800000D03*
%TO.N,R_23*%
X127900000Y-96600000D03*
%TO.N,R_46*%
X124200000Y-114950000D03*
%TO.N,R_38*%
X124200000Y-108600000D03*
%TO.N,R_33*%
X127900000Y-105500000D03*
%TO.N,R_43*%
X127950000Y-113100000D03*
%TO.N,R_24*%
X124375000Y-98125000D03*
%TO.N,R_5*%
X127950000Y-82650000D03*
%TO.N,R_34*%
X124200000Y-106000000D03*
%TO.N,R_6*%
X124200000Y-83200000D03*
%TO.N,R_20*%
X124250000Y-94600000D03*
%TO.N,R_27*%
X127900000Y-100450000D03*
%TO.N,R_22*%
X124200000Y-95900000D03*
%TO.N,R_44*%
X124200000Y-113700000D03*
%TO.N,R_12*%
X124145273Y-88297271D03*
%TO.N,R_31*%
X127900000Y-102950000D03*
%TO.N,R_13*%
X127850000Y-89050000D03*
%TO.N,+24V*%
X106300000Y-122200000D03*
X106300000Y-141700000D03*
X100200000Y-131500000D03*
X106300000Y-121200000D03*
X86050000Y-128850000D03*
X106300000Y-119700000D03*
X106300000Y-142700000D03*
X84600000Y-152600000D03*
X82000000Y-152600000D03*
X106300000Y-143200000D03*
X98200000Y-119850000D03*
X98500000Y-120450000D03*
X96900000Y-119850000D03*
X87200000Y-152600000D03*
X86550000Y-152600000D03*
X106300000Y-141200000D03*
X97550000Y-119850000D03*
X106300000Y-140200000D03*
X98550000Y-132100000D03*
X100150000Y-119850000D03*
X106300000Y-122700000D03*
X97850000Y-120450000D03*
X81350000Y-152600000D03*
X87750000Y-136250000D03*
X106300000Y-142200000D03*
X106300000Y-121700000D03*
X106300000Y-143700000D03*
X89400000Y-128850000D03*
X97900000Y-132100000D03*
X83950000Y-152600000D03*
X87850000Y-152600000D03*
X99500000Y-119850000D03*
X96950000Y-131500000D03*
X106300000Y-120700000D03*
X80700000Y-152600000D03*
X106300000Y-140700000D03*
X89400000Y-126450000D03*
X98900000Y-131500000D03*
X97200000Y-120450000D03*
X89450000Y-136250000D03*
X106300000Y-119200000D03*
X97600000Y-131500000D03*
X85900000Y-152600000D03*
X85250000Y-152600000D03*
X89450000Y-133850000D03*
X98250000Y-131500000D03*
X106300000Y-120200000D03*
X99550000Y-131500000D03*
X87700000Y-126450000D03*
X87700000Y-128850000D03*
X86100000Y-133850000D03*
X86050000Y-126450000D03*
X83300000Y-152600000D03*
X98850000Y-119850000D03*
X86100000Y-136250000D03*
X97250000Y-132100000D03*
X106300000Y-123200000D03*
X82650000Y-152600000D03*
X87750000Y-133850000D03*
X72700000Y-136200000D03*
%TO.N,+5V*%
X108700000Y-135950000D03*
X110000000Y-135950000D03*
X110000000Y-136600000D03*
X109350000Y-135950000D03*
X108700000Y-136600000D03*
X109350000Y-136600000D03*
X91150000Y-140150000D03*
%TO.N,+3.3V*%
X108650000Y-129700000D03*
X109300000Y-129700000D03*
X111250000Y-129700000D03*
X91000000Y-129800000D03*
X110900000Y-126950000D03*
X109950000Y-129700000D03*
X110900000Y-129050000D03*
X110600000Y-129700000D03*
X110900000Y-127650000D03*
X110900000Y-128350000D03*
%TO.N,Net-(U1-SW)*%
X128891200Y-132250000D03*
X128091200Y-123608802D03*
X128391200Y-132250000D03*
X128091200Y-128108802D03*
X128091200Y-124608802D03*
X128091200Y-124108802D03*
X128091200Y-126608802D03*
X128894545Y-132758802D03*
X128091200Y-125108802D03*
X128391200Y-132750000D03*
X128091200Y-126108802D03*
X125841200Y-134308802D03*
X128091200Y-127608802D03*
X128091200Y-125608802D03*
X128091200Y-123108802D03*
X128091200Y-127108802D03*
%TO.N,Net-(U1-FB)*%
X126491200Y-136458802D03*
X129571200Y-137058802D03*
%TO.N,Net-(U2-SW)*%
X93450000Y-135175000D03*
X91450000Y-135175000D03*
X92450000Y-135175000D03*
X100091198Y-134875000D03*
X90950000Y-135175000D03*
X93950000Y-135175000D03*
X95950000Y-135175000D03*
X95450000Y-135175000D03*
X92950000Y-135175000D03*
X100591198Y-134875000D03*
X102150000Y-137425000D03*
X100600000Y-134371655D03*
X94950000Y-135175000D03*
X91950000Y-135175000D03*
X100091198Y-134375000D03*
X94450000Y-135175000D03*
%TO.N,Net-(U3-SW)*%
X100541198Y-123255000D03*
X92400000Y-123555000D03*
X100041198Y-123255000D03*
X91900000Y-123555000D03*
X102100000Y-125805000D03*
X90900000Y-123555000D03*
X95400000Y-123555000D03*
X100041198Y-122755000D03*
X94900000Y-123555000D03*
X94400000Y-123555000D03*
X95900000Y-123555000D03*
X92900000Y-123555000D03*
X93900000Y-123555000D03*
X100550000Y-122751655D03*
X91400000Y-123555000D03*
X93400000Y-123555000D03*
%TO.N,Net-(U2-FB)*%
X104900000Y-133695000D03*
X104300000Y-136775000D03*
%TO.N,Net-(U3-FB)*%
X104250000Y-125155000D03*
X104850000Y-122075000D03*
%TO.N,POWER_FAIL*%
X127950000Y-73150000D03*
X132400000Y-76250000D03*
%TO.N,POWER_OFF*%
X127950000Y-74450000D03*
X131796446Y-75653554D03*
%TO.N,POWER_AUX_0*%
X131850000Y-76950000D03*
X133500000Y-78050000D03*
%TO.N,POWER_AUX_1*%
X131950000Y-78300000D03*
%TD*%
D15*
%TO.N,Net-(U1-SW)*%
X128391200Y-132750000D02*
X127400002Y-132750000D01*
X127400002Y-132750000D02*
X125841200Y-134308802D01*
%TO.N,Net-(U2-SW)*%
X100591198Y-135866198D02*
X102150000Y-137425000D01*
X100591198Y-134875000D02*
X100591198Y-135866198D01*
%TO.N,Net-(U3-SW)*%
X100541198Y-124246198D02*
X102100000Y-125805000D01*
X100541198Y-123255000D02*
X100541198Y-124246198D01*
%TD*%
%TA.AperFunction,Conductor*%
%TO.N,Net-(U1-SW)*%
G36*
X129619526Y-122680476D02*
G01*
X129641200Y-122732802D01*
X129641200Y-132934802D01*
X129619526Y-132987128D01*
X129567200Y-133008802D01*
X127815200Y-133008802D01*
X127762874Y-132987128D01*
X127741200Y-132934802D01*
X127741200Y-122732802D01*
X127762874Y-122680476D01*
X127815200Y-122658802D01*
X129567200Y-122658802D01*
X129619526Y-122680476D01*
G37*
%TD.AperFunction*%
%TD*%
%TA.AperFunction,Conductor*%
%TO.N,+24V*%
G36*
X133792539Y-118719685D02*
G01*
X133838294Y-118772489D01*
X133849500Y-118824000D01*
X133849500Y-151395572D01*
X133849184Y-151404419D01*
X133834869Y-151604557D01*
X133832351Y-151622068D01*
X133790646Y-151813787D01*
X133785662Y-151830763D01*
X133717090Y-152014609D01*
X133709740Y-152030701D01*
X133615711Y-152202904D01*
X133606146Y-152217789D01*
X133488558Y-152374867D01*
X133476972Y-152388237D01*
X133338237Y-152526972D01*
X133324867Y-152538558D01*
X133167789Y-152656146D01*
X133152904Y-152665711D01*
X132980701Y-152759740D01*
X132964609Y-152767090D01*
X132780763Y-152835662D01*
X132763787Y-152840646D01*
X132572068Y-152882351D01*
X132554557Y-152884869D01*
X132373779Y-152897799D01*
X132354417Y-152899184D01*
X132345572Y-152899500D01*
X70804428Y-152899500D01*
X70795582Y-152899184D01*
X70773622Y-152897613D01*
X70595442Y-152884869D01*
X70577931Y-152882351D01*
X70386212Y-152840646D01*
X70369236Y-152835662D01*
X70185390Y-152767090D01*
X70169298Y-152759740D01*
X69997095Y-152665711D01*
X69982210Y-152656146D01*
X69825132Y-152538558D01*
X69811762Y-152526972D01*
X69673027Y-152388237D01*
X69661441Y-152374867D01*
X69543849Y-152217784D01*
X69534288Y-152202904D01*
X69440259Y-152030701D01*
X69432909Y-152014609D01*
X69372091Y-151851551D01*
X69364334Y-151830755D01*
X69359355Y-151813797D01*
X69317647Y-151622063D01*
X69315130Y-151604556D01*
X69314076Y-151589822D01*
X92099499Y-151589822D01*
X92108231Y-151633717D01*
X92108232Y-151633721D01*
X92108233Y-151633722D01*
X92141496Y-151683504D01*
X92191278Y-151716767D01*
X92191281Y-151716767D01*
X92191282Y-151716768D01*
X92235177Y-151725500D01*
X92235180Y-151725500D01*
X93964822Y-151725500D01*
X94008717Y-151716768D01*
X94008717Y-151716767D01*
X94008722Y-151716767D01*
X94058504Y-151683504D01*
X94091767Y-151633722D01*
X94100500Y-151589820D01*
X94100500Y-149860180D01*
X94100500Y-149860177D01*
X94091768Y-149816282D01*
X94091767Y-149816281D01*
X94091767Y-149816278D01*
X94058504Y-149766496D01*
X94058503Y-149766495D01*
X94008724Y-149733234D01*
X94008717Y-149733231D01*
X93964822Y-149724500D01*
X93964820Y-149724500D01*
X92235180Y-149724500D01*
X92235178Y-149724500D01*
X92191282Y-149733231D01*
X92191275Y-149733234D01*
X92141496Y-149766495D01*
X92141495Y-149766496D01*
X92108234Y-149816275D01*
X92108231Y-149816282D01*
X92099500Y-149860177D01*
X92099500Y-149860180D01*
X92099500Y-151589820D01*
X92099500Y-151589822D01*
X92099499Y-151589822D01*
X69314076Y-151589822D01*
X69300816Y-151404418D01*
X69300500Y-151395572D01*
X69300500Y-150049002D01*
X70455723Y-150049002D01*
X70474793Y-150266975D01*
X70474793Y-150266979D01*
X70531422Y-150478322D01*
X70531424Y-150478326D01*
X70531425Y-150478330D01*
X70577661Y-150577484D01*
X70623897Y-150676638D01*
X70623898Y-150676639D01*
X70749402Y-150855877D01*
X70904123Y-151010598D01*
X71083361Y-151136102D01*
X71281670Y-151228575D01*
X71493023Y-151285207D01*
X71675926Y-151301208D01*
X71710998Y-151304277D01*
X71711000Y-151304277D01*
X71711002Y-151304277D01*
X71739254Y-151301805D01*
X71928977Y-151285207D01*
X72140330Y-151228575D01*
X72338639Y-151136102D01*
X72517877Y-151010598D01*
X72672598Y-150855877D01*
X72734926Y-150766862D01*
X72789502Y-150723239D01*
X72859000Y-150716046D01*
X72921355Y-150747568D01*
X72956769Y-150807798D01*
X72960500Y-150837987D01*
X72960500Y-151163820D01*
X72960500Y-151163822D01*
X72960499Y-151163822D01*
X72969231Y-151207717D01*
X72969234Y-151207724D01*
X73002495Y-151257503D01*
X73002496Y-151257504D01*
X73052278Y-151290767D01*
X73052281Y-151290767D01*
X73052282Y-151290768D01*
X73096177Y-151299500D01*
X73096180Y-151299500D01*
X75325822Y-151299500D01*
X75369717Y-151290768D01*
X75369717Y-151290767D01*
X75369722Y-151290767D01*
X75419504Y-151257504D01*
X75452767Y-151207722D01*
X75461500Y-151163820D01*
X75461500Y-149500000D01*
X115254659Y-149500000D01*
X115273975Y-149696129D01*
X115331188Y-149884733D01*
X115424086Y-150058532D01*
X115424090Y-150058539D01*
X115549116Y-150210883D01*
X115701460Y-150335909D01*
X115701467Y-150335913D01*
X115875266Y-150428811D01*
X115875269Y-150428811D01*
X115875273Y-150428814D01*
X116063868Y-150486024D01*
X116260000Y-150505341D01*
X116456132Y-150486024D01*
X116644727Y-150428814D01*
X116818538Y-150335910D01*
X116970883Y-150210883D01*
X117095910Y-150058538D01*
X117188814Y-149884727D01*
X117246024Y-149696132D01*
X117265341Y-149500000D01*
X117794659Y-149500000D01*
X117813975Y-149696129D01*
X117871188Y-149884733D01*
X117964086Y-150058532D01*
X117964090Y-150058539D01*
X118089116Y-150210883D01*
X118241460Y-150335909D01*
X118241467Y-150335913D01*
X118415266Y-150428811D01*
X118415269Y-150428811D01*
X118415273Y-150428814D01*
X118603868Y-150486024D01*
X118800000Y-150505341D01*
X118996132Y-150486024D01*
X119184727Y-150428814D01*
X119358538Y-150335910D01*
X119510883Y-150210883D01*
X119635910Y-150058538D01*
X119728814Y-149884727D01*
X119786024Y-149696132D01*
X119805341Y-149500000D01*
X120334659Y-149500000D01*
X120353975Y-149696129D01*
X120411188Y-149884733D01*
X120504086Y-150058532D01*
X120504090Y-150058539D01*
X120629116Y-150210883D01*
X120781460Y-150335909D01*
X120781467Y-150335913D01*
X120955266Y-150428811D01*
X120955269Y-150428811D01*
X120955273Y-150428814D01*
X121143868Y-150486024D01*
X121340000Y-150505341D01*
X121536132Y-150486024D01*
X121724727Y-150428814D01*
X121898538Y-150335910D01*
X122050883Y-150210883D01*
X122175910Y-150058538D01*
X122268814Y-149884727D01*
X122326024Y-149696132D01*
X122345341Y-149500000D01*
X122874659Y-149500000D01*
X122893975Y-149696129D01*
X122951188Y-149884733D01*
X123044086Y-150058532D01*
X123044090Y-150058539D01*
X123169116Y-150210883D01*
X123321460Y-150335909D01*
X123321467Y-150335913D01*
X123495266Y-150428811D01*
X123495269Y-150428811D01*
X123495273Y-150428814D01*
X123683868Y-150486024D01*
X123880000Y-150505341D01*
X124076132Y-150486024D01*
X124264727Y-150428814D01*
X124438538Y-150335910D01*
X124590883Y-150210883D01*
X124715910Y-150058538D01*
X124808814Y-149884727D01*
X124866024Y-149696132D01*
X124885341Y-149500000D01*
X125414659Y-149500000D01*
X125433975Y-149696129D01*
X125491188Y-149884733D01*
X125584086Y-150058532D01*
X125584090Y-150058539D01*
X125709116Y-150210883D01*
X125861460Y-150335909D01*
X125861467Y-150335913D01*
X126035266Y-150428811D01*
X126035269Y-150428811D01*
X126035273Y-150428814D01*
X126223868Y-150486024D01*
X126420000Y-150505341D01*
X126616132Y-150486024D01*
X126804727Y-150428814D01*
X126978538Y-150335910D01*
X127130883Y-150210883D01*
X127255910Y-150058538D01*
X127348814Y-149884727D01*
X127406024Y-149696132D01*
X127425341Y-149500000D01*
X127954659Y-149500000D01*
X127973975Y-149696129D01*
X128031188Y-149884733D01*
X128124086Y-150058532D01*
X128124090Y-150058539D01*
X128249116Y-150210883D01*
X128401460Y-150335909D01*
X128401467Y-150335913D01*
X128575266Y-150428811D01*
X128575269Y-150428811D01*
X128575273Y-150428814D01*
X128763868Y-150486024D01*
X128960000Y-150505341D01*
X129156132Y-150486024D01*
X129344727Y-150428814D01*
X129518538Y-150335910D01*
X129670883Y-150210883D01*
X129795910Y-150058538D01*
X129888814Y-149884727D01*
X129946024Y-149696132D01*
X129965341Y-149500000D01*
X130494659Y-149500000D01*
X130513975Y-149696129D01*
X130571188Y-149884733D01*
X130664086Y-150058532D01*
X130664090Y-150058539D01*
X130789116Y-150210883D01*
X130941460Y-150335909D01*
X130941467Y-150335913D01*
X131115266Y-150428811D01*
X131115269Y-150428811D01*
X131115273Y-150428814D01*
X131303868Y-150486024D01*
X131500000Y-150505341D01*
X131696132Y-150486024D01*
X131884727Y-150428814D01*
X132058538Y-150335910D01*
X132210883Y-150210883D01*
X132335910Y-150058538D01*
X132428814Y-149884727D01*
X132486024Y-149696132D01*
X132505341Y-149500000D01*
X132486024Y-149303868D01*
X132428814Y-149115273D01*
X132428811Y-149115269D01*
X132428811Y-149115266D01*
X132335913Y-148941467D01*
X132335909Y-148941460D01*
X132210883Y-148789116D01*
X132058539Y-148664090D01*
X132058532Y-148664086D01*
X131884733Y-148571188D01*
X131884727Y-148571186D01*
X131696132Y-148513976D01*
X131696129Y-148513975D01*
X131500000Y-148494659D01*
X131303870Y-148513975D01*
X131115266Y-148571188D01*
X130941467Y-148664086D01*
X130941460Y-148664090D01*
X130789116Y-148789116D01*
X130664090Y-148941460D01*
X130664086Y-148941467D01*
X130571188Y-149115266D01*
X130513975Y-149303870D01*
X130494659Y-149500000D01*
X129965341Y-149500000D01*
X129946024Y-149303868D01*
X129888814Y-149115273D01*
X129888811Y-149115269D01*
X129888811Y-149115266D01*
X129795913Y-148941467D01*
X129795909Y-148941460D01*
X129670883Y-148789116D01*
X129518539Y-148664090D01*
X129518532Y-148664086D01*
X129344733Y-148571188D01*
X129344727Y-148571186D01*
X129156132Y-148513976D01*
X129156129Y-148513975D01*
X128960000Y-148494659D01*
X128763870Y-148513975D01*
X128575266Y-148571188D01*
X128401467Y-148664086D01*
X128401460Y-148664090D01*
X128249116Y-148789116D01*
X128124090Y-148941460D01*
X128124086Y-148941467D01*
X128031188Y-149115266D01*
X127973975Y-149303870D01*
X127954659Y-149500000D01*
X127425341Y-149500000D01*
X127406024Y-149303868D01*
X127348814Y-149115273D01*
X127348811Y-149115269D01*
X127348811Y-149115266D01*
X127255913Y-148941467D01*
X127255909Y-148941460D01*
X127130883Y-148789116D01*
X126978539Y-148664090D01*
X126978532Y-148664086D01*
X126804733Y-148571188D01*
X126804727Y-148571186D01*
X126616132Y-148513976D01*
X126616129Y-148513975D01*
X126420000Y-148494659D01*
X126223870Y-148513975D01*
X126035266Y-148571188D01*
X125861467Y-148664086D01*
X125861460Y-148664090D01*
X125709116Y-148789116D01*
X125584090Y-148941460D01*
X125584086Y-148941467D01*
X125491188Y-149115266D01*
X125433975Y-149303870D01*
X125414659Y-149500000D01*
X124885341Y-149500000D01*
X124866024Y-149303868D01*
X124808814Y-149115273D01*
X124808811Y-149115269D01*
X124808811Y-149115266D01*
X124715913Y-148941467D01*
X124715909Y-148941460D01*
X124590883Y-148789116D01*
X124438539Y-148664090D01*
X124438532Y-148664086D01*
X124264733Y-148571188D01*
X124264727Y-148571186D01*
X124076132Y-148513976D01*
X124076129Y-148513975D01*
X123880000Y-148494659D01*
X123683870Y-148513975D01*
X123495266Y-148571188D01*
X123321467Y-148664086D01*
X123321460Y-148664090D01*
X123169116Y-148789116D01*
X123044090Y-148941460D01*
X123044086Y-148941467D01*
X122951188Y-149115266D01*
X122893975Y-149303870D01*
X122874659Y-149500000D01*
X122345341Y-149500000D01*
X122326024Y-149303868D01*
X122268814Y-149115273D01*
X122268811Y-149115269D01*
X122268811Y-149115266D01*
X122175913Y-148941467D01*
X122175909Y-148941460D01*
X122050883Y-148789116D01*
X121898539Y-148664090D01*
X121898532Y-148664086D01*
X121724733Y-148571188D01*
X121724727Y-148571186D01*
X121536132Y-148513976D01*
X121536129Y-148513975D01*
X121340000Y-148494659D01*
X121143870Y-148513975D01*
X120955266Y-148571188D01*
X120781467Y-148664086D01*
X120781460Y-148664090D01*
X120629116Y-148789116D01*
X120504090Y-148941460D01*
X120504086Y-148941467D01*
X120411188Y-149115266D01*
X120353975Y-149303870D01*
X120334659Y-149500000D01*
X119805341Y-149500000D01*
X119786024Y-149303868D01*
X119728814Y-149115273D01*
X119728811Y-149115269D01*
X119728811Y-149115266D01*
X119635913Y-148941467D01*
X119635909Y-148941460D01*
X119510883Y-148789116D01*
X119358539Y-148664090D01*
X119358532Y-148664086D01*
X119184733Y-148571188D01*
X119184727Y-148571186D01*
X118996132Y-148513976D01*
X118996129Y-148513975D01*
X118800000Y-148494659D01*
X118603870Y-148513975D01*
X118415266Y-148571188D01*
X118241467Y-148664086D01*
X118241460Y-148664090D01*
X118089116Y-148789116D01*
X117964090Y-148941460D01*
X117964086Y-148941467D01*
X117871188Y-149115266D01*
X117813975Y-149303870D01*
X117794659Y-149500000D01*
X117265341Y-149500000D01*
X117246024Y-149303868D01*
X117188814Y-149115273D01*
X117188811Y-149115269D01*
X117188811Y-149115266D01*
X117095913Y-148941467D01*
X117095909Y-148941460D01*
X116970883Y-148789116D01*
X116818539Y-148664090D01*
X116818532Y-148664086D01*
X116644733Y-148571188D01*
X116644727Y-148571186D01*
X116456132Y-148513976D01*
X116456129Y-148513975D01*
X116260000Y-148494659D01*
X116063870Y-148513975D01*
X115875266Y-148571188D01*
X115701467Y-148664086D01*
X115701460Y-148664090D01*
X115549116Y-148789116D01*
X115424090Y-148941460D01*
X115424086Y-148941467D01*
X115331188Y-149115266D01*
X115273975Y-149303870D01*
X115254659Y-149500000D01*
X75461500Y-149500000D01*
X75461500Y-148934180D01*
X75461500Y-148934177D01*
X75452768Y-148890282D01*
X75452767Y-148890281D01*
X75452767Y-148890278D01*
X75419504Y-148840496D01*
X75419503Y-148840495D01*
X75369724Y-148807234D01*
X75369717Y-148807231D01*
X75325822Y-148798500D01*
X75325820Y-148798500D01*
X73096180Y-148798500D01*
X73096178Y-148798500D01*
X73052282Y-148807231D01*
X73052275Y-148807234D01*
X73002496Y-148840495D01*
X73002495Y-148840496D01*
X72969234Y-148890275D01*
X72969231Y-148890282D01*
X72960500Y-148934177D01*
X72960500Y-149260012D01*
X72940815Y-149327051D01*
X72888011Y-149372806D01*
X72818853Y-149382750D01*
X72755297Y-149353725D01*
X72734925Y-149331135D01*
X72672599Y-149242124D01*
X72601499Y-149171024D01*
X72517877Y-149087402D01*
X72338639Y-148961898D01*
X72338640Y-148961898D01*
X72338638Y-148961897D01*
X72197069Y-148895883D01*
X72140330Y-148869425D01*
X72140326Y-148869424D01*
X72140322Y-148869422D01*
X71928977Y-148812793D01*
X71711002Y-148793723D01*
X71710998Y-148793723D01*
X71565682Y-148806436D01*
X71493023Y-148812793D01*
X71493020Y-148812793D01*
X71281677Y-148869422D01*
X71281668Y-148869426D01*
X71083361Y-148961898D01*
X71083357Y-148961900D01*
X70904121Y-149087402D01*
X70749402Y-149242121D01*
X70623900Y-149421357D01*
X70623898Y-149421361D01*
X70531426Y-149619668D01*
X70531422Y-149619677D01*
X70474793Y-149831020D01*
X70474793Y-149831024D01*
X70455723Y-150048997D01*
X70455723Y-150049002D01*
X69300500Y-150049002D01*
X69300500Y-148185000D01*
X92094659Y-148185000D01*
X92113975Y-148381129D01*
X92171188Y-148569733D01*
X92264086Y-148743532D01*
X92264090Y-148743539D01*
X92389116Y-148895883D01*
X92541460Y-149020909D01*
X92541467Y-149020913D01*
X92715266Y-149113811D01*
X92715269Y-149113811D01*
X92715273Y-149113814D01*
X92903868Y-149171024D01*
X93100000Y-149190341D01*
X93296132Y-149171024D01*
X93484727Y-149113814D01*
X93534139Y-149087403D01*
X93658532Y-149020913D01*
X93658538Y-149020910D01*
X93810883Y-148895883D01*
X93935910Y-148743538D01*
X94028814Y-148569727D01*
X94086024Y-148381132D01*
X94105341Y-148185000D01*
X94086024Y-147988868D01*
X94028814Y-147800273D01*
X94028811Y-147800269D01*
X94028811Y-147800266D01*
X93935913Y-147626467D01*
X93935909Y-147626460D01*
X93810883Y-147474116D01*
X93658539Y-147349090D01*
X93658532Y-147349086D01*
X93484733Y-147256188D01*
X93484727Y-147256186D01*
X93296132Y-147198976D01*
X93296129Y-147198975D01*
X93100000Y-147179659D01*
X92903870Y-147198975D01*
X92715266Y-147256188D01*
X92541467Y-147349086D01*
X92541460Y-147349090D01*
X92389116Y-147474116D01*
X92264090Y-147626460D01*
X92264086Y-147626467D01*
X92171188Y-147800266D01*
X92113975Y-147988870D01*
X92094659Y-148185000D01*
X69300500Y-148185000D01*
X69300500Y-146549002D01*
X70455723Y-146549002D01*
X70474793Y-146766975D01*
X70474793Y-146766979D01*
X70531422Y-146978322D01*
X70531424Y-146978326D01*
X70531425Y-146978330D01*
X70548929Y-147015867D01*
X70623897Y-147176638D01*
X70648998Y-147212486D01*
X70749402Y-147355877D01*
X70904123Y-147510598D01*
X71083361Y-147636102D01*
X71281670Y-147728575D01*
X71493023Y-147785207D01*
X71665153Y-147800266D01*
X71710998Y-147804277D01*
X71711000Y-147804277D01*
X71711002Y-147804277D01*
X71739254Y-147801805D01*
X71928977Y-147785207D01*
X72140330Y-147728575D01*
X72338639Y-147636102D01*
X72517877Y-147510598D01*
X72672598Y-147355877D01*
X72798102Y-147176639D01*
X72848618Y-147068306D01*
X72894790Y-147015867D01*
X72961984Y-146996715D01*
X73028865Y-147016931D01*
X73073381Y-147068306D01*
X73123898Y-147176639D01*
X73249402Y-147355877D01*
X73404123Y-147510598D01*
X73583361Y-147636102D01*
X73781670Y-147728575D01*
X73993023Y-147785207D01*
X74165153Y-147800266D01*
X74210998Y-147804277D01*
X74211000Y-147804277D01*
X74211002Y-147804277D01*
X74239254Y-147801805D01*
X74428977Y-147785207D01*
X74640330Y-147728575D01*
X74838639Y-147636102D01*
X75017877Y-147510598D01*
X75172598Y-147355877D01*
X75298102Y-147176639D01*
X75390575Y-146978330D01*
X75447207Y-146766977D01*
X75466277Y-146549000D01*
X75447207Y-146331023D01*
X75390575Y-146119670D01*
X75298102Y-145921362D01*
X75298100Y-145921359D01*
X75298099Y-145921357D01*
X75172599Y-145742124D01*
X75172596Y-145742121D01*
X75017877Y-145587402D01*
X74838639Y-145461898D01*
X74838640Y-145461898D01*
X74838638Y-145461897D01*
X74739484Y-145415661D01*
X74640330Y-145369425D01*
X74640326Y-145369424D01*
X74640322Y-145369422D01*
X74428977Y-145312793D01*
X74211002Y-145293723D01*
X74210998Y-145293723D01*
X74065682Y-145306436D01*
X73993023Y-145312793D01*
X73993020Y-145312793D01*
X73781677Y-145369422D01*
X73781668Y-145369426D01*
X73583361Y-145461898D01*
X73583357Y-145461900D01*
X73404121Y-145587402D01*
X73249402Y-145742121D01*
X73123900Y-145921357D01*
X73123898Y-145921362D01*
X73073382Y-146029693D01*
X73027209Y-146082132D01*
X72960016Y-146101284D01*
X72893135Y-146081068D01*
X72848618Y-146029693D01*
X72841156Y-146013692D01*
X72798102Y-145921362D01*
X72798099Y-145921358D01*
X72798099Y-145921357D01*
X72672599Y-145742124D01*
X72672596Y-145742121D01*
X72517877Y-145587402D01*
X72338639Y-145461898D01*
X72338640Y-145461898D01*
X72338638Y-145461897D01*
X72239484Y-145415661D01*
X72140330Y-145369425D01*
X72140326Y-145369424D01*
X72140322Y-145369422D01*
X71928977Y-145312793D01*
X71711002Y-145293723D01*
X71710998Y-145293723D01*
X71565682Y-145306436D01*
X71493023Y-145312793D01*
X71493020Y-145312793D01*
X71281677Y-145369422D01*
X71281668Y-145369426D01*
X71083361Y-145461898D01*
X71083357Y-145461900D01*
X70904121Y-145587402D01*
X70749402Y-145742121D01*
X70623900Y-145921357D01*
X70623898Y-145921361D01*
X70531426Y-146119668D01*
X70531422Y-146119677D01*
X70474793Y-146331020D01*
X70474793Y-146331024D01*
X70455723Y-146548997D01*
X70455723Y-146549002D01*
X69300500Y-146549002D01*
X69300500Y-142600003D01*
X121494508Y-142600003D01*
X121514352Y-142725300D01*
X121514352Y-142725301D01*
X121514354Y-142725304D01*
X121571950Y-142838342D01*
X121571952Y-142838344D01*
X121571954Y-142838347D01*
X121661652Y-142928045D01*
X121661654Y-142928046D01*
X121661658Y-142928050D01*
X121774696Y-142985646D01*
X121774697Y-142985646D01*
X121774699Y-142985647D01*
X121899997Y-143005492D01*
X121900000Y-143005492D01*
X121900003Y-143005492D01*
X122025300Y-142985647D01*
X122025301Y-142985647D01*
X122025302Y-142985646D01*
X122025304Y-142985646D01*
X122138342Y-142928050D01*
X122228050Y-142838342D01*
X122285646Y-142725304D01*
X122285646Y-142725302D01*
X122285647Y-142725301D01*
X122285647Y-142725300D01*
X122305492Y-142600003D01*
X123194508Y-142600003D01*
X123214352Y-142725300D01*
X123214352Y-142725301D01*
X123214354Y-142725304D01*
X123271950Y-142838342D01*
X123271952Y-142838344D01*
X123271954Y-142838347D01*
X123361652Y-142928045D01*
X123361654Y-142928046D01*
X123361658Y-142928050D01*
X123474696Y-142985646D01*
X123474697Y-142985646D01*
X123474699Y-142985647D01*
X123599997Y-143005492D01*
X123600000Y-143005492D01*
X123600003Y-143005492D01*
X123725300Y-142985647D01*
X123725301Y-142985647D01*
X123725302Y-142985646D01*
X123725304Y-142985646D01*
X123838342Y-142928050D01*
X123928050Y-142838342D01*
X123985646Y-142725304D01*
X123985646Y-142725302D01*
X123985647Y-142725301D01*
X123985647Y-142725300D01*
X124005492Y-142600003D01*
X124844508Y-142600003D01*
X124864352Y-142725300D01*
X124864352Y-142725301D01*
X124864354Y-142725304D01*
X124921950Y-142838342D01*
X124921952Y-142838344D01*
X124921954Y-142838347D01*
X125011652Y-142928045D01*
X125011654Y-142928046D01*
X125011658Y-142928050D01*
X125124696Y-142985646D01*
X125124697Y-142985646D01*
X125124699Y-142985647D01*
X125249997Y-143005492D01*
X125250000Y-143005492D01*
X125250003Y-143005492D01*
X125375300Y-142985647D01*
X125375301Y-142985647D01*
X125375302Y-142985646D01*
X125375304Y-142985646D01*
X125488342Y-142928050D01*
X125578050Y-142838342D01*
X125635646Y-142725304D01*
X125635646Y-142725302D01*
X125635647Y-142725301D01*
X125635647Y-142725300D01*
X125655492Y-142600003D01*
X125655492Y-142599996D01*
X125635647Y-142474699D01*
X125635647Y-142474698D01*
X125635646Y-142474696D01*
X125578050Y-142361658D01*
X125578046Y-142361654D01*
X125578045Y-142361652D01*
X125488347Y-142271954D01*
X125488344Y-142271952D01*
X125488342Y-142271950D01*
X125375304Y-142214354D01*
X125375303Y-142214353D01*
X125375300Y-142214352D01*
X125250003Y-142194508D01*
X125249997Y-142194508D01*
X125124699Y-142214352D01*
X125124698Y-142214352D01*
X125049337Y-142252751D01*
X125011658Y-142271950D01*
X125011657Y-142271951D01*
X125011652Y-142271954D01*
X124921954Y-142361652D01*
X124921951Y-142361657D01*
X124864352Y-142474698D01*
X124864352Y-142474699D01*
X124844508Y-142599996D01*
X124844508Y-142600003D01*
X124005492Y-142600003D01*
X124005492Y-142599996D01*
X123985647Y-142474699D01*
X123985647Y-142474698D01*
X123985646Y-142474696D01*
X123928050Y-142361658D01*
X123928046Y-142361654D01*
X123928045Y-142361652D01*
X123838347Y-142271954D01*
X123838344Y-142271952D01*
X123838342Y-142271950D01*
X123725304Y-142214354D01*
X123725303Y-142214353D01*
X123725300Y-142214352D01*
X123600003Y-142194508D01*
X123599997Y-142194508D01*
X123474699Y-142214352D01*
X123474698Y-142214352D01*
X123399337Y-142252751D01*
X123361658Y-142271950D01*
X123361657Y-142271951D01*
X123361652Y-142271954D01*
X123271954Y-142361652D01*
X123271951Y-142361657D01*
X123214352Y-142474698D01*
X123214352Y-142474699D01*
X123194508Y-142599996D01*
X123194508Y-142600003D01*
X122305492Y-142600003D01*
X122305492Y-142599996D01*
X122285647Y-142474699D01*
X122285647Y-142474698D01*
X122285646Y-142474696D01*
X122228050Y-142361658D01*
X122228046Y-142361654D01*
X122228045Y-142361652D01*
X122138347Y-142271954D01*
X122138344Y-142271952D01*
X122138342Y-142271950D01*
X122025304Y-142214354D01*
X122025303Y-142214353D01*
X122025300Y-142214352D01*
X121900003Y-142194508D01*
X121899997Y-142194508D01*
X121774699Y-142214352D01*
X121774698Y-142214352D01*
X121699337Y-142252751D01*
X121661658Y-142271950D01*
X121661657Y-142271951D01*
X121661652Y-142271954D01*
X121571954Y-142361652D01*
X121571951Y-142361657D01*
X121514352Y-142474698D01*
X121514352Y-142474699D01*
X121494508Y-142599996D01*
X121494508Y-142600003D01*
X69300500Y-142600003D01*
X69300500Y-140150003D01*
X90744508Y-140150003D01*
X90764352Y-140275300D01*
X90764352Y-140275301D01*
X90764354Y-140275304D01*
X90821950Y-140388342D01*
X90821952Y-140388344D01*
X90821954Y-140388347D01*
X90911652Y-140478045D01*
X90911654Y-140478046D01*
X90911658Y-140478050D01*
X91024696Y-140535646D01*
X91024697Y-140535646D01*
X91024699Y-140535647D01*
X91149997Y-140555492D01*
X91150000Y-140555492D01*
X91150003Y-140555492D01*
X91275300Y-140535647D01*
X91275301Y-140535647D01*
X91275302Y-140535646D01*
X91275304Y-140535646D01*
X91388342Y-140478050D01*
X91478050Y-140388342D01*
X91535646Y-140275304D01*
X91535646Y-140275302D01*
X91535647Y-140275301D01*
X91535647Y-140275300D01*
X91555492Y-140150003D01*
X91555492Y-140149996D01*
X91536314Y-140028912D01*
X102198417Y-140028912D01*
X102218261Y-140154209D01*
X102218261Y-140154210D01*
X102218263Y-140154213D01*
X102275859Y-140267251D01*
X102275861Y-140267253D01*
X102275863Y-140267256D01*
X102365561Y-140356954D01*
X102365563Y-140356955D01*
X102365567Y-140356959D01*
X102478605Y-140414555D01*
X102478606Y-140414555D01*
X102478608Y-140414556D01*
X102603906Y-140434401D01*
X102603909Y-140434401D01*
X102603912Y-140434401D01*
X102729209Y-140414556D01*
X102729210Y-140414556D01*
X102729211Y-140414555D01*
X102729213Y-140414555D01*
X102842251Y-140356959D01*
X102931959Y-140267251D01*
X102966224Y-140200003D01*
X121494508Y-140200003D01*
X121514352Y-140325300D01*
X121514352Y-140325301D01*
X121530482Y-140356957D01*
X121571950Y-140438342D01*
X121571952Y-140438344D01*
X121571954Y-140438347D01*
X121661652Y-140528045D01*
X121661654Y-140528046D01*
X121661658Y-140528050D01*
X121774696Y-140585646D01*
X121774697Y-140585646D01*
X121774699Y-140585647D01*
X121899997Y-140605492D01*
X121900000Y-140605492D01*
X121900003Y-140605492D01*
X122025300Y-140585647D01*
X122025301Y-140585647D01*
X122025302Y-140585646D01*
X122025304Y-140585646D01*
X122138342Y-140528050D01*
X122228050Y-140438342D01*
X122285646Y-140325304D01*
X122285646Y-140325302D01*
X122285647Y-140325301D01*
X122285647Y-140325300D01*
X122305492Y-140200003D01*
X123194508Y-140200003D01*
X123214352Y-140325300D01*
X123214352Y-140325301D01*
X123230482Y-140356957D01*
X123271950Y-140438342D01*
X123271952Y-140438344D01*
X123271954Y-140438347D01*
X123361652Y-140528045D01*
X123361654Y-140528046D01*
X123361658Y-140528050D01*
X123474696Y-140585646D01*
X123474697Y-140585646D01*
X123474699Y-140585647D01*
X123599997Y-140605492D01*
X123600000Y-140605492D01*
X123600003Y-140605492D01*
X123725300Y-140585647D01*
X123725301Y-140585647D01*
X123725302Y-140585646D01*
X123725304Y-140585646D01*
X123838342Y-140528050D01*
X123928050Y-140438342D01*
X123985646Y-140325304D01*
X123985646Y-140325302D01*
X123985647Y-140325301D01*
X123985647Y-140325300D01*
X124005492Y-140200003D01*
X124844508Y-140200003D01*
X124864352Y-140325300D01*
X124864352Y-140325301D01*
X124880482Y-140356957D01*
X124921950Y-140438342D01*
X124921952Y-140438344D01*
X124921954Y-140438347D01*
X125011652Y-140528045D01*
X125011654Y-140528046D01*
X125011658Y-140528050D01*
X125124696Y-140585646D01*
X125124697Y-140585646D01*
X125124699Y-140585647D01*
X125249997Y-140605492D01*
X125250000Y-140605492D01*
X125250003Y-140605492D01*
X125375300Y-140585647D01*
X125375301Y-140585647D01*
X125375302Y-140585646D01*
X125375304Y-140585646D01*
X125488342Y-140528050D01*
X125578050Y-140438342D01*
X125635646Y-140325304D01*
X125635646Y-140325302D01*
X125635647Y-140325301D01*
X125635647Y-140325300D01*
X125655492Y-140200003D01*
X125655492Y-140199996D01*
X125635647Y-140074699D01*
X125635647Y-140074698D01*
X125635646Y-140074696D01*
X125578050Y-139961658D01*
X125578046Y-139961654D01*
X125578045Y-139961652D01*
X125488347Y-139871954D01*
X125488344Y-139871952D01*
X125488342Y-139871950D01*
X125375304Y-139814354D01*
X125375303Y-139814353D01*
X125375300Y-139814352D01*
X125250003Y-139794508D01*
X125249997Y-139794508D01*
X125124699Y-139814352D01*
X125124698Y-139814352D01*
X125049337Y-139852751D01*
X125011658Y-139871950D01*
X125011657Y-139871951D01*
X125011652Y-139871954D01*
X124921954Y-139961652D01*
X124921951Y-139961657D01*
X124864352Y-140074698D01*
X124864352Y-140074699D01*
X124844508Y-140199996D01*
X124844508Y-140200003D01*
X124005492Y-140200003D01*
X124005492Y-140199996D01*
X123985647Y-140074699D01*
X123985647Y-140074698D01*
X123985646Y-140074696D01*
X123928050Y-139961658D01*
X123928046Y-139961654D01*
X123928045Y-139961652D01*
X123838347Y-139871954D01*
X123838344Y-139871952D01*
X123838342Y-139871950D01*
X123725304Y-139814354D01*
X123725303Y-139814353D01*
X123725300Y-139814352D01*
X123600003Y-139794508D01*
X123599997Y-139794508D01*
X123474699Y-139814352D01*
X123474698Y-139814352D01*
X123399337Y-139852751D01*
X123361658Y-139871950D01*
X123361657Y-139871951D01*
X123361652Y-139871954D01*
X123271954Y-139961652D01*
X123271951Y-139961657D01*
X123214352Y-140074698D01*
X123214352Y-140074699D01*
X123194508Y-140199996D01*
X123194508Y-140200003D01*
X122305492Y-140200003D01*
X122305492Y-140199996D01*
X122285647Y-140074699D01*
X122285647Y-140074698D01*
X122285646Y-140074696D01*
X122228050Y-139961658D01*
X122228046Y-139961654D01*
X122228045Y-139961652D01*
X122138347Y-139871954D01*
X122138344Y-139871952D01*
X122138342Y-139871950D01*
X122025304Y-139814354D01*
X122025303Y-139814353D01*
X122025300Y-139814352D01*
X121900003Y-139794508D01*
X121899997Y-139794508D01*
X121774699Y-139814352D01*
X121774698Y-139814352D01*
X121699337Y-139852751D01*
X121661658Y-139871950D01*
X121661657Y-139871951D01*
X121661652Y-139871954D01*
X121571954Y-139961652D01*
X121571951Y-139961657D01*
X121514352Y-140074698D01*
X121514352Y-140074699D01*
X121494508Y-140199996D01*
X121494508Y-140200003D01*
X102966224Y-140200003D01*
X102989555Y-140154213D01*
X102989555Y-140154211D01*
X102989556Y-140154210D01*
X102989556Y-140154209D01*
X103009401Y-140028912D01*
X103009401Y-140028905D01*
X102989556Y-139903608D01*
X102989556Y-139903607D01*
X102973426Y-139871951D01*
X102931959Y-139790567D01*
X102931955Y-139790563D01*
X102931954Y-139790561D01*
X102842256Y-139700863D01*
X102842253Y-139700861D01*
X102842251Y-139700859D01*
X102729213Y-139643263D01*
X102729212Y-139643262D01*
X102729209Y-139643261D01*
X102603912Y-139623417D01*
X102603906Y-139623417D01*
X102478608Y-139643261D01*
X102478607Y-139643261D01*
X102403246Y-139681660D01*
X102365567Y-139700859D01*
X102365566Y-139700860D01*
X102365561Y-139700863D01*
X102275863Y-139790561D01*
X102275860Y-139790566D01*
X102275859Y-139790567D01*
X102256660Y-139828246D01*
X102218261Y-139903607D01*
X102218261Y-139903608D01*
X102198417Y-140028905D01*
X102198417Y-140028912D01*
X91536314Y-140028912D01*
X91535647Y-140024699D01*
X91535647Y-140024698D01*
X91503526Y-139961658D01*
X91478050Y-139911658D01*
X91478046Y-139911654D01*
X91478045Y-139911652D01*
X91388347Y-139821954D01*
X91388344Y-139821952D01*
X91388342Y-139821950D01*
X91275304Y-139764354D01*
X91275303Y-139764353D01*
X91275300Y-139764352D01*
X91150003Y-139744508D01*
X91149997Y-139744508D01*
X91024699Y-139764352D01*
X91024698Y-139764352D01*
X90949337Y-139802751D01*
X90911658Y-139821950D01*
X90911657Y-139821951D01*
X90911652Y-139821954D01*
X90821954Y-139911652D01*
X90821951Y-139911657D01*
X90764352Y-140024698D01*
X90764352Y-140024699D01*
X90744508Y-140149996D01*
X90744508Y-140150003D01*
X69300500Y-140150003D01*
X69300500Y-138925003D01*
X96344508Y-138925003D01*
X96364352Y-139050300D01*
X96364352Y-139050301D01*
X96364354Y-139050304D01*
X96421950Y-139163342D01*
X96421952Y-139163344D01*
X96421954Y-139163347D01*
X96511652Y-139253045D01*
X96511654Y-139253046D01*
X96511658Y-139253050D01*
X96624696Y-139310646D01*
X96624697Y-139310646D01*
X96624699Y-139310647D01*
X96749997Y-139330492D01*
X96750000Y-139330492D01*
X96750003Y-139330492D01*
X96875300Y-139310647D01*
X96875302Y-139310646D01*
X96875304Y-139310646D01*
X96988342Y-139253050D01*
X96988343Y-139253048D01*
X96993704Y-139250317D01*
X97062373Y-139237420D01*
X97106296Y-139250317D01*
X97111656Y-139253048D01*
X97111658Y-139253050D01*
X97224696Y-139310646D01*
X97224699Y-139310647D01*
X97349997Y-139330492D01*
X97350000Y-139330492D01*
X97350003Y-139330492D01*
X97475300Y-139310647D01*
X97475302Y-139310646D01*
X97475304Y-139310646D01*
X97588342Y-139253050D01*
X97588343Y-139253048D01*
X97593704Y-139250317D01*
X97662373Y-139237420D01*
X97706296Y-139250317D01*
X97711656Y-139253048D01*
X97711658Y-139253050D01*
X97824696Y-139310646D01*
X97824699Y-139310647D01*
X97949997Y-139330492D01*
X97950000Y-139330492D01*
X97950003Y-139330492D01*
X98075300Y-139310647D01*
X98075302Y-139310646D01*
X98075304Y-139310646D01*
X98188342Y-139253050D01*
X98188343Y-139253048D01*
X98193704Y-139250317D01*
X98262373Y-139237420D01*
X98306296Y-139250317D01*
X98311656Y-139253048D01*
X98311658Y-139253050D01*
X98424696Y-139310646D01*
X98424699Y-139310647D01*
X98549997Y-139330492D01*
X98550000Y-139330492D01*
X98550003Y-139330492D01*
X98675300Y-139310647D01*
X98675302Y-139310646D01*
X98675304Y-139310646D01*
X98788342Y-139253050D01*
X98788343Y-139253048D01*
X98793704Y-139250317D01*
X98862373Y-139237420D01*
X98906296Y-139250317D01*
X98911656Y-139253048D01*
X98911658Y-139253050D01*
X99024696Y-139310646D01*
X99024699Y-139310647D01*
X99149997Y-139330492D01*
X99150000Y-139330492D01*
X99150003Y-139330492D01*
X99275300Y-139310647D01*
X99275302Y-139310646D01*
X99275304Y-139310646D01*
X99388342Y-139253050D01*
X99388343Y-139253048D01*
X99393704Y-139250317D01*
X99462373Y-139237420D01*
X99506296Y-139250317D01*
X99511656Y-139253048D01*
X99511658Y-139253050D01*
X99624696Y-139310646D01*
X99624699Y-139310647D01*
X99749997Y-139330492D01*
X99750000Y-139330492D01*
X99750003Y-139330492D01*
X99875300Y-139310647D01*
X99875301Y-139310647D01*
X99875302Y-139310646D01*
X99875304Y-139310646D01*
X99988342Y-139253050D01*
X100078050Y-139163342D01*
X100084847Y-139150003D01*
X105844508Y-139150003D01*
X105864352Y-139275300D01*
X105864352Y-139275301D01*
X105864354Y-139275304D01*
X105921950Y-139388342D01*
X105921952Y-139388344D01*
X105921954Y-139388347D01*
X106011652Y-139478045D01*
X106011654Y-139478046D01*
X106011658Y-139478050D01*
X106124696Y-139535646D01*
X106124697Y-139535646D01*
X106124699Y-139535647D01*
X106249997Y-139555492D01*
X106250000Y-139555492D01*
X106250003Y-139555492D01*
X106375300Y-139535647D01*
X106375301Y-139535647D01*
X106375302Y-139535646D01*
X106375304Y-139535646D01*
X106488342Y-139478050D01*
X106578050Y-139388342D01*
X106635646Y-139275304D01*
X106635646Y-139275302D01*
X106635647Y-139275301D01*
X106635647Y-139275300D01*
X106655492Y-139150003D01*
X106655492Y-139149996D01*
X106635647Y-139024699D01*
X106635646Y-139024696D01*
X106600794Y-138956296D01*
X106587897Y-138887626D01*
X106600794Y-138843704D01*
X106623216Y-138799699D01*
X106635646Y-138775304D01*
X106649686Y-138686658D01*
X106655492Y-138650003D01*
X106655492Y-138649996D01*
X106635647Y-138524699D01*
X106635646Y-138524696D01*
X106600794Y-138456296D01*
X106587897Y-138387626D01*
X106600794Y-138343704D01*
X106635646Y-138275304D01*
X106643613Y-138225003D01*
X106655492Y-138150003D01*
X106655492Y-138149996D01*
X106635647Y-138024699D01*
X106635646Y-138024696D01*
X106635645Y-138024695D01*
X106600793Y-137956295D01*
X106587897Y-137887626D01*
X106600794Y-137843704D01*
X106635646Y-137775304D01*
X106639171Y-137753048D01*
X106655492Y-137650003D01*
X106655492Y-137649996D01*
X106635647Y-137524699D01*
X106635646Y-137524696D01*
X106635645Y-137524695D01*
X106600793Y-137456295D01*
X106587897Y-137387626D01*
X106600794Y-137343704D01*
X106623216Y-137299699D01*
X106635646Y-137275304D01*
X106635742Y-137274698D01*
X106655492Y-137150003D01*
X106655492Y-137149996D01*
X106641049Y-137058805D01*
X129165708Y-137058805D01*
X129185552Y-137184102D01*
X129185552Y-137184103D01*
X129186854Y-137186658D01*
X129243150Y-137297144D01*
X129243152Y-137297146D01*
X129243154Y-137297149D01*
X129332852Y-137386847D01*
X129332854Y-137386848D01*
X129332858Y-137386852D01*
X129445896Y-137444448D01*
X129445897Y-137444448D01*
X129445899Y-137444449D01*
X129571197Y-137464294D01*
X129571200Y-137464294D01*
X129571203Y-137464294D01*
X129696500Y-137444449D01*
X129696501Y-137444449D01*
X129696502Y-137444448D01*
X129696504Y-137444448D01*
X129783732Y-137400003D01*
X131044508Y-137400003D01*
X131064352Y-137525300D01*
X131064352Y-137525301D01*
X131064354Y-137525304D01*
X131121950Y-137638342D01*
X131121952Y-137638344D01*
X131121954Y-137638347D01*
X131211652Y-137728045D01*
X131211654Y-137728046D01*
X131211658Y-137728050D01*
X131324696Y-137785646D01*
X131324697Y-137785646D01*
X131324699Y-137785647D01*
X131449997Y-137805492D01*
X131450000Y-137805492D01*
X131450003Y-137805492D01*
X131575300Y-137785647D01*
X131575301Y-137785647D01*
X131575302Y-137785646D01*
X131575304Y-137785646D01*
X131688342Y-137728050D01*
X131778050Y-137638342D01*
X131835646Y-137525304D01*
X131835646Y-137525302D01*
X131835647Y-137525301D01*
X131835647Y-137525300D01*
X131855492Y-137400003D01*
X131855492Y-137399996D01*
X131835647Y-137274699D01*
X131835647Y-137274698D01*
X131835646Y-137274696D01*
X131778050Y-137161658D01*
X131778046Y-137161654D01*
X131778045Y-137161652D01*
X131688347Y-137071954D01*
X131688344Y-137071952D01*
X131688342Y-137071950D01*
X131575304Y-137014354D01*
X131575303Y-137014353D01*
X131575300Y-137014352D01*
X131450003Y-136994508D01*
X131449997Y-136994508D01*
X131324699Y-137014352D01*
X131324698Y-137014352D01*
X131249337Y-137052751D01*
X131211658Y-137071950D01*
X131211657Y-137071951D01*
X131211652Y-137071954D01*
X131121954Y-137161652D01*
X131121951Y-137161657D01*
X131064352Y-137274698D01*
X131064352Y-137274699D01*
X131044508Y-137399996D01*
X131044508Y-137400003D01*
X129783732Y-137400003D01*
X129809542Y-137386852D01*
X129899250Y-137297144D01*
X129956846Y-137184106D01*
X129956846Y-137184104D01*
X129956847Y-137184103D01*
X129956847Y-137184102D01*
X129976692Y-137058805D01*
X129976692Y-137058798D01*
X129956847Y-136933501D01*
X129956847Y-136933500D01*
X129954069Y-136928048D01*
X129899250Y-136820460D01*
X129899246Y-136820456D01*
X129899245Y-136820454D01*
X129809547Y-136730756D01*
X129809544Y-136730754D01*
X129809542Y-136730752D01*
X129696504Y-136673156D01*
X129696503Y-136673155D01*
X129696500Y-136673154D01*
X129571203Y-136653310D01*
X129571197Y-136653310D01*
X129445899Y-136673154D01*
X129445898Y-136673154D01*
X129398807Y-136697149D01*
X129332858Y-136730752D01*
X129332857Y-136730753D01*
X129332852Y-136730756D01*
X129243154Y-136820454D01*
X129243151Y-136820459D01*
X129243150Y-136820460D01*
X129230927Y-136844449D01*
X129185552Y-136933500D01*
X129185552Y-136933501D01*
X129165708Y-137058798D01*
X129165708Y-137058805D01*
X106641049Y-137058805D01*
X106635647Y-137024699D01*
X106635646Y-137024697D01*
X106635646Y-137024696D01*
X106613293Y-136980827D01*
X106600398Y-136912160D01*
X106613294Y-136868240D01*
X106660647Y-136775306D01*
X106660695Y-136775003D01*
X106680493Y-136650005D01*
X106680493Y-136649998D01*
X106672575Y-136600003D01*
X108294508Y-136600003D01*
X108314352Y-136725300D01*
X108314352Y-136725301D01*
X108314354Y-136725304D01*
X108371950Y-136838342D01*
X108371952Y-136838344D01*
X108371954Y-136838347D01*
X108461652Y-136928045D01*
X108461654Y-136928046D01*
X108461658Y-136928050D01*
X108574696Y-136985646D01*
X108574697Y-136985646D01*
X108574699Y-136985647D01*
X108699997Y-137005492D01*
X108700000Y-137005492D01*
X108700003Y-137005492D01*
X108825300Y-136985647D01*
X108825301Y-136985647D01*
X108825302Y-136985646D01*
X108825304Y-136985646D01*
X108938342Y-136928050D01*
X108938349Y-136928042D01*
X108946241Y-136922311D01*
X108947225Y-136923665D01*
X108998632Y-136895590D01*
X109068324Y-136900569D01*
X109103248Y-136923013D01*
X109103759Y-136922311D01*
X109111653Y-136928045D01*
X109111658Y-136928050D01*
X109224696Y-136985646D01*
X109224697Y-136985646D01*
X109224699Y-136985647D01*
X109349997Y-137005492D01*
X109350000Y-137005492D01*
X109350003Y-137005492D01*
X109475300Y-136985647D01*
X109475301Y-136985647D01*
X109475302Y-136985646D01*
X109475304Y-136985646D01*
X109588342Y-136928050D01*
X109588349Y-136928042D01*
X109596241Y-136922311D01*
X109597225Y-136923665D01*
X109648632Y-136895590D01*
X109718324Y-136900569D01*
X109753248Y-136923013D01*
X109753759Y-136922311D01*
X109761653Y-136928045D01*
X109761658Y-136928050D01*
X109874696Y-136985646D01*
X109874697Y-136985646D01*
X109874699Y-136985647D01*
X109999997Y-137005492D01*
X110000000Y-137005492D01*
X110000003Y-137005492D01*
X110125300Y-136985647D01*
X110125301Y-136985647D01*
X110125302Y-136985646D01*
X110125304Y-136985646D01*
X110238342Y-136928050D01*
X110328050Y-136838342D01*
X110385646Y-136725304D01*
X110385646Y-136725302D01*
X110385647Y-136725301D01*
X110385647Y-136725300D01*
X110405492Y-136600003D01*
X110405492Y-136599996D01*
X110385647Y-136474699D01*
X110385647Y-136474698D01*
X110377549Y-136458805D01*
X126085708Y-136458805D01*
X126105552Y-136584102D01*
X126105552Y-136584103D01*
X126105554Y-136584106D01*
X126163150Y-136697144D01*
X126163152Y-136697146D01*
X126163154Y-136697149D01*
X126252852Y-136786847D01*
X126252854Y-136786848D01*
X126252858Y-136786852D01*
X126365896Y-136844448D01*
X126365897Y-136844448D01*
X126365899Y-136844449D01*
X126491197Y-136864294D01*
X126491200Y-136864294D01*
X126491203Y-136864294D01*
X126616500Y-136844449D01*
X126616501Y-136844449D01*
X126616502Y-136844448D01*
X126616504Y-136844448D01*
X126729542Y-136786852D01*
X126819250Y-136697144D01*
X126876846Y-136584106D01*
X126876846Y-136584104D01*
X126876847Y-136584103D01*
X126876847Y-136584102D01*
X126896692Y-136458805D01*
X126896692Y-136458798D01*
X126876847Y-136333501D01*
X126876847Y-136333500D01*
X126876846Y-136333498D01*
X126819250Y-136220460D01*
X126819246Y-136220456D01*
X126819245Y-136220454D01*
X126729547Y-136130756D01*
X126729544Y-136130754D01*
X126729542Y-136130752D01*
X126616504Y-136073156D01*
X126616503Y-136073155D01*
X126616500Y-136073154D01*
X126491203Y-136053310D01*
X126491197Y-136053310D01*
X126365899Y-136073154D01*
X126365898Y-136073154D01*
X126290537Y-136111553D01*
X126252858Y-136130752D01*
X126252857Y-136130753D01*
X126252852Y-136130756D01*
X126163154Y-136220454D01*
X126163151Y-136220459D01*
X126163150Y-136220460D01*
X126148101Y-136249996D01*
X126105552Y-136333500D01*
X126105552Y-136333501D01*
X126085708Y-136458798D01*
X126085708Y-136458805D01*
X110377549Y-136458805D01*
X110328050Y-136361658D01*
X110328045Y-136361653D01*
X110322311Y-136353759D01*
X110323665Y-136352774D01*
X110295590Y-136301368D01*
X110300569Y-136231676D01*
X110323013Y-136196751D01*
X110322311Y-136196241D01*
X110328042Y-136188349D01*
X110328050Y-136188342D01*
X110385646Y-136075304D01*
X110385646Y-136075302D01*
X110385647Y-136075301D01*
X110385647Y-136075300D01*
X110405492Y-135950003D01*
X110405492Y-135949996D01*
X110385647Y-135824699D01*
X110385646Y-135824696D01*
X110381404Y-135816370D01*
X110328050Y-135711658D01*
X110328048Y-135711656D01*
X110327387Y-135710358D01*
X110314490Y-135641688D01*
X110340766Y-135576948D01*
X110397872Y-135536690D01*
X110467678Y-135533698D01*
X110474245Y-135535575D01*
X110599997Y-135555492D01*
X110600000Y-135555492D01*
X110600003Y-135555492D01*
X110725300Y-135535647D01*
X110725301Y-135535647D01*
X110725302Y-135535646D01*
X110725304Y-135535646D01*
X110838342Y-135478050D01*
X110928050Y-135388342D01*
X110985646Y-135275304D01*
X110985646Y-135275302D01*
X110985647Y-135275301D01*
X110985647Y-135275300D01*
X111005492Y-135150003D01*
X114944508Y-135150003D01*
X114964352Y-135275300D01*
X114964352Y-135275301D01*
X114964354Y-135275304D01*
X115021950Y-135388342D01*
X115021952Y-135388344D01*
X115021954Y-135388347D01*
X115111652Y-135478045D01*
X115111654Y-135478046D01*
X115111658Y-135478050D01*
X115224696Y-135535646D01*
X115224697Y-135535646D01*
X115224699Y-135535647D01*
X115349997Y-135555492D01*
X115350000Y-135555492D01*
X115350003Y-135555492D01*
X115475300Y-135535647D01*
X115475301Y-135535647D01*
X115475302Y-135535646D01*
X115475304Y-135535646D01*
X115588342Y-135478050D01*
X115678050Y-135388342D01*
X115735646Y-135275304D01*
X115735646Y-135275302D01*
X115735647Y-135275301D01*
X115735647Y-135275300D01*
X115755492Y-135150003D01*
X117344508Y-135150003D01*
X117364352Y-135275300D01*
X117364352Y-135275301D01*
X117364354Y-135275304D01*
X117421950Y-135388342D01*
X117421952Y-135388344D01*
X117421954Y-135388347D01*
X117511652Y-135478045D01*
X117511654Y-135478046D01*
X117511658Y-135478050D01*
X117624696Y-135535646D01*
X117624697Y-135535646D01*
X117624699Y-135535647D01*
X117749997Y-135555492D01*
X117750000Y-135555492D01*
X117750003Y-135555492D01*
X117875300Y-135535647D01*
X117875301Y-135535647D01*
X117875302Y-135535646D01*
X117875304Y-135535646D01*
X117988342Y-135478050D01*
X118078050Y-135388342D01*
X118135646Y-135275304D01*
X118135646Y-135275302D01*
X118135647Y-135275301D01*
X118135647Y-135275300D01*
X118155492Y-135150003D01*
X118155492Y-135149996D01*
X118135647Y-135024699D01*
X118135647Y-135024698D01*
X118117125Y-134988347D01*
X118078050Y-134911658D01*
X118078046Y-134911654D01*
X118078045Y-134911652D01*
X117988347Y-134821954D01*
X117988344Y-134821952D01*
X117988342Y-134821950D01*
X117875304Y-134764354D01*
X117875303Y-134764353D01*
X117875300Y-134764352D01*
X117784699Y-134750003D01*
X122844508Y-134750003D01*
X122864352Y-134875300D01*
X122864352Y-134875301D01*
X122864354Y-134875304D01*
X122921950Y-134988342D01*
X122921952Y-134988344D01*
X122921954Y-134988347D01*
X123011652Y-135078045D01*
X123011654Y-135078046D01*
X123011658Y-135078050D01*
X123124696Y-135135646D01*
X123124697Y-135135646D01*
X123124699Y-135135647D01*
X123249997Y-135155492D01*
X123250000Y-135155492D01*
X123250003Y-135155492D01*
X123375300Y-135135647D01*
X123375301Y-135135647D01*
X123375302Y-135135646D01*
X123375304Y-135135646D01*
X123488342Y-135078050D01*
X123578050Y-134988342D01*
X123635646Y-134875304D01*
X123635646Y-134875302D01*
X123635647Y-134875301D01*
X123635647Y-134875300D01*
X123655492Y-134750003D01*
X123655492Y-134749996D01*
X123635647Y-134624699D01*
X123635647Y-134624698D01*
X123635646Y-134624696D01*
X123578050Y-134511658D01*
X123578046Y-134511654D01*
X123578045Y-134511652D01*
X123488347Y-134421954D01*
X123488344Y-134421952D01*
X123488342Y-134421950D01*
X123375304Y-134364354D01*
X123375303Y-134364353D01*
X123375300Y-134364352D01*
X123250003Y-134344508D01*
X123249997Y-134344508D01*
X123124699Y-134364352D01*
X123124698Y-134364352D01*
X123049337Y-134402751D01*
X123011658Y-134421950D01*
X123011657Y-134421951D01*
X123011652Y-134421954D01*
X122921954Y-134511652D01*
X122921951Y-134511657D01*
X122864352Y-134624698D01*
X122864352Y-134624699D01*
X122844508Y-134749996D01*
X122844508Y-134750003D01*
X117784699Y-134750003D01*
X117750003Y-134744508D01*
X117749997Y-134744508D01*
X117624699Y-134764352D01*
X117624698Y-134764352D01*
X117549337Y-134802751D01*
X117511658Y-134821950D01*
X117511657Y-134821951D01*
X117511652Y-134821954D01*
X117421954Y-134911652D01*
X117421951Y-134911657D01*
X117364352Y-135024698D01*
X117364352Y-135024699D01*
X117344508Y-135149996D01*
X117344508Y-135150003D01*
X115755492Y-135150003D01*
X115755492Y-135149996D01*
X115735647Y-135024699D01*
X115735647Y-135024698D01*
X115717125Y-134988347D01*
X115678050Y-134911658D01*
X115678046Y-134911654D01*
X115678045Y-134911652D01*
X115588347Y-134821954D01*
X115588344Y-134821952D01*
X115588342Y-134821950D01*
X115475304Y-134764354D01*
X115475303Y-134764353D01*
X115475300Y-134764352D01*
X115350003Y-134744508D01*
X115349997Y-134744508D01*
X115224699Y-134764352D01*
X115224698Y-134764352D01*
X115149337Y-134802751D01*
X115111658Y-134821950D01*
X115111657Y-134821951D01*
X115111652Y-134821954D01*
X115021954Y-134911652D01*
X115021951Y-134911657D01*
X114964352Y-135024698D01*
X114964352Y-135024699D01*
X114944508Y-135149996D01*
X114944508Y-135150003D01*
X111005492Y-135150003D01*
X111005492Y-135149996D01*
X110985647Y-135024699D01*
X110985647Y-135024698D01*
X110967125Y-134988347D01*
X110928050Y-134911658D01*
X110928046Y-134911654D01*
X110928045Y-134911652D01*
X110838347Y-134821954D01*
X110838344Y-134821952D01*
X110838342Y-134821950D01*
X110725304Y-134764354D01*
X110725303Y-134764353D01*
X110725300Y-134764352D01*
X110600003Y-134744508D01*
X110599997Y-134744508D01*
X110474699Y-134764352D01*
X110474698Y-134764352D01*
X110399337Y-134802751D01*
X110361658Y-134821950D01*
X110361657Y-134821951D01*
X110361652Y-134821954D01*
X110271954Y-134911652D01*
X110271951Y-134911657D01*
X110214352Y-135024698D01*
X110214352Y-135024699D01*
X110194508Y-135149996D01*
X110194508Y-135150003D01*
X110214352Y-135275300D01*
X110214352Y-135275301D01*
X110214354Y-135275304D01*
X110271950Y-135388342D01*
X110271951Y-135388343D01*
X110272613Y-135389642D01*
X110285509Y-135458311D01*
X110259233Y-135523051D01*
X110202127Y-135563309D01*
X110132321Y-135566301D01*
X110125757Y-135564425D01*
X110000003Y-135544508D01*
X109999997Y-135544508D01*
X109874699Y-135564352D01*
X109874698Y-135564352D01*
X109808690Y-135597986D01*
X109761658Y-135621950D01*
X109761657Y-135621951D01*
X109753759Y-135627689D01*
X109752775Y-135626334D01*
X109701358Y-135654411D01*
X109631666Y-135649427D01*
X109596750Y-135626987D01*
X109596241Y-135627689D01*
X109588345Y-135621953D01*
X109588342Y-135621950D01*
X109475304Y-135564354D01*
X109475303Y-135564353D01*
X109475300Y-135564352D01*
X109350003Y-135544508D01*
X109349997Y-135544508D01*
X109224699Y-135564352D01*
X109224698Y-135564352D01*
X109158690Y-135597986D01*
X109111658Y-135621950D01*
X109111657Y-135621951D01*
X109103759Y-135627689D01*
X109102775Y-135626334D01*
X109051358Y-135654411D01*
X108981666Y-135649427D01*
X108946750Y-135626987D01*
X108946241Y-135627689D01*
X108938345Y-135621953D01*
X108938342Y-135621950D01*
X108825304Y-135564354D01*
X108825303Y-135564353D01*
X108825300Y-135564352D01*
X108700003Y-135544508D01*
X108699997Y-135544508D01*
X108574699Y-135564352D01*
X108574698Y-135564352D01*
X108508690Y-135597986D01*
X108461658Y-135621950D01*
X108461657Y-135621951D01*
X108461652Y-135621954D01*
X108371954Y-135711652D01*
X108371951Y-135711657D01*
X108314352Y-135824698D01*
X108314352Y-135824699D01*
X108294508Y-135949996D01*
X108294508Y-135950003D01*
X108314352Y-136075300D01*
X108314352Y-136075301D01*
X108314354Y-136075304D01*
X108371950Y-136188342D01*
X108371953Y-136188345D01*
X108377689Y-136196241D01*
X108376334Y-136197224D01*
X108404411Y-136248642D01*
X108399427Y-136318334D01*
X108376987Y-136353249D01*
X108377689Y-136353759D01*
X108371951Y-136361657D01*
X108371950Y-136361658D01*
X108364999Y-136375300D01*
X108314352Y-136474698D01*
X108314352Y-136474699D01*
X108294508Y-136599996D01*
X108294508Y-136600003D01*
X106672575Y-136600003D01*
X106660648Y-136524701D01*
X106660647Y-136524698D01*
X106642125Y-136488347D01*
X106625794Y-136456297D01*
X106612898Y-136387628D01*
X106625795Y-136343706D01*
X106660647Y-136275306D01*
X106660648Y-136275302D01*
X106680493Y-136150005D01*
X106680493Y-136149998D01*
X106660648Y-136024701D01*
X106660647Y-136024698D01*
X106625795Y-135956298D01*
X106612898Y-135887628D01*
X106625795Y-135843706D01*
X106637670Y-135820400D01*
X106660647Y-135775306D01*
X106660648Y-135775302D01*
X106680493Y-135650005D01*
X106680493Y-135649998D01*
X106660648Y-135524701D01*
X106660648Y-135524700D01*
X106653413Y-135510501D01*
X106603051Y-135411660D01*
X106603047Y-135411656D01*
X106603046Y-135411654D01*
X106513348Y-135321956D01*
X106513345Y-135321954D01*
X106513343Y-135321952D01*
X106400305Y-135264356D01*
X106400304Y-135264355D01*
X106400301Y-135264354D01*
X106275004Y-135244510D01*
X106274998Y-135244510D01*
X106149700Y-135264354D01*
X106149699Y-135264354D01*
X106074338Y-135302753D01*
X106036659Y-135321952D01*
X106036658Y-135321953D01*
X106036653Y-135321956D01*
X105946955Y-135411654D01*
X105946952Y-135411659D01*
X105889353Y-135524700D01*
X105889353Y-135524701D01*
X105869509Y-135649998D01*
X105869509Y-135650005D01*
X105889353Y-135775302D01*
X105889354Y-135775306D01*
X105924207Y-135843708D01*
X105937103Y-135912377D01*
X105924207Y-135956296D01*
X105889354Y-136024697D01*
X105889353Y-136024701D01*
X105869509Y-136149998D01*
X105869509Y-136150005D01*
X105889353Y-136275302D01*
X105889354Y-136275306D01*
X105924207Y-136343708D01*
X105937103Y-136412377D01*
X105924207Y-136456296D01*
X105889354Y-136524697D01*
X105889353Y-136524701D01*
X105869509Y-136649998D01*
X105869509Y-136650005D01*
X105889353Y-136775301D01*
X105889354Y-136775302D01*
X105889355Y-136775306D01*
X105911706Y-136819173D01*
X105924602Y-136887841D01*
X105911706Y-136931760D01*
X105864353Y-137024695D01*
X105864352Y-137024699D01*
X105844508Y-137149996D01*
X105844508Y-137150003D01*
X105864352Y-137275300D01*
X105864353Y-137275304D01*
X105899206Y-137343706D01*
X105912102Y-137412375D01*
X105899206Y-137456294D01*
X105864353Y-137524695D01*
X105864352Y-137524699D01*
X105844508Y-137649996D01*
X105844508Y-137650003D01*
X105864352Y-137775300D01*
X105864353Y-137775304D01*
X105899206Y-137843706D01*
X105912102Y-137912375D01*
X105899206Y-137956294D01*
X105864353Y-138024695D01*
X105864352Y-138024699D01*
X105844508Y-138149996D01*
X105844508Y-138150003D01*
X105864352Y-138275300D01*
X105864353Y-138275304D01*
X105899206Y-138343706D01*
X105912102Y-138412375D01*
X105899206Y-138456294D01*
X105864353Y-138524695D01*
X105864352Y-138524699D01*
X105844508Y-138649996D01*
X105844508Y-138650003D01*
X105864352Y-138775300D01*
X105864353Y-138775304D01*
X105899206Y-138843706D01*
X105912102Y-138912375D01*
X105899206Y-138956294D01*
X105864353Y-139024695D01*
X105864352Y-139024699D01*
X105844508Y-139149996D01*
X105844508Y-139150003D01*
X100084847Y-139150003D01*
X100135646Y-139050304D01*
X100135646Y-139050302D01*
X100135647Y-139050301D01*
X100135647Y-139050300D01*
X100155492Y-138925003D01*
X100155492Y-138924996D01*
X100135647Y-138799699D01*
X100132631Y-138790417D01*
X100135327Y-138789540D01*
X100125260Y-138735976D01*
X100151528Y-138671232D01*
X100208629Y-138630967D01*
X100229235Y-138625861D01*
X100325304Y-138610646D01*
X100438342Y-138553050D01*
X100438343Y-138553048D01*
X100443704Y-138550317D01*
X100512373Y-138537420D01*
X100556296Y-138550317D01*
X100561656Y-138553048D01*
X100561658Y-138553050D01*
X100647824Y-138596954D01*
X100674696Y-138610646D01*
X100674699Y-138610647D01*
X100799997Y-138630492D01*
X100800000Y-138630492D01*
X100800003Y-138630492D01*
X100925300Y-138610647D01*
X100925301Y-138610647D01*
X100925302Y-138610646D01*
X100925304Y-138610646D01*
X101038342Y-138553050D01*
X101128050Y-138463342D01*
X101185646Y-138350304D01*
X101185646Y-138350302D01*
X101185647Y-138350301D01*
X101185647Y-138350300D01*
X101205492Y-138225003D01*
X101205492Y-138224996D01*
X101185647Y-138099699D01*
X101185647Y-138099698D01*
X101185646Y-138099696D01*
X101128050Y-137986658D01*
X101128046Y-137986654D01*
X101128045Y-137986652D01*
X101038347Y-137896954D01*
X101038344Y-137896952D01*
X101038342Y-137896950D01*
X100925304Y-137839354D01*
X100925303Y-137839353D01*
X100925300Y-137839352D01*
X100800003Y-137819508D01*
X100799997Y-137819508D01*
X100674699Y-137839352D01*
X100674698Y-137839352D01*
X100590747Y-137882128D01*
X100561658Y-137896950D01*
X100561657Y-137896950D01*
X100556295Y-137899683D01*
X100487626Y-137912579D01*
X100443705Y-137899683D01*
X100438342Y-137896950D01*
X100325304Y-137839354D01*
X100325303Y-137839353D01*
X100325300Y-137839352D01*
X100200003Y-137819508D01*
X100199997Y-137819508D01*
X100074699Y-137839352D01*
X100074698Y-137839352D01*
X99990747Y-137882128D01*
X99961658Y-137896950D01*
X99961657Y-137896950D01*
X99956295Y-137899683D01*
X99887626Y-137912579D01*
X99843705Y-137899683D01*
X99838342Y-137896950D01*
X99725304Y-137839354D01*
X99725303Y-137839353D01*
X99725300Y-137839352D01*
X99600003Y-137819508D01*
X99599997Y-137819508D01*
X99474699Y-137839352D01*
X99474698Y-137839352D01*
X99390747Y-137882128D01*
X99361658Y-137896950D01*
X99361657Y-137896950D01*
X99356295Y-137899683D01*
X99287626Y-137912579D01*
X99243705Y-137899683D01*
X99238342Y-137896950D01*
X99125304Y-137839354D01*
X99125303Y-137839353D01*
X99125300Y-137839352D01*
X99000003Y-137819508D01*
X98999997Y-137819508D01*
X98874699Y-137839352D01*
X98874698Y-137839352D01*
X98799337Y-137877751D01*
X98761658Y-137896950D01*
X98761657Y-137896951D01*
X98761652Y-137896954D01*
X98671954Y-137986652D01*
X98671951Y-137986657D01*
X98614352Y-138099698D01*
X98614352Y-138099699D01*
X98594508Y-138224996D01*
X98594508Y-138225003D01*
X98614352Y-138350300D01*
X98617369Y-138359583D01*
X98614673Y-138360458D01*
X98624737Y-138414036D01*
X98598463Y-138478777D01*
X98541358Y-138519036D01*
X98520754Y-138524139D01*
X98424699Y-138539352D01*
X98424698Y-138539352D01*
X98340747Y-138582128D01*
X98311658Y-138596950D01*
X98311657Y-138596950D01*
X98306295Y-138599683D01*
X98237626Y-138612579D01*
X98193705Y-138599683D01*
X98188342Y-138596950D01*
X98075304Y-138539354D01*
X98075303Y-138539353D01*
X98075300Y-138539352D01*
X97950003Y-138519508D01*
X97949997Y-138519508D01*
X97824699Y-138539352D01*
X97824698Y-138539352D01*
X97740747Y-138582128D01*
X97711658Y-138596950D01*
X97711657Y-138596950D01*
X97706295Y-138599683D01*
X97637626Y-138612579D01*
X97593705Y-138599683D01*
X97588342Y-138596950D01*
X97475304Y-138539354D01*
X97475303Y-138539353D01*
X97475300Y-138539352D01*
X97350003Y-138519508D01*
X97349997Y-138519508D01*
X97224699Y-138539352D01*
X97224698Y-138539352D01*
X97140747Y-138582128D01*
X97111658Y-138596950D01*
X97111657Y-138596950D01*
X97106295Y-138599683D01*
X97037626Y-138612579D01*
X96993705Y-138599683D01*
X96988342Y-138596950D01*
X96875304Y-138539354D01*
X96875303Y-138539353D01*
X96875300Y-138539352D01*
X96750003Y-138519508D01*
X96749997Y-138519508D01*
X96624699Y-138539352D01*
X96624698Y-138539352D01*
X96549337Y-138577751D01*
X96511658Y-138596950D01*
X96511657Y-138596951D01*
X96511652Y-138596954D01*
X96421954Y-138686652D01*
X96421951Y-138686657D01*
X96364352Y-138799698D01*
X96364352Y-138799699D01*
X96344508Y-138924996D01*
X96344508Y-138925003D01*
X69300500Y-138925003D01*
X69300500Y-136900003D01*
X72594508Y-136900003D01*
X72614352Y-137025300D01*
X72614352Y-137025301D01*
X72621512Y-137039352D01*
X72671950Y-137138342D01*
X72671952Y-137138344D01*
X72671954Y-137138347D01*
X72761652Y-137228045D01*
X72761654Y-137228046D01*
X72761658Y-137228050D01*
X72874696Y-137285646D01*
X72874697Y-137285646D01*
X72874699Y-137285647D01*
X72999997Y-137305492D01*
X73000000Y-137305492D01*
X73000003Y-137305492D01*
X73125300Y-137285647D01*
X73125301Y-137285647D01*
X73125302Y-137285646D01*
X73125304Y-137285646D01*
X73238342Y-137228050D01*
X73328050Y-137138342D01*
X73385646Y-137025304D01*
X73385646Y-137025302D01*
X73385647Y-137025301D01*
X73385647Y-137025300D01*
X73405492Y-136900003D01*
X73405492Y-136899996D01*
X73385647Y-136774699D01*
X73385647Y-136774698D01*
X73363257Y-136730756D01*
X73328050Y-136661658D01*
X73328046Y-136661654D01*
X73328045Y-136661652D01*
X73238347Y-136571954D01*
X73238344Y-136571952D01*
X73238342Y-136571950D01*
X73125304Y-136514354D01*
X73125303Y-136514353D01*
X73125300Y-136514352D01*
X73000003Y-136494508D01*
X72999997Y-136494508D01*
X72874699Y-136514352D01*
X72874698Y-136514352D01*
X72799337Y-136552751D01*
X72761658Y-136571950D01*
X72761657Y-136571951D01*
X72761652Y-136571954D01*
X72671954Y-136661652D01*
X72671951Y-136661657D01*
X72671950Y-136661658D01*
X72653869Y-136697144D01*
X72614352Y-136774698D01*
X72614352Y-136774699D01*
X72594508Y-136899996D01*
X72594508Y-136900003D01*
X69300500Y-136900003D01*
X69300500Y-135950003D01*
X73594508Y-135950003D01*
X73614352Y-136075300D01*
X73614352Y-136075301D01*
X73614354Y-136075304D01*
X73671950Y-136188342D01*
X73671952Y-136188344D01*
X73671954Y-136188347D01*
X73761652Y-136278045D01*
X73761654Y-136278046D01*
X73761658Y-136278050D01*
X73874696Y-136335646D01*
X73874697Y-136335646D01*
X73874699Y-136335647D01*
X73999997Y-136355492D01*
X74000000Y-136355492D01*
X74000003Y-136355492D01*
X74125300Y-136335647D01*
X74125301Y-136335647D01*
X74125302Y-136335646D01*
X74125304Y-136335646D01*
X74238342Y-136278050D01*
X74266389Y-136250003D01*
X80294508Y-136250003D01*
X80314352Y-136375300D01*
X80314352Y-136375301D01*
X80314354Y-136375304D01*
X80371950Y-136488342D01*
X80371952Y-136488344D01*
X80371954Y-136488347D01*
X80461652Y-136578045D01*
X80461654Y-136578046D01*
X80461658Y-136578050D01*
X80574696Y-136635646D01*
X80574697Y-136635646D01*
X80574699Y-136635647D01*
X80699997Y-136655492D01*
X80700000Y-136655492D01*
X80700003Y-136655492D01*
X80825300Y-136635647D01*
X80825301Y-136635647D01*
X80825302Y-136635646D01*
X80825304Y-136635646D01*
X80938342Y-136578050D01*
X81028050Y-136488342D01*
X81085646Y-136375304D01*
X81085646Y-136375302D01*
X81085647Y-136375301D01*
X81085647Y-136375300D01*
X81105492Y-136250003D01*
X81944508Y-136250003D01*
X81964352Y-136375300D01*
X81964352Y-136375301D01*
X81964354Y-136375304D01*
X82021950Y-136488342D01*
X82021952Y-136488344D01*
X82021954Y-136488347D01*
X82111652Y-136578045D01*
X82111654Y-136578046D01*
X82111658Y-136578050D01*
X82224696Y-136635646D01*
X82224697Y-136635646D01*
X82224699Y-136635647D01*
X82349997Y-136655492D01*
X82350000Y-136655492D01*
X82350003Y-136655492D01*
X82475300Y-136635647D01*
X82475301Y-136635647D01*
X82475302Y-136635646D01*
X82475304Y-136635646D01*
X82588342Y-136578050D01*
X82678050Y-136488342D01*
X82735646Y-136375304D01*
X82735646Y-136375302D01*
X82735647Y-136375301D01*
X82735647Y-136375300D01*
X82755492Y-136250003D01*
X83644508Y-136250003D01*
X83664352Y-136375300D01*
X83664352Y-136375301D01*
X83664354Y-136375304D01*
X83721950Y-136488342D01*
X83721952Y-136488344D01*
X83721954Y-136488347D01*
X83811652Y-136578045D01*
X83811654Y-136578046D01*
X83811658Y-136578050D01*
X83924696Y-136635646D01*
X83924697Y-136635646D01*
X83924699Y-136635647D01*
X84049997Y-136655492D01*
X84050000Y-136655492D01*
X84050003Y-136655492D01*
X84175300Y-136635647D01*
X84175301Y-136635647D01*
X84175302Y-136635646D01*
X84175304Y-136635646D01*
X84288342Y-136578050D01*
X84378050Y-136488342D01*
X84435646Y-136375304D01*
X84435646Y-136375302D01*
X84435647Y-136375301D01*
X84435647Y-136375300D01*
X84455492Y-136250003D01*
X84455492Y-136249996D01*
X84435647Y-136124699D01*
X84435647Y-136124698D01*
X84410479Y-136075304D01*
X84378050Y-136011658D01*
X84378046Y-136011654D01*
X84378045Y-136011652D01*
X84288347Y-135921954D01*
X84288344Y-135921952D01*
X84288342Y-135921950D01*
X84175304Y-135864354D01*
X84175303Y-135864353D01*
X84175300Y-135864352D01*
X84050003Y-135844508D01*
X84049997Y-135844508D01*
X83924699Y-135864352D01*
X83924698Y-135864352D01*
X83854733Y-135900002D01*
X83811658Y-135921950D01*
X83811657Y-135921951D01*
X83811652Y-135921954D01*
X83721954Y-136011652D01*
X83721951Y-136011657D01*
X83721950Y-136011658D01*
X83702751Y-136049337D01*
X83664352Y-136124698D01*
X83664352Y-136124699D01*
X83644508Y-136249996D01*
X83644508Y-136250003D01*
X82755492Y-136250003D01*
X82755492Y-136249996D01*
X82735647Y-136124699D01*
X82735647Y-136124698D01*
X82710479Y-136075304D01*
X82678050Y-136011658D01*
X82678046Y-136011654D01*
X82678045Y-136011652D01*
X82588347Y-135921954D01*
X82588344Y-135921952D01*
X82588342Y-135921950D01*
X82475304Y-135864354D01*
X82475303Y-135864353D01*
X82475300Y-135864352D01*
X82350003Y-135844508D01*
X82349997Y-135844508D01*
X82224699Y-135864352D01*
X82224698Y-135864352D01*
X82154733Y-135900002D01*
X82111658Y-135921950D01*
X82111657Y-135921951D01*
X82111652Y-135921954D01*
X82021954Y-136011652D01*
X82021951Y-136011657D01*
X82021950Y-136011658D01*
X82002751Y-136049337D01*
X81964352Y-136124698D01*
X81964352Y-136124699D01*
X81944508Y-136249996D01*
X81944508Y-136250003D01*
X81105492Y-136250003D01*
X81105492Y-136249996D01*
X81085647Y-136124699D01*
X81085647Y-136124698D01*
X81060479Y-136075304D01*
X81028050Y-136011658D01*
X81028046Y-136011654D01*
X81028045Y-136011652D01*
X80938347Y-135921954D01*
X80938344Y-135921952D01*
X80938342Y-135921950D01*
X80825304Y-135864354D01*
X80825303Y-135864353D01*
X80825300Y-135864352D01*
X80700003Y-135844508D01*
X80699997Y-135844508D01*
X80574699Y-135864352D01*
X80574698Y-135864352D01*
X80504733Y-135900002D01*
X80461658Y-135921950D01*
X80461657Y-135921951D01*
X80461652Y-135921954D01*
X80371954Y-136011652D01*
X80371951Y-136011657D01*
X80371950Y-136011658D01*
X80352751Y-136049337D01*
X80314352Y-136124698D01*
X80314352Y-136124699D01*
X80294508Y-136249996D01*
X80294508Y-136250003D01*
X74266389Y-136250003D01*
X74328050Y-136188342D01*
X74385646Y-136075304D01*
X74385646Y-136075302D01*
X74385647Y-136075301D01*
X74385647Y-136075300D01*
X74405492Y-135950003D01*
X74405492Y-135949996D01*
X74385647Y-135824699D01*
X74385647Y-135824698D01*
X74381404Y-135816370D01*
X74328050Y-135711658D01*
X74328046Y-135711654D01*
X74328045Y-135711652D01*
X74238347Y-135621954D01*
X74238344Y-135621952D01*
X74238342Y-135621950D01*
X74125304Y-135564354D01*
X74125303Y-135564353D01*
X74125300Y-135564352D01*
X74000003Y-135544508D01*
X73999997Y-135544508D01*
X73874699Y-135564352D01*
X73874698Y-135564352D01*
X73808690Y-135597986D01*
X73761658Y-135621950D01*
X73761657Y-135621951D01*
X73761652Y-135621954D01*
X73671954Y-135711652D01*
X73671951Y-135711657D01*
X73614352Y-135824698D01*
X73614352Y-135824699D01*
X73594508Y-135949996D01*
X73594508Y-135950003D01*
X69300500Y-135950003D01*
X69300500Y-135451002D01*
X90344499Y-135451002D01*
X90356335Y-135510501D01*
X90356338Y-135510511D01*
X90378005Y-135562821D01*
X90378016Y-135562843D01*
X90398305Y-135597986D01*
X90398307Y-135597988D01*
X90398308Y-135597989D01*
X90462167Y-135646989D01*
X90462166Y-135646989D01*
X90514488Y-135668661D01*
X90514493Y-135668663D01*
X90514497Y-135668663D01*
X90514498Y-135668664D01*
X90573997Y-135680500D01*
X90574000Y-135680500D01*
X100216698Y-135680500D01*
X100283737Y-135700185D01*
X100329492Y-135752989D01*
X100340698Y-135804500D01*
X100340698Y-135916027D01*
X100357378Y-135956296D01*
X100378834Y-136008095D01*
X101043895Y-136673156D01*
X101708189Y-137337449D01*
X101741674Y-137398772D01*
X101744465Y-137424735D01*
X101764352Y-137550301D01*
X101764354Y-137550304D01*
X101821950Y-137663342D01*
X101821952Y-137663344D01*
X101821954Y-137663347D01*
X101911652Y-137753045D01*
X101911654Y-137753046D01*
X101911658Y-137753050D01*
X102024696Y-137810646D01*
X102024697Y-137810646D01*
X102024699Y-137810647D01*
X102149997Y-137830492D01*
X102150000Y-137830492D01*
X102150003Y-137830492D01*
X102275300Y-137810647D01*
X102275301Y-137810647D01*
X102275302Y-137810646D01*
X102275304Y-137810646D01*
X102388342Y-137753050D01*
X102478050Y-137663342D01*
X102535646Y-137550304D01*
X102535646Y-137550302D01*
X102535647Y-137550301D01*
X102535647Y-137550300D01*
X102555492Y-137425003D01*
X102555492Y-137424996D01*
X102535647Y-137299699D01*
X102535647Y-137299698D01*
X102534346Y-137297144D01*
X102478050Y-137186658D01*
X102478046Y-137186654D01*
X102478045Y-137186652D01*
X102388347Y-137096954D01*
X102388344Y-137096952D01*
X102388342Y-137096950D01*
X102311517Y-137057805D01*
X102275301Y-137039352D01*
X102140362Y-137017981D01*
X102140564Y-137016699D01*
X102083091Y-136999823D01*
X102062449Y-136983189D01*
X101854263Y-136775003D01*
X103894508Y-136775003D01*
X103914352Y-136900300D01*
X103914352Y-136900301D01*
X103914354Y-136900304D01*
X103971950Y-137013342D01*
X103971952Y-137013344D01*
X103971954Y-137013347D01*
X104061652Y-137103045D01*
X104061654Y-137103046D01*
X104061658Y-137103050D01*
X104174696Y-137160646D01*
X104174697Y-137160646D01*
X104174699Y-137160647D01*
X104299997Y-137180492D01*
X104300000Y-137180492D01*
X104300003Y-137180492D01*
X104425300Y-137160647D01*
X104425301Y-137160647D01*
X104425302Y-137160646D01*
X104425304Y-137160646D01*
X104538342Y-137103050D01*
X104628050Y-137013342D01*
X104685646Y-136900304D01*
X104685646Y-136900302D01*
X104685647Y-136900301D01*
X104685647Y-136900300D01*
X104705492Y-136775003D01*
X104705492Y-136774996D01*
X104685647Y-136649699D01*
X104685647Y-136649698D01*
X104685646Y-136649696D01*
X104628050Y-136536658D01*
X104628046Y-136536654D01*
X104628045Y-136536652D01*
X104538347Y-136446954D01*
X104538344Y-136446952D01*
X104538342Y-136446950D01*
X104425304Y-136389354D01*
X104425303Y-136389353D01*
X104425300Y-136389352D01*
X104300003Y-136369508D01*
X104299997Y-136369508D01*
X104174699Y-136389352D01*
X104174698Y-136389352D01*
X104099337Y-136427751D01*
X104061658Y-136446950D01*
X104061657Y-136446951D01*
X104061652Y-136446954D01*
X103971954Y-136536652D01*
X103971951Y-136536657D01*
X103914352Y-136649698D01*
X103914352Y-136649699D01*
X103894508Y-136774996D01*
X103894508Y-136775003D01*
X101854263Y-136775003D01*
X100899661Y-135820400D01*
X100866176Y-135759077D01*
X100871160Y-135689385D01*
X100913032Y-135633452D01*
X100922100Y-135627470D01*
X100922986Y-135626693D01*
X100922989Y-135626692D01*
X100971989Y-135562833D01*
X100993663Y-135510507D01*
X101005500Y-135451000D01*
X101005500Y-134308805D01*
X125435708Y-134308805D01*
X125455552Y-134434102D01*
X125455552Y-134434103D01*
X125455554Y-134434106D01*
X125513150Y-134547144D01*
X125513152Y-134547146D01*
X125513154Y-134547149D01*
X125602852Y-134636847D01*
X125602854Y-134636848D01*
X125602858Y-134636852D01*
X125715896Y-134694448D01*
X125715897Y-134694448D01*
X125715899Y-134694449D01*
X125841197Y-134714294D01*
X125841200Y-134714294D01*
X125841203Y-134714294D01*
X125966500Y-134694449D01*
X125966501Y-134694449D01*
X125966502Y-134694448D01*
X125966504Y-134694448D01*
X126079542Y-134636852D01*
X126169250Y-134547144D01*
X126226846Y-134434106D01*
X126226846Y-134434104D01*
X126226847Y-134434103D01*
X126226847Y-134434102D01*
X126248219Y-134299164D01*
X126249500Y-134299366D01*
X126266377Y-134241893D01*
X126283011Y-134221251D01*
X126809266Y-133694996D01*
X127445800Y-133058461D01*
X127507121Y-133024978D01*
X127576813Y-133029962D01*
X127632746Y-133071834D01*
X127638725Y-133080898D01*
X127639507Y-133081790D01*
X127639508Y-133081791D01*
X127667553Y-133103310D01*
X127703367Y-133130791D01*
X127703366Y-133130791D01*
X127755688Y-133152463D01*
X127755693Y-133152465D01*
X127755697Y-133152465D01*
X127755698Y-133152466D01*
X127815197Y-133164302D01*
X127815200Y-133164302D01*
X129567202Y-133164302D01*
X129607230Y-133156339D01*
X129626707Y-133152465D01*
X129679033Y-133130791D01*
X129714189Y-133110494D01*
X129763189Y-133046635D01*
X129784863Y-132994309D01*
X129788737Y-132974832D01*
X129796700Y-132934804D01*
X129796700Y-122732799D01*
X129784864Y-122673300D01*
X129784863Y-122673299D01*
X129784863Y-122673295D01*
X129763189Y-122620969D01*
X129763183Y-122620958D01*
X129742894Y-122585815D01*
X129742892Y-122585813D01*
X129679032Y-122536812D01*
X129679033Y-122536812D01*
X129626711Y-122515140D01*
X129626701Y-122515137D01*
X129567202Y-122503302D01*
X129567200Y-122503302D01*
X127815200Y-122503302D01*
X127815198Y-122503302D01*
X127755698Y-122515137D01*
X127755688Y-122515140D01*
X127703378Y-122536807D01*
X127703356Y-122536818D01*
X127668213Y-122557107D01*
X127668211Y-122557109D01*
X127619210Y-122620969D01*
X127597538Y-122673290D01*
X127597535Y-122673300D01*
X127585700Y-122732799D01*
X127585700Y-132375500D01*
X127566015Y-132442539D01*
X127513211Y-132488294D01*
X127461700Y-132499500D01*
X127350172Y-132499500D01*
X127258104Y-132537636D01*
X127258103Y-132537637D01*
X127187637Y-132608104D01*
X125928749Y-133866991D01*
X125867426Y-133900476D01*
X125841468Y-133903266D01*
X125715899Y-133923154D01*
X125715898Y-133923154D01*
X125640537Y-133961553D01*
X125602858Y-133980752D01*
X125602857Y-133980753D01*
X125602852Y-133980756D01*
X125513154Y-134070454D01*
X125513151Y-134070459D01*
X125513150Y-134070460D01*
X125504039Y-134088342D01*
X125455552Y-134183500D01*
X125455552Y-134183501D01*
X125435708Y-134308798D01*
X125435708Y-134308805D01*
X101005500Y-134308805D01*
X101005500Y-133699000D01*
X101005500Y-133698997D01*
X101004705Y-133695003D01*
X104494508Y-133695003D01*
X104514352Y-133820300D01*
X104514352Y-133820301D01*
X104529483Y-133849996D01*
X104571950Y-133933342D01*
X104571952Y-133933344D01*
X104571954Y-133933347D01*
X104661652Y-134023045D01*
X104661654Y-134023046D01*
X104661658Y-134023050D01*
X104774696Y-134080646D01*
X104774697Y-134080646D01*
X104774699Y-134080647D01*
X104899997Y-134100492D01*
X104900000Y-134100492D01*
X104900003Y-134100492D01*
X105025300Y-134080647D01*
X105025301Y-134080647D01*
X105025302Y-134080646D01*
X105025304Y-134080646D01*
X105138342Y-134023050D01*
X105228050Y-133933342D01*
X105285646Y-133820304D01*
X105285646Y-133820302D01*
X105285647Y-133820301D01*
X105285647Y-133820300D01*
X105305492Y-133695003D01*
X105305492Y-133694996D01*
X105285647Y-133569699D01*
X105285647Y-133569698D01*
X105276635Y-133552011D01*
X105250135Y-133500003D01*
X110194508Y-133500003D01*
X110214352Y-133625300D01*
X110214352Y-133625301D01*
X110221586Y-133639498D01*
X110271950Y-133738342D01*
X110271952Y-133738344D01*
X110271954Y-133738347D01*
X110361652Y-133828045D01*
X110361654Y-133828046D01*
X110361658Y-133828050D01*
X110474696Y-133885646D01*
X110474697Y-133885646D01*
X110474699Y-133885647D01*
X110599997Y-133905492D01*
X110600000Y-133905492D01*
X110600003Y-133905492D01*
X110725300Y-133885647D01*
X110725301Y-133885647D01*
X110725302Y-133885646D01*
X110725304Y-133885646D01*
X110838342Y-133828050D01*
X110928050Y-133738342D01*
X110985646Y-133625304D01*
X110985646Y-133625302D01*
X110985647Y-133625301D01*
X110985647Y-133625300D01*
X111005492Y-133500003D01*
X114944508Y-133500003D01*
X114964352Y-133625300D01*
X114964352Y-133625301D01*
X114971586Y-133639498D01*
X115021950Y-133738342D01*
X115021952Y-133738344D01*
X115021954Y-133738347D01*
X115111652Y-133828045D01*
X115111654Y-133828046D01*
X115111658Y-133828050D01*
X115224696Y-133885646D01*
X115224697Y-133885646D01*
X115224699Y-133885647D01*
X115349997Y-133905492D01*
X115350000Y-133905492D01*
X115350003Y-133905492D01*
X115475300Y-133885647D01*
X115475301Y-133885647D01*
X115475302Y-133885646D01*
X115475304Y-133885646D01*
X115588342Y-133828050D01*
X115678050Y-133738342D01*
X115735646Y-133625304D01*
X115735646Y-133625302D01*
X115735647Y-133625301D01*
X115735647Y-133625300D01*
X115755492Y-133500003D01*
X117344508Y-133500003D01*
X117364352Y-133625300D01*
X117364352Y-133625301D01*
X117371586Y-133639498D01*
X117421950Y-133738342D01*
X117421952Y-133738344D01*
X117421954Y-133738347D01*
X117511652Y-133828045D01*
X117511654Y-133828046D01*
X117511658Y-133828050D01*
X117624696Y-133885646D01*
X117624697Y-133885646D01*
X117624699Y-133885647D01*
X117749997Y-133905492D01*
X117750000Y-133905492D01*
X117750003Y-133905492D01*
X117875300Y-133885647D01*
X117875301Y-133885647D01*
X117875302Y-133885646D01*
X117875304Y-133885646D01*
X117988342Y-133828050D01*
X118078050Y-133738342D01*
X118135646Y-133625304D01*
X118135646Y-133625302D01*
X118135647Y-133625301D01*
X118135647Y-133625300D01*
X118155492Y-133500003D01*
X118155492Y-133499996D01*
X118135647Y-133374699D01*
X118135647Y-133374698D01*
X118120234Y-133344449D01*
X118078050Y-133261658D01*
X118078046Y-133261654D01*
X118078045Y-133261652D01*
X117988347Y-133171954D01*
X117988344Y-133171952D01*
X117988342Y-133171950D01*
X117875304Y-133114354D01*
X117875303Y-133114353D01*
X117875300Y-133114352D01*
X117750003Y-133094508D01*
X117749997Y-133094508D01*
X117624699Y-133114352D01*
X117624698Y-133114352D01*
X117569568Y-133142443D01*
X117511658Y-133171950D01*
X117511657Y-133171951D01*
X117511652Y-133171954D01*
X117421954Y-133261652D01*
X117421951Y-133261657D01*
X117421950Y-133261658D01*
X117409116Y-133286847D01*
X117364352Y-133374698D01*
X117364352Y-133374699D01*
X117344508Y-133499996D01*
X117344508Y-133500003D01*
X115755492Y-133500003D01*
X115755492Y-133499996D01*
X115735647Y-133374699D01*
X115735647Y-133374698D01*
X115720234Y-133344449D01*
X115678050Y-133261658D01*
X115678046Y-133261654D01*
X115678045Y-133261652D01*
X115588347Y-133171954D01*
X115588344Y-133171952D01*
X115588342Y-133171950D01*
X115475304Y-133114354D01*
X115475303Y-133114353D01*
X115475300Y-133114352D01*
X115350003Y-133094508D01*
X115349997Y-133094508D01*
X115224699Y-133114352D01*
X115224698Y-133114352D01*
X115169568Y-133142443D01*
X115111658Y-133171950D01*
X115111657Y-133171951D01*
X115111652Y-133171954D01*
X115021954Y-133261652D01*
X115021951Y-133261657D01*
X115021950Y-133261658D01*
X115009116Y-133286847D01*
X114964352Y-133374698D01*
X114964352Y-133374699D01*
X114944508Y-133499996D01*
X114944508Y-133500003D01*
X111005492Y-133500003D01*
X111005492Y-133499996D01*
X110985647Y-133374699D01*
X110985647Y-133374698D01*
X110970234Y-133344449D01*
X110928050Y-133261658D01*
X110928046Y-133261654D01*
X110928045Y-133261652D01*
X110838347Y-133171954D01*
X110838344Y-133171952D01*
X110838342Y-133171950D01*
X110725304Y-133114354D01*
X110725303Y-133114353D01*
X110725300Y-133114352D01*
X110600003Y-133094508D01*
X110599997Y-133094508D01*
X110474699Y-133114352D01*
X110474698Y-133114352D01*
X110419568Y-133142443D01*
X110361658Y-133171950D01*
X110361657Y-133171951D01*
X110361652Y-133171954D01*
X110271954Y-133261652D01*
X110271951Y-133261657D01*
X110271950Y-133261658D01*
X110259116Y-133286847D01*
X110214352Y-133374698D01*
X110214352Y-133374699D01*
X110194508Y-133499996D01*
X110194508Y-133500003D01*
X105250135Y-133500003D01*
X105228050Y-133456658D01*
X105228046Y-133456654D01*
X105228045Y-133456652D01*
X105138347Y-133366954D01*
X105138344Y-133366952D01*
X105138342Y-133366950D01*
X105025304Y-133309354D01*
X105025303Y-133309353D01*
X105025300Y-133309352D01*
X104900003Y-133289508D01*
X104899997Y-133289508D01*
X104774699Y-133309352D01*
X104774698Y-133309352D01*
X104705820Y-133344448D01*
X104661658Y-133366950D01*
X104661657Y-133366951D01*
X104661652Y-133366954D01*
X104571954Y-133456652D01*
X104571951Y-133456657D01*
X104571950Y-133456658D01*
X104559375Y-133481338D01*
X104514352Y-133569698D01*
X104514352Y-133569699D01*
X104494508Y-133694996D01*
X104494508Y-133695003D01*
X101004705Y-133695003D01*
X100993664Y-133639498D01*
X100993663Y-133639497D01*
X100993663Y-133639493D01*
X100991432Y-133634106D01*
X100971994Y-133587178D01*
X100971991Y-133587172D01*
X100971989Y-133587167D01*
X100971983Y-133587156D01*
X100951694Y-133552013D01*
X100951692Y-133552011D01*
X100887832Y-133503010D01*
X100887833Y-133503010D01*
X100835511Y-133481338D01*
X100835501Y-133481335D01*
X100776002Y-133469500D01*
X100776000Y-133469500D01*
X90574000Y-133469500D01*
X90573998Y-133469500D01*
X90514498Y-133481335D01*
X90514488Y-133481338D01*
X90462178Y-133503005D01*
X90462156Y-133503016D01*
X90427013Y-133523305D01*
X90427011Y-133523307D01*
X90378010Y-133587167D01*
X90356338Y-133639488D01*
X90356335Y-133639498D01*
X90344500Y-133698997D01*
X90344500Y-133699000D01*
X90344500Y-135451000D01*
X90344500Y-135451002D01*
X90344499Y-135451002D01*
X69300500Y-135451002D01*
X69300500Y-133850003D01*
X80294508Y-133850003D01*
X80314352Y-133975300D01*
X80314352Y-133975301D01*
X80314354Y-133975304D01*
X80371950Y-134088342D01*
X80371952Y-134088344D01*
X80371954Y-134088347D01*
X80461652Y-134178045D01*
X80461654Y-134178046D01*
X80461658Y-134178050D01*
X80574696Y-134235646D01*
X80574697Y-134235646D01*
X80574699Y-134235647D01*
X80699997Y-134255492D01*
X80700000Y-134255492D01*
X80700003Y-134255492D01*
X80825300Y-134235647D01*
X80825301Y-134235647D01*
X80825302Y-134235646D01*
X80825304Y-134235646D01*
X80938342Y-134178050D01*
X81028050Y-134088342D01*
X81085646Y-133975304D01*
X81085646Y-133975302D01*
X81085647Y-133975301D01*
X81085647Y-133975300D01*
X81105492Y-133850003D01*
X81944508Y-133850003D01*
X81964352Y-133975300D01*
X81964352Y-133975301D01*
X81964354Y-133975304D01*
X82021950Y-134088342D01*
X82021952Y-134088344D01*
X82021954Y-134088347D01*
X82111652Y-134178045D01*
X82111654Y-134178046D01*
X82111658Y-134178050D01*
X82224696Y-134235646D01*
X82224697Y-134235646D01*
X82224699Y-134235647D01*
X82349997Y-134255492D01*
X82350000Y-134255492D01*
X82350003Y-134255492D01*
X82475300Y-134235647D01*
X82475301Y-134235647D01*
X82475302Y-134235646D01*
X82475304Y-134235646D01*
X82588342Y-134178050D01*
X82678050Y-134088342D01*
X82735646Y-133975304D01*
X82735646Y-133975302D01*
X82735647Y-133975301D01*
X82735647Y-133975300D01*
X82755492Y-133850003D01*
X83644508Y-133850003D01*
X83664352Y-133975300D01*
X83664352Y-133975301D01*
X83664354Y-133975304D01*
X83721950Y-134088342D01*
X83721952Y-134088344D01*
X83721954Y-134088347D01*
X83811652Y-134178045D01*
X83811654Y-134178046D01*
X83811658Y-134178050D01*
X83924696Y-134235646D01*
X83924697Y-134235646D01*
X83924699Y-134235647D01*
X84049997Y-134255492D01*
X84050000Y-134255492D01*
X84050003Y-134255492D01*
X84175300Y-134235647D01*
X84175301Y-134235647D01*
X84175302Y-134235646D01*
X84175304Y-134235646D01*
X84288342Y-134178050D01*
X84378050Y-134088342D01*
X84435646Y-133975304D01*
X84435646Y-133975302D01*
X84435647Y-133975301D01*
X84435647Y-133975300D01*
X84455492Y-133850003D01*
X84455492Y-133849996D01*
X84435647Y-133724699D01*
X84435647Y-133724698D01*
X84422553Y-133699000D01*
X84378050Y-133611658D01*
X84378046Y-133611654D01*
X84378045Y-133611652D01*
X84288347Y-133521954D01*
X84288344Y-133521952D01*
X84288342Y-133521950D01*
X84175304Y-133464354D01*
X84175303Y-133464353D01*
X84175300Y-133464352D01*
X84050003Y-133444508D01*
X84049997Y-133444508D01*
X83924699Y-133464352D01*
X83924698Y-133464352D01*
X83854745Y-133499996D01*
X83811658Y-133521950D01*
X83811657Y-133521951D01*
X83811652Y-133521954D01*
X83721954Y-133611652D01*
X83721951Y-133611657D01*
X83664352Y-133724698D01*
X83664352Y-133724699D01*
X83644508Y-133849996D01*
X83644508Y-133850003D01*
X82755492Y-133850003D01*
X82755492Y-133849996D01*
X82735647Y-133724699D01*
X82735647Y-133724698D01*
X82722553Y-133699000D01*
X82678050Y-133611658D01*
X82678046Y-133611654D01*
X82678045Y-133611652D01*
X82588347Y-133521954D01*
X82588344Y-133521952D01*
X82588342Y-133521950D01*
X82475304Y-133464354D01*
X82475303Y-133464353D01*
X82475300Y-133464352D01*
X82350003Y-133444508D01*
X82349997Y-133444508D01*
X82224699Y-133464352D01*
X82224698Y-133464352D01*
X82154745Y-133499996D01*
X82111658Y-133521950D01*
X82111657Y-133521951D01*
X82111652Y-133521954D01*
X82021954Y-133611652D01*
X82021951Y-133611657D01*
X81964352Y-133724698D01*
X81964352Y-133724699D01*
X81944508Y-133849996D01*
X81944508Y-133850003D01*
X81105492Y-133850003D01*
X81105492Y-133849996D01*
X81085647Y-133724699D01*
X81085647Y-133724698D01*
X81072553Y-133699000D01*
X81028050Y-133611658D01*
X81028046Y-133611654D01*
X81028045Y-133611652D01*
X80938347Y-133521954D01*
X80938344Y-133521952D01*
X80938342Y-133521950D01*
X80825304Y-133464354D01*
X80825303Y-133464353D01*
X80825300Y-133464352D01*
X80700003Y-133444508D01*
X80699997Y-133444508D01*
X80574699Y-133464352D01*
X80574698Y-133464352D01*
X80504745Y-133499996D01*
X80461658Y-133521950D01*
X80461657Y-133521951D01*
X80461652Y-133521954D01*
X80371954Y-133611652D01*
X80371951Y-133611657D01*
X80314352Y-133724698D01*
X80314352Y-133724699D01*
X80294508Y-133849996D01*
X80294508Y-133850003D01*
X69300500Y-133850003D01*
X69300500Y-131395003D01*
X104894508Y-131395003D01*
X104914352Y-131520300D01*
X104914352Y-131520301D01*
X104916594Y-131524701D01*
X104971950Y-131633342D01*
X104971952Y-131633344D01*
X104971954Y-131633347D01*
X105061652Y-131723045D01*
X105061654Y-131723046D01*
X105061658Y-131723050D01*
X105174696Y-131780646D01*
X105174697Y-131780646D01*
X105174699Y-131780647D01*
X105299997Y-131800492D01*
X105300000Y-131800492D01*
X105300003Y-131800492D01*
X105425300Y-131780647D01*
X105425301Y-131780647D01*
X105425302Y-131780646D01*
X105425304Y-131780646D01*
X105538342Y-131723050D01*
X105628050Y-131633342D01*
X105636980Y-131615815D01*
X105684951Y-131565021D01*
X105752772Y-131548224D01*
X105818907Y-131570760D01*
X105862360Y-131625474D01*
X105869937Y-131652712D01*
X105889353Y-131775301D01*
X105889354Y-131775302D01*
X105889355Y-131775306D01*
X105911706Y-131819173D01*
X105924602Y-131887841D01*
X105911706Y-131931760D01*
X105864353Y-132024695D01*
X105864352Y-132024699D01*
X105844508Y-132149996D01*
X105844508Y-132150003D01*
X105864352Y-132275300D01*
X105864353Y-132275304D01*
X105899206Y-132343706D01*
X105912102Y-132412375D01*
X105899206Y-132456294D01*
X105864353Y-132524695D01*
X105864352Y-132524699D01*
X105844508Y-132649996D01*
X105844508Y-132650003D01*
X105864352Y-132775300D01*
X105864352Y-132775301D01*
X105864354Y-132775304D01*
X105921950Y-132888342D01*
X105921952Y-132888344D01*
X105921954Y-132888347D01*
X106011652Y-132978045D01*
X106011654Y-132978046D01*
X106011658Y-132978050D01*
X106124696Y-133035646D01*
X106124697Y-133035646D01*
X106124699Y-133035647D01*
X106249997Y-133055492D01*
X106250000Y-133055492D01*
X106250003Y-133055492D01*
X106375300Y-133035647D01*
X106375301Y-133035647D01*
X106375302Y-133035646D01*
X106375304Y-133035646D01*
X106488342Y-132978050D01*
X106507587Y-132958805D01*
X121585708Y-132958805D01*
X121605552Y-133084102D01*
X121605552Y-133084103D01*
X121610854Y-133094508D01*
X121663150Y-133197144D01*
X121663152Y-133197146D01*
X121663154Y-133197149D01*
X121752852Y-133286847D01*
X121752856Y-133286850D01*
X121752858Y-133286852D01*
X121828044Y-133325161D01*
X121878839Y-133373135D01*
X121895634Y-133440956D01*
X121894222Y-133455041D01*
X121885708Y-133508803D01*
X121885708Y-133508805D01*
X121905552Y-133634102D01*
X121905552Y-133634103D01*
X121908301Y-133639498D01*
X121963150Y-133747144D01*
X121963152Y-133747146D01*
X121963154Y-133747149D01*
X122052852Y-133836847D01*
X122052854Y-133836848D01*
X122052858Y-133836852D01*
X122165896Y-133894448D01*
X122165897Y-133894448D01*
X122165899Y-133894449D01*
X122291197Y-133914294D01*
X122291200Y-133914294D01*
X122291203Y-133914294D01*
X122416500Y-133894449D01*
X122416502Y-133894448D01*
X122416504Y-133894448D01*
X122529542Y-133836852D01*
X122529543Y-133836850D01*
X122534904Y-133834119D01*
X122603573Y-133821222D01*
X122647496Y-133834119D01*
X122652856Y-133836850D01*
X122652858Y-133836852D01*
X122748621Y-133885646D01*
X122765896Y-133894448D01*
X122765899Y-133894449D01*
X122891197Y-133914294D01*
X122891200Y-133914294D01*
X122891203Y-133914294D01*
X123016500Y-133894449D01*
X123016502Y-133894448D01*
X123016504Y-133894448D01*
X123129542Y-133836852D01*
X123129543Y-133836850D01*
X123134904Y-133834119D01*
X123203573Y-133821222D01*
X123247496Y-133834119D01*
X123252856Y-133836850D01*
X123252858Y-133836852D01*
X123348621Y-133885646D01*
X123365896Y-133894448D01*
X123365899Y-133894449D01*
X123491197Y-133914294D01*
X123491200Y-133914294D01*
X123491203Y-133914294D01*
X123616500Y-133894449D01*
X123616501Y-133894449D01*
X123616502Y-133894448D01*
X123616504Y-133894448D01*
X123729542Y-133836852D01*
X123819250Y-133747144D01*
X123876846Y-133634106D01*
X123876846Y-133634104D01*
X123876847Y-133634103D01*
X123876847Y-133634102D01*
X123896692Y-133508805D01*
X123896692Y-133508798D01*
X123876847Y-133383501D01*
X123876847Y-133383500D01*
X123856949Y-133344449D01*
X123819250Y-133270460D01*
X123819246Y-133270456D01*
X123819245Y-133270454D01*
X123729547Y-133180756D01*
X123729544Y-133180754D01*
X123729542Y-133180752D01*
X123616504Y-133123156D01*
X123616503Y-133123155D01*
X123616500Y-133123154D01*
X123491203Y-133103310D01*
X123491197Y-133103310D01*
X123365899Y-133123154D01*
X123365898Y-133123154D01*
X123308374Y-133152465D01*
X123252858Y-133180752D01*
X123252857Y-133180752D01*
X123247495Y-133183485D01*
X123178826Y-133196381D01*
X123134905Y-133183485D01*
X123129542Y-133180752D01*
X123016504Y-133123156D01*
X123016503Y-133123155D01*
X123016500Y-133123154D01*
X122891203Y-133103310D01*
X122891197Y-133103310D01*
X122765899Y-133123154D01*
X122765898Y-133123154D01*
X122708374Y-133152465D01*
X122652858Y-133180752D01*
X122652857Y-133180752D01*
X122647495Y-133183485D01*
X122578826Y-133196381D01*
X122534905Y-133183485D01*
X122529542Y-133180752D01*
X122454355Y-133142442D01*
X122403560Y-133094468D01*
X122386765Y-133026647D01*
X122388178Y-133012560D01*
X122396692Y-132958804D01*
X122396692Y-132958798D01*
X122376847Y-132833501D01*
X122376847Y-132833500D01*
X122376846Y-132833498D01*
X122319250Y-132720460D01*
X122319245Y-132720455D01*
X122313511Y-132712561D01*
X122314865Y-132711576D01*
X122286790Y-132660170D01*
X122291769Y-132590478D01*
X122314213Y-132555553D01*
X122313511Y-132555043D01*
X122319242Y-132547151D01*
X122319250Y-132547144D01*
X122376846Y-132434106D01*
X122376846Y-132434104D01*
X122376847Y-132434103D01*
X122376847Y-132434102D01*
X122396692Y-132308805D01*
X122396692Y-132308798D01*
X122376847Y-132183501D01*
X122376846Y-132183498D01*
X122358325Y-132147149D01*
X122319250Y-132070460D01*
X122319248Y-132070458D01*
X122316517Y-132065098D01*
X122303620Y-131996429D01*
X122316517Y-131952506D01*
X122319248Y-131947145D01*
X122319250Y-131947144D01*
X122338785Y-131908805D01*
X123935708Y-131908805D01*
X123955552Y-132034102D01*
X123955552Y-132034103D01*
X123961833Y-132046429D01*
X124013150Y-132147144D01*
X124013152Y-132147146D01*
X124013154Y-132147149D01*
X124102852Y-132236847D01*
X124102854Y-132236848D01*
X124102858Y-132236852D01*
X124215896Y-132294448D01*
X124215897Y-132294448D01*
X124215899Y-132294449D01*
X124341197Y-132314294D01*
X124341200Y-132314294D01*
X124341203Y-132314294D01*
X124466500Y-132294449D01*
X124466502Y-132294448D01*
X124466504Y-132294448D01*
X124466505Y-132294447D01*
X124475783Y-132291433D01*
X124476659Y-132294131D01*
X124530210Y-132284061D01*
X124594957Y-132310321D01*
X124635228Y-132367418D01*
X124640339Y-132388047D01*
X124655552Y-132484103D01*
X124687674Y-132547144D01*
X124709753Y-132590478D01*
X124715883Y-132602507D01*
X124728779Y-132671176D01*
X124715883Y-132715097D01*
X124655552Y-132833500D01*
X124655552Y-132833501D01*
X124635708Y-132958798D01*
X124635708Y-132958805D01*
X124655552Y-133084102D01*
X124655552Y-133084103D01*
X124660854Y-133094508D01*
X124713150Y-133197144D01*
X124713152Y-133197146D01*
X124713154Y-133197149D01*
X124802852Y-133286847D01*
X124802854Y-133286848D01*
X124802858Y-133286852D01*
X124915896Y-133344448D01*
X124915897Y-133344448D01*
X124915899Y-133344449D01*
X125041197Y-133364294D01*
X125041200Y-133364294D01*
X125041203Y-133364294D01*
X125166500Y-133344449D01*
X125166501Y-133344449D01*
X125166502Y-133344448D01*
X125166504Y-133344448D01*
X125279542Y-133286852D01*
X125369250Y-133197144D01*
X125426846Y-133084106D01*
X125426846Y-133084104D01*
X125426847Y-133084103D01*
X125426847Y-133084102D01*
X125446692Y-132958805D01*
X125446692Y-132958798D01*
X125426847Y-132833501D01*
X125426846Y-132833498D01*
X125369250Y-132720460D01*
X125369248Y-132720458D01*
X125366517Y-132715098D01*
X125353620Y-132646429D01*
X125366517Y-132602506D01*
X125369248Y-132597145D01*
X125369250Y-132597144D01*
X125426846Y-132484106D01*
X125426846Y-132484104D01*
X125426847Y-132484102D01*
X125446692Y-132358805D01*
X125446692Y-132358798D01*
X125426847Y-132233501D01*
X125426846Y-132233498D01*
X125412576Y-132205492D01*
X125369250Y-132120460D01*
X125369248Y-132120458D01*
X125366517Y-132115098D01*
X125353620Y-132046429D01*
X125366517Y-132002506D01*
X125369248Y-131997145D01*
X125369250Y-131997144D01*
X125426846Y-131884106D01*
X125426847Y-131884102D01*
X125446692Y-131758805D01*
X125446692Y-131758798D01*
X125426847Y-131633501D01*
X125426846Y-131633498D01*
X125426766Y-131633341D01*
X125369250Y-131520460D01*
X125369248Y-131520458D01*
X125366517Y-131515098D01*
X125353620Y-131446429D01*
X125366517Y-131402506D01*
X125369248Y-131397145D01*
X125369250Y-131397144D01*
X125426846Y-131284106D01*
X125428240Y-131275305D01*
X125446692Y-131158805D01*
X125446692Y-131158798D01*
X125426847Y-131033501D01*
X125426847Y-131033500D01*
X125422362Y-131024697D01*
X125369250Y-130920460D01*
X125369246Y-130920456D01*
X125369245Y-130920454D01*
X125279547Y-130830756D01*
X125279544Y-130830754D01*
X125279542Y-130830752D01*
X125166504Y-130773156D01*
X125166503Y-130773155D01*
X125166500Y-130773154D01*
X125041203Y-130753310D01*
X125041197Y-130753310D01*
X124915899Y-130773154D01*
X124906617Y-130776171D01*
X124905741Y-130773477D01*
X124852150Y-130783538D01*
X124787411Y-130757257D01*
X124747158Y-130700148D01*
X124742060Y-130679555D01*
X124726847Y-130583501D01*
X124726846Y-130583498D01*
X124703840Y-130538347D01*
X124669250Y-130470460D01*
X124669248Y-130470458D01*
X124666517Y-130465098D01*
X124653620Y-130396429D01*
X124666517Y-130352506D01*
X124669248Y-130347145D01*
X124669250Y-130347144D01*
X124726846Y-130234106D01*
X124726846Y-130234105D01*
X124726847Y-130234104D01*
X124726847Y-130234102D01*
X124746692Y-130108805D01*
X124746692Y-130108798D01*
X124726847Y-129983501D01*
X124726846Y-129983498D01*
X124720962Y-129971950D01*
X124669250Y-129870460D01*
X124669248Y-129870458D01*
X124666517Y-129865098D01*
X124653620Y-129796429D01*
X124666517Y-129752506D01*
X124669248Y-129747145D01*
X124669250Y-129747144D01*
X124726846Y-129634106D01*
X124726846Y-129634104D01*
X124726847Y-129634102D01*
X124746692Y-129508805D01*
X124746692Y-129508798D01*
X124726847Y-129383501D01*
X124726846Y-129383498D01*
X124711880Y-129354126D01*
X124669250Y-129270460D01*
X124669248Y-129270458D01*
X124666517Y-129265098D01*
X124653620Y-129196429D01*
X124666517Y-129152506D01*
X124669248Y-129147145D01*
X124669250Y-129147144D01*
X124726846Y-129034106D01*
X124726846Y-129034104D01*
X124726847Y-129034102D01*
X124746692Y-128908805D01*
X124746692Y-128908798D01*
X124726847Y-128783501D01*
X124726847Y-128783500D01*
X124706381Y-128743334D01*
X124669250Y-128670460D01*
X124669246Y-128670456D01*
X124669245Y-128670454D01*
X124579547Y-128580756D01*
X124579544Y-128580754D01*
X124579542Y-128580752D01*
X124466504Y-128523156D01*
X124466503Y-128523155D01*
X124466500Y-128523154D01*
X124341203Y-128503310D01*
X124341197Y-128503310D01*
X124215899Y-128523154D01*
X124215898Y-128523154D01*
X124140537Y-128561553D01*
X124102858Y-128580752D01*
X124102857Y-128580753D01*
X124102852Y-128580756D01*
X124013154Y-128670454D01*
X124013151Y-128670459D01*
X124013150Y-128670460D01*
X124012389Y-128671954D01*
X123955552Y-128783500D01*
X123955552Y-128783501D01*
X123935708Y-128908798D01*
X123935708Y-128908805D01*
X123955552Y-129034102D01*
X123955552Y-129034103D01*
X123955554Y-129034106D01*
X124002020Y-129125301D01*
X124015883Y-129152507D01*
X124028779Y-129221176D01*
X124015883Y-129265097D01*
X123955552Y-129383500D01*
X123955552Y-129383501D01*
X123935708Y-129508798D01*
X123935708Y-129508805D01*
X123955552Y-129634102D01*
X123955552Y-129634103D01*
X124015883Y-129752507D01*
X124028779Y-129821176D01*
X124015883Y-129865097D01*
X123955552Y-129983500D01*
X123955552Y-129983501D01*
X123935708Y-130108798D01*
X123935708Y-130108805D01*
X123955552Y-130234102D01*
X123955552Y-130234103D01*
X123955554Y-130234106D01*
X124000314Y-130321953D01*
X124015883Y-130352507D01*
X124028779Y-130421176D01*
X124015883Y-130465097D01*
X123955552Y-130583500D01*
X123955552Y-130583501D01*
X123935708Y-130708798D01*
X123935708Y-130708805D01*
X123955552Y-130834102D01*
X123955552Y-130834103D01*
X124015883Y-130952507D01*
X124028779Y-131021176D01*
X124015883Y-131065097D01*
X123955552Y-131183500D01*
X123955552Y-131183501D01*
X123935708Y-131308798D01*
X123935708Y-131308805D01*
X123955552Y-131434102D01*
X123955552Y-131434103D01*
X124015883Y-131552507D01*
X124028779Y-131621176D01*
X124015883Y-131665097D01*
X123955552Y-131783500D01*
X123955552Y-131783501D01*
X123935708Y-131908798D01*
X123935708Y-131908805D01*
X122338785Y-131908805D01*
X122376846Y-131834106D01*
X122376846Y-131834104D01*
X122376847Y-131834102D01*
X122396692Y-131708805D01*
X122396692Y-131708798D01*
X122376847Y-131583501D01*
X122376846Y-131583498D01*
X122358873Y-131548224D01*
X122319250Y-131470460D01*
X122319248Y-131470458D01*
X122316517Y-131465098D01*
X122303620Y-131396429D01*
X122316517Y-131352506D01*
X122319248Y-131347145D01*
X122319250Y-131347144D01*
X122376846Y-131234106D01*
X122376846Y-131234104D01*
X122376847Y-131234102D01*
X122396692Y-131108805D01*
X122396692Y-131108798D01*
X122376847Y-130983501D01*
X122376847Y-130983500D01*
X122376846Y-130983498D01*
X122319250Y-130870460D01*
X122319246Y-130870456D01*
X122319245Y-130870454D01*
X122229547Y-130780756D01*
X122229544Y-130780754D01*
X122229542Y-130780752D01*
X122116504Y-130723156D01*
X122116503Y-130723155D01*
X122116500Y-130723154D01*
X121991203Y-130703310D01*
X121991197Y-130703310D01*
X121865899Y-130723154D01*
X121865898Y-130723154D01*
X121798969Y-130757257D01*
X121752858Y-130780752D01*
X121752857Y-130780753D01*
X121752852Y-130780756D01*
X121663154Y-130870454D01*
X121663151Y-130870459D01*
X121663150Y-130870460D01*
X121654038Y-130888344D01*
X121605552Y-130983500D01*
X121605552Y-130983501D01*
X121585708Y-131108798D01*
X121585708Y-131108805D01*
X121605552Y-131234102D01*
X121605552Y-131234103D01*
X121631028Y-131284102D01*
X121661398Y-131343706D01*
X121665883Y-131352507D01*
X121678779Y-131421176D01*
X121665883Y-131465097D01*
X121663150Y-131470459D01*
X121663150Y-131470460D01*
X121662389Y-131471954D01*
X121605552Y-131583500D01*
X121605552Y-131583501D01*
X121585708Y-131708798D01*
X121585708Y-131708805D01*
X121605552Y-131834102D01*
X121605552Y-131834103D01*
X121605554Y-131834106D01*
X121655311Y-131931760D01*
X121665883Y-131952507D01*
X121678779Y-132021176D01*
X121665883Y-132065097D01*
X121605552Y-132183500D01*
X121605552Y-132183501D01*
X121585708Y-132308798D01*
X121585708Y-132308805D01*
X121605552Y-132434102D01*
X121605552Y-132434103D01*
X121616859Y-132456294D01*
X121663150Y-132547144D01*
X121663153Y-132547147D01*
X121668889Y-132555043D01*
X121667534Y-132556026D01*
X121695611Y-132607444D01*
X121690627Y-132677136D01*
X121668187Y-132712051D01*
X121668889Y-132712561D01*
X121663151Y-132720459D01*
X121605552Y-132833500D01*
X121605552Y-132833501D01*
X121585708Y-132958798D01*
X121585708Y-132958805D01*
X106507587Y-132958805D01*
X106578050Y-132888342D01*
X106635646Y-132775304D01*
X106635646Y-132775302D01*
X106635647Y-132775301D01*
X106635647Y-132775300D01*
X106655492Y-132650003D01*
X106655492Y-132649996D01*
X106635647Y-132524699D01*
X106635646Y-132524696D01*
X106600794Y-132456296D01*
X106587897Y-132387626D01*
X106600794Y-132343704D01*
X106635646Y-132275304D01*
X106635647Y-132275300D01*
X106655492Y-132150003D01*
X106655492Y-132149996D01*
X106635647Y-132024699D01*
X106635646Y-132024697D01*
X106635646Y-132024696D01*
X106613293Y-131980827D01*
X106600398Y-131912160D01*
X106613294Y-131868240D01*
X106648063Y-131800003D01*
X110194508Y-131800003D01*
X110214352Y-131925300D01*
X110214352Y-131925301D01*
X110225482Y-131947144D01*
X110271950Y-132038342D01*
X110271952Y-132038344D01*
X110271954Y-132038347D01*
X110361652Y-132128045D01*
X110361654Y-132128046D01*
X110361658Y-132128050D01*
X110474696Y-132185646D01*
X110474697Y-132185646D01*
X110474699Y-132185647D01*
X110599997Y-132205492D01*
X110600000Y-132205492D01*
X110600003Y-132205492D01*
X110725300Y-132185647D01*
X110725301Y-132185647D01*
X110725302Y-132185646D01*
X110725304Y-132185646D01*
X110838342Y-132128050D01*
X110928050Y-132038342D01*
X110985646Y-131925304D01*
X110985646Y-131925302D01*
X110985647Y-131925301D01*
X110985647Y-131925300D01*
X111005492Y-131800003D01*
X114944508Y-131800003D01*
X114964352Y-131925300D01*
X114964352Y-131925301D01*
X114975482Y-131947144D01*
X115021950Y-132038342D01*
X115021952Y-132038344D01*
X115021954Y-132038347D01*
X115111652Y-132128045D01*
X115111654Y-132128046D01*
X115111658Y-132128050D01*
X115224696Y-132185646D01*
X115224697Y-132185646D01*
X115224699Y-132185647D01*
X115349997Y-132205492D01*
X115350000Y-132205492D01*
X115350003Y-132205492D01*
X115475300Y-132185647D01*
X115475301Y-132185647D01*
X115475302Y-132185646D01*
X115475304Y-132185646D01*
X115588342Y-132128050D01*
X115678050Y-132038342D01*
X115735646Y-131925304D01*
X115735646Y-131925302D01*
X115735647Y-131925301D01*
X115735647Y-131925300D01*
X115755492Y-131800003D01*
X117344508Y-131800003D01*
X117364352Y-131925300D01*
X117364352Y-131925301D01*
X117375482Y-131947144D01*
X117421950Y-132038342D01*
X117421952Y-132038344D01*
X117421954Y-132038347D01*
X117511652Y-132128045D01*
X117511654Y-132128046D01*
X117511658Y-132128050D01*
X117624696Y-132185646D01*
X117624697Y-132185646D01*
X117624699Y-132185647D01*
X117749997Y-132205492D01*
X117750000Y-132205492D01*
X117750003Y-132205492D01*
X117875300Y-132185647D01*
X117875301Y-132185647D01*
X117875302Y-132185646D01*
X117875304Y-132185646D01*
X117988342Y-132128050D01*
X118078050Y-132038342D01*
X118135646Y-131925304D01*
X118135646Y-131925302D01*
X118135647Y-131925301D01*
X118135647Y-131925300D01*
X118155492Y-131800003D01*
X118155492Y-131799996D01*
X118135647Y-131674699D01*
X118135647Y-131674698D01*
X118124888Y-131653582D01*
X118078050Y-131561658D01*
X118078046Y-131561654D01*
X118078045Y-131561652D01*
X117988347Y-131471954D01*
X117988344Y-131471952D01*
X117988342Y-131471950D01*
X117875304Y-131414354D01*
X117875303Y-131414353D01*
X117875300Y-131414352D01*
X117750003Y-131394508D01*
X117749997Y-131394508D01*
X117624699Y-131414352D01*
X117624698Y-131414352D01*
X117549337Y-131452751D01*
X117511658Y-131471950D01*
X117511657Y-131471951D01*
X117511652Y-131471954D01*
X117421954Y-131561652D01*
X117421951Y-131561657D01*
X117421950Y-131561658D01*
X117402751Y-131599337D01*
X117364352Y-131674698D01*
X117364352Y-131674699D01*
X117344508Y-131799996D01*
X117344508Y-131800003D01*
X115755492Y-131800003D01*
X115755492Y-131799996D01*
X115735647Y-131674699D01*
X115735647Y-131674698D01*
X115724888Y-131653582D01*
X115678050Y-131561658D01*
X115678046Y-131561654D01*
X115678045Y-131561652D01*
X115588347Y-131471954D01*
X115588344Y-131471952D01*
X115588342Y-131471950D01*
X115475304Y-131414354D01*
X115475303Y-131414353D01*
X115475300Y-131414352D01*
X115350003Y-131394508D01*
X115349997Y-131394508D01*
X115224699Y-131414352D01*
X115224698Y-131414352D01*
X115149337Y-131452751D01*
X115111658Y-131471950D01*
X115111657Y-131471951D01*
X115111652Y-131471954D01*
X115021954Y-131561652D01*
X115021951Y-131561657D01*
X115021950Y-131561658D01*
X115002751Y-131599337D01*
X114964352Y-131674698D01*
X114964352Y-131674699D01*
X114944508Y-131799996D01*
X114944508Y-131800003D01*
X111005492Y-131800003D01*
X111005492Y-131799996D01*
X110985647Y-131674699D01*
X110985647Y-131674698D01*
X110974888Y-131653582D01*
X110928050Y-131561658D01*
X110928046Y-131561654D01*
X110928045Y-131561652D01*
X110838347Y-131471954D01*
X110838344Y-131471952D01*
X110838342Y-131471950D01*
X110725304Y-131414354D01*
X110725303Y-131414353D01*
X110725300Y-131414352D01*
X110600003Y-131394508D01*
X110599997Y-131394508D01*
X110474699Y-131414352D01*
X110474698Y-131414352D01*
X110399337Y-131452751D01*
X110361658Y-131471950D01*
X110361657Y-131471951D01*
X110361652Y-131471954D01*
X110271954Y-131561652D01*
X110271951Y-131561657D01*
X110271950Y-131561658D01*
X110252751Y-131599337D01*
X110214352Y-131674698D01*
X110214352Y-131674699D01*
X110194508Y-131799996D01*
X110194508Y-131800003D01*
X106648063Y-131800003D01*
X106660647Y-131775306D01*
X106660648Y-131775301D01*
X106680493Y-131650005D01*
X106680493Y-131649998D01*
X106660648Y-131524701D01*
X106660647Y-131524698D01*
X106658406Y-131520300D01*
X106625794Y-131456297D01*
X106612898Y-131387628D01*
X106625795Y-131343706D01*
X106643578Y-131308805D01*
X106660647Y-131275306D01*
X106661535Y-131269699D01*
X106680493Y-131150005D01*
X106680493Y-131149998D01*
X106660648Y-131024701D01*
X106660647Y-131024698D01*
X106652828Y-131009352D01*
X106625794Y-130956297D01*
X106612898Y-130887628D01*
X106625795Y-130843706D01*
X106660647Y-130775306D01*
X106671180Y-130708805D01*
X106680493Y-130650005D01*
X106680493Y-130649998D01*
X106660648Y-130524701D01*
X106660648Y-130524700D01*
X106633011Y-130470460D01*
X106603051Y-130411660D01*
X106603047Y-130411656D01*
X106603046Y-130411654D01*
X106513348Y-130321956D01*
X106513345Y-130321954D01*
X106513343Y-130321952D01*
X106400305Y-130264356D01*
X106400304Y-130264355D01*
X106400301Y-130264354D01*
X106275004Y-130244510D01*
X106274998Y-130244510D01*
X106149700Y-130264354D01*
X106149699Y-130264354D01*
X106079750Y-130299996D01*
X106036659Y-130321952D01*
X106036658Y-130321953D01*
X106036653Y-130321956D01*
X105946955Y-130411654D01*
X105946952Y-130411659D01*
X105946951Y-130411660D01*
X105940001Y-130425300D01*
X105889353Y-130524700D01*
X105889353Y-130524701D01*
X105869509Y-130649998D01*
X105869509Y-130650005D01*
X105889353Y-130775302D01*
X105889354Y-130775306D01*
X105924207Y-130843708D01*
X105937103Y-130912377D01*
X105924207Y-130956296D01*
X105889354Y-131024697D01*
X105889353Y-131024700D01*
X105871146Y-131139660D01*
X105841217Y-131202795D01*
X105781905Y-131239726D01*
X105712043Y-131238728D01*
X105653810Y-131200118D01*
X105638190Y-131176559D01*
X105628050Y-131156658D01*
X105628049Y-131156657D01*
X105628045Y-131156652D01*
X105538347Y-131066954D01*
X105538344Y-131066952D01*
X105538342Y-131066950D01*
X105425304Y-131009354D01*
X105425303Y-131009353D01*
X105425300Y-131009352D01*
X105300003Y-130989508D01*
X105299997Y-130989508D01*
X105174699Y-131009352D01*
X105174698Y-131009352D01*
X105099337Y-131047751D01*
X105061658Y-131066950D01*
X105061657Y-131066951D01*
X105061652Y-131066954D01*
X104971954Y-131156652D01*
X104971951Y-131156657D01*
X104971950Y-131156658D01*
X104958274Y-131183498D01*
X104914352Y-131269698D01*
X104914352Y-131269699D01*
X104894508Y-131394996D01*
X104894508Y-131395003D01*
X69300500Y-131395003D01*
X69300500Y-130300003D01*
X72644508Y-130300003D01*
X72664352Y-130425300D01*
X72664352Y-130425301D01*
X72664354Y-130425304D01*
X72721950Y-130538342D01*
X72721952Y-130538344D01*
X72721954Y-130538347D01*
X72811652Y-130628045D01*
X72811654Y-130628046D01*
X72811658Y-130628050D01*
X72924696Y-130685646D01*
X72924697Y-130685646D01*
X72924699Y-130685647D01*
X73049997Y-130705492D01*
X73050000Y-130705492D01*
X73050003Y-130705492D01*
X73175300Y-130685647D01*
X73175301Y-130685647D01*
X73175302Y-130685646D01*
X73175304Y-130685646D01*
X73288342Y-130628050D01*
X73378050Y-130538342D01*
X73435646Y-130425304D01*
X73435646Y-130425302D01*
X73435647Y-130425301D01*
X73435647Y-130425300D01*
X73455492Y-130300003D01*
X73455492Y-130299996D01*
X73435647Y-130174699D01*
X73435647Y-130174698D01*
X73435646Y-130174696D01*
X73378050Y-130061658D01*
X73378046Y-130061654D01*
X73378045Y-130061652D01*
X73288347Y-129971954D01*
X73288344Y-129971952D01*
X73288342Y-129971950D01*
X73175304Y-129914354D01*
X73175303Y-129914353D01*
X73175300Y-129914352D01*
X73050003Y-129894508D01*
X73049997Y-129894508D01*
X72924699Y-129914352D01*
X72924698Y-129914352D01*
X72877607Y-129938347D01*
X72811658Y-129971950D01*
X72811657Y-129971951D01*
X72811652Y-129971954D01*
X72721954Y-130061652D01*
X72721951Y-130061657D01*
X72721950Y-130061658D01*
X72709727Y-130085647D01*
X72664352Y-130174698D01*
X72664352Y-130174699D01*
X72644508Y-130299996D01*
X72644508Y-130300003D01*
X69300500Y-130300003D01*
X69300500Y-129800003D01*
X90594508Y-129800003D01*
X90614352Y-129925300D01*
X90614352Y-129925301D01*
X90622551Y-129941392D01*
X90671950Y-130038342D01*
X90671952Y-130038344D01*
X90671954Y-130038347D01*
X90761652Y-130128045D01*
X90761654Y-130128046D01*
X90761658Y-130128050D01*
X90874696Y-130185646D01*
X90874697Y-130185646D01*
X90874699Y-130185647D01*
X90999997Y-130205492D01*
X91000000Y-130205492D01*
X91000003Y-130205492D01*
X91125300Y-130185647D01*
X91125301Y-130185647D01*
X91125302Y-130185646D01*
X91125304Y-130185646D01*
X91238342Y-130128050D01*
X91328050Y-130038342D01*
X91385646Y-129925304D01*
X91385646Y-129925302D01*
X91385647Y-129925301D01*
X91385647Y-129925300D01*
X91405492Y-129800003D01*
X91405492Y-129799996D01*
X91389655Y-129700003D01*
X108244508Y-129700003D01*
X108264352Y-129825300D01*
X108264352Y-129825301D01*
X108264354Y-129825304D01*
X108321950Y-129938342D01*
X108321952Y-129938344D01*
X108321954Y-129938347D01*
X108411652Y-130028045D01*
X108411654Y-130028046D01*
X108411658Y-130028050D01*
X108524696Y-130085646D01*
X108524697Y-130085646D01*
X108524699Y-130085647D01*
X108649997Y-130105492D01*
X108650000Y-130105492D01*
X108650003Y-130105492D01*
X108775300Y-130085647D01*
X108775301Y-130085647D01*
X108775302Y-130085646D01*
X108775304Y-130085646D01*
X108888342Y-130028050D01*
X108888349Y-130028042D01*
X108896241Y-130022311D01*
X108897225Y-130023665D01*
X108948632Y-129995590D01*
X109018324Y-130000569D01*
X109053248Y-130023013D01*
X109053759Y-130022311D01*
X109061653Y-130028045D01*
X109061658Y-130028050D01*
X109174696Y-130085646D01*
X109174697Y-130085646D01*
X109174699Y-130085647D01*
X109299997Y-130105492D01*
X109300000Y-130105492D01*
X109300003Y-130105492D01*
X109425300Y-130085647D01*
X109425301Y-130085647D01*
X109425302Y-130085646D01*
X109425304Y-130085646D01*
X109538342Y-130028050D01*
X109538349Y-130028042D01*
X109546241Y-130022311D01*
X109547225Y-130023665D01*
X109598632Y-129995590D01*
X109668324Y-130000569D01*
X109703248Y-130023013D01*
X109703759Y-130022311D01*
X109711653Y-130028045D01*
X109711658Y-130028050D01*
X109824696Y-130085646D01*
X109824697Y-130085646D01*
X109824699Y-130085647D01*
X109949997Y-130105492D01*
X109950000Y-130105492D01*
X109950003Y-130105492D01*
X110075300Y-130085647D01*
X110075301Y-130085647D01*
X110075302Y-130085646D01*
X110075304Y-130085646D01*
X110188342Y-130028050D01*
X110188349Y-130028042D01*
X110196241Y-130022311D01*
X110197225Y-130023665D01*
X110248632Y-129995590D01*
X110318324Y-130000569D01*
X110353248Y-130023013D01*
X110353759Y-130022311D01*
X110361653Y-130028045D01*
X110361658Y-130028050D01*
X110474696Y-130085646D01*
X110474697Y-130085646D01*
X110474699Y-130085647D01*
X110599997Y-130105492D01*
X110600000Y-130105492D01*
X110600003Y-130105492D01*
X110725300Y-130085647D01*
X110725301Y-130085647D01*
X110725302Y-130085646D01*
X110725304Y-130085646D01*
X110838342Y-130028050D01*
X110838349Y-130028042D01*
X110846241Y-130022311D01*
X110847225Y-130023665D01*
X110898632Y-129995590D01*
X110968324Y-130000569D01*
X111003248Y-130023013D01*
X111003759Y-130022311D01*
X111011653Y-130028045D01*
X111011658Y-130028050D01*
X111124696Y-130085646D01*
X111124697Y-130085646D01*
X111124699Y-130085647D01*
X111249997Y-130105492D01*
X111250000Y-130105492D01*
X111250003Y-130105492D01*
X111375300Y-130085647D01*
X111375301Y-130085647D01*
X111375302Y-130085646D01*
X111375304Y-130085646D01*
X111488342Y-130028050D01*
X111578050Y-129938342D01*
X111635646Y-129825304D01*
X111635646Y-129825302D01*
X111635647Y-129825301D01*
X111635647Y-129825300D01*
X111655492Y-129700003D01*
X111655492Y-129699996D01*
X111635647Y-129574699D01*
X111635647Y-129574698D01*
X111608424Y-129521271D01*
X111578050Y-129461658D01*
X111578046Y-129461654D01*
X111578045Y-129461652D01*
X111488347Y-129371954D01*
X111488344Y-129371952D01*
X111488342Y-129371950D01*
X111375304Y-129314354D01*
X111375302Y-129314353D01*
X111375299Y-129314352D01*
X111369809Y-129312568D01*
X111312134Y-129273130D01*
X111284937Y-129208771D01*
X111285656Y-129175240D01*
X111305492Y-129050001D01*
X111305492Y-129049996D01*
X111285647Y-128924699D01*
X111285647Y-128924698D01*
X111277549Y-128908805D01*
X111228050Y-128811658D01*
X111204072Y-128787680D01*
X111170588Y-128726360D01*
X111175572Y-128656668D01*
X111204072Y-128612319D01*
X111228050Y-128588342D01*
X111285646Y-128475304D01*
X111285646Y-128475302D01*
X111285647Y-128475301D01*
X111285647Y-128475300D01*
X111305492Y-128350003D01*
X111305492Y-128349996D01*
X111285647Y-128224699D01*
X111285647Y-128224698D01*
X111285646Y-128224696D01*
X111228050Y-128111658D01*
X111204072Y-128087680D01*
X111170588Y-128026360D01*
X111175572Y-127956668D01*
X111204072Y-127912319D01*
X111228050Y-127888342D01*
X111285646Y-127775304D01*
X111285646Y-127775302D01*
X111285647Y-127775301D01*
X111285647Y-127775300D01*
X111305492Y-127650003D01*
X111305492Y-127649996D01*
X111285647Y-127524699D01*
X111285647Y-127524698D01*
X111285645Y-127524695D01*
X111228050Y-127411658D01*
X111204072Y-127387680D01*
X111170588Y-127326360D01*
X111175572Y-127256668D01*
X111204072Y-127212319D01*
X111228050Y-127188342D01*
X111285646Y-127075304D01*
X111285646Y-127075302D01*
X111285647Y-127075301D01*
X111285647Y-127075300D01*
X111305492Y-126950003D01*
X111305492Y-126949996D01*
X111285647Y-126824699D01*
X111285647Y-126824698D01*
X111285646Y-126824696D01*
X111228050Y-126711658D01*
X111228046Y-126711654D01*
X111228045Y-126711652D01*
X111138347Y-126621954D01*
X111138344Y-126621952D01*
X111138342Y-126621950D01*
X111025304Y-126564354D01*
X111025303Y-126564353D01*
X111025300Y-126564352D01*
X110900003Y-126544508D01*
X110899997Y-126544508D01*
X110774699Y-126564352D01*
X110774698Y-126564352D01*
X110699337Y-126602751D01*
X110661658Y-126621950D01*
X110661657Y-126621951D01*
X110661652Y-126621954D01*
X110571954Y-126711652D01*
X110571951Y-126711657D01*
X110571950Y-126711658D01*
X110557276Y-126740458D01*
X110514352Y-126824698D01*
X110514352Y-126824699D01*
X110494508Y-126949996D01*
X110494508Y-126950003D01*
X110514352Y-127075300D01*
X110514352Y-127075301D01*
X110514354Y-127075304D01*
X110571950Y-127188342D01*
X110571952Y-127188344D01*
X110571954Y-127188347D01*
X110595926Y-127212319D01*
X110629411Y-127273642D01*
X110624427Y-127343334D01*
X110595926Y-127387681D01*
X110571954Y-127411652D01*
X110571951Y-127411657D01*
X110571950Y-127411658D01*
X110552751Y-127449337D01*
X110514352Y-127524698D01*
X110514352Y-127524699D01*
X110494508Y-127649996D01*
X110494508Y-127650003D01*
X110514352Y-127775300D01*
X110514352Y-127775301D01*
X110514354Y-127775304D01*
X110571950Y-127888342D01*
X110571952Y-127888344D01*
X110571954Y-127888347D01*
X110595926Y-127912319D01*
X110629411Y-127973642D01*
X110624427Y-128043334D01*
X110595926Y-128087681D01*
X110571954Y-128111652D01*
X110571951Y-128111657D01*
X110514352Y-128224698D01*
X110514352Y-128224699D01*
X110494508Y-128349996D01*
X110494508Y-128350003D01*
X110514352Y-128475300D01*
X110514352Y-128475301D01*
X110514354Y-128475304D01*
X110571950Y-128588342D01*
X110571952Y-128588344D01*
X110571954Y-128588347D01*
X110595926Y-128612319D01*
X110629411Y-128673642D01*
X110624427Y-128743334D01*
X110595926Y-128787681D01*
X110571954Y-128811652D01*
X110571951Y-128811657D01*
X110514352Y-128924698D01*
X110514352Y-128924699D01*
X110494508Y-129049996D01*
X110494508Y-129050003D01*
X110514352Y-129175302D01*
X110514758Y-129176549D01*
X110514803Y-129178147D01*
X110515880Y-129184944D01*
X110515001Y-129185083D01*
X110516750Y-129246390D01*
X110480667Y-129306221D01*
X110453121Y-129325346D01*
X110361659Y-129371949D01*
X110353759Y-129377689D01*
X110352775Y-129376334D01*
X110301358Y-129404411D01*
X110231666Y-129399427D01*
X110196750Y-129376987D01*
X110196241Y-129377689D01*
X110188345Y-129371953D01*
X110188342Y-129371950D01*
X110075304Y-129314354D01*
X110075303Y-129314353D01*
X110075300Y-129314352D01*
X109950003Y-129294508D01*
X109949997Y-129294508D01*
X109824699Y-129314352D01*
X109824698Y-129314352D01*
X109749337Y-129352751D01*
X109711658Y-129371950D01*
X109711657Y-129371951D01*
X109703759Y-129377689D01*
X109702775Y-129376334D01*
X109651358Y-129404411D01*
X109581666Y-129399427D01*
X109546750Y-129376987D01*
X109546241Y-129377689D01*
X109538345Y-129371953D01*
X109538342Y-129371950D01*
X109425304Y-129314354D01*
X109425303Y-129314353D01*
X109425300Y-129314352D01*
X109300003Y-129294508D01*
X109299997Y-129294508D01*
X109174699Y-129314352D01*
X109174698Y-129314352D01*
X109099337Y-129352751D01*
X109061658Y-129371950D01*
X109061657Y-129371951D01*
X109053759Y-129377689D01*
X109052775Y-129376334D01*
X109001358Y-129404411D01*
X108931666Y-129399427D01*
X108896750Y-129376987D01*
X108896241Y-129377689D01*
X108888345Y-129371953D01*
X108888342Y-129371950D01*
X108775304Y-129314354D01*
X108775303Y-129314353D01*
X108775300Y-129314352D01*
X108650003Y-129294508D01*
X108649997Y-129294508D01*
X108524699Y-129314352D01*
X108524698Y-129314352D01*
X108449337Y-129352751D01*
X108411658Y-129371950D01*
X108411657Y-129371951D01*
X108411652Y-129371954D01*
X108321954Y-129461652D01*
X108321951Y-129461657D01*
X108321950Y-129461658D01*
X108316704Y-129471954D01*
X108264352Y-129574698D01*
X108264352Y-129574699D01*
X108244508Y-129699996D01*
X108244508Y-129700003D01*
X91389655Y-129700003D01*
X91385647Y-129674699D01*
X91385647Y-129674698D01*
X91364964Y-129634106D01*
X91328050Y-129561658D01*
X91328046Y-129561654D01*
X91328045Y-129561652D01*
X91238347Y-129471954D01*
X91238344Y-129471952D01*
X91238342Y-129471950D01*
X91125304Y-129414354D01*
X91125303Y-129414353D01*
X91125300Y-129414352D01*
X91000003Y-129394508D01*
X90999997Y-129394508D01*
X90874699Y-129414352D01*
X90874698Y-129414352D01*
X90799833Y-129452499D01*
X90761658Y-129471950D01*
X90761657Y-129471951D01*
X90761652Y-129471954D01*
X90671954Y-129561652D01*
X90671951Y-129561657D01*
X90671950Y-129561658D01*
X90652751Y-129599337D01*
X90614352Y-129674698D01*
X90614352Y-129674699D01*
X90594508Y-129799996D01*
X90594508Y-129800003D01*
X69300500Y-129800003D01*
X69300500Y-129000003D01*
X73594508Y-129000003D01*
X73614352Y-129125300D01*
X73614352Y-129125301D01*
X73614354Y-129125304D01*
X73671950Y-129238342D01*
X73671952Y-129238344D01*
X73671954Y-129238347D01*
X73761652Y-129328045D01*
X73761654Y-129328046D01*
X73761658Y-129328050D01*
X73874696Y-129385646D01*
X73874697Y-129385646D01*
X73874699Y-129385647D01*
X73999997Y-129405492D01*
X74000000Y-129405492D01*
X74000003Y-129405492D01*
X74125300Y-129385647D01*
X74125301Y-129385647D01*
X74125302Y-129385646D01*
X74125304Y-129385646D01*
X74238342Y-129328050D01*
X74328050Y-129238342D01*
X74385646Y-129125304D01*
X74385646Y-129125302D01*
X74385647Y-129125301D01*
X74385647Y-129125300D01*
X74405492Y-129000003D01*
X74405492Y-128999996D01*
X74385647Y-128874699D01*
X74385647Y-128874698D01*
X74373064Y-128850003D01*
X80244508Y-128850003D01*
X80264352Y-128975300D01*
X80264352Y-128975301D01*
X80276935Y-128999996D01*
X80321950Y-129088342D01*
X80321952Y-129088344D01*
X80321954Y-129088347D01*
X80411652Y-129178045D01*
X80411654Y-129178046D01*
X80411658Y-129178050D01*
X80524696Y-129235646D01*
X80524697Y-129235646D01*
X80524699Y-129235647D01*
X80649997Y-129255492D01*
X80650000Y-129255492D01*
X80650003Y-129255492D01*
X80775300Y-129235647D01*
X80775301Y-129235647D01*
X80775302Y-129235646D01*
X80775304Y-129235646D01*
X80888342Y-129178050D01*
X80978050Y-129088342D01*
X81035646Y-128975304D01*
X81035646Y-128975302D01*
X81035647Y-128975301D01*
X81035647Y-128975300D01*
X81055492Y-128850003D01*
X81894508Y-128850003D01*
X81914352Y-128975300D01*
X81914352Y-128975301D01*
X81926935Y-128999996D01*
X81971950Y-129088342D01*
X81971952Y-129088344D01*
X81971954Y-129088347D01*
X82061652Y-129178045D01*
X82061654Y-129178046D01*
X82061658Y-129178050D01*
X82174696Y-129235646D01*
X82174697Y-129235646D01*
X82174699Y-129235647D01*
X82299997Y-129255492D01*
X82300000Y-129255492D01*
X82300003Y-129255492D01*
X82425300Y-129235647D01*
X82425301Y-129235647D01*
X82425302Y-129235646D01*
X82425304Y-129235646D01*
X82538342Y-129178050D01*
X82628050Y-129088342D01*
X82685646Y-128975304D01*
X82685646Y-128975302D01*
X82685647Y-128975301D01*
X82685647Y-128975300D01*
X82705492Y-128850003D01*
X83594508Y-128850003D01*
X83614352Y-128975300D01*
X83614352Y-128975301D01*
X83626935Y-128999996D01*
X83671950Y-129088342D01*
X83671952Y-129088344D01*
X83671954Y-129088347D01*
X83761652Y-129178045D01*
X83761654Y-129178046D01*
X83761658Y-129178050D01*
X83874696Y-129235646D01*
X83874697Y-129235646D01*
X83874699Y-129235647D01*
X83999997Y-129255492D01*
X84000000Y-129255492D01*
X84000003Y-129255492D01*
X84125300Y-129235647D01*
X84125301Y-129235647D01*
X84125302Y-129235646D01*
X84125304Y-129235646D01*
X84238342Y-129178050D01*
X84300610Y-129115782D01*
X101552365Y-129115782D01*
X101572209Y-129241079D01*
X101572209Y-129241080D01*
X101572211Y-129241083D01*
X101629807Y-129354121D01*
X101629809Y-129354123D01*
X101629811Y-129354126D01*
X101719509Y-129443824D01*
X101719511Y-129443825D01*
X101719515Y-129443829D01*
X101832553Y-129501425D01*
X101832554Y-129501425D01*
X101832556Y-129501426D01*
X101957854Y-129521271D01*
X101957857Y-129521271D01*
X101957860Y-129521271D01*
X102083157Y-129501426D01*
X102083158Y-129501426D01*
X102083159Y-129501425D01*
X102083161Y-129501425D01*
X102196199Y-129443829D01*
X102285907Y-129354121D01*
X102343503Y-129241083D01*
X102343503Y-129241081D01*
X102343504Y-129241080D01*
X102343504Y-129241079D01*
X102363349Y-129115782D01*
X102363349Y-129115775D01*
X102343504Y-128990478D01*
X102343504Y-128990477D01*
X102335771Y-128975300D01*
X102285907Y-128877437D01*
X102285903Y-128877433D01*
X102285902Y-128877431D01*
X102196204Y-128787733D01*
X102196201Y-128787731D01*
X102196199Y-128787729D01*
X102083161Y-128730133D01*
X102083160Y-128730132D01*
X102083157Y-128730131D01*
X101957860Y-128710287D01*
X101957854Y-128710287D01*
X101832556Y-128730131D01*
X101832555Y-128730131D01*
X101770684Y-128761657D01*
X101719515Y-128787729D01*
X101719514Y-128787730D01*
X101719509Y-128787733D01*
X101629811Y-128877431D01*
X101629808Y-128877436D01*
X101572209Y-128990477D01*
X101572209Y-128990478D01*
X101552365Y-129115775D01*
X101552365Y-129115782D01*
X84300610Y-129115782D01*
X84328050Y-129088342D01*
X84385646Y-128975304D01*
X84385646Y-128975302D01*
X84385647Y-128975301D01*
X84385647Y-128975300D01*
X84405492Y-128850003D01*
X84405492Y-128849996D01*
X84385647Y-128724699D01*
X84385647Y-128724698D01*
X84378304Y-128710287D01*
X84328050Y-128611658D01*
X84328046Y-128611654D01*
X84328045Y-128611652D01*
X84238347Y-128521954D01*
X84238344Y-128521952D01*
X84238342Y-128521950D01*
X84125304Y-128464354D01*
X84125303Y-128464353D01*
X84125300Y-128464352D01*
X84000003Y-128444508D01*
X83999997Y-128444508D01*
X83874699Y-128464352D01*
X83874698Y-128464352D01*
X83799337Y-128502751D01*
X83761658Y-128521950D01*
X83761657Y-128521951D01*
X83761652Y-128521954D01*
X83671954Y-128611652D01*
X83671951Y-128611657D01*
X83671950Y-128611658D01*
X83652751Y-128649337D01*
X83614352Y-128724698D01*
X83614352Y-128724699D01*
X83594508Y-128849996D01*
X83594508Y-128850003D01*
X82705492Y-128850003D01*
X82705492Y-128849996D01*
X82685647Y-128724699D01*
X82685647Y-128724698D01*
X82678304Y-128710287D01*
X82628050Y-128611658D01*
X82628046Y-128611654D01*
X82628045Y-128611652D01*
X82538347Y-128521954D01*
X82538344Y-128521952D01*
X82538342Y-128521950D01*
X82425304Y-128464354D01*
X82425303Y-128464353D01*
X82425300Y-128464352D01*
X82300003Y-128444508D01*
X82299997Y-128444508D01*
X82174699Y-128464352D01*
X82174698Y-128464352D01*
X82099337Y-128502751D01*
X82061658Y-128521950D01*
X82061657Y-128521951D01*
X82061652Y-128521954D01*
X81971954Y-128611652D01*
X81971951Y-128611657D01*
X81971950Y-128611658D01*
X81952751Y-128649337D01*
X81914352Y-128724698D01*
X81914352Y-128724699D01*
X81894508Y-128849996D01*
X81894508Y-128850003D01*
X81055492Y-128850003D01*
X81055492Y-128849996D01*
X81035647Y-128724699D01*
X81035647Y-128724698D01*
X81028304Y-128710287D01*
X80978050Y-128611658D01*
X80978046Y-128611654D01*
X80978045Y-128611652D01*
X80888347Y-128521954D01*
X80888344Y-128521952D01*
X80888342Y-128521950D01*
X80775304Y-128464354D01*
X80775303Y-128464353D01*
X80775300Y-128464352D01*
X80650003Y-128444508D01*
X80649997Y-128444508D01*
X80524699Y-128464352D01*
X80524698Y-128464352D01*
X80449337Y-128502751D01*
X80411658Y-128521950D01*
X80411657Y-128521951D01*
X80411652Y-128521954D01*
X80321954Y-128611652D01*
X80321951Y-128611657D01*
X80321950Y-128611658D01*
X80302751Y-128649337D01*
X80264352Y-128724698D01*
X80264352Y-128724699D01*
X80244508Y-128849996D01*
X80244508Y-128850003D01*
X74373064Y-128850003D01*
X74328050Y-128761658D01*
X74328046Y-128761654D01*
X74328045Y-128761652D01*
X74238347Y-128671954D01*
X74238344Y-128671952D01*
X74238342Y-128671950D01*
X74125304Y-128614354D01*
X74125303Y-128614353D01*
X74125300Y-128614352D01*
X74000003Y-128594508D01*
X73999997Y-128594508D01*
X73874699Y-128614352D01*
X73874698Y-128614352D01*
X73799337Y-128652751D01*
X73761658Y-128671950D01*
X73761657Y-128671951D01*
X73761652Y-128671954D01*
X73671954Y-128761652D01*
X73671951Y-128761657D01*
X73671950Y-128761658D01*
X73658691Y-128787681D01*
X73614352Y-128874698D01*
X73614352Y-128874699D01*
X73594508Y-128999996D01*
X73594508Y-129000003D01*
X69300500Y-129000003D01*
X69300500Y-127305003D01*
X96294508Y-127305003D01*
X96314352Y-127430300D01*
X96314352Y-127430301D01*
X96327598Y-127456296D01*
X96371950Y-127543342D01*
X96371952Y-127543344D01*
X96371954Y-127543347D01*
X96461652Y-127633045D01*
X96461654Y-127633046D01*
X96461658Y-127633050D01*
X96574696Y-127690646D01*
X96574697Y-127690646D01*
X96574699Y-127690647D01*
X96699997Y-127710492D01*
X96700000Y-127710492D01*
X96700003Y-127710492D01*
X96825300Y-127690647D01*
X96825302Y-127690646D01*
X96825304Y-127690646D01*
X96938342Y-127633050D01*
X96938343Y-127633048D01*
X96943704Y-127630317D01*
X97012373Y-127617420D01*
X97056296Y-127630317D01*
X97061656Y-127633048D01*
X97061658Y-127633050D01*
X97174696Y-127690646D01*
X97174699Y-127690647D01*
X97299997Y-127710492D01*
X97300000Y-127710492D01*
X97300003Y-127710492D01*
X97425300Y-127690647D01*
X97425302Y-127690646D01*
X97425304Y-127690646D01*
X97538342Y-127633050D01*
X97538343Y-127633048D01*
X97543704Y-127630317D01*
X97612373Y-127617420D01*
X97656296Y-127630317D01*
X97661656Y-127633048D01*
X97661658Y-127633050D01*
X97774696Y-127690646D01*
X97774699Y-127690647D01*
X97899997Y-127710492D01*
X97900000Y-127710492D01*
X97900003Y-127710492D01*
X98025300Y-127690647D01*
X98025302Y-127690646D01*
X98025304Y-127690646D01*
X98138342Y-127633050D01*
X98138343Y-127633048D01*
X98143704Y-127630317D01*
X98212373Y-127617420D01*
X98256296Y-127630317D01*
X98261656Y-127633048D01*
X98261658Y-127633050D01*
X98374696Y-127690646D01*
X98374699Y-127690647D01*
X98499997Y-127710492D01*
X98500000Y-127710492D01*
X98500003Y-127710492D01*
X98625300Y-127690647D01*
X98625302Y-127690646D01*
X98625304Y-127690646D01*
X98738342Y-127633050D01*
X98738343Y-127633048D01*
X98743704Y-127630317D01*
X98812373Y-127617420D01*
X98856296Y-127630317D01*
X98861656Y-127633048D01*
X98861658Y-127633050D01*
X98974696Y-127690646D01*
X98974699Y-127690647D01*
X99099997Y-127710492D01*
X99100000Y-127710492D01*
X99100003Y-127710492D01*
X99225300Y-127690647D01*
X99225302Y-127690646D01*
X99225304Y-127690646D01*
X99338342Y-127633050D01*
X99338343Y-127633048D01*
X99343704Y-127630317D01*
X99412373Y-127617420D01*
X99456296Y-127630317D01*
X99461656Y-127633048D01*
X99461658Y-127633050D01*
X99574696Y-127690646D01*
X99574699Y-127690647D01*
X99699997Y-127710492D01*
X99700000Y-127710492D01*
X99700003Y-127710492D01*
X99825300Y-127690647D01*
X99825301Y-127690647D01*
X99825302Y-127690646D01*
X99825304Y-127690646D01*
X99905070Y-127650003D01*
X105844508Y-127650003D01*
X105864352Y-127775300D01*
X105864352Y-127775301D01*
X105864354Y-127775304D01*
X105921950Y-127888342D01*
X105921952Y-127888344D01*
X105921954Y-127888347D01*
X106011652Y-127978045D01*
X106011654Y-127978046D01*
X106011658Y-127978050D01*
X106124696Y-128035646D01*
X106124697Y-128035646D01*
X106124699Y-128035647D01*
X106249997Y-128055492D01*
X106250000Y-128055492D01*
X106250003Y-128055492D01*
X106375300Y-128035647D01*
X106375301Y-128035647D01*
X106375302Y-128035646D01*
X106375304Y-128035646D01*
X106488342Y-127978050D01*
X106578050Y-127888342D01*
X106635646Y-127775304D01*
X106635646Y-127775302D01*
X106635647Y-127775301D01*
X106635647Y-127775300D01*
X106655492Y-127650003D01*
X106655492Y-127649996D01*
X106635647Y-127524699D01*
X106635646Y-127524696D01*
X106600794Y-127456296D01*
X106587897Y-127387626D01*
X106600794Y-127343704D01*
X106600983Y-127343334D01*
X106635646Y-127275304D01*
X106635647Y-127275300D01*
X106655492Y-127150003D01*
X106655492Y-127149996D01*
X106635647Y-127024699D01*
X106635646Y-127024696D01*
X106618297Y-126990647D01*
X106600793Y-126956295D01*
X106587897Y-126887626D01*
X106600794Y-126843704D01*
X106600976Y-126843347D01*
X106635646Y-126775304D01*
X106641304Y-126739583D01*
X106655492Y-126650003D01*
X106655492Y-126649996D01*
X106635647Y-126524699D01*
X106635646Y-126524696D01*
X106600794Y-126456296D01*
X106587897Y-126387626D01*
X106600794Y-126343704D01*
X106610479Y-126324696D01*
X106635646Y-126275304D01*
X106644508Y-126219352D01*
X106655492Y-126150003D01*
X106655492Y-126149996D01*
X106635647Y-126024699D01*
X106635646Y-126024696D01*
X106600794Y-125956296D01*
X106587897Y-125887626D01*
X106600794Y-125843704D01*
X106635646Y-125775304D01*
X106637948Y-125760772D01*
X106655492Y-125650003D01*
X106655492Y-125649996D01*
X106635647Y-125524699D01*
X106635646Y-125524697D01*
X106635646Y-125524696D01*
X106613293Y-125480827D01*
X106600398Y-125412160D01*
X106613294Y-125368240D01*
X106660647Y-125275306D01*
X106679701Y-125155003D01*
X106680493Y-125150005D01*
X106680493Y-125149998D01*
X106660648Y-125024701D01*
X106660647Y-125024698D01*
X106625795Y-124956298D01*
X106612898Y-124887628D01*
X106625795Y-124843706D01*
X106634333Y-124826950D01*
X106660647Y-124775306D01*
X106680493Y-124650002D01*
X106680493Y-124649998D01*
X106660648Y-124524701D01*
X106660647Y-124524698D01*
X106625795Y-124456298D01*
X106612898Y-124387628D01*
X106625795Y-124343706D01*
X106650089Y-124296027D01*
X106660647Y-124275306D01*
X106672511Y-124200400D01*
X106680493Y-124150005D01*
X106680493Y-124149998D01*
X106660648Y-124024701D01*
X106660648Y-124024700D01*
X106640749Y-123985647D01*
X106603051Y-123911660D01*
X106603047Y-123911656D01*
X106603046Y-123911654D01*
X106513348Y-123821956D01*
X106513345Y-123821954D01*
X106513343Y-123821952D01*
X106400305Y-123764356D01*
X106400304Y-123764355D01*
X106400301Y-123764354D01*
X106275004Y-123744510D01*
X106274998Y-123744510D01*
X106149700Y-123764354D01*
X106149699Y-123764354D01*
X106074338Y-123802753D01*
X106036659Y-123821952D01*
X106036658Y-123821953D01*
X106036653Y-123821956D01*
X105946955Y-123911654D01*
X105946952Y-123911659D01*
X105946951Y-123911660D01*
X105931062Y-123942843D01*
X105889353Y-124024700D01*
X105889353Y-124024701D01*
X105869509Y-124149998D01*
X105869509Y-124150005D01*
X105889353Y-124275302D01*
X105889354Y-124275306D01*
X105924207Y-124343708D01*
X105937103Y-124412377D01*
X105924207Y-124456296D01*
X105889354Y-124524697D01*
X105889353Y-124524701D01*
X105869509Y-124649998D01*
X105869509Y-124650005D01*
X105889353Y-124775302D01*
X105889354Y-124775306D01*
X105924207Y-124843708D01*
X105937103Y-124912377D01*
X105924207Y-124956296D01*
X105889354Y-125024697D01*
X105889353Y-125024701D01*
X105869509Y-125149998D01*
X105869509Y-125150005D01*
X105889353Y-125275301D01*
X105889354Y-125275302D01*
X105889355Y-125275306D01*
X105911706Y-125319173D01*
X105924602Y-125387841D01*
X105911706Y-125431760D01*
X105864353Y-125524695D01*
X105864352Y-125524699D01*
X105844508Y-125649996D01*
X105844508Y-125650003D01*
X105864352Y-125775300D01*
X105864353Y-125775304D01*
X105899206Y-125843706D01*
X105912102Y-125912375D01*
X105899206Y-125956294D01*
X105864353Y-126024695D01*
X105864352Y-126024699D01*
X105844508Y-126149996D01*
X105844508Y-126150003D01*
X105864352Y-126275300D01*
X105864353Y-126275304D01*
X105899206Y-126343706D01*
X105912102Y-126412375D01*
X105899206Y-126456294D01*
X105864353Y-126524695D01*
X105864352Y-126524699D01*
X105844508Y-126649996D01*
X105844508Y-126650003D01*
X105864352Y-126775300D01*
X105864353Y-126775304D01*
X105899206Y-126843706D01*
X105912102Y-126912375D01*
X105899206Y-126956294D01*
X105864353Y-127024695D01*
X105864352Y-127024699D01*
X105844508Y-127149996D01*
X105844508Y-127150003D01*
X105864352Y-127275300D01*
X105864353Y-127275304D01*
X105899206Y-127343706D01*
X105912102Y-127412375D01*
X105899206Y-127456294D01*
X105864353Y-127524695D01*
X105864352Y-127524699D01*
X105844508Y-127649996D01*
X105844508Y-127650003D01*
X99905070Y-127650003D01*
X99938342Y-127633050D01*
X100028050Y-127543342D01*
X100085646Y-127430304D01*
X100085646Y-127430302D01*
X100085647Y-127430301D01*
X100085647Y-127430300D01*
X100105492Y-127305003D01*
X100105492Y-127304996D01*
X100085647Y-127179699D01*
X100082631Y-127170417D01*
X100085327Y-127169540D01*
X100075260Y-127115976D01*
X100101528Y-127051232D01*
X100158629Y-127010967D01*
X100179235Y-127005861D01*
X100275304Y-126990646D01*
X100388342Y-126933050D01*
X100388343Y-126933048D01*
X100393704Y-126930317D01*
X100462373Y-126917420D01*
X100506296Y-126930317D01*
X100511656Y-126933048D01*
X100511658Y-126933050D01*
X100597824Y-126976954D01*
X100624696Y-126990646D01*
X100624699Y-126990647D01*
X100749997Y-127010492D01*
X100750000Y-127010492D01*
X100750003Y-127010492D01*
X100875300Y-126990647D01*
X100875301Y-126990647D01*
X100875302Y-126990646D01*
X100875304Y-126990646D01*
X100988342Y-126933050D01*
X101078050Y-126843342D01*
X101135646Y-126730304D01*
X101135646Y-126730302D01*
X101135647Y-126730301D01*
X101135647Y-126730300D01*
X101155492Y-126605003D01*
X101155492Y-126604996D01*
X101135647Y-126479699D01*
X101135647Y-126479698D01*
X101123722Y-126456294D01*
X101078050Y-126366658D01*
X101078046Y-126366654D01*
X101078045Y-126366652D01*
X100988347Y-126276954D01*
X100988344Y-126276952D01*
X100988342Y-126276950D01*
X100875304Y-126219354D01*
X100875303Y-126219353D01*
X100875300Y-126219352D01*
X100750003Y-126199508D01*
X100749997Y-126199508D01*
X100624699Y-126219352D01*
X100624698Y-126219352D01*
X100540747Y-126262128D01*
X100511658Y-126276950D01*
X100511657Y-126276950D01*
X100506295Y-126279683D01*
X100437626Y-126292579D01*
X100393705Y-126279683D01*
X100388342Y-126276950D01*
X100275304Y-126219354D01*
X100275303Y-126219353D01*
X100275300Y-126219352D01*
X100150003Y-126199508D01*
X100149997Y-126199508D01*
X100024699Y-126219352D01*
X100024698Y-126219352D01*
X99940747Y-126262128D01*
X99911658Y-126276950D01*
X99911657Y-126276950D01*
X99906295Y-126279683D01*
X99837626Y-126292579D01*
X99793705Y-126279683D01*
X99788342Y-126276950D01*
X99675304Y-126219354D01*
X99675303Y-126219353D01*
X99675300Y-126219352D01*
X99550003Y-126199508D01*
X99549997Y-126199508D01*
X99424699Y-126219352D01*
X99424698Y-126219352D01*
X99340747Y-126262128D01*
X99311658Y-126276950D01*
X99311657Y-126276950D01*
X99306295Y-126279683D01*
X99237626Y-126292579D01*
X99193705Y-126279683D01*
X99188342Y-126276950D01*
X99075304Y-126219354D01*
X99075303Y-126219353D01*
X99075300Y-126219352D01*
X98950003Y-126199508D01*
X98949997Y-126199508D01*
X98824699Y-126219352D01*
X98824698Y-126219352D01*
X98749337Y-126257751D01*
X98711658Y-126276950D01*
X98711657Y-126276951D01*
X98711652Y-126276954D01*
X98621954Y-126366652D01*
X98621951Y-126366657D01*
X98621950Y-126366658D01*
X98604961Y-126400000D01*
X98564352Y-126479698D01*
X98564352Y-126479699D01*
X98544508Y-126604996D01*
X98544508Y-126605003D01*
X98564352Y-126730300D01*
X98567369Y-126739583D01*
X98564673Y-126740458D01*
X98574737Y-126794036D01*
X98548463Y-126858777D01*
X98491358Y-126899036D01*
X98470754Y-126904139D01*
X98374699Y-126919352D01*
X98374698Y-126919352D01*
X98290747Y-126962128D01*
X98261658Y-126976950D01*
X98261657Y-126976950D01*
X98256295Y-126979683D01*
X98187626Y-126992579D01*
X98143705Y-126979683D01*
X98138342Y-126976950D01*
X98025304Y-126919354D01*
X98025303Y-126919353D01*
X98025300Y-126919352D01*
X97900003Y-126899508D01*
X97899997Y-126899508D01*
X97774699Y-126919352D01*
X97774698Y-126919352D01*
X97690747Y-126962128D01*
X97661658Y-126976950D01*
X97661657Y-126976950D01*
X97656295Y-126979683D01*
X97587626Y-126992579D01*
X97543705Y-126979683D01*
X97538342Y-126976950D01*
X97425304Y-126919354D01*
X97425303Y-126919353D01*
X97425300Y-126919352D01*
X97300003Y-126899508D01*
X97299997Y-126899508D01*
X97174699Y-126919352D01*
X97174698Y-126919352D01*
X97090747Y-126962128D01*
X97061658Y-126976950D01*
X97061657Y-126976950D01*
X97056295Y-126979683D01*
X96987626Y-126992579D01*
X96943705Y-126979683D01*
X96938342Y-126976950D01*
X96825304Y-126919354D01*
X96825303Y-126919353D01*
X96825300Y-126919352D01*
X96700003Y-126899508D01*
X96699997Y-126899508D01*
X96574699Y-126919352D01*
X96574698Y-126919352D01*
X96499337Y-126957751D01*
X96461658Y-126976950D01*
X96461657Y-126976951D01*
X96461652Y-126976954D01*
X96371954Y-127066652D01*
X96371951Y-127066657D01*
X96371950Y-127066658D01*
X96367545Y-127075304D01*
X96314352Y-127179698D01*
X96314352Y-127179699D01*
X96294508Y-127304996D01*
X96294508Y-127305003D01*
X69300500Y-127305003D01*
X69300500Y-126450003D01*
X80244508Y-126450003D01*
X80264352Y-126575300D01*
X80264352Y-126575301D01*
X80264354Y-126575304D01*
X80321950Y-126688342D01*
X80321952Y-126688344D01*
X80321954Y-126688347D01*
X80411652Y-126778045D01*
X80411654Y-126778046D01*
X80411658Y-126778050D01*
X80524696Y-126835646D01*
X80524697Y-126835646D01*
X80524699Y-126835647D01*
X80649997Y-126855492D01*
X80650000Y-126855492D01*
X80650003Y-126855492D01*
X80775300Y-126835647D01*
X80775301Y-126835647D01*
X80775302Y-126835646D01*
X80775304Y-126835646D01*
X80888342Y-126778050D01*
X80978050Y-126688342D01*
X81035646Y-126575304D01*
X81035646Y-126575302D01*
X81035647Y-126575301D01*
X81035647Y-126575300D01*
X81055492Y-126450003D01*
X81894508Y-126450003D01*
X81914352Y-126575300D01*
X81914352Y-126575301D01*
X81914354Y-126575304D01*
X81971950Y-126688342D01*
X81971952Y-126688344D01*
X81971954Y-126688347D01*
X82061652Y-126778045D01*
X82061654Y-126778046D01*
X82061658Y-126778050D01*
X82174696Y-126835646D01*
X82174697Y-126835646D01*
X82174699Y-126835647D01*
X82299997Y-126855492D01*
X82300000Y-126855492D01*
X82300003Y-126855492D01*
X82425300Y-126835647D01*
X82425301Y-126835647D01*
X82425302Y-126835646D01*
X82425304Y-126835646D01*
X82538342Y-126778050D01*
X82628050Y-126688342D01*
X82685646Y-126575304D01*
X82685646Y-126575302D01*
X82685647Y-126575301D01*
X82685647Y-126575300D01*
X82705492Y-126450003D01*
X83594508Y-126450003D01*
X83614352Y-126575300D01*
X83614352Y-126575301D01*
X83614354Y-126575304D01*
X83671950Y-126688342D01*
X83671952Y-126688344D01*
X83671954Y-126688347D01*
X83761652Y-126778045D01*
X83761654Y-126778046D01*
X83761658Y-126778050D01*
X83874696Y-126835646D01*
X83874697Y-126835646D01*
X83874699Y-126835647D01*
X83999997Y-126855492D01*
X84000000Y-126855492D01*
X84000003Y-126855492D01*
X84125300Y-126835647D01*
X84125301Y-126835647D01*
X84125302Y-126835646D01*
X84125304Y-126835646D01*
X84238342Y-126778050D01*
X84328050Y-126688342D01*
X84385646Y-126575304D01*
X84385646Y-126575302D01*
X84385647Y-126575301D01*
X84385647Y-126575300D01*
X84405492Y-126450003D01*
X84405492Y-126449996D01*
X84385647Y-126324699D01*
X84385647Y-126324698D01*
X84369281Y-126292579D01*
X84328050Y-126211658D01*
X84328046Y-126211654D01*
X84328045Y-126211652D01*
X84238347Y-126121954D01*
X84238344Y-126121952D01*
X84238342Y-126121950D01*
X84125304Y-126064354D01*
X84125303Y-126064353D01*
X84125300Y-126064352D01*
X84000003Y-126044508D01*
X83999997Y-126044508D01*
X83874699Y-126064352D01*
X83874698Y-126064352D01*
X83799337Y-126102751D01*
X83761658Y-126121950D01*
X83761657Y-126121951D01*
X83761652Y-126121954D01*
X83671954Y-126211652D01*
X83671951Y-126211657D01*
X83614352Y-126324698D01*
X83614352Y-126324699D01*
X83594508Y-126449996D01*
X83594508Y-126450003D01*
X82705492Y-126450003D01*
X82705492Y-126449996D01*
X82685647Y-126324699D01*
X82685647Y-126324698D01*
X82669281Y-126292579D01*
X82628050Y-126211658D01*
X82628046Y-126211654D01*
X82628045Y-126211652D01*
X82538347Y-126121954D01*
X82538344Y-126121952D01*
X82538342Y-126121950D01*
X82425304Y-126064354D01*
X82425303Y-126064353D01*
X82425300Y-126064352D01*
X82300003Y-126044508D01*
X82299997Y-126044508D01*
X82174699Y-126064352D01*
X82174698Y-126064352D01*
X82099337Y-126102751D01*
X82061658Y-126121950D01*
X82061657Y-126121951D01*
X82061652Y-126121954D01*
X81971954Y-126211652D01*
X81971951Y-126211657D01*
X81914352Y-126324698D01*
X81914352Y-126324699D01*
X81894508Y-126449996D01*
X81894508Y-126450003D01*
X81055492Y-126450003D01*
X81055492Y-126449996D01*
X81035647Y-126324699D01*
X81035647Y-126324698D01*
X81019281Y-126292579D01*
X80978050Y-126211658D01*
X80978046Y-126211654D01*
X80978045Y-126211652D01*
X80888347Y-126121954D01*
X80888344Y-126121952D01*
X80888342Y-126121950D01*
X80775304Y-126064354D01*
X80775303Y-126064353D01*
X80775300Y-126064352D01*
X80650003Y-126044508D01*
X80649997Y-126044508D01*
X80524699Y-126064352D01*
X80524698Y-126064352D01*
X80449337Y-126102751D01*
X80411658Y-126121950D01*
X80411657Y-126121951D01*
X80411652Y-126121954D01*
X80321954Y-126211652D01*
X80321951Y-126211657D01*
X80264352Y-126324698D01*
X80264352Y-126324699D01*
X80244508Y-126449996D01*
X80244508Y-126450003D01*
X69300500Y-126450003D01*
X69300500Y-123831002D01*
X90294499Y-123831002D01*
X90306335Y-123890501D01*
X90306338Y-123890511D01*
X90328005Y-123942821D01*
X90328016Y-123942843D01*
X90348305Y-123977986D01*
X90348307Y-123977988D01*
X90348308Y-123977989D01*
X90384151Y-124005492D01*
X90412167Y-124026989D01*
X90412166Y-124026989D01*
X90464488Y-124048661D01*
X90464493Y-124048663D01*
X90464497Y-124048663D01*
X90464498Y-124048664D01*
X90523997Y-124060500D01*
X90524000Y-124060500D01*
X100166698Y-124060500D01*
X100233737Y-124080185D01*
X100279492Y-124132989D01*
X100290698Y-124184500D01*
X100290698Y-124296027D01*
X100328834Y-124388095D01*
X101658189Y-125717449D01*
X101691674Y-125778772D01*
X101694465Y-125804735D01*
X101714352Y-125930301D01*
X101727598Y-125956296D01*
X101771950Y-126043342D01*
X101771952Y-126043344D01*
X101771954Y-126043347D01*
X101861652Y-126133045D01*
X101861654Y-126133046D01*
X101861658Y-126133050D01*
X101974696Y-126190646D01*
X101974697Y-126190646D01*
X101974699Y-126190647D01*
X102099997Y-126210492D01*
X102100000Y-126210492D01*
X102100003Y-126210492D01*
X102225300Y-126190647D01*
X102225301Y-126190647D01*
X102225302Y-126190646D01*
X102225304Y-126190646D01*
X102338342Y-126133050D01*
X102428050Y-126043342D01*
X102485646Y-125930304D01*
X102485646Y-125930302D01*
X102485647Y-125930301D01*
X102485647Y-125930300D01*
X102505492Y-125805003D01*
X102505492Y-125804996D01*
X102485647Y-125679699D01*
X102485647Y-125679698D01*
X102485646Y-125679696D01*
X102428050Y-125566658D01*
X102428046Y-125566654D01*
X102428045Y-125566652D01*
X102338347Y-125476954D01*
X102338344Y-125476952D01*
X102338342Y-125476950D01*
X102249652Y-125431760D01*
X102225301Y-125419352D01*
X102090362Y-125397981D01*
X102090564Y-125396699D01*
X102033091Y-125379823D01*
X102012449Y-125363189D01*
X101804263Y-125155003D01*
X103844508Y-125155003D01*
X103864352Y-125280300D01*
X103864352Y-125280301D01*
X103864354Y-125280304D01*
X103921950Y-125393342D01*
X103921952Y-125393344D01*
X103921954Y-125393347D01*
X104011652Y-125483045D01*
X104011654Y-125483046D01*
X104011658Y-125483050D01*
X104124696Y-125540646D01*
X104124697Y-125540646D01*
X104124699Y-125540647D01*
X104249997Y-125560492D01*
X104250000Y-125560492D01*
X104250003Y-125560492D01*
X104375300Y-125540647D01*
X104375301Y-125540647D01*
X104375302Y-125540646D01*
X104375304Y-125540646D01*
X104488342Y-125483050D01*
X104578050Y-125393342D01*
X104635646Y-125280304D01*
X104635646Y-125280302D01*
X104635647Y-125280301D01*
X104635647Y-125280300D01*
X104655492Y-125155003D01*
X104655492Y-125154996D01*
X104635647Y-125029699D01*
X104635647Y-125029698D01*
X104633099Y-125024697D01*
X104578050Y-124916658D01*
X104578046Y-124916654D01*
X104578045Y-124916652D01*
X104488347Y-124826954D01*
X104488344Y-124826952D01*
X104488342Y-124826950D01*
X104375304Y-124769354D01*
X104375303Y-124769353D01*
X104375300Y-124769352D01*
X104250003Y-124749508D01*
X104249997Y-124749508D01*
X104124699Y-124769352D01*
X104124698Y-124769352D01*
X104049337Y-124807751D01*
X104011658Y-124826950D01*
X104011657Y-124826951D01*
X104011652Y-124826954D01*
X103921954Y-124916652D01*
X103921951Y-124916657D01*
X103864352Y-125029698D01*
X103864352Y-125029699D01*
X103844508Y-125154996D01*
X103844508Y-125155003D01*
X101804263Y-125155003D01*
X100849661Y-124200400D01*
X100816176Y-124139077D01*
X100821160Y-124069385D01*
X100863032Y-124013452D01*
X100872100Y-124007470D01*
X100872986Y-124006693D01*
X100872989Y-124006692D01*
X100921989Y-123942833D01*
X100943663Y-123890507D01*
X100955500Y-123831000D01*
X100955500Y-123600003D01*
X110244508Y-123600003D01*
X110264352Y-123725300D01*
X110264352Y-123725301D01*
X110264354Y-123725304D01*
X110321950Y-123838342D01*
X110321952Y-123838344D01*
X110321954Y-123838347D01*
X110411652Y-123928045D01*
X110411654Y-123928046D01*
X110411658Y-123928050D01*
X110524696Y-123985646D01*
X110524697Y-123985646D01*
X110524699Y-123985647D01*
X110649997Y-124005492D01*
X110650000Y-124005492D01*
X110650003Y-124005492D01*
X110775300Y-123985647D01*
X110775301Y-123985647D01*
X110775302Y-123985646D01*
X110775304Y-123985646D01*
X110888342Y-123928050D01*
X110978050Y-123838342D01*
X111035646Y-123725304D01*
X111035646Y-123725302D01*
X111035647Y-123725301D01*
X111035647Y-123725300D01*
X111055492Y-123600003D01*
X114944508Y-123600003D01*
X114964352Y-123725300D01*
X114964352Y-123725301D01*
X114964354Y-123725304D01*
X115021950Y-123838342D01*
X115021952Y-123838344D01*
X115021954Y-123838347D01*
X115111652Y-123928045D01*
X115111654Y-123928046D01*
X115111658Y-123928050D01*
X115224696Y-123985646D01*
X115224697Y-123985646D01*
X115224699Y-123985647D01*
X115349997Y-124005492D01*
X115350000Y-124005492D01*
X115350003Y-124005492D01*
X115475300Y-123985647D01*
X115475301Y-123985647D01*
X115475302Y-123985646D01*
X115475304Y-123985646D01*
X115588342Y-123928050D01*
X115678050Y-123838342D01*
X115735646Y-123725304D01*
X115735646Y-123725302D01*
X115735647Y-123725301D01*
X115735647Y-123725300D01*
X115755492Y-123600003D01*
X117344508Y-123600003D01*
X117364352Y-123725300D01*
X117364352Y-123725301D01*
X117364354Y-123725304D01*
X117421950Y-123838342D01*
X117421952Y-123838344D01*
X117421954Y-123838347D01*
X117511652Y-123928045D01*
X117511654Y-123928046D01*
X117511658Y-123928050D01*
X117624696Y-123985646D01*
X117624697Y-123985646D01*
X117624699Y-123985647D01*
X117749997Y-124005492D01*
X117750000Y-124005492D01*
X117750003Y-124005492D01*
X117875300Y-123985647D01*
X117875301Y-123985647D01*
X117875302Y-123985646D01*
X117875304Y-123985646D01*
X117988342Y-123928050D01*
X118078050Y-123838342D01*
X118135646Y-123725304D01*
X118135646Y-123725302D01*
X118135647Y-123725301D01*
X118135647Y-123725300D01*
X118155492Y-123600003D01*
X118155492Y-123599996D01*
X118135647Y-123474699D01*
X118135647Y-123474698D01*
X118135646Y-123474696D01*
X118078050Y-123361658D01*
X118078046Y-123361654D01*
X118078045Y-123361652D01*
X117988347Y-123271954D01*
X117988344Y-123271952D01*
X117988342Y-123271950D01*
X117875304Y-123214354D01*
X117875303Y-123214353D01*
X117875300Y-123214352D01*
X117750003Y-123194508D01*
X117749997Y-123194508D01*
X117624699Y-123214352D01*
X117624698Y-123214352D01*
X117549337Y-123252751D01*
X117511658Y-123271950D01*
X117511657Y-123271951D01*
X117511652Y-123271954D01*
X117421954Y-123361652D01*
X117421951Y-123361657D01*
X117364352Y-123474698D01*
X117364352Y-123474699D01*
X117344508Y-123599996D01*
X117344508Y-123600003D01*
X115755492Y-123600003D01*
X115755492Y-123599996D01*
X115735647Y-123474699D01*
X115735647Y-123474698D01*
X115735646Y-123474696D01*
X115678050Y-123361658D01*
X115678046Y-123361654D01*
X115678045Y-123361652D01*
X115588347Y-123271954D01*
X115588344Y-123271952D01*
X115588342Y-123271950D01*
X115475304Y-123214354D01*
X115475303Y-123214353D01*
X115475300Y-123214352D01*
X115350003Y-123194508D01*
X115349997Y-123194508D01*
X115224699Y-123214352D01*
X115224698Y-123214352D01*
X115149337Y-123252751D01*
X115111658Y-123271950D01*
X115111657Y-123271951D01*
X115111652Y-123271954D01*
X115021954Y-123361652D01*
X115021951Y-123361657D01*
X114964352Y-123474698D01*
X114964352Y-123474699D01*
X114944508Y-123599996D01*
X114944508Y-123600003D01*
X111055492Y-123600003D01*
X111055492Y-123599996D01*
X111035647Y-123474699D01*
X111035647Y-123474698D01*
X111035646Y-123474696D01*
X110978050Y-123361658D01*
X110978046Y-123361654D01*
X110978045Y-123361652D01*
X110888347Y-123271954D01*
X110888344Y-123271952D01*
X110888342Y-123271950D01*
X110775304Y-123214354D01*
X110775303Y-123214353D01*
X110775300Y-123214352D01*
X110650003Y-123194508D01*
X110649997Y-123194508D01*
X110524699Y-123214352D01*
X110524698Y-123214352D01*
X110449337Y-123252751D01*
X110411658Y-123271950D01*
X110411657Y-123271951D01*
X110411652Y-123271954D01*
X110321954Y-123361652D01*
X110321951Y-123361657D01*
X110264352Y-123474698D01*
X110264352Y-123474699D01*
X110244508Y-123599996D01*
X110244508Y-123600003D01*
X100955500Y-123600003D01*
X100955500Y-122079000D01*
X100955500Y-122078997D01*
X100954705Y-122075003D01*
X104444508Y-122075003D01*
X104464352Y-122200300D01*
X104464352Y-122200301D01*
X104464354Y-122200304D01*
X104521950Y-122313342D01*
X104521952Y-122313344D01*
X104521954Y-122313347D01*
X104611652Y-122403045D01*
X104611654Y-122403046D01*
X104611658Y-122403050D01*
X104724696Y-122460646D01*
X104724697Y-122460646D01*
X104724699Y-122460647D01*
X104849997Y-122480492D01*
X104850000Y-122480492D01*
X104850003Y-122480492D01*
X104975300Y-122460647D01*
X104975301Y-122460647D01*
X104975302Y-122460646D01*
X104975304Y-122460646D01*
X105088342Y-122403050D01*
X105178050Y-122313342D01*
X105235646Y-122200304D01*
X105235646Y-122200302D01*
X105235647Y-122200301D01*
X105235647Y-122200300D01*
X105255492Y-122075003D01*
X105255492Y-122074996D01*
X105235695Y-121950003D01*
X110244508Y-121950003D01*
X110264352Y-122075300D01*
X110264352Y-122075301D01*
X110266237Y-122079000D01*
X110321950Y-122188342D01*
X110321952Y-122188344D01*
X110321954Y-122188347D01*
X110411652Y-122278045D01*
X110411654Y-122278046D01*
X110411658Y-122278050D01*
X110524696Y-122335646D01*
X110524697Y-122335646D01*
X110524699Y-122335647D01*
X110649997Y-122355492D01*
X110650000Y-122355492D01*
X110650003Y-122355492D01*
X110775300Y-122335647D01*
X110775301Y-122335647D01*
X110775302Y-122335646D01*
X110775304Y-122335646D01*
X110888342Y-122278050D01*
X110978050Y-122188342D01*
X111035646Y-122075304D01*
X111035646Y-122075302D01*
X111035647Y-122075301D01*
X111035647Y-122075300D01*
X111055492Y-121950003D01*
X114944508Y-121950003D01*
X114964352Y-122075300D01*
X114964352Y-122075301D01*
X114966237Y-122079000D01*
X115021950Y-122188342D01*
X115021952Y-122188344D01*
X115021954Y-122188347D01*
X115111652Y-122278045D01*
X115111654Y-122278046D01*
X115111658Y-122278050D01*
X115224696Y-122335646D01*
X115224697Y-122335646D01*
X115224699Y-122335647D01*
X115349997Y-122355492D01*
X115350000Y-122355492D01*
X115350003Y-122355492D01*
X115475300Y-122335647D01*
X115475301Y-122335647D01*
X115475302Y-122335646D01*
X115475304Y-122335646D01*
X115588342Y-122278050D01*
X115678050Y-122188342D01*
X115735646Y-122075304D01*
X115735646Y-122075302D01*
X115735647Y-122075301D01*
X115735647Y-122075300D01*
X115755492Y-121950003D01*
X117344508Y-121950003D01*
X117364352Y-122075300D01*
X117364352Y-122075301D01*
X117366237Y-122079000D01*
X117421950Y-122188342D01*
X117421952Y-122188344D01*
X117421954Y-122188347D01*
X117511652Y-122278045D01*
X117511654Y-122278046D01*
X117511658Y-122278050D01*
X117624696Y-122335646D01*
X117624697Y-122335646D01*
X117624699Y-122335647D01*
X117749997Y-122355492D01*
X117750000Y-122355492D01*
X117750003Y-122355492D01*
X117875300Y-122335647D01*
X117875301Y-122335647D01*
X117875302Y-122335646D01*
X117875304Y-122335646D01*
X117988342Y-122278050D01*
X118078050Y-122188342D01*
X118135646Y-122075304D01*
X118135646Y-122075302D01*
X118135647Y-122075301D01*
X118135647Y-122075300D01*
X118155492Y-121950003D01*
X118155492Y-121949996D01*
X118135647Y-121824699D01*
X118135647Y-121824698D01*
X118135646Y-121824696D01*
X118078050Y-121711658D01*
X118078046Y-121711654D01*
X118078045Y-121711652D01*
X117988347Y-121621954D01*
X117988344Y-121621952D01*
X117988342Y-121621950D01*
X117875304Y-121564354D01*
X117875303Y-121564353D01*
X117875300Y-121564352D01*
X117750003Y-121544508D01*
X117749997Y-121544508D01*
X117624699Y-121564352D01*
X117624698Y-121564352D01*
X117549337Y-121602751D01*
X117511658Y-121621950D01*
X117511657Y-121621951D01*
X117511652Y-121621954D01*
X117421954Y-121711652D01*
X117421951Y-121711657D01*
X117364352Y-121824698D01*
X117364352Y-121824699D01*
X117344508Y-121949996D01*
X117344508Y-121950003D01*
X115755492Y-121950003D01*
X115755492Y-121949996D01*
X115735647Y-121824699D01*
X115735647Y-121824698D01*
X115735646Y-121824696D01*
X115678050Y-121711658D01*
X115678046Y-121711654D01*
X115678045Y-121711652D01*
X115588347Y-121621954D01*
X115588344Y-121621952D01*
X115588342Y-121621950D01*
X115475304Y-121564354D01*
X115475303Y-121564353D01*
X115475300Y-121564352D01*
X115350003Y-121544508D01*
X115349997Y-121544508D01*
X115224699Y-121564352D01*
X115224698Y-121564352D01*
X115149337Y-121602751D01*
X115111658Y-121621950D01*
X115111657Y-121621951D01*
X115111652Y-121621954D01*
X115021954Y-121711652D01*
X115021951Y-121711657D01*
X114964352Y-121824698D01*
X114964352Y-121824699D01*
X114944508Y-121949996D01*
X114944508Y-121950003D01*
X111055492Y-121950003D01*
X111055492Y-121949996D01*
X111035647Y-121824699D01*
X111035647Y-121824698D01*
X111035646Y-121824696D01*
X110978050Y-121711658D01*
X110978046Y-121711654D01*
X110978045Y-121711652D01*
X110888347Y-121621954D01*
X110888344Y-121621952D01*
X110888342Y-121621950D01*
X110775304Y-121564354D01*
X110775303Y-121564353D01*
X110775300Y-121564352D01*
X110650003Y-121544508D01*
X110649997Y-121544508D01*
X110524699Y-121564352D01*
X110524698Y-121564352D01*
X110449337Y-121602751D01*
X110411658Y-121621950D01*
X110411657Y-121621951D01*
X110411652Y-121621954D01*
X110321954Y-121711652D01*
X110321951Y-121711657D01*
X110264352Y-121824698D01*
X110264352Y-121824699D01*
X110244508Y-121949996D01*
X110244508Y-121950003D01*
X105235695Y-121950003D01*
X105235647Y-121949699D01*
X105235647Y-121949698D01*
X105226635Y-121932011D01*
X105178050Y-121836658D01*
X105178046Y-121836654D01*
X105178045Y-121836652D01*
X105088347Y-121746954D01*
X105088344Y-121746952D01*
X105088342Y-121746950D01*
X104975304Y-121689354D01*
X104975303Y-121689353D01*
X104975300Y-121689352D01*
X104850003Y-121669508D01*
X104849997Y-121669508D01*
X104724699Y-121689352D01*
X104724698Y-121689352D01*
X104649337Y-121727751D01*
X104611658Y-121746950D01*
X104611657Y-121746951D01*
X104611652Y-121746954D01*
X104521954Y-121836652D01*
X104521951Y-121836657D01*
X104521950Y-121836658D01*
X104509375Y-121861338D01*
X104464352Y-121949698D01*
X104464352Y-121949699D01*
X104444508Y-122074996D01*
X104444508Y-122075003D01*
X100954705Y-122075003D01*
X100943664Y-122019498D01*
X100943663Y-122019497D01*
X100943663Y-122019493D01*
X100921989Y-121967167D01*
X100912078Y-121950000D01*
X100901694Y-121932013D01*
X100901692Y-121932011D01*
X100837832Y-121883010D01*
X100837833Y-121883010D01*
X100785511Y-121861338D01*
X100785501Y-121861335D01*
X100726002Y-121849500D01*
X100726000Y-121849500D01*
X90524000Y-121849500D01*
X90523998Y-121849500D01*
X90464498Y-121861335D01*
X90464488Y-121861338D01*
X90412178Y-121883005D01*
X90412156Y-121883016D01*
X90377013Y-121903305D01*
X90377011Y-121903307D01*
X90328010Y-121967167D01*
X90306338Y-122019488D01*
X90306335Y-122019498D01*
X90294500Y-122078997D01*
X90294500Y-122079000D01*
X90294500Y-123831000D01*
X90294500Y-123831002D01*
X90294499Y-123831002D01*
X69300500Y-123831002D01*
X69300500Y-123100003D01*
X72644508Y-123100003D01*
X72664352Y-123225300D01*
X72664352Y-123225301D01*
X72664354Y-123225304D01*
X72721950Y-123338342D01*
X72721952Y-123338344D01*
X72721954Y-123338347D01*
X72811652Y-123428045D01*
X72811654Y-123428046D01*
X72811658Y-123428050D01*
X72924696Y-123485646D01*
X72924697Y-123485646D01*
X72924699Y-123485647D01*
X73049997Y-123505492D01*
X73050000Y-123505492D01*
X73050003Y-123505492D01*
X73175300Y-123485647D01*
X73175301Y-123485647D01*
X73175302Y-123485646D01*
X73175304Y-123485646D01*
X73288342Y-123428050D01*
X73378050Y-123338342D01*
X73435646Y-123225304D01*
X73435646Y-123225302D01*
X73435647Y-123225301D01*
X73435647Y-123225300D01*
X73455492Y-123100003D01*
X73455492Y-123099996D01*
X73435647Y-122974699D01*
X73435647Y-122974698D01*
X73435646Y-122974696D01*
X73378050Y-122861658D01*
X73378046Y-122861654D01*
X73378045Y-122861652D01*
X73288347Y-122771954D01*
X73288344Y-122771952D01*
X73288342Y-122771950D01*
X73175304Y-122714354D01*
X73175303Y-122714353D01*
X73175300Y-122714352D01*
X73050003Y-122694508D01*
X73049997Y-122694508D01*
X72924699Y-122714352D01*
X72924698Y-122714352D01*
X72849337Y-122752751D01*
X72811658Y-122771950D01*
X72811657Y-122771951D01*
X72811652Y-122771954D01*
X72721954Y-122861652D01*
X72721951Y-122861657D01*
X72664352Y-122974698D01*
X72664352Y-122974699D01*
X72644508Y-123099996D01*
X72644508Y-123100003D01*
X69300500Y-123100003D01*
X69300500Y-120250003D01*
X110244508Y-120250003D01*
X110264352Y-120375300D01*
X110264352Y-120375301D01*
X110264354Y-120375304D01*
X110321950Y-120488342D01*
X110321952Y-120488344D01*
X110321954Y-120488347D01*
X110411652Y-120578045D01*
X110411654Y-120578046D01*
X110411658Y-120578050D01*
X110524696Y-120635646D01*
X110524697Y-120635646D01*
X110524699Y-120635647D01*
X110649997Y-120655492D01*
X110650000Y-120655492D01*
X110650003Y-120655492D01*
X110775300Y-120635647D01*
X110775301Y-120635647D01*
X110775302Y-120635646D01*
X110775304Y-120635646D01*
X110888342Y-120578050D01*
X110978050Y-120488342D01*
X111035646Y-120375304D01*
X111035646Y-120375302D01*
X111035647Y-120375301D01*
X111035647Y-120375300D01*
X111055492Y-120250003D01*
X114944508Y-120250003D01*
X114964352Y-120375300D01*
X114964352Y-120375301D01*
X114964354Y-120375304D01*
X115021950Y-120488342D01*
X115021952Y-120488344D01*
X115021954Y-120488347D01*
X115111652Y-120578045D01*
X115111654Y-120578046D01*
X115111658Y-120578050D01*
X115224696Y-120635646D01*
X115224697Y-120635646D01*
X115224699Y-120635647D01*
X115349997Y-120655492D01*
X115350000Y-120655492D01*
X115350003Y-120655492D01*
X115475300Y-120635647D01*
X115475301Y-120635647D01*
X115475302Y-120635646D01*
X115475304Y-120635646D01*
X115588342Y-120578050D01*
X115678050Y-120488342D01*
X115735646Y-120375304D01*
X115735646Y-120375302D01*
X115735647Y-120375301D01*
X115735647Y-120375300D01*
X115755492Y-120250003D01*
X117344508Y-120250003D01*
X117364352Y-120375300D01*
X117364352Y-120375301D01*
X117364354Y-120375304D01*
X117421950Y-120488342D01*
X117421952Y-120488344D01*
X117421954Y-120488347D01*
X117511652Y-120578045D01*
X117511654Y-120578046D01*
X117511658Y-120578050D01*
X117624696Y-120635646D01*
X117624697Y-120635646D01*
X117624699Y-120635647D01*
X117749997Y-120655492D01*
X117750000Y-120655492D01*
X117750003Y-120655492D01*
X117875300Y-120635647D01*
X117875301Y-120635647D01*
X117875302Y-120635646D01*
X117875304Y-120635646D01*
X117988342Y-120578050D01*
X118078050Y-120488342D01*
X118135646Y-120375304D01*
X118135646Y-120375302D01*
X118135647Y-120375301D01*
X118135647Y-120375300D01*
X118155492Y-120250003D01*
X118155492Y-120249996D01*
X118135647Y-120124699D01*
X118135647Y-120124698D01*
X118135646Y-120124696D01*
X118078050Y-120011658D01*
X118078046Y-120011654D01*
X118078045Y-120011652D01*
X117988347Y-119921954D01*
X117988344Y-119921952D01*
X117988342Y-119921950D01*
X117875304Y-119864354D01*
X117875303Y-119864353D01*
X117875300Y-119864352D01*
X117750003Y-119844508D01*
X117749997Y-119844508D01*
X117624699Y-119864352D01*
X117624698Y-119864352D01*
X117554148Y-119900300D01*
X117511658Y-119921950D01*
X117511657Y-119921951D01*
X117511652Y-119921954D01*
X117421954Y-120011652D01*
X117421951Y-120011657D01*
X117421950Y-120011658D01*
X117402751Y-120049337D01*
X117364352Y-120124698D01*
X117364352Y-120124699D01*
X117344508Y-120249996D01*
X117344508Y-120250003D01*
X115755492Y-120250003D01*
X115755492Y-120249996D01*
X115735647Y-120124699D01*
X115735647Y-120124698D01*
X115735646Y-120124696D01*
X115678050Y-120011658D01*
X115678046Y-120011654D01*
X115678045Y-120011652D01*
X115588347Y-119921954D01*
X115588344Y-119921952D01*
X115588342Y-119921950D01*
X115475304Y-119864354D01*
X115475303Y-119864353D01*
X115475300Y-119864352D01*
X115350003Y-119844508D01*
X115349997Y-119844508D01*
X115224699Y-119864352D01*
X115224698Y-119864352D01*
X115154148Y-119900300D01*
X115111658Y-119921950D01*
X115111657Y-119921951D01*
X115111652Y-119921954D01*
X115021954Y-120011652D01*
X115021951Y-120011657D01*
X115021950Y-120011658D01*
X115002751Y-120049337D01*
X114964352Y-120124698D01*
X114964352Y-120124699D01*
X114944508Y-120249996D01*
X114944508Y-120250003D01*
X111055492Y-120250003D01*
X111055492Y-120249996D01*
X111035647Y-120124699D01*
X111035647Y-120124698D01*
X111035646Y-120124696D01*
X110978050Y-120011658D01*
X110978046Y-120011654D01*
X110978045Y-120011652D01*
X110888347Y-119921954D01*
X110888344Y-119921952D01*
X110888342Y-119921950D01*
X110775304Y-119864354D01*
X110775303Y-119864353D01*
X110775300Y-119864352D01*
X110650003Y-119844508D01*
X110649997Y-119844508D01*
X110524699Y-119864352D01*
X110524698Y-119864352D01*
X110454148Y-119900300D01*
X110411658Y-119921950D01*
X110411657Y-119921951D01*
X110411652Y-119921954D01*
X110321954Y-120011652D01*
X110321951Y-120011657D01*
X110321950Y-120011658D01*
X110302751Y-120049337D01*
X110264352Y-120124698D01*
X110264352Y-120124699D01*
X110244508Y-120249996D01*
X110244508Y-120250003D01*
X69300500Y-120250003D01*
X69300500Y-119775003D01*
X104844508Y-119775003D01*
X104864352Y-119900300D01*
X104864352Y-119900301D01*
X104864354Y-119900304D01*
X104921950Y-120013342D01*
X104921952Y-120013344D01*
X104921954Y-120013347D01*
X105011652Y-120103045D01*
X105011654Y-120103046D01*
X105011658Y-120103050D01*
X105124696Y-120160646D01*
X105124697Y-120160646D01*
X105124699Y-120160647D01*
X105249997Y-120180492D01*
X105250000Y-120180492D01*
X105250003Y-120180492D01*
X105375300Y-120160647D01*
X105375301Y-120160647D01*
X105375302Y-120160646D01*
X105375304Y-120160646D01*
X105488342Y-120103050D01*
X105578050Y-120013342D01*
X105635646Y-119900304D01*
X105635646Y-119900302D01*
X105635647Y-119900301D01*
X105635647Y-119900300D01*
X105655492Y-119775003D01*
X105655492Y-119774996D01*
X105635647Y-119649699D01*
X105635647Y-119649698D01*
X105635646Y-119649696D01*
X105578050Y-119536658D01*
X105578046Y-119536654D01*
X105578045Y-119536652D01*
X105488347Y-119446954D01*
X105488344Y-119446952D01*
X105488342Y-119446950D01*
X105375304Y-119389354D01*
X105375303Y-119389353D01*
X105375300Y-119389352D01*
X105250003Y-119369508D01*
X105249997Y-119369508D01*
X105124699Y-119389352D01*
X105124698Y-119389352D01*
X105049337Y-119427751D01*
X105011658Y-119446950D01*
X105011657Y-119446951D01*
X105011652Y-119446954D01*
X104921954Y-119536652D01*
X104921951Y-119536657D01*
X104864352Y-119649698D01*
X104864352Y-119649699D01*
X104844508Y-119774996D01*
X104844508Y-119775003D01*
X69300500Y-119775003D01*
X69300500Y-118824000D01*
X69320185Y-118756961D01*
X69372989Y-118711206D01*
X69424500Y-118700000D01*
X133725500Y-118700000D01*
X133792539Y-118719685D01*
G37*
%TD.AperFunction*%
%TD*%
%TA.AperFunction,Conductor*%
%TO.N,Net-(U2-SW)*%
G36*
X100828326Y-133646674D02*
G01*
X100850000Y-133699000D01*
X100850000Y-135451000D01*
X100828326Y-135503326D01*
X100776000Y-135525000D01*
X90574000Y-135525000D01*
X90521674Y-135503326D01*
X90500000Y-135451000D01*
X90500000Y-133699000D01*
X90521674Y-133646674D01*
X90574000Y-133625000D01*
X100776000Y-133625000D01*
X100828326Y-133646674D01*
G37*
%TD.AperFunction*%
%TD*%
%TA.AperFunction,Conductor*%
%TO.N,Net-(U3-SW)*%
G36*
X100778326Y-122026674D02*
G01*
X100800000Y-122079000D01*
X100800000Y-123831000D01*
X100778326Y-123883326D01*
X100726000Y-123905000D01*
X90524000Y-123905000D01*
X90471674Y-123883326D01*
X90450000Y-123831000D01*
X90450000Y-122079000D01*
X90471674Y-122026674D01*
X90524000Y-122005000D01*
X100726000Y-122005000D01*
X100778326Y-122026674D01*
G37*
%TD.AperFunction*%
%TD*%
M02*
